<?xml version="1.0" encoding="iso-8859-1"?>
<!-- Generator: Adobe Illustrator 18.1.0, SVG Export Plug-In . SVG Version: 6.00 Build 0)  -->
<!DOCTYPE svg PUBLIC "-//W3C//DTD SVG 1.1//EN" "http://www.w3.org/Graphics/SVG/1.1/DTD/svg11.dtd">
<svg version="1.1" xmlns="http://www.w3.org/2000/svg" xmlns:xlink="http://www.w3.org/1999/xlink" x="0px" y="0px"
	 viewBox="0 0 163.467 171.841" style="enable-background:new 0 0 163.467 171.841;" xml:space="preserve">
<g id="air_x5F_travel_x5F_worker">
	<g style="opacity:0.1;">
		<g>
			<defs>
				<rect id="SVGID_1_" x="56.688" y="0" width="106.779" height="167.695"/>
			</defs>
			<clipPath id="SVGID_2_">
				<use xlink:href="#SVGID_1_"  style="overflow:visible;"/>
			</clipPath>
			<path style="clip-path:url(#SVGID_2_);fill:#231F20;" d="M64.501,111.366l0.168,59.918l57.709-21.475
				c49.466-42.252,28.582-99.851,28.582-99.851L62.95,11.371l17.694,22.352L79.609,56.59l-5.321,34.512l-0.276,5.327l1.126,4.342
				L64.501,111.366z"/>
		</g>
	</g>
	<path d="M121.378,149.809c-16.128,13.729-37.019,22.032-59.861,22.032c-23.628,0-45.176-8.88-61.517-23.469
		c2.214-8.346,4.886-17.933,6.659-25.332c2.461-10.26,6.046-9.304,6.046-9.304l27.757-9.324c1.054-1.866,4.989-7.484,7.903-7.983
		c0,0-0.609,1.194-0.202,3.21c0.43,2.122,7.739,8.183,9.352,10.124c0.524,0.629,0.972,1.154,1.364,1.603v27.503l1.81,2.542
		l1.811-2.542v-27.503c0.394-0.45,0.84-0.974,1.363-1.603c1.613-1.941,8.923-8.002,9.352-10.124c0.409-2.016-0.202-3.21-0.202-3.21
		c2.991,0.512,7.06,6.419,7.987,8.13c0,0,0,0.001,0.003,0.001l27.317,9.176c0,0,3.561-0.95,6.042,9.304
		C116.527,131.992,119.231,141.716,121.378,149.809 M54.661,28.854l-5.328-5.893l8.965-11.59c0.449-0.457,0.842,0.181,1.186,1.084
		c0.642-0.349,1.167-0.452,1.167-0.452s0.51,0.098,1.138,0.437c0.333-0.894,0.715-1.525,1.161-1.069l9.016,11.594l-5.324,5.889
		c0,0-3.103,3.315-5.991,3.315S54.661,28.854,54.661,28.854 M86.735,43.015c-0.066-0.175-0.144-0.334-0.212-0.504
		c-0.163-0.376-0.307-0.769-0.481-1.128c-0.062-0.135-0.134-0.253-0.197-0.385c0.858-0.81,0.274-1.587-2.626-5.426
		c-2.602-3.445-9.519-11.98-9.519-11.98l-7.058,7.809c0,0-3.103,3.316-5.991,3.316s-5.99-3.316-5.99-3.316l-7.059-7.809
		c0,0-6.919,8.535-9.521,11.98c-3.457,4.578-3.521,4.672-1.813,6.016c-1.549,3.509-2.615,7.681-2.858,12.43
		c-0.918,10.529,1.341,23.036,6.282,33.738c0.878,1.899,4.853,2.384,4.853,2.384c0.22,0.531-0.784-3.051-1.676-8.379
		c0.748,1.747,1.525,3.286,2.21,4.372c2.152,3.397,8.195,8.785,9.637,9.734c2.805,1.837,5.866,1.989,6.447,1.93l0.119,0.002
		c0.573,0,3.574-0.094,6.38-1.932c1.627-1.068,7.622-6.551,9.639-9.734c0.691-1.091,1.484-2.662,2.253-4.465
		c0.083-0.012,0.165-0.037,0.247-0.055c-0.898,5.409-1.922,9.062-1.699,8.527c0,0,3.973-0.485,4.851-2.384
		C89.786,72.953,91.507,54.693,86.735,43.015"/>
	<path d="M48.962,93.138v5.88c0,0,3.826,6.692,11.702,10.95v-9.936C60.664,100.032,54.222,97.693,48.962,93.138"/>
	<path d="M72.366,93.949v5.069c0,0-3.826,6.692-11.702,10.95v-9.936C60.664,100.032,67.106,98.504,72.366,93.949"/>
	<path style="fill:#FFFFFF;" d="M61.114,39.611c0,0-0.02,0.018-0.043,0.04h-1.293c-0.022-0.022-0.041-0.04-0.041-0.04
		c-1.837-1.884-8.569-2.224-8.569-2.224s2.755,2.771,5.508,4.225c1.575,0.832,2.56,0.569,3.126,0.194h1.246
		c0.567,0.375,1.551,0.638,3.126-0.194c2.755-1.454,5.509-4.225,5.509-4.225S62.951,37.727,61.114,39.611"/>
	<path style="fill:#FFFFFF;" d="M99.158,140.369c0,0-6.73,0.34-8.568,2.221c0,0-0.02,0.019-0.042,0.041h-1.293
		c-0.022-0.022-0.043-0.041-0.043-0.041c-1.837-1.881-8.568-2.221-8.568-2.221s2.754,2.346,5.509,3.798
		c0.736,0.389,1.336,0.56,1.835,0.617v0.003h0.098c0.206,0.018,0.395,0.021,0.562,0h2.507c0.167,0.021,0.356,0.018,0.561,0h0.098
		v-0.003c0.499-0.057,1.1-0.228,1.836-0.617C96.405,142.715,99.158,140.369,99.158,140.369"/>
</g>
<g id="Layer_1">
</g>
</svg>
