
<svg xmlns="http://www.w3.org/2000/svg" version="1.1" xmlns:xlink="http://www.w3.org/1999/xlink" preserveAspectRatio="none" x="0px" y="0px" width="200px" height="200px" viewBox="0 0 200 200">
  <defs>
    <g id="Layer0_0_FILL">

      <path fill="red" stroke="none" d="
        M 129.65 10.4
        L 129.4 10.3
        Q 129.025 10.175 128.7 10.05 129.1806640625 10.2337890625 129.65 10.4 Z"/>
      </g>
      
      <!-- circle background filll -->
      <g id="Layer0_1_FILL" >
        <path fill="#CCCCCC" stroke="none" d="
          M 408.45 688.35
          L 400.1 687.2 400.1 697.75 408.45 698.6 408.45 688.35
          M 421.5 705.95
          L 413.15 705.3 413.15 715.35 421.5 715.7 421.5 705.95
          M 453.05 703.5
          L 453.05 697.25 436.35 699.8 436.35 705.5 453.05 703.5
          M 453.05 715.55
          L 453.05 709.35 436.35 710.85 436.35 716.55 453.05 715.55
          M 395.45 703.85
          L 387.1 703.2 387.1 714.2 395.45 714.55 395.45 703.85
          M 400.1 704.25
          L 400.1 714.8 408.45 715.15 408.45 704.9 400.1 704.25
          M 395.45 686.55
          L 387.1 685.45 387.1 696.45 395.45 697.25 395.45 686.55
          M 387.1 678.65
          L 395.45 680 395.45 669.3 387.1 667.65 387.1 678.65
          M 395.45 652
          L 387.1 649.85 387.1 660.85 395.45 662.7 395.45 652
          M 387.1 632.1
          L 387.1 643.1 395.45 645.4 395.45 634.7 387.1 632.1
          M 395.45 617.4
          L 387.1 614.3 387.1 625.3 395.45 628.1 395.45 617.4
          M 395.45 600.1
          L 387.1 596.55 387.1 607.55 395.45 610.8 395.45 600.1
          M 408.45 648.95
          L 408.45 638.7 400.1 636.15 400.1 646.65 408.45 648.95
          M 453.05 691.4
          L 453.05 685.2 436.35 688.75 436.35 694.45 453.05 691.4
          M 457.2 659.65
          L 450.3 661.8 450.3 665.5 456.8 663.45 483.25 678.55 483.25 700.75
          Q 484.209765625 699.840234375 485.15 698.9 485.9359375 698.1140625 486.7 697.3
          L 486.7 676.55 457.2 659.65
          M 436.35 677.65
          L 436.35 683.35 453.05 679.35 453.05 673.1 436.35 677.65
          M 421.5 690.15
          L 413.15 689 413.15 699.05 421.5 699.9 421.5 690.15
          M 408.45 682.05
          L 408.45 671.8 400.1 670.2 400.1 680.7 408.45 682.05
          M 413.15 682.8
          L 421.5 684.1 421.5 674.35 413.15 672.7 413.15 682.8
          M 408.45 665.5
          L 408.45 655.25 400.1 653.15 400.1 663.7 408.45 665.5
          M 421.5 658.55
          L 413.15 656.45 413.15 666.5 421.5 668.3 421.5 658.55
          M 408.45 632.4
          L 408.45 622.15 400.1 619.1 400.1 629.65 408.45 632.4
          M 421.5 642.75
          L 413.15 640.15 413.15 650.25 421.5 652.5 421.5 642.75
          M 421.5 626.95
          L 413.15 623.9 413.15 633.95 421.5 636.75 421.5 626.95
          M 408.45 615.85
          L 408.45 605.6 400.1 602.05 400.1 612.6 408.45 615.85
          M 421.5 611.15
          L 413.15 607.6 413.15 617.7 421.5 620.95 421.5 611.15
          M 421.5 605.15
          L 421.5 595.35 413.15 591.35 413.15 601.4 421.5 605.15
          M 408.45 589.1
          L 400.1 585.05 400.1 595.6 408.45 599.3 408.45 589.1
          M 395.45 582.8
          L 387.1 578.75 387.1 589.75 395.45 593.5 395.45 582.8
          M 394.1 550.7
          Q 380.4322265625 556.4591796875 369.3 566.1 366.705078125 568.344921875 364.25 570.8 351.25 583.8 344.1 600.7 336.75 618.15 336.75 637.25 336.75 664.2 350.95 686.95 351.1490234375 687.2701171875 351.35 687.6
          L 351.35 589.6 381.9 567.95 426.7 590.75 426.7 591 454.8 603.5 478.3 589.3 478.55 589.5 507.95 602.45
          Q 506.78671875 599.007421875 505.35 595.6 501.9802734375 587.6353515625 497.3 580.5 492.20234375 572.8041015625 485.55 566.1 485.350390625 565.899609375 485.15 565.7 472.1 552.65 455.2 545.5 455.06328125 545.4421875 454.9 545.35
          L 451.9 544.3
          Q 456.24453125 545.98125 460.45 548.1
          L 460.4 548.15
          Q 446 543.3 430.65 543.3 411.55 543.3 394.1 550.7 Z"/>
      </g>

      <!-- circle shade fill -->
      <g id="Layer0_2_FILL">
          <path fill="#999999" stroke="none" d="
            M 386.35 543.7
            L 386.2 543.75
            Q 383.9400390625 544.55 381.7 545.5 364.85 552.6 351.85 565.6 338.85 578.6 331.75 595.45 330.8 597.6900390625 330 599.95
            L 329.95 600.1
            Q 324.4005859375 615.4689453125 324.35 632 324.35 632.1501953125 324.35 632.3 324.35 644.096875 327.15 655.25 327.612109375 657.1025390625 328.15 658.9
            L 330.75 666.45
            Q 330.849609375 666.7001953125 330.95 666.95 335.21640625 677.4755859375 342.2 687.1 346.4591796875 692.9822265625 351.35 698
            L 351.35 687.6
            Q 351.1490234375 687.2701171875 350.95 686.95 336.75 664.2 336.75 637.25 336.75 618.15 344.1 600.7 351.25 583.8 364.25 570.8 377.25 557.8 394.1 550.7 411.55 543.3 430.65 543.3 446 543.3 460.4 548.15
            L 460.45 548.1
            Q 456.24453125 545.98125 451.9 544.3
            L 450.9 543.9
            Q 449.9173828125 543.5361328125 448.9 543.15
            L 448.5 543.05
            Q 447.432421875 542.655859375 446.3 542.3 446.869921875 542.4634765625 447.4 542.6 433.4900390625 538.1 418.55 538.1 418.4 538.1 418.25 538.1 401.7185546875 538.150390625 386.35 543.7 Z"/>
      </g>

      <!-- Shadow Fill -->
      <g id="Layer0_3_FILL" opacity="1">
        <path fill="#B3B3B3" opacity="1" stroke="none" d="
          M 512.75 632.3
          Q 512.75 630.7283203125 512.7 629.15 512.260546875 615.40390625 507.95 602.45
          L 478.55 589.5 498.4 607.75 498.4 682.3
          Q 501.1818359375 677.8814453125 503.45 673.1 504.4552734375 671.06484375 505.35 668.95 512.75 651.45 512.75 632.3
          M 450.3 606.2
          L 454.8 603.5 426.7 591 426.7 726.15
          Q 427.9640625 726.0490234375 429.2 725.9 429.685546875 725.8572265625 430.15 725.8
          L 430.15 671.85 450.3 665.5 450.3 606.2 Z"/>
      </g>
      
      <!-- Buildling color fill -->
      <g id="Layer0_4_FILL">
        <path fill="#000000" stroke="none" d="
          M 450.3 661.8
          L 457.2 659.65 486.7 676.55 486.7 697.3
          Q 493.3626953125 690.344921875 498.4 682.3
          L 498.4 607.75 478.3 589.3 450.3 606.2 450.3 661.8
          M 483.25 678.55
          L 456.8 663.45 430.15 671.85 430.15 725.8
          Q 443.07109375 724.22890625 455.2 719.1 470.8822265625 712.465234375 483.25 700.75
          L 483.25 678.55
          M 436.35 683.35
          L 436.35 677.65 453.05 673.1 453.05 679.35 436.35 683.35
          M 453.05 685.2
          L 453.05 691.4 436.35 694.45 436.35 688.75 453.05 685.2
          M 453.05 709.35
          L 453.05 715.55 436.35 716.55 436.35 710.85 453.05 709.35
          M 453.05 697.25
          L 453.05 703.5 436.35 705.5 436.35 699.8 453.05 697.25
          M 381.9 567.95
          L 351.35 589.6 351.35 698.3
          Q 351.65 698.6 351.95 698.9 364.95 711.95 381.85 719.1 399.4 726.5 418.55 726.5 419.08671875 726.5 419.6 726.5
          L 426.15 726.2
          Q 426.42578125 726.173828125 426.7 726.15
          L 426.7 590.75 381.9 567.95
          M 387.1 578.75
          L 395.45 582.8 395.45 593.5 387.1 589.75 387.1 578.75
          M 400.1 585.05
          L 408.45 589.1 408.45 599.3 400.1 595.6 400.1 585.05
          M 421.5 595.35
          L 421.5 605.15 413.15 601.4 413.15 591.35 421.5 595.35
          M 413.15 607.6
          L 421.5 611.15 421.5 620.95 413.15 617.7 413.15 607.6
          M 408.45 605.6
          L 408.45 615.85 400.1 612.6 400.1 602.05 408.45 605.6
          M 421.5 626.95
          L 421.5 636.75 413.15 633.95 413.15 623.9 421.5 626.95
          M 408.45 622.15
          L 408.45 632.4 400.1 629.65 400.1 619.1 408.45 622.15
          M 413.15 640.15
          L 421.5 642.75 421.5 652.5 413.15 650.25 413.15 640.15
          M 413.15 656.45
          L 421.5 658.55 421.5 668.3 413.15 666.5 413.15 656.45
          M 408.45 655.25
          L 408.45 665.5 400.1 663.7 400.1 653.15 408.45 655.25
          M 421.5 684.1
          L 413.15 682.8 413.15 672.7 421.5 674.35 421.5 684.1
          M 413.15 689
          L 421.5 690.15 421.5 699.9 413.15 699.05 413.15 689
          M 408.45 671.8
          L 408.45 682.05 400.1 680.7 400.1 670.2 408.45 671.8
          M 408.45 638.7
          L 408.45 648.95 400.1 646.65 400.1 636.15 408.45 638.7
          M 387.1 596.55
          L 395.45 600.1 395.45 610.8 387.1 607.55 387.1 596.55
          M 387.1 614.3
          L 395.45 617.4 395.45 628.1 387.1 625.3 387.1 614.3
          M 387.1 643.1
          L 387.1 632.1 395.45 634.7 395.45 645.4 387.1 643.1
          M 387.1 649.85
          L 395.45 652 395.45 662.7 387.1 660.85 387.1 649.85
          M 387.1 685.45
          L 395.45 686.55 395.45 697.25 387.1 696.45 387.1 685.45
          M 395.45 669.3
          L 395.45 680 387.1 678.65 387.1 667.65 395.45 669.3
          M 400.1 714.8
          L 400.1 704.25 408.45 704.9 408.45 715.15 400.1 714.8
          M 387.1 703.2
          L 395.45 703.85 395.45 714.55 387.1 714.2 387.1 703.2
          M 413.15 715.35
          L 413.15 705.3 421.5 705.95 421.5 715.7 413.15 715.35
          M 400.1 687.2
          L 408.45 688.35 408.45 698.6 400.1 697.75 400.1 687.2 Z"/>
      </g>

      <path id="Layer0_1_1_STROKES" stroke="#9900FF" stroke-width="1" stroke-linejoin="round" stroke-linecap="round" fill="none" d="M 426.7 591.025 L 426.4 590.9"/>
      </defs>

      <g transform="matrix( 1, 0, 0, 1, 0,0) "><use xlink:href="#Layer0_0_FILL"/></g>

      <g transform="matrix( 1, 0, 0, 1, -318.05,-532.35) ">
        <use xlink:href="#Layer0_1_FILL"/>
        <use xlink:href="#Layer0_1_1_STROKES"/>
      </g>

      <g transform="matrix( 1, 0, 0, 1, -318.05,-532.35) "><use xlink:href="#Layer0_2_FILL"/></g>
      <g transform="matrix( 1, 0, 0, 1, -318.05,-532.35) "><use xlink:href="#Layer0_3_FILL"/></g>
      <g transform="matrix( 1, 0, 0, 1, -318.05,-532.35) "><use xlink:href="#Layer0_4_FILL"/></g>
</svg>
