<svg version="1.1" id="Layer_1" xmlns="http://www.w3.org/2000/svg" xmlns:xlink="http://www.w3.org/1999/xlink" x="0px" y="0px"
	 viewBox="0 0 200 200" enable-background="new 0 0 200 200" xml:space="preserve">
		<g transform="matrix( 1, 0, 0, 1, 0,0) ">
			<g>
				<g id="Layer0_0_FILL">
					<path fill="#CCCCCC" d="M130.8,4.7l-0.3-0.1c-0.3-0.1-0.5-0.2-0.7-0.3C130.1,4.4,130.5,4.6,130.8,4.7z"/>
				</g>
			</g>
		</g>
		<g transform="matrix( 1, 0, 0, 1, -318.05,-532.35) ">
			<g>
				<g id="Layer0_1_FILL">
					<path fill="#CCCCCC" d="M407.2,691.4l-8.9-1.2v11.2l8.9,0.9V691.4 M421.1,710.1l-8.9-0.7v10.7l8.9,0.4V710.1 M454.5,707.5v-6.6
						l-17.7,2.7v6L454.5,707.5 M454.5,720.3v-6.6l-17.7,1.6v6L454.5,720.3 M393.5,707.9l-8.9-0.7v11.7l8.9,0.4V707.9 M398.4,708.3
						v11.2l8.9,0.4V709L398.4,708.3 M393.5,689.5l-8.9-1.2V700l8.9,0.8V689.5 M384.6,681.2l8.9,1.4v-11.3l-8.9-1.7V681.2 M393.5,652.9
						l-8.9-2.3v11.7l8.9,2V652.9 M384.6,631.8v11.7l8.9,2.4v-11.3L384.6,631.8 M393.5,616.2l-8.9-3.3v11.7l8.9,3V616.2 M393.5,597.9
						l-8.9-3.8v11.7l8.9,3.4V597.9 M407.2,649.7v-10.9l-8.9-2.7v11.1L407.2,649.7 M454.5,694.7v-6.6l-17.7,3.8v6L454.5,694.7
						 M458.9,661l-7.3,2.3v3.9l6.9-2.2l28.1,16v23.5c0.7-0.6,1.4-1.3,2-2c0.6-0.6,1.1-1.1,1.6-1.7v-22L458.9,661 M436.8,680.1v6
						l17.7-4.2v-6.6L436.8,680.1 M421.1,693.4l-8.9-1.2v10.7l8.9,0.9V693.4 M407.2,684.8v-10.9l-8.9-1.7v11.1L407.2,684.8
						 M412.2,685.6l8.9,1.4v-10.3l-8.9-1.7V685.6 M407.2,667.2v-10.9l-8.9-2.2v11.2L407.2,667.2 M421.1,659.8l-8.9-2.2v10.7l8.9,1.9
						V659.8 M407.2,632.1v-10.9l-8.9-3.2v11.2L407.2,632.1 M421.1,643.1l-8.9-2.8V651l8.9,2.4V643.1 M421.1,626.3l-8.9-3.2v10.7l8.9,3
						V626.3 M407.2,614.6v-10.9l-8.9-3.8v11.2L407.2,614.6 M421.1,609.6l-8.9-3.8v10.7l8.9,3.4V609.6 M421.1,603.2v-10.4l-8.9-4.2
						v10.7L421.1,603.2 M407.2,586.2l-8.9-4.3v11.2l8.9,3.9V586.2 M393.5,579.5l-8.9-4.3v11.7l8.9,4V579.5 M392,545.5
						c-9.7,4.1-18.4,9.5-26.3,16.3c-1.8,1.6-3.6,3.2-5.4,5c-9.2,9.2-16.3,19.8-21.4,31.7c-5.2,12.3-7.8,25.3-7.8,38.8
						c0,19.1,5,36.6,15.1,52.7c0.1,0.2,0.3,0.5,0.4,0.7V586.7l32.4-23l47.5,24.2v0.3l29.8,13.3l24.9-15.1l0.3,0.2l31.2,13.7
						c-0.8-2.4-1.7-4.9-2.8-7.3c-2.4-5.6-5.2-11-8.5-16c-3.6-5.4-7.8-10.5-12.5-15.3c-0.1-0.1-0.3-0.3-0.4-0.4
						c-9.2-9.2-19.8-16.4-31.8-21.4c-0.1,0-0.2-0.1-0.3-0.2l-3.2-1.1c3.1,1.2,6.1,2.5,9.1,4l-0.1,0.1c-10.2-3.4-20.7-5.1-31.6-5.1
						C417.3,537.6,404.4,540.2,392,545.5z"/>
				</g>
			</g>
			<g>
				<path id="Layer0_1_1_STROKES" fill="none" stroke="#9900FF" stroke-linecap="round" stroke-linejoin="round" d="M426.6,588.2
					l-0.3-0.1"/>
			</g>
		</g>
		<g transform="matrix( 1, 0, 0, 1, -318.05,-532.35) ">
			<g>
				<g id="Layer0_2_FILL">
					<path fill="#999999" d="M383.8,538l-0.2,0.1c-1.6,0.6-3.2,1.2-4.8,1.9c-11.9,5-22.5,12.1-31.7,21.3c-9.2,9.2-16.3,19.7-21.3,31.7
						c-0.7,1.6-1.3,3.2-1.9,4.8l-0.1,0.2c-3.9,10.9-5.9,22.1-5.9,33.8c0,0.1,0,0.2,0,0.3c0,8.3,1,16.5,3,24.3c0.3,1.3,0.7,2.6,1.1,3.9
						l2.8,8c0.1,0.2,0.1,0.4,0.2,0.5c3,7.4,7,14.6,11.9,21.4c3,4.2,6.2,8,9.7,11.6v-11c-0.1-0.2-0.3-0.5-0.4-0.7
						c-10-16.1-15.1-33.7-15.1-52.7c0-13.5,2.6-26.4,7.8-38.8c5.1-11.9,12.2-22.5,21.4-31.7c9.2-9.2,19.7-16.3,31.7-21.3
						c12.3-5.2,25.3-7.8,38.8-7.8c10.9,0,21.4,1.7,31.6,5.1l0.1-0.1c-3-1.5-6-2.8-9.1-4l-1.1-0.4c-0.7-0.3-1.4-0.5-2.1-0.8l-0.4-0.1
						c-0.8-0.3-1.5-0.5-2.3-0.8c0.4,0.1,0.8,0.2,1.2,0.3c-9.8-3.2-20-4.8-30.6-4.8c-0.1,0-0.2,0-0.3,0
						C405.9,532.1,394.7,534.1,383.8,538z"/>
				</g>
			</g>
		</g>
		<g transform="matrix( 1, 0, 0, 1, -318.05,-532.35) ">
			<g>
				<g id="Layer0_3_FILL">
					<path fill="#B3B3B3" d="M517.8,632c0-1.1,0-2.2-0.1-3.3c-0.3-9.7-2-19.2-5-28.3l-31.2-13.7l21.1,19.4V685c2-3.1,3.8-6.4,5.4-9.8
						c0.7-1.4,1.4-2.9,2-4.4C515.2,658.5,517.8,645.5,517.8,632 M451.6,604.3l4.8-2.9l-29.8-13.3v143.3c0.9-0.1,1.8-0.2,2.7-0.3
						c0.3,0,0.7-0.1,1-0.1v-57.2l21.4-6.7V604.3z"/>
				</g>
			</g>
		</g>
		<g transform="matrix( 1, 0, 0, 1, -318.05,-532.35) ">
			<g>
				<g id="Layer0_4_FILL">
					<path d="M451.6,663.3l7.3-2.3l31.3,17.9v22c4.7-4.9,8.8-10.2,12.4-15.9V606l-21.3-19.6l-29.7,17.9V663.3 M486.6,681l-28.1-16
						l-28.3,8.9v57.2c9.1-1.1,18-3.5,26.6-7.1c11.1-4.7,21-11.2,29.7-19.5V681 M436.8,686.1v-6l17.7-4.8v6.6L436.8,686.1 M454.5,688.1
						v6.6l-17.7,3.2v-6L454.5,688.1 M454.5,713.7v6.6l-17.7,1.1v-6L454.5,713.7 M454.5,700.9v6.6l-17.7,2.1v-6L454.5,700.9
						 M379.1,563.8l-32.4,23V702c0.2,0.2,0.4,0.4,0.6,0.6c9.2,9.2,19.8,16.4,31.7,21.4c12.4,5.2,25.4,7.8,38.9,7.8c0.4,0,0.8,0,1.1,0
						l6.9-0.3c0.2,0,0.4,0,0.6-0.1V587.9L379.1,563.8 M384.6,575.2l8.9,4.3v11.3l-8.9-4V575.2 M398.4,581.9l8.9,4.3V597l-8.9-3.9
						V581.9 M421.1,592.8v10.4l-8.9-4v-10.7L421.1,592.8 M412.2,605.8l8.9,3.8V620l-8.9-3.4V605.8 M407.2,603.7v10.9l-8.9-3.4v-11.2
						L407.2,603.7 M421.1,626.3v10.4l-8.9-3v-10.7L421.1,626.3 M407.2,621.2v10.9l-8.9-2.9V618L407.2,621.2 M412.2,640.3l8.9,2.8v10.3
						l-8.9-2.4V640.3 M412.2,657.6l8.9,2.2v10.3l-8.9-1.9V657.6 M407.2,656.3v10.9l-8.9-1.9v-11.2L407.2,656.3 M421.1,686.9l-8.9-1.4
						v-10.7l8.9,1.7V686.9 M412.2,692.1l8.9,1.2v10.3l-8.9-0.9V692.1 M407.2,673.9v10.9l-8.9-1.4v-11.1L407.2,673.9 M407.2,638.8v10.9
						l-8.9-2.4v-11.1L407.2,638.8 M384.6,594.1l8.9,3.8v11.3l-8.9-3.4V594.1 M384.6,612.9l8.9,3.3v11.3l-8.9-3V612.9 M384.6,643.5
						v-11.7l8.9,2.8v11.3L384.6,643.5 M384.6,650.6l8.9,2.3v11.3l-8.9-2V650.6 M384.6,688.4l8.9,1.2v11.3l-8.9-0.8V688.4 M393.5,671.2
						v11.3l-8.9-1.4v-11.7L393.5,671.2 M398.4,719.5v-11.2l8.9,0.7v10.9L398.4,719.5 M384.6,707.2l8.9,0.7v11.3l-8.9-0.4V707.2
						 M412.2,720.1v-10.7l8.9,0.7v10.3L412.2,720.1 M398.4,690.2l8.9,1.2v10.9l-8.9-0.9V690.2z"/>
				</g>
			</g>
		</g>
</svg>
