<?xml version="1.0" encoding="iso-8859-1"?>
<!-- Generator: Adobe Illustrator 18.1.0, SVG Export Plug-In . SVG Version: 6.00 Build 0)  -->
<!DOCTYPE svg PUBLIC "-//W3C//DTD SVG 1.1//EN" "http://www.w3.org/Graphics/SVG/1.1/DTD/svg11.dtd">
<svg version="1.1" xmlns="http://www.w3.org/2000/svg" xmlns:xlink="http://www.w3.org/1999/xlink" x="0px" y="0px"
	 viewBox="0 0 197.822 190.027" style="enable-background:new 0 0 197.822 190.027;" xml:space="preserve">
<g id="businesses">
	<g>
		<defs>
			<circle id="SVGID_1_" cx="94.103" cy="94.103" r="94.103"/>
		</defs>
		<clipPath id="SVGID_2_">
			<use xlink:href="#SVGID_1_"  style="overflow:visible;"/>
		</clipPath>
		<polygon style="clip-path:url(#SVGID_2_);fill:#999999;" points="197.822,182.644 161.726,182.644 161.726,139.125 
			132.259,122.258 99.281,132.556 102.107,53.145 130.829,68.306 173.824,70.158 197.822,92.149 		"/>
	</g>
	<g>
		<defs>
			<circle id="SVGID_3_" cx="93.953" cy="94.684" r="93.591"/>
		</defs>
		<clipPath id="SVGID_4_">
			<use xlink:href="#SVGID_3_"  style="overflow:visible;"/>
		</clipPath>
		<g style="clip-path:url(#SVGID_4_);">
			<path d="M62.504,165.613l8.348,0.661v10.701l-8.348-0.363V165.613z M62.504,147.835l8.348,1.141v10.7l-8.348-0.844V147.835z
				 M62.504,130.055l8.348,1.624v10.699l-8.348-1.325V130.055z M62.504,112.275l8.348,2.105v10.701l-8.348-1.808V112.275z
				 M62.504,94.497l8.348,2.585v10.7l-8.348-2.288V94.497z M62.504,76.717l8.348,3.067v10.699l-8.348-2.768V76.717z M62.504,58.937
				l8.348,3.549v10.7l-8.348-3.251V58.937z M62.504,41.158l8.348,4.03v10.7l-8.348-3.732V41.158z M75.535,166.645l8.347,0.661
				v10.235l-8.347-0.363V166.645z M75.535,149.617l8.347,1.142v10.235l-8.347-0.844V149.617z M75.535,132.589l8.347,1.624v10.235
				l-8.347-1.326V132.589z M75.535,115.561l8.347,2.105v10.235l-8.347-1.807V115.561z M75.535,98.533l8.347,2.586v10.235
				l-8.347-2.288V98.533z M75.535,81.505l8.347,3.066v10.236l-8.347-2.769V81.505z M75.535,64.476l8.347,3.549V78.26l-8.347-3.25
				V64.476z M75.535,47.449l8.347,4.029v10.236l-8.347-3.733V47.449z M88.566,167.677l8.347,0.66v9.771l-8.347-0.363V167.677z
				 M88.566,151.4l8.347,1.142v9.77l-8.347-0.843V151.4z M88.566,135.123l8.347,1.624v9.771l-8.347-1.326V135.123z M88.566,118.846
				l8.347,2.105v9.771l-8.347-1.807V118.846z M88.566,102.57l8.347,2.585v9.771l-8.347-2.288V102.57z M88.566,86.293l8.347,3.067
				v9.77l-8.347-2.768V86.293z M88.566,70.016l8.347,3.549v9.769l-8.347-3.25V70.016z M88.566,53.739l8.347,4.03v9.77l-8.347-3.732
				V53.739z M26.789,52.018v138.008h75.318V53.145L57.31,30.331L26.789,52.018z"/>
			<path d="M128.459,141.733l-16.694,4.033v-5.7l16.694-4.553V141.733z M128.459,153.806l-16.694,3.025v-5.7l16.694-3.545V153.806z
				 M128.459,165.88l-16.694,2.016v-5.7l16.694-2.536V165.88z M128.459,177.953l-16.694,1.009v-5.7l16.694-1.529V177.953z
				 M132.227,125.838l-26.642,8.397v55.791h53.075v-49.058L132.227,125.838z"/>
			<polygon points="153.704,51.685 125.723,68.589 125.723,124.226 132.632,122.049 162.138,138.938 162.138,190.027 
				173.824,190.027 173.824,70.158 			"/>
		</g>
	</g>
</g>
<g id="Layer_1">
</g>
</svg>
