<?xml version="1.0" encoding="iso-8859-1"?>
<!-- Generator: Adobe Illustrator 18.1.0, SVG Export Plug-In . SVG Version: 6.00 Build 0)  -->
<!DOCTYPE svg PUBLIC "-//W3C//DTD SVG 1.1//EN" "http://www.w3.org/Graphics/SVG/1.1/DTD/svg11.dtd">
<svg version="1.1" xmlns="http://www.w3.org/2000/svg" xmlns:xlink="http://www.w3.org/1999/xlink" x="0px" y="0px"
	 viewBox="0 0 818.603 545.21" style="enable-background:new 0 0 818.603 545.21;" xml:space="preserve">
<g id="bytes_x5F_small">
	<path d="M6.055,40.507v12.79H5.696v-12.79H6.055z"/>
	<path d="M0.385,67.019c0.256-0.812,0.633-1.522,1.128-2.132s1.111-1.093,1.845-1.451s1.579-0.537,2.535-0.537
		c0.955,0,1.8,0.179,2.535,0.537s1.35,0.842,1.845,1.451c0.495,0.609,0.872,1.32,1.128,2.132c0.257,0.812,0.385,1.672,0.385,2.579
		c0,0.908-0.128,1.768-0.385,2.58s-0.633,1.522-1.128,2.132c-0.496,0.608-1.111,1.09-1.845,1.441
		c-0.734,0.353-1.58,0.528-2.535,0.528c-0.956,0-1.8-0.176-2.535-0.528c-0.734-0.352-1.35-0.833-1.845-1.441
		C1.018,73.7,0.642,72.99,0.385,72.178C0.128,71.365,0,70.506,0,69.598C0,68.69,0.128,67.831,0.385,67.019z M0.761,72.142
		c0.257,0.776,0.621,1.445,1.093,2.007s1.048,1,1.729,1.316s1.451,0.475,2.311,0.475s1.63-0.158,2.311-0.475
		c0.681-0.316,1.257-0.755,1.729-1.316c0.472-0.562,0.835-1.23,1.093-2.007c0.256-0.776,0.391-1.624,0.403-2.544
		c-0.012-0.919-0.146-1.767-0.403-2.543c-0.257-0.776-0.621-1.445-1.093-2.007c-0.472-0.561-1.048-1-1.729-1.316
		c-0.681-0.316-1.451-0.475-2.311-0.475s-1.63,0.158-2.311,0.475s-1.257,0.756-1.729,1.316c-0.472,0.562-0.836,1.23-1.093,2.007
		s-0.391,1.624-0.403,2.543C0.37,70.518,0.504,71.365,0.761,72.142z"/>
	<path d="M6.055,85.899v12.79H5.696v-12.79H6.055z"/>
	<path d="M0.385,112.411c0.256-0.812,0.633-1.522,1.128-2.132s1.111-1.093,1.845-1.451s1.579-0.537,2.535-0.537
		c0.955,0,1.8,0.179,2.535,0.537s1.35,0.842,1.845,1.451c0.495,0.609,0.872,1.32,1.128,2.132c0.257,0.812,0.385,1.672,0.385,2.579
		c0,0.908-0.128,1.768-0.385,2.58s-0.633,1.522-1.128,2.132c-0.496,0.608-1.111,1.09-1.845,1.441
		c-0.734,0.353-1.58,0.528-2.535,0.528c-0.956,0-1.8-0.176-2.535-0.528c-0.734-0.352-1.35-0.833-1.845-1.441
		c-0.496-0.609-0.872-1.319-1.128-2.132C0.128,116.758,0,115.898,0,114.99C0,114.083,0.128,113.224,0.385,112.411z M0.761,117.534
		c0.257,0.776,0.621,1.445,1.093,2.007s1.048,1,1.729,1.316s1.451,0.475,2.311,0.475s1.63-0.158,2.311-0.475
		c0.681-0.316,1.257-0.755,1.729-1.316c0.472-0.562,0.835-1.23,1.093-2.007c0.256-0.776,0.391-1.624,0.403-2.544
		c-0.012-0.919-0.146-1.767-0.403-2.543c-0.257-0.776-0.621-1.445-1.093-2.007c-0.472-0.561-1.048-1-1.729-1.316
		c-0.681-0.316-1.451-0.475-2.311-0.475s-1.63,0.158-2.311,0.475s-1.257,0.756-1.729,1.316c-0.472,0.562-0.836,1.23-1.093,2.007
		s-0.391,1.624-0.403,2.543C0.37,115.91,0.504,116.758,0.761,117.534z"/>
	<path d="M0.385,135.107c0.256-0.812,0.633-1.522,1.128-2.132s1.111-1.093,1.845-1.451s1.579-0.537,2.535-0.537
		c0.955,0,1.8,0.179,2.535,0.537s1.35,0.842,1.845,1.451c0.495,0.609,0.872,1.32,1.128,2.132c0.257,0.812,0.385,1.672,0.385,2.579
		c0,0.908-0.128,1.768-0.385,2.58s-0.633,1.522-1.128,2.132c-0.496,0.608-1.111,1.09-1.845,1.441
		c-0.734,0.353-1.58,0.528-2.535,0.528c-0.956,0-1.8-0.176-2.535-0.528c-0.734-0.352-1.35-0.833-1.845-1.441
		c-0.496-0.609-0.872-1.319-1.128-2.132C0.128,139.454,0,138.595,0,137.687C0,136.779,0.128,135.92,0.385,135.107z M0.761,140.23
		c0.257,0.776,0.621,1.445,1.093,2.007s1.048,1,1.729,1.316s1.451,0.475,2.311,0.475s1.63-0.158,2.311-0.475
		c0.681-0.316,1.257-0.755,1.729-1.316c0.472-0.562,0.835-1.23,1.093-2.007c0.256-0.776,0.391-1.624,0.403-2.544
		c-0.012-0.919-0.146-1.767-0.403-2.543c-0.257-0.776-0.621-1.445-1.093-2.007c-0.472-0.561-1.048-1-1.729-1.316
		c-0.681-0.316-1.451-0.475-2.311-0.475s-1.63,0.158-2.311,0.475s-1.257,0.756-1.729,1.316c-0.472,0.562-0.836,1.23-1.093,2.007
		s-0.391,1.624-0.403,2.543C0.37,138.606,0.504,139.454,0.761,140.23z"/>
	<path d="M6.055,153.988v12.79H5.696v-12.79H6.055z"/>
	<path d="M0.385,180.5c0.256-0.812,0.633-1.522,1.128-2.132s1.111-1.093,1.845-1.451s1.579-0.537,2.535-0.537
		c0.955,0,1.8,0.179,2.535,0.537s1.35,0.842,1.845,1.451c0.495,0.609,0.872,1.32,1.128,2.132c0.257,0.812,0.385,1.672,0.385,2.579
		c0,0.908-0.128,1.768-0.385,2.58s-0.633,1.522-1.128,2.132c-0.496,0.608-1.111,1.09-1.845,1.441
		c-0.734,0.353-1.58,0.528-2.535,0.528c-0.956,0-1.8-0.176-2.535-0.528c-0.734-0.352-1.35-0.833-1.845-1.441
		c-0.496-0.609-0.872-1.319-1.128-2.132C0.128,184.847,0,183.987,0,183.079C0,182.172,0.128,181.312,0.385,180.5z M0.761,185.623
		c0.257,0.776,0.621,1.445,1.093,2.007s1.048,1,1.729,1.316s1.451,0.475,2.311,0.475s1.63-0.158,2.311-0.475
		c0.681-0.316,1.257-0.755,1.729-1.316c0.472-0.562,0.835-1.23,1.093-2.007c0.256-0.776,0.391-1.624,0.403-2.544
		c-0.012-0.919-0.146-1.767-0.403-2.543c-0.257-0.776-0.621-1.445-1.093-2.007c-0.472-0.561-1.048-1-1.729-1.316
		c-0.681-0.316-1.451-0.475-2.311-0.475s-1.63,0.158-2.311,0.475s-1.257,0.756-1.729,1.316c-0.472,0.562-0.836,1.23-1.093,2.007
		s-0.391,1.624-0.403,2.543C0.37,183.999,0.504,184.847,0.761,185.623z"/>
	<path d="M6.055,199.381v12.79H5.696v-12.79H6.055z"/>
	<path d="M0.385,225.893c0.256-0.812,0.633-1.522,1.128-2.132s1.111-1.093,1.845-1.451s1.579-0.537,2.535-0.537
		c0.955,0,1.8,0.179,2.535,0.537s1.35,0.842,1.845,1.451c0.495,0.609,0.872,1.32,1.128,2.132c0.257,0.812,0.385,1.672,0.385,2.579
		c0,0.908-0.128,1.768-0.385,2.58s-0.633,1.522-1.128,2.132c-0.496,0.608-1.111,1.09-1.845,1.441
		c-0.734,0.353-1.58,0.528-2.535,0.528c-0.956,0-1.8-0.176-2.535-0.528c-0.734-0.352-1.35-0.833-1.845-1.441
		c-0.496-0.609-0.872-1.319-1.128-2.132C0.128,230.239,0,229.38,0,228.472C0,227.564,0.128,226.705,0.385,225.893z M0.761,231.016
		c0.257,0.776,0.621,1.445,1.093,2.007s1.048,1,1.729,1.316s1.451,0.475,2.311,0.475s1.63-0.158,2.311-0.475
		c0.681-0.316,1.257-0.755,1.729-1.316c0.472-0.562,0.835-1.23,1.093-2.007c0.256-0.776,0.391-1.624,0.403-2.544
		c-0.012-0.919-0.146-1.767-0.403-2.543c-0.257-0.776-0.621-1.445-1.093-2.007c-0.472-0.561-1.048-1-1.729-1.316
		c-0.681-0.316-1.451-0.475-2.311-0.475s-1.63,0.158-2.311,0.475s-1.257,0.756-1.729,1.316c-0.472,0.562-0.836,1.23-1.093,2.007
		s-0.391,1.624-0.403,2.543C0.37,229.392,0.504,230.239,0.761,231.016z"/>
	<path d="M6.055,244.773v12.79H5.696v-12.79H6.055z"/>
	<path d="M0.385,271.285c0.256-0.812,0.633-1.522,1.128-2.132s1.111-1.093,1.845-1.451s1.579-0.537,2.535-0.537
		c0.955,0,1.8,0.179,2.535,0.537s1.35,0.842,1.845,1.451c0.495,0.609,0.872,1.32,1.128,2.132c0.257,0.812,0.385,1.672,0.385,2.579
		c0,0.908-0.128,1.768-0.385,2.58s-0.633,1.522-1.128,2.132c-0.496,0.608-1.111,1.09-1.845,1.441
		c-0.734,0.353-1.58,0.528-2.535,0.528c-0.956,0-1.8-0.176-2.535-0.528c-0.734-0.352-1.35-0.833-1.845-1.441
		c-0.496-0.609-0.872-1.319-1.128-2.132C0.128,275.632,0,274.772,0,273.864C0,272.957,0.128,272.098,0.385,271.285z M0.761,276.408
		c0.257,0.776,0.621,1.445,1.093,2.007s1.048,1,1.729,1.316s1.451,0.475,2.311,0.475s1.63-0.158,2.311-0.475
		c0.681-0.316,1.257-0.755,1.729-1.316c0.472-0.562,0.835-1.23,1.093-2.007c0.256-0.776,0.391-1.624,0.403-2.544
		c-0.012-0.919-0.146-1.767-0.403-2.543c-0.257-0.776-0.621-1.445-1.093-2.007c-0.472-0.561-1.048-1-1.729-1.316
		c-0.681-0.316-1.451-0.475-2.311-0.475s-1.63,0.158-2.311,0.475s-1.257,0.756-1.729,1.316c-0.472,0.562-0.836,1.23-1.093,2.007
		s-0.391,1.624-0.403,2.543C0.37,274.784,0.504,275.632,0.761,276.408z"/>
	<path d="M0.385,293.981c0.256-0.812,0.633-1.522,1.128-2.132s1.111-1.093,1.845-1.451s1.579-0.537,2.535-0.537
		c0.955,0,1.8,0.179,2.535,0.537s1.35,0.842,1.845,1.451c0.495,0.609,0.872,1.32,1.128,2.132c0.257,0.812,0.385,1.672,0.385,2.579
		c0,0.908-0.128,1.768-0.385,2.58s-0.633,1.522-1.128,2.132c-0.496,0.608-1.111,1.09-1.845,1.441
		c-0.734,0.353-1.58,0.528-2.535,0.528c-0.956,0-1.8-0.176-2.535-0.528c-0.734-0.352-1.35-0.833-1.845-1.441
		c-0.496-0.609-0.872-1.319-1.128-2.132C0.128,298.328,0,297.469,0,296.561C0,295.653,0.128,294.794,0.385,293.981z M0.761,299.104
		c0.257,0.776,0.621,1.445,1.093,2.007s1.048,1,1.729,1.316s1.451,0.475,2.311,0.475s1.63-0.158,2.311-0.475
		c0.681-0.316,1.257-0.755,1.729-1.316c0.472-0.562,0.835-1.23,1.093-2.007c0.256-0.776,0.391-1.624,0.403-2.544
		c-0.012-0.919-0.146-1.767-0.403-2.543c-0.257-0.776-0.621-1.445-1.093-2.007c-0.472-0.561-1.048-1-1.729-1.316
		c-0.681-0.316-1.451-0.475-2.311-0.475s-1.63,0.158-2.311,0.475s-1.257,0.756-1.729,1.316c-0.472,0.562-0.836,1.23-1.093,2.007
		s-0.391,1.624-0.403,2.543C0.37,297.48,0.504,298.328,0.761,299.104z"/>
	<path d="M6.055,312.862v12.79H5.696v-12.79H6.055z"/>
	<path d="M0.385,339.374c0.256-0.812,0.633-1.522,1.128-2.132s1.111-1.093,1.845-1.451s1.579-0.537,2.535-0.537
		c0.955,0,1.8,0.179,2.535,0.537s1.35,0.842,1.845,1.451c0.495,0.609,0.872,1.32,1.128,2.132c0.257,0.812,0.385,1.672,0.385,2.579
		c0,0.908-0.128,1.768-0.385,2.58s-0.633,1.522-1.128,2.132c-0.496,0.608-1.111,1.09-1.845,1.441
		c-0.734,0.353-1.58,0.528-2.535,0.528c-0.956,0-1.8-0.176-2.535-0.528c-0.734-0.352-1.35-0.833-1.845-1.441
		c-0.496-0.609-0.872-1.319-1.128-2.132C0.128,343.721,0,342.861,0,341.953C0,341.046,0.128,340.187,0.385,339.374z M0.761,344.497
		c0.257,0.776,0.621,1.445,1.093,2.007s1.048,1,1.729,1.316s1.451,0.475,2.311,0.475s1.63-0.158,2.311-0.475
		c0.681-0.316,1.257-0.755,1.729-1.316c0.472-0.562,0.835-1.23,1.093-2.007c0.256-0.776,0.391-1.624,0.403-2.544
		c-0.012-0.919-0.146-1.767-0.403-2.543c-0.257-0.776-0.621-1.445-1.093-2.007c-0.472-0.561-1.048-1-1.729-1.316
		c-0.681-0.316-1.451-0.475-2.311-0.475s-1.63,0.158-2.311,0.475s-1.257,0.756-1.729,1.316c-0.472,0.562-0.836,1.23-1.093,2.007
		s-0.391,1.624-0.403,2.543C0.37,342.873,0.504,343.721,0.761,344.497z"/>
	<path d="M6.055,358.255v12.79H5.696v-12.79H6.055z"/>
	<path d="M0.385,384.767c0.256-0.812,0.633-1.522,1.128-2.132s1.111-1.093,1.845-1.451s1.579-0.537,2.535-0.537
		c0.955,0,1.8,0.179,2.535,0.537s1.35,0.842,1.845,1.451c0.495,0.609,0.872,1.32,1.128,2.132c0.257,0.812,0.385,1.672,0.385,2.579
		c0,0.908-0.128,1.768-0.385,2.58s-0.633,1.522-1.128,2.132c-0.496,0.608-1.111,1.09-1.845,1.441
		c-0.734,0.353-1.58,0.528-2.535,0.528c-0.956,0-1.8-0.176-2.535-0.528c-0.734-0.352-1.35-0.833-1.845-1.441
		c-0.496-0.609-0.872-1.319-1.128-2.132C0.128,389.113,0,388.254,0,387.346C0,386.438,0.128,385.579,0.385,384.767z M0.761,389.89
		c0.257,0.776,0.621,1.445,1.093,2.007s1.048,1,1.729,1.316s1.451,0.475,2.311,0.475s1.63-0.158,2.311-0.475
		c0.681-0.316,1.257-0.755,1.729-1.316c0.472-0.562,0.835-1.23,1.093-2.007c0.256-0.776,0.391-1.624,0.403-2.544
		c-0.012-0.919-0.146-1.767-0.403-2.543c-0.257-0.776-0.621-1.445-1.093-2.007c-0.472-0.561-1.048-1-1.729-1.316
		c-0.681-0.316-1.451-0.475-2.311-0.475s-1.63,0.158-2.311,0.475s-1.257,0.756-1.729,1.316c-0.472,0.562-0.836,1.23-1.093,2.007
		s-0.391,1.624-0.403,2.543C0.37,388.266,0.504,389.113,0.761,389.89z"/>
	<path d="M6.055,403.647v12.79H5.696v-12.79H6.055z"/>
	<g>
		<path d="M6.055,426.479v12.79H5.696v-12.79H6.055z"/>
	</g>
	<path d="M42.055,0v12.79h-0.358V0H42.055z"/>
	<path d="M36.385,26.512c0.256-0.812,0.633-1.522,1.128-2.132s1.111-1.093,1.845-1.451s1.579-0.537,2.535-0.537
		c0.955,0,1.8,0.179,2.535,0.537s1.35,0.842,1.845,1.451c0.495,0.609,0.872,1.32,1.128,2.132c0.257,0.812,0.385,1.672,0.385,2.579
		c0,0.908-0.128,1.768-0.385,2.58c-0.257,0.813-0.633,1.522-1.128,2.132c-0.496,0.608-1.111,1.09-1.845,1.441
		c-0.734,0.353-1.58,0.528-2.535,0.528c-0.956,0-1.8-0.176-2.535-0.528c-0.734-0.352-1.35-0.833-1.845-1.441
		c-0.496-0.609-0.872-1.319-1.128-2.132C36.128,30.858,36,29.999,36,29.091C36,28.184,36.128,27.324,36.385,26.512z M36.761,31.635
		c0.257,0.776,0.621,1.445,1.093,2.007s1.048,1,1.729,1.316s1.451,0.475,2.311,0.475s1.63-0.158,2.311-0.475
		c0.681-0.316,1.257-0.755,1.729-1.316c0.472-0.562,0.835-1.23,1.093-2.007c0.256-0.776,0.391-1.624,0.403-2.544
		c-0.012-0.919-0.146-1.767-0.403-2.543c-0.257-0.776-0.621-1.445-1.093-2.007c-0.472-0.561-1.048-1-1.729-1.316
		c-0.681-0.316-1.451-0.475-2.311-0.475s-1.63,0.158-2.311,0.475s-1.257,0.756-1.729,1.316c-0.472,0.562-0.836,1.23-1.093,2.007
		s-0.391,1.624-0.403,2.543C36.37,30.011,36.504,30.858,36.761,31.635z"/>
	<path d="M42.055,45.393v12.79h-0.358v-12.79H42.055z"/>
	<path d="M36.385,71.904c0.256-0.812,0.633-1.522,1.128-2.132s1.111-1.093,1.845-1.451s1.579-0.537,2.535-0.537
		c0.955,0,1.8,0.179,2.535,0.537s1.35,0.842,1.845,1.451c0.495,0.609,0.872,1.32,1.128,2.132c0.257,0.812,0.385,1.672,0.385,2.579
		c0,0.908-0.128,1.768-0.385,2.58s-0.633,1.522-1.128,2.132c-0.496,0.608-1.111,1.09-1.845,1.441
		c-0.734,0.353-1.58,0.528-2.535,0.528c-0.956,0-1.8-0.176-2.535-0.528c-0.734-0.352-1.35-0.833-1.845-1.441
		c-0.496-0.609-0.872-1.319-1.128-2.132C36.128,76.251,36,75.392,36,74.483C36,73.576,36.128,72.717,36.385,71.904z M36.761,77.027
		c0.257,0.776,0.621,1.445,1.093,2.007s1.048,1,1.729,1.316s1.451,0.475,2.311,0.475s1.63-0.158,2.311-0.475
		c0.681-0.316,1.257-0.755,1.729-1.316c0.472-0.562,0.835-1.23,1.093-2.007c0.256-0.776,0.391-1.624,0.403-2.544
		c-0.012-0.919-0.146-1.767-0.403-2.543c-0.257-0.776-0.621-1.445-1.093-2.007c-0.472-0.561-1.048-1-1.729-1.316
		c-0.681-0.316-1.451-0.475-2.311-0.475s-1.63,0.158-2.311,0.475s-1.257,0.756-1.729,1.316c-0.472,0.562-0.836,1.23-1.093,2.007
		s-0.391,1.624-0.403,2.543C36.37,75.403,36.504,76.251,36.761,77.027z"/>
	<path d="M36.385,94.601c0.256-0.812,0.633-1.522,1.128-2.132s1.111-1.093,1.845-1.451s1.579-0.537,2.535-0.537
		c0.955,0,1.8,0.179,2.535,0.537s1.35,0.842,1.845,1.451c0.495,0.609,0.872,1.32,1.128,2.132c0.257,0.812,0.385,1.672,0.385,2.579
		c0,0.908-0.128,1.768-0.385,2.58s-0.633,1.522-1.128,2.132c-0.496,0.608-1.111,1.09-1.845,1.441
		c-0.734,0.353-1.58,0.528-2.535,0.528c-0.956,0-1.8-0.176-2.535-0.528c-0.734-0.352-1.35-0.833-1.845-1.441
		c-0.496-0.609-0.872-1.319-1.128-2.132C36.128,98.947,36,98.088,36,97.18C36,96.272,36.128,95.413,36.385,94.601z M36.761,99.724
		c0.257,0.776,0.621,1.445,1.093,2.007s1.048,1,1.729,1.316s1.451,0.475,2.311,0.475s1.63-0.158,2.311-0.475
		c0.681-0.316,1.257-0.755,1.729-1.316c0.472-0.562,0.835-1.23,1.093-2.007c0.256-0.776,0.391-1.624,0.403-2.544
		c-0.012-0.919-0.146-1.767-0.403-2.543c-0.257-0.776-0.621-1.445-1.093-2.007c-0.472-0.561-1.048-1-1.729-1.316
		c-0.681-0.316-1.451-0.475-2.311-0.475s-1.63,0.158-2.311,0.475s-1.257,0.756-1.729,1.316c-0.472,0.562-0.836,1.23-1.093,2.007
		s-0.391,1.624-0.403,2.543C36.37,98.1,36.504,98.947,36.761,99.724z"/>
	<path d="M42.055,113.481v12.79h-0.358v-12.79H42.055z"/>
	<path d="M36.385,139.993c0.256-0.812,0.633-1.522,1.128-2.132s1.111-1.093,1.845-1.451s1.579-0.537,2.535-0.537
		c0.955,0,1.8,0.179,2.535,0.537s1.35,0.842,1.845,1.451c0.495,0.609,0.872,1.32,1.128,2.132c0.257,0.812,0.385,1.672,0.385,2.579
		c0,0.908-0.128,1.768-0.385,2.58s-0.633,1.522-1.128,2.132c-0.496,0.608-1.111,1.09-1.845,1.441
		c-0.734,0.353-1.58,0.528-2.535,0.528c-0.956,0-1.8-0.176-2.535-0.528c-0.734-0.352-1.35-0.833-1.845-1.441
		c-0.496-0.609-0.872-1.319-1.128-2.132C36.128,144.34,36,143.48,36,142.572C36,141.665,36.128,140.806,36.385,139.993z
		 M36.761,145.116c0.257,0.776,0.621,1.445,1.093,2.007s1.048,1,1.729,1.316s1.451,0.475,2.311,0.475s1.63-0.158,2.311-0.475
		c0.681-0.316,1.257-0.755,1.729-1.316c0.472-0.562,0.835-1.23,1.093-2.007c0.256-0.776,0.391-1.624,0.403-2.544
		c-0.012-0.919-0.146-1.767-0.403-2.543c-0.257-0.776-0.621-1.445-1.093-2.007c-0.472-0.561-1.048-1-1.729-1.316
		c-0.681-0.316-1.451-0.475-2.311-0.475s-1.63,0.158-2.311,0.475s-1.257,0.756-1.729,1.316c-0.472,0.562-0.836,1.23-1.093,2.007
		s-0.391,1.624-0.403,2.543C36.37,143.492,36.504,144.34,36.761,145.116z"/>
	<path d="M42.055,158.874v12.79h-0.358v-12.79H42.055z"/>
	<path d="M36.385,185.386c0.256-0.812,0.633-1.522,1.128-2.132s1.111-1.093,1.845-1.451s1.579-0.537,2.535-0.537
		c0.955,0,1.8,0.179,2.535,0.537s1.35,0.842,1.845,1.451c0.495,0.609,0.872,1.32,1.128,2.132c0.257,0.812,0.385,1.672,0.385,2.579
		c0,0.908-0.128,1.768-0.385,2.58s-0.633,1.522-1.128,2.132c-0.496,0.608-1.111,1.09-1.845,1.441
		c-0.734,0.353-1.58,0.528-2.535,0.528c-0.956,0-1.8-0.176-2.535-0.528c-0.734-0.352-1.35-0.833-1.845-1.441
		c-0.496-0.609-0.872-1.319-1.128-2.132c-0.257-0.812-0.385-1.672-0.385-2.58C36,187.058,36.128,186.198,36.385,185.386z
		 M36.761,190.509c0.257,0.776,0.621,1.445,1.093,2.007s1.048,1,1.729,1.316s1.451,0.475,2.311,0.475s1.63-0.158,2.311-0.475
		c0.681-0.316,1.257-0.755,1.729-1.316c0.472-0.562,0.835-1.23,1.093-2.007c0.256-0.776,0.391-1.624,0.403-2.544
		c-0.012-0.919-0.146-1.767-0.403-2.543c-0.257-0.776-0.621-1.445-1.093-2.007c-0.472-0.561-1.048-1-1.729-1.316
		c-0.681-0.316-1.451-0.475-2.311-0.475s-1.63,0.158-2.311,0.475s-1.257,0.756-1.729,1.316c-0.472,0.562-0.836,1.23-1.093,2.007
		s-0.391,1.624-0.403,2.543C36.37,188.885,36.504,189.732,36.761,190.509z"/>
	<path d="M42.055,204.267v12.79h-0.358v-12.79H42.055z"/>
	<path d="M36.385,230.778c0.256-0.812,0.633-1.522,1.128-2.132s1.111-1.093,1.845-1.451s1.579-0.537,2.535-0.537
		c0.955,0,1.8,0.179,2.535,0.537s1.35,0.842,1.845,1.451c0.495,0.609,0.872,1.32,1.128,2.132c0.257,0.812,0.385,1.672,0.385,2.579
		c0,0.908-0.128,1.768-0.385,2.58s-0.633,1.522-1.128,2.132c-0.496,0.608-1.111,1.09-1.845,1.441
		c-0.734,0.353-1.58,0.528-2.535,0.528c-0.956,0-1.8-0.176-2.535-0.528c-0.734-0.352-1.35-0.833-1.845-1.441
		c-0.496-0.609-0.872-1.319-1.128-2.132c-0.257-0.812-0.385-1.672-0.385-2.58C36,232.45,36.128,231.591,36.385,230.778z
		 M36.761,235.901c0.257,0.776,0.621,1.445,1.093,2.007s1.048,1,1.729,1.316s1.451,0.475,2.311,0.475s1.63-0.158,2.311-0.475
		c0.681-0.316,1.257-0.755,1.729-1.316c0.472-0.562,0.835-1.23,1.093-2.007c0.256-0.776,0.391-1.624,0.403-2.544
		c-0.012-0.919-0.146-1.767-0.403-2.543c-0.257-0.776-0.621-1.445-1.093-2.007c-0.472-0.561-1.048-1-1.729-1.316
		c-0.681-0.316-1.451-0.475-2.311-0.475s-1.63,0.158-2.311,0.475s-1.257,0.756-1.729,1.316c-0.472,0.562-0.836,1.23-1.093,2.007
		s-0.391,1.624-0.403,2.543C36.37,234.277,36.504,235.125,36.761,235.901z"/>
	<path d="M36.385,253.475c0.256-0.812,0.633-1.522,1.128-2.132s1.111-1.093,1.845-1.451s1.579-0.537,2.535-0.537
		c0.955,0,1.8,0.179,2.535,0.537s1.35,0.842,1.845,1.451c0.495,0.609,0.872,1.32,1.128,2.132c0.257,0.812,0.385,1.672,0.385,2.579
		c0,0.908-0.128,1.768-0.385,2.58s-0.633,1.522-1.128,2.132c-0.496,0.608-1.111,1.09-1.845,1.441
		c-0.734,0.353-1.58,0.528-2.535,0.528c-0.956,0-1.8-0.176-2.535-0.528c-0.734-0.352-1.35-0.833-1.845-1.441
		c-0.496-0.609-0.872-1.319-1.128-2.132c-0.257-0.812-0.385-1.672-0.385-2.58C36,255.146,36.128,254.287,36.385,253.475z
		 M36.761,258.598c0.257,0.776,0.621,1.445,1.093,2.007s1.048,1,1.729,1.316s1.451,0.475,2.311,0.475s1.63-0.158,2.311-0.475
		c0.681-0.316,1.257-0.755,1.729-1.316c0.472-0.562,0.835-1.23,1.093-2.007c0.256-0.776,0.391-1.624,0.403-2.544
		c-0.012-0.919-0.146-1.767-0.403-2.543c-0.257-0.776-0.621-1.445-1.093-2.007c-0.472-0.561-1.048-1-1.729-1.316
		c-0.681-0.316-1.451-0.475-2.311-0.475s-1.63,0.158-2.311,0.475s-1.257,0.756-1.729,1.316c-0.472,0.562-0.836,1.23-1.093,2.007
		s-0.391,1.624-0.403,2.543C36.37,256.974,36.504,257.821,36.761,258.598z"/>
	<path d="M42.055,272.355v12.79h-0.358v-12.79H42.055z"/>
	<path d="M36.385,298.867c0.256-0.812,0.633-1.522,1.128-2.132s1.111-1.093,1.845-1.451s1.579-0.537,2.535-0.537
		c0.955,0,1.8,0.179,2.535,0.537s1.35,0.842,1.845,1.451c0.495,0.609,0.872,1.32,1.128,2.132c0.257,0.812,0.385,1.672,0.385,2.579
		c0,0.908-0.128,1.768-0.385,2.58s-0.633,1.522-1.128,2.132c-0.496,0.608-1.111,1.09-1.845,1.441
		c-0.734,0.353-1.58,0.528-2.535,0.528c-0.956,0-1.8-0.176-2.535-0.528c-0.734-0.352-1.35-0.833-1.845-1.441
		c-0.496-0.609-0.872-1.319-1.128-2.132c-0.257-0.812-0.385-1.672-0.385-2.58C36,300.539,36.128,299.68,36.385,298.867z
		 M36.761,303.99c0.257,0.776,0.621,1.445,1.093,2.007s1.048,1,1.729,1.316s1.451,0.475,2.311,0.475s1.63-0.158,2.311-0.475
		c0.681-0.316,1.257-0.755,1.729-1.316c0.472-0.562,0.835-1.23,1.093-2.007c0.256-0.776,0.391-1.624,0.403-2.544
		c-0.012-0.919-0.146-1.767-0.403-2.543c-0.257-0.776-0.621-1.445-1.093-2.007c-0.472-0.561-1.048-1-1.729-1.316
		c-0.681-0.316-1.451-0.475-2.311-0.475s-1.63,0.158-2.311,0.475s-1.257,0.756-1.729,1.316c-0.472,0.562-0.836,1.23-1.093,2.007
		s-0.391,1.624-0.403,2.543C36.37,302.366,36.504,303.214,36.761,303.99z"/>
	<path d="M42.055,317.748v12.79h-0.358v-12.79H42.055z"/>
	<path d="M36.385,344.26c0.256-0.812,0.633-1.522,1.128-2.132s1.111-1.093,1.845-1.451s1.579-0.537,2.535-0.537
		c0.955,0,1.8,0.179,2.535,0.537s1.35,0.842,1.845,1.451c0.495,0.609,0.872,1.32,1.128,2.132c0.257,0.812,0.385,1.672,0.385,2.579
		c0,0.908-0.128,1.768-0.385,2.58s-0.633,1.522-1.128,2.132c-0.496,0.608-1.111,1.09-1.845,1.441
		c-0.734,0.353-1.58,0.528-2.535,0.528c-0.956,0-1.8-0.176-2.535-0.528c-0.734-0.352-1.35-0.833-1.845-1.441
		c-0.496-0.609-0.872-1.319-1.128-2.132c-0.257-0.812-0.385-1.672-0.385-2.58C36,345.932,36.128,345.072,36.385,344.26z
		 M36.761,349.383c0.257,0.776,0.621,1.445,1.093,2.007s1.048,1,1.729,1.316s1.451,0.475,2.311,0.475s1.63-0.158,2.311-0.475
		c0.681-0.316,1.257-0.755,1.729-1.316c0.472-0.562,0.835-1.23,1.093-2.007c0.256-0.776,0.391-1.624,0.403-2.544
		c-0.012-0.919-0.146-1.767-0.403-2.543c-0.257-0.776-0.621-1.445-1.093-2.007c-0.472-0.561-1.048-1-1.729-1.316
		c-0.681-0.316-1.451-0.475-2.311-0.475s-1.63,0.158-2.311,0.475s-1.257,0.756-1.729,1.316c-0.472,0.562-0.836,1.23-1.093,2.007
		s-0.391,1.624-0.403,2.543C36.37,347.759,36.504,348.606,36.761,349.383z"/>
	<path d="M42.055,363.141v12.79h-0.358v-12.79H42.055z"/>
	<g>
		<path d="M42.055,385.972v12.79h-0.358v-12.79H42.055z"/>
	</g>
	<path d="M812.871,105.942v12.79h-0.358v-12.79H812.871z"/>
	<path d="M807.201,132.453c0.256-0.812,0.633-1.522,1.128-2.132s1.111-1.093,1.845-1.451s1.579-0.537,2.535-0.537
		c0.955,0,1.8,0.179,2.535,0.537s1.35,0.842,1.845,1.451c0.495,0.609,0.872,1.32,1.128,2.132c0.257,0.812,0.385,1.672,0.385,2.579
		c0,0.908-0.128,1.768-0.385,2.58s-0.633,1.522-1.128,2.132c-0.496,0.608-1.111,1.09-1.845,1.441
		c-0.734,0.353-1.58,0.528-2.535,0.528c-0.956,0-1.8-0.176-2.535-0.528c-0.734-0.352-1.35-0.833-1.845-1.441
		c-0.496-0.609-0.872-1.319-1.128-2.132c-0.257-0.812-0.385-1.672-0.385-2.58C806.816,134.125,806.945,133.266,807.201,132.453z
		 M807.577,137.576c0.257,0.776,0.621,1.445,1.093,2.007s1.048,1,1.729,1.316s1.451,0.475,2.311,0.475s1.63-0.158,2.311-0.475
		c0.681-0.316,1.257-0.755,1.729-1.316c0.472-0.562,0.835-1.23,1.093-2.007c0.256-0.776,0.391-1.624,0.403-2.544
		c-0.012-0.919-0.146-1.767-0.403-2.543c-0.257-0.776-0.621-1.445-1.093-2.007c-0.472-0.561-1.048-1-1.729-1.316
		c-0.681-0.316-1.451-0.475-2.311-0.475s-1.63,0.158-2.311,0.475s-1.257,0.756-1.729,1.316c-0.472,0.562-0.836,1.23-1.093,2.007
		s-0.391,1.624-0.403,2.543C807.186,135.952,807.32,136.8,807.577,137.576z"/>
	<path d="M812.871,151.334v12.79h-0.358v-12.79H812.871z"/>
	<path d="M807.201,177.846c0.256-0.812,0.633-1.522,1.128-2.132s1.111-1.093,1.845-1.451s1.579-0.537,2.535-0.537
		c0.955,0,1.8,0.179,2.535,0.537s1.35,0.842,1.845,1.451c0.495,0.609,0.872,1.32,1.128,2.132c0.257,0.812,0.385,1.672,0.385,2.579
		c0,0.908-0.128,1.768-0.385,2.58s-0.633,1.522-1.128,2.132c-0.496,0.608-1.111,1.09-1.845,1.441
		c-0.734,0.353-1.58,0.528-2.535,0.528c-0.956,0-1.8-0.176-2.535-0.528c-0.734-0.352-1.35-0.833-1.845-1.441
		c-0.496-0.609-0.872-1.319-1.128-2.132c-0.257-0.812-0.385-1.672-0.385-2.58C806.816,179.518,806.945,178.658,807.201,177.846z
		 M807.577,182.969c0.257,0.776,0.621,1.445,1.093,2.007s1.048,1,1.729,1.316s1.451,0.475,2.311,0.475s1.63-0.158,2.311-0.475
		c0.681-0.316,1.257-0.755,1.729-1.316c0.472-0.562,0.835-1.23,1.093-2.007c0.256-0.776,0.391-1.624,0.403-2.544
		c-0.012-0.919-0.146-1.767-0.403-2.543c-0.257-0.776-0.621-1.445-1.093-2.007c-0.472-0.561-1.048-1-1.729-1.316
		c-0.681-0.316-1.451-0.475-2.311-0.475s-1.63,0.158-2.311,0.475s-1.257,0.756-1.729,1.316c-0.472,0.562-0.836,1.23-1.093,2.007
		s-0.391,1.624-0.403,2.543C807.186,181.345,807.32,182.193,807.577,182.969z"/>
	<path d="M807.201,200.542c0.256-0.812,0.633-1.522,1.128-2.132s1.111-1.093,1.845-1.451s1.579-0.537,2.535-0.537
		c0.955,0,1.8,0.179,2.535,0.537s1.35,0.842,1.845,1.451c0.495,0.609,0.872,1.32,1.128,2.132c0.257,0.812,0.385,1.672,0.385,2.579
		c0,0.908-0.128,1.768-0.385,2.58s-0.633,1.522-1.128,2.132c-0.496,0.608-1.111,1.09-1.845,1.441
		c-0.734,0.353-1.58,0.528-2.535,0.528c-0.956,0-1.8-0.176-2.535-0.528c-0.734-0.352-1.35-0.833-1.845-1.441
		c-0.496-0.609-0.872-1.319-1.128-2.132c-0.257-0.812-0.385-1.672-0.385-2.58C806.816,202.214,806.945,201.355,807.201,200.542z
		 M807.577,205.665c0.257,0.776,0.621,1.445,1.093,2.007s1.048,1,1.729,1.316s1.451,0.475,2.311,0.475s1.63-0.158,2.311-0.475
		c0.681-0.316,1.257-0.755,1.729-1.316c0.472-0.562,0.835-1.23,1.093-2.007c0.256-0.776,0.391-1.624,0.403-2.544
		c-0.012-0.919-0.146-1.767-0.403-2.543c-0.257-0.776-0.621-1.445-1.093-2.007c-0.472-0.561-1.048-1-1.729-1.316
		c-0.681-0.316-1.451-0.475-2.311-0.475s-1.63,0.158-2.311,0.475s-1.257,0.756-1.729,1.316c-0.472,0.562-0.836,1.23-1.093,2.007
		s-0.391,1.624-0.403,2.543C807.186,204.041,807.32,204.889,807.577,205.665z"/>
	<path d="M812.871,219.423v12.79h-0.358v-12.79H812.871z"/>
	<path d="M807.201,245.935c0.256-0.812,0.633-1.522,1.128-2.132s1.111-1.093,1.845-1.451s1.579-0.537,2.535-0.537
		c0.955,0,1.8,0.179,2.535,0.537s1.35,0.842,1.845,1.451c0.495,0.609,0.872,1.32,1.128,2.132c0.257,0.812,0.385,1.672,0.385,2.579
		c0,0.908-0.128,1.768-0.385,2.58s-0.633,1.522-1.128,2.132c-0.496,0.608-1.111,1.09-1.845,1.441
		c-0.734,0.353-1.58,0.528-2.535,0.528c-0.956,0-1.8-0.176-2.535-0.528c-0.734-0.352-1.35-0.833-1.845-1.441
		c-0.496-0.609-0.872-1.319-1.128-2.132c-0.257-0.812-0.385-1.672-0.385-2.58C806.816,247.607,806.945,246.747,807.201,245.935z
		 M807.577,251.058c0.257,0.776,0.621,1.445,1.093,2.007s1.048,1,1.729,1.316s1.451,0.475,2.311,0.475s1.63-0.158,2.311-0.475
		c0.681-0.316,1.257-0.755,1.729-1.316c0.472-0.562,0.835-1.23,1.093-2.007c0.256-0.776,0.391-1.624,0.403-2.544
		c-0.012-0.919-0.146-1.767-0.403-2.543c-0.257-0.776-0.621-1.445-1.093-2.007c-0.472-0.561-1.048-1-1.729-1.316
		c-0.681-0.316-1.451-0.475-2.311-0.475s-1.63,0.158-2.311,0.475s-1.257,0.756-1.729,1.316c-0.472,0.562-0.836,1.23-1.093,2.007
		s-0.391,1.624-0.403,2.543C807.186,249.434,807.32,250.281,807.577,251.058z"/>
	<path d="M812.871,264.816v12.79h-0.358v-12.79H812.871z"/>
	<path d="M807.201,291.327c0.256-0.812,0.633-1.522,1.128-2.132s1.111-1.093,1.845-1.451s1.579-0.537,2.535-0.537
		c0.955,0,1.8,0.179,2.535,0.537s1.35,0.842,1.845,1.451c0.495,0.609,0.872,1.32,1.128,2.132c0.257,0.812,0.385,1.672,0.385,2.579
		c0,0.908-0.128,1.768-0.385,2.58s-0.633,1.522-1.128,2.132c-0.496,0.608-1.111,1.09-1.845,1.441
		c-0.734,0.353-1.58,0.528-2.535,0.528c-0.956,0-1.8-0.176-2.535-0.528c-0.734-0.352-1.35-0.833-1.845-1.441
		c-0.496-0.609-0.872-1.319-1.128-2.132c-0.257-0.812-0.385-1.672-0.385-2.58C806.816,292.999,806.945,292.14,807.201,291.327z
		 M807.577,296.45c0.257,0.776,0.621,1.445,1.093,2.007s1.048,1,1.729,1.316s1.451,0.475,2.311,0.475s1.63-0.158,2.311-0.475
		c0.681-0.316,1.257-0.755,1.729-1.316c0.472-0.562,0.835-1.23,1.093-2.007c0.256-0.776,0.391-1.624,0.403-2.544
		c-0.012-0.919-0.146-1.767-0.403-2.543c-0.257-0.776-0.621-1.445-1.093-2.007c-0.472-0.561-1.048-1-1.729-1.316
		c-0.681-0.316-1.451-0.475-2.311-0.475s-1.63,0.158-2.311,0.475s-1.257,0.756-1.729,1.316c-0.472,0.562-0.836,1.23-1.093,2.007
		s-0.391,1.624-0.403,2.543C807.186,294.826,807.32,295.674,807.577,296.45z"/>
	<path d="M812.871,310.208v12.79h-0.358v-12.79H812.871z"/>
	<path d="M807.201,336.72c0.256-0.812,0.633-1.522,1.128-2.132s1.111-1.093,1.845-1.451s1.579-0.537,2.535-0.537
		c0.955,0,1.8,0.179,2.535,0.537s1.35,0.842,1.845,1.451c0.495,0.609,0.872,1.32,1.128,2.132c0.257,0.812,0.385,1.672,0.385,2.579
		c0,0.908-0.128,1.768-0.385,2.58s-0.633,1.522-1.128,2.132c-0.496,0.608-1.111,1.09-1.845,1.441
		c-0.734,0.353-1.58,0.528-2.535,0.528c-0.956,0-1.8-0.176-2.535-0.528c-0.734-0.352-1.35-0.833-1.845-1.441
		c-0.496-0.609-0.872-1.319-1.128-2.132c-0.257-0.812-0.385-1.672-0.385-2.58C806.816,338.392,806.945,337.532,807.201,336.72z
		 M807.577,341.843c0.257,0.776,0.621,1.445,1.093,2.007s1.048,1,1.729,1.316s1.451,0.475,2.311,0.475s1.63-0.158,2.311-0.475
		c0.681-0.316,1.257-0.755,1.729-1.316c0.472-0.562,0.835-1.23,1.093-2.007c0.256-0.776,0.391-1.624,0.403-2.544
		c-0.012-0.919-0.146-1.767-0.403-2.543c-0.257-0.776-0.621-1.445-1.093-2.007c-0.472-0.561-1.048-1-1.729-1.316
		c-0.681-0.316-1.451-0.475-2.311-0.475s-1.63,0.158-2.311,0.475s-1.257,0.756-1.729,1.316c-0.472,0.562-0.836,1.23-1.093,2.007
		s-0.391,1.624-0.403,2.543C807.186,340.219,807.32,341.067,807.577,341.843z"/>
	<path d="M807.201,359.416c0.256-0.812,0.633-1.522,1.128-2.132s1.111-1.093,1.845-1.451s1.579-0.537,2.535-0.537
		c0.955,0,1.8,0.179,2.535,0.537s1.35,0.842,1.845,1.451c0.495,0.609,0.872,1.32,1.128,2.132c0.257,0.812,0.385,1.672,0.385,2.579
		c0,0.908-0.128,1.768-0.385,2.58s-0.633,1.522-1.128,2.132c-0.496,0.608-1.111,1.09-1.845,1.441
		c-0.734,0.353-1.58,0.528-2.535,0.528c-0.956,0-1.8-0.176-2.535-0.528c-0.734-0.352-1.35-0.833-1.845-1.441
		c-0.496-0.609-0.872-1.319-1.128-2.132c-0.257-0.812-0.385-1.672-0.385-2.58C806.816,361.088,806.945,360.229,807.201,359.416z
		 M807.577,364.539c0.257,0.776,0.621,1.445,1.093,2.007s1.048,1,1.729,1.316s1.451,0.475,2.311,0.475s1.63-0.158,2.311-0.475
		c0.681-0.316,1.257-0.755,1.729-1.316c0.472-0.562,0.835-1.23,1.093-2.007c0.256-0.776,0.391-1.624,0.403-2.544
		c-0.012-0.919-0.146-1.767-0.403-2.543c-0.257-0.776-0.621-1.445-1.093-2.007c-0.472-0.561-1.048-1-1.729-1.316
		c-0.681-0.316-1.451-0.475-2.311-0.475s-1.63,0.158-2.311,0.475s-1.257,0.756-1.729,1.316c-0.472,0.562-0.836,1.23-1.093,2.007
		s-0.391,1.624-0.403,2.543C807.186,362.915,807.32,363.763,807.577,364.539z"/>
	<path d="M812.871,378.297v12.79h-0.358v-12.79H812.871z"/>
	<path d="M807.201,404.809c0.256-0.812,0.633-1.522,1.128-2.132s1.111-1.093,1.845-1.451s1.579-0.537,2.535-0.537
		c0.955,0,1.8,0.179,2.535,0.537s1.35,0.842,1.845,1.451c0.495,0.609,0.872,1.32,1.128,2.132c0.257,0.812,0.385,1.672,0.385,2.579
		c0,0.908-0.128,1.768-0.385,2.58s-0.633,1.522-1.128,2.132c-0.496,0.608-1.111,1.09-1.845,1.441
		c-0.734,0.353-1.58,0.528-2.535,0.528c-0.956,0-1.8-0.176-2.535-0.528c-0.734-0.352-1.35-0.833-1.845-1.441
		c-0.496-0.609-0.872-1.319-1.128-2.132c-0.257-0.812-0.385-1.672-0.385-2.58C806.816,406.481,806.945,405.621,807.201,404.809z
		 M807.577,409.932c0.257,0.776,0.621,1.445,1.093,2.007s1.048,1,1.729,1.316s1.451,0.475,2.311,0.475s1.63-0.158,2.311-0.475
		c0.681-0.316,1.257-0.755,1.729-1.316c0.472-0.562,0.835-1.23,1.093-2.007c0.256-0.776,0.391-1.624,0.403-2.544
		c-0.012-0.919-0.146-1.767-0.403-2.543c-0.257-0.776-0.621-1.445-1.093-2.007c-0.472-0.561-1.048-1-1.729-1.316
		c-0.681-0.316-1.451-0.475-2.311-0.475s-1.63,0.158-2.311,0.475s-1.257,0.756-1.729,1.316c-0.472,0.562-0.836,1.23-1.093,2.007
		s-0.391,1.624-0.403,2.543C807.186,408.308,807.32,409.155,807.577,409.932z"/>
	<path d="M812.871,423.69v12.79h-0.358v-12.79H812.871z"/>
	<path d="M807.201,450.201c0.256-0.812,0.633-1.522,1.128-2.132s1.111-1.093,1.845-1.451s1.579-0.537,2.535-0.537
		c0.955,0,1.8,0.179,2.535,0.537s1.35,0.842,1.845,1.451c0.495,0.609,0.872,1.32,1.128,2.132c0.257,0.812,0.385,1.672,0.385,2.579
		c0,0.908-0.128,1.768-0.385,2.58s-0.633,1.522-1.128,2.132c-0.496,0.608-1.111,1.09-1.845,1.441
		c-0.734,0.353-1.58,0.528-2.535,0.528c-0.956,0-1.8-0.176-2.535-0.528c-0.734-0.352-1.35-0.833-1.845-1.441
		c-0.496-0.609-0.872-1.319-1.128-2.132c-0.257-0.812-0.385-1.672-0.385-2.58C806.816,451.873,806.945,451.014,807.201,450.201z
		 M807.577,455.324c0.257,0.776,0.621,1.445,1.093,2.007s1.048,1,1.729,1.316s1.451,0.475,2.311,0.475s1.63-0.158,2.311-0.475
		c0.681-0.316,1.257-0.755,1.729-1.316c0.472-0.562,0.835-1.23,1.093-2.007c0.256-0.776,0.391-1.624,0.403-2.544
		c-0.012-0.919-0.146-1.767-0.403-2.543c-0.257-0.776-0.621-1.445-1.093-2.007c-0.472-0.561-1.048-1-1.729-1.316
		c-0.681-0.316-1.451-0.475-2.311-0.475s-1.63,0.158-2.311,0.475s-1.257,0.756-1.729,1.316c-0.472,0.562-0.836,1.23-1.093,2.007
		s-0.391,1.624-0.403,2.543C807.186,453.7,807.32,454.548,807.577,455.324z"/>
	<path d="M812.871,469.082v12.79h-0.358v-12.79H812.871z"/>
	<g>
		<path d="M812.871,491.913v12.79h-0.358v-12.79H812.871z"/>
	</g>
	<path d="M661.262,172.96c0.256-0.812,0.633-1.522,1.128-2.132s1.111-1.093,1.845-1.451s1.579-0.537,2.535-0.537
		c0.955,0,1.8,0.179,2.535,0.537s1.35,0.842,1.845,1.451c0.495,0.609,0.872,1.32,1.128,2.132c0.257,0.812,0.385,1.672,0.385,2.579
		c0,0.908-0.128,1.768-0.385,2.58s-0.633,1.522-1.128,2.132c-0.496,0.608-1.111,1.09-1.845,1.441
		c-0.734,0.353-1.58,0.528-2.535,0.528c-0.956,0-1.8-0.176-2.535-0.528c-0.734-0.352-1.35-0.833-1.845-1.441
		c-0.496-0.609-0.872-1.319-1.128-2.132c-0.257-0.812-0.385-1.672-0.385-2.58C660.877,174.632,661.006,173.773,661.262,172.96z
		 M661.638,178.083c0.257,0.776,0.621,1.445,1.093,2.007s1.048,1,1.729,1.316s1.451,0.475,2.311,0.475s1.63-0.158,2.311-0.475
		c0.681-0.316,1.257-0.755,1.729-1.316c0.472-0.562,0.835-1.23,1.093-2.007c0.256-0.776,0.391-1.624,0.403-2.544
		c-0.012-0.919-0.146-1.767-0.403-2.543c-0.257-0.776-0.621-1.445-1.093-2.007c-0.472-0.561-1.048-1-1.729-1.316
		c-0.681-0.316-1.451-0.475-2.311-0.475s-1.63,0.158-2.311,0.475s-1.257,0.756-1.729,1.316c-0.472,0.562-0.836,1.23-1.093,2.007
		s-0.391,1.624-0.403,2.543C661.247,176.459,661.382,177.307,661.638,178.083z"/>
	<path d="M666.932,191.841v12.79h-0.358v-12.79H666.932z"/>
	<path d="M661.262,218.353c0.256-0.812,0.633-1.522,1.128-2.132s1.111-1.093,1.845-1.451s1.579-0.537,2.535-0.537
		c0.955,0,1.8,0.179,2.535,0.537s1.35,0.842,1.845,1.451c0.495,0.609,0.872,1.32,1.128,2.132c0.257,0.812,0.385,1.672,0.385,2.579
		c0,0.908-0.128,1.768-0.385,2.58s-0.633,1.522-1.128,2.132c-0.496,0.608-1.111,1.09-1.845,1.441
		c-0.734,0.353-1.58,0.528-2.535,0.528c-0.956,0-1.8-0.176-2.535-0.528c-0.734-0.352-1.35-0.833-1.845-1.441
		c-0.496-0.609-0.872-1.319-1.128-2.132c-0.257-0.812-0.385-1.672-0.385-2.58C660.877,220.025,661.006,219.165,661.262,218.353z
		 M661.638,223.476c0.257,0.776,0.621,1.445,1.093,2.007s1.048,1,1.729,1.316s1.451,0.475,2.311,0.475s1.63-0.158,2.311-0.475
		c0.681-0.316,1.257-0.755,1.729-1.316c0.472-0.562,0.835-1.23,1.093-2.007c0.256-0.776,0.391-1.624,0.403-2.544
		c-0.012-0.919-0.146-1.767-0.403-2.543c-0.257-0.776-0.621-1.445-1.093-2.007c-0.472-0.561-1.048-1-1.729-1.316
		c-0.681-0.316-1.451-0.475-2.311-0.475s-1.63,0.158-2.311,0.475s-1.257,0.756-1.729,1.316c-0.472,0.562-0.836,1.23-1.093,2.007
		s-0.391,1.624-0.403,2.543C661.247,221.852,661.382,222.699,661.638,223.476z"/>
	<path d="M661.262,241.049c0.256-0.812,0.633-1.522,1.128-2.132s1.111-1.093,1.845-1.451s1.579-0.537,2.535-0.537
		c0.955,0,1.8,0.179,2.535,0.537s1.35,0.842,1.845,1.451c0.495,0.609,0.872,1.32,1.128,2.132c0.257,0.812,0.385,1.672,0.385,2.579
		c0,0.908-0.128,1.768-0.385,2.58s-0.633,1.522-1.128,2.132c-0.496,0.608-1.111,1.09-1.845,1.441
		c-0.734,0.353-1.58,0.528-2.535,0.528c-0.956,0-1.8-0.176-2.535-0.528c-0.734-0.352-1.35-0.833-1.845-1.441
		c-0.496-0.609-0.872-1.319-1.128-2.132c-0.257-0.812-0.385-1.672-0.385-2.58C660.877,242.721,661.006,241.862,661.262,241.049z
		 M661.638,246.172c0.257,0.776,0.621,1.445,1.093,2.007s1.048,1,1.729,1.316s1.451,0.475,2.311,0.475s1.63-0.158,2.311-0.475
		c0.681-0.316,1.257-0.755,1.729-1.316c0.472-0.562,0.835-1.23,1.093-2.007c0.256-0.776,0.391-1.624,0.403-2.544
		c-0.012-0.919-0.146-1.767-0.403-2.543c-0.257-0.776-0.621-1.445-1.093-2.007c-0.472-0.561-1.048-1-1.729-1.316
		c-0.681-0.316-1.451-0.475-2.311-0.475s-1.63,0.158-2.311,0.475s-1.257,0.756-1.729,1.316c-0.472,0.562-0.836,1.23-1.093,2.007
		s-0.391,1.624-0.403,2.543C661.247,244.548,661.382,245.396,661.638,246.172z"/>
	<path d="M666.932,259.93v12.79h-0.358v-12.79H666.932z"/>
	<path d="M661.262,286.442c0.256-0.812,0.633-1.522,1.128-2.132s1.111-1.093,1.845-1.451s1.579-0.537,2.535-0.537
		c0.955,0,1.8,0.179,2.535,0.537s1.35,0.842,1.845,1.451c0.495,0.609,0.872,1.32,1.128,2.132c0.257,0.812,0.385,1.672,0.385,2.579
		c0,0.908-0.128,1.768-0.385,2.58s-0.633,1.522-1.128,2.132c-0.496,0.608-1.111,1.09-1.845,1.441
		c-0.734,0.353-1.58,0.528-2.535,0.528c-0.956,0-1.8-0.176-2.535-0.528c-0.734-0.352-1.35-0.833-1.845-1.441
		c-0.496-0.609-0.872-1.319-1.128-2.132c-0.257-0.812-0.385-1.672-0.385-2.58C660.877,288.113,661.006,287.254,661.262,286.442z
		 M661.638,291.565c0.257,0.776,0.621,1.445,1.093,2.007s1.048,1,1.729,1.316s1.451,0.475,2.311,0.475s1.63-0.158,2.311-0.475
		c0.681-0.316,1.257-0.755,1.729-1.316c0.472-0.562,0.835-1.23,1.093-2.007c0.256-0.776,0.391-1.624,0.403-2.544
		c-0.012-0.919-0.146-1.767-0.403-2.543c-0.257-0.776-0.621-1.445-1.093-2.007c-0.472-0.561-1.048-1-1.729-1.316
		c-0.681-0.316-1.451-0.475-2.311-0.475s-1.63,0.158-2.311,0.475s-1.257,0.756-1.729,1.316c-0.472,0.562-0.836,1.23-1.093,2.007
		s-0.391,1.624-0.403,2.543C661.247,289.941,661.382,290.788,661.638,291.565z"/>
	<path d="M666.932,305.322v12.79h-0.358v-12.79H666.932z"/>
	<path d="M661.262,331.834c0.256-0.812,0.633-1.522,1.128-2.132s1.111-1.093,1.845-1.451s1.579-0.537,2.535-0.537
		c0.955,0,1.8,0.179,2.535,0.537s1.35,0.842,1.845,1.451c0.495,0.609,0.872,1.32,1.128,2.132c0.257,0.812,0.385,1.672,0.385,2.579
		c0,0.908-0.128,1.768-0.385,2.58s-0.633,1.522-1.128,2.132c-0.496,0.608-1.111,1.09-1.845,1.441
		c-0.734,0.353-1.58,0.528-2.535,0.528c-0.956,0-1.8-0.176-2.535-0.528c-0.734-0.352-1.35-0.833-1.845-1.441
		c-0.496-0.609-0.872-1.319-1.128-2.132c-0.257-0.812-0.385-1.672-0.385-2.58C660.877,333.506,661.006,332.647,661.262,331.834z
		 M661.638,336.957c0.257,0.776,0.621,1.445,1.093,2.007s1.048,1,1.729,1.316s1.451,0.475,2.311,0.475s1.63-0.158,2.311-0.475
		c0.681-0.316,1.257-0.755,1.729-1.316c0.472-0.562,0.835-1.23,1.093-2.007c0.256-0.776,0.391-1.624,0.403-2.544
		c-0.012-0.919-0.146-1.767-0.403-2.543c-0.257-0.776-0.621-1.445-1.093-2.007c-0.472-0.561-1.048-1-1.729-1.316
		c-0.681-0.316-1.451-0.475-2.311-0.475s-1.63,0.158-2.311,0.475s-1.257,0.756-1.729,1.316c-0.472,0.562-0.836,1.23-1.093,2.007
		s-0.391,1.624-0.403,2.543C661.247,335.333,661.382,336.181,661.638,336.957z"/>
	<path d="M666.932,350.715v12.79h-0.358v-12.79H666.932z"/>
	<path d="M661.262,377.227c0.256-0.812,0.633-1.522,1.128-2.132s1.111-1.093,1.845-1.451s1.579-0.537,2.535-0.537
		c0.955,0,1.8,0.179,2.535,0.537s1.35,0.842,1.845,1.451c0.495,0.609,0.872,1.32,1.128,2.132c0.257,0.812,0.385,1.672,0.385,2.579
		c0,0.908-0.128,1.768-0.385,2.58s-0.633,1.522-1.128,2.132c-0.496,0.608-1.111,1.09-1.845,1.441
		c-0.734,0.353-1.58,0.528-2.535,0.528c-0.956,0-1.8-0.176-2.535-0.528c-0.734-0.352-1.35-0.833-1.845-1.441
		c-0.496-0.609-0.872-1.319-1.128-2.132c-0.257-0.812-0.385-1.672-0.385-2.58C660.877,378.899,661.006,378.039,661.262,377.227z
		 M661.638,382.35c0.257,0.776,0.621,1.445,1.093,2.007s1.048,1,1.729,1.316s1.451,0.475,2.311,0.475s1.63-0.158,2.311-0.475
		c0.681-0.316,1.257-0.755,1.729-1.316c0.472-0.562,0.835-1.23,1.093-2.007c0.256-0.776,0.391-1.624,0.403-2.544
		c-0.012-0.919-0.146-1.767-0.403-2.543c-0.257-0.776-0.621-1.445-1.093-2.007c-0.472-0.561-1.048-1-1.729-1.316
		c-0.681-0.316-1.451-0.475-2.311-0.475s-1.63,0.158-2.311,0.475s-1.257,0.756-1.729,1.316c-0.472,0.562-0.836,1.23-1.093,2.007
		s-0.391,1.624-0.403,2.543C661.247,380.726,661.382,381.573,661.638,382.35z"/>
	<path d="M661.262,399.923c0.256-0.812,0.633-1.522,1.128-2.132s1.111-1.093,1.845-1.451s1.579-0.537,2.535-0.537
		c0.955,0,1.8,0.179,2.535,0.537s1.35,0.842,1.845,1.451c0.495,0.609,0.872,1.32,1.128,2.132c0.257,0.812,0.385,1.672,0.385,2.579
		c0,0.908-0.128,1.768-0.385,2.58s-0.633,1.522-1.128,2.132c-0.496,0.608-1.111,1.09-1.845,1.441
		c-0.734,0.353-1.58,0.528-2.535,0.528c-0.956,0-1.8-0.176-2.535-0.528c-0.734-0.352-1.35-0.833-1.845-1.441
		c-0.496-0.609-0.872-1.319-1.128-2.132c-0.257-0.812-0.385-1.672-0.385-2.58C660.877,401.595,661.006,400.736,661.262,399.923z
		 M661.638,405.046c0.257,0.776,0.621,1.445,1.093,2.007s1.048,1,1.729,1.316s1.451,0.475,2.311,0.475s1.63-0.158,2.311-0.475
		c0.681-0.316,1.257-0.755,1.729-1.316c0.472-0.562,0.835-1.23,1.093-2.007c0.256-0.776,0.391-1.624,0.403-2.544
		c-0.012-0.919-0.146-1.767-0.403-2.543c-0.257-0.776-0.621-1.445-1.093-2.007c-0.472-0.561-1.048-1-1.729-1.316
		c-0.681-0.316-1.451-0.475-2.311-0.475s-1.63,0.158-2.311,0.475s-1.257,0.756-1.729,1.316c-0.472,0.562-0.836,1.23-1.093,2.007
		s-0.391,1.624-0.403,2.543C661.247,403.422,661.382,404.27,661.638,405.046z"/>
	<path d="M666.932,418.804v12.79h-0.358v-12.79H666.932z"/>
	<path d="M661.262,445.316c0.256-0.812,0.633-1.522,1.128-2.132s1.111-1.093,1.845-1.451s1.579-0.537,2.535-0.537
		c0.955,0,1.8,0.179,2.535,0.537s1.35,0.842,1.845,1.451c0.495,0.609,0.872,1.32,1.128,2.132c0.257,0.812,0.385,1.672,0.385,2.579
		c0,0.908-0.128,1.768-0.385,2.58s-0.633,1.522-1.128,2.132c-0.496,0.608-1.111,1.09-1.845,1.441
		c-0.734,0.353-1.58,0.528-2.535,0.528c-0.956,0-1.8-0.176-2.535-0.528c-0.734-0.352-1.35-0.833-1.845-1.441
		c-0.496-0.609-0.872-1.319-1.128-2.132c-0.257-0.812-0.385-1.672-0.385-2.58C660.877,446.987,661.006,446.128,661.262,445.316z
		 M661.638,450.439c0.257,0.776,0.621,1.445,1.093,2.007s1.048,1,1.729,1.316s1.451,0.475,2.311,0.475s1.63-0.158,2.311-0.475
		c0.681-0.316,1.257-0.755,1.729-1.316c0.472-0.562,0.835-1.23,1.093-2.007c0.256-0.776,0.391-1.624,0.403-2.544
		c-0.012-0.919-0.146-1.767-0.403-2.543c-0.257-0.776-0.621-1.445-1.093-2.007c-0.472-0.561-1.048-1-1.729-1.316
		c-0.681-0.316-1.451-0.475-2.311-0.475s-1.63,0.158-2.311,0.475s-1.257,0.756-1.729,1.316c-0.472,0.562-0.836,1.23-1.093,2.007
		s-0.391,1.624-0.403,2.543C661.247,448.815,661.382,449.662,661.638,450.439z"/>
	<path d="M666.932,464.196v12.79h-0.358v-12.79H666.932z"/>
	<path d="M661.262,490.708c0.256-0.812,0.633-1.522,1.128-2.132s1.111-1.093,1.845-1.451s1.579-0.537,2.535-0.537
		c0.955,0,1.8,0.179,2.535,0.537s1.35,0.842,1.845,1.451c0.495,0.609,0.872,1.32,1.128,2.132c0.257,0.812,0.385,1.672,0.385,2.579
		c0,0.908-0.128,1.768-0.385,2.58s-0.633,1.522-1.128,2.132c-0.496,0.608-1.111,1.09-1.845,1.441
		c-0.734,0.353-1.58,0.528-2.535,0.528c-0.956,0-1.8-0.176-2.535-0.528c-0.734-0.352-1.35-0.833-1.845-1.441
		c-0.496-0.609-0.872-1.319-1.128-2.132c-0.257-0.812-0.385-1.672-0.385-2.58C660.877,492.38,661.006,491.521,661.262,490.708z
		 M661.638,495.831c0.257,0.776,0.621,1.445,1.093,2.007s1.048,1,1.729,1.316s1.451,0.475,2.311,0.475s1.63-0.158,2.311-0.475
		c0.681-0.316,1.257-0.755,1.729-1.316c0.472-0.562,0.835-1.23,1.093-2.007c0.256-0.776,0.391-1.624,0.403-2.544
		c-0.012-0.919-0.146-1.767-0.403-2.543c-0.257-0.776-0.621-1.445-1.093-2.007c-0.472-0.561-1.048-1-1.729-1.316
		c-0.681-0.316-1.451-0.475-2.311-0.475s-1.63,0.158-2.311,0.475s-1.257,0.756-1.729,1.316c-0.472,0.562-0.836,1.23-1.093,2.007
		s-0.391,1.624-0.403,2.543C661.247,494.207,661.382,495.055,661.638,495.831z"/>
	<path d="M666.932,509.589v12.79h-0.358v-12.79H666.932z"/>
	<g>
		<path d="M666.932,532.42v12.79h-0.358v-12.79H666.932z"/>
	</g>
	<path d="M735.161,52.864c0.256-0.812,0.633-1.522,1.128-2.132s1.111-1.093,1.845-1.451s1.579-0.537,2.535-0.537
		c0.955,0,1.8,0.179,2.535,0.537s1.35,0.842,1.845,1.451c0.495,0.609,0.872,1.32,1.128,2.132c0.257,0.812,0.385,1.672,0.385,2.579
		c0,0.908-0.128,1.768-0.385,2.58s-0.633,1.522-1.128,2.132c-0.496,0.608-1.111,1.09-1.845,1.441
		c-0.734,0.353-1.58,0.528-2.535,0.528c-0.956,0-1.8-0.176-2.535-0.528c-0.734-0.352-1.35-0.833-1.845-1.441
		c-0.496-0.609-0.872-1.319-1.128-2.132c-0.257-0.812-0.385-1.672-0.385-2.58C734.775,54.536,734.904,53.676,735.161,52.864z
		 M735.537,57.987c0.257,0.776,0.621,1.445,1.093,2.007s1.048,1,1.729,1.316s1.451,0.475,2.311,0.475s1.63-0.158,2.311-0.475
		c0.681-0.316,1.257-0.755,1.729-1.316c0.472-0.562,0.835-1.23,1.093-2.007c0.256-0.776,0.391-1.624,0.403-2.544
		c-0.012-0.919-0.146-1.767-0.403-2.543c-0.257-0.776-0.621-1.445-1.093-2.007c-0.472-0.561-1.048-1-1.729-1.316
		c-0.681-0.316-1.451-0.475-2.311-0.475s-1.63,0.158-2.311,0.475s-1.257,0.756-1.729,1.316c-0.472,0.562-0.836,1.23-1.093,2.007
		s-0.391,1.624-0.403,2.543C735.146,56.363,735.28,57.211,735.537,57.987z"/>
	<path d="M735.161,98.257c0.256-0.812,0.633-1.522,1.128-2.132s1.111-1.093,1.845-1.451s1.579-0.537,2.535-0.537
		c0.955,0,1.8,0.179,2.535,0.537s1.35,0.842,1.845,1.451c0.495,0.609,0.872,1.32,1.128,2.132c0.257,0.812,0.385,1.672,0.385,2.579
		c0,0.908-0.128,1.768-0.385,2.58s-0.633,1.522-1.128,2.132c-0.496,0.608-1.111,1.09-1.845,1.441
		c-0.734,0.353-1.58,0.528-2.535,0.528c-0.956,0-1.8-0.176-2.535-0.528c-0.734-0.352-1.35-0.833-1.845-1.441
		c-0.496-0.609-0.872-1.319-1.128-2.132c-0.257-0.812-0.385-1.672-0.385-2.58C734.775,99.928,734.904,99.069,735.161,98.257z
		 M735.537,103.38c0.257,0.776,0.621,1.445,1.093,2.007s1.048,1,1.729,1.316s1.451,0.475,2.311,0.475s1.63-0.158,2.311-0.475
		c0.681-0.316,1.257-0.755,1.729-1.316c0.472-0.562,0.835-1.23,1.093-2.007c0.256-0.776,0.391-1.624,0.403-2.544
		c-0.012-0.919-0.146-1.767-0.403-2.543c-0.257-0.776-0.621-1.445-1.093-2.007c-0.472-0.561-1.048-1-1.729-1.316
		c-0.681-0.316-1.451-0.475-2.311-0.475s-1.63,0.158-2.311,0.475s-1.257,0.756-1.729,1.316c-0.472,0.562-0.836,1.23-1.093,2.007
		s-0.391,1.624-0.403,2.543C735.146,101.756,735.28,102.603,735.537,103.38z"/>
	<path d="M735.161,120.953c0.256-0.812,0.633-1.522,1.128-2.132s1.111-1.093,1.845-1.451s1.579-0.537,2.535-0.537
		c0.955,0,1.8,0.179,2.535,0.537s1.35,0.842,1.845,1.451c0.495,0.609,0.872,1.32,1.128,2.132c0.257,0.812,0.385,1.672,0.385,2.579
		c0,0.908-0.128,1.768-0.385,2.58s-0.633,1.522-1.128,2.132c-0.496,0.608-1.111,1.09-1.845,1.441
		c-0.734,0.353-1.58,0.528-2.535,0.528c-0.956,0-1.8-0.176-2.535-0.528c-0.734-0.352-1.35-0.833-1.845-1.441
		c-0.496-0.609-0.872-1.319-1.128-2.132c-0.257-0.812-0.385-1.672-0.385-2.58C734.775,122.625,734.904,121.765,735.161,120.953z
		 M735.537,126.076c0.257,0.776,0.621,1.445,1.093,2.007s1.048,1,1.729,1.316s1.451,0.475,2.311,0.475s1.63-0.158,2.311-0.475
		c0.681-0.316,1.257-0.755,1.729-1.316c0.472-0.562,0.835-1.23,1.093-2.007c0.256-0.776,0.391-1.624,0.403-2.544
		c-0.012-0.919-0.146-1.767-0.403-2.543c-0.257-0.776-0.621-1.445-1.093-2.007c-0.472-0.561-1.048-1-1.729-1.316
		c-0.681-0.316-1.451-0.475-2.311-0.475s-1.63,0.158-2.311,0.475s-1.257,0.756-1.729,1.316c-0.472,0.562-0.836,1.23-1.093,2.007
		s-0.391,1.624-0.403,2.543C735.146,124.452,735.28,125.299,735.537,126.076z"/>
	<path d="M735.161,166.345c0.256-0.812,0.633-1.522,1.128-2.132s1.111-1.093,1.845-1.451s1.579-0.537,2.535-0.537
		c0.955,0,1.8,0.179,2.535,0.537s1.35,0.842,1.845,1.451c0.495,0.609,0.872,1.32,1.128,2.132c0.257,0.812,0.385,1.672,0.385,2.579
		c0,0.908-0.128,1.768-0.385,2.58s-0.633,1.522-1.128,2.132c-0.496,0.608-1.111,1.09-1.845,1.441
		c-0.734,0.353-1.58,0.528-2.535,0.528c-0.956,0-1.8-0.176-2.535-0.528c-0.734-0.352-1.35-0.833-1.845-1.441
		c-0.496-0.609-0.872-1.319-1.128-2.132c-0.257-0.812-0.385-1.672-0.385-2.58C734.775,168.017,734.904,167.158,735.161,166.345z
		 M735.537,171.468c0.257,0.776,0.621,1.445,1.093,2.007s1.048,1,1.729,1.316s1.451,0.475,2.311,0.475s1.63-0.158,2.311-0.475
		c0.681-0.316,1.257-0.755,1.729-1.316c0.472-0.562,0.835-1.23,1.093-2.007c0.256-0.776,0.391-1.624,0.403-2.544
		c-0.012-0.919-0.146-1.767-0.403-2.543c-0.257-0.776-0.621-1.445-1.093-2.007c-0.472-0.561-1.048-1-1.729-1.316
		c-0.681-0.316-1.451-0.475-2.311-0.475s-1.63,0.158-2.311,0.475s-1.257,0.756-1.729,1.316c-0.472,0.562-0.836,1.23-1.093,2.007
		s-0.391,1.624-0.403,2.543C735.146,169.844,735.28,170.692,735.537,171.468z"/>
	<path d="M735.161,211.738c0.256-0.812,0.633-1.522,1.128-2.132s1.111-1.093,1.845-1.451s1.579-0.537,2.535-0.537
		c0.955,0,1.8,0.179,2.535,0.537s1.35,0.842,1.845,1.451c0.495,0.609,0.872,1.32,1.128,2.132c0.257,0.812,0.385,1.672,0.385,2.579
		c0,0.908-0.128,1.768-0.385,2.58s-0.633,1.522-1.128,2.132c-0.496,0.608-1.111,1.09-1.845,1.441
		c-0.734,0.353-1.58,0.528-2.535,0.528c-0.956,0-1.8-0.176-2.535-0.528c-0.734-0.352-1.35-0.833-1.845-1.441
		c-0.496-0.609-0.872-1.319-1.128-2.132c-0.257-0.812-0.385-1.672-0.385-2.58C734.775,213.41,734.904,212.55,735.161,211.738z
		 M735.537,216.861c0.257,0.776,0.621,1.445,1.093,2.007s1.048,1,1.729,1.316s1.451,0.475,2.311,0.475s1.63-0.158,2.311-0.475
		c0.681-0.316,1.257-0.755,1.729-1.316c0.472-0.562,0.835-1.23,1.093-2.007c0.256-0.776,0.391-1.624,0.403-2.544
		c-0.012-0.919-0.146-1.767-0.403-2.543c-0.257-0.776-0.621-1.445-1.093-2.007c-0.472-0.561-1.048-1-1.729-1.316
		c-0.681-0.316-1.451-0.475-2.311-0.475s-1.63,0.158-2.311,0.475s-1.257,0.756-1.729,1.316c-0.472,0.562-0.836,1.23-1.093,2.007
		s-0.391,1.624-0.403,2.543C735.146,215.237,735.28,216.085,735.537,216.861z"/>
	<path d="M735.161,257.131c0.256-0.812,0.633-1.522,1.128-2.132s1.111-1.093,1.845-1.451s1.579-0.537,2.535-0.537
		c0.955,0,1.8,0.179,2.535,0.537s1.35,0.842,1.845,1.451c0.495,0.609,0.872,1.32,1.128,2.132c0.257,0.812,0.385,1.672,0.385,2.579
		c0,0.908-0.128,1.768-0.385,2.58s-0.633,1.522-1.128,2.132c-0.496,0.608-1.111,1.09-1.845,1.441
		c-0.734,0.353-1.58,0.528-2.535,0.528c-0.956,0-1.8-0.176-2.535-0.528c-0.734-0.352-1.35-0.833-1.845-1.441
		c-0.496-0.609-0.872-1.319-1.128-2.132c-0.257-0.812-0.385-1.672-0.385-2.58C734.775,258.802,734.904,257.943,735.161,257.131z
		 M735.537,262.254c0.257,0.776,0.621,1.445,1.093,2.007s1.048,1,1.729,1.316s1.451,0.475,2.311,0.475s1.63-0.158,2.311-0.475
		c0.681-0.316,1.257-0.755,1.729-1.316c0.472-0.562,0.835-1.23,1.093-2.007c0.256-0.776,0.391-1.624,0.403-2.544
		c-0.012-0.919-0.146-1.767-0.403-2.543c-0.257-0.776-0.621-1.445-1.093-2.007c-0.472-0.561-1.048-1-1.729-1.316
		c-0.681-0.316-1.451-0.475-2.311-0.475s-1.63,0.158-2.311,0.475s-1.257,0.756-1.729,1.316c-0.472,0.562-0.836,1.23-1.093,2.007
		s-0.391,1.624-0.403,2.543C735.146,260.63,735.28,261.477,735.537,262.254z"/>
	<path d="M735.161,279.827c0.256-0.812,0.633-1.522,1.128-2.132s1.111-1.093,1.845-1.451s1.579-0.537,2.535-0.537
		c0.955,0,1.8,0.179,2.535,0.537s1.35,0.842,1.845,1.451c0.495,0.609,0.872,1.32,1.128,2.132c0.257,0.812,0.385,1.672,0.385,2.579
		c0,0.908-0.128,1.768-0.385,2.58s-0.633,1.522-1.128,2.132c-0.496,0.608-1.111,1.09-1.845,1.441
		c-0.734,0.353-1.58,0.528-2.535,0.528c-0.956,0-1.8-0.176-2.535-0.528c-0.734-0.352-1.35-0.833-1.845-1.441
		c-0.496-0.609-0.872-1.319-1.128-2.132c-0.257-0.812-0.385-1.672-0.385-2.58C734.775,281.499,734.904,280.639,735.161,279.827z
		 M735.537,284.95c0.257,0.776,0.621,1.445,1.093,2.007s1.048,1,1.729,1.316s1.451,0.475,2.311,0.475s1.63-0.158,2.311-0.475
		c0.681-0.316,1.257-0.755,1.729-1.316c0.472-0.562,0.835-1.23,1.093-2.007c0.256-0.776,0.391-1.624,0.403-2.544
		c-0.012-0.919-0.146-1.767-0.403-2.543c-0.257-0.776-0.621-1.445-1.093-2.007c-0.472-0.561-1.048-1-1.729-1.316
		c-0.681-0.316-1.451-0.475-2.311-0.475s-1.63,0.158-2.311,0.475s-1.257,0.756-1.729,1.316c-0.472,0.562-0.836,1.23-1.093,2.007
		s-0.391,1.624-0.403,2.543C735.146,283.326,735.28,284.174,735.537,284.95z"/>
	<path d="M735.161,325.219c0.256-0.812,0.633-1.522,1.128-2.132s1.111-1.093,1.845-1.451s1.579-0.537,2.535-0.537
		c0.955,0,1.8,0.179,2.535,0.537s1.35,0.842,1.845,1.451c0.495,0.609,0.872,1.32,1.128,2.132c0.257,0.812,0.385,1.672,0.385,2.579
		c0,0.908-0.128,1.768-0.385,2.58s-0.633,1.522-1.128,2.132c-0.496,0.608-1.111,1.09-1.845,1.441
		c-0.734,0.353-1.58,0.528-2.535,0.528c-0.956,0-1.8-0.176-2.535-0.528c-0.734-0.352-1.35-0.833-1.845-1.441
		c-0.496-0.609-0.872-1.319-1.128-2.132c-0.257-0.812-0.385-1.672-0.385-2.58C734.775,326.891,734.904,326.032,735.161,325.219z
		 M735.537,330.342c0.257,0.776,0.621,1.445,1.093,2.007s1.048,1,1.729,1.316s1.451,0.475,2.311,0.475s1.63-0.158,2.311-0.475
		c0.681-0.316,1.257-0.755,1.729-1.316c0.472-0.562,0.835-1.23,1.093-2.007c0.256-0.776,0.391-1.624,0.403-2.544
		c-0.012-0.919-0.146-1.767-0.403-2.543c-0.257-0.776-0.621-1.445-1.093-2.007c-0.472-0.561-1.048-1-1.729-1.316
		c-0.681-0.316-1.451-0.475-2.311-0.475s-1.63,0.158-2.311,0.475s-1.257,0.756-1.729,1.316c-0.472,0.562-0.836,1.23-1.093,2.007
		s-0.391,1.624-0.403,2.543C735.146,328.718,735.28,329.566,735.537,330.342z"/>
	<path d="M735.161,370.612c0.256-0.812,0.633-1.522,1.128-2.132s1.111-1.093,1.845-1.451s1.579-0.537,2.535-0.537
		c0.955,0,1.8,0.179,2.535,0.537s1.35,0.842,1.845,1.451c0.495,0.609,0.872,1.32,1.128,2.132c0.257,0.812,0.385,1.672,0.385,2.579
		c0,0.908-0.128,1.768-0.385,2.58s-0.633,1.522-1.128,2.132c-0.496,0.608-1.111,1.09-1.845,1.441
		c-0.734,0.353-1.58,0.528-2.535,0.528c-0.956,0-1.8-0.176-2.535-0.528c-0.734-0.352-1.35-0.833-1.845-1.441
		c-0.496-0.609-0.872-1.319-1.128-2.132c-0.257-0.812-0.385-1.672-0.385-2.58C734.775,372.284,734.904,371.424,735.161,370.612z
		 M735.537,375.735c0.257,0.776,0.621,1.445,1.093,2.007s1.048,1,1.729,1.316s1.451,0.475,2.311,0.475s1.63-0.158,2.311-0.475
		c0.681-0.316,1.257-0.755,1.729-1.316c0.472-0.562,0.835-1.23,1.093-2.007c0.256-0.776,0.391-1.624,0.403-2.544
		c-0.012-0.919-0.146-1.767-0.403-2.543c-0.257-0.776-0.621-1.445-1.093-2.007c-0.472-0.561-1.048-1-1.729-1.316
		c-0.681-0.316-1.451-0.475-2.311-0.475s-1.63,0.158-2.311,0.475s-1.257,0.756-1.729,1.316c-0.472,0.562-0.836,1.23-1.093,2.007
		s-0.391,1.624-0.403,2.543C735.146,374.111,735.28,374.959,735.537,375.735z"/>
</g>
<g id="Layer_1">
</g>
</svg>
