<?xml version="1.0" encoding="iso-8859-1"?>
<!-- Generator: Adobe Illustrator 18.1.0, SVG Export Plug-In . SVG Version: 6.00 Build 0)  -->
<!DOCTYPE svg PUBLIC "-//W3C//DTD SVG 1.1//EN" "http://www.w3.org/Graphics/SVG/1.1/DTD/svg11.dtd">
<svg version="1.1" xmlns="http://www.w3.org/2000/svg" xmlns:xlink="http://www.w3.org/1999/xlink" x="0px" y="0px"
	 viewBox="0 0 476.033 563.774" style="enable-background:new 0 0 476.033 563.774;" xml:space="preserve">
<g id="circuts_x5F_left">
	<g>
		<polygon style="fill:#CCCCCC;" points="285.347,398.621 284.097,398.621 284.097,335.033 266.097,317.033 266.097,265.274 
			267.347,265.274 267.347,316.515 285.347,334.515 		"/>
		<path style="fill:#CCCCCC;" d="M266.722,267.774c1.381,0,2.5-1.119,2.5-2.5c0-1.381-1.119-2.5-2.5-2.5c-1.381,0-2.5,1.119-2.5,2.5
			C264.222,266.655,265.341,267.774,266.722,267.774"/>
		<path style="fill:#CCCCCC;" d="M284.722,401.121c1.381,0,2.5-1.119,2.5-2.5s-1.119-2.5-2.5-2.5c-1.381,0-2.5,1.119-2.5,2.5
			S283.341,401.121,284.722,401.121"/>
	</g>
	<g>
		<polygon style="fill:#CCCCCC;" points="273.027,396.274 271.777,396.274 271.777,335.033 254.777,318.033 254.777,265.274 
			256.027,265.274 256.027,317.515 273.027,334.515 		"/>
		<path style="fill:#CCCCCC;" d="M255.402,267.774c1.381,0,2.5-1.119,2.5-2.5c0-1.381-1.119-2.5-2.5-2.5c-1.381,0-2.5,1.119-2.5,2.5
			C252.902,266.655,254.021,267.774,255.402,267.774"/>
		<path style="fill:#CCCCCC;" d="M272.402,398.774c1.381,0,2.5-1.119,2.5-2.5c0-1.381-1.119-2.5-2.5-2.5c-1.381,0-2.5,1.119-2.5,2.5
			C269.902,397.655,271.021,398.774,272.402,398.774"/>
	</g>
	<g>
		<polygon style="fill:#CCCCCC;" points="262.847,378.274 261.597,378.274 261.597,347.533 243.097,329.033 243.097,265.274 
			244.347,265.274 244.347,328.515 262.847,347.015 		"/>
		<path style="fill:#CCCCCC;" d="M243.722,267.774c1.381,0,2.5-1.119,2.5-2.5c0-1.381-1.119-2.5-2.5-2.5c-1.381,0-2.5,1.119-2.5,2.5
			C241.222,266.655,242.341,267.774,243.722,267.774"/>
		<path style="fill:#CCCCCC;" d="M262.222,380.774c1.381,0,2.5-1.119,2.5-2.5c0-1.381-1.119-2.5-2.5-2.5c-1.381,0-2.5,1.119-2.5,2.5
			C259.722,379.655,260.841,380.774,262.222,380.774"/>
	</g>
	<g>
		<polygon style="fill:#CCCCCC;" points="335.832,478.274 334.582,478.274 334.582,455.716 343.783,446.515 343.783,357.149 
			358.783,357.149 358.783,338.033 341.783,321.033 341.783,265.274 343.033,265.274 343.033,320.515 360.033,337.515 
			360.033,358.399 345.033,358.399 345.033,447.033 335.832,456.234 		"/>
		<path style="fill:#CCCCCC;" d="M342.408,267.774c1.381,0,2.5-1.119,2.5-2.5c0-1.381-1.119-2.5-2.5-2.5s-2.5,1.119-2.5,2.5
			C339.908,266.655,341.027,267.774,342.408,267.774"/>
		<path style="fill:#CCCCCC;" d="M335.206,480.774c1.381,0,2.5-1.119,2.5-2.5c0-1.381-1.119-2.5-2.5-2.5s-2.5,1.119-2.5,2.5
			C332.706,479.655,333.825,480.774,335.206,480.774"/>
	</g>
	<g>
		<polygon style="fill:#CCCCCC;" points="349.1,453.411 348.215,452.526 356.783,443.96 356.783,365.149 368.783,365.149 
			368.783,333.033 353.783,318.033 353.783,265.274 355.033,265.274 355.033,317.515 370.033,332.515 370.033,366.399 
			358.033,366.399 358.033,444.477 		"/>
		<path style="fill:#CCCCCC;" d="M354.408,267.774c1.381,0,2.5-1.119,2.5-2.5c0-1.381-1.119-2.5-2.5-2.5s-2.5,1.119-2.5,2.5
			C351.908,266.655,353.027,267.774,354.408,267.774"/>
		<path style="fill:#CCCCCC;" d="M348.658,455.469c1.381,0,2.5-1.119,2.5-2.5c0-1.381-1.119-2.5-2.5-2.5s-2.5,1.119-2.5,2.5
			C346.158,454.35,347.277,455.469,348.658,455.469"/>
	</g>
	<g>
		<polygon style="fill:#CCCCCC;" points="198.347,414.274 197.097,414.274 197.097,387.515 204.097,380.515 204.097,330.033 
			189.097,315.033 189.097,265.274 190.347,265.274 190.347,314.515 205.347,329.515 205.347,381.033 198.347,388.033 		"/>
		<path style="fill:#CCCCCC;" d="M189.722,267.774c1.381,0,2.5-1.119,2.5-2.5c0-1.381-1.119-2.5-2.5-2.5c-1.381,0-2.5,1.119-2.5,2.5
			C187.222,266.655,188.341,267.774,189.722,267.774"/>
		<path style="fill:#CCCCCC;" d="M197.722,416.774c1.381,0,2.5-1.119,2.5-2.5c0-1.381-1.119-2.5-2.5-2.5c-1.381,0-2.5,1.119-2.5,2.5
			C195.222,415.655,196.341,416.774,197.722,416.774"/>
	</g>
	<g>
		<polygon style="fill:#CCCCCC;" points="209.04,370.688 208.155,369.803 212.097,365.862 212.097,312.033 203.097,303.033 
			203.097,265.274 204.347,265.274 204.347,302.515 213.347,311.515 213.347,366.379 		"/>
		<path style="fill:#CCCCCC;" d="M203.722,267.774c1.381,0,2.5-1.119,2.5-2.5c0-1.381-1.119-2.5-2.5-2.5c-1.381,0-2.5,1.119-2.5,2.5
			C201.222,266.655,202.341,267.774,203.722,267.774"/>
		<path style="fill:#CCCCCC;" d="M208.597,372.746c1.381,0,2.5-1.119,2.5-2.5s-1.119-2.5-2.5-2.5c-1.381,0-2.5,1.119-2.5,2.5
			S207.216,372.746,208.597,372.746"/>
	</g>
	<g>
		<polygon style="fill:#CCCCCC;" points="224.347,369.968 223.097,369.968 223.097,295.033 211.097,283.033 211.097,265.274 
			212.347,265.274 212.347,282.515 224.347,294.515 		"/>
		<path style="fill:#CCCCCC;" d="M211.722,267.774c1.381,0,2.5-1.119,2.5-2.5c0-1.381-1.119-2.5-2.5-2.5c-1.381,0-2.5,1.119-2.5,2.5
			C209.222,266.655,210.341,267.774,211.722,267.774"/>
		<path style="fill:#CCCCCC;" d="M223.722,372.469c1.381,0,2.5-1.119,2.5-2.5s-1.119-2.5-2.5-2.5c-1.381,0-2.5,1.119-2.5,2.5
			S222.341,372.469,223.722,372.469"/>
	</g>
	<g>
		<polygon style="fill:#CCCCCC;" points="83.908,442.6 82.658,442.6 82.658,411.359 69.158,397.859 69.158,373.841 69.34,373.658 
			91.505,351.494 91.505,332.6 92.755,332.6 92.755,352.011 92.572,352.195 70.408,374.359 70.408,397.341 83.908,410.841 		"/>
		<path style="fill:#CCCCCC;" d="M83.283,440.1c-1.381,0-2.5,1.119-2.5,2.5c0,1.381,1.119,2.5,2.5,2.5c1.381,0,2.5-1.119,2.5-2.5
			C85.783,441.219,84.664,440.1,83.283,440.1"/>
		<path style="fill:#CCCCCC;" d="M92.13,330.1c-1.381,0-2.5,1.119-2.5,2.5c0,1.381,1.119,2.5,2.5,2.5s2.5-1.119,2.5-2.5
			C94.63,331.219,93.511,330.1,92.13,330.1"/>
	</g>
	<g>
		<polygon style="fill:#CCCCCC;" points="249.597,386.274 248.347,386.274 248.347,346.579 232.097,331.547 232.097,265.274 
			233.347,265.274 233.347,331.001 249.597,346.032 		"/>
		<path style="fill:#CCCCCC;" d="M232.722,267.774c1.381,0,2.5-1.119,2.5-2.5c0-1.381-1.119-2.5-2.5-2.5c-1.381,0-2.5,1.119-2.5,2.5
			C230.222,266.655,231.341,267.774,232.722,267.774"/>
		<path style="fill:#CCCCCC;" d="M248.972,388.774c1.381,0,2.5-1.119,2.5-2.5c0-1.381-1.119-2.5-2.5-2.5c-1.381,0-2.5,1.119-2.5,2.5
			C246.472,387.655,247.591,388.774,248.972,388.774"/>
	</g>
	<g>
		<polygon style="fill:#CCCCCC;" points="350.782,499.274 349.532,499.274 349.532,475.085 349.714,474.901 368.407,456.21 
			368.407,371.149 379.144,371.149 379.144,331.707 361.47,314.033 361.47,265.274 362.72,265.274 362.72,313.515 380.394,331.189 
			380.394,372.399 369.657,372.399 369.657,456.727 369.474,456.911 350.782,475.602 		"/>
		<path style="fill:#CCCCCC;" d="M362.095,267.774c1.381,0,2.5-1.119,2.5-2.5c0-1.381-1.119-2.5-2.5-2.5s-2.5,1.119-2.5,2.5
			C359.595,266.655,360.714,267.774,362.095,267.774"/>
		<path style="fill:#CCCCCC;" d="M350.158,501.774c1.381,0,2.5-1.119,2.5-2.5c0-1.381-1.119-2.5-2.5-2.5s-2.5,1.119-2.5,2.5
			C347.658,500.655,348.777,501.774,350.158,501.774"/>
	</g>
	<g>
		<polygon style="fill:#CCCCCC;" points="362.651,513.274 361.401,513.274 361.401,483.897 361.584,483.713 379.783,465.515 
			379.783,392.399 399.932,392.399 399.932,309.87 370.845,280.783 370.845,265.274 372.095,265.274 372.095,280.265 
			401.182,309.352 401.182,393.649 381.033,393.649 381.033,466.033 380.85,466.216 362.651,484.415 		"/>
		<path style="fill:#CCCCCC;" d="M371.47,267.774c1.381,0,2.5-1.119,2.5-2.5c0-1.381-1.119-2.5-2.5-2.5s-2.5,1.119-2.5,2.5
			C368.97,266.655,370.089,267.774,371.47,267.774"/>
		<path style="fill:#CCCCCC;" d="M362.026,515.774c1.381,0,2.5-1.119,2.5-2.5s-1.119-2.5-2.5-2.5c-1.381,0-2.5,1.119-2.5,2.5
			S360.645,515.774,362.026,515.774"/>
	</g>
	<g>
		<polygon style="fill:#CCCCCC;" points="376.095,540.274 374.845,540.274 374.845,526.515 375.028,526.332 390.845,510.515 
			390.845,408.149 411.783,408.149 411.783,309.033 389.783,287.033 389.783,265.274 391.033,265.274 391.033,286.515 
			413.033,308.515 413.033,409.399 392.095,409.399 392.095,511.033 391.913,511.216 376.095,527.033 		"/>
		<path style="fill:#CCCCCC;" d="M375.47,542.774c1.381,0,2.5-1.119,2.5-2.5s-1.119-2.5-2.5-2.5s-2.5,1.119-2.5,2.5
			S374.089,542.774,375.47,542.774"/>
		<path style="fill:#CCCCCC;" d="M390.408,267.774c1.381,0,2.5-1.119,2.5-2.5c0-1.381-1.119-2.5-2.5-2.5s-2.5,1.119-2.5,2.5
			C387.908,266.655,389.027,267.774,390.408,267.774"/>
	</g>
	<g>
		<polygon style="fill:#CCCCCC;" points="426.722,477.465 425.472,477.465 425.472,422.672 425.655,422.489 443.783,404.363 
			443.783,343.399 427.663,343.399 427.663,300.033 407.163,279.533 407.163,265.274 408.413,265.274 408.413,279.015 
			428.913,299.515 428.913,342.149 445.033,342.149 445.033,404.88 444.85,405.064 426.722,423.19 		"/>
		<path style="fill:#CCCCCC;" d="M407.787,267.774c1.381,0,2.5-1.119,2.5-2.5c0-1.381-1.119-2.5-2.5-2.5c-1.381,0-2.5,1.119-2.5,2.5
			C405.287,266.655,406.406,267.774,407.787,267.774"/>
		<path style="fill:#CCCCCC;" d="M426.098,479.966c1.381,0,2.5-1.119,2.5-2.5c0-1.381-1.119-2.5-2.5-2.5c-1.381,0-2.5,1.119-2.5,2.5
			C423.598,478.847,424.717,479.966,426.098,479.966"/>
	</g>
	<g>
		<polygon style="fill:#CCCCCC;" points="405.831,504.273 404.581,504.273 404.581,427.014 404.763,426.831 419.533,412.063 
			419.533,362.622 420.783,362.622 420.783,412.581 420.6,412.764 405.831,427.532 		"/>
		<path style="fill:#CCCCCC;" d="M420.158,365.121c1.381,0,2.5-1.119,2.5-2.5s-1.119-2.5-2.5-2.5s-2.5,1.119-2.5,2.5
			S418.777,365.121,420.158,365.121"/>
		<path style="fill:#CCCCCC;" d="M405.206,506.774c1.381,0,2.5-1.119,2.5-2.5c0-1.381-1.119-2.5-2.5-2.5c-1.381,0-2.5,1.119-2.5,2.5
			C402.706,505.655,403.825,506.774,405.206,506.774"/>
	</g>
	<g>
		<polygon style="fill:#CCCCCC;" points="457.033,561.274 455.783,561.274 455.783,539.515 455.965,539.332 474.783,520.515 
			474.783,495.399 453.783,495.399 453.783,334.149 468.533,334.149 468.533,303.783 453.783,289.033 453.783,265.274 
			455.033,265.274 455.033,288.515 469.783,303.265 469.783,335.399 455.033,335.399 455.033,494.149 476.033,494.149 
			476.033,521.033 475.85,521.216 457.033,540.033 		"/>
		<path style="fill:#CCCCCC;" d="M454.408,267.774c1.381,0,2.5-1.119,2.5-2.5c0-1.381-1.119-2.5-2.5-2.5s-2.5,1.119-2.5,2.5
			C451.908,266.655,453.027,267.774,454.408,267.774"/>
		<path style="fill:#CCCCCC;" d="M456.408,563.774c1.381,0,2.5-1.119,2.5-2.5s-1.119-2.5-2.5-2.5s-2.5,1.119-2.5,2.5
			S455.027,563.774,456.408,563.774"/>
	</g>
	<g>
		<polygon style="fill:#CCCCCC;" points="309.925,515.274 308.675,515.274 308.675,427.649 323.939,427.649 323.939,367.033 
			307.939,351.033 307.939,265.274 309.189,265.274 309.189,350.515 325.189,366.515 325.189,428.899 309.925,428.899 		"/>
		<path style="fill:#CCCCCC;" d="M308.564,267.774c1.381,0,2.5-1.119,2.5-2.5c0-1.381-1.119-2.5-2.5-2.5c-1.381,0-2.5,1.119-2.5,2.5
			C306.064,266.655,307.183,267.774,308.564,267.774"/>
		<path style="fill:#CCCCCC;" d="M309.3,517.774c1.381,0,2.5-1.119,2.5-2.5s-1.119-2.5-2.5-2.5s-2.5,1.119-2.5,2.5
			S307.919,517.774,309.3,517.774"/>
	</g>
	<g>
		<polygon style="fill:#CCCCCC;" points="318.252,513.274 317.002,513.274 317.002,436.649 332.939,436.649 332.939,364.97 
			317.002,349.033 317.002,265.274 318.252,265.274 318.252,348.515 334.189,364.453 334.189,437.899 318.252,437.899 		"/>
		<path style="fill:#CCCCCC;" d="M317.627,267.774c1.381,0,2.5-1.119,2.5-2.5c0-1.381-1.119-2.5-2.5-2.5s-2.5,1.119-2.5,2.5
			C315.127,266.655,316.246,267.774,317.627,267.774"/>
		<path style="fill:#CCCCCC;" d="M317.627,515.774c1.381,0,2.5-1.119,2.5-2.5s-1.119-2.5-2.5-2.5s-2.5,1.119-2.5,2.5
			S316.246,515.774,317.627,515.774"/>
	</g>
	<g>
		<polygon style="fill:#CCCCCC;" points="303.189,493.274 301.939,493.274 301.939,414.997 314.535,414.997 314.535,367.629 
			297.939,351.033 297.939,265.274 299.189,265.274 299.189,350.515 315.785,367.111 315.785,416.247 303.189,416.247 		"/>
		<path style="fill:#CCCCCC;" d="M298.564,267.774c1.381,0,2.5-1.119,2.5-2.5c0-1.381-1.119-2.5-2.5-2.5c-1.381,0-2.5,1.119-2.5,2.5
			C296.064,266.655,297.183,267.774,298.564,267.774"/>
		<path style="fill:#CCCCCC;" d="M302.564,495.774c1.381,0,2.5-1.119,2.5-2.5c0-1.381-1.119-2.5-2.5-2.5c-1.381,0-2.5,1.119-2.5,2.5
			C300.064,494.655,301.183,495.774,302.564,495.774"/>
	</g>
	<g>
		<polygon style="fill:#CCCCCC;" points="148.819,418.925 147.569,418.925 147.569,391.039 147.752,390.855 165.441,373.167 
			165.441,293.3 178.941,293.3 178.941,265.274 180.191,265.274 180.191,294.55 166.691,294.55 166.691,373.684 166.508,373.868 
			148.819,391.556 		"/>
		<path style="fill:#CCCCCC;" d="M179.566,267.774c1.381,0,2.5-1.119,2.5-2.5c0-1.381-1.119-2.5-2.5-2.5s-2.5,1.119-2.5,2.5
			C177.066,266.655,178.185,267.774,179.566,267.774"/>
		<path style="fill:#CCCCCC;" d="M148.194,421.426c1.381,0,2.5-1.119,2.5-2.5c0-1.381-1.119-2.5-2.5-2.5c-1.381,0-2.5,1.119-2.5,2.5
			C145.694,420.307,146.813,421.426,148.194,421.426"/>
	</g>
	<g>
		<polygon style="fill:#CCCCCC;" points="106.485,435.774 105.235,435.774 105.235,403.649 120.235,403.649 120.235,354.033 
			101.735,335.533 101.735,266.774 102.985,266.774 102.985,335.015 121.485,353.515 121.485,404.899 106.485,404.899 		"/>
		<path style="fill:#CCCCCC;" d="M102.36,269.274c1.381,0,2.5-1.119,2.5-2.5c0-1.381-1.119-2.5-2.5-2.5c-1.381,0-2.5,1.119-2.5,2.5
			C99.86,268.155,100.979,269.274,102.36,269.274"/>
		<path style="fill:#CCCCCC;" d="M105.86,438.274c1.381,0,2.5-1.119,2.5-2.5c0-1.381-1.119-2.5-2.5-2.5c-1.381,0-2.5,1.119-2.5,2.5
			C103.36,437.155,104.479,438.274,105.86,438.274"/>
	</g>
	<g>
		<polygon style="fill:#CCCCCC;" points="102.985,506.774 101.735,506.774 101.735,453.001 111.048,443.689 111.048,409.497 
			128.048,409.497 128.048,350.533 110.048,332.533 110.048,274.649 118.985,274.649 118.985,275.899 111.298,275.899 
			111.298,332.015 129.298,350.015 129.298,410.747 112.298,410.747 112.298,444.207 102.985,453.518 		"/>
		<path style="fill:#CCCCCC;" d="M118.985,277.774c1.381,0,2.5-1.119,2.5-2.5c0-1.381-1.119-2.5-2.5-2.5c-1.381,0-2.5,1.119-2.5,2.5
			C116.485,276.655,117.604,277.774,118.985,277.774"/>
		<path style="fill:#CCCCCC;" d="M102.36,509.274c1.381,0,2.5-1.119,2.5-2.5c0-1.381-1.119-2.5-2.5-2.5c-1.381,0-2.5,1.119-2.5,2.5
			C99.86,508.155,100.979,509.274,102.36,509.274"/>
	</g>
	<g>
		<polygon style="fill:#CCCCCC;" points="124.36,498.774 111.735,498.774 111.735,459.564 120.61,450.689 120.61,418.149 
			136.235,418.149 136.235,347.533 121.235,332.533 121.235,283.649 135.36,283.649 135.36,284.899 122.485,284.899 
			122.485,332.015 137.485,347.015 137.485,419.399 121.86,419.399 121.86,451.207 112.985,460.082 112.985,497.524 124.36,497.524 
					"/>
		<path style="fill:#CCCCCC;" d="M135.36,286.774c1.381,0,2.5-1.119,2.5-2.5c0-1.381-1.119-2.5-2.5-2.5c-1.381,0-2.5,1.119-2.5,2.5
			C132.86,285.655,133.979,286.774,135.36,286.774"/>
		<path style="fill:#CCCCCC;" d="M124.36,500.649c1.381,0,2.5-1.119,2.5-2.5c0-1.381-1.119-2.5-2.5-2.5c-1.381,0-2.5,1.119-2.5,2.5
			C121.86,499.53,122.979,500.649,124.36,500.649"/>
	</g>
	<polyline style="fill:#CCCCCC;" points="-5.323,466.898 32.119,466.898 32.119,475.271 33.369,475.271 33.369,465.648 
		-5.84,465.648 	"/>
	<path style="fill:#CCCCCC;" d="M35.244,475.271c0,1.381-1.119,2.5-2.5,2.5c-1.381,0-2.5-1.119-2.5-2.5c0-1.381,1.119-2.5,2.5-2.5
		C34.125,472.771,35.244,473.89,35.244,475.271"/>
	<g>
		<polyline style="fill:#CCCCCC;" points="-14.99,473.654 22.453,473.654 22.453,489.032 23.703,489.032 23.703,472.404 
			-15.507,472.404 		"/>
		<path style="fill:#CCCCCC;" d="M25.578,489.032c0,1.381-1.119,2.5-2.5,2.5c-1.381,0-2.5-1.119-2.5-2.5c0-1.381,1.119-2.5,2.5-2.5
			C24.459,486.532,25.578,487.651,25.578,489.032"/>
	</g>
	<g>
		<polygon style="fill:#CCCCCC;" points="66.409,401.274 65.159,401.274 65.159,350.703 65.341,350.519 82.845,333.015 
			82.845,264.774 84.095,264.774 84.095,333.533 83.913,333.716 66.409,351.22 		"/>
		<path style="fill:#CCCCCC;" d="M83.47,267.274c1.381,0,2.5-1.119,2.5-2.5c0-1.381-1.119-2.5-2.5-2.5c-1.381,0-2.5,1.119-2.5,2.5
			C80.97,266.155,82.089,267.274,83.47,267.274"/>
		<path style="fill:#CCCCCC;" d="M65.783,403.774c1.381,0,2.5-1.119,2.5-2.5c0-1.381-1.119-2.5-2.5-2.5c-1.381,0-2.5,1.119-2.5,2.5
			C63.283,402.655,64.402,403.774,65.783,403.774"/>
	</g>
	<g>
		<polygon style="fill:#CCCCCC;" points="58.595,387.274 57.345,387.274 57.345,342.515 57.528,342.332 73.845,326.015 
			73.845,270.774 75.095,270.774 75.095,326.533 74.913,326.716 58.595,343.033 		"/>
		<path style="fill:#CCCCCC;" d="M74.47,273.274c1.381,0,2.5-1.119,2.5-2.5c0-1.381-1.119-2.5-2.5-2.5c-1.381,0-2.5,1.119-2.5,2.5
			C71.97,272.155,73.089,273.274,74.47,273.274"/>
		<path style="fill:#CCCCCC;" d="M57.97,389.774c1.381,0,2.5-1.119,2.5-2.5c0-1.381-1.119-2.5-2.5-2.5s-2.5,1.119-2.5,2.5
			C55.47,388.655,56.589,389.774,57.97,389.774"/>
	</g>
	<rect x="-12.299" y="265.875" style="fill:#CCCCCC;" width="43" height="1.25"/>
	<path style="fill:#CCCCCC;" d="M30.701,269c1.381,0,2.5-1.119,2.5-2.5c0-1.381-1.119-2.5-2.5-2.5c-1.381,0-2.5,1.119-2.5,2.5
		C28.201,267.881,29.32,269,30.701,269"/>
	<rect x="-6.299" y="273.875" style="fill:#CCCCCC;" width="21" height="1.25"/>
	<path style="fill:#CCCCCC;" d="M14.701,277c1.381,0,2.5-1.119,2.5-2.5c0-1.381-1.119-2.5-2.5-2.5c-1.381,0-2.5,1.119-2.5,2.5
		C12.201,275.881,13.32,277,14.701,277"/>
	<rect x="-4.299" y="250.875" style="fill:#CCCCCC;" width="47" height="1.25"/>
	<path style="fill:#CCCCCC;" d="M42.701,254c1.381,0,2.5-1.119,2.5-2.5s-1.119-2.5-2.5-2.5c-1.381,0-2.5,1.119-2.5,2.5
		S41.32,254,42.701,254"/>
	<rect x="-8.798" y="439.475" style="fill:#CCCCCC;" width="47" height="1.25"/>
	<path style="fill:#CCCCCC;" d="M38.202,442.6c1.381,0,2.5-1.119,2.5-2.5c0-1.381-1.119-2.5-2.5-2.5c-1.381,0-2.5,1.119-2.5,2.5
		C35.702,441.481,36.821,442.6,38.202,442.6"/>
	<rect x="-5.297" y="459.182" style="fill:#CCCCCC;" width="47" height="1.25"/>
	<path style="fill:#CCCCCC;" d="M41.703,462.307c1.381,0,2.5-1.119,2.5-2.5s-1.119-2.5-2.5-2.5c-1.381,0-2.5,1.119-2.5,2.5
		S40.322,462.307,41.703,462.307"/>
	<polygon style="fill:#CCCCCC;" points="-6.54,301.125 -43.299,301.125 -43.299,299.875 -7.058,299.875 9.942,282.875 
		31.701,282.875 31.701,284.125 10.46,284.125 	"/>
	<path style="fill:#CCCCCC;" d="M31.701,286c1.381,0,2.5-1.119,2.5-2.5c0-1.381-1.119-2.5-2.5-2.5c-1.381,0-2.5,1.119-2.5,2.5
		C29.201,284.881,30.32,286,31.701,286"/>
	<polygon style="fill:#CCCCCC;" points="-5.54,311.125 -40.299,311.125 -40.299,309.875 -6.058,309.875 12.442,291.375 
		45.201,291.375 45.201,292.625 12.96,292.625 	"/>
	<path style="fill:#CCCCCC;" d="M45.201,294.5c1.381,0,2.5-1.119,2.5-2.5c0-1.381-1.119-2.5-2.5-2.5c-1.381,0-2.5,1.119-2.5,2.5
		C42.701,293.381,43.82,294.5,45.201,294.5"/>
	<rect x="-4.299" y="156.875" style="fill:#CCCCCC;" width="36" height="1.25"/>
	<path style="fill:#CCCCCC;" d="M31.701,160c1.381,0,2.5-1.119,2.5-2.5c0-1.381-1.119-2.5-2.5-2.5c-1.381,0-2.5,1.119-2.5,2.5
		C29.201,158.881,30.32,160,31.701,160"/>
	<rect x="-4.299" y="146.875" style="fill:#CCCCCC;" width="27" height="1.25"/>
	<path style="fill:#CCCCCC;" d="M22.701,150c1.381,0,2.5-1.119,2.5-2.5c0-1.381-1.119-2.5-2.5-2.5c-1.381,0-2.5,1.119-2.5,2.5
		C20.201,148.881,21.32,150,22.701,150"/>
	<rect x="-3.299" y="135.875" style="fill:#CCCCCC;" width="14.5" height="1.25"/>
	<path style="fill:#CCCCCC;" d="M11.201,139c1.381,0,2.5-1.119,2.5-2.5c0-1.381-1.119-2.5-2.5-2.5c-1.381,0-2.5,1.119-2.5,2.5
		C8.701,137.881,9.82,139,11.201,139"/>
	<polygon style="fill:#CCCCCC;" points="37.46,107.125 -47.299,107.125 -47.299,105.875 36.942,105.875 53.942,88.875 
		104.701,88.875 104.701,90.125 54.46,90.125 	"/>
	<path style="fill:#CCCCCC;" d="M104.701,92c1.381,0,2.5-1.119,2.5-2.5c0-1.381-1.119-2.5-2.5-2.5c-1.381,0-2.5,1.119-2.5,2.5
		C102.201,90.881,103.32,92,104.701,92"/>
	<polygon style="fill:#CCCCCC;" points="32.46,96.289 -53.299,96.289 -53.299,95.039 31.942,95.039 48.504,78.476 93.701,78.476 
		93.701,79.726 49.021,79.726 	"/>
	<path style="fill:#CCCCCC;" d="M93.701,81.601c1.381,0,2.5-1.119,2.5-2.5c0-1.381-1.119-2.5-2.5-2.5c-1.381,0-2.5,1.119-2.5,2.5
		C91.201,80.482,92.32,81.601,93.701,81.601"/>
	<polygon style="fill:#CCCCCC;" points="22.577,86.008 -26.299,86.008 -26.299,84.758 22.059,84.758 37.942,68.875 85.201,68.875 
		85.201,70.125 38.46,70.125 	"/>
	<path style="fill:#CCCCCC;" d="M85.201,72c1.381,0,2.5-1.119,2.5-2.5c0-1.381-1.119-2.5-2.5-2.5c-1.381,0-2.5,1.119-2.5,2.5
		C82.701,70.881,83.82,72,85.201,72"/>
	<polygon style="fill:#CCCCCC;" points="14.96,78.625 -17.299,78.625 -17.299,77.375 14.442,77.375 32.942,58.875 74.201,58.875 
		74.201,60.125 33.46,60.125 	"/>
	<path style="fill:#CCCCCC;" d="M74.201,62c1.381,0,2.5-1.119,2.5-2.5c0-1.381-1.119-2.5-2.5-2.5c-1.381,0-2.5,1.119-2.5,2.5
		C71.701,60.881,72.82,62,74.201,62"/>
	<polygon style="fill:#CCCCCC;" points="13.959,66.725 -7.3,66.725 -7.3,65.475 13.441,65.475 29.191,49.725 83.014,49.725 
		83.014,50.975 29.709,50.975 	"/>
	<path style="fill:#CCCCCC;" d="M83.014,52.85c1.381,0,2.5-1.119,2.5-2.5c0-1.381-1.119-2.5-2.5-2.5c-1.381,0-2.5,1.119-2.5,2.5
		C80.514,51.731,81.633,52.85,83.014,52.85"/>
	<rect x="-5.299" y="28.375" style="fill:#CCCCCC;" width="37" height="1.25"/>
	<path style="fill:#CCCCCC;" d="M31.701,31.5c1.381,0,2.5-1.119,2.5-2.5c0-1.381-1.119-2.5-2.5-2.5c-1.381,0-2.5,1.119-2.5,2.5
		C29.201,30.381,30.32,31.5,31.701,31.5"/>
	<rect x="-6.299" y="11.875" style="fill:#CCCCCC;" width="32.25" height="1.25"/>
	<path style="fill:#CCCCCC;" d="M25.951,15c1.381,0,2.5-1.119,2.5-2.5c0-1.381-1.119-2.5-2.5-2.5c-1.381,0-2.5,1.119-2.5,2.5
		C23.451,13.881,24.57,15,25.951,15"/>
	<rect x="-30.299" y="1.875" style="fill:#CCCCCC;" width="45.5" height="1.25"/>
	<path style="fill:#CCCCCC;" d="M15.201,5c1.381,0,2.5-1.119,2.5-2.5c0-1.381-1.119-2.5-2.5-2.5c-1.381,0-2.5,1.119-2.5,2.5
		C12.701,3.881,13.82,5,15.201,5"/>
</g>
<g id="Layer_1">
</g>
</svg>
