<?xml version="1.0" encoding="iso-8859-1"?>
<!-- Generator: Adobe Illustrator 18.1.0, SVG Export Plug-In . SVG Version: 6.00 Build 0)  -->
<!DOCTYPE svg PUBLIC "-//W3C//DTD SVG 1.1//EN" "http://www.w3.org/Graphics/SVG/1.1/DTD/svg11.dtd">
<svg version="1.1" xmlns="http://www.w3.org/2000/svg" xmlns:xlink="http://www.w3.org/1999/xlink" x="0px" y="0px"
	 viewBox="0 0 188.393 192.538" style="enable-background:new 0 0 188.393 192.538;" xml:space="preserve">
<g id="circle_x5F_labratories">
	<g>
		<g>
			<g>
				<g style="opacity:0.15;">
					<g>
						<path d="M94.196,188.394c52.023,0,94.196-42.173,94.196-94.197C188.393,42.173,146.22,0,94.196,0S0,42.173,0,94.196
							C0,146.221,42.173,188.394,94.196,188.394"/>
					</g>
				</g>
			</g>
		</g>
		<g>
			<g>
				<g style="opacity:0.1;">
					<g>
						<path style="fill:#231F20;" d="M136.07,10.05c-9.352-3.123-19.359-4.814-29.761-4.814c-51.869,0-93.917,42.052-93.917,93.928
							c0,36.479,20.796,68.103,51.177,83.659l-0.219-0.05C26.487,170.089,0,135.104,0,93.932C0,42.058,42.048,0.006,93.917,0.006
							c15.17,0,29.501,3.597,42.184,9.985L136.07,10.05z"/>
						<path style="fill:none;" d="M136.07,10.05c-9.352-3.123-19.359-4.814-29.761-4.814c-51.869,0-93.917,42.052-93.917,93.928
							c0,36.479,20.796,68.103,51.177,83.659l-0.219-0.05C26.487,170.089,0,135.104,0,93.932C0,42.058,42.048,0.006,93.917,0.006
							c15.17,0,29.501,3.597,42.184,9.985L136.07,10.05z"/>
					</g>
				</g>
			</g>
		</g>
	</g>
	<g>
		<defs>
			<path id="SVGID_1_" d="M43.508,16.078c-3.986,2.57-7.77,5.437-11.309,8.565v140.319c16.503,14.581,38.192,23.432,61.945,23.432
				c26.813,0,50.992-11.275,68.055-29.344V30.554c-5.189-5.496-11.039-10.364-17.42-14.477H43.508z"/>
		</defs>
		<clipPath id="SVGID_2_">
			<use xlink:href="#SVGID_1_"  style="overflow:visible;"/>
		</clipPath>
		<path style="clip-path:url(#SVGID_2_);" d="M76.822,28.389l-11.345,8.368v-7.283L83.64,16.078l51.474,19.364v14.863L76.822,28.389
			z M162.199,180.871v11.667h-130v-11.667h5.252V64.086l40.214-29.662l79.282,29.662v116.785H162.199z M134.871,81.876l12.501,3.743
			V66.135l-12.501-4.467V81.876z M134.871,114.711l12.501,2.565V97.793l-12.501-3.29V114.711z M134.871,147.546l12.501,1.388V129.45
			l-12.501-2.111V147.546z M134.871,180.382l12.501,0.209v-19.484l-12.501-0.934V180.382z M111.056,74.746l12.5,3.743V57.624
			l-12.5-4.467V74.746z M111.056,109.825l12.5,2.565V91.525l-12.5-3.289V109.825z M111.056,144.904l12.5,1.387v-20.865l-12.5-2.111
			V144.904z M87.24,67.616l12.5,3.742V49.113l-12.5-4.467V67.616z M87.24,104.939l12.5,2.565V85.258l-12.5-3.29V104.939z
			 M87.24,142.261l12.5,1.387v-22.245l-12.5-2.112V142.261z M87.24,179.584l12.5,0.209v-22.245l-12.5-0.935V179.584z
			 M123.556,186.223v-26.895l-12.5-0.935v27.83H123.556z M66.488,135.858c1.487-0.245,2.77-2.141,3.447-5.137
			c0.678-2.999,0.536-6.156-0.367-8.51L58.407,93.115l0.118-13.779c0.712-1.139,1.21-2.877,1.284-4.49l-7.439,5.856
			c0.022,1.422,0.416,2.384,1.031,2.487l-0.273,13.16l-8.926,33.093c-0.577,2.142-0.722,4.591-0.388,6.68
			c0.339,2.13,1.083,3.305,2.025,3.149L66.488,135.858z M54.494,82.366l2.843-2.137l-0.165,14.444l5.017,13.52l-12.643,5.597
			l4.693-17.343L54.494,82.366z M58.203,114.79c0.659-0.26,1.193,0.738,1.183,2.24c-0.009,1.512-0.563,2.93-1.23,3.156
			c-0.657,0.223-1.17-0.805-1.154-2.283C57.019,116.434,57.553,115.045,58.203,114.79 M61.181,121.808
			c0.619-0.193,1.126,0.767,1.127,2.156c0,1.396-0.512,2.67-1.137,2.834c-0.618,0.163-1.108-0.821-1.102-2.189
			C60.075,123.249,60.57,121.999,61.181,121.808 M52.716,116.949c0.587-0.231,1.047,0.727,1.022,2.15
			c-0.027,1.432-0.535,2.765-1.128,2.966c-0.586,0.199-1.029-0.786-0.997-2.188C51.645,118.484,52.136,117.178,52.716,116.949
			 M55.266,123.657c0.548-0.171,0.983,0.746,0.966,2.058c-0.016,1.318-0.483,2.512-1.037,2.657
			c-0.547,0.144-0.968-0.793-0.946-2.086C54.271,125,54.724,123.827,55.266,123.657 M50.003,125.303
			c0.489-0.153,0.866,0.724,0.835,1.966c-0.03,1.249-0.459,2.372-0.952,2.502c-0.488,0.128-0.852-0.767-0.817-1.992
			C49.103,126.56,49.519,125.455,50.003,125.303"/>
	</g>
</g>
<g id="Layer_1">
</g>
</svg>
