<?xml version="1.0" encoding="iso-8859-1"?>
<!-- Generator: Adobe Illustrator 18.1.0, SVG Export Plug-In . SVG Version: 6.00 Build 0)  -->
<!DOCTYPE svg PUBLIC "-//W3C//DTD SVG 1.1//EN" "http://www.w3.org/Graphics/SVG/1.1/DTD/svg11.dtd">
<svg version="1.1" xmlns="http://www.w3.org/2000/svg" xmlns:xlink="http://www.w3.org/1999/xlink" x="0px" y="0px"
	 viewBox="0 0 187.558 187.559" style="enable-background:new 0 0 187.558 187.559;" xml:space="preserve">
<g id="circle_x5F_energy">
	<g>
		<g>
			<g>
				<g style="opacity:0.15;">
					<g>
						<path d="M93.779,187.559c51.793,0,93.779-41.986,93.779-93.78C187.558,41.986,145.571,0,93.779,0S0,41.986,0,93.779
							C0,145.572,41.986,187.559,93.779,187.559"/>
					</g>
				</g>
			</g>
		</g>
		<g>
			<g>
				<g style="opacity:0.1;">
					<g>
						<path style="fill:#231F20;" d="M135.467,10.006c-9.311-3.109-19.274-4.793-29.629-4.793
							c-51.639,0-93.501,41.866-93.501,93.511c0,36.318,20.703,67.801,50.95,83.288l-0.218-0.05C26.37,169.335,0,134.505,0,93.516
							c0-51.644,41.862-93.51,93.501-93.51c15.103,0,29.37,3.581,41.997,9.941L135.467,10.006z"/>
						<path style="fill:none;" d="M135.467,10.006c-9.311-3.109-19.274-4.793-29.629-4.793c-51.639,0-93.501,41.866-93.501,93.511
							c0,36.318,20.703,67.801,50.95,83.288l-0.218-0.05C26.37,169.335,0,134.505,0,93.516c0-51.644,41.862-93.51,93.501-93.51
							c15.103,0,29.37,3.581,41.997,9.941L135.467,10.006z"/>
					</g>
				</g>
			</g>
		</g>
	</g>
</g>
<g id="Layer_1">
</g>
</svg>
