<?xml version="1.0" encoding="iso-8859-1"?>
<!-- Generator: Adobe Illustrator 18.1.0, SVG Export Plug-In . SVG Version: 6.00 Build 0)  -->
<!DOCTYPE svg PUBLIC "-//W3C//DTD SVG 1.1//EN" "http://www.w3.org/Graphics/SVG/1.1/DTD/svg11.dtd">
<svg version="1.1" xmlns="http://www.w3.org/2000/svg" xmlns:xlink="http://www.w3.org/1999/xlink" x="0px" y="0px"
	 viewBox="0 0 196.656 188.941" style="enable-background:new 0 0 196.656 188.941;" xml:space="preserve">
<g id="circle_x5F_energy">
	<g>
		<g>
			<g>
				<g style="opacity:0.15;">
					<g>
						<path d="M93.779,187.559c51.793,0,93.779-41.986,93.779-93.78C187.558,41.986,145.571,0,93.779,0S0,41.986,0,93.779
							C0,145.572,41.986,187.559,93.779,187.559"/>
					</g>
				</g>
			</g>
		</g>
		<g>
			<g>
				<g style="opacity:0.1;">
					<g>
						<path style="fill:#231F20;" d="M135.467,10.006c-9.311-3.109-19.274-4.793-29.629-4.793
							c-51.639,0-93.501,41.866-93.501,93.511c0,36.318,20.703,67.801,50.95,83.288l-0.218-0.05C26.37,169.335,0,134.505,0,93.516
							c0-51.644,41.862-93.51,93.501-93.51c15.103,0,29.37,3.581,41.997,9.941L135.467,10.006z"/>
						<path style="fill:none;" d="M135.467,10.006c-9.311-3.109-19.274-4.793-29.629-4.793c-51.639,0-93.501,41.866-93.501,93.511
							c0,36.318,20.703,67.801,50.95,83.288l-0.218-0.05C26.37,169.335,0,134.505,0,93.516c0-51.644,41.862-93.51,93.501-93.51
							c15.103,0,29.37,3.581,41.997,9.941L135.467,10.006z"/>
					</g>
				</g>
			</g>
		</g>
	</g>
	<g>
		<defs>
			<rect id="SVGID_1_" x="98.877" y="22.317" width="88.779" height="159.695"/>
		</defs>
		<clipPath id="SVGID_2_">
			<use xlink:href="#SVGID_1_"  style="overflow:visible;"/>
		</clipPath>
		<g style="clip-path:url(#SVGID_2_);">
			<defs>
				<rect id="SVGID_3_" x="98.877" y="22.317" width="88.779" height="159.695"/>
			</defs>
			<clipPath id="SVGID_4_">
				<use xlink:href="#SVGID_3_"  style="overflow:visible;"/>
			</clipPath>
			<g style="opacity:0.1;clip-path:url(#SVGID_4_);">
				<g>
					<defs>
						<rect id="SVGID_5_" x="89.877" y="15.317" width="106.779" height="167.695"/>
					</defs>
					<clipPath id="SVGID_6_">
						<use xlink:href="#SVGID_5_"  style="overflow:visible;"/>
					</clipPath>
					<path style="clip-path:url(#SVGID_6_);fill:#231F20;" d="M123.678,126.987l13.51,50.355l23.593-18.42
						c41.498-43.325,22.368-93.647,22.368-93.647l-82.506-34.484L98.877,65.29l23.353,0.164l-14.752,40.965l-0.865,15.82
						L123.678,126.987z"/>
				</g>
			</g>
		</g>
	</g>
	<g>
		<path d="M78.036,119.588l1.257-13.319c-1.003-1.817-3.079-6.029-4.165-11.46c0,0-1.679,1.058-2.806-1.94
			c-1.128-2.999-3.958-14.162-0.125-12.719l-1.353-2.422c0,0,23.637,8.127,46.87,0l-0.876,2.422
			c3.833-1.443,0.939,9.844-0.189,12.843c-1.067,2.838-2.571,1.931-2.729,1.826c-1.086,5.426-3.161,9.634-4.163,11.45l1.09,13.319"
			/>
		<path d="M78.036,117.428l-2.786-0.83c-1.696,0.451-9.453,5.317-9.453,5.317c-7.032,2.174-22.06,6.801-22.564,6.801
			c0,0-5.94,0.043-8.74,6.631c0,0-3.946,13.722-6.283,25.569c16.506,17.804,40.096,27.946,66.289,27.946
			c26.189,0,49.776-11.139,66.282-28.939c-2.358-11.707-6.307-24.576-6.307-24.576c-2.8-6.588-8.74-6.631-8.74-6.631
			c-0.413,0-10.61-3.117-18.141-5.436l-4.083-1.26c-2.349-0.726-3.903-1.208-3.903-1.208s-4.726-3.747-6.434-4.214l-2.326,0.83"/>
		<path d="M122.445,64.996c-0.039,0.108-0.105,0.264-0.215,0.458c-0.094,0.205-0.263,0.421-0.438,0.697
			c-0.204,0.249-0.425,0.558-0.724,0.85c-0.296,0.293-0.619,0.634-1.02,0.94c-0.197,0.159-0.4,0.331-0.619,0.494
			c-0.227,0.151-0.463,0.307-0.706,0.468c-0.974,0.649-2.15,1.258-3.478,1.804c-1.325,0.548-2.8,1.061-4.391,1.449
			c-0.397,0.103-0.797,0.219-1.207,0.313c-0.41,0.084-0.826,0.168-1.247,0.254c-0.842,0.17-1.704,0.354-2.588,0.457
			c-0.883,0.117-1.78,0.236-2.69,0.356c-0.916,0.072-1.845,0.145-2.78,0.217c-0.467,0.031-0.941,0.081-1.405,0.095
			c-0.465,0.012-0.931,0.024-1.398,0.037c-0.939,0.022-1.884,0.044-2.827,0.066c-0.946-0.023-1.892-0.044-2.835-0.067
			c-0.47-0.013-0.942-0.026-1.41-0.039c-0.468-0.014-0.935-0.064-1.401-0.094c-0.93-0.073-1.853-0.146-2.765-0.217
			c-0.909-0.121-1.807-0.239-2.69-0.357c-0.883-0.102-1.745-0.288-2.587-0.458c-0.421-0.085-0.836-0.169-1.248-0.252
			c-0.409-0.095-0.81-0.212-1.206-0.314c-0.791-0.219-1.569-0.387-2.295-0.667c-0.364-0.128-0.723-0.254-1.075-0.377
			c-0.175-0.063-0.35-0.12-0.521-0.187c-0.168-0.073-0.335-0.146-0.5-0.217c-1.327-0.546-2.503-1.156-3.477-1.804
			c-0.243-0.161-0.479-0.317-0.707-0.467c-0.219-0.164-0.421-0.336-0.618-0.495c-0.402-0.305-0.724-0.645-1.022-0.939
			c-0.299-0.292-0.519-0.6-0.724-0.849c-0.174-0.276-0.343-0.492-0.438-0.697c-0.109-0.193-0.177-0.351-0.215-0.459
			c-0.045-0.105-0.058-0.163-0.058-0.163s0.023,0.055,0.086,0.151c0.058,0.098,0.152,0.235,0.288,0.407
			c0.12,0.18,0.322,0.365,0.529,0.599c0.112,0.109,0.242,0.218,0.374,0.339c0.134,0.12,0.269,0.253,0.437,0.368
			c0.324,0.241,0.669,0.519,1.095,0.757c0.207,0.126,0.421,0.257,0.643,0.393c0.234,0.118,0.476,0.241,0.725,0.367
			c0.487,0.272,1.051,0.479,1.629,0.717c0.57,0.256,1.214,0.431,1.862,0.656c0.163,0.054,0.328,0.109,0.494,0.164
			c0.169,0.05,0.344,0.088,0.517,0.134c0.348,0.088,0.703,0.178,1.064,0.269c0.712,0.204,1.476,0.331,2.25,0.488
			c0.388,0.074,0.779,0.162,1.18,0.227c0.403,0.055,0.812,0.11,1.225,0.167c0.826,0.103,1.661,0.258,2.528,0.314
			c0.863,0.082,1.739,0.164,2.627,0.247c0.893,0.046,1.796,0.093,2.707,0.14c0.455,0.02,0.91,0.06,1.37,0.064
			c0.46,0.007,0.921,0.013,1.382,0.019c0.925,0.016,1.853,0.032,2.78,0.048c0.929-0.016,1.859-0.032,2.784-0.048
			c0.467-0.007,0.932-0.014,1.398-0.02c0.463-0.005,0.91-0.045,1.365-0.066c0.906-0.046,1.804-0.093,2.691-0.139
			c0.888-0.083,1.764-0.166,2.626-0.247c0.868-0.056,1.702-0.213,2.529-0.316c0.412-0.056,0.822-0.112,1.224-0.166
			c0.402-0.065,0.792-0.153,1.181-0.226c0.774-0.158,1.538-0.284,2.25-0.489c0.361-0.091,0.715-0.18,1.063-0.269
			c0.174-0.045,0.348-0.084,0.516-0.134c0.167-0.055,0.331-0.109,0.495-0.164c0.648-0.225,1.292-0.399,1.861-0.656
			c0.58-0.237,1.144-0.444,1.63-0.715c0.25-0.127,0.491-0.25,0.725-0.368c0.222-0.136,0.437-0.266,0.642-0.392
			c0.427-0.238,0.772-0.516,1.097-0.756c0.168-0.115,0.302-0.248,0.435-0.369c0.133-0.121,0.264-0.23,0.377-0.339
			c0.206-0.233,0.408-0.418,0.528-0.598c0.136-0.172,0.232-0.309,0.288-0.408c0.063-0.095,0.085-0.15,0.085-0.15
			S122.49,64.891,122.445,64.996 M122.352,62.043c-0.885-10.821-5.683-18.992-12.691-23.641c-0.393,0.891-0.793,1.779-1.21,2.66
			c-0.22,0.466-0.432,0.935-0.657,1.398l-0.685,1.389c-0.223,0.464-0.471,0.919-0.705,1.379c-0.239,0.459-0.487,0.914-0.742,1.367
			c0.107-0.508,0.219-1.014,0.344-1.516c0.127-0.501,0.242-1.006,0.38-1.503l0.402-1.495c0.137-0.496,0.286-0.989,0.429-1.484
			c0.487-1.703,1.026-3.387,1.583-5.065c-0.044-0.024-0.09-0.047-0.133-0.069c-0.277-0.143-0.562-0.282-0.851-0.411
			c-0.575-0.261-1.164-0.503-1.767-0.716c-0.297-0.114-0.602-0.213-0.906-0.309c-0.303-0.101-0.607-0.199-0.917-0.282
			c-0.214-0.065-0.43-0.123-0.647-0.18l-0.405,4.719l-0.776,8.077l-0.426,4.035c-0.136,1.345-0.297,2.689-0.451,4.033
			c-0.149,1.344-0.311,2.688-0.483,4.031c-0.159,1.343-0.35,2.685-0.53,4.027c0.012-1.354,0.013-2.709,0.045-4.062
			c0.019-1.353,0.05-2.706,0.091-4.058c0.039-1.353,0.07-2.706,0.125-4.057l0.149-4.055l0.375-8.104l0.403-7.18
			c-0.03-0.005-0.059-0.012-0.09-0.017c-0.314-0.065-0.642-0.108-0.963-0.163c-0.324-0.049-0.652-0.085-0.977-0.128
			c-0.325-0.048-0.656-0.065-0.984-0.099c-0.656-0.071-1.321-0.089-1.98-0.128c-0.331-0.021-0.664-0.014-0.996-0.022L94.712,30.4
			l-0.998,0.016c-0.336,0.008-0.689,0.001-1.011,0.022c-0.653,0.04-1.301,0.056-1.962,0.127c-0.327,0.034-0.659,0.051-0.983,0.099
			c-0.326,0.043-0.654,0.079-0.977,0.128c-0.321,0.055-0.649,0.098-0.964,0.163c-0.03,0.005-0.059,0.012-0.089,0.017l0.405,7.179
			l0.192,4.052l0.184,4.052l0.148,4.055c0.054,1.351,0.086,2.704,0.124,4.056c0.04,1.353,0.071,2.706,0.091,4.059
			c0.031,1.353,0.032,2.708,0.043,4.062c-0.18-1.342-0.371-2.684-0.532-4.027c-0.171-1.343-0.332-2.686-0.483-4.031
			c-0.155-1.344-0.315-2.688-0.452-4.033l-0.426-4.035l-0.392-4.038l-0.383-4.038l-0.404-4.717
			c-0.216,0.057-0.432,0.114-0.646,0.179c-0.309,0.083-0.613,0.18-0.916,0.282c-0.305,0.096-0.609,0.196-0.906,0.309
			c-0.602,0.213-1.191,0.455-1.768,0.716c-0.289,0.129-0.573,0.268-0.85,0.41c-0.043,0.022-0.087,0.046-0.13,0.069
			c0.556,1.677,1.095,3.36,1.583,5.063c0.294,0.986,0.566,1.981,0.83,2.979c0.26,0.999,0.508,2.003,0.722,3.02
			c-0.511-0.905-0.986-1.823-1.45-2.746c-0.461-0.923-0.913-1.85-1.342-2.786c-0.417-0.881-0.818-1.768-1.211-2.659
			c-7.005,4.648-11.802,12.819-12.688,23.639c-2.249,2.438-3.527,4.829-3.527,6.678c0,6.127,13.954,10.755,31.168,10.755
			s31.168-4.628,31.168-10.755C125.88,66.872,124.601,64.481,122.352,62.043"/>
		<path style="fill:#FFFFFF;" d="M137.404,178.127l-8.314-27.11l3.323-27.603l-8.639-2.009c0,0-3.986,23.741-9.701,27.132H97.727
			H90.19H73.843c-5.714-3.391-9.701-27.132-9.701-27.132l-8.638,2.009l3.322,27.603l-8.162,27.413c0,0,17.8,10.511,43.835,10.511
			S137.404,178.127,137.404,178.127"/>
		<path d="M112.955,170.635l1.486,0.381l-2.642,5.223l6.109-5.604l-1.321-1l2.807-4.293L112.955,170.635z M119.498,178.43h-8.479
			c-4.197,0-7.631-3.434-7.631-7.631c0-4.197,3.434-7.631,7.631-7.631h8.479c4.197,0,7.631,3.434,7.631,7.631
			C127.129,174.996,123.695,178.43,119.498,178.43"/>
	</g>
</g>
<g id="Layer_1">
</g>
</svg>
