<?xml version="1.0" encoding="utf-8"?>
<!-- Generator: Adobe Illustrator 18.1.0, SVG Export Plug-In . SVG Version: 6.00 Build 0)  -->
<!DOCTYPE svg PUBLIC "-//W3C//DTD SVG 1.1//EN" "http://www.w3.org/Graphics/SVG/1.1/DTD/svg11.dtd">
<svg version="1.1" id="Layer_1" xmlns="http://www.w3.org/2000/svg" xmlns:xlink="http://www.w3.org/1999/xlink" x="0px" y="0px"
	 viewBox="0 0 572 961.5" enable-background="new 0 0 572 961.5" xml:space="preserve">
<polyline fill="none" stroke="#CCCCCC" stroke-miterlimit="10" points="394.5,617 394.5,667.9 435.5,709.1 435.5,886.9 362.8,960.5 
	303,960.5 "/>
<path fill="#E6E6E6" d="M222.7,582.2h19.8c2.6,0,4.8,2.9,4.8,6.5c0,3.6-2.2,6.5-4.8,6.5h-19.8"/>
<path fill="#E6E6E6" d="M222.7,615.1h19.8c2.6,0,4.8,2.9,4.8,6.5s-2.2,6.5-4.8,6.5h-19.8"/>
<path fill="#E6E6E6" d="M222.7,648h19.8c2.6,0,4.8,2.9,4.8,6.5s-2.2,6.5-4.8,6.5h-19.8"/>
<path fill="#E6E6E6" d="M112.4,550.3v-20.1c0-2.7,2.9-4.9,6.4-4.9s6.4,2.2,6.4,4.9v20.1"/>
<path fill="#E6E6E6" d="M144.7,550.3v-20.1c0-2.7,2.9-4.9,6.4-4.9c3.5,0,6.4,2.2,6.4,4.9v20.1"/>
<path fill="#E6E6E6" d="M177,550.3v-20.1c0-2.7,2.9-4.9,6.4-4.9c3.5,0,6.4,2.2,6.4,4.9v20.1"/>
<path fill="#E6E6E6" d="M125.2,688.8v20.1c0,2.7-2.9,4.9-6.4,4.9s-6.4-2.2-6.4-4.9v-20.1"/>
<path fill="#E6E6E6" d="M157.4,688.8v20.1c0,2.7-2.9,4.9-6.4,4.9c-3.5,0-6.4-2.2-6.4-4.9v-20.1"/>
<path fill="#E6E6E6" d="M189.7,688.8v20.1c0,2.7-2.9,4.9-6.4,4.9c-3.5,0-6.4-2.2-6.4-4.9v-20.1"/>
<path fill="#E6E6E6" d="M79.4,595.2H59.6c-2.6,0-4.8-2.9-4.8-6.5s2.2-6.5,4.8-6.5h19.8"/>
<path fill="#E6E6E6" d="M79.4,628.1H59.6c-2.6,0-4.8-2.9-4.8-6.5c0-3.6,2.2-6.5,4.8-6.5h19.8"/>
<path fill="#E6E6E6" d="M79.4,661H59.6c-2.6,0-4.8-2.9-4.8-6.5s2.2-6.5,4.8-6.5h19.8"/>
<path fill="#E6E6E6" d="M197,581.1c0-3-2-5.5-4.5-5.5h-82.8c-2.5,0-4.5,2.5-4.5,5.5v77.8c0,3,2,5.5,4.5,5.5h82.8
	c2.5,0,4.5-2.5,4.5-5.5V581.1z M219.7,678c0,4.5-3,8.2-6.7,8.2H89.2c-3.7,0-6.7-3.7-6.7-8.2V561.9c0-4.5,3-8.2,6.7-8.2h123.8
	c3.7,0,6.7,3.7,6.7,8.2V678z"/>
<line fill="#D0D2D3" x1="183.5" y1="619.8" x2="173.9" y2="619.7"/>
<path fill="#D0D2D3" d="M171.7,623.4c-1.3-0.8-2.1-2.1-2.1-3.7c0-2.4,2-4.3,4.3-4.3l9.6,0.1c2.4,0,4.3,2,4.3,4.3
	c0,2.4-2,4.3-4.3,4.3l-9.6-0.1C173.1,624,172.3,623.8,171.7,623.4z"/>
<line fill="#D0D2D3" x1="179.3" y1="603.5" x2="170.9" y2="608.3"/>
<path fill="#D0D2D3" d="M168.7,612c-0.6-0.4-1.1-0.9-1.5-1.6c-1.2-2.1-0.5-4.7,1.6-5.9l8.4-4.8c2.1-1.2,4.7-0.5,5.9,1.6
	c1.2,2.1,0.5,4.7-1.6,5.9l-8.4,4.8C171.6,612.8,170,612.7,168.7,612z"/>
<line fill="#58595B" x1="167.5" y1="591.5" x2="162.6" y2="599.9"/>
<path fill="#58595B" d="M160.4,603.5c-2-1.2-2.7-3.8-1.5-5.9l4.9-8.3c1.2-2.1,3.8-2.7,5.9-1.5c0,0,0,0,0.1,0c2,1.2,2.7,3.8,1.5,5.9
	l-4.9,8.3C165.1,604.1,162.5,604.8,160.4,603.5C160.4,603.6,160.4,603.6,160.4,603.5z"/>
<line fill="#6D6E70" x1="151.3" y1="587.1" x2="151.2" y2="596.7"/>
<path fill="#6D6E70" d="M149,600.4c-1.3-0.8-2.1-2.1-2.1-3.7l0.1-9.6c0-2.4,2-4.3,4.3-4.3c2.4,0,4.3,2,4.3,4.3l-0.1,9.6
	c0,2.4-2,4.3-4.3,4.3C150.4,601,149.6,600.8,149,600.4z"/>
<line fill="#808184" x1="135" y1="591.3" x2="139.8" y2="599.7"/>
<path fill="#808184" d="M137.6,603.4c-0.6-0.4-1.1-0.9-1.5-1.6l-4.8-8.4c-1.2-2.1-0.5-4.7,1.6-5.9c2.1-1.2,4.7-0.5,5.9,1.6l4.8,8.4
	c1.2,2.1,0.5,4.7-1.6,5.9C140.5,604.3,138.8,604.2,137.6,603.4z"/>
<line fill="#929497" x1="123.1" y1="603.1" x2="131.4" y2="608"/>
<path fill="#929497" d="M120.8,606.8c-2-1.2-2.7-3.8-1.5-5.9c1.2-2.1,3.8-2.7,5.9-1.5l8.3,4.9c2.1,1.2,2.7,3.8,1.5,5.9
	c-1.2,2.1-3.8,2.7-5.9,1.5L120.8,606.8C120.9,606.8,120.8,606.8,120.8,606.8z"/>
<line fill="#A6A8AB" x1="118.6" y1="619.3" x2="128.2" y2="619.4"/>
<path fill="#A6A8AB" d="M116.4,623c-1.3-0.8-2.1-2.1-2.1-3.7c0-2.4,2-4.3,4.3-4.3l9.6,0.1c2.4,0,4.3,2,4.3,4.3c0,2.4-2,4.3-4.3,4.3
	l-9.6-0.1C117.8,623.6,117,623.4,116.4,623z"/>
<line fill="#BBBDBF" x1="122.8" y1="635.6" x2="131.2" y2="630.8"/>
<path fill="#BBBDBF" d="M120.6,639.3c-0.6-0.4-1.1-0.9-1.5-1.6c-1.2-2.1-0.5-4.7,1.6-5.9l8.4-4.8c2.1-1.2,4.7-0.5,5.9,1.6
	c1.2,2.1,0.5,4.7-1.6,5.9l-8.4,4.8C123.6,640.2,121.9,640.1,120.6,639.3z"/>
<line fill="#D0D2D3" x1="134.6" y1="647.6" x2="139.5" y2="639.3"/>
<path fill="#D0D2D3" d="M132.4,651.3c-2-1.2-2.7-3.8-1.5-5.9l4.9-8.3c1.2-2.1,3.8-2.7,5.9-1.5c2.1,1.2,2.7,3.8,1.5,5.9l-4.9,8.3
	C137.2,651.8,134.5,652.5,132.4,651.3C132.4,651.3,132.4,651.3,132.4,651.3z"/>
<line fill="#D0D2D3" x1="150.9" y1="652" x2="150.9" y2="642.4"/>
<path fill="#D0D2D3" d="M148.6,655.7c-1.3-0.8-2.1-2.1-2.1-3.7l0.1-9.6c0-2.4,2-4.3,4.3-4.3c2.4,0,4.3,2,4.3,4.3l-0.1,9.6
	c0,2.4-2,4.3-4.3,4.3C150,656.3,149.3,656.1,148.6,655.7z"/>
<path fill="#D0D2D3" d="M164.9,651.5c-0.6-0.4-1.1-0.9-1.5-1.6l-4.8-8.4c-1.2-2.1-0.5-4.7,1.6-5.9c2.1-1.2,4.7-0.5,5.9,1.6l4.8,8.4
	c1.2,2.1,0.5,4.7-1.6,5.9C167.8,652.3,166.2,652.3,164.9,651.5z"/>
<line fill="#D0D2D3" x1="179.1" y1="636" x2="170.8" y2="631.1"/>
<path fill="#D0D2D3" d="M168.5,634.8c-2-1.2-2.7-3.8-1.5-5.9c1.2-2.1,3.8-2.7,5.9-1.5l8.3,4.9c2.1,1.2,2.7,3.8,1.5,5.9
	c-1.2,2.1-3.8,2.7-5.9,1.5L168.5,634.8C168.6,634.8,168.6,634.8,168.5,634.8z"/>
<path fill="#E6E6E6" d="M537.8,436.3H565c3.6,0,6.6,4,6.6,8.9c0,4.9-3,8.9-6.6,8.9h-27.2"/>
<path fill="#E6E6E6" d="M537.8,481.5H565c3.6,0,6.6,4,6.6,8.9s-3,8.9-6.6,8.9h-27.2"/>
<path fill="#E6E6E6" d="M537.8,526.7H565c3.6,0,6.6,4,6.6,8.9s-3,8.9-6.6,8.9h-27.2"/>
<path fill="#E6E6E6" d="M386.2,392.5v-27.7c0-3.7,3.9-6.7,8.8-6.7c4.8,0,8.8,3,8.8,6.7v27.7"/>
<path fill="#E6E6E6" d="M430.6,392.5v-27.7c0-3.7,3.9-6.7,8.8-6.7s8.8,3,8.8,6.7v27.7"/>
<path fill="#E6E6E6" d="M475,392.5v-27.7c0-3.7,3.9-6.7,8.8-6.7c4.8,0,8.8,3,8.8,6.7v27.7"/>
<path fill="#E6E6E6" d="M403.7,582.8v27.7c0,3.7-3.9,6.7-8.8,6.7s-8.8-3-8.8-6.7v-27.7"/>
<path fill="#E6E6E6" d="M448.1,582.8v27.7c0,3.7-3.9,6.7-8.8,6.7c-4.8,0-8.8-3-8.8-6.7v-27.7"/>
<path fill="#E6E6E6" d="M492.5,582.8v27.7c0,3.7-3.9,6.7-8.8,6.7c-4.8,0-8.8-3-8.8-6.7v-27.7"/>
<path fill="#E6E6E6" d="M340.9,454.2h-27.2c-3.6,0-6.6-4-6.6-8.9c0-4.9,3-8.9,6.6-8.9h27.2"/>
<path fill="#E6E6E6" d="M340.9,499.3h-27.2c-3.6,0-6.6-4-6.6-8.9c0-4.9,3-8.9,6.6-8.9h27.2"/>
<path fill="#E6E6E6" d="M340.9,544.5h-27.2c-3.6,0-6.6-4-6.6-8.9c0-4.9,3-8.9,6.6-8.9h27.2"/>
<path fill="#E6E6E6" d="M502.4,434.8c0-4.2-2.8-7.6-6.2-7.6H382.4c-3.4,0-6.2,3.4-6.2,7.6v106.8c0,4.2,2.8,7.6,6.2,7.6h113.8
	c3.4,0,6.2-3.4,6.2-7.6V434.8z M533.6,568c0,6.2-4.1,11.3-9.2,11.3h-170c-5.1,0-9.2-5.1-9.2-11.3V408.4c0-6.2,4.2-11.3,9.2-11.3h170
	c5.1,0,9.2,5.1,9.2,11.3V568z"/>
<line fill="#D0D2D3" x1="484" y1="487.9" x2="470.7" y2="487.8"/>
<path fill="#D0D2D3" d="M467.7,492.9c-1.7-1-2.9-2.9-2.9-5.1c0-3.3,2.7-5.9,6-5.9L484,482c3.3,0,5.9,2.7,5.9,6c0,3.3-2.7,5.9-6,5.9
	l-13.2-0.1C469.6,493.8,468.5,493.4,467.7,492.9z"/>
<line fill="#D0D2D3" x1="478.2" y1="465.6" x2="466.6" y2="472.1"/>
<path fill="#D0D2D3" d="M463.6,477.2c-0.8-0.5-1.6-1.2-2.1-2.1c-1.6-2.8-0.6-6.5,2.2-8.1l11.5-6.5c2.8-1.6,6.5-0.6,8.1,2.2
	c1.6,2.8,0.6,6.5-2.2,8.1l-11.5,6.5C467.6,478.4,465.3,478.3,463.6,477.2z"/>
<line fill="#58595B" x1="461.9" y1="449.1" x2="455.2" y2="460.6"/>
<path fill="#58595B" d="M452.2,465.6c-2.8-1.7-3.7-5.3-2-8.1l6.7-11.4c1.7-2.8,5.3-3.8,8.1-2.1c0,0,0.1,0,0.1,0
	c2.8,1.7,3.7,5.3,2,8.1l-6.7,11.4C458.7,466.4,455.1,467.3,452.2,465.6C452.2,465.7,452.2,465.6,452.2,465.6z"/>
<line fill="#6D6E70" x1="439.7" y1="443" x2="439.6" y2="456.3"/>
<path fill="#6D6E70" d="M436.5,461.3c-1.7-1-2.9-2.9-2.9-5.1l0.1-13.2c0-3.3,2.7-5.9,6-5.9c3.3,0,5.9,2.7,5.9,6l-0.1,13.2
	c0,3.3-2.7,5.9-6,5.9C438.4,462.2,437.4,461.9,436.5,461.3z"/>
<line fill="#808184" x1="417.3" y1="448.8" x2="423.9" y2="460.4"/>
<path fill="#808184" d="M420.8,465.4c-0.8-0.5-1.6-1.2-2.1-2.1l-6.5-11.5c-1.6-2.8-0.6-6.5,2.2-8.1c2.8-1.6,6.5-0.6,8.1,2.2
	l6.5,11.5c1.6,2.8,0.6,6.5-2.2,8.1C424.9,466.6,422.6,466.5,420.8,465.4z"/>
<line fill="#929497" x1="400.9" y1="465.1" x2="412.3" y2="471.8"/>
<path fill="#929497" d="M397.8,470.1c-2.8-1.7-3.7-5.3-2-8.1c1.7-2.8,5.3-3.8,8.1-2.1l11.4,6.7c2.9,1.7,3.8,5.3,2.1,8.1
	c-1.7,2.8-5.3,3.8-8.1,2.1L397.8,470.1C397.9,470.2,397.8,470.1,397.8,470.1z"/>
<line fill="#A6A8AB" x1="394.7" y1="487.3" x2="408" y2="487.4"/>
<path fill="#A6A8AB" d="M391.7,492.4c-1.7-1-2.9-2.9-2.9-5.1c0-3.3,2.7-5.9,6-5.9l13.2,0.1c3.3,0,5.9,2.7,5.9,6c0,3.3-2.7,5.9-6,5.9
	l-13.2-0.1C393.6,493.2,392.6,492.9,391.7,492.4z"/>
<line fill="#BBBDBF" x1="400.6" y1="509.7" x2="412.1" y2="503.1"/>
<path fill="#BBBDBF" d="M397.5,514.7c-0.8-0.5-1.6-1.2-2.1-2.1c-1.6-2.8-0.6-6.5,2.2-8.1l11.5-6.5c2.8-1.6,6.5-0.6,8.1,2.2
	c1.6,2.8,0.6,6.5-2.2,8.1l-11.5,6.5C401.6,515.9,399.3,515.8,397.5,514.7z"/>
<line fill="#D0D2D3" x1="416.8" y1="526.1" x2="423.5" y2="514.7"/>
<path fill="#D0D2D3" d="M413.7,531.2c-2.8-1.7-3.7-5.3-2-8l6.7-11.4c1.7-2.8,5.3-3.8,8.1-2.1c2.8,1.7,3.8,5.3,2.1,8.1l-6.7,11.4
	C420.2,531.9,416.6,532.9,413.7,531.2C413.8,531.2,413.7,531.2,413.7,531.2z"/>
<line fill="#D0D2D3" x1="439.1" y1="532.2" x2="439.1" y2="519"/>
<path fill="#D0D2D3" d="M436,537.3c-1.7-1-2.9-2.9-2.9-5.1l0.1-13.2c0-3.3,2.7-5.9,6-5.9c3.3,0,5.9,2.7,5.9,6l-0.1,13.2
	c0,3.3-2.7,5.9-6,5.9C437.9,538.2,436.9,537.8,436,537.3z"/>
<path fill="#D0D2D3" d="M458.3,531.5c-0.8-0.5-1.6-1.2-2.1-2.1l-6.5-11.5c-1.6-2.8-0.6-6.5,2.2-8.1c2.8-1.6,6.5-0.6,8.1,2.2
	l6.5,11.5c1.6,2.8,0.6,6.5-2.2,8.1C462.4,532.7,460.1,532.6,458.3,531.5z"/>
<line fill="#D0D2D3" x1="477.8" y1="510.2" x2="466.4" y2="503.5"/>
<path fill="#D0D2D3" d="M463.4,508.6c-2.8-1.7-3.7-5.3-2-8c1.7-2.8,5.3-3.8,8.1-2.1l11.4,6.7c2.8,1.7,3.8,5.3,2.1,8.1
	c-1.7,2.8-5.3,3.8-8.1,2.1L463.4,508.6C463.4,508.6,463.4,508.6,463.4,508.6z"/>
<polygon fill="#E6E6E6" points="402.5,244.9 401.3,244.9 401.3,184.1 387.3,184.1 387.3,101.7 370.3,84.7 370.3,41.9 371.5,41.9 
	371.5,84.2 388.5,101.2 388.5,182.8 402.5,182.8 "/>
<path fill="#E6E6E6" d="M370.9,44.4c1.4,0,2.5-1.1,2.5-2.5c0-1.4-1.1-2.5-2.5-2.5c-1.4,0-2.5,1.1-2.5,2.5
	C368.4,43.3,369.5,44.4,370.9,44.4"/>
<path fill="#E6E6E6" d="M401.9,247.4c1.4,0,2.5-1.1,2.5-2.5c0-1.4-1.1-2.5-2.5-2.5c-1.4,0-2.5,1.1-2.5,2.5
	C399.4,246.3,400.5,247.4,401.9,247.4"/>
<polygon fill="#E6E6E6" points="418.9,192.9 417.7,192.9 417.7,170.1 402.3,154.7 402.3,86.2 386.8,70.7 386.8,14.9 388,14.9 
	388,70.2 403.5,85.7 403.5,154.2 418.9,169.6 "/>
<path fill="#E6E6E6" d="M387.4,17.4c1.4,0,2.5-1.1,2.5-2.5c0-1.4-1.1-2.5-2.5-2.5c-1.4,0-2.5,1.1-2.5,2.5
	C384.9,16.3,386,17.4,387.4,17.4"/>
<path fill="#E6E6E6" d="M418.3,195.4c1.4,0,2.5-1.1,2.5-2.5c0-1.4-1.1-2.5-2.5-2.5c-1.4,0-2.5,1.1-2.5,2.5
	C415.8,194.3,416.9,195.4,418.3,195.4"/>
<polygon fill="#E6E6E6" points="394.5,245.4 393.3,245.4 393.3,191.1 379.3,191.1 379.3,115.4 361.9,98.1 361.9,20.9 363.2,20.9 
	363.2,97.6 380.5,114.9 380.5,189.8 394.5,189.8 "/>
<path fill="#E6E6E6" d="M362.5,23.4c1.4,0,2.5-1.1,2.5-2.5c0-1.4-1.1-2.5-2.5-2.5c-1.4,0-2.5,1.1-2.5,2.5
	C360,22.3,361.2,23.4,362.5,23.4"/>
<path fill="#E6E6E6" d="M393.9,247.9c1.4,0,2.5-1.1,2.5-2.5c0-1.4-1.1-2.5-2.5-2.5c-1.4,0-2.5,1.1-2.5,2.5
	C391.4,246.8,392.5,247.9,393.9,247.9"/>
<polygon fill="#E6E6E6" points="413.5,148.9 412.3,148.9 412.3,33.2 395.8,16.7 395.8,1.9 397,1.9 397,16.2 413.5,32.7 "/>
<path fill="#E6E6E6" d="M396.4,4.4c1.4,0,2.5-1.1,2.5-2.5c0-1.4-1.1-2.5-2.5-2.5c-1.4,0-2.5,1.1-2.5,2.5
	C393.9,3.3,395,4.4,396.4,4.4"/>
<path fill="#E6E6E6" d="M412.9,151.4c1.4,0,2.5-1.1,2.5-2.5c0-1.4-1.1-2.5-2.5-2.5c-1.4,0-2.5,1.1-2.5,2.5
	C410.4,150.3,411.5,151.4,412.9,151.4"/>
<polygon fill="#E6E6E6" points="15.3,389.4 14,389.4 14,334.2 14.2,334 32.4,315.8 32.4,243.8 20,243.8 20,161.7 2,143.7 2,100.9 
	3.3,100.9 3.3,143.2 21.3,161.2 21.3,242.6 33.7,242.6 33.7,316.4 33.5,316.5 15.3,334.7 "/>
<path fill="#E6E6E6" d="M2.7,103.4c1.4,0,2.5-1.1,2.5-2.5c0-1.4-1.1-2.5-2.5-2.5s-2.5,1.1-2.5,2.5C0.2,102.3,1.3,103.4,2.7,103.4"/>
<path fill="#E6E6E6" d="M14.7,391.9c1.4,0,2.5-1.1,2.5-2.5s-1.1-2.5-2.5-2.5c-1.4,0-2.5,1.1-2.5,2.5S13.3,391.9,14.7,391.9"/>
<polygon fill="#E6E6E6" points="351.3,286.4 350.4,285.5 361.4,274.4 361.4,259.1 348.7,259.1 348.7,168.4 349.9,168.4 349.9,257.8 
	362.7,257.8 362.7,274.9 "/>
<path fill="#E6E6E6" d="M349.3,170.9c1.4,0,2.5-1.1,2.5-2.5c0-1.4-1.1-2.5-2.5-2.5c-1.4,0-2.5,1.1-2.5,2.5
	C346.8,169.8,347.9,170.9,349.3,170.9"/>
<path fill="#E6E6E6" d="M350.8,288.4c1.4,0,2.5-1.1,2.5-2.5c0-1.4-1.1-2.5-2.5-2.5c-1.4,0-2.5,1.1-2.5,2.5
	C348.3,287.3,349.4,288.4,350.8,288.4"/>
<polygon fill="#E6E6E6" points="40.7,213.9 39.4,213.9 39.4,153.8 23.3,137.7 23.3,70.9 24.5,70.9 24.5,137.2 40.7,153.3 "/>
<path fill="#E6E6E6" d="M23.9,73.4c1.4,0,2.5-1.1,2.5-2.5c0-1.4-1.1-2.5-2.5-2.5c-1.4,0-2.5,1.1-2.5,2.5
	C21.4,72.3,22.5,73.4,23.9,73.4"/>
<path fill="#E6E6E6" d="M40,216.4c1.4,0,2.5-1.1,2.5-2.5c0-1.4-1.1-2.5-2.5-2.5c-1.4,0-2.5,1.1-2.5,2.5
	C37.5,215.3,38.7,216.4,40,216.4"/>
<polygon fill="#E6E6E6" points="137.3,196.2 136,196.2 136,141.7 120,125.7 120,83.9 121.3,83.9 121.3,125.2 137.3,141.2 "/>
<path fill="#E6E6E6" d="M120.7,86.4c1.4,0,2.5-1.1,2.5-2.5c0-1.4-1.1-2.5-2.5-2.5c-1.4,0-2.5,1.1-2.5,2.5
	C118.2,85.3,119.3,86.4,120.7,86.4"/>
<path fill="#E6E6E6" d="M136.7,198.7c1.4,0,2.5-1.1,2.5-2.5c0-1.4-1.1-2.5-2.5-2.5c-1.4,0-2.5,1.1-2.5,2.5
	C134.2,197.6,135.3,198.7,136.7,198.7"/>
<polygon fill="#E6E6E6" points="113.3,390.4 112,390.4 112,290.4 112.2,290.2 128,274.4 128,199.3 112,199.3 112,130.7 113.3,130.7 
	113.3,198.1 129.3,198.1 129.3,274.9 129.1,275.1 113.3,290.9 "/>
<path fill="#E6E6E6" d="M112.7,133.2c1.4,0,2.5-1.1,2.5-2.5c0-1.4-1.1-2.5-2.5-2.5c-1.4,0-2.5,1.1-2.5,2.5
	C110.2,132.1,111.3,133.2,112.7,133.2"/>
<path fill="#E6E6E6" d="M112.7,392.9c1.4,0,2.5-1.1,2.5-2.5s-1.1-2.5-2.5-2.5c-1.4,0-2.5,1.1-2.5,2.5S111.3,392.9,112.7,392.9"/>
<polygon fill="#E6E6E6" points="103.3,367.4 102,367.4 102,288.2 102.2,288 120,270.2 120,206.1 102,206.1 102,142.6 103.3,142.6 
	103.3,204.8 121.3,204.8 121.3,270.7 121.1,270.9 103.3,288.7 "/>
<path fill="#E6E6E6" d="M102.7,145.1c1.4,0,2.5-1.1,2.5-2.5c0-1.4-1.1-2.5-2.5-2.5c-1.4,0-2.5,1.1-2.5,2.5
	C100.2,143.9,101.3,145.1,102.7,145.1"/>
<path fill="#E6E6E6" d="M102.7,369.9c1.4,0,2.5-1.1,2.5-2.5s-1.1-2.5-2.5-2.5c-1.4,0-2.5,1.1-2.5,2.5S101.3,369.9,102.7,369.9"/>
<polygon fill="#E6E6E6" points="92.3,317.9 91,317.9 91,284.7 91.2,284.5 111.5,264.2 111.5,214.6 91,214.6 91,160.3 92.3,160.3 
	92.3,213.3 112.8,213.3 112.8,264.7 112.6,264.9 92.3,285.2 "/>
<path fill="#E6E6E6" d="M91.7,162.8c1.4,0,2.5-1.1,2.5-2.5c0-1.4-1.1-2.5-2.5-2.5c-1.4,0-2.5,1.1-2.5,2.5
	C89.2,161.7,90.3,162.8,91.7,162.8"/>
<path fill="#E6E6E6" d="M91.7,320.4c1.4,0,2.5-1.1,2.5-2.5c0-1.4-1.1-2.5-2.5-2.5c-1.4,0-2.5,1.1-2.5,2.5
	C89.2,319.3,90.3,320.4,91.7,320.4"/>
<polygon fill="#E6E6E6" points="72.3,303.9 71,303.9 71,277.7 59,265.7 59,212.4 59.2,212.2 76,195.4 76,171.4 77.3,171.4 
	77.3,195.9 77.1,196.1 60.3,212.9 60.3,265.2 72.3,277.2 "/>
<path fill="#E6E6E6" d="M76.7,173.9c1.4,0,2.5-1.1,2.5-2.5c0-1.4-1.1-2.5-2.5-2.5c-1.4,0-2.5,1.1-2.5,2.5
	C74.2,172.8,75.3,173.9,76.7,173.9"/>
<path fill="#E6E6E6" d="M71.7,306.4c1.4,0,2.5-1.1,2.5-2.5c0-1.4-1.1-2.5-2.5-2.5c-1.4,0-2.5,1.1-2.5,2.5
	C69.2,305.3,70.3,306.4,71.7,306.4"/>
<polygon fill="#E6E6E6" points="147.5,215.9 146.3,215.9 146.3,140.3 128.7,122.7 128.7,67.9 129.9,67.9 129.9,122.2 147.5,139.8 
	"/>
<path fill="#E6E6E6" d="M129.3,70.4c1.4,0,2.5-1.1,2.5-2.5c0-1.4-1.1-2.5-2.5-2.5c-1.4,0-2.5,1.1-2.5,2.5
	C126.8,69.3,127.9,70.4,129.3,70.4"/>
<path fill="#E6E6E6" d="M146.9,218.4c1.4,0,2.5-1.1,2.5-2.5c0-1.4-1.1-2.5-2.5-2.5c-1.4,0-2.5,1.1-2.5,2.5
	C144.4,217.3,145.5,218.4,146.9,218.4"/>
<polygon fill="#E6E6E6" points="166.2,209.1 154,209.1 154,155.9 155.3,155.9 155.3,207.8 166.2,207.8 "/>
<path fill="#E6E6E6" d="M154.7,158.4c1.4,0,2.5-1.1,2.5-2.5c0-1.4-1.1-2.5-2.5-2.5c-1.4,0-2.5,1.1-2.5,2.5
	C152.2,157.3,153.3,158.4,154.7,158.4"/>
<path fill="#E6E6E6" d="M166.2,210.9c1.4,0,2.5-1.1,2.5-2.5c0-1.4-1.1-2.5-2.5-2.5c-1.4,0-2.5,1.1-2.5,2.5
	C163.7,209.8,164.8,210.9,166.2,210.9"/>
<polygon fill="#E6E6E6" points="179.2,200.3 161.8,200.3 161.8,136.9 163,136.9 163,199.1 179.2,199.1 "/>
<path fill="#E6E6E6" d="M162.4,139.4c1.4,0,2.5-1.1,2.5-2.5c0-1.4-1.1-2.5-2.5-2.5c-1.4,0-2.5,1.1-2.5,2.5
	C159.9,138.3,161,139.4,162.4,139.4"/>
<path fill="#E6E6E6" d="M179.2,202.2c1.4,0,2.5-1.1,2.5-2.5c0-1.4-1.1-2.5-2.5-2.5c-1.4,0-2.5,1.1-2.5,2.5
	C176.7,201.1,177.8,202.2,179.2,202.2"/>
<polygon fill="#E6E6E6" points="133.1,404.9 131.9,404.9 131.9,373.8 132.1,373.7 146,359.7 146,225.8 188,225.8 188,153.9 
	189.3,153.9 189.3,227.1 147.3,227.1 147.3,360.2 147.1,360.4 133.1,374.4 "/>
<path fill="#E6E6E6" d="M188.7,156.4c1.4,0,2.5-1.1,2.5-2.5c0-1.4-1.1-2.5-2.5-2.5c-1.4,0-2.5,1.1-2.5,2.5
	C186.2,155.3,187.3,156.4,188.7,156.4"/>
<path fill="#E6E6E6" d="M132.5,407.4c1.4,0,2.5-1.1,2.5-2.5s-1.1-2.5-2.5-2.5c-1.4,0-2.5,1.1-2.5,2.5S131.1,407.4,132.5,407.4"/>
<polygon fill="#E6E6E6" points="173.2,371.6 172,371.6 172,352.8 153.8,334.6 153.8,232.8 195.9,232.8 195.9,170.8 197.2,170.8 
	197.2,234.1 155,234.1 155,334.1 173.2,352.3 "/>
<path fill="#E6E6E6" d="M196.5,173.3c1.4,0,2.5-1.1,2.5-2.5c0-1.4-1.1-2.5-2.5-2.5c-1.4,0-2.5,1.1-2.5,2.5
	C194,172.2,195.2,173.3,196.5,173.3"/>
<path fill="#E6E6E6" d="M172.6,374.1c1.4,0,2.5-1.1,2.5-2.5s-1.1-2.5-2.5-2.5c-1.4,0-2.5,1.1-2.5,2.5S171.2,374.1,172.6,374.1"/>
<polygon fill="#E6E6E6" points="203.1,395.4 201.9,395.4 201.9,350.3 202,350.1 218,334.1 218,279.6 203,279.6 203,179.9 
	204.3,179.9 204.3,278.3 219.3,278.3 219.3,334.6 219.1,334.8 203.1,350.8 "/>
<path fill="#E6E6E6" d="M203.7,182.4c1.4,0,2.5-1.1,2.5-2.5c0-1.4-1.1-2.5-2.5-2.5c-1.4,0-2.5,1.1-2.5,2.5
	C201.2,181.3,202.3,182.4,203.7,182.4"/>
<path fill="#E6E6E6" d="M202.5,397.9c1.4,0,2.5-1.1,2.5-2.5s-1.1-2.5-2.5-2.5c-1.4,0-2.5,1.1-2.5,2.5S201.1,397.9,202.5,397.9"/>
<polygon fill="#E6E6E6" points="307.4,492 290.3,492 290.1,491.8 215,416.7 215,354.7 215.2,354.5 233,336.7 233,266.1 220,266.1 
	220,140.7 203,123.7 203,82.9 204.3,82.9 204.3,123.2 221.3,140.2 221.3,264.8 234.3,264.8 234.3,337.2 234.1,337.4 216.3,355.2 
	216.3,416.2 290.8,490.7 307.4,490.7 "/>
<path fill="#E6E6E6" d="M203.7,85.4c1.4,0,2.5-1.1,2.5-2.5c0-1.4-1.1-2.5-2.5-2.5c-1.4,0-2.5,1.1-2.5,2.5
	C201.2,84.3,202.3,85.4,203.7,85.4"/>
<polygon fill="#E6E6E6" points="248.3,242.7 247,242.7 247,139.7 226,118.7 226,56.9 227.3,56.9 227.3,118.2 248.3,139.2 "/>
<path fill="#E6E6E6" d="M226.7,59.4c1.4,0,2.5-1.1,2.5-2.5c0-1.4-1.1-2.5-2.5-2.5c-1.4,0-2.5,1.1-2.5,2.5
	C224.2,58.3,225.3,59.4,226.7,59.4"/>
<path fill="#E6E6E6" d="M247.7,245.2c1.4,0,2.5-1.1,2.5-2.5c0-1.4-1.1-2.5-2.5-2.5c-1.4,0-2.5,1.1-2.5,2.5
	C245.2,244.1,246.3,245.2,247.7,245.2"/>
<polygon fill="#E6E6E6" points="264.4,250.4 263.2,250.4 263.2,191.8 254,182.7 254,148.9 255.3,148.9 255.3,182.2 264.4,191.3 "/>
<path fill="#E6E6E6" d="M254.7,151.4c1.4,0,2.5-1.1,2.5-2.5c0-1.4-1.1-2.5-2.5-2.5c-1.4,0-2.5,1.1-2.5,2.5
	C252.2,150.3,253.3,151.4,254.7,151.4"/>
<path fill="#E6E6E6" d="M263.8,252.9c1.4,0,2.5-1.1,2.5-2.5c0-1.4-1.1-2.5-2.5-2.5c-1.4,0-2.5,1.1-2.5,2.5
	C261.3,251.8,262.4,252.9,263.8,252.9"/>
<polygon fill="#E6E6E6" points="292.3,314.6 272,314.6 272,273.1 283.3,273.1 283.3,297.4 282,297.4 282,274.3 273.3,274.3 
	273.3,313.3 291,313.3 291,260.2 272,260.2 272,153.8 286.2,153.8 286.2,155.1 273.3,155.1 273.3,259 292.3,259 "/>
<path fill="#E6E6E6" d="M282.7,299.9c1.4,0,2.5-1.1,2.5-2.5c0-1.4-1.1-2.5-2.5-2.5c-1.4,0-2.5,1.1-2.5,2.5
	C280.2,298.8,281.3,299.9,282.7,299.9"/>
<path fill="#E6E6E6" d="M286.2,156.9c1.4,0,2.5-1.1,2.5-2.5c0-1.4-1.1-2.5-2.5-2.5c-1.4,0-2.5,1.1-2.5,2.5
	C283.7,155.8,284.8,156.9,286.2,156.9"/>
<polygon fill="#E6E6E6" points="307.3,276.2 306,276.2 306,239.6 291.5,239.6 291.5,167.9 292.8,167.9 292.8,238.3 307.3,238.3 "/>
<path fill="#E6E6E6" d="M292.2,170.4c1.4,0,2.5-1.1,2.5-2.5c0-1.4-1.1-2.5-2.5-2.5c-1.4,0-2.5,1.1-2.5,2.5
	C289.7,169.3,290.8,170.4,292.2,170.4"/>
<path fill="#E6E6E6" d="M306.7,278.7c1.4,0,2.5-1.1,2.5-2.5c0-1.4-1.1-2.5-2.5-2.5c-1.4,0-2.5,1.1-2.5,2.5
	C304.2,277.6,305.3,278.7,306.7,278.7"/>
<polygon fill="#E6E6E6" points="315.3,264.9 314,264.9 314,232.6 298.7,232.6 298.7,180.9 299.9,180.9 299.9,231.3 315.3,231.3 "/>
<path fill="#E6E6E6" d="M299.3,183.4c1.4,0,2.5-1.1,2.5-2.5c0-1.4-1.1-2.5-2.5-2.5c-1.4,0-2.5,1.1-2.5,2.5
	C296.8,182.3,297.9,183.4,299.3,183.4"/>
<path fill="#E6E6E6" d="M314.7,267.4c1.4,0,2.5-1.1,2.5-2.5c0-1.4-1.1-2.5-2.5-2.5c-1.4,0-2.5,1.1-2.5,2.5
	C312.2,266.3,313.3,267.4,314.7,267.4"/>
<polygon fill="#E6E6E6" points="324.2,333.1 313.3,333.1 313.3,297.7 313.5,297.5 330,281 330,216.6 313.3,216.6 313.3,102.8 
	326.2,102.8 326.2,104.1 314.6,104.1 314.6,215.3 331.3,215.3 331.3,281.5 331.1,281.7 314.6,298.2 314.6,331.8 324.2,331.8 "/>
<path fill="#E6E6E6" d="M324.2,334.9c1.4,0,2.5-1.1,2.5-2.5c0-1.4-1.1-2.5-2.5-2.5c-1.4,0-2.5,1.1-2.5,2.5
	C321.7,333.8,322.8,334.9,324.2,334.9"/>
<path fill="#E6E6E6" d="M326.2,105.9c1.4,0,2.5-1.1,2.5-2.5c0-1.4-1.1-2.5-2.5-2.5c-1.4,0-2.5,1.1-2.5,2.5
	C323.7,104.8,324.8,105.9,326.2,105.9"/>
<polygon fill="#E6E6E6" points="335.2,322.8 320,322.8 320,303.2 320.2,303 340,283.2 340,208.1 320,208.1 320,149.7 335.2,149.7 
	335.2,150.9 321.3,150.9 321.3,206.8 341.3,206.8 341.3,283.7 341.1,283.9 321.3,303.7 321.3,321.6 335.2,321.6 "/>
<path fill="#E6E6E6" d="M335.2,152.8c1.4,0,2.5-1.1,2.5-2.5c0-1.4-1.1-2.5-2.5-2.5c-1.4,0-2.5,1.1-2.5,2.5
	C332.7,151.7,333.8,152.8,335.2,152.8"/>
<path fill="#E6E6E6" d="M335.2,324.7c1.4,0,2.5-1.1,2.5-2.5c0-1.4-1.1-2.5-2.5-2.5c-1.4,0-2.5,1.1-2.5,2.5
	C332.7,323.6,333.8,324.7,335.2,324.7"/>
<rect x="66" y="125.9" fill="#E6E6E6" width="1.2" height="57"/>
<path fill="#E6E6E6" d="M66.7,128.4c1.4,0,2.5-1.1,2.5-2.5c0-1.4-1.1-2.5-2.5-2.5c-1.4,0-2.5,1.1-2.5,2.5
	C64.2,127.3,65.3,128.4,66.7,128.4"/>
<path fill="#E6E6E6" d="M66.7,185.4c1.4,0,2.5-1.1,2.5-2.5c0-1.4-1.1-2.5-2.5-2.5c-1.4,0-2.5,1.1-2.5,2.5
	C64.2,184.3,65.3,185.4,66.7,185.4"/>
<polygon fill="#E6E6E6" points="50.3,253.9 49,253.9 49,202.4 56,195.4 56,141.6 57.3,141.6 57.3,195.9 50.3,202.9 "/>
<path fill="#E6E6E6" d="M56.7,144.1c1.4,0,2.5-1.1,2.5-2.5c0-1.4-1.1-2.5-2.5-2.5c-1.4,0-2.5,1.1-2.5,2.5
	C54.2,142.9,55.3,144.1,56.7,144.1"/>
<path fill="#E6E6E6" d="M49.7,256.4c1.4,0,2.5-1.1,2.5-2.5c0-1.4-1.1-2.5-2.5-2.5c-1.4,0-2.5,1.1-2.5,2.5
	C47.2,255.3,48.3,256.4,49.7,256.4"/>
<polygon fill="#E6E6E6" points="97.5,242.3 75,242.3 75,209.7 84.3,200.4 84.3,121.9 85.5,121.9 85.5,200.9 76.3,210.2 76.3,241.1 
	97.5,241.1 "/>
<path fill="#E6E6E6" d="M97.5,244.2c1.4,0,2.5-1.1,2.5-2.5c0-1.4-1.1-2.5-2.5-2.5c-1.4,0-2.5,1.1-2.5,2.5
	C95,243.1,96.1,244.2,97.5,244.2"/>
<path fill="#E6E6E6" d="M84.9,124.4c1.4,0,2.5-1.1,2.5-2.5c0-1.4-1.1-2.5-2.5-2.5c-1.4,0-2.5,1.1-2.5,2.5
	C82.4,123.3,83.5,124.4,84.9,124.4"/>
<polyline fill="none" stroke="#CCCCCC" stroke-miterlimit="10" points="247,588.5 257,588.5 308.2,537.3 "/>
</svg>
