<?xml version="1.0" encoding="iso-8859-1"?>
<!-- Generator: Adobe Illustrator 18.1.0, SVG Export Plug-In . SVG Version: 6.00 Build 0)  -->
<!DOCTYPE svg PUBLIC "-//W3C//DTD SVG 1.1//EN" "http://www.w3.org/Graphics/SVG/1.1/DTD/svg11.dtd">
<svg version="1.1" xmlns="http://www.w3.org/2000/svg" xmlns:xlink="http://www.w3.org/1999/xlink" x="0px" y="0px"
	 viewBox="0 0 188.393 190.602" style="enable-background:new 0 0 188.393 190.602;" xml:space="preserve">
<g id="circle_x5F_universities">
	<g>
		<g>
			<g>
				<g style="opacity:0.15;">
					<g>
						<path d="M94.196,188.393c52.023,0,94.196-42.173,94.196-94.197C188.393,42.173,146.22,0,94.196,0S0,42.173,0,94.196
							C0,146.221,42.173,188.393,94.196,188.393"/>
					</g>
				</g>
			</g>
		</g>
		<g>
			<g>
				<g style="opacity:0.1;">
					<g>
						<path style="fill:#231F20;" d="M136.07,10.05c-9.352-3.123-19.359-4.814-29.761-4.814c-51.869,0-93.917,42.052-93.917,93.928
							c0,36.479,20.796,68.103,51.177,83.659l-0.219-0.05C26.487,170.089,0,135.104,0,93.932C0,42.058,42.048,0.006,93.917,0.006
							c15.17,0,29.501,3.597,42.184,9.985L136.07,10.05z"/>
						<path style="fill:none;" d="M136.07,10.05c-9.352-3.123-19.359-4.814-29.761-4.814c-51.869,0-93.917,42.052-93.917,93.928
							c0,36.479,20.796,68.103,51.177,83.659l-0.219-0.05C26.487,170.089,0,135.104,0,93.932C0,42.058,42.048,0.006,93.917,0.006
							c15.17,0,29.501,3.597,42.184,9.985L136.07,10.05z"/>
					</g>
				</g>
			</g>
		</g>
	</g>
	<g>
		<defs>
			<path id="SVGID_1_" d="M42.861,16.468c-10.111,6.738-18.838,15.39-25.66,25.439v105.006
				c16.834,24.798,45.259,41.089,77.489,41.089c32.501,0,61.133-16.568,77.912-41.718V42.537
				c-6.882-10.317-15.763-19.192-26.084-26.069H42.861z"/>
		</defs>
		<clipPath id="SVGID_2_">
			<use xlink:href="#SVGID_1_"  style="overflow:visible;"/>
		</clipPath>
		<path style="clip-path:url(#SVGID_2_);fill-rule:evenodd;clip-rule:evenodd;" d="M172.602,190.602H17.201v-6.909h5.104v-44.121
			h39.292v44.121h4.285v-48.407h-3.563v-5.391l32.583-24.636l32.583,24.636v5.391h-3.562v48.407h4.284v-44.121h39.292v44.121h5.103
			V190.602z M93.538,42.2l-19.557,9.061v6.651h3.22v45.045h-3.288V91.099H18.058v44.187h39.977v-7.438l36.867-28.095l36.868,28.095
			v7.438h39.976V91.099H115.89v11.858h-3.287V57.912h3.22v-6.651l-19.558-9.062v-7.414c2.823-2.089,7.755-2.103,11.095-0.286
			c7.915,4.3,14.813-3.607,20.81-8.308c-17.251,1.259-16.391-9.722-31.905-5.528v-2.298h-2.727V42.2z M81.382,57.912h27.04v23.085
			h-27.04V57.912z M79.662,183.693h13.19v-26.639h-13.19V183.693z M96.951,183.693h13.19v-26.639h-13.19V183.693z M150.376,175.377
			h11.144v-12.189h-11.144V175.377z M134.184,175.377h11.145v-12.189h-11.145V175.377z M150.376,157.237h11.144v-12.188h-11.144
			V157.237z M134.184,157.237h11.145v-12.188h-11.145V157.237z M44.475,175.377H55.62v-12.189H44.475V175.377z M28.284,175.377
			h11.144v-12.189H28.284V175.377z M44.475,157.237H55.62v-12.188H44.475V157.237z M28.284,157.237h11.144v-12.188H28.284V157.237z
			 M97.923,59.749c5.96,1.953,2.385,6.582,4.659,10.865c1.322,2.491,2.433,2.295,2.433,3.064v1.777c0,0.494-0.404,0.899-0.9,0.898
			h-9.214h-9.214c-0.495,0.001-0.899-0.404-0.899-0.898v-1.777c0-0.769,1.11-0.573,2.433-3.064
			c2.273-4.283-1.301-8.912,4.659-10.865C93.894,59.102,95.909,59.128,97.923,59.749 M93.502,77.494
			c-0.356,1.367-1.598,2.376-3.077,2.376c-1.478,0-2.721-1.009-3.078-2.376H93.502z M94.371,136.159
			c0.109,0.046,0.426,0.073,0.551,0.073h8.778c0.521,0,0.942-0.422,0.942-0.942c0-0.522-0.421-0.943-0.942-0.943h-7.326v-5.951
			c0-0.694-0.761-1.254-1.452-1.254c-0.693,0-1.452,0.56-1.452,1.254v6.56C93.47,135.527,93.851,136.007,94.371,136.159
			 M94.902,124.351c-5.867,0-10.624,4.758-10.624,10.624c0,5.867,4.757,10.625,10.624,10.625c5.866,0,10.624-4.758,10.624-10.625
			C105.526,129.109,100.768,124.351,94.902,124.351"/>
	</g>
</g>
<g id="Layer_1">
</g>
</svg>
