<?xml version="1.0" encoding="iso-8859-1"?>
<!-- Generator: Adobe Illustrator 18.1.0, SVG Export Plug-In . SVG Version: 6.00 Build 0)  -->
<!DOCTYPE svg PUBLIC "-//W3C//DTD SVG 1.1//EN" "http://www.w3.org/Graphics/SVG/1.1/DTD/svg11.dtd">
<svg version="1.1" xmlns="http://www.w3.org/2000/svg" xmlns:xlink="http://www.w3.org/1999/xlink" x="0px" y="0px"
	 viewBox="0 0 188.393 189.54" style="enable-background:new 0 0 188.393 189.54;" xml:space="preserve">
<g id="circle_x5F_business">
	<g>
		<defs>
			<circle id="SVGID_1_" cx="94.197" cy="94.197" r="93.591"/>
		</defs>
		<clipPath id="SVGID_2_">
			<use xlink:href="#SVGID_1_"  style="overflow:visible;"/>
		</clipPath>
		<g style="clip-path:url(#SVGID_2_);">
			<path d="M62.748,165.126l8.348,0.661v10.701l-8.348-0.363V165.126z M62.748,147.348l8.348,1.141v10.7l-8.348-0.844V147.348z
				 M62.748,129.568l8.348,1.624v10.699l-8.348-1.325V129.568z M62.748,111.788l8.348,2.105v10.701l-8.348-1.808V111.788z
				 M62.748,94.01l8.348,2.585v10.7l-8.348-2.288V94.01z M62.748,76.23l8.348,3.067v10.699l-8.348-2.768V76.23z M62.748,58.45
				l8.348,3.549v10.7l-8.348-3.251V58.45z M62.748,40.671l8.348,4.03v10.7l-8.348-3.732V40.671z M75.779,166.158l8.347,0.661v10.235
				l-8.347-0.363V166.158z M75.779,149.13l8.347,1.142v10.235l-8.347-0.844V149.13z M75.779,132.102l8.347,1.624v10.235
				l-8.347-1.326V132.102z M75.779,115.074l8.347,2.105v10.235l-8.347-1.807V115.074z M75.779,98.046l8.347,2.586v10.235
				l-8.347-2.288V98.046z M75.779,81.018l8.347,3.066V94.32l-8.347-2.769V81.018z M75.779,63.989l8.347,3.549v10.235l-8.347-3.25
				V63.989z M75.779,46.962l8.347,4.029v10.236l-8.347-3.733V46.962z M88.81,167.19l8.347,0.66v9.771l-8.347-0.363V167.19z
				 M88.81,150.913l8.347,1.142v9.77l-8.347-0.843V150.913z M88.81,134.636l8.347,1.624v9.771l-8.347-1.326V134.636z M88.81,118.359
				l8.347,2.105v9.771l-8.347-1.807V118.359z M88.81,102.083l8.347,2.585v9.771l-8.347-2.288V102.083z M88.81,85.806l8.347,3.067
				v9.77l-8.347-2.768V85.806z M88.81,69.529l8.347,3.549v9.769l-8.347-3.25V69.529z M88.81,53.252l8.347,4.03v9.77L88.81,63.32
				V53.252z M27.033,51.531v138.008h75.318V52.658L57.554,29.844L27.033,51.531z"/>
			<path d="M128.703,141.246l-16.694,4.033v-5.7l16.694-4.553V141.246z M128.703,153.319l-16.694,3.025v-5.7l16.694-3.545V153.319z
				 M128.703,165.393l-16.694,2.016v-5.7l16.694-2.536V165.393z M128.703,177.466l-16.694,1.009v-5.7l16.694-1.529V177.466z
				 M132.471,125.351l-26.642,8.397v55.791h53.075v-49.058L132.471,125.351z"/>
			<polygon points="153.948,51.198 125.967,68.102 125.967,123.739 132.876,121.562 162.382,138.451 162.382,189.54 174.068,189.54 
				174.068,69.671 			"/>
		</g>
	</g>
	<g>
		<g>
			<g>
				<g style="opacity:0.15;">
					<g>
						<path d="M94.196,188.394c52.023,0,94.196-42.173,94.196-94.197C188.393,42.173,146.22,0,94.196,0S0,42.173,0,94.196
							C0,146.221,42.173,188.394,94.196,188.394"/>
					</g>
				</g>
			</g>
		</g>
		<g>
			<g>
				<g style="opacity:0.1;">
					<g>
						<path style="fill:#231F20;" d="M136.07,10.05c-9.352-3.123-19.359-4.814-29.761-4.814c-51.869,0-93.917,42.052-93.917,93.928
							c0,36.479,20.796,68.103,51.177,83.659l-0.219-0.05C26.487,170.089,0,135.104,0,93.932C0,42.058,42.048,0.006,93.917,0.006
							c15.17,0,29.501,3.597,42.184,9.985L136.07,10.05z"/>
						<path style="fill:none;" d="M136.07,10.05c-9.352-3.123-19.359-4.814-29.761-4.814c-51.869,0-93.917,42.052-93.917,93.928
							c0,36.479,20.796,68.103,51.177,83.659l-0.219-0.05C26.487,170.089,0,135.104,0,93.932C0,42.058,42.048,0.006,93.917,0.006
							c15.17,0,29.501,3.597,42.184,9.985L136.07,10.05z"/>
					</g>
				</g>
			</g>
		</g>
	</g>
</g>
<g id="Layer_1">
</g>
</svg>
