<?xml version="1.0" encoding="iso-8859-1"?>
<!-- Generator: Adobe Illustrator 18.1.0, SVG Export Plug-In . SVG Version: 6.00 Build 0)  -->
<!DOCTYPE svg PUBLIC "-//W3C//DTD SVG 1.1//EN" "http://www.w3.org/Graphics/SVG/1.1/DTD/svg11.dtd">
<svg version="1.1" xmlns="http://www.w3.org/2000/svg" xmlns:xlink="http://www.w3.org/1999/xlink" x="0px" y="0px"
	 viewBox="0 0 196.77 187.559" style="enable-background:new 0 0 196.77 187.559;" xml:space="preserve">
<g id="circle_x5F_healthcare">
	<g>
		<g>
			<g>
				<g style="opacity:0.15;">
					<g>
						<path d="M93.779,187.559c51.793,0,93.779-41.986,93.779-93.78C187.558,41.986,145.571,0,93.779,0S0,41.986,0,93.779
							C0,145.572,41.986,187.559,93.779,187.559"/>
					</g>
				</g>
			</g>
		</g>
		<g>
			<g>
				<g style="opacity:0.1;">
					<g>
						<path style="fill:#231F20;" d="M135.467,10.006c-9.311-3.109-19.274-4.793-29.629-4.793
							c-51.639,0-93.501,41.866-93.501,93.511c0,36.318,20.703,67.801,50.95,83.288l-0.218-0.05C26.37,169.335,0,134.505,0,93.516
							c0-51.644,41.862-93.51,93.501-93.51c15.103,0,29.37,3.581,41.997,9.941L135.467,10.006z"/>
						<path style="fill:none;" d="M135.467,10.006c-9.311-3.109-19.274-4.793-29.629-4.793c-51.639,0-93.501,41.866-93.501,93.511
							c0,36.318,20.703,67.801,50.95,83.288l-0.218-0.05C26.37,169.335,0,134.505,0,93.516c0-51.644,41.862-93.51,93.501-93.51
							c15.103,0,29.37,3.581,41.997,9.941L135.467,10.006z"/>
					</g>
				</g>
			</g>
		</g>
	</g>
	<g>
		<defs>
			<rect id="SVGID_1_" x="98.99" y="22.317" width="88.779" height="159.695"/>
		</defs>
		<clipPath id="SVGID_2_">
			<use xlink:href="#SVGID_1_"  style="overflow:visible;"/>
		</clipPath>
		<g style="clip-path:url(#SVGID_2_);">
			<defs>
				<rect id="SVGID_3_" x="98.99" y="22.317" width="88.779" height="159.695"/>
			</defs>
			<clipPath id="SVGID_4_">
				<use xlink:href="#SVGID_3_"  style="overflow:visible;"/>
			</clipPath>
			<g style="opacity:0.1;clip-path:url(#SVGID_4_);">
				<g>
					<defs>
						<rect id="SVGID_5_" x="89.99" y="15.317" width="106.779" height="167.695"/>
					</defs>
					<clipPath id="SVGID_6_">
						<use xlink:href="#SVGID_5_"  style="overflow:visible;"/>
					</clipPath>
					<path style="clip-path:url(#SVGID_6_);fill:#231F20;" d="M123.791,126.987l-23.76,54l66.575-28.08
						c32.785-42.12,16.656-87.632,16.656-87.632l-79.991-41.968l8.64,48.6l-4.32,34.512l8.64,5.448L123.791,126.987z"/>
					<path style="clip-path:url(#SVGID_6_);fill:none;stroke:#000000;stroke-width:1.08;" d="M123.791,126.987l-23.76,54
						l66.575-28.08c32.785-42.12,16.656-87.632,16.656-87.632l-79.991-41.968l8.64,48.6l-4.32,34.512l8.64,5.448L123.791,126.987z"
						/>
				</g>
			</g>
		</g>
	</g>
	<g>
		<path d="M69.457,75.269c1.237,3.426,3.078,2.218,3.078,2.218c1.191,6.205,3.469,11.017,4.569,13.093l-1.196,14.529
			c0.074,0.689,0.286,1.562,0.823,2.179l14.567,9.781c-3.364,2.651-4.661,5.073-4.661,5.073c2.659,3.734,4.005,8.574,4.005,8.574
			v3.359c0,0-1.671,4.534-2.634,7.376l-0.612,16.25c0,0,3.914,8.344,6.451,15.685c2.537-7.341,6.451-15.685,6.451-15.685
			l-0.612-16.25c-0.964-2.842-2.634-7.376-2.634-7.376v-3.359c0,0,1.346-4.84,4.005-8.574c0,0-1.297-2.422-4.661-5.073l14.495-9.781
			c0.538-0.617,0.749-1.49,0.823-2.179l-1.195-14.529c1.099-2.075,3.374-6.883,4.566-13.083c0.173,0.12,1.823,1.157,2.994-2.086
			c1.236-3.426,4.411-16.323,0.206-14.674l0.961-10.517l0.523-5.724c0,0,0.123-3.301-1.096-6.576
			c-0.514-1.38-1.134-2.372-1.694-2.872c-1.343-1.2-2.119-0.452-2.226-1.805c-0.143-1.811-1.447-3.081-3.751-4.907
			c-2.54-2.012-7.125-5.395-16.714-5.413c-0.707-0.031-2.873-0.004-4.089-0.053c-1.77-0.07-4.542-1.285-4.984-1.904
			c-0.294-0.412,0.481,1.746,1.839,2.768c0.994,0.75,1.399,0.701,1.031,0.723c-0.107,0.007-0.894-0.026-1.184-0.059
			c-1.768-0.205-3.597-1.022-3.756-1.091c-0.211-0.091,0.619,0.573,1.327,1.045c0.619,0.412,1.41,0.486,0.954,0.568
			c-13.014,2.359-10.865,8.937-13.262,10.694c-4.408,3.231-4.328,8.882-4.328,8.882l1.484,16.241
			C65.116,59.088,68.22,71.843,69.457,75.269"/>
		<path d="M47.759,165.282c-3.886,0-7.037-3.281-7.037-7.33c0-3.594,2.484-6.584,5.761-7.209c-0.023,0.238-0.057,0.615-0.072,0.917
			c-2.77,0.641-4.841,3.215-4.841,6.292c0,3.561,2.771,6.447,6.189,6.447s6.188-2.886,6.188-6.447c0-3.034-2.013-5.579-4.724-6.264
			c0.02-0.27,0.051-0.62,0.076-0.889c3.146,0.732,5.497,3.657,5.497,7.153C54.796,162.001,51.645,165.282,47.759,165.282
			 M159.567,126.272c-3.071-7.527-9.586-7.576-9.586-7.576c-0.454,0-11.639-3.561-19.898-6.211c1.809,1.559,4.179,4.221,5.5,8.218
			h2.302c3.081,0,5.578,2.601,5.578,5.811v0.117v4.021h-0.096c0,0,1.282,20.127-2.296,28.776c0,0-1.134,3.182-3.865,4.98
			c0.716-0.11,1.487-0.335,2.316-0.704c-0.046-0.191-0.149-0.815,0.406-1.109l2.226-1.089c0,0,0.94-0.469,1.304,0.286l0.297,0.932
			l0.347,0.913c0.185,0.822-0.825,1.091-0.825,1.091l-2.377,0.654c-0.62,0.149-0.926-0.427-1-0.591
			c-2.033,0.84-3.76,0.966-5.21,0.673c-1.45,0.293-3.177,0.167-5.21-0.673c-0.073,0.164-0.38,0.74-1,0.591l-2.377-0.654
			c0,0-1.01-0.269-0.824-1.091l0.346-0.913l0.297-0.932c0.365-0.755,1.305-0.286,1.305-0.286l2.225,1.089
			c0.555,0.294,0.452,0.918,0.406,1.109c0.829,0.369,1.6,0.594,2.316,0.704c-2.73-1.798-3.865-4.98-3.865-4.98
			c-3.578-8.649-2.296-28.776-2.296-28.776h-0.096v-4.021v-0.117c0-3.21,2.497-5.811,5.578-5.811h1.943
			c-2.043-5.367-6.466-8.719-7.834-9.657c-2.577-0.83-4.282-1.381-4.282-1.381s-5.184-4.281-7.057-4.815
			c0.122,0.241,5.609,11.076,8.675,23.639c0,0-7.138,1.565-12.871,4.142c0,0,5.336,2.368,9.366,6.738
			c0.291-0.207-19.505,14.1-25.657,39.133h-0.013c-6.203-25.24-25.657-39.133-25.657-39.133c4.031-4.37,9.367-6.738,9.367-6.738
			c-5.733-2.577-12.871-4.142-12.871-4.142c3.1-12.705,8.677-23.643,8.677-23.643c-1.861,0.515-7.073,4.819-7.073,4.819
			c-17.224,17.654-17.429,42.396-17.38,45.604c1.011,0.437,1.721,1.475,1.72,2.686c-0.001,1.6-1.301,2.929-2.836,2.902
			c-1.519-0.026-2.742-1.316-2.742-2.905c0-1.132,0.622-2.113,1.529-2.592c0.013-4.504,0.844-27.31,15.8-44.434
			c-7.712,2.483-24.196,7.77-24.749,7.77c0,0-6.516,0.049-9.587,7.576c0,0-4.328,12.707-6.892,26.243
			c18.105,20.342,43.981,34.903,72.711,34.903c28.727,0,54.599-13.486,72.704-33.823
			C163.899,140.218,159.567,126.272,159.567,126.272"/>
		<path d="M142.001,126.689c0-2.458-1.913-4.45-4.272-4.45h-6.077c-2.36,0-4.272,1.992-4.272,4.45v0.582v3.38h-0.174
			c-0.171,3.291-0.889,20.373,2.137,28.263c0,0,1.545,4.427,5.347,5.39c3.803-0.963,5.348-5.39,5.348-5.39
			c3.026-7.89,2.308-24.972,2.137-28.263h-0.174v-3.38V126.689z"/>
	</g>
</g>
<g id="Layer_1">
</g>
</svg>
