<?xml version="1.0" encoding="iso-8859-1"?>
<!-- Generator: Adobe Illustrator 18.1.0, SVG Export Plug-In . SVG Version: 6.00 Build 0)  -->
<!DOCTYPE svg PUBLIC "-//W3C//DTD SVG 1.1//EN" "http://www.w3.org/Graphics/SVG/1.1/DTD/svg11.dtd">
<svg version="1.1" xmlns="http://www.w3.org/2000/svg" xmlns:xlink="http://www.w3.org/1999/xlink" x="0px" y="0px"
	 viewBox="0 0 188.393 188.394" style="enable-background:new 0 0 188.393 188.394;" xml:space="preserve">
<g id="circle_x5F_universities">
	<g>
		<g>
			<g>
				<g style="opacity:0.15;">
					<g>
						<path d="M94.196,188.394c52.023,0,94.196-42.173,94.196-94.197C188.393,42.173,146.22,0,94.196,0S0,42.173,0,94.196
							C0,146.221,42.173,188.394,94.196,188.394"/>
					</g>
				</g>
			</g>
		</g>
		<g>
			<g>
				<g style="opacity:0.1;">
					<g>
						<path style="fill:#231F20;" d="M136.07,10.05c-9.352-3.123-19.359-4.814-29.761-4.814c-51.869,0-93.917,42.052-93.917,93.928
							c0,36.479,20.796,68.103,51.177,83.659l-0.219-0.05C26.487,170.089,0,135.104,0,93.932C0,42.058,42.048,0.006,93.917,0.006
							c15.17,0,29.501,3.597,42.184,9.985L136.07,10.05z"/>
						<path style="fill:none;" d="M136.07,10.05c-9.352-3.123-19.359-4.814-29.761-4.814c-51.869,0-93.917,42.052-93.917,93.928
							c0,36.479,20.796,68.103,51.177,83.659l-0.219-0.05C26.487,170.089,0,135.104,0,93.932C0,42.058,42.048,0.006,93.917,0.006
							c15.17,0,29.501,3.597,42.184,9.985L136.07,10.05z"/>
					</g>
				</g>
			</g>
		</g>
	</g>
</g>
<g id="Layer_1">
</g>
</svg>
