<?xml version="1.0" encoding="iso-8859-1"?>
<!-- Generator: Adobe Illustrator 18.1.0, SVG Export Plug-In . SVG Version: 6.00 Build 0)  -->
<!DOCTYPE svg PUBLIC "-//W3C//DTD SVG 1.1//EN" "http://www.w3.org/Graphics/SVG/1.1/DTD/svg11.dtd">
<svg version="1.1" xmlns="http://www.w3.org/2000/svg" xmlns:xlink="http://www.w3.org/1999/xlink" x="0px" y="0px"
	 viewBox="0 0 195.557 187.559" style="enable-background:new 0 0 195.557 187.559;" xml:space="preserve">
<g id="circle_x5F_air_x5F_travel">
	<g>
		<g>
			<g style="opacity:0.15;">
				<g>
					<path d="M93.779,187.559c51.793,0,93.779-41.986,93.779-93.78C187.558,41.986,145.571,0,93.779,0S0,41.986,0,93.779
						C0,145.572,41.986,187.559,93.779,187.559"/>
				</g>
			</g>
		</g>
	</g>
	<g>
		<g>
			<g style="opacity:0.1;">
				<g>
					<path style="fill:#231F20;" d="M135.467,10.006c-9.311-3.109-19.274-4.793-29.629-4.793c-51.639,0-93.501,41.866-93.501,93.511
						c0,36.318,20.703,67.801,50.95,83.288l-0.218-0.05C26.37,169.335,0,134.505,0,93.516c0-51.644,41.862-93.51,93.501-93.51
						c15.103,0,29.37,3.581,41.997,9.941L135.467,10.006z"/>
					<path style="fill:none;" d="M135.467,10.006c-9.311-3.109-19.274-4.793-29.629-4.793c-51.639,0-93.501,41.866-93.501,93.511
						c0,36.318,20.703,67.801,50.95,83.288l-0.218-0.05C26.37,169.335,0,134.505,0,93.516c0-51.644,41.862-93.51,93.501-93.51
						c15.103,0,29.37,3.581,41.997,9.941L135.467,10.006z"/>
				</g>
			</g>
		</g>
	</g>
	<g style="opacity:0.1;">
		<g>
			<defs>
				<rect id="SVGID_1_" x="88.777" y="15.317" width="106.779" height="167.695"/>
			</defs>
			<clipPath id="SVGID_2_">
				<use xlink:href="#SVGID_1_"  style="overflow:visible;"/>
			</clipPath>
			<path style="clip-path:url(#SVGID_2_);fill:#231F20;" d="M96.591,126.683l0.168,59.918l57.709-21.475
				c49.466-42.252,28.582-99.851,28.582-99.851L96.04,26.688l15.659,45.219l-5.321,34.512l-0.276,5.327l1.126,4.342L96.591,126.683z
				"/>
		</g>
	</g>
	<g>
		<path d="M154.468,165.126c-16.128,13.729-37.019,22.032-59.861,22.032c-23.628,0-45.176-8.88-61.517-23.469
			c2.214-8.346,4.886-17.933,6.659-25.332c2.461-10.26,6.046-9.304,6.046-9.304l27.757-9.324c1.054-1.866,4.989-7.484,7.903-7.983
			c0,0-0.609,1.194-0.202,3.21c0.43,2.122,7.739,8.183,9.352,10.124c0.524,0.629,0.972,1.154,1.364,1.603v27.503l1.81,2.542
			l1.811-2.542v-27.503c0.394-0.45,0.84-0.974,1.363-1.603c1.613-1.941,8.923-8.002,9.352-10.124c0.409-2.016-0.202-3.21-0.202-3.21
			c2.991,0.512,7.06,6.419,7.987,8.13c0,0,0,0.001,0.003,0.001l27.317,9.176c0,0,3.561-0.95,6.042,9.304
			C149.617,147.309,152.321,157.033,154.468,165.126 M87.751,44.171l-5.328-5.893l8.965-11.59c0.449-0.457,0.842,0.181,1.186,1.084
			c0.642-0.349,1.167-0.452,1.167-0.452s0.51,0.098,1.138,0.437c0.333-0.894,0.715-1.525,1.161-1.069l9.016,11.594l-5.324,5.889
			c0,0-3.103,3.315-5.991,3.315S87.751,44.171,87.751,44.171 M119.825,58.332c-0.066-0.175-0.144-0.334-0.212-0.504
			c-0.163-0.376-0.307-0.769-0.481-1.128c-0.062-0.135-0.134-0.253-0.197-0.385c0.858-0.81,0.274-1.587-2.626-5.426
			c-2.602-3.445-9.519-11.98-9.519-11.98l-7.058,7.809c0,0-3.103,3.316-5.991,3.316s-5.99-3.316-5.99-3.316l-7.059-7.809
			c0,0-6.919,8.535-9.521,11.98c-3.457,4.578-3.521,4.672-1.813,6.016c-1.549,3.509-2.615,7.681-2.858,12.43
			c-0.918,10.529,1.341,23.036,6.282,33.738c0.878,1.899,4.853,2.384,4.853,2.384c0.22,0.531-0.784-3.051-1.676-8.379
			c0.748,1.747,1.525,3.286,2.21,4.372c2.152,3.397,8.195,8.785,9.637,9.734c2.805,1.837,5.866,1.989,6.447,1.93l0.119,0.002
			c0.573,0,3.574-0.094,6.38-1.932c1.627-1.068,7.622-6.551,9.639-9.734c0.691-1.091,1.484-2.662,2.253-4.465
			c0.083-0.012,0.165-0.037,0.247-0.055c-0.898,5.409-1.922,9.062-1.699,8.527c0,0,3.973-0.485,4.851-2.384
			C122.876,88.27,124.597,70.01,119.825,58.332"/>
	</g>
	<g>
		<path d="M82.052,108.455v5.88c0,0,3.826,6.692,11.702,10.95v-9.936C93.754,115.349,87.312,113.01,82.052,108.455"/>
		<path d="M105.456,109.267v5.069c0,0-3.826,6.692-11.702,10.95v-9.936C93.754,115.35,100.196,113.822,105.456,109.267"/>
	</g>
	<path style="fill:#FFFFFF;" d="M94.836,54.928c0,0-0.02,0.018-0.043,0.04H93.5c-0.022-0.022-0.041-0.04-0.041-0.04
		c-1.837-1.884-8.569-2.224-8.569-2.224s2.755,2.771,5.508,4.225c1.575,0.832,2.56,0.569,3.126,0.194h1.246
		c0.567,0.375,1.551,0.638,3.126-0.194c2.755-1.454,5.509-4.225,5.509-4.225S96.673,53.044,94.836,54.928"/>
	<path style="fill:#FFFFFF;" d="M131.248,155.686c0,0-6.73,0.34-8.568,2.221c0,0-0.02,0.019-0.042,0.041h-1.293
		c-0.022-0.022-0.043-0.041-0.043-0.041c-1.837-1.881-8.568-2.221-8.568-2.221s2.754,2.346,5.509,3.798
		c0.736,0.389,1.336,0.56,1.835,0.617v0.003h0.098c0.206,0.018,0.395,0.021,0.562,0h2.507c0.167,0.021,0.356,0.018,0.561,0h0.098
		v-0.003c0.499-0.057,1.1-0.228,1.836-0.617C128.495,158.032,131.248,155.686,131.248,155.686"/>
</g>
<g id="Layer_1">
</g>
</svg>
