<?xml version="1.0" encoding="iso-8859-1"?>
<!-- Generator: Adobe Illustrator 18.1.0, SVG Export Plug-In . SVG Version: 6.00 Build 0)  -->
<!DOCTYPE svg PUBLIC "-//W3C//DTD SVG 1.1//EN" "http://www.w3.org/Graphics/SVG/1.1/DTD/svg11.dtd">
<svg version="1.1" xmlns="http://www.w3.org/2000/svg" xmlns:xlink="http://www.w3.org/1999/xlink" x="0px" y="0px"
	 viewBox="0 0 268.78 240.262" style="enable-background:new 0 0 268.78 240.262;" xml:space="preserve">
<g id="circle_x5F_ball">
	<g>
		<defs>
			<circle id="SVGID_1_" cx="119.617" cy="119.314" r="119.314"/>
		</defs>
		<clipPath id="SVGID_2_">
			<use xlink:href="#SVGID_1_"  style="overflow:visible;"/>
		</clipPath>
		<path style="clip-path:url(#SVGID_2_);fill:#B3B3B3;" d="M88.404,178.47c22.009,11.191,136.758,45.126,136.758,45.126
			l43.618-120.661c0,0-115.889-39.344-127.561-43.019c-5.507-1.734-49.518-18.703-78.619,28.219
			C39.78,124.929,62.43,165.262,88.404,178.47z"/>
	</g>
	<g>
		<g>
			<g>
				<g style="opacity:0.15;">
					<g>
						<path d="M119.258,240.262c65.864,0,119.258-53.393,119.258-119.259c0-65.864-53.393-119.258-119.258-119.258
							S0,55.138,0,121.003C0,186.868,53.393,240.262,119.258,240.262"/>
					</g>
				</g>
			</g>
		</g>
		<g>
			<g>
				<g style="opacity:0.1;">
					<g>
						<path style="fill:#231F20;" d="M172.272,14.469c-11.84-3.954-24.51-6.095-37.679-6.095
							c-65.669,0-118.905,53.24-118.905,118.917c0,46.185,26.328,86.222,64.793,105.916l-0.278-0.064
							C33.534,217.086,0,172.794,0,120.668C0,54.993,53.235,1.752,118.905,1.752c19.207,0,37.349,4.554,53.407,12.642
							L172.272,14.469z"/>
						<path style="fill:none;" d="M172.272,14.469c-11.84-3.954-24.51-6.095-37.679-6.095c-65.669,0-118.905,53.24-118.905,118.917
							c0,46.185,26.328,86.222,64.793,105.916l-0.278-0.064C33.534,217.086,0,172.794,0,120.668
							C0,54.993,53.235,1.752,118.905,1.752c19.207,0,37.349,4.554,53.407,12.642L172.272,14.469z"/>
					</g>
				</g>
			</g>
		</g>
	</g>
	<g>
		<path d="M90.705,145.5c0.909-0.412,1.918-0.644,2.978-0.644c2.963,0,5.511,1.785,6.618,4.34h0.006
			c18.328-4.951,34.932-16.057,46.34-32.725c1.789-2.613,3.404-5.297,4.842-8.037c-1.662-1.322-2.722-3.357-2.722-5.643
			c0-2.987,1.814-5.548,4.403-6.641c-1.648-3.646-3.555-7.187-5.719-10.605c-0.955,0.469-2.026,0.73-3.157,0.73
			c-3.986,0-7.215-3.234-7.215-7.22c0-0.658,0.091-1.297,0.256-1.903c-17.814-5.728-36.735-5.434-53.801,0.365
			c0.729,1.127,1.15,2.466,1.15,3.905c0,3.986-3.234,7.22-7.22,7.22c-0.549,0-1.08-0.061-1.59-0.181
			C73.842,108.32,79.05,128.657,90.705,145.5"/>
		<path d="M75.604,74.449c0.283-1.037,0.587-2.073,0.913-3.1c-3.692,3.181-7.082,6.825-10.073,10.916
			c1.292-0.767,2.603-1.5,3.934-2.191C70.894,77.342,72.948,75.154,75.604,74.449"/>
		<path d="M149.713,83.823c2.409,3.777,4.521,7.707,6.315,11.754c0.288,0,0.578,0.019,0.856,0.057
			c0.853-2.642,1.571-5.307,2.145-7.995c-2.765-1.842-5.596-3.504-8.479-4.985C150.31,83.075,150.025,83.462,149.713,83.823"/>
		<path d="M184.308,113.391c-5.804-9.123-13.425-17.326-22.756-24.015c-0.549,2.405-1.207,4.795-1.969,7.162
			c2.163,1.245,3.616,3.579,3.616,6.254c0,2.244-1.023,4.246-2.622,5.566c6.375,23.513,2.954,49.29-11.632,70.601
			c-0.151,0.222-0.307,0.435-0.463,0.658c9.671-4.814,18.291-12.086,24.824-21.634C182.604,144.398,186.088,128.553,184.308,113.391
			"/>
		<path d="M141.183,72.542c0.941-0.45,1.998-0.7,3.11-0.7c3.986,0,7.219,3.228,7.219,7.214c0,0.294-0.019,0.582-0.057,0.867
			c2.77,1.405,5.497,2.968,8.161,4.696c0.824-4.71,1.231-9.469,1.231-14.221c-1.472-1.207-3.001-2.362-4.597-3.455
			c-10.859-7.428-23.162-11.145-35.409-11.428c1.278,0.785,2.546,1.605,3.802,2.461C130.872,62.24,136.397,67.15,141.183,72.542"/>
		<path d="M158.002,109.722c-0.639,0.189-1.316,0.288-2.016,0.288c-0.681,0-1.339-0.094-1.965-0.274
			c-1.5,2.845-3.176,5.629-5.031,8.341c-11.839,17.293-29.071,28.797-48.092,33.89c0.005,0.033,0.005,0.071,0.005,0.104
			c0,1.572-0.506,3.031-1.363,4.214c4.066,4.227,8.63,8.114,13.667,11.559c9.586,6.561,20.004,10.945,30.661,13.269
			c0.938-1.221,1.851-2.471,2.732-3.753C160.568,156.942,163.947,132.288,158.002,109.722"/>
		<path d="M86.478,151.716c0.085-1.761,0.804-3.355,1.926-4.564c-12.251-17.681-17.624-39.096-15.252-59.94
			c-1.292-0.966-2.253-2.357-2.67-3.967c-2.707,1.472-5.34,3.1-7.881,4.89c-11.384,19.585-11.513,43.013-1.894,62.232
			C69.265,152.128,77.961,152.558,86.478,151.716"/>
		<path d="M138.622,74.592l0.283-0.337c-4.602-5.16-9.899-9.85-15.868-13.931c-2.509-1.718-5.08-3.286-7.697-4.711
			c-12.38,0.754-24.465,5-34.686,12.451c-0.776,2.059-1.457,4.137-2.059,6.234c0.971,0.151,1.879,0.497,2.679,1.004
			C99.392,68.812,119.629,68.38,138.622,74.592"/>
		<path d="M183.175,106.724c-2.839-12.73-9.463-24.64-19.527-33.892c-0.128,4.526-0.608,9.047-1.46,13.522
			C170.475,92.126,177.494,99.04,183.175,106.724"/>
		<path d="M97.456,158.221c-1.098,0.677-2.392,1.065-3.774,1.065c-3.119,0-5.775-1.979-6.779-4.753
			c-8.084,0.809-16.326,0.505-24.473-0.943c4.757,8.303,11.413,15.688,19.835,21.454c17.59,12.038,38.969,14.324,57.744,8.07
			c-9.866-2.542-19.49-6.821-28.409-12.928C106.388,166.623,101.664,162.599,97.456,158.221"/>
	</g>
</g>
<g id="Layer_1">
</g>
</svg>
