<?xml version="1.0" encoding="iso-8859-1"?>
<!-- Generator: Adobe Illustrator 18.1.0, SVG Export Plug-In . SVG Version: 6.00 Build 0)  -->
<!DOCTYPE svg PUBLIC "-//W3C//DTD SVG 1.1//EN" "http://www.w3.org/Graphics/SVG/1.1/DTD/svg11.dtd">
<svg version="1.1" xmlns="http://www.w3.org/2000/svg" xmlns:xlink="http://www.w3.org/1999/xlink" x="0px" y="0px"
	 viewBox="0 0 268.789 239.512" style="enable-background:new 0 0 268.789 239.512;" xml:space="preserve">
<g id="circle_x5F_ball">
	<g>
		<defs>
			<path id="SVGID_1_" d="M0.303,119.647C0.303,53.568,53.871,0,119.95,0s119.161,54.519,119.161,120.598
				S186.029,239.293,119.95,239.293S0.303,185.726,0.303,119.647z"/>
		</defs>
		<clipPath id="SVGID_2_">
			<use xlink:href="#SVGID_1_"  style="overflow:visible;"/>
		</clipPath>
		<path style="clip-path:url(#SVGID_2_);fill:#B3B3B3;" d="M88.404,177.72c22.009,11.191,136.758,45.126,136.758,45.126
			l43.618-120.661c1.193,0.399-109.802-37.954-127.936-43.79c29.77,10.922,55.77,46.285,38.103,87.618
			C159.1,192.447,111.613,188.679,88.404,177.72z"/>
	</g>
	<g>
		<g style="opacity:0.15;">
			<g>
				<path d="M119.617,239.512c65.864,0,119.258-53.393,119.258-119.259c0-65.864-53.393-119.258-119.258-119.258
					S0.359,54.388,0.359,120.253C0.359,186.118,53.753,239.512,119.617,239.512"/>
			</g>
		</g>
	</g>
	<g style="opacity:0.1;">
		<g>
			<path style="fill:#231F20;" d="M172.272,13.719c-11.84-3.954-24.51-6.095-37.679-6.095c-65.669,0-118.905,53.24-118.905,118.917
				c0,46.185,26.328,86.222,64.793,105.916l-0.278-0.064C33.534,216.336,0,172.044,0,119.918C0,54.243,53.235,1.002,118.905,1.002
				c19.207,0,37.349,4.554,53.407,12.642L172.272,13.719z"/>
			<path style="fill:none;" d="M172.272,13.719c-11.84-3.954-24.51-6.095-37.679-6.095c-65.669,0-118.905,53.24-118.905,118.917
				c0,46.185,26.328,86.222,64.793,105.916l-0.278-0.064C33.534,216.336,0,172.044,0,119.918C0,54.243,53.235,1.002,118.905,1.002
				c19.207,0,37.349,4.554,53.407,12.642L172.272,13.719z"/>
		</g>
	</g>
	<path d="M90.705,144.75c0.909-0.412,1.918-0.644,2.978-0.644c2.963,0,5.511,1.785,6.618,4.34h0.006
		c18.328-4.951,34.932-16.057,46.34-32.725c1.789-2.613,3.404-5.297,4.842-8.037c-1.662-1.322-2.722-3.357-2.722-5.643
		c0-2.987,1.814-5.548,4.403-6.641c-1.648-3.646-3.555-7.187-5.719-10.605c-0.955,0.469-2.026,0.73-3.157,0.73
		c-3.986,0-7.215-3.234-7.215-7.22c0-0.658,0.091-1.297,0.256-1.903c-17.814-5.728-36.735-5.434-53.801,0.365
		c0.729,1.127,1.15,2.466,1.15,3.905c0,3.986-3.234,7.22-7.22,7.22c-0.549,0-1.08-0.061-1.59-0.181
		C73.842,107.57,79.05,127.907,90.705,144.75"/>
	<path d="M75.604,73.699c0.283-1.037,0.587-2.073,0.913-3.1c-3.692,3.181-7.082,6.825-10.073,10.916
		c1.292-0.767,2.603-1.5,3.934-2.191C70.894,76.592,72.948,74.404,75.604,73.699"/>
	<path d="M149.713,83.073c2.409,3.777,4.521,7.707,6.315,11.754c0.288,0,0.578,0.019,0.856,0.057
		c0.853-2.642,1.571-5.307,2.145-7.995c-2.765-1.842-5.596-3.504-8.479-4.985C150.31,82.325,150.025,82.712,149.713,83.073"/>
	<path d="M184.308,112.641c-5.804-9.123-13.425-17.326-22.756-24.015c-0.549,2.405-1.207,4.795-1.969,7.162
		c2.163,1.245,3.616,3.579,3.616,6.254c0,2.244-1.023,4.246-2.622,5.566c6.375,23.513,2.954,49.29-11.632,70.601
		c-0.151,0.222-0.307,0.435-0.463,0.658c9.671-4.814,18.291-12.086,24.824-21.634C182.604,143.648,186.088,127.803,184.308,112.641"
		/>
	<path d="M141.183,71.792c0.941-0.45,1.998-0.7,3.11-0.7c3.986,0,7.219,3.228,7.219,7.214c0,0.294-0.019,0.582-0.057,0.867
		c2.77,1.405,5.497,2.968,8.161,4.696c0.824-4.71,1.231-9.469,1.231-14.221c-1.472-1.207-3.001-2.362-4.597-3.455
		c-10.859-7.428-23.162-11.145-35.409-11.428c1.278,0.785,2.546,1.605,3.802,2.461C130.872,61.49,136.397,66.4,141.183,71.792"/>
	<path d="M158.002,108.972c-0.639,0.189-1.316,0.288-2.016,0.288c-0.681,0-1.339-0.094-1.965-0.274
		c-1.5,2.845-3.176,5.629-5.031,8.341c-11.839,17.293-29.071,28.797-48.092,33.89c0.005,0.033,0.005,0.071,0.005,0.104
		c0,1.572-0.506,3.031-1.363,4.214c4.066,4.227,8.63,8.114,13.667,11.559c9.586,6.561,20.004,10.945,30.661,13.269
		c0.938-1.221,1.851-2.471,2.732-3.753C160.568,156.192,163.947,131.538,158.002,108.972"/>
	<path d="M86.478,150.966c0.085-1.761,0.804-3.355,1.926-4.564c-12.251-17.681-17.624-39.096-15.252-59.94
		c-1.292-0.966-2.253-2.357-2.67-3.967c-2.707,1.472-5.34,3.1-7.881,4.89c-11.384,19.585-11.513,43.013-1.894,62.232
		C69.265,151.378,77.961,151.808,86.478,150.966"/>
	<path d="M138.622,73.842l0.283-0.337c-4.602-5.16-9.899-9.85-15.868-13.931c-2.509-1.718-5.08-3.286-7.697-4.711
		c-12.38,0.754-24.465,5-34.686,12.451c-0.776,2.059-1.457,4.137-2.059,6.234c0.971,0.151,1.879,0.497,2.679,1.004
		C99.392,68.062,119.629,67.63,138.622,73.842"/>
	<path d="M183.175,105.974c-2.839-12.73-9.463-24.64-19.527-33.892c-0.128,4.526-0.608,9.047-1.46,13.522
		C170.475,91.376,177.494,98.29,183.175,105.974"/>
	<path d="M97.456,157.471c-1.098,0.677-2.392,1.065-3.774,1.065c-3.119,0-5.775-1.979-6.779-4.753
		c-8.084,0.809-16.326,0.505-24.473-0.943c4.757,8.303,11.413,15.688,19.835,21.454c17.59,12.038,38.969,14.324,57.744,8.07
		c-9.866-2.542-19.49-6.821-28.409-12.928C106.388,165.873,101.664,161.849,97.456,157.471"/>
</g>
<g id="Layer_1">
</g>
</svg>
