<?xml version="1.0" encoding="iso-8859-1"?>
<!-- Generator: Adobe Illustrator 18.1.0, SVG Export Plug-In . SVG Version: 6.00 Build 0)  -->
<!DOCTYPE svg PUBLIC "-//W3C//DTD SVG 1.1//EN" "http://www.w3.org/Graphics/SVG/1.1/DTD/svg11.dtd">
<svg version="1.1" xmlns="http://www.w3.org/2000/svg" xmlns:xlink="http://www.w3.org/1999/xlink" x="0px" y="0px"
	 viewBox="0 0 243.476 218.729" style="enable-background:new 0 0 243.476 218.729;" xml:space="preserve">
<g id="circle_x5F_computer_x5F_chip">
	<g>
		<g>
			<g>
				<g style="opacity:0.15;">
					<g>
						<path d="M110.951,218.572c60.341,0,109.258-48.916,109.258-109.259c0-60.341-48.916-109.258-109.258-109.258
							S1.694,48.972,1.694,109.314C1.694,169.656,50.61,218.572,110.951,218.572"/>
					</g>
				</g>
			</g>
		</g>
		<g>
			<g>
				<g style="opacity:0.1;">
					<g>
						<path style="fill:#231F20;" d="M159.521,11.713c-10.847-3.622-22.455-5.584-34.52-5.584
							c-60.163,0-108.934,48.776-108.934,108.946c0,42.312,24.121,78.992,59.36,97.035l-0.254-0.058
							c-42.756-14.712-73.478-55.29-73.478-103.045c0-60.169,48.771-108.945,108.934-108.945c17.596,0,34.217,4.172,48.929,11.582
							L159.521,11.713z"/>
						<path style="fill:none;" d="M159.521,11.713c-10.847-3.622-22.455-5.584-34.52-5.584
							c-60.163,0-108.934,48.776-108.934,108.946c0,42.312,24.121,78.992,59.36,97.035l-0.254-0.058
							c-42.756-14.712-73.478-55.29-73.478-103.045c0-60.169,48.771-108.945,108.934-108.945c17.596,0,34.217,4.172,48.929,11.582
							L159.521,11.713z"/>
					</g>
				</g>
			</g>
		</g>
	</g>
	<g>
		<defs>
			<circle id="SVGID_1_" cx="109.364" cy="109.364" r="109.364"/>
		</defs>
		<clipPath id="SVGID_2_">
			<use xlink:href="#SVGID_1_"  style="overflow:visible;"/>
		</clipPath>
		<polygon style="clip-path:url(#SVGID_2_);fill:#999999;" points="82,177.081 211.891,207.838 243.357,86.843 159.417,63.242 
			158.907,153.729 82,153.729 		"/>
	</g>
	<g>
		<g>
			<path d="M163.154,82.112h14.41c1.925,0,3.501,2.129,3.501,4.731c0,2.601-1.576,4.731-3.501,4.731h-14.41"/>
			<path d="M163.154,106.062h14.41c1.925,0,3.501,2.129,3.501,4.731c0,2.602-1.576,4.731-3.501,4.731h-14.41"/>
			<path d="M163.154,130.013h14.41c1.925,0,3.501,2.129,3.501,4.731s-1.576,4.731-3.501,4.731h-14.41"/>
			<path d="M82.774,58.876v-14.67c0-1.961,2.092-3.565,4.647-3.565c2.556,0,4.646,1.604,4.646,3.565v14.67"/>
			<path d="M106.3,58.876v-14.67c0-1.961,2.092-3.565,4.647-3.565c2.556,0,4.647,1.604,4.647,3.565v14.67"/>
			<path d="M129.827,58.876v-14.67c0-1.961,2.092-3.565,4.647-3.565s4.647,1.604,4.647,3.565v14.67"/>
			<path d="M92.068,159.754v14.67c0,1.96-2.092,3.564-4.647,3.564c-2.556,0-4.646-1.604-4.646-3.564v-14.67"/>
			<path d="M115.595,159.754v14.67c0,1.96-2.092,3.564-4.647,3.564s-4.647-1.604-4.647-3.564v-14.67"/>
			<path d="M139.121,159.754v14.67c0,1.96-2.09,3.564-4.647,3.564c-2.556,0-4.647-1.604-4.647-3.564v-14.67"/>
			<path d="M58.749,91.573h-14.41c-1.925,0-3.501-2.129-3.501-4.731s1.576-4.731,3.501-4.731h14.41"/>
			<path d="M58.749,115.524h-14.41c-1.925,0-3.501-2.129-3.501-4.731c0-2.601,1.576-4.731,3.501-4.731h14.41"/>
			<path d="M58.749,139.475h-14.41c-1.925,0-3.501-2.129-3.501-4.731s1.576-4.731,3.501-4.731h14.41"/>
			<path d="M144.386,81.282c0-2.206-1.473-4.01-3.273-4.01H80.776c-1.799,0-3.273,1.804-3.273,4.01v56.635
				c0,2.206,1.473,4.011,3.273,4.011h60.337c1.799,0,3.273-1.805,3.273-4.011V81.282z M160.907,151.908
				c0,3.295-2.2,5.991-4.89,5.991H65.871c-2.69,0-4.891-2.696-4.891-5.991V67.29c0-3.295,2.201-5.991,4.891-5.991h90.147
				c2.69,0,4.89,2.696,4.89,5.991V151.908z"/>
		</g>
	</g>
</g>
<g id="Layer_1">
</g>
</svg>
