<?xml version="1.0" encoding="iso-8859-1"?>
<!-- Generator: Adobe Illustrator 18.1.0, SVG Export Plug-In . SVG Version: 6.00 Build 0)  -->
<!DOCTYPE svg PUBLIC "-//W3C//DTD SVG 1.1//EN" "http://www.w3.org/Graphics/SVG/1.1/DTD/svg11.dtd">
<svg version="1.1" xmlns="http://www.w3.org/2000/svg" xmlns:xlink="http://www.w3.org/1999/xlink" x="0px" y="0px"
	 viewBox="0 0 404.98 404.98" style="enable-background:new 0 0 404.98 404.98;" xml:space="preserve">
<g id="circle_x5F_computing">
	<circle style="opacity:0.75;fill:#CCCCCC;" cx="202.49" cy="202.49" r="202.49"/>
	<g>
		<path style="fill:#F2F2F2;" d="M190.03,252.779c-0.807,2.509-1.815,4.919-3.02,7.195l5.844,12.247
			c-3.418,4.653-7.542,8.779-12.18,12.178l-12.261-5.809c-2.277,1.188-4.687,2.213-7.213,3.005l-4.538,12.741
			c-2.804,0.428-5.66,0.66-8.599,0.66c-2.919,0-5.792-0.232-8.613-0.66l-4.523-12.741c-2.508-0.792-4.917-1.817-7.21-3.005
			l-12.247,5.809c-4.653-3.399-8.763-7.525-12.179-12.178l5.809-12.247c-1.174-2.277-2.179-4.687-2.988-7.195l-12.775-4.521
			c-0.411-2.807-0.675-5.712-0.675-8.647c0-2.905,0.264-5.778,0.675-8.582l12.775-4.555c0.809-2.509,1.814-4.919,2.988-7.195
			l-5.809-12.247c3.416-4.653,7.526-8.78,12.179-12.179l12.247,5.841c2.294-1.219,4.702-2.244,7.21-3.036l4.523-12.773
			c2.821-0.397,5.694-0.628,8.613-0.628c2.939,0,5.795,0.232,8.599,0.628l4.538,12.773c2.526,0.792,4.936,1.817,7.23,3.036
			l12.245-5.841c4.638,3.399,8.763,7.525,12.18,12.179l-5.844,12.247c1.205,2.276,2.213,4.687,3.02,7.195l12.776,4.555
			c0.411,2.804,0.64,5.677,0.64,8.582c0,2.936-0.23,5.841-0.64,8.647L190.03,252.779z M168.908,239.643
			c0-11.52-9.34-20.86-20.846-20.86c-11.501,0-20.86,9.34-20.86,20.86c0,11.519,9.359,20.827,20.86,20.827
			C159.568,260.47,168.908,251.162,168.908,239.643z"/>
		<path style="fill:#F2F2F2;" d="M305.821,195.397c-0.957,3.165-2.246,6.204-3.771,9.12l7.331,15.411
			c-4.27,5.915-9.454,11.079-15.365,15.411l-15.414-7.371c-2.913,1.5-5.936,2.789-9.101,3.789l-5.745,16.12
			c-3.542,0.54-7.146,0.833-10.854,0.833c-3.684,0-7.331-0.293-10.848-0.833l-5.751-16.12c-3.165-1-6.182-2.289-9.077-3.789
			l-15.433,7.371c-5.911-4.332-11.099-9.497-15.369-15.411l7.329-15.411c-1.538-2.916-2.809-5.955-3.769-9.12l-16.118-5.708
			c-0.562-3.582-0.855-7.164-0.855-10.87c0-3.708,0.293-7.331,0.855-10.873l16.118-5.748c0.96-3.165,2.231-6.164,3.769-9.08
			l-7.329-15.411c4.27-5.915,9.458-11.119,15.369-15.411l15.433,7.374c2.894-1.543,5.911-2.833,9.077-3.792l5.751-16.118
			c3.517-0.543,7.164-0.833,10.848-0.833c3.708,0,7.312,0.29,10.854,0.833l5.745,16.118c3.165,0.959,6.189,2.249,9.101,3.792
			l15.414-7.374c5.911,4.292,11.095,9.497,15.365,15.411l-7.331,15.411c1.543,2.915,2.814,5.915,3.771,9.08l16.118,5.748
			c0.568,3.542,0.857,7.164,0.857,10.873c0,3.706-0.29,7.288-0.857,10.87L305.821,195.397z M279.207,178.819
			c0-14.538-11.785-26.323-26.305-26.323c-14.513,0-26.324,11.785-26.324,26.323c0,14.535,11.811,26.281,26.324,26.281
			C267.421,205.1,279.207,193.354,279.207,178.819z"/>
		<path style="fill:#F2F2F2;" d="M152.21,154.729c-0.355,1.836-0.904,3.621-1.593,5.35l5.018,8.246
			c-2.06,3.576-4.678,6.781-7.753,9.562l-9.101-3.255c-1.552,1.013-3.178,1.914-4.901,2.66l-2.299,9.403
			c-1.962,0.51-3.973,0.883-6.059,1.099c-2.072,0.213-4.141,0.26-6.152,0.159l-4.171-8.737c-1.838-0.379-3.611-0.93-5.326-1.606
			l-8.256,5.041c-3.577-2.095-6.796-4.7-9.541-7.781l3.231-9.096c-1.034-1.552-1.925-3.188-2.649-4.913l-9.399-2.278
			c-0.524-1.983-0.896-3.981-1.111-6.067c-0.215-2.086-0.259-4.141-0.148-6.167l8.735-4.168c0.357-1.837,0.898-3.598,1.595-5.327
			l-5.017-8.247c2.06-3.575,4.678-6.805,7.756-9.562l9.111,3.255c1.539-1.036,3.163-1.936,4.888-2.659l2.302-9.403
			c1.948-0.509,3.984-0.883,6.056-1.097c2.087-0.215,4.131-0.261,6.156-0.16l4.167,8.736c1.836,0.357,3.612,0.907,5.34,1.606
			l8.247-5.042c3.574,2.072,6.793,4.701,9.538,7.782l-3.232,9.096c1.036,1.551,1.926,3.165,2.647,4.89l9.402,2.301
			c0.524,1.961,0.898,3.981,1.113,6.068c0.215,2.085,0.258,4.117,0.147,6.166L152.21,154.729z M136.274,146.942
			c-0.842-8.18-8.156-14.129-16.326-13.288c-8.166,0.841-14.13,8.156-13.287,16.336c0.842,8.179,8.168,14.104,16.335,13.263
			C131.165,162.413,137.117,155.121,136.274,146.942z"/>
	</g>
</g>
<g id="Layer_1">
</g>
</svg>
