<?xml version="1.0" encoding="iso-8859-1"?>
<!-- Generator: Adobe Illustrator 18.1.0, SVG Export Plug-In . SVG Version: 6.00 Build 0)  -->
<!DOCTYPE svg PUBLIC "-//W3C//DTD SVG 1.1//EN" "http://www.w3.org/Graphics/SVG/1.1/DTD/svg11.dtd">
<svg version="1.1" xmlns="http://www.w3.org/2000/svg" xmlns:xlink="http://www.w3.org/1999/xlink" x="0px" y="0px"
	 viewBox="0 0 420.63 492.548" style="enable-background:new 0 0 420.63 492.548;" xml:space="preserve">
<g id="circuts_x5F_right">
	<polygon style="fill:#E6E6E6;" points="402.375,245.5 401.125,245.5 401.125,184.625 387.125,184.625 387.125,102.259 
		370.125,85.259 370.125,42.5 371.375,42.5 371.375,84.742 388.375,101.742 388.375,183.375 402.375,183.375 	"/>
	<path style="fill:#E6E6E6;" d="M370.75,45c1.381,0,2.5-1.119,2.5-2.5c0-1.381-1.119-2.5-2.5-2.5c-1.381,0-2.5,1.119-2.5,2.5
		C368.25,43.881,369.369,45,370.75,45"/>
	<path style="fill:#E6E6E6;" d="M401.75,248c1.381,0,2.5-1.119,2.5-2.5c0-1.381-1.119-2.5-2.5-2.5c-1.381,0-2.5,1.119-2.5,2.5
		C399.25,246.881,400.369,248,401.75,248"/>
	<polygon style="fill:#E6E6E6;" points="418.755,193.5 417.505,193.5 417.505,170.639 402.125,155.259 402.125,86.759 
		386.625,71.259 386.625,15.5 387.875,15.5 387.875,70.742 403.375,86.242 403.375,154.742 418.755,170.121 	"/>
	<path style="fill:#E6E6E6;" d="M387.25,18c1.381,0,2.5-1.119,2.5-2.5c0-1.381-1.119-2.5-2.5-2.5c-1.381,0-2.5,1.119-2.5,2.5
		C384.75,16.881,385.869,18,387.25,18"/>
	<path style="fill:#E6E6E6;" d="M418.13,196c1.381,0,2.5-1.119,2.5-2.5c0-1.381-1.119-2.5-2.5-2.5c-1.381,0-2.5,1.119-2.5,2.5
		C415.63,194.881,416.749,196,418.13,196"/>
	<polygon style="fill:#E6E6E6;" points="394.375,246 393.125,246 393.125,191.625 379.125,191.625 379.125,116.009 361.75,98.634 
		361.75,21.5 363,21.5 363,98.117 380.375,115.492 380.375,190.375 394.375,190.375 	"/>
	<path style="fill:#E6E6E6;" d="M362.375,24c1.381,0,2.5-1.119,2.5-2.5c0-1.381-1.119-2.5-2.5-2.5c-1.381,0-2.5,1.119-2.5,2.5
		C359.875,22.881,360.994,24,362.375,24"/>
	<path style="fill:#E6E6E6;" d="M393.75,248.5c1.381,0,2.5-1.119,2.5-2.5c0-1.381-1.119-2.5-2.5-2.5c-1.381,0-2.5,1.119-2.5,2.5
		C391.25,247.381,392.369,248.5,393.75,248.5"/>
	<polygon style="fill:#E6E6E6;" points="413.375,149.5 412.125,149.5 412.125,33.759 395.625,17.259 395.625,2.5 396.875,2.5 
		396.875,16.742 413.375,33.242 	"/>
	<path style="fill:#E6E6E6;" d="M396.25,5c1.381,0,2.5-1.119,2.5-2.5c0-1.381-1.119-2.5-2.5-2.5c-1.381,0-2.5,1.119-2.5,2.5
		C393.75,3.881,394.869,5,396.25,5"/>
	<path style="fill:#E6E6E6;" d="M412.75,152c1.381,0,2.5-1.119,2.5-2.5c0-1.381-1.119-2.5-2.5-2.5c-1.381,0-2.5,1.119-2.5,2.5
		C410.25,150.881,411.369,152,412.75,152"/>
	<polygon style="fill:#E6E6E6;" points="15.125,390 13.875,390 13.875,334.788 14.058,334.605 32.255,316.409 32.255,244.409 
		19.875,244.409 19.875,162.259 1.875,144.259 1.875,101.5 3.125,101.5 3.125,143.742 21.125,161.742 21.125,243.159 
		33.505,243.159 33.505,316.926 33.322,317.11 15.125,335.306 	"/>
	<path style="fill:#E6E6E6;" d="M2.5,104c1.381,0,2.5-1.119,2.5-2.5c0-1.381-1.119-2.5-2.5-2.5S0,100.119,0,101.5
		C0,102.881,1.119,104,2.5,104"/>
	<path style="fill:#E6E6E6;" d="M14.5,392.5c1.381,0,2.5-1.119,2.5-2.5c0-1.381-1.119-2.5-2.5-2.5S12,388.619,12,390
		C12,391.381,13.119,392.5,14.5,392.5"/>
	<polygon style="fill:#E6E6E6;" points="351.089,286.943 350.204,286.058 361.271,274.992 361.271,259.625 348.52,259.625 
		348.52,169 349.77,169 349.77,258.375 362.521,258.375 362.521,275.509 	"/>
	<path style="fill:#E6E6E6;" d="M349.145,171.5c1.381,0,2.5-1.119,2.5-2.5c0-1.381-1.119-2.5-2.5-2.5c-1.381,0-2.5,1.119-2.5,2.5
		C346.645,170.381,347.764,171.5,349.145,171.5"/>
	<path style="fill:#E6E6E6;" d="M350.647,289c1.381,0,2.5-1.119,2.5-2.5c0-1.381-1.119-2.5-2.5-2.5c-1.381,0-2.5,1.119-2.5,2.5
		C348.147,287.881,349.266,289,350.647,289"/>
	<polygon style="fill:#E6E6E6;" points="40.505,214.5 39.255,214.5 39.255,154.386 23.127,138.259 23.127,71.5 24.377,71.5 
		24.377,137.742 40.505,153.868 	"/>
	<path style="fill:#E6E6E6;" d="M23.752,74c1.381,0,2.5-1.119,2.5-2.5c0-1.381-1.119-2.5-2.5-2.5c-1.381,0-2.5,1.119-2.5,2.5
		C21.252,72.881,22.371,74,23.752,74"/>
	<path style="fill:#E6E6E6;" d="M39.88,217c1.381,0,2.5-1.119,2.5-2.5c0-1.381-1.119-2.5-2.5-2.5c-1.381,0-2.5,1.119-2.5,2.5
		C37.38,215.881,38.499,217,39.88,217"/>
	<polygon style="fill:#E6E6E6;" points="137.125,196.75 135.875,196.75 135.875,142.259 119.875,126.259 119.875,84.5 121.125,84.5 
		121.125,125.742 137.125,141.742 	"/>
	<path style="fill:#E6E6E6;" d="M120.5,87c1.381,0,2.5-1.119,2.5-2.5c0-1.381-1.119-2.5-2.5-2.5c-1.381,0-2.5,1.119-2.5,2.5
		C118,85.881,119.119,87,120.5,87"/>
	<path style="fill:#E6E6E6;" d="M136.5,199.25c1.381,0,2.5-1.119,2.5-2.5c0-1.381-1.119-2.5-2.5-2.5c-1.381,0-2.5,1.119-2.5,2.5
		C134,198.131,135.119,199.25,136.5,199.25"/>
	<polygon style="fill:#E6E6E6;" points="113.125,390.999 111.875,390.999 111.875,290.991 112.058,290.807 127.875,274.991 
		127.875,199.875 111.875,199.875 111.875,131.313 113.125,131.313 113.125,198.625 129.125,198.625 129.125,275.508 
		128.942,275.692 113.125,291.508 	"/>
	<path style="fill:#E6E6E6;" d="M112.5,133.812c1.381,0,2.5-1.119,2.5-2.5c0-1.381-1.119-2.5-2.5-2.5c-1.381,0-2.5,1.119-2.5,2.5
		C110,132.694,111.119,133.812,112.5,133.812"/>
	<path style="fill:#E6E6E6;" d="M112.5,393.5c1.381,0,2.5-1.119,2.5-2.5c0-1.381-1.119-2.5-2.5-2.5c-1.381,0-2.5,1.119-2.5,2.5
		C110,392.381,111.119,393.5,112.5,393.5"/>
	<polygon style="fill:#E6E6E6;" points="103.125,368 101.875,368 101.875,288.742 102.058,288.558 119.875,270.742 119.875,206.625 
		101.875,206.625 101.875,143.125 103.125,143.125 103.125,205.375 121.125,205.375 121.125,271.259 120.942,271.443 
		103.125,289.259 	"/>
	<path style="fill:#E6E6E6;" d="M102.5,145.625c1.381,0,2.5-1.119,2.5-2.5c0-1.381-1.119-2.5-2.5-2.5c-1.381,0-2.5,1.119-2.5,2.5
		C100,144.506,101.119,145.625,102.5,145.625"/>
	<path style="fill:#E6E6E6;" d="M102.5,370.5c1.381,0,2.5-1.119,2.5-2.5c0-1.381-1.119-2.5-2.5-2.5c-1.381,0-2.5,1.119-2.5,2.5
		C100,369.381,101.119,370.5,102.5,370.5"/>
	<polygon style="fill:#E6E6E6;" points="92.125,318.5 90.875,318.5 90.875,285.242 91.058,285.058 111.375,264.742 111.375,215.125 
		90.875,215.125 90.875,160.875 92.125,160.875 92.125,213.875 112.625,213.875 112.625,265.259 112.442,265.443 92.125,285.759 	
		"/>
	<path style="fill:#E6E6E6;" d="M91.5,163.375c1.381,0,2.5-1.119,2.5-2.5c0-1.381-1.119-2.5-2.5-2.5c-1.381,0-2.5,1.119-2.5,2.5
		C89,162.256,90.119,163.375,91.5,163.375"/>
	<path style="fill:#E6E6E6;" d="M91.5,321c1.381,0,2.5-1.119,2.5-2.5c0-1.381-1.119-2.5-2.5-2.5c-1.381,0-2.5,1.119-2.5,2.5
		C89,319.881,90.119,321,91.5,321"/>
	<polygon style="fill:#E6E6E6;" points="72.125,304.5 70.875,304.5 70.875,278.259 58.875,266.259 58.875,212.992 59.058,212.808 
		75.875,195.992 75.875,172 77.125,172 77.125,196.509 76.942,196.693 60.125,213.509 60.125,265.742 72.125,277.742 	"/>
	<path style="fill:#E6E6E6;" d="M76.5,174.5c1.381,0,2.5-1.119,2.5-2.5c0-1.381-1.119-2.5-2.5-2.5c-1.381,0-2.5,1.119-2.5,2.5
		C74,173.381,75.119,174.5,76.5,174.5"/>
	<path style="fill:#E6E6E6;" d="M71.5,307c1.381,0,2.5-1.119,2.5-2.5c0-1.381-1.119-2.5-2.5-2.5c-1.381,0-2.5,1.119-2.5,2.5
		C69,305.881,70.119,307,71.5,307"/>
	<polygon style="fill:#E6E6E6;" points="147.375,216.5 146.125,216.5 146.125,140.884 128.5,123.259 128.5,68.5 129.75,68.5 
		129.75,122.742 147.375,140.367 	"/>
	<path style="fill:#E6E6E6;" d="M129.125,71c1.381,0,2.5-1.119,2.5-2.5c0-1.381-1.119-2.5-2.5-2.5c-1.381,0-2.5,1.119-2.5,2.5
		C126.625,69.881,127.744,71,129.125,71"/>
	<path style="fill:#E6E6E6;" d="M146.75,219c1.381,0,2.5-1.119,2.5-2.5c0-1.381-1.119-2.5-2.5-2.5c-1.381,0-2.5,1.119-2.5,2.5
		C144.25,217.881,145.369,219,146.75,219"/>
	<polygon style="fill:#E6E6E6;" points="166,209.625 153.875,209.625 153.875,156.5 155.125,156.5 155.125,208.375 166,208.375 	"/>
	<path style="fill:#E6E6E6;" d="M154.5,159c1.381,0,2.5-1.119,2.5-2.5c0-1.381-1.119-2.5-2.5-2.5c-1.381,0-2.5,1.119-2.5,2.5
		C152,157.881,153.119,159,154.5,159"/>
	<path style="fill:#E6E6E6;" d="M166,211.5c1.381,0,2.5-1.119,2.5-2.5c0-1.381-1.119-2.5-2.5-2.5c-1.381,0-2.5,1.119-2.5,2.5
		C163.5,210.381,164.619,211.5,166,211.5"/>
	<polygon style="fill:#E6E6E6;" points="179,200.875 161.625,200.875 161.625,137.5 162.875,137.5 162.875,199.625 179,199.625 	"/>
	<path style="fill:#E6E6E6;" d="M162.25,140c1.381,0,2.5-1.119,2.5-2.5c0-1.381-1.119-2.5-2.5-2.5c-1.381,0-2.5,1.119-2.5,2.5
		C159.75,138.881,160.869,140,162.25,140"/>
	<path style="fill:#E6E6E6;" d="M179,202.75c1.381,0,2.5-1.119,2.5-2.5c0-1.381-1.119-2.5-2.5-2.5c-1.381,0-2.5,1.119-2.5,2.5
		C176.5,201.631,177.619,202.75,179,202.75"/>
	<polygon style="fill:#E6E6E6;" points="132.961,405.49 131.711,405.49 131.711,374.406 131.894,374.222 145.875,360.242 
		145.875,226.375 187.875,226.375 187.875,154.5 189.125,154.5 189.125,227.625 147.125,227.625 147.125,360.759 146.942,360.943 
		132.961,374.923 	"/>
	<path style="fill:#E6E6E6;" d="M188.5,157c1.381,0,2.5-1.119,2.5-2.5c0-1.381-1.119-2.5-2.5-2.5c-1.381,0-2.5,1.119-2.5,2.5
		C186,155.881,187.119,157,188.5,157"/>
	<path style="fill:#E6E6E6;" d="M132.336,407.99c1.381,0,2.5-1.119,2.5-2.5c0-1.381-1.119-2.5-2.5-2.5c-1.381,0-2.5,1.119-2.5,2.5
		C129.836,406.871,130.955,407.99,132.336,407.99"/>
	<polygon style="fill:#E6E6E6;" points="173.051,372.164 171.801,372.164 171.801,353.361 153.625,335.185 153.625,233.375 
		195.755,233.375 195.755,171.375 197.005,171.375 197.005,234.625 154.875,234.625 154.875,334.667 173.051,352.843 	"/>
	<path style="fill:#E6E6E6;" d="M196.38,173.875c1.381,0,2.5-1.119,2.5-2.5c0-1.381-1.119-2.5-2.5-2.5c-1.381,0-2.5,1.119-2.5,2.5
		C193.88,172.756,194.999,173.875,196.38,173.875"/>
	<path style="fill:#E6E6E6;" d="M172.425,374.664c1.381,0,2.5-1.119,2.5-2.5c0-1.381-1.119-2.5-2.5-2.5c-1.381,0-2.5,1.119-2.5,2.5
		C169.925,373.545,171.044,374.664,172.425,374.664"/>
	<polygon style="fill:#E6E6E6;" points="202.951,396 201.701,396 201.701,350.841 201.884,350.658 217.875,334.667 217.875,280.125 
		202.875,280.125 202.875,180.5 204.125,180.5 204.125,278.875 219.125,278.875 219.125,335.185 218.942,335.368 202.951,351.359 	
		"/>
	<path style="fill:#E6E6E6;" d="M203.5,183c1.381,0,2.5-1.119,2.5-2.5c0-1.381-1.119-2.5-2.5-2.5c-1.381,0-2.5,1.119-2.5,2.5
		C201,181.881,202.119,183,203.5,183"/>
	<path style="fill:#E6E6E6;" d="M202.326,398.5c1.381,0,2.5-1.119,2.5-2.5c0-1.381-1.119-2.5-2.5-2.5c-1.381,0-2.5,1.119-2.5,2.5
		C199.826,397.381,200.945,398.5,202.326,398.5"/>
	<polygon style="fill:#E6E6E6;" points="305.254,492.548 290.164,492.548 289.98,492.366 214.875,417.259 214.875,355.242 
		215.058,355.058 232.875,337.242 232.875,266.625 219.875,266.625 219.875,141.259 202.875,124.259 202.875,83.5 204.125,83.5 
		204.125,123.742 221.125,140.742 221.125,265.375 234.125,265.375 234.125,337.759 233.942,337.943 216.125,355.759 
		216.125,416.742 290.682,491.298 305.254,491.298 	"/>
	<path style="fill:#E6E6E6;" d="M203.5,86c1.381,0,2.5-1.119,2.5-2.5c0-1.381-1.119-2.5-2.5-2.5c-1.381,0-2.5,1.119-2.5,2.5
		C201,84.881,202.119,86,203.5,86"/>
	<polygon style="fill:#E6E6E6;" points="248.125,243.25 246.875,243.25 246.875,140.259 225.875,119.259 225.875,57.5 227.125,57.5 
		227.125,118.742 248.125,139.742 	"/>
	<path style="fill:#E6E6E6;" d="M226.5,60c1.381,0,2.5-1.119,2.5-2.5c0-1.381-1.119-2.5-2.5-2.5c-1.381,0-2.5,1.119-2.5,2.5
		C224,58.881,225.119,60,226.5,60"/>
	<path style="fill:#E6E6E6;" d="M247.5,245.75c1.381,0,2.5-1.119,2.5-2.5c0-1.381-1.119-2.5-2.5-2.5c-1.381,0-2.5,1.119-2.5,2.5
		C245,244.631,246.119,245.75,247.5,245.75"/>
	<polygon style="fill:#E6E6E6;" points="264.253,251 263.003,251 263.003,192.387 253.875,183.259 253.875,149.5 255.125,149.5 
		255.125,182.742 264.253,191.869 	"/>
	<path style="fill:#E6E6E6;" d="M254.5,152c1.381,0,2.5-1.119,2.5-2.5c0-1.381-1.119-2.5-2.5-2.5c-1.381,0-2.5,1.119-2.5,2.5
		C252,150.881,253.119,152,254.5,152"/>
	<path style="fill:#E6E6E6;" d="M263.628,253.5c1.381,0,2.5-1.119,2.5-2.5c0-1.381-1.119-2.5-2.5-2.5c-1.381,0-2.5,1.119-2.5,2.5
		C261.128,252.381,262.247,253.5,263.628,253.5"/>
	<polygon style="fill:#E6E6E6;" points="292.125,315.125 271.875,315.125 271.875,273.625 283.125,273.625 283.125,298 281.875,298 
		281.875,274.875 273.125,274.875 273.125,313.875 290.875,313.875 290.875,260.781 271.875,260.781 271.875,154.375 286,154.375 
		286,155.625 273.125,155.625 273.125,259.531 292.125,259.531 	"/>
	<path style="fill:#E6E6E6;" d="M282.5,300.5c1.381,0,2.5-1.119,2.5-2.5c0-1.381-1.119-2.5-2.5-2.5c-1.381,0-2.5,1.119-2.5,2.5
		C280,299.381,281.119,300.5,282.5,300.5"/>
	<path style="fill:#E6E6E6;" d="M286,157.5c1.381,0,2.5-1.119,2.5-2.5c0-1.381-1.119-2.5-2.5-2.5c-1.381,0-2.5,1.119-2.5,2.5
		C283.5,156.381,284.619,157.5,286,157.5"/>
	<polygon style="fill:#E6E6E6;" points="307.125,276.75 305.875,276.75 305.875,240.125 291.375,240.125 291.375,168.5 
		292.625,168.5 292.625,238.875 307.125,238.875 	"/>
	<path style="fill:#E6E6E6;" d="M292,171c1.381,0,2.5-1.119,2.5-2.5c0-1.381-1.119-2.5-2.5-2.5c-1.381,0-2.5,1.119-2.5,2.5
		C289.5,169.881,290.619,171,292,171"/>
	<path style="fill:#E6E6E6;" d="M306.5,279.25c1.381,0,2.5-1.119,2.5-2.5c0-1.381-1.119-2.5-2.5-2.5c-1.381,0-2.5,1.119-2.5,2.5
		C304,278.131,305.119,279.25,306.5,279.25"/>
	<polygon style="fill:#E6E6E6;" points="315.125,265.5 313.875,265.5 313.875,233.125 298.5,233.125 298.5,181.5 299.75,181.5 
		299.75,231.875 315.125,231.875 	"/>
	<path style="fill:#E6E6E6;" d="M299.125,184c1.381,0,2.5-1.119,2.5-2.5c0-1.381-1.119-2.5-2.5-2.5c-1.381,0-2.5,1.119-2.5,2.5
		C296.625,182.881,297.744,184,299.125,184"/>
	<path style="fill:#E6E6E6;" d="M314.5,268c1.381,0,2.5-1.119,2.5-2.5c0-1.381-1.119-2.5-2.5-2.5c-1.381,0-2.5,1.119-2.5,2.5
		C312,266.881,313.119,268,314.5,268"/>
	<polygon style="fill:#E6E6E6;" points="324,333.625 313.187,333.625 313.187,298.242 313.369,298.058 329.875,281.553 
		329.875,217.125 313.187,217.125 313.187,103.375 326,103.375 326,104.625 314.437,104.625 314.437,215.875 331.125,215.875 
		331.125,282.071 330.942,282.254 314.437,298.759 314.437,332.375 324,332.375 	"/>
	<path style="fill:#E6E6E6;" d="M324,335.5c1.381,0,2.5-1.119,2.5-2.5c0-1.381-1.119-2.5-2.5-2.5c-1.381,0-2.5,1.119-2.5,2.5
		C321.5,334.381,322.619,335.5,324,335.5"/>
	<path style="fill:#E6E6E6;" d="M326,106.5c1.381,0,2.5-1.119,2.5-2.5c0-1.381-1.119-2.5-2.5-2.5c-1.381,0-2.5,1.119-2.5,2.5
		C323.5,105.381,324.619,106.5,326,106.5"/>
	<polygon style="fill:#E6E6E6;" points="335,323.375 319.875,323.375 319.875,303.742 320.058,303.558 339.875,283.742 
		339.875,208.625 319.875,208.625 319.875,150.25 335,150.25 335,151.5 321.125,151.5 321.125,207.375 341.125,207.375 
		341.125,284.259 340.942,284.443 321.125,304.259 321.125,322.125 335,322.125 	"/>
	<path style="fill:#E6E6E6;" d="M335,153.375c1.381,0,2.5-1.119,2.5-2.5c0-1.381-1.119-2.5-2.5-2.5c-1.381,0-2.5,1.119-2.5,2.5
		C332.5,152.256,333.619,153.375,335,153.375"/>
	<path style="fill:#E6E6E6;" d="M335,325.25c1.381,0,2.5-1.119,2.5-2.5c0-1.381-1.119-2.5-2.5-2.5c-1.381,0-2.5,1.119-2.5,2.5
		C332.5,324.131,333.619,325.25,335,325.25"/>
	<rect x="65.875" y="126.5" style="fill:#E6E6E6;" width="1.25" height="57"/>
	<path style="fill:#E6E6E6;" d="M66.5,129c1.381,0,2.5-1.119,2.5-2.5c0-1.381-1.119-2.5-2.5-2.5c-1.381,0-2.5,1.119-2.5,2.5
		C64,127.881,65.119,129,66.5,129"/>
	<path style="fill:#E6E6E6;" d="M66.5,186c1.381,0,2.5-1.119,2.5-2.5c0-1.381-1.119-2.5-2.5-2.5c-1.381,0-2.5,1.119-2.5,2.5
		C64,184.881,65.119,186,66.5,186"/>
	<polygon style="fill:#E6E6E6;" points="50.125,254.5 48.875,254.5 48.875,202.992 55.875,195.992 55.875,142.125 57.125,142.125 
		57.125,196.509 50.125,203.509 	"/>
	<path style="fill:#E6E6E6;" d="M56.5,144.625c1.381,0,2.5-1.119,2.5-2.5c0-1.381-1.119-2.5-2.5-2.5c-1.381,0-2.5,1.119-2.5,2.5
		C54,143.506,55.119,144.625,56.5,144.625"/>
	<path style="fill:#E6E6E6;" d="M49.5,257c1.381,0,2.5-1.119,2.5-2.5c0-1.381-1.119-2.5-2.5-2.5c-1.381,0-2.5,1.119-2.5,2.5
		C47,255.881,48.119,257,49.5,257"/>
	<polygon style="fill:#E6E6E6;" points="97.312,242.91 74.876,242.91 74.876,210.242 84.124,200.992 84.124,122.5 85.374,122.5 
		85.374,201.509 76.126,210.759 76.126,241.66 97.312,241.66 	"/>
	<path style="fill:#E6E6E6;" d="M97.312,244.784c1.381,0,2.5-1.119,2.5-2.5c0-1.381-1.119-2.5-2.5-2.5c-1.381,0-2.5,1.119-2.5,2.5
		C94.812,243.665,95.931,244.784,97.312,244.784"/>
	<path style="fill:#E6E6E6;" d="M84.75,125c1.381,0,2.5-1.119,2.5-2.5c0-1.381-1.119-2.5-2.5-2.5c-1.381,0-2.5,1.119-2.5,2.5
		C82.25,123.881,83.369,125,84.75,125"/>
</g>
<g id="Layer_1">
</g>
</svg>
