<?xml version="1.0" encoding="iso-8859-1"?>
<!-- Generator: Adobe Illustrator 18.1.0, SVG Export Plug-In . SVG Version: 6.00 Build 0)  -->
<!DOCTYPE svg PUBLIC "-//W3C//DTD SVG 1.1//EN" "http://www.w3.org/Graphics/SVG/1.1/DTD/svg11.dtd">
<svg version="1.1" xmlns="http://www.w3.org/2000/svg" xmlns:xlink="http://www.w3.org/1999/xlink" x="0px" y="0px"
	 viewBox="0 0 271.41 348.51" style="enable-background:new 0 0 271.41 348.51;" xml:space="preserve">
<g id="clock">
	<rect x="167.064" y="262.42" transform="matrix(0.7557 0.6549 -0.6549 0.7557 220.3036 -58.602)" width="43.272" height="7.132"/>
	<path style="fill:#231F20;" d="M164.743,30.566h-1.019c0-13.483-12.57-24.453-28.019-24.453c-15.45,0-28.019,10.97-28.019,24.453
		h-1.019c0-14.045,13.027-25.471,29.038-25.471C151.717,5.095,164.743,16.521,164.743,30.566"/>
	<g>
		<rect x="29.547" y="208.121" width="22.415" height="9.366"/>
		<rect x="131.022" y="296.548" width="9.366" height="22.415"/>
		<path style="fill:#231F20;" d="M135.705,258.144c25.041,0,45.339-20.299,45.339-45.339c0-25.041-20.298-45.34-45.339-45.34
			s-45.339,20.299-45.339,45.34C90.366,237.845,110.664,258.144,135.705,258.144"/>
		<path style="fill:#FFFFFF;" d="M109.282,201.161c0.513-1.686,1.311-3.145,2.393-4.374c1.081-1.229,2.43-2.192,4.044-2.888
			c1.613-0.697,3.447-1.046,5.502-1.046c1.686,0,3.273,0.248,4.759,0.743c1.485,0.495,2.778,1.21,3.879,2.145
			c1.1,0.936,1.971,2.101,2.613,3.494c0.641,1.395,0.963,3.009,0.963,4.842c0,1.725-0.267,3.246-0.798,4.566
			c-0.532,1.321-1.238,2.504-2.118,3.549c-0.88,1.045-1.89,1.99-3.026,2.833c-1.138,0.845-2.311,1.651-3.521,2.421
			c-1.211,0.734-2.421,1.458-3.631,2.174c-1.211,0.714-2.321,1.476-3.329,2.282c-1.009,0.808-1.871,1.679-2.586,2.614
			c-0.715,0.935-1.183,2.008-1.403,3.219h20.027v4.126h-25.474c0.183-2.31,0.596-4.282,1.238-5.914s1.458-3.054,2.448-4.264
			c0.991-1.21,2.109-2.274,3.357-3.191c1.246-0.917,2.549-1.779,3.906-2.586c1.651-1.026,3.099-1.971,4.346-2.834
			c1.247-0.861,2.283-1.732,3.109-2.613c0.825-0.88,1.448-1.834,1.87-2.861c0.422-1.026,0.633-2.219,0.633-3.576
			c0-1.064-0.202-2.026-0.605-2.889c-0.404-0.861-0.945-1.604-1.623-2.228c-0.679-0.623-1.477-1.1-2.394-1.43
			c-0.916-0.331-1.889-0.496-2.915-0.496c-1.358,0-2.523,0.285-3.494,0.853c-0.972,0.569-1.77,1.312-2.393,2.229
			c-0.625,0.917-1.073,1.953-1.348,3.108c-0.276,1.155-0.395,2.32-0.358,3.493h-4.676
			C108.567,204.682,108.768,202.848,109.282,201.161"/>
		<path style="fill:#FFFFFF;" d="M152.196,199.51h-0.11l-12.984,19.092h13.094V199.51z M161.88,218.602v4.126h-5.281v9.133h-4.402
			v-9.133h-17.11v-4.511l17.77-25.364h3.742v25.749H161.88z"/>
		<g>
			<g>
				<path d="M135.705,107.665c-57.974,0-105.139,47.165-105.139,105.139c0,57.975,47.165,105.14,105.139,105.14
					s105.139-47.165,105.139-105.14C240.844,154.83,193.679,107.665,135.705,107.665 M135.705,348.51
					C60.877,348.51,0,287.633,0,212.804C0,137.976,60.877,77.099,135.705,77.099S271.41,137.976,271.41,212.804
					C271.41,287.633,210.533,348.51,135.705,348.51"/>
				<path d="M106.229,63.854h58.952V76.32c0,0-34.374-5.843-58.952,0.779V63.854z"/>
				<path d="M102.756,33.288c0,0-12.226,0-12.226,12.226v2.094c0,0,0,12.226,12.226,12.226h65.899c0,0,12.226,0,12.226-12.226
					v-2.094c0,0,0-12.226-12.226-12.226H102.756z"/>
			</g>
			<path d="M169.837,30.566H158.63c0-10.674-10.285-19.358-22.925-19.358c-12.641,0-22.925,8.684-22.925,19.358h-11.207
				C101.573,13.712,116.884,0,135.705,0C154.525,0,169.837,13.712,169.837,30.566"/>
		</g>
		<path style="fill:#231F20;" d="M209.635,274.528l-33.197-28.265c8.087-9.498,12.54-21.612,12.54-34.112
			c0-29.039-23.625-52.663-52.664-52.663v-43.6c53.08,0,96.264,43.183,96.264,96.263
			C232.577,234.999,224.43,257.152,209.635,274.528z"/>
	</g>
</g>
<g id="Layer_1">
</g>
</svg>
