<?xml version="1.0" encoding="iso-8859-1"?>
<!-- Generator: Adobe Illustrator 18.1.0, SVG Export Plug-In . SVG Version: 6.00 Build 0)  -->
<!DOCTYPE svg PUBLIC "-//W3C//DTD SVG 1.1//EN" "http://www.w3.org/Graphics/SVG/1.1/DTD/svg11.dtd">
<svg version="1.1" xmlns="http://www.w3.org/2000/svg" xmlns:xlink="http://www.w3.org/1999/xlink" x="0px" y="0px"
	 viewBox="0 0 119.808 117.347" style="enable-background:new 0 0 119.808 117.347;" xml:space="preserve">
<g id="computer_x5F_chip_x5F_graph">
	<rect x="23.505" y="27.068" style="fill:#FFFFFF;" width="74.481" height="64.43"/>
	<path d="M104.505,35.432h12.312c1.645,0,2.991,1.819,2.991,4.042c0,2.223-1.346,4.042-2.991,4.042h-12.312"/>
	<path d="M104.505,55.895h12.312c1.645,0,2.991,1.819,2.991,4.042c0,2.224-1.346,4.042-2.991,4.042h-12.312"/>
	<path d="M104.505,76.358h12.312c1.645,0,2.991,1.819,2.991,4.042s-1.346,4.042-2.991,4.042h-12.312"/>
	<path d="M35.83,15.579V3.046C35.83,1.37,37.617,0,39.801,0c2.184,0,3.97,1.37,3.97,3.046v12.534"/>
	<path d="M55.93,15.579V3.046C55.93,1.37,57.717,0,59.901,0c2.184,0,3.971,1.37,3.971,3.046v12.534"/>
	<path d="M76.031,15.579V3.046C76.031,1.37,77.818,0,80.001,0s3.971,1.37,3.971,3.046v12.534"/>
	<path d="M43.771,101.768v12.534c0,1.675-1.787,3.045-3.971,3.045c-2.184,0-3.97-1.37-3.97-3.045v-12.534"/>
	<path d="M63.871,101.768v12.534c0,1.675-1.787,3.045-3.971,3.045s-3.971-1.37-3.971-3.045v-12.534"/>
	<path d="M83.972,101.768v12.534c0,1.675-1.786,3.045-3.971,3.045c-2.184,0-3.971-1.37-3.971-3.045v-12.534"/>
	<path d="M15.303,43.516H2.991C1.346,43.516,0,41.697,0,39.474c0-2.223,1.346-4.042,2.991-4.042h12.312"/>
	<path d="M15.303,63.979H2.991C1.346,63.979,0,62.16,0,59.937c0-2.223,1.346-4.042,2.991-4.042h12.312"/>
	<path d="M15.303,84.442H2.991C1.346,84.442,0,82.623,0,80.4s1.346-4.042,2.991-4.042h12.312"/>
	<path d="M88.47,34.723c0-1.884-1.259-3.426-2.796-3.426H34.122c-1.537,0-2.796,1.541-2.796,3.426v48.388
		c0,1.884,1.259,3.427,2.796,3.427h51.551c1.537,0,2.796-1.542,2.796-3.427V34.723z M102.586,95.065
		c0,2.815-1.879,5.118-4.178,5.118h-77.02c-2.298,0-4.179-2.303-4.179-5.118V22.769c0-2.815,1.88-5.118,4.179-5.118h77.02
		c2.298,0,4.178,2.303,4.178,5.118V95.065z"/>
	<polygon points="75.277,76.638 52.115,53.475 43.164,62.426 23.505,42.766 27.02,39.251 43.164,55.394 52.115,46.443 
		78.793,73.123 	"/>
	<polygon points="81.727,79.572 81.19,64.813 66.968,79.035 	"/>
	<polygon points="34.212,59.654 34.212,87.411 43.162,87.411 43.162,68.603 40.125,65.62 	"/>
	<polygon points="45.648,66.615 45.648,87.411 54.597,87.411 54.597,63.631 51.56,60.648 	"/>
	<polygon points="57.083,65.62 57.083,92.383 66.033,92.383 66.033,74.57 61.007,69.598 	"/>
</g>
<g id="Layer_1">
</g>
</svg>
