<?xml version="1.0" encoding="iso-8859-1"?>
<!-- Generator: Adobe Illustrator 18.1.0, SVG Export Plug-In . SVG Version: 6.00 Build 0)  -->
<!DOCTYPE svg PUBLIC "-//W3C//DTD SVG 1.1//EN" "http://www.w3.org/Graphics/SVG/1.1/DTD/svg11.dtd">
<svg version="1.1" xmlns="http://www.w3.org/2000/svg" xmlns:xlink="http://www.w3.org/1999/xlink" x="0px" y="0px"
	 viewBox="0 0 192.512 188.557" style="enable-background:new 0 0 192.512 188.557;" xml:space="preserve">
<g id="computer_x5F_chip_x5F_loading_x5F_SM">
	<g>
		<path style="fill:#E6E6E6;" d="M167.923,56.933h19.783c2.643,0,4.806,2.922,4.806,6.495c0,3.571-2.163,6.495-4.806,6.495h-19.783"
			/>
		<path style="fill:#E6E6E6;" d="M167.923,89.814h19.783c2.643,0,4.806,2.922,4.806,6.495s-2.163,6.495-4.806,6.495h-19.783"/>
		<path style="fill:#E6E6E6;" d="M167.923,122.695h19.783c2.643,0,4.806,2.922,4.806,6.495s-2.163,6.495-4.806,6.495h-19.783"/>
		<path style="fill:#E6E6E6;" d="M57.573,25.034V4.894c0-2.692,2.871-4.894,6.38-4.894c3.509,0,6.379,2.202,6.379,4.894v20.139"/>
		<path style="fill:#E6E6E6;" d="M89.871,25.034V4.894c0-2.692,2.871-4.894,6.38-4.894c3.509,0,6.38,2.202,6.38,4.894v20.139"/>
		<path style="fill:#E6E6E6;" d="M122.169,25.034V4.894c0-2.692,2.871-4.894,6.38-4.894c3.509,0,6.38,2.202,6.38,4.894v20.139"/>
		<path style="fill:#E6E6E6;" d="M70.332,163.525v20.139c0,2.691-2.871,4.893-6.38,4.893c-3.509,0-6.379-2.202-6.379-4.893v-20.139"
			/>
		<path style="fill:#E6E6E6;" d="M102.631,163.525v20.139c0,2.691-2.871,4.893-6.38,4.893c-3.509,0-6.38-2.202-6.38-4.893v-20.139"
			/>
		<path style="fill:#E6E6E6;" d="M134.928,163.525v20.139c0,2.691-2.87,4.893-6.38,4.893c-3.509,0-6.38-2.202-6.38-4.893v-20.139"/>
		<path style="fill:#E6E6E6;" d="M24.589,69.923H4.806C2.163,69.923,0,67,0,63.428s2.163-6.495,4.806-6.495h19.783"/>
		<path style="fill:#E6E6E6;" d="M24.589,102.804H4.806C2.163,102.804,0,99.881,0,96.308c0-3.571,2.163-6.495,4.806-6.495h19.783"/>
		<path style="fill:#E6E6E6;" d="M24.589,135.685H4.806c-2.643,0-4.806-2.922-4.806-6.495c0-3.573,2.163-6.495,4.806-6.495h19.783"
			/>
		<path style="fill:#E6E6E6;" d="M142.157,55.794c0-3.028-2.023-5.505-4.493-5.505H54.829c-2.47,0-4.493,2.477-4.493,5.505v77.752
			c0,3.028,2.023,5.506,4.493,5.506h82.834c2.47,0,4.493-2.478,4.493-5.506V55.794z M164.838,152.753
			c0,4.524-3.02,8.224-6.713,8.224H34.367c-3.693,0-6.714-3.701-6.714-8.224V36.586c0-4.524,3.022-8.224,6.714-8.224h123.759
			c3.693,0,6.713,3.701,6.713,8.224V152.753z"/>
	</g>
	<line style="fill:#D0D2D3;" x1="128.73" y1="94.499" x2="119.089" y2="94.434"/>
	<path style="fill:#D0D2D3;" d="M116.858,98.119c-1.254-0.761-2.087-2.142-2.076-3.714c0.016-2.379,1.956-4.294,4.335-4.278
		l9.641,0.066c2.38,0.014,4.294,1.958,4.278,4.335c-0.016,2.379-1.957,4.294-4.336,4.278l-9.64-0.065
		C118.254,98.735,117.5,98.509,116.858,98.119z"/>
	<line style="fill:#D0D2D3;" x1="124.49" y1="78.232" x2="116.107" y2="82.997"/>
	<path style="fill:#D0D2D3;" d="M113.869,86.678c-0.606-0.368-1.131-0.891-1.506-1.552c-1.176-2.069-0.452-4.698,1.616-5.873
		l8.382-4.765c2.068-1.176,4.697-0.453,5.873,1.616c1.176,2.068,0.452,4.697-1.615,5.872l-8.382,4.765
		C116.829,87.541,115.162,87.462,113.869,86.678z"/>
	<line style="fill:#58595B;" x1="112.684" y1="66.265" x2="107.806" y2="74.583"/>
	<path style="fill:#58595B;" d="M105.571,78.264c-2.008-1.218-2.673-3.827-1.481-5.86l4.878-8.318
		c1.203-2.052,3.842-2.74,5.894-1.536c0.019,0.011,0.037,0.021,0.056,0.033c2.008,1.219,2.672,3.827,1.479,5.861l-4.878,8.318
		c-1.204,2.052-3.843,2.74-5.894,1.536C105.608,78.287,105.589,78.275,105.571,78.264z"/>
	<line style="fill:#6D6E70;" x1="96.476" y1="61.804" x2="96.411" y2="71.447"/>
	<path style="fill:#6D6E70;" d="M94.18,75.131c-1.254-0.76-2.087-2.141-2.076-3.714l0.065-9.642
		c0.016-2.379,1.958-4.294,4.336-4.278c2.38,0.017,4.294,1.958,4.278,4.336l-0.065,9.642c-0.016,2.379-1.958,4.294-4.336,4.278
		C95.575,75.747,94.822,75.521,94.18,75.131z"/>
	<line style="fill:#808184;" x1="80.209" y1="66.044" x2="84.974" y2="74.427"/>
	<path style="fill:#808184;" d="M82.736,78.108c-0.607-0.368-1.131-0.891-1.507-1.552l-4.765-8.383
		c-1.176-2.068-0.452-4.697,1.615-5.873c2.068-1.175,4.698-0.451,5.873,1.616l4.765,8.382c1.175,2.069,0.452,4.698-1.616,5.873
		C85.696,78.972,84.028,78.892,82.736,78.108z"/>
	<line style="fill:#929497;" x1="68.242" y1="77.852" x2="76.559" y2="82.728"/>
	<path style="fill:#929497;" d="M66.007,81.533c-2.008-1.218-2.672-3.827-1.48-5.86c1.203-2.052,3.841-2.74,5.893-1.537l8.318,4.877
		c2.075,1.202,2.739,3.842,1.537,5.893c-1.204,2.052-3.842,2.74-5.894,1.537l-8.316-4.877
		C66.045,81.555,66.026,81.544,66.007,81.533z"/>
	<line style="fill:#A6A8AB;" x1="63.782" y1="94.06" x2="73.424" y2="94.124"/>
	<path style="fill:#A6A8AB;" d="M61.551,97.745c-1.253-0.76-2.086-2.141-2.076-3.713c0.015-2.38,1.957-4.294,4.335-4.279
		l9.642,0.064c2.379,0.016,4.294,1.957,4.278,4.335c-0.015,2.379-1.956,4.294-4.335,4.278l-9.642-0.064
		C62.948,98.361,62.194,98.135,61.551,97.745z"/>
	<line style="fill:#BBBDBF;" x1="68.023" y1="110.326" x2="76.405" y2="105.56"/>
	<path style="fill:#BBBDBF;" d="M65.786,114.007c-0.607-0.368-1.131-0.891-1.506-1.553c-1.176-2.067-0.453-4.697,1.615-5.872
		l8.382-4.765c2.068-1.176,4.697-0.454,5.873,1.615c1.175,2.068,0.452,4.697-1.616,5.873l-8.381,4.765
		C68.745,114.87,67.077,114.791,65.786,114.007z"/>
	<line style="fill:#D0D2D3;" x1="79.829" y1="122.293" x2="84.705" y2="113.975"/>
	<path style="fill:#D0D2D3;" d="M77.594,125.974c-2.008-1.218-2.673-3.827-1.48-5.859l4.877-8.318
		c1.202-2.052,3.841-2.74,5.893-1.537c2.072,1.217,2.74,3.841,1.537,5.894l-4.876,8.317c-1.203,2.052-3.842,2.74-5.894,1.537
		C77.631,125.997,77.612,125.986,77.594,125.974z"/>
	<line style="fill:#D0D2D3;" x1="96.037" y1="126.753" x2="96.101" y2="117.111"/>
	<path style="fill:#D0D2D3;" d="M93.806,130.438c-1.253-0.761-2.087-2.141-2.076-3.714l0.064-9.641
		c0.016-2.379,1.957-4.294,4.335-4.279c2.379,0.016,4.294,1.958,4.279,4.335l-0.064,9.642c-0.016,2.378-1.958,4.294-4.335,4.278
		C95.202,131.055,94.449,130.827,93.806,130.438z"/>
	<path style="fill:#D0D2D3;" d="M110.066,126.193c-0.606-0.368-1.131-0.891-1.506-1.552l-4.765-8.381
		c-1.176-2.068-0.453-4.698,1.615-5.873c2.068-1.177,4.698-0.453,5.873,1.615l4.765,8.382c1.176,2.068,0.453,4.698-1.615,5.873
		C113.025,127.056,111.358,126.977,110.066,126.193z"/>
	<line style="fill:#D0D2D3;" x1="124.27" y1="110.705" x2="115.953" y2="105.83"/>
	<path style="fill:#D0D2D3;" d="M113.718,109.512c-2.008-1.218-2.672-3.826-1.481-5.859c1.203-2.053,3.841-2.741,5.893-1.538
		l8.318,4.875c2.057,1.212,2.74,3.841,1.537,5.894c-1.202,2.052-3.841,2.741-5.893,1.538l-8.318-4.875
		C113.756,109.535,113.736,109.524,113.718,109.512z"/>
</g>
<g id="Layer_1">
</g>
</svg>
