<?xml version="1.0" encoding="iso-8859-1"?>
<!-- Generator: Adobe Illustrator 18.1.0, SVG Export Plug-In . SVG Version: 6.00 Build 0)  -->
<!DOCTYPE svg PUBLIC "-//W3C//DTD SVG 1.1//EN" "http://www.w3.org/Graphics/SVG/1.1/DTD/svg11.dtd">
<svg version="1.1" xmlns="http://www.w3.org/2000/svg" xmlns:xlink="http://www.w3.org/1999/xlink" x="0px" y="0px"
	 viewBox="0 0 166.766 231.341" style="enable-background:new 0 0 166.766 231.341;" xml:space="preserve">
<g id="computer_x5F_chip_x5F_hour_x5F_SM">
	<path style="fill:#E6E6E6;" d="M136.597,69.851h24.272c3.243,0,5.897,3.586,5.897,7.969c0,4.382-2.654,7.969-5.897,7.969h-24.272"
		/>
	<path style="fill:#E6E6E6;" d="M136.597,110.193h24.272c3.243,0,5.897,3.586,5.897,7.969c0,4.383-2.654,7.969-5.897,7.969h-24.272"
		/>
	<path style="fill:#E6E6E6;" d="M136.597,150.535h24.272c3.243,0,5.897,3.586,5.897,7.969s-2.654,7.969-5.897,7.969h-24.272"/>
	<path style="fill:#E6E6E6;" d="M1.209,30.714V6.005C1.209,2.701,4.731,0,9.037,0c4.305,0,7.826,2.701,7.826,6.005v24.709"/>
	<path style="fill:#E6E6E6;" d="M40.835,30.714V6.005C40.835,2.701,44.358,0,48.663,0c4.305,0,7.828,2.701,7.828,6.005v24.709"/>
	<path style="fill:#E6E6E6;" d="M80.462,30.714V6.005C80.462,2.701,83.984,0,88.289,0s7.828,2.701,7.828,6.005v24.709"/>
	<path style="fill:#E6E6E6;" d="M16.863,200.629v24.709c0,3.301-3.523,6.003-7.828,6.003c-4.305,0-7.826-2.701-7.826-6.003v-24.709"
		/>
	<path style="fill:#E6E6E6;" d="M56.49,200.629v24.709c0,3.301-3.523,6.003-7.828,6.003c-4.305,0-7.828-2.701-7.828-6.003v-24.709"
		/>
	<path style="fill:#E6E6E6;" d="M96.117,200.629v24.709c0,3.301-3.521,6.003-7.828,6.003c-4.305,0-7.828-2.701-7.828-6.003v-24.709"
		/>
	<path style="fill:#E6E6E6;" d="M104.985,68.454c0-3.715-2.482-6.754-5.513-6.754H-2.158c-3.031,0-5.513,3.039-5.513,6.754v95.394
		c0,3.715,2.482,6.756,5.513,6.756h101.63c3.031,0,5.513-3.041,5.513-6.756V68.454z M132.813,187.413
		c0,5.55-3.705,10.09-8.236,10.09h-151.84c-4.531,0-8.238-4.54-8.238-10.09V44.887c0-5.55,3.707-10.09,8.238-10.09h151.84
		c4.531,0,8.236,4.54,8.236,10.09V187.413z"/>
	<path style="fill-rule:evenodd;clip-rule:evenodd;fill:#E6E6E6;" d="M25.701,80.057h45.936v8.455
		c0,10.952-6.519,20.459-15.867,24.83c-0.925,0.432-1.482,1.307-1.481,2.328c0,1.021,0.557,1.895,1.481,2.327
		c9.349,4.371,15.867,13.879,15.867,24.831v8.455H25.701v-8.455c0-10.954,6.516-20.46,15.865-24.832
		c0.925-0.432,1.481-1.306,1.481-2.327c0-1.021-0.556-1.895-1.481-2.328c-9.348-4.371-15.865-13.876-15.865-24.83V80.057
		L25.701,80.057z M31.59,85.946h34.159v2.566c0,4.585-1.478,8.937-4.056,12.516H48.669H35.643c-2.577-3.579-4.053-7.93-4.053-12.516
		V85.946L31.59,85.946z M48.668,117.8c0.619,2.408,2.275,4.441,4.608,5.532c7.549,3.53,12.473,11.127,12.473,19.497v2.566h-1.405
		l-11.986-7.45c-2.314-1.438-5.063-1.438-7.377,0l-11.986,7.45H31.59v-2.566c0-8.371,4.92-15.967,12.47-19.497
		C46.393,122.241,48.05,120.209,48.668,117.8L48.668,117.8z"/>
	<path style="fill-rule:evenodd;clip-rule:evenodd;fill:#E6E6E6;" d="M23.973,150.648h49.392c2.163,0,3.926,1.763,3.926,3.926v0.554
		c0,2.163-1.763,3.926-3.926,3.926H23.973c-2.163,0-3.926-1.763-3.926-3.926v-0.554C20.047,152.411,21.81,150.648,23.973,150.648
		L23.973,150.648z M23.973,72.287h49.392c2.163,0,3.926,1.763,3.926,3.926v0.554c0,2.163-1.763,3.926-3.926,3.926H23.973
		c-2.163,0-3.926-1.763-3.926-3.926v-0.554C20.047,74.05,21.81,72.287,23.973,72.287L23.973,72.287z"/>
</g>
<g id="Layer_1">
</g>
</svg>
