<?xml version="1.0" encoding="iso-8859-1"?>
<!-- Generator: Adobe Illustrator 18.1.0, SVG Export Plug-In . SVG Version: 6.00 Build 0)  -->
<!DOCTYPE svg PUBLIC "-//W3C//DTD SVG 1.1//EN" "http://www.w3.org/Graphics/SVG/1.1/DTD/svg11.dtd">
<svg version="1.1" xmlns="http://www.w3.org/2000/svg" xmlns:xlink="http://www.w3.org/1999/xlink" x="0px" y="0px"
	 viewBox="0 0 140.88 259.049" style="enable-background:new 0 0 140.88 259.049;" xml:space="preserve">
<g id="computer_x5F_chip_x5F_loading_x5F_LG">
	<g>
		<path style="fill:#E6E6E6;" d="M79.097,34.392V6.724C79.097,3.025,83.042,0,87.862,0c4.821,0,8.763,3.025,8.763,6.724v27.669"/>
		<path style="fill:#E6E6E6;" d="M123.469,34.392V6.724c0-3.699,3.945-6.724,8.765-6.724C137.056,0,141,3.025,141,6.724v27.669"/>
		<path style="fill:#E6E6E6;" d="M96.626,224.659v27.669c0,3.697-3.945,6.722-8.765,6.722c-4.821,0-8.763-3.025-8.763-6.722v-27.669
			"/>
		<path style="fill:#E6E6E6;" d="M140.999,224.659v27.669c0,3.697-3.945,6.722-8.765,6.722c-4.821,0-8.766-3.025-8.766-6.722
			v-27.669"/>
		<path style="fill:#E6E6E6;" d="M33.782,96.064H6.603C2.972,96.064,0,92.049,0,87.14c0-4.909,2.972-8.924,6.603-8.924h27.179"/>
		<path style="fill:#E6E6E6;" d="M33.782,141.237H6.603c-3.631,0-6.603-4.015-6.603-8.924c0-4.906,2.972-8.924,6.603-8.924h27.179"
			/>
		<path style="fill:#E6E6E6;" d="M33.782,186.411H6.603c-3.631,0-6.603-4.015-6.603-8.924c0-4.909,2.972-8.924,6.603-8.924h27.179"
			/>
		<path style="fill:#E6E6E6;" d="M195.302,76.652c0-4.16-2.779-7.563-6.173-7.563H75.327c-3.394,0-6.173,3.403-6.173,7.563v106.819
			c0,4.16,2.779,7.565,6.173,7.565h113.802c3.394,0,6.173-3.405,6.173-7.565V76.652z M226.463,209.86
			c0,6.215-4.149,11.299-9.222,11.299H47.215c-5.073,0-9.224-5.084-9.224-11.299V50.264c0-6.215,4.151-11.299,9.224-11.299h170.026
			c5.073,0,9.222,5.084,9.222,11.299V209.86z"/>
	</g>
	<line style="fill:#6D6E70;" x1="132.544" y1="84.909" x2="132.454" y2="98.157"/>
	<path style="fill:#6D6E70;" d="M129.39,103.219c-1.723-1.045-2.867-2.942-2.852-5.102l0.09-13.247
		c0.022-3.268,2.689-5.9,5.957-5.878c3.269,0.023,5.899,2.69,5.877,5.957l-0.09,13.247c-0.022,3.269-2.689,5.899-5.957,5.877
		C131.307,104.066,130.272,103.755,129.39,103.219z"/>
	<line style="fill:#808184;" x1="110.195" y1="90.735" x2="116.741" y2="102.252"/>
	<path style="fill:#808184;" d="M113.668,107.309c-0.834-0.506-1.554-1.224-2.07-2.132l-6.546-11.517
		c-1.616-2.841-0.621-6.453,2.218-8.068c2.841-1.615,6.454-0.62,8.069,2.22l6.547,11.516c1.615,2.842,0.621,6.454-2.22,8.069
		C117.733,108.496,115.442,108.386,113.668,107.309z"/>
	<line style="fill:#929497;" x1="93.755" y1="106.957" x2="105.181" y2="113.657"/>
	<path style="fill:#929497;" d="M90.684,112.015c-2.759-1.673-3.671-5.258-2.033-8.051c1.653-2.819,5.278-3.765,8.096-2.111
		l11.427,6.7c2.851,1.652,3.763,5.278,2.111,8.096c-1.654,2.819-5.278,3.765-8.098,2.112l-11.425-6.7
		C90.736,112.045,90.709,112.03,90.684,112.015z"/>
	<line style="fill:#A6A8AB;" x1="87.627" y1="129.225" x2="100.874" y2="129.313"/>
	<path style="fill:#A6A8AB;" d="M84.563,134.287c-1.722-1.045-2.866-2.942-2.852-5.101c0.021-3.269,2.688-5.9,5.955-5.879
		l13.246,0.088c3.268,0.022,5.9,2.689,5.877,5.956c-0.021,3.268-2.688,5.9-5.955,5.878l-13.246-0.088
		C86.481,135.134,85.445,134.823,84.563,134.287z"/>
	<line style="fill:#BBBDBF;" x1="93.454" y1="151.572" x2="104.969" y2="145.024"/>
	<path style="fill:#BBBDBF;" d="M90.38,156.629c-0.834-0.505-1.553-1.224-2.069-2.133c-1.615-2.84-0.622-6.452,2.218-8.068
		l11.515-6.547c2.841-1.616,6.453-0.624,8.069,2.219c1.615,2.841,0.621,6.454-2.22,8.068l-11.514,6.546
		C94.445,157.815,92.155,157.706,90.38,156.629z"/>
	<line style="fill:#D0D2D3;" x1="109.673" y1="168.012" x2="116.373" y2="156.585"/>
	<path style="fill:#D0D2D3;" d="M106.603,173.07c-2.758-1.673-3.672-5.258-2.033-8.05l6.7-11.427
		c1.652-2.82,5.278-3.764,8.097-2.112c2.847,1.672,3.764,5.278,2.111,8.097l-6.7,11.427c-1.653,2.82-5.278,3.764-8.097,2.111
		C106.654,173.101,106.627,173.086,106.603,173.07z"/>
	<line style="fill:#D0D2D3;" x1="131.941" y1="174.139" x2="132.029" y2="160.894"/>
	<path style="fill:#D0D2D3;" d="M128.876,179.203c-1.722-1.045-2.867-2.942-2.852-5.102l0.088-13.245
		c0.022-3.268,2.689-5.9,5.956-5.878c3.268,0.022,5.9,2.689,5.878,5.956l-0.088,13.246c-0.022,3.268-2.689,5.899-5.955,5.877
		C130.794,180.05,129.759,179.738,128.876,179.203z"/>
</g>
<g id="Layer_1">
</g>
</svg>
