<?xml version="1.0" encoding="iso-8859-1"?>
<!-- Generator: Adobe Illustrator 18.1.0, SVG Export Plug-In . SVG Version: 6.00 Build 0)  -->
<!DOCTYPE svg PUBLIC "-//W3C//DTD SVG 1.1//EN" "http://www.w3.org/Graphics/SVG/1.1/DTD/svg11.dtd">
<svg version="1.1" id="Layer_1" xmlns="http://www.w3.org/2000/svg" xmlns:xlink="http://www.w3.org/1999/xlink" x="0px" y="0px"
	 viewBox="0 0 131.034 131.034" style="enable-background:new 0 0 131.034 131.034;" xml:space="preserve">
<g>
	<path d="M110.118,42.276h12.312c1.645,0,2.991,1.819,2.991,4.042c0,2.223-1.346,4.042-2.991,4.042h-12.312"/>
	<path d="M110.118,62.739h12.312c1.645,0,2.991,1.819,2.991,4.042c0,2.224-1.346,4.042-2.991,4.042h-12.312"/>
	<path d="M110.118,83.202h12.312c1.645,0,2.991,1.819,2.991,4.042s-1.346,4.042-2.991,4.042h-12.312"/>
	<path d="M41.443,22.423V9.89c0-1.676,1.787-3.046,3.971-3.046c2.184,0,3.97,1.37,3.97,3.046v12.534"/>
	<path d="M61.543,22.423V9.89c0-1.676,1.787-3.046,3.971-3.046c2.184,0,3.971,1.37,3.971,3.046v12.534"/>
	<path d="M81.644,22.423V9.89c0-1.676,1.787-3.046,3.971-3.046c2.184,0,3.971,1.37,3.971,3.046v12.534"/>
	<path d="M49.384,108.612v12.534c0,1.675-1.787,3.045-3.971,3.045c-2.184,0-3.97-1.37-3.97-3.045v-12.534"/>
	<path d="M69.484,108.612v12.534c0,1.675-1.787,3.045-3.971,3.045c-2.184,0-3.971-1.37-3.971-3.045v-12.534"/>
	<path d="M89.585,108.612v12.534c0,1.675-1.786,3.045-3.971,3.045c-2.184,0-3.971-1.37-3.971-3.045v-12.534"/>
	<path d="M20.916,50.36H8.604c-1.645,0-2.991-1.819-2.991-4.042s1.346-4.042,2.991-4.042h12.312"/>
	<path d="M20.916,70.823H8.604c-1.645,0-2.991-1.819-2.991-4.042c0-2.223,1.346-4.042,2.991-4.042h12.312"/>
	<path d="M20.916,91.286H8.604c-1.645,0-2.991-1.819-2.991-4.042s1.346-4.042,2.991-4.042h12.312"/>
	<path d="M94.083,41.567c0-1.884-1.259-3.426-2.796-3.426H39.736c-1.537,0-2.796,1.541-2.796,3.426v48.388
		c0,1.884,1.259,3.427,2.796,3.427h51.551c1.537,0,2.796-1.542,2.796-3.427V41.567z M108.199,101.908
		c0,2.815-1.879,5.118-4.178,5.118h-77.02c-2.298,0-4.179-2.303-4.179-5.118V29.613c0-2.815,1.88-5.118,4.179-5.118h77.02
		c2.298,0,4.178,2.303,4.178,5.118V101.908z"/>
</g>
</svg>
