<?xml version="1.0" encoding="iso-8859-1"?>
<!-- Generator: Adobe Illustrator 18.1.0, SVG Export Plug-In . SVG Version: 6.00 Build 0)  -->
<!DOCTYPE svg PUBLIC "-//W3C//DTD SVG 1.1//EN" "http://www.w3.org/Graphics/SVG/1.1/DTD/svg11.dtd">
<svg version="1.1" xmlns="http://www.w3.org/2000/svg" xmlns:xlink="http://www.w3.org/1999/xlink" x="0px" y="0px"
	 viewBox="0 0 283.827 269.29" style="enable-background:new 0 0 283.827 269.29;" xml:space="preserve">
<g id="computer_x5F_chip_x5F_hour_x5F_LG">
	<g>
		<path style="fill:#E6E6E6;" d="M239.822,81.31h28.253c3.774,0,6.864,4.174,6.864,9.276c0,5.1-3.09,9.276-6.864,9.276h-28.253"/>
		<path style="fill:#E6E6E6;" d="M239.822,128.269h28.253c3.774,0,6.864,4.174,6.864,9.276s-3.09,9.276-6.864,9.276h-28.253"/>
		<path style="fill:#E6E6E6;" d="M239.822,175.228h28.253c3.774,0,6.864,4.174,6.864,9.276s-3.09,9.276-6.864,9.276h-28.253"/>
		<path style="fill:#E6E6E6;" d="M82.224,35.752V6.99c0-3.845,4.101-6.99,9.112-6.99c5.011,0,9.11,3.145,9.11,6.99v28.762"/>
		<path style="fill:#E6E6E6;" d="M128.35,35.752V6.99c0-3.845,4.101-6.99,9.112-6.99s9.112,3.145,9.112,6.99v28.762"/>
		<path style="fill:#E6E6E6;" d="M174.477,35.752V6.99c0-3.845,4.101-6.99,9.112-6.99c5.011,0,9.112,3.145,9.112,6.99v28.762"/>
		<path style="fill:#E6E6E6;" d="M100.446,233.54v28.762c0,3.843-4.101,6.987-9.112,6.987c-5.011,0-9.11-3.145-9.11-6.987V233.54"/>
		<path style="fill:#E6E6E6;" d="M146.574,233.54v28.762c0,3.843-4.101,6.987-9.112,6.987c-5.011,0-9.112-3.145-9.112-6.987V233.54"
			/>
		<path style="fill:#E6E6E6;" d="M192.7,233.54v28.762c0,3.843-4.098,6.987-9.112,6.987c-5.011,0-9.112-3.145-9.112-6.987V233.54"/>
		<path style="fill:#E6E6E6;" d="M35.118,99.862H6.864C3.09,99.862,0,95.688,0,90.585s3.09-9.276,6.864-9.276h28.253"/>
		<path style="fill:#E6E6E6;" d="M35.118,146.821H6.864c-3.774,0-6.864-4.174-6.864-9.276c0-5.1,3.09-9.276,6.864-9.276h28.253"/>
		<path style="fill:#E6E6E6;" d="M35.118,193.78H6.864C3.09,193.78,0,189.606,0,184.504s3.09-9.276,6.864-9.276h28.253"/>
		<path style="fill:#E6E6E6;" d="M203.023,79.683c0-4.324-2.889-7.861-6.417-7.861H78.305c-3.528,0-6.417,3.537-6.417,7.861v111.042
			c0,4.324,2.889,7.864,6.417,7.864h118.301c3.528,0,6.417-3.539,6.417-7.864V79.683z M235.416,218.157
			c0,6.46-4.313,11.745-9.587,11.745H49.082c-5.274,0-9.589-5.285-9.589-11.745V52.251c0-6.46,4.315-11.745,9.589-11.745H225.83
			c5.274,0,9.587,5.285,9.587,11.745V218.157z"/>
	</g>
	<path style="fill-rule:evenodd;clip-rule:evenodd;fill:#E6E6E6;" d="M110.734,93.19h53.472v9.842
		c0,12.749-7.588,23.815-18.47,28.904c-1.077,0.503-1.725,1.521-1.724,2.71c0,1.189,0.648,2.205,1.724,2.708
		c10.882,5.088,18.47,16.156,18.47,28.904v9.842h-53.472v-9.842c0-12.751,7.585-23.817,18.467-28.905
		c1.077-0.503,1.724-1.52,1.724-2.708c0-1.189-0.648-2.205-1.724-2.709c-10.882-5.088-18.467-16.153-18.467-28.904V93.19
		L110.734,93.19z M117.588,100.045h39.763v2.987c0,5.338-1.721,10.403-4.721,14.569h-15.16h-15.163
		c-2.999-4.166-4.718-9.231-4.718-14.569V100.045L117.588,100.045z M137.468,137.124c0.72,2.803,2.648,5.169,5.364,6.439
		c8.787,4.109,14.519,12.952,14.519,22.695v2.987h-1.636l-13.953-8.672c-2.694-1.674-5.893-1.674-8.587,0l-13.952,8.672h-1.635
		v-2.987c0-9.744,5.727-18.586,14.516-22.696C134.82,142.294,136.749,139.928,137.468,137.124L137.468,137.124z"/>
	<path style="fill-rule:evenodd;clip-rule:evenodd;fill:#E6E6E6;" d="M108.722,175.361h57.495c2.517,0,4.57,2.052,4.57,4.57v0.645
		c0,2.517-2.052,4.57-4.57,4.57h-57.495c-2.517,0-4.57-2.052-4.57-4.57v-0.645C104.153,177.413,106.205,175.361,108.722,175.361
		L108.722,175.361z M108.722,84.145h57.495c2.517,0,4.57,2.052,4.57,4.57v0.644c0,2.517-2.052,4.57-4.57,4.57h-57.495
		c-2.517,0-4.57-2.052-4.57-4.57v-0.644C104.153,86.197,106.205,84.145,108.722,84.145L108.722,84.145z"/>
	<polyline style="fill:#FFFFFF;" points="222,36.29 222,89.948 284,152.443 284,36.29 222,36.29 222,36.29 	"/>
</g>
<g id="Layer_1">
</g>
</svg>
