<?xml version="1.0" encoding="iso-8859-1"?>
<!-- Generator: Adobe Illustrator 18.1.0, SVG Export Plug-In . SVG Version: 6.00 Build 0)  -->
<!DOCTYPE svg PUBLIC "-//W3C//DTD SVG 1.1//EN" "http://www.w3.org/Graphics/SVG/1.1/DTD/svg11.dtd">
<svg version="1.1" xmlns="http://www.w3.org/2000/svg" xmlns:xlink="http://www.w3.org/1999/xlink" x="0px" y="0px"
	 viewBox="0 0 404.98 404.98" style="enable-background:new 0 0 404.98 404.98;" xml:space="preserve">
	<g id="circle_x5F_data">
		<circle style="opacity:0.74;fill:#B3B3B3;" cx="202.49" cy="202.49" r="202.49"/>
		<path style="fill:#E6E6E6;" d="M282.928,127.355c-17.633,0-31.92,14.294-31.92,31.922c0,9.028,3.751,17.173,9.778,22.98
			l-46.408,48.352c-3.576-1.761-7.602-2.757-11.863-2.757c-3.079,0-6.036,0.525-8.792,1.478l-14.821-37.771
			c6.545-4.204,10.885-11.545,10.885-19.904c0-13.059-10.586-23.646-23.644-23.646c-13.06,0-23.649,10.587-23.649,23.646
			c0,4.11,1.05,7.977,2.897,11.342l-32.436,35.323c-1.802-0.646-3.732-1.013-5.755-1.013c-9.426,0-17.071,7.642-17.071,17.071
			c0,9.431,7.645,17.073,17.071,17.073c9.431,0,17.076-7.642,17.076-17.073c0-4.217-1.538-8.071-4.072-11.05l30.782-33.523
			c4.105,3.428,9.388,5.494,15.156,5.494c1.337,0,2.648-0.117,3.932-0.33l15.322,39.04c-5.96,4.929-9.758,12.383-9.758,20.72
			c0,14.843,12.036,26.877,26.877,26.877c14.844,0,26.88-12.034,26.88-26.877c0-7.146-2.797-13.637-7.346-18.45l46.537-48.486
			c4.313,2.174,9.181,3.406,14.342,3.406c17.629,0,31.922-14.293,31.922-31.924C314.85,141.649,300.557,127.355,282.928,127.355z"/>
	</g>
</svg>
