<svg version="1.1" id="Layer_1" xmlns="http://www.w3.org/2000/svg" xmlns:xlink="http://www.w3.org/1999/xlink" x="0px" y="0px"
	 viewBox="0 0 200 200" enable-background="new 0 0 200 200" xml:space="preserve">
		<g transform="matrix( 1, 0, 0, 1, -515.2,-51.1) ">
			<g>
				<g id="Layer0_0_FILL">
					<path fill="#CCCCCC" d="M564.3,212.5l0.1-1c-1.7,0.3-3.2,1.2-4.4,2.7c-1.2,1.4-1.8,3.1-1.8,5c0,2.2,0.7,4,2.2,5.5
						c0.7,0.8,1.5,1.3,2.4,1.7c0.9,0.4,1.9,0.6,2.9,0.6c2.1,0,3.8-0.8,5.3-2.3c1.5-1.5,2.2-3.3,2.2-5.5c0-1.8-0.5-3.5-1.6-4.9
						c-1.1-1.4-2.5-2.3-4.2-2.7l-0.1,0.9c1.5,0.4,2.6,1.2,3.6,2.4c1,1.3,1.4,2.7,1.4,4.3c0,1.9-0.6,3.5-1.9,4.8c-1.3,1.3-2.8,2-4.6,2
						c-1.8,0-3.4-0.7-4.7-2c-1.3-1.3-1.9-3-1.9-4.8c0-1.6,0.5-3.1,1.5-4.3C561.6,213.6,562.8,212.8,564.3,212.5 M707.4,187.1l0.3,0.1
						c0.1-0.2,0.2-0.3,0.2-0.5c-0.1,0.2-0.1,0.4-0.2,0.5L707.4,187.1 M654,171.3c-0.2-0.2-0.3-0.3-0.5-0.5l-4.5-1.4
						c1.2,0.8,2.4,1.9,3.6,3.1c1.3,1.4,2.3,2.8,3.2,4.3c0.5,0.8,0.9,1.7,1.2,2.6h-2.1c-1.6,0-3,0.6-4.1,1.8c-1.2,1.2-1.8,2.7-1.8,4.4
						v4.4h0.1l-0.2,11.9c0.2,8.7,1.1,14.9,2.7,18.7l1,2c0.2,0.3,0.3,0.5,0.5,0.7c0.8,1.1,1.7,2,2.7,2.6c-0.7-0.1-1.6-0.4-2.4-0.7v-0.6
						c0-0.3-0.2-0.5-0.5-0.6l-2.3-1.2c-0.2-0.1-0.4-0.1-0.5-0.2c-0.4,0-0.7,0.1-0.9,0.5l-0.7,1.9c-0.1,0.6,0.1,1,0.9,1.2l2.6,0.7
						c0.5,0.1,0.9-0.1,1.1-0.6c2.1,0.8,3.9,1,5.5,0.7c1.7,0.4,3.5,0.1,5.5-0.7c0.3,0.5,0.7,0.7,1.1,0.6l2.6-0.7
						c0.4-0.1,0.6-0.2,0.7-0.4c0.1-0.2,0.2-0.4,0.1-0.7l-0.6-1.9c-0.2-0.4-0.5-0.5-0.9-0.5l-0.6,0.2l-2.3,1.2
						c-0.4,0.2-0.6,0.6-0.4,1.2c-1,0.4-1.8,0.6-2.4,0.7c1.2-0.8,2.3-1.9,3.1-3.4l1-2c1.6-3.8,2.4-10.1,2.7-18.7l-0.2-11.9h0.1v-4.4
						c0-0.7-0.1-1.4-0.3-2c-1.2-1.3-2.4-2.6-3.7-3.9c-0.6-0.2-1.2-0.3-1.9-0.3h-2.4c-0.6-1.9-1.5-3.6-2.7-5.3
						C655.8,173.2,654.9,172.3,654,171.3 M664.7,182.5c0.9,0.9,1.3,2,1.3,3.4v4.3h0.2c0.1,1.8,0.1,3.5,0.2,5.2
						c0.3,11.7-0.6,20-2.4,24.9l-1.3,2.5c-1.2,1.7-2.7,2.8-4.4,3.2c-1.7-0.4-3.1-1.5-4.4-3.2l-1.3-2.5c-1.3-3.6-2.1-9.2-2.4-16.9
						c-0.1-4.6-0.1-9,0.2-13.2h0.2v-4.3c0-1.3,0.4-2.4,1.3-3.4c0.9-0.9,2-1.4,3.2-1.4h6.5C662.7,181.1,663.8,181.6,664.7,182.5
						 M685.3,80.3c-9.2-9.2-19.8-16.3-31.8-21.4c-0.1,0-0.2-0.1-0.3-0.2l-6.8-2.6c-0.8-0.2-1.6-0.4-2.3-0.7c5.1,1.6,10.1,3.7,14.9,6.2
						v0.1c-10.2-3.4-20.7-5.1-31.5-5.1c-13.5,0-26.4,2.6-38.7,7.8c-11.9,5-22.4,12.1-31.6,21.3c-9.2,9.2-16.3,19.7-21.3,31.6
						c-5.2,12.3-7.8,25.3-7.8,38.7c0,16.8,3.9,32.3,11.7,46.8c0.7-2.9,1.5-5.9,2.3-8.9l2.7-8.6c1.3-3.3,3.4-5.7,6.3-7l3.9-1
						c0.5,0,9.3-2.8,26.3-8.3c-1,1.2-2,2.4-2.9,3.6c-5.2,7.1-9.1,15.4-11.4,25.1c-1.2,5-2,9.9-2.3,14.7c-0.1,1.3-0.1,2.6-0.2,3.9
						c-1.1,0.5-1.6,1.5-1.6,2.8c0,0.9,0.3,1.6,0.9,2.2c0.6,0.6,1.3,0.9,2.1,0.9c0.8,0,1.5-0.3,2.1-0.9c0.6-0.6,0.9-1.3,0.9-2.2
						c0-0.6-0.2-1.2-0.5-1.8c-0.4-0.5-0.8-0.9-1.3-1.1c0-1.5,0-3.1,0.1-4.7c0.3-4.4,1-9,2.2-13.8c1.3-5,3-9.7,5.1-14
						c0.1-0.2,0.2-0.5,0.3-0.7c1.6-3.2,3.4-6.1,5.4-8.9c0.9-1.2,1.8-2.4,2.8-3.5c0.8-1,1.7-1.9,2.6-2.8c0.9-0.7,1.9-1.5,3-2.3
						c2.2-1.6,3.7-2.6,4.5-2.8l-3.4,7.5c-2.5,6.1-4.5,12-5.9,17.6l4.6,1.2c3.5,1,6.6,2.1,9.2,3.2L594,194c-2.6,1.6-4.8,3.4-6.6,5.3
						l3.4,2.7c2.7,2.4,5.3,5.1,7.8,8c6,7,10.5,14.6,13.6,22.7c1,2.7,1.9,5.4,2.6,8.2c0.7-2.8,1.5-5.5,2.6-8.2c3-8,7.6-15.6,13.7-22.7
						c4-4.7,7.7-8.3,11.1-10.7c-1.8-1.9-4-3.7-6.6-5.3l-3.4-1.9c4-1.8,8.6-3.3,13.7-4.4c-1.3-5.6-3.3-11.4-5.8-17.4
						c-1.8-4-2.9-6.5-3.2-7.3c-1-0.3-2-0.5-2.9-0.4l0.1,0.3v0.1c-0.1,1-0.4,1.8-0.9,2.3l-15.4,10.4c2.4,1.9,4.1,3.7,5,5.4
						c-1.2,1.6-2.3,3.6-3.2,6c-0.5,1.2-0.8,2.2-1.1,3.1v3.6l2.8,7.9l0.6,17.3l-2.4,5.4c-1.3,3-2.4,5.7-3.4,8.1
						c-0.4,1.1-0.8,2.1-1.1,3.1c-0.3-1-0.7-2.1-1.2-3.2c-0.9-2.4-2-5.1-3.2-8l-2.4-5.4l0.7-17.3l2.8-7.9v-3.6c-1-3.4-2.4-6.5-4.3-9.1
						c0.9-1.7,2.6-3.5,4.9-5.4l-15.5-10.4c-0.5-0.5-0.8-1.3-0.9-2.3v-0.1l1.2-15.4c-2.2-4.2-3.8-8.8-4.8-13.9
						c-0.3,0.2-0.7,0.3-1.1,0.2c-0.9-0.2-1.6-1-2.1-2.6c-1.1-2.9-1.8-6.2-2.2-9.7c-0.6-4.6,0.1-6.5,2.1-5.7l-1.6-17.2
						c0-1,0.2-2.1,0.6-3.5c0.7-2.6,2.1-4.6,4-6c0.9-0.6,1.8-2.4,2.8-5.4c1.9-2.9,5.6-4.9,11.3-6c0.2,0,0.1-0.1-0.1-0.2
						c-0.4-0.1-0.7-0.3-0.9-0.4c-1.2-0.9-1.7-1.3-1.4-1.1c0.1,0,0.5,0.2,1.4,0.5c1,0.4,1.8,0.6,2.6,0.6l1.3,0.1c0.1,0,0.1,0,0-0.1
						c-0.4-0.2-0.8-0.4-1.1-0.7c-0.6-0.5-1.1-1.1-1.6-2c-0.6-1.1-0.7-1.4-0.3-0.9c0.2,0.4,1,0.8,2.1,1.2c1.2,0.5,2.3,0.8,3.1,0.8
						l4.4,0.1c3.6,0,6.9,0.5,9.7,1.4c0.7,0.2,1.3,0.4,2,0.7c1.7,0.7,3.5,1.7,5.2,3l77.7,40c-0.9-2.9-2-5.7-3.1-8.5
						C701.6,100.1,694.5,89.5,685.3,80.3z"/>
					<path fill="#B3B3B3" d="M690.7,215.6c-0.3,0.4-0.7,0.8-1,1.2c0,0,0,0.1,0,0.1L690.7,215.6 M665.8,181.3c-0.7-0.7-1.4-1.2-2.3-1.5
						c1.3,1.3,2.5,2.6,3.7,3.9C667,182.8,666.5,182,665.8,181.3z"/>
				</g>
			</g>
		</g>
		<g transform="matrix( 1, 0, 0, 1, -515.2,-51.1) ">
			<g>
				<g id="Layer0_1_FILL">
					<path d="M605.6,73.4c-0.4-0.5-0.2-0.2,0.3,0.9c0.5,0.9,1,1.6,1.6,2c0.4,0.3,0.7,0.5,1.1,0.7c0.1,0.1,0.1,0.1,0,0.1l-1.3-0.1
						c-0.8-0.1-1.6-0.3-2.6-0.6c-0.9-0.3-1.3-0.5-1.4-0.5c-0.3-0.1,0.2,0.2,1.4,1.1c0.2,0.1,0.5,0.3,0.9,0.4c0.2,0.1,0.3,0.1,0.1,0.2
						c-5.6,1-9.4,3-11.3,6c-1,3-2,4.8-2.8,5.4c-2,1.5-3.3,3.5-4,6c-0.4,1.3-0.6,2.5-0.6,3.5l1.6,17.2c-2-0.7-2.6,1.2-2.1,5.7
						c0.4,3.5,1.2,6.8,2.2,9.7c0.5,1.5,1.2,2.4,2.1,2.6c0.4,0.1,0.8,0,1.1-0.2c1,5.1,2.6,9.8,4.8,13.9l-1.2,15.4v0.1
						c0.1,1,0.4,1.8,0.9,2.3l15.5,10.4c-2.4,1.9-4,3.7-4.9,5.4c1.9,2.6,3.3,5.7,4.3,9.1v3.6l-2.8,7.9l-0.7,17.3l2.4,5.4
						c1.3,2.9,2.3,5.6,3.2,8c0.4,1.1,0.8,2.2,1.2,3.2c0.3-1,0.7-2,1.1-3.1c1-2.5,2.1-5.2,3.4-8.1l2.4-5.4l-0.6-17.3l-2.8-7.9v-3.6
						c0.2-0.9,0.6-1.9,1.1-3.1c1-2.4,2-4.4,3.2-6c-0.9-1.7-2.6-3.5-5-5.4l15.4-10.4c0.5-0.5,0.8-1.3,0.9-2.3v-0.1l-1.3-15.4
						c2.2-4.2,3.8-8.8,4.8-13.9c1.3,0.7,2.4-0.1,3.2-2.2c1.1-3,1.9-6.3,2.3-9.8c0.6-4.6-0.1-6.5-2.1-5.8l1.6-17.2
						c0.1-2.3-0.3-4.7-1.2-7c-0.5-1.4-1.1-2.4-1.8-3c-0.4-0.4-0.9-0.7-1.6-0.9c-0.4-0.1-0.7-0.5-0.7-1c0-0.9-0.4-1.8-1.1-2.6
						c-0.5-0.7-1.5-1.6-2.9-2.7c-0.3-0.2-0.6-0.5-0.9-0.7c-1.7-1.3-3.4-2.3-5.2-3c-0.6-0.3-1.3-0.5-2-0.7c-2.9-0.9-6.1-1.4-9.7-1.4
						l-4.4-0.1c-0.9,0-1.9-0.3-3.1-0.8C606.6,74.2,605.9,73.7,605.6,73.4 M666,185.9c0-1.3-0.4-2.4-1.3-3.4c-0.9-0.9-2-1.4-3.2-1.4
						H655c-1.2,0-2.3,0.5-3.2,1.4c-0.9,0.9-1.3,2-1.3,3.4v4.3h-0.2c-0.2,4.1-0.3,8.5-0.2,13.2c0.2,7.7,1,13.3,2.4,16.9l1.3,2.5
						c1.2,1.7,2.7,2.8,4.4,3.2c1.7-0.4,3.2-1.5,4.4-3.2l1.3-2.5c1.9-4.9,2.7-13.2,2.4-24.9c0-1.6-0.1-3.4-0.2-5.2H666V185.9
						 M657.2,172c-1.2-0.4-2.5-0.8-3.9-1.2c0,0,0.1,0.1,0.1,0.1c0.2,0.2,0.4,0.3,0.5,0.5c1,0.9,1.8,1.9,2.6,2.9c1.2,1.6,2,3.4,2.7,5.3
						h2.4c0.7,0,1.3,0.1,1.9,0.3c0.8,0.3,1.6,0.8,2.3,1.5c0.7,0.7,1.2,1.5,1.4,2.4c0.2,0.6,0.3,1.3,0.3,2v4.4h-0.1l0.2,11.9
						c-0.2,8.7-1.1,14.9-2.7,18.7l-1,2c-0.9,1.5-1.9,2.6-3.1,3.4c0.6-0.1,1.5-0.4,2.4-0.7c-0.1-0.6,0-1,0.4-1.2l2.3-1.2l0.6-0.2
						c0.4,0,0.7,0.1,0.9,0.5l0.6,1.9c0.1,0.3,0,0.5-0.1,0.7c-0.1,0.2-0.4,0.3-0.7,0.4l-2.6,0.7c-0.4,0.1-0.7-0.1-1.1-0.6
						c-2,0.8-3.9,1-5.5,0.7c-1.6,0.4-3.5,0.1-5.5-0.7c-0.2,0.5-0.5,0.7-1.1,0.6l-2.6-0.7c-0.7-0.2-1-0.6-0.9-1.2l0.7-1.9
						c0.1-0.4,0.4-0.5,0.9-0.5c0.2,0,0.4,0.1,0.5,0.2l2.3,1.2c0.3,0.1,0.4,0.3,0.5,0.6v0.6c0.9,0.4,1.7,0.6,2.4,0.7
						c-1-0.6-1.9-1.5-2.7-2.6c-0.2-0.2-0.3-0.5-0.5-0.7l-1-2c-1.6-3.8-2.5-10.1-2.7-18.7l0.2-11.9h-0.1v-4.4c0-1.7,0.6-3.2,1.8-4.4
						c1.1-1.2,2.5-1.8,4.1-1.8h2.1c-0.3-0.9-0.8-1.8-1.2-2.6c-0.9-1.5-1.9-2.9-3.2-4.3c-1.2-1.3-2.4-2.3-3.6-3.1
						c-0.1-0.1-0.3-0.1-0.4-0.2l-4.5-1.5c-3.7-3.1-6.2-4.8-7.5-5.1c0,0,0.1,0.1,0.2,0.3c0.4,0.9,1.5,3.3,3.2,7.3
						c2.5,6.1,4.5,11.9,5.8,17.4c-5.1,1.1-9.6,2.6-13.7,4.4l3.4,1.9c2.6,1.6,4.8,3.4,6.6,5.3c-3.3,2.4-7,6-11.1,10.7
						c-6.1,7.1-10.6,14.7-13.7,22.7c-1,2.7-1.9,5.4-2.6,8.2c-0.7-2.8-1.5-5.6-2.6-8.2c-3-8.1-7.6-15.6-13.6-22.7
						c-2.5-2.9-5.1-5.6-7.8-8l-3.4-2.7c1.8-1.9,4-3.7,6.6-5.3l3.4-1.9c-2.6-1.1-5.6-2.2-9.2-3.2l-4.6-1.2c1.4-5.6,3.3-11.5,5.9-17.6
						l3.4-7.5c-0.8,0.2-2.3,1.1-4.5,2.8c-1.1,0.8-2.1,1.6-3,2.3c-0.9,0.9-1.8,1.9-2.6,2.8c-1,1.1-1.9,2.3-2.8,3.5
						c-2,2.8-3.8,5.8-5.4,8.9c-0.1,0.2-0.2,0.5-0.3,0.7c-2.1,4.3-3.8,9-5.1,14c-1.2,4.9-1.9,9.5-2.2,13.8c-0.1,1.6-0.1,3.2-0.1,4.7
						c0.5,0.2,1,0.6,1.3,1.1c0.3,0.5,0.5,1.1,0.5,1.8c0,0.9-0.3,1.6-0.9,2.2c-0.6,0.6-1.3,0.9-2.1,0.9c-0.8,0-1.5-0.3-2.1-0.9
						c-0.6-0.6-0.9-1.3-0.9-2.2c0-1.3,0.5-2.2,1.6-2.8c0-1.3,0.1-2.6,0.2-3.9c0.3-4.8,1.1-9.7,2.3-14.7c2.4-9.6,6.2-18,11.4-25.1
						c0.9-1.2,1.9-2.4,2.9-3.6c-17,5.5-25.8,8.3-26.3,8.3l-3.9,1c-2.8,1.3-4.9,3.7-6.3,7L542,194c-0.9,3-1.6,6-2.3,8.9
						c-0.9,3.7-1.6,7.3-2.2,10.7c0,0.1,0,0.2-0.1,0.3h-0.1c2.1,2.6,4.4,5.1,6.8,7.5c0.1,0.1,0.1,0.1,0.2,0.2c0.1,0.1,0.1,0.1,0.2,0.2
						c0.1,0.1,0.1,0.1,0.2,0.2l0.1,0.1c0.1,0.1,0.2,0.2,0.3,0.3c0.3,0.2,0.5,0.5,0.7,0.7l5.3,4.7c0.1,0.1,0.2,0.2,0.3,0.2
						c1.4,1.2,2.9,2.3,4.3,3.4c0.2,0.1,0.4,0.3,0.6,0.4c4.7,3.6,10.1,6.8,16.1,9.6c0.1,0.1,0.3,0.1,0.4,0.2c0.1,0.1,0.2,0.1,0.3,0.2
						c0.2,0.1,0.4,0.2,0.6,0.3c0.1,0.1,0.3,0.1,0.4,0.2c0.5,0.2,0.9,0.4,1.3,0.6c0.2,0.1,0.3,0.1,0.5,0.2c12.2,5.2,25,7.8,38.4,7.8
						c0.2,0,0.3,0,0.5,0c0.1,0,0.2,0,0.2,0c0.2,0,0.4,0,0.5,0c0.1,0,0.2,0,0.2,0c1.3,0,2.5,0,3.8-0.1l5.7-0.4c0.2,0,0.4,0,0.6-0.1
						c0.2,0,0.4-0.1,0.6-0.1c7.7-0.9,15.2-2.6,22.4-5.3c1.6-0.6,3.1-1.2,4.7-1.8c6.8-2.9,13.2-6.5,19.1-10.7c4-2.8,7.8-6,11.4-9.5
						c0.4-0.4,0.9-0.8,1.3-1.2c1.5-1.5,3-3.1,4.4-4.7c0.4-0.4,0.7-0.8,1-1.2l0.4-0.4c0.3-0.4,0.6-0.7,0.9-1.1
						c-1.1-5.8-2.6-12.3-4.6-19.4l-2.7-9.2c-1.4-3.3-3.5-5.7-6.3-7l-3.9-1C674.2,177.4,668.4,175.6,657.2,172 M564.4,211.5l-0.1,1
						c-1.5,0.4-2.7,1.2-3.7,2.4c-1,1.2-1.5,2.7-1.5,4.3c0,1.9,0.6,3.5,1.9,4.8c1.3,1.3,2.8,2,4.7,2c1.8,0,3.4-0.7,4.6-2
						c1.3-1.3,1.9-3,1.9-4.8c0-1.6-0.5-3-1.4-4.3c-0.9-1.2-2.1-2-3.6-2.4l0.1-0.9c1.7,0.4,3.1,1.3,4.2,2.7c1.1,1.4,1.6,3.1,1.6,4.9
						c0,2.2-0.7,4-2.2,5.5c-1.5,1.5-3.2,2.3-5.3,2.3c-1,0-2-0.2-2.9-0.6c-0.9-0.4-1.7-0.9-2.4-1.7c-1.5-1.5-2.2-3.3-2.2-5.5
						c0-1.9,0.6-3.6,1.8-5C561.2,212.7,562.6,211.8,564.4,211.5z"/>
				</g>
			</g>
		</g>
		<g transform="matrix( 1, 0, 0, 1, -515.2,-51.1) ">
			<g>
				<g id="Layer0_2_FILL">
					<path fill="#B3B3B3" d="M713.2,134.7c-0.7-5.2-1.8-10-3.3-14.2l-77.8-40c0.3,0.2,0.6,0.5,0.9,0.7c1.4,1.1,2.3,2,2.9,2.7
						c0.7,0.8,1.1,1.7,1.1,2.6c0.1,0.5,0.3,0.9,0.7,1c0.7,0.2,1.3,0.5,1.6,0.9c0.7,0.6,1.3,1.6,1.8,3c0.9,2.3,1.2,4.7,1.2,7l-1.6,17.2
						c2-0.7,2.6,1.2,2.1,5.8c-0.4,3.5-1.2,6.8-2.3,9.8c-0.8,2.2-1.8,2.9-3.2,2.2c-1,5.1-2.6,9.7-4.8,13.9l1.2,15.1
						c1,0,1.9,0.1,2.9,0.4c-0.1-0.2-0.2-0.3-0.2-0.3c1.3,0.4,3.8,2.1,7.5,5.1l4.5,1.5c0.1,0.1,0.2,0.1,0.4,0.2l4.5,1.4
						c0,0-0.1-0.1-0.1-0.1c1.4,0.4,2.7,0.8,3.9,1.2c11.2,3.6,17,5.4,17.3,5.4l3.9,1c2.8,1.3,4.9,3.7,6.3,7l2.7,9.2
						c1.9,7.2,3.5,13.6,4.6,19.4l0.1-0.1c0.1-0.1,0.3-0.3,0.4-0.4l4.2-5.6c0.2-0.3,0.4-0.6,0.6-0.9c0.2-0.2,0.3-0.5,0.5-0.7l3.5-5.5
						c0.4-0.7,0.8-1.3,1.2-2c0.2-0.4,0.4-0.7,0.6-1.1c0.2-0.4,0.4-0.8,0.6-1.2c0.5-0.9,0.9-1.8,1.4-2.8c0.3-0.6,0.5-1.2,0.8-1.8
						c0.1-0.1,0.1-0.3,0.2-0.4c0.3-0.6,0.6-1.2,0.9-1.9c0.3-0.8,0.7-1.6,1-2.4l-0.3-0.1l0.3,0.1c0.1-0.2,0.2-0.4,0.2-0.5
						c4.4-11.4,6.6-23.4,6.6-35.9c0-0.2,0-0.4,0-0.5v-0.1C714.5,145,714,139.8,713.2,134.7z"/>
				</g>
			</g>
		</g>
		<g transform="matrix( 1, 0, 0, 1, -515.2,-51.1) ">
			<g>
				<g id="Layer0_3_FILL">
					<path fill="#999999" d="M659.1,61.7L659.1,61.7c-4.9-2.5-9.8-4.6-14.9-6.2c0.8,0.2,1.6,0.5,2.3,0.7c-10.2-3.4-20.8-5.1-31.8-5.1
						c-0.1,0-0.2,0-0.3,0c-11.7,0-22.9,2-33.7,5.9l-0.3,0.1c-1.6,0.6-3.2,1.2-4.8,1.9c-11.9,5-22.4,12.1-31.6,21.3
						c-9.2,9.2-16.3,19.7-21.3,31.6c-0.7,1.6-1.3,3.2-1.9,4.8v0.1c-3.9,10.8-5.9,22.1-6,33.9c0,0.1,0,0.2,0,0.3
						c0,13.1,2.4,25.6,7.3,37.6l0.4,1c0,0.1,0.1,0.1,0.1,0.2c3.8,8.8,8.6,16.9,14.6,24.3h0.1c0-0.1,0-0.2,0.1-0.3
						c0.6-3.5,1.4-7.1,2.2-10.7c-7.8-14.4-11.7-30-11.7-46.8c0-13.5,2.6-26.4,7.8-38.7c5-11.9,12.1-22.4,21.3-31.6
						c9.2-9.2,19.7-16.3,31.6-21.3c12.3-5.2,25.3-7.8,38.7-7.8C638.3,56.6,648.9,58.3,659.1,61.7z"/>
				</g>
			</g>
		</g>
</svg>
