<?xml version="1.0" encoding="utf-8"?>
<!-- Generator: Adobe Illustrator 18.1.0, SVG Export Plug-In . SVG Version: 6.00 Build 0)  -->
<!DOCTYPE svg PUBLIC "-//W3C//DTD SVG 1.1//EN" "http://www.w3.org/Graphics/SVG/1.1/DTD/svg11.dtd">
<svg version="1.1" id="Layer_1" xmlns="http://www.w3.org/2000/svg" xmlns:xlink="http://www.w3.org/1999/xlink" x="0px" y="0px"
	 viewBox="0 0 350 343" enable-background="new 0 0 350 343" xml:space="preserve">
<g transform="matrix( 1, 0, 0, 1, 0,0) ">
	<g>
		<g id="Layer0_0_FILL">
			<path fill="#E6E6E6" d="M140.9,131.3c0,8,2.2,15.4,6.5,22.1c4.3,6.5,9.9,11.4,17.1,14.7c1.5,0.7,2.1,1.9,2.1,3.6
				c0,1.6-0.7,2.8-2.1,3.4c-7.1,3.3-12.8,8.2-17.1,14.7c-4.3,6.7-6.5,14.1-6.5,22.1v11.6H209v-11.6c0-8-2.2-15.4-6.5-22.1
				c-4.3-6.5-9.9-11.4-17.1-14.7c-1.5-0.6-2.2-1.8-2.2-3.4s0.7-2.8,2.2-3.6c7.1-3.3,12.8-8.2,17.1-14.7c4.3-6.7,6.5-14.1,6.5-22.1
				v-11.6h-68.1V131.3 M149.6,131.3v-3.9h50.6v3.9c0,6.8-2.1,13.1-5.9,18.5h-38.7C151.6,144.2,149.6,137.9,149.6,131.3 M200.2,211.6
				v3.9h-2.1l-17.8-11c-1.8-1-3.6-1.6-5.5-1.6c-1.9,0-3.7,0.6-5.5,1.6l-17.8,11h-2.1v-3.9c0-6.2,1.6-11.9,5-17.1s7.9-9.2,13.5-11.9
				c3.6-1.6,5.8-4.4,6.8-8.2c0.9,3.9,3.3,6.5,6.8,8.2c5.6,2.7,10.1,6.5,13.5,11.9C198.6,199.8,200.2,205.4,200.2,211.6z"/>
		</g>
	</g>
</g>
<g transform="matrix( 1, 0, 0, 1, 0,0) ">
	<g>
		<g id="Layer0_1_FILL">
			<path fill="#E6E6E6" d="M44.5,223.2H8.6c-2.4,0-4.4,1.2-6.2,3.4c-1.8,2.4-2.7,5-2.7,8.3c0,3.3,0.9,6.1,2.7,8.3
				c1.6,2.4,3.7,3.6,6.2,3.6h35.9V223.2 M44.5,163.3H8.6c-2.4,0-4.4,1.2-6.2,3.6c-1.8,2.4-2.7,5-2.7,8.3c0,3.3,0.9,5.9,2.7,8.3
				c1.6,2.4,3.7,3.4,6.2,3.4h35.9V163.3 M-0.1,115.2c0,3.3,0.9,5.9,2.7,8.3c1.6,2.4,3.7,3.6,6.2,3.6h35.9v-23.7H8.8
				c-2.4,0-4.4,1.2-6.2,3.6C0.7,109.3-0.1,112-0.1,115.2 M127.7,334v-36.6h-23.1V334c0,2.5,1.2,4.6,3.4,6.2c2.2,1.8,5,2.7,8.2,2.7
				c3.3,0,5.9-0.9,8.3-2.7C126.7,338.6,127.7,336.5,127.7,334 M186.4,297.5h-23.1v36.6c0,2.4,1.2,4.4,3.4,6.2c2.2,1.8,5,2.7,8.3,2.7
				c3.1,0,5.9-0.9,8.2-2.7c2.2-1.8,3.4-3.9,3.4-6.2v-36.6 M245.3,297.5h-23.1v36.6c0,2.5,1.2,4.6,3.4,6.2c2.2,1.8,5,2.7,8.2,2.7
				c3.3,0,5.9-0.9,8.3-2.7c2.2-1.8,3.4-3.9,3.4-6.2v-36.6 M347.5,226.6c-1.6-2.4-3.7-3.4-6.1-3.4h-36v23.6h36c2.4,0,4.4-1.2,6.1-3.6
				c1.8-2.4,2.5-5,2.7-8.3C350,231.7,349.3,229,347.5,226.6 M127.7,45.5V8.8c0-2.4-1.2-4.6-3.4-6.2c-2.2-1.8-5-2.7-8.3-2.7
				c-3.1,0-5.9,0.9-8.2,2.7c-2.2,1.8-3.4,3.9-3.4,6.2v36.8L127.7,45.5 M347.5,166.8c-1.6-2.4-3.7-3.6-6.1-3.6h-36v23.6h36
				c2.4,0,4.4-1.2,6.1-3.4c1.8-2.4,2.5-5,2.7-8.3C350,171.9,349.3,169.1,347.5,166.8 M305.4,103.4v23.7h36c2.4,0,4.4-1.2,6.1-3.6
				c1.8-2.4,2.5-5,2.7-8.3c0-3.3-0.9-6.1-2.7-8.3c-1.6-2.4-3.7-3.6-6.1-3.6H305.4 M296.2,55.9c-2.4-3-5.3-4.4-8.7-4.4H62.3
				c-3.4,0-6.2,1.5-8.6,4.4c-2.4,3-3.7,6.5-3.7,10.5v211.5c0,4.2,1.2,7.6,3.7,10.5c2.4,3,5.2,4.3,8.6,4.3h225.1
				c3.4,0,6.2-1.5,8.8-4.3c2.4-3,3.6-6.4,3.6-10.5V66.4C299.7,62.3,298.5,58.9,296.2,55.9 M256,94.3c1.6,1.9,2.4,4.3,2.4,7.1v141.5
				c0,2.8-0.7,5.2-2.4,7.1c-1.6,1.9-3.6,2.8-5.8,2.8H99.5c-2.2,0-4.2-0.9-5.8-2.8c-1.6-1.9-2.4-4.3-2.4-7.1V101.4
				c0-2.7,0.7-5,2.4-7.1c1.6-1.9,3.6-3,5.8-3h150.7C252.6,91.4,254.5,92.4,256,94.3 M215.6,225c-0.9-0.9-1.9-1.5-3.1-1.6
				c-0.3,0-0.6,0-0.9-0.1h-73.6c-0.3,0-0.6,0-0.7,0.1c-1.2,0.1-2.2,0.7-3.1,1.6c-1.2,1.2-1.8,2.5-1.8,4.2v0.9c0,1.6,0.6,3,1.8,4.2
				c1.2,1.2,2.5,1.8,4.2,1.8h73.3c1.6,0,3-0.6,4.2-1.8s1.6-2.5,1.6-4.2v-0.9C217.3,227.5,216.8,226.2,215.6,225 M134.2,108.7
				c-1.2,1.2-1.8,2.5-1.8,4.2v0.9c0,1.6,0.6,3,1.8,4.2c0.6,0.6,1.3,1,2.1,1.3c0.6,0.3,1.3,0.3,2.1,0.3h2.7v0.1h68.1v-0.1h2.7
				c0.7,0,1.5-0.1,2.1-0.3c0.7-0.3,1.3-0.7,2.1-1.3c1.2-1.2,1.6-2.5,1.6-4.2v-0.9c0-1.6-0.6-3-1.6-4.2c-1-1.2-2.5-1.6-4.2-1.6h-73.3
				C136.7,107.1,135.4,107.7,134.2,108.7 M225.4,2.5c-2.2,1.8-3.4,3.9-3.4,6.2v36.8h23.1V8.8c0-2.4-1.2-4.6-3.4-6.2
				c-2.2-1.8-5-2.7-8.3-2.7C230.5-0.1,227.8,0.7,225.4,2.5 M166.7,2.5c-2.2,1.8-3.4,3.9-3.4,6.2v36.8h23.1V8.8
				c0-2.4-1.2-4.6-3.4-6.2c-2.2-1.8-5-2.7-8.2-2.7C171.7-0.1,168.9,0.7,166.7,2.5z"/>
		</g>
	</g>
</g>
</svg>
