<?xml version="1.0" encoding="utf-8"?>
<!-- Generator: Adobe Illustrator 18.1.0, SVG Export Plug-In . SVG Version: 6.00 Build 0)  -->
<!DOCTYPE svg PUBLIC "-//W3C//DTD SVG 1.1//EN" "http://www.w3.org/Graphics/SVG/1.1/DTD/svg11.dtd">
<svg version="1.1" id="Layer_1" xmlns="http://www.w3.org/2000/svg" xmlns:xlink="http://www.w3.org/1999/xlink" x="0px" y="0px"
	 viewBox="0 15.9 58 23.2" enable-background="new 0 15.9 58 23.2" xml:space="preserve">
<g id="logo_x5F_blue">
	<polygon fill="#FFFFFF" points="0,15.9 11.3,15.9 11.3,17.5 0,17.5 	"/>
	<polygon fill="#FFFFFF" points="25,15.9 25.5,15.9 25.9,16 26.3,16 26.7,16.1 27.1,16.3 27.4,16.4 27.8,16.6 28.2,16.8 28.5,17 
		28.8,17.3 29.1,17.5 12.9,17.5 12.9,15.9 	"/>
	<polygon fill="#FFFFFF" points="32.3,15.9 41.4,15.9 42,17.5 32.3,17.5 	"/>
	<polygon fill="#FFFFFF" points="48.9,15.9 58,15.9 58,17.5 48.3,17.5 	"/>
	<polygon fill="#FFFFFF" points="0,19 11.3,19 11.3,20.6 0,20.6 	"/>
	<polygon fill="#FFFFFF" points="3.2,22.1 8.1,22.1 8.1,23.7 3.2,23.7 	"/>
	<polygon fill="#FFFFFF" points="3.2,25.1 8.1,25.1 8.1,26.7 3.2,26.7 	"/>
	<polygon fill="#FFFFFF" points="30.2,19 30.3,19.2 30.5,19.5 30.6,19.9 30.8,20.6 12.9,20.6 12.9,19 	"/>
	<polygon fill="#FFFFFF" points="16.1,22.1 21,22.1 21,23.7 16.1,23.7 	"/>
	<polygon fill="#FFFFFF" points="31,22.1 31,22.3 30.9,22.7 30.9,23.1 30.8,23.5 30.7,23.7 25.8,23.7 25.8,22.1 	"/>
	<polygon fill="#FFFFFF" points="30,25.1 29.9,25.4 29.6,25.7 29.4,26 29.1,26.3 28.8,26.6 28.5,26.7 16.1,26.7 16.1,25.1 	"/>
	<polygon fill="#FFFFFF" points="32.3,19 42.5,19 43.1,20.6 32.3,20.6 	"/>
	<polygon fill="#FFFFFF" points="58,19 58,20.6 47.3,20.6 47.8,19 	"/>
	<polygon fill="#FFFFFF" points="35.5,22.1 43.6,22.1 44.2,23.7 35.5,23.7 	"/>
	<polygon fill="#FFFFFF" points="54.9,22.1 54.9,23.7 46.2,23.7 46.7,22.1 	"/>
	<polygon fill="#FFFFFF" points="40.8,26.7 49.5,26.7 50,25.3 50,26.7 54.9,26.7 54.9,25.1 45.7,25.1 45.2,26.6 44.7,25.1 
		35.5,25.1 35.5,26.7 40.3,26.7 40.3,25.3 	"/>
	<polygon fill="#FFFFFF" points="0,37.5 11.3,37.5 11.3,39.1 0,39.1 	"/>
	<polygon fill="#FFFFFF" points="0,34.4 11.3,34.4 11.3,36 0,36 	"/>
	<polygon fill="#FFFFFF" points="3.2,28.2 8.1,28.2 8.1,29.8 3.2,29.8 	"/>
	<polygon fill="#FFFFFF" points="3.2,31.3 8.1,31.3 8.1,32.9 3.2,32.9 	"/>
	<polygon fill="#FFFFFF" points="28.5,28.2 28.8,28.4 29.1,28.7 29.4,29 29.6,29.3 29.9,29.6 30,29.8 16.1,29.8 16.1,28.2 	"/>
	<polygon fill="#FFFFFF" points="16.1,31.3 21,31.3 21,32.9 16.1,32.9 	"/>
	<polygon fill="#FFFFFF" points="30.7,31.3 30.8,31.5 30.9,31.9 30.9,32.3 31,32.7 31,32.9 25.8,32.9 25.8,31.3 	"/>
	<polygon fill="#FFFFFF" points="30.8,34.4 30.8,34.7 30.6,35.1 30.5,35.5 30.3,35.8 30.2,36 12.9,36 12.9,34.4 	"/>
	<polygon fill="#FFFFFF" points="29.1,37.5 28.8,37.7 28.4,38 28.1,38.2 27.7,38.4 27.4,38.6 27,38.7 26.6,38.9 26.2,39 25.8,39 
		25.4,39.1 25,39.1 12.9,39.1 12.9,37.5 	"/>
	<polygon fill="#FFFFFF" points="35.5,28.2 40.3,28.2 40.3,29.8 35.5,29.8 	"/>
	<polygon fill="#FFFFFF" points="48.4,29.8 41.9,29.8 41.3,28.2 49,28.2 	"/>
	<polygon fill="#FFFFFF" points="50,28.2 54.9,28.2 54.9,29.8 50,29.8 	"/>
	<polygon fill="#FFFFFF" points="35.5,31.3 40.3,31.3 40.3,32.9 35.5,32.9 	"/>
	<polygon fill="#FFFFFF" points="48,31.3 47.4,32.9 42.9,32.9 42.4,31.3 	"/>
	<polygon fill="#FFFFFF" points="50,31.3 54.9,31.3 54.9,32.9 50,32.9 	"/>
	<polygon fill="#FFFFFF" points="32.3,34.4 40.3,34.4 40.3,36 32.3,36 	"/>
	<polygon fill="#FFFFFF" points="46.9,34.4 46.4,36 44,36 43.4,34.4 	"/>
	<polygon fill="#FFFFFF" points="50,34.4 58,34.4 58,36 50,36 	"/>
	<polygon fill="#FFFFFF" points="32.3,37.5 40.3,37.5 40.3,39.1 32.3,39.1 	"/>
	<polygon fill="#FFFFFF" points="50,37.5 58,37.5 58,39.1 50,39.1 	"/>
	<polygon fill="#FFFFFF" points="45.3,39.1 45.8,37.5 44.5,37.5 45.1,39.1 	"/>
</g>
<g id="Layer_1_1_">
</g>
</svg>
