<?xml version="1.0" encoding="utf-8"?>
<!-- Generator: Adobe Illustrator 18.0.0, SVG Export Plug-In . SVG Version: 6.00 Build 0)  -->
<!DOCTYPE svg PUBLIC "-//W3C//DTD SVG 1.1//EN" "http://www.w3.org/Graphics/SVG/1.1/DTD/svg11.dtd">
<svg version="1.1" id="Layer_1" xmlns="http://www.w3.org/2000/svg" xmlns:xlink="http://www.w3.org/1999/xlink" x="0px" y="0px"
	 viewBox="0 439.8 1296 1288.2" enable-background="new 0 439.8 1296 1288.2" xml:space="preserve">
<g transform="matrix( 1, 0, 0, 1, 0,0) ">
	<g>
		<g id="Layer0_0_FILL">
			<path fill="#B3B3B3" d="M315.7,1082.2c1-56.3,16.1-108.5,44.2-157.2c-53.2,85.9-62.3,176.3-27.1,271.8c0.5,2,1.5,4,2,6
				C321.2,1164.1,314.7,1123.9,315.7,1082.2z"/>
			<path fill="#CCCCCC" d="M190.6,691.4c2-2.5,4-4.5,6-7C194.7,686.9,192.7,688.9,190.6,691.4L190.6,691.4 M675.9,486.5
				c-3,0-6-0.5-9.5-0.5C669.4,486.5,672.4,486.5,675.9,486.5L675.9,486.5z"/>
		</g>
	</g>
</g>
<g transform="matrix( 1, 0, 0, 1, 14.45,-5.4) ">
	<g>
		<g id="Layer0_1_FILL">
			<path d="M586.8,1421.7c50.2,6.5,99,2,147.2-14.1c-51.2-13.1-98.5-35.2-142.7-65.3c-26.1-18.1-50.2-38.2-71.3-59.8
				c-5.5,3.5-11.6,5.5-19.1,5.5c-8,0-15.1-2-21.1-6.5s-10.5-10-13.1-17.1c-40.7,4-81.4,2.5-121.6-4.5c-0.5,0-1,0-1-0.5
				c25.1,43.7,58.3,79.4,99.5,107.5c31.1,21.6,64.3,36.7,100,46.2C558.2,1417.2,572.3,1419.7,586.8,1421.7 M951,1023.8
				c-7-32.1-19.1-62.8-35.7-91.4c-16.6-29.6-37.7-55.8-62.3-78.4c-1,23.6-3.5,46.2-7.5,68.3C887.2,950.5,921.9,984.7,951,1023.8
				 M814.9,1040.4c-3.5,0-6.5-0.5-10-1.5c-8,15.1-16.6,29.1-25.1,42.2c-29.1,42.7-65.3,78.9-107.5,108.5
				c-40.7,28.1-85.9,48.7-134.6,61.8v0.5c0,8-2,15.1-7,21.1c21.1,22.1,44.2,41.2,68.3,58.3c46.7,32.1,98,54.8,153.7,66.8l14.1-19.1
				c34.7-50.2,56.8-106,66.3-166.3c9.5-58.3,6.5-116-9-173.8C821.4,1039.9,817.9,1040.4,814.9,1040.4 M842.5,936.9
				c-3,12.6-6,24.1-10,35.7c5.5,3,10,7.5,13.1,13.1c3.5,5.5,5,11.6,5,18.1c0,11.1-4.5,20.6-13.1,28.1
				c16.6,60.3,20.1,121.1,10.5,181.3c-10,62.8-32.7,120.6-68.8,172.8l-2,3.5c50.7-25.1,91.9-61.3,124.6-109
				c23.1-33.7,39.2-69.8,48.2-109c9-37.7,11.6-76.4,7-115C926.4,1009.8,888.2,969.6,842.5,936.9 M814.9,968.1c2,0,3.5,0,4.5,0.5
				c4.5-13.6,8-26.6,10.5-40.2c-15.6-10-30.1-18.6-42.7-25.1l-4.5,6C795.8,929.4,806.4,949,814.9,968.1 M839,841.5
				c-7.5-6.5-15.6-12.6-23.1-17.6c-13.1-8.5-26.1-16.6-39.7-23.1c-42.7-21.1-88.9-32.7-138.1-34.2l19.1,12.1
				c30.6,21.1,58.3,45.2,82.9,73.3c4.5-2.5,10-3.5,15.6-3.5c10,0,18.6,3.5,25.6,10.5s10.5,15.6,10.5,25.6l-0.5,4
				c15.1,7.5,28.6,15.6,40.7,23.6C837,889.7,839,866.1,839,841.5 M450.7,877.2c4,6,5.5,12.6,5.5,19.6c0,10-3.5,18.6-10.5,25.6
				s-16.1,10.5-26.1,10.5c-2.5,0-5-0.5-8-1c-5,50.2-1,100,11.6,149.2c13.1,49.7,33.7,95.4,62.8,137.6c4.5-2,9.5-3,15.1-3
				c7.5,0,14.1,2,20.1,6s10,9.5,13.1,15.6c46.7-12.6,89.9-32.7,129.6-60.3c40.7-28.1,75.3-62.8,103.5-104.5
				c8.5-12.1,16.6-25.6,24.6-40.7c-9-7-14.1-16.6-14.1-28.1c0-7.5,2-14.1,6-20.1s9.5-10.5,15.6-13.1c-8-18.1-17.6-36.2-28.6-53.2
				c-4.5,2.5-10,4-15.6,4c-10,0-18.6-3.5-25.6-10.5s-10.5-15.6-10.5-25.6c0-3.5,0.5-6.5,1.5-9.5c-44.7-14.6-89.9-21.1-136.6-20.6
				C538.6,855.1,493.9,862.6,450.7,877.2 M345.7,930.4c-28.1,48.7-43.2,101-44.2,157.2c-1,41.7,5.5,81.9,19.6,120.1l1.5,4
				c4,10.5,8.5,21.1,14.1,31.1c0.5,0,0.5,0,1,0c43.2,9,85.9,11.1,128.6,6.5c0.5-8.5,4-16.1,10-23.1c-30.6-44.2-52.7-92.4-65.8-144.7
				c-13.1-51.7-16.6-104-10.5-156.7c-7-5-11.6-11.6-13.6-20.1C371.3,913.3,357.8,921.9,345.7,930.4 M411,861.6l4.5-15.6l0,0
				c-2.5,2-5,4.5-7,6.5l-29.6,31.1c-4.5,5.5-9,11.6-13.6,17.1l19.6-11.1c1.5-7,4.5-13.1,9-18.1C398.5,867.1,404,863.6,411,861.6
				 M559.7,774.2l-28.6,7c-4,1.5-8,3-12.1,4.5c-30.1,10.5-57.8,25.1-82.9,44.2c-3.5,8.5-7,19.1-10.5,31.1c5,1,9.5,2.5,13.1,5
				c45.7-16.6,93.4-25.1,142.7-26.1c49.7-0.5,98.5,6.5,145.7,22.1l1.5-1.5c-23.1-26.1-49.7-49.2-79.9-69.8
				c-13.6-9-25.6-16.6-36.7-22.6c-0.5-0.5-1.5-0.5-2-1C593.4,768.2,576.3,770.7,559.7,774.2z"/>
		</g>
	</g>
</g>
<g transform="matrix( 1, 0, 0, 1, 14.45,-5.4) ">
	<g>
		<g id="Layer0_2_FILL">
			<path fill="#B3B3B3" d="M1212.2,951.5c0-1-0.5-2.5-0.5-3.5c-226-76.9-371.2-125.6-435.5-147.2c13.6,7,26.6,14.6,39.7,23.1
				c7.5,5,15.6,11.1,23.1,17.6c0,24.6-2,48.2-6,71.3c-12.1-8-25.6-16.1-40.7-23.6l0.5-4c0-10-3.5-18.6-10.5-25.6
				s-15.6-10.5-25.6-10.5c-5.5,0-11.1,1-15.6,3.5c-25.1-27.6-52.7-52.2-82.9-73.3l-17.1-10.5c-9.5-0.5-18.6-0.5-28.1,0
				c11.1,6,23.1,13.6,36.7,22.6c30.1,20.6,56.8,44.2,79.9,69.8l-1.5,1.5c-47.2-15.6-95.9-22.6-145.7-22.1
				c-49.2,1-96.4,9.5-142.7,26.1c-3.5-2.5-8-4-13.1-5c3.5-12.6,7-23.1,10.5-31.1c25.6-18.6,53.2-33.2,82.9-44.2c4-1.5,8-3,12.1-4.5
				c-42.2,12.6-80.9,34.2-116,64.8l-4.5,15.6c-6.5,2-12.6,5.5-17.1,10.5c-5,5-8,11.1-9,18.1l-19.1,10.5c-7,9.5-13.6,19.6-19.6,30.1
				c12.6-8.5,25.6-17.1,39.7-24.6c2,8.5,6.5,15.1,13.6,20.1c-6,52.7-2,105,10.5,156.7c13.1,52.2,35.2,100.5,65.8,144.7
				c-6,6.5-9.5,14.1-10,23.1c-42.7,4.5-85.4,2-128.6-6.5c3,5.5,6,11.1,9,16.1c40.7,7,80.9,8.5,121.6,4.5c2.5,7,7,13.1,13.1,17.1
				c6,4.5,13.1,6.5,21.1,6.5c7,0,13.6-1.5,19.1-5.5c21.1,22.1,44.7,42.2,71.3,59.8c44.2,30.1,91.4,51.7,142.7,65.3
				c-48.2,16.1-96.9,20.6-147.2,14.1c-14.6-2-29.1-4.5-42.7-8.5c38.7,14.6,89.4,32.7,153.2,53.2c85.9,28.6,186.4,60.3,301.9,95.4
				c0.5-0.5,1-1,1.5-1c0.5-0.5,1.5-1,2-1.5c3.5-2.5,6.5-5.5,10-8c1-0.5,1.5-1,2.5-2c8-7,16.1-14.1,24.1-21.6
				c14.6-13.6,28.6-28.1,41.7-43.2c5-5.5,9.5-10.5,14.1-16.1c7.5-9,14.6-18.6,21.6-28.1s13.6-19.1,20.1-28.6
				c62.3-94.4,93.4-201.4,93.4-322c0-48.2-5-94.4-15.1-138.6h-4.5 M456.2,896.8c0-7-2-13.6-5.5-19.6c43.2-14.6,87.9-22.1,133.6-22.6
				c46.7-0.5,91.9,6.5,136.6,20.6c-1,3-1.5,6-1.5,9.5c0,10,3.5,18.6,10.5,25.6s15.6,10.5,25.6,10.5c6,0,11.1-1,15.6-4
				c11.1,17.6,20.6,35.2,28.6,53.2c-6.5,2.5-12.1,7-15.6,13.1c-4,6-6,12.6-6,20.1c0,12.1,4.5,21.1,14.1,28.1
				c-7.5,14.6-15.6,28.1-24.6,40.7c-28.1,41.2-62.8,75.9-103.5,104.5c-39.7,27.6-82.9,47.7-129.6,60.3c-3-6.5-7-12.1-13.1-15.6
				c-6-4-12.6-6-20.1-6c-5.5,0-10.5,1-15.1,3c-29.1-42.2-50.2-87.9-62.8-137.6c-12.6-49.2-16.6-99-11.6-149.2c3,0.5,5.5,1,8,1
				c10,0,18.6-3.5,26.1-10.5C452.7,915.3,456.2,906.8,456.2,896.8 M819.4,968.1c-1,0-2.5-0.5-4.5-0.5c-8-18.6-18.6-38.2-31.6-59.3
				l4.5-6c12.6,6.5,26.6,14.6,42.7,25.1C827,941.5,823.4,954.5,819.4,968.1 M832.5,972.6c3.5-11.6,7-23.6,10-35.7
				c45.7,33.2,83.9,73.3,114.5,120.6c4.5,38.7,2.5,77.4-7,115c-9.5,39.2-25.6,75.3-48.2,109c-32.7,47.2-73.8,83.9-124.6,109l2-3.5
				c36.2-52.7,58.8-110,68.8-172.8c9.5-60.8,6-121.1-10.5-181.3c9-7.5,13.1-17.1,13.1-28.1c0-6.5-1.5-12.6-5-18.1
				C842.5,980.1,838,975.6,832.5,972.6 M804.9,1038.9c3.5,1,6.5,1.5,10,1.5s7-0.5,10-1.5c15.1,57.8,18.1,115.5,9,173.8
				c-9.5,60.3-31.6,115.5-66.3,166.3l-14.1,19.1c-55.8-12.1-107-34.7-153.7-66.8c-24.6-16.6-47.2-35.7-68.3-58.3
				c4.5-6,7-13.1,7-21.1v-0.5c48.7-13.1,93.4-33.7,134.6-61.8c42.2-29.6,77.9-65.8,107.5-108.5
				C788.3,1068.1,796.8,1054,804.9,1038.9 M915.4,931.9c16.6,28.6,28.1,59.3,35.7,91.4c-29.1-39.2-64.3-73.3-105.5-102
				c4-21.6,6.5-44.2,7.5-68.3C878.2,876.7,898.8,902.8,915.4,931.9z"/>
		</g>
	</g>
</g>
<g transform="matrix( 1, 0, 0, 1, 14.45,-5.4) ">
	<g>
		<g id="Layer0_3_FILL">
			<path fill="#CCCCCC" d="M1211.7,948c0.5,1,0.5,2.5,0.5,3.5h2.5c-24.1-107-77.9-201.9-161.2-284.8c-47.7-47.7-99-85.4-154.7-113.5
				l-0.5,1c-0.5,0-0.5-0.5-1-0.5c-2-0.5-4.5-1.5-6.5-2c-58.8-18.6-119.6-28.1-182.3-28.1c-81.4,0-159.2,15.6-233.6,46.7
				c-16.1,7-31.6,14.1-46.7,22.6c-2,1.5-4.5,2.5-6.5,4c-56.3,32.7-100.5,65.8-131.6,98.5l-5.5,4c-0.5,0.5-1,1-1,1
				c-32.1,33.7-60.3,69.3-84.4,107c-8,13.1-15.6,26.1-22.1,39.2c-7,14.1-14.1,28.6-20.1,43.2c-15.6,36.7-27.1,74.3-35.2,113
				c-8,39.2-12.1,79.4-12.1,120.1c0,114.5,30.1,220.5,90.9,317.5c54.8,87.9,127.1,157.2,217,206.5c6.5,3.5,13.1,7,19.6,10.5
				l-1.5-0.5c-3-1-1,0,6,3l-16.6-5c20.6,7,41.2,13.1,62.8,18.1c30.6,7.5,61.8,12.1,93.9,14.6c8,0.5,16.1,1,24.1,1
				c8.5,0.5,17.1,0.5,25.6,0.5c6,0,12.1,0,18.1-0.5c18.1-0.5,35.7-1.5,53.2-4c28.1-3,55.8-8,82.4-15.1c27.1-7.5,53.7-16.6,79.9-27.6
				c27.1-11.6,53.7-25.1,78.4-39.7c20.6-12.6,40.2-26.6,59.3-41.7c-0.5,0.5-1,1-1.5,1c-115.5-35.2-216-67.3-301.9-95.4
				c-63.8-21.1-114.5-38.7-153.2-53.2c-35.7-9.5-68.8-24.6-100-46.2c-41.2-28.1-74.3-64.3-99.5-107.5c0.5,0,1,0,1,0.5
				c-3-5.5-6-10.5-9-16.1c0,0-0.5,0-1,0c-5-10-9.5-20.6-14.1-31.1l-1.5-4c-1-2-1.5-4-2.5-6c-35.2-94.9-26.1-185.4,27.1-271.3
				c6.5-10.5,13.1-20.6,19.6-30.1l-0.5,0.5c4.5-6,9-11.6,13.6-17.1l29.6-31.1c2.5-2,5-4.5,7-6.5l0,0c35.2-30.6,73.8-52.2,116-64.8
				l28.6-7c16.6-3.5,33.2-6,50.7-7c0.5,0.5,1.5,0.5,2,1c9-0.5,18.6-0.5,28.1,0l-2-1.5c49.2,1.5,95.4,12.6,138.1,34.2
				C840.5,821.9,985.7,871.1,1211.7,948z"/>
		</g>
	</g>
</g>
<g transform="matrix( 1, 0, 0, 1, 14.45,-5.4) ">
	<g>
		<g id="Layer0_4_FILL">
			<path fill="#999999" d="M598.4,491.9L598.4,491.9c-152.7,7-283.8,65.3-393.8,174.8c-7.5,7.5-15.1,15.1-22.1,23.1
				c-2,2.5-4,4.5-6,7H176C97.1,785.7,49.9,887.7,34.3,1002.7c-4,28.6-6,57.8-6,87.4c0,0.5,0,1,0,2l0,0c0,14.6,0.5,29.1,1.5,43.2
				c0.5,10.5,1.5,21.1,3,31.1c12.1,102,48.7,193.9,110,275.8c18.6,24.6,39.2,48.2,61.8,71.3c65.8,65.8,139.1,112.5,220,141.2l16.6,5
				c-7.5-3-9.5-4-6-3l1.5,0.5c-6.5-3.5-13.1-6.5-19.6-10.5c-89.9-49.7-162.3-118.5-217-206.5c-60.3-96.9-90.9-202.9-90.9-317.5
				c0-40.7,4-80.9,12.1-120.1c8-38.7,19.6-76.4,35.2-113c6-14.6,13.1-29.1,20.1-43.2c7-13.6,14.6-26.6,22.1-39.2
				c24.1-37.7,52.2-72.8,84.4-107c0.5-0.5,1-1,1-1l5.5-4c31.6-32.7,75.3-65.8,131.6-98.5c2-1,4.5-2.5,6.5-4
				c15.1-8,30.6-15.6,46.7-22.6c74.3-31.1,152.2-46.7,233.6-46.7c62.8,0,123.6,9.5,182.3,28.1c2,0.5,4.5,1.5,6.5,2
				c0.5,0,0.5,0.5,1,0.5l0.5-1c-72.3-36.7-151.7-57.3-238.1-61.3l0,0c-3,0-6-0.5-9-0.5c-7-0.5-13.6-1-20.6-1.5c-0.5,0-1,0-1.5,0
				C619,490.4,608.4,490.9,598.4,491.9 M822.4,521.5c0,0,0.5,0,0.5,0.5c-1,0-2-0.5-3-1C820.9,521,821.4,521.5,822.4,521.5z"/>
		</g>
	</g>
</g>
</svg>
