<?xml version="1.0" encoding="utf-8"?>
<!-- Generator: Adobe Illustrator 18.1.0, SVG Export Plug-In . SVG Version: 6.00 Build 0)  -->
<!DOCTYPE svg PUBLIC "-//W3C//DTD SVG 1.1//EN" "http://www.w3.org/Graphics/SVG/1.1/DTD/svg11.dtd">
<svg version="1.1" id="Layer_1" xmlns="http://www.w3.org/2000/svg" xmlns:xlink="http://www.w3.org/1999/xlink" x="0px" y="0px"
	 viewBox="0 0 7 23.6" enable-background="new 0 0 7 23.6" xml:space="preserve">
<rect x="15.6" y="22.9" fill="none" width="1.2" height="2.8"/>
<rect x="15.6" y="25" fill="none" width="1.2" height="4.6"/>
<g>
	<rect x="1.5" y="-6.3" fill="none" width="1.2" height="4.6"/>
	<text transform="matrix(0 -1 1 0 2.5095 -1.726)" fill="#CCCCCC" font-family="'HelveticaNeue-Thin'" font-size="1.425">IOOIO</text>
	<rect x="5.6" y="-4" fill="none" width="1.2" height="2"/>
	<text transform="matrix(0 -1 1 0 6.6563 -2.0184)" fill="#CCCCCC" font-family="'HelveticaNeue-Thin'" font-size="1.425">OI</text>
	<rect x="4.3" y="-5.9" fill="none" width="1.2" height="4.6"/>
	<text transform="matrix(0 -1 1 0 5.2742 -1.2739)" fill="#CCCCCC" font-family="'HelveticaNeue-Thin'" font-size="1.425">OIOOI</text>
	<rect x="2.9" y="-4.9" fill="none" width="1.2" height="3.3"/>
	<text transform="matrix(0 -1 1 0 3.8916 -1.6147)" fill="#CCCCCC" font-family="'HelveticaNeue-Thin'" font-size="1.425">OOI</text>
	<rect x="0.1" y="-5.2" fill="none" width="1.2" height="2.8"/>
	<text transform="matrix(0 -1 1 0 1.127 -2.4266)" fill="#CCCCCC" font-family="'HelveticaNeue-Thin'" font-size="1.425">OIO</text>
</g>
<rect x="0.1" y="-3.1" fill="none" width="1.2" height="4.6"/>
<text transform="matrix(0 -1 1 0 1.144 1.4726)" fill="#CCCCCC" font-family="'HelveticaNeue-Thin'" font-size="1.425">IOOIO</text>
<rect x="5.6" y="-2.2" fill="none" width="1.2" height="4.6"/>
<text transform="matrix(0 -1 1 0 6.6406 2.5301)" fill="#CCCCCC" font-family="'HelveticaNeue-Thin'" font-size="1.425">OIOOI</text>
<rect x="1.5" y="-2.3" fill="none" width="1.2" height="4.6"/>
<text transform="matrix(0 -1 1 0 2.518 2.3329)" fill="#CCCCCC" font-family="'HelveticaNeue-Thin'" font-size="1.425">OOIIO</text>
<rect x="4.2" y="-2.6" fill="none" width="1.2" height="4.6"/>
<rect x="2.9" y="-3.3" fill="none" width="1.2" height="4.6"/>
<text transform="matrix(0 -1 1 0 3.8918 1.4098)" fill="#CCCCCC" font-family="'HelveticaNeue-Thin'" font-size="1.425">IOO</text>
<text transform="matrix(0 -1 1 0 3.8836 3.9947)" fill="#CCCCCC" font-family="'HelveticaNeue-Thin'" font-size="1.425">OIO</text>
<text transform="matrix(0 -1 1 0 3.9007 7.8939)" fill="#CCCCCC" font-family="'HelveticaNeue-Thin'" font-size="1.425">IOOIO</text>
<rect x="0.1" y="0.9" fill="none" width="1.2" height="3.3"/>
<text transform="matrix(0 -1 1 0 1.1435 4.1685)" fill="#CCCCCC" font-family="'HelveticaNeue-Thin'" font-size="1.425">OOI</text>
<rect x="0.1" y="2.5" fill="none" width="1.2" height="4.6"/>
<text transform="matrix(0 -1 1 0 1.1438 7.0984)" fill="#CCCCCC" font-family="'HelveticaNeue-Thin'" font-size="1.425">IOO</text>
<rect x="4.3" y="1.4" fill="none" width="1.2" height="4.6"/>
<text transform="matrix(0 -1 1 0 5.2784 6.0223)" fill="#CCCCCC" font-family="'HelveticaNeue-Thin'" font-size="1.425">OIOOI</text>
<rect x="4.3" y="4.7" fill="none" width="1.2" height="4.6"/>
<text transform="matrix(0 -1 1 0 5.2701 9.2902)" fill="#CCCCCC" font-family="'HelveticaNeue-Thin'" font-size="1.425">OOII</text>
<rect x="1.5" y="1.7" fill="none" width="1.2" height="4.6"/>
<text transform="matrix(0 -1 1 0 2.5053 6.2997)" fill="#CCCCCC" font-family="'HelveticaNeue-Thin'" font-size="1.425">IOOIO</text>
<rect x="1.5" y="5.7" fill="none" width="1.2" height="4.6"/>
<text transform="matrix(0 -1 1 0 2.5138 10.3587)" fill="#CCCCCC" font-family="'HelveticaNeue-Thin'" font-size="1.425">OOIIO</text>
<rect x="5.6" y="2" fill="none" width="1.2" height="2"/>
<text transform="matrix(0 -1 1 0 6.6479 4.0076)" fill="#CCCCCC" font-family="'HelveticaNeue-Thin'" font-size="1.425">OI</text>
<rect x="5.6" y="3.8" fill="none" width="1.2" height="4.6"/>
<text transform="matrix(0 -1 1 0 6.632 8.4499)" fill="#CCCCCC" font-family="'HelveticaNeue-Thin'" font-size="1.425">OIOOI</text>
<rect x="0.1" y="6.5" fill="none" width="1.2" height="4.6"/>
<text transform="matrix(0 -1 1 0 1.1417 11.0777)" fill="#CCCCCC" font-family="'HelveticaNeue-Thin'" font-size="1.425">IOOIO</text>
<rect x="0.1" y="10.5" fill="none" width="1.2" height="4.6"/>
<text transform="matrix(0 -1 1 0 1.1502 15.1367)" fill="#CCCCCC" font-family="'HelveticaNeue-Thin'" font-size="1.425">OOIIO</text>
<rect x="0.1" y="14.5" fill="none" width="1.2" height="4.6"/>
<text transform="matrix(0 -1 1 0 1.1376 19.1034)" fill="#CCCCCC" font-family="'HelveticaNeue-Thin'" font-size="1.425">IOOIO</text>
<rect x="0.1" y="18.5" fill="none" width="1.2" height="4.6"/>
<text transform="matrix(0 -1 1 0 1.146 23.1624)" fill="#CCCCCC" font-family="'HelveticaNeue-Thin'" font-size="1.425">OOIIO</text>
<rect x="1.5" y="10.2" fill="none" width="1.2" height="2.8"/>
<text transform="matrix(0 -1 1 0 2.5094 12.9974)" fill="#CCCCCC" font-family="'HelveticaNeue-Thin'" font-size="1.425">OIO</text>
<rect x="1.5" y="12.3" fill="none" width="1.2" height="4.6"/>
<text transform="matrix(0 -1 1 0 2.5265 16.8966)" fill="#CCCCCC" font-family="'HelveticaNeue-Thin'" font-size="1.425">IOOIO</text>
<rect x="1.5" y="16.3" fill="none" width="1.2" height="3.3"/>
<text transform="matrix(0 -1 1 0 2.5259 19.5924)" fill="#CCCCCC" font-family="'HelveticaNeue-Thin'" font-size="1.425">OOI</text>
<rect x="1.5" y="17.9" fill="none" width="1.2" height="4.6"/>
<text transform="matrix(0 -1 1 0 2.5262 22.5223)" fill="#CCCCCC" font-family="'HelveticaNeue-Thin'" font-size="1.425">IOO</text>
<rect x="5.6" y="7.9" fill="none" width="1.2" height="2"/>
<text transform="matrix(0 -1 1 0 6.6437 9.9076)" fill="#CCCCCC" font-family="'HelveticaNeue-Thin'" font-size="1.425">OI</text>
<rect x="5.6" y="9.7" fill="none" width="1.2" height="4.6"/>
<text transform="matrix(0 -1 1 0 6.6278 14.3499)" fill="#CCCCCC" font-family="'HelveticaNeue-Thin'" font-size="1.425">OIOOI</text>
<rect x="5.6" y="13.9" fill="none" width="1.2" height="2"/>
<text transform="matrix(0 -1 1 0 6.6354 15.9335)" fill="#CCCCCC" font-family="'HelveticaNeue-Thin'" font-size="1.425">OI</text>
<rect x="5.6" y="15.8" fill="none" width="1.2" height="4.6"/>
<text transform="matrix(0 -1 1 0 6.6194 20.3758)" fill="#CCCCCC" font-family="'HelveticaNeue-Thin'" font-size="1.425">OIOOI</text>
<text transform="matrix(0 -1 1 0 6.6438 23.1628)" fill="#CCCCCC" font-family="'HelveticaNeue-Thin'" font-size="1.425">OOII</text>
<rect x="4.3" y="8.5" fill="none" width="1.2" height="3.3"/>
<text transform="matrix(0 -1 1 0 5.2783 11.8108)" fill="#CCCCCC" font-family="'HelveticaNeue-Thin'" font-size="1.425">OOI</text>
<rect x="4.3" y="10.1" fill="none" width="1.2" height="4.6"/>
<text transform="matrix(0 -1 1 0 5.2786 14.7407)" fill="#CCCCCC" font-family="'HelveticaNeue-Thin'" font-size="1.425">IOO</text>
<text transform="matrix(0 -1 1 0 5.2703 17.4203)" fill="#CCCCCC" font-family="'HelveticaNeue-Thin'" font-size="1.425">OIO</text>
<text transform="matrix(0 -1 1 0 5.2874 21.3195)" fill="#CCCCCC" font-family="'HelveticaNeue-Thin'" font-size="1.425">IOOIO</text>
<rect x="2.9" y="7.3" fill="none" width="1.2" height="4.6"/>
<text transform="matrix(0 -1 1 0 3.8938 11.9504)" fill="#CCCCCC" font-family="'HelveticaNeue-Thin'" font-size="1.425">OIOOI</text>
<rect x="2.9" y="10.6" fill="none" width="1.2" height="4.6"/>
<text transform="matrix(0 -1 1 0 3.8855 15.2183)" fill="#CCCCCC" font-family="'HelveticaNeue-Thin'" font-size="1.425">OOII</text>
<rect x="2.9" y="14.6" fill="none" width="1.2" height="4.6"/>
<text transform="matrix(0 -1 1 0 3.898 19.2467)" fill="#CCCCCC" font-family="'HelveticaNeue-Thin'" font-size="1.425">OIOOI</text>
<rect x="2.9" y="17.9" fill="none" width="1.2" height="4.6"/>
<text transform="matrix(0 -1 1 0 3.9008 23.33)" fill="#CCCCCC" font-family="'HelveticaNeue-Thin'" font-size="1.425">OIOOI</text>
<text transform="matrix(0 -1 1 0 5.2872 23.9262)" fill="#CCCCCC" font-family="'HelveticaNeue-Thin'" font-size="1.425">IOO</text>
</svg>
