
<svg xmlns="http://www.w3.org/2000/svg" version="1.1" xmlns:xlink="http://www.w3.org/1999/xlink" preserveAspectRatio="none" x="0px" y="0px" width="200px" height="200px" viewBox="0 0 200 200">
<defs>
<g id="Layer0_0_FILL">
<path fill="#CCCCCC" stroke="none" d="
M 433.65 390.6
Q 433.5728515625 390.8638671875 433.45 391.1
L 433.7 390.55
Q 433.8130859375 390.2830078125 433.9 390 433.7986328125 390.3015625 433.65 390.6
M 374.85 327.55
L 375.3 326.85 375.1 326.85
Q 374.961328125 327.038671875 374.65 327.35
L 373.85 328.1 372.1 329.25 367.4 331.15 366.85 331.25 365.8 331.55
Q 365.5 331.65 363.55 332
L 361.15 332.4
Q 359.5 332.7 358.6 332.75
L 345 333.2 336.9 332.75
Q 335.2 332.5 334.35 332.4
L 329.7 331.55 325.75 330.3 322.75 328.85 320.85 327.35
Q 320.45 326.95 320.35 326.75
L 319.95 326.2 320 326.4 320.7 327.55 321.4 328.4 323.75 330.3
Q 325.05 331.2 327.2 332.1
L 329.3 332.85
Q 330.05 333.15 331.6 333.55
L 334.05 334.1
Q 336.5 334.55 336.65 334.55
L 343.5 335.25 353.4 335.15 358.85 334.55
Q 360.15 334.4 361.45 334.1
L 363.9 333.55
Q 366.1 333 368.3 332.1 370.45 331.2 371.75 330.3
L 373.1 329.35 374.85 327.55
M 333.65 296.9
L 333.8 296.85 336.4 295.7 338.9 294.95 341.95 323.85 340.75 292.35 340.85 292.35 343.8 291.95 349.75 291.8 354.65 292.35 354.75 292.35 354.75 292.4 436.2 326.65
Q 436.237890625 326.74921875 436.25 326.85 434.9623046875 322.7037109375 433.25 318.65 426.1 301.8 413.15 288.85 402.17265625 277.91484375 388.45 271.1
L 388.45 271.15
Q 374.3 266.6 358.9 266.6 339.9 266.6 322.5 273.95 305.75 281.05 292.8 294 279.85 306.95 272.75 323.7 265.4 341.1 265.4 360.1 265.4 386.95 279.55 409.55 281.166015625 412.15078125 282.9 414.6 283.9533203125 410.176171875 285.3 405.1
L 287.55 396.75
Q 289.3 392.65 293 390.95 294.8 390.1 296.3 390.1 296.4849609375 390.1 308.75 386.35
L 311.85 412.4 304 438.65
Q 307.0953125 440.2361328125 310.3 441.6 327.75 448.95 346.8 448.95 365.9 448.95 383.3 441.6 386.78984375 440.1193359375 390.1 438.4
L 382.15 412.4 385.2 386.7 385.15 385.95
Q 380.9546875 384.3466796875 376.6 383.55
L 374.1 395.1
Q 370.7 407.8 367.1 409.9
L 326.9 409.9
Q 323.3 407.8 319.9 395.1
L 317.4 383.75
Q 318.116015625 383.523828125 318.85 383.3 320.8 382.1 322.95 380.8 327.25 378.3 328.3 378
L 331.1 378.8 331.3 378.8 332.35 367.65
Q 329.4 362.35 328.15 356.2 327.75 356.45 327.2 356.35 326.05 356.15 325.35 354.25 323.95 350.5 323.45 346.25 322.75 340.6 325.25 341.55
L 323.9 339.1 327.95 340.25
Q 333.15 341.5 338.65 342.15 356.25 344.2 370.75 339.1 371.35390625 338.0548828125 371.85 337 370.9078125 337.424609375 369.8 337.8 360.75 340.85 347.75 340.85 334.75 340.85 325.75 337.8 316.6 334.7 316.6 330.1 316.6 327.2 320.1 323.45 320.75 315.5 324.15 309.3 327.45 303.35 332.8 299.8
L 336.8 308 335.25 302
Q 334.25 298.6 333.65 296.9
M 377.95 426.8
Q 380.15 429.05 380.15 432.2 380.15 435.35 377.95 437.6 375.7 439.8 372.55 439.8
L 364.05 439.8
Q 360.9 439.8 358.7 437.6 356.45 435.35 356.45 432.2 356.45 429.05 358.7 426.8 360.9 424.55 364.05 424.55
L 372.55 424.55
Q 375.7 424.55 377.95 426.8
M 369.65 431
L 372.45 426.75 366 432 367.5 432.4 364.85 437.6 370.95 432 369.65 431 Z"/>

<path fill="#B3B3B3" stroke="none" d="
M 375.15 326.75
Q 375.1279296875 326.7943359375 375.1 326.85
L 375.3 326.85 375.5 326.4 375.55 326.2 375.15 326.75 Z"/>
</g>

<g id="Layer0_1_FILL">
<path fill="#999999" stroke="none" d="
M 346.8 261.4
Q 346.6751953125 261.4 346.55 261.4 330.112109375 261.4419921875 314.85 266.95
L 314.65 267
Q 312.381640625 267.807421875 310.15 268.75 293.4 275.85 280.45 288.8 267.5 301.75 260.4 318.5 259.457421875 320.731640625 258.65 323
L 258.6 323.2
Q 253.091796875 338.462890625 253.05 354.9 253.05 355.025 253.05 355.15 253.05 355.353125 253.05 355.55 253.05078125 355.7216796875 253.05 355.9 253.0515625 356.1041015625 253.05 356.3 253.05234375 356.4890625 253.05 356.65 253.0529296875 356.848046875 253.05 357 253.0529296875 357.166796875 253.05 357.3 253.0537109375 357.4470703125 253.05 357.6 253.2859375 365.86015625 254.85 373.8
L 256.75 381.5
Q 256.9341796875 382.05625 257.1 382.6
L 259.5 389.4
Q 259.5751953125 389.5875 259.65 389.75
L 259.8 390.15
Q 260.0634765625 390.83671875 260.35 391.5 260.3689453125 391.5763671875 260.4 391.65 267.55 408.5 280.5 421.5 280.8744140625 421.8728515625 281.25 422.25 281.275 422.123046875 281.3 422 281.985546875 418.5572265625 282.9 414.6 281.166015625 412.15078125 279.55 409.55 265.4 386.95 265.4 360.1 265.4 341.1 272.75 323.7 279.85 306.95 292.8 294 305.75 281.05 322.5 273.95 339.9 266.6 358.9 266.6 374.3 266.6 388.45 271.15
L 388.45 271.1
Q 385.9216796875 269.8625 383.3 268.75 383.1640625 268.692578125 383 268.6
L 376.65 266.2
Q 375.67578125 265.8978515625 374.7 265.6 361.2322265625 261.4 346.8 261.4 Z"/>
</g>

<g id="Layer0_2_FILL">
<path fill="#B3B3B3" stroke="none" d="
M 356.6 294.95
L 359.1 295.7 361.7 296.85 361.85 296.9 358.7 308 362.7 299.8
Q 368.1 303.35 371.35 309.3 374.75 315.5 375.4 323.45 378.95 327.25 378.95 330.1 378.95 334.1431640625 371.85 337 371.35390625 338.0548828125 370.75 339.1
L 369.9 341.55
Q 372.35 340.6 371.65 346.3 371.1 350.65 369.7 354.4 369.05 356.15 368 356.4 367.4 356.5 366.95 356.2 365.8 362.3 362.8 367.65
L 363.7 378.8 363.9 378.8 366.2 378
Q 367.95 378.45 372.65 382.2
L 376.65 383.4 376.6 383.55
Q 380.9546875 384.3466796875 385.15 385.95
L 385.2 386.7 385.3 386.1
Q 398.157421875 390.1 398.8 390.1
L 402.1 390.95
Q 405.75 392.65 407.5 396.75
L 409.8 404.65
Q 412.2767578125 413.731640625 413.75 420.85 413.6744140625 420.9751953125 413.55 421.05
L 413.8 420.9
Q 414.2353515625 420.4279296875 414.65 419.95 414.8306640625 419.7865234375 414.95 419.6 424.7369140625 409.28125 430.95 396.6 431.437109375 395.6658203125 431.85 394.7 432.5892578125 393.20703125 433.25 391.65
L 433.45 391.1
Q 433.5728515625 390.8638671875 433.65 390.6 433.7986328125 390.3015625 433.9 390
L 434.6 388.2
Q 439.8240234375 374.4203125 440.5 359.6 440.5326171875 359.109375 440.55 358.6 440.5845703125 357.9439453125 440.6 357.25 440.6240234375 356.165234375 440.6 355.1 440.7099609375 338.6298828125 436.25 326.85 436.237890625 326.74921875 436.2 326.65
L 354.75 292.4 353.55 323.85 354.55 315.8
Q 354.9 313.15 355 311.8
L 356.6 294.95 Z"/>
</g>

<g id="Layer0_3_FILL">
<path fill="#000000" stroke="none" d="
M 380.15 432.2
Q 380.15 429.05 377.95 426.8 375.7 424.55 372.55 424.55
L 364.05 424.55
Q 360.9 424.55 358.7 426.8 356.45 429.05 356.45 432.2 356.45 435.35 358.7 437.6 360.9 439.8 364.05 439.8
L 372.55 439.8
Q 375.7 439.8 377.95 437.6 380.15 435.35 380.15 432.2
M 372.45 426.75
L 369.65 431 370.95 432 364.85 437.6 367.5 432.4 366 432 372.45 426.75
M 296.3 390.1
Q 294.8 390.1 293 390.95 289.3 392.65 287.55 396.75
L 285.3 405.1
Q 283.9533203125 410.176171875 282.9 414.6 281.985546875 418.5572265625 281.3 422 281.275 422.123046875 281.25 422.25 282.8208984375 423.780078125 284.45 425.2 284.643359375 425.397265625 284.85 425.55 293.091015625 432.838671875 302.7 437.95 303.37109375 438.3384765625 304 438.65
L 304 438.65 311.85 412.4 308.75 386.35
Q 296.4849609375 390.1 296.3 390.1
M 402.1 390.95
L 398.8 390.1
Q 398.157421875 390.1 385.3 386.1
L 382.15 412.4 390.1 438.4
Q 390.150390625 438.37578125 390.2 438.35 391.2076171875 437.8240234375 392.2 437.25 403.6958984375 430.9177734375 413.15 421.5 413.3634765625 421.2857421875 413.55 421.05 413.6744140625 420.9751953125 413.75 420.85 412.2767578125 413.731640625 409.8 404.65
L 407.5 396.75
Q 405.75 392.65 402.1 390.95
M 369.9 341.55
L 370.75 339.1
Q 356.25 344.2 338.65 342.15 333.15 341.5 327.95 340.25
L 323.9 339.1 325.25 341.55
Q 322.75 340.6 323.45 346.25 323.95 350.5 325.35 354.25 326.05 356.15 327.2 356.35 327.75 356.45 328.15 356.2 329.4 362.35 332.35 367.65
L 331.3 378.8 331.1 378.8 328.3 378
Q 327.25 378.3 322.95 380.8 320.8 382.1 318.85 383.3 318.116015625 383.523828125 317.4 383.75
L 319.9 395.1
Q 323.3 407.8 326.9 409.9
L 367.1 409.9
Q 370.7 407.8 374.1 395.1
L 376.65 383.4 372.65 382.2
Q 367.95 378.45 366.2 378
L 363.9 378.8 363.7 378.8 362.8 367.65
Q 365.8 362.3 366.95 356.2 367.4 356.5 368 356.4 369.05 356.15 369.7 354.4 371.1 350.65 371.65 346.3 372.35 340.6 369.9 341.55
M 343.8 291.95
L 340.85 292.35 340.75 292.35 341.95 323.85 338.9 294.95 336.4 295.7 333.8 296.85 333.65 296.9
Q 334.25 298.6 335.25 302
L 336.8 308 332.8 299.8
Q 327.45 303.35 324.15 309.3 320.75 315.5 320.1 323.45 316.6 327.2 316.6 330.1 316.6 334.7 325.75 337.8 334.75 340.85 347.75 340.85 360.75 340.85 369.8 337.8 370.9078125 337.424609375 371.85 337 378.95 334.1431640625 378.95 330.1 378.95 327.25 375.4 323.45 374.75 315.5 371.35 309.3 368.1 303.35 362.7 299.8
L 358.7 308 361.85 296.9 361.7 296.85 359.1 295.7 356.6 294.95 355 311.8
Q 354.9 313.15 354.55 315.8
L 353.55 323.85 354.75 292.35 354.65 292.35 349.75 291.8 343.8 291.95
M 375.5 326.4
L 375.3 326.85 374.85 327.55 373.1 329.35 371.75 330.3
Q 370.45 331.2 368.3 332.1 366.1 333 363.9 333.55
L 361.45 334.1
Q 360.15 334.4 358.85 334.55
L 353.4 335.15 343.5 335.25 336.65 334.55
Q 336.5 334.55 334.05 334.1
L 331.6 333.55
Q 330.05 333.15 329.3 332.85
L 327.2 332.1
Q 325.05 331.2 323.75 330.3
L 321.4 328.4 320.7 327.55 320 326.4 319.95 326.2 320.35 326.75
Q 320.45 326.95 320.85 327.35
L 322.75 328.85 325.75 330.3 329.7 331.55 334.35 332.4
Q 335.2 332.5 336.9 332.75
L 345 333.2 358.6 332.75
Q 359.5 332.7 361.15 332.4
L 363.55 332
Q 365.5 331.65 365.8 331.55
L 366.85 331.25 367.4 331.15 372.1 329.25 373.85 328.1 374.65 327.35
Q 374.961328125 327.038671875 375.1 326.85 375.1279296875 326.7943359375 375.15 326.75
L 375.55 326.2 375.5 326.4 Z"/>
</g>
</defs>

<g transform="matrix( 1, 0, 0, 1, -246.35,-255.2) ">
<use xlink:href="#Layer0_0_FILL"/>
</g>

<g transform="matrix( 1, 0, 0, 1, -246.35,-255.2) ">
<use xlink:href="#Layer0_1_FILL"/>
</g>

<g transform="matrix( 1, 0, 0, 1, -246.35,-255.2) ">
<use xlink:href="#Layer0_2_FILL"/>
</g>

<g transform="matrix( 1, 0, 0, 1, -246.35,-255.2) ">
<use xlink:href="#Layer0_3_FILL"/>
</g>
</svg>
