
<svg xmlns="http://www.w3.org/2000/svg" version="1.1" xmlns:xlink="http://www.w3.org/1999/xlink" preserveAspectRatio="none" x="0px" y="0px" width="200px" height="200px" viewBox="0 0 200 200">
<defs>
<g id="Layer0_0_FILL">
<path fill="#CCCCCC" stroke="none" d="
M 155.35 176.1
Q 158.15 174.05 160.85 171.85
L 160.8 171.8
Q 158.1 174.05 155.25 176.1
L 153.5 177.3 155.35 176.1
M 13.2 134.25
Q 13.4 134.8 13.6 135.35
L 14 136.3
Q 14 136.35 14.05 136.45 21.2 153.3 34.2 166.3 36.3388671875 168.4388671875 38.55 170.35 38.6037109375 170.2462890625 38.65 170.2 30.85 163.3 24.5 154.55 17.45 144.85 13.2 134.25
M 194.15 105.55
L 194.05 105.55
Q 193.952734375 107.5447265625 193.8 109.55 193.8197265625 109.460546875 193.85 109.4
L 194.15 105.8
Q 194.15 105.6751953125 194.15 105.55 Z"/>

<path fill="#B3B3B3" stroke="none" d="
M 112.85 117.95
L 113.15 119.15
Q 113.15 118.95 113.1 118.8
L 112.85 117.95 Z"/>
</g>

<g id="Layer0_1_FILL">
<path fill="#B3B3B3" stroke="none" d="
M 759.7 650.1
Q 759.2896484375 648.70625 758.8 647.35
L 671.75 608.75
Q 675.717578125 613.7505859375 680.8 620.35 681.9419921875 620.407421875 682.5 621
L 692.05 632.95
Q 694.35 636 694.75 636.8 695.25 637.8 694.65 638.4
L 695.55 640.4
Q 699.1 649.1 698 661.6 696.9 674 691.75 685.15 691.2 686.35 689 687.05
L 686.9 687.55
Q 687.7 684.4 688.6 679
L 688.35 679.05
Q 687.2 681.85 686.1 683.55 684.9451171875 685.3890625 682.15 688.2
L 682.1 688.5 681.85 693.85
Q 683.8 694.2 686.6 697.45 688.75 699.95 689.8 701.95
L 717.15 711.15 717.75 711.15
Q 718.5 711.3 719.25 711.95 721.65 714.05 723.2 720.45 724.15 724.45 729.8 747.7
L 729.8 747.7
Q 732.9322265625 745.1064453125 735.85 742.2 736.00234375 742.0470703125 736.15 741.9
L 740 737.75
Q 740.1451171875 737.5798828125 740.3 737.4 740.5001953125 737.1732421875 740.7 736.95
L 741.55 735.95
Q 750.4609375 725.2857421875 755.95 712.35 758.9244140625 705.3083984375 760.7 698
L 762.75 685.75
Q 762.7892578125 685.6310546875 762.8 685.5 762.9484375 683.49921875 763.05 681.45
L 763.1 681.45
Q 763.148828125 681.0712890625 763.15 680.7
L 763.3 676.55
Q 763.3 676.2134765625 763.3 675.85 763.3 675.7560546875 763.3 675.65
L 763.15 671.3
Q 763.1294921875 670.61484375 763.05 669.9 763.0359375 669.153515625 763 668.4
L 762.55 664
Q 761.784375 657.661328125 760.1 651.5 760.0646484375 651.274609375 760 651.05
L 759.85 650.6
Q 759.8005859375 650.3533203125 759.7 650.1 Z"/>
</g>

<g id="Layer0_2_FILL">
<path fill="#CCCCCC" stroke="none" d="
M 694.25 740.7
L 694.2 740.75 692.95 740.75 692.9 740.7
Q 691.75 739.55 687.9 738.9
L 684.3 738.5 686 740.05
Q 688.1 741.8 689.8 742.7 691.8 743.75 692.95 742.9
L 694.2 742.9
Q 695.4 743.75 697.3 742.7 700.1 741.25 702.85 738.5 701.15 738.6 699.25 738.9 695.4 739.55 694.25 740.7
M 662.3 636.35
Q 664.4 638.1 666.1 639 668.1 640.05 669.25 639.2
L 670.5 639.2
Q 671.7 640.05 673.6 639 676.4 637.55 679.15 634.8 677.45 634.9 675.55 635.2 671.7 635.85 670.55 637
L 670.5 637.05 669.25 637.05 669.2 637
Q 668.05 635.85 664.2 635.2
L 660.6 634.8 662.3 636.35
M 706 589.45
Q 705.8640625 589.392578125 705.7 589.3
L 699.35 586.9
Q 698.2587890625 586.5990234375 697.15 586.25 704.352734375 588.5740234375 711.2 592.05
L 711.2 592.1
Q 696.8 587.3 681.55 587.3 662.55 587.3 645.15 594.65 628.4 601.75 615.45 614.7 602.5 627.65 595.4 644.4 588.05 661.8 588.05 680.8 588.05 707.65 602.2 730.25 605.54765625 735.6380859375 609.45 740.4 614.3666015625 725.1322265625 615.45 720.45 617 714.05 619.4 711.95 620.15 711.3 620.9 711.15 621.3 711.1 621.5 711.15
L 649.3 701.8
Q 650.55 699.6 652.55 697.3 655.3 694.2 657.2 693.85
L 656.95 694.7
Q 656.7 695.75 657 697.05 657.25 698.3 661.2 702.15
L 666.35 707.15 667.7 708.75 667.7 736.25 669.5 738.8 671.3 736.25 671.3 708.75 672.7 707.15
Q 672.834375 706.970703125 676.8 703.1 676.8626953125 703.0630859375 676.9 703 677.3275390625 702.608203125 677.8 702.15 681.8 698.3 682.05 697.05 682.2623046875 695.94609375 682.15 695
L 681.85 693.85 682.1 688.5 682.15 688.2
Q 681.6705078125 688.6939453125 681.15 689.2
L 679.65 690.6
Q 679.2251953125 691.0177734375 678.8 691.35
L 676.55 693.2
Q 676.53984375 693.2240234375 676.5 693.25 673.5 695.2 670.1 695.2
L 670 695.2
Q 669.1 695.25 667.6 694.95 665.35 694.45 663.55 693.25 662.4494140625 692.52890625 660.4 690.6 660.361328125 690.5892578125 660.3 690.55 659.7029296875 689.9802734375 659 689.3 655.35 685.8 653.9 683.55 652.95 682.05 651.7 679.15 652.2 682.15 652.95 685.55 653.45 687.75 653.35 687.55 652.35 687.45 651.25 687.05 649.05 686.35 648.5 685.15 644.8 677.2 643.15 668.2 641.5 659.35 642.2 651.4 642.55 644.75 645.1 639 643.8 638 644.05 637.2 644.3 636.45 646.9 632.95 649.5 629.55 656.4 621
L 663.5 628.8 665.4 630.45
Q 667.65 632.1 669.45 632.1 671.25 632.1 673.55 630.45 674.7 629.65 675.45 628.8
L 682.5 621
Q 681.9419921875 620.407421875 680.8 620.35
L 675.45 626.25
Q 674.7 627.1 673.55 627.9 671.25 629.55 669.45 629.55 667.65 629.55 665.4 627.9
L 663.5 626.25 658.15 620.35 667.1 608.75
Q 667.65 608.2 668.3 609.85 668.95 609.5 669.45 609.4
L 670.6 609.85
Q 671.25 608.25 671.75 608.75
L 758.8 647.35
Q 759.2896484375 648.70625 759.7 650.1 759.8005859375 650.3533203125 759.85 650.6 758.290234375 644.88984375 755.95 639.35 748.8 622.5 735.85 609.55 722.85 596.6 706 589.45
M 659.2 691.7
L 659.25 691.75
Q 660.9677734375 693.0509765625 662.9 694.2 662.948828125 694.2392578125 662.95 694.25 664.231640625 695.0005859375 665.6 695.7 667.9 696.85 669.5 697.45
L 673.35 696.1
Q 677.2671875 694.4642578125 680.25 692.1 680.741015625 691.746484375 681.2 691.35
L 681.2 696.4
Q 680.25 698.1 678.3 700.3 677.32578125 701.3990234375 676.3 702.4 673.1759765625 705.3619140625 669.5 707.35 665.27421875 705.0876953125 661.85 701.55 661.26328125 700.94375 660.7 700.3
L 657.8 696.4 657.8 690.55 658.85 691.4
Q 659.041015625 691.561328125 659.2 691.7 Z"/>
</g>

<g id="Layer0_3_FILL">
<path fill="#000000" stroke="none" d="
M 717.75 711.15
L 717.15 711.15 689.8 701.95
Q 688.75 699.95 686.6 697.45 683.8 694.2 681.85 693.85
L 682.1 694.7
Q 682.130078125 694.8583984375 682.15 695 682.2623046875 695.94609375 682.05 697.05 681.8 698.3 677.8 702.15 677.3275390625 702.608203125 676.9 703 676.8626953125 703.0630859375 676.8 703.1 672.834375 706.970703125 672.7 707.15
L 671.3 708.75 671.3 736.25 669.5 738.8 667.7 736.25 667.7 708.75 666.35 707.15 661.2 702.15
Q 657.25 698.3 657 697.05 656.7 695.75 656.95 694.7
L 657.2 693.85
Q 655.3 694.2 652.55 697.3 650.55 699.6 649.3 701.8
L 621.5 711.15
Q 621.3 711.1 620.9 711.15 620.15 711.3 619.4 711.95 617 714.05 615.45 720.45 614.3666015625 725.1322265625 609.45 740.4 608.59921875 743.0828125 607.6 746.05 607.5841796875 746.1703125 607.55 746.25 607.8177734375 746.512109375 608.05 746.75
L 611.9 749.9
Q 612.0154296875 749.984375 612.1 750.05 612.19765625 750.1212890625 612.3 750.2 612.41796875 750.2931640625 612.5 750.35 613.6103515625 751.203125 614.7 752 625.05 759.35 636.85 763.65 650.4 768.65 664.85 769.55 679.15 770.05 693 766.45 705.65 763.25 717.05 756.55 719.8 754.95 722.45 753.2
L 724.25 752
Q 727.1 749.959375 729.8 747.7 724.15 724.45 723.2 720.45 721.65 714.05 719.25 711.95 718.5 711.3 717.75 711.15
M 694.2 740.75
L 694.25 740.7
Q 695.4 739.55 699.25 738.9 701.15 738.6 702.85 738.5 700.1 741.25 697.3 742.7 695.4 743.75 694.2 742.9
L 692.95 742.9
Q 691.8 743.75 689.8 742.7 688.1 741.8 686 740.05
L 684.3 738.5 687.9 738.9
Q 691.75 739.55 692.9 740.7
L 692.95 740.75 694.2 740.75
M 659.25 691.75
L 659.2 691.7
Q 659.041015625 691.561328125 658.85 691.4
L 657.8 690.55 657.8 696.4 660.7 700.3
Q 661.26328125 700.94375 661.85 701.55 665.27421875 705.0876953125 669.5 707.35 673.1759765625 705.3619140625 676.3 702.4 677.32578125 701.3990234375 678.3 700.3 680.25 698.1 681.2 696.4
L 681.2 691.35
Q 680.741015625 691.746484375 680.25 692.1 677.2671875 694.4642578125 673.35 696.1
L 669.5 697.45
Q 667.9 696.85 665.6 695.7 664.231640625 695.0005859375 662.95 694.25 662.948828125 694.2392578125 662.9 694.2 660.9677734375 693.0509765625 659.25 691.75
M 671.75 608.75
Q 671.25 608.25 670.6 609.85
L 669.45 609.4
Q 668.95 609.5 668.3 609.85 667.65 608.2 667.1 608.75
L 658.15 620.35 663.5 626.25 665.4 627.9
Q 667.65 629.55 669.45 629.55 671.25 629.55 673.55 627.9 674.7 627.1 675.45 626.25
L 680.8 620.35
Q 675.717578125 613.7505859375 671.75 608.75
M 695.55 640.4
L 694.65 638.4
Q 695.25 637.8 694.75 636.8 694.35 636 692.05 632.95
L 682.5 621 675.45 628.8
Q 674.7 629.65 673.55 630.45 671.25 632.1 669.45 632.1 667.65 632.1 665.4 630.45
L 663.5 628.8 656.4 621
Q 649.5 629.55 646.9 632.95 644.3 636.45 644.05 637.2 643.8 638 645.1 639 642.55 644.75 642.2 651.4 641.5 659.35 643.15 668.2 644.8 677.2 648.5 685.15 649.05 686.35 651.25 687.05 652.35 687.45 653.35 687.55 653.45 687.75 652.95 685.55 652.2 682.15 651.7 679.15 652.95 682.05 653.9 683.55 655.35 685.8 659 689.3 659.7029296875 689.9802734375 660.3 690.55 660.361328125 690.5892578125 660.4 690.6 662.4494140625 692.52890625 663.55 693.25 665.35 694.45 667.6 694.95 669.1 695.25 670 695.2
L 670.1 695.2
Q 673.5 695.2 676.5 693.25 676.53984375 693.2240234375 676.55 693.2
L 678.8 691.35
Q 679.01484375 691.193359375 679.2 691 679.44296875 690.8052734375 679.65 690.6
L 681.15 689.2
Q 681.6705078125 688.6939453125 682.15 688.2 684.9451171875 685.3890625 686.1 683.55 687.2 681.85 688.35 679.05
L 688.6 679
Q 687.7 684.4 686.9 687.55
L 689 687.05
Q 691.2 686.35 691.75 685.15 696.9 674 698 661.6 699.1 649.1 695.55 640.4
M 666.1 639
Q 664.4 638.1 662.3 636.35
L 660.6 634.8 664.2 635.2
Q 668.05 635.85 669.2 637
L 669.25 637.05 670.5 637.05 670.55 637
Q 671.7 635.85 675.55 635.2 677.45 634.9 679.15 634.8 676.4 637.55 673.6 639 671.7 640.05 670.5 639.2
L 669.25 639.2
Q 668.1 640.05 666.1 639 Z"/>
</g>

<g id="Layer0_4_FILL">
<path fill="#999999" stroke="none" d="
M 669.5 582.1
Q 669.3751953125 582.1 669.25 582.1 652.6921875 582.1419921875 637.4 587.7
L 637.35 587.7
Q 635.0767578125 588.509375 632.85 589.45 616.05 596.55 603.1 609.5 590.15 622.45 583.05 639.2 582.109375 641.4267578125 581.3 643.7
L 581.3 643.75
Q 575.7421875 659.042578125 575.7 675.6 575.7 675.725 575.7 675.85 575.7 694.3318359375 582.55 711.2 582.376953125 710.6908203125 582.15 710.15 586.458984375 720.75859375 593.5 730.45 599.8580078125 739.2197265625 607.6 746.05 608.59921875 743.0828125 609.45 740.4 605.54765625 735.6380859375 602.2 730.25 588.05 707.65 588.05 680.8 588.05 661.8 595.4 644.4 602.5 627.65 615.45 614.7 628.4 601.75 645.15 594.65 662.55 587.3 681.55 587.3 696.8 587.3 711.2 592.1
L 711.2 592.05
Q 704.352734375 588.5740234375 697.15 586.25 698.2587890625 586.5990234375 699.35 586.9 684.9822265625 582.1 669.5 582.1 Z"/>
</g>
</defs>

<g transform="matrix( 1, 0, 0, 1, 0,0) ">
<use xlink:href="#Layer0_0_FILL"/>
</g>

<g transform="matrix( 1, 0, 0, 1, -569,-575.9) ">
<use xlink:href="#Layer0_1_FILL"/>
</g>

<g transform="matrix( 1, 0, 0, 1, -569,-575.9) ">
<use xlink:href="#Layer0_2_FILL"/>
</g>

<g transform="matrix( 1, 0, 0, 1, -569,-575.9) ">
<use xlink:href="#Layer0_3_FILL"/>
</g>

<g transform="matrix( 1, 0, 0, 1, -569,-575.9) ">
<use xlink:href="#Layer0_4_FILL"/>
</g>
</svg>
