<?xml version="1.0" encoding="iso-8859-1"?>
<!-- Generator: Adobe Illustrator 18.1.0, SVG Export Plug-In . SVG Version: 6.00 Build 0)  -->
<!DOCTYPE svg PUBLIC "-//W3C//DTD SVG 1.1//EN" "http://www.w3.org/Graphics/SVG/1.1/DTD/svg11.dtd">
<svg version="1.1" xmlns="http://www.w3.org/2000/svg" xmlns:xlink="http://www.w3.org/1999/xlink" x="0px" y="0px"
	 viewBox="0 0 106.243 42.47" style="enable-background:new 0 0 106.243 42.47;" xml:space="preserve">
<g id="logo_x5F_white">
	<polygon style="fill-rule:evenodd;clip-rule:evenodd;fill:#FFFFFF;" points="0,0 20.683,0 20.683,2.913 0,2.913 0,0 	"/>
	<polygon style="fill-rule:evenodd;clip-rule:evenodd;fill:#FFFFFF;" points="45.877,0 46.644,0 47.37,0.116 48.095,0.252 
		48.831,0.41 49.567,0.652 50.24,0.925 50.913,1.251 51.597,1.609 52.217,2.04 52.817,2.471 53.279,2.913 23.648,2.913 23.648,0 
		45.877,0 	"/>
	<polygon style="fill-rule:evenodd;clip-rule:evenodd;fill:#FFFFFF;" points="59.105,0 75.918,0 76.949,2.913 59.105,2.913 
		59.105,0 	"/>
	<polygon style="fill-rule:evenodd;clip-rule:evenodd;fill:#FFFFFF;" points="89.588,0 106.243,0 106.243,2.913 88.557,2.913 
		89.588,0 	"/>
	<polygon style="fill-rule:evenodd;clip-rule:evenodd;fill:#FFFFFF;" points="0,5.668 20.683,5.668 20.683,8.538 0,8.538 0,5.668 	
		"/>
	<polygon style="fill-rule:evenodd;clip-rule:evenodd;fill:#FFFFFF;" points="5.909,11.283 14.752,11.283 14.752,14.216 
		5.909,14.216 5.909,11.283 	"/>
	<polygon style="fill-rule:evenodd;clip-rule:evenodd;fill:#FFFFFF;" points="5.909,16.919 14.752,16.919 14.752,19.852 
		5.909,19.852 5.909,16.919 	"/>
	<polygon style="fill-rule:evenodd;clip-rule:evenodd;fill:#FFFFFF;" points="55.372,5.668 55.53,5.941 55.855,6.624 56.129,7.382 
		56.476,8.538 23.648,8.538 23.648,5.668 55.372,5.668 	"/>
	<polygon style="fill-rule:evenodd;clip-rule:evenodd;fill:#FFFFFF;" points="29.557,11.283 38.39,11.283 38.39,14.216 
		29.557,14.216 29.557,11.283 	"/>
	<polygon style="fill-rule:evenodd;clip-rule:evenodd;fill:#FFFFFF;" points="56.749,11.283 56.728,11.745 56.644,12.502 
		56.528,13.238 56.35,13.964 56.266,14.216 47.286,14.216 47.286,11.283 56.749,11.283 	"/>
	<polygon style="fill-rule:evenodd;clip-rule:evenodd;fill:#FFFFFF;" points="55.014,16.919 54.741,17.329 54.278,17.928 
		53.795,18.496 53.279,19.032 52.711,19.526 52.217,19.852 29.557,19.852 29.557,16.919 55.014,16.919 	"/>
	<polygon style="fill-rule:evenodd;clip-rule:evenodd;fill:#FFFFFF;" points="59.105,5.668 77.895,5.668 78.926,8.538 59.105,8.538 
		59.105,5.668 	"/>
	<polygon style="fill-rule:evenodd;clip-rule:evenodd;fill:#FFFFFF;" points="106.243,5.668 106.243,8.538 86.601,8.538 87.6,5.668 
		106.243,5.668 	"/>
	<polygon style="fill-rule:evenodd;clip-rule:evenodd;fill:#FFFFFF;" points="65.025,11.283 79.851,11.283 80.881,14.216 
		65.025,14.216 65.025,11.283 	"/>
	<polygon style="fill-rule:evenodd;clip-rule:evenodd;fill:#FFFFFF;" points="100.481,11.283 100.481,14.216 84.614,14.216 
		85.623,11.283 100.481,11.283 	"/>
	<polygon style="fill-rule:evenodd;clip-rule:evenodd;fill:#FFFFFF;" points="74.814,19.852 90.723,19.852 91.617,17.245 
		91.617,19.852 100.481,19.852 100.481,16.919 83.678,16.919 82.753,19.526 81.828,16.919 65.025,16.919 65.025,19.852 
		73.889,19.852 73.889,17.224 74.814,19.852 	"/>
	<polygon style="fill-rule:evenodd;clip-rule:evenodd;fill:#FFFFFF;" points="0,39.515 20.683,39.515 20.683,42.47 0,42.47 
		0,39.515 	"/>
	<polygon style="fill-rule:evenodd;clip-rule:evenodd;fill:#FFFFFF;" points="0,33.837 20.683,33.837 20.683,36.792 0,36.792 
		0,33.837 	"/>
	<polygon style="fill-rule:evenodd;clip-rule:evenodd;fill:#FFFFFF;" points="5.909,22.586 14.752,22.586 14.752,25.488 
		5.909,25.488 5.909,22.586 	"/>
	<polygon style="fill-rule:evenodd;clip-rule:evenodd;fill:#FFFFFF;" points="5.909,28.222 14.752,28.222 14.752,31.156 
		5.909,31.156 5.909,28.222 	"/>
	<polygon style="fill-rule:evenodd;clip-rule:evenodd;fill:#FFFFFF;" points="52.217,22.586 52.711,22.944 53.279,23.427 
		53.795,23.974 54.278,24.542 54.741,25.141 55.014,25.488 29.557,25.488 29.557,22.586 52.217,22.586 	"/>
	<polygon style="fill-rule:evenodd;clip-rule:evenodd;fill:#FFFFFF;" points="29.557,28.222 38.39,28.222 38.39,31.156 
		29.557,31.156 29.557,28.222 	"/>
	<polygon style="fill-rule:evenodd;clip-rule:evenodd;fill:#FFFFFF;" points="56.266,28.222 56.35,28.506 56.528,29.232 
		56.644,29.957 56.728,30.714 56.749,31.156 47.286,31.156 47.286,28.222 56.266,28.222 	"/>
	<polygon style="fill-rule:evenodd;clip-rule:evenodd;fill:#FFFFFF;" points="56.476,33.837 56.35,34.437 56.129,35.141 
		55.855,35.846 55.53,36.529 55.372,36.792 23.648,36.792 23.648,33.837 56.476,33.837 	"/>
	<polygon style="fill-rule:evenodd;clip-rule:evenodd;fill:#FFFFFF;" points="53.279,39.515 52.711,39.989 52.112,40.451 
		51.492,40.861 50.819,41.219 50.135,41.545 49.462,41.808 48.726,42.06 47.99,42.218 47.286,42.354 46.529,42.439 45.772,42.47 
		23.648,42.47 23.648,39.515 53.279,39.515 	"/>
	<polygon style="fill-rule:evenodd;clip-rule:evenodd;fill:#FFFFFF;" points="65.025,22.586 73.889,22.586 73.889,25.488 
		65.025,25.488 65.025,22.586 	"/>
	<polygon style="fill-rule:evenodd;clip-rule:evenodd;fill:#FFFFFF;" points="88.746,25.488 76.728,25.488 75.729,22.586 
		89.766,22.586 88.746,25.488 	"/>
	<polygon style="fill-rule:evenodd;clip-rule:evenodd;fill:#FFFFFF;" points="91.617,22.586 100.481,22.586 100.481,25.488 
		91.617,25.488 91.617,22.586 	"/>
	<polygon style="fill-rule:evenodd;clip-rule:evenodd;fill:#FFFFFF;" points="65.025,28.222 73.889,28.222 73.889,31.156 
		65.025,31.156 65.025,28.222 	"/>
	<polygon style="fill-rule:evenodd;clip-rule:evenodd;fill:#FFFFFF;" points="87.853,28.222 86.843,31.156 78.662,31.156 
		77.653,28.222 87.853,28.222 	"/>
	<polygon style="fill-rule:evenodd;clip-rule:evenodd;fill:#FFFFFF;" points="91.617,28.222 100.481,28.222 100.481,31.156 
		91.617,31.156 91.617,28.222 	"/>
	<polygon style="fill-rule:evenodd;clip-rule:evenodd;fill:#FFFFFF;" points="59.105,33.837 73.889,33.837 73.889,36.792 
		59.105,36.792 59.105,33.837 	"/>
	<polygon style="fill-rule:evenodd;clip-rule:evenodd;fill:#FFFFFF;" points="85.918,33.837 84.919,36.792 80.587,36.792 
		79.577,33.837 85.918,33.837 	"/>
	<polygon style="fill-rule:evenodd;clip-rule:evenodd;fill:#FFFFFF;" points="91.617,33.837 106.243,33.837 106.243,36.792 
		91.617,36.792 91.617,33.837 	"/>
	<polygon style="fill-rule:evenodd;clip-rule:evenodd;fill:#FFFFFF;" points="59.105,39.515 73.889,39.515 73.889,42.47 
		59.105,42.47 59.105,39.515 	"/>
	<polygon style="fill-rule:evenodd;clip-rule:evenodd;fill:#FFFFFF;" points="91.617,39.515 106.243,39.515 106.243,42.47 
		91.617,42.47 91.617,39.515 	"/>
	<polygon style="fill-rule:evenodd;clip-rule:evenodd;fill:#FFFFFF;" points="82.963,42.47 83.973,39.515 81.533,39.515 
		82.532,42.47 82.963,42.47 	"/>
</g>
<g id="Layer_1">
</g>
</svg>
