<?xml version="1.0" encoding="iso-8859-1"?>
<!-- Generator: Adobe Illustrator 18.1.0, SVG Export Plug-In . SVG Version: 6.00 Build 0)  -->
<!DOCTYPE svg PUBLIC "-//W3C//DTD SVG 1.1//EN" "http://www.w3.org/Graphics/SVG/1.1/DTD/svg11.dtd">
<svg version="1.1" xmlns="http://www.w3.org/2000/svg" xmlns:xlink="http://www.w3.org/1999/xlink" x="0px" y="0px"
	 viewBox="0 0 98.769 39.482" style="enable-background:new 0 0 98.769 39.482;" xml:space="preserve">
<g id="logo_x5F_blue">
	<polygon style="fill-rule:evenodd;clip-rule:evenodd;fill:#007CC2;" points="0,0 19.228,0 19.228,2.708 0,2.708 0,0 	"/>
	<polygon style="fill-rule:evenodd;clip-rule:evenodd;fill:#007CC2;" points="42.649,0 43.363,0 44.037,0.108 44.712,0.235 
		45.396,0.381 46.08,0.606 46.706,0.86 47.332,1.163 47.967,1.496 48.544,1.896 49.101,2.297 49.531,2.708 21.984,2.708 21.984,0 
		42.649,0 	"/>
	<polygon style="fill-rule:evenodd;clip-rule:evenodd;fill:#007CC2;" points="54.946,0 70.577,0 71.535,2.708 54.946,2.708 
		54.946,0 	"/>
	<polygon style="fill-rule:evenodd;clip-rule:evenodd;fill:#007CC2;" points="83.285,0 98.769,0 98.769,2.708 82.327,2.708 
		83.285,0 	"/>
	<polygon style="fill-rule:evenodd;clip-rule:evenodd;fill:#007CC2;" points="0,5.269 19.228,5.269 19.228,7.938 0,7.938 0,5.269 	
		"/>
	<polygon style="fill-rule:evenodd;clip-rule:evenodd;fill:#007CC2;" points="5.493,10.489 13.714,10.489 13.714,13.216 
		5.493,13.216 5.493,10.489 	"/>
	<polygon style="fill-rule:evenodd;clip-rule:evenodd;fill:#007CC2;" points="5.493,15.728 13.714,15.728 13.714,18.456 
		5.493,18.456 5.493,15.728 	"/>
	<polygon style="fill-rule:evenodd;clip-rule:evenodd;fill:#007CC2;" points="51.476,5.269 51.623,5.523 51.926,6.158 52.18,6.862 
		52.503,7.938 21.984,7.938 21.984,5.269 51.476,5.269 	"/>
	<polygon style="fill-rule:evenodd;clip-rule:evenodd;fill:#007CC2;" points="27.478,10.489 35.689,10.489 35.689,13.216 
		27.478,13.216 27.478,10.489 	"/>
	<polygon style="fill-rule:evenodd;clip-rule:evenodd;fill:#007CC2;" points="52.757,10.489 52.737,10.919 52.659,11.623 
		52.551,12.307 52.385,12.982 52.307,13.216 43.959,13.216 43.959,10.489 52.757,10.489 	"/>
	<polygon style="fill-rule:evenodd;clip-rule:evenodd;fill:#007CC2;" points="51.144,15.728 50.89,16.11 50.46,16.667 50.01,17.195 
		49.531,17.693 49.003,18.153 48.544,18.456 27.478,18.456 27.478,15.728 51.144,15.728 	"/>
	<polygon style="fill-rule:evenodd;clip-rule:evenodd;fill:#007CC2;" points="54.946,5.269 72.415,5.269 73.373,7.938 54.946,7.938 
		54.946,5.269 	"/>
	<polygon style="fill-rule:evenodd;clip-rule:evenodd;fill:#007CC2;" points="98.769,5.269 98.769,7.938 80.509,7.938 81.437,5.269 
		98.769,5.269 	"/>
	<polygon style="fill-rule:evenodd;clip-rule:evenodd;fill:#007CC2;" points="60.45,10.489 74.233,10.489 75.191,13.216 
		60.45,13.216 60.45,10.489 	"/>
	<polygon style="fill-rule:evenodd;clip-rule:evenodd;fill:#007CC2;" points="93.412,10.489 93.412,13.216 78.661,13.216 
		79.6,10.489 93.412,10.489 	"/>
	<polygon style="fill-rule:evenodd;clip-rule:evenodd;fill:#007CC2;" points="69.551,18.456 84.341,18.456 85.171,16.031 
		85.171,18.456 93.412,18.456 93.412,15.728 77.791,15.728 76.931,18.153 76.071,15.728 60.45,15.728 60.45,18.456 68.69,18.456 
		68.69,16.012 69.551,18.456 	"/>
	<polygon style="fill-rule:evenodd;clip-rule:evenodd;fill:#007CC2;" points="0,36.735 19.228,36.735 19.228,39.482 0,39.482 
		0,36.735 	"/>
	<polygon style="fill-rule:evenodd;clip-rule:evenodd;fill:#007CC2;" points="0,31.457 19.228,31.457 19.228,34.204 0,34.204 
		0,31.457 	"/>
	<polygon style="fill-rule:evenodd;clip-rule:evenodd;fill:#007CC2;" points="5.493,20.997 13.714,20.997 13.714,23.695 
		5.493,23.695 5.493,20.997 	"/>
	<polygon style="fill-rule:evenodd;clip-rule:evenodd;fill:#007CC2;" points="5.493,26.237 13.714,26.237 13.714,28.964 
		5.493,28.964 5.493,26.237 	"/>
	<polygon style="fill-rule:evenodd;clip-rule:evenodd;fill:#007CC2;" points="48.544,20.997 49.003,21.33 49.531,21.779 
		50.01,22.288 50.46,22.815 50.89,23.373 51.144,23.695 27.478,23.695 27.478,20.997 48.544,20.997 	"/>
	<polygon style="fill-rule:evenodd;clip-rule:evenodd;fill:#007CC2;" points="27.478,26.237 35.689,26.237 35.689,28.964 
		27.478,28.964 27.478,26.237 	"/>
	<polygon style="fill-rule:evenodd;clip-rule:evenodd;fill:#007CC2;" points="52.307,26.237 52.385,26.501 52.551,27.175 
		52.659,27.85 52.737,28.554 52.757,28.964 43.959,28.964 43.959,26.237 52.307,26.237 	"/>
	<polygon style="fill-rule:evenodd;clip-rule:evenodd;fill:#007CC2;" points="52.503,31.457 52.385,32.014 52.18,32.669 
		51.926,33.324 51.623,33.959 51.476,34.204 21.984,34.204 21.984,31.457 52.503,31.457 	"/>
	<polygon style="fill-rule:evenodd;clip-rule:evenodd;fill:#007CC2;" points="49.531,36.735 49.003,37.175 48.446,37.605 
		47.869,37.986 47.244,38.319 46.608,38.622 45.983,38.866 45.298,39.101 44.614,39.248 43.959,39.375 43.255,39.453 42.551,39.482 
		21.984,39.482 21.984,36.735 49.531,36.735 	"/>
	<polygon style="fill-rule:evenodd;clip-rule:evenodd;fill:#007CC2;" points="60.45,20.997 68.69,20.997 68.69,23.695 60.45,23.695 
		60.45,20.997 	"/>
	<polygon style="fill-rule:evenodd;clip-rule:evenodd;fill:#007CC2;" points="82.503,23.695 71.33,23.695 70.401,20.997 
		83.451,20.997 82.503,23.695 	"/>
	<polygon style="fill-rule:evenodd;clip-rule:evenodd;fill:#007CC2;" points="85.171,20.997 93.412,20.997 93.412,23.695 
		85.171,23.695 85.171,20.997 	"/>
	<polygon style="fill-rule:evenodd;clip-rule:evenodd;fill:#007CC2;" points="60.45,26.237 68.69,26.237 68.69,28.964 60.45,28.964 
		60.45,26.237 	"/>
	<polygon style="fill-rule:evenodd;clip-rule:evenodd;fill:#007CC2;" points="81.672,26.237 80.734,28.964 73.128,28.964 
		72.19,26.237 81.672,26.237 	"/>
	<polygon style="fill-rule:evenodd;clip-rule:evenodd;fill:#007CC2;" points="85.171,26.237 93.412,26.237 93.412,28.964 
		85.171,28.964 85.171,26.237 	"/>
	<polygon style="fill-rule:evenodd;clip-rule:evenodd;fill:#007CC2;" points="54.946,31.457 68.69,31.457 68.69,34.204 
		54.946,34.204 54.946,31.457 	"/>
	<polygon style="fill-rule:evenodd;clip-rule:evenodd;fill:#007CC2;" points="79.873,31.457 78.945,34.204 74.917,34.204 
		73.979,31.457 79.873,31.457 	"/>
	<polygon style="fill-rule:evenodd;clip-rule:evenodd;fill:#007CC2;" points="85.171,31.457 98.769,31.457 98.769,34.204 
		85.171,34.204 85.171,31.457 	"/>
	<polygon style="fill-rule:evenodd;clip-rule:evenodd;fill:#007CC2;" points="54.946,36.735 68.69,36.735 68.69,39.482 
		54.946,39.482 54.946,36.735 	"/>
	<polygon style="fill-rule:evenodd;clip-rule:evenodd;fill:#007CC2;" points="85.171,36.735 98.769,36.735 98.769,39.482 
		85.171,39.482 85.171,36.735 	"/>
	<polygon style="fill-rule:evenodd;clip-rule:evenodd;fill:#007CC2;" points="77.126,39.482 78.065,36.735 75.797,36.735 
		76.726,39.482 77.126,39.482 	"/>
</g>
<g id="Layer_1">
</g>
</svg>
