<?xml version="1.0" encoding="iso-8859-1"?>
<!-- Generator: Adobe Illustrator 18.1.0, SVG Export Plug-In . SVG Version: 6.00 Build 0)  -->
<!DOCTYPE svg PUBLIC "-//W3C//DTD SVG 1.1//EN" "http://www.w3.org/Graphics/SVG/1.1/DTD/svg11.dtd">
<svg version="1.1" xmlns="http://www.w3.org/2000/svg" xmlns:xlink="http://www.w3.org/1999/xlink" x="0px" y="0px"
	 viewBox="0 0 257.311 250.339" style="enable-background:new 0 0 257.311 250.339;" xml:space="preserve">
<g id="man_x5F_compter">
	<path d="M43.65,96.918c-0.003,0.017-0.009,0.031-0.009,0.048c-0.003-0.003-0.003-0.003-0.003-0.006
		c-0.017-0.002-0.029-0.005-0.045-0.008C43.611,96.941,43.631,96.93,43.65,96.918"/>
	<path d="M63.605,179.963c-2.241,2.734-3.982,5.723-5.713,8.723c-0.553,2.591-2.207,4.713-3.697,6.908
		c-0.185,0.267-0.368,0.589-0.366,0.888c0,0.265,0.264,0.753,0.403,0.753c3.418-0.047,6.833-0.141,10.251-0.256
		c0.336-0.011,0.663-0.217,0.996-0.336c0.415-0.149,0.574-0.406,0.425-0.756c-0.191-0.443-0.362-0.899-0.622-1.309
		c-0.355-0.556-0.913-1.026-1.163-1.61c-1.05-2.469-1.082-5.013-0.45-7.564c0.044-0.168,0.659-0.392,0.912-0.318
		c0.482,0.135,1.025,0.381,1.319,0.73c1.729,2.054,3.386,4.153,5.083,6.223c0.391,0.474,0.84,0.903,1.474,1.577
		c0.187-1.692,0.128-3.091,0.676-4.409c0.06-0.143,0.025-0.319,0.025-0.479c0.035-1.693-0.276-3.149-2.412-3.84
		c-1.165-0.377-2.211-1.063-3.27-1.664c-0.206-0.113-0.263-0.465-0.326-0.719c-0.01-0.045,0.295-0.22,0.45-0.218
		c0.892,0.032,1.792,0.034,2.666,0.175c0.511,0.082,0.965,0.421,1.462,0.607c0.565,0.212,1.18-0.023,1.212-0.452
		c0.021-0.313,0.117-0.736-0.067-0.927c-0.799-0.85-1.576-1.775-2.568-2.421C66.24,176.626,66.376,176.583,63.605,179.963
		 M60.057,237.475l0.06,0.3c-0.032,0.008-0.066,0.016-0.101,0.022c-0.222-0.082-0.451-0.167-0.672-0.248
		c0.003,0.132,0.003,0.262,0.006,0.392c0.222-0.045,0.447-0.09,0.666-0.144c0.038,0.014,0.076,0.028,0.114,0.043l-0.013-0.065
		c0.029-0.006,0.054-0.015,0.08-0.02L60.057,237.475z M141.005,122.259c0.044-0.144,0.12-0.285,0.111-0.423
		c0-0.048-0.219-0.087-0.337-0.13c-0.044,0.136-0.091,0.273-0.136,0.409C140.763,122.163,140.885,122.211,141.005,122.259
		 M167.81,126.451c1.807,0.203,3.593,0.324,5.365-0.268c0.91-0.299,1.829-0.133,2.447,0.57c0.812,0.919,1.877,1.506,3.013,2.016
		c2.958,1.332,5.355,3.279,7.591,5.417c0.081,0.079,0.164,0.158,0.244,0.24c-1.288-3.823-2.578-7.645-3.869-11.467
		c-0.251-0.745-0.52-1.481-0.799-2.218c-2.327,1.456-4.901,2.341-7.797,2.375c-0.901,0.011-1.807-0.075-2.711-0.138
		c-1.55-0.107-2.853,0.395-3.906,1.363c-0.339,0.313-0.539,0.784-0.688,1.213C166.592,125.861,167.318,126.395,167.81,126.451
		 M218.715,230.654c-0.12-0.742-0.133-1.351-0.323-1.915c-0.647-1.907-1.392-3.791-2.036-5.701
		c-7.033-20.852-14.062-41.704-21.094-62.556c-1.04,0.293-2.083,0.575-3.127,0.866c-1.072,1.527-0.396,3.154-0.266,4.722
		c0.558,6.75,1.157,13.501,1.852,20.243c0.466,4.496,1.129,8.973,1.67,13.461c0.27,2.243,0.467,4.497,0.695,6.742
		c0.143,1.374-0.34,2.496-1.503,3.459c-2.416,2.005-5.067,3.647-8.253,4.529c-0.862,0.241-1.741,0.444-2.584,0.737
		c-0.292,0.099-0.562,0.375-0.723,0.629c-0.349,0.556,0.124,0.94,0.536,1.202c1.614,1.033,3.237,2.056,4.921,3.002
		c1.398,0.783,2.676,1.602,3.44,2.989c0.659,1.197,1.867,1.944,3.205,2.513c2.775,1.177,5.549,2.362,8.33,3.533
		c0.488,0.205,1.002,0.369,1.522,0.519c1.094,0.313,2.029,0.736,2.834,1.252C211.378,230.864,214.971,231.095,218.715,230.654
		 M2.398,37.085c0.539-0.067,1.081-0.157,1.617-0.132c4.937,0.245,9.75-0.629,14.589-1.244c2.329-0.297,4.664-0.595,6.971-0.988
		c2.953-0.499,5.756-0.251,8.464,0.943c1.457,0.643,2.409-0.255,2.818-1.414c0.162-0.451,0.273-0.95,0.241-1.422
		c-0.073-1.122-0.175-2.251-0.387-3.359c-0.697-3.656-1.376-7.315-2.216-10.942c-0.462-2-0.184-3.902,0.688-5.676
		c1.601-3.261,3.586-6.333,6.512-8.849c4.113-3.54,9.031-4.733,14.516-3.574c3.333,0.705,6.585,1.785,9.788,2.891
		c3.336,1.151,5.716,3.19,7.141,6.248c1.255,2.7,2.26,5.436,2.945,8.274c0.459,1.915,0.599,3.819-0.52,5.656
		c-0.551,0.908-0.292,1.887,0.136,2.801c0.77,1.636,1.569,3.258,2.331,4.897c0.37,0.793-0.013,1.622-0.796,2.087
		c-1.002,0.595-2.578,0.478-2.956,1.863c-0.335,1.244,0.742,2.101,1.085,3.162c0.301,0.924,0.635,1.845,0.919,2.772
		c0.958,3.109,1.995,6.201,2.819,9.335c0.524,1.997,1.874,3.018,3.98,3.492c2.279,0.513,4.54,1.106,6.829,1.589
		c2.67,0.558,3.288,1.957,3.39,4.29c0.022,0.466-0.213,0.942-0.321,1.416c-0.431,1.896-0.827,3.797-1.29,5.687
		c-0.527,2.167-0.092,4.071,1.347,5.941c3.276,4.256,6.399,8.606,9.567,12.925c1.581,2.152,3.132,4.324,4.882,6.745
		c1.136,0.488,2.705,0.967,4.024,1.774c2.812,1.712,5.911,2.369,9.23,2.457c0.72,0.017,1.439,0.002,2.384,0.002
		c1.199-1.244,2.587-2.49,4.325-3.404c0.764-0.4,1.433-0.984,2.055-1.565c2.616-2.457,5.203-4.937,7.784-7.425
		c0.859-0.83,1.794-1.633,2.46-2.578c2.191-3.103,5.526-5.063,8.742-7.152c4.54-2.944,11.677-2.104,15.355,0.378
		c1.177,0.794,2.214,1.707,2.743,2.943c0.771,1.802,1.595,3.608,2.09,5.478c0.669,2.533,1.629,4.922,3.034,7.21
		c0.945,1.549,1.766,3.177,2.413,4.844c2.657-0.006,5.317-0.018,7.974-0.031c0.301-0.006,0.6-0.26,0.897-0.396
		c0.333-1.012,0.666-2.025,1.028-3.122c1.316-0.073,2.505-0.192,3.697-0.198c5.697-0.019,11.395-0.002,17.089-0.014
		c1.205-0.005,2.41-0.082,3.612-0.143c0.6-0.031,1.205-0.655,1.268-1.248c0.019-0.152,0.073-0.301,0.077-0.453
		c0.006-5.222,0.009-10.443,0.003-15.665c0-0.299-0.111-0.601-0.171-0.899c-0.086-0.458-0.891-0.836-1.662-0.825
		c-0.586,0.009-1.043,0.291-1.198,0.703c-0.216,0.567-0.283,1.196-0.295,1.802c-0.042,1.842-0.01,5.38-0.038,7.222
		c-0.01,0.765-0.09,1.532-0.162,2.293c-0.054,0.525-0.774,1.219-1.354,1.23c-1.027,0.02-2.058-0.008-3.085-0.062
		c-0.596-0.031-32.643-0.479-32.715-0.903c-0.152-0.905-0.203-1.83-0.206-2.75c-0.01-14.589-0.01-47.794,0-62.383
		c0-0.92,0.018-1.852,0.164-2.757c0.067-0.406,0.368-0.86,1.009-0.88c0.688-0.017,33.082-0.099,33.767-0.065
		c1.015,0.051,1.973,0.793,2.226,1.662c0.13,0.443,0.289,0.891,0.311,1.342c0.055,1.228,0.055,2.457,0.055,3.685
		c0.002,7.219-0.01,31.363,0.012,38.581c0.003,1.066,0.126,2.136,0.235,3.199c0.053,0.502,0.834,1.108,1.43,1.176
		c0.51,0.056,1.024,0.113,1.537,0.141c0.863,0.045,1.728,0.034,2.584,0.099c0.993,0.076,10.695,1.009,10.673,1.963
		c-0.01,0.305,0.063,0.635-0.038,0.917c-0.897,2.541-0.672,5.162-0.682,7.763c-0.016,3.687-0.01,7.371,0.003,11.058
		c0.004,0.92,0.06,1.839,0.118,2.759c0.05,0.75,0.805,1.371,1.725,1.387c2.242,0.037-4.388,0.018-2.147,0.08
		c0.834,0.022,1.661,0.211,2.413,0.313c0.149,0.465,0.269,0.756,0.336,1.057c0.491,2.248,0.622,2.382,2.786,2.421
		c1.38,0.028,2.762,0.013,4.145,0.013c7.248,0.004,14.499-0.007,21.751,0.015c1.018,0.003,2.045,0.113,3.057,0.26
		c0.26,0.036,0.539,0.366,0.675,0.617c0.39,0.723,0.336,1.501,0.073,2.237c-0.092,0.251-0.441,0.59-0.695,0.607
		c-1.02,0.059-2.055,0.045-3.078-0.003c-6.38-0.291-12.318,1.041-17.886,3.783c-1.81,0.891-3.631,1.763-5.46,2.623
		c-4.48,2.113-8.421,4.838-11.519,8.415c-7.349,8.496-8.812,17.769-4.404,27.76c0.815,1.857,1.699,3.693,2.441,5.572
		c10.425,26.341,20.813,52.697,31.276,79.027c0.998,2.51,1.575,5.004,1.382,7.65c-0.044,0.612-0.012,1.227-0.038,1.842
		c-0.066,1.588-0.669,2.087-2.619,2.07c-1.902-0.011-3.798-0.084-5.698-0.132c-9.619-0.242-19.233-0.646-28.862-0.505
		c0.012,0.051,0.025,0.104,0.035,0.155c0.459,2.189-0.581,4.104-1.45,6.031c-0.174,0.384-0.764,0.726-1.242,0.874
		c-1.015,0.314-2.071,0.616-3.133,0.689c-7.271,0.499-14.5,0.073-21.627-1.255c-3.013-0.562-5.891-1.577-8.605-2.922
		c-1.262-0.627-2.581-1.168-3.837-1.803c-1.294-0.652-2.663-0.985-4.138-1.064c-5.514-0.296-10.552-2.16-15.654-3.808
		c-0.501-0.161-0.96-0.454-1.401-0.728c-1.126-0.696-1.775-1.669-1.567-2.888c0.388-2.229,0.864-4.446,1.367-6.655
		c0.327-1.416,0.79-2.809,1.164-4.223c1.03-3.926,1.816-7.865,1.5-11.946c-0.279-3.538-0.159-7.086-0.596-10.627
		c-0.277-2.233-0.2-4.507-0.238-6.764c-0.124-7.74-0.226-15.478-0.336-23.219c-0.029-1.611-0.067-3.218-0.131-4.826
		c-0.025-0.584-0.907-1.213-1.556-1.013c-2.147,0.655-4.296,0.418-6.455,0.13c-0.895-0.119-1.776-0.316-2.674-0.437
		c-0.91-0.125-1.709,0.296-2.193,1.111c-0.257,0.426-0.533,0.846-0.733,1.295c-1.145,2.607-3.133,4.739-5.168,6.77
		c-2.857,2.855-6.601,4.493-10.866,5.013c-3.609,0.44-7.229,0.29-10.844-0.104c-2.156-0.238-4.325-0.395-6.494-0.5
		c-1.588-0.079-2.384,0.68-2.273,2.014c0.051,0.641,0.225,1.278,0.241,1.921c0.028,1.035-0.483,1.884-1.449,2.446
		c-2.394,1.385-5.045,1.704-7.816,1.331c-1.132-0.152-2.026-0.646-2.403-1.695c-0.33-0.919-0.675-1.836-1.04-2.745
		c-0.219-0.544-0.952-0.773-1.836-0.637c-0.774,0.118-1.383,0.666-1.404,1.252c-0.007,0.161-0.061,0.322-0.051,0.48
		c0.393,4.823,0.786,9.644,1.191,14.468c0.057,0.612,0.892,1.074,1.573,0.925c0.178-0.039,0.371-0.03,0.537-0.09
		c5.392-1.938,11.138-2.809,16.674-4.313c1.728-0.471,3.51-0.798,5.285-1.095c1.589-0.265,3.301-0.146,4.481-1.413
		c2.162-0.533,4.28-0.871,5.945,0.982c-0.507-0.133-1.008-0.279-1.519-0.398c-0.165-0.039-0.358-0.045-0.523-0.003
		c-0.114,0.029-0.203,0.156-0.301,0.24c0.263,0.079,0.526,0.218,0.793,0.225c0.51,0.023,1.02-0.027,1.534-0.05
		c0.317-0.091,0.714-0.336,0.945-0.246c2.685,1.058,4.198,3.019,4.873,5.462c0.72,2.601,0.444,5.114-1.433,7.357
		c-0.327,0.381-0.476,0.908-0.856,1.221c-0.507,0.42-1.116,0.841-1.766,1.01c-1.395,0.367-2.863,0.468-4.287,0.099
		c-0.482-0.124-1.12-0.398-1.288-0.75c-0.557-1.183-1.096-2.407-1.347-3.659c-0.621-3.086,0.133-3.789,2.708-5.151
		c1.071-0.568,2.229-0.999,3.367-1.501c-0.713-1.636-1.975-2.401-3.843-1.997c-1.75,0.381-3.484,0.866-5.171,1.433
		c-7.617,2.561-15.213,5.164-22.816,7.76c-0.156,0.054-0.283,0.192-0.432,0.299c-0.136,0.635,0.483,0.663,0.885,0.787
		c3.082,0.928,6.149,1.921,9.271,2.725c5.758,1.484,11.282,3.481,16.674,5.78c1.951,0.835,3.746,2.042,5.778,2.621
		c1.975,0.561,3.063,2.239,5.095,2.645c1.072,0.215,1.779,1.101,2.324,1.941c0.73,1.112,1.366,2.271,2.03,3.416
		c0.662,1.143,1.195,2.365,1.981,3.434c2.191,2.972,2.068,6.059,0.808,9.243c-0.374,0.94-1.321,1.476-2.498,1.555
		c-1.658,0.113-3.26-0.144-4.823-0.562c-1.483-0.394-2.533-1.26-2.739-2.696c-0.161-1.114-0.228-2.24-0.298-3.363
		c-0.143-2.273,0.91-4.011,3.003-5.244c0.016,0.003,0.028,0.006,0.044,0.009c0,0.002,0,0.002,0.003,0.005
		c-0.285,1.154-0.016,2.201,0.914,3.018c0.253,0.224,0.862,0.13,1.769,0.235c-0.964-0.844-1.655-1.345-2.188-1.958
		c-0.301-0.338-0.339-0.855-0.495-1.295c0-0.016,0.006-0.031,0.01-0.048c-0.019,0.012-0.039,0.023-0.057,0.034
		c-1.148-0.2-1.874-0.956-2.451-1.732c-1.655-2.225-3.989-3.732-6.478-5.075c-7.001-3.779-14.452-6.697-22.195-9.032
		c-2.91-0.877-5.888-1.591-8.839-2.364c-0.604-0.158-1.402,0.175-1.637,0.931c-0.336,1.08-1.148,1.608-2.203,1.921
		c-0.853,0.257-1.738,0.477-2.626,0.561c-1.433,0.133-2.882,0.136-4.4,0.198c-4.16,4.254-7.804,8.846-10.974,13.729
		c-2.645,4.071-4.605,8.401-5.574,13.049c-0.121,0.567,0.345,1.327,1.011,1.544c0.675,0.225,1.398,0.347,2.067,0.586
		c2.013,0.725,3.18,2.102,3.574,3.969c0.301,1.45,0.266,2.886-0.584,4.231c-0.44,0.697-0.783,1.445-1.221,2.141
		c-0.352,0.556-0.691,1.157-1.191,1.595c-2.708,2.352-4.776,2.933-7.753-0.156c-1.287-1.334-2.444-2.815-3.367-4.366
		c-0.945-1.592-1.094-3.402-0.524-5.16c0.124-0.384,0.746-0.637,1.114-0.931c-0.34-0.609-0.834-1.162-0.952-1.768
		c-1.046-5.501,0.187-10.576,3.767-15.18c0.101-0.133,0.19-0.282,0.321-0.386c4.179-3.365,7.124-7.732,11.386-11.035
		c1.359-1.056,2.625-2.232,3.461-3.696c0.362-0.626,0.21-1.199-0.148-1.737c0.012-0.003,0.028-0.007,0.041-0.009
		c0.117,0.028,0.231,0.056,0.349,0.085c-0.136-0.037-0.276-0.076-0.422-0.127c0.012,0.017,0.022,0.033,0.032,0.051
		c-1.807,0.332-3.393-0.754-5.216-0.593c-1.785,0.156-3.602,0.034-5.41,0.02c-1.803-0.017-3.608-0.05-5.412-0.074
		c-4.512-0.05-9.008-0.174-13.501-0.665c-2.669-0.293-5.402-0.15-8.107-0.133c-2.197,0.014-4.278,0.632-6.291,1.329
		c-1.154,0.4-2.213,1.066-3.24,1.706c-1.339,0.835-1.649,2.11-0.834,3.369c1.937,2.992,2.949,6.158,2.477,9.639
		c-0.128,0.95-0.143,1.909-0.216,2.939c-2.591,1.151-5.232,1.131-7.883,0.395c-1.265-0.35-2.229-1.131-2.441-2.355
		c-0.641-3.679-0.152-7.027,3.551-9.448c0.317-0.206,0.276-0.846,0.399-1.275c0.051,0.017,0.105,0.034,0.159,0.051
		c-0.019,0.054-0.038,0.104-0.057,0.155c0.089-0.034,0.171-0.067,0.256-0.101c-0.066-0.017-0.132-0.034-0.199-0.054
		c0.016-0.045,0.032-0.093,0.048-0.141c-0.067,0.025-0.136,0.056-0.207,0.09c-0.25,0.116-0.504,0.251-0.729,0.226
		c-0.272-0.034-0.533-0.333-0.726-0.564c-0.076-0.085,0.01-0.322,0.089-0.46c3.015-5.235,7.85-8.299,14.284-9.448
		c3.025-0.541,6.05-1.032,9.157-1.026c1.268,0.003,2.533-0.104,3.801-0.107c1.773-0.011,3.114-0.604,4.053-1.997
		c1.113-1.662,2.136-3.419,3.557-4.855c2.429-2.457,4.012-5.349,5.907-8.085c1.332-1.915,2.848-3.729,4.243-5.611
		c0.874-1.175-0.136-3.139-1.779-3.407c-1.059-0.175-2.15-0.274-3.231-0.299c-3.621-0.076-7.245-0.136-10.872-0.138
		c-4.35-0.004-8.701-0.004-13.026-0.499c-0.764-0.088-1.445,0.197-1.874,0.761c-0.811,1.063-1.518,2.192-2.358,3.239
		c-0.666,0.832-1.643,1.266-2.825,1.111c-1.355-0.18-2.344-0.86-2.825-2.003c-0.251-0.595-0.394-1.253-0.425-1.888
		c-0.073-1.446-0.152-2.905-0.048-4.349c0.412-5.63,0.533-11.272,1.068-16.903c0.549-5.779,0.588-11.596,0.799-17.399
		c0.093-2.434-0.298-4.824-1.201-7.137c-1.424-3.653-2.734-7.346-4.29-10.951c-4.16-9.627-8.434-19.215-12.645-28.826
		c-0.789-1.803-1.541-3.616-2.232-5.45c-1.11-2.92-1.744-5.916-1.671-9.018c0.076-3.222,0.06-6.446,0.137-9.67
		c0.126-5.371-0.803-10.599-2.636-15.71c-0.608-1.69-1.211-3.385-1.626-5.118c-0.298-1.244-0.356-2.546-0.39-3.827
		C-0.031,38.36,1.216,37.237,2.398,37.085"/>
	<path d="M226.928,85.63h-28.219c-4.185,0-7.61-3.047-7.61-6.77V22.821c0-3.723,3.425-6.77,7.61-6.77h28.219
		c4.185,0,7.61,3.047,7.61,6.77V78.86C234.538,82.583,231.113,85.63,226.928,85.63"/>
	<path d="M226.928,101.427h-28.219c-4.185,0-7.61-3.047-7.61-6.77V55.544c0-3.724,3.425-6.771,7.61-6.771h28.219
		c4.185,0,7.61,3.047,7.61,6.771v39.113C234.538,98.38,231.113,101.427,226.928,101.427"/>
</g>
<g id="Layer_1">
</g>
</svg>
