<svg version="1.1" xmlns="http://www.w3.org/2000/svg" xmlns:xlink="http://www.w3.org/1999/xlink" x="0px" y="0px"
	 viewBox="0 0 465 190.163" style="enable-background:new 0 0 465 190.163;" xml:space="preserve">
		<g id="lines_x5F_out_x5F_of_x5F_computer_x5F_chip">
			<polyline style="fill:none;stroke:#CCCCCC;stroke-miterlimit:10;" points="157.854,0.352 163.111,5.663 229.5,5.663 229.5,36.163 	
				"/>
			<polyline style="fill:none;stroke:#CCCCCC;stroke-miterlimit:10;" points="288.5,0.163 288.5,4 252.995,39.586"/>
			<polyline style="fill:none;stroke:#CCCCCC;stroke-miterlimit:10;" points="123.244,0.394 158.5,35.26 158.5,76.663 190,76.663 "/>
			<polyline style="fill:none;stroke:#CCCCCC;stroke-miterlimit:10;" points="273.798,39.525 294.908,18.663 369,18.663 
				417.223,66.846"/>
			<polyline style="fill:none;stroke:#CCCCCC;stroke-miterlimit:10;" points="306.978,71.76 329.5,49.313 329.5,0.163"/>
			<polyline style="fill:none;stroke:#CCCCCC;stroke-miterlimit:10;" points="310,96.663 354,96.663 383.657,126.663 465,126.663"/>
			<polyline style="fill:none;stroke:#CCCCCC;stroke-miterlimit:10;" points="310,116.663 349,116.663 384.5,152.291 384.5,190.163"/>
			<polyline style="fill:none;stroke:#CCCCCC;stroke-miterlimit:10;" points="273.88,151.389 291.38,168.663 338.5,168.663 
				338.5,190.163"/>
			<polyline style="fill:none;stroke:#CCCCCC;stroke-miterlimit:10;" points="249.982,153.831 231.5,172.231 231.5,190.163"/>
			<polyline style="fill:none;stroke:#CCCCCC;stroke-miterlimit:10;" points="190,116.663 134,116.663 79.944,170.663 53,170.663 34.124,151.663 0,151.663"/>
		</g>
</svg>
