<?xml version="1.0" encoding="iso-8859-1"?>
<!-- Generator: Adobe Illustrator 18.1.0, SVG Export Plug-In . SVG Version: 6.00 Build 0)  -->
<!DOCTYPE svg PUBLIC "-//W3C//DTD SVG 1.1//EN" "http://www.w3.org/Graphics/SVG/1.1/DTD/svg11.dtd">
<svg version="1.1" xmlns="http://www.w3.org/2000/svg" xmlns:xlink="http://www.w3.org/1999/xlink" x="0px" y="0px"
	 viewBox="0 0 111.588 161.704" style="enable-background:new 0 0 111.588 161.704;" xml:space="preserve">
<g id="servers">
	<g>
		<defs>
			<rect id="SVGID_1_" y="0" width="153.163" height="161.704"/>
		</defs>
		<clipPath id="SVGID_2_">
			<use xlink:href="#SVGID_1_"  style="overflow:visible;"/>
		</clipPath>
		<path style="clip-path:url(#SVGID_2_);" d="M0,156.432c0,2.912,2.36,5.271,5.271,5.271h142.621c2.91,0,5.271-2.359,5.271-5.271
			v-26.097c0-2.912-2.36-5.271-5.271-5.271H5.271c-2.91,0-5.271,2.359-5.271,5.271V156.432z"/>
		<path style="clip-path:url(#SVGID_2_);" d="M0,114.745c0,2.912,2.36,5.271,5.271,5.271h142.621c2.91,0,5.271-2.359,5.271-5.271
			V88.648c0-2.912-2.36-5.271-5.271-5.271H5.271C2.36,83.377,0,85.736,0,88.648V114.745z"/>
		<path style="clip-path:url(#SVGID_2_);" d="M0,73.057c0,2.912,2.36,5.271,5.271,5.271h142.621c2.91,0,5.271-2.359,5.271-5.271
			V46.96c0-2.912-2.36-5.271-5.271-5.271H5.271C2.36,41.689,0,44.048,0,46.96V73.057z"/>
		<path style="clip-path:url(#SVGID_2_);" d="M0,31.369c0,2.912,2.36,5.271,5.271,5.271h142.621c2.91,0,5.271-2.359,5.271-5.271
			V5.272c0-2.912-2.36-5.271-5.271-5.271H5.271C2.36,0.001,0,2.36,0,5.272V31.369z"/>
		<path style="clip-path:url(#SVGID_2_);fill:#F1F1F1;" d="M117.35,137.542c0,1.709-1.385,3.094-3.094,3.094
			c-1.709,0-3.094-1.385-3.094-3.094c0-1.709,1.385-3.094,3.094-3.094C115.965,134.448,117.35,135.833,117.35,137.542"/>
		<path style="clip-path:url(#SVGID_2_);fill:#F1F1F1;" d="M24.685,147.997c0,0.626-0.507,1.133-1.133,1.133h-9.201
			c-0.626,0-1.133-0.507-1.133-1.133v-9.201c0-0.626,0.507-1.133,1.133-1.133h9.201c0.626,0,1.133,0.507,1.133,1.133V147.997z"/>
		<path style="clip-path:url(#SVGID_2_);fill:#F1F1F1;" d="M117.35,95.853c0,1.709-1.385,3.094-3.094,3.094
			c-1.709,0-3.094-1.385-3.094-3.094c0-1.709,1.385-3.094,3.094-3.094C115.965,92.76,117.35,94.145,117.35,95.853"/>
		<path style="clip-path:url(#SVGID_2_);fill:#F1F1F1;" d="M24.685,106.309c0,0.626-0.507,1.133-1.133,1.133h-9.201
			c-0.626,0-1.133-0.507-1.133-1.133v-9.201c0-0.626,0.507-1.133,1.133-1.133h9.201c0.626,0,1.133,0.507,1.133,1.133V106.309z"/>
		<path style="clip-path:url(#SVGID_2_);fill:#F1F1F1;" d="M117.35,54.165c0,1.709-1.385,3.094-3.094,3.094
			c-1.709,0-3.094-1.385-3.094-3.094c0-1.709,1.385-3.094,3.094-3.094C115.965,51.071,117.35,52.456,117.35,54.165"/>
		<path style="clip-path:url(#SVGID_2_);fill:#F1F1F1;" d="M24.685,64.621c0,0.626-0.507,1.133-1.133,1.133h-9.201
			c-0.626,0-1.133-0.507-1.133-1.133V55.42c0-0.626,0.507-1.133,1.133-1.133h9.201c0.626,0,1.133,0.507,1.133,1.133V64.621z"/>
		<path style="clip-path:url(#SVGID_2_);fill:#F1F1F1;" d="M117.35,12.477c0,1.709-1.385,3.094-3.094,3.094
			c-1.709,0-3.094-1.385-3.094-3.094c0-1.709,1.385-3.094,3.094-3.094C115.965,9.383,117.35,10.768,117.35,12.477"/>
		<path style="clip-path:url(#SVGID_2_);fill:#F1F1F1;" d="M24.685,22.933c0,0.626-0.507,1.133-1.133,1.133h-9.201
			c-0.626,0-1.133-0.507-1.133-1.133v-9.201c0-0.626,0.507-1.133,1.133-1.133h9.201c0.626,0,1.133,0.507,1.133,1.133V22.933z"/>
	</g>
</g>
<g id="Layer_1">
</g>
</svg>
