<?xml version="1.0" encoding="iso-8859-1"?>
<!-- Generator: Adobe Illustrator 18.1.0, SVG Export Plug-In . SVG Version: 6.00 Build 0)  -->
<!DOCTYPE svg PUBLIC "-//W3C//DTD SVG 1.1//EN" "http://www.w3.org/Graphics/SVG/1.1/DTD/svg11.dtd">
<svg version="1.1" xmlns="http://www.w3.org/2000/svg" xmlns:xlink="http://www.w3.org/1999/xlink" x="0px" y="0px"
	 viewBox="0 0 854.744 563.011" style="enable-background:new 0 0 854.744 563.011;" xml:space="preserve">
	<g id="servers_x5F_in_x5F_rectangle">
		<g>
			<defs>
				<path id="SVGID_1_" d="M842.744,527.138H12c-6.6,0-12-5.4-12-12V12C0,5.4,5.4,0,12,0h830.744c6.6,0,12,5.4,12,12v503.138
					C854.744,521.738,849.344,527.138,842.744,527.138z"/>
			</defs>
			<clipPath id="SVGID_2_">
				<use xlink:href="#SVGID_1_"  style="overflow:visible;"/>
			</clipPath>
			<g style="clip-path:url(#SVGID_2_);">
				<path d="M123.924,559.116c0,2.152,1.744,3.895,3.895,3.895h105.394c2.151,0,3.895-1.743,3.895-3.895v-19.285
					c0-2.152-1.744-3.896-3.895-3.896H127.819c-2.151,0-3.895,1.744-3.895,3.896V559.116z"/>
				<path d="M123.924,528.31c0,2.152,1.744,3.895,3.895,3.895h105.394c2.151,0,3.895-1.743,3.895-3.895v-19.285
					c0-2.152-1.744-3.896-3.895-3.896H127.819c-2.151,0-3.895,1.744-3.895,3.896V528.31z"/>
				<path d="M123.924,497.503c0,2.151,1.744,3.895,3.895,3.895h105.394c2.151,0,3.895-1.744,3.895-3.895v-19.285
					c0-2.152-1.744-3.896-3.895-3.896H127.819c-2.151,0-3.895,1.744-3.895,3.896V497.503z"/>
				<path d="M123.924,466.697c0,2.151,1.744,3.895,3.895,3.895h105.394c2.151,0,3.895-1.744,3.895-3.895v-19.286
					c0-2.151-1.744-3.895-3.895-3.895H127.819c-2.151,0-3.895,1.744-3.895,3.895V466.697z"/>
				<path style="fill:#F1F1F1;" d="M228.524,545.156c0,1.263-1.024,2.286-2.287,2.286c-1.262,0-2.286-1.023-2.286-2.286
					s1.024-2.286,2.286-2.286C227.5,542.87,228.524,543.893,228.524,545.156"/>
				<path style="fill:#F1F1F1;" d="M219.954,545.156c0,1.263-1.024,2.286-2.287,2.286s-2.286-1.023-2.286-2.286
					s1.023-2.286,2.286-2.286S219.954,543.893,219.954,545.156"/>
				<path style="fill:#F1F1F1;" d="M210.643,545.156c0,1.263-1.024,2.286-2.287,2.286c-1.262,0-2.286-1.023-2.286-2.286
					s1.024-2.286,2.286-2.286C209.619,542.87,210.643,543.893,210.643,545.156"/>
				<path style="fill:#F1F1F1;" d="M142.165,552.883c0,0.463-0.375,0.838-0.837,0.838h-6.8c-0.462,0-0.837-0.375-0.837-0.838v-6.799
					c0-0.463,0.375-0.838,0.837-0.838h6.8c0.462,0,0.837,0.375,0.837,0.838V552.883z"/>
				<path style="fill:#F1F1F1;" d="M228.524,514.35c0,1.263-1.024,2.286-2.287,2.286c-1.262,0-2.286-1.023-2.286-2.286
					s1.024-2.286,2.286-2.286C227.5,512.064,228.524,513.087,228.524,514.35"/>
				<path style="fill:#F1F1F1;" d="M219.954,514.35c0,1.263-1.024,2.286-2.287,2.286s-2.286-1.023-2.286-2.286
					s1.023-2.286,2.286-2.286S219.954,513.087,219.954,514.35"/>
				<path style="fill:#F1F1F1;" d="M210.643,514.35c0,1.263-1.024,2.286-2.287,2.286c-1.262,0-2.286-1.023-2.286-2.286
					s1.024-2.286,2.286-2.286C209.619,512.064,210.643,513.087,210.643,514.35"/>
				<path style="fill:#F1F1F1;" d="M142.165,522.076c0,0.463-0.375,0.837-0.837,0.837h-6.8c-0.462,0-0.837-0.374-0.837-0.837v-6.799
					c0-0.463,0.375-0.838,0.837-0.838h6.8c0.462,0,0.837,0.375,0.837,0.838V522.076z"/>
				<path style="fill:#F1F1F1;" d="M228.524,483.543c0,1.263-1.024,2.286-2.287,2.286c-1.262,0-2.286-1.023-2.286-2.286
					s1.024-2.286,2.286-2.286C227.5,481.257,228.524,482.28,228.524,483.543"/>
				<path style="fill:#F1F1F1;" d="M219.954,483.543c0,1.263-1.024,2.286-2.287,2.286s-2.286-1.023-2.286-2.286
					s1.023-2.286,2.286-2.286S219.954,482.28,219.954,483.543"/>
				<path style="fill:#F1F1F1;" d="M210.643,483.543c0,1.263-1.024,2.286-2.287,2.286c-1.262,0-2.286-1.023-2.286-2.286
					s1.024-2.286,2.286-2.286C209.619,481.257,210.643,482.28,210.643,483.543"/>
				<path style="fill:#F1F1F1;" d="M142.165,491.269c0,0.462-0.375,0.837-0.837,0.837h-6.8c-0.462,0-0.837-0.375-0.837-0.837v-6.8
					c0-0.462,0.375-0.837,0.837-0.837h6.8c0.462,0,0.837,0.375,0.837,0.837V491.269z"/>
				<path style="fill:#F1F1F1;" d="M228.524,452.736c0,1.263-1.024,2.286-2.287,2.286c-1.262,0-2.286-1.023-2.286-2.286
					s1.024-2.286,2.286-2.286C227.5,450.45,228.524,451.473,228.524,452.736"/>
				<path style="fill:#F1F1F1;" d="M219.954,452.736c0,1.263-1.024,2.286-2.287,2.286s-2.286-1.023-2.286-2.286
					s1.023-2.286,2.286-2.286S219.954,451.473,219.954,452.736"/>
				<path style="fill:#F1F1F1;" d="M210.643,452.736c0,1.263-1.024,2.286-2.287,2.286c-1.262,0-2.286-1.023-2.286-2.286
					s1.024-2.286,2.286-2.286C209.619,450.45,210.643,451.473,210.643,452.736"/>
				<path style="fill:#F1F1F1;" d="M142.165,460.463c0,0.462-0.375,0.837-0.837,0.837h-6.8c-0.462,0-0.837-0.375-0.837-0.837v-6.8
					c0-0.462,0.375-0.837,0.837-0.837h6.8c0.462,0,0.837,0.375,0.837,0.837V460.463z"/>
				<path d="M243.811,531.659c0,1.094,0.887,1.98,1.98,1.98h53.582c1.094,0,1.981-0.886,1.981-1.98v-9.805
					c0-1.093-0.887-1.98-1.981-1.98h-53.582c-1.093,0-1.98,0.887-1.98,1.98V531.659z"/>
				<path d="M243.811,515.997c0,1.094,0.887,1.98,1.98,1.98h53.582c1.094,0,1.981-0.886,1.981-1.98v-9.805
					c0-1.093-0.887-1.98-1.981-1.98h-53.582c-1.093,0-1.98,0.887-1.98,1.98V515.997z"/>
				<path d="M243.811,500.335c0,1.094,0.887,1.98,1.98,1.98h53.582c1.094,0,1.981-0.886,1.981-1.98v-9.805
					c0-1.093-0.887-1.98-1.981-1.98h-53.582c-1.093,0-1.98,0.887-1.98,1.98V500.335z"/>
				<path d="M243.811,484.673c0,1.094,0.887,1.98,1.98,1.98h53.582c1.094,0,1.981-0.886,1.981-1.98v-9.805
					c0-1.093-0.887-1.98-1.981-1.98h-53.582c-1.093,0-1.98,0.887-1.98,1.98V484.673z"/>
				<path style="fill:#F1F1F1;" d="M296.99,524.562c0,0.642-0.521,1.162-1.163,1.162c-0.641,0-1.162-0.52-1.162-1.162
					c0-0.642,0.521-1.162,1.162-1.162C296.469,523.4,296.99,523.92,296.99,524.562"/>
				<path style="fill:#F1F1F1;" d="M292.633,524.562c0,0.642-0.521,1.162-1.163,1.162s-1.162-0.52-1.162-1.162
					c0-0.642,0.52-1.162,1.162-1.162S292.633,523.92,292.633,524.562"/>
				<path style="fill:#F1F1F1;" d="M287.9,524.562c0,0.642-0.521,1.162-1.163,1.162c-0.641,0-1.162-0.52-1.162-1.162
					c0-0.642,0.521-1.162,1.162-1.162C287.379,523.4,287.9,523.92,287.9,524.562"/>
				<path style="fill:#F1F1F1;" d="M253.085,528.49c0,0.235-0.191,0.426-0.426,0.426h-3.457c-0.235,0-0.425-0.191-0.425-0.426v-3.457
					c0-0.235,0.19-0.426,0.425-0.426h3.457c0.235,0,0.426,0.191,0.426,0.426V528.49z"/>
				<path style="fill:#F1F1F1;" d="M296.99,508.9c0,0.642-0.521,1.162-1.163,1.162c-0.641,0-1.162-0.52-1.162-1.162
					s0.521-1.162,1.162-1.162C296.469,507.738,296.99,508.258,296.99,508.9"/>
				<path style="fill:#F1F1F1;" d="M292.633,508.9c0,0.642-0.521,1.162-1.163,1.162s-1.162-0.52-1.162-1.162s0.52-1.162,1.162-1.162
					S292.633,508.258,292.633,508.9"/>
				<path style="fill:#F1F1F1;" d="M287.9,508.9c0,0.642-0.521,1.162-1.163,1.162c-0.641,0-1.162-0.52-1.162-1.162
					s0.521-1.162,1.162-1.162C287.379,507.738,287.9,508.258,287.9,508.9"/>
				<path style="fill:#F1F1F1;" d="M253.085,512.828c0,0.235-0.191,0.426-0.426,0.426h-3.457c-0.235,0-0.425-0.191-0.425-0.426
					v-3.457c0-0.235,0.19-0.426,0.425-0.426h3.457c0.235,0,0.426,0.191,0.426,0.426V512.828z"/>
				<path style="fill:#F1F1F1;" d="M296.99,493.238c0,0.642-0.521,1.162-1.163,1.162c-0.641,0-1.162-0.52-1.162-1.162
					s0.521-1.162,1.162-1.162C296.469,492.076,296.99,492.596,296.99,493.238"/>
				<path style="fill:#F1F1F1;" d="M292.633,493.238c0,0.642-0.521,1.162-1.163,1.162s-1.162-0.52-1.162-1.162
					s0.52-1.162,1.162-1.162S292.633,492.596,292.633,493.238"/>
				<path style="fill:#F1F1F1;" d="M287.9,493.238c0,0.642-0.521,1.162-1.163,1.162c-0.641,0-1.162-0.52-1.162-1.162
					s0.521-1.162,1.162-1.162C287.379,492.076,287.9,492.596,287.9,493.238"/>
				<path style="fill:#F1F1F1;" d="M253.085,497.166c0,0.235-0.191,0.426-0.426,0.426h-3.457c-0.235,0-0.425-0.191-0.425-0.426
					v-3.457c0-0.235,0.19-0.426,0.425-0.426h3.457c0.235,0,0.426,0.191,0.426,0.426V497.166z"/>
				<path style="fill:#F1F1F1;" d="M296.99,477.575c0,0.642-0.521,1.162-1.163,1.162c-0.641,0-1.162-0.52-1.162-1.162
					c0-0.642,0.521-1.162,1.162-1.162C296.469,476.413,296.99,476.933,296.99,477.575"/>
				<path style="fill:#F1F1F1;" d="M292.633,477.575c0,0.642-0.521,1.162-1.163,1.162s-1.162-0.52-1.162-1.162
					c0-0.642,0.52-1.162,1.162-1.162S292.633,476.933,292.633,477.575"/>
				<path style="fill:#F1F1F1;" d="M287.9,477.575c0,0.642-0.521,1.162-1.163,1.162c-0.641,0-1.162-0.52-1.162-1.162
					c0-0.642,0.521-1.162,1.162-1.162C287.379,476.413,287.9,476.933,287.9,477.575"/>
				<path style="fill:#F1F1F1;" d="M253.085,481.504c0,0.235-0.191,0.426-0.426,0.426h-3.457c-0.235,0-0.425-0.191-0.425-0.426
					v-3.457c0-0.235,0.19-0.426,0.425-0.426h3.457c0.235,0,0.426,0.191,0.426,0.426V481.504z"/>
				<path d="M490.668,531.659c0,1.094,0.887,1.98,1.98,1.98h53.582c1.094,0,1.981-0.886,1.981-1.98v-9.805
					c0-1.093-0.887-1.98-1.981-1.98h-53.582c-1.093,0-1.98,0.887-1.98,1.98V531.659z"/>
				<path d="M490.668,515.997c0,1.094,0.887,1.98,1.98,1.98h53.582c1.094,0,1.981-0.886,1.981-1.98v-9.805
					c0-1.093-0.887-1.98-1.981-1.98h-53.582c-1.093,0-1.98,0.887-1.98,1.98V515.997z"/>
				<path d="M490.668,500.335c0,1.094,0.887,1.98,1.98,1.98h53.582c1.094,0,1.981-0.886,1.981-1.98v-9.805
					c0-1.093-0.887-1.98-1.981-1.98h-53.582c-1.093,0-1.98,0.887-1.98,1.98V500.335z"/>
				<path d="M490.668,484.673c0,1.094,0.887,1.98,1.98,1.98h53.582c1.094,0,1.981-0.886,1.981-1.98v-9.805
					c0-1.093-0.887-1.98-1.981-1.98h-53.582c-1.093,0-1.98,0.887-1.98,1.98V484.673z"/>
				<path style="fill:#F1F1F1;" d="M543.847,524.562c0,0.642-0.521,1.162-1.163,1.162c-0.641,0-1.162-0.52-1.162-1.162
					c0-0.642,0.521-1.162,1.162-1.162C543.326,523.4,543.847,523.92,543.847,524.562"/>
				<path style="fill:#F1F1F1;" d="M539.49,524.562c0,0.642-0.521,1.162-1.163,1.162c-0.642,0-1.162-0.52-1.162-1.162
					c0-0.642,0.52-1.162,1.162-1.162C538.969,523.4,539.49,523.92,539.49,524.562"/>
				<path style="fill:#F1F1F1;" d="M534.756,524.562c0,0.642-0.521,1.162-1.163,1.162c-0.641,0-1.162-0.52-1.162-1.162
					c0-0.642,0.521-1.162,1.162-1.162C534.235,523.4,534.756,523.92,534.756,524.562"/>
				<path style="fill:#F1F1F1;" d="M499.942,528.49c0,0.235-0.191,0.426-0.426,0.426h-3.457c-0.235,0-0.425-0.191-0.425-0.426v-3.457
					c0-0.235,0.19-0.426,0.425-0.426h3.457c0.235,0,0.426,0.191,0.426,0.426V528.49z"/>
				<path style="fill:#F1F1F1;" d="M543.847,508.9c0,0.642-0.521,1.162-1.163,1.162c-0.641,0-1.162-0.52-1.162-1.162
					s0.521-1.162,1.162-1.162C543.326,507.738,543.847,508.258,543.847,508.9"/>
				<path style="fill:#F1F1F1;" d="M539.49,508.9c0,0.642-0.521,1.162-1.163,1.162c-0.642,0-1.162-0.52-1.162-1.162
					s0.52-1.162,1.162-1.162C538.969,507.738,539.49,508.258,539.49,508.9"/>
				<path style="fill:#F1F1F1;" d="M534.756,508.9c0,0.642-0.521,1.162-1.163,1.162c-0.641,0-1.162-0.52-1.162-1.162
					s0.521-1.162,1.162-1.162C534.235,507.738,534.756,508.258,534.756,508.9"/>
				<path style="fill:#F1F1F1;" d="M499.942,512.828c0,0.235-0.191,0.426-0.426,0.426h-3.457c-0.235,0-0.425-0.191-0.425-0.426
					v-3.457c0-0.235,0.19-0.426,0.425-0.426h3.457c0.235,0,0.426,0.191,0.426,0.426V512.828z"/>
				<path style="fill:#F1F1F1;" d="M543.847,493.238c0,0.642-0.521,1.162-1.163,1.162c-0.641,0-1.162-0.52-1.162-1.162
					s0.521-1.162,1.162-1.162C543.326,492.076,543.847,492.596,543.847,493.238"/>
				<path style="fill:#F1F1F1;" d="M539.49,493.238c0,0.642-0.521,1.162-1.163,1.162c-0.642,0-1.162-0.52-1.162-1.162
					s0.52-1.162,1.162-1.162C538.969,492.076,539.49,492.596,539.49,493.238"/>
				<path style="fill:#F1F1F1;" d="M534.756,493.238c0,0.642-0.521,1.162-1.163,1.162c-0.641,0-1.162-0.52-1.162-1.162
					s0.521-1.162,1.162-1.162C534.235,492.076,534.756,492.596,534.756,493.238"/>
				<path style="fill:#F1F1F1;" d="M499.942,497.166c0,0.235-0.191,0.426-0.426,0.426h-3.457c-0.235,0-0.425-0.191-0.425-0.426
					v-3.457c0-0.235,0.19-0.426,0.425-0.426h3.457c0.235,0,0.426,0.191,0.426,0.426V497.166z"/>
				<path style="fill:#F1F1F1;" d="M543.847,477.575c0,0.642-0.521,1.162-1.163,1.162c-0.641,0-1.162-0.52-1.162-1.162
					c0-0.642,0.521-1.162,1.162-1.162C543.326,476.413,543.847,476.933,543.847,477.575"/>
				<path style="fill:#F1F1F1;" d="M539.49,477.575c0,0.642-0.521,1.162-1.163,1.162c-0.642,0-1.162-0.52-1.162-1.162
					c0-0.642,0.52-1.162,1.162-1.162C538.969,476.413,539.49,476.933,539.49,477.575"/>
				<path style="fill:#F1F1F1;" d="M534.756,477.575c0,0.642-0.521,1.162-1.163,1.162c-0.641,0-1.162-0.52-1.162-1.162
					c0-0.642,0.521-1.162,1.162-1.162C534.235,476.413,534.756,476.933,534.756,477.575"/>
				<path style="fill:#F1F1F1;" d="M499.942,481.504c0,0.235-0.191,0.426-0.426,0.426h-3.457c-0.235,0-0.425-0.191-0.425-0.426
					v-3.457c0-0.235,0.19-0.426,0.425-0.426h3.457c0.235,0,0.426,0.191,0.426,0.426V481.504z"/>
				<path d="M737.524,531.659c0,1.094,0.887,1.98,1.98,1.98h53.583c1.093,0,1.98-0.886,1.98-1.98v-9.805
					c0-1.093-0.887-1.98-1.98-1.98h-53.583c-1.093,0-1.98,0.887-1.98,1.98V531.659z"/>
				<path d="M737.524,515.997c0,1.094,0.887,1.98,1.98,1.98h53.583c1.093,0,1.98-0.886,1.98-1.98v-9.805
					c0-1.093-0.887-1.98-1.98-1.98h-53.583c-1.093,0-1.98,0.887-1.98,1.98V515.997z"/>
				<path d="M737.524,500.335c0,1.094,0.887,1.98,1.98,1.98h53.583c1.093,0,1.98-0.886,1.98-1.98v-9.805
					c0-1.093-0.887-1.98-1.98-1.98h-53.583c-1.093,0-1.98,0.887-1.98,1.98V500.335z"/>
				<path d="M737.524,484.673c0,1.094,0.887,1.98,1.98,1.98h53.583c1.093,0,1.98-0.886,1.98-1.98v-9.805
					c0-1.093-0.887-1.98-1.98-1.98h-53.583c-1.093,0-1.98,0.887-1.98,1.98V484.673z"/>
				<path style="fill:#F1F1F1;" d="M790.703,524.562c0,0.642-0.521,1.162-1.163,1.162c-0.641,0-1.162-0.52-1.162-1.162
					c0-0.642,0.521-1.162,1.162-1.162C790.182,523.4,790.703,523.92,790.703,524.562"/>
				<path style="fill:#F1F1F1;" d="M786.346,524.562c0,0.642-0.521,1.162-1.163,1.162c-0.642,0-1.162-0.52-1.162-1.162
					c0-0.642,0.52-1.162,1.162-1.162C785.825,523.4,786.346,523.92,786.346,524.562"/>
				<path style="fill:#F1F1F1;" d="M781.613,524.562c0,0.642-0.521,1.162-1.163,1.162c-0.641,0-1.162-0.52-1.162-1.162
					c0-0.642,0.521-1.162,1.162-1.162C781.091,523.4,781.613,523.92,781.613,524.562"/>
				<path style="fill:#F1F1F1;" d="M746.799,528.49c0,0.235-0.191,0.426-0.426,0.426h-3.457c-0.235,0-0.425-0.191-0.425-0.426v-3.457
					c0-0.235,0.19-0.426,0.425-0.426h3.457c0.235,0,0.426,0.191,0.426,0.426V528.49z"/>
				<path style="fill:#F1F1F1;" d="M790.703,508.9c0,0.642-0.521,1.162-1.163,1.162c-0.641,0-1.162-0.52-1.162-1.162
					s0.521-1.162,1.162-1.162C790.182,507.738,790.703,508.258,790.703,508.9"/>
				<path style="fill:#F1F1F1;" d="M786.346,508.9c0,0.642-0.521,1.162-1.163,1.162c-0.642,0-1.162-0.52-1.162-1.162
					s0.52-1.162,1.162-1.162C785.825,507.738,786.346,508.258,786.346,508.9"/>
				<path style="fill:#F1F1F1;" d="M781.613,508.9c0,0.642-0.521,1.162-1.163,1.162c-0.641,0-1.162-0.52-1.162-1.162
					s0.521-1.162,1.162-1.162C781.091,507.738,781.613,508.258,781.613,508.9"/>
				<path style="fill:#F1F1F1;" d="M746.799,512.828c0,0.235-0.191,0.426-0.426,0.426h-3.457c-0.235,0-0.425-0.191-0.425-0.426
					v-3.457c0-0.235,0.19-0.426,0.425-0.426h3.457c0.235,0,0.426,0.191,0.426,0.426V512.828z"/>
				<path style="fill:#F1F1F1;" d="M790.703,493.238c0,0.642-0.521,1.162-1.163,1.162c-0.641,0-1.162-0.52-1.162-1.162
					s0.521-1.162,1.162-1.162C790.182,492.076,790.703,492.596,790.703,493.238"/>
				<path style="fill:#F1F1F1;" d="M786.346,493.238c0,0.642-0.521,1.162-1.163,1.162c-0.642,0-1.162-0.52-1.162-1.162
					s0.52-1.162,1.162-1.162C785.825,492.076,786.346,492.596,786.346,493.238"/>
				<path style="fill:#F1F1F1;" d="M781.613,493.238c0,0.642-0.521,1.162-1.163,1.162c-0.641,0-1.162-0.52-1.162-1.162
					s0.521-1.162,1.162-1.162C781.091,492.076,781.613,492.596,781.613,493.238"/>
				<path style="fill:#F1F1F1;" d="M746.799,497.166c0,0.235-0.191,0.426-0.426,0.426h-3.457c-0.235,0-0.425-0.191-0.425-0.426
					v-3.457c0-0.235,0.19-0.426,0.425-0.426h3.457c0.235,0,0.426,0.191,0.426,0.426V497.166z"/>
				<path style="fill:#F1F1F1;" d="M790.703,477.575c0,0.642-0.521,1.162-1.163,1.162c-0.641,0-1.162-0.52-1.162-1.162
					c0-0.642,0.521-1.162,1.162-1.162C790.182,476.413,790.703,476.933,790.703,477.575"/>
				<path style="fill:#F1F1F1;" d="M786.346,477.575c0,0.642-0.521,1.162-1.163,1.162c-0.642,0-1.162-0.52-1.162-1.162
					c0-0.642,0.52-1.162,1.162-1.162C785.825,476.413,786.346,476.933,786.346,477.575"/>
				<path style="fill:#F1F1F1;" d="M781.613,477.575c0,0.642-0.521,1.162-1.163,1.162c-0.641,0-1.162-0.52-1.162-1.162
					c0-0.642,0.521-1.162,1.162-1.162C781.091,476.413,781.613,476.933,781.613,477.575"/>
				<path style="fill:#F1F1F1;" d="M746.799,481.504c0,0.235-0.191,0.426-0.426,0.426h-3.457c-0.235,0-0.425-0.191-0.425-0.426
					v-3.457c0-0.235,0.19-0.426,0.425-0.426h3.457c0.235,0,0.426,0.191,0.426,0.426V481.504z"/>
				<path d="M306.534,531.659c0,1.094,0.887,1.98,1.98,1.98h53.583c1.093,0,1.98-0.886,1.98-1.98v-9.805
					c0-1.093-0.887-1.98-1.98-1.98h-53.583c-1.093,0-1.98,0.887-1.98,1.98V531.659z"/>
				<path d="M306.534,515.997c0,1.094,0.887,1.98,1.98,1.98h53.583c1.093,0,1.98-0.886,1.98-1.98v-9.805
					c0-1.093-0.887-1.98-1.98-1.98h-53.583c-1.093,0-1.98,0.887-1.98,1.98V515.997z"/>
				<path d="M306.534,500.335c0,1.094,0.887,1.98,1.98,1.98h53.583c1.093,0,1.98-0.886,1.98-1.98v-9.805
					c0-1.093-0.887-1.98-1.98-1.98h-53.583c-1.093,0-1.98,0.887-1.98,1.98V500.335z"/>
				<path d="M306.534,484.673c0,1.094,0.887,1.98,1.98,1.98h53.583c1.093,0,1.98-0.886,1.98-1.98v-9.805
					c0-1.093-0.887-1.98-1.98-1.98h-53.583c-1.093,0-1.98,0.887-1.98,1.98V484.673z"/>
				<path style="fill:#F1F1F1;" d="M359.713,524.562c0,0.642-0.521,1.162-1.163,1.162c-0.641,0-1.162-0.52-1.162-1.162
					c0-0.642,0.521-1.162,1.162-1.162C359.192,523.4,359.713,523.92,359.713,524.562"/>
				<path style="fill:#F1F1F1;" d="M355.355,524.562c0,0.642-0.521,1.162-1.163,1.162s-1.162-0.52-1.162-1.162
					c0-0.642,0.52-1.162,1.162-1.162S355.355,523.92,355.355,524.562"/>
				<path style="fill:#F1F1F1;" d="M350.622,524.562c0,0.642-0.521,1.162-1.163,1.162c-0.641,0-1.162-0.52-1.162-1.162
					c0-0.642,0.521-1.162,1.162-1.162C350.101,523.4,350.622,523.92,350.622,524.562"/>
				<path style="fill:#F1F1F1;" d="M315.808,528.49c0,0.235-0.191,0.426-0.426,0.426h-3.457c-0.235,0-0.425-0.191-0.425-0.426v-3.457
					c0-0.235,0.19-0.426,0.425-0.426h3.457c0.235,0,0.426,0.191,0.426,0.426V528.49z"/>
				<path style="fill:#F1F1F1;" d="M359.713,508.9c0,0.642-0.521,1.162-1.163,1.162c-0.641,0-1.162-0.52-1.162-1.162
					s0.521-1.162,1.162-1.162C359.192,507.738,359.713,508.258,359.713,508.9"/>
				<path style="fill:#F1F1F1;" d="M355.355,508.9c0,0.642-0.521,1.162-1.163,1.162s-1.162-0.52-1.162-1.162s0.52-1.162,1.162-1.162
					S355.355,508.258,355.355,508.9"/>
				<path style="fill:#F1F1F1;" d="M350.622,508.9c0,0.642-0.521,1.162-1.163,1.162c-0.641,0-1.162-0.52-1.162-1.162
					s0.521-1.162,1.162-1.162C350.101,507.738,350.622,508.258,350.622,508.9"/>
				<path style="fill:#F1F1F1;" d="M315.808,512.828c0,0.235-0.191,0.426-0.426,0.426h-3.457c-0.235,0-0.425-0.191-0.425-0.426
					v-3.457c0-0.235,0.19-0.426,0.425-0.426h3.457c0.235,0,0.426,0.191,0.426,0.426V512.828z"/>
				<path style="fill:#F1F1F1;" d="M359.713,493.238c0,0.642-0.521,1.162-1.163,1.162c-0.641,0-1.162-0.52-1.162-1.162
					s0.521-1.162,1.162-1.162C359.192,492.076,359.713,492.596,359.713,493.238"/>
				<path style="fill:#F1F1F1;" d="M355.355,493.238c0,0.642-0.521,1.162-1.163,1.162s-1.162-0.52-1.162-1.162
					s0.52-1.162,1.162-1.162S355.355,492.596,355.355,493.238"/>
				<path style="fill:#F1F1F1;" d="M350.622,493.238c0,0.642-0.521,1.162-1.163,1.162c-0.641,0-1.162-0.52-1.162-1.162
					s0.521-1.162,1.162-1.162C350.101,492.076,350.622,492.596,350.622,493.238"/>
				<path style="fill:#F1F1F1;" d="M315.808,497.166c0,0.235-0.191,0.426-0.426,0.426h-3.457c-0.235,0-0.425-0.191-0.425-0.426
					v-3.457c0-0.235,0.19-0.426,0.425-0.426h3.457c0.235,0,0.426,0.191,0.426,0.426V497.166z"/>
				<path style="fill:#F1F1F1;" d="M359.713,477.575c0,0.642-0.521,1.162-1.163,1.162c-0.641,0-1.162-0.52-1.162-1.162
					c0-0.642,0.521-1.162,1.162-1.162C359.192,476.413,359.713,476.933,359.713,477.575"/>
				<path style="fill:#F1F1F1;" d="M355.355,477.575c0,0.642-0.521,1.162-1.163,1.162s-1.162-0.52-1.162-1.162
					c0-0.642,0.52-1.162,1.162-1.162S355.355,476.933,355.355,477.575"/>
				<path style="fill:#F1F1F1;" d="M350.622,477.575c0,0.642-0.521,1.162-1.163,1.162c-0.641,0-1.162-0.52-1.162-1.162
					c0-0.642,0.521-1.162,1.162-1.162C350.101,476.413,350.622,476.933,350.622,477.575"/>
				<path style="fill:#F1F1F1;" d="M315.808,481.504c0,0.235-0.191,0.426-0.426,0.426h-3.457c-0.235,0-0.425-0.191-0.425-0.426
					v-3.457c0-0.235,0.19-0.426,0.425-0.426h3.457c0.235,0,0.426,0.191,0.426,0.426V481.504z"/>
				<path d="M59.677,531.659c0,1.094,0.887,1.98,1.98,1.98h53.582c1.094,0,1.981-0.886,1.981-1.98v-9.805
					c0-1.093-0.887-1.98-1.981-1.98H61.657c-1.093,0-1.98,0.887-1.98,1.98V531.659z"/>
				<path d="M59.677,515.997c0,1.094,0.887,1.98,1.98,1.98h53.582c1.094,0,1.981-0.886,1.981-1.98v-9.805
					c0-1.093-0.887-1.98-1.981-1.98H61.657c-1.093,0-1.98,0.887-1.98,1.98V515.997z"/>
				<path d="M59.677,500.335c0,1.094,0.887,1.98,1.98,1.98h53.582c1.094,0,1.981-0.886,1.981-1.98v-9.805
					c0-1.093-0.887-1.98-1.981-1.98H61.657c-1.093,0-1.98,0.887-1.98,1.98V500.335z"/>
				<path d="M59.677,484.673c0,1.094,0.887,1.98,1.98,1.98h53.582c1.094,0,1.981-0.886,1.981-1.98v-9.805
					c0-1.093-0.887-1.98-1.981-1.98H61.657c-1.093,0-1.98,0.887-1.98,1.98V484.673z"/>
				<path style="fill:#F1F1F1;" d="M112.856,524.562c0,0.642-0.521,1.162-1.163,1.162c-0.641,0-1.162-0.52-1.162-1.162
					c0-0.642,0.521-1.162,1.162-1.162C112.335,523.4,112.856,523.92,112.856,524.562"/>
				<path style="fill:#F1F1F1;" d="M108.499,524.562c0,0.642-0.521,1.162-1.163,1.162s-1.162-0.52-1.162-1.162
					c0-0.642,0.52-1.162,1.162-1.162S108.499,523.92,108.499,524.562"/>
				<path style="fill:#F1F1F1;" d="M103.765,524.562c0,0.642-0.521,1.162-1.163,1.162c-0.641,0-1.162-0.52-1.162-1.162
					c0-0.642,0.521-1.162,1.162-1.162C103.244,523.4,103.765,523.92,103.765,524.562"/>
				<path style="fill:#F1F1F1;" d="M68.951,528.49c0,0.235-0.191,0.426-0.426,0.426h-3.457c-0.235,0-0.425-0.191-0.425-0.426v-3.457
					c0-0.235,0.19-0.426,0.425-0.426h3.457c0.235,0,0.426,0.191,0.426,0.426V528.49z"/>
				<path style="fill:#F1F1F1;" d="M112.856,508.9c0,0.642-0.521,1.162-1.163,1.162c-0.641,0-1.162-0.52-1.162-1.162
					s0.521-1.162,1.162-1.162C112.335,507.738,112.856,508.258,112.856,508.9"/>
				<path style="fill:#F1F1F1;" d="M108.499,508.9c0,0.642-0.521,1.162-1.163,1.162s-1.162-0.52-1.162-1.162s0.52-1.162,1.162-1.162
					S108.499,508.258,108.499,508.9"/>
				<path style="fill:#F1F1F1;" d="M103.765,508.9c0,0.642-0.521,1.162-1.163,1.162c-0.641,0-1.162-0.52-1.162-1.162
					s0.521-1.162,1.162-1.162C103.244,507.738,103.765,508.258,103.765,508.9"/>
				<path style="fill:#F1F1F1;" d="M68.951,512.828c0,0.235-0.191,0.426-0.426,0.426h-3.457c-0.235,0-0.425-0.191-0.425-0.426v-3.457
					c0-0.235,0.19-0.426,0.425-0.426h3.457c0.235,0,0.426,0.191,0.426,0.426V512.828z"/>
				<path style="fill:#F1F1F1;" d="M112.856,493.238c0,0.642-0.521,1.162-1.163,1.162c-0.641,0-1.162-0.52-1.162-1.162
					s0.521-1.162,1.162-1.162C112.335,492.076,112.856,492.596,112.856,493.238"/>
				<path style="fill:#F1F1F1;" d="M108.499,493.238c0,0.642-0.521,1.162-1.163,1.162s-1.162-0.52-1.162-1.162
					s0.52-1.162,1.162-1.162S108.499,492.596,108.499,493.238"/>
				<path style="fill:#F1F1F1;" d="M103.765,493.238c0,0.642-0.521,1.162-1.163,1.162c-0.641,0-1.162-0.52-1.162-1.162
					s0.521-1.162,1.162-1.162C103.244,492.076,103.765,492.596,103.765,493.238"/>
				<path style="fill:#F1F1F1;" d="M68.951,497.166c0,0.235-0.191,0.426-0.426,0.426h-3.457c-0.235,0-0.425-0.191-0.425-0.426v-3.457
					c0-0.235,0.19-0.426,0.425-0.426h3.457c0.235,0,0.426,0.191,0.426,0.426V497.166z"/>
				<path style="fill:#F1F1F1;" d="M112.856,477.575c0,0.642-0.521,1.162-1.163,1.162c-0.641,0-1.162-0.52-1.162-1.162
					c0-0.642,0.521-1.162,1.162-1.162C112.335,476.413,112.856,476.933,112.856,477.575"/>
				<path style="fill:#F1F1F1;" d="M108.499,477.575c0,0.642-0.521,1.162-1.163,1.162s-1.162-0.52-1.162-1.162
					c0-0.642,0.52-1.162,1.162-1.162S108.499,476.933,108.499,477.575"/>
				<path style="fill:#F1F1F1;" d="M103.765,477.575c0,0.642-0.521,1.162-1.163,1.162c-0.641,0-1.162-0.52-1.162-1.162
					c0-0.642,0.521-1.162,1.162-1.162C103.244,476.413,103.765,476.933,103.765,477.575"/>
				<path style="fill:#F1F1F1;" d="M68.951,481.504c0,0.235-0.191,0.426-0.426,0.426h-3.457c-0.235,0-0.425-0.191-0.425-0.426v-3.457
					c0-0.235,0.19-0.426,0.425-0.426h3.457c0.235,0,0.426,0.191,0.426,0.426V481.504z"/>
				<path d="M553.39,531.659c0,1.094,0.887,1.98,1.98,1.98h53.583c1.093,0,1.98-0.886,1.98-1.98v-9.805c0-1.093-0.887-1.98-1.98-1.98
					H555.37c-1.093,0-1.98,0.887-1.98,1.98V531.659z"/>
				<path d="M553.39,515.997c0,1.094,0.887,1.98,1.98,1.98h53.583c1.093,0,1.98-0.886,1.98-1.98v-9.805c0-1.093-0.887-1.98-1.98-1.98
					H555.37c-1.093,0-1.98,0.887-1.98,1.98V515.997z"/>
				<path d="M553.39,500.335c0,1.094,0.887,1.98,1.98,1.98h53.583c1.093,0,1.98-0.886,1.98-1.98v-9.805c0-1.093-0.887-1.98-1.98-1.98
					H555.37c-1.093,0-1.98,0.887-1.98,1.98V500.335z"/>
				<path d="M553.39,484.673c0,1.094,0.887,1.98,1.98,1.98h53.583c1.093,0,1.98-0.886,1.98-1.98v-9.805c0-1.093-0.887-1.98-1.98-1.98
					H555.37c-1.093,0-1.98,0.887-1.98,1.98V484.673z"/>
				<path style="fill:#F1F1F1;" d="M606.569,524.562c0,0.642-0.521,1.162-1.163,1.162c-0.641,0-1.162-0.52-1.162-1.162
					c0-0.642,0.521-1.162,1.162-1.162C606.048,523.4,606.569,523.92,606.569,524.562"/>
				<path style="fill:#F1F1F1;" d="M602.212,524.562c0,0.642-0.521,1.162-1.163,1.162c-0.642,0-1.162-0.52-1.162-1.162
					c0-0.642,0.52-1.162,1.162-1.162C601.691,523.4,602.212,523.92,602.212,524.562"/>
				<path style="fill:#F1F1F1;" d="M597.478,524.562c0,0.642-0.521,1.162-1.163,1.162c-0.641,0-1.162-0.52-1.162-1.162
					c0-0.642,0.521-1.162,1.162-1.162C596.957,523.4,597.478,523.92,597.478,524.562"/>
				<path style="fill:#F1F1F1;" d="M562.664,528.49c0,0.235-0.191,0.426-0.426,0.426h-3.457c-0.235,0-0.425-0.191-0.425-0.426v-3.457
					c0-0.235,0.19-0.426,0.425-0.426h3.457c0.235,0,0.426,0.191,0.426,0.426V528.49z"/>
				<path style="fill:#F1F1F1;" d="M606.569,508.9c0,0.642-0.521,1.162-1.163,1.162c-0.641,0-1.162-0.52-1.162-1.162
					s0.521-1.162,1.162-1.162C606.048,507.738,606.569,508.258,606.569,508.9"/>
				<path style="fill:#F1F1F1;" d="M602.212,508.9c0,0.642-0.521,1.162-1.163,1.162c-0.642,0-1.162-0.52-1.162-1.162
					s0.52-1.162,1.162-1.162C601.691,507.738,602.212,508.258,602.212,508.9"/>
				<path style="fill:#F1F1F1;" d="M597.478,508.9c0,0.642-0.521,1.162-1.163,1.162c-0.641,0-1.162-0.52-1.162-1.162
					s0.521-1.162,1.162-1.162C596.957,507.738,597.478,508.258,597.478,508.9"/>
				<path style="fill:#F1F1F1;" d="M562.664,512.828c0,0.235-0.191,0.426-0.426,0.426h-3.457c-0.235,0-0.425-0.191-0.425-0.426
					v-3.457c0-0.235,0.19-0.426,0.425-0.426h3.457c0.235,0,0.426,0.191,0.426,0.426V512.828z"/>
				<path style="fill:#F1F1F1;" d="M606.569,493.238c0,0.642-0.521,1.162-1.163,1.162c-0.641,0-1.162-0.52-1.162-1.162
					s0.521-1.162,1.162-1.162C606.048,492.076,606.569,492.596,606.569,493.238"/>
				<path style="fill:#F1F1F1;" d="M602.212,493.238c0,0.642-0.521,1.162-1.163,1.162c-0.642,0-1.162-0.52-1.162-1.162
					s0.52-1.162,1.162-1.162C601.691,492.076,602.212,492.596,602.212,493.238"/>
				<path style="fill:#F1F1F1;" d="M597.478,493.238c0,0.642-0.521,1.162-1.163,1.162c-0.641,0-1.162-0.52-1.162-1.162
					s0.521-1.162,1.162-1.162C596.957,492.076,597.478,492.596,597.478,493.238"/>
				<path style="fill:#F1F1F1;" d="M562.664,497.166c0,0.235-0.191,0.426-0.426,0.426h-3.457c-0.235,0-0.425-0.191-0.425-0.426
					v-3.457c0-0.235,0.19-0.426,0.425-0.426h3.457c0.235,0,0.426,0.191,0.426,0.426V497.166z"/>
				<path style="fill:#F1F1F1;" d="M606.569,477.575c0,0.642-0.521,1.162-1.163,1.162c-0.641,0-1.162-0.52-1.162-1.162
					c0-0.642,0.521-1.162,1.162-1.162C606.048,476.413,606.569,476.933,606.569,477.575"/>
				<path style="fill:#F1F1F1;" d="M602.212,477.575c0,0.642-0.521,1.162-1.163,1.162c-0.642,0-1.162-0.52-1.162-1.162
					c0-0.642,0.52-1.162,1.162-1.162C601.691,476.413,602.212,476.933,602.212,477.575"/>
				<path style="fill:#F1F1F1;" d="M597.478,477.575c0,0.642-0.521,1.162-1.163,1.162c-0.641,0-1.162-0.52-1.162-1.162
					c0-0.642,0.521-1.162,1.162-1.162C596.957,476.413,597.478,476.933,597.478,477.575"/>
				<path style="fill:#F1F1F1;" d="M562.664,481.504c0,0.235-0.191,0.426-0.426,0.426h-3.457c-0.235,0-0.425-0.191-0.425-0.426
					v-3.457c0-0.235,0.19-0.426,0.425-0.426h3.457c0.235,0,0.426,0.191,0.426,0.426V481.504z"/>
				<path d="M370.78,559.116c0,2.152,1.744,3.895,3.895,3.895h105.394c2.151,0,3.895-1.743,3.895-3.895v-19.285
					c0-2.152-1.744-3.896-3.895-3.896H374.675c-2.151,0-3.895,1.744-3.895,3.896V559.116z"/>
				<path d="M370.78,528.31c0,2.152,1.744,3.895,3.895,3.895h105.394c2.151,0,3.895-1.743,3.895-3.895v-19.285
					c0-2.152-1.744-3.896-3.895-3.896H374.675c-2.151,0-3.895,1.744-3.895,3.896V528.31z"/>
				<path d="M370.78,497.503c0,2.151,1.744,3.895,3.895,3.895h105.394c2.151,0,3.895-1.744,3.895-3.895v-19.285
					c0-2.152-1.744-3.896-3.895-3.896H374.675c-2.151,0-3.895,1.744-3.895,3.896V497.503z"/>
				<path d="M370.78,466.697c0,2.151,1.744,3.895,3.895,3.895h105.394c2.151,0,3.895-1.744,3.895-3.895v-19.286
					c0-2.151-1.744-3.895-3.895-3.895H374.675c-2.151,0-3.895,1.744-3.895,3.895V466.697z"/>
				<path style="fill:#F1F1F1;" d="M475.381,545.156c0,1.263-1.024,2.286-2.287,2.286c-1.262,0-2.286-1.023-2.286-2.286
					s1.024-2.286,2.286-2.286C474.357,542.87,475.381,543.893,475.381,545.156"/>
				<path style="fill:#F1F1F1;" d="M466.81,545.156c0,1.263-1.024,2.286-2.287,2.286s-2.286-1.023-2.286-2.286
					s1.023-2.286,2.286-2.286S466.81,543.893,466.81,545.156"/>
				<path style="fill:#F1F1F1;" d="M457.5,545.156c0,1.263-1.024,2.286-2.287,2.286c-1.262,0-2.286-1.023-2.286-2.286
					s1.024-2.286,2.286-2.286C456.476,542.87,457.5,543.893,457.5,545.156"/>
				<path style="fill:#F1F1F1;" d="M389.022,552.883c0,0.463-0.375,0.838-0.837,0.838h-6.8c-0.462,0-0.837-0.375-0.837-0.838v-6.799
					c0-0.463,0.375-0.838,0.837-0.838h6.8c0.462,0,0.837,0.375,0.837,0.838V552.883z"/>
				<path style="fill:#F1F1F1;" d="M475.381,514.35c0,1.263-1.024,2.286-2.287,2.286c-1.262,0-2.286-1.023-2.286-2.286
					s1.024-2.286,2.286-2.286C474.357,512.064,475.381,513.087,475.381,514.35"/>
				<path style="fill:#F1F1F1;" d="M466.81,514.35c0,1.263-1.024,2.286-2.287,2.286s-2.286-1.023-2.286-2.286
					s1.023-2.286,2.286-2.286S466.81,513.087,466.81,514.35"/>
				<path style="fill:#F1F1F1;" d="M457.5,514.35c0,1.263-1.024,2.286-2.287,2.286c-1.262,0-2.286-1.023-2.286-2.286
					s1.024-2.286,2.286-2.286C456.476,512.064,457.5,513.087,457.5,514.35"/>
				<path style="fill:#F1F1F1;" d="M389.022,522.076c0,0.463-0.375,0.837-0.837,0.837h-6.8c-0.462,0-0.837-0.374-0.837-0.837v-6.799
					c0-0.463,0.375-0.838,0.837-0.838h6.8c0.462,0,0.837,0.375,0.837,0.838V522.076z"/>
				<path style="fill:#F1F1F1;" d="M475.381,483.543c0,1.263-1.024,2.286-2.287,2.286c-1.262,0-2.286-1.023-2.286-2.286
					s1.024-2.286,2.286-2.286C474.357,481.257,475.381,482.28,475.381,483.543"/>
				<path style="fill:#F1F1F1;" d="M466.81,483.543c0,1.263-1.024,2.286-2.287,2.286s-2.286-1.023-2.286-2.286
					s1.023-2.286,2.286-2.286S466.81,482.28,466.81,483.543"/>
				<path style="fill:#F1F1F1;" d="M457.5,483.543c0,1.263-1.024,2.286-2.287,2.286c-1.262,0-2.286-1.023-2.286-2.286
					s1.024-2.286,2.286-2.286C456.476,481.257,457.5,482.28,457.5,483.543"/>
				<path style="fill:#F1F1F1;" d="M389.022,491.269c0,0.462-0.375,0.837-0.837,0.837h-6.8c-0.462,0-0.837-0.375-0.837-0.837v-6.8
					c0-0.462,0.375-0.837,0.837-0.837h6.8c0.462,0,0.837,0.375,0.837,0.837V491.269z"/>
				<path style="fill:#F1F1F1;" d="M475.381,452.736c0,1.263-1.024,2.286-2.287,2.286c-1.262,0-2.286-1.023-2.286-2.286
					s1.024-2.286,2.286-2.286C474.357,450.45,475.381,451.473,475.381,452.736"/>
				<path style="fill:#F1F1F1;" d="M466.81,452.736c0,1.263-1.024,2.286-2.287,2.286s-2.286-1.023-2.286-2.286
					s1.023-2.286,2.286-2.286S466.81,451.473,466.81,452.736"/>
				<path style="fill:#F1F1F1;" d="M457.5,452.736c0,1.263-1.024,2.286-2.287,2.286c-1.262,0-2.286-1.023-2.286-2.286
					s1.024-2.286,2.286-2.286C456.476,450.45,457.5,451.473,457.5,452.736"/>
				<path style="fill:#F1F1F1;" d="M389.022,460.463c0,0.462-0.375,0.837-0.837,0.837h-6.8c-0.462,0-0.837-0.375-0.837-0.837v-6.8
					c0-0.462,0.375-0.837,0.837-0.837h6.8c0.462,0,0.837,0.375,0.837,0.837V460.463z"/>
				<path d="M617.637,559.116c0,2.152,1.744,3.895,3.895,3.895h105.394c2.151,0,3.895-1.743,3.895-3.895v-19.285
					c0-2.152-1.744-3.896-3.895-3.896H621.531c-2.151,0-3.895,1.744-3.895,3.896V559.116z"/>
				<path d="M617.637,528.31c0,2.152,1.744,3.895,3.895,3.895h105.394c2.151,0,3.895-1.743,3.895-3.895v-19.285
					c0-2.152-1.744-3.896-3.895-3.896H621.531c-2.151,0-3.895,1.744-3.895,3.896V528.31z"/>
				<path d="M617.637,497.503c0,2.151,1.744,3.895,3.895,3.895h105.394c2.151,0,3.895-1.744,3.895-3.895v-19.285
					c0-2.152-1.744-3.896-3.895-3.896H621.531c-2.151,0-3.895,1.744-3.895,3.896V497.503z"/>
				<path d="M617.637,466.697c0,2.151,1.744,3.895,3.895,3.895h105.394c2.151,0,3.895-1.744,3.895-3.895v-19.286
					c0-2.151-1.744-3.895-3.895-3.895H621.531c-2.151,0-3.895,1.744-3.895,3.895V466.697z"/>
				<path style="fill:#F1F1F1;" d="M722.237,545.156c0,1.263-1.024,2.286-2.287,2.286c-1.262,0-2.286-1.023-2.286-2.286
					s1.024-2.286,2.286-2.286C721.213,542.87,722.237,543.893,722.237,545.156"/>
				<path style="fill:#F1F1F1;" d="M713.667,545.156c0,1.263-1.024,2.286-2.287,2.286s-2.286-1.023-2.286-2.286
					s1.023-2.286,2.286-2.286S713.667,543.893,713.667,545.156"/>
				<path style="fill:#F1F1F1;" d="M704.356,545.156c0,1.263-1.024,2.286-2.287,2.286c-1.262,0-2.286-1.023-2.286-2.286
					s1.024-2.286,2.286-2.286C703.332,542.87,704.356,543.893,704.356,545.156"/>
				<path style="fill:#F1F1F1;" d="M635.878,552.883c0,0.463-0.375,0.838-0.837,0.838h-6.8c-0.462,0-0.837-0.375-0.837-0.838v-6.799
					c0-0.463,0.375-0.838,0.837-0.838h6.8c0.462,0,0.837,0.375,0.837,0.838V552.883z"/>
				<path style="fill:#F1F1F1;" d="M722.237,514.35c0,1.263-1.024,2.286-2.287,2.286c-1.262,0-2.286-1.023-2.286-2.286
					s1.024-2.286,2.286-2.286C721.213,512.064,722.237,513.087,722.237,514.35"/>
				<path style="fill:#F1F1F1;" d="M713.667,514.35c0,1.263-1.024,2.286-2.287,2.286s-2.286-1.023-2.286-2.286
					s1.023-2.286,2.286-2.286S713.667,513.087,713.667,514.35"/>
				<path style="fill:#F1F1F1;" d="M704.356,514.35c0,1.263-1.024,2.286-2.287,2.286c-1.262,0-2.286-1.023-2.286-2.286
					s1.024-2.286,2.286-2.286C703.332,512.064,704.356,513.087,704.356,514.35"/>
				<path style="fill:#F1F1F1;" d="M635.878,522.076c0,0.463-0.375,0.837-0.837,0.837h-6.8c-0.462,0-0.837-0.374-0.837-0.837v-6.799
					c0-0.463,0.375-0.838,0.837-0.838h6.8c0.462,0,0.837,0.375,0.837,0.838V522.076z"/>
				<path style="fill:#F1F1F1;" d="M722.237,483.543c0,1.263-1.024,2.286-2.287,2.286c-1.262,0-2.286-1.023-2.286-2.286
					s1.024-2.286,2.286-2.286C721.213,481.257,722.237,482.28,722.237,483.543"/>
				<path style="fill:#F1F1F1;" d="M713.667,483.543c0,1.263-1.024,2.286-2.287,2.286s-2.286-1.023-2.286-2.286
					s1.023-2.286,2.286-2.286S713.667,482.28,713.667,483.543"/>
				<path style="fill:#F1F1F1;" d="M704.356,483.543c0,1.263-1.024,2.286-2.287,2.286c-1.262,0-2.286-1.023-2.286-2.286
					s1.024-2.286,2.286-2.286C703.332,481.257,704.356,482.28,704.356,483.543"/>
				<path style="fill:#F1F1F1;" d="M635.878,491.269c0,0.462-0.375,0.837-0.837,0.837h-6.8c-0.462,0-0.837-0.375-0.837-0.837v-6.8
					c0-0.462,0.375-0.837,0.837-0.837h6.8c0.462,0,0.837,0.375,0.837,0.837V491.269z"/>
				<path style="fill:#F1F1F1;" d="M722.237,452.736c0,1.263-1.024,2.286-2.287,2.286c-1.262,0-2.286-1.023-2.286-2.286
					s1.024-2.286,2.286-2.286C721.213,450.45,722.237,451.473,722.237,452.736"/>
				<path style="fill:#F1F1F1;" d="M713.667,452.736c0,1.263-1.024,2.286-2.287,2.286s-2.286-1.023-2.286-2.286
					s1.023-2.286,2.286-2.286S713.667,451.473,713.667,452.736"/>
				<path style="fill:#F1F1F1;" d="M704.356,452.736c0,1.263-1.024,2.286-2.287,2.286c-1.262,0-2.286-1.023-2.286-2.286
					s1.024-2.286,2.286-2.286C703.332,450.45,704.356,451.473,704.356,452.736"/>
				<path style="fill:#F1F1F1;" d="M635.878,460.463c0,0.462-0.375,0.837-0.837,0.837h-6.8c-0.462,0-0.837-0.375-0.837-0.837v-6.8
					c0-0.462,0.375-0.837,0.837-0.837h6.8c0.462,0,0.837,0.375,0.837,0.837V460.463z"/>
			</g>
		</g>
	</g>
</svg>
