<?xml version="1.0" encoding="iso-8859-1"?>
<!-- Generator: Adobe Illustrator 18.1.0, SVG Export Plug-In . SVG Version: 6.00 Build 0)  -->
<!DOCTYPE svg PUBLIC "-//W3C//DTD SVG 1.1//EN" "http://www.w3.org/Graphics/SVG/1.1/DTD/svg11.dtd">
<svg version="1.1" xmlns="http://www.w3.org/2000/svg" xmlns:xlink="http://www.w3.org/1999/xlink" x="0px" y="0px"
	 viewBox="0 0 195.947 190.729" style="enable-background:new 0 0 195.947 190.729;" xml:space="preserve">
<g id="university">
	<g>
		<defs>
			<circle id="SVGID_1_" cx="94.226" cy="94.226" r="94.226"/>
		</defs>
		<clipPath id="SVGID_2_">
			<use xlink:href="#SVGID_1_"  style="overflow:visible;"/>
		</clipPath>
		<polygon style="clip-path:url(#SVGID_2_);fill:#999999;" points="195.947,181.167 167.7,180.917 167.45,135.413 170.835,135.413 
			170.835,103.417 108.742,103.667 108.947,52.424 94.049,46.417 93.991,19.917 195.947,58.917 		"/>
	</g>
	<g>
		<defs>
			<path id="SVGID_3_" d="M42.95,16.595c-10.111,6.738-18.838,15.39-25.66,25.439V147.04c16.834,24.798,45.259,41.089,77.489,41.089
				c32.501,0,61.133-16.568,77.912-41.718V42.664c-6.882-10.317-15.763-19.192-26.084-26.069H42.95z"/>
		</defs>
		<clipPath id="SVGID_4_">
			<use xlink:href="#SVGID_3_"  style="overflow:visible;"/>
		</clipPath>
		<path style="clip-path:url(#SVGID_4_);fill-rule:evenodd;clip-rule:evenodd;" d="M172.691,190.729H17.29v-6.909h5.104v-44.121
			h39.292v44.121h4.285v-48.407h-3.563v-5.391l32.583-24.636l32.583,24.636v5.391h-3.562v48.407h4.284v-44.121h39.292v44.121h5.103
			V190.729z M93.627,42.327L74.07,51.388v6.651h3.22v45.045h-3.288V91.226H18.147v44.187h39.977v-7.438L94.991,99.88l36.868,28.095
			v7.438h39.976V91.226h-55.856v11.858h-3.287V58.039h3.22v-6.651l-19.558-9.062v-7.414c2.823-2.089,7.755-2.103,11.095-0.286
			c7.915,4.3,13.843,3.183,18.155-2.999c-16.491-4.793-12.157-17.793-29.25-10.837v-2.298h-2.727V42.327z M81.471,58.039h27.04
			v23.085h-27.04V58.039z M79.751,183.82h13.19v-26.639h-13.19V183.82z M97.04,183.82h13.19v-26.639H97.04V183.82z M150.465,175.504
			h11.144v-12.189h-11.144V175.504z M134.273,175.504h11.145v-12.189h-11.145V175.504z M150.465,157.364h11.144v-12.188h-11.144
			V157.364z M134.273,157.364h11.145v-12.188h-11.145V157.364z M44.564,175.504h11.145v-12.189H44.564V175.504z M28.373,175.504
			h11.144v-12.189H28.373V175.504z M44.564,157.364h11.145v-12.188H44.564V157.364z M28.373,157.364h11.144v-12.188H28.373V157.364z
			 M98.012,59.876c5.96,1.953,2.385,6.582,4.659,10.865c1.322,2.491,2.433,2.295,2.433,3.064v1.777c0,0.494-0.404,0.899-0.9,0.898
			H94.99h-9.214c-0.495,0.001-0.899-0.404-0.899-0.898v-1.777c0-0.769,1.11-0.573,2.433-3.064c2.273-4.283-1.301-8.912,4.659-10.865
			C93.983,59.229,95.998,59.255,98.012,59.876 M93.591,77.621c-0.356,1.367-1.598,2.376-3.077,2.376
			c-1.478,0-2.721-1.009-3.078-2.376H93.591z M94.46,136.286c0.109,0.046,0.426,0.073,0.551,0.073h8.778
			c0.521,0,0.942-0.422,0.942-0.942c0-0.522-0.421-0.943-0.942-0.943h-7.326v-5.951c0-0.694-0.761-1.254-1.452-1.254
			c-0.693,0-1.452,0.56-1.452,1.254v6.56C93.559,135.654,93.94,136.134,94.46,136.286 M94.991,124.478
			c-5.867,0-10.624,4.758-10.624,10.624c0,5.867,4.757,10.625,10.624,10.625c5.866,0,10.624-4.758,10.624-10.625
			C105.615,129.236,100.857,124.478,94.991,124.478"/>
	</g>
</g>
<g id="Layer_1">
</g>
</svg>
