<svg xmlns="http://www.w3.org/2000/svg" viewBox="0 0 350 343" enable-background="new 0 0 350 343"><path fill="#E6E6E6" d="M140.9 131.3c0 8 2.2 15.4 6.5 22.1 4.3 6.5 9.9 11.4 17.1 14.7 1.5.7 2.1 1.9 2.1 3.6 0 1.6-.7 2.8-2.1 3.4-7.1 3.3-12.8 8.2-17.1 14.7-4.3 6.7-6.5 14.1-6.5 22.1v11.6H209v-11.6c0-8-2.2-15.4-6.5-22.1-4.3-6.5-9.9-11.4-17.1-14.7-1.5-.6-2.2-1.8-2.2-3.4s.7-2.8 2.2-3.6c7.1-3.3 12.8-8.2 17.1-14.7 4.3-6.7 6.5-14.1 6.5-22.1v-11.6h-68.1v11.6m8.7 0v-3.9h50.6v3.9c0 6.8-2.1 13.1-5.9 18.5h-38.7c-4-5.6-6-11.9-6-18.5m50.6 80.3v3.9h-2.1l-17.8-11c-1.8-1-3.6-1.6-5.5-1.6s-3.7.6-5.5 1.6l-17.8 11h-2.1v-3.9c0-6.2 1.6-11.9 5-17.1s7.9-9.2 13.5-11.9c3.6-1.6 5.8-4.4 6.8-8.2.9 3.9 3.3 6.5 6.8 8.2 5.6 2.7 10.1 6.5 13.5 11.9 3.6 5.3 5.2 10.9 5.2 17.1z"/><path fill="#E6E6E6" d="M44.5 223.2H8.6c-2.4 0-4.4 1.2-6.2 3.4-1.8 2.4-2.7 5-2.7 8.3 0 3.3.9 6.1 2.7 8.3 1.6 2.4 3.7 3.6 6.2 3.6h35.9v-23.6m0-59.9H8.6c-2.4 0-4.4 1.2-6.2 3.6-1.8 2.4-2.7 5-2.7 8.3 0 3.3.9 5.9 2.7 8.3 1.6 2.4 3.7 3.4 6.2 3.4h35.9v-23.6M-.1 115.2c0 3.3.9 5.9 2.7 8.3 1.6 2.4 3.7 3.6 6.2 3.6h35.9v-23.7H8.8c-2.4 0-4.4 1.2-6.2 3.6-1.9 2.3-2.7 5-2.7 8.2M127.7 334v-36.6h-23.1V334c0 2.5 1.2 4.6 3.4 6.2 2.2 1.8 5 2.7 8.2 2.7 3.3 0 5.9-.9 8.3-2.7 2.2-1.6 3.2-3.7 3.2-6.2m58.7-36.5h-23.1v36.6c0 2.4 1.2 4.4 3.4 6.2 2.2 1.8 5 2.7 8.3 2.7 3.1 0 5.9-.9 8.2-2.7 2.2-1.8 3.4-3.9 3.4-6.2v-36.6m58.7 0h-23.1v36.6c0 2.5 1.2 4.6 3.4 6.2 2.2 1.8 5 2.7 8.2 2.7 3.3 0 5.9-.9 8.3-2.7 2.2-1.8 3.4-3.9 3.4-6.2v-36.6m102-70.9c-1.6-2.4-3.7-3.4-6.1-3.4h-36v23.6h36c2.4 0 4.4-1.2 6.1-3.6 1.8-2.4 2.5-5 2.7-8.3-.2-3.2-.9-5.9-2.7-8.3M127.7 45.5V8.8c0-2.4-1.2-4.6-3.4-6.2-2.2-1.8-5-2.7-8.3-2.7-3.1 0-5.9.9-8.2 2.7-2.2 1.8-3.4 3.9-3.4 6.2v36.8l23.3-.1m219.8 121.3c-1.6-2.4-3.7-3.6-6.1-3.6h-36v23.6h36c2.4 0 4.4-1.2 6.1-3.4 1.8-2.4 2.5-5 2.7-8.3-.2-3.2-.9-6-2.7-8.3m-42.1-63.4v23.7h36c2.4 0 4.4-1.2 6.1-3.6 1.8-2.4 2.5-5 2.7-8.3 0-3.3-.9-6.1-2.7-8.3-1.6-2.4-3.7-3.6-6.1-3.6h-36m-9.2-47.4c-2.4-3-5.3-4.4-8.7-4.4H62.3c-3.4 0-6.2 1.5-8.6 4.4-2.4 3-3.7 6.5-3.7 10.5v211.5c0 4.2 1.2 7.6 3.7 10.5 2.4 3 5.2 4.3 8.6 4.3h225.1c3.4 0 6.2-1.5 8.8-4.3 2.4-3 3.6-6.4 3.6-10.5V66.4c-.1-4.1-1.3-7.5-3.6-10.5M256 94.3c1.6 1.9 2.4 4.3 2.4 7.1v141.5c0 2.8-.7 5.2-2.4 7.1-1.6 1.9-3.6 2.8-5.8 2.8H99.5c-2.2 0-4.2-.9-5.8-2.8-1.6-1.9-2.4-4.3-2.4-7.1V101.4c0-2.7.7-5 2.4-7.1 1.6-1.9 3.6-3 5.8-3h150.7c2.4.1 4.3 1.1 5.8 3M215.6 225c-.9-.9-1.9-1.5-3.1-1.6-.3 0-.6 0-.9-.1H138c-.3 0-.6 0-.7.1-1.2.1-2.2.7-3.1 1.6-1.2 1.2-1.8 2.5-1.8 4.2v.9c0 1.6.6 3 1.8 4.2 1.2 1.2 2.5 1.8 4.2 1.8h73.3c1.6 0 3-.6 4.2-1.8s1.6-2.5 1.6-4.2v-.9c-.2-1.7-.7-3-1.9-4.2m-81.4-116.3c-1.2 1.2-1.8 2.5-1.8 4.2v.9c0 1.6.6 3 1.8 4.2.6.6 1.3 1 2.1 1.3.6.3 1.3.3 2.1.3h2.7v.1h68.1v-.1h2.7c.7 0 1.5-.1 2.1-.3.7-.3 1.3-.7 2.1-1.3 1.2-1.2 1.6-2.5 1.6-4.2v-.9c0-1.6-.6-3-1.6-4.2-1-1.2-2.5-1.6-4.2-1.6h-73.3c-1.9 0-3.2.6-4.4 1.6M225.4 2.5c-2.2 1.8-3.4 3.9-3.4 6.2v36.8h23.1V8.8c0-2.4-1.2-4.6-3.4-6.2-2.2-1.8-5-2.7-8.3-2.7-2.9 0-5.6.8-8 2.6m-58.7 0c-2.2 1.8-3.4 3.9-3.4 6.2v36.8h23.1V8.8c0-2.4-1.2-4.6-3.4-6.2-2.2-1.8-5-2.7-8.2-2.7-3.1 0-5.9.8-8.1 2.6z"/></svg>