<svg xmlns="http://www.w3.org/2000/svg" viewBox="0 0 7 23.6" enable-background="new 0 0 7 23.6"><path fill="none" d="M15.6 22.9h1.2v2.8h-1.2zM15.6 25h1.2v4.6h-1.2zM1.5-6.3h1.2v4.6H1.5z"/><text transform="matrix(0 -1 1 0 2.51 -1.726)" fill="#ccc" font-family="'HelveticaNeue-Thin'" font-size="1.425">IOOIO</text><path fill="none" d="M5.6-4h1.2v2H5.6z"/><text transform="matrix(0 -1 1 0 6.656 -2.018)" fill="#ccc" font-family="'HelveticaNeue-Thin'" font-size="1.425">OI</text><path fill="none" d="M4.3-5.9h1.2v4.6H4.3z"/><text transform="matrix(0 -1 1 0 5.274 -1.274)" fill="#ccc" font-family="'HelveticaNeue-Thin'" font-size="1.425">OIOOI</text><path fill="none" d="M2.9-4.9h1.2v3.3H2.9z"/><text transform="matrix(0 -1 1 0 3.892 -1.615)" fill="#ccc" font-family="'HelveticaNeue-Thin'" font-size="1.425">OOI</text><path fill="none" d="M.1-5.2h1.2v2.8H.1z"/><text transform="matrix(0 -1 1 0 1.127 -2.427)" fill="#ccc" font-family="'HelveticaNeue-Thin'" font-size="1.425">OIO</text><path fill="none" d="M.1-3.1h1.2v4.6H.1z"/><text transform="matrix(0 -1 1 0 1.144 1.473)" fill="#ccc" font-family="'HelveticaNeue-Thin'" font-size="1.425">IOOIO</text><path fill="none" d="M5.6-2.2h1.2v4.6H5.6z"/><text transform="matrix(0 -1 1 0 6.641 2.53)" fill="#ccc" font-family="'HelveticaNeue-Thin'" font-size="1.425">OIOOI</text><path fill="none" d="M1.5-2.3h1.2v4.6H1.5z"/><text transform="matrix(0 -1 1 0 2.518 2.333)" fill="#ccc" font-family="'HelveticaNeue-Thin'" font-size="1.425">OOIIO</text><path fill="none" d="M4.2-2.6h1.2V2H4.2zM2.9-3.3h1.2v4.6H2.9z"/><text transform="matrix(0 -1 1 0 3.892 1.41)" fill="#ccc" font-family="'HelveticaNeue-Thin'" font-size="1.425">IOO</text><text transform="matrix(0 -1 1 0 3.884 3.995)" fill="#ccc" font-family="'HelveticaNeue-Thin'" font-size="1.425">OIO</text><text transform="matrix(0 -1 1 0 3.901 7.894)" fill="#ccc" font-family="'HelveticaNeue-Thin'" font-size="1.425">IOOIO</text><path fill="none" d="M.1.9h1.2v3.3H.1z"/><text transform="matrix(0 -1 1 0 1.143 4.168)" fill="#ccc" font-family="'HelveticaNeue-Thin'" font-size="1.425">OOI</text><path fill="none" d="M.1 2.5h1.2v4.6H.1z"/><text transform="matrix(0 -1 1 0 1.144 7.098)" fill="#ccc" font-family="'HelveticaNeue-Thin'" font-size="1.425">IOO</text><path fill="none" d="M4.3 1.4h1.2V6H4.3z"/><text transform="matrix(0 -1 1 0 5.278 6.022)" fill="#ccc" font-family="'HelveticaNeue-Thin'" font-size="1.425">OIOOI</text><path fill="none" d="M4.3 4.7h1.2v4.6H4.3z"/><text transform="matrix(0 -1 1 0 5.27 9.29)" fill="#ccc" font-family="'HelveticaNeue-Thin'" font-size="1.425">OOII</text><path fill="none" d="M1.5 1.7h1.2v4.6H1.5z"/><text transform="matrix(0 -1 1 0 2.505 6.3)" fill="#ccc" font-family="'HelveticaNeue-Thin'" font-size="1.425">IOOIO</text><path fill="none" d="M1.5 5.7h1.2v4.6H1.5z"/><text transform="matrix(0 -1 1 0 2.514 10.359)" fill="#ccc" font-family="'HelveticaNeue-Thin'" font-size="1.425">OOIIO</text><path fill="none" d="M5.6 2h1.2v2H5.6z"/><text transform="matrix(0 -1 1 0 6.648 4.008)" fill="#ccc" font-family="'HelveticaNeue-Thin'" font-size="1.425">OI</text><path fill="none" d="M5.6 3.8h1.2v4.6H5.6z"/><text transform="matrix(0 -1 1 0 6.632 8.45)" fill="#ccc" font-family="'HelveticaNeue-Thin'" font-size="1.425">OIOOI</text><path fill="none" d="M.1 6.5h1.2v4.6H.1z"/><text transform="matrix(0 -1 1 0 1.142 11.078)" fill="#ccc" font-family="'HelveticaNeue-Thin'" font-size="1.425">IOOIO</text><path fill="none" d="M.1 10.5h1.2v4.6H.1z"/><text transform="matrix(0 -1 1 0 1.15 15.137)" fill="#ccc" font-family="'HelveticaNeue-Thin'" font-size="1.425">OOIIO</text><path fill="none" d="M.1 14.5h1.2v4.6H.1z"/><text transform="matrix(0 -1 1 0 1.138 19.103)" fill="#ccc" font-family="'HelveticaNeue-Thin'" font-size="1.425">IOOIO</text><path fill="none" d="M.1 18.5h1.2v4.6H.1z"/><text transform="matrix(0 -1 1 0 1.146 23.162)" fill="#ccc" font-family="'HelveticaNeue-Thin'" font-size="1.425">OOIIO</text><path fill="none" d="M1.5 10.2h1.2V13H1.5z"/><text transform="matrix(0 -1 1 0 2.509 12.997)" fill="#ccc" font-family="'HelveticaNeue-Thin'" font-size="1.425">OIO</text><path fill="none" d="M1.5 12.3h1.2v4.6H1.5z"/><text transform="matrix(0 -1 1 0 2.526 16.897)" fill="#ccc" font-family="'HelveticaNeue-Thin'" font-size="1.425">IOOIO</text><path fill="none" d="M1.5 16.3h1.2v3.3H1.5z"/><text transform="matrix(0 -1 1 0 2.526 19.592)" fill="#ccc" font-family="'HelveticaNeue-Thin'" font-size="1.425">OOI</text><path fill="none" d="M1.5 17.9h1.2v4.6H1.5z"/><text transform="matrix(0 -1 1 0 2.526 22.522)" fill="#ccc" font-family="'HelveticaNeue-Thin'" font-size="1.425">IOO</text><path fill="none" d="M5.6 7.9h1.2v2H5.6z"/><text transform="matrix(0 -1 1 0 6.644 9.908)" fill="#ccc" font-family="'HelveticaNeue-Thin'" font-size="1.425">OI</text><path fill="none" d="M5.6 9.7h1.2v4.6H5.6z"/><text transform="matrix(0 -1 1 0 6.628 14.35)" fill="#ccc" font-family="'HelveticaNeue-Thin'" font-size="1.425">OIOOI</text><path fill="none" d="M5.6 13.9h1.2v2H5.6z"/><text transform="matrix(0 -1 1 0 6.635 15.934)" fill="#ccc" font-family="'HelveticaNeue-Thin'" font-size="1.425">OI</text><path fill="none" d="M5.6 15.8h1.2v4.6H5.6z"/><text transform="matrix(0 -1 1 0 6.619 20.376)" fill="#ccc" font-family="'HelveticaNeue-Thin'" font-size="1.425">OIOOI</text><text transform="matrix(0 -1 1 0 6.644 23.163)" fill="#ccc" font-family="'HelveticaNeue-Thin'" font-size="1.425">OOII</text><path fill="none" d="M4.3 8.5h1.2v3.3H4.3z"/><text transform="matrix(0 -1 1 0 5.278 11.811)" fill="#ccc" font-family="'HelveticaNeue-Thin'" font-size="1.425">OOI</text><path fill="none" d="M4.3 10.1h1.2v4.6H4.3z"/><text transform="matrix(0 -1 1 0 5.279 14.741)" fill="#ccc" font-family="'HelveticaNeue-Thin'" font-size="1.425">IOO</text><text transform="matrix(0 -1 1 0 5.27 17.42)" fill="#ccc" font-family="'HelveticaNeue-Thin'" font-size="1.425">OIO</text><text transform="matrix(0 -1 1 0 5.287 21.32)" fill="#ccc" font-family="'HelveticaNeue-Thin'" font-size="1.425">IOOIO</text><path fill="none" d="M2.9 7.3h1.2v4.6H2.9z"/><text transform="matrix(0 -1 1 0 3.894 11.95)" fill="#ccc" font-family="'HelveticaNeue-Thin'" font-size="1.425">OIOOI</text><path fill="none" d="M2.9 10.6h1.2v4.6H2.9z"/><text transform="matrix(0 -1 1 0 3.885 15.218)" fill="#ccc" font-family="'HelveticaNeue-Thin'" font-size="1.425">OOII</text><path fill="none" d="M2.9 14.6h1.2v4.6H2.9z"/><text transform="matrix(0 -1 1 0 3.898 19.247)" fill="#ccc" font-family="'HelveticaNeue-Thin'" font-size="1.425">OIOOI</text><path fill="none" d="M2.9 17.9h1.2v4.6H2.9z"/><text transform="matrix(0 -1 1 0 3.901 23.33)" fill="#ccc" font-family="'HelveticaNeue-Thin'" font-size="1.425">OIOOI</text><text transform="matrix(0 -1 1 0 5.287 23.926)" fill="#ccc" font-family="'HelveticaNeue-Thin'" font-size="1.425">IOO</text></svg>