<svg xmlns="http://www.w3.org/2000/svg" viewBox="0 0 283.827 269.29" enable-background="new 0 0 283.827 269.29"><g><g fill="#E6E6E6"><path d="M239.822 81.31h28.253c3.774 0 6.864 4.174 6.864 9.276 0 5.1-3.09 9.276-6.865 9.276h-28.253M239.822 128.27h28.253c3.774 0 6.864 4.173 6.864 9.275s-3.09 9.276-6.865 9.276h-28.253M239.822 175.228h28.253c3.774 0 6.864 4.174 6.864 9.276s-3.09 9.276-6.865 9.276h-28.253M82.224 35.752V6.99c0-3.845 4.1-6.99 9.112-6.99 5.01 0 9.11 3.145 9.11 6.99v28.762M128.35 35.752V6.99c0-3.845 4.1-6.99 9.112-6.99s9.112 3.145 9.112 6.99v28.762M174.477 35.752V6.99c0-3.845 4.1-6.99 9.112-6.99 5.01 0 9.11 3.145 9.11 6.99v28.762M100.446 233.54v28.762c0 3.843-4.1 6.987-9.112 6.987-5.01 0-9.11-3.146-9.11-6.988V233.54M146.574 233.54v28.762c0 3.843-4.1 6.987-9.112 6.987-5.01 0-9.112-3.146-9.112-6.988V233.54M192.7 233.54v28.762c0 3.843-4.098 6.987-9.112 6.987-5.01 0-9.112-3.146-9.112-6.988V233.54M35.118 99.862H6.864C3.09 99.862 0 95.688 0 90.585s3.09-9.276 6.864-9.276h28.253M35.118 146.82H6.864C3.09 146.82 0 142.648 0 137.546c0-5.1 3.09-9.276 6.864-9.276h28.253M35.118 193.78H6.864C3.09 193.78 0 189.606 0 184.504s3.09-9.276 6.864-9.276h28.253"/><path d="M203.023 79.683c0-4.324-2.89-7.86-6.417-7.86h-118.3c-3.53 0-6.418 3.536-6.418 7.86v111.042c0 4.324 2.89 7.864 6.417 7.864h118.3c3.53 0 6.418-3.54 6.418-7.865V79.683zm32.393 138.474c0 6.46-4.313 11.745-9.587 11.745H49.08c-5.274 0-9.59-5.285-9.59-11.745V52.25c0-6.46 4.316-11.744 9.59-11.744H225.83c5.274 0 9.587 5.285 9.587 11.745v165.907z"/></g><path d="M110.734 93.19h53.472v9.842c0 12.75-7.588 23.815-18.47 28.904-1.077.503-1.725 1.52-1.724 2.71 0 1.19.648 2.205 1.724 2.708 10.882 5.088 18.47 16.156 18.47 28.904v9.842h-53.472v-9.842c0-12.75 7.585-23.817 18.467-28.905 1.078-.503 1.725-1.52 1.725-2.708 0-1.19-.648-2.205-1.724-2.71-10.88-5.087-18.466-16.152-18.466-28.903V93.19zm6.854 6.855h39.763v2.987c0 5.338-1.72 10.403-4.72 14.57h-30.323c-3-4.167-4.718-9.232-4.718-14.57v-2.987h-.002zm19.88 37.08c.72 2.802 2.648 5.168 5.364 6.438 8.787 4.11 14.52 12.952 14.52 22.695v2.987h-1.637l-13.953-8.672c-2.694-1.674-5.893-1.674-8.587 0l-13.952 8.672h-1.635v-2.987c0-9.744 5.727-18.586 14.516-22.696 2.716-1.268 4.645-3.634 5.364-6.438zM108.722 175.36h57.495c2.517 0 4.57 2.053 4.57 4.57v.646c0 2.517-2.052 4.57-4.57 4.57h-57.495c-2.517 0-4.57-2.052-4.57-4.57v-.645c0-2.517 2.053-4.57 4.57-4.57zm0-91.215h57.495c2.517 0 4.57 2.052 4.57 4.57v.644c0 2.516-2.052 4.57-4.57 4.57h-57.495c-2.517 0-4.57-2.053-4.57-4.57v-.645c0-2.518 2.053-4.57 4.57-4.57z" fill-rule="evenodd" clip-rule="evenodd" fill="#E6E6E6"/><path fill="#fff" d="M222 36.29v53.658l62 62.495V36.29h-62"/></g></svg>