<svg xmlns="http://www.w3.org/2000/svg" viewBox="0 0 189.028 187.222" enable-background="new 0 0 189.028 187.222"><path d="M94.514 53.97c-21.984 0-39.806 17.747-39.806 39.64s17.822 39.644 39.806 39.644 39.806-17.75 39.806-39.643-17.822-39.64-39.806-39.64m0-18.18L114.274 0l3.432 40.7 32.668-24.692-13.485 38.57 39.926-9.323-28.072 29.774 40.284 7.654-37.806 15.83 33.675 23.31-41.002-.853 21.243 34.937-37.108-17.388 5.138 40.52-26.8-30.917-11.854 39.1-11.855-39.1-26.8 30.917 5.138-40.52-37.108 17.387 21.243-34.936-41.002.854 33.676-23.31L0 82.683l40.284-7.655-28.072-29.775L52.14 54.58 38.654 16.007 71.322 40.7 74.755 0l19.76 35.79z"/></svg>