<svg xmlns="http://www.w3.org/2000/svg" viewBox="2.8 6.3 735.3 83.7" enable-background="new 2.8 6.3 735.3 83.7"><path d="M491.35 84.65c0-.6-.2-1-.6-1.4-.4-.4-.9-.6-1.4-.6h-53.6c-.5 0-1 .2-1.4.6s-.6.9-.6 1.4v5.3h5v-2.1c0-.3.1-.5.4-.5h3.5c.3 0 .5.2.5.5v2.1h48.2v-5.3m-14.7 3.9c-.3 0-.6-.1-.8-.4-.2-.2-.3-.5-.3-.8 0-.3.1-.6.3-.8.2-.2.5-.3.8-.3.3 0 .6.1.8.3.2.2.4.5.4.8 0 .3-.1.6-.4.8-.2.3-.4.4-.8.4m5.6-.4c-.2.2-.5.4-.8.4-.3 0-.6-.1-.8-.4-.2-.2-.4-.5-.4-.8 0-.3.1-.6.4-.8.2-.2.5-.3.8-.3.3 0 .6.1.8.3.2.2.4.5.4.8 0 .4-.2.6-.4.8m3.6-1.9c.3 0 .6.1.8.3.2.2.3.5.3.8 0 .3-.1.6-.3.8-.2.2-.5.4-.8.4s-.6-.1-.9-.4c-.2-.2-.3-.5-.3-.8 0-.3.1-.6.3-.8.2-.2.5-.3.9-.3m4.9-18.6c-.4-.4-.9-.6-1.4-.6h-53.6c-.5 0-1 .2-1.4.6s-.6.9-.6 1.4v9.8c0 .5.2 1 .6 1.4.4.4.8.5 1.4.5h53.6c.6 0 1-.2 1.4-.5.4-.4.6-.8.6-1.4v-9.8c0-.6-.2-1-.6-1.4m-5.8 3.3c.2-.2.5-.3.9-.3s.6.1.8.3c.2.2.3.5.3.8s-.1.6-.3.8c-.2.2-.5.3-.8.3s-.6-.1-.9-.3c-.2-.2-.3-.5-.3-.8s.1-.6.3-.8m-8.3 1.9c-.3 0-.6-.1-.8-.3-.2-.2-.3-.5-.3-.8s.1-.6.3-.8c.2-.2.5-.3.8-.3.3 0 .6.1.8.3.2.2.4.5.4.8s-.1.6-.4.8c-.2.2-.4.3-.8.3m5.6-.3c-.2.2-.5.3-.8.3-.3 0-.6-.1-.8-.3-.2-.2-.4-.5-.4-.8s.1-.6.4-.8c.2-.2.5-.3.8-.3.3 0 .6.1.8.3.2.2.4.5.4.8s-.2.6-.4.8m-39.2 3.1c0 .3-.2.5-.5.5h-3.4c-.3 0-.4-.1-.4-.5v-3.5c0-.3.1-.4.4-.4h3.5c.3 0 .5.1.5.4v3.5m48.2-22.3c0-.6-.2-1-.6-1.4-.4-.4-.9-.6-1.4-.6h-53.6c-.5 0-1 .2-1.4.6-.4.4-.6.9-.6 1.4v9.8c0 .5.2 1 .6 1.4.4.4.9.6 1.4.6h53.6c.5 0 1-.2 1.4-.6.4-.4.6-.8.6-1.4v-9.8m-13.9 1.9c.2.2.4.5.4.8 0 .3-.1.6-.4.8-.2.2-.5.4-.8.4-.3 0-.6-.1-.8-.4-.2-.2-.3-.5-.3-.8 0-.3.1-.6.3-.8.2-.2.5-.4.8-.4.4 0 .6.2.8.4m4.8 1.6c-.2.2-.5.4-.8.4-.3 0-.6-.1-.8-.4-.2-.2-.4-.5-.4-.8 0-.3.1-.6.4-.8.2-.2.5-.4.8-.4.3 0 .6.1.8.4s.4.5.4.8c0 .3-.2.6-.4.8m4.4-1.6c.2.2.3.5.3.8 0 .3-.1.6-.3.8-.2.2-.5.4-.8.4s-.6-.1-.9-.4c-.2-.2-.3-.5-.3-.8 0-.3.1-.6.3-.8.2-.2.5-.4.9-.4s.5.2.8.4m-47.5 5.2c-.3 0-.4-.1-.4-.4v-3.5c0-.3.1-.4.4-.4h3.5c.3 0 .5.1.5.4v3.5c0 .3-.2.4-.5.4h-3.5m51.6-24.2c-.4-.4-.8-.5-1.4-.5h-53.6c-.6 0-1 .2-1.4.5-.4.4-.6.9-.6 1.4v9.8c0 .6.2 1 .6 1.4.4.4.9.6 1.4.6h53.6c.5 0 1-.2 1.4-.6.4-.4.6-.8.6-1.4v-9.8c0-.5-.2-.9-.6-1.4m-6.1 4.1c0-.3.1-.6.3-.8.2-.2.5-.3.9-.3s.6.1.8.3c.2.2.3.5.3.8 0 .3-.1.6-.3.9-.2.2-.5.3-.8.3s-.6-.1-.9-.3c-.2-.2-.3-.5-.3-.9m-7.2-.8c.2.2.4.5.4.8 0 .3-.1.6-.4.9-.2.2-.5.3-.8.3-.3 0-.6-.1-.8-.3-.2-.2-.3-.5-.3-.9 0-.3.1-.6.3-.8.2-.2.5-.3.8-.3.4 0 .6.1.8.3m4.8 1.7c-.2.2-.5.3-.8.3-.3 0-.6-.1-.8-.3-.2-.2-.4-.5-.4-.9 0-.3.1-.6.4-.8.2-.2.5-.3.8-.3.3 0 .6.1.8.3s.4.5.4.8c0 .4-.2.7-.4.9m-39.2-.4v3.5c0 .3-.2.4-.5.4h-3.4c-.3 0-.4-.1-.4-.4v-3.5c0-.3.1-.5.4-.5h3.5c.3.1.4.2.4.5m-135.9 43.8c0-.5-.2-1-.6-1.4-.4-.4-.8-.6-1.4-.6h-53.6c-.5 0-1 .2-1.4.6-.4.4-.5.8-.5 1.4v5.3h5v-2.1c0-.3.1-.5.4-.5h3.5c.3 0 .4.2.4.5v2.1h48.2v-5.3m-13.5 2.7c0 .3-.1.6-.3.8-.2.2-.5.4-.8.4-.3 0-.6-.1-.8-.4-.2-.2-.4-.5-.4-.8 0-.3.1-.6.4-.8.2-.2.5-.3.8-.3.3 0 .6.1.8.3.2.3.3.5.3.8m4.8 0c0 .3-.1.6-.3.8-.2.2-.5.4-.8.4-.3 0-.6-.1-.8-.4-.2-.2-.4-.5-.4-.8 0-.3.1-.6.4-.8.2-.2.5-.3.8-.3.3 0 .6.1.8.3.2.3.3.5.3.8m4-.8c.2.2.4.5.4.8 0 .3-.1.6-.4.8-.2.2-.5.4-.8.4s-.6-.1-.8-.4c-.2-.2-.4-.5-.4-.8 0-.3.1-.6.4-.8.2-.2.5-.3.8-.3s.6.1.8.3m4.7-17.5c0-.5-.2-1-.6-1.4-.4-.4-.8-.6-1.4-.6h-53.6c-.5 0-1 .2-1.4.6-.4.4-.5.8-.5 1.4v9.8c0 .6.2 1 .5 1.4.4.4.9.5 1.4.5h53.6c.6 0 1-.2 1.4-.5.4-.4.6-.9.6-1.4v-9.8m-6.3 1.9c.2-.2.5-.3.8-.3s.6.1.8.3c.2.2.4.5.4.8s-.1.6-.4.8c-.2.2-.5.3-.8.3s-.6-.1-.8-.3c-.2-.2-.4-.5-.4-.8s.2-.6.4-.8m-7.2.8c0 .3-.1.6-.3.8-.2.2-.5.3-.8.3-.3 0-.6-.1-.8-.3-.2-.2-.4-.5-.4-.8s.1-.6.4-.8c.2-.2.5-.3.8-.3.3 0 .6.1.8.3.2.2.3.5.3.8m4.8 0c0 .3-.1.6-.3.8-.2.2-.5.3-.8.3-.3 0-.6-.1-.8-.3-.2-.2-.4-.5-.4-.8s.1-.6.4-.8c.2-.2.5-.3.8-.3.3 0 .6.1.8.3.2.2.3.5.3.8m-43.8 3.9v-3.5c0-.3.1-.4.4-.4h3.5c.3 0 .4.1.4.4v3.5c0 .3-.1.5-.4.5h-3.5c-.3-.1-.4-.2-.4-.5m60.4-6.6c-.8.8-1.1 1.7-1.1 2.8v18.2h113.2v-18.2c0-1.1-.4-2-1.2-2.8s-1.7-1.2-2.8-1.2h-105.4c-1 .1-1.9.5-2.7 1.2m8.9 8.5c.2-.2.4-.2.6-.2h6.8c.5 0 .8.3.8.8v6.8c0 .6-.3.9-.8.9h-6.8c-.6 0-.9-.3-.9-.9v-6.9c0-.2.1-.4.3-.5m83.7-2.7c.6 0 1.2.2 1.6.7.4.4.7 1 .7 1.6 0 .6-.2 1.2-.7 1.6-.4.5-1 .7-1.6.7s-1.2-.2-1.7-.7c-.4-.4-.6-1-.6-1.6 0-.6.2-1.2.6-1.6.5-.4 1.1-.7 1.7-.7m-11 .7c.4-.5 1-.7 1.6-.7.6 0 1.2.2 1.6.7.4.4.7 1 .7 1.6 0 .6-.2 1.2-.7 1.6-.5.5-1 .7-1.6.7-.6 0-1.2-.2-1.6-.7-.4-.4-.6-1-.6-1.6 0-.6.2-1.1.6-1.6m18 0c.4-.5 1-.7 1.6-.7.6 0 1.2.2 1.6.7.5.4.7 1 .7 1.6 0 .6-.2 1.2-.7 1.6-.4.5-1 .7-1.6.7-.6 0-1.2-.2-1.6-.7-.5-.4-.7-1-.7-1.6 0-.6.2-1.1.7-1.6m-107.5-22.2c0-.5-.2-1-.6-1.4-.4-.4-.8-.6-1.4-.6h-53.6c-.5 0-1 .2-1.4.6-.4.4-.5.8-.5 1.4v9.8c0 .5.2 1 .5 1.4.4.4.9.6 1.4.6h53.6c.5 0 1-.2 1.4-.6.4-.4.6-.8.6-1.4v-9.8m-8.7 2.7c0 .3-.1.6-.3.8-.2.2-.5.4-.8.4-.3 0-.6-.1-.8-.4-.2-.2-.4-.5-.4-.8 0-.3.1-.6.4-.8.2-.2.5-.4.8-.4.3 0 .6.1.8.4.2.2.3.5.3.8m-4.8 0c0 .3-.1.6-.3.8-.2.2-.5.4-.8.4-.3 0-.6-.1-.8-.4-.2-.2-.4-.5-.4-.8 0-.3.1-.6.4-.8.2-.2.5-.4.8-.4.3 0 .6.1.8.4.2.2.3.5.3.8m8.8-.8c.2.2.4.5.4.8 0 .3-.1.6-.4.8-.2.2-.5.4-.8.4s-.6-.1-.8-.4c-.2-.2-.4-.5-.4-.8 0-.3.1-.6.4-.8.2-.2.5-.4.8-.4s.6.2.8.4m-47.4.9h3.5c.3 0 .4.1.4.4v3.5c0 .3-.1.4-.4.4h-3.5c-.3 0-.4-.1-.4-.4v-3.5c0-.3.1-.4.4-.4m52.1-18.5c0-.5-.2-1-.6-1.4-.4-.4-.8-.5-1.4-.5h-53.6c-.5 0-1 .2-1.4.5-.4.4-.5.9-.5 1.4v9.8c0 .6.2 1 .5 1.4.4.4.9.6 1.4.6h53.6c.6 0 1-.2 1.4-.6.4-.4.6-.8.6-1.4v-9.8m-4.4 2.7c0 .3-.1.6-.4.9-.2.2-.5.3-.8.3s-.6-.1-.8-.3c-.2-.2-.4-.5-.4-.9 0-.3.1-.6.4-.8.2-.2.5-.3.8-.3s.6.1.8.3c.3.3.4.5.4.8m-4.3 0c0 .3-.1.6-.3.9-.2.2-.5.3-.8.3-.3 0-.6-.1-.8-.3-.2-.2-.4-.5-.4-.9 0-.3.1-.6.4-.8.2-.2.5-.3.8-.3.3 0 .6.1.8.3.2.3.3.5.3.8m-5.9 1.2c-.3 0-.6-.1-.8-.3-.2-.2-.4-.5-.4-.9 0-.3.1-.6.4-.8.2-.2.5-.3.8-.3.3 0 .6.1.8.3.2.2.3.5.3.8 0 .3-.1.6-.3.9-.2.2-.5.3-.8.3m-33.6-.7v3.5c0 .3-.1.4-.4.4h-3.5c-.3 0-.4-.1-.4-.4v-3.5c0-.3.1-.5.4-.5h3.5c.2.1.4.2.4.5m58.8-3.7c-1.1 0-2 .4-2.8 1.2-.8.8-1.1 1.7-1.1 2.8v19.3c0 1.1.4 2 1.1 2.8s1.7 1.2 2.8 1.2h105.4c1.1 0 2-.4 2.8-1.2s1.2-1.7 1.2-2.8v-19.4c0-1.1-.4-2-1.2-2.8-.8-.8-1.7-1.2-2.8-1.2h-105.4m14.4 17c0 .6-.3.8-.8.8h-6.8c-.6 0-.9-.3-.9-.8v-6.8c0-.2.1-.4.2-.5.2-.2.4-.2.6-.2h6.8c.5 0 .8.3.8.8v6.7m85.8-9.3c.5.5.7 1 .7 1.6 0 .6-.2 1.2-.7 1.6-.4.4-1 .6-1.6.6-.6 0-1.2-.2-1.6-.6-.5-.4-.7-1-.7-1.6 0-.6.2-1.2.7-1.6.4-.4 1-.7 1.6-.7.6 0 1.1.3 1.6.7m-7.9 1.6c0 .6-.2 1.2-.7 1.6-.4.4-1 .6-1.6.6s-1.2-.2-1.7-.6c-.4-.4-.6-1-.6-1.6 0-.6.2-1.2.6-1.6.5-.4 1-.7 1.7-.7s1.2.2 1.6.7c.4.5.7 1 .7 1.6m-9.3 0c0 .6-.2 1.2-.7 1.6-.5.4-1 .6-1.6.6-.6 0-1.2-.2-1.6-.6-.4-.4-.6-1-.6-1.6 0-.6.2-1.2.6-1.6.4-.4 1-.7 1.6-.7.7 0 1.2.2 1.6.7.4.5.7 1 .7 1.6m26.4-36.1c0-1.1-.4-2-1.2-2.8s-1.7-1.2-2.8-1.2h-105.3c-1.1 0-2 .4-2.8 1.2s-1.1 1.7-1.1 2.8v19.3c0 1.1.4 2 1.1 2.8.8.8 1.7 1.1 2.8 1.1h105.4c1.1 0 2-.4 2.8-1.1.8-.8 1.2-1.7 1.2-2.8v-19.3m-21.2 3.7c.5-.4 1-.6 1.7-.6s1.2.2 1.6.6c.4.5.7 1 .7 1.7s-.2 1.2-.7 1.6c-.4.4-1 .7-1.6.7s-1.2-.2-1.7-.7c-.4-.4-.6-1-.6-1.6s.2-1.2.6-1.7m-9.3 0c.4-.4 1-.6 1.6-.6.7 0 1.2.2 1.6.6.4.5.7 1 .7 1.7s-.2 1.2-.7 1.6c-.5.4-1 .7-1.6.7-.6 0-1.2-.2-1.6-.7-.4-.4-.6-1-.6-1.6s.2-1.2.6-1.7m18 0c.4-.4 1-.6 1.6-.6.6 0 1.2.2 1.6.6.5.5.7 1 .7 1.7s-.2 1.2-.7 1.6c-.4.4-1 .7-1.6.7-.6 0-1.2-.2-1.6-.7-.5-.4-.7-1-.7-1.6s.2-1.2.7-1.7m-82.5 9.3c0 .2-.1.4-.2.6-.1.2-.3.2-.6.2h-6.8c-.2 0-.4-.1-.6-.2-.2-.2-.2-.4-.2-.6v-6.8c0-.2.1-.4.2-.6.2-.2.4-.2.6-.2h6.8c.2 0 .4.1.6.2.2.2.3.4.2.6v6.8m-152 48.6c0-1.1-.4-2-1.1-2.8s-1.7-1.2-2.8-1.2H70.95c-1.1 0-2 .4-2.8 1.2-.7.8-1.1 1.7-1.1 2.8v18.2h113.1v-18.2m-19.4 3c.6 0 1.2.2 1.6.7.4.4.6 1 .6 1.6 0 .6-.2 1.2-.6 1.6-.5.5-1 .7-1.6.7-.6 0-1.2-.2-1.6-.7-.4-.4-.6-1-.6-1.6 0-.6.2-1.2.6-1.6.4-.4 1-.7 1.6-.7m-10.9.7c.4-.5 1-.7 1.6-.7s1.2.2 1.6.7c.5.4.7 1 .7 1.6 0 .6-.2 1.2-.7 1.6-.4.5-1 .7-1.6.7s-1.2-.2-1.6-.7c-.5-.4-.7-1-.7-1.6 0-.6.2-1.1.7-1.6m17.9 3.3c-.5-.4-.7-1-.7-1.6 0-.6.2-1.2.7-1.6.4-.5 1-.7 1.6-.7s1.2.2 1.6.7c.5.4.7 1 .7 1.6 0 .6-.2 1.2-.7 1.6-.4.5-1 .7-1.6.7s-1.2-.3-1.6-.7m-91 6v-6.8c0-.5.3-.8.9-.8h6.8c.5 0 .8.3.8.8v6.8c0 .6-.3.9-.8.9h-6.8c-.6 0-.9-.3-.9-.9m110.8-17.2c-.4.4-.6.9-.6 1.4v9.8c0 .5.2 1 .6 1.4.4.4.8.5 1.4.5h53.6c.5 0 1-.2 1.4-.5.4-.4.6-.9.6-1.4v-9.8c0-.5-.2-1-.6-1.4-.4-.4-.8-.6-1.4-.6h-53.6c-.6 0-1 .2-1.4.6m8.6 4.5v3.5c0 .3-.1.5-.4.5h-3.5c-.3 0-.4-.1-.4-.5v-3.5c0-.3.1-.4.4-.4h3.5c.3.1.4.2.4.4m44-.4c0 .3-.1.6-.4.8-.2.2-.5.3-.8.3-.3 0-.6-.1-.8-.3-.2-.2-.4-.5-.4-.8s.1-.6.4-.8c.2-.2.5-.3.8-.3.3 0 .6.1.8.3.2.2.4.5.4.8m-9.5-.8c.2.2.4.5.4.8s-.1.6-.4.8c-.2.2-.5.3-.8.3-.3 0-.6-.1-.8-.3-.2-.2-.4-.5-.4-.8 0-.3.1-.6.4-.8.2-.2.5-.3.8-.3.3-.1.6.1.8.3m3.1 1.6c-.2-.2-.4-.5-.4-.8s.1-.6.4-.8c.2-.2.5-.3.8-.3.3 0 .6.1.9.3.2.2.4.5.4.8s-.1.6-.4.8c-.2.2-.5.3-.9.3-.3 0-.6-.1-.8-.3m-41.8 15.3c0-.3.1-.5.4-.5h3.5c.3 0 .4.2.4.5v2.1h48.2v-5.3c0-.5-.2-1-.6-1.4-.4-.4-.8-.6-1.4-.6h-53.6c-.5 0-1 .2-1.4.6-.4.4-.6.9-.6 1.4v5.3h5v-2.1m39.2-.5c0 .3-.1.6-.4.8-.2.2-.5.4-.8.4-.3 0-.6-.1-.8-.4-.2-.2-.4-.5-.4-.8 0-.3.1-.6.4-.8.2-.2.5-.3.8-.3.3 0 .6.1.8.3.2.3.4.5.4.8m2.7.8c-.2-.2-.4-.5-.4-.8 0-.3.1-.6.4-.8.2-.2.5-.3.8-.3.3 0 .6.1.9.3.2.2.4.5.4.8 0 .3-.1.6-.4.8-.2.2-.5.4-.9.4-.3 0-.6-.1-.8-.4m5.2.4c-.3 0-.6-.1-.8-.4-.2-.2-.4-.5-.4-.8 0-.3.1-.6.4-.8.2-.2.5-.3.8-.3.3 0 .6.1.8.3.2.2.4.5.4.8 0 .3-.1.6-.4.8-.2.3-.5.4-.8.4m-52-35.2v9.8c0 .5.2 1 .6 1.4.4.4.9.6 1.4.6h53.6c.5 0 1-.2 1.4-.6.4-.4.6-.8.6-1.4v-9.8c0-.5-.2-1-.6-1.4-.4-.4-.8-.6-1.4-.6h-53.6c-.5 0-1 .2-1.4.6-.5.4-.6.9-.6 1.4m9.2 6.7c0 .3-.1.4-.4.4h-3.5c-.3 0-.4-.1-.4-.4v-3.5c0-.3.1-.4.4-.4h3.5c.3 0 .4.1.4.4v3.5m32.5-4c0-.3.1-.6.4-.8.2-.2.5-.4.8-.4.3 0 .6.1.8.4.2.2.4.5.4.8 0 .3-.1.6-.4.8-.2.2-.5.4-.8.4-.3 0-.6-.1-.8-.4-.2-.2-.4-.5-.4-.8m6.7-.8c.2.2.4.5.4.8 0 .3-.1.6-.4.8-.2.2-.5.4-.9.4-.3 0-.6-.1-.8-.4-.2-.2-.4-.5-.4-.8 0-.3.1-.6.4-.8s.5-.4.8-.4c.4 0 .7.2.9.4m3.6 2c-.3 0-.6-.1-.8-.4-.2-.2-.4-.5-.4-.8 0-.3.1-.6.4-.8s.5-.4.8-.4c.3 0 .6.1.8.4s.4.5.4.8c0 .3-.1.6-.4.8-.2.3-.5.4-.8.4m-59.9-19c-.8-.8-1.7-1.2-2.8-1.2H70.95c-1.1 0-2 .4-2.8 1.2-.7.8-1.1 1.7-1.1 2.8v19.3c0 1.1.4 2 1.1 2.8.8.8 1.7 1.2 2.8 1.2h105.4c1.1 0 2-.4 2.8-1.2s1.1-1.7 1.1-2.8v-19.3c-.1-1.1-.4-2-1.2-2.8m-8.1 9.8c-.4.4-1 .6-1.6.6s-1.2-.2-1.6-.6c-.5-.4-.7-1-.7-1.6 0-.6.2-1.2.7-1.6.4-.4 1-.7 1.6-.7s1.2.2 1.6.7c.5.5.7 1 .7 1.6 0 .6-.2 1.1-.7 1.6m-8.6-3.3c.4.5.6 1 .6 1.6 0 .6-.2 1.2-.6 1.6-.5.4-1 .6-1.6.6-.6 0-1.2-.2-1.6-.6-.4-.4-.6-1-.6-1.6 0-.6.2-1.2.6-1.6.4-.4 1-.7 1.6-.7.7 0 1.2.3 1.6.7m-8.6 1.6c0 .6-.2 1.2-.7 1.6-.4.4-1 .6-1.6.6s-1.2-.2-1.6-.6c-.5-.4-.7-1-.7-1.6 0-.6.2-1.2.7-1.6.4-.4 1-.7 1.6-.7s1.2.2 1.6.7c.5.5.7 1 .7 1.6m-76.1.2h6.8c.5 0 .8.3.8.8v6.8c0 .6-.3.8-.8.8h-6.8c-.6 0-.9-.3-.9-.8v-6.8c0-.6.3-.8.9-.8m109.9-10.3c-.4.4-.6.9-.6 1.4v9.8c0 .6.2 1 .6 1.4.4.4.9.6 1.4.6h53.6c.5 0 1-.2 1.4-.6.4-.4.6-.9.6-1.4v-9.8c0-.5-.2-1-.6-1.4-.4-.4-.8-.5-1.4-.5h-53.6c-.6 0-1.1.2-1.4.5m8.6 8.1c0 .3-.1.4-.4.4h-3.5c-.3 0-.4-.1-.4-.4v-3.5c0-.3.1-.5.4-.5h3.5c.3 0 .4.2.4.5v3.5m32.5-4c0-.3.1-.6.4-.8.2-.2.5-.3.8-.3.3 0 .6.1.8.3.2.2.4.5.4.8 0 .3-.1.6-.4.9-.2.2-.5.3-.8.3-.3 0-.6-.1-.8-.3-.2-.2-.4-.5-.4-.9m11.5 0c0 .3-.1.6-.4.9s-.5.3-.8.3c-.3 0-.6-.1-.8-.3s-.4-.5-.4-.9c0-.3.1-.6.4-.8s.5-.3.8-.3c.3 0 .6.1.8.3s.4.5.4.8m-4.4 0c0 .3-.1.6-.4.9s-.5.3-.9.3c-.3 0-.6-.1-.8-.3s-.4-.5-.4-.9c0-.3.1-.6.4-.8s.5-.3.8-.3c.3 0 .6.1.9.3s.4.5.4.8M3.35 83.25c-.4.4-.5.8-.5 1.4v5.3h4.9v-2.1c0-.3.1-.5.4-.5h3.5c.3 0 .4.2.4.5v2.1h48.2v-5.3c0-.6-.2-1-.5-1.4-.4-.4-.9-.6-1.4-.6H4.75c-.5 0-1 .2-1.4.6m43.5 4.1c0 .3-.1.6-.3.8-.2.2-.5.4-.8.4-.3 0-.6-.1-.8-.4-.2-.2-.4-.5-.4-.8 0-.3.1-.6.4-.8.2-.2.5-.3.8-.3.3 0 .6.1.8.3.2.3.3.5.3.8m4.7 0c0 .3-.1.6-.3.8-.2.2-.5.4-.8.4-.3 0-.6-.1-.8-.4-.2-.2-.4-.5-.4-.8 0-.3.1-.6.4-.8.2-.2.5-.3.8-.3.3 0 .6.1.8.3.2.3.3.5.3.8m4.4 0c0 .3-.1.6-.4.8-.2.2-.5.4-.8.4s-.6-.1-.8-.4c-.2-.2-.4-.5-.4-.8 0-.3.1-.6.4-.8.2-.2.5-.3.8-.3s.6.1.8.3c.3.3.4.5.4.8m-53.1-18.3v9.8c0 .6.2 1 .5 1.4.4.4.9.5 1.4.5h53.6c.6 0 1-.2 1.4-.5.4-.4.5-.8.5-1.4v-9.8c0-.6-.2-1-.5-1.4-.4-.4-.9-.6-1.4-.6H4.75c-.5 0-1 .2-1.4.6-.4.4-.5.8-.5 1.4m43.7 1.9c.2.2.3.5.3.8s-.1.6-.3.8c-.2.2-.5.3-.8.3-.3 0-.6-.1-.8-.3-.2-.2-.4-.5-.4-.8s.1-.6.4-.8c.2-.2.5-.3.8-.3.3-.1.6.1.8.3m-34.5 1.2v3.5c0 .3-.1.5-.4.5h-3.5c-.3 0-.4-.1-.4-.5v-3.5c0-.3.1-.4.4-.4h3.5c.3.1.4.2.4.4m37.6-1.2c.2-.2.5-.3.8-.3.3 0 .6.1.8.3.2.2.3.5.3.8s-.1.6-.3.8c-.2.2-.5.3-.8.3-.3 0-.6-.1-.8-.3-.2-.2-.4-.5-.4-.8s.2-.6.4-.8m6.3.8c0 .3-.1.6-.4.8-.2.2-.5.3-.8.3s-.6-.1-.8-.3c-.2-.2-.4-.5-.4-.8s.1-.6.4-.8c.2-.2.5-.3.8-.3s.6.1.8.3c.3.2.4.5.4.8m-51.2-20.4c-.5 0-1 .2-1.4.6-.4.4-.5.8-.5 1.4v9.8c0 .5.2 1 .5 1.4.4.4.9.6 1.4.6h53.6c.5 0 1-.2 1.4-.6.4-.4.5-.8.5-1.4v-9.8c0-.6-.2-1-.5-1.4-.4-.4-.9-.6-1.4-.6H4.75m7.3 8.7c0 .3-.1.4-.4.4h-3.5c-.3 0-.4-.1-.4-.4v-3.5c0-.3.1-.4.4-.4h3.5c.3 0 .4.1.4.4v3.5m33.7-2.8c-.3 0-.6-.1-.8-.4-.2-.2-.4-.5-.4-.8 0-.3.1-.6.4-.8.2-.2.5-.4.8-.4.3 0 .6.1.8.4.2.2.3.5.3.8 0 .3-.1.6-.3.8-.2.3-.5.4-.8.4m10.2-1.2c0 .3-.1.6-.4.8-.2.2-.5.4-.8.4s-.6-.1-.8-.4c-.2-.2-.4-.5-.4-.8 0-.3.1-.6.4-.8.2-.2.5-.4.8-.4s.6.1.8.4c.3.2.4.5.4.8m-4.4 0c0 .3-.1.6-.3.8-.2.2-.5.4-.8.4-.3 0-.6-.1-.8-.4-.2-.2-.4-.5-.4-.8 0-.3.1-.6.4-.8.2-.2.5-.4.8-.4.3 0 .6.1.8.4.2.2.3.5.3.8m-48.7-18.4v9.8c0 .6.2 1 .5 1.4.4.4.9.6 1.4.6h53.6c.5 0 1-.2 1.4-.6.4-.4.5-.8.5-1.4v-9.8c0-.5-.2-1-.5-1.4-.4-.4-.8-.5-1.4-.5H4.75c-.5 0-1 .2-1.4.5-.4.5-.5.9-.5 1.4m9.2 3.2v3.5c0 .3-.1.4-.4.4h-3.5c-.3 0-.4-.1-.4-.4v-3.5c0-.3.1-.5.4-.5h3.5c.3.1.4.2.4.5m34.8-.5c0 .3-.1.6-.3.9-.2.2-.5.3-.8.3-.3 0-.6-.1-.8-.3-.2-.2-.4-.5-.4-.9 0-.3.1-.6.4-.8.2-.2.5-.3.8-.3.3 0 .6.1.8.3.2.3.3.5.3.8m8.7-.8c.2.2.4.5.4.8 0 .3-.1.6-.4.9-.2.2-.5.3-.8.3s-.6-.1-.8-.3c-.2-.2-.4-.5-.4-.9 0-.3.1-.6.4-.8.2-.2.5-.3.8-.3s.6.1.8.3m-5.1 2c-.3 0-.6-.1-.8-.3-.2-.2-.4-.5-.4-.9 0-.3.1-.6.4-.8.2-.2.5-.3.8-.3.3 0 .6.1.8.3.2.2.3.5.3.8 0 .3-.1.6-.3.9-.2.2-.5.3-.8.3m17.7-34c-.7.8-1.1 1.7-1.1 2.8v19.3c0 1.1.4 2 1.1 2.8.8.8 1.7 1.1 2.8 1.1h105.4c1.1 0 2-.4 2.8-1.1.8-.8 1.1-1.7 1.1-2.8v-19.3c0-1.1-.4-2-1.1-2.8s-1.7-1.2-2.8-1.2H70.95c-1.1 0-2 .4-2.8 1.2m91 6.4c.4-.4 1-.6 1.6-.6.7 0 1.2.2 1.6.6.4.5.6 1 .6 1.7s-.2 1.2-.6 1.6c-.5.4-1 .7-1.6.7-.6 0-1.2-.2-1.6-.7-.4-.4-.6-1-.6-1.6s.2-1.2.6-1.7m-9.3 0c.4-.4 1-.6 1.6-.6s1.2.2 1.6.6c.5.5.7 1 .7 1.7s-.2 1.2-.7 1.6c-.4.4-1 .7-1.6.7s-1.2-.2-1.6-.7c-.5-.4-.7-1-.7-1.6s.2-1.2.7-1.7m19.5-.7c.6 0 1.2.2 1.6.6.5.5.7 1 .7 1.7s-.2 1.2-.7 1.6c-.4.4-1 .7-1.6.7s-1.2-.2-1.6-.7c-.5-.4-.7-1-.7-1.6s.2-1.2.7-1.7c.4-.3 1-.6 1.6-.6m-84.9 10.9h-6.8c-.6 0-.9-.3-.9-.8v-6.8c0-.2.1-.4.2-.6.2-.2.4-.2.6-.2h6.8c.2 0 .4.1.6.2.2.2.3.4.2.6v6.8c0 .2-.1.4-.2.6-.1.1-.3.2-.5.2m469.6 60.5c0-.5-.2-1-.6-1.4-.4-.4-.8-.6-1.4-.6h-53.6c-.5 0-1 .2-1.3.6-.4.4-.6.9-.6 1.4v5.3h5v-2.1c0-.3.2-.5.5-.5h3.5c.3 0 .4.2.4.5v2.1h48.3v-5.3m-13.6 2.7c0 .3-.1.6-.4.8-.2.2-.5.4-.8.4-.3 0-.6-.1-.8-.4-.2-.2-.4-.5-.4-.8 0-.3.1-.6.4-.8.2-.2.5-.3.8-.3.3 0 .6.1.8.3.2.3.4.5.4.8m4.3-.8c.2.2.4.5.4.8 0 .3-.1.6-.4.8-.2.2-.5.4-.8.4s-.6-.1-.8-.4c-.2-.2-.4-.5-.4-.8 0-.3.1-.6.4-.8.2-.2.5-.3.8-.3s.6.1.8.3m2.7 1.6c-.2-.2-.3-.5-.3-.8 0-.3.1-.6.3-.8.2-.2.5-.3.8-.3s.6.1.8.3c.2.2.3.5.3.8 0 .3-.1.6-.3.8-.2.2-.5.4-.8.4s-.5-.1-.8-.4m6.4-19.1c0-.5-.2-1-.6-1.4-.4-.4-.8-.6-1.4-.6h-53.6c-.5 0-1 .2-1.3.6-.4.4-.6.9-.6 1.4v9.8c0 .5.2 1 .6 1.4.4.4.8.5 1.3.5h53.6c.6 0 1-.2 1.4-.5.4-.4.6-.9.6-1.4v-9.8m-8.7 2.7c0 .3-.1.6-.4.8-.2.2-.5.3-.8.3s-.6-.1-.8-.3c-.2-.2-.4-.5-.4-.8s.1-.6.4-.8c.2-.2.5-.3.8-.3s.6.1.8.3c.2.2.4.5.4.8m2.3.8c-.2-.2-.3-.5-.3-.8s.1-.6.3-.8c.2-.2.5-.3.8-.3s.6.1.8.3c.2.2.3.5.3.8s-.1.6-.3.8c-.2.2-.5.3-.8.3s-.5-.1-.8-.3m-7-.8c0 .3-.1.6-.4.8-.2.2-.5.3-.8.3-.3 0-.6-.1-.8-.3-.2-.2-.4-.5-.4-.8s.1-.6.4-.8c.2-.2.5-.3.8-.3.3 0 .6.1.8.3.2.2.4.5.4.8m-34.9 3.9c0 .3-.1.5-.4.5h-3.5c-.3 0-.5-.1-.5-.5v-3.5c0-.3.2-.4.5-.4h3.5c.3 0 .4.1.4.4v3.5m48.3-22.3c0-.5-.2-1-.6-1.4-.4-.4-.8-.6-1.4-.6h-53.6c-.5 0-1 .2-1.3.6-.4.4-.6.9-.6 1.4v9.8c0 .5.2 1 .6 1.4.4.4.8.6 1.3.6h53.6c.5 0 1-.2 1.4-.6.4-.4.6-.8.6-1.4v-9.8m-13.4 2.7c0 .3-.1.6-.4.8-.2.2-.5.4-.8.4-.3 0-.6-.1-.8-.4-.2-.2-.4-.5-.4-.8 0-.3.1-.6.4-.8.2-.2.5-.4.8-.4.3 0 .6.1.8.4s.4.5.4.8m9 0c0 .3-.1.6-.3.8-.2.2-.5.4-.8.4s-.6-.1-.8-.4c-.2-.2-.3-.5-.3-.8 0-.3.1-.6.3-.8.2-.2.5-.4.8-.4s.6.1.8.4c.2.2.3.5.3.8m-4.3 0c0 .3-.1.6-.4.8-.2.2-.5.4-.8.4s-.6-.1-.8-.4c-.2-.2-.4-.5-.4-.8 0-.3.1-.6.4-.8.2-.2.5-.4.8-.4s.6.1.8.4c.2.2.4.5.4.8m-43.4 4.4c-.3 0-.5-.1-.5-.4v-3.5c0-.3.2-.4.5-.4h3.5c.3 0 .4.1.4.4v3.5c0 .3-.1.4-.4.4h-3.5m52.1-22.8c0-.5-.2-1-.6-1.4-.4-.4-.8-.5-1.4-.5h-53.6c-.5 0-1 .2-1.3.5-.4.4-.6.9-.6 1.4v9.8c0 .5.2 1 .6 1.4.4.4.8.6 1.3.6h53.6c.6 0 1-.2 1.4-.6.4-.4.6-.8.6-1.4v-9.8m-4.4 2.7c0 .3-.1.6-.3.9-.2.2-.5.3-.8.3s-.6-.1-.8-.3c-.2-.2-.3-.5-.3-.9 0-.3.1-.6.3-.8.2-.2.5-.3.8-.3s.6.1.8.3c.2.3.3.5.3.8m-4.3 0c0 .3-.1.6-.4.9-.2.2-.5.3-.8.3s-.6-.1-.8-.3c-.2-.2-.4-.5-.4-.9 0-.3.1-.6.4-.8.2-.2.5-.3.8-.3s.6.1.8.3c.2.3.4.5.4.8m-4.7 0c0 .3-.1.6-.4.9s-.5.3-.8.3c-.3 0-.6-.1-.8-.3-.2-.2-.4-.5-.4-.9 0-.3.1-.6.4-.8.2-.2.5-.3.8-.3.3 0 .6.1.8.3s.4.5.4.8m-34.9 4c0 .3-.1.4-.4.4h-3.5c-.3 0-.5-.1-.5-.4v-3.5c0-.3.2-.5.5-.5h3.5c.3 0 .4.2.4.5v3.5m168.2 27.5c0-1.1-.4-2-1.1-2.8-.8-.8-1.7-1.2-2.8-1.2h-105.4c-1.1 0-2 .4-2.8 1.2s-1.2 1.7-1.2 2.8v18.2h113.2v-18.2m-21 3.7c.5-.5 1-.7 1.6-.7s1.2.2 1.6.7c.4.4.6 1 .6 1.6 0 .6-.2 1.2-.6 1.6-.4.5-1 .7-1.6.7s-1.2-.2-1.6-.7c-.4-.4-.7-1-.7-1.6 0-.6.3-1.1.7-1.6m-7.7-.7c.6 0 1.2.2 1.7.7.4.4.6 1 .6 1.6 0 .6-.2 1.2-.6 1.6-.5.5-1 .7-1.7.7s-1.2-.2-1.6-.7c-.4-.4-.7-1-.7-1.6 0-.6.2-1.2.7-1.6.4-.4 1-.7 1.6-.7m17.9 0c.6 0 1.2.2 1.6.7.5.4.7 1 .7 1.6 0 .6-.2 1.2-.7 1.6-.4.5-1 .7-1.6.7s-1.2-.2-1.6-.7c-.5-.4-.7-1-.7-1.6 0-.6.2-1.2.7-1.6.4-.4 1-.7 1.6-.7m-92.6 3.2c0-.2.1-.4.2-.5.2-.2.4-.2.6-.2h6.8c.2 0 .4.1.6.2.2.1.2.3.2.5v6.8c0 .6-.3.9-.8.9h-6.8c-.6 0-.9-.3-.9-.9v-6.8m112.3 4.6c-.5 0-1 .2-1.4.6-.4.4-.5.8-.5 1.4v5.3h5v-2.1c0-.3.1-.5.4-.5h3.5c.3 0 .4.2.4.5v2.1h48.1v-5.3c0-.6-.2-1-.5-1.4-.4-.4-.9-.6-1.4-.6h-53.6m42 4.7c0 .3-.1.6-.3.8-.2.2-.5.4-.8.4-.3 0-.6-.1-.8-.4-.2-.2-.3-.5-.3-.8 0-.3.1-.6.3-.8.2-.2.5-.3.8-.3.3 0 .6.1.8.3.2.3.3.5.3.8m4.8 0c0 .3-.1.6-.3.8-.2.2-.5.4-.8.4-.3 0-.6-.1-.9-.4-.2-.2-.3-.5-.3-.8 0-.3.1-.6.3-.8.2-.2.5-.3.9-.3.3 0 .6.1.8.3.2.3.3.5.3.8m4.4 0c0 .3-.1.6-.4.8-.2.2-.5.4-.8.4s-.6-.1-.8-.4c-.2-.2-.4-.5-.4-.8 0-.3.1-.6.4-.8.2-.2.5-.3.8-.3s.6.1.8.3c.2.3.4.5.4.8m-51.2-20.3c-.5 0-1 .2-1.4.6-.4.4-.5.8-.5 1.4v9.8c0 .6.2 1 .5 1.4.4.4.9.5 1.4.5h53.5c.6 0 1-.2 1.4-.5.4-.4.5-.8.5-1.4v-9.8c0-.6-.2-1-.5-1.4-.4-.4-.9-.6-1.4-.6h-53.5m7.3 5.1v3.5c0 .3-.1.5-.4.5h-3.5c-.3 0-.4-.1-.4-.5v-3.5c0-.3.1-.4.4-.4h3.5c.2.1.4.2.4.4m39.2-1.2c.2.2.3.5.3.8s-.1.6-.3.8c-.2.2-.5.3-.8.3-.3 0-.6-.1-.9-.3-.2-.2-.3-.5-.3-.8s.1-.6.3-.8c.2-.2.5-.3.9-.3.3-.1.6.1.8.3m4.7.8c0 .3-.1.6-.4.8-.2.2-.5.3-.8.3s-.6-.1-.8-.3c-.2-.2-.4-.5-.4-.8 0-.3.1-.6.4-.8.2-.2.5-.3.8-.3s.6.1.8.3c.2.2.4.5.4.8m-9.2 0c0 .3-.1.6-.3.8-.2.2-.5.3-.8.3-.3 0-.6-.1-.8-.3-.2-.2-.3-.5-.3-.8s.1-.6.3-.8c.2-.2.5-.3.8-.3.3 0 .6.1.8.3.2.2.3.5.3.8m-43.5-19.7c-.4.4-.5.8-.5 1.4v9.8c0 .5.2 1 .5 1.4.4.4.9.6 1.4.6h53.6c.5 0 1-.2 1.4-.6.4-.4.5-.8.5-1.4v-9.8c0-.6-.2-1-.5-1.4-.4-.4-.9-.6-1.4-.6h-53.6c-.5-.1-.9.1-1.4.6m8.8 8c0 .3-.1.4-.4.4h-3.5c-.3 0-.4-.1-.4-.4v-3.5c0-.3.1-.4.4-.4h3.5c.3 0 .4.1.4.4v3.5m34.7-4c0 .3-.1.6-.3.8-.2.2-.5.4-.8.4-.3 0-.6-.1-.8-.4-.2-.2-.3-.5-.3-.8 0-.3.1-.6.3-.8.2-.2.5-.4.8-.4.3 0 .6.1.8.4.2.2.3.5.3.8m9.2 0c0 .3-.1.6-.4.8-.2.2-.5.4-.8.4s-.6-.1-.8-.4c-.2-.2-.4-.5-.4-.8 0-.3.1-.6.4-.8.2-.2.5-.4.8-.4s.6.1.8.4c.2.2.4.5.4.8m-4.4 0c0 .3-.1.6-.3.8-.2.2-.5.4-.8.4-.3 0-.6-.1-.9-.4-.2-.2-.3-.5-.3-.8 0-.3.1-.6.3-.8.2-.2.5-.4.9-.4.3 0 .6.1.8.4.2.2.3.5.3.8m-56.6-17.8c-.8-.8-1.7-1.2-2.8-1.2h-105.4c-1.1 0-2 .4-2.8 1.2-.8.8-1.2 1.7-1.2 2.8v19.3c0 1.1.4 2 1.2 2.8s1.7 1.2 2.8 1.2h105.4c1.1 0 2-.4 2.8-1.2.7-.8 1.1-1.7 1.1-2.8v-19.3c0-1.1-.4-2-1.1-2.8m-9.8 5.8c.6 0 1.2.2 1.6.7.5.5.7 1 .7 1.6 0 .6-.2 1.2-.7 1.6-.4.4-1 .6-1.6.6s-1.2-.2-1.6-.6c-.5-.4-.7-1-.7-1.6 0-.6.2-1.2.7-1.6.4-.4 1-.7 1.6-.7m-6.3 2.3c0 .6-.2 1.2-.6 1.6-.4.4-1 .6-1.6.6s-1.2-.2-1.6-.6c-.4-.4-.7-1-.7-1.6 0-.6.2-1.2.7-1.6.5-.4 1-.7 1.6-.7s1.2.2 1.6.7c.4.5.6 1 .6 1.6m-11.6-2.3c.7 0 1.2.2 1.7.7.4.5.6 1 .6 1.6 0 .6-.2 1.2-.6 1.6-.5.4-1 .6-1.7.6s-1.2-.2-1.6-.6c-.4-.4-.7-1-.7-1.6 0-.6.2-1.2.7-1.6.4-.4 1-.7 1.6-.7m-66.2 3.2v6.8c0 .6-.3.8-.8.8h-6.8c-.6 0-.9-.3-.9-.8v-6.8c0-.2.1-.4.2-.5.2-.2.4-.2.6-.2h6.8c.2 0 .4.1.6.2.3.1.3.3.3.5m102.2-11c-.4.4-.5.9-.5 1.4v9.8c0 .6.2 1 .5 1.4.4.4.9.6 1.4.6h53.6c.5 0 1-.2 1.4-.6.4-.4.5-.8.5-1.4v-9.8c0-.5-.2-1-.5-1.4-.4-.4-.8-.5-1.4-.5h-53.6c-.5 0-.9.2-1.4.5m8.8 4.6v3.5c0 .3-.1.4-.4.4h-3.5c-.3 0-.4-.1-.4-.4v-3.5c0-.3.1-.5.4-.5h3.5c.2.1.4.2.4.5m43.5-1.3c.2.2.4.5.4.8 0 .3-.1.6-.4.9-.2.2-.5.3-.8.3s-.6-.1-.8-.3c-.2-.2-.4-.5-.4-.9 0-.3.1-.6.4-.8.2-.2.5-.3.8-.3s.6.1.8.3m-4 .8c0 .3-.1.6-.3.9-.2.2-.5.3-.8.3-.3 0-.6-.1-.9-.3-.2-.2-.3-.5-.3-.9 0-.3.1-.6.3-.8.2-.2.5-.3.9-.3.3 0 .6.1.8.3.2.3.3.5.3.8m-4.8 0c0 .3-.1.6-.3.9-.2.2-.5.3-.8.3-.3 0-.6-.1-.8-.3-.2-.2-.3-.5-.3-.9 0-.3.1-.6.3-.8.2-.2.5-.3.8-.3.3 0 .6.1.8.3.2.3.3.5.3.8m-160-34c-1.1 0-2 .4-2.8 1.2s-1.2 1.7-1.2 2.8v19.3c0 1.1.4 2 1.2 2.8.8.8 1.7 1.1 2.8 1.1h105.4c1.1 0 2-.4 2.8-1.1.7-.8 1.1-1.7 1.1-2.8v-19.3c0-1.1-.4-2-1.1-2.8-.8-.8-1.7-1.2-2.8-1.2h-105.4m88.2 7.6c.5-.4 1-.6 1.6-.6s1.2.2 1.6.6c.4.5.6 1 .6 1.7 0 .6-.2 1.2-.6 1.6-.4.4-1 .7-1.6.7s-1.2-.2-1.6-.7c-.4-.4-.7-1-.7-1.6s.3-1.2.7-1.7m-9.3 0c.4-.4 1-.6 1.6-.6.7 0 1.2.2 1.7.6.4.5.6 1 .6 1.7s-.2 1.2-.6 1.6c-.5.4-1 .7-1.7.7s-1.2-.2-1.6-.7c-.4-.4-.7-1-.7-1.6s.3-1.2.7-1.7m17.9 0c.4-.4 1-.6 1.6-.6s1.2.2 1.6.6c.5.5.7 1 .7 1.7s-.2 1.2-.7 1.6c-.4.4-1 .7-1.6.7s-1.2-.2-1.6-.7c-.5-.4-.7-1-.7-1.6 0-.7.2-1.2.7-1.7m-82.5 2.6v6.8c0 .2-.1.4-.2.6-.2.2-.4.2-.6.2h-6.8c-.2 0-.4-.1-.6-.2-.2-.2-.3-.4-.2-.6v-6.8c0-.2.1-.4.2-.6.2-.2.4-.2.6-.2h6.8c.2 0 .4.1.6.2.2.1.2.3.2.6z"/><path fill="#666" d="M7.8 87.9V90h4.3v-2.1c0-.3-.1-.4-.4-.4H8.1c-.2-.1-.3.1-.3.4m3.8-27.5c.3 0 .4-.2.4-.5v-3.4c0-.3-.1-.4-.4-.4H8.1c-.3 0-.4.1-.4.4V60c0 .3.1.5.4.5h3.5m72.8 25.2c.5 0 .8-.3.8-.8v-6.8c0-.5-.3-.8-.8-.8h-6.8c-.6 0-.8.3-.8.8v6.8c0 .6.3.8.8.8h6.8m.6-61.8c.2-.2.2-.4.2-.6v-6.8c0-.2-.1-.4-.2-.6-.1-.2-.3-.2-.6-.2h-6.8c-.2 0-.4.1-.6.2-.2.2-.2.4-.2.6v6.8c0 .6.3.9.8.9h6.8c.3-.1.5-.1.6-.3m110.8 52.2c.3 0 .4-.2.4-.5v-3.4c0-.3-.1-.4-.4-.4h-3.4c-.3 0-.4.1-.4.4v3.4c0 .3.1.5.4.5h3.4m0-31.4c.3 0 .4-.1.4-.4v-3.5c0-.3-.1-.4-.4-.4h-3.4c-.3 0-.4.1-.4.4v3.5c0 .3.1.4.4.4h3.4m58.8 43.2V90h4.3v-2.1c0-.3-.1-.4-.4-.4h-3.4c-.3-.1-.5.1-.5.4m3.9-27.5c.3 0 .4-.2.4-.5v-3.4c0-.3-.1-.4-.4-.4h-3.4c-.3 0-.4.1-.4.4V60c0 .3.1.5.4.5h3.4m72.8 25.2c.5 0 .8-.3.8-.8v-6.8c0-.5-.3-.8-.8-.8h-6.8c-.2 0-.4.1-.6.2-.2.1-.2.3-.2.6v6.8c0 .6.3.8.9.8h6.7m.6-61.8c.2-.2.2-.4.2-.6v-6.8c0-.2-.1-.4-.2-.6-.1-.2-.3-.2-.6-.2h-6.8c-.2 0-.4.1-.6.2-.2.2-.2.4-.2.6v6.8c0 .2.1.4.2.6.2.2.4.2.6.2h6.8c.2 0 .4 0 .6-.2m110.7 52.2c.3 0 .4-.2.4-.5v-3.4c0-.3-.1-.4-.4-.4h-3.5c-.3 0-.4.1-.4.4v3.4c0 .3.1.5.4.5h3.5m0-31.4c.3 0 .4-.1.4-.4v-3.5c0-.3-.1-.4-.4-.4h-3.5c-.3 0-.4.1-.4.4v3.5c0 .3.1.4.4.4h3.5m58.9 43.2V90h4.3v-2.1c0-.3-.1-.4-.4-.4h-3.5c-.3-.1-.4.1-.4.4m3.9-27.5c.3 0 .4-.2.4-.5v-3.4c0-.3-.1-.4-.4-.4h-3.5c-.3 0-.4.1-.4.4V60c0 .3.1.5.4.5h3.5m72.8-5.6c.6 0 .8-.3.8-.9v-6.8c0-.2-.1-.4-.2-.5-.2-.2-.4-.2-.6-.2h-6.8c-.2 0-.4.1-.6.2-.2.1-.2.3-.2.5V54c0 .6.3.9.8.9h6.8m107.4 20.7c0 .3.1.5.4.5h3.5c.3 0 .4-.2.4-.5v-3.4c0-.3-.1-.4-.4-.4H686c-.3 0-.4.1-.4.4v3.4m3.9-30.9c.3 0 .4-.1.4-.4v-3.5c0-.3-.1-.4-.4-.4H686c-.3 0-.4.1-.4.4v3.5c0 .3.1.4.4.4h3.5z"/><path fill="#999" d="M399.95 48.05c.4-.4.7-1 .7-1.6 0-.6-.2-1.2-.7-1.6-.4-.4-1-.7-1.6-.7-.6 0-1.2.2-1.6.7-.4.5-.6 1-.6 1.6 0 .6.2 1.2.6 1.6.4.4 1 .6 1.6.6.6 0 1.1-.2 1.6-.6m9.3 0c.4-.4.7-1 .7-1.6 0-.6-.2-1.2-.7-1.6-.4-.4-1-.7-1.6-.7s-1.2.2-1.7.7c-.4.5-.6 1-.6 1.6 0 .6.2 1.2.6 1.6.5.4 1 .6 1.7.6s1.2-.2 1.6-.6m8.6 0c.5-.4.7-1 .7-1.6 0-.6-.2-1.2-.7-1.6-.4-.4-1-.7-1.6-.7-.6 0-1.2.2-1.6.7-.5.5-.7 1-.7 1.6 0 .6.2 1.2.7 1.6.4.4 1 .6 1.6.6.6 0 1.1-.2 1.6-.6m63.6 24.8c.3 0 .6-.1.8-.3.2-.2.4-.5.4-.8s-.1-.6-.4-.8c-.2-.2-.5-.3-.8-.3-.3 0-.6.1-.8.3-.2.2-.4.5-.4.8s.1.6.4.8c.2.2.5.3.8.3m-5.5-.3c.2.2.5.3.8.3.3 0 .6-.1.8-.3.2-.2.4-.5.4-.8s-.1-.6-.4-.8c-.2-.2-.5-.3-.8-.3-.3 0-.6.1-.8.3-.2.2-.3.5-.3.8s0 .6.3.8m10.7 0c.2-.2.3-.5.3-.8s-.1-.6-.3-.8c-.2-.2-.5-.3-.8-.3s-.6.1-.9.3c-.2.2-.3.5-.3.8s.1.6.3.8c.2.2.5.3.9.3s.5-.1.8-.3m-6-31.3c.2.2.5.3.8.3.3 0 .6-.1.8-.3s.4-.5.4-.9c0-.3-.1-.6-.4-.8s-.5-.3-.8-.3c-.3 0-.6.1-.8.3-.2.2-.4.5-.4.8 0 .4.1.7.4.9m-2.8-.9c0-.3-.1-.6-.4-.8-.2-.2-.5-.3-.8-.3-.3 0-.6.1-.8.3-.2.2-.3.5-.3.8 0 .3.1.6.3.9.2.2.5.3.8.3.3 0 .6-.1.8-.3.3-.2.4-.5.4-.9m8.8.9c.2-.2.3-.5.3-.9 0-.3-.1-.6-.3-.8-.2-.2-.5-.3-.8-.3s-.6.1-.9.3c-.2.2-.3.5-.3.8 0 .3.1.6.3.9.2.2.5.3.9.3s.5-.1.8-.3m-253.3 30.5c0 .3.1.6.4.8.2.2.5.3.8.3.3 0 .6-.1.9-.3.2-.2.4-.5.4-.8s-.1-.6-.4-.8c-.2-.2-.5-.3-.9-.3-.3 0-.6.1-.8.3-.2.2-.4.5-.4.8m-2.3 0c0-.3-.1-.6-.4-.8-.2-.2-.5-.3-.8-.3-.3 0-.6.1-.8.3-.2.2-.4.5-.4.8 0 .3.1.6.4.8.2.2.5.3.8.3.3 0 .6-.1.8-.3.2-.2.4-.5.4-.8m8.7.8c.2-.2.4-.5.4-.8 0-.3-.1-.6-.4-.8-.2-.2-.5-.3-.8-.3-.3 0-.6.1-.8.3-.2.2-.4.5-.4.8s.1.6.4.8c.2.2.5.3.8.3.3 0 .6-.1.8-.3m-5.2-31c.3 0 .6-.1.9-.3s.4-.5.4-.9c0-.3-.1-.6-.4-.8s-.5-.3-.9-.3c-.3 0-.6.1-.8.3s-.4.5-.4.8c0 .3.1.6.4.9s.5.3.8.3m5.6-1.2c0-.3-.1-.6-.4-.8s-.5-.3-.8-.3c-.3 0-.6.1-.8.3s-.4.5-.4.8c0 .3.1.6.4.9s.5.3.8.3c.3 0 .6-.1.8-.3s.4-.5.4-.9m-11.5 0c0 .3.1.6.4.9.2.2.5.3.8.3.3 0 .6-.1.8-.3.2-.2.4-.5.4-.9 0-.3-.1-.6-.4-.8-.2-.2-.5-.3-.8-.3-.3 0-.6.1-.8.3-.2.3-.4.5-.4.8m73.8 47.8c.2-.2.4-.5.4-.8 0-.3-.1-.6-.4-.8-.2-.2-.5-.3-.8-.3s-.6.1-.8.3c-.2.2-.4.5-.4.8 0 .3.1.6.4.8.2.2.5.4.8.4s.6-.1.8-.4m-4.3 0c.2-.2.3-.5.3-.8 0-.3-.1-.6-.3-.8-.2-.2-.5-.3-.8-.3-.3 0-.6.1-.8.3-.2.2-.4.5-.4.8 0 .3.1.6.4.8.2.2.5.4.8.4.3 0 .6-.1.8-.4m-4.8 0c.2-.2.3-.5.3-.8 0-.3-.1-.6-.3-.8-.2-.2-.5-.3-.8-.3-.3 0-.6.1-.8.3-.2.2-.4.5-.4.8 0 .3.1.6.4.8.2.2.5.4.8.4.3 0 .6-.1.8-.4m9.1-31.3c.2-.2.4-.5.4-.8 0-.3-.1-.6-.4-.8-.2-.2-.5-.4-.8-.4s-.6.1-.8.4c-.2.2-.4.5-.4.8 0 .3.1.6.4.8.2.2.5.4.8.4s.6-.1.8-.4m-9.1 0c.2-.2.3-.5.3-.8 0-.3-.1-.6-.3-.8-.2-.2-.5-.4-.8-.4-.3 0-.6.1-.8.4-.2.2-.4.5-.4.8 0 .3.1.6.4.8.2.2.5.4.8.4.3 0 .6-.1.8-.4m4.8 0c.2-.2.3-.5.3-.8 0-.3-.1-.6-.3-.8-.2-.2-.5-.4-.8-.4-.3 0-.6.1-.8.4-.2.2-.4.5-.4.8 0 .3.1.6.4.8.2.2.5.4.8.4.3 0 .6-.1.8-.4m-242.6 31.3c.2-.2.4-.5.4-.8 0-.3-.1-.6-.4-.8-.2-.2-.5-.3-.8-.3s-.6.1-.8.3c-.2.2-.4.5-.4.8 0 .3.1.6.4.8.2.2.5.4.8.4s.6-.1.8-.4m-4.3 0c.2-.2.3-.5.3-.8 0-.3-.1-.6-.3-.8-.2-.2-.5-.3-.8-.3-.3 0-.6.1-.8.3-.2.2-.4.5-.4.8 0 .3.1.6.4.8.2.2.5.4.8.4.3 0 .6-.1.8-.4m0-31.3c.2-.2.3-.5.3-.8 0-.3-.1-.6-.3-.8-.2-.2-.5-.4-.8-.4-.3 0-.6.1-.8.4-.2.2-.4.5-.4.8 0 .3.1.6.4.8.2.2.5.4.8.4.3 0 .6-.1.8-.4m4.3 0c.2-.2.4-.5.4-.8 0-.3-.1-.6-.4-.8-.2-.2-.5-.4-.8-.4s-.6.1-.8.4c-.2.2-.4.5-.4.8 0 .3.1.6.4.8.2.2.5.4.8.4s.6-.1.8-.4m111.5 20.3c0 .6.2 1.2.7 1.6.4.5 1 .7 1.6.7s1.2-.2 1.6-.7c.5-.4.7-1 .7-1.6 0-.6-.2-1.2-.7-1.6-.4-.5-1-.7-1.6-.7s-1.2.2-1.6.7c-.5.5-.7 1-.7 1.6m-15.6-2.3c-.6 0-1.2.2-1.6.7-.5.4-.7 1-.7 1.6 0 .6.2 1.2.7 1.6.4.5 1 .7 1.6.7s1.2-.2 1.6-.7c.5-.4.7-1 .7-1.6 0-.6-.2-1.2-.7-1.6-.4-.4-1-.7-1.6-.7m9.3 0c-.6 0-1.2.2-1.6.7-.4.4-.6 1-.6 1.6 0 .6.2 1.2.6 1.6.4.5 1 .7 1.6.7.6 0 1.2-.2 1.6-.7.4-.4.6-1 .6-1.6 0-.6-.2-1.2-.6-1.6-.4-.4-1-.7-1.6-.7m-114.2 13.3c.2-.2.3-.5.3-.8 0-.3-.1-.6-.3-.8-.2-.2-.5-.3-.8-.3-.3 0-.6.1-.8.3-.2.2-.4.5-.4.8 0 .3.1.6.4.8.2.2.5.4.8.4.3 0 .6-.1.8-.4m0-31.3c.2-.2.3-.5.3-.8 0-.3-.1-.6-.3-.8-.2-.2-.5-.4-.8-.4-.3 0-.6.1-.8.4-.2.2-.4.5-.4.8 0 .3.1.6.4.8.2.2.5.4.8.4.3 0 .6-.1.8-.4m124.4-42.9c-.4-.4-1-.6-1.6-.6s-1.2.2-1.6.6c-.5.5-.7 1-.7 1.7s.2 1.2.7 1.6c.4.4 1 .7 1.6.7s1.2-.2 1.6-.7c.5-.4.7-1 .7-1.6s-.2-1.2-.7-1.7m-10.2-.7c-.6 0-1.2.2-1.6.6-.4.5-.6 1-.6 1.7s.2 1.2.6 1.6c.4.4 1 .7 1.6.7.6 0 1.2-.2 1.6-.7.4-.4.6-1 .6-1.6s-.2-1.2-.6-1.7c-.4-.3-.9-.6-1.6-.6m-9.3 0c-.6 0-1.2.2-1.6.6-.5.5-.7 1-.7 1.7s.2 1.2.7 1.6c.4.4 1 .7 1.6.7s1.2-.2 1.6-.7c.5-.4.7-1 .7-1.6s-.2-1.2-.7-1.7c-.4-.3-1-.6-1.6-.6m572.9 59.3c.2-.2.3-.5.3-.8s-.1-.6-.3-.8c-.2-.2-.5-.3-.8-.3-.3 0-.6.1-.8.3-.2.2-.3.5-.3.8s.1.6.3.8c.2.2.5.3.8.3.3 0 .6-.1.8-.3m9.1 0c.2-.2.4-.5.4-.8 0-.3-.1-.6-.4-.8-.2-.2-.5-.3-.8-.3s-.6.1-.8.3c-.2.2-.4.5-.4.8 0 .3.1.6.4.8.2.2.5.3.8.3s.6-.1.8-.3m-4.3 0c.2-.2.3-.5.3-.8s-.1-.6-.3-.8c-.2-.2-.5-.3-.8-.3-.3 0-.6.1-.9.3-.2.2-.3.5-.3.8s.1.6.3.8c.2.2.5.3.9.3.3 0 .6-.1.8-.3m-4.8-31.3c.2-.2.3-.5.3-.9 0-.3-.1-.6-.3-.8-.2-.2-.5-.3-.8-.3-.3 0-.6.1-.8.3-.2.2-.3.5-.3.8 0 .3.1.6.3.9.2.2.5.3.8.3.3 0 .6-.1.8-.3m4.8 0c.2-.2.3-.5.3-.9 0-.3-.1-.6-.3-.8-.2-.2-.5-.3-.8-.3-.3 0-.6.1-.9.3-.2.2-.3.5-.3.8 0 .3.1.6.3.9.2.2.5.3.9.3.3 0 .6-.1.8-.3m4.3 0c.2-.2.4-.5.4-.9 0-.3-.1-.6-.4-.8-.2-.2-.5-.3-.8-.3s-.6.1-.8.3c-.2.2-.4.5-.4.8 0 .3.1.6.4.9.2.2.5.3.8.3s.6-.1.8-.3m-186.1 46.1c0 .3.1.6.3.8.2.2.5.4.8.4s.6-.1.8-.4c.2-.2.3-.5.3-.8 0-.3-.1-.6-.3-.8-.2-.2-.5-.3-.8-.3s-.6.1-.8.3c-.2.3-.3.5-.3.8m-2 0c0-.3-.1-.6-.4-.8-.2-.2-.5-.3-.8-.3s-.6.1-.8.3c-.2.2-.4.5-.4.8 0 .3.1.6.4.8.2.2.5.4.8.4s.6-.1.8-.4c.2-.2.4-.4.4-.8m-5.1.8c.2-.2.4-.5.4-.8 0-.3-.1-.6-.4-.8-.2-.2-.5-.3-.8-.3-.3 0-.6.1-.8.3-.2.2-.4.5-.4.8 0 .3.1.6.4.8.2.2.5.4.8.4.3 0 .6-.1.8-.4m4.7-31.3c.2-.2.4-.5.4-.8 0-.3-.1-.6-.4-.8-.2-.2-.5-.4-.8-.4s-.6.1-.8.4c-.2.2-.4.5-.4.8 0 .3.1.6.4.8.2.2.5.4.8.4s.6-.1.8-.4m4.4 0c.2-.2.3-.5.3-.8 0-.3-.1-.6-.3-.8-.2-.2-.5-.4-.8-.4s-.6.1-.8.4c-.2.2-.3.5-.3.8 0 .3.1.6.3.8.2.2.5.4.8.4s.6-.1.8-.4m-9.1 0c.2-.2.4-.5.4-.8 0-.3-.1-.6-.4-.8s-.5-.4-.8-.4c-.3 0-.6.1-.8.4-.2.2-.4.5-.4.8 0 .3.1.6.4.8.2.2.5.4.8.4.3 0 .6-.1.8-.4m122.8 18c-.6 0-1.2.2-1.6.7-.5.4-.7 1-.7 1.6 0 .6.2 1.2.7 1.6.4.5 1 .7 1.6.7s1.2-.2 1.6-.7c.5-.4.7-1 .7-1.6 0-.6-.2-1.2-.7-1.6-.4-.4-1-.7-1.6-.7m-8.6 0c-.6 0-1.2.2-1.6.7-.4.4-.7 1-.7 1.6 0 .6.2 1.2.7 1.6.5.5 1 .7 1.6.7s1.2-.2 1.6-.7c.4-.4.6-1 .6-1.6 0-.6-.2-1.2-.6-1.6-.4-.4-.9-.7-1.6-.7m-7.6.7c-.5-.5-1-.7-1.7-.7s-1.2.2-1.6.7c-.4.4-.7 1-.7 1.6 0 .6.2 1.2.7 1.6.4.5 1 .7 1.6.7s1.2-.2 1.7-.7c.4-.4.6-1 .6-1.6 0-.6-.2-1.1-.6-1.6m16.2-62.3c-.6 0-1.2.2-1.6.6-.5.5-.7 1-.7 1.7 0 .6.2 1.2.7 1.6.4.4 1 .7 1.6.7s1.2-.2 1.6-.7c.5-.4.7-1 .7-1.6s-.2-1.2-.7-1.7c-.4-.3-1-.6-1.6-.6m-8.6 0c-.6 0-1.2.2-1.6.6-.4.5-.7 1-.7 1.7s.2 1.2.7 1.6c.5.4 1 .7 1.6.7s1.2-.2 1.6-.7c.4-.4.6-1 .6-1.6 0-.6-.2-1.2-.6-1.7-.4-.3-.9-.6-1.6-.6m-9.3 0c-.6 0-1.2.2-1.6.6-.4.5-.7 1-.7 1.7s.2 1.2.7 1.6c.4.4 1 .7 1.6.7s1.2-.2 1.7-.7c.4-.4.6-1 .6-1.6s-.2-1.2-.6-1.7c-.5-.3-1-.6-1.7-.6z"/><path fill="#F1F1F1" d="M417.85 78.85c.5-.4.7-1 .7-1.6 0-.6-.2-1.2-.7-1.6-.4-.5-1-.7-1.6-.7-.6 0-1.2.2-1.6.7-.5.4-.7 1-.7 1.6 0 .6.2 1.2.7 1.6.4.5 1 .7 1.6.7.6 0 1.1-.3 1.6-.7m-19.5-4c-.6 0-1.2.2-1.6.7-.4.4-.6 1-.6 1.6 0 .6.2 1.2.6 1.6.4.5 1 .7 1.6.7.6 0 1.2-.2 1.6-.7.4-.4.7-1 .7-1.6 0-.6-.2-1.2-.7-1.6-.5-.4-1-.7-1.6-.7m9.3 0c-.6 0-1.2.2-1.7.7-.4.4-.6 1-.6 1.6 0 .6.2 1.2.6 1.6.5.5 1 .7 1.7.7s1.2-.2 1.6-.7c.4-.4.7-1 .7-1.6 0-.6-.2-1.2-.7-1.6-.4-.4-1-.7-1.6-.7m79 13.3c.2-.2.3-.5.3-.8 0-.3-.1-.6-.3-.8-.2-.2-.5-.3-.8-.3s-.6.1-.9.3c-.2.2-.3.5-.3.8 0 .3.1.6.3.8.2.2.5.4.9.4s.5-.1.8-.4m-5.2.4c.3 0 .6-.1.8-.4.2-.2.4-.5.4-.8 0-.3-.1-.6-.4-.8-.2-.2-.5-.3-.8-.3-.3 0-.6.1-.8.3-.2.2-.4.5-.4.8 0 .3.1.6.4.8.2.3.5.4.8.4m-5.5-.4c.2.2.5.4.8.4.3 0 .6-.1.8-.4.2-.2.4-.5.4-.8 0-.3-.1-.6-.4-.8-.2-.2-.5-.3-.8-.3-.3 0-.6.1-.8.3-.2.2-.3.5-.3.8-.1.4 0 .6.3.8m10.7-31.3c.2-.2.3-.5.3-.8 0-.3-.1-.6-.3-.8-.2-.2-.5-.4-.8-.4s-.6.1-.9.4c-.2.2-.3.5-.3.8 0 .3.1.6.3.8.2.2.5.4.9.4s.5-.1.8-.4m-5.2.4c.3 0 .6-.1.8-.4.2-.2.4-.5.4-.8 0-.3-.1-.6-.4-.8s-.5-.4-.8-.4c-.3 0-.6.1-.8.4-.2.2-.4.5-.4.8 0 .3.1.6.4.8.2.3.5.4.8.4m-3.6-1.2c0-.3-.1-.6-.4-.8-.2-.2-.5-.4-.8-.4-.3 0-.6.1-.8.4-.2.2-.3.5-.3.8 0 .3.1.6.3.8.2.2.5.4.8.4.3 0 .6-.1.8-.4.3-.2.4-.5.4-.8m-239.7 32.1c.2.2.5.4.8.4.3 0 .6-.1.8-.4.2-.2.4-.5.4-.8 0-.3-.1-.6-.4-.8-.2-.2-.5-.3-.8-.3-.3 0-.6.1-.8.3-.2.2-.4.5-.4.8 0 .4.1.6.4.8m-4.8-.8c0 .3.1.6.4.8.2.2.5.4.8.4.3 0 .6-.1.9-.4.2-.2.4-.5.4-.8 0-.3-.1-.6-.4-.8-.2-.2-.5-.3-.9-.3-.3 0-.6.1-.8.3-.2.3-.4.5-.4.8m-2.3 0c0-.3-.1-.6-.4-.8-.2-.2-.5-.3-.8-.3-.3 0-.6.1-.8.3-.2.2-.4.5-.4.8 0 .3.1.6.4.8.2.2.5.4.8.4.3 0 .6-.1.8-.4.2-.2.4-.4.4-.8m7.9-32.5c-.3 0-.6.1-.8.4s-.4.5-.4.8c0 .3.1.6.4.8.2.2.5.4.8.4.3 0 .6-.1.8-.4.2-.2.4-.5.4-.8 0-.3-.1-.6-.4-.8s-.5-.4-.8-.4m-3.6 2c.2-.2.4-.5.4-.8 0-.3-.1-.6-.4-.8s-.5-.4-.9-.4c-.3 0-.6.1-.8.4s-.4.5-.4.8c0 .3.1.6.4.8.2.2.5.4.8.4.4 0 .7-.1.9-.4m-6.7-.8c0 .3.1.6.4.8.2.2.5.4.8.4.3 0 .6-.1.8-.4.2-.2.4-.5.4-.8 0-.3-.1-.6-.4-.8-.2-.2-.5-.4-.8-.4-.3 0-.6.1-.8.4-.2.2-.4.5-.4.8m69.5 16.5c.2-.2.3-.5.3-.8 0-.3-.1-.6-.3-.8-.2-.2-.5-.3-.8-.3-.3 0-.6.1-.8.3-.2.2-.4.5-.4.8s.1.6.4.8c.2.2.5.3.8.3.3 0 .6-.1.8-.3m-4.8 0c.2-.2.3-.5.3-.8 0-.3-.1-.6-.3-.8-.2-.2-.5-.3-.8-.3-.3 0-.6.1-.8.3-.2.2-.4.5-.4.8s.1.6.4.8c.2.2.5.3.8.3.3 0 .6-.1.8-.3m9.1 0c.2-.2.4-.5.4-.8s-.1-.6-.4-.8c-.2-.2-.5-.3-.8-.3s-.6.1-.8.3c-.2.2-.4.5-.4.8s.1.6.4.8c.2.2.5.3.8.3s.6-.1.8-.3m-10.7-31.3c.2.2.5.3.8.3.3 0 .6-.1.8-.3.2-.2.3-.5.3-.9 0-.3-.1-.6-.3-.8-.2-.2-.5-.3-.8-.3-.3 0-.6.1-.8.3-.2.2-.4.5-.4.8 0 .4.2.7.4.9m4.8 0c.2.2.5.3.8.3.3 0 .6-.1.8-.3.2-.2.3-.5.3-.9 0-.3-.1-.6-.3-.8-.2-.2-.5-.3-.8-.3-.3 0-.6.1-.8.3-.2.2-.4.5-.4.8 0 .4.1.7.4.9m5.9 0c.2-.2.4-.5.4-.9 0-.3-.1-.6-.4-.8-.2-.2-.5-.3-.8-.3s-.6.1-.8.3c-.2.2-.4.5-.4.8 0 .3.1.6.4.9.2.2.5.3.8.3s.6-.1.8-.3m113.7-28c-.6 0-1.2.2-1.6.6-.5.5-.7 1-.7 1.7s.2 1.2.7 1.6c.4.4 1 .7 1.6.7.6 0 1.2-.2 1.6-.7.5-.4.7-1 .7-1.6s-.2-1.2-.7-1.7c-.4-.3-.9-.6-1.6-.6m-8.5 0c-.6 0-1.2.2-1.7.6-.4.5-.6 1-.6 1.7s.2 1.2.6 1.6c.5.4 1 .7 1.7.7s1.2-.2 1.6-.7c.4-.4.7-1 .7-1.6s-.2-1.2-.7-1.7c-.4-.3-1-.6-1.6-.6m-9.3 0c-.6 0-1.2.2-1.6.6-.4.5-.6 1-.6 1.7s.2 1.2.6 1.6c.4.4 1 .7 1.6.7.6 0 1.2-.2 1.6-.7.4-.4.7-1 .7-1.6s-.2-1.2-.7-1.7c-.4-.3-1-.6-1.6-.6m-342.8 59.3c.2-.2.4-.5.4-.8s-.1-.6-.4-.8c-.2-.2-.5-.3-.8-.3s-.6.1-.8.3c-.2.2-.4.5-.4.8s.1.6.4.8c.2.2.5.3.8.3s.6-.1.8-.3m-4.3 0c.2-.2.3-.5.3-.8s-.1-.6-.3-.8c-.2-.2-.5-.3-.8-.3-.3 0-.6.1-.8.3-.2.2-.4.5-.4.8s.1.6.4.8c.2.2.5.3.8.3.3 0 .6-.1.8-.3m0-31.3c.2-.2.3-.5.3-.9 0-.3-.1-.6-.3-.8-.2-.2-.5-.3-.8-.3-.3 0-.6.1-.8.3-.2.2-.4.5-.4.8 0 .3.1.6.4.9.2.2.5.3.8.3.3 0 .6-.1.8-.3m4.3 0c.2-.2.4-.5.4-.9 0-.3-.1-.6-.4-.8-.2-.2-.5-.3-.8-.3s-.6.1-.8.3c-.2.2-.4.5-.4.8 0 .3.1.6.4.9.2.2.5.3.8.3s.6-.1.8-.3m97.5 6.8c.5-.4.7-1 .7-1.6 0-.6-.2-1.2-.7-1.6-.4-.4-1-.7-1.6-.7s-1.2.2-1.6.7c-.5.5-.7 1-.7 1.6 0 .6.2 1.2.7 1.6.4.4 1 .6 1.6.6s1.2-.2 1.6-.6m9.3 0c.4-.4.6-1 .6-1.6 0-.6-.2-1.2-.6-1.6-.4-.4-1-.7-1.6-.7-.6 0-1.2.2-1.6.7-.4.5-.6 1-.6 1.6 0 .6.2 1.2.6 1.6.4.4 1 .6 1.6.6.6 0 1.2-.2 1.6-.6m8.6 0c.5-.4.7-1 .7-1.6 0-.6-.2-1.2-.7-1.6-.4-.4-1-.7-1.6-.7s-1.2.2-1.6.7c-.5.5-.7 1-.7 1.6 0 .6.2 1.2.7 1.6.4.4 1 .6 1.6.6s1.2-.2 1.6-.6m-124.4 24.5c.2-.2.3-.5.3-.8s-.1-.6-.3-.8c-.2-.2-.5-.3-.8-.3-.3 0-.6.1-.8.3-.2.2-.4.5-.4.8s.1.6.4.8c.2.2.5.3.8.3.3 0 .6-.1.8-.3m0-31.3c.2-.2.3-.5.3-.9 0-.3-.1-.6-.3-.8-.2-.2-.5-.3-.8-.3-.3 0-.6.1-.8.3-.2.2-.4.5-.4.8 0 .3.1.6.4.9.2.2.5.3.8.3.3 0 .6-.1.8-.3m686.9 46.9c.2-.2.4-.5.4-.8 0-.3-.1-.6-.4-.8-.2-.2-.5-.3-.8-.3s-.6.1-.8.3c-.2.2-.4.5-.4.8 0 .3.1.6.4.8.2.2.5.4.8.4s.6-.1.8-.4m-4.3 0c.2-.2.3-.5.3-.8 0-.3-.1-.6-.3-.8-.2-.2-.5-.3-.8-.3-.3 0-.6.1-.9.3-.2.2-.3.5-.3.8 0 .3.1.6.3.8.2.2.5.4.9.4.3 0 .6-.1.8-.4m-4.8 0c.2-.2.3-.5.3-.8 0-.3-.1-.6-.3-.8-.2-.2-.5-.3-.8-.3-.3 0-.6.1-.8.3-.2.2-.3.5-.3.8 0 .3.1.6.3.8.2.2.5.4.8.4.3 0 .6-.1.8-.4m4.8-31.3c.2-.2.3-.5.3-.8 0-.3-.1-.6-.3-.8-.2-.2-.5-.4-.8-.4-.3 0-.6.1-.9.4-.2.2-.3.5-.3.8 0 .3.1.6.3.8.2.2.5.4.9.4.3 0 .6-.1.8-.4m4.3 0c.2-.2.4-.5.4-.8 0-.3-.1-.6-.4-.8-.2-.2-.5-.4-.8-.4s-.6.1-.8.4c-.2.2-.4.5-.4.8 0 .3.1.6.4.8.2.2.5.4.8.4s.6-.1.8-.4m-9.1 0c.2-.2.3-.5.3-.8 0-.3-.1-.6-.3-.8-.2-.2-.5-.4-.8-.4-.3 0-.6.1-.8.4-.2.2-.3.5-.3.8 0 .3.1.6.3.8.2.2.5.4.8.4.3 0 .6-.1.8-.4m-184.1 15.7c.2-.2.4-.5.4-.8s-.1-.6-.4-.8c-.2-.2-.5-.3-.8-.3-.3 0-.6.1-.8.3-.2.2-.4.5-.4.8s.1.6.4.8c.2.2.5.3.8.3.3 0 .6-.1.8-.3m4.7 0c.2-.2.4-.5.4-.8s-.1-.6-.4-.8c-.2-.2-.5-.3-.8-.3s-.6.1-.8.3c-.2.2-.4.5-.4.8s.1.6.4.8c.2.2.5.3.8.3s.6-.1.8-.3m2.7-1.6c-.2.2-.3.5-.3.8s.1.6.3.8c.2.2.5.3.8.3s.6-.1.8-.3c.2-.2.3-.5.3-.8s-.1-.6-.3-.8c-.2-.2-.5-.3-.8-.3s-.5.1-.8.3m-7.4-29.7c.2-.2.4-.5.4-.9 0-.3-.1-.6-.4-.8s-.5-.3-.8-.3c-.3 0-.6.1-.8.3-.2.2-.4.5-.4.8 0 .3.1.6.4.9.2.2.5.3.8.3.3 0 .6-.1.8-.3m5.1-.9c0-.3-.1-.6-.4-.8-.2-.2-.5-.3-.8-.3s-.6.1-.8.3c-.2.2-.4.5-.4.8 0 .3.1.6.4.9.2.2.5.3.8.3s.6-.1.8-.3c.2-.2.4-.5.4-.9m4 .9c.2-.2.3-.5.3-.9 0-.3-.1-.6-.3-.8-.2-.2-.5-.3-.8-.3s-.6.1-.8.3c-.2.2-.3.5-.3.8 0 .3.1.6.3.9.2.2.5.3.8.3s.6-.1.8-.3m97.5 6.8c.4-.4.6-1 .6-1.6 0-.6-.2-1.2-.6-1.6-.4-.4-1-.7-1.7-.7-.6 0-1.2.2-1.6.7-.4.5-.7 1-.7 1.6 0 .6.2 1.2.7 1.6.4.4 1 .6 1.6.6s1.2-.2 1.7-.6m16.2.6c.6 0 1.2-.2 1.6-.6.5-.4.7-1 .7-1.6 0-.6-.2-1.2-.7-1.6-.4-.4-1-.7-1.6-.7s-1.2.2-1.6.7c-.5.5-.7 1-.7 1.6 0 .6.2 1.2.7 1.6.4.4 1 .6 1.6.6m-6.9-.6c.4-.4.6-1 .6-1.6 0-.6-.2-1.2-.6-1.6-.4-.4-1-.7-1.6-.7s-1.2.2-1.6.7c-.4.5-.7 1-.7 1.6 0 .6.2 1.2.7 1.6.5.4 1 .6 1.6.6s1.1-.2 1.6-.6z"/><path fill="#ccc" d="M439.15 87.45c-.3 0-.4.2-.4.5v2.1h4.3v-2.1c0-.3-.2-.5-.5-.5h-3.4m3.5-27c.3 0 .5-.1.5-.4v-3.5c0-.3-.2-.4-.5-.4h-3.5c-.3 0-.4.1-.4.4v3.5c0 .3.1.4.4.4h3.5m62.7 15.6c.3 0 .4-.1.4-.5v-3.5c0-.3-.1-.4-.4-.4h-3.5c-.3 0-.5.1-.5.4v3.5c0 .3.2.5.5.5h3.5m0-31.3c.3 0 .4-.1.4-.4v-3.5c0-.3-.1-.5-.4-.5h-3.5c-.3 0-.5.2-.5.5v3.5c0 .3.2.4.5.4h3.5m-246.8 31.3c.3 0 .4-.1.4-.5v-3.5c0-.3-.1-.4-.4-.4h-3.5c-.3 0-.4.1-.4.4v3.5c0 .3.1.5.4.5h3.5m0-31.3c.3 0 .4-.1.4-.4v-3.5c0-.3-.1-.5-.4-.5h-3.5c-.3 0-.4.2-.4.5v3.5c0 .3.1.4.4.4h3.5m72.7 10.2c.5 0 .8-.3.8-.8v-6.8c0-.5-.3-.8-.8-.8h-6.8c-.2 0-.4.1-.6.2-.2.1-.2.3-.2.5v6.8c0 .6.3.8.9.8h6.7m-246.8.1c.5 0 .8-.3.8-.8v-6.8c0-.5-.3-.8-.8-.8h-6.8c-.6 0-.9.3-.9.8v6.8c0 .6.3.8.9.8h6.8m107.8 32.5c-.3 0-.4.2-.4.5v2.1h4.3v-2.1c0-.3-.1-.5-.4-.5h-3.5m3.5-27c.3 0 .4-.1.4-.4v-3.5c0-.3-.1-.4-.4-.4h-3.5c-.3 0-.4.1-.4.4v3.5c0 .3.1.4.4.4h3.5m-184.1 15.6c.3 0 .4-.1.4-.5v-3.5c0-.3-.1-.4-.4-.4h-3.5c-.3 0-.4.1-.4.4v3.5c0 .3.1.5.4.5h3.5m0-31.3c.3 0 .4-.1.4-.4v-3.5c0-.3-.1-.5-.4-.5h-3.5c-.3 0-.4.2-.4.5v3.5c0 .3.1.4.4.4h3.5m558.8 40.1c0 .6.3.9.9.9h6.8c.6 0 .8-.3.8-.9v-6.8c0-.2-.1-.4-.2-.5-.2-.2-.4-.2-.6-.2h-6.8c-.2 0-.4.1-.6.2-.2.1-.3.3-.2.5v6.8m8.2-61c.2-.2.2-.4.2-.6v-6.8c0-.2-.1-.4-.2-.6-.2-.2-.4-.2-.6-.2h-6.8c-.2 0-.4.1-.6.2-.2.2-.3.4-.2.6v6.8c0 .2.1.4.2.6.2.2.4.2.6.2h6.8c.2.1.4 0 .6-.2m107.2 63.6c-.3 0-.4.2-.4.5v2.1h4.3v-2.1c0-.3-.1-.5-.4-.5h-3.5m3.5-27c.3 0 .4-.1.4-.4v-3.5c0-.3-.1-.4-.4-.4h-3.5c-.3 0-.4.1-.4.4v3.5c0 .3.1.4.4.4h3.5z"/></svg>