<svg xmlns="http://www.w3.org/2000/svg" viewBox="322.6 0 292.2 285" enable-background="new 322.6 0 292.2 285"><path fill="#E6E6E6" d="M577.6 86.1h29.9c4 0 7.3 4.4 7.3 9.8s-3.3 9.8-7.3 9.8h-29.9M577.6 135.8h29.9c4 0 7.3 4.4 7.3 9.8s-3.3 9.8-7.3 9.8h-29.9M577.6 185.5h29.9c4 0 7.3 4.4 7.3 9.8s-3.3 9.8-7.3 9.8h-29.9M410.8 37.8V7.4c0-4.1 4.3-7.4 9.6-7.4s9.6 3.3 9.6 7.4v30.4M459.6 37.8V7.4c0-4.1 4.3-7.4 9.6-7.4s9.6 3.3 9.6 7.4v30.4M508.4 37.8V7.4c0-4.1 4.3-7.4 9.6-7.4s9.6 3.3 9.6 7.4v30.4M430.1 247.2v30.4c0 4.1-4.3 7.4-9.6 7.4s-9.6-3.3-9.6-7.4v-30.4M478.9 247.2v30.4c0 4.1-4.3 7.4-9.6 7.4s-9.6-3.3-9.6-7.4v-30.4M527.7 247.2v30.4c0 4.1-4.3 7.4-9.6 7.4s-9.6-3.3-9.6-7.4v-30.4"/><path fill="#E6E6E6" d="M538.6 84.3c0-4.6-3.1-8.3-6.8-8.3H406.6c-3.7 0-6.8 3.7-6.8 8.3v117.5c0 4.6 3.1 8.3 6.8 8.3h125.2c3.7 0 6.8-3.7 6.8-8.3V84.3zm34.3 146.6c0 6.8-4.6 12.4-10.1 12.4H375.7c-5.6 0-10.1-5.6-10.1-12.4V55.3c0-6.8 4.6-12.4 10.1-12.4h187.1c5.6 0 10.1 5.6 10.1 12.4v175.6zM440.9 98.6h56.6V109c0 13.5-8 25.2-19.5 30.6-1.1.5-1.8 1.6-1.8 2.9 0 1.3.7 2.3 1.8 2.9 11.5 5.4 19.5 17.1 19.5 30.6v10.4h-56.6V176c0-13.5 8-25.2 19.5-30.6 1.1-.5 1.8-1.6 1.8-2.9s-.7-2.3-1.8-2.9c-11.5-5.4-19.5-17.1-19.5-30.6V98.6zm7.3 7.3h42.1v3.2c0 5.6-1.8 11-5 15.4h-32c-3.2-4.4-5-9.8-5-15.4v-3.2h-.1zm21 39.2c.8 3 2.8 5.5 5.7 6.8 9.3 4.3 15.4 13.7 15.4 24v3.2h-1.7l-14.8-9.2c-2.9-1.8-6.2-1.8-9.1 0l-14.8 9.2h-1.7V176c0-10.3 6.1-19.7 15.4-24 2.8-1.4 4.9-3.9 5.6-6.9zM438.8 185.6h60.8c2.7 0 4.8 2.2 4.8 4.8v.7c0 2.7-2.2 4.8-4.8 4.8h-60.8c-2.7 0-4.8-2.2-4.8-4.8v-.7c0-2.6 2.1-4.8 4.8-4.8zm0-96.5h60.8c2.7 0 4.8 2.2 4.8 4.8v.7c0 2.7-2.2 4.8-4.8 4.8h-60.8c-2.7 0-4.8-2.2-4.8-4.8v-.7c0-2.7 2.1-4.8 4.8-4.8zM359.7 205.1h-29.9c-4 0-7.3-4.4-7.3-9.8s3.3-9.8 7.3-9.8h29.9M359.7 155.4h-29.9c-4 0-7.3-4.4-7.3-9.8s3.3-9.8 7.3-9.8h29.9M359.7 105.7h-29.9c-4 0-7.3-4.4-7.3-9.8s3.3-9.8 7.3-9.8h29.9"/></svg>