<svg xmlns="http://www.w3.org/2000/svg" xmlns:xlink="http://www.w3.org/1999/xlink" preserveAspectRatio="none" width="200" height="200" viewBox="0 0 200 200"><defs><g id="a"><path fill="#ccc" d="M604.1 508.3h-13.15v26.65h13.15V508.3m4.1 26.65h13.2V508.3h-13.2v26.65m-57.5-20.55h-9.45q4.522 4.194 9.45 7.7v-7.7m0-5.95V496.3h-11.15v12.15h11.15m16.2 5.95h-11.15v11.1q.905.562 1.8 1.1h9.35v-12.2m-11.15-18.1v12.15h11.15V496.3h-11.15m50.4-20.7q-4.4 0-7.5 3.1-3.1 3.1-3.1 7.5t3.1 7.55q3.1 3.1 7.5 3.1 4.45 0 7.55-3.1 3.1-3.1 3.1-7.55 0-4.4-3.1-7.5-3.15-3.1-7.55-3.1m-1.4 4.05q0-.5.45-.9.45-.35 1-.35t1 .35q.45.4.45.9v5.95h7.3q.95 0 .95.95 0 .9-.95.9h-8.75l-.55-.05q-.9-.25-.9-1.2v-6.55m14.95-47.4v-23.1h-27.05v23.1h27.05M609.2 411q3.45 1.15 3.7 4.55.4 5.2.95 6.3.75 1.4 1.7 2.2.75.55.75.85v1.8q0 .4-.25.65t-.65.25h-18.45q-.35 0-.65-.25-.25-.25-.25-.65v-1.8q0-.3.7-.85 1-.8 1.75-2.2.55-1.1.95-6.3.25-3.4 3.7-4.55 3.05-1 6.05 0m-9.5 19.45q-.85-.65-1.1-1.7h6.15q-.25 1-1.1 1.7-.85.65-1.95.65t-2-.65m34.65-74.7q-.532-.137-1.1-.3 1.075.338 2.1.7l-1-.4m53.2 43.4q-6.272-11.107-15.5-20.3-13-13.05-29.9-20.2-.137-.058-.3-.15l-3.25-1.2q4.43 1.763 8.75 3.95v.05q-14.4-4.85-29.75-4.85-19.1 0-36.55 7.4-16.9 7.1-29.9 20.1-13 13-20.1 29.9-7.4 17.45-7.4 36.55 0 17.075 5.7 32.45v-40.5h55.85v11.85h3.25v-45.05h-3.2v-6.65l19.55-9.05V369.6h2.75v2.3q5.25-1.4 9.1-.75 2.55.45 6.2 2.4 4.2 2.25 6.5 2.95 4.09 1.254 9.3 1 .397-.022.8-.05-.166.13-.35.25l48.45 21.45m-25.9 115.25v6.65q3.366-2.484 6.5-5.35.752-.623 1.45-1.3h-7.95m-8.3 12.2q1.658-.97 3.25-2v-10.2h-11.15v12.2h7.9m3.25-18.15V496.3h-11.15v12.15h11.15m16.2 0V496.3h-11.15v12.15h11.15m5.95-17.65v-4.3h-35.7v-7.4l-36.9-28.1-36.85 28.1v7.4h-38.55q1.3 3.025 2.8 5.95v-1.65h39.3V533q.99.535 2 1.05l-.25-.05q-.88-.303-1.75-.65v.5q1.555.58 3.1 1.1h1.2V486.5h-3.55v-5.35l32.55-24.65 32.6 24.65v5.35h-3.55v48.35q2.136-.69 4.25-1.5V490.8h39.3z"/><path fill="#999" d="M572.85 533.35q.87.347 1.75.65l.25.05q-1.01-.515-2-1.05v.35z"/></g><path d="M555.75 514.4h11.15v12.2h-9.35q5.407 3.178 11.25 5.65 2.013.85 4.05 1.6V490.8h-39.3v15.5q2.514 2.964 5.3 5.75 1.198 1.198 2.4 2.35h9.45v7.7q2.47 1.796 5.05 3.4v-11.1m11.15-5.95h-11.15V496.3h11.15v12.15m-16.2-12.15v12.15h-11.15V496.3h11.15m22.9-15.15v5.35h3.55v48.45h-1.2q14.24 4.7 29.5 4.7 15.39 0 29.75-4.8V486.5h3.55v-5.35l-32.6-24.65-32.55 24.65m25.05-2.45q3.1-3.1 7.5-3.1t7.55 3.1q3.1 3.1 3.1 7.5 0 4.45-3.1 7.55-3.1 3.1-7.55 3.1-4.4 0-7.5-3.1-3.1-3.15-3.1-7.55t3.1-7.5m22.75 56.25h-13.2V508.3h13.2v26.65m-17.3 0h-13.15V508.3h13.15v26.65m1.1-56.2q-.45.4-.45.9v6.55q0 .95.9 1.2l.55.05h8.75q.95 0 .95-.9 0-.95-.95-.95h-7.3v-5.95q0-.5-.45-.9-.45-.35-1-.35t-1 .35m64.4 35.65q1.254-1.15 2.45-2.35 3.57-3.57 6.7-7.45v-13.8h-39.3v42.55q1.355-.533 2.7-1.1 5.846-2.473 11.2-5.65h-7.9v-12.2h11.15v10.2q2.58-1.678 5.05-3.55v-6.65h7.95m3.2-18.1v12.15h-11.15V496.3h11.15m-16.2 0v12.15h-11.15V496.3h11.15m26.4-9.8v-44.15h-55.85v11.85h-3.3v-45.05h3.25v-6.65l-19.55-9.05V386q2.1-1.5 5.35-1.6 3.2-.05 5.75 1.35 5.05 2.75 11.1-.75.35-.2 9.7-7.55-5.7.4-10.1-.95-2.3-.7-6.5-2.95-3.65-1.95-6.2-2.4-3.85-.65-9.1.75v-2.3h-2.75v23.85l-19.55 9.05v6.65h3.2v45.05h-3.25v-11.85h-55.85v44.15h39.95v-7.4l36.85-28.1 36.9 28.1v7.4H683m-63.3-77.35v23.1h-27.05v-23.1h27.05m-21.1 19.6q.25 1.05 1.1 1.7.9.65 2 .65t1.95-.65q.85-.7 1.1-1.7h-6.15m14.3-13.2q-.25-3.4-3.7-4.55-3-1-6.05 0-3.45 1.15-3.7 4.55-.4 5.2-.95 6.3-.75 1.4-1.75 2.2-.7.55-.7.85v1.8q0 .4.25.65.3.25.65.25h18.45q.4 0 .65-.25t.25-.65v-1.8q0-.3-.75-.85-.95-.8-1.7-2.2-.55-1.1-.95-6.3z" id="b"/><path fill="#999" d="M605.45 351.25h-.25q-16.552.042-31.9 5.6l-.15.05q-2.262.8-4.5 1.75-16.9 7.1-29.9 20.1-13 13-20.1 29.85-.95 2.24-1.75 4.5l-.05.15q-5.55 15.37-5.6 31.9v.3q0 11.797 2.8 22.95.462 1.853 1 3.65l2.6 7.55.2.5q4.266 10.526 11.25 20.15 2.146 2.955 4.45 5.7v-13.5q-1.5-2.925-2.8-5.95h-1.4v-3.65q-5.7-15.375-5.7-32.45 0-19.1 7.4-36.55 7.1-16.9 20.1-29.9 13-13 29.9-20.1 17.45-7.4 36.55-7.4 15.35 0 29.75 4.85v-.05q-4.32-2.187-8.75-3.95l-1.1-.4q-.675-.23-1.35-.5l-.8-.25q-1.025-.362-2.1-.7.568.163 1.1.3-13.952-4.5-28.9-4.5z" id="c"/><path fill="#B3B3B3" d="M699.65 445.45q0-19.15-7.4-36.7-2.094-4.95-4.7-9.6L639.1 377.7q-9.006 7.104-9.35 7.3-6.05 3.5-11.1.75-2.55-1.4-5.75-1.35-3.25.1-5.35 1.6v7.45l19.55 9.05v6.65h-3.25v45.05h3.3v-11.85H683v44.15h-4.25v18.1q8.306-10.223 13.5-22.5 7.4-17.5 7.4-36.65z" id="d"/></defs><use xlink:href="#a" transform="translate(-504.95 -345.5)"/><use xlink:href="#b" transform="translate(-504.95 -345.5)"/><use xlink:href="#c" transform="translate(-504.95 -345.5)"/><use xlink:href="#d" transform="translate(-504.95 -345.5)"/></svg>