<svg xmlns="http://www.w3.org/2000/svg" xmlns:xlink="http://www.w3.org/1999/xlink" preserveAspectRatio="none" width="200" height="200" viewBox="0 0 200 200"><defs><path fill="#f00" d="M129.65 10.4l-.25-.1q-.375-.125-.7-.25.48.184.95.35z" id="a"/><path fill="#ccc" d="M408.45 688.35l-8.35-1.15v10.55l8.35.85v-10.25m13.05 17.6l-8.35-.65v10.05l8.35.35v-9.75m31.55-2.45v-6.25l-16.7 2.55v5.7l16.7-2m0 12.05v-6.2l-16.7 1.5v5.7l16.7-1m-57.6-11.7l-8.35-.65v11l8.35.35v-10.7m4.65.4v10.55l8.35.35V704.9l-8.35-.65m-4.65-17.7l-8.35-1.1v11l8.35.8v-10.7m-8.35-7.9l8.35 1.35v-10.7l-8.35-1.65v11m8.35-26.65l-8.35-2.15v11l8.35 1.85V652m-8.35-19.9v11l8.35 2.3v-10.7l-8.35-2.6m8.35-14.7l-8.35-3.1v11l8.35 2.8v-10.7m0-17.3l-8.35-3.55v11l8.35 3.25v-10.7m13 48.85V638.7l-8.35-2.55v10.5l8.35 2.3m44.6 42.45v-6.2l-16.7 3.55v5.7l16.7-3.05m4.15-31.75l-6.9 2.15v3.7l6.5-2.05 26.45 15.1v22.2q.96-.91 1.9-1.85.786-.786 1.55-1.6v-20.75l-29.5-16.9m-20.85 18v5.7l16.7-4v-6.25l-16.7 4.55m-14.85 12.5l-8.35-1.15v10.05l8.35.85v-9.75m-13.05-8.1V671.8l-8.35-1.6v10.5l8.35 1.35m4.7.75l8.35 1.3v-9.75l-8.35-1.65v10.1m-4.7-17.3v-10.25l-8.35-2.1v10.55l8.35 1.8m13.05-6.95l-8.35-2.1v10.05l8.35 1.8v-9.75m-13.05-26.15v-10.25l-8.35-3.05v10.55l8.35 2.75m13.05 10.35l-8.35-2.6v10.1l8.35 2.25v-9.75m0-15.8l-8.35-3.05v10.05l8.35 2.8v-9.8m-13.05-11.1V605.6l-8.35-3.55v10.55l8.35 3.25m13.05-4.7l-8.35-3.55v10.1l8.35 3.25v-9.8m0-6v-9.8l-8.35-4v10.05l8.35 3.75m-13.05-16.05l-8.35-4.05v10.55l8.35 3.7v-10.2m-13-6.3l-8.35-4.05v11l8.35 3.75v-10.7m-1.35-32.1q-13.668 5.76-24.8 15.4-2.595 2.245-5.05 4.7-13 13-20.15 29.9-7.35 17.45-7.35 36.55 0 26.95 14.2 49.7.2.32.4.65v-98l30.55-21.65 44.8 22.8v.25l28.1 12.5 23.5-14.2.25.2 29.4 12.95q-1.163-3.443-2.6-6.85-3.37-7.965-8.05-15.1-5.098-7.696-11.75-14.4l-.4-.4q-13.05-13.05-29.95-20.2-.137-.058-.3-.15l-3-1.05q4.345 1.68 8.55 3.8l-.05.05q-14.4-4.85-29.75-4.85-19.1 0-36.55 7.4z" id="b"/><path fill="#999" d="M386.35 543.7l-.15.05q-2.26.8-4.5 1.75-16.85 7.1-29.85 20.1-13 13-20.1 29.85-.95 2.24-1.75 4.5l-.05.15q-5.55 15.37-5.6 31.9v.3q0 11.797 2.8 22.95.462 1.853 1 3.65l2.6 7.55.2.5q4.266 10.526 11.25 20.15 4.26 5.882 9.15 10.9v-10.4q-.2-.33-.4-.65-14.2-22.75-14.2-49.7 0-19.1 7.35-36.55 7.15-16.9 20.15-29.9 13-13 29.85-20.1 17.45-7.4 36.55-7.4 15.35 0 29.75 4.85l.05-.05q-4.205-2.12-8.55-3.8l-1-.4q-.983-.364-2-.75l-.4-.1q-1.068-.394-2.2-.75.57.163 1.1.3-13.91-4.5-28.85-4.5h-.3q-16.53.05-31.9 5.6z" id="d"/><path fill="#B3B3B3" d="M512.75 632.3q0-1.572-.05-3.15-.44-13.746-4.75-26.7l-29.4-12.95 19.85 18.25v74.55q2.782-4.42 5.05-9.2 1.005-2.035 1.9-4.15 7.4-17.5 7.4-36.65m-62.45-26.1l4.5-2.7-28.1-12.5v135.15q1.264-.1 2.5-.25.486-.043.95-.1v-53.95l20.15-6.35v-59.3z" id="e"/><path d="M450.3 661.8l6.9-2.15 29.5 16.9v20.75q6.663-6.955 11.7-15v-74.55l-20.1-18.45-28 16.9v55.6m32.95 16.75l-26.45-15.1-26.65 8.4v53.95q12.92-1.57 25.05-6.7 15.682-6.635 28.05-18.35v-22.2m-46.9 4.8v-5.7l16.7-4.55v6.25l-16.7 4m16.7 1.85v6.2l-16.7 3.05v-5.7l16.7-3.55m0 24.15v6.2l-16.7 1v-5.7l16.7-1.5m0-12.1v6.25l-16.7 2v-5.7l16.7-2.55m-71.15-129.3l-30.55 21.65v108.7l.6.6q13 13.05 29.9 20.2 17.55 7.4 36.7 7.4h1.05l6.55-.3.55-.05v-135.4l-44.8-22.8m5.2 10.8l8.35 4.05v10.7l-8.35-3.75v-11m13 6.3l8.35 4.05v10.2l-8.35-3.7v-10.55m21.4 10.3v9.8l-8.35-3.75v-10.05l8.35 4m-8.35 12.25l8.35 3.55v9.8l-8.35-3.25v-10.1m-4.7-2v10.25l-8.35-3.25v-10.55l8.35 3.55m13.05 21.35v9.8l-8.35-2.8V623.9l8.35 3.05m-13.05-4.8v10.25l-8.35-2.75V619.1l8.35 3.05m4.7 18l8.35 2.6v9.75l-8.35-2.25v-10.1m0 16.3l8.35 2.1v9.75l-8.35-1.8v-10.05m-4.7-1.2v10.25l-8.35-1.8v-10.55l8.35 2.1m13.05 28.85l-8.35-1.3v-10.1l8.35 1.65v9.75m-8.35 4.9l8.35 1.15v9.75l-8.35-.85V689m-4.7-17.2v10.25l-8.35-1.35v-10.5l8.35 1.6m0-33.1v10.25l-8.35-2.3v-10.5l8.35 2.55m-21.35-42.15l8.35 3.55v10.7l-8.35-3.25v-11m0 17.75l8.35 3.1v10.7l-8.35-2.8v-11m0 28.8v-11l8.35 2.6v10.7l-8.35-2.3m0 6.75l8.35 2.15v10.7l-8.35-1.85v-11m0 35.6l8.35 1.1v10.7l-8.35-.8v-11m8.35-16.15V680l-8.35-1.35v-11l8.35 1.65m4.65 45.5v-10.55l8.35.65v10.25l-8.35-.35m-13-11.6l8.35.65v10.7l-8.35-.35v-11m26.05 12.15V705.3l8.35.65v9.75l-8.35-.35M400.1 687.2l8.35 1.15v10.25l-8.35-.85V687.2z" id="f"/><path id="c" stroke="#90f" stroke-linejoin="round" stroke-linecap="round" d="M426.7 591.025l-.3-.125" fill="none"/></defs><use xlink:href="#a"/><g transform="translate(-318.05 -532.35)"><use xlink:href="#b"/><use xlink:href="#c"/></g><use xlink:href="#d" transform="translate(-318.05 -532.35)"/><use xlink:href="#e" transform="translate(-318.05 -532.35)"/><use xlink:href="#f" transform="translate(-318.05 -532.35)"/></svg>