<svg xmlns="http://www.w3.org/2000/svg" viewBox="0 0 420.63 492.548" enable-background="new 0 0 420.63 492.548"><g fill="#E6E6E6"><path d="M402.375 245.5h-1.25v-60.875h-14V102.26l-17-17V42.5h1.25v42.242l17 17v81.633h14zM370.75 45c1.38 0 2.5-1.12 2.5-2.5s-1.12-2.5-2.5-2.5-2.5 1.12-2.5 2.5 1.12 2.5 2.5 2.5M401.75 248c1.38 0 2.5-1.12 2.5-2.5s-1.12-2.5-2.5-2.5-2.5 1.12-2.5 2.5 1.12 2.5 2.5 2.5"/><path d="M418.755 193.5h-1.25v-22.86l-15.38-15.38v-68.5l-15.5-15.5V15.5h1.25v55.242l15.5 15.5v68.5l15.38 15.38zM387.25 18c1.38 0 2.5-1.12 2.5-2.5s-1.12-2.5-2.5-2.5-2.5 1.12-2.5 2.5 1.12 2.5 2.5 2.5M418.13 196c1.38 0 2.5-1.12 2.5-2.5s-1.12-2.5-2.5-2.5-2.5 1.12-2.5 2.5 1.12 2.5 2.5 2.5"/><path d="M394.375 246h-1.25v-54.375h-14V116.01L361.75 98.633V21.5H363v76.617l17.375 17.375v74.883h14zM362.375 24c1.38 0 2.5-1.12 2.5-2.5s-1.12-2.5-2.5-2.5-2.5 1.12-2.5 2.5 1.12 2.5 2.5 2.5M393.75 248.5c1.38 0 2.5-1.12 2.5-2.5s-1.12-2.5-2.5-2.5-2.5 1.12-2.5 2.5 1.12 2.5 2.5 2.5"/><path d="M413.375 149.5h-1.25V33.76l-16.5-16.5V2.5h1.25v14.242l16.5 16.5zM396.25 5c1.38 0 2.5-1.12 2.5-2.5s-1.12-2.5-2.5-2.5-2.5 1.12-2.5 2.5 1.12 2.5 2.5 2.5M412.75 152c1.38 0 2.5-1.12 2.5-2.5s-1.12-2.5-2.5-2.5-2.5 1.12-2.5 2.5 1.12 2.5 2.5 2.5"/><path d="M15.125 390h-1.25v-55.212l.183-.183 18.197-18.196v-72h-12.38v-82.15l-18-18V101.5h1.25v42.242l18 18v81.417h12.38v73.766l-.183.184-18.197 18.196zM2.5 104c1.38 0 2.5-1.12 2.5-2.5S3.88 99 2.5 99 0 100.12 0 101.5s1.12 2.5 2.5 2.5M14.5 392.5c1.38 0 2.5-1.12 2.5-2.5s-1.12-2.5-2.5-2.5-2.5 1.12-2.5 2.5 1.12 2.5 2.5 2.5"/><path d="M351.09 286.943l-.886-.885 11.067-11.066v-15.367h-12.75V169h1.25v89.375h12.75v17.134zM349.145 171.5c1.38 0 2.5-1.12 2.5-2.5s-1.12-2.5-2.5-2.5-2.5 1.12-2.5 2.5 1.12 2.5 2.5 2.5M350.647 289c1.38 0 2.5-1.12 2.5-2.5s-1.12-2.5-2.5-2.5-2.5 1.12-2.5 2.5 1.12 2.5 2.5 2.5"/><path d="M40.505 214.5h-1.25v-60.114L23.127 138.26V71.5h1.25v66.242l16.128 16.126zM23.752 74c1.38 0 2.5-1.12 2.5-2.5s-1.12-2.5-2.5-2.5-2.5 1.12-2.5 2.5 1.12 2.5 2.5 2.5M39.88 217c1.38 0 2.5-1.12 2.5-2.5s-1.12-2.5-2.5-2.5-2.5 1.12-2.5 2.5 1.12 2.5 2.5 2.5"/><path d="M137.125 196.75h-1.25v-54.49l-16-16V84.5h1.25v41.242l16 16zM120.5 87c1.38 0 2.5-1.12 2.5-2.5s-1.12-2.5-2.5-2.5-2.5 1.12-2.5 2.5 1.12 2.5 2.5 2.5M136.5 199.25c1.38 0 2.5-1.12 2.5-2.5s-1.12-2.5-2.5-2.5-2.5 1.12-2.5 2.5 1.12 2.5 2.5 2.5"/><path d="M113.125 391h-1.25V290.99l.183-.183 15.817-15.816v-75.115h-16v-68.562h1.25v67.312h16v76.883l-.183.184-15.817 15.816zM112.5 133.812c1.38 0 2.5-1.12 2.5-2.5s-1.12-2.5-2.5-2.5-2.5 1.12-2.5 2.5c0 1.382 1.12 2.5 2.5 2.5M112.5 393.5c1.38 0 2.5-1.12 2.5-2.5s-1.12-2.5-2.5-2.5-2.5 1.12-2.5 2.5 1.12 2.5 2.5 2.5"/><path d="M103.125 368h-1.25v-79.258l.183-.184 17.817-17.816v-64.117h-18v-63.5h1.25v62.25h18v65.884l-.183.183-17.817 17.816zM102.5 145.625c1.38 0 2.5-1.12 2.5-2.5s-1.12-2.5-2.5-2.5-2.5 1.12-2.5 2.5 1.12 2.5 2.5 2.5M102.5 370.5c1.38 0 2.5-1.12 2.5-2.5s-1.12-2.5-2.5-2.5-2.5 1.12-2.5 2.5 1.12 2.5 2.5 2.5"/><path d="M92.125 318.5h-1.25v-33.258l.183-.184 20.317-20.316v-49.617h-20.5v-54.25h1.25v53h20.5v51.384l-.183.183-20.317 20.316zM91.5 163.375c1.38 0 2.5-1.12 2.5-2.5s-1.12-2.5-2.5-2.5-2.5 1.12-2.5 2.5 1.12 2.5 2.5 2.5M91.5 321c1.38 0 2.5-1.12 2.5-2.5s-1.12-2.5-2.5-2.5-2.5 1.12-2.5 2.5 1.12 2.5 2.5 2.5"/><path d="M72.125 304.5h-1.25v-26.24l-12-12V212.99l.183-.184 16.817-16.816V172h1.25v24.51l-.183.183-16.817 16.816v52.232l12 12zM76.5 174.5c1.38 0 2.5-1.12 2.5-2.5s-1.12-2.5-2.5-2.5-2.5 1.12-2.5 2.5 1.12 2.5 2.5 2.5M71.5 307c1.38 0 2.5-1.12 2.5-2.5s-1.12-2.5-2.5-2.5-2.5 1.12-2.5 2.5 1.12 2.5 2.5 2.5"/><path d="M147.375 216.5h-1.25v-75.616L128.5 123.26V68.5h1.25v54.242l17.625 17.625zM129.125 71c1.38 0 2.5-1.12 2.5-2.5s-1.12-2.5-2.5-2.5-2.5 1.12-2.5 2.5 1.12 2.5 2.5 2.5M146.75 219c1.38 0 2.5-1.12 2.5-2.5s-1.12-2.5-2.5-2.5-2.5 1.12-2.5 2.5 1.12 2.5 2.5 2.5"/><path d="M166 209.625h-12.125V156.5h1.25v51.875H166zM154.5 159c1.38 0 2.5-1.12 2.5-2.5s-1.12-2.5-2.5-2.5-2.5 1.12-2.5 2.5 1.12 2.5 2.5 2.5M166 211.5c1.38 0 2.5-1.12 2.5-2.5s-1.12-2.5-2.5-2.5-2.5 1.12-2.5 2.5 1.12 2.5 2.5 2.5"/><path d="M179 200.875h-17.375V137.5h1.25v62.125H179zM162.25 140c1.38 0 2.5-1.12 2.5-2.5s-1.12-2.5-2.5-2.5-2.5 1.12-2.5 2.5 1.12 2.5 2.5 2.5M179 202.75c1.38 0 2.5-1.12 2.5-2.5s-1.12-2.5-2.5-2.5-2.5 1.12-2.5 2.5 1.12 2.5 2.5 2.5"/><path d="M132.96 405.49h-1.25v-31.084l.184-.184 13.98-13.98V226.375h42V154.5h1.25v73.125h-42V360.76l-.182.183-13.98 13.98zM188.5 157c1.38 0 2.5-1.12 2.5-2.5s-1.12-2.5-2.5-2.5-2.5 1.12-2.5 2.5 1.12 2.5 2.5 2.5M132.336 407.99c1.38 0 2.5-1.12 2.5-2.5s-1.12-2.5-2.5-2.5-2.5 1.12-2.5 2.5 1.12 2.5 2.5 2.5"/><path d="M173.05 372.164h-1.25V353.36l-18.175-18.175v-101.81h42.13v-62h1.25v63.25h-42.13v100.042l18.176 18.176zM196.38 173.875c1.38 0 2.5-1.12 2.5-2.5s-1.12-2.5-2.5-2.5-2.5 1.12-2.5 2.5 1.12 2.5 2.5 2.5M172.425 374.664c1.38 0 2.5-1.12 2.5-2.5s-1.12-2.5-2.5-2.5-2.5 1.12-2.5 2.5 1.12 2.5 2.5 2.5"/><path d="M202.95 396h-1.25v-45.16l.184-.182 15.99-15.99v-54.543h-15V180.5h1.25v98.375h15v56.31l-.182.183-15.99 15.99zM203.5 183c1.38 0 2.5-1.12 2.5-2.5s-1.12-2.5-2.5-2.5-2.5 1.12-2.5 2.5 1.12 2.5 2.5 2.5M202.326 398.5c1.38 0 2.5-1.12 2.5-2.5s-1.12-2.5-2.5-2.5-2.5 1.12-2.5 2.5 1.12 2.5 2.5 2.5"/><path d="M307.255 492.548h-17.09l-.185-.182-75.105-75.107V355.24l.183-.184 17.817-17.816v-70.617h-13V141.26l-17-17V83.5h1.25v40.242l17 17v124.633h13v72.384l-.183.183-17.817 17.816v60.982l74.557 74.556h16.573zM203.5 86c1.38 0 2.5-1.12 2.5-2.5s-1.12-2.5-2.5-2.5-2.5 1.12-2.5 2.5 1.12 2.5 2.5 2.5"/><path d="M248.125 243.25h-1.25V140.26l-21-21V57.5h1.25v61.242l21 21zM226.5 60c1.38 0 2.5-1.12 2.5-2.5s-1.12-2.5-2.5-2.5-2.5 1.12-2.5 2.5 1.12 2.5 2.5 2.5M247.5 245.75c1.38 0 2.5-1.12 2.5-2.5s-1.12-2.5-2.5-2.5-2.5 1.12-2.5 2.5 1.12 2.5 2.5 2.5"/><path d="M264.253 251h-1.25v-58.613l-9.128-9.128V149.5h1.25v33.242l9.128 9.127zM254.5 152c1.38 0 2.5-1.12 2.5-2.5s-1.12-2.5-2.5-2.5-2.5 1.12-2.5 2.5 1.12 2.5 2.5 2.5M263.628 253.5c1.38 0 2.5-1.12 2.5-2.5s-1.12-2.5-2.5-2.5-2.5 1.12-2.5 2.5 1.12 2.5 2.5 2.5"/><path d="M292.125 315.125h-20.25v-41.5h11.25V298h-1.25v-23.125h-8.75v39h17.75V260.78h-19V154.376H286v1.25h-12.875V259.53h19zM282.5 300.5c1.38 0 2.5-1.12 2.5-2.5s-1.12-2.5-2.5-2.5-2.5 1.12-2.5 2.5 1.12 2.5 2.5 2.5M286 157.5c1.38 0 2.5-1.12 2.5-2.5s-1.12-2.5-2.5-2.5-2.5 1.12-2.5 2.5 1.12 2.5 2.5 2.5"/><path d="M307.125 276.75h-1.25v-36.625h-14.5V168.5h1.25v70.375h14.5zM292 171c1.38 0 2.5-1.12 2.5-2.5s-1.12-2.5-2.5-2.5-2.5 1.12-2.5 2.5 1.12 2.5 2.5 2.5M306.5 279.25c1.38 0 2.5-1.12 2.5-2.5s-1.12-2.5-2.5-2.5-2.5 1.12-2.5 2.5 1.12 2.5 2.5 2.5"/><path d="M315.125 265.5h-1.25v-32.375H298.5V181.5h1.25v50.375h15.375zM299.125 184c1.38 0 2.5-1.12 2.5-2.5s-1.12-2.5-2.5-2.5-2.5 1.12-2.5 2.5 1.12 2.5 2.5 2.5M314.5 268c1.38 0 2.5-1.12 2.5-2.5s-1.12-2.5-2.5-2.5-2.5 1.12-2.5 2.5 1.12 2.5 2.5 2.5"/><path d="M324 333.625h-10.813v-35.383l.182-.184 16.505-16.505v-64.428h-16.688v-113.75H326v1.25h-11.563v111.25h16.688v66.196l-.183.184-16.505 16.505v33.615H324zM324 335.5c1.38 0 2.5-1.12 2.5-2.5s-1.12-2.5-2.5-2.5-2.5 1.12-2.5 2.5 1.12 2.5 2.5 2.5M326 106.5c1.38 0 2.5-1.12 2.5-2.5s-1.12-2.5-2.5-2.5-2.5 1.12-2.5 2.5 1.12 2.5 2.5 2.5"/><path d="M335 323.375h-15.125v-19.633l.183-.184 19.817-19.816v-75.117h-20V150.25H335v1.25h-13.875v55.875h20v76.884l-.183.183-19.817 19.816v17.865H335zM335 153.375c1.38 0 2.5-1.12 2.5-2.5s-1.12-2.5-2.5-2.5-2.5 1.12-2.5 2.5 1.12 2.5 2.5 2.5M335 325.25c1.38 0 2.5-1.12 2.5-2.5s-1.12-2.5-2.5-2.5-2.5 1.12-2.5 2.5 1.12 2.5 2.5 2.5"/><path d="M65.875 126.5h1.25v57h-1.25zM66.5 129c1.38 0 2.5-1.12 2.5-2.5s-1.12-2.5-2.5-2.5-2.5 1.12-2.5 2.5 1.12 2.5 2.5 2.5M66.5 186c1.38 0 2.5-1.12 2.5-2.5s-1.12-2.5-2.5-2.5-2.5 1.12-2.5 2.5 1.12 2.5 2.5 2.5"/><path d="M50.125 254.5h-1.25v-51.508l7-7v-53.867h1.25v54.384l-7 7zM56.5 144.625c1.38 0 2.5-1.12 2.5-2.5s-1.12-2.5-2.5-2.5-2.5 1.12-2.5 2.5 1.12 2.5 2.5 2.5M49.5 257c1.38 0 2.5-1.12 2.5-2.5s-1.12-2.5-2.5-2.5-2.5 1.12-2.5 2.5 1.12 2.5 2.5 2.5"/><path d="M97.312 242.91H74.876v-32.668l9.248-9.25V122.5h1.25v79.01l-9.248 9.25v30.9h21.186zM97.312 244.784c1.38 0 2.5-1.12 2.5-2.5s-1.12-2.5-2.5-2.5-2.5 1.12-2.5 2.5 1.12 2.5 2.5 2.5M84.75 125c1.38 0 2.5-1.12 2.5-2.5s-1.12-2.5-2.5-2.5-2.5 1.12-2.5 2.5 1.12 2.5 2.5 2.5"/></g></svg>