<svg xmlns="http://www.w3.org/2000/svg" viewBox="0 0 465 279.8" enable-background="new 0 0 465 279.8"><path stroke="#ccc" stroke-miterlimit="10" fill="none" d="M157.9 16.4l5.2 5.3h66.4v30.5M288.5 16.2v3.7L253 55.6M123.2 16.4l35.3 34.8v41.5H190M273.8 55.5l21.1-20.8H369l48.2 48.2M307 87.7l22.5-22.5v-49M310 112.7h44l29.7 30H465M310 132.7h39l35.5 35.5v38M273.9 167.4l17.5 17.3h47.1v21.5M250 169.8l-18.5 18.3v18.1M190 132.7h-56l-54.1 54H53l-18.9-19H0"/><path fill="#fff" d="M213.5 79.4H288v64.4h-74.5z"/><path d="M294.5 87.7h12.3c1.6 0 3 1.8 3 4s-1.3 4-3 4h-12.3M294.5 108.2h12.3c1.6 0 3 1.8 3 4s-1.3 4-3 4h-12.3M294.5 128.7h12.3c1.6 0 3 1.8 3 4s-1.3 4-3 4h-12.3M225.8 67.9V55.3c0-1.7 1.8-3 4-3s4 1.4 4 3v12.5M245.9 67.9V55.3c0-1.7 1.8-3 4-3s4 1.4 4 3v12.5M266 67.9V55.3c0-1.7 1.8-3 4-3s4 1.4 4 3v12.5M233.8 154.1v12.5c0 1.7-1.8 3-4 3s-4-1.4-4-3v-12.5M253.9 154.1v12.5c0 1.7-1.8 3-4 3s-4-1.4-4-3v-12.5M274 154.1v12.5c0 1.7-1.8 3-4 3s-4-1.4-4-3v-12.5M205.3 95.8H193c-1.6 0-3-1.8-3-4s1.3-4 3-4h12.3M205.3 116.3H193c-1.6 0-3-1.8-3-4s1.3-4 3-4h12.3M205.3 136.7H193c-1.6 0-3-1.8-3-4s1.3-4 3-4h12.3"/><path d="M278.5 87c0-1.9-1.3-3.4-2.8-3.4h-51.6c-1.5 0-2.8 1.5-2.8 3.4v48.4c0 1.9 1.3 3.4 2.8 3.4h51.6c1.5 0 2.8-1.5 2.8-3.4V87zm14.1 60.4c0 2.8-1.9 5.1-4.2 5.1h-77c-2.3 0-4.2-2.3-4.2-5.1V75.1c0-2.8 1.9-5.1 4.2-5.1h77c2.3 0 4.2 2.3 4.2 5.1v72.3zM265.3 128.9l-23.2-23.1-8.9 8.9-19.7-19.6 3.5-3.6 16.2 16.2 8.9-9 26.7 26.7zM271.7 131.9l-.5-14.8-14.2 14.2zM224.2 112v27.7h9v-18.8l-3.1-3zM235.6 118.9v20.8h9v-23.8l-3-3zM247.1 117.9v26.8h8.9v-17.8l-5-5zM305.3 273s-6.3-5.3-9.8-8.8c-3.5-3.5-4.4-7.9-4.4-7.9l-2.7-29.5H212l-2.8 29.6s-.9 4.6-4.4 8c-3.5 3.5-9.8 8.7-9.8 8.7s-5.7 4 2.8 5.3c4.9.7 26.6 1.3 44.1 1.3h16.5c17.8 0 39.2-.6 44-1.3 8.6-1.3 2.9-5.4 2.9-5.4M416.9 205.6H82.1V16h334.8v189.6zm6-205.8H77.2c-5 0-9.2 4.4-9.2 9.4v203c0 5 4.2 9.7 9.2 9.7H423c5 0 8.8-4.7 8.8-9.7V9.1c-.1-5-3.9-9.3-8.9-9.3"/></svg>