<svg xmlns="http://www.w3.org/2000/svg" viewBox="0 0 188.393 188.394" enable-background="new 0 0 188.393 188.394"><g><path d="M94.196 188.394c52.023 0 94.196-42.173 94.196-94.197S146.22 0 94.196 0 0 42.173 0 94.196c0 52.025 42.173 94.198 94.196 94.198" opacity=".15"/><g opacity=".1"><path d="M136.07 10.05c-9.352-3.123-19.36-4.814-29.76-4.814-51.87 0-93.918 42.052-93.918 93.928 0 36.48 20.796 68.103 51.177 83.66l-.22-.05C26.487 170.088 0 135.103 0 93.93 0 42.058 42.048.006 93.917.006c15.17 0 29.5 3.597 42.184 9.985l-.03.06z" fill="#231F20"/><path d="M136.07 10.05c-9.352-3.123-19.36-4.814-29.76-4.814-51.87 0-93.918 42.052-93.918 93.928 0 36.48 20.796 68.103 51.177 83.66l-.22-.05C26.487 170.088 0 135.103 0 93.93 0 42.058 42.048.006 93.917.006c15.17 0 29.5 3.597 42.184 9.985l-.03.06z" fill="none"/></g></g></svg>