<svg xmlns="http://www.w3.org/2000/svg" viewBox="0 298.8 1296 1296.1" enable-background="new 0 298.8 1296 1296.1"><path fill="#999" d="M334.2 1281.3l-3.6-1.2 3.6 1.2z"/><path fill="#999" d="M720.85 371.7c65.7 0 130.2 10.2 192.3 31.1v-.6c-14.9-7.8-29.9-14.3-45.4-20.3v-.6c-72.3-28.7-147.5-43-226.4-43h-1.8c-71.7 0-140.4 12.5-206 35.8l-1.2.6c-9.6 3.6-19.7 7.2-29.3 11.3-72.9 31.1-136.8 74.7-192.9 130.8-56.1 56.1-99.7 120.6-130.8 192.9-7.8 19.1-14.9 38.2-20.9 57.9l-.6 1.8c-17.3 57.3-26.3 115.9-26.3 177.4v1.2c0 26.9 1.8 53.2 5.4 78.8v1.2c0 .6 0 .6.6 1.2 6.6 49 19.1 96.8 37 142.7l1.8 5.4c.6 1.2 1.2 2.4 1.2 3l.6 1.2c17.9 41.8 41.2 82.4 69.3 120.6 28.7 38.8 59.7 73.5 94.4 103.9 57.9 50.2 124.8 88.4 200.1 114.7h1.2c-100.3-51.4-179.8-124.2-239.5-219.8-61.5-97.9-92-205.4-92-321.9 0-82.4 16.1-161.3 47.8-236.5 31.1-72.9 74.1-137.4 130.8-193.5 56.1-56.1 120.6-99.7 193.5-130.8 75.9-30.4 154.7-46.5 237.1-46.5z"/><path fill="#ccc" d="M880.35 386c-3.6-1.8-7.2-3-11.3-4.8v.6c15.5 6 30.5 13.1 45.4 20.3v.6c-62.7-20.9-126.6-31.1-192.3-31.1-82.4 0-161.3 16.1-236.5 47.8-72.9 31.1-137.4 74.1-193.6 130.9-56.1 56.1-99.7 120.6-130.8 193.5-31.7 75.3-47.8 154.7-47.8 236.5 0 116.5 30.5 223.4 92 321.9 59.7 95.6 139.2 169 239.5 219.8h-1.2c-75.3-26.3-142.1-64.5-200.1-114.7-34.6-30.5-66.3-65.1-94.4-103.9-28.1-38.8-50.8-78.8-69.3-120.6.6 1.2 1.2 2.4 1.2 3.6 31.1 72.9 74.7 138 130.8 194.1 10.2 10.2 20.3 19.1 30.5 28.7 49 42.4 103.3 76.4 163.6 102.1 75.3 32.3 154.7 47.8 237.7 47.8s161.9-16.1 237.7-47.8c42.4-17.9 82.4-40.6 119.4-66.9l-657.4-158.9c-3 0-5.4-.6-8.4-2.4l-3.6-.6 3.6.6c-2.4-1.2-4.2-2.4-6-4.8-4.2-4.2-6.6-9.6-6.6-15.5V635.1c0-6 2.4-10.8 6.6-14.9s9.6-6.6 15.5-6.6l591.9-1.2 259.2 76.4c-29.9-63.3-69.9-120-120-170.2-57.9-58.5-122.4-102.1-195.3-132.6z"/><path fill="#999" d="M423.8 1188.1c0-1.2-.6-2.4-1.2-3-.6-1.2-1.8-1.2-3.6-1.2h-38.2c-3 0-4.8 1.2-4.8 4.8v38.2c0 3 1.8 4.8 4.8 4.8H419c3 0 4.8-1.8 4.8-4.8v-38.8m-4.8-130.2c3 0 4.8-1.8 4.8-4.8v-38.2c0-3-1.8-4.8-4.8-4.8h-38.2c-3 0-4.8 1.8-4.8 4.8v38.2c0 3 1.8 4.8 4.8 4.8H419m468.2 134.4c2.4 2.4 5.4 3.6 9 3.6 3.6 0 6.6-1.2 9-3.6s3.6-5.4 3.6-9c0-3.6-1.2-6.6-3.6-9s-6-4.2-9-4.2c-3.6 0-6.6 1.2-9 4.2-2.4 2.4-3.6 5.4-3.6 9-.6 3 .6 6.6 3.6 9m-48.4-17.9c-2.4 2.4-3.6 5.4-3.6 9 0 3.6 1.2 6.6 3.6 9 2.4 2.4 5.4 3.6 9 3.6s6.6-1.2 9-3.6c2.4-2.4 4.2-5.4 4.2-9 0-3.6-1.2-6.6-4.2-9-2.4-2.4-5.4-4.2-9-4.2-3.6 0-6.6 1.2-9 4.2m-56.1 8.9c0 3.6 1.2 6.6 3.6 9s5.4 3.6 9 3.6c3.6 0 6.6-1.2 9-3.6s4.2-5.4 4.2-9c0-3.6-1.2-6.6-4.2-9-2.4-2.4-5.4-4.2-9-4.2-3.6 0-6.6 1.2-9 4.2-2.4 1.9-3.6 5.5-3.6 9m25.7-173.2c0-3.6-1.2-6.6-4.2-9-2.4-2.4-5.4-3.6-9-3.6-3.6 0-6.6 1.2-9 3.6-2.4 2.4-3.6 5.4-3.6 9 0 3.6 1.2 6.6 3.6 9s5.4 4.2 9 4.2c3.6 0 6.6-1.2 9-4.2 3-2.4 4.2-5.4 4.2-9m52.5 0c0-3.6-1.2-6.6-4.2-9-2.4-2.4-5.4-3.6-9-3.6s-6.6 1.2-9 3.6c-2.4 2.4-3.6 5.4-3.6 9 0 3.6 1.2 6.6 3.6 9 2.4 2.4 5.4 4.2 9 4.2s6.6-1.2 9-4.2c2.4-2.4 4.2-5.4 4.2-9m44.2-8.9c-2.4-2.4-6-3.6-9-3.6-3.6 0-6.6 1.2-9 3.6-2.4 2.4-3.6 5.4-3.6 9 0 3.6 1.2 6.6 3.6 9s5.4 4.2 9 4.2c3.6 0 6.6-1.2 9-4.2 2.4-2.4 3.6-5.4 3.6-9 0-3.6-1.2-6.6-3.6-9m-8.9-176.8c-1.8 0-3.6.6-5.4 1.2-1.2.6-2.4 1.8-3.6 2.4-2.4 2.4-3.6 5.4-3.6 9s1.2 6.6 3.6 9 5.4 3.6 9 3.6c3.6 0 6.6-1.2 9-3.6 2.4-2.4 3.6-5.4 3.6-9s-1.2-6.6-3.6-9c-1.2-1.2-2.4-1.8-3.6-2.4-1.9-.6-3.6-1.2-5.4-1.2m-95.6 1.2c-1.8-.6-3-1.2-5.4-1.2-1.8 0-3.6.6-5.4 1.2-1.2.6-2.4 1.8-3.6 2.4-2.4 2.4-3.6 5.4-3.6 9s1.2 6.6 3.6 9 5.4 3.6 9 3.6c3.6 0 6.6-1.2 9-3.6 2.4-2.4 4.2-5.4 4.2-9s-1.2-6.6-4.2-9c-.6-.6-2.4-1.8-3.6-2.4m41.8 0c-1.2.6-2.4 1.8-3.6 2.4-2.4 2.4-3.6 5.4-3.6 9s1.2 6.6 3.6 9c2.4 2.4 5.4 3.6 9 3.6s6.6-1.2 9-3.6c2.4-2.4 4.2-5.4 4.2-9s-1.2-6.6-4.2-9c-1.2-1.2-2.4-1.8-3.6-2.4-1.8-.6-3-1.2-5.4-1.2-1.8 0-3.6.6-5.4 1.2m-34-161.9c0-3.6-1.2-6.6-4.2-9-2.4-2.4-5.4-3.6-9-3.6-3.6 0-6.6 1.2-9 3.6-2.4 2.4-3.6 5.4-3.6 9s1.2 6.6 3.6 9.6c2.4 2.4 5.4 3.6 9 3.6 3.6 0 6.6-1.2 9-3.6 3-2.4 4.2-5.4 4.2-9.6m48.3 9.6c2.4-2.4 4.2-5.4 4.2-9.6 0-3.6-1.2-6.6-4.2-9-2.4-2.4-5.4-3.6-9-3.6s-6.6 1.2-9 3.6c-2.4 2.4-3.6 5.4-3.6 9s1.2 6.6 3.6 9.6c2.4 2.4 5.4 3.6 9 3.6s6.7-1.2 9-3.6m26.3-9.6c0 3.6 1.2 6.6 3.6 9.6 2.4 2.4 5.4 3.6 9 3.6s6.6-1.2 9-3.6c2.4-2.4 3.6-5.4 3.6-9.6 0-3.6-1.2-6.6-3.6-9-2.4-2.4-6-3.6-9-3.6-3.6 0-6.6 1.2-9 3.6-2.4 3.1-3.6 6.1-3.6 9M423.8 842.3c0-3-1.8-4.8-4.8-4.8h-38.2c-3 0-4.8 1.8-4.8 4.8v38.2c0 1.2.6 2.4 1.2 3.6.6 1.2 1.8 1.2 3 1.2h38.2c1.2 0 2.4-.6 3.6-1.2 1.2-1.2 1.2-1.8 1.2-3.6v-38.2M419 712.1c3 0 4.8-1.2 4.8-4.8v-38.2c0-3-1.8-4.8-4.8-4.8h-38.2c-3 0-4.8 1.8-4.8 4.8v38.2c0 3 1.8 4.8 4.8 4.8H419m775.8-24.5l-259.2-76.4-56.1.6 55.5.6c3 0 6 .6 8.4 1.8s4.8 2.4 7.2 4.8c4.2 4.2 6 9.6 6 15.5v108.7c0 6-2.4 11.3-6 15.5-4.2 4.2-9.6 6.6-15.5 6.6h-592c-6 0-11.3-1.8-15.5-6.6-4.2-4.2-6.6-9-6.6-14.9v63.3c0-6 2.4-10.8 6.6-14.3 4.2-4.2 9.6-6.6 15.5-6.6H935c6 0 11.3 2.4 15.5 6.6 4.2 4.2 6 9 6 14.9v108.7c0 6-2.4 11.3-6 15.5-4.2 4.2-9.6 6.6-15.5 6.6H342.5c-6 0-10.8-2.4-14.3-6.6-4.2-4.2-6.6-9-6.6-14.9v63.9c0-6 2.4-10.8 6.6-14.9 4.2-4.2 9.6-6.6 15.5-6.6h591.9c6 0 11.3 2.4 15.5 6.6 4.2 4.2 6 9.6 6 15.5v108.1c0 6-2.4 11.3-6 15.5-4.2 4.2-9.6 6-15.5 6H343.7c-6 0-11.3-1.8-15.5-6-4.2-4.2-6.6-9-6.6-14.9v63.3c0-6 2.4-10.8 6.6-14.9 4.2-4.2 9.6-6.6 15.5-6.6h591.9c6 0 11.3 2.4 15.5 6.6s6 9.6 6 15.5v108.1c0 6-2.4 11.3-6 15.5-4.2 4.2-9.6 6.6-15.5 6.6H342.5l657.6 159.5c26.3-19.1 51.4-40.6 74.7-63.3 56.1-56.1 99.7-121.2 130.2-194.1 32.3-75.3 48.4-154.7 48.4-237.7S1237.3 786.8 1205 711c-.6-.6-.6-1.8-.6-2.4l-5.4-13.1c-2.4-3.1-3-5.5-4.2-7.9z"/><path d="M956.5 1153.5c0-6-2.4-11.3-6-15.5-4.2-4.2-9.6-6.6-15.5-6.6H343.1c-6 0-11.3 2.4-15.5 6.6-4.2 4.2-6.6 9.6-6.6 15.5v108.1c0 6 2.4 11.3 6.6 15.5 1.8 1.8 3.6 3.6 6 4.8l.6.6c2.4 1.2 4.8 1.8 7.8 1.8h593c6 0 11.3-2.4 15.5-6.6 4.2-4.2 6-9.6 6-15.5v-108.7m-170.2 38.8c-2.4-2.4-3.6-5.4-3.6-9 0-3.6 1.2-6.6 3.6-9s5.4-4.2 9-4.2c3.6 0 6.6 1.2 9 4.2 2.4 2.4 4.2 5.4 4.2 9 0 3.6-1.2 6.6-4.2 9-2.4 2.4-5.4 3.6-9 3.6-3.7 0-6.6-1.2-9-3.6m48.3-9c0-3.6 1.2-6.6 3.6-9s5.4-4.2 9-4.2c3.6 0 6.6 1.2 9 4.2 2.4 2.4 4.2 5.4 4.2 9 0 3.6-1.2 6.6-4.2 9-2.4 2.4-5.4 3.6-9 3.6-3.6 0-6.6-1.2-9-3.6-1.8-2.4-3.6-6-3.6-9m61.6-13.1c3.6 0 6.6 1.2 9 4.2 2.4 2.4 3.6 5.4 3.6 9 0 3.6-1.2 6.6-3.6 9s-6 3.6-9 3.6c-3.6 0-6.6-1.2-9-3.6s-3.6-5.4-3.6-9c0-3.6 1.2-6.6 3.6-9 2.4-3 4.8-4.2 9-4.2M419 1183.3c1.2 0 2.4.6 3.6 1.2 1.2.6 1.2 1.8 1.2 3v38.2c0 3-1.8 4.8-4.8 4.8h-38.2c-3 0-4.8-1.8-4.8-4.8v-38.2c0-3 1.8-4.8 4.8-4.8H419m531.5-217.9c-4.2-4.2-9.6-6.6-15.5-6.6H343.1c-6 0-11.3 2.4-15.5 6.6-4.2 4.2-6.6 9.6-6.6 15.5v108.1c0 6 2.4 11.3 6.6 15.5 4.2 4.2 9.6 6 15.5 6H935c6 0 11.3-1.8 15.5-6 4.2-4.2 6-9.6 6-15.5V980.3c0-6-1.8-11.4-6-15.5m-67.5 45.3c0-3.6 1.2-6.6 3.6-9 2.4-2.4 5.4-3.6 9-3.6s6.6 1.2 9 3.6c2.4 2.4 3.6 5.4 3.6 9 0 3.6-1.2 6.6-3.6 9-2.4 2.4-6 4.2-9 4.2-3.6 0-6.6-1.2-9-4.2-2.4-2.4-3.6-5.4-3.6-9M847.8 997c3.6 0 6.6 1.2 9 3.6 2.4 2.4 4.2 5.4 4.2 9s-1.2 6.6-4.2 9c-2.4 2.4-5.4 4.2-9 4.2s-6.6-1.2-9-4.2c-2.4-2.4-3.6-5.4-3.6-9s1.2-6.6 3.6-9c2.4-1.8 5.4-3.6 9-3.6m-52.6 0c3.6 0 6.6 1.2 9 3.6 2.4 2.4 4.2 5.4 4.2 9s-1.2 6.6-4.2 9c-2.4 2.4-5.4 4.2-9 4.2-3.6 0-6.6-1.2-9-4.2-2.4-2.4-3.6-5.4-3.6-9s1.2-6.6 3.6-9c2.5-1.8 5.4-3.6 9-3.6m-371.4 56.1c0 3-1.8 4.8-4.8 4.8h-38.2c-3 0-4.8-1.8-4.8-4.8v-38.2c0-3 1.8-4.8 4.8-4.8H419c3 0 4.8 1.8 4.8 4.8v38.2m-80.7-267.5c-6 0-11.3 2.4-15.5 6.6-4.2 4.2-6.6 9-6.6 14.3v109.3c0 6 2.4 10.8 6.6 14.9 4.2 4.2 9 6 14.3 6.6h592.5c6 0 11.3-2.4 15.5-6.6 4.2-4.2 6-9.6 6-15.5V806.5c0-6-2.4-10.8-6-14.9-4.2-4.2-9.6-6.6-15.5-6.6H343.1m75.9 52.5c3 0 4.8 1.8 4.8 4.8v38.2c0 1.2-.6 2.4-1.2 3.6-.6 1.2-1.8 1.2-3.6 1.2h-38.2c-1.2 0-2.4-.6-3-1.2-1.2-1.2-1.2-1.8-1.2-3.6v-38.2c0-3 1.8-4.8 4.8-4.8H419m385.2-9.5c2.4 2.4 4.2 5.4 4.2 9s-1.2 6.6-4.2 9c-2.4 2.4-5.4 3.6-9 3.6-3.6 0-6.6-1.2-9-3.6-2.4-2.4-3.6-5.4-3.6-9s1.2-6.6 3.6-9c2.4-2.4 5.4-3.6 9-3.6 3.6 0 6.6 1.2 9 3.6m34.6 17.9c-2.4-2.4-3.6-5.4-3.6-9s1.2-6.6 3.6-9c2.4-2.4 5.4-3.6 9-3.6s6.6 1.2 9 3.6c2.4 2.4 4.2 5.4 4.2 9s-1.2 6.6-4.2 9c-2.4 2.4-5.4 3.6-9 3.6-3.6.6-6.6-1.2-9-3.6m48.4-17.9c2.4-2.4 5.4-3.6 9-3.6 3.6 0 6.6 1.2 9 3.6 2.4 2.4 3.6 5.4 3.6 9s-1.2 6.6-3.6 9-6 3.6-9 3.6c-3.6 0-6.6-1.2-9-3.6-2.4-2.4-3.6-5.4-3.6-9-.6-3.6.6-6.6 3.6-9M343.1 612.4c-6 0-11.3 2.4-15.5 6.6-4.2 4.2-6.6 9-6.6 14.9v109.3c0 6 2.4 10.8 6.6 14.9 4.2 4.2 9.6 6.6 15.5 6.6H935c6 0 11.3-1.8 15.5-6.6 4.2-4.2 6-9.6 6-15.5V633.9c0-6-2.4-11.3-6-15.5-2.4-2.4-4.8-3.6-7.2-4.8-2.4-1.2-5.4-1.8-8.4-1.8H343.1m80.7 57.9v38.2c0 3-1.8 4.8-4.8 4.8h-38.2c-3 0-4.8-1.2-4.8-4.8v-38.2c0-3 1.8-4.8 4.8-4.8H419c3 0 4.8 1.2 4.8 4.8m472.4 7.2c-3.6 0-6.6-1.2-9-3.6-2.4-2.4-3.6-5.4-3.6-9.6 0-3.6 1.2-6.6 3.6-9s5.4-3.6 9-3.6c3.6 0 6.6 1.2 9 3.6 2.4 2.4 3.6 5.4 3.6 9s-1.2 6.6-3.6 9.6c-2.5 2.4-6 3.6-9 3.6m-39.5-22.1c2.4 2.4 4.2 5.4 4.2 9s-1.2 6.6-4.2 9.6c-2.4 2.4-5.4 3.6-9 3.6s-6.6-1.2-9-3.6c-2.4-2.4-3.6-5.4-3.6-9.6 0-3.6 1.2-6.6 3.6-9 2.4-2.4 5.4-3.6 9-3.6 3.7 0 6.7 1.2 9 3.6m-61.5-3.6c3.6 0 6.6 1.2 9 3.6 2.4 2.4 4.2 5.4 4.2 9s-1.2 6.6-4.2 9.6c-2.4 2.4-5.4 3.6-9 3.6-3.6 0-6.6-1.2-9-3.6-2.4-2.4-3.6-5.4-3.6-9.6 0-3.6 1.2-6.6 3.6-9 2.5-2.4 5.4-3.6 9-3.6z"/></svg>