<svg xmlns="http://www.w3.org/2000/svg" viewBox="0 0 465 190.163" enable-background="new 0 0 465 190.163"><g stroke="#ccc" stroke-miterlimit="10" fill="none"><path d="M157.854.352l5.257 5.31h66.39v30.5M288.5.163V4l-35.505 35.586M123.244.394L158.5 35.26v41.403H190M273.798 39.525l21.11-20.862H369l48.223 48.183M306.978 71.76L329.5 49.313V.163M310 96.663h44l29.657 30H465M310 116.663h39l35.5 35.628v37.873M273.88 151.39l17.5 17.273h47.12v21.5M249.982 153.83l-18.482 18.4v17.933M190 116.663h-56l-54.056 54H53l-18.876-19H0"/></g></svg>