<svg xmlns="http://www.w3.org/2000/svg" xmlns:xlink="http://www.w3.org/1999/xlink" preserveAspectRatio="none" width="200" height="200" viewBox="0 0 200 200"><defs><path fill="#ccc" d="M191.9 633.45l-12.5-.9v28.5q1.783-.31 3.55-.7.265-.06.5-.15 4.287-.937 8.45-2.3v-24.45m-12.5-14.4l12.5 1.4v-20.9l-12.5-2.1v21.6m-11.35-1.25v-22.25l-12.5-2.1v22.95l12.5 1.4m57.25 20.8q1.964-1.764 3.85-3.65h-3.85v3.65m-9.6-3.35l-12.5-.95v19.05q6.555-3.133 12.5-7.2v-10.9m-12.5-13.55l12.5 1.35V603.6l-12.5-2.15v20.25m-47.65 9.05v22.95l12.5.25V631.7l-12.5-.95m-28.8-63.5l.1-13.8q1.15-1.8 1.3-4.45l-7.45 5.85q.1 2.3 1.05 2.45l-.3 13.2-8.9 33.1q-.95 3.35-.4 6.65.55 3.4 2 3.15l20.65-3.4q1.15-.2 2.05-1.55.9-1.35 1.4-3.6 1.1-4.7-.35-8.5l-11.15-29.1m-6.45 24.85q.3-.85.75-1 .45-.2.75.45.3.6.25 1.7 0 1.05-.3 1.95-.35.85-.8 1-.45.15-.75-.5t-.25-1.7q.05-1.05.35-1.9m2.55-35.6l2.8-2.15-.15 14.45 5 13.55-12.6 5.6 4.65-17.35.3-14.1m3.7 32.45q.5-.25.85.45.35.65.3 1.75 0 1.15-.35 2.1-.35.9-.85 1.05-.5.2-.85-.5-.35-.65-.3-1.75 0-1.1.35-2 .35-.9.85-1.1m2.95 7q.5-.15.8.5.35.6.35 1.65 0 1.05-.35 1.9-.3.8-.8.95-.45.1-.75-.55-.35-.65-.35-1.65 0-1 .35-1.85.3-.8.75-.95m-6.6 2.75q.3-.8.7-.9.4-.15.7.45.3.65.25 1.6 0 1-.3 1.75-.3.8-.7.9-.4.1-.7-.5-.3-.65-.25-1.6 0-.95.3-1.7m-4.55.75q.4-.1.6.45.25.55.2 1.5 0 .95-.3 1.7-.25.75-.65.8-.35.1-.6-.45-.25-.65-.2-1.55.05-.9.3-1.6.3-.75.65-.85m49.7-53.95v-22.25l-12.5-4.45v22.95l12.5 3.75m35.15 43.35l12.5 2.55v-19.45l-12.5-3.3v20.2m-23.8-4.9l12.5 2.6v-20.9l-12.5-3.3v21.6m-11.35-2.3V559.4l-12.5-3.3v22.95l12.5 2.6m23.85-49.9l-12.5-4.45v21.6l12.5 3.7v-20.85m23.8 8.5l-12.5-4.45V556l12.5 3.75v-19.5m-25.4-61.9q1.132.356 2.2.75l-1.1-.45q-.53-.137-1.1-.3m8.9 3.2q-.137-.058-.3-.15l-3-1.05q4.345 1.68 8.55 3.8l-.05.05q-14.4-4.85-29.75-4.85-12.69 0-24.65 3.25-6.044 1.667-11.9 4.15-16.85 7.1-29.85 20.1-13 13-20.15 29.9-7.35 17.45-7.35 36.55 0 26.95 14.2 49.7 4.84 7.78 10.85 14.3v-99.1l40.2-29.65L203.35 530l.1-5.55-58.3-21.95-11.35 8.4v-7.3l18.15-13.4 51.5 19.4v.3h.25l44.8 19.85q-7.026-15.723-19.35-28-13.05-13.05-29.95-20.2z" id="a"/><path fill="#B3B3B3" d="M203.7 509.9h-.25l-.1 20.1 21.95 8.2v96.75h3.85q13.05-13.05 20.2-29.95 7.4-17.5 7.4-36.65t-7.4-36.7q-.398-.94-.85-1.9l-44.8-19.85z" id="b"/><path d="M146 508.55l-40.2 29.65v105.35q9.227 7.02 20.05 11.6 17.55 7.4 36.7 7.4 8.59 0 16.85-1.5v-28.5l12.5.9v24.45q1.716-.57 3.4-1.2l2.7-1.05q.432-.188.85-.4.13-.012.2-.05l.15-.05q2.028-.858 4-1.8V634.3l12.5.95v10.9q5.017-3.443 9.6-7.55V538.2L146 508.55m57.2 27.25l12.5 4.45v19.5L203.2 556v-20.2m-23.8-8.5l12.5 4.45v20.85l-12.5-3.7v-21.6m-11.35 32.1v22.25l-12.5-2.6V556.1l12.5 3.3m23.85 27.15l-12.5-2.6v-21.6l12.5 3.3v20.9m23.8 4.85l-12.5-2.55v-20.2l12.5 3.3v19.45m-47.65-68.15v22.25l-12.5-3.75V518.8l12.5 4.45m-41.2 30.2l-.1 13.8 11.15 29.1q1.45 3.8.35 8.5-.5 2.25-1.4 3.6-.9 1.35-2.05 1.55l-20.65 3.4q-1.45.25-2-3.15-.55-3.3.4-6.65l8.9-33.1.3-13.2q-.95-.15-1.05-2.45l7.45-5.85q-.15 2.65-1.3 4.45m28.7 100.25v-22.95l12.5.95v22.25l-12.5-.25m60.15-30.65l-12.5-1.35v-20.25l12.5 2.15v19.45m-47.65-27.5v22.25l-12.5-1.4v-22.95l12.5 2.1m23.85 24.9l-12.5-1.4v-21.6l12.5 2.1v20.9m-72.95-20.55q-.2-.55-.6-.45-.35.1-.65.85-.25.7-.3 1.6-.05.9.2 1.55.25.55.6.45.4-.05.65-.8.3-.75.3-1.7.05-.95-.2-1.5m4.65-2.1q-.4.1-.7.9-.3.75-.3 1.7-.05.95.25 1.6.3.6.7.5.4-.1.7-.9.3-.75.3-1.75.05-.95-.25-1.6-.3-.6-.7-.45m6.7-1.35q-.3-.65-.8-.5-.45.15-.75.95-.35.85-.35 1.85t.35 1.65q.3.65.75.55.5-.15.8-.95.35-.85.35-1.9 0-1.05-.35-1.65m-2.9-7.05q-.35-.7-.85-.45-.5.2-.85 1.1-.35.9-.35 2-.05 1.1.3 1.75.35.7.85.5.5-.15.85-1.05.35-.95.35-2.1.05-1.1-.3-1.75m-1.75-35.05l-2.8 2.15-.3 14.1-4.65 17.35 12.6-5.6-5-13.55.15-14.45m-4.6 36.75q-.45.15-.75 1t-.35 1.9q-.05 1.05.25 1.7.3.65.75.5.45-.15.8-1 .3-.9.3-1.95.05-1.1-.25-1.7-.3-.65-.75-.45m82.4-66.65V509.6l-51.5-19.4-18.15 13.4v7.3l11.35-8.4 58.3 21.95z" id="c"/><path fill="#999" d="M195.9 480.35l-1-.4q-.983-.364-2-.75l-.4-.1q-1.068-.394-2.2-.75.57.163 1.1.3-13.91-4.5-28.85-4.5h-.3q-16.53.05-31.9 5.6l-.15.05q-2.26.8-4.5 1.75-16.85 7.1-29.85 20.1-13 13-20.1 29.85-.95 2.24-1.75 4.5l-.05.15q-5.55 15.37-5.6 31.9v1.85q.005.285 0 .55.002.116 0 .2.002.09 0 .15.003.126 0 .2.27 8.766 2.05 17.15l.7 3.1q.04.032.05.05l.75 2.75q.116.47.25.9l2.6 7.55.2.5.25.65q4.243 10.188 11 19.5 8.533 11.785 19.6 20.1v-5.95q-6.01-6.52-10.85-14.3-14.2-22.75-14.2-49.7 0-19.1 7.35-36.55 7.15-16.9 20.15-29.9 13-13 29.85-20.1 5.856-2.483 11.9-4.15 11.96-3.25 24.65-3.25 15.35 0 29.75 4.85l.05-.05q-4.205-2.12-8.55-3.8z" id="d"/></defs><use xlink:href="#a" transform="translate(-62.05 -468.4)"/><use xlink:href="#b" transform="translate(-62.05 -468.4)"/><use xlink:href="#c" transform="translate(-62.05 -468.4)"/><use xlink:href="#d" transform="translate(-62.05 -468.4)"/></svg>