<svg xmlns="http://www.w3.org/2000/svg" viewBox="0 0 531 563" enable-background="new 0 0 531 563"><path fill="#ccc" d="M340.7 398.6h-1.2V335l-18-18v-51.7h1.2v51.2l18 18zM322.1 267.8c1.4 0 2.5-1.1 2.5-2.5s-1.1-2.5-2.5-2.5-2.5 1.1-2.5 2.5 1.1 2.5 2.5 2.5M340.1 401.1c1.4 0 2.5-1.1 2.5-2.5s-1.1-2.5-2.5-2.5-2.5 1.1-2.5 2.5 1.1 2.5 2.5 2.5"/><path fill="#ccc" d="M328.4 396.3h-1.2V335l-17-17v-52.7h1.2v52.2l17 17zM310.8 267.8c1.4 0 2.5-1.1 2.5-2.5s-1.1-2.5-2.5-2.5-2.5 1.1-2.5 2.5 1.1 2.5 2.5 2.5M327.8 398.8c1.4 0 2.5-1.1 2.5-2.5s-1.1-2.5-2.5-2.5-2.5 1.1-2.5 2.5 1.1 2.5 2.5 2.5"/><path fill="#ccc" d="M318.2 378.3H317v-30.8L298.5 329v-63.7h1.2v63.2l18.5 18.5zM299.1 267.8c1.4 0 2.5-1.1 2.5-2.5s-1.1-2.5-2.5-2.5-2.5 1.1-2.5 2.5 1.1 2.5 2.5 2.5M317.6 380.8c1.4 0 2.5-1.1 2.5-2.5s-1.1-2.5-2.5-2.5-2.5 1.1-2.5 2.5 1.1 2.5 2.5 2.5"/><path fill="#ccc" d="M391.2 478.3H390v-22.6l9.2-9.2v-89.4h15V338l-17-17v-55.7h1.2v55.2l17 17v20.9h-15V447l-9.2 9.2zM397.8 267.8c1.4 0 2.5-1.1 2.5-2.5s-1.1-2.5-2.5-2.5-2.5 1.1-2.5 2.5 1.1 2.5 2.5 2.5M390.6 480.8c1.4 0 2.5-1.1 2.5-2.5s-1.1-2.5-2.5-2.5-2.5 1.1-2.5 2.5 1.1 2.5 2.5 2.5"/><path fill="#ccc" d="M404.5 453.4l-.9-.9 8.6-8.5v-78.9h12V333l-15-15v-52.7h1.2v52.2l15 15v33.9h-12v78.1zM409.8 267.8c1.4 0 2.5-1.1 2.5-2.5s-1.1-2.5-2.5-2.5-2.5 1.1-2.5 2.5 1.1 2.5 2.5 2.5M404 455.5c1.4 0 2.5-1.1 2.5-2.5s-1.1-2.5-2.5-2.5-2.5 1.1-2.5 2.5 1.2 2.5 2.5 2.5"/><path fill="#ccc" d="M253.7 414.3h-1.2v-26.8l7-7V330l-15-15v-49.7h1.2v49.2l15 15V381l-7 7zM245.1 267.8c1.4 0 2.5-1.1 2.5-2.5s-1.1-2.5-2.5-2.5-2.5 1.1-2.5 2.5 1.1 2.5 2.5 2.5M253.1 416.8c1.4 0 2.5-1.1 2.5-2.5s-1.1-2.5-2.5-2.5-2.5 1.1-2.5 2.5 1.1 2.5 2.5 2.5"/><path fill="#ccc" d="M264.4 370.7l-.9-.9 4-3.9V312l-9-9v-37.7h1.2v37.2l9 9v54.9zM259.1 267.8c1.4 0 2.5-1.1 2.5-2.5s-1.1-2.5-2.5-2.5-2.5 1.1-2.5 2.5 1.1 2.5 2.5 2.5M264 372.7c1.4 0 2.5-1.1 2.5-2.5s-1.1-2.5-2.5-2.5-2.5 1.1-2.5 2.5 1.1 2.5 2.5 2.5"/><path fill="#ccc" d="M279.7 370h-1.2v-75l-12-12v-17.7h1.2v17.2l12 12zM267.1 267.8c1.4 0 2.5-1.1 2.5-2.5s-1.1-2.5-2.5-2.5-2.5 1.1-2.5 2.5 1.1 2.5 2.5 2.5M279.1 372.5c1.4 0 2.5-1.1 2.5-2.5s-1.1-2.5-2.5-2.5-2.5 1.1-2.5 2.5 1.1 2.5 2.5 2.5"/><path fill="#ccc" d="M139.3 442.6H138v-31.2l-13.5-13.5v-24.1l.2-.1 22.2-22.2v-18.9h1.2V352l-.1.2-22.2 22.2v22.9l13.5 13.5zM138.7 440.1c-1.4 0-2.5 1.1-2.5 2.5s1.1 2.5 2.5 2.5 2.5-1.1 2.5-2.5-1.2-2.5-2.5-2.5M147.5 330.1c-1.4 0-2.5 1.1-2.5 2.5s1.1 2.5 2.5 2.5 2.5-1.1 2.5-2.5-1.1-2.5-2.5-2.5"/><path fill="#ccc" d="M305 386.3h-1.3v-39.7l-16.2-15.1v-66.2h1.2V331l16.3 15zM288.1 267.8c1.4 0 2.5-1.1 2.5-2.5s-1.1-2.5-2.5-2.5-2.5 1.1-2.5 2.5 1.1 2.5 2.5 2.5M304.4 388.8c1.4 0 2.5-1.1 2.5-2.5s-1.1-2.5-2.5-2.5-2.5 1.1-2.5 2.5 1.1 2.5 2.5 2.5"/><path fill="#ccc" d="M406.2 499.3h-1.3v-24.2l.2-.2 18.7-18.7v-85.1h10.7v-39.4L416.9 314v-48.7h1.2v48.2l17.7 17.7v41.2H425v84.3l-.1.2-18.7 18.7zM417.5 267.8c1.4 0 2.5-1.1 2.5-2.5s-1.1-2.5-2.5-2.5-2.5 1.1-2.5 2.5 1.1 2.5 2.5 2.5M405.5 501.8c1.4 0 2.5-1.1 2.5-2.5s-1.1-2.5-2.5-2.5-2.5 1.1-2.5 2.5 1.2 2.5 2.5 2.5"/><path fill="#ccc" d="M418 513.3h-1.2v-29.4l.2-.2 18.2-18.2v-73.1h20.1v-82.5l-29.1-29.1v-15.5h1.3v15l29.1 29.1v84.2h-20.2V466l-.2.2-18.2 18.2zM426.9 267.8c1.4 0 2.5-1.1 2.5-2.5s-1.1-2.5-2.5-2.5-2.5 1.1-2.5 2.5 1.1 2.5 2.5 2.5M417.4 515.8c1.4 0 2.5-1.1 2.5-2.5s-1.1-2.5-2.5-2.5-2.5 1.1-2.5 2.5 1.1 2.5 2.5 2.5"/><path fill="#ccc" d="M431.5 540.3h-1.3v-13.8l.2-.2 15.8-15.8V408.1h21V309l-22-22v-21.7h1.2v21.2l22 22v100.9h-20.9V511l-.2.2-15.8 15.8zM430.9 542.8c1.4 0 2.5-1.1 2.5-2.5s-1.1-2.5-2.5-2.5-2.5 1.1-2.5 2.5 1.1 2.5 2.5 2.5M445.8 267.8c1.4 0 2.5-1.1 2.5-2.5s-1.1-2.5-2.5-2.5-2.5 1.1-2.5 2.5 1.1 2.5 2.5 2.5"/><path fill="#ccc" d="M482.1 477.5h-1.2v-54.8l.1-.2 18.2-18.1v-61H483V300l-20.5-20.5v-14.2h1.3V279l20.5 20.5v42.6h16.1v62.8l-.2.2-18.1 18.1zM463.2 267.8c1.4 0 2.5-1.1 2.5-2.5s-1.1-2.5-2.5-2.5-2.5 1.1-2.5 2.5 1.1 2.5 2.5 2.5M481.5 480c1.4 0 2.5-1.1 2.5-2.5s-1.1-2.5-2.5-2.5-2.5 1.1-2.5 2.5c0 1.3 1.1 2.5 2.5 2.5"/><path fill="#ccc" d="M461.2 504.3H460V427l.1-.2 14.8-14.7v-49.5h1.3v50l-.2.2-14.8 14.7zM475.5 365.1c1.4 0 2.5-1.1 2.5-2.5s-1.1-2.5-2.5-2.5-2.5 1.1-2.5 2.5 1.2 2.5 2.5 2.5M460.6 506.8c1.4 0 2.5-1.1 2.5-2.5s-1.1-2.5-2.5-2.5-2.5 1.1-2.5 2.5 1.1 2.5 2.5 2.5"/><path fill="#ccc" d="M512.4 561.3h-1.2v-21.8l.1-.2 18.9-18.8v-25.1h-21V334.1h14.7v-30.3L509.2 289v-23.7h1.2v23.2l14.8 14.8v32.1h-14.8v158.7h21V521l-.2.2-18.8 18.8zM509.8 267.8c1.4 0 2.5-1.1 2.5-2.5s-1.1-2.5-2.5-2.5-2.5 1.1-2.5 2.5 1.1 2.5 2.5 2.5M511.8 563.8c1.4 0 2.5-1.1 2.5-2.5s-1.1-2.5-2.5-2.5-2.5 1.1-2.5 2.5 1.1 2.5 2.5 2.5"/><path fill="#ccc" d="M365.3 515.3h-1.2v-87.7h15.2V367l-16-16v-85.7h1.3v85.2l16 16v62.4h-15.3zM363.9 267.8c1.4 0 2.5-1.1 2.5-2.5s-1.1-2.5-2.5-2.5-2.5 1.1-2.5 2.5 1.2 2.5 2.5 2.5M364.7 517.8c1.4 0 2.5-1.1 2.5-2.5s-1.1-2.5-2.5-2.5-2.5 1.1-2.5 2.5 1.1 2.5 2.5 2.5"/><path fill="#ccc" d="M373.6 513.3h-1.2v-76.7h15.9V365l-15.9-16v-83.7h1.2v83.2l16 16v73.4h-16zM373 267.8c1.4 0 2.5-1.1 2.5-2.5s-1.1-2.5-2.5-2.5-2.5 1.1-2.5 2.5 1.1 2.5 2.5 2.5M373 515.8c1.4 0 2.5-1.1 2.5-2.5s-1.1-2.5-2.5-2.5-2.5 1.1-2.5 2.5 1.1 2.5 2.5 2.5"/><path fill="#ccc" d="M358.6 493.3h-1.3V415h12.6v-47.4L353.3 351v-85.7h1.3v85.2l16.6 16.6v49.1h-12.6zM353.9 267.8c1.4 0 2.5-1.1 2.5-2.5s-1.1-2.5-2.5-2.5-2.5 1.1-2.5 2.5 1.2 2.5 2.5 2.5M357.9 495.8c1.4 0 2.5-1.1 2.5-2.5s-1.1-2.5-2.5-2.5-2.5 1.1-2.5 2.5 1.2 2.5 2.5 2.5"/><path fill="#ccc" d="M204.2 418.9H203V391l.1-.1 17.7-17.7v-79.9h13.5v-28h1.3v29.3h-13.5v79.1l-.2.2-17.7 17.7zM234.9 267.8c1.4 0 2.5-1.1 2.5-2.5s-1.1-2.5-2.5-2.5-2.5 1.1-2.5 2.5 1.2 2.5 2.5 2.5M203.6 421.4c1.4 0 2.5-1.1 2.5-2.5s-1.1-2.5-2.5-2.5-2.5 1.1-2.5 2.5 1.1 2.5 2.5 2.5"/><path fill="#ccc" d="M161.9 435.8h-1.3v-32.2h15V354l-18.5-18.5v-68.7h1.3V335l18.5 18.5v51.4h-15zM157.7 269.3c1.4 0 2.5-1.1 2.5-2.5s-1.1-2.5-2.5-2.5-2.5 1.1-2.5 2.5 1.2 2.5 2.5 2.5M161.2 438.3c1.4 0 2.5-1.1 2.5-2.5s-1.1-2.5-2.5-2.5-2.5 1.1-2.5 2.5 1.2 2.5 2.5 2.5"/><path fill="#ccc" d="M158.4 506.8h-1.3V453l9.3-9.3v-34.2h17v-59l-18-18v-57.9h9v1.3h-7.7V332l18 18v60.7h-17v33.5l-9.3 9.3zM174.4 277.8c1.4 0 2.5-1.1 2.5-2.5s-1.1-2.5-2.5-2.5-2.5 1.1-2.5 2.5 1.1 2.5 2.5 2.5M157.7 509.3c1.4 0 2.5-1.1 2.5-2.5s-1.1-2.5-2.5-2.5-2.5 1.1-2.5 2.5 1.2 2.5 2.5 2.5"/><path fill="#ccc" d="M179.7 498.8h-12.6v-39.2l8.9-8.9v-32.6h15.6v-70.6l-15-15v-48.9h14.1v1.3h-12.8V332l15 15v72.4h-15.7v31.8l-8.8 8.9v37.4h11.3zM190.7 286.8c1.4 0 2.5-1.1 2.5-2.5s-1.1-2.5-2.5-2.5-2.5 1.1-2.5 2.5 1.2 2.5 2.5 2.5M179.7 500.6c1.4 0 2.5-1.1 2.5-2.5s-1.1-2.5-2.5-2.5-2.5 1.1-2.5 2.5 1.2 2.5 2.5 2.5M50.1 466.9h37.4v8.4h1.3v-9.7H49.5M90.6 475.3c0 1.4-1.1 2.5-2.5 2.5s-2.5-1.1-2.5-2.5 1.1-2.5 2.5-2.5 2.5 1.1 2.5 2.5M40.4 473.7h37.4V489h1.3v-16.6H39.9M81 489c0 1.4-1.1 2.5-2.5 2.5S76 490.4 76 489s1.1-2.5 2.5-2.5c1.3 0 2.5 1.2 2.5 2.5"/><path fill="#ccc" d="M121.8 401.3h-1.3v-50.6l.2-.2 17.5-17.5v-68.2h1.3v68.7l-.2.2-17.5 17.5zM138.9 267.3c1.4 0 2.5-1.1 2.5-2.5s-1.1-2.5-2.5-2.5-2.5 1.1-2.5 2.5 1.1 2.5 2.5 2.5M121.2 403.8c1.4 0 2.5-1.1 2.5-2.5s-1.1-2.5-2.5-2.5-2.5 1.1-2.5 2.5 1.1 2.5 2.5 2.5"/><path fill="#ccc" d="M114 387.3h-1.3v-44.8l.2-.2 16.3-16.3v-55.2h1.3v55.7l-.2.2L114 343zM129.9 273.3c1.4 0 2.5-1.1 2.5-2.5s-1.1-2.5-2.5-2.5-2.5 1.1-2.5 2.5 1.1 2.5 2.5 2.5M113.4 389.8c1.4 0 2.5-1.1 2.5-2.5s-1.1-2.5-2.5-2.5-2.5 1.1-2.5 2.5 1.1 2.5 2.5 2.5"/><path fill="#ccc" d="M43.1 265.9h43v1.2h-43zM43.1 269c1.4 0 2.5-1.1 2.5-2.5s-1.1-2.5-2.5-2.5-2.5 1.1-2.5 2.5 1.1 2.5 2.5 2.5M86.1 269c1.4 0 2.5-1.1 2.5-2.5s-1.1-2.5-2.5-2.5-2.5 1.1-2.5 2.5 1.1 2.5 2.5 2.5"/><path fill="#ccc" d="M49.1 273.9h21v1.2h-21zM49.1 277c1.4 0 2.5-1.1 2.5-2.5s-1.1-2.5-2.5-2.5-2.5 1.1-2.5 2.5 1.1 2.5 2.5 2.5M70.1 277c1.4 0 2.5-1.1 2.5-2.5s-1.1-2.5-2.5-2.5-2.5 1.1-2.5 2.5 1.1 2.5 2.5 2.5"/><path fill="#ccc" d="M51.1 250.9h47v1.2h-47zM51.1 254c1.4 0 2.5-1.1 2.5-2.5s-1.1-2.5-2.5-2.5-2.5 1.1-2.5 2.5 1.1 2.5 2.5 2.5M98.1 254c1.4 0 2.5-1.1 2.5-2.5s-1.1-2.5-2.5-2.5-2.5 1.1-2.5 2.5 1.1 2.5 2.5 2.5"/><path fill="#ccc" d="M46.6 439.5h47v1.2h-47zM46.6 442.6c1.4 0 2.5-1.1 2.5-2.5s-1.1-2.5-2.5-2.5-2.5 1.1-2.5 2.5 1.1 2.5 2.5 2.5M93.6 442.6c1.4 0 2.5-1.1 2.5-2.5s-1.1-2.5-2.5-2.5-2.5 1.1-2.5 2.5 1.1 2.5 2.5 2.5"/><path fill="#ccc" d="M50.1 459.2h47v1.2h-47zM50.1 462.3c1.4 0 2.5-1.1 2.5-2.5s-1.1-2.5-2.5-2.5-2.5 1.1-2.5 2.5 1.1 2.5 2.5 2.5M97.1 462.3c1.4 0 2.5-1.1 2.5-2.5s-1.1-2.5-2.5-2.5-2.5 1.1-2.5 2.5 1.1 2.5 2.5 2.5"/><path fill="#ccc" d="M48.8 301.1H12.1v-1.2h36.2l17-17h21.8v1.2H65.8zM12.1 303c1.4 0 2.5-1.1 2.5-2.5s-1.1-2.5-2.5-2.5-2.5 1.1-2.5 2.5 1.1 2.5 2.5 2.5M87.1 286c1.4 0 2.5-1.1 2.5-2.5s-1.1-2.5-2.5-2.5-2.5 1.1-2.5 2.5 1.1 2.5 2.5 2.5"/><path fill="#ccc" d="M49.8 311.1H15.1v-1.2h34.2l18.5-18.5h32.8v1.2H68.3zM15.1 313c1.4 0 2.5-1.1 2.5-2.5s-1.1-2.5-2.5-2.5-2.5 1.1-2.5 2.5 1.1 2.5 2.5 2.5M100.6 294.5c1.4 0 2.5-1.1 2.5-2.5s-1.1-2.5-2.5-2.5-2.5 1.1-2.5 2.5 1.1 2.5 2.5 2.5"/><path fill="#ccc" d="M51.1 156.9h36v1.2h-36zM51.1 160c1.4 0 2.5-1.1 2.5-2.5s-1.1-2.5-2.5-2.5-2.5 1.1-2.5 2.5 1.1 2.5 2.5 2.5M87.1 160c1.4 0 2.5-1.1 2.5-2.5s-1.1-2.5-2.5-2.5-2.5 1.1-2.5 2.5 1.1 2.5 2.5 2.5"/><path fill="#ccc" d="M51.1 146.9h27v1.2h-27zM51.1 150c1.4 0 2.5-1.1 2.5-2.5s-1.1-2.5-2.5-2.5-2.5 1.1-2.5 2.5 1.1 2.5 2.5 2.5M78.1 150c1.4 0 2.5-1.1 2.5-2.5s-1.1-2.5-2.5-2.5-2.5 1.1-2.5 2.5 1.1 2.5 2.5 2.5"/><path fill="#ccc" d="M52.1 135.9h14.5v1.2H52.1zM52.1 139c1.4 0 2.5-1.1 2.5-2.5s-1.1-2.5-2.5-2.5-2.5 1.1-2.5 2.5 1.1 2.5 2.5 2.5M66.6 139c1.4 0 2.5-1.1 2.5-2.5S68 134 66.6 134s-2.5 1.1-2.5 2.5 1.1 2.5 2.5 2.5"/><path fill="#ccc" d="M92.8 107.1H8.1v-1.2h84.2l17-17h50.8v1.2h-50.3zM160.1 92c1.4 0 2.5-1.1 2.5-2.5s-1.1-2.5-2.5-2.5-2.5 1.1-2.5 2.5 1.1 2.5 2.5 2.5M8.1 109c1.4 0 2.5-1.1 2.5-2.5S9.5 104 8.1 104s-2.5 1.1-2.5 2.5 1.1 2.5 2.5 2.5"/><path fill="#ccc" d="M87.8 96.3H2.1V95h85.2l16.6-16.5h45.2v1.2h-44.7zM149.1 81.6c1.4 0 2.5-1.1 2.5-2.5s-1.1-2.5-2.5-2.5-2.5 1.1-2.5 2.5 1.1 2.5 2.5 2.5M2.1 98.2c1.4 0 2.5-1.1 2.5-2.5s-1.1-2.5-2.5-2.5-2.5 1.1-2.5 2.5c0 1.3 1.1 2.5 2.5 2.5"/><path fill="#ccc" d="M78 86H29.1v-1.2h48.3l15.9-15.9h47.3v1.2H93.8zM140.6 72c1.4 0 2.5-1.1 2.5-2.5S142 67 140.6 67s-2.5 1.1-2.5 2.5 1.1 2.5 2.5 2.5M29.1 87.9c1.4 0 2.5-1.1 2.5-2.5s-1.1-2.5-2.5-2.5-2.5 1.1-2.5 2.5 1.1 2.5 2.5 2.5"/><path fill="#ccc" d="M70.3 78.6H38.1v-1.2h31.7l18.5-18.5h41.3v1.2H88.8zM129.6 62c1.4 0 2.5-1.1 2.5-2.5S131 57 129.6 57s-2.5 1.1-2.5 2.5 1.1 2.5 2.5 2.5M38.1 80.5c1.4 0 2.5-1.1 2.5-2.5s-1.1-2.5-2.5-2.5-2.5 1.1-2.5 2.5 1.1 2.5 2.5 2.5"/><path fill="#ccc" d="M69.3 66.7H48.1v-1.2h20.7l15.8-15.8h53.8V51H85.1zM138.4 52.9c1.4 0 2.5-1.1 2.5-2.5s-1.1-2.5-2.5-2.5-2.5 1.1-2.5 2.5c0 1.3 1.1 2.5 2.5 2.5M48.1 68.6c1.4 0 2.5-1.1 2.5-2.5s-1.1-2.5-2.5-2.5-2.5 1.1-2.5 2.5 1.1 2.5 2.5 2.5"/><path fill="#ccc" d="M50.1 28.4h37v1.2h-37zM87.1 31.5c1.4 0 2.5-1.1 2.5-2.5s-1.1-2.5-2.5-2.5-2.5 1.1-2.5 2.5 1.1 2.5 2.5 2.5M50.1 31.5c1.4 0 2.5-1.1 2.5-2.5s-1.1-2.5-2.5-2.5-2.5 1.1-2.5 2.5 1.1 2.5 2.5 2.5"/><path fill="#ccc" d="M49.1 11.9h32.2v1.2H49.1zM81.3 15c1.4 0 2.5-1.1 2.5-2.5S82.7 10 81.3 10s-2.5 1.1-2.5 2.5S80 15 81.3 15M49.1 15c1.4 0 2.5-1.1 2.5-2.5S50.5 10 49.1 10s-2.5 1.1-2.5 2.5 1.1 2.5 2.5 2.5"/><path fill="#ccc" d="M25.1 1.9h45.5v1.2H25.1zM70.6 5c1.4 0 2.5-1.1 2.5-2.5S72 0 70.6 0s-2.5 1.1-2.5 2.5S69.2 5 70.6 5M25.1 5c1.4 0 2.5-1.1 2.5-2.5S26.5 0 25.1 0s-2.5 1.1-2.5 2.5S23.7 5 25.1 5"/></svg>