<svg xmlns="http://www.w3.org/2000/svg" xmlns:xlink="http://www.w3.org/1999/xlink" viewBox="46.5 0 253.5 300" enable-background="new 46.5 0 253.5 300"><g><defs><path id="a" d="M46.5 0h284.2v300H46.5z"/></defs><clipPath id="b"><use xlink:href="#a" overflow="visible"/></clipPath><path clip-path="url(#b)" d="M46.5 290.2c0 5.4 4.4 9.8 9.8 9.8h264.6c5.4 0 9.8-4.4 9.8-9.8v-48.4c0-5.4-4.4-9.8-9.8-9.8H56.3c-5.4 0-9.8 4.4-9.8 9.8v48.4z"/><defs><path id="c" d="M46.5 0h284.2v300H46.5z"/></defs><clipPath id="d"><use xlink:href="#c" overflow="visible"/></clipPath><path clip-path="url(#d)" d="M46.5 212.9c0 5.4 4.4 9.8 9.8 9.8h264.6c5.4 0 9.8-4.4 9.8-9.8v-48.4c0-5.4-4.4-9.8-9.8-9.8H56.3c-5.4 0-9.8 4.4-9.8 9.8v48.4z"/><defs><path id="e" d="M46.5 0h284.2v300H46.5z"/></defs><clipPath id="f"><use xlink:href="#e" overflow="visible"/></clipPath><path clip-path="url(#f)" d="M46.5 135.5c0 5.4 4.4 9.8 9.8 9.8h264.6c5.4 0 9.8-4.4 9.8-9.8V87.1c0-5.4-4.4-9.8-9.8-9.8H56.3c-5.4 0-9.8 4.4-9.8 9.8v48.4z"/><defs><path id="g" d="M46.5 0h284.2v300H46.5z"/></defs><clipPath id="h"><use xlink:href="#g" overflow="visible"/></clipPath><path clip-path="url(#h)" d="M46.5 58.2c0 5.4 4.4 9.8 9.8 9.8h264.6c5.4 0 9.8-4.4 9.8-9.8V9.8c0-5.4-4.4-9.8-9.8-9.8H56.3c-5.4 0-9.8 4.4-9.8 9.8v48.4z"/><defs><path id="i" d="M46.5 0h284.2v300H46.5z"/></defs><clipPath id="j"><use xlink:href="#i" overflow="visible"/></clipPath><path clip-path="url(#j)" fill="#F1F1F1" d="M264.2 255.2c0 3.2-2.6 5.7-5.7 5.7-3.2 0-5.7-2.6-5.7-5.7 0-3.2 2.6-5.7 5.7-5.7 3.1-.1 5.7 2.5 5.7 5.7"/><defs><path id="k" d="M46.5 0h284.2v300H46.5z"/></defs><clipPath id="l"><use xlink:href="#k" overflow="visible"/></clipPath><path clip-path="url(#l)" fill="#F1F1F1" d="M92.3 274.6c0 1.2-.9 2.1-2.1 2.1H73.1c-1.2 0-2.1-.9-2.1-2.1v-17.1c0-1.2.9-2.1 2.1-2.1h17.1c1.2 0 2.1.9 2.1 2.1v17.1z"/><defs><path id="m" d="M46.5 0h284.2v300H46.5z"/></defs><clipPath id="n"><use xlink:href="#m" overflow="visible"/></clipPath><path clip-path="url(#n)" fill="#F1F1F1" d="M264.2 177.8c0 3.2-2.6 5.7-5.7 5.7-3.2 0-5.7-2.6-5.7-5.7s2.6-5.7 5.7-5.7 5.7 2.6 5.7 5.7"/><defs><path id="o" d="M46.5 0h284.2v300H46.5z"/></defs><clipPath id="p"><use xlink:href="#o" overflow="visible"/></clipPath><path clip-path="url(#p)" fill="#F1F1F1" d="M92.3 197.2c0 1.2-.9 2.1-2.1 2.1H73.1c-1.2 0-2.1-.9-2.1-2.1v-17.1c0-1.2.9-2.1 2.1-2.1h17.1c1.2 0 2.1.9 2.1 2.1v17.1z"/><defs><path id="q" d="M46.5 0h284.2v300H46.5z"/></defs><clipPath id="r"><use xlink:href="#q" overflow="visible"/></clipPath><path clip-path="url(#r)" fill="#F1F1F1" d="M264.2 100.5c0 3.2-2.6 5.7-5.7 5.7-3.2 0-5.7-2.6-5.7-5.7 0-3.2 2.6-5.7 5.7-5.7 3.1-.1 5.7 2.5 5.7 5.7"/><defs><path id="s" d="M46.5 0h284.2v300H46.5z"/></defs><clipPath id="t"><use xlink:href="#s" overflow="visible"/></clipPath><path clip-path="url(#t)" fill="#F1F1F1" d="M92.3 119.9c0 1.2-.9 2.1-2.1 2.1H73.1c-1.2 0-2.1-.9-2.1-2.1v-17.1c0-1.2.9-2.1 2.1-2.1h17.1c1.2 0 2.1.9 2.1 2.1v17.1z"/><defs><path id="u" d="M46.5 0h284.2v300H46.5z"/></defs><clipPath id="v"><use xlink:href="#u" overflow="visible"/></clipPath><path clip-path="url(#v)" fill="#F1F1F1" d="M264.2 23.1c0 3.2-2.6 5.7-5.7 5.7-3.2 0-5.7-2.6-5.7-5.7s2.6-5.7 5.7-5.7 5.7 2.6 5.7 5.7"/><defs><path id="w" d="M46.5 0h284.2v300H46.5z"/></defs><clipPath id="x"><use xlink:href="#w" overflow="visible"/></clipPath><path clip-path="url(#x)" fill="#F1F1F1" d="M92.3 42.5c0 1.2-.9 2.1-2.1 2.1H73.1c-1.2 0-2.1-.9-2.1-2.1v-17c0-1.2.9-2.1 2.1-2.1h17.1c1.2 0 2.1.9 2.1 2.1v17z"/></g></svg>