<svg xmlns="http://www.w3.org/2000/svg" viewBox="366.5 0 291 285" enable-background="new 366.5 0 291 285"><g><path fill="#E6E6E6" d="M620.3 86.1h29.9c4 0 7.3 4.4 7.3 9.8s-3.3 9.8-7.3 9.8h-29.9M620.3 135.8h29.9c4 0 7.3 4.4 7.3 9.8s-3.3 9.8-7.3 9.8h-29.9M620.3 185.5h29.9c4 0 7.3 4.4 7.3 9.8s-3.3 9.8-7.3 9.8h-29.9M453.5 37.8V7.4c0-4.1 4.3-7.4 9.6-7.4s9.6 3.3 9.6 7.4v30.4M502.3 37.8V7.4c0-4.1 4.3-7.4 9.6-7.4s9.6 3.3 9.6 7.4v30.4M551.2 37.8V7.4c0-4.1 4.3-7.4 9.6-7.4s9.6 3.3 9.6 7.4v30.4M472.8 247.2v30.4c0 4.1-4.3 7.4-9.6 7.4s-9.6-3.3-9.6-7.4v-30.4M521.6 247.2v30.4c0 4.1-4.3 7.4-9.6 7.4s-9.6-3.3-9.6-7.4v-30.4M570.5 247.2v30.4c0 4.1-4.3 7.4-9.6 7.4s-9.6-3.3-9.6-7.4v-30.4M403.7 105.7h-29.9c-4 0-7.3-4.4-7.3-9.8s3.3-9.8 7.3-9.8h29.9M403.7 155.4h-29.9c-4 0-7.3-4.4-7.3-9.8s3.3-9.8 7.3-9.8h29.9M403.7 205.1h-29.9c-4 0-7.3-4.4-7.3-9.8s3.3-9.8 7.3-9.8h29.9"/><path fill="#E6E6E6" d="M581.4 84.3c0-4.6-3.1-8.3-6.8-8.3H449.4c-3.7 0-6.8 3.7-6.8 8.3v117.5c0 4.6 3.1 8.3 6.8 8.3h125.2c3.7 0 6.8-3.7 6.8-8.3V84.3zm34.3 146.6c0 6.8-4.6 12.4-10.1 12.4H418.5c-5.6 0-10.1-5.6-10.1-12.4V55.3c0-6.8 4.6-12.4 10.1-12.4h187.1c5.6 0 10.1 5.6 10.1 12.4v175.6z"/><path fill="none" d="M561.1 142.8l-14.6-.1"/><path fill="#D0D2D3" d="M543.1 148.3c-1.9-1.2-3.2-3.2-3.1-5.6 0-3.6 3-6.5 6.6-6.5l14.6.1c3.6 0 6.5 3 6.5 6.6 0 3.6-3 6.5-6.6 6.5l-14.6-.1c-1.3-.1-2.4-.4-3.4-1z"/><path fill="none" d="M554.7 118.2l-12.7 7.2"/><path fill="#D0D2D3" d="M538.6 131c-.9-.6-1.7-1.3-2.3-2.3-1.8-3.1-.7-7.1 2.4-8.9l12.7-7.2c3.1-1.8 7.1-.7 8.9 2.4 1.8 3.1.7 7.1-2.4 8.9l-12.7 7.2c-2.1 1.2-4.6 1.1-6.6-.1z"/><path fill="none" d="M536.8 100.2l-7.3 12.5"/><path fill="#58595B" d="M526.1 118.3c-3-1.8-4-5.8-2.2-8.9l7.4-12.6c1.8-3.1 5.8-4.1 8.9-2.3h.1c3 1.8 4 5.8 2.2 8.9l-7.4 12.6c-1.9 3.1-5.8 4.2-9 2.3z"/><path fill="none" d="M512.3 93.4l-.1 14.6"/><path fill="#6D6E70" d="M508.9 113.6c-1.9-1.1-3.2-3.2-3.1-5.6l.1-14.6c0-3.6 3-6.5 6.6-6.5 3.6 0 6.5 3 6.5 6.6l-.1 14.6c0 3.6-3 6.5-6.6 6.5-1.3-.1-2.5-.5-3.4-1z"/><path fill="none" d="M487.7 99.8l7.2 12.7"/><path fill="#808184" d="M491.6 118.1c-.9-.6-1.7-1.3-2.3-2.3l-7.2-12.7c-1.8-3.1-.7-7.1 2.4-8.9 3.1-1.8 7.1-.7 8.9 2.4l7.2 12.7c1.8 3.1.7 7.1-2.4 8.9-2.2 1.2-4.7 1-6.6-.1z"/><path fill="none" d="M469.7 117.7l12.5 7.3"/><path fill="#929497" d="M466.3 123.2c-3-1.8-4-5.8-2.2-8.9 1.8-3.1 5.8-4.1 8.9-2.3l12.6 7.4c3.1 1.8 4.1 5.8 2.3 8.9-1.8 3.1-5.8 4.1-8.9 2.3l-12.7-7.4c0 .1 0 .1 0 0z"/><path fill="none" d="M462.9 142.2l14.6.1"/><path fill="#A6A8AB" d="M459.5 147.7c-1.9-1.1-3.2-3.2-3.1-5.6 0-3.6 3-6.5 6.6-6.5l14.6.1c3.6 0 6.5 3 6.5 6.6 0 3.6-3 6.5-6.6 6.5l-14.6-.1c-1.2 0-2.4-.4-3.4-1z"/><path fill="none" d="M469.3 166.8l12.7-7.2"/><path fill="#BBBDBF" d="M465.9 172.3c-.9-.6-1.7-1.3-2.3-2.3-1.8-3.1-.7-7.1 2.4-8.9l12.7-7.2c3.1-1.8 7.1-.7 8.9 2.4 1.8 3.1.7 7.1-2.4 8.9l-12.7 7.2c-2.1 1.2-4.6 1.1-6.6-.1z"/><path fill="none" d="M487.2 184.8l7.3-12.5"/><path fill="#D0D2D3" d="M483.8 190.4c-3-1.8-4-5.8-2.2-8.9l7.4-12.6c1.8-3.1 5.8-4.1 8.9-2.3 3.1 1.8 4.1 5.8 2.3 8.9l-7.4 12.6c-1.8 3.1-5.8 4.2-9 2.3z"/><path fill="none" d="M511.7 191.6l.1-14.6"/><path fill="#D0D2D3" d="M508.3 197.2c-1.9-1.2-3.2-3.2-3.1-5.6l.1-14.6c0-3.6 3-6.5 6.6-6.5 3.6 0 6.5 3 6.5 6.6l-.1 14.6c0 3.6-3 6.5-6.6 6.5-1.3-.1-2.4-.5-3.4-1zM532.9 190.7c-.9-.6-1.7-1.3-2.3-2.3l-7.2-12.7c-1.8-3.1-.7-7.1 2.4-8.9 3.1-1.8 7.1-.7 8.9 2.4l7.2 12.7c1.8 3.1.7 7.1-2.4 8.9-2.2 1.2-4.7 1.1-6.6-.1z"/><path fill="none" d="M554.3 167.3l-12.5-7.3"/><path fill="#D0D2D3" d="M538.4 165.5c-3-1.8-4-5.8-2.2-8.9 1.8-3.1 5.8-4.1 8.9-2.3l12.6 7.4c3.1 1.8 4.1 5.8 2.3 8.9-1.8 3.1-5.8 4.1-8.9 2.3l-12.7-7.4c.1.1 0 0 0 0z"/></g></svg>