<svg baseProfile="basic" xmlns="http://www.w3.org/2000/svg" width="808.9" height="368.4" viewBox="0.5 424.1 808.9 368.4"><style type="text/css"><![CDATA[
	.st0{fill:none;stroke:#CCCCCC;stroke-miterlimit:10;}
]]></style><g id="lines_1_"><path id="line-6" class="st0" d="M526.4 648.1L502 672.3v23.6"/><path id="line-5" class="st0" d="M557.8 644.9l23.1 22.7h62v28.3"/><path id="line-4" class="st0" d="M605.4 599.1h51.3l46.7 46.9v54.2"/><path id="line-8" class="st0" d="M447.4 599.1h-73.7l-71.1 71.1h-35.5l-24.8-25H107.4L.9 759.2"/><path id="line-3" class="st0" d="M605.4 572.8h57.9l39 39.5h107.1"/><path id="line-10" class="st0" d="M447.4 546.5H406v-53.9l-47.1-47.8"/><path id="line-2" class="st0" d="M600.4 540l30.6-29.5v-64.7"/><path id="line-1" class="st0" d="M553.7 501.9l31.8-31.7H683l63.5 63.4"/><path id="line-12" class="st0" d="M530.3 497.7l46.8-46.8v-9.7"/><path id="line-11" class="st0" d="M499.4 493.2v-40.1H412l-6.9-7"/></g><g id="monitor"><path d="M598.3 783.7s-8.3-7-12.9-11.6-5.8-10.4-5.8-10.4l-3.6-38.8H475.5l-3.7 39s-1.2 6.1-5.8 10.5c-4.6 4.6-12.9 11.5-12.9 11.5s-7.5 5.3 3.7 7c6.4.9 35 1.7 58 1.7h21.7c23.4 0 51.6-.8 57.9-1.7 11.4-1.8 3.9-7.2 3.9-7.2M745.2 695H304.5V445.4h440.6V695zm7.9-270.9h-455c-6.6 0-12.1 5.8-12.1 12.4v267.2c0 6.6 5.5 12.8 12.1 12.8h455c6.6 0 11.6-6.2 11.6-12.8V436.4c-.1-6.6-5.1-12.3-11.6-12.3"/></g><g id="chip"><g id="chip-edges"><path id="r-1" d="M585.1 539.7h16.2c2.1 0 3.9 2.4 3.9 5.3s-1.7 5.3-3.9 5.3h-16.2"/><path id="r-2" d="M585.1 566.7h16.2c2.1 0 3.9 2.4 3.9 5.3s-1.7 5.3-3.9 5.3h-16.2"/><path id="r-3" d="M585.1 593.6h16.2c2.1 0 3.9 2.4 3.9 5.3s-1.7 5.3-3.9 5.3h-16.2"/><path id="t-1" d="M494.7 513.6V497c0-2.2 2.4-3.9 5.3-3.9s5.3 1.8 5.3 3.9v16.5"/><path id="t-2" d="M521.1 513.6V497c0-2.2 2.4-3.9 5.3-3.9s5.3 1.8 5.3 3.9v16.5"/><path id="t-3" d="M547.6 513.6V497c0-2.2 2.4-3.9 5.3-3.9s5.3 1.8 5.3 3.9v16.5"/><path id="b-1" d="M505.2 627.1v16.5c0 2.2-2.4 3.9-5.3 3.9s-5.3-1.8-5.3-3.9v-16.5"/><path id="b-2" d="M531.6 627.1v16.5c0 2.2-2.4 3.9-5.3 3.9s-5.3-1.8-5.3-3.9v-16.5"/><path id="b-3" d="M558.1 627.1v16.5c0 2.2-2.4 3.9-5.3 3.9s-5.3-1.8-5.3-3.9v-16.5"/><path id="l-1" d="M467.7 550.3h-16.2c-2.1 0-3.9-2.4-3.9-5.3s1.7-5.3 3.9-5.3h16.2"/><path id="l-2" d="M467.7 577.3h-16.2c-2.1 0-3.9-2.4-3.9-5.3s1.7-5.3 3.9-5.3h16.2"/><path id="l-3" d="M467.7 604.2h-16.2c-2.1 0-3.9-2.4-3.9-5.3s1.7-5.3 3.9-5.3h16.2"/></g><path id="chip-border" d="M577 516.4H475.7c-3 0-5.5 3-5.5 6.7v95.2c0 3.7 2.5 6.7 5.5 6.7H577c3 0 5.5-3 5.5-6.7v-95.2c.1-3.7-2.4-6.7-5.5-6.7zm-13 86.1c0 2.5-1.7 4.5-3.7 4.5h-67.9c-2 0-3.7-2-3.7-4.5v-63.7c0-2.5 1.7-4.5 3.7-4.5h67.9c2 0 3.7 2 3.7 4.5v63.7z"/><path id="arrow" d="M555.1 597.8l-.7-19.4-7 7-31.3-31.3-11.7 11.9-21.3-21.3-4.6 4.7 25.9 25.8 11.7-11.7 26.7 26.5-7.1 7.1z"/><g id="chip-graph"><path id="bar-1" d="M492.5 571.7v36.4h11.9v-24.7l-4.1-4z"/><path id="bar-2" d="M507.6 580.7v27.4h11.8v-31.3l-3.9-4z"/><path id="bar-3" d="M522.7 579.4v35.3h11.7v-23.4l-6.6-6.6z"/></g></g></svg>