<svg xmlns="http://www.w3.org/2000/svg" viewBox="0 0 56.8 55" enable-background="new 0 0 56.8 55"><path fill="#134268" d="M37.2 3.7V18.6s1.2.1 3.5.1c1.2 0 2.4 0 3.7.1h.7c.1 0 .1 0 .2-.1s.1-.1.1-.2v-2.1c0-.1 0-.3.1-.4 0-.1.1-.2.3-.2h.2c.1 0 .1.1.1.1v3.7c0 .1 0 .1-.1.2-.1 0-.1.1-.2.1H40.4l-.2.7c-.1.3-.2.4-.2.4h-1.7c-.1-.4-.3-.7-.5-1.1-.3-.5-.5-1-.7-1.6 0-.2-.2-.6-.5-1.2-.1-.2-.3-.5-.6-.6-.4-.3-1-.4-1.6-.5-.7 0-1.3.1-1.8.4-.6.4-.9.6-1.1.7-.4.3-.7.6-.9.9-.1.1-.2.3-.5.5-.9.9-1.5 1.5-1.7 1.6-.2.2-.3.3-.4.3-.3.2-.6.4-.9.7h-.5c-.8 0-1.5-.2-2-.5-.1-.1-.4-.2-.9-.4l-1.1-1.5c-.9-1.3-1.6-2.2-2.1-2.9-.3-.4-.4-.8-.3-1.3l.3-1.2c0-.1.1-.2.1-.3 0-.3-.1-.5-.2-.6-.1-.2-.3-.3-.6-.3l-1.5-.4c-.5-.1-.8-.4-.9-.8 0-.2-.2-.9-.6-2l-.2-.6s-.1-.1-.2-.3c-.1-.1-.1-.3-.1-.4 0-.1.1-.2.3-.3.2 0 .3-.1.4-.2.1 0 .2-.1.2-.2v-.2l-.5-1.1c-.1-.3-.1-.5 0-.6.2-.3.2-.7.1-1.3l-.6-1.8c-.3-.7-.8-1.1-1.6-1.4-.9-.3-1.6-.5-2.2-.6-1.2-.3-2.3 0-3.2.8-.5.5-1 1.1-1.4 1.9-.2.4-.2.8-.2 1.3.1.4.2 1.2.5 2.4 0 .2.1.4.1.7v.3c0 .1-.1.2-.2.3-.1.1-.2.1-.4 0-.6-.2-1.2-.3-1.9-.2-.4.1-.9.1-1.5.2-.8.4-1.4.4-1.7.5-.6.1-1.1.1-1.6.1H.5c-.1 0-.2.1-.4.2 0 0-.1.1-.1.2 0 .4 0 .7.1.8.1.3.2.6.4 1.1.4 1.2.6 2.3.6 3.5v2.1c0 .6.1 1.3.4 2l.5 1.2c1.3 2.8 2.2 4.9 2.8 6.3.1.3.4 1.1.9 2.4.2.5.3 1 .3 1.6v1.9c0 .7-.1 1.4-.1 1.9-.1.8-.2 2.1-.2 3.7v1c0 .1 0 .3.1.4.1.2.3.4.6.4s.5 0 .6-.2c.2-.3.4-.6.5-.7.1-.1.2-.2.4-.2.5.1 1.5.1 2.9.1h2.4c.2 0 .5 0 .7.1.2 0 .3.1.4.3.1.2.1.3 0 .4-.2.3-.5.7-.9 1.3-.1.2-.4.5-.6.9-.2.4-.5.6-.7.9-.4.2-.7.6-1.1 1.2-.2.3-.5.4-.9.4h-.8c-.5 0-1.2.1-2 .2-1.5.3-2.5.9-3.1 2.1v.1c.1.1.1.1.2.1h.2v.2c0 .1 0 .1-.1.1-.4.2-.6.6-.7.9-.1.3-.1.7 0 1.1 0 .3.2.4.5.5.6.2 1.2.1 1.7-.1v-.7c.1-.7-.1-1.4-.5-2.1-.1-.1-.1-.3-.1-.4 0-.1.1-.2.3-.3.3-.2.5-.3.7-.4.6-.2 1-.3 1.4-.3h1.8c.8.1 1.8.1 3 .1H15c.1 0 .3 0 .6.1.2.1.4.1.6 0 .1.1.1.3 0 .4-.2.2-.4.5-.7.8-.3.2-.7.7-1.3 1.2-.5.6-.9 1-1.2 1.2l-.1.1c-.8 1-1.1 2.1-.8 3.3 0 0 0 .1.1.2 0 0 .1.1.1.2 0 0-.1 0-.1.1-.1 0-.1.1-.1.1-.1.4-.1.8.1 1.1.2.3.5.6.7.9.3.3.6.5.9.5.2 0 .5-.2.8-.4.1-.1.2-.2.3-.4.1-.2.2-.4.3-.5.2-.2.2-.5.1-.9s-.4-.7-.8-.9l-.5-.1c-.1 0-.1-.1-.2-.2 0-.1-.1-.1 0-.2.2-1 .6-1.9 1.2-2.9.7-1.1 1.5-2.1 2.4-3h1c.1 0 .3 0 .6-.1s.4-.2.5-.4c0-.1.1-.1.2-.2h.2c.4.1 1.1.3 1.9.5 1.8.5 3.5 1.2 4.9 2 .7.4 1.1.7 1.4 1.1.2.2.4.4.5.4-.5.3-.7.7-.7 1.1 0 .2 0 .4.1.7 0 .3.2.5.6.6.4.1.7.2 1.1.1.3 0 .5-.1.5-.3.3-.8.2-1.5-.2-2-.1-.1-.2-.2-.2-.4-.1-.2-.2-.3-.2-.4-.2-.3-.3-.6-.4-.8-.2-.2-.4-.4-.5-.4-.2 0-.4-.1-.6-.3-.2-.2-.4-.3-.5-.3-.2 0-.4-.2-.6-.3-.8.3-1 .2-1 .2-1.3-.5-2.5-1-3.7-1.3-.3-.1-.9-.3-2-.6h-.1s-.1-.1 0-.1l.1-.1 5-1.7c.4-.1.8-.2 1.1-.3.4-.1.7.1.9.4-.5.2-.7.3-.7.3-.3.2-.5.3-.5.4-.1.2-.1.4 0 .7 0 .2.1.4.3.8 0 .1.1.1.3.2.3.1.6.1.9 0 .1 0 .2-.1.4-.2.1-.1.1-.2.2-.3.4-.5.5-1 .3-1.6-.2-.6-.5-1-1.1-1.2h-.7.2l.3.1c-.2-.2-.4-.3-.6-.3-.2 0-.4 0-.7.1-.1.1-.3.2-.5.2s-.4 0-.5.1c-.4.1-.8.2-1.2.2-.2.1-.8.2-1.8.4-.7.2-1.4.4-1.8.5H19.8c-.1 0-.1-.1-.1-.2l-.3-3.2v-.1c0-.1 0-.1.1-.2.1 0 .1-.1.2-.1.2 0 .4 0 .4.1l.2.6c.1.2.2.3.5.4.6.1 1.2 0 1.7-.3.2-.1.3-.3.3-.5v-.4c0-.3.2-.5.5-.4.5 0 1 .1 1.4.1.9.1 1.7.1 2.4 0 1-.1 1.8-.5 2.4-1.1.6-.6.9-1.1 1.1-1.5 0-.1.1-.2.2-.3.1-.2.3-.3.5-.2l.6.1c.6.1 1.1.1 1.4 0h.2c.1 0 .1.1.1.2l.1 6.2v1.5c.1.5.1 1.3.1 2.3.1.7 0 1.6-.3 2.6 0 .2-.1.5-.2.9-.2.6-.2 1.1-.3 1.5 0 .3.1.5.4.6.2.1.3.1.3.2.9.3 1.5.5 1.7.5.6.2 1.2.3 1.8.3.4 0 .7.1.9.2l.9.4c.7.3 1.3.5 1.9.6 1.5.3 3.1.4 4.8.3.2 0 .4-.1.7-.2.2 0 .2-.1.3-.2.2-.4.2-.6.3-.6.1-.2.1-.5 0-.7h3.2c.7 0 1.8 0 3.2.1h1.3c.2 0 .4 0 .4-.1s.1-.2.2-.4v-.4c0-.5-.1-1.1-.3-1.7-3.1-7.7-5.3-13.5-6.9-17.4-.1-.3-.3-.7-.5-1.2-1-2.2-.6-4.2 1-6.1.7-.7 1.5-1.4 2.5-1.8l1.2-.6c1.3-.6 2.6-.9 3.9-.8h.7c.1 0 .1 0 .2-.1.1-.2 0-.4 0-.5 0-.1-.1-.1-.2-.1-.2 0-.5-.1-.7 0h-5.7c-.2 0-.4 0-.4-.1-.1 0-.1-.2-.2-.5l-.1-.2c-.2 0-.4-.1-.5-.1h.5c-.1 0-.2 0-.2-.1-.1-.1-.1-.1-.1-.2v-3.9c0-.3.1-.6.1-.9v-.2c0-.1-.4-.2-1.1-.3-.6-.1-1-.1-1.3-.2h-.9c-.1 0-.1 0-.2-.1s-.1-.1-.1-.2V4c0-.1 0-.2-.1-.3 0-.1-.1-.2-.2-.2-.1-.1-.2-.1-.3-.1H38c-.7.1-.8.1-.8.3m3.7 25.8c-.6-.5-1.1-.9-1.7-1.2-.3-.1-.5-.3-.7-.4-.2-.2-.3-.2-.5-.1-.3.1-.7.1-1.2.1-.1 0-.1 0-.2-.1-.1 0-.1-.1-.1-.1 0-.1.1-.2.2-.3.2-.2.5-.3.9-.3h.6c.6 0 1.2-.2 1.7-.5l1 2.9m1.2 6.5c0-.2 0-.4.1-.5l.7-.2 5.1 15s0 .2.1.4c-.3 0-.7.1-1.2 0h-1.2l-.6-.3-.3-.1-1.8-.8c-.4-.1-.6-.3-.7-.5-.1-.2-.4-.4-.7-.7-.3-.2-.6-.4-1.1-.7-.1-.1-.2-.2-.1-.3 0-.1.1-.1.2-.1 0 0 .2-.1.6-.2.6-.2 1.2-.5 1.8-1 .2-.2.4-.5.3-.7l-.3-1.4c-.2-1.3-.3-2.3-.4-3-.1-1-.2-2.5-.4-4.4 0-.2-.1-.4-.1-.5M16 40.1c0 .1 0 .1 0 0-.2.1-.2.1-.3.1l-.3-.1h-.7c0 .1 0 .1.1.2.4.2.6.3.7.4.2.1.4.2.5.3.1.1.1.3.1.5v.1c0 .1-.1.3-.1.5v.5l-.3-.4c-.6-.8-1-1.2-1.1-1.4-.1-.1-.2-.1-.3-.2h-.2c-.2.6-.1 1.2.1 1.6 0 .1.1.2.3.4 0 .1.1.2.1.3 0 .1 0 .1-.1.2-.1 0-.2.1-.2.1h-2.2v-.1c0-.1 0-.1.1-.2.3-.4.4-.6.5-.7.2-.3.3-.5.3-.8.5-.9.9-1.5 1.3-1.9.3-.4.5-.6.6-.6.1 0 .4.1.8.4.1.1.3.2.6.5-.3.1-.3.2-.3.3m-3 12.1h.2-.2m15.7-2.7h-.1c-.2-.2-.3-.4-.2-.7.1.2.1.3.1.3s.2.2.5.4h-.3z"/></svg>