<svg xmlns="http://www.w3.org/2000/svg" xmlns:xlink="http://www.w3.org/1999/xlink" preserveAspectRatio="none" width="200" height="200" viewBox="0 0 200 200"><defs><g id="a"><path fill="#ccc" d="M155.35 176.1q2.8-2.05 5.5-4.25l-.05-.05q-2.7 2.25-5.55 4.3l-1.75 1.2 1.85-1.2M13.2 134.25l.4 1.1.4.95q0 .05.05.15Q21.2 153.3 34.2 166.3q2.14 2.14 4.35 4.05.054-.104.1-.15-7.8-6.9-14.15-15.65-7.05-9.7-11.3-20.3m180.95-28.7h-.1q-.097 1.995-.25 4 .02-.09.05-.15l.3-3.6v-.25z"/><path fill="#B3B3B3" d="M112.85 117.95l.3 1.2q0-.2-.05-.35l-.25-.85z"/></g><path fill="#B3B3B3" d="M759.7 650.1q-.41-1.394-.9-2.75l-87.05-38.6q3.968 5 9.05 11.6 1.142.057 1.7.65l9.55 11.95q2.3 3.05 2.7 3.85.5 1-.1 1.6l.9 2q3.55 8.7 2.45 21.2-1.1 12.4-6.25 23.55-.55 1.2-2.75 1.9l-2.1.5q.8-3.15 1.7-8.55l-.25.05q-1.15 2.8-2.25 4.5-1.155 1.84-3.95 4.65l-.05.3-.25 5.35q1.95.35 4.75 3.6 2.15 2.5 3.2 4.5l27.35 9.2h.6q.75.15 1.5.8 2.4 2.1 3.95 8.5.95 4 6.6 27.25 3.132-2.594 6.05-5.5l.3-.3 3.85-4.15.3-.35q.2-.227.4-.45l.85-1q8.91-10.664 14.4-23.6 2.974-7.042 4.75-14.35l2.05-12.25q.04-.12.05-.25.148-2 .25-4.05h.05q.05-.38.05-.75l.15-4.15V675.65l-.15-4.35q-.02-.685-.1-1.4-.014-.746-.05-1.5l-.45-4.4q-.766-6.34-2.45-12.5-.035-.225-.1-.45l-.15-.45q-.05-.247-.15-.5z" id="b"/><path fill="#ccc" d="M694.25 740.7l-.05.05h-1.25l-.05-.05q-1.15-1.15-5-1.8l-3.6-.4 1.7 1.55q2.1 1.75 3.8 2.65 2 1.05 3.15.2h1.25q1.2.85 3.1-.2 2.8-1.45 5.55-4.2-1.7.1-3.6.4-3.85.65-5 1.8M662.3 636.35q2.1 1.75 3.8 2.65 2 1.05 3.15.2h1.25q1.2.85 3.1-.2 2.8-1.45 5.55-4.2-1.7.1-3.6.4-3.85.65-5 1.8l-.05.05h-1.25l-.05-.05q-1.15-1.15-5-1.8l-3.6-.4 1.7 1.55m43.7-46.9q-.136-.057-.3-.15l-6.35-2.4q-1.09-.3-2.2-.65 7.203 2.324 14.05 5.8v.05q-14.4-4.8-29.65-4.8-19 0-36.4 7.35-16.75 7.1-29.7 20.05-12.95 12.95-20.05 29.7-7.35 17.4-7.35 36.4 0 26.85 14.15 49.45 3.348 5.388 7.25 10.15 4.917-15.268 6-19.95 1.55-6.4 3.95-8.5.75-.65 1.5-.8.4-.05.6 0l27.8-9.35q1.25-2.2 3.25-4.5 2.75-3.1 4.65-3.45l-.25.85q-.25 1.05.05 2.35.25 1.25 4.2 5.1l5.15 5 1.35 1.6v27.5l1.8 2.55 1.8-2.55v-27.5l1.4-1.6q.134-.18 4.1-4.05.063-.037.1-.1.428-.392.9-.85 4-3.85 4.25-5.1.212-1.104.1-2.05l-.3-1.15.25-5.35.05-.3q-.48.494-1 1l-1.5 1.4q-.425.418-.85.75l-2.25 1.85q-.01.024-.05.05-3 1.95-6.4 1.95h-.1q-.9.05-2.4-.25-2.25-.5-4.05-1.7-1.1-.72-3.15-2.65-.04-.01-.1-.05-.597-.57-1.3-1.25-3.65-3.5-5.1-5.75-.95-1.5-2.2-4.4.5 3 1.25 6.4.5 2.2.4 2-1-.1-2.1-.5-2.2-.7-2.75-1.9-3.7-7.95-5.35-16.95-1.65-8.85-.95-16.8.35-6.65 2.9-12.4-1.3-1-1.05-1.8.25-.75 2.85-4.25 2.6-3.4 9.5-11.95l7.1 7.8 1.9 1.65q2.25 1.65 4.05 1.65 1.8 0 4.1-1.65 1.15-.8 1.9-1.65l7.05-7.8q-.558-.593-1.7-.65l-5.35 5.9q-.75.85-1.9 1.65-2.3 1.65-4.1 1.65-1.8 0-4.05-1.65l-1.9-1.65-5.35-5.9 8.95-11.6q.55-.55 1.2 1.1.65-.35 1.15-.45l1.15.45q.65-1.6 1.15-1.1l87.05 38.6q.49 1.356.9 2.75.1.253.15.5-1.56-5.71-3.9-11.25-7.15-16.85-20.1-29.8-13-12.95-29.85-20.1M659.2 691.7l.05.05q1.718 1.3 3.65 2.45.05.04.05.05 1.282.75 2.65 1.45 2.3 1.15 3.9 1.75l3.85-1.35q3.917-1.636 6.9-4 .49-.354.95-.75v5.05q-.95 1.7-2.9 3.9-.974 1.1-2 2.1-3.124 2.962-6.8 4.95-4.226-2.262-7.65-5.8-.587-.606-1.15-1.25l-2.9-3.9v-5.85l1.05.85q.19.16.35.3z" id="c"/><path d="M717.75 711.15h-.6l-27.35-9.2q-1.05-2-3.2-4.5-2.8-3.25-4.75-3.6l.25.85q.03.158.05.3.112.946-.1 2.05-.25 1.25-4.25 5.1-.472.458-.9.85-.037.063-.1.1-3.966 3.87-4.1 4.05l-1.4 1.6v27.5l-1.8 2.55-1.8-2.55v-27.5l-1.35-1.6-5.15-5q-3.95-3.85-4.2-5.1-.3-1.3-.05-2.35l.25-.85q-1.9.35-4.65 3.45-2 2.3-3.25 4.5l-27.8 9.35q-.2-.05-.6 0-.75.15-1.5.8-2.4 2.1-3.95 8.5-1.083 4.682-6 19.95-.85 2.683-1.85 5.65-.016.12-.05.2.268.262.5.5l3.85 3.15q.115.084.2.15.098.07.2.15.118.093.2.15 1.11.853 2.2 1.65 10.35 7.35 22.15 11.65 13.55 5 28 5.9 14.3.5 28.15-3.1 12.65-3.2 24.05-9.9 2.75-1.6 5.4-3.35l1.8-1.2q2.85-2.04 5.55-4.3-5.65-23.25-6.6-27.25-1.55-6.4-3.95-8.5-.75-.65-1.5-.8m-23.55 29.6l.05-.05q1.15-1.15 5-1.8 1.9-.3 3.6-.4-2.75 2.75-5.55 4.2-1.9 1.05-3.1.2h-1.25q-1.15.85-3.15-.2-1.7-.9-3.8-2.65l-1.7-1.55 3.6.4q3.85.65 5 1.8l.05.05h1.25m-34.95-49l-.05-.05q-.16-.14-.35-.3l-1.05-.85v5.85l2.9 3.9q.563.644 1.15 1.25 3.424 3.538 7.65 5.8 3.676-1.988 6.8-4.95 1.026-1 2-2.1 1.95-2.2 2.9-3.9v-5.05q-.46.396-.95.75-2.983 2.364-6.9 4l-3.85 1.35q-1.6-.6-3.9-1.75-1.368-.7-2.65-1.45 0-.01-.05-.05-1.932-1.15-3.65-2.45m12.5-83q-.5-.5-1.15 1.1l-1.15-.45q-.5.1-1.15.45-.65-1.65-1.2-1.1l-8.95 11.6 5.35 5.9 1.9 1.65q2.25 1.65 4.05 1.65 1.8 0 4.1-1.65 1.15-.8 1.9-1.65l5.35-5.9q-5.082-6.6-9.05-11.6m23.8 31.65l-.9-2q.6-.6.1-1.6-.4-.8-2.7-3.85L682.5 621l-7.05 7.8q-.75.85-1.9 1.65-2.3 1.65-4.1 1.65-1.8 0-4.05-1.65l-1.9-1.65-7.1-7.8q-6.9 8.55-9.5 11.95-2.6 3.5-2.85 4.25-.25.8 1.05 1.8-2.55 5.75-2.9 12.4-.7 7.95.95 16.8 1.65 9 5.35 16.95.55 1.2 2.75 1.9 1.1.4 2.1.5.1.2-.4-2-.75-3.4-1.25-6.4 1.25 2.9 2.2 4.4 1.45 2.25 5.1 5.75.703.68 1.3 1.25.06.04.1.05 2.05 1.93 3.15 2.65 1.8 1.2 4.05 1.7 1.5.3 2.4.25h.1q3.4 0 6.4-1.95.04-.026.05-.05l2.25-1.85q.215-.157.4-.35.243-.195.45-.4l1.5-1.4q.52-.506 1-1 2.795-2.81 3.95-4.65 1.1-1.7 2.25-4.5l.25-.05q-.9 5.4-1.7 8.55l2.1-.5q2.2-.7 2.75-1.9Q696.9 674 698 661.6q1.1-12.5-2.45-21.2M666.1 639q-1.7-.9-3.8-2.65l-1.7-1.55 3.6.4q3.85.65 5 1.8l.05.05h1.25l.05-.05q1.15-1.15 5-1.8 1.9-.3 3.6-.4-2.75 2.75-5.55 4.2-1.9 1.05-3.1.2h-1.25q-1.15.85-3.15-.2z" id="d"/><path fill="#999" d="M669.5 582.1h-.25q-16.558.042-31.85 5.6h-.05q-2.273.81-4.5 1.75-16.8 7.1-29.75 20.05-12.95 12.95-20.05 29.7-.94 2.227-1.75 4.5v.05q-5.558 15.293-5.6 31.85v.25q0 18.482 6.85 35.35-.173-.51-.4-1.05 4.31 10.61 11.35 20.3 6.358 8.77 14.1 15.6 1-2.967 1.85-5.65-3.902-4.762-7.25-10.15-14.15-22.6-14.15-49.45 0-19 7.35-36.4 7.1-16.75 20.05-29.7 12.95-12.95 29.7-20.05 17.4-7.35 36.4-7.35 15.25 0 29.65 4.8v-.05q-6.847-3.476-14.05-5.8 1.11.35 2.2.65-14.368-4.8-29.85-4.8z" id="e"/></defs><use xlink:href="#a"/><use xlink:href="#b" transform="translate(-569 -575.9)"/><use xlink:href="#c" transform="translate(-569 -575.9)"/><use xlink:href="#d" transform="translate(-569 -575.9)"/><use xlink:href="#e" transform="translate(-569 -575.9)"/></svg>