<svg xmlns="http://www.w3.org/2000/svg" viewBox="0 0 200 153.9" enable-background="new 0 0 200 153.9"><path fill="#fff" d="M79.7 43.8h41v35.4h-41z"/><path d="M124.3 48.4h6.8c.9 0 1.6 1 1.6 2.2 0 1.2-.7 2.2-1.6 2.2h-6.8M124.3 59.6h6.8c.9 0 1.6 1 1.6 2.2s-.7 2.2-1.6 2.2h-6.8M124.3 70.9h6.8c.9 0 1.6 1 1.6 2.2s-.7 2.2-1.6 2.2h-6.8M86.5 37.4v-6.9c0-.9 1-1.7 2.2-1.7 1.2 0 2.2.8 2.2 1.7v6.9M97.6 37.4v-6.9c0-.9 1-1.7 2.2-1.7 1.2 0 2.2.8 2.2 1.7v6.9M108.6 37.4v-6.9c0-.9 1-1.7 2.2-1.7s2.2.8 2.2 1.7v6.9M90.9 84.8v6.9c0 .9-1 1.7-2.2 1.7s-2.2-.8-2.2-1.7v-6.9M101.9 84.8v6.9c0 .9-1 1.7-2.2 1.7s-2.2-.8-2.2-1.7v-6.9M113 84.8v6.9c0 .9-1 1.7-2.2 1.7-1.2 0-2.2-.8-2.2-1.7v-6.9M75.2 52.8h-6.8c-.9 0-1.6-1-1.6-2.2s.7-2.2 1.6-2.2h6.8M75.2 64.1h-6.8c-.9 0-1.6-1-1.6-2.2 0-1.2.7-2.2 1.6-2.2h6.8M75.2 75.3h-6.8c-.9 0-1.6-1-1.6-2.2 0-1.2.7-2.2 1.6-2.2h6.8"/><path d="M115.5 48c0-1-.7-1.9-1.5-1.9H85.6c-.8 0-1.5.8-1.5 1.9v26.6c0 1 .7 1.9 1.5 1.9h28.3c.8 0 1.5-.8 1.5-1.9V48zm7.7 33.1c0 1.5-1 2.8-2.3 2.8H78.6c-1.3 0-2.3-1.3-2.3-2.8V41.4c0-1.5 1-2.8 2.3-2.8H121c1.3 0 2.3 1.3 2.3 2.8v39.7zM108.2 71L95.5 58.3l-5 4.9-10.8-10.8 2-1.9 8.8 8.8 5-4.9 14.6 14.7zM111.8 72.6l-.3-8.1-7.9 7.8zM85.6 61.7v15.2h4.9V66.6L88.9 65zM91.9 65.5v11.4h4.9v-13l-1.6-1.7zM98.2 65v14.7h4.9v-9.8l-2.7-2.8zM130.2 150.2s-3.5-2.9-5.4-4.8c-1.9-1.9-2.4-4.3-2.4-4.3l-1.5-16.2h-42l-1.5 16.3s-.5 2.5-2.4 4.4c-1.9 1.9-5.4 4.8-5.4 4.8s-3.1 2.2 1.6 2.9c2.7.4 14.6.7 24.2.7h9.1c9.8 0 21.5-.3 24.2-.7 4.7-.8 1.5-3.1 1.5-3.1M191.6 113.2H7.5V8.9h184.1v104.3zM194.9 0H4.8c-2.7 0-5 2.4-5 5.1v111.6c0 2.8 2.3 5.3 5.1 5.3h190c2.7 0 4.9-2.6 4.9-5.3V5.1c0-2.7-2.2-5.1-4.9-5.1"/></svg>