<svg xmlns="http://www.w3.org/2000/svg" viewBox="0 0 271.41 352.447" enable-background="new 0 0 271.41 352.447"><g><path d="M151.123 97h-30.836c-7.764 0-14.058-6.294-14.058-14.058v-55.88c0-7.765 6.293-14.06 14.057-14.06h30.836c7.764 0 14.058 6.295 14.058 14.06v55.88c0 7.764-6.293 14.058-14.057 14.058z" fill="#fff"/><circle cx="135.705" cy="216.742" r="107.742" fill="#fff"/><path d="M174.695 253.056l32.7 28.34-4.67 5.39-32.7-28.34z"/><path d="M164.743 34.503h-1.02c0-13.483-12.57-24.453-28.018-24.453-15.45 0-28.02 10.97-28.02 24.453h-1.018c0-14.045 13.027-25.47 29.038-25.47 16.012 0 29.038 11.425 29.038 25.47" fill="#231F20"/><path d="M29.547 212.058h22.415v9.366H29.547zM131.022 300.485h9.366V322.9h-9.366z"/><path d="M135.705 262.08c25.04 0 45.34-20.298 45.34-45.338 0-25.04-20.3-45.34-45.34-45.34s-45.34 20.3-45.34 45.34c0 25.04 20.3 45.34 45.34 45.34" fill="#231F20"/><path d="M109.282 205.098c.513-1.686 1.31-3.145 2.393-4.374 1.08-1.23 2.43-2.192 4.044-2.888 1.612-.697 3.446-1.046 5.5-1.046 1.687 0 3.274.248 4.76.743 1.485.495 2.778 1.21 3.88 2.145 1.1.936 1.97 2.1 2.612 3.494.64 1.395.963 3.01.963 4.842 0 1.725-.267 3.246-.798 4.566-.532 1.32-1.238 2.504-2.118 3.55-.88 1.044-1.89 1.99-3.027 2.832-1.138.845-2.31 1.65-3.52 2.42-1.212.735-2.422 1.46-3.632 2.175-1.21.714-2.32 1.476-3.328 2.282-1.01.807-1.87 1.678-2.586 2.613-.715.935-1.183 2.008-1.403 3.22h20.027v4.125h-25.474c.183-2.31.596-4.282 1.238-5.914s1.458-3.054 2.448-4.264c.99-1.21 2.11-2.274 3.357-3.19 1.245-.918 2.548-1.78 3.905-2.587 1.65-1.026 3.1-1.97 4.346-2.834 1.248-.862 2.284-1.733 3.11-2.614.825-.88 1.448-1.834 1.87-2.86.422-1.027.633-2.22.633-3.577 0-1.065-.202-2.027-.605-2.89-.404-.86-.945-1.604-1.623-2.228-.68-.623-1.477-1.1-2.394-1.43-.915-.33-1.888-.496-2.914-.496-1.358 0-2.523.285-3.494.853-.972.568-1.77 1.31-2.393 2.228-.626.917-1.074 1.953-1.35 3.108-.275 1.155-.394 2.32-.357 3.493h-4.676c-.11-1.98.09-3.815.605-5.502" fill="#fff"/><path d="M152.196 203.447h-.11l-12.984 19.092h13.094v-19.093zm9.684 19.092v4.125h-5.28v9.133h-4.403v-9.133h-17.11v-4.51l17.77-25.365h3.742v25.75h5.28z" fill="#fff"/><path d="M135.705 111.602c-57.974 0-105.14 47.165-105.14 105.14 0 57.974 47.166 105.14 105.14 105.14s105.14-47.166 105.14-105.14c0-57.975-47.166-105.14-105.14-105.14m0 240.845C60.877 352.447 0 291.57 0 216.74 0 141.914 60.877 81.037 135.705 81.037S271.41 141.913 271.41 216.74c0 74.83-60.877 135.707-135.705 135.707"/><path d="M106.23 67.792h58.95v12.466s-34.373-5.843-58.95.78V67.79zM102.756 37.226s-12.226 0-12.226 12.226v2.094s0 12.226 12.226 12.226h65.9s12.225 0 12.225-12.226v-2.094s0-12.226-12.225-12.226h-65.9zM169.837 34.503H158.63c0-10.674-10.285-19.358-22.925-19.358S112.78 23.83 112.78 34.503h-11.207c0-16.854 15.31-30.566 34.132-30.566 18.82 0 34.132 13.712 34.132 30.566"/><path d="M209.635 278.465L176.438 250.2c8.087-9.498 12.54-21.612 12.54-34.112 0-29.04-23.625-52.663-52.664-52.663v-43.6c53.08 0 96.264 43.183 96.264 96.263 0 22.848-8.148 45-22.943 62.377z" fill="#231F20"/><circle cx="136.135" cy="4.699" r="4.699"/></g></svg>