<svg xmlns="http://www.w3.org/2000/svg" viewBox="0 0 131.034 131.034" enable-background="new 0 0 131.034 131.034"><path d="M110.118 42.276h12.312c1.645 0 2.99 1.82 2.99 4.042 0 2.223-1.345 4.042-2.99 4.042h-12.312M110.118 62.74h12.312c1.645 0 2.99 1.818 2.99 4.04 0 2.225-1.345 4.043-2.99 4.043h-12.312M110.118 83.202h12.312c1.645 0 2.99 1.82 2.99 4.042s-1.345 4.042-2.99 4.042h-12.312M41.443 22.423V9.89c0-1.676 1.787-3.046 3.97-3.046 2.185 0 3.97 1.37 3.97 3.046v12.534M61.543 22.423V9.89c0-1.676 1.787-3.046 3.97-3.046 2.185 0 3.972 1.37 3.972 3.046v12.534M81.644 22.423V9.89c0-1.676 1.787-3.046 3.97-3.046 2.185 0 3.972 1.37 3.972 3.046v12.534M49.384 108.612v12.534c0 1.675-1.787 3.045-3.97 3.045-2.185 0-3.97-1.37-3.97-3.044v-12.534M69.484 108.612v12.534c0 1.675-1.787 3.045-3.97 3.045-2.185 0-3.972-1.37-3.972-3.044v-12.534M89.585 108.612v12.534c0 1.675-1.786 3.045-3.97 3.045-2.185 0-3.972-1.37-3.972-3.044v-12.534M20.916 50.36H8.604c-1.645 0-2.99-1.82-2.99-4.042s1.345-4.042 2.99-4.042h12.312M20.916 70.823H8.604c-1.645 0-2.99-1.82-2.99-4.042 0-2.222 1.345-4.04 2.99-4.04h12.312M20.916 91.286H8.604c-1.645 0-2.99-1.82-2.99-4.042s1.345-4.042 2.99-4.042h12.312"/><path d="M94.083 41.567c0-1.884-1.26-3.426-2.796-3.426h-51.55c-1.538 0-2.797 1.542-2.797 3.427v48.388c0 1.884 1.26 3.427 2.796 3.427h51.55c1.538 0 2.797-1.542 2.797-3.427V41.567zm14.116 60.34c0 2.816-1.88 5.12-4.18 5.12H27c-2.297 0-4.178-2.304-4.178-5.12V29.614c0-2.815 1.88-5.118 4.18-5.118h77.02c2.297 0 4.177 2.303 4.177 5.118v72.295z"/></svg>