<svg xmlns="http://www.w3.org/2000/svg" viewBox="0 0 410.34 5067" enable-background="new 0 0 410.34 5067"><path stroke="#000" stroke-width="2" stroke-miterlimit="10" fill="none" d="M245 0v197H79v437.405l35-.933V789l38 38.33V936l-36 36.18V1032l122.17 122.102L200.043 1193H2.34l96.56 101H188v101.333l23-.666V1432l-23 .21V1526l-25.62 31.333 56.62-.37V1639l98 97.52V1823h12v60l-19 18.69V1919l-98 98.474V2144l15 15.43V2255h-15v117h8v85l-21 20.583V2495l45.318 45H289v71h102.84l.086 37.224L409 2648v18h-70.66l-33.25 33h-90.75L118 2793.67V2922h29v48l98 98.228V5067"/></svg>