<svg xmlns="http://www.w3.org/2000/svg" viewBox="0 0 572 961.5" enable-background="new 0 0 572 961.5"><path stroke="#ccc" stroke-miterlimit="10" fill="none" d="M394.5 617v50.9l41 41.2v177.8l-72.7 73.6H303"/><path fill="#E6E6E6" d="M222.7 582.2h19.8c2.6 0 4.8 2.9 4.8 6.5s-2.2 6.5-4.8 6.5h-19.8M222.7 615.1h19.8c2.6 0 4.8 2.9 4.8 6.5s-2.2 6.5-4.8 6.5h-19.8M222.7 648h19.8c2.6 0 4.8 2.9 4.8 6.5s-2.2 6.5-4.8 6.5h-19.8M112.4 550.3v-20.1c0-2.7 2.9-4.9 6.4-4.9s6.4 2.2 6.4 4.9v20.1M144.7 550.3v-20.1c0-2.7 2.9-4.9 6.4-4.9 3.5 0 6.4 2.2 6.4 4.9v20.1M177 550.3v-20.1c0-2.7 2.9-4.9 6.4-4.9 3.5 0 6.4 2.2 6.4 4.9v20.1M125.2 688.8v20.1c0 2.7-2.9 4.9-6.4 4.9s-6.4-2.2-6.4-4.9v-20.1M157.4 688.8v20.1c0 2.7-2.9 4.9-6.4 4.9-3.5 0-6.4-2.2-6.4-4.9v-20.1M189.7 688.8v20.1c0 2.7-2.9 4.9-6.4 4.9-3.5 0-6.4-2.2-6.4-4.9v-20.1M79.4 595.2H59.6c-2.6 0-4.8-2.9-4.8-6.5s2.2-6.5 4.8-6.5h19.8M79.4 628.1H59.6c-2.6 0-4.8-2.9-4.8-6.5s2.2-6.5 4.8-6.5h19.8M79.4 661H59.6c-2.6 0-4.8-2.9-4.8-6.5s2.2-6.5 4.8-6.5h19.8"/><path fill="#E6E6E6" d="M197 581.1c0-3-2-5.5-4.5-5.5h-82.8c-2.5 0-4.5 2.5-4.5 5.5v77.8c0 3 2 5.5 4.5 5.5h82.8c2.5 0 4.5-2.5 4.5-5.5v-77.8zm22.7 96.9c0 4.5-3 8.2-6.7 8.2H89.2c-3.7 0-6.7-3.7-6.7-8.2V561.9c0-4.5 3-8.2 6.7-8.2H213c3.7 0 6.7 3.7 6.7 8.2V678z"/><path fill="#D0D2D3" d="M183.5 619.8l-9.6-.1"/><path fill="#D0D2D3" d="M171.7 623.4c-1.3-.8-2.1-2.1-2.1-3.7 0-2.4 2-4.3 4.3-4.3l9.6.1c2.4 0 4.3 2 4.3 4.3 0 2.4-2 4.3-4.3 4.3l-9.6-.1c-.8 0-1.6-.2-2.2-.6zM179.3 603.5l-8.4 4.8"/><path fill="#D0D2D3" d="M168.7 612c-.6-.4-1.1-.9-1.5-1.6-1.2-2.1-.5-4.7 1.6-5.9l8.4-4.8c2.1-1.2 4.7-.5 5.9 1.6 1.2 2.1.5 4.7-1.6 5.9l-8.4 4.8c-1.5.8-3.1.7-4.4 0z"/><path fill="#58595B" d="M167.5 591.5l-4.9 8.4"/><path fill="#58595B" d="M160.4 603.5c-2-1.2-2.7-3.8-1.5-5.9l4.9-8.3c1.2-2.1 3.8-2.7 5.9-1.5h.1c2 1.2 2.7 3.8 1.5 5.9l-4.9 8.3c-1.3 2.1-3.9 2.8-6 1.5 0 .1 0 .1 0 0z"/><path fill="#6D6E70" d="M151.3 587.1l-.1 9.6"/><path fill="#6D6E70" d="M149 600.4c-1.3-.8-2.1-2.1-2.1-3.7l.1-9.6c0-2.4 2-4.3 4.3-4.3 2.4 0 4.3 2 4.3 4.3l-.1 9.6c0 2.4-2 4.3-4.3 4.3-.8 0-1.6-.2-2.2-.6z"/><path fill="#808184" d="M135 591.3l4.8 8.4"/><path fill="#808184" d="M137.6 603.4c-.6-.4-1.1-.9-1.5-1.6l-4.8-8.4c-1.2-2.1-.5-4.7 1.6-5.9 2.1-1.2 4.7-.5 5.9 1.6l4.8 8.4c1.2 2.1.5 4.7-1.6 5.9-1.5.9-3.2.8-4.4 0z"/><path fill="#929497" d="M123.1 603.1l8.3 4.9"/><path fill="#929497" d="M120.8 606.8c-2-1.2-2.7-3.8-1.5-5.9 1.2-2.1 3.8-2.7 5.9-1.5l8.3 4.9c2.1 1.2 2.7 3.8 1.5 5.9-1.2 2.1-3.8 2.7-5.9 1.5l-8.3-4.9c.1 0 0 0 0 0z"/><path fill="#A6A8AB" d="M118.6 619.3l9.6.1"/><path fill="#A6A8AB" d="M116.4 623c-1.3-.8-2.1-2.1-2.1-3.7 0-2.4 2-4.3 4.3-4.3l9.6.1c2.4 0 4.3 2 4.3 4.3 0 2.4-2 4.3-4.3 4.3l-9.6-.1c-.8 0-1.6-.2-2.2-.6z"/><path fill="#BBBDBF" d="M122.8 635.6l8.4-4.8"/><path fill="#BBBDBF" d="M120.6 639.3c-.6-.4-1.1-.9-1.5-1.6-1.2-2.1-.5-4.7 1.6-5.9l8.4-4.8c2.1-1.2 4.7-.5 5.9 1.6 1.2 2.1.5 4.7-1.6 5.9l-8.4 4.8c-1.4.9-3.1.8-4.4 0z"/><path fill="#D0D2D3" d="M134.6 647.6l4.9-8.3"/><path fill="#D0D2D3" d="M132.4 651.3c-2-1.2-2.7-3.8-1.5-5.9l4.9-8.3c1.2-2.1 3.8-2.7 5.9-1.5 2.1 1.2 2.7 3.8 1.5 5.9l-4.9 8.3c-1.1 2-3.8 2.7-5.9 1.5zM150.9 652v-9.6"/><path fill="#D0D2D3" d="M148.6 655.7c-1.3-.8-2.1-2.1-2.1-3.7l.1-9.6c0-2.4 2-4.3 4.3-4.3 2.4 0 4.3 2 4.3 4.3l-.1 9.6c0 2.4-2 4.3-4.3 4.3-.8 0-1.5-.2-2.2-.6zM164.9 651.5c-.6-.4-1.1-.9-1.5-1.6l-4.8-8.4c-1.2-2.1-.5-4.7 1.6-5.9 2.1-1.2 4.7-.5 5.9 1.6l4.8 8.4c1.2 2.1.5 4.7-1.6 5.9-1.5.8-3.1.8-4.4 0zM179.1 636l-8.3-4.9"/><path fill="#D0D2D3" d="M168.5 634.8c-2-1.2-2.7-3.8-1.5-5.9 1.2-2.1 3.8-2.7 5.9-1.5l8.3 4.9c2.1 1.2 2.7 3.8 1.5 5.9-1.2 2.1-3.8 2.7-5.9 1.5l-8.3-4.9c.1 0 .1 0 0 0z"/><path fill="#E6E6E6" d="M537.8 436.3H565c3.6 0 6.6 4 6.6 8.9s-3 8.9-6.6 8.9h-27.2M537.8 481.5H565c3.6 0 6.6 4 6.6 8.9s-3 8.9-6.6 8.9h-27.2M537.8 526.7H565c3.6 0 6.6 4 6.6 8.9s-3 8.9-6.6 8.9h-27.2M386.2 392.5v-27.7c0-3.7 3.9-6.7 8.8-6.7 4.8 0 8.8 3 8.8 6.7v27.7M430.6 392.5v-27.7c0-3.7 3.9-6.7 8.8-6.7s8.8 3 8.8 6.7v27.7M475 392.5v-27.7c0-3.7 3.9-6.7 8.8-6.7 4.8 0 8.8 3 8.8 6.7v27.7M403.7 582.8v27.7c0 3.7-3.9 6.7-8.8 6.7s-8.8-3-8.8-6.7v-27.7M448.1 582.8v27.7c0 3.7-3.9 6.7-8.8 6.7-4.8 0-8.8-3-8.8-6.7v-27.7M492.5 582.8v27.7c0 3.7-3.9 6.7-8.8 6.7-4.8 0-8.8-3-8.8-6.7v-27.7M340.9 454.2h-27.2c-3.6 0-6.6-4-6.6-8.9s3-8.9 6.6-8.9h27.2M340.9 499.3h-27.2c-3.6 0-6.6-4-6.6-8.9s3-8.9 6.6-8.9h27.2M340.9 544.5h-27.2c-3.6 0-6.6-4-6.6-8.9s3-8.9 6.6-8.9h27.2"/><path fill="#E6E6E6" d="M502.4 434.8c0-4.2-2.8-7.6-6.2-7.6H382.4c-3.4 0-6.2 3.4-6.2 7.6v106.8c0 4.2 2.8 7.6 6.2 7.6h113.8c3.4 0 6.2-3.4 6.2-7.6V434.8zM533.6 568c0 6.2-4.1 11.3-9.2 11.3h-170c-5.1 0-9.2-5.1-9.2-11.3V408.4c0-6.2 4.2-11.3 9.2-11.3h170c5.1 0 9.2 5.1 9.2 11.3V568z"/><path fill="#D0D2D3" d="M484 487.9l-13.3-.1"/><path fill="#D0D2D3" d="M467.7 492.9c-1.7-1-2.9-2.9-2.9-5.1 0-3.3 2.7-5.9 6-5.9l13.2.1c3.3 0 5.9 2.7 5.9 6s-2.7 5.9-6 5.9l-13.2-.1c-1.1 0-2.2-.4-3-.9zM478.2 465.6l-11.6 6.5"/><path fill="#D0D2D3" d="M463.6 477.2c-.8-.5-1.6-1.2-2.1-2.1-1.6-2.8-.6-6.5 2.2-8.1l11.5-6.5c2.8-1.6 6.5-.6 8.1 2.2 1.6 2.8.6 6.5-2.2 8.1l-11.5 6.5c-2 1.1-4.3 1-6-.1z"/><path fill="#58595B" d="M461.9 449.1l-6.7 11.5"/><path fill="#58595B" d="M452.2 465.6c-2.8-1.7-3.7-5.3-2-8.1l6.7-11.4c1.7-2.8 5.3-3.8 8.1-2.1h.1c2.8 1.7 3.7 5.3 2 8.1l-6.7 11.4c-1.7 2.9-5.3 3.8-8.2 2.1 0 .1 0 0 0 0z"/><path fill="#6D6E70" d="M439.7 443l-.1 13.3"/><path fill="#6D6E70" d="M436.5 461.3c-1.7-1-2.9-2.9-2.9-5.1l.1-13.2c0-3.3 2.7-5.9 6-5.9s5.9 2.7 5.9 6l-.1 13.2c0 3.3-2.7 5.9-6 5.9-1.1 0-2.1-.3-3-.9z"/><path fill="#808184" d="M417.3 448.8l6.6 11.6"/><path fill="#808184" d="M420.8 465.4c-.8-.5-1.6-1.2-2.1-2.1l-6.5-11.5c-1.6-2.8-.6-6.5 2.2-8.1 2.8-1.6 6.5-.6 8.1 2.2l6.5 11.5c1.6 2.8.6 6.5-2.2 8.1-1.9 1.1-4.2 1-6-.1z"/><path fill="#929497" d="M400.9 465.1l11.4 6.7"/><path fill="#929497" d="M397.8 470.1c-2.8-1.7-3.7-5.3-2-8.1 1.7-2.8 5.3-3.8 8.1-2.1l11.4 6.7c2.9 1.7 3.8 5.3 2.1 8.1-1.7 2.8-5.3 3.8-8.1 2.1l-11.5-6.7c.1.1 0 0 0 0z"/><path fill="#A6A8AB" d="M394.7 487.3l13.3.1"/><path fill="#A6A8AB" d="M391.7 492.4c-1.7-1-2.9-2.9-2.9-5.1 0-3.3 2.7-5.9 6-5.9l13.2.1c3.3 0 5.9 2.7 5.9 6s-2.7 5.9-6 5.9l-13.2-.1c-1.1-.1-2.1-.4-3-.9z"/><path fill="#BBBDBF" d="M400.6 509.7l11.5-6.6"/><path fill="#BBBDBF" d="M397.5 514.7c-.8-.5-1.6-1.2-2.1-2.1-1.6-2.8-.6-6.5 2.2-8.1l11.5-6.5c2.8-1.6 6.5-.6 8.1 2.2 1.6 2.8.6 6.5-2.2 8.1l-11.5 6.5c-1.9 1.1-4.2 1-6-.1z"/><path fill="#D0D2D3" d="M416.8 526.1l6.7-11.4"/><path fill="#D0D2D3" d="M413.7 531.2c-2.8-1.7-3.7-5.3-2-8l6.7-11.4c1.7-2.8 5.3-3.8 8.1-2.1 2.8 1.7 3.8 5.3 2.1 8.1l-6.7 11.4c-1.7 2.7-5.3 3.7-8.2 2 .1 0 0 0 0 0zM439.1 532.2V519"/><path fill="#D0D2D3" d="M436 537.3c-1.7-1-2.9-2.9-2.9-5.1l.1-13.2c0-3.3 2.7-5.9 6-5.9s5.9 2.7 5.9 6l-.1 13.2c0 3.3-2.7 5.9-6 5.9-1.1 0-2.1-.4-3-.9zM458.3 531.5c-.8-.5-1.6-1.2-2.1-2.1l-6.5-11.5c-1.6-2.8-.6-6.5 2.2-8.1 2.8-1.6 6.5-.6 8.1 2.2l6.5 11.5c1.6 2.8.6 6.5-2.2 8.1-1.9 1.1-4.2 1-6-.1zM477.8 510.2l-11.4-6.7"/><path fill="#D0D2D3" d="M463.4 508.6c-2.8-1.7-3.7-5.3-2-8 1.7-2.8 5.3-3.8 8.1-2.1l11.4 6.7c2.8 1.7 3.8 5.3 2.1 8.1-1.7 2.8-5.3 3.8-8.1 2.1l-11.5-6.8z"/><path fill="#E6E6E6" d="M402.5 244.9h-1.2v-60.8h-14v-82.4l-17-17V41.9h1.2v42.3l17 17v81.6h14zM370.9 44.4c1.4 0 2.5-1.1 2.5-2.5s-1.1-2.5-2.5-2.5-2.5 1.1-2.5 2.5 1.1 2.5 2.5 2.5M401.9 247.4c1.4 0 2.5-1.1 2.5-2.5s-1.1-2.5-2.5-2.5-2.5 1.1-2.5 2.5 1.1 2.5 2.5 2.5"/><path fill="#E6E6E6" d="M418.9 192.9h-1.2v-22.8l-15.4-15.4V86.2l-15.5-15.5V14.9h1.2v55.3l15.5 15.5v68.5l15.4 15.4zM387.4 17.4c1.4 0 2.5-1.1 2.5-2.5s-1.1-2.5-2.5-2.5-2.5 1.1-2.5 2.5 1.1 2.5 2.5 2.5M418.3 195.4c1.4 0 2.5-1.1 2.5-2.5s-1.1-2.5-2.5-2.5-2.5 1.1-2.5 2.5 1.1 2.5 2.5 2.5"/><path fill="#E6E6E6" d="M394.5 245.4h-1.2v-54.3h-14v-75.7l-17.4-17.3V20.9h1.3v76.7l17.3 17.3v74.9h14zM362.5 23.4c1.4 0 2.5-1.1 2.5-2.5s-1.1-2.5-2.5-2.5-2.5 1.1-2.5 2.5 1.2 2.5 2.5 2.5M393.9 247.9c1.4 0 2.5-1.1 2.5-2.5s-1.1-2.5-2.5-2.5-2.5 1.1-2.5 2.5 1.1 2.5 2.5 2.5"/><path fill="#E6E6E6" d="M413.5 148.9h-1.2V33.2l-16.5-16.5V1.9h1.2v14.3l16.5 16.5zM396.4 4.4c1.4 0 2.5-1.1 2.5-2.5s-1.1-2.5-2.5-2.5-2.5 1.1-2.5 2.5 1.1 2.5 2.5 2.5M412.9 151.4c1.4 0 2.5-1.1 2.5-2.5s-1.1-2.5-2.5-2.5-2.5 1.1-2.5 2.5 1.1 2.5 2.5 2.5"/><path fill="#E6E6E6" d="M15.3 389.4H14v-55.2l.2-.2 18.2-18.2v-72H20v-82.1l-18-18v-42.8h1.3v42.3l18 18v81.4h12.4v73.8l-.2.1-18.2 18.2zM2.7 103.4c1.4 0 2.5-1.1 2.5-2.5s-1.1-2.5-2.5-2.5-2.5 1.1-2.5 2.5 1.1 2.5 2.5 2.5M14.7 391.9c1.4 0 2.5-1.1 2.5-2.5s-1.1-2.5-2.5-2.5-2.5 1.1-2.5 2.5 1.1 2.5 2.5 2.5"/><path fill="#E6E6E6" d="M351.3 286.4l-.9-.9 11-11.1v-15.3h-12.7v-90.7h1.2v89.4h12.8v17.1zM349.3 170.9c1.4 0 2.5-1.1 2.5-2.5s-1.1-2.5-2.5-2.5-2.5 1.1-2.5 2.5 1.1 2.5 2.5 2.5M350.8 288.4c1.4 0 2.5-1.1 2.5-2.5s-1.1-2.5-2.5-2.5-2.5 1.1-2.5 2.5 1.1 2.5 2.5 2.5"/><path fill="#E6E6E6" d="M40.7 213.9h-1.3v-60.1l-16.1-16.1V70.9h1.2v66.3l16.2 16.1zM23.9 73.4c1.4 0 2.5-1.1 2.5-2.5s-1.1-2.5-2.5-2.5-2.5 1.1-2.5 2.5 1.1 2.5 2.5 2.5M40 216.4c1.4 0 2.5-1.1 2.5-2.5s-1.1-2.5-2.5-2.5-2.5 1.1-2.5 2.5 1.2 2.5 2.5 2.5"/><path fill="#E6E6E6" d="M137.3 196.2H136v-54.5l-16-16V83.9h1.3v41.3l16 16zM120.7 86.4c1.4 0 2.5-1.1 2.5-2.5s-1.1-2.5-2.5-2.5-2.5 1.1-2.5 2.5 1.1 2.5 2.5 2.5M136.7 198.7c1.4 0 2.5-1.1 2.5-2.5s-1.1-2.5-2.5-2.5-2.5 1.1-2.5 2.5 1.1 2.5 2.5 2.5"/><path fill="#E6E6E6" d="M113.3 390.4H112v-100l.2-.2 15.8-15.8v-75.1h-16v-68.6h1.3v67.4h16v76.8l-.2.2-15.8 15.8zM112.7 133.2c1.4 0 2.5-1.1 2.5-2.5s-1.1-2.5-2.5-2.5-2.5 1.1-2.5 2.5 1.1 2.5 2.5 2.5M112.7 392.9c1.4 0 2.5-1.1 2.5-2.5s-1.1-2.5-2.5-2.5-2.5 1.1-2.5 2.5 1.1 2.5 2.5 2.5"/><path fill="#E6E6E6" d="M103.3 367.4H102v-79.2l.2-.2 17.8-17.8v-64.1h-18v-63.5h1.3v62.2h18v65.9l-.2.2-17.8 17.8zM102.7 145.1c1.4 0 2.5-1.1 2.5-2.5s-1.1-2.5-2.5-2.5-2.5 1.1-2.5 2.5c0 1.3 1.1 2.5 2.5 2.5M102.7 369.9c1.4 0 2.5-1.1 2.5-2.5s-1.1-2.5-2.5-2.5-2.5 1.1-2.5 2.5 1.1 2.5 2.5 2.5"/><path fill="#E6E6E6" d="M92.3 317.9H91v-33.2l.2-.2 20.3-20.3v-49.6H91v-54.3h1.3v53h20.5v51.4l-.2.2-20.3 20.3zM91.7 162.8c1.4 0 2.5-1.1 2.5-2.5s-1.1-2.5-2.5-2.5-2.5 1.1-2.5 2.5 1.1 2.5 2.5 2.5M91.7 320.4c1.4 0 2.5-1.1 2.5-2.5s-1.1-2.5-2.5-2.5-2.5 1.1-2.5 2.5 1.1 2.5 2.5 2.5"/><path fill="#E6E6E6" d="M72.3 303.9H71v-26.2l-12-12v-53.3l.2-.2L76 195.4v-24h1.3v24.5l-.2.2-16.8 16.8v52.3l12 12zM76.7 173.9c1.4 0 2.5-1.1 2.5-2.5s-1.1-2.5-2.5-2.5-2.5 1.1-2.5 2.5 1.1 2.5 2.5 2.5M71.7 306.4c1.4 0 2.5-1.1 2.5-2.5s-1.1-2.5-2.5-2.5-2.5 1.1-2.5 2.5 1.1 2.5 2.5 2.5"/><path fill="#E6E6E6" d="M147.5 215.9h-1.2v-75.6l-17.6-17.6V67.9h1.2v54.3l17.6 17.6zM129.3 70.4c1.4 0 2.5-1.1 2.5-2.5s-1.1-2.5-2.5-2.5-2.5 1.1-2.5 2.5 1.1 2.5 2.5 2.5M146.9 218.4c1.4 0 2.5-1.1 2.5-2.5s-1.1-2.5-2.5-2.5-2.5 1.1-2.5 2.5 1.1 2.5 2.5 2.5"/><path fill="#E6E6E6" d="M166.2 209.1H154v-53.2h1.3v51.9h10.9zM154.7 158.4c1.4 0 2.5-1.1 2.5-2.5s-1.1-2.5-2.5-2.5-2.5 1.1-2.5 2.5 1.1 2.5 2.5 2.5M166.2 210.9c1.4 0 2.5-1.1 2.5-2.5s-1.1-2.5-2.5-2.5-2.5 1.1-2.5 2.5 1.1 2.5 2.5 2.5"/><path fill="#E6E6E6" d="M179.2 200.3h-17.4v-63.4h1.2v62.2h16.2zM162.4 139.4c1.4 0 2.5-1.1 2.5-2.5s-1.1-2.5-2.5-2.5-2.5 1.1-2.5 2.5 1.1 2.5 2.5 2.5M179.2 202.2c1.4 0 2.5-1.1 2.5-2.5s-1.1-2.5-2.5-2.5-2.5 1.1-2.5 2.5 1.1 2.5 2.5 2.5"/><path fill="#E6E6E6" d="M133.1 404.9h-1.2v-31.1l.2-.1 13.9-14V225.8h42v-71.9h1.3v73.2h-42v133.1l-.2.2-14 14zM188.7 156.4c1.4 0 2.5-1.1 2.5-2.5s-1.1-2.5-2.5-2.5-2.5 1.1-2.5 2.5 1.1 2.5 2.5 2.5M132.5 407.4c1.4 0 2.5-1.1 2.5-2.5s-1.1-2.5-2.5-2.5-2.5 1.1-2.5 2.5 1.1 2.5 2.5 2.5"/><path fill="#E6E6E6" d="M173.2 371.6H172v-18.8l-18.2-18.2V232.8h42.1v-62h1.3v63.3H155v100l18.2 18.2zM196.5 173.3c1.4 0 2.5-1.1 2.5-2.5s-1.1-2.5-2.5-2.5-2.5 1.1-2.5 2.5 1.2 2.5 2.5 2.5M172.6 374.1c1.4 0 2.5-1.1 2.5-2.5s-1.1-2.5-2.5-2.5-2.5 1.1-2.5 2.5 1.1 2.5 2.5 2.5"/><path fill="#E6E6E6" d="M203.1 395.4h-1.2v-45.1l.1-.2 16-16v-54.5h-15v-99.7h1.3v98.4h15v56.3l-.2.2-16 16zM203.7 182.4c1.4 0 2.5-1.1 2.5-2.5s-1.1-2.5-2.5-2.5-2.5 1.1-2.5 2.5 1.1 2.5 2.5 2.5M202.5 397.9c1.4 0 2.5-1.1 2.5-2.5s-1.1-2.5-2.5-2.5-2.5 1.1-2.5 2.5 1.1 2.5 2.5 2.5"/><path fill="#E6E6E6" d="M307.4 492h-17.1l-.2-.2-75.1-75.1v-62l.2-.2 17.8-17.8v-70.6h-13V140.7l-17-17V82.9h1.3v40.3l17 17v124.6h13v72.4l-.2.2-17.8 17.8v61l74.5 74.5h16.6zM203.7 85.4c1.4 0 2.5-1.1 2.5-2.5s-1.1-2.5-2.5-2.5-2.5 1.1-2.5 2.5 1.1 2.5 2.5 2.5"/><path fill="#E6E6E6" d="M248.3 242.7H247v-103l-21-21V56.9h1.3v61.3l21 21zM226.7 59.4c1.4 0 2.5-1.1 2.5-2.5s-1.1-2.5-2.5-2.5-2.5 1.1-2.5 2.5 1.1 2.5 2.5 2.5M247.7 245.2c1.4 0 2.5-1.1 2.5-2.5s-1.1-2.5-2.5-2.5-2.5 1.1-2.5 2.5 1.1 2.5 2.5 2.5"/><path fill="#E6E6E6" d="M264.4 250.4h-1.2v-58.6l-9.2-9.1v-33.8h1.3v33.3l9.1 9.1zM254.7 151.4c1.4 0 2.5-1.1 2.5-2.5s-1.1-2.5-2.5-2.5-2.5 1.1-2.5 2.5 1.1 2.5 2.5 2.5M263.8 252.9c1.4 0 2.5-1.1 2.5-2.5s-1.1-2.5-2.5-2.5-2.5 1.1-2.5 2.5 1.1 2.5 2.5 2.5"/><path fill="#E6E6E6" d="M292.3 314.6H272v-41.5h11.3v24.3H282v-23.1h-8.7v39H291v-53.1h-19V153.8h14.2v1.3h-12.9V259h19zM282.7 299.9c1.4 0 2.5-1.1 2.5-2.5s-1.1-2.5-2.5-2.5-2.5 1.1-2.5 2.5 1.1 2.5 2.5 2.5M286.2 156.9c1.4 0 2.5-1.1 2.5-2.5s-1.1-2.5-2.5-2.5-2.5 1.1-2.5 2.5 1.1 2.5 2.5 2.5"/><path fill="#E6E6E6" d="M307.3 276.2H306v-36.6h-14.5v-71.7h1.3v70.4h14.5zM292.2 170.4c1.4 0 2.5-1.1 2.5-2.5s-1.1-2.5-2.5-2.5-2.5 1.1-2.5 2.5 1.1 2.5 2.5 2.5M306.7 278.7c1.4 0 2.5-1.1 2.5-2.5s-1.1-2.5-2.5-2.5-2.5 1.1-2.5 2.5 1.1 2.5 2.5 2.5"/><path fill="#E6E6E6" d="M315.3 264.9H314v-32.3h-15.3v-51.7h1.2v50.4h15.4zM299.3 183.4c1.4 0 2.5-1.1 2.5-2.5s-1.1-2.5-2.5-2.5-2.5 1.1-2.5 2.5 1.1 2.5 2.5 2.5M314.7 267.4c1.4 0 2.5-1.1 2.5-2.5s-1.1-2.5-2.5-2.5-2.5 1.1-2.5 2.5 1.1 2.5 2.5 2.5"/><path fill="#E6E6E6" d="M324.2 333.1h-10.9v-35.4l.2-.2L330 281v-64.4h-16.7V102.8h12.9v1.3h-11.6v111.2h16.7v66.2l-.2.2-16.5 16.5v33.6h9.6zM324.2 334.9c1.4 0 2.5-1.1 2.5-2.5s-1.1-2.5-2.5-2.5-2.5 1.1-2.5 2.5 1.1 2.5 2.5 2.5M326.2 105.9c1.4 0 2.5-1.1 2.5-2.5s-1.1-2.5-2.5-2.5-2.5 1.1-2.5 2.5 1.1 2.5 2.5 2.5"/><path fill="#E6E6E6" d="M335.2 322.8H320v-19.6l.2-.2 19.8-19.8v-75.1h-20v-58.4h15.2v1.2h-13.9v55.9h20v76.9l-.2.2-19.8 19.8v17.9h13.9zM335.2 152.8c1.4 0 2.5-1.1 2.5-2.5s-1.1-2.5-2.5-2.5-2.5 1.1-2.5 2.5 1.1 2.5 2.5 2.5M335.2 324.7c1.4 0 2.5-1.1 2.5-2.5s-1.1-2.5-2.5-2.5-2.5 1.1-2.5 2.5 1.1 2.5 2.5 2.5"/><path fill="#E6E6E6" d="M66 125.9h1.2v57H66zM66.7 128.4c1.4 0 2.5-1.1 2.5-2.5s-1.1-2.5-2.5-2.5-2.5 1.1-2.5 2.5 1.1 2.5 2.5 2.5M66.7 185.4c1.4 0 2.5-1.1 2.5-2.5s-1.1-2.5-2.5-2.5-2.5 1.1-2.5 2.5 1.1 2.5 2.5 2.5"/><path fill="#E6E6E6" d="M50.3 253.9H49v-51.5l7-7v-53.8h1.3v54.3l-7 7zM56.7 144.1c1.4 0 2.5-1.1 2.5-2.5s-1.1-2.5-2.5-2.5-2.5 1.1-2.5 2.5c0 1.3 1.1 2.5 2.5 2.5M49.7 256.4c1.4 0 2.5-1.1 2.5-2.5s-1.1-2.5-2.5-2.5-2.5 1.1-2.5 2.5 1.1 2.5 2.5 2.5"/><path fill="#E6E6E6" d="M97.5 242.3H75v-32.6l9.3-9.3v-78.5h1.2v79l-9.2 9.3v30.9h21.2zM97.5 244.2c1.4 0 2.5-1.1 2.5-2.5s-1.1-2.5-2.5-2.5-2.5 1.1-2.5 2.5 1.1 2.5 2.5 2.5M84.9 124.4c1.4 0 2.5-1.1 2.5-2.5s-1.1-2.5-2.5-2.5-2.5 1.1-2.5 2.5 1.1 2.5 2.5 2.5"/><path stroke="#ccc" stroke-miterlimit="10" fill="none" d="M247 588.5h10l51.2-51.2"/></svg>