<svg xmlns="http://www.w3.org/2000/svg" xmlns:xlink="http://www.w3.org/1999/xlink" viewBox="0 0 231.172 204.274" enable-background="new 0 0 231.172 204.274"><g><defs><circle id="a" cx="103.64" cy="102.268" r="101.289"/></defs><clipPath id="b"><use xlink:href="#a" overflow="visible"/></clipPath><path clip-path="url(#b)" fill="#999" d="M49.11 158.164l149.926 35.467 32.167-124.603L152 45.7v112.6z"/><path d="M102.137 204.274c56.41 0 102.137-45.728 102.137-102.138C204.274 45.728 158.544 0 102.137 0S0 45.728 0 102.137c0 56.41 45.728 102.137 102.137 102.137" opacity=".15"/><g opacity=".1"><path d="M147.54 10.897c-10.14-3.386-20.99-5.22-32.27-5.22-56.242 0-101.834 45.597-101.834 101.845 0 39.554 22.55 73.843 55.49 90.71l-.237-.054C28.72 184.426 0 146.492 0 101.85 0 45.603 45.593.006 101.834.006c16.45 0 31.987 3.9 45.74 10.827l-.034.064z" fill="#231F20"/><path d="M147.54 10.897c-10.14-3.386-20.99-5.22-32.27-5.22-56.242 0-101.834 45.597-101.834 101.845 0 39.554 22.55 73.843 55.49 90.71l-.237-.054C28.72 184.426 0 146.492 0 101.85 0 45.603 45.593.006 101.834.006c16.45 0 31.987 3.9 45.74 10.827l-.034.064z" fill="none"/></g><defs><path id="c" d="M48.94 45.973h106.393V158.3H48.94z"/></defs><clipPath id="d"><use xlink:href="#c" overflow="visible"/></clipPath><path d="M48.94 154.64c0 2.022 1.64 3.66 3.66 3.66h99.07c2.023 0 3.662-1.64 3.662-3.66v-18.13c0-2.022-1.64-3.66-3.66-3.66H52.6c-2.023 0-3.662 1.64-3.662 3.66v18.13zM48.94 125.68c0 2.024 1.64 3.662 3.66 3.662h99.07c2.023 0 3.662-1.64 3.662-3.66v-18.13c0-2.022-1.64-3.66-3.66-3.66H52.6c-2.023 0-3.662 1.64-3.662 3.66v18.13zM48.94 96.722c0 2.023 1.64 3.66 3.66 3.66h99.07c2.023 0 3.662-1.638 3.662-3.66V78.594c0-2.023-1.64-3.66-3.66-3.66H52.6c-2.023 0-3.662 1.638-3.662 3.66v18.128zM48.94 67.764c0 2.023 1.64 3.66 3.66 3.66h99.07c2.023 0 3.662-1.638 3.662-3.66v-18.13c0-2.022-1.64-3.66-3.66-3.66H52.6c-2.023 0-3.662 1.64-3.662 3.66v18.13z" clip-path="url(#d)"/><path d="M147.265 141.517c0 1.187-.962 2.15-2.15 2.15-1.186 0-2.148-.963-2.148-2.15 0-1.187.962-2.15 2.15-2.15 1.186 0 2.148.963 2.148 2.15M139.21 141.517c0 1.187-.963 2.15-2.15 2.15-1.188 0-2.15-.963-2.15-2.15 0-1.187.962-2.15 2.15-2.15 1.186 0 2.15.963 2.15 2.15M130.457 141.517c0 1.187-.962 2.15-2.15 2.15-1.186 0-2.148-.963-2.148-2.15 0-1.187.96-2.15 2.148-2.15 1.186 0 2.15.963 2.15 2.15" clip-path="url(#d)" fill="#F1F1F1"/><path d="M66.087 148.78c0 .434-.352.786-.787.786h-6.392c-.435 0-.787-.352-.787-.787v-6.393c0-.435.353-.787.788-.787H65.3c.435 0 .787.352.787.787v6.392zM147.265 112.558c0 1.187-.962 2.15-2.15 2.15-1.186 0-2.148-.963-2.148-2.15s.962-2.15 2.15-2.15c1.186 0 2.148.963 2.148 2.15M139.21 112.558c0 1.187-.963 2.15-2.15 2.15-1.188 0-2.15-.963-2.15-2.15s.962-2.15 2.15-2.15c1.186 0 2.15.963 2.15 2.15M130.457 112.558c0 1.187-.962 2.15-2.15 2.15-1.186 0-2.148-.963-2.148-2.15s.96-2.15 2.148-2.15c1.186 0 2.15.963 2.15 2.15" clip-path="url(#d)" fill="#F1F1F1"/><path d="M66.087 119.82c0 .436-.352.788-.787.788h-6.392c-.435 0-.787-.352-.787-.787v-6.39c0-.436.353-.788.788-.788H65.3c.435 0 .787.352.787.787v6.39zM147.265 83.6c0 1.186-.962 2.148-2.15 2.148-1.186 0-2.148-.962-2.148-2.15s.962-2.148 2.15-2.148c1.186 0 2.148.962 2.148 2.15M139.21 83.6c0 1.186-.963 2.148-2.15 2.148-1.188 0-2.15-.962-2.15-2.15s.962-2.148 2.15-2.148c1.186 0 2.15.962 2.15 2.15M130.457 83.6c0 1.186-.962 2.148-2.15 2.148-1.186 0-2.148-.962-2.148-2.15s.96-2.148 2.148-2.148c1.186 0 2.15.962 2.15 2.15" clip-path="url(#d)" fill="#F1F1F1"/><path d="M66.087 90.862c0 .435-.352.787-.787.787h-6.392c-.435 0-.787-.353-.787-.788V84.47c0-.435.353-.787.788-.787H65.3c.435 0 .787.352.787.787v6.392zM147.265 54.64c0 1.188-.962 2.15-2.15 2.15-1.186 0-2.148-.962-2.148-2.15 0-1.186.962-2.148 2.15-2.148 1.186 0 2.148.962 2.148 2.15M139.21 54.64c0 1.188-.963 2.15-2.15 2.15-1.188 0-2.15-.962-2.15-2.15 0-1.186.962-2.148 2.15-2.148 1.186 0 2.15.962 2.15 2.15M130.457 54.64c0 1.188-.962 2.15-2.15 2.15-1.186 0-2.148-.962-2.148-2.15 0-1.186.96-2.148 2.148-2.148 1.186 0 2.15.962 2.15 2.15" clip-path="url(#d)" fill="#F1F1F1"/><path d="M66.087 61.904c0 .435-.352.787-.787.787h-6.392c-.435 0-.787-.35-.787-.786v-6.392c0-.435.353-.787.788-.787H65.3c.435 0 .787.352.787.787v6.392z" clip-path="url(#d)" fill="#F1F1F1"/></g></svg>