<svg xmlns="http://www.w3.org/2000/svg" viewBox="0 0 58 55" enable-background="new 0 0 58 55"><g fill="#fff"><path d="M0 15.9h11.3v1.6H0zM25 15.9h.5l.4.1h.4l.4.1.4.2.3.1.4.2.4.2.3.2.3.3.3.2H12.9v-1.6zM32.3 15.9h9.1l.6 1.6h-9.7zM48.9 15.9H58v1.6h-9.7zM0 19h11.3v1.6H0zM3.2 22.1h4.9v1.6H3.2zM3.2 25.1h4.9v1.6H3.2zM30.2 19l.1.2.2.3.1.4.2.7H12.9V19zM16.1 22.1H21v1.6h-4.9zM31 22.1v.2l-.1.4v.4l-.1.4-.1.2h-4.9v-1.6zM30 25.1l-.1.3-.3.3-.2.3-.3.3-.3.3-.3.1H16.1v-1.6zM32.3 19h10.2l.6 1.6H32.3zM58 19v1.6H47.3l.5-1.6zM35.5 22.1h8.1l.6 1.6h-8.7zM54.9 22.1v1.6h-8.7l.5-1.6zM40.8 26.7h8.7l.5-1.4v1.4h4.9v-1.6h-9.2l-.5 1.5-.5-1.5h-9.2v1.6h4.8v-1.4zM0 37.5h11.3v1.6H0zM0 34.4h11.3V36H0zM3.2 28.2h4.9v1.6H3.2zM3.2 31.3h4.9v1.6H3.2zM28.5 28.2l.3.2.3.3.3.3.2.3.3.3.1.2H16.1v-1.6zM16.1 31.3H21v1.6h-4.9zM30.7 31.3l.1.2.1.4v.4l.1.4v.2h-5.2v-1.6zM30.8 34.4v.3l-.2.4-.1.4-.2.3-.1.2H12.9v-1.6zM29.1 37.5l-.3.2-.4.3-.3.2-.4.2-.3.2-.4.1-.4.2-.4.1h-.4l-.4.1H12.9v-1.6zM35.5 28.2h4.8v1.6h-4.8zM48.4 29.8h-6.5l-.6-1.6H49zM50 28.2h4.9v1.6H50zM35.5 31.3h4.8v1.6h-4.8zM48 31.3l-.6 1.6h-4.5l-.5-1.6zM50 31.3h4.9v1.6H50zM32.3 34.4h8V36h-8zM46.9 34.4l-.5 1.6H44l-.6-1.6zM50 34.4h8V36h-8zM32.3 37.5h8v1.6h-8zM50 37.5h8v1.6h-8zM45.3 39.1l.5-1.6h-1.3l.6 1.6z"/></g></svg>