<svg xmlns="http://www.w3.org/2000/svg" viewBox="0 0 363.703 279.826" enable-background="new 0 0 363.703 279.826"><g><path d="M237.272 273.163s-6.298-5.334-9.763-8.8c-3.467-3.466-4.406-7.86-4.406-7.86l-2.74-29.54h-76.38l-2.753 29.552s-.945 4.567-4.41 8.03c-3.467 3.47-9.768 8.746-9.768 8.746s-5.67 4.018 2.838 5.278c4.872.72 26.598 1.258 44.056 1.258h16.482c17.814 0 39.167-.578 44.038-1.3 8.507-1.26 2.806-5.363 2.806-5.363M348.9 205.817H14.097V16.212H348.9v189.605zM354.87 0H9.2C4.25 0 0 4.35 0 9.35v203.004c0 5.002 4.25 9.674 9.202 9.674H354.87c4.953 0 8.833-4.672 8.833-9.674V9.35c0-5-3.88-9.35-8.834-9.35"/></g></svg>