<svg xmlns="http://www.w3.org/2000/svg" viewBox="0 0 187.558 187.559" enable-background="new 0 0 187.558 187.559"><g><path d="M93.78 187.56c51.792 0 93.778-41.987 93.778-93.78C187.558 41.985 145.57 0 93.778 0S0 41.986 0 93.78c0 51.792 41.986 93.78 93.78 93.78" opacity=".15"/><g opacity=".1"><path d="M135.467 10.006c-9.31-3.11-19.274-4.793-29.63-4.793-51.638 0-93.5 41.866-93.5 93.51 0 36.32 20.703 67.802 50.95 83.29l-.218-.05C26.37 169.334 0 134.504 0 93.515 0 41.872 41.862.006 93.5.006c15.104 0 29.37 3.58 41.998 9.94l-.03.06z" fill="#231F20"/><path d="M135.467 10.006c-9.31-3.11-19.274-4.793-29.63-4.793-51.638 0-93.5 41.866-93.5 93.51 0 36.32 20.703 67.802 50.95 83.29l-.218-.05C26.37 169.334 0 134.504 0 93.515 0 41.872 41.862.006 93.5.006c15.104 0 29.37 3.58 41.998 9.94l-.03.06z" fill="none"/></g></g></svg>