<svg class="timer-svg" xmlns="http://www.w3.org/2000/svg" viewBox="0 0 260.5 350" enable-background="new 0 0 260.5 350"><circle cx="130.1" cy="3.7" r="4.1"/><ellipse fill="#fff" cx="130.6" cy="36.2" rx="34.9" ry="28.3"/><path d="M167.5 37.4h-12.3c0-11.7-11.4-21.3-25.2-21.3s-25.2 9.5-25.2 21.3H92.7c0-18.5 16.8-33.5 37.5-33.5 20.4-.1 37.3 15 37.3 33.5"/><path fill="#fff" d="M97.7 59h64.8v44H97.7z"/><path d="M97.7 74h64.8v13.7s-37.8-6.5-64.8.9V74zM94 40.3s-13.4 0-13.4 13.4V56s0 13.4 13.4 13.4h72.3s13.4 0 13.4-13.4v-2.3s0-13.4-13.4-13.4H94z"/><circle fill="#fff" stroke="#000" stroke-width="30" stroke-miterlimit="10" cx="130.1" cy="220.4" r="114.5"/><path fill="#fff" stroke="#009245" stroke-width="30" stroke-miterlimit="1" stroke-dasharray="15,5,10,500" stroke-dashoffset="500" d="M208.2 220c0 43-34.9 77.9-77.9 77.9s-78-34.9-78-77.9c0-42 33.3-76.3 74.9-77.9h5.3c42 1.2 75.7 35.6 75.7 77.9z"/><circle cx="130.1" cy="220.4" r="48.4"/><circle cx="130.1" cy="220.4" r="48.4"/><text fill="#fff" x="124" y="225" font-weight="bold">1</text></svg>