<svg xmlns="http://www.w3.org/2000/svg" viewBox="0 0 140.88 259.049" enable-background="new 0 0 140.88 259.049"><g><path d="M79.097 34.392V6.724c0-3.7 3.945-6.724 8.765-6.724s8.763 3.025 8.763 6.724v27.67M123.47 34.392V6.724c0-3.7 3.944-6.724 8.764-6.724C137.056 0 141 3.025 141 6.724v27.67M96.626 224.66v27.668c0 3.697-3.945 6.722-8.765 6.722s-8.762-3.025-8.762-6.722v-27.67M141 224.66v27.668c0 3.697-3.946 6.722-8.766 6.722s-8.766-3.025-8.766-6.722v-27.67M33.782 96.064H6.602C2.973 96.064 0 92.05 0 87.14c0-4.91 2.972-8.924 6.603-8.924h27.18M33.782 141.237H6.602c-3.63 0-6.602-4.015-6.602-8.924 0-4.906 2.972-8.924 6.603-8.924h27.18M33.782 186.41H6.602c-3.63 0-6.602-4.014-6.602-8.923 0-4.91 2.972-8.924 6.603-8.924h27.18" fill="#E6E6E6"/><path d="M195.302 76.652c0-4.16-2.78-7.563-6.173-7.563H75.326c-3.394 0-6.173 3.402-6.173 7.562v106.82c0 4.16 2.78 7.564 6.173 7.564H189.13c3.393 0 6.172-3.405 6.172-7.565V76.653zm31.16 133.208c0 6.215-4.148 11.3-9.22 11.3H47.214c-5.073 0-9.224-5.085-9.224-11.3V50.264c0-6.215 4.152-11.3 9.225-11.3H217.24c5.074 0 9.223 5.085 9.223 11.3V209.86z" fill="#E6E6E6"/><path fill="#6D6E70" d="M132.544 84.91l-.09 13.247"/><path d="M129.39 103.22c-1.723-1.046-2.867-2.943-2.852-5.103l.09-13.247c.022-3.268 2.69-5.9 5.957-5.878 3.27.023 5.9 2.69 5.877 5.957l-.09 13.246c-.022 3.27-2.69 5.9-5.957 5.877-1.108-.007-2.143-.318-3.025-.854z" fill="#6D6E70"/><path fill="#808184" d="M110.195 90.735l6.546 11.517"/><path d="M113.668 107.31c-.834-.507-1.554-1.225-2.07-2.133l-6.546-11.517c-1.616-2.84-.62-6.453 2.218-8.068 2.84-1.615 6.454-.62 8.07 2.22l6.546 11.516c1.615 2.842.62 6.454-2.22 8.07-1.933 1.098-4.224.988-5.998-.09z" fill="#808184"/><path fill="#929497" d="M93.755 106.957l11.426 6.7"/><path d="M90.684 112.015c-2.76-1.673-3.67-5.258-2.033-8.05 1.654-2.82 5.28-3.766 8.097-2.112l11.427 6.7c2.85 1.652 3.763 5.278 2.11 8.096-1.653 2.818-5.277 3.764-8.097 2.11l-11.425-6.7-.078-.045z" fill="#929497"/><path fill="#A6A8AB" d="M87.627 129.225l13.247.088"/><path d="M84.563 134.287c-1.722-1.045-2.866-2.942-2.852-5.1.022-3.27 2.69-5.9 5.956-5.88l13.246.088c3.268.022 5.9 2.69 5.877 5.956-.022 3.27-2.69 5.9-5.956 5.88l-13.246-.09c-1.107-.006-2.143-.317-3.025-.853z" fill="#A6A8AB"/><path fill="#BBBDBF" d="M93.454 151.572l11.515-6.548"/><path d="M90.38 156.63c-.834-.506-1.553-1.225-2.07-2.134-1.614-2.84-.62-6.452 2.22-8.068l11.514-6.547c2.84-1.615 6.453-.623 8.07 2.22 1.614 2.84.62 6.454-2.22 8.068l-11.515 6.546c-1.935 1.1-4.225.992-6-.085z" fill="#BBBDBF"/><path fill="#D0D2D3" d="M109.673 168.012l6.7-11.427"/><path d="M106.603 173.07c-2.758-1.673-3.672-5.258-2.033-8.05l6.7-11.427c1.652-2.82 5.278-3.764 8.097-2.112 2.847 1.673 3.764 5.28 2.11 8.098l-6.7 11.427c-1.652 2.82-5.277 3.764-8.096 2.11-.026-.014-.053-.03-.077-.045zM131.94 174.14l.09-13.246" fill="#D0D2D3"/><path d="M128.876 179.203c-1.722-1.045-2.867-2.942-2.852-5.102l.088-13.244c.022-3.268 2.69-5.9 5.956-5.878 3.268.022 5.9 2.69 5.878 5.956l-.088 13.246c-.022 3.268-2.69 5.9-5.955 5.877-1.11-.007-2.144-.32-3.027-.854z" fill="#D0D2D3"/></g></svg>