<svg xmlns="http://www.w3.org/2000/svg" viewBox="0 0 404.98 404.98" enable-background="new 0 0 404.98 404.98"><g><circle cx="202.49" cy="202.49" r="202.49" opacity=".75" fill="#ccc"/><path d="M190.03 252.78c-.807 2.508-1.815 4.918-3.02 7.194l5.844 12.247c-3.418 4.654-7.542 8.78-12.18 12.18l-12.26-5.81c-2.278 1.188-4.688 2.213-7.214 3.005l-4.538 12.74c-2.804.43-5.66.66-8.6.66-2.918 0-5.79-.23-8.612-.66l-4.523-12.74c-2.508-.792-4.917-1.817-7.21-3.005l-12.247 5.81c-4.653-3.4-8.763-7.526-12.18-12.18l5.81-12.246c-1.174-2.277-2.18-4.687-2.988-7.195l-12.775-4.522c-.41-2.807-.675-5.712-.675-8.647 0-2.904.264-5.777.675-8.58l12.775-4.556c.81-2.51 1.814-4.92 2.988-7.195l-5.81-12.248c3.417-4.653 7.527-8.78 12.18-12.18l12.247 5.842c2.294-1.22 4.702-2.244 7.21-3.036l4.523-12.773c2.82-.397 5.694-.628 8.613-.628 2.94 0 5.795.232 8.6.628l4.537 12.773c2.526.792 4.936 1.817 7.23 3.036l12.245-5.84c4.638 3.398 8.763 7.524 12.18 12.178l-5.844 12.247c1.206 2.275 2.214 4.686 3.02 7.194l12.777 4.555c.41 2.803.64 5.676.64 8.58 0 2.937-.23 5.842-.64 8.648l-12.777 4.52zm-21.122-13.137c0-11.52-9.34-20.86-20.846-20.86-11.5 0-20.86 9.34-20.86 20.86s9.36 20.827 20.86 20.827c11.506 0 20.846-9.308 20.846-20.827zM305.82 195.397c-.956 3.165-2.245 6.204-3.77 9.12l7.33 15.41c-4.27 5.916-9.453 11.08-15.364 15.412l-15.414-7.372c-2.913 1.5-5.936 2.79-9.1 3.79l-5.746 16.12c-3.542.54-7.146.832-10.854.832-3.684 0-7.33-.293-10.848-.833l-5.75-16.12c-3.166-1-6.183-2.29-9.078-3.79l-15.433 7.372c-5.91-4.333-11.1-9.498-15.37-15.412l7.33-15.41c-1.538-2.917-2.81-5.956-3.77-9.12l-16.117-5.71c-.562-3.58-.855-7.163-.855-10.87 0-3.707.294-7.33.856-10.872l16.118-5.748c.96-3.165 2.23-6.164 3.77-9.08l-7.33-15.41c4.27-5.916 9.458-11.12 15.37-15.412l15.432 7.374c2.894-1.543 5.91-2.833 9.077-3.792l5.75-16.118c3.518-.543 7.165-.833 10.85-.833 3.707 0 7.31.29 10.853.833l5.745 16.118c3.166.96 6.19 2.25 9.102 3.792l15.414-7.374c5.91 4.292 11.095 9.497 15.365 15.41l-7.33 15.412c1.543 2.915 2.814 5.915 3.77 9.08l16.12 5.748c.567 3.542.856 7.164.856 10.873 0 3.705-.29 7.287-.857 10.87l-16.12 5.707zm-26.613-16.578c0-14.54-11.785-26.324-26.305-26.324-14.513 0-26.324 11.785-26.324 26.323 0 14.534 11.81 26.28 26.324 26.28 14.52 0 26.305-11.746 26.305-26.28zM152.21 154.73c-.355 1.835-.904 3.62-1.593 5.35l5.018 8.245c-2.06 3.576-4.678 6.78-7.753 9.562l-9.1-3.255c-1.553 1.013-3.18 1.914-4.902 2.66l-2.3 9.403c-1.96.51-3.972.883-6.058 1.1-2.072.212-4.14.26-6.152.158l-4.17-8.737c-1.84-.38-3.612-.93-5.327-1.606l-8.256 5.04c-3.577-2.094-6.796-4.7-9.54-7.78l3.23-9.096c-1.034-1.552-1.925-3.188-2.65-4.913l-9.398-2.277c-.525-1.983-.897-3.98-1.112-6.067-.215-2.086-.26-4.14-.148-6.167l8.735-4.17c.357-1.836.898-3.597 1.595-5.326l-5.017-8.247c2.06-3.575 4.678-6.805 7.756-9.562l9.11 3.255c1.54-1.036 3.163-1.936 4.888-2.66l2.302-9.402c1.948-.51 3.984-.883 6.056-1.097 2.087-.214 4.13-.26 6.156-.16l4.167 8.737c1.835.357 3.61.907 5.34 1.606l8.246-5.042c3.574 2.073 6.793 4.702 9.538 7.783l-3.232 9.096c1.036 1.55 1.926 3.164 2.647 4.89l9.4 2.3c.525 1.96.9 3.98 1.114 6.068.215 2.085.258 4.117.147 6.166l-8.74 4.145zm-15.936-7.788c-.842-8.18-8.156-14.13-16.326-13.288-8.166.84-14.13 8.156-13.287 16.336.843 8.18 8.17 14.104 16.336 13.263 8.17-.84 14.12-8.132 13.278-16.31z" fill="#F2F2F2"/></g></svg>