<svg xmlns="http://www.w3.org/2000/svg" viewBox="0 0 287.601 285.73" enable-background="new 0 0 287.601 285.73"><g fill="#fff"><path d="M178.074 96.665c-27.184-19.57-65.02-13.487-84.51 13.586-19.49 27.074-13.253 64.885 13.93 84.455 27.186 19.57 65.022 13.488 84.512-13.585s13.252-64.885-13.932-84.455m16.182-22.478l56.292-26.667-31.984 53.383 62.375-1.452-51.012 35.692 57.673 24.012-61.216 11.828 42.998 45.326-60.84-14.08 20.89 58.8-49.94-37.553-4.832 62.11-30.407-54.535-29.718 54.68-5.616-62.085-49.466 37.794L79.6 202.537l-60.66 14.374 42.425-45.532L0 159.848l57.368-24.29-51.46-35.444 62.39 1.152L35.643 48.04 92.27 74.432l-8.21-61.806L125.133 59.7 142.792 0l18.415 59.613 40.476-47.27-7.427 61.844zM94.12 213.287c37.334 26.877 89.39 18.4 116.266-18.935 26.878-37.336 18.4-89.39-18.935-116.267-37.334-26.878-89.39-18.4-116.266 18.935-26.878 37.335-18.4 89.39 18.935 116.267"/></g></svg>