<svg xmlns="http://www.w3.org/2000/svg" xmlns:xlink="http://www.w3.org/1999/xlink" viewBox="0 0 268.789 239.512" enable-background="new 0 0 268.789 239.512"><g><defs><path id="a" d="M.303 119.647C.303 53.567 53.87 0 119.95 0s119.16 54.52 119.16 120.598-53.08 118.695-119.16 118.695S.303 185.726.303 119.647z"/></defs><clipPath id="b"><use xlink:href="#a" overflow="visible"/></clipPath><path d="M88.404 177.72c22.01 11.19 136.758 45.126 136.758 45.126l43.618-120.66c1.193.398-109.802-37.955-127.936-43.79 29.77 10.92 55.77 46.284 38.103 87.617-19.847 46.434-67.334 42.666-90.543 31.707z" clip-path="url(#b)" fill="#B3B3B3"/><path d="M119.617 239.512c65.864 0 119.258-53.393 119.258-119.26C238.875 54.39 185.482.996 119.617.996S.36 54.388.36 120.253s53.393 119.26 119.257 119.26" opacity=".15"/><g opacity=".1"><path d="M172.272 13.72c-11.84-3.955-24.51-6.096-37.68-6.096-65.668 0-118.904 53.24-118.904 118.917 0 46.186 26.328 86.223 64.793 105.917l-.277-.064C33.533 216.336 0 172.043 0 119.918 0 54.243 53.235 1.002 118.905 1.002c19.207 0 37.35 4.554 53.407 12.642l-.04.075z" fill="#231F20"/><path d="M172.272 13.72c-11.84-3.955-24.51-6.096-37.68-6.096-65.668 0-118.904 53.24-118.904 118.917 0 46.186 26.328 86.223 64.793 105.917l-.277-.064C33.533 216.336 0 172.043 0 119.918 0 54.243 53.235 1.002 118.905 1.002c19.207 0 37.35 4.554 53.407 12.642l-.04.075z" fill="none"/></g><path d="M90.705 144.75c.91-.412 1.918-.644 2.978-.644 2.963 0 5.51 1.785 6.618 4.34h.007c18.328-4.95 34.932-16.057 46.34-32.725 1.79-2.612 3.404-5.296 4.842-8.036-1.663-1.322-2.723-3.357-2.723-5.643 0-2.986 1.814-5.547 4.403-6.64-1.648-3.646-3.555-7.187-5.72-10.605-.954.47-2.025.73-3.156.73-3.986 0-7.215-3.234-7.215-7.22 0-.658.09-1.297.255-1.903-17.814-5.728-36.735-5.434-53.8.365.728 1.127 1.15 2.466 1.15 3.905 0 3.986-3.235 7.22-7.22 7.22-.55 0-1.08-.06-1.59-.18-2.033 19.858 3.175 40.195 14.83 57.038M75.604 73.7c.283-1.038.587-2.074.913-3.1-3.692 3.18-7.082 6.824-10.073 10.915 1.292-.767 2.603-1.5 3.934-2.19.516-2.733 2.57-4.92 5.226-5.626M149.713 83.073c2.41 3.777 4.52 7.707 6.315 11.754.288 0 .578.02.856.057.853-2.642 1.57-5.307 2.145-7.995-2.766-1.843-5.597-3.505-8.48-4.986-.24.42-.525.808-.837 1.17M184.308 112.64c-5.804-9.122-13.425-17.325-22.756-24.014-.55 2.405-1.207 4.795-1.97 7.162 2.164 1.245 3.617 3.58 3.617 6.254 0 2.244-1.024 4.246-2.623 5.566 6.375 23.513 2.954 49.29-11.632 70.6-.15.223-.307.436-.463.66 9.67-4.815 18.29-12.087 24.824-21.635 9.298-13.585 12.782-29.43 11.002-44.592M141.183 71.792c.94-.45 1.998-.7 3.11-.7 3.986 0 7.22 3.228 7.22 7.214 0 .294-.02.582-.058.867 2.77 1.405 5.497 2.968 8.16 4.696.825-4.71 1.232-9.47 1.232-14.222-1.472-1.207-3-2.362-4.597-3.455-10.86-7.428-23.162-11.145-35.41-11.428 1.28.785 2.547 1.605 3.803 2.46 6.23 4.265 11.754 9.175 16.54 14.567M158.002 108.972c-.64.19-1.316.288-2.016.288-.68 0-1.34-.094-1.965-.274-1.5 2.845-3.175 5.63-5.03 8.34-11.84 17.294-29.07 28.798-48.092 33.89.005.034.005.072.005.105 0 1.573-.506 3.032-1.363 4.215 4.066 4.227 8.63 8.114 13.667 11.56 9.586 6.56 20.004 10.944 30.66 13.268.94-1.22 1.852-2.47 2.733-3.753 13.968-20.418 17.347-45.072 11.402-67.638M86.478 150.966c.085-1.76.804-3.355 1.926-4.564-12.25-17.68-17.624-39.096-15.252-59.94-1.292-.966-2.253-2.357-2.67-3.967-2.707 1.472-5.34 3.1-7.88 4.89-11.385 19.585-11.514 43.013-1.895 62.232 8.558 1.76 17.254 2.19 25.77 1.35M138.622 73.842l.283-.337c-4.602-5.16-9.9-9.85-15.868-13.93-2.51-1.72-5.08-3.287-7.697-4.712-12.38.754-24.465 5-34.686 12.45-.776 2.06-1.457 4.138-2.06 6.235.972.15 1.88.497 2.68 1.004 18.118-6.49 38.355-6.922 57.348-.71M183.175 105.974c-2.84-12.73-9.463-24.64-19.527-33.892-.128 4.526-.608 9.047-1.46 13.522 8.287 5.772 15.306 12.686 20.987 20.37M97.456 157.47c-1.098.678-2.392 1.066-3.774 1.066-3.12 0-5.775-1.98-6.78-4.753-8.083.81-16.325.505-24.472-.943 4.757 8.303 11.413 15.688 19.835 21.454 17.59 12.038 38.97 14.324 57.744 8.07-9.867-2.542-19.49-6.82-28.41-12.928-5.212-3.563-9.936-7.587-14.144-11.965"/></g></svg>