<svg xmlns="http://www.w3.org/2000/svg" xmlns:xlink="http://www.w3.org/1999/xlink" viewBox="0 0 1024 43.371" enable-background="new 0 0 1024 43.371"><g><defs><path id="a" d="M36.07 0H146.41v43.37H36.07z"/></defs><clipPath id="b"><use xlink:href="#a" overflow="visible"/></clipPath><path d="M78.392 29.96c.833-2.517 1.268-5.265 1.306-8.245-.038-2.98-.473-5.728-1.306-8.245-.832-2.515-2.012-4.683-3.542-6.502-1.528-1.82-3.396-3.242-5.602-4.268-2.206-1.025-4.703-1.538-7.49-1.538s-5.283.513-7.49 1.538c-2.206 1.026-4.073 2.45-5.602 4.268-1.53 1.82-2.71 3.987-3.542 6.502-.832 2.517-1.267 5.264-1.306 8.245.04 2.98.474 5.728 1.306 8.244.833 2.515 2.013 4.683 3.542 6.5 1.53 1.82 3.396 3.244 5.603 4.27 2.205 1.025 4.7 1.537 7.488 1.537 2.787 0 5.284-.512 7.49-1.538 2.206-1.026 4.074-2.45 5.602-4.27 1.53-1.817 2.71-3.985 3.542-6.5m1.22-16.606c.832 2.633 1.248 5.42 1.248 8.36 0 2.942-.416 5.73-1.25 8.36-.83 2.634-2.05 4.936-3.656 6.91-1.606 1.974-3.6 3.533-5.98 4.674-2.38 1.14-5.12 1.713-8.216 1.713-3.096 0-5.835-.57-8.215-1.712-2.38-1.14-4.374-2.7-5.98-4.674s-2.825-4.276-3.658-6.91c-.832-2.63-1.248-5.418-1.248-8.36 0-2.94.416-5.727 1.248-8.36.833-2.632 2.052-4.935 3.658-6.91s3.6-3.54 5.98-4.702C55.923.582 58.663 0 61.758 0c3.097 0 5.835.58 8.216 1.742 2.38 1.16 4.374 2.73 5.98 4.703 1.606 1.974 2.825 4.277 3.657 6.91M93.98.987h1.16v41.454h-1.16V.988zm49.96 28.97c.833-2.515 1.268-5.263 1.306-8.243-.038-2.98-.473-5.728-1.306-8.245-.832-2.515-2.012-4.683-3.542-6.502-1.528-1.82-3.396-3.242-5.603-4.268-2.206-1.025-4.702-1.538-7.49-1.538s-5.283.513-7.49 1.538c-2.205 1.026-4.072 2.45-5.6 4.268s-2.71 3.987-3.543 6.502c-.832 2.517-1.267 5.264-1.306 8.245.04 2.98.474 5.728 1.306 8.244.833 2.515 2.013 4.683 3.542 6.5 1.53 1.82 3.396 3.244 5.602 4.27 2.206 1.025 4.703 1.537 7.49 1.537s5.283-.512 7.49-1.538c2.206-1.026 4.074-2.45 5.602-4.27 1.53-1.817 2.71-3.985 3.542-6.5m1.22-16.606c.832 2.633 1.247 5.42 1.247 8.36 0 2.942-.415 5.73-1.248 8.36-.833 2.634-2.052 4.936-3.66 6.91-1.604 1.974-3.598 3.533-5.98 4.674-2.38 1.14-5.117 1.713-8.214 1.713-3.096 0-5.835-.57-8.215-1.712-2.38-1.14-4.373-2.7-5.98-4.674-1.605-1.974-2.825-4.276-3.657-6.91-.832-2.63-1.25-5.418-1.25-8.36 0-2.94.418-5.727 1.25-8.36.832-2.632 2.052-4.935 3.657-6.91 1.607-1.973 3.6-3.54 5.98-4.702C121.47.582 124.21 0 127.307 0c3.097 0 5.835.58 8.215 1.742 2.382 1.16 4.376 2.73 5.98 4.703 1.608 1.974 2.827 4.277 3.66 6.91M-38.53 29.96c.833-2.517 1.268-5.265 1.306-8.245-.038-2.98-.473-5.728-1.306-8.245-.832-2.515-2.012-4.683-3.542-6.502-1.528-1.82-3.396-3.242-5.602-4.268-2.206-1.025-4.703-1.538-7.49-1.538s-5.283.513-7.49 1.538c-2.206 1.026-4.073 2.45-5.602 4.268-1.53 1.82-2.71 3.987-3.542 6.502-.832 2.517-1.267 5.264-1.306 8.245.04 2.98.474 5.728 1.306 8.244.833 2.515 2.013 4.683 3.542 6.5 1.53 1.82 3.396 3.244 5.603 4.27 2.206 1.025 4.702 1.537 7.49 1.537s5.283-.512 7.49-1.538c2.205-1.026 4.073-2.45 5.6-4.27 1.53-1.817 2.71-3.985 3.543-6.5m1.22-16.606c.832 2.633 1.248 5.42 1.248 8.36 0 2.942-.416 5.73-1.25 8.36-.83 2.634-2.05 4.936-3.656 6.91s-3.6 3.533-5.98 4.674c-2.38 1.14-5.12 1.713-8.216 1.713-3.096 0-5.835-.57-8.215-1.712-2.38-1.14-4.373-2.7-5.98-4.674s-2.824-4.276-3.657-6.91c-.832-2.63-1.248-5.418-1.248-8.36 0-2.94.416-5.727 1.248-8.36.833-2.632 2.052-4.935 3.658-6.91s3.6-3.54 5.98-4.702C-61 .582-58.26 0-55.163 0c3.097 0 5.835.58 8.216 1.742 2.38 1.16 4.374 2.73 5.98 4.703s2.825 4.277 3.657 6.91M-22.943.987h1.16v41.454h-1.16V.988zm49.96 28.97c.833-2.515 1.268-5.263 1.306-8.243-.038-2.98-.473-5.728-1.306-8.245-.832-2.515-2.012-4.683-3.542-6.502-1.528-1.82-3.396-3.242-5.603-4.268-2.206-1.025-4.702-1.538-7.49-1.538S5.1 1.675 2.894 2.7C.69 3.726-1.178 5.15-2.706 6.968c-1.53 1.82-2.71 3.987-3.543 6.502-.832 2.517-1.267 5.264-1.306 8.245.04 2.98.474 5.728 1.306 8.244.833 2.515 2.013 4.683 3.542 6.5 1.53 1.82 3.396 3.244 5.602 4.27 2.206 1.025 4.703 1.537 7.49 1.537s5.283-.512 7.49-1.538c2.206-1.026 4.074-2.45 5.602-4.27 1.53-1.817 2.71-3.985 3.542-6.5m1.22-16.606c.832 2.633 1.247 5.42 1.247 8.36 0 2.942-.415 5.73-1.248 8.36-.832 2.634-2.05 4.936-3.658 6.91-1.606 1.974-3.6 3.533-5.98 4.674-2.38 1.14-5.12 1.713-8.216 1.713-3.096 0-5.835-.57-8.215-1.712-2.382-1.14-4.375-2.7-5.982-4.674-1.605-1.974-2.825-4.276-3.657-6.91-.83-2.63-1.248-5.418-1.248-8.36 0-2.94.417-5.727 1.25-8.36.83-2.632 2.05-4.935 3.656-6.91 1.607-1.973 3.6-3.54 5.98-4.702C4.55.582 7.29 0 10.385 0 13.48 0 16.22.58 18.6 1.742c2.38 1.16 4.374 2.73 5.98 4.703 1.606 1.974 2.825 4.277 3.657 6.91" clip-path="url(#b)" fill="#B3B3B3"/><defs><path id="c" d="M-31.953 0h67.91v43.37h-67.91z"/></defs><clipPath id="d"><use xlink:href="#c" overflow="visible"/></clipPath><path d="M10.368 13.412c-.832-2.516-2.012-4.684-3.542-6.502C5.298 5.09 3.43 3.667 1.224 2.642-.982 1.616-3.48 1.104-6.266 1.104s-5.283.512-7.49 1.538c-2.206 1.025-4.073 2.448-5.602 4.268-1.53 1.818-2.71 3.986-3.542 6.502-.832 2.516-1.267 5.264-1.306 8.244.04 2.98.474 5.728 1.306 8.245.833 2.516 2.013 4.684 3.542 6.503 1.53 1.82 3.396 3.242 5.603 4.268 2.206 1.026 4.702 1.54 7.49 1.54s5.283-.514 7.49-1.54c2.205-1.025 4.073-2.448 5.6-4.267 1.53-1.82 2.71-3.987 3.543-6.502.833-2.516 1.268-5.263 1.306-8.244-.038-2.98-.473-5.728-1.306-8.244m1.22 16.605c-.833 2.632-2.052 4.935-3.658 6.91-1.606 1.973-3.6 3.54-5.98 4.702-2.38 1.16-5.12 1.74-8.216 1.74-3.096 0-5.835-.58-8.215-1.74-2.382-1.162-4.375-2.73-5.98-4.704s-2.826-4.277-3.66-6.91c-.83-2.632-1.247-5.418-1.247-8.36 0-2.94.416-5.728 1.248-8.36.834-2.633 2.053-4.935 3.66-6.91s3.598-3.532 5.98-4.673C-12.1.573-9.363 0-6.267 0-3.17 0-.43.572 1.95 1.713c2.38 1.14 4.374 2.7 5.98 4.674 1.606 1.974 2.825 4.276 3.657 6.91.833 2.63 1.25 5.418 1.25 8.36 0 2.94-.417 5.727-1.25 8.36M25.957.93h1.16v41.453h-1.16V.93zm49.96 12.482c-.833-2.516-2.013-4.684-3.543-6.502-1.528-1.82-3.396-3.243-5.603-4.268-2.205-1.026-4.7-1.538-7.488-1.538-2.787 0-5.284.512-7.49 1.538C49.586 3.667 47.72 5.09 46.19 6.91c-1.53 1.818-2.71 3.986-3.542 6.502-.832 2.516-1.267 5.264-1.306 8.244.04 2.98.474 5.728 1.306 8.245.833 2.516 2.013 4.684 3.542 6.503s3.396 3.242 5.602 4.268c2.206 1.026 4.703 1.54 7.49 1.54s5.283-.514 7.49-1.54c2.206-1.025 4.074-2.448 5.602-4.267 1.53-1.82 2.71-3.987 3.542-6.502.833-2.516 1.268-5.263 1.306-8.244-.038-2.98-.473-5.728-1.306-8.244m1.22 16.605c-.833 2.632-2.052 4.935-3.66 6.91-1.604 1.973-3.598 3.54-5.98 4.702-2.38 1.16-5.117 1.74-8.214 1.74-3.096 0-5.835-.58-8.215-1.74-2.38-1.162-4.374-2.73-5.98-4.704-1.606-1.974-2.826-4.277-3.658-6.91-.833-2.632-1.25-5.418-1.25-8.36 0-2.94.417-5.728 1.25-8.36.83-2.633 2.05-4.935 3.656-6.91 1.607-1.973 3.6-3.532 5.98-4.673C53.447.573 56.187 0 59.283 0c3.097 0 5.835.572 8.215 1.713 2.38 1.14 4.375 2.7 5.98 4.674 1.607 1.974 2.826 4.276 3.658 6.91.833 2.63 1.248 5.418 1.248 8.36 0 2.94-.415 5.727-1.248 8.36" clip-path="url(#d)" fill="#B3B3B3"/><defs><path id="e" d="M875.28 0h220.672v43.37H875.28z"/></defs><clipPath id="f"><use xlink:href="#e" overflow="visible"/></clipPath><path d="M943.294 29.96c.832 2.515 2.012 4.683 3.542 6.5 1.528 1.82 3.396 3.244 5.602 4.27 2.206 1.025 4.703 1.537 7.49 1.537s5.283-.512 7.49-1.538c2.206-1.026 4.073-2.45 5.602-4.27 1.53-1.817 2.71-3.985 3.542-6.5.832-2.517 1.267-5.265 1.306-8.245-.04-2.98-.474-5.728-1.306-8.245-.833-2.515-2.013-4.683-3.542-6.502-1.53-1.82-3.396-3.242-5.603-4.268-2.206-1.025-4.702-1.538-7.49-1.538-2.786 0-5.283.513-7.49 1.538-2.205 1.026-4.073 2.45-5.6 4.268-1.53 1.82-2.71 3.987-3.543 6.502-.833 2.517-1.268 5.264-1.306 8.245.038 2.98.473 5.728 1.306 8.244m-1.22-16.606c.833-2.632 2.052-4.935 3.658-6.91s3.6-3.54 5.98-4.702C954.092.582 956.832 0 959.928 0c3.096 0 5.835.58 8.215 1.742 2.38 1.16 4.374 2.73 5.98 4.703s2.825 4.277 3.658 6.91c.833 2.632 1.25 5.418 1.25 8.36 0 2.94-.417 5.728-1.25 8.36-.832 2.633-2.05 4.935-3.657 6.91s-3.6 3.532-5.98 4.673c-2.38 1.14-5.12 1.713-8.215 1.713-3.097 0-5.835-.57-8.216-1.712-2.38-1.14-4.374-2.7-5.98-4.674s-2.825-4.276-3.657-6.91c-.833-2.63-1.25-5.418-1.25-8.36 0-2.94.417-5.727 1.25-8.36m-14.37 29.088h-1.16V.988h1.16v41.454zm-49.96-12.483c.833 2.515 2.013 4.683 3.543 6.5 1.528 1.82 3.396 3.244 5.603 4.27 2.207 1.025 4.703 1.537 7.49 1.537s5.284-.512 7.49-1.538c2.206-1.026 4.073-2.45 5.602-4.27 1.53-1.817 2.71-3.985 3.542-6.5.832-2.517 1.267-5.265 1.306-8.245-.04-2.98-.474-5.728-1.306-8.245-.833-2.515-2.013-4.683-3.542-6.502s-3.396-3.242-5.602-4.268c-2.206-1.025-4.703-1.538-7.49-1.538s-5.283.513-7.49 1.538c-2.206 1.026-4.074 2.45-5.602 4.268-1.53 1.82-2.71 3.987-3.542 6.502-.833 2.517-1.268 5.264-1.306 8.245.038 2.98.473 5.728 1.306 8.244m-1.22-16.606c.833-2.632 2.052-4.935 3.66-6.91 1.604-1.973 3.598-3.54 5.98-4.702C888.545.582 891.282 0 894.38 0c3.096 0 5.835.58 8.215 1.742 2.38 1.16 4.374 2.73 5.98 4.703 1.606 1.974 2.826 4.277 3.658 6.91.832 2.632 1.25 5.418 1.25 8.36 0 2.94-.418 5.728-1.25 8.36-.832 2.633-2.052 4.935-3.657 6.91-1.607 1.973-3.6 3.532-5.98 4.673-2.38 1.14-5.12 1.713-8.216 1.713-3.097 0-5.835-.57-8.215-1.712-2.38-1.14-4.375-2.7-5.98-4.674-1.607-1.974-2.826-4.276-3.658-6.91-.833-2.63-1.248-5.418-1.248-8.36 0-2.94.414-5.727 1.247-8.36M1060.217 29.96c.832 2.515 2.012 4.683 3.542 6.5 1.527 1.82 3.395 3.244 5.6 4.27 2.207 1.025 4.704 1.537 7.49 1.537s5.284-.512 7.49-1.538c2.207-1.026 4.074-2.45 5.603-4.27 1.53-1.817 2.71-3.985 3.542-6.5.832-2.517 1.267-5.265 1.306-8.245-.038-2.98-.473-5.728-1.305-8.245-.833-2.515-2.013-4.683-3.542-6.502-1.53-1.82-3.396-3.242-5.603-4.268-2.206-1.025-4.702-1.538-7.49-1.538s-5.283.513-7.49 1.538c-2.205 1.026-4.073 2.45-5.6 4.268-1.53 1.82-2.71 3.987-3.543 6.502-.833 2.517-1.268 5.264-1.306 8.245.04 2.98.474 5.728 1.307 8.244m-1.22-16.606c.833-2.632 2.052-4.935 3.658-6.91s3.6-3.54 5.98-4.702c2.38-1.16 5.12-1.742 8.216-1.742 3.097 0 5.836.58 8.216 1.742 2.38 1.16 4.374 2.73 5.98 4.703 1.606 1.974 2.825 4.277 3.658 6.91.832 2.632 1.248 5.418 1.248 8.36 0 2.94-.416 5.728-1.248 8.36-.833 2.633-2.052 4.935-3.658 6.91-1.606 1.973-3.6 3.532-5.98 4.673-2.38 1.14-5.12 1.713-8.215 1.713-3.096 0-5.834-.57-8.215-1.712-2.38-1.14-4.374-2.7-5.98-4.674s-2.825-4.276-3.657-6.91c-.833-2.63-1.25-5.418-1.25-8.36 0-2.94.417-5.727 1.25-8.36m-14.37 29.088h-1.16V.988h1.16v41.454zM994.67 29.96c.833 2.515 2.013 4.683 3.543 6.5 1.53 1.82 3.397 3.244 5.604 4.27 2.206 1.025 4.702 1.537 7.49 1.537s5.283-.512 7.49-1.538c2.205-1.026 4.072-2.45 5.6-4.27 1.53-1.817 2.71-3.985 3.543-6.5.832-2.517 1.267-5.265 1.306-8.245-.04-2.98-.474-5.728-1.306-8.245-.833-2.515-2.013-4.683-3.542-6.502-1.53-1.82-3.396-3.242-5.602-4.268-2.206-1.025-4.703-1.538-7.49-1.538s-5.283.513-7.49 1.538c-2.206 1.026-4.074 2.45-5.602 4.268-1.53 1.82-2.71 3.987-3.54 6.502-.834 2.517-1.27 5.264-1.307 8.245.038 2.98.473 5.728 1.306 8.244m-1.22-16.606c.832-2.632 2.05-4.935 3.658-6.91 1.605-1.973 3.6-3.54 5.98-4.702 2.38-1.16 5.118-1.742 8.215-1.742 3.096 0 5.835.58 8.215 1.742 2.38 1.16 4.374 2.73 5.98 4.703 1.606 1.974 2.826 4.277 3.658 6.91.832 2.632 1.25 5.418 1.25 8.36 0 2.94-.418 5.728-1.25 8.36-.832 2.633-2.052 4.935-3.657 6.91-1.608 1.973-3.6 3.532-5.982 4.673-2.38 1.14-5.12 1.713-8.215 1.713-3.097 0-5.835-.57-8.215-1.712-2.38-1.14-4.375-2.7-5.98-4.674-1.607-1.974-2.826-4.276-3.658-6.91-.833-2.63-1.248-5.418-1.248-8.36 0-2.94.415-5.727 1.248-8.36" clip-path="url(#f)" fill="#B3B3B3"/></g></svg>