<svg xmlns="http://www.w3.org/2000/svg" xmlns:xlink="http://www.w3.org/1999/xlink" preserveAspectRatio="none" width="200" height="200" viewBox="0 0 200 200"><defs><g id="a"><path fill="#ccc" d="M433.65 390.6q-.077.264-.2.5l.25-.55q.113-.267.2-.55-.1.302-.25.6m-58.8-63.05l.45-.7h-.2q-.14.19-.45.5l-.8.75-1.75 1.15-4.7 1.9-.55.1-1.05.3q-.3.1-2.25.45l-2.4.4q-1.65.3-2.55.35l-13.6.45-8.1-.45q-1.7-.25-2.55-.35l-4.65-.85-3.95-1.25-3-1.45-1.9-1.5q-.4-.4-.5-.6l-.4-.55.05.2.7 1.15.7.85 2.35 1.9q1.3.9 3.45 1.8l2.1.75q.75.3 2.3.7l2.45.55q2.45.45 2.6.45l6.85.7 9.9-.1 5.45-.6q1.3-.15 2.6-.45l2.45-.55q2.2-.55 4.4-1.45 2.15-.9 3.45-1.8l1.35-.95 1.75-1.8m-41.2-30.65l.15-.05 2.6-1.15 2.5-.75 3.05 28.9-1.2-31.5h.1l2.95-.4 5.95-.15 4.9.55h.1v.05l81.45 34.25q.038.1.05.2-1.288-4.146-3-8.2-7.15-16.85-20.1-29.8-10.977-10.935-24.7-17.75v.05q-14.15-4.55-29.55-4.55-19 0-36.4 7.35-16.75 7.1-29.7 20.05-12.95 12.95-20.05 29.7-7.35 17.4-7.35 36.4 0 26.85 14.15 49.45 1.616 2.6 3.35 5.05 1.053-4.424 2.4-9.5l2.25-8.35q1.75-4.1 5.45-5.8 1.8-.85 3.3-.85.185 0 12.45-3.75l3.1 26.05-7.85 26.25q3.095 1.586 6.3 2.95 17.45 7.35 36.5 7.35 19.1 0 36.5-7.35 3.49-1.48 6.8-3.2l-7.95-26 3.05-25.7-.05-.75q-4.195-1.603-8.55-2.4l-2.5 11.55q-3.4 12.7-7 14.8h-40.2q-3.6-2.1-7-14.8l-2.5-11.35q.716-.226 1.45-.45 1.95-1.2 4.1-2.5 4.3-2.5 5.35-2.8l2.8.8h.2l1.05-11.15q-2.95-5.3-4.2-11.45-.4.25-.95.15-1.15-.2-1.85-2.1-1.4-3.75-1.9-8-.7-5.65 1.8-4.7l-1.35-2.45 4.05 1.15q5.2 1.25 10.7 1.9 17.6 2.05 32.1-3.05.604-1.045 1.1-2.1-.942.425-2.05.8-9.05 3.05-22.05 3.05t-22-3.05q-9.15-3.1-9.15-7.7 0-2.9 3.5-6.65.65-7.95 4.05-14.15 3.3-5.95 8.65-9.5l4 8.2-1.55-6q-1-3.4-1.6-5.1m44.3 129.9q2.2 2.25 2.2 5.4 0 3.15-2.2 5.4-2.25 2.2-5.4 2.2h-8.5q-3.15 0-5.35-2.2-2.25-2.25-2.25-5.4 0-3.15 2.25-5.4 2.2-2.25 5.35-2.25h8.5q3.15 0 5.4 2.25m-8.3 4.2l2.8-4.25L366 432l1.5.4-2.65 5.2 6.1-5.6-1.3-1z"/><path fill="#B3B3B3" d="M375.15 326.75l-.05.1h.2l.2-.45.05-.2-.4.55z"/></g><path fill="#999" d="M346.8 261.4h-.25q-16.438.042-31.7 5.55l-.2.05q-2.268.807-4.5 1.75-16.75 7.1-29.7 20.05-12.95 12.95-20.05 29.7-.943 2.232-1.75 4.5l-.05.2q-5.508 15.263-5.55 31.7v1q.002.204 0 .4.002.19 0 .35.003.198 0 .35.003.167 0 .3.004.147 0 .3.236 8.26 1.8 16.2l1.9 7.7q.184.556.35 1.1l2.4 6.8q.075.188.15.35l.15.4q.263.687.55 1.35.02.076.05.15 7.15 16.85 20.1 29.85l.75.75.05-.25q.686-3.443 1.6-7.4-1.734-2.45-3.35-5.05-14.15-22.6-14.15-49.45 0-19 7.35-36.4 7.1-16.75 20.05-29.7 12.95-12.95 29.7-20.05 17.4-7.35 36.4-7.35 15.4 0 29.55 4.55v-.05q-2.528-1.238-5.15-2.35-.136-.057-.3-.15l-6.35-2.4q-.974-.302-1.95-.6-13.468-4.2-27.9-4.2z" id="b"/><path fill="#B3B3B3" d="M356.6 294.95l2.5.75 2.6 1.15.15.05-3.15 11.1 4-8.2q5.4 3.55 8.65 9.5 3.4 6.2 4.05 14.15 3.55 3.8 3.55 6.65 0 4.043-7.1 6.9-.496 1.055-1.1 2.1l-.85 2.45q2.45-.95 1.75 4.75-.55 4.35-1.95 8.1-.65 1.75-1.7 2-.6.1-1.05-.2-1.15 6.1-4.15 11.45l.9 11.15h.2l2.3-.8q1.75.45 6.45 4.2l4 1.2-.05.15q4.355.797 8.55 2.4l.05.75.1-.6q12.857 4 13.5 4l3.3.85q3.65 1.7 5.4 5.8l2.3 7.9q2.477 9.082 3.95 16.2-.076.125-.2.2l.25-.15q.435-.472.85-.95.18-.163.3-.35 9.787-10.32 16-23 .487-.934.9-1.9.74-1.493 1.4-3.05l.2-.55q.123-.236.2-.5.15-.298.25-.6l.7-1.8q5.224-13.78 5.9-28.6.033-.49.05-1 .035-.656.05-1.35.024-1.085 0-2.15.11-16.47-4.35-28.25-.012-.1-.05-.2l-81.45-34.25-1.2 31.45 1-8.05q.35-2.65.45-4l1.6-16.85z" id="c"/><path d="M380.15 432.2q0-3.15-2.2-5.4-2.25-2.25-5.4-2.25h-8.5q-3.15 0-5.35 2.25-2.25 2.25-2.25 5.4 0 3.15 2.25 5.4 2.2 2.2 5.35 2.2h8.5q3.15 0 5.4-2.2 2.2-2.25 2.2-5.4m-7.7-5.45l-2.8 4.25 1.3 1-6.1 5.6 2.65-5.2-1.5-.4 6.45-5.25M296.3 390.1q-1.5 0-3.3.85-3.7 1.7-5.45 5.8l-2.25 8.35q-1.347 5.076-2.4 9.5-.914 3.957-1.6 7.4l-.05.25q1.57 1.53 3.2 2.95.193.197.4.35 8.24 7.29 17.85 12.4.67.388 1.3.7l7.85-26.25-3.1-26.05q-12.265 3.75-12.45 3.75m105.8.85l-3.3-.85q-.643 0-13.5-4l-3.15 26.3 7.95 26 .1-.05q1.008-.526 2-1.1 11.496-6.332 20.95-15.75.213-.214.4-.45.124-.075.2-.2-1.473-7.118-3.95-16.2l-2.3-7.9q-1.75-4.1-5.4-5.8m-32.2-49.4l.85-2.45q-14.5 5.1-32.1 3.05-5.5-.65-10.7-1.9l-4.05-1.15 1.35 2.45q-2.5-.95-1.8 4.7.5 4.25 1.9 8 .7 1.9 1.85 2.1.55.1.95-.15 1.25 6.15 4.2 11.45l-1.05 11.15h-.2l-2.8-.8q-1.05.3-5.35 2.8-2.15 1.3-4.1 2.5-.734.224-1.45.45l2.5 11.35q3.4 12.7 7 14.8h40.2q3.6-2.1 7-14.8l2.55-11.7-4-1.2q-4.7-3.75-6.45-4.2l-2.3.8h-.2l-.9-11.15q3-5.35 4.15-11.45.45.3 1.05.2 1.05-.25 1.7-2 1.4-3.75 1.95-8.1.7-5.7-1.75-4.75m-26.1-49.6l-2.95.4h-.1l1.2 31.5-3.05-28.9-2.5.75-2.6 1.15-.15.05q.6 1.7 1.6 5.1l1.55 6-4-8.2q-5.35 3.55-8.65 9.5-3.4 6.2-4.05 14.15-3.5 3.75-3.5 6.65 0 4.6 9.15 7.7 9 3.05 22 3.05t22.05-3.05q1.108-.375 2.05-.8 7.1-2.857 7.1-6.9 0-2.85-3.55-6.65-.65-7.95-4.05-14.15-3.25-5.95-8.65-9.5l-4 8.2 3.15-11.1-.15-.05-2.6-1.15-2.5-.75-1.6 16.85q-.1 1.35-.45 4l-1 8.05 1.2-31.5h-.1l-4.9-.55-5.95.15m31.7 34.45l-.2.45-.45.7-1.75 1.8-1.35.95q-1.3.9-3.45 1.8-2.2.9-4.4 1.45l-2.45.55q-1.3.3-2.6.45l-5.45.6-9.9.1-6.85-.7q-.15 0-2.6-.45l-2.45-.55q-1.55-.4-2.3-.7l-2.1-.75q-2.15-.9-3.45-1.8l-2.35-1.9-.7-.85-.7-1.15-.05-.2.4.55q.1.2.5.6l1.9 1.5 3 1.45 3.95 1.25 4.65.85q.85.1 2.55.35l8.1.45 13.6-.45q.9-.05 2.55-.35l2.4-.4q1.95-.35 2.25-.45l1.05-.3.55-.1 4.7-1.9 1.75-1.15.8-.75q.31-.31.45-.5l.05-.1.4-.55-.05.2z" id="d"/></defs><use xlink:href="#a" transform="translate(-246.35 -255.2)"/><use xlink:href="#b" transform="translate(-246.35 -255.2)"/><use xlink:href="#c" transform="translate(-246.35 -255.2)"/><use xlink:href="#d" transform="translate(-246.35 -255.2)"/></svg>