<svg xmlns="http://www.w3.org/2000/svg" xmlns:xlink="http://www.w3.org/1999/xlink" preserveAspectRatio="none" width="200" height="200" viewBox="0 0 200 200"><defs><g id="a"><path fill="#ccc" d="M568.35 208.95l.05-.9q-2.45.45-4.1 2.5-1.65 2-1.65 4.7 0 3.05 2.05 5.15 1.027 1.077 2.25 1.6 1.278.55 2.75.55 2.9 0 4.95-2.15 2.05-2.1 2.05-5.15 0-2.6-1.55-4.6-1.55-2-3.95-2.55l-.05.85q2.05.55 3.35 2.25 1.35 1.8 1.35 4.05 0 2.65-1.8 4.55t-4.35 1.9q-2.6 0-4.4-1.9-1.8-1.9-1.8-4.55 0-2.3 1.4-4.05 1.35-1.75 3.45-2.25m134.45-23.8l.25.1q.13-.24.2-.5-.075.245-.2.5l-.25-.1m-50.2-14.85q-.23-.216-.5-.45l-4.25-1.3q1.67 1.18 3.35 2.95 1.794 1.922 3 4.05.665 1.192 1.15 2.45h-1.95q-2.3 0-3.9 1.7-1.65 1.7-1.65 4.1v4.15h.1l-.2 11.15q.25 12.2 2.5 17.6l.9 1.85q.22.362.45.7 1.1 1.545 2.5 2.45-1.05-.15-2.3-.7v-.55q-.05-.4-.45-.55l-2.2-1.1q-.25-.1-.5-.15-.6-.05-.8.45l-.65 1.8q-.2.85.8 1.1l2.4.65q.75.2 1-.55 2.9 1.15 5.2.65 2.35.5 5.2-.65.45.7 1 .55l2.4-.65q.5-.125.7-.4.2-.275.1-.7l-.6-1.8q-.25-.5-.8-.45l-.55.15-2.2 1.1q-.6.3-.4 1.1-1.4.55-2.3.7 1.7-1.1 2.95-3.15l.9-1.85q2.2-5.4 2.5-17.6l-.2-11.15h.1v-4.15q0-.98-.3-1.85-1.697-1.857-3.5-3.65-.847-.3-1.8-.3h-2.3q-.875-2.652-2.5-4.95-1.052-1.443-2.4-2.75m10.05 10.5q1.25 1.3 1.25 3.15v4h.2q.112 2.534.15 4.85.37 16.442-2.3 23.4l-1.25 2.35q-1.7 2.45-4.1 3.05-2.35-.6-4.1-3.05l-1.25-2.35q-1.9-5.05-2.25-15.85-.2-6.55.15-12.4h.15v-4q0-1.85 1.25-3.15 1.25-1.3 3-1.3h6.1q1.75 0 3 1.3m19.4-96.05q-13-12.95-29.85-20.1-.136-.057-.3-.15l-6.35-2.4q-1.09-.3-2.2-.65 7.205 2.325 14.05 5.8v.05q-14.4-4.8-29.65-4.8-19 0-36.4 7.35-16.75 7.1-29.7 20.05-12.95 12.95-20.05 29.7-7.35 17.4-7.35 36.4 0 23.62 10.95 43.95.98-4.105 2.2-8.35l2.5-8.05q1.9-4.7 5.9-6.6l3.65-.95q.75 0 24.75-7.8-1.442 1.653-2.75 3.4-7.396 9.965-10.75 23.55-1.727 7.066-2.15 13.8-.13 1.873-.15 3.7-1.5.75-1.5 2.6 0 1.2.8 2.05.8.8 1.95.85 1.15 0 1.95-.85.85-.85.85-2.05 0-.9-.45-1.65-.5-.7-1.25-1.05-.027-2.142.1-4.4.412-6.138 2.1-13 1.797-7.106 4.75-13.2l.3-.65q2.233-4.466 5.1-8.4 1.256-1.697 2.6-3.3 1.196-1.36 2.45-2.65 1.3-1.05 2.85-2.2 3.05-2.3 4.2-2.6l-3.2 7.05q-3.55 8.6-5.5 16.55l4.3 1.1q5 1.45 8.6 3.05l-3.15 1.75q-3.7 2.3-6.2 5l3.15 2.55q3.8 3.4 7.35 7.55 8.47 9.933 12.75 21.3 1.436 3.794 2.4 7.75.962-3.908 2.4-7.7 4.297-11.296 12.85-21.35 5.7-6.65 10.4-10.1-2.55-2.7-6.2-5L632 189.9q5.7-2.55 12.85-4.15-1.9-7.85-5.45-16.4-2.528-5.657-3.05-6.9-1.404-.443-2.75-.4l.05.3v.05q-.2 1.45-.85 2.15l-14.5 9.8q3.4 2.65 4.7 5.1-1.7 2.3-3.05 5.65-.65 1.7-1 2.9v3.35l2.65 7.4.6 16.25-2.25 5.1q-1.81 4.174-3.15 7.65-.563 1.515-1.05 2.9-.487-1.428-1.1-3-1.266-3.433-3.05-7.55l-2.3-5.1.65-16.25 2.6-7.4V188q-1.35-4.85-4-8.55 1.3-2.45 4.65-5.1l-14.55-9.8q-.7-.75-.8-2.15v-.05l1.15-14.5q-3.15-5.9-4.55-13.1-.45.3-1.05.2-1.25-.25-2-2.4-1.5-4.15-2.1-9.15-.8-6.45 1.95-5.4l-1.5-16.2q0-1.4.55-3.25 1.05-3.6 3.8-5.65 1.2-.85 2.65-5.1 2.65-4.15 10.6-5.6.25-.05-.1-.15-.55-.2-.85-.4-1.75-1.25-1.35-1.05.1.05 1.3.5 1.35.5 2.45.6l1.2.05q.15 0 0-.1-.55-.25-1.05-.65-.85-.65-1.5-1.9-.8-1.55-.3-.85.35.5 2 1.15 1.7.7 2.95.75l4.1.05q5.105.04 9.15 1.3.958.29 1.85.65 2.464 1.02 4.85 2.8l73.05 37.55q-1.29-4.02-2.95-7.95-7.15-16.85-20.1-29.8z"/><path fill="#B3B3B3" d="M687.1 211.9q-.456.568-.95 1.1.014.052 0 .05l.95-1.15m-23.35-32.2q-.966-.996-2.15-1.4 1.803 1.793 3.5 3.65-.373-1.243-1.35-2.25z"/></g><path d="M607.15 78.25q-.5-.7.3.85.65 1.25 1.5 1.9.5.4 1.05.65.15.1 0 .1l-1.2-.05q-1.1-.1-2.45-.6-1.2-.45-1.3-.5-.4-.2 1.35 1.05.3.2.85.4.35.1.1.15-7.95 1.45-10.6 5.6-1.45 4.25-2.65 5.1-2.75 2.05-3.8 5.65-.55 1.85-.55 3.25l1.5 16.2q-2.75-1.05-1.95 5.4.6 5 2.1 9.15.75 2.15 2 2.4.6.1 1.05-.2 1.4 7.2 4.55 13.1l-1.15 14.5v.05q.1 1.4.8 2.15l14.55 9.8q-3.35 2.65-4.65 5.1 2.65 3.7 4 8.55v3.35l-2.6 7.4-.65 16.25 2.3 5.1q1.784 4.117 3.05 7.55.613 1.572 1.1 3 .487-1.385 1.05-2.9 1.34-3.476 3.15-7.65l2.25-5.1-.6-16.25-2.65-7.4V188q.35-1.2 1-2.9 1.35-3.35 3.05-5.65-1.3-2.45-4.7-5.1l14.5-9.8q.65-.7.85-2.15v-.05l-1.2-14.5q3.15-5.9 4.55-13.05 1.9.95 3-2.1 1.55-4.25 2.15-9.25.8-6.5-1.95-5.45l1.5-16.2q.1-3.3-1.1-6.6-.75-1.95-1.7-2.85-.55-.5-1.55-.85-.6-.2-.7-.95-.05-1.3-1.05-2.45-.75-.95-2.7-2.5-.42-.338-.85-.65-2.386-1.78-4.85-2.8-.892-.36-1.85-.65-4.045-1.26-9.15-1.3l-4.1-.05q-1.25-.05-2.95-.75-1.65-.65-2-1.15m56.75 105.7q0-1.85-1.25-3.15-1.25-1.3-3-1.3h-6.1q-1.75 0-3 1.3t-1.25 3.15v4h-.15q-.35 5.85-.15 12.4.35 10.8 2.25 15.85l1.25 2.35q1.75 2.45 4.1 3.05 2.4-.6 4.1-3.05l1.25-2.35q2.67-6.958 2.3-23.4-.038-2.316-.15-4.85h-.2v-4m-8.25-13.05q-1.72-.53-3.65-1.15.066.06.1.1.27.234.5.45 1.348 1.307 2.4 2.75 1.625 2.298 2.5 4.95h2.3q.953 0 1.8.3 1.184.404 2.15 1.4.977 1.007 1.35 2.25.3.87.3 1.85v4.15h-.1l.2 11.15q-.3 12.2-2.5 17.6l-.9 1.85q-1.25 2.05-2.95 3.15.9-.15 2.3-.7-.2-.8.4-1.1l2.2-1.1.55-.15q.55-.05.8.45l.6 1.8q.1.425-.1.7-.2.275-.7.4l-2.4.65q-.55.15-1-.55-2.85 1.15-5.2.65-2.3.5-5.2-.65-.25.75-1 .55L648 222q-1-.25-.8-1.1l.65-1.8q.2-.5.8-.45.25.05.5.15l2.2 1.1q.4.15.45.55v.55q1.25.55 2.3.7-1.4-.905-2.5-2.45-.23-.338-.45-.7l-.9-1.85q-2.25-5.4-2.5-17.6l.2-11.15h-.1v-4.15q0-2.4 1.65-4.1 1.6-1.7 3.9-1.7h1.95q-.485-1.258-1.15-2.45-1.206-2.128-3-4.05-1.68-1.77-3.35-2.95-.18-.09-.35-.2l-4.25-1.4q-5.2-4.3-7.05-4.8.01.03.15.3.522 1.243 3.05 6.9 3.55 8.55 5.45 16.4-7.15 1.6-12.85 4.15l3.15 1.75q3.65 2.3 6.2 5-4.7 3.45-10.4 10.1-8.553 10.054-12.85 21.35-1.438 3.792-2.4 7.7-.964-3.956-2.4-7.75-4.28-11.367-12.75-21.3-3.55-4.15-7.35-7.55l-3.15-2.55q2.5-2.7 6.2-5l3.15-1.75q-3.6-1.6-8.6-3.05l-4.3-1.1q1.95-7.95 5.5-16.55l3.2-7.05q-1.15.3-4.2 2.6-1.55 1.15-2.85 2.2-1.254 1.29-2.45 2.65-1.344 1.603-2.6 3.3-2.867 3.934-5.1 8.4l-.3.65q-2.953 6.094-4.75 13.2-1.688 6.862-2.1 13-.127 2.258-.1 4.4.75.35 1.25 1.05.45.75.45 1.65 0 1.2-.85 2.05-.8.85-1.95.85-1.15-.05-1.95-.85-.8-.85-.8-2.05 0-1.85 1.5-2.6.02-1.827.15-3.7.423-6.734 2.15-13.8 3.354-13.585 10.75-23.55 1.308-1.747 2.75-3.4-24 7.8-24.75 7.8l-3.65.95q-4 1.9-5.9 6.6l-2.5 8.05q-1.22 4.245-2.2 8.35-1.24 5.175-2.1 10.1-.026.163-.05.3H543q3.016 3.666 6.4 7.05l.15.15q.11.108.2.2l.15.15.05.05q.15.14.25.25.367.335.7.65l4.95 4.45q.163.115.3.2 1.996 1.675 4.05 3.2.283.19.55.35 6.63 5.087 15.15 9 .186.074.35.15.164.076.3.15.324.14.6.25.2.097.35.15.644.304 1.25.55.24.11.45.2 17.195 7.263 36.05 7.35H616.6q1.812-.018 3.55-.1l5.4-.4q.298-.02.55-.05.33-.033.6-.1 10.852-1.23 21.1-5 2.22-.78 4.4-1.7 9.615-4.08 17.95-10.05 5.646-4.01 10.7-8.9.604-.556 1.2-1.15 2.128-2.136 4.1-4.4.494-.532.95-1.1l.35-.4q.445-.502.85-1.05-1.572-8.165-4.3-18.25l-2.5-8.65q-1.95-4.7-5.95-6.6l-3.65-.95q-.405 0-16.25-5.1m-87.25 37.15l-.05.9q-2.1.5-3.45 2.25-1.4 1.75-1.4 4.05 0 2.65 1.8 4.55t4.4 1.9q2.55 0 4.35-1.9 1.8-1.9 1.8-4.55 0-2.25-1.35-4.05-1.3-1.7-3.35-2.25l.05-.85q2.4.55 3.95 2.55 1.55 2 1.55 4.6 0 3.05-2.05 5.15-2.05 2.15-4.95 2.15-1.472 0-2.75-.55-1.223-.523-2.25-1.6-2.05-2.1-2.05-5.15 0-2.7 1.65-4.7 1.65-2.05 4.1-2.5z" id="b"/><path fill="#B3B3B3" d="M708.3 135.9q-.98-7.382-3.1-13.35l-73.15-37.6q.43.312.85.65 1.95 1.55 2.7 2.5 1 1.15 1.05 2.45.1.75.7.95 1 .35 1.55.85.95.9 1.7 2.85 1.2 3.3 1.1 6.6l-1.5 16.2q2.75-1.05 1.95 5.45-.6 5-2.15 9.25-1.1 3.05-3 2.1-1.4 7.15-4.55 13.05l1.15 14.2q1.346-.043 2.75.4-.14-.27-.15-.3 1.85.5 7.05 4.8l4.25 1.4q.17.11.35.2l4.25 1.3q-.034-.04-.1-.1 1.93.62 3.65 1.15 15.845 5.1 16.25 5.1l3.65.95q4 1.9 5.95 6.6l2.5 8.65q2.728 10.085 4.3 18.25l.05-.05q.182-.177.35-.4l3.95-5.25q.284-.387.55-.8.246-.336.45-.7l3.25-5.2q.573-.94 1.1-1.9.275-.51.55-1.05.3-.542.6-1.15.67-1.278 1.3-2.6.38-.808.75-1.65.084-.17.15-.4.42-.857.8-1.75.48-1.134.9-2.3l-.25-.1.25.1q.125-.255.2-.5 6.25-16.13 6.25-33.7v-.55q-.04-7.417-1.2-14.6z" id="c"/><path fill="#999" d="M657.4 67.3v-.05q-6.845-3.475-14.05-5.8 1.11.35 2.2.65-14.368-4.8-29.85-4.8h-.3q-16.446.05-31.65 5.55l-.25.05q-2.254.8-4.5 1.75-16.75 7.1-29.7 20.05-12.95 12.9-20.05 29.7-.94 2.227-1.75 4.5v.05q-5.558 15.293-5.6 31.85v.25q0 18.482 6.85 35.35l.4.95q.06.108.1.2 5.29 12.464 13.75 22.8h.05q.024-.137.05-.3.86-4.925 2.1-10.1-10.95-20.33-10.95-43.95 0-19 7.35-36.4 7.1-16.75 20.05-29.7 12.95-12.95 29.7-20.05 17.4-7.35 36.4-7.35 15.25 0 29.65 4.8z" id="d"/></defs><use xlink:href="#a" transform="translate(-515.2 -51.1)"/><use xlink:href="#b" transform="translate(-515.2 -51.1)"/><use xlink:href="#c" transform="translate(-515.2 -51.1)"/><use xlink:href="#d" transform="translate(-515.2 -51.1)"/></svg>