<svg xmlns="http://www.w3.org/2000/svg" viewBox="0 0 119.808 117.347" enable-background="new 0 0 119.808 117.347"><g><path fill="#fff" d="M23.505 27.068h74.48v64.43h-74.48z"/><path d="M104.505 35.432h12.312c1.645 0 2.99 1.82 2.99 4.042 0 2.223-1.345 4.042-2.99 4.042h-12.312M104.505 55.895h12.312c1.645 0 2.99 1.82 2.99 4.042 0 2.224-1.345 4.042-2.99 4.042h-12.312M104.505 76.358h12.312c1.645 0 2.99 1.82 2.99 4.042s-1.345 4.042-2.99 4.042h-12.312M35.83 15.58V3.045C35.83 1.37 37.617 0 39.8 0c2.185 0 3.97 1.37 3.97 3.046V15.58M55.93 15.58V3.045C55.93 1.37 57.717 0 59.9 0c2.185 0 3.972 1.37 3.972 3.046V15.58M76.03 15.58V3.045C76.03 1.37 77.82 0 80 0s3.972 1.37 3.972 3.046V15.58M43.77 101.768v12.534c0 1.675-1.786 3.045-3.97 3.045s-3.97-1.37-3.97-3.045v-12.534M63.87 101.768v12.534c0 1.675-1.786 3.045-3.97 3.045s-3.97-1.37-3.97-3.045v-12.534M83.972 101.768v12.534c0 1.675-1.786 3.045-3.97 3.045-2.185 0-3.972-1.37-3.972-3.045v-12.534M15.303 43.516H2.99c-1.644 0-2.99-1.82-2.99-4.042 0-2.223 1.346-4.042 2.99-4.042h12.313M15.303 63.98H2.99C1.347 63.98 0 62.16 0 59.936s1.346-4.042 2.99-4.042h12.313M15.303 84.442H2.99C1.347 84.442 0 82.622 0 80.4s1.346-4.042 2.99-4.042h12.313"/><path d="M88.47 34.723c0-1.884-1.26-3.426-2.796-3.426H34.122c-1.537 0-2.796 1.54-2.796 3.426V83.11c0 1.885 1.26 3.428 2.796 3.428h51.55c1.538 0 2.797-1.542 2.797-3.427V34.724zm14.116 60.342c0 2.815-1.88 5.118-4.178 5.118h-77.02c-2.298 0-4.18-2.303-4.18-5.118V22.77c0-2.816 1.88-5.12 4.18-5.12h77.02c2.298 0 4.178 2.304 4.178 5.12v72.295zM75.277 76.638L52.115 53.475l-8.95 8.95-19.66-19.66 3.515-3.514 16.144 16.144 8.95-8.95 26.68 26.68zM81.727 79.572l-.537-14.76-14.222 14.223zM34.212 59.654V87.41h8.95V68.604l-3.037-2.983zM45.648 66.615V87.41h8.95V63.63L51.56 60.65zM57.083 65.62v26.763h8.95V74.57l-5.026-4.972z"/></g></svg>