<svg xmlns="http://www.w3.org/2000/svg" viewBox="0 0 132.794 118.821" enable-background="new 0 0 132.794 118.821"><path d="M129.06 64.858c-2.198 1.637-4.81 2.94-7.44 3.697-2.532.707-2.728.938-4.168 5.204-2.512 7.577-9.682 12.113-17.456 13.028-3.112.372-3.48.392-5.235 3.04-.427.664-.917 1.25-1.443 1.775-2.276 2.295-2.217 2.65-.914 3.637 16.458 12.472 43.085-8.1 39.85-29.39-.427-2.785-.505-3.016-3.193-.992M93.2 86.89c1.035-2.167 1.97-2.692 4.344-2.732 7.675-.118 14.98-4.32 17.45-11.86 1.66-5.1 1.794-5.454 5.476-6.348 2.456-.585 5.124-1.97 7.13-3.51 2.98-2.295 3.854-4.324 4.615-7.907 1.538-7.224.078-16.886-5.18-22.34-1.656-1.712-2.394-3.078-3.175-6.158-2.162-8.53-12.585-16.106-21.073-17.16-4.678-.602-5.224-.74-7.637-2.63C86.928-.2 73.703-2.15 64.296 2.74c-3.975 2.064-4.654 2.437-7.73 1.343C46.433.523 33.07 5.72 27.97 15.168c-2.36 4.365-2.512 4.616-7.13 5.318-9.094 1.366-15.212 7.09-15.153 16.596.02 3.76-.197 4.11-2.26 7.303-11.61 18.095 7.907 41.02 34.126 33.526 2.472-.722 2.687-1.188 2.943-3.158.23-1.81.035-2.202-2.673-1.696-5.878 1.095-12.346-.31-16.242-5.14-.796-.974-.408-.876-3.8-1.343-5.08-.702-9.17-6.216-7.945-11.278.644-2.65.584-2.67.275-3.877-2.104-7.79 4.752-15.466 12.836-14.18 1.676.252 1.83.272 1.907-1.773.216-6.118 4.87-11.26 10.85-12.41 1.83-.348 1.908-.564 3.682-2.608 4.713-5.494 16.4-6.1 20.803-.196 1.205 1.617 1.574 1.794 3.057 2.163 1.13.294 1.38.133 2.256-1.42 3.8-6.723 13.328-10.17 20.435-6.974 2.38 1.05 2.55.972 3.74.697 7.814-1.75 17.51 3.002 20.552 10.463.855 2.064 1.068 2.413 3.077 3.355 6.114 2.837 8.96 10.4 4.595 15.948-1.284 1.617-1.363 1.85-1.206 3.485.542 6.216-5.863 9.858-11.435 9.583-2.63-.132-2.984-.17-4.09.374-5.086 2.59-12.684 2.704-17.28-1.052-1.326-1.11-1.655-1.012-3.307-.137-4.757 2.492-14.395 3.7-18.256-.702-1.205-1.4.918-3.254 2.127-1.85 2.978 3.408 11.82 1.87 15.387-.234 2.626-1.58 3-1.657 5.766.682 3.66 3.115 10.242 2.943 14.316.8 1.774-.934 2.237-.977 5.14-.702 4.074.37 9.545-2.163 8.767-6.954-.354-2.182-.314-2.61 1.5-4.62 3.876-4.222 1.286-10.26-3.663-12.29-2.24-.914-2.767-1.558-4.034-4.635-2.53-6.21-10.925-10.24-17.432-8.746-2.51.565-2.78.275-5.356-.875-5.843-2.67-13.923.332-16.965 5.9-.664 1.21-.35 1.716 1.17 3.623 1.42 1.813 2.3 4.113 2.393 6.703.06 1.38.176 1.52 1.64 1.436 1.283-.055 2.586.083 3.795.432 1.95.55 2.143.643 3.508-.133 8.198-4.677 19.05-2.126 23.8 6.21.916 1.6-1.517 3-2.435 1.384-3.99-6.993-13.127-9.057-19.982-5.145-2.59 1.483-2.767 1.212-5.647.392-3.76-1.072-8.668.565-10.91 3.78-1.694 2.452-1.867 2.53-4.732 3.35-7.362 2.084-11.45 10.675-9.136 17.766.915 2.786 2.767 5.042 5.298 6.6 2.375 1.46 2.516 1.95 3.45 4.52 1.907 5.26 8.14 6.622 13.03 4.89 3.37-1.188 3.37-1.09 6.878-.446 3.25.58 7.264-.315 10.01-2.147 2.803-1.888 3.348-2.045 6.272-1.85 4.536.292 9.952-3.562 9.234-8.49-.255-1.83 2.53-2.222 2.782-.393.934 6.39-5.24 11.573-11.26 11.71-3.228.075-4.068.447-5.705 1.5-3.31 2.138-7.828 3.095-11.725 2.413-2.59-.448-3.076-.467-5.765.43-6.215 2.08-13.75.095-16.28-6.352-.763-1.927-.92-2.394-2.71-3.583-1.596-1.032-2.923-2.378-4.034-3.99-1.5-2.167-1.79-2.085-3.057-.88-7.402 7.15-5.922 19.85 4.108 24.15 3.917 1.68 8.59 1.872 12.546.196 3.933-1.67 4.227-1.577 7.672.236 4.227 2.22 9.274 3.04 13.928 1.754 3.233-.914 5.73-2.61 7.185-5.686m1.718 13.013c-1.675-.762-3.37-1.758-4.815-2.865-1.77-1.346-2.414-1.578-5.298-1.248-2.295.27-2.315.447-1.185 2.708 2.94 5.84 5.12 11.938 8.547 17.604 1.6 2.614 2.088 3.06 5.106 2.512 1.832-.345 2.472-1.225 2.123-2.704-1.15-5.023-1.892-8.528-2.123-12.468-.157-2.433-.25-2.59-2.355-3.54M46.433 63.63c1.464-1.283 1.735-2.182 1.582-4.108-.585-7.598 4.167-15.584 11.706-17.688 1.85-.526 1.967-.486 3.19-2.24.98-1.42 2.36-2.61 3.918-3.51 1.852-1.027 1.89-1.42 1.813-3.134-.156-3.697-2.397-6.915-6.058-7.81-3.077-.74-3.116-.757-4.44-2.884-3-4.83-13.15-4.207-16.732.14-2.123 2.572-2.36 2.882-5.2 3.427-5.086 1.013-9.037 5.726-8.512 10.965.134 1.46.507 1.6 2.708 1.562 7.574-.177 15.015 9.312 10.612 16.3-4.36 6.916-13.516 4.365-17.88-1.635-1.09-1.5 1.19-3.136 2.28-1.656 3.116 4.284 9.952 6.972 13.225 1.792 3.293-5.24-3.332-12.758-8.9-11.942-2.787.41-2.943.428-4.85-.467-6.758-3.16-13.908 3.136-12.06 10.07.57 2.084.432 2.1-.27 5.18-.778 3.37 2.044 7.17 5.376 7.774 4.013.703 4.46.507 5.375 1.81 3.465 4.87 10.13 5.906 15.583 4.344 3.31-.953 5.083-4.128 7.535-6.29"/></svg>