<svg xmlns="http://www.w3.org/2000/svg" viewBox="0 0 150 158.7" enable-background="new 0 0 150 158.7"><path d="M150 127.9c0-1.4-.6-2.7-1.4-3.7-1-1-2.3-1.6-3.7-1.6H5.2c-1.4 0-2.7.6-3.7 1.6s-1.6 2.3-1.6 3.7v25.5c0 1.4.6 2.7 1.6 3.7.4.4.8.8 1.4 1.1l.1.1c.6.3 1.1.4 1.8.4h140c1.4 0 2.7-.6 3.7-1.6s1.4-2.3 1.4-3.7v-25.5m-40.1 9.1c-.6-.6-.8-1.3-.8-2.1s.3-1.6.8-2.1c.6-.6 1.3-1 2.1-1s1.6.3 2.1 1c.6.6 1 1.3 1 2.1s-.3 1.6-1 2.1c-.6.6-1.3.8-2.1.8-.8.1-1.5-.2-2.1-.8m11.4-2.1c0-.8.3-1.6.8-2.1.6-.6 1.3-1 2.1-1s1.6.3 2.1 1c.6.6 1 1.3 1 2.1s-.3 1.6-1 2.1c-.6.6-1.3.8-2.1.8s-1.6-.3-2.1-.8c-.3-.5-.8-1.4-.8-2.1m14.6-3.1c.8 0 1.6.3 2.1 1 .6.6.8 1.3.8 2.1s-.3 1.6-.8 2.1c-.6.6-1.4.8-2.1.8-.8 0-1.6-.3-2.1-.8-.6-.6-.8-1.3-.8-2.1s.3-1.6.8-2.1c.5-.7 1.1-1 2.1-1m-112.7 3.1c.3 0 .6.1.8.3.3.1.3.4.3.7v9c0 .7-.4 1.1-1.1 1.1h-9c-.7 0-1.1-.4-1.1-1.1v-9c0-.7.4-1.1 1.1-1.1h9m125.5-51.5c-1-1-2.3-1.6-3.7-1.6H5.2c-1.4 0-2.7.6-3.7 1.6S-.1 85.6-.1 87v25.5c0 1.4.6 2.7 1.6 3.7s2.3 1.4 3.7 1.4h139.7c1.4 0 2.7-.4 3.7-1.4s1.4-2.3 1.4-3.7V87c0-1.4-.4-2.7-1.4-3.7M132.7 94c0-.8.3-1.6.8-2.1.6-.6 1.3-.8 2.1-.8s1.6.3 2.1.8c.6.6.8 1.3.8 2.1s-.3 1.6-.8 2.1c-.6.6-1.4 1-2.1 1-.8 0-1.6-.3-2.1-1-.6-.5-.8-1.2-.8-2.1m-8.4-3.1c.8 0 1.6.3 2.1.8.6.6 1 1.3 1 2.1s-.3 1.6-1 2.1c-.6.6-1.3 1-2.1 1s-1.6-.3-2.1-1c-.6-.6-.8-1.3-.8-2.1s.3-1.6.8-2.1c.6-.3 1.3-.8 2.1-.8m-12.4 0c.8 0 1.6.3 2.1.8.6.6 1 1.3 1 2.1s-.3 1.6-1 2.1c-.6.6-1.3 1-2.1 1s-1.6-.3-2.1-1c-.6-.6-.8-1.3-.8-2.1s.3-1.6.8-2.1c.6-.3 1.3-.8 2.1-.8m-87.7 13.3c0 .7-.4 1.1-1.1 1.1h-9c-.7 0-1.1-.4-1.1-1.1v-9c0-.7.4-1.1 1.1-1.1h9c.7 0 1.1.4 1.1 1.1v9M5.2 41c-1.4 0-2.7.6-3.7 1.6S-.1 44.7-.1 46v25.8c0 1.4.6 2.5 1.6 3.5s2.1 1.4 3.4 1.6h139.8c1.4 0 2.7-.6 3.7-1.6s1.4-2.3 1.4-3.7V46c0-1.4-.6-2.5-1.4-3.5-1-1-2.3-1.6-3.7-1.6H5.2m17.9 12.4c.7 0 1.1.4 1.1 1.1v9c0 .3-.1.6-.3.8-.1.3-.4.3-.8.3h-9c-.3 0-.6-.1-.7-.3-.3-.3-.3-.4-.3-.8v-9c0-.7.4-1.1 1.1-1.1h8.9m91-2.3c.6.6 1 1.3 1 2.1s-.3 1.6-1 2.1c-.6.6-1.3.8-2.1.8s-1.6-.3-2.1-.8c-.6-.6-.8-1.3-.8-2.1s.3-1.6.8-2.1c.6-.6 1.3-.8 2.1-.8s1.5.3 2.1.8m8.1 4.3c-.6-.6-.8-1.3-.8-2.1s.3-1.6.8-2.1c.6-.6 1.3-.8 2.1-.8s1.6.3 2.1.8c.6.6 1 1.3 1 2.1s-.3 1.6-1 2.1c-.6.6-1.3.8-2.1.8-.8.1-1.5-.3-2.1-.8m11.4-4.3c.6-.6 1.3-.8 2.1-.8s1.6.3 2.1.8c.6.6.8 1.3.8 2.1s-.3 1.6-.8 2.1c-.6.6-1.4.8-2.1.8-.8 0-1.6-.3-2.1-.8-.6-.6-.8-1.3-.8-2.1-.1-.8.1-1.5.8-2.1M5.2.1C3.8.1 2.5.7 1.5 1.7.6 2.7 0 3.8 0 5.2V31c0 1.4.6 2.5 1.6 3.5s2.3 1.6 3.7 1.6H145c1.4 0 2.7-.4 3.7-1.6 1-1 1.4-2.3 1.4-3.7V5.2c0-1.4-.6-2.7-1.4-3.7-.6-.6-1.1-.8-1.7-1.1-.6-.3-1.3-.4-2-.4H5.2m19 13.7v9c0 .7-.4 1.1-1.1 1.1h-9c-.7 0-1.1-.3-1.1-1.1v-9c0-.7.4-1.1 1.1-1.1h9c.7-.1 1.1.2 1.1 1.1m111.6 1.7c-.8 0-1.6-.3-2.1-.8-.6-.6-.8-1.3-.8-2.3 0-.8.3-1.6.8-2.1.6-.6 1.3-.8 2.1-.8s1.6.3 2.1.8c.6.6.8 1.3.8 2.1s-.3 1.6-.8 2.3c-.6.5-1.4.8-2.1.8m-9.3-5.2c.6.6 1 1.3 1 2.1s-.3 1.6-1 2.3c-.6.6-1.3.8-2.1.8s-1.6-.3-2.1-.8c-.6-.6-.8-1.3-.8-2.3 0-.8.3-1.6.8-2.1.6-.6 1.3-.8 2.1-.8.8-.1 1.5.2 2.1.8m-14.6-.9c.8 0 1.6.3 2.1.8.6.6 1 1.3 1 2.1s-.3 1.6-1 2.3c-.6.6-1.3.8-2.1.8s-1.6-.3-2.1-.8c-.6-.6-.8-1.3-.8-2.3 0-.8.3-1.6.8-2.1.6-.5 1.3-.8 2.1-.8z"/></svg>