<svg xmlns="http://www.w3.org/2000/svg" xmlns:xlink="http://www.w3.org/1999/xlink" viewBox="0 0 243.476 218.729" enable-background="new 0 0 243.476 218.729"><g><path d="M110.95 218.572c60.342 0 109.26-48.916 109.26-109.26C220.21 48.973 171.292.056 110.95.056S1.695 48.972 1.695 109.315c0 60.34 48.916 109.257 109.257 109.257" opacity=".15"/><g opacity=".1"><path d="M159.52 11.713C148.675 8.09 137.067 6.13 125 6.13 64.84 6.13 16.068 54.904 16.068 115.074c0 42.312 24.12 78.992 59.36 97.035l-.254-.058C32.417 197.34 1.695 156.762 1.695 109.007 1.695 48.837 50.465.062 110.63.062c17.595 0 34.216 4.172 48.928 11.582l-.037.07z" fill="#231F20"/><path d="M159.52 11.713C148.675 8.09 137.067 6.13 125 6.13 64.84 6.13 16.068 54.904 16.068 115.074c0 42.312 24.12 78.992 59.36 97.035l-.254-.058C32.417 197.34 1.695 156.762 1.695 109.007 1.695 48.837 50.465.062 110.63.062c17.595 0 34.216 4.172 48.928 11.582l-.037.07z" fill="none"/></g><defs><circle id="a" cx="109.364" cy="109.364" r="109.364"/></defs><clipPath id="b"><use xlink:href="#a" overflow="visible"/></clipPath><path clip-path="url(#b)" fill="#999" d="M82 177.08l129.89 30.758 31.467-120.995-83.94-23.6-.51 90.486H82z"/><path d="M163.154 82.112h14.41c1.925 0 3.5 2.13 3.5 4.73 0 2.602-1.575 4.732-3.5 4.732h-14.41M163.154 106.062h14.41c1.925 0 3.5 2.13 3.5 4.73 0 2.603-1.575 4.732-3.5 4.732h-14.41M163.154 130.013h14.41c1.925 0 3.5 2.13 3.5 4.73s-1.575 4.732-3.5 4.732h-14.41M82.774 58.876v-14.67c0-1.96 2.092-3.565 4.647-3.565 2.557 0 4.647 1.605 4.647 3.566v14.67M106.3 58.876v-14.67c0-1.96 2.092-3.565 4.647-3.565 2.556 0 4.647 1.605 4.647 3.566v14.67M129.827 58.876v-14.67c0-1.96 2.092-3.565 4.647-3.565s4.647 1.605 4.647 3.566v14.67M92.068 159.754v14.67c0 1.96-2.092 3.564-4.647 3.564s-4.645-1.604-4.645-3.564v-14.67M115.595 159.754v14.67c0 1.96-2.092 3.564-4.647 3.564s-4.647-1.604-4.647-3.564v-14.67M139.12 159.754v14.67c0 1.96-2.09 3.564-4.646 3.564s-4.647-1.604-4.647-3.564v-14.67M58.75 91.573H44.34c-1.926 0-3.502-2.13-3.502-4.73s1.576-4.732 3.5-4.732h14.41M58.75 115.524H44.34c-1.926 0-3.502-2.13-3.502-4.73 0-2.602 1.576-4.732 3.5-4.732h14.41M58.75 139.475H44.34c-1.926 0-3.502-2.13-3.502-4.73s1.576-4.732 3.5-4.732h14.41"/><path d="M144.386 81.282c0-2.206-1.473-4.01-3.273-4.01H80.776c-1.8 0-3.273 1.804-3.273 4.01v56.635c0 2.206 1.473 4.01 3.273 4.01h60.337c1.8 0 3.273-1.804 3.273-4.01V81.282zm16.52 70.626c0 3.295-2.2 5.99-4.89 5.99H65.872c-2.69 0-4.89-2.695-4.89-5.99V67.29c0-3.295 2.2-5.99 4.89-5.99h90.148c2.69 0 4.89 2.695 4.89 5.99v84.618z"/></g></svg>