<svg xmlns="http://www.w3.org/2000/svg" xmlns:xlink="http://www.w3.org/1999/xlink" viewBox="0 0 176.275 172.241" enable-background="new 0 0 176.275 172.241"><g><defs><path id="a" d="M78.496 7h88.78v159.695h-88.78z"/></defs><clipPath id="b"><use xlink:href="#a" overflow="visible"/></clipPath><g opacity=".1" clip-path="url(#b)"><defs><path id="c" d="M69.496 0h106.78v167.695H69.495z"/></defs><clipPath id="d"><use xlink:href="#c" overflow="visible"/></clipPath><path d="M103.297 111.67l-2.77 15.937-20.99 38.063 22.85-2.632 43.725-25.448c32.785-42.12 16.656-87.632 16.656-87.632L83.538 9.095l3.756 80.433 6.477.004 9.527 22.138z" clip-path="url(#d)" fill="#231F20"/></g><path d="M48.385 60.093c1.237 3.426 3.078 2.218 3.078 2.218 1.19 6.206 3.47 11.018 4.57 13.094l-1.197 14.53c.074.688.286 1.56.823 2.178l14.566 9.78c-3.364 2.652-4.66 5.074-4.66 5.074 2.658 3.734 4.004 8.574 4.004 8.574v3.36s-1.67 4.533-2.634 7.375l-.612 16.25s3.914 8.344 6.45 15.685c2.538-7.34 6.452-15.685 6.452-15.685l-.612-16.25c-.964-2.842-2.634-7.376-2.634-7.376v-3.36s1.346-4.84 4.005-8.574c0 0-1.297-2.422-4.66-5.073l14.494-9.78c.537-.618.748-1.49.822-2.18l-1.195-14.53c1.1-2.074 3.374-6.882 4.566-13.082.173.12 1.823 1.158 2.994-2.085 1.236-3.426 4.41-16.323.206-14.674l.96-10.516.524-5.724s.123-3.3-1.096-6.576c-.513-1.38-1.133-2.372-1.693-2.872-1.343-1.2-2.12-.452-2.226-1.805-.142-1.81-1.446-3.08-3.75-4.907-2.54-2.012-7.125-5.395-16.714-5.413-.707-.03-2.873-.004-4.09-.053-1.77-.07-4.54-1.285-4.983-1.904-.294-.412.48 1.746 1.84 2.768.993.75 1.398.7 1.03.723-.107.008-.894-.025-1.184-.058-1.77-.205-3.598-1.022-3.757-1.09-.21-.092.62.572 1.327 1.044.62.412 1.41.486.954.568-13.014 2.36-10.865 8.937-13.262 10.694-4.408 3.23-4.328 8.882-4.328 8.882l1.484 16.24c-4.204-1.648-1.1 11.107.137 14.533M26.688 150.105c-3.886 0-7.037-3.28-7.037-7.33 0-3.594 2.485-6.584 5.762-7.21-.023.24-.057.616-.072.918-2.77.64-4.84 3.215-4.84 6.292 0 3.56 2.77 6.447 6.188 6.447s6.188-2.886 6.188-6.447c0-3.034-2.013-5.58-4.724-6.264.02-.27.05-.62.076-.888 3.146.732 5.497 3.657 5.497 7.153 0 4.05-3.15 7.33-7.037 7.33m111.808-39.01c-3.07-7.527-9.586-7.576-9.586-7.576-.454 0-11.64-3.562-19.898-6.212 1.81 1.56 4.18 4.22 5.5 8.218h2.302c3.08 0 5.578 2.6 5.578 5.81v4.138h-.096s1.282 20.128-2.296 28.777c0 0-1.134 3.183-3.865 4.98.716-.11 1.487-.334 2.316-.703-.045-.19-.148-.815.407-1.11l2.226-1.088s.94-.47 1.304.285l.297.932.347.913c.186.822-.824 1.09-.824 1.09l-2.377.655c-.62.15-.927-.427-1-.59-2.034.84-3.76.965-5.21.672-1.45.293-3.178.167-5.21-.673-.074.164-.38.74-1 .59l-2.378-.653s-1.01-.268-.824-1.09l.346-.913.297-.932c.366-.755 1.306-.286 1.306-.286l2.225 1.088c.556.294.453.918.407 1.11.83.368 1.6.593 2.316.703-2.73-1.797-3.865-4.98-3.865-4.98-3.578-8.648-2.296-28.775-2.296-28.775h-.096v-4.138c0-3.21 2.497-5.81 5.578-5.81h1.943c-2.043-5.368-6.466-8.72-7.834-9.658-2.577-.83-4.282-1.382-4.282-1.382s-5.183-4.28-7.056-4.815c.122.24 5.61 11.076 8.675 23.64 0 0-7.14 1.564-12.872 4.14 0 0 5.336 2.37 9.366 6.74.29-.208-19.505 14.1-25.657 39.132h-.013c-6.203-25.24-25.657-39.133-25.657-39.133 4.03-4.37 9.367-6.738 9.367-6.738-5.733-2.577-12.87-4.142-12.87-4.142 3.1-12.705 8.676-23.643 8.676-23.643-1.86.514-7.073 4.818-7.073 4.818-17.224 17.654-17.43 42.396-17.38 45.604 1.01.437 1.72 1.475 1.72 2.686 0 1.6-1.3 2.93-2.836 2.902-1.518-.026-2.74-1.316-2.74-2.905 0-1.132.62-2.113 1.528-2.592.013-4.504.844-27.31 15.8-44.434-7.712 2.482-24.196 7.77-24.75 7.77 0 0-6.515.048-9.586 7.575 0 0-4.328 12.707-6.892 26.243 18.105 20.342 43.98 34.903 72.71 34.903 28.728 0 54.6-13.485 72.705-33.822-2.587-13.377-6.92-27.323-6.92-27.323"/><path d="M120.93 111.513c0-2.458-1.913-4.45-4.272-4.45h-6.077c-2.36 0-4.27 1.992-4.27 4.45V115.475h-.175c-.17 3.29-.89 20.373 2.137 28.263 0 0 1.545 4.427 5.347 5.39 3.802-.963 5.347-5.39 5.347-5.39 3.026-7.89 2.308-24.972 2.137-28.263h-.174V111.513z"/></g></svg>