<svg baseProfile="basic" xmlns="http://www.w3.org/2000/svg" viewBox="60 90 212.3 70" enable-background="new 0 0 172.3 139.983"><path fill-rule="evenodd" clip-rule="evenodd" fill="#fff" d="M66.056 97.513H86.74v2.913H66.055v-2.913zM111.933 97.513h.768l.726.116.726.136.736.157.736.242.673.274.673.325.683.357.62.43.6.432.462.442h-29.63v-2.913h22.228zM125.16 97.513h16.814l1.03 2.913h-17.843v-2.913zM155.644 97.513H172.3v2.913h-17.687l1.03-2.913zM66.056 103.18H86.74v2.87H66.055v-2.87zM71.965 108.796h8.843v2.934h-8.843v-2.934zM71.965 114.432h8.843v2.934h-8.843v-2.934zM121.428 103.18l.158.274.326.684.273.757.347 1.156H89.704v-2.87h31.724zM95.614 108.796h8.832v2.934h-8.832v-2.934zM122.805 108.796l-.02.463-.085.756-.115.736-.18.725-.083.253h-8.98v-2.934h9.463zM121.07 114.432l-.273.41-.463.6-.483.567-.515.535-.567.495-.495.326h-22.66v-2.934h25.457zM125.16 103.18h18.79l1.032 2.87h-19.82v-2.87zM172.3 103.18v2.87h-19.642l.998-2.87H172.3zM131.08 108.796h14.827l1.03 2.934H131.08v-2.934zM166.537 108.796v2.934H150.67l1.01-2.934h14.857zM140.87 117.366h15.91l.893-2.608v2.608h8.864v-2.934h-16.803l-.925 2.608-.926-2.608H131.08v2.934h8.865v-2.63l.925 2.63zM66.056 137.03H86.74v2.953H66.055v-2.954zM66.056 131.35H86.74v2.955H66.055v-2.954zM71.965 120.1h8.843v2.902h-8.843V120.1zM71.965 125.736h8.843v2.933h-8.843v-2.934zM118.273 120.1l.495.357.567.484.516.548.484.567.463.6.273.347H95.614V120.1h22.66zM95.614 125.736h8.832v2.933h-8.832v-2.934zM122.322 125.736l.084.283.18.725.114.726.084.758.02.44h-9.462v-2.932h8.98zM122.532 131.35l-.126.6-.22.704-.274.705-.326.682-.158.263H89.704v-2.954h32.828zM119.335 137.03l-.567.472-.6.463-.62.41-.673.357-.684.326-.67.263-.738.253-.735.158-.705.138-.757.084-.757.03H89.704v-2.953h29.63zM131.08 120.1h8.865v2.902h-8.864V120.1zM154.803 123.002h-12.02l-.998-2.902h14.038l-1.02 2.902zM157.673 120.1h8.864v2.902h-8.864V120.1zM131.08 125.736h8.865v2.933h-8.864v-2.934zM153.91 125.736l-1.01 2.933h-8.18l-1.01-2.934h10.2zM157.673 125.736h8.864v2.933h-8.864v-2.934zM125.16 131.35h14.785v2.955H125.16v-2.954zM151.974 131.35l-1 2.955h-4.33l-1.01-2.954h6.34zM157.673 131.35H172.3v2.955h-14.627v-2.954zM125.16 137.03h14.785v2.953H125.16v-2.954zM157.673 137.03H172.3v2.953h-14.627v-2.954zM149.02 139.983l1.01-2.954h-2.44l.998 2.953h.43z"/><circle cx="268" cy="161" r="3" fill="#fff" fill-rule="both"/></svg>