<svg xmlns="http://www.w3.org/2000/svg" viewBox="0 0 818.603 504.703" enable-background="new 0 0 818.603 504.703"><g fill="#666"><path d="M6.055 40.507v12.79h-.36v-12.79h.36zM.385 67.02c.256-.813.633-1.523 1.128-2.133s1.11-1.093 1.845-1.45 1.58-.538 2.535-.538c.955 0 1.8.178 2.535.536s1.35.842 1.845 1.45c.495.61.872 1.32 1.128 2.133.258.81.386 1.67.386 2.578 0 .908-.128 1.768-.385 2.58s-.632 1.522-1.127 2.132c-.496.608-1.11 1.09-1.845 1.44-.734.354-1.58.53-2.535.53-.956 0-1.8-.177-2.535-.53-.734-.35-1.35-.832-1.845-1.44-.495-.61-.87-1.32-1.128-2.132C.128 71.365 0 70.506 0 69.598c0-.908.128-1.767.385-2.58zM.76 72.14c.258.776.622 1.445 1.094 2.007s1.048 1 1.73 1.315 1.45.475 2.31.475 1.63-.158 2.31-.475c.682-.316 1.258-.755 1.73-1.316.472-.563.835-1.23 1.093-2.008.256-.776.39-1.624.403-2.544-.012-.92-.146-1.767-.403-2.543-.257-.776-.62-1.445-1.093-2.007-.472-.56-1.048-1-1.73-1.316-.68-.316-1.45-.475-2.31-.475s-1.63.158-2.31.475-1.258.756-1.73 1.316c-.472.562-.836 1.23-1.093 2.007S.37 68.68.36 69.598c.012.92.146 1.767.403 2.544zM6.055 85.9v12.79h-.36V85.9h.36zM.385 112.41c.256-.81.633-1.52 1.128-2.13s1.11-1.094 1.845-1.452 1.58-.537 2.535-.537c.955 0 1.8.18 2.535.538s1.35.842 1.845 1.45c.495.61.872 1.32 1.128 2.133.258.813.386 1.673.386 2.58 0 .908-.128 1.768-.385 2.58s-.632 1.522-1.127 2.132c-.496.608-1.11 1.09-1.845 1.44-.734.354-1.58.53-2.535.53-.956 0-1.8-.177-2.535-.53-.734-.35-1.35-.832-1.845-1.44-.496-.61-.872-1.32-1.128-2.132-.257-.812-.385-1.672-.385-2.58 0-.907.128-1.766.385-2.58zm.376 5.124c.258.776.622 1.445 1.094 2.007s1.048 1 1.73 1.317 1.45.475 2.31.475 1.63-.158 2.31-.475c.682-.316 1.258-.755 1.73-1.316.472-.56.835-1.23 1.093-2.006.256-.776.39-1.624.403-2.544-.012-.92-.146-1.767-.403-2.543-.257-.776-.62-1.445-1.093-2.007-.472-.56-1.048-1-1.73-1.316-.68-.316-1.45-.475-2.31-.475s-1.63.157-2.31.474-1.258.756-1.73 1.316c-.472.562-.836 1.23-1.093 2.007S.37 114.07.36 114.99c.012.92.146 1.768.403 2.544zM.385 135.107c.256-.812.633-1.522 1.128-2.132s1.11-1.093 1.845-1.45 1.58-.538 2.535-.538c.955 0 1.8.18 2.535.537s1.35.842 1.845 1.45c.495.61.872 1.32 1.128 2.133.258.812.386 1.672.386 2.58 0 .907-.128 1.767-.385 2.58s-.632 1.52-1.127 2.13c-.496.61-1.11 1.09-1.845 1.442-.734.352-1.58.527-2.535.527-.956 0-1.8-.176-2.535-.528-.734-.353-1.35-.834-1.845-1.442-.496-.61-.872-1.32-1.128-2.132-.257-.812-.385-1.67-.385-2.58 0-.907.128-1.766.385-2.58zm.376 5.123c.258.776.622 1.445 1.094 2.007s1.048 1 1.73 1.316 1.45.475 2.31.475 1.63-.158 2.31-.475c.682-.316 1.258-.755 1.73-1.316.472-.562.835-1.23 1.093-2.007.256-.776.39-1.624.403-2.544-.012-.92-.146-1.767-.403-2.543-.257-.776-.62-1.445-1.093-2.007-.472-.56-1.048-1-1.73-1.316-.68-.316-1.45-.475-2.31-.475s-1.63.158-2.31.475-1.258.756-1.73 1.316c-.472.562-.836 1.23-1.093 2.007s-.39 1.624-.402 2.543c.012.92.146 1.768.403 2.544zM6.055 153.988v12.79h-.36v-12.79h.36zM.385 180.5c.256-.812.633-1.522 1.128-2.132s1.11-1.093 1.845-1.45 1.58-.538 2.535-.538c.955 0 1.8.18 2.535.537s1.35.842 1.845 1.45c.495.61.872 1.32 1.128 2.133.258.812.386 1.672.386 2.58 0 .907-.128 1.767-.385 2.58s-.632 1.52-1.127 2.13c-.496.61-1.11 1.09-1.845 1.442-.734.353-1.58.528-2.535.528-.956 0-1.8-.176-2.535-.528-.734-.352-1.35-.833-1.845-1.44-.496-.61-.872-1.32-1.128-2.133-.257-.813-.385-1.673-.385-2.58 0-.908.128-1.768.385-2.58zm.376 5.123c.258.776.622 1.445 1.094 2.007s1.048 1 1.73 1.316 1.45.475 2.31.475 1.63-.157 2.31-.474c.682-.316 1.258-.755 1.73-1.316.472-.562.835-1.23 1.093-2.007.256-.776.39-1.624.403-2.544-.012-.92-.146-1.768-.403-2.544s-.62-1.445-1.093-2.007c-.472-.562-1.048-1-1.73-1.317-.68-.316-1.45-.475-2.31-.475s-1.63.158-2.31.475-1.258.756-1.73 1.316-.836 1.23-1.093 2.006-.39 1.624-.402 2.543c.012.92.146 1.767.403 2.543zM6.055 199.38v12.79h-.36v-12.79h.36zM.385 225.893c.256-.812.633-1.522 1.128-2.132s1.11-1.092 1.845-1.45 1.58-.537 2.535-.537c.955 0 1.8.18 2.535.537s1.35.842 1.845 1.45c.495.61.872 1.32 1.128 2.133.258.812.386 1.672.386 2.58 0 .907-.128 1.767-.385 2.58s-.632 1.52-1.127 2.13c-.496.61-1.11 1.09-1.845 1.442-.734.353-1.58.528-2.535.528-.956 0-1.8-.176-2.535-.528-.734-.352-1.35-.833-1.845-1.44-.496-.61-.872-1.32-1.128-2.133-.257-.813-.385-1.672-.385-2.58 0-.908.128-1.767.385-2.58zm.376 5.123c.258.776.622 1.445 1.094 2.007s1.048 1 1.73 1.316 1.45.474 2.31.474 1.63-.158 2.31-.475c.682-.317 1.258-.756 1.73-1.317.472-.562.835-1.23 1.093-2.007.256-.776.39-1.624.403-2.544-.012-.92-.146-1.767-.403-2.543-.257-.777-.62-1.446-1.093-2.008-.472-.56-1.048-1-1.73-1.316-.68-.316-1.45-.475-2.31-.475s-1.63.16-2.31.476-1.258.756-1.73 1.316c-.472.562-.836 1.23-1.093 2.007s-.39 1.623-.402 2.542c.012.92.146 1.767.403 2.544zM6.055 244.773v12.79h-.36v-12.79h.36zM.385 271.285c.256-.812.633-1.522 1.128-2.132s1.11-1.093 1.845-1.45 1.58-.538 2.535-.538c.955 0 1.8.18 2.535.537s1.35.842 1.845 1.45c.495.61.872 1.32 1.128 2.133.258.812.386 1.672.386 2.58 0 .907-.128 1.767-.385 2.58s-.632 1.52-1.127 2.13c-.496.61-1.11 1.09-1.845 1.442-.734.353-1.58.528-2.535.528-.956 0-1.8-.176-2.535-.528-.734-.352-1.35-.833-1.845-1.44-.496-.61-.872-1.32-1.128-2.133-.257-.812-.385-1.672-.385-2.58 0-.907.128-1.766.385-2.58zm.376 5.123c.258.776.622 1.445 1.094 2.007s1.048 1 1.73 1.316 1.45.476 2.31.476 1.63-.158 2.31-.475c.682-.315 1.258-.754 1.73-1.315.472-.562.835-1.23 1.093-2.007.256-.776.39-1.624.403-2.544-.012-.92-.146-1.767-.403-2.543-.257-.775-.62-1.444-1.093-2.006-.472-.56-1.048-1-1.73-1.316-.68-.316-1.45-.475-2.31-.475s-1.63.158-2.31.475-1.258.756-1.73 1.316c-.472.562-.836 1.23-1.093 2.007s-.39 1.625-.402 2.544c.012.92.146 1.768.403 2.544zM.385 293.98c.256-.81.633-1.52 1.128-2.13s1.11-1.094 1.845-1.452 1.58-.537 2.535-.537c.955 0 1.8.18 2.535.538s1.35.842 1.845 1.45c.495.61.872 1.32 1.128 2.133.258.813.386 1.673.386 2.58 0 .908-.128 1.768-.385 2.58s-.632 1.522-1.127 2.132c-.496.608-1.11 1.09-1.845 1.44-.734.354-1.58.53-2.535.53-.956 0-1.8-.177-2.535-.53-.734-.35-1.35-.832-1.845-1.44-.496-.61-.872-1.32-1.128-2.132-.257-.812-.385-1.67-.385-2.58 0-.907.128-1.766.385-2.58zm.376 5.124c.258.776.622 1.445 1.094 2.007s1.048 1 1.73 1.317 1.45.475 2.31.475 1.63-.158 2.31-.475c.682-.316 1.258-.755 1.73-1.316.472-.56.835-1.23 1.093-2.006.256-.776.39-1.624.403-2.544-.012-.92-.146-1.767-.403-2.543-.257-.776-.62-1.445-1.093-2.007-.472-.56-1.048-1-1.73-1.316-.68-.316-1.45-.475-2.31-.475s-1.63.157-2.31.474-1.258.756-1.73 1.316c-.472.562-.836 1.23-1.093 2.007S.37 295.64.36 296.56c.012.92.146 1.768.403 2.544zM6.055 312.862v12.79h-.36v-12.79h.36zM.385 339.374c.256-.812.633-1.522 1.128-2.132s1.11-1.093 1.845-1.45 1.58-.538 2.535-.538c.955 0 1.8.18 2.535.537s1.35.843 1.845 1.452c.495.61.872 1.32 1.128 2.132.258.812.386 1.672.386 2.58 0 .907-.128 1.767-.385 2.58s-.632 1.52-1.127 2.13c-.496.61-1.11 1.09-1.845 1.442-.734.353-1.58.528-2.535.528-.956 0-1.8-.176-2.535-.528-.734-.352-1.35-.833-1.845-1.44-.496-.61-.872-1.32-1.128-2.133-.257-.812-.385-1.672-.385-2.58 0-.907.128-1.766.385-2.58zm.376 5.123c.258.776.622 1.445 1.094 2.007s1.048 1 1.73 1.316 1.45.475 2.31.475 1.63-.158 2.31-.475c.682-.316 1.258-.755 1.73-1.316.472-.562.835-1.23 1.093-2.007.256-.776.39-1.624.403-2.544-.012-.92-.146-1.767-.403-2.543-.257-.776-.62-1.445-1.093-2.007-.472-.56-1.048-1-1.73-1.316-.68-.316-1.45-.475-2.31-.475s-1.63.158-2.31.475-1.258.756-1.73 1.316c-.472.562-.836 1.23-1.093 2.007s-.39 1.624-.402 2.543c.012.92.146 1.768.403 2.544zM6.055 358.255v12.79h-.36v-12.79h.36zM.385 384.767c.256-.812.633-1.522 1.128-2.132s1.11-1.093 1.845-1.45 1.58-.538 2.535-.538c.955 0 1.8.18 2.535.537s1.35.842 1.845 1.45c.495.61.872 1.32 1.128 2.133.258.812.386 1.672.386 2.58 0 .907-.128 1.767-.385 2.58s-.632 1.52-1.127 2.13c-.496.61-1.11 1.09-1.845 1.442-.734.352-1.58.527-2.535.527-.956 0-1.8-.176-2.535-.528-.734-.353-1.35-.834-1.845-1.442-.496-.61-.872-1.32-1.128-2.132-.257-.813-.385-1.672-.385-2.58 0-.908.128-1.767.385-2.58zm.376 5.123c.258.776.622 1.445 1.094 2.007s1.048 1 1.73 1.316 1.45.475 2.31.475 1.63-.158 2.31-.475c.682-.316 1.258-.755 1.73-1.316.472-.562.835-1.23 1.093-2.007.256-.776.39-1.624.403-2.544-.012-.92-.146-1.767-.403-2.543-.257-.776-.62-1.445-1.093-2.007-.472-.56-1.048-1-1.73-1.316-.68-.316-1.45-.475-2.31-.475s-1.63.158-2.31.475-1.258.756-1.73 1.316c-.472.562-.836 1.23-1.093 2.007s-.39 1.624-.402 2.543c.012.92.146 1.767.403 2.544zM6.055 403.647v12.79h-.36v-12.79h.36zM6.055 426.48v12.79h-.36v-12.79h.36zM42.055 0v12.79h-.358V0h.358zM36.385 26.512c.256-.812.633-1.522 1.128-2.132s1.11-1.093 1.845-1.45 1.58-.538 2.535-.538c.955 0 1.8.18 2.535.537s1.35.84 1.845 1.45c.495.61.872 1.32 1.128 2.132.258.812.386 1.672.386 2.58 0 .907-.128 1.767-.385 2.58s-.632 1.52-1.127 2.13c-.496.61-1.11 1.09-1.845 1.442-.734.353-1.58.528-2.535.528-.956 0-1.8-.176-2.535-.528-.734-.352-1.35-.833-1.845-1.44-.496-.61-.872-1.32-1.128-2.133C36.128 30.86 36 30 36 29.09c0-.906.128-1.766.385-2.578zm.376 5.123c.258.776.622 1.445 1.094 2.007s1.048 1 1.73 1.316 1.45.475 2.31.475 1.63-.158 2.31-.475c.682-.316 1.258-.755 1.73-1.316.472-.562.835-1.23 1.093-2.007.256-.776.39-1.624.403-2.544-.012-.918-.146-1.766-.403-2.542-.257-.776-.62-1.445-1.093-2.007-.472-.56-1.048-1-1.73-1.315-.68-.316-1.45-.475-2.31-.475s-1.63.158-2.31.475-1.258.756-1.73 1.316c-.472.563-.836 1.23-1.093 2.008s-.39 1.624-.402 2.543c.012.92.146 1.768.403 2.545zM42.055 45.393v12.79h-.358v-12.79h.358zM36.385 71.904c.256-.812.633-1.522 1.128-2.132s1.11-1.093 1.845-1.45 1.58-.538 2.535-.538c.955 0 1.8.18 2.535.537s1.35.843 1.845 1.452c.495.61.872 1.32 1.128 2.132.258.812.386 1.672.386 2.58 0 .907-.128 1.767-.385 2.58s-.632 1.52-1.127 2.13c-.496.61-1.11 1.09-1.845 1.442-.734.353-1.58.528-2.535.528-.956 0-1.8-.176-2.535-.528-.734-.352-1.35-.833-1.845-1.44-.496-.61-.872-1.32-1.128-2.133-.257-.812-.385-1.67-.385-2.58 0-.907.128-1.766.385-2.58zm.376 5.123c.258.776.622 1.445 1.094 2.007s1.048 1 1.73 1.316 1.45.475 2.31.475 1.63-.158 2.31-.475c.682-.316 1.258-.755 1.73-1.316.472-.562.835-1.23 1.093-2.007.256-.776.39-1.624.403-2.544-.012-.92-.146-1.767-.403-2.543-.257-.776-.62-1.445-1.093-2.007-.472-.56-1.048-1-1.73-1.316-.68-.316-1.45-.475-2.31-.475s-1.63.158-2.31.475-1.258.756-1.73 1.316c-.472.562-.836 1.23-1.093 2.007s-.39 1.624-.402 2.543c.012.92.146 1.768.403 2.544zM36.385 94.6c.256-.81.633-1.52 1.128-2.13s1.11-1.094 1.845-1.452 1.58-.537 2.535-.537c.955 0 1.8.18 2.535.538s1.35.842 1.845 1.45c.495.61.872 1.32 1.128 2.133.258.813.386 1.673.386 2.58 0 .908-.128 1.768-.385 2.58s-.632 1.522-1.127 2.132c-.496.608-1.11 1.09-1.845 1.44-.734.354-1.58.53-2.535.53-.956 0-1.8-.177-2.535-.53-.734-.35-1.35-.832-1.845-1.44-.496-.61-.872-1.32-1.128-2.132-.257-.813-.385-1.672-.385-2.58 0-.908.128-1.767.385-2.58zm.376 5.124c.258.776.622 1.445 1.094 2.007s1.048 1 1.73 1.317 1.45.475 2.31.475 1.63-.158 2.31-.475c.682-.316 1.258-.755 1.73-1.316.472-.56.835-1.23 1.093-2.006.256-.776.39-1.624.403-2.544-.012-.92-.146-1.767-.403-2.543-.257-.776-.62-1.445-1.093-2.007-.472-.56-1.048-1-1.73-1.316-.68-.316-1.45-.475-2.31-.475s-1.63.157-2.31.474-1.258.756-1.73 1.316c-.472.562-.836 1.23-1.093 2.007s-.39 1.624-.402 2.543c.012.92.146 1.767.403 2.544zM42.055 113.48v12.79h-.358v-12.79h.358zM36.385 139.993c.256-.812.633-1.522 1.128-2.132s1.11-1.092 1.845-1.45 1.58-.537 2.535-.537c.955 0 1.8.18 2.535.537s1.35.842 1.845 1.45c.495.61.872 1.32 1.128 2.133.258.812.386 1.672.386 2.58 0 .907-.128 1.767-.385 2.58s-.632 1.52-1.127 2.13c-.496.61-1.11 1.09-1.845 1.442-.734.353-1.58.528-2.535.528-.956 0-1.8-.176-2.535-.528-.734-.352-1.35-.833-1.845-1.44-.496-.61-.872-1.32-1.128-2.133-.257-.812-.385-1.672-.385-2.58 0-.907.128-1.766.385-2.58zm.376 5.123c.258.776.622 1.445 1.094 2.007s1.048 1 1.73 1.316 1.45.474 2.31.474 1.63-.158 2.31-.475c.682-.317 1.258-.756 1.73-1.317.472-.562.835-1.23 1.093-2.007.256-.776.39-1.624.403-2.544-.012-.92-.146-1.767-.403-2.543-.257-.777-.62-1.446-1.093-2.008-.472-.56-1.048-1-1.73-1.316-.68-.316-1.45-.475-2.31-.475s-1.63.16-2.31.476-1.258.756-1.73 1.316c-.472.562-.836 1.23-1.093 2.007s-.39 1.623-.402 2.542c.012.92.146 1.768.403 2.544zM42.055 158.874v12.79h-.358v-12.79h.358zM36.385 185.386c.256-.812.633-1.522 1.128-2.132s1.11-1.093 1.845-1.45 1.58-.538 2.535-.538c.955 0 1.8.18 2.535.537s1.35.842 1.845 1.45c.495.61.872 1.32 1.128 2.133.258.812.386 1.672.386 2.58 0 .907-.128 1.767-.385 2.58s-.632 1.52-1.127 2.13c-.496.61-1.11 1.09-1.845 1.442-.734.353-1.58.528-2.535.528-.956 0-1.8-.176-2.535-.528-.734-.352-1.35-.833-1.845-1.44-.496-.61-.872-1.32-1.128-2.133-.257-.812-.385-1.672-.385-2.58 0-.907.128-1.767.385-2.58zm.376 5.123c.258.775.622 1.444 1.094 2.006s1.048 1 1.73 1.316 1.45.475 2.31.475 1.63-.158 2.31-.475c.682-.316 1.258-.755 1.73-1.316.472-.562.835-1.23 1.093-2.007.256-.777.39-1.625.403-2.545-.012-.92-.146-1.767-.403-2.543-.257-.776-.62-1.445-1.093-2.007-.472-.56-1.048-1-1.73-1.316-.68-.317-1.45-.476-2.31-.476s-1.63.158-2.31.475-1.258.755-1.73 1.315c-.472.562-.836 1.23-1.093 2.007s-.39 1.624-.402 2.543c.012.92.146 1.767.403 2.544zM42.055 204.267v12.79h-.358v-12.79h.358zM36.385 230.778c.256-.812.633-1.522 1.128-2.132s1.11-1.093 1.845-1.45 1.58-.538 2.535-.538c.955 0 1.8.18 2.535.537s1.35.842 1.845 1.45c.495.61.872 1.32 1.128 2.133.258.812.386 1.672.386 2.58 0 .907-.128 1.767-.385 2.58s-.632 1.52-1.127 2.13c-.496.61-1.11 1.09-1.845 1.442-.734.353-1.58.528-2.535.528-.956 0-1.8-.176-2.535-.528-.734-.352-1.35-.833-1.845-1.44-.496-.61-.872-1.32-1.128-2.133-.257-.812-.385-1.672-.385-2.58 0-.907.128-1.766.385-2.58zm.376 5.123c.258.777.622 1.446 1.094 2.008s1.048 1 1.73 1.316 1.45.475 2.31.475 1.63-.16 2.31-.476c.682-.316 1.258-.755 1.73-1.316.472-.562.835-1.23 1.093-2.007.256-.775.39-1.623.403-2.543-.012-.92-.146-1.767-.403-2.543-.257-.776-.62-1.445-1.093-2.007-.472-.56-1.048-1-1.73-1.316-.68-.315-1.45-.474-2.31-.474s-1.63.158-2.31.475-1.258.757-1.73 1.317c-.472.562-.836 1.23-1.093 2.007s-.39 1.624-.402 2.543c.012.92.146 1.768.403 2.544zM36.385 253.475c.256-.812.633-1.522 1.128-2.132s1.11-1.093 1.845-1.45 1.58-.538 2.535-.538c.955 0 1.8.18 2.535.537s1.35.842 1.845 1.45c.495.61.872 1.32 1.128 2.133.258.812.386 1.672.386 2.58 0 .907-.128 1.767-.385 2.58s-.632 1.52-1.127 2.13c-.496.61-1.11 1.09-1.845 1.442-.734.353-1.58.528-2.535.528-.956 0-1.8-.176-2.535-.528-.734-.352-1.35-.833-1.845-1.44-.496-.61-.872-1.32-1.128-2.133-.257-.812-.385-1.672-.385-2.58 0-.908.128-1.767.385-2.58zm.376 5.123c.258.776.622 1.445 1.094 2.007s1.048 1 1.73 1.316 1.45.476 2.31.476 1.63-.158 2.31-.475c.682-.315 1.258-.754 1.73-1.315.472-.562.835-1.23 1.093-2.007.256-.776.39-1.624.403-2.544-.012-.92-.146-1.767-.403-2.543-.257-.775-.62-1.444-1.093-2.006-.472-.56-1.048-1-1.73-1.316-.68-.316-1.45-.475-2.31-.475s-1.63.158-2.31.475-1.258.756-1.73 1.316c-.472.562-.836 1.23-1.093 2.007s-.39 1.625-.402 2.544c.012.92.146 1.767.403 2.544zM42.055 272.355v12.79h-.358v-12.79h.358zM36.385 298.867c.256-.812.633-1.522 1.128-2.132s1.11-1.093 1.845-1.45 1.58-.538 2.535-.538c.955 0 1.8.18 2.535.537s1.35.842 1.845 1.45c.495.61.872 1.32 1.128 2.133.258.812.386 1.672.386 2.58 0 .907-.128 1.767-.385 2.58s-.632 1.52-1.127 2.13c-.496.61-1.11 1.09-1.845 1.442-.734.352-1.58.527-2.535.527-.956 0-1.8-.176-2.535-.528-.734-.353-1.35-.834-1.845-1.442-.496-.61-.872-1.32-1.128-2.132-.257-.812-.385-1.672-.385-2.58 0-.907.128-1.766.385-2.58zm.376 5.123c.258.776.622 1.445 1.094 2.007s1.048 1 1.73 1.316 1.45.475 2.31.475 1.63-.158 2.31-.475c.682-.316 1.258-.755 1.73-1.316.472-.562.835-1.23 1.093-2.007.256-.776.39-1.624.403-2.544-.012-.92-.146-1.767-.403-2.543-.257-.776-.62-1.445-1.093-2.007-.472-.56-1.048-1-1.73-1.316-.68-.316-1.45-.475-2.31-.475s-1.63.158-2.31.475-1.258.756-1.73 1.316c-.472.562-.836 1.23-1.093 2.007s-.39 1.624-.402 2.543c.012.92.146 1.768.403 2.544zM42.055 317.748v12.79h-.358v-12.79h.358zM36.385 344.26c.256-.812.633-1.522 1.128-2.132s1.11-1.093 1.845-1.45 1.58-.538 2.535-.538c.955 0 1.8.18 2.535.537s1.35.842 1.845 1.45c.495.61.872 1.32 1.128 2.133.258.812.386 1.672.386 2.58 0 .907-.128 1.767-.385 2.58s-.632 1.52-1.127 2.13c-.496.61-1.11 1.09-1.845 1.442-.734.353-1.58.528-2.535.528-.956 0-1.8-.176-2.535-.528-.734-.352-1.35-.833-1.845-1.44-.496-.61-.872-1.32-1.128-2.133-.257-.813-.385-1.673-.385-2.58 0-.908.128-1.768.385-2.58zm.376 5.123c.258.776.622 1.445 1.094 2.007s1.048 1 1.73 1.316 1.45.475 2.31.475 1.63-.157 2.31-.474c.682-.316 1.258-.755 1.73-1.316.472-.562.835-1.23 1.093-2.007.256-.776.39-1.624.403-2.544-.012-.92-.146-1.768-.403-2.544s-.62-1.445-1.093-2.007c-.472-.562-1.048-1-1.73-1.317-.68-.316-1.45-.475-2.31-.475s-1.63.158-2.31.475-1.258.756-1.73 1.316-.836 1.23-1.093 2.006-.39 1.624-.402 2.543c.012.92.146 1.766.403 2.543zM42.055 363.14v12.79h-.358v-12.79h.358zM42.055 385.972v12.79h-.358v-12.79h.358zM812.87 105.942v12.79h-.357v-12.79h.358zM807.2 132.453c.257-.812.634-1.522 1.13-2.132s1.11-1.092 1.844-1.45 1.58-.537 2.535-.537c.954 0 1.8.18 2.534.537s1.35.842 1.845 1.45c.494.61.87 1.32 1.127 2.133.257.812.385 1.672.385 2.58 0 .907-.128 1.767-.385 2.58s-.633 1.52-1.128 2.13c-.497.61-1.112 1.09-1.846 1.442-.734.353-1.58.528-2.535.528-.957 0-1.8-.176-2.536-.528-.734-.352-1.35-.833-1.845-1.44-.497-.61-.873-1.32-1.13-2.133-.256-.812-.384-1.672-.384-2.58 0-.907.13-1.766.385-2.58zm.377 5.123c.257.776.62 1.445 1.093 2.007s1.048 1 1.73 1.316 1.45.474 2.31.474 1.63-.158 2.31-.475c.682-.317 1.258-.756 1.73-1.317.472-.562.835-1.23 1.093-2.007.256-.776.39-1.624.403-2.544-.012-.92-.146-1.767-.403-2.543-.257-.777-.62-1.446-1.093-2.008-.472-.56-1.048-1-1.73-1.316-.68-.316-1.45-.475-2.31-.475s-1.63.16-2.31.476-1.258.756-1.73 1.316c-.472.562-.836 1.23-1.093 2.007s-.39 1.623-.403 2.542c.012.92.146 1.768.403 2.544zM812.87 151.334v12.79h-.357v-12.79h.358zM807.2 177.846c.257-.812.634-1.522 1.13-2.132s1.11-1.093 1.844-1.45 1.58-.538 2.535-.538c.954 0 1.8.18 2.534.537s1.35.842 1.845 1.45c.494.61.87 1.32 1.127 2.133.257.812.385 1.672.385 2.58 0 .907-.128 1.767-.385 2.58s-.633 1.52-1.128 2.13c-.497.61-1.112 1.09-1.846 1.442-.734.353-1.58.528-2.535.528-.957 0-1.8-.176-2.536-.528-.734-.352-1.35-.833-1.845-1.44-.497-.61-.873-1.32-1.13-2.133-.256-.812-.384-1.672-.384-2.58 0-.907.13-1.767.385-2.58zm.377 5.123c.257.775.62 1.444 1.093 2.006s1.048 1 1.73 1.316 1.45.475 2.31.475 1.63-.158 2.31-.475c.682-.316 1.258-.755 1.73-1.316.472-.562.835-1.23 1.093-2.007.256-.777.39-1.625.403-2.545-.012-.92-.146-1.767-.403-2.543-.257-.776-.62-1.445-1.093-2.007-.472-.56-1.048-1-1.73-1.316-.68-.317-1.45-.476-2.31-.476s-1.63.158-2.31.475-1.258.755-1.73 1.315c-.472.562-.836 1.23-1.093 2.007s-.39 1.624-.403 2.543c.012.92.146 1.768.403 2.544zM807.2 200.542c.257-.812.634-1.522 1.13-2.132s1.11-1.093 1.844-1.45 1.58-.538 2.535-.538c.954 0 1.8.18 2.534.537s1.35.84 1.845 1.45c.494.61.87 1.32 1.127 2.132s.385 1.672.385 2.58c0 .907-.128 1.767-.385 2.58s-.633 1.52-1.128 2.13c-.497.61-1.112 1.09-1.846 1.442-.734.353-1.58.528-2.535.528-.957 0-1.8-.176-2.536-.528-.734-.352-1.35-.833-1.845-1.44-.497-.61-.873-1.32-1.13-2.133-.256-.81-.384-1.67-.384-2.58 0-.906.13-1.765.385-2.578zm.377 5.123c.257.776.62 1.445 1.093 2.007s1.048 1 1.73 1.316 1.45.475 2.31.475 1.63-.158 2.31-.475c.682-.316 1.258-.755 1.73-1.316.472-.562.835-1.23 1.093-2.007.256-.776.39-1.624.403-2.544-.012-.918-.146-1.766-.403-2.542-.257-.776-.62-1.445-1.093-2.007-.472-.56-1.048-1-1.73-1.315-.68-.316-1.45-.475-2.31-.475s-1.63.158-2.31.475-1.258.756-1.73 1.316c-.472.563-.836 1.23-1.093 2.008s-.39 1.624-.403 2.543c.012.92.146 1.77.403 2.545zM812.87 219.423v12.79h-.357v-12.79h.358zM807.2 245.935c.257-.812.634-1.522 1.13-2.132s1.11-1.093 1.844-1.45 1.58-.538 2.535-.538c.954 0 1.8.18 2.534.537s1.35.842 1.845 1.45c.494.61.87 1.32 1.127 2.133.257.812.385 1.672.385 2.58 0 .907-.128 1.767-.385 2.58s-.633 1.52-1.128 2.13c-.497.61-1.112 1.09-1.846 1.442-.734.353-1.58.528-2.535.528-.957 0-1.8-.176-2.536-.528-.734-.352-1.35-.833-1.845-1.44-.497-.61-.873-1.32-1.13-2.133-.256-.812-.384-1.672-.384-2.58 0-.907.13-1.767.385-2.58zm.377 5.123c.257.776.62 1.445 1.093 2.007s1.048 1 1.73 1.316 1.45.476 2.31.476 1.63-.158 2.31-.475c.682-.315 1.258-.754 1.73-1.315.472-.562.835-1.23 1.093-2.007.256-.776.39-1.624.403-2.544-.012-.92-.146-1.767-.403-2.543-.257-.775-.62-1.444-1.093-2.006-.472-.56-1.048-1-1.73-1.316-.68-.316-1.45-.475-2.31-.475s-1.63.158-2.31.475-1.258.756-1.73 1.316c-.472.562-.836 1.23-1.093 2.007s-.39 1.625-.403 2.544c.012.92.146 1.767.403 2.544zM812.87 264.816v12.79h-.357v-12.79h.358zM807.2 291.327c.257-.812.634-1.522 1.13-2.132s1.11-1.093 1.844-1.45 1.58-.538 2.535-.538c.954 0 1.8.18 2.534.537s1.35.842 1.845 1.45c.494.61.87 1.32 1.127 2.133.257.812.385 1.672.385 2.58 0 .907-.128 1.767-.385 2.58s-.633 1.52-1.128 2.13c-.497.61-1.112 1.09-1.846 1.442-.734.352-1.58.527-2.535.527-.957 0-1.8-.176-2.536-.528-.734-.353-1.35-.834-1.845-1.442-.497-.61-.873-1.32-1.13-2.132-.256-.812-.384-1.672-.384-2.58 0-.907.13-1.766.385-2.58zm.377 5.123c.257.776.62 1.445 1.093 2.007s1.048 1 1.73 1.316 1.45.475 2.31.475 1.63-.158 2.31-.475c.682-.316 1.258-.755 1.73-1.316.472-.562.835-1.23 1.093-2.007.256-.776.39-1.624.403-2.544-.012-.92-.146-1.767-.403-2.543-.257-.776-.62-1.445-1.093-2.007-.472-.56-1.048-1-1.73-1.316-.68-.316-1.45-.475-2.31-.475s-1.63.158-2.31.475-1.258.756-1.73 1.316c-.472.562-.836 1.23-1.093 2.007s-.39 1.624-.403 2.543c.012.92.146 1.768.403 2.544zM812.87 310.208v12.79h-.357v-12.79h.358zM807.2 336.72c.257-.812.634-1.522 1.13-2.132s1.11-1.093 1.844-1.45 1.58-.538 2.535-.538c.954 0 1.8.18 2.534.537s1.35.842 1.845 1.45c.494.61.87 1.32 1.127 2.133.257.812.385 1.672.385 2.58 0 .907-.128 1.767-.385 2.58s-.633 1.52-1.128 2.13c-.497.61-1.112 1.09-1.846 1.442-.734.353-1.58.528-2.535.528-.957 0-1.8-.176-2.536-.528-.734-.352-1.35-.833-1.845-1.44-.497-.61-.873-1.32-1.13-2.133-.256-.813-.384-1.673-.384-2.58 0-.908.13-1.768.385-2.58zm.377 5.123c.257.776.62 1.445 1.093 2.007s1.048 1 1.73 1.316 1.45.475 2.31.475 1.63-.157 2.31-.474c.682-.316 1.258-.755 1.73-1.316.472-.562.835-1.23 1.093-2.007.256-.776.39-1.624.403-2.544-.012-.92-.146-1.768-.403-2.544s-.62-1.445-1.093-2.007c-.472-.562-1.048-1-1.73-1.317-.68-.316-1.45-.475-2.31-.475s-1.63.158-2.31.475-1.258.756-1.73 1.316-.836 1.23-1.093 2.006-.39 1.624-.403 2.543c.012.92.146 1.767.403 2.543zM807.2 359.416c.257-.812.634-1.522 1.13-2.132s1.11-1.093 1.844-1.45 1.58-.538 2.535-.538c.954 0 1.8.18 2.534.537s1.35.842 1.845 1.45c.494.61.87 1.32 1.127 2.133.257.812.385 1.672.385 2.58 0 .907-.128 1.767-.385 2.58s-.633 1.52-1.128 2.13c-.497.61-1.112 1.09-1.846 1.442-.734.353-1.58.528-2.535.528-.957 0-1.8-.176-2.536-.528-.734-.352-1.35-.833-1.845-1.44-.497-.61-.873-1.32-1.13-2.133-.256-.812-.384-1.672-.384-2.58 0-.907.13-1.766.385-2.58zm.377 5.123c.257.775.62 1.444 1.093 2.006s1.048 1 1.73 1.316 1.45.475 2.31.475 1.63-.158 2.31-.475c.682-.316 1.258-.755 1.73-1.316.472-.562.835-1.23 1.093-2.007.256-.777.39-1.625.403-2.545-.012-.92-.146-1.767-.403-2.543-.257-.776-.62-1.445-1.093-2.007-.472-.56-1.048-1-1.73-1.316-.68-.317-1.45-.476-2.31-.476s-1.63.158-2.31.475-1.258.755-1.73 1.315c-.472.562-.836 1.23-1.093 2.007s-.39 1.624-.403 2.543c.012.92.146 1.768.403 2.544zM812.87 378.297v12.79h-.357v-12.79h.358zM807.2 404.81c.257-.813.634-1.523 1.13-2.133s1.11-1.093 1.844-1.45 1.58-.538 2.535-.538c.954 0 1.8.178 2.534.536s1.35.842 1.845 1.45c.494.61.87 1.32 1.127 2.133.257.81.385 1.67.385 2.578 0 .908-.128 1.768-.385 2.58s-.633 1.522-1.128 2.132c-.497.608-1.112 1.09-1.846 1.44-.734.354-1.58.53-2.535.53-.957 0-1.8-.177-2.536-.53-.734-.35-1.35-.832-1.845-1.44-.497-.61-.873-1.32-1.13-2.132-.256-.812-.384-1.672-.384-2.58 0-.907.13-1.767.385-2.58zm.377 5.122c.257.776.62 1.445 1.093 2.007s1.048 1 1.73 1.315 1.45.475 2.31.475 1.63-.158 2.31-.475c.682-.316 1.258-.755 1.73-1.316.472-.563.835-1.23 1.093-2.008.256-.776.39-1.624.403-2.544-.012-.92-.146-1.767-.403-2.543-.257-.776-.62-1.445-1.093-2.007-.472-.56-1.048-1-1.73-1.316-.68-.316-1.45-.475-2.31-.475s-1.63.158-2.31.475-1.258.756-1.73 1.316c-.472.562-.836 1.23-1.093 2.007s-.39 1.624-.403 2.543c.012.92.146 1.767.403 2.544zM812.87 423.69v12.79h-.357v-12.79h.358zM807.2 450.2c.257-.81.634-1.52 1.13-2.13s1.11-1.094 1.844-1.452 1.58-.537 2.535-.537c.954 0 1.8.18 2.534.538s1.35.842 1.845 1.45c.494.61.87 1.32 1.127 2.133s.385 1.673.385 2.58c0 .908-.128 1.768-.385 2.58s-.633 1.522-1.128 2.132c-.497.608-1.112 1.09-1.846 1.44-.734.354-1.58.53-2.535.53-.957 0-1.8-.177-2.536-.53-.734-.35-1.35-.832-1.845-1.44-.497-.61-.873-1.32-1.13-2.132-.256-.812-.384-1.672-.384-2.58 0-.907.13-1.766.385-2.58zm.377 5.124c.257.776.62 1.445 1.093 2.007s1.048 1 1.73 1.317 1.45.475 2.31.475 1.63-.158 2.31-.475c.682-.316 1.258-.755 1.73-1.316.472-.56.835-1.23 1.093-2.006.256-.776.39-1.624.403-2.544-.012-.92-.146-1.767-.403-2.543-.257-.776-.62-1.445-1.093-2.007-.472-.56-1.048-1-1.73-1.316-.68-.316-1.45-.475-2.31-.475s-1.63.157-2.31.474-1.258.756-1.73 1.316c-.472.562-.836 1.23-1.093 2.007s-.39 1.624-.403 2.543c.012.92.146 1.768.403 2.544zM812.87 469.082v12.79h-.357v-12.79h.358zM812.87 491.913v12.79h-.357v-12.79h.358zM666.932 191.84v12.79h-.358v-12.79h.358zM661.262 218.353c.256-.812.633-1.522 1.128-2.132s1.11-1.092 1.845-1.45 1.58-.537 2.535-.537c.955 0 1.8.18 2.535.537s1.35.842 1.845 1.45c.495.61.872 1.32 1.128 2.133.257.812.385 1.672.385 2.58 0 .907-.128 1.767-.385 2.58s-.633 1.52-1.128 2.13c-.496.61-1.11 1.09-1.845 1.442-.734.353-1.58.528-2.535.528-.956 0-1.8-.176-2.535-.528-.734-.352-1.35-.833-1.845-1.44-.496-.61-.872-1.32-1.128-2.133-.257-.812-.385-1.672-.385-2.58 0-.907.13-1.767.385-2.58zm.376 5.123c.257.776.62 1.445 1.093 2.007s1.05 1 1.73 1.316 1.45.474 2.31.474 1.63-.158 2.312-.475c.68-.317 1.257-.756 1.73-1.317.47-.562.834-1.23 1.092-2.007.256-.776.39-1.624.403-2.544-.012-.92-.146-1.767-.403-2.543-.257-.777-.62-1.446-1.093-2.008-.47-.56-1.047-1-1.728-1.316-.68-.316-1.45-.475-2.31-.475s-1.63.16-2.312.476-1.257.756-1.73 1.316c-.47.562-.835 1.23-1.092 2.007s-.39 1.623-.403 2.542c.012.92.147 1.767.403 2.544zM661.262 241.05c.256-.813.633-1.523 1.128-2.133s1.11-1.093 1.845-1.45 1.58-.538 2.535-.538c.955 0 1.8.178 2.535.536s1.35.842 1.845 1.45c.495.61.872 1.32 1.128 2.133.257.81.385 1.67.385 2.578 0 .908-.128 1.768-.385 2.58s-.633 1.522-1.128 2.132c-.496.608-1.11 1.09-1.845 1.44-.734.354-1.58.53-2.535.53-.956 0-1.8-.177-2.535-.53-.734-.35-1.35-.832-1.845-1.44-.496-.61-.872-1.32-1.128-2.132-.257-.812-.385-1.672-.385-2.58 0-.907.13-1.766.385-2.58zm.376 5.122c.257.776.62 1.445 1.093 2.007s1.05 1 1.73 1.315 1.45.475 2.31.475 1.63-.158 2.312-.475c.68-.316 1.257-.755 1.73-1.316.47-.563.834-1.23 1.092-2.008.256-.776.39-1.624.403-2.544-.012-.92-.146-1.767-.403-2.543-.257-.776-.62-1.445-1.093-2.007-.47-.56-1.047-1-1.728-1.316-.68-.316-1.45-.475-2.31-.475s-1.63.158-2.312.475-1.257.756-1.73 1.316c-.47.562-.835 1.23-1.092 2.007s-.39 1.624-.403 2.543c.012.92.147 1.768.403 2.544zM666.932 259.93v12.79h-.358v-12.79h.358zM661.262 286.442c.256-.812.633-1.522 1.128-2.132s1.11-1.093 1.845-1.45 1.58-.538 2.535-.538c.955 0 1.8.18 2.535.537s1.35.84 1.845 1.45c.495.61.872 1.32 1.128 2.132.257.812.385 1.672.385 2.58 0 .907-.128 1.767-.385 2.58s-.633 1.52-1.128 2.13c-.496.61-1.11 1.09-1.845 1.442-.734.353-1.58.528-2.535.528-.956 0-1.8-.176-2.535-.528-.734-.352-1.35-.833-1.845-1.44-.496-.61-.872-1.32-1.128-2.133-.257-.81-.385-1.67-.385-2.58 0-.907.13-1.766.385-2.578zm.376 5.123c.257.776.62 1.445 1.093 2.007s1.05 1 1.73 1.316 1.45.475 2.31.475 1.63-.158 2.312-.475c.68-.316 1.257-.755 1.73-1.316.47-.562.834-1.23 1.092-2.007.256-.776.39-1.624.403-2.544-.012-.918-.146-1.766-.403-2.542-.257-.776-.62-1.445-1.093-2.007-.47-.56-1.047-1-1.728-1.315-.68-.316-1.45-.475-2.31-.475s-1.63.158-2.312.475-1.257.756-1.73 1.316c-.47.563-.835 1.23-1.092 2.008s-.39 1.624-.403 2.543c.012.92.147 1.768.403 2.545zM666.932 305.322v12.79h-.358v-12.79h.358zM661.262 331.834c.256-.812.633-1.522 1.128-2.132s1.11-1.093 1.845-1.45 1.58-.538 2.535-.538c.955 0 1.8.18 2.535.537s1.35.843 1.845 1.452c.495.61.872 1.32 1.128 2.132.257.812.385 1.672.385 2.58 0 .907-.128 1.767-.385 2.58s-.633 1.52-1.128 2.13c-.496.61-1.11 1.09-1.845 1.442-.734.353-1.58.528-2.535.528-.956 0-1.8-.176-2.535-.528-.734-.352-1.35-.833-1.845-1.44-.496-.61-.872-1.32-1.128-2.133-.257-.812-.385-1.672-.385-2.58 0-.907.13-1.766.385-2.58zm.376 5.123c.257.776.62 1.445 1.093 2.007s1.05 1 1.73 1.316 1.45.475 2.31.475 1.63-.158 2.312-.475c.68-.316 1.257-.755 1.73-1.316.47-.562.834-1.23 1.092-2.007.256-.776.39-1.624.403-2.544-.012-.92-.146-1.767-.403-2.543-.257-.776-.62-1.445-1.093-2.007-.47-.56-1.047-1-1.728-1.316-.68-.316-1.45-.475-2.31-.475s-1.63.158-2.312.475-1.257.756-1.73 1.316c-.47.562-.835 1.23-1.092 2.007s-.39 1.624-.403 2.543c.012.92.147 1.768.403 2.544zM666.932 350.715v12.79h-.358v-12.79h.358zM740.992 27.277v12.79h-.358v-12.79h.358zM735.323 53.79c.256-.813.633-1.523 1.128-2.133s1.112-1.093 1.846-1.45 1.58-.538 2.535-.538c.956 0 1.8.178 2.536.536s1.35.842 1.845 1.45c.496.61.873 1.32 1.13 2.133.256.81.384 1.67.384 2.578 0 .908-.128 1.768-.385 2.58s-.634 1.522-1.13 2.132c-.495.608-1.11 1.09-1.844 1.44-.734.354-1.58.53-2.535.53-.955 0-1.8-.177-2.534-.53-.734-.35-1.35-.832-1.845-1.44-.495-.61-.87-1.32-1.127-2.132s-.385-1.672-.385-2.58c0-.907.128-1.766.385-2.58zm.376 5.122c.256.776.62 1.445 1.092 2.007s1.048 1 1.73 1.315 1.45.475 2.31.475 1.63-.158 2.31-.475c.682-.316 1.258-.755 1.73-1.316.472-.563.835-1.23 1.093-2.008.256-.776.39-1.624.403-2.544-.012-.92-.146-1.767-.403-2.543-.257-.776-.62-1.445-1.093-2.007-.472-.56-1.048-1-1.73-1.316-.68-.316-1.45-.475-2.31-.475s-1.63.158-2.31.475-1.258.756-1.73 1.316c-.472.562-.836 1.23-1.093 2.007s-.392 1.624-.404 2.543c.012.92.146 1.768.403 2.544zM740.992 72.67v12.79h-.358V72.67h.358zM735.323 99.182c.256-.812.633-1.522 1.128-2.132s1.112-1.093 1.846-1.45 1.58-.538 2.535-.538c.956 0 1.8.18 2.536.537s1.35.84 1.845 1.45c.496.61.873 1.32 1.13 2.132.256.812.384 1.672.384 2.58 0 .907-.128 1.767-.385 2.58s-.634 1.52-1.13 2.13c-.495.61-1.11 1.09-1.844 1.442-.734.353-1.58.528-2.535.528-.955 0-1.8-.176-2.534-.528-.734-.352-1.35-.833-1.845-1.44-.495-.61-.87-1.32-1.127-2.133-.257-.81-.385-1.67-.385-2.58 0-.907.128-1.766.385-2.578zm.376 5.123c.256.776.62 1.445 1.092 2.007s1.048 1 1.73 1.316 1.45.475 2.31.475 1.63-.158 2.31-.475c.682-.316 1.258-.755 1.73-1.316.472-.562.835-1.23 1.093-2.007.256-.776.39-1.624.403-2.544-.012-.918-.146-1.766-.403-2.542-.257-.776-.62-1.445-1.093-2.007-.472-.56-1.048-1-1.73-1.315-.68-.316-1.45-.475-2.31-.475s-1.63.158-2.31.475-1.258.756-1.73 1.316c-.472.563-.836 1.23-1.093 2.008s-.392 1.624-.404 2.543c.012.92.146 1.768.403 2.545zM735.323 121.878c.256-.812.633-1.522 1.128-2.132s1.112-1.093 1.846-1.45 1.58-.538 2.535-.538c.956 0 1.8.18 2.536.537s1.35.842 1.845 1.45c.496.61.873 1.32 1.13 2.133.256.812.384 1.672.384 2.58 0 .907-.128 1.767-.385 2.58s-.634 1.52-1.13 2.13c-.495.61-1.11 1.09-1.844 1.442-.734.353-1.58.528-2.535.528-.955 0-1.8-.176-2.534-.528-.734-.352-1.35-.833-1.845-1.44-.495-.61-.87-1.32-1.127-2.133-.257-.812-.385-1.672-.385-2.58 0-.907.128-1.767.385-2.58zM735.7 127c.256.777.62 1.446 1.092 2.008s1.048 1 1.73 1.316 1.45.475 2.31.475 1.63-.16 2.31-.476c.682-.316 1.258-.755 1.73-1.316.472-.562.835-1.23 1.093-2.007.256-.775.39-1.623.403-2.543-.012-.92-.146-1.767-.403-2.543-.257-.776-.62-1.445-1.093-2.007-.472-.56-1.048-1-1.73-1.316-.68-.315-1.45-.474-2.31-.474s-1.63.158-2.31.475-1.258.757-1.73 1.317c-.472.562-.836 1.23-1.093 2.007s-.392 1.624-.404 2.543c.012.92.146 1.768.403 2.544zM740.992 140.76v12.79h-.358v-12.79h.358zM735.323 167.27c.256-.812.633-1.522 1.128-2.132s1.112-1.093 1.846-1.45 1.58-.538 2.535-.538c.956 0 1.8.18 2.536.537s1.35.842 1.845 1.45c.496.61.873 1.32 1.13 2.133.256.812.384 1.672.384 2.58 0 .907-.128 1.767-.385 2.58s-.634 1.52-1.13 2.13c-.495.61-1.11 1.09-1.844 1.442-.734.353-1.58.528-2.535.528-.955 0-1.8-.176-2.534-.528-.734-.352-1.35-.833-1.845-1.44-.495-.61-.87-1.32-1.127-2.133s-.385-1.673-.385-2.58c0-.908.128-1.767.385-2.58zm.376 5.124c.256.776.62 1.445 1.092 2.007s1.048 1 1.73 1.317 1.45.475 2.31.475 1.63-.158 2.31-.475c.682-.316 1.258-.755 1.73-1.316.472-.56.835-1.23 1.093-2.006.256-.776.39-1.624.403-2.544-.012-.92-.146-1.767-.403-2.543-.257-.776-.62-1.445-1.093-2.007-.472-.56-1.048-1-1.73-1.316-.68-.316-1.45-.475-2.31-.475s-1.63.157-2.31.474-1.258.756-1.73 1.316c-.472.562-.836 1.23-1.093 2.007s-.392 1.624-.404 2.543c.012.92.146 1.767.403 2.544zM740.992 186.15v12.79h-.358v-12.79h.358zM735.323 212.663c.256-.812.633-1.522 1.128-2.132s1.112-1.092 1.846-1.45 1.58-.537 2.535-.537c.956 0 1.8.18 2.536.537s1.35.842 1.845 1.45c.496.61.873 1.32 1.13 2.133.256.812.384 1.672.384 2.58 0 .907-.128 1.767-.385 2.58s-.634 1.52-1.13 2.13c-.495.61-1.11 1.09-1.844 1.442-.734.353-1.58.528-2.535.528-.955 0-1.8-.176-2.534-.528-.734-.352-1.35-.833-1.845-1.44-.495-.61-.87-1.32-1.127-2.133-.257-.812-.385-1.672-.385-2.58 0-.907.128-1.766.385-2.58zm.376 5.123c.256.776.62 1.445 1.092 2.007s1.048 1 1.73 1.316 1.45.474 2.31.474 1.63-.158 2.31-.475c.682-.317 1.258-.756 1.73-1.317.472-.562.835-1.23 1.093-2.007.256-.776.39-1.624.403-2.544-.012-.92-.146-1.767-.403-2.543-.257-.777-.62-1.446-1.093-2.008-.472-.56-1.048-1-1.73-1.316-.68-.316-1.45-.475-2.31-.475s-1.63.16-2.31.476-1.258.756-1.73 1.316c-.472.562-.836 1.23-1.093 2.007s-.392 1.623-.404 2.542c.012.92.146 1.768.403 2.544zM740.992 231.544v12.79h-.358v-12.79h.358zM735.323 258.056c.256-.812.633-1.522 1.128-2.132.497-.61 1.112-1.093 1.846-1.45s1.58-.538 2.535-.538c.956 0 1.8.18 2.536.537s1.35.842 1.845 1.45c.496.61.873 1.32 1.13 2.133.256.812.384 1.672.384 2.58 0 .907-.128 1.767-.385 2.58s-.634 1.52-1.13 2.13c-.495.61-1.11 1.09-1.844 1.442-.734.353-1.58.528-2.535.528-.955 0-1.8-.176-2.534-.528-.734-.352-1.35-.833-1.845-1.44-.495-.61-.87-1.32-1.127-2.133-.257-.812-.385-1.672-.385-2.58 0-.907.128-1.767.385-2.58zm.376 5.123c.256.775.62 1.444 1.092 2.006s1.048 1 1.73 1.316 1.45.475 2.31.475 1.63-.158 2.31-.475c.682-.316 1.258-.755 1.73-1.316.472-.562.835-1.23 1.093-2.007.256-.777.39-1.625.403-2.545-.012-.92-.146-1.767-.403-2.543-.257-.776-.62-1.445-1.093-2.007-.472-.56-1.048-1-1.73-1.316-.68-.317-1.45-.476-2.31-.476s-1.63.158-2.31.475-1.258.755-1.73 1.315c-.472.562-.836 1.23-1.093 2.007s-.392 1.624-.404 2.543c.012.92.146 1.767.403 2.544zM735.323 280.752c.256-.812.633-1.522 1.128-2.132s1.112-1.093 1.846-1.45 1.58-.538 2.535-.538c.956 0 1.8.18 2.536.537s1.35.84 1.845 1.45c.496.61.873 1.32 1.13 2.132.256.812.384 1.672.384 2.58 0 .907-.128 1.767-.385 2.58s-.634 1.52-1.13 2.13c-.495.61-1.11 1.09-1.844 1.442-.734.353-1.58.528-2.535.528-.955 0-1.8-.176-2.534-.528-.734-.352-1.35-.833-1.845-1.44-.495-.61-.87-1.32-1.127-2.133-.257-.81-.385-1.67-.385-2.58 0-.906.128-1.766.385-2.578zm.376 5.123c.256.776.62 1.445 1.092 2.007s1.048 1 1.73 1.316 1.45.475 2.31.475 1.63-.158 2.31-.475c.682-.316 1.258-.755 1.73-1.316.472-.562.835-1.23 1.093-2.007.256-.776.39-1.624.403-2.544-.012-.918-.146-1.766-.403-2.542-.257-.776-.62-1.445-1.093-2.007-.472-.56-1.048-1-1.73-1.315-.68-.316-1.45-.475-2.31-.475s-1.63.158-2.31.475-1.258.756-1.73 1.316c-.472.563-.836 1.23-1.093 2.008s-.392 1.624-.404 2.543c.012.92.146 1.77.403 2.545zM740.992 299.633v12.79h-.358v-12.79h.358zM735.323 326.145c.256-.812.633-1.522 1.128-2.132s1.112-1.093 1.846-1.45 1.58-.538 2.535-.538c.956 0 1.8.18 2.536.537s1.35.842 1.845 1.45c.496.61.873 1.32 1.13 2.133.256.812.384 1.672.384 2.58 0 .907-.128 1.767-.385 2.58s-.634 1.52-1.13 2.13c-.495.61-1.11 1.09-1.844 1.442-.734.353-1.58.528-2.535.528-.955 0-1.8-.176-2.534-.528-.734-.352-1.35-.833-1.845-1.44-.495-.61-.87-1.32-1.127-2.133-.257-.812-.385-1.672-.385-2.58 0-.908.128-1.767.385-2.58zm.376 5.123c.256.776.62 1.445 1.092 2.007s1.048 1 1.73 1.316 1.45.476 2.31.476 1.63-.158 2.31-.475c.682-.315 1.258-.754 1.73-1.315.472-.562.835-1.23 1.093-2.007.256-.776.39-1.624.403-2.544-.012-.92-.146-1.767-.403-2.543-.257-.775-.62-1.444-1.093-2.006-.472-.56-1.048-1-1.73-1.316-.68-.316-1.45-.475-2.31-.475s-1.63.158-2.31.475-1.258.756-1.73 1.316c-.472.562-.836 1.23-1.093 2.007s-.392 1.625-.404 2.544c.012.92.146 1.767.403 2.544zM740.992 345.025v12.79h-.358v-12.79h.358zM735.323 371.537c.256-.812.633-1.522 1.128-2.132s1.112-1.093 1.846-1.45 1.58-.538 2.535-.538c.956 0 1.8.18 2.536.537s1.35.842 1.845 1.45c.496.61.873 1.32 1.13 2.133.256.812.384 1.672.384 2.58 0 .907-.128 1.767-.385 2.58s-.634 1.52-1.13 2.13c-.495.61-1.11 1.09-1.844 1.442-.734.352-1.58.527-2.535.527-.955 0-1.8-.176-2.534-.528-.734-.353-1.35-.834-1.845-1.442-.495-.61-.87-1.32-1.127-2.132s-.385-1.672-.385-2.58c0-.907.128-1.766.385-2.58zm.376 5.123c.256.776.62 1.445 1.092 2.007s1.048 1 1.73 1.316 1.45.475 2.31.475 1.63-.158 2.31-.475c.682-.316 1.258-.755 1.73-1.316.472-.562.835-1.23 1.093-2.007.256-.776.39-1.624.403-2.544-.012-.92-.146-1.767-.403-2.543-.257-.776-.62-1.445-1.093-2.007-.472-.56-1.048-1-1.73-1.316-.68-.316-1.45-.475-2.31-.475s-1.63.158-2.31.475-1.258.756-1.73 1.316c-.472.562-.836 1.23-1.093 2.007s-.392 1.624-.404 2.543c.012.92.146 1.768.403 2.544zM740.992 390.418v12.79h-.358v-12.79h.358zM740.992 413.25v12.79h-.358v-12.79h.358z"/></g></svg>