<svg xmlns="http://www.w3.org/2000/svg" width="612" height="792" viewBox="0 0 612 792"><circle cx="305.661" cy="8.373" r="9.278"/><ellipse fill="#fff" cx="306.792" cy="81.915" rx="78.974" ry="64.039"/><path d="M390.29 84.63H362.46c0-26.475-25.796-48.198-57.024-48.198-31.227 0-57.024 21.497-57.024 48.2h-27.38c0-41.864 38.016-75.807 84.857-75.807C352.05 8.6 390.29 42.768 390.29 84.63"/><path fill="#fff" d="M232.344 133.51h146.634v99.564H232.344z"/><path d="M232.344 167.45h146.634v31.002s-85.537-14.708-146.634 2.037v-33.04zM223.97 91.193s-30.32 0-30.32 30.322v5.204s0 30.322 30.32 30.322h163.606s30.322 0 30.322-30.323v-5.205s0-30.322-30.322-30.322H223.97z"/><path fill="#fff" d="M305.66 772.83c-73.213 0-142.045-28.51-193.815-80.28s-80.28-120.602-80.28-193.816 28.51-142.046 80.28-193.816c51.77-51.77 120.602-80.28 193.816-80.28s142.046 28.51 193.816 80.28c51.77 51.77 80.28 120.602 80.28 193.816s-28.51 142.045-80.28 193.815-120.6 80.28-193.815 80.28z"/><path d="M305.66 239.637c143.096 0 259.098 116 259.098 259.097 0 143.095-116.002 259.097-259.097 259.097-143.094 0-259.096-116-259.096-259.096 0-143.095 116.002-259.097 259.097-259.097m0-30c-39.014 0-76.877 7.648-112.538 22.73-34.43 14.563-65.343 35.404-91.883 61.944-26.542 26.542-47.382 57.456-61.945 91.885-15.083 35.66-22.73 73.524-22.73 112.54s7.647 76.877 22.73 112.538c14.562 34.43 35.403 65.343 61.944 91.883 26.54 26.54 57.454 47.382 91.882 61.943 35.66 15.083 73.524 22.73 112.54 22.73s76.877-7.647 112.538-22.73c34.43-14.563 65.343-35.403 91.883-61.944 26.54-26.54 47.382-57.454 61.943-91.883 15.083-35.66 22.73-73.524 22.73-112.54s-7.647-76.877-22.73-112.538c-14.562-34.43-35.402-65.343-61.943-91.884-26.54-26.54-57.454-47.38-91.884-61.942-35.66-15.083-73.524-22.73-112.54-22.73z"/><circle cx="305.661" cy="498.734" r="109.522"/><circle cx="305.661" cy="498.734" r="109.522"/><text transform="translate(291.857 509.143)" fill="#fff" font-family="'Arial-BoldMT'" font-size="27.154">23</text><path stroke="#009245" stroke-width="30" stroke-miterlimit="29.786" d="M307.383 311.822c102.73 0 186.007 83.278 186.007 186.006 0 102.73-83.278 186.008-186.007 186.008s-186.007-83.278-186.007-186.008c0-99.733 78.494-181.134 177.074-185.796" fill="none"/></svg>