<svg xmlns="http://www.w3.org/2000/svg" viewBox="0 0 404.98 404.98" enable-background="new 0 0 404.98 404.98"><g><circle cx="202.49" cy="202.49" r="202.49" opacity=".74" fill="#B3B3B3"/><path d="M282.928 127.355c-17.633 0-31.92 14.294-31.92 31.922 0 9.028 3.75 17.173 9.778 22.98l-46.408 48.352c-3.576-1.762-7.602-2.758-11.863-2.758-3.08 0-6.036.525-8.792 1.478l-14.82-37.77c6.544-4.205 10.884-11.546 10.884-19.905 0-13.06-10.586-23.646-23.644-23.646-13.06 0-23.65 10.586-23.65 23.645 0 4.11 1.05 7.977 2.898 11.342l-32.435 35.323c-1.802-.646-3.732-1.013-5.755-1.013-9.426 0-17.07 7.642-17.07 17.07 0 9.432 7.644 17.074 17.07 17.074 9.43 0 17.076-7.64 17.076-17.072 0-4.217-1.538-8.07-4.072-11.05l30.782-33.523c4.105 3.428 9.388 5.494 15.156 5.494 1.337 0 2.648-.118 3.932-.33l15.322 39.04c-5.96 4.928-9.758 12.382-9.758 20.72 0 14.842 12.036 26.876 26.877 26.876 14.844 0 26.88-12.034 26.88-26.877 0-7.147-2.797-13.638-7.346-18.45l46.536-48.487c4.313 2.174 9.18 3.406 14.342 3.406 17.63 0 31.922-14.294 31.922-31.925 0-17.626-14.293-31.92-31.922-31.92z" fill="#E6E6E6"/></g></svg>