<svg xmlns="http://www.w3.org/2000/svg" xmlns:xlink="http://www.w3.org/1999/xlink" viewBox="0 0 195.947 192.082" enable-background="new 0 0 195.947 192.082"><g><defs><circle id="a" cx="93.757" cy="93.757" r="93.757"/></defs><clipPath id="b"><use xlink:href="#a" overflow="visible"/></clipPath><path clip-path="url(#b)" fill="#999" d="M195.947 180.583h-40.5l-.142-117.345-20.785-7.487V34.987l61.427 23.347z"/><defs><path id="c" d="M42.914 15.62c-3.986 2.57-7.77 5.438-11.31 8.566v140.32c16.504 14.58 38.193 23.43 61.946 23.43 26.813 0 50.992-11.274 68.055-29.343V30.098c-5.19-5.496-11.04-10.364-17.42-14.477H42.915z"/></defs><clipPath id="d"><use xlink:href="#c" overflow="visible"/></clipPath><path d="M76.228 27.933L64.883 36.3V29.02l18.163-13.396 51.474 19.364V49.85L76.228 27.932zm85.377 152.482v11.667h-130v-11.667h5.252V63.63L77.07 33.968l79.283 29.662v116.785h5.252zM134.277 81.42l12.5 3.743V65.68l-12.5-4.468V81.42zm0 32.835l12.5 2.565V97.337l-12.5-3.29v20.208zm0 32.835l12.5 1.388v-19.484l-12.5-2.11v20.206zm0 32.836l12.5.21V160.65l-12.5-.933v20.21zM110.462 74.29l12.5 3.743V57.168l-12.5-4.467v21.59zm0 35.08l12.5 2.564V91.07l-12.5-3.29v21.59zm0 35.078l12.5 1.387V124.97l-12.5-2.11v21.588zM86.646 67.16l12.5 3.742V48.657l-12.5-4.467v22.97zm0 37.323l12.5 2.565V84.802l-12.5-3.29v22.97zm0 37.322l12.5 1.387v-22.245l-12.5-2.112v22.97zm0 37.323l12.5.21V157.09l-12.5-.935v22.97zm36.316 6.64V158.87l-12.5-.935v27.83h12.5zM65.894 135.4c1.487-.245 2.77-2.14 3.447-5.137.68-3 .537-6.156-.366-8.51L57.814 92.66l.117-13.78c.713-1.14 1.21-2.877 1.285-4.49l-7.44 5.856c.023 1.422.417 2.384 1.032 2.487l-.273 13.16-8.926 33.093c-.577 2.142-.722 4.59-.388 6.68.34 2.13 1.083 3.305 2.025 3.15l20.65-3.414zM53.9 81.91l2.843-2.137-.165 14.444 5.017 13.52-12.643 5.597 4.693-17.343.255-14.08zm3.71 32.424c.658-.26 1.192.738 1.182 2.24-.01 1.512-.563 2.93-1.23 3.156-.657.223-1.17-.805-1.154-2.283.017-1.47.55-2.858 1.2-3.113m2.98 7.018c.618-.193 1.125.767 1.126 2.156 0 1.396-.512 2.67-1.137 2.834-.618.163-1.108-.82-1.102-2.19.006-1.36.5-2.61 1.112-2.8m-8.465-4.86c.587-.23 1.047.728 1.022 2.15-.027 1.433-.535 2.766-1.128 2.967-.586.198-1.03-.787-.997-2.19.03-1.392.522-2.698 1.102-2.927m2.55 6.708c.548-.17.983.747.966 2.06-.016 1.317-.483 2.51-1.037 2.656-.546.144-.967-.793-.945-2.086.022-1.286.475-2.46 1.017-2.63m-5.263 1.647c.488-.153.865.724.834 1.966-.03 1.25-.46 2.372-.952 2.502-.488.128-.852-.767-.817-1.992.034-1.22.45-2.324.934-2.476" clip-path="url(#d)"/></g></svg>