<svg xmlns="http://www.w3.org/2000/svg" viewBox="0 180 1296 1324" enable-background="new 0 180 1296 1324"><g><path fill="#999" d="M499.8 1228.8l3.4.6c-1.1-.6-2.2-1.1-3.4-1.7v1.1z"/><path fill="#ccc" d="M149.1 1201.9c-13.5-18.5-25.8-37.6-37.6-56.7 7.9 14 15.7 27.5 24.7 41l13.5 17.4c0-.6 0-1.1-.6-1.7M884.7 279c-1.7-.6-3.4-1.1-5-1.7 12.3 5 24.1 10.7 36.5 16.8l-10.7-5.6c-6.8-3.3-14.1-6.1-20.8-9.5z"/></g><path fill="#999" d="M212.25 410.3c-10.7 10.1-20.8 20.8-30.3 32-34.8 39.8-63.4 83-86.4 130.2-27.5 56.1-46 115-55.5 176.7-1.1 7.9-2.2 16.3-3.4 24.7-2.8 23-3.9 46-3.9 69.6v1.1c0 18.5.6 36.5 2.2 53.9 7.3 63.4 21.9 123.4 43.8 179 1.1 2.8 2.2 5.6 3.9 8.4l29.7 59.5c11.2 19.1 23.6 38.2 37 57.2 76.3 104.4 175 177.8 296.8 219.4l1.1.6c-100.4-51.6-180.7-125.1-241.2-221.6-61.7-98.7-92.6-206.5-92.6-323.7 0-41.5 3.9-82.5 12.3-122.9 7.9-39.3 19.6-78 35.9-115 6.2-15.1 13.5-29.7 20.2-44.3 28.6-55.5 65.6-106 110.5-150.9 56.8-56.9 121.3-100.7 194.8-131.5 75.7-32 155.4-48.2 238.4-48.2 66.8 0 131.3 10.7 193.6 31.4v-.6c-13.5-6.7-26.9-12.9-40.4-18.5l-25.8-10.1c-52.7-19.1-112.8-30.9-180.7-35.9-9-.6-18-.6-27.5-.6-83 0-162.7 16.3-238.4 48.2-72.9 31.5-137.4 75.2-194.1 131.9z"/><path fill="#999" d="M1249.05 751.4c-2.8-19.1-6.2-37.6-10.7-56.1-.6-6.2-1.7-12.3-2.8-18.5l-315.8-89.2c5 6.7 7.3 14 7.3 23v475.2c0 9.5-2.8 17.4-7.9 23.6-5 6.7-11.8 10.1-19.6 10.1h-412.4l1.1 12.3v-2.2h52.2v81.9c0 5.6-2.8 10.1-7.3 14-5 3.9-11.2 5.6-18.5 5.6h-2.8l483.6 115.6c93.1-64.5 161-145.3 202.5-242.4 38.2-79.1 57.2-166.6 57.2-261.4-.5-31.5-2.2-61.8-6.1-91.5m-228.3-57.2c5.6 0 10.1 2.8 14 7.9 3.9 5 5.6 11.2 5.6 18.5s-1.7 13.5-5.6 19.1c-3.9 5-8.4 7.9-14 7.9h-80.8v-52.7h80.8m0 133.4c5.6 0 10.1 2.8 14 7.9 3.9 5 5.6 11.2 5.6 18.5 0 7.3-1.7 14-5.6 19.1-3.9 5-8.4 7.9-14 7.9h-80.8v-53.3l80.8-.1m0 134.6c5.6 0 10.1 2.8 14 7.9 3.9 5 5.6 11.2 5.6 18.5s-1.7 14-5.6 19.1c-3.9 5-8.4 7.9-14 7.9h-80.8v-52.7h80.8m-267.7 166.5h52.2v81.9c0 5.6-2.2 10.1-7.3 14s-11.2 5.6-18.5 5.6c-7.3 0-13.5-2.2-18.5-5.6-5-3.9-7.3-8.4-7.3-14v-81.9m-133 0h52.2v81.9c0 5.6-2.2 10.1-7.3 14-5 3.9-11.2 5.6-18.5 5.6-7.3 0-13.5-2.2-18.5-5.6-5-3.9-7.3-8.4-7.3-14v-81.9h-.6z"/><path d="M672.85 1130.1h-52.2v81.9c0 5.6 2.8 10.1 7.3 14 5 3.9 11.2 5.6 18.5 5.6s13.5-2.2 18.5-5.6c5-3.9 7.3-8.4 7.3-14v-81.9m132.5 0h-52.2v81.9c0 5.6 2.8 10.1 7.3 14 5 3.9 11.2 5.6 18.5 5.6s13.5-2.2 18.5-5.6c5-3.4 7.3-8.4 7.3-14v-81.9m-305.2 98.2c1.1.6 2.2 1.1 3.4 1.1 2.8 1.1 6.2 2.2 9 2.2h2.8c7.3 0 13.5-2.2 18.5-5.6 5-3.9 7.3-8.4 7.3-14v-81.9h-52.2v81.9c0 5.6 2.2 10.1 7.3 14 2.2.6 3.3 1.2 3.9 2.3m-239.6-220.5c3.9 5 8.4 7.9 14 7.9h80.8V963h-80.8c-5.6 0-10.1 2.8-14 7.9-3.9 5-5.6 11.2-5.6 18.5 0 7.2 1.7 13.3 5.6 18.4m0-134.1c3.9 5 8.4 7.9 14 7.9h80.8v-53.3h-80.8c-5.6 0-10.1 2.8-14 7.9-3.9 5-5.6 11.2-5.6 18.5 0 7.2 1.7 13.9 5.6 19m94.8-126.8v-52.7h-80.8c-5.6 0-10.1 2.8-14 7.9-3.9 5-5.6 11.2-5.6 18.5 0 7.3 1.7 13.5 5.6 19.1 3.9 5 8.4 7.9 14 7.9h80.8m565-160.6c-5-6.7-11.8-10.1-19.6-10.1h-506.1c-7.3 0-14 3.4-19.1 10.1-5.6 6.7-8.4 14.6-8.4 23.6v475.2c0 9 2.8 17.4 8.4 23.6 5 6.7 11.8 10.1 19.1 10.1h506.6c7.9 0 14-3.4 19.6-10.1 5.6-6.7 7.9-14.6 7.9-23.6V611.1c0-9-2.8-16.3-7.3-23-.5-.5-1.1-.5-1.1-1.1m-89.8 87c3.4 4.5 5 9.5 5 15.7v317.5c0 6.2-1.7 11.8-5 16.3-3.9 4.5-8.4 6.2-13.5 6.2h-338.2c-5 0-9.5-2.2-12.9-6.2-3.4-4.5-5.6-10.1-5.6-16.3V689.7c0-6.2 1.7-11.2 5.6-15.7 3.4-4.5 7.9-6.7 12.9-6.7h338.3c5.6-.1 9.5 2.2 13.4 6.7m-69-206.5c-5 3.9-7.3 9-7.3 14.6V564h52.2v-81.9c0-5.6-2.2-10.7-7.3-14.6-5-3.9-11.2-6.2-18.5-6.2-7.8 0-14 2.3-19.1 6.2m-131.8 0c-5 3.9-7.3 9-7.3 14.6V564h52.2v-81.9c0-5.6-2.2-10.7-7.3-14.6-5-3.9-11.2-6.2-18.5-6.2-7.3 0-14.1 2.3-19.1 6.2m-132.4 0c-5 3.9-7.3 9-7.3 14.6V564h52.2v-81.9c0-5.6-2.8-10.7-7.3-14.6-5-3.9-11.2-6.2-18.5-6.2-7.3 0-13.5 2.3-19.1 6.2m538.6 503.3c-3.9-5-8.4-7.9-14-7.9h-80.8v52.7h80.8c5.6 0 10.1-2.8 14-7.9 3.9-5 5.6-11.2 5.6-19.1 0-6.6-1.7-12.8-5.6-17.8m0-134.7c-3.9-5-8.4-7.9-14-7.9h-80.8v53.4h80.8c5.6 0 10.1-2.8 14-7.9 3.9-5 5.6-11.2 5.6-19.1 0-6.7-1.7-13.4-5.6-18.5m0-134.1c-3.9-5-8.4-7.9-14-7.9h-80.8v52.7h80.8c5.6 0 10.1-2.8 14-7.9 3.9-5 5.6-11.8 5.6-19.1 0-7.1-1.7-12.7-5.6-17.8z"/><path fill="#ccc" d="M186.7 1250.2c8.4 9.5 16.8 18.5 25.8 27.5 30.9 30.9 65.1 58.3 101.5 81.9 1.1.6 2.2 1.7 3.4 2.2l21.9 11.8c-7.3-4.5-14.6-8.4-21.9-13.5-52.7-33.1-99.9-74.6-140.8-123.4l10.1 13.5m291.2-583.5c-5 0-9.5 2.2-12.9 6.7s-5 9.5-5 15.7v318.1c0 6.2 1.7 11.8 5 15.7 3.4 4.5 7.9 6.7 12.9 6.7h338.9c5 0 9.5-2.2 12.9-6.7 3.4-4.5 5.6-10.1 5.6-15.7V689.1c0-6.2-1.7-11.2-5.6-15.7-3.9-4.5-7.9-6.7-12.9-6.7H477.9m524-321.5c-18-12.9-37-25.2-56.7-35.9l-25.8-13.5C857.2 275.1 792.1 265 725.3 265c-83 0-162.1 15.7-237.9 47.7-73.5 30.9-138 74.6-194.7 131.3-44.9 44.9-81.9 94.8-110.5 150.9-7.3 14.6-14 29.2-20.2 43.8-15.7 37.6-28.1 75.7-35.9 115.6-8.4 39.8-12.3 80.8-12.3 122.9 0 117.3 30.9 225 92.6 323.7 42.6 68.4 95.9 125.7 159.3 171.7 25.8 18.5 52.7 35.3 81.9 49.9l-1.1-.6c-28.1-9.5-54.4-20.8-79.7-33.7l30.9 16.3c3.4 1.7 6.7 2.8 10.7 4.5 2.8 1.1 5.6 2.2 8.4 3.4l40.4 14.6c61.2 20.2 124.6 30.3 189.6 30.3 83 0 162.7-16.3 239-48.2 31.4-13.5 61.7-29.2 89.8-47.1 7.3-4.5 14-9.5 21.3-14l-484.2-115.6c-3.4-.6-6.2-1.1-9-2.2l-3.4-.6v-1.1c-1.1-.6-2.2-1.1-3.4-2.2-5-3.9-7.3-8.4-7.3-14v-79.7l-1.1-12.9h-93.7c-7.3 0-14-3.4-19.1-10.1-5.6-6.7-7.9-14.6-7.9-23.6V610.6c0-9 2.8-16.8 7.9-23.6 5-6.7 11.8-10.1 19.1-10.1h506.1c7.9 0 14 3.4 19.1 10.1l.6.6 315.9 89.2c-6.7-24.1-15.1-48.2-25.2-71.8-6.2-15.1-13.5-29.7-20.8-44.3-28.6-55.5-65.6-105.5-110.5-150.4-24.8-24.1-50.6-46-78.1-65.1M259.1 702c3.9-5 8.4-7.9 14-7.9h80.8v52.7h-80.8c-5.6 0-10.1-2.8-14-7.9-3.9-5-5.6-11.8-5.6-19.1s2.2-12.7 5.6-17.8m14 126.8h80.8v52.7h-80.8c-5.6 0-10.1-2.8-14-7.9-3.9-5-5.6-11.8-5.6-19.1 0-7.3 1.7-13.5 5.6-18.5 4.5-4.9 9-7.2 14-7.2m524.6-361.3c5 3.9 7.9 8.4 7.9 14V564h-52.2v-82.5c0-5.6 2.8-10.1 7.9-14s11.2-6.2 18.5-6.2c6.7 0 12.3 2.3 17.9 6.2m-301.3 0c5-3.9 11.2-6.2 18.5-6.2 7.3 0 13.5 2.2 18.5 6.2 5 3.9 7.3 8.4 7.3 14V564h-52.2v-82.5c.6-5.6 2.9-10.1 7.9-14m169.4 0c5 3.9 7.9 8.4 7.9 14V564h-52.2v-82.5c0-5.6 2.8-10.1 7.9-14s11.2-6.2 18.5-6.2c6.2 0 12.3 2.3 17.9 6.2M253.5 989.3c0-7.3 1.7-13.5 5.6-18.5 3.9-5 8.4-7.9 14-7.9h80.8v52.7h-80.8c-5.6 0-10.1-2.8-14-7.9-3.4-5-5.6-11.1-5.6-18.4z"/></svg>