<svg xmlns="http://www.w3.org/2000/svg" xmlns:xlink="http://www.w3.org/1999/xlink" viewBox="-32 120.8 1126.7 43.4" enable-background="new -32 120.8 1126.7 43.4"><g><defs><path id="a" d="M36.1 120.8h110.3v43.4H36.1z"/></defs><clipPath id="b"><use xlink:href="#a" overflow="visible"/></clipPath><path clip-path="url(#b)" fill="#B3B3B3" d="M78.4 150.8c.8-2.5 1.3-5.3 1.3-8.2 0-3-.5-5.7-1.3-8.2-.8-2.5-2-4.7-3.5-6.5-1.5-1.8-3.4-3.2-5.6-4.3-2.2-1-4.7-1.5-7.5-1.5s-5.3.5-7.5 1.5-4.1 2.4-5.6 4.3-2.7 4-3.5 6.5c-.8 2.5-1.3 5.3-1.3 8.2 0 3 .5 5.7 1.3 8.2.8 2.5 2 4.7 3.5 6.5 1.5 1.8 3.4 3.2 5.6 4.3 2.2 1 4.7 1.5 7.5 1.5s5.3-.5 7.5-1.5 4.1-2.4 5.6-4.3c1.5-1.8 2.7-4 3.5-6.5m1.2-16.6c.8 2.6 1.2 5.4 1.2 8.4 0 2.9-.4 5.7-1.2 8.4-.8 2.6-2.1 4.9-3.7 6.9s-3.6 3.5-6 4.7c-2.4 1.1-5.1 1.7-8.2 1.7-3.1 0-5.8-.6-8.2-1.7-2.4-1.1-4.4-2.7-6-4.7s-2.8-4.3-3.7-6.9c-.8-2.6-1.2-5.4-1.2-8.4 0-2.9.4-5.7 1.2-8.4.8-2.6 2.1-4.9 3.7-6.9s3.6-3.5 6-4.7c2.4-1.2 5.1-1.7 8.2-1.7 3.1 0 5.8.6 8.2 1.7 2.4 1.2 4.4 2.7 6 4.7 1.7 1.9 2.9 4.2 3.7 6.9M94 121.8h1.2v41.5H94v-41.5zm49.9 29c.8-2.5 1.3-5.3 1.3-8.2 0-3-.5-5.7-1.3-8.2-.8-2.5-2-4.7-3.5-6.5-1.5-1.8-3.4-3.2-5.6-4.3-2.2-1-4.7-1.5-7.5-1.5s-5.3.5-7.5 1.5-4.1 2.4-5.6 4.3-2.7 4-3.5 6.5c-.8 2.5-1.3 5.3-1.3 8.2 0 3 .5 5.7 1.3 8.2.8 2.5 2 4.7 3.5 6.5 1.5 1.8 3.4 3.2 5.6 4.3 2.2 1 4.7 1.5 7.5 1.5s5.3-.5 7.5-1.5 4.1-2.4 5.6-4.3c1.5-1.8 2.7-4 3.5-6.5m1.3-16.6c.8 2.6 1.2 5.4 1.2 8.4 0 2.9-.4 5.7-1.2 8.4-.8 2.6-2.1 4.9-3.7 6.9s-3.6 3.5-6 4.7c-2.4 1.1-5.1 1.7-8.2 1.7-3.1 0-5.8-.6-8.2-1.7-2.4-1.1-4.4-2.7-6-4.7-1.6-2-2.8-4.3-3.7-6.9-.8-2.6-1.2-5.4-1.2-8.4 0-2.9.4-5.7 1.2-8.4.8-2.6 2.1-4.9 3.7-6.9s3.6-3.5 6-4.7c2.4-1.2 5.1-1.7 8.2-1.7 3.1 0 5.8.6 8.2 1.7 2.4 1.2 4.4 2.7 6 4.7 1.6 1.9 2.8 4.2 3.7 6.9"/><defs><path id="c" d="M36.1 120.8h110.3v43.4H36.1z"/></defs><clipPath id="d"><use xlink:href="#c" overflow="visible"/></clipPath><path clip-path="url(#d)" fill="#B3B3B3" d="M-38.5 150.8c.8-2.5 1.3-5.3 1.3-8.2 0-3-.5-5.7-1.3-8.2-.8-2.5-2-4.7-3.5-6.5-1.5-1.8-3.4-3.2-5.6-4.3-2.2-1-4.7-1.5-7.5-1.5s-5.3.5-7.5 1.5-4.1 2.4-5.6 4.3-2.7 4-3.5 6.5c-.8 2.5-1.3 5.3-1.3 8.2 0 3 .5 5.7 1.3 8.2.8 2.5 2 4.7 3.5 6.5 1.5 1.8 3.4 3.2 5.6 4.3 2.2 1 4.7 1.5 7.5 1.5s5.3-.5 7.5-1.5 4.1-2.4 5.6-4.3c1.5-1.8 2.6-4 3.5-6.5m1.2-16.6c.8 2.6 1.2 5.4 1.2 8.4 0 2.9-.4 5.7-1.2 8.4-.8 2.6-2.1 4.9-3.7 6.9s-3.6 3.5-6 4.7c-2.4 1.1-5.1 1.7-8.2 1.7-3.1 0-5.8-.6-8.2-1.7-2.4-1.1-4.4-2.7-6-4.7s-2.8-4.3-3.7-6.9c-.8-2.6-1.2-5.4-1.2-8.4 0-2.9.4-5.7 1.2-8.4.8-2.6 2.1-4.9 3.7-6.9s3.6-3.5 6-4.7c2.4-1.2 5.1-1.7 8.2-1.7 3.1 0 5.8.6 8.2 1.7 2.4 1.2 4.4 2.7 6 4.7 1.6 1.9 2.9 4.2 3.7 6.9m14.4-12.4h1.2v41.5h-1.2v-41.5zm49.9 29c.8-2.5 1.3-5.3 1.3-8.2 0-3-.5-5.7-1.3-8.2-.8-2.5-2-4.7-3.5-6.5-1.5-1.8-3.4-3.2-5.6-4.3-2.2-1-4.7-1.5-7.5-1.5s-5.3.5-7.5 1.5-4.1 2.4-5.6 4.3-2.7 4-3.5 6.5c-.8 2.5-1.3 5.3-1.3 8.2 0 3 .5 5.7 1.3 8.2.8 2.5 2 4.7 3.5 6.5 1.5 1.8 3.4 3.2 5.6 4.3 2.2 1 4.7 1.5 7.5 1.5s5.3-.5 7.5-1.5 4.1-2.4 5.6-4.3c1.5-1.8 2.7-4 3.5-6.5m1.2-16.6c.8 2.6 1.2 5.4 1.2 8.4 0 2.9-.4 5.7-1.2 8.4-.8 2.6-2.1 4.9-3.7 6.9s-3.6 3.5-6 4.7c-2.4 1.1-5.1 1.7-8.2 1.7-3.1 0-5.8-.6-8.2-1.7-2.4-1.1-4.4-2.7-6-4.7-1.6-2-2.8-4.3-3.7-6.9-.8-2.6-1.2-5.4-1.2-8.4 0-2.9.4-5.7 1.2-8.4.8-2.6 2.1-4.9 3.7-6.9s3.6-3.5 6-4.7c2.4-1.2 5.1-1.7 8.2-1.7 3.1 0 5.8.6 8.2 1.7 2.4 1.2 4.4 2.7 6 4.7 1.7 1.9 2.9 4.2 3.7 6.9"/><defs><path id="e" d="M-32 120.8h67.9v43.4H-32z"/></defs><clipPath id="f"><use xlink:href="#e" overflow="visible"/></clipPath><path clip-path="url(#f)" fill="#B3B3B3" d="M10.4 134.2c-.8-2.5-2-4.7-3.5-6.5-1.5-1.8-3.4-3.2-5.6-4.3-2.2-1-4.7-1.5-7.5-1.5s-5.3.5-7.5 1.5-4.1 2.4-5.6 4.3c-1.5 1.8-2.7 4-3.5 6.5-.8 2.5-1.3 5.3-1.3 8.2 0 3 .5 5.7 1.3 8.2.8 2.5 2 4.7 3.5 6.5s3.4 3.2 5.6 4.3c2.2 1 4.7 1.5 7.5 1.5s5.3-.5 7.5-1.5 4.1-2.4 5.6-4.3c1.5-1.8 2.7-4 3.5-6.5.8-2.5 1.3-5.3 1.3-8.2-.1-2.9-.5-5.7-1.3-8.2m1.2 16.6c-.8 2.6-2.1 4.9-3.7 6.9s-3.6 3.5-6 4.7c-2.4 1.2-5.1 1.7-8.2 1.7-3.1 0-5.8-.6-8.2-1.7-2.4-1.2-4.4-2.7-6-4.7s-2.8-4.3-3.7-6.9c-.8-2.6-1.2-5.4-1.2-8.4 0-2.9.4-5.7 1.2-8.4.8-2.6 2.1-4.9 3.7-6.9s3.6-3.5 6-4.7c2.4-1.1 5.1-1.7 8.2-1.7 3.1 0 5.8.6 8.2 1.7 2.4 1.1 4.4 2.7 6 4.7 1.6 2 2.8 4.3 3.7 6.9.8 2.6 1.2 5.4 1.2 8.4s-.4 5.8-1.2 8.4M26 121.7h1.2v41.5H26v-41.5zm49.9 12.5c-.8-2.5-2-4.7-3.5-6.5-1.5-1.8-3.4-3.2-5.6-4.3-2.2-1-4.7-1.5-7.5-1.5s-5.3.5-7.5 1.5-4.1 2.4-5.6 4.3c-1.5 1.8-2.7 4-3.5 6.5-.8 2.5-1.3 5.3-1.3 8.2 0 3 .5 5.7 1.3 8.2.8 2.5 2 4.7 3.5 6.5s3.4 3.2 5.6 4.3c2.2 1 4.7 1.5 7.5 1.5s5.3-.5 7.5-1.5 4.1-2.4 5.6-4.3c1.5-1.8 2.7-4 3.5-6.5.8-2.5 1.3-5.3 1.3-8.2 0-2.9-.5-5.7-1.3-8.2m1.2 16.6c-.8 2.6-2.1 4.9-3.7 6.9s-3.6 3.5-6 4.7c-2.4 1.2-5.1 1.7-8.2 1.7-3.1 0-5.8-.6-8.2-1.7-2.4-1.2-4.4-2.7-6-4.7-1.6-2-2.8-4.3-3.7-6.9-.8-2.6-1.2-5.4-1.2-8.4 0-2.9.4-5.7 1.2-8.4.8-2.6 2.1-4.9 3.7-6.9s3.6-3.5 6-4.7c2.4-1.1 5.1-1.7 8.2-1.7 3.1 0 5.8.6 8.2 1.7 2.4 1.1 4.4 2.7 6 4.7 1.6 2 2.8 4.3 3.7 6.9.8 2.6 1.2 5.4 1.2 8.4.1 3-.3 5.8-1.2 8.4"/><defs><path id="g" d="M875.3 120.8H1096v43.4H875.3z"/></defs><clipPath id="h"><use xlink:href="#g" overflow="visible"/></clipPath><path clip-path="url(#h)" fill="#B3B3B3" d="M943.3 150.8c.8 2.5 2 4.7 3.5 6.5 1.5 1.8 3.4 3.2 5.6 4.3 2.2 1 4.7 1.5 7.5 1.5s5.3-.5 7.5-1.5 4.1-2.4 5.6-4.3c1.5-1.8 2.7-4 3.5-6.5.8-2.5 1.3-5.3 1.3-8.2 0-3-.5-5.7-1.3-8.2-.8-2.5-2-4.7-3.5-6.5s-3.4-3.2-5.6-4.3c-2.2-1-4.7-1.5-7.5-1.5s-5.3.5-7.5 1.5-4.1 2.4-5.6 4.3c-1.5 1.8-2.7 4-3.5 6.5-.8 2.5-1.3 5.3-1.3 8.2 0 2.9.5 5.7 1.3 8.2m-1.2-16.6c.8-2.6 2.1-4.9 3.7-6.9s3.6-3.5 6-4.7c2.4-1.2 5.1-1.7 8.2-1.7 3.1 0 5.8.6 8.2 1.7 2.4 1.2 4.4 2.7 6 4.7 1.6 2 2.8 4.3 3.7 6.9.8 2.6 1.2 5.4 1.2 8.4 0 2.9-.4 5.7-1.2 8.4-.8 2.6-2.1 4.9-3.7 6.9s-3.6 3.5-6 4.7c-2.4 1.1-5.1 1.7-8.2 1.7-3.1 0-5.8-.6-8.2-1.7-2.4-1.1-4.4-2.7-6-4.7s-2.8-4.3-3.7-6.9c-.8-2.6-1.2-5.4-1.2-8.4-.1-3 .3-5.8 1.2-8.4m-14.4 29.1h-1.2v-41.5h1.2v41.5zm-50-12.5c.8 2.5 2 4.7 3.5 6.5 1.5 1.8 3.4 3.2 5.6 4.3 2.2 1 4.7 1.5 7.5 1.5s5.3-.5 7.5-1.5 4.1-2.4 5.6-4.3c1.5-1.8 2.7-4 3.5-6.5.8-2.5 1.3-5.3 1.3-8.2 0-3-.5-5.7-1.3-8.2-.8-2.5-2-4.7-3.5-6.5s-3.4-3.2-5.6-4.3c-2.2-1-4.7-1.5-7.5-1.5s-5.3.5-7.5 1.5-4.1 2.4-5.6 4.3c-1.5 1.8-2.7 4-3.5 6.5-.8 2.5-1.3 5.3-1.3 8.2.1 2.9.5 5.7 1.3 8.2m-1.2-16.6c.8-2.6 2.1-4.9 3.7-6.9s3.6-3.5 6-4.7c2.4-1.2 5.1-1.7 8.2-1.7 3.1 0 5.8.6 8.2 1.7 2.4 1.2 4.4 2.7 6 4.7 1.6 2 2.8 4.3 3.7 6.9.8 2.6 1.2 5.4 1.2 8.4 0 2.9-.4 5.7-1.2 8.4-.8 2.6-2.1 4.9-3.7 6.9s-3.6 3.5-6 4.7c-2.4 1.1-5.1 1.7-8.2 1.7-3.1 0-5.8-.6-8.2-1.7-2.4-1.1-4.4-2.7-6-4.7-1.6-2-2.8-4.3-3.7-6.9-.8-2.6-1.2-5.4-1.2-8.4s.4-5.8 1.2-8.4"/><defs><path id="i" d="M875.3 120.8H1096v43.4H875.3z"/></defs><clipPath id="j"><use xlink:href="#i" overflow="visible"/></clipPath><path clip-path="url(#j)" fill="#B3B3B3" d="M1060.2 150.8c.8 2.5 2 4.7 3.5 6.5 1.5 1.8 3.4 3.2 5.6 4.3 2.2 1 4.7 1.5 7.5 1.5s5.3-.5 7.5-1.5 4.1-2.4 5.6-4.3c1.5-1.8 2.7-4 3.5-6.5.8-2.5 1.3-5.3 1.3-8.2 0-3-.5-5.7-1.3-8.2-.8-2.5-2-4.7-3.5-6.5s-3.4-3.2-5.6-4.3c-2.2-1-4.7-1.5-7.5-1.5s-5.3.5-7.5 1.5-4.1 2.4-5.6 4.3c-1.5 1.8-2.7 4-3.5 6.5-.8 2.5-1.3 5.3-1.3 8.2 0 2.9.5 5.7 1.3 8.2m-1.2-16.6c.8-2.6 2.1-4.9 3.7-6.9s3.6-3.5 6-4.7c2.4-1.2 5.1-1.7 8.2-1.7 3.1 0 5.8.6 8.2 1.7 2.4 1.2 4.4 2.7 6 4.7 1.6 2 2.8 4.3 3.7 6.9.8 2.6 1.2 5.4 1.2 8.4 0 2.9-.4 5.7-1.2 8.4-.8 2.6-2.1 4.9-3.7 6.9s-3.6 3.5-6 4.7c-2.4 1.1-5.1 1.7-8.2 1.7-3.1 0-5.8-.6-8.2-1.7-2.4-1.1-4.4-2.7-6-4.7s-2.8-4.3-3.7-6.9c-.8-2.6-1.2-5.4-1.2-8.4-.1-3 .4-5.8 1.2-8.4m-14.4 29.1h-1.2v-41.5h1.2v41.5zm-49.9-12.5c.8 2.5 2 4.7 3.5 6.5 1.5 1.8 3.4 3.2 5.6 4.3 2.2 1 4.7 1.5 7.5 1.5s5.3-.5 7.5-1.5 4.1-2.4 5.6-4.3c1.5-1.8 2.7-4 3.5-6.5.8-2.5 1.3-5.3 1.3-8.2 0-3-.5-5.7-1.3-8.2-.8-2.5-2-4.7-3.5-6.5-1.5-1.8-3.4-3.2-5.6-4.3-2.2-1-4.7-1.5-7.5-1.5s-5.3.5-7.5 1.5-4.1 2.4-5.6 4.3c-1.5 1.8-2.7 4-3.5 6.5-.8 2.5-1.3 5.3-1.3 8.2 0 2.9.4 5.7 1.3 8.2m-1.2-16.6c.8-2.6 2.1-4.9 3.7-6.9s3.6-3.5 6-4.7c2.4-1.2 5.1-1.7 8.2-1.7 3.1 0 5.8.6 8.2 1.7 2.4 1.2 4.4 2.7 6 4.7 1.6 2 2.8 4.3 3.7 6.9.8 2.6 1.2 5.4 1.2 8.4 0 2.9-.4 5.7-1.2 8.4-.8 2.6-2.1 4.9-3.7 6.9s-3.6 3.5-6 4.7c-2.4 1.1-5.1 1.7-8.2 1.7-3.1 0-5.8-.6-8.2-1.7-2.4-1.1-4.4-2.7-6-4.7-1.6-2-2.8-4.3-3.7-6.9-.8-2.6-1.2-5.4-1.2-8.4-.1-3 .3-5.8 1.2-8.4"/></g></svg>