<svg xmlns="http://www.w3.org/2000/svg" xmlns:xlink="http://www.w3.org/1999/xlink" viewBox="0 0 30.748 31" enable-background="new 0 0 30.748 31"><g><defs><path id="a" d="M-10.908 0h41.656v31h-41.656z"/></defs><clipPath id="b"><use xlink:href="#a" overflow="visible"/></clipPath><path d="M1.092 0s-12 0-12 12v7s0 12 12 12h17.656s12 0 12-12v-7s0-12-12-12H1.092z" clip-path="url(#b)" fill="#231F20"/><path d="M22.17 10.92c0 1.136-.88 2.056-1.967 2.056s-1.967-.92-1.967-2.055c0-1.134.88-2.054 1.967-2.054s1.967.92 1.967 2.055M22.17 18.656c0 1.135-.88 2.055-1.967 2.055s-1.967-.92-1.967-2.054c0-1.135.88-2.055 1.967-2.055s1.967.92 1.967 2.056M14.744 14.777c0 1.135-.88 2.055-1.967 2.055-1.087 0-1.967-.92-1.967-2.055 0-1.135.88-2.055 1.967-2.055 1.086 0 1.967.92 1.967 2.055" clip-path="url(#b)" fill="#fff"/><path fill="#fff" d="M18.9 12.514l-4.952 2.632V13.39l4.95-2.63zM18.9 19.025l-4.952-2.678v-1.755l4.95 2.678z"/></g></svg>