<svg version="1.1" xmlns="http://www.w3.org/2000/svg" id="Layer_1"  xmlns:xlink="http://www.w3.org/1999/xlink" x="0px" y="0px"
	 viewBox="-32 120.8 1126.7 43.4" enable-background="new -32 120.8 1126.7 43.4" xml:space="preserve">
<g id="bytes_x5F_LG">
	<g>
		<g>
			<defs>
				<rect id="SVGID_1_" x="36.1" y="120.8" width="110.3" height="43.4"/>
			</defs>
			<clipPath id="SVGID_2_">
				<use xlink:href="#SVGID_1_"  overflow="visible"/>
			</clipPath>
			<path clip-path="url(#SVGID_2_)" fill="#B3B3B3" d="M78.4,150.8c0.8-2.5,1.3-5.3,1.3-8.2c0-3-0.5-5.7-1.3-8.2
				c-0.8-2.5-2-4.7-3.5-6.5c-1.5-1.8-3.4-3.2-5.6-4.3c-2.2-1-4.7-1.5-7.5-1.5c-2.8,0-5.3,0.5-7.5,1.5c-2.2,1-4.1,2.4-5.6,4.3
				s-2.7,4-3.5,6.5c-0.8,2.5-1.3,5.3-1.3,8.2c0,3,0.5,5.7,1.3,8.2c0.8,2.5,2,4.7,3.5,6.5c1.5,1.8,3.4,3.2,5.6,4.3
				c2.2,1,4.7,1.5,7.5,1.5c2.8,0,5.3-0.5,7.5-1.5c2.2-1,4.1-2.4,5.6-4.3C76.4,155.5,77.6,153.3,78.4,150.8 M79.6,134.2
				c0.8,2.6,1.2,5.4,1.2,8.4c0,2.9-0.4,5.7-1.2,8.4c-0.8,2.6-2.1,4.9-3.7,6.9c-1.6,2-3.6,3.5-6,4.7c-2.4,1.1-5.1,1.7-8.2,1.7
				c-3.1,0-5.8-0.6-8.2-1.7c-2.4-1.1-4.4-2.7-6-4.7s-2.8-4.3-3.7-6.9c-0.8-2.6-1.2-5.4-1.2-8.4c0-2.9,0.4-5.7,1.2-8.4
				c0.8-2.6,2.1-4.9,3.7-6.9c1.6-2,3.6-3.5,6-4.7c2.4-1.2,5.1-1.7,8.2-1.7c3.1,0,5.8,0.6,8.2,1.7c2.4,1.2,4.4,2.7,6,4.7
				C77.6,129.2,78.8,131.5,79.6,134.2 M94,121.8h1.2v41.5H94V121.8z M143.9,150.8c0.8-2.5,1.3-5.3,1.3-8.2c0-3-0.5-5.7-1.3-8.2
				c-0.8-2.5-2-4.7-3.5-6.5c-1.5-1.8-3.4-3.2-5.6-4.3c-2.2-1-4.7-1.5-7.5-1.5s-5.3,0.5-7.5,1.5c-2.2,1-4.1,2.4-5.6,4.3
				s-2.7,4-3.5,6.5c-0.8,2.5-1.3,5.3-1.3,8.2c0,3,0.5,5.7,1.3,8.2c0.8,2.5,2,4.7,3.5,6.5c1.5,1.8,3.4,3.2,5.6,4.3
				c2.2,1,4.7,1.5,7.5,1.5c2.8,0,5.3-0.5,7.5-1.5c2.2-1,4.1-2.4,5.6-4.3C141.9,155.5,143.1,153.3,143.9,150.8 M145.2,134.2
				c0.8,2.6,1.2,5.4,1.2,8.4c0,2.9-0.4,5.7-1.2,8.4c-0.8,2.6-2.1,4.9-3.7,6.9c-1.6,2-3.6,3.5-6,4.7c-2.4,1.1-5.1,1.7-8.2,1.7
				c-3.1,0-5.8-0.6-8.2-1.7c-2.4-1.1-4.4-2.7-6-4.7c-1.6-2-2.8-4.3-3.7-6.9c-0.8-2.6-1.2-5.4-1.2-8.4c0-2.9,0.4-5.7,1.2-8.4
				c0.8-2.6,2.1-4.9,3.7-6.9c1.6-2,3.6-3.5,6-4.7c2.4-1.2,5.1-1.7,8.2-1.7c3.1,0,5.8,0.6,8.2,1.7c2.4,1.2,4.4,2.7,6,4.7
				C143.1,129.2,144.3,131.5,145.2,134.2"/>
		</g>
		<g>
			<defs>
				<rect id="SVGID_3_" x="36.1" y="120.8" width="110.3" height="43.4"/>
			</defs>
			<clipPath id="SVGID_4_">
				<use xlink:href="#SVGID_3_"  overflow="visible"/>
			</clipPath>
			<path clip-path="url(#SVGID_4_)" fill="#B3B3B3" d="M-38.5,150.8c0.8-2.5,1.3-5.3,1.3-8.2c0-3-0.5-5.7-1.3-8.2
				c-0.8-2.5-2-4.7-3.5-6.5c-1.5-1.8-3.4-3.2-5.6-4.3c-2.2-1-4.7-1.5-7.5-1.5s-5.3,0.5-7.5,1.5c-2.2,1-4.1,2.4-5.6,4.3
				s-2.7,4-3.5,6.5c-0.8,2.5-1.3,5.3-1.3,8.2c0,3,0.5,5.7,1.3,8.2c0.8,2.5,2,4.7,3.5,6.5c1.5,1.8,3.4,3.2,5.6,4.3
				c2.2,1,4.7,1.5,7.5,1.5s5.3-0.5,7.5-1.5c2.2-1,4.1-2.4,5.6-4.3C-40.5,155.5-39.4,153.3-38.5,150.8 M-37.3,134.2
				c0.8,2.6,1.2,5.4,1.2,8.4c0,2.9-0.4,5.7-1.2,8.4c-0.8,2.6-2.1,4.9-3.7,6.9s-3.6,3.5-6,4.7c-2.4,1.1-5.1,1.7-8.2,1.7
				c-3.1,0-5.8-0.6-8.2-1.7c-2.4-1.1-4.4-2.7-6-4.7s-2.8-4.3-3.7-6.9c-0.8-2.6-1.2-5.4-1.2-8.4c0-2.9,0.4-5.7,1.2-8.4
				c0.8-2.6,2.1-4.9,3.7-6.9c1.6-2,3.6-3.5,6-4.7c2.4-1.2,5.1-1.7,8.2-1.7c3.1,0,5.8,0.6,8.2,1.7c2.4,1.2,4.4,2.7,6,4.7
				C-39.4,129.2-38.1,131.5-37.3,134.2 M-22.9,121.8h1.2v41.5h-1.2V121.8z M27,150.8c0.8-2.5,1.3-5.3,1.3-8.2c0-3-0.5-5.7-1.3-8.2
				c-0.8-2.5-2-4.7-3.5-6.5c-1.5-1.8-3.4-3.2-5.6-4.3c-2.2-1-4.7-1.5-7.5-1.5s-5.3,0.5-7.5,1.5c-2.2,1-4.1,2.4-5.6,4.3
				s-2.7,4-3.5,6.5c-0.8,2.5-1.3,5.3-1.3,8.2c0,3,0.5,5.7,1.3,8.2c0.8,2.5,2,4.7,3.5,6.5c1.5,1.8,3.4,3.2,5.6,4.3
				c2.2,1,4.7,1.5,7.5,1.5s5.3-0.5,7.5-1.5c2.2-1,4.1-2.4,5.6-4.3C25,155.5,26.2,153.3,27,150.8 M28.2,134.2
				c0.8,2.6,1.2,5.4,1.2,8.4c0,2.9-0.4,5.7-1.2,8.4c-0.8,2.6-2.1,4.9-3.7,6.9c-1.6,2-3.6,3.5-6,4.7c-2.4,1.1-5.1,1.7-8.2,1.7
				c-3.1,0-5.8-0.6-8.2-1.7c-2.4-1.1-4.4-2.7-6-4.7c-1.6-2-2.8-4.3-3.7-6.9c-0.8-2.6-1.2-5.4-1.2-8.4c0-2.9,0.4-5.7,1.2-8.4
				c0.8-2.6,2.1-4.9,3.7-6.9c1.6-2,3.6-3.5,6-4.7c2.4-1.2,5.1-1.7,8.2-1.7c3.1,0,5.8,0.6,8.2,1.7c2.4,1.2,4.4,2.7,6,4.7
				C26.2,129.2,27.4,131.5,28.2,134.2"/>
		</g>
	</g>
	<g>
		<g>
			<defs>
				<rect id="SVGID_5_" x="-32" y="120.8" width="67.9" height="43.4"/>
			</defs>
			<clipPath id="SVGID_6_">
				<use xlink:href="#SVGID_5_"  overflow="visible"/>
			</clipPath>
			<path clip-path="url(#SVGID_6_)" fill="#B3B3B3" d="M10.4,134.2c-0.8-2.5-2-4.7-3.5-6.5c-1.5-1.8-3.4-3.2-5.6-4.3
				c-2.2-1-4.7-1.5-7.5-1.5s-5.3,0.5-7.5,1.5c-2.2,1-4.1,2.4-5.6,4.3c-1.5,1.8-2.7,4-3.5,6.5c-0.8,2.5-1.3,5.3-1.3,8.2
				c0,3,0.5,5.7,1.3,8.2c0.8,2.5,2,4.7,3.5,6.5s3.4,3.2,5.6,4.3c2.2,1,4.7,1.5,7.5,1.5s5.3-0.5,7.5-1.5c2.2-1,4.1-2.4,5.6-4.3
				c1.5-1.8,2.7-4,3.5-6.5c0.8-2.5,1.3-5.3,1.3-8.2C11.6,139.5,11.2,136.7,10.4,134.2 M11.6,150.8c-0.8,2.6-2.1,4.9-3.7,6.9
				s-3.6,3.5-6,4.7c-2.4,1.2-5.1,1.7-8.2,1.7c-3.1,0-5.8-0.6-8.2-1.7c-2.4-1.2-4.4-2.7-6-4.7s-2.8-4.3-3.7-6.9
				c-0.8-2.6-1.2-5.4-1.2-8.4c0-2.9,0.4-5.7,1.2-8.4c0.8-2.6,2.1-4.9,3.7-6.9c1.6-2,3.6-3.5,6-4.7c2.4-1.1,5.1-1.7,8.2-1.7
				c3.1,0,5.8,0.6,8.2,1.7c2.4,1.1,4.4,2.7,6,4.7c1.6,2,2.8,4.3,3.7,6.9c0.8,2.6,1.2,5.4,1.2,8.4C12.8,145.4,12.4,148.2,11.6,150.8
				 M26,121.7h1.2v41.5H26V121.7z M75.9,134.2c-0.8-2.5-2-4.7-3.5-6.5c-1.5-1.8-3.4-3.2-5.6-4.3c-2.2-1-4.7-1.5-7.5-1.5
				s-5.3,0.5-7.5,1.5c-2.2,1-4.1,2.4-5.6,4.3c-1.5,1.8-2.7,4-3.5,6.5c-0.8,2.5-1.3,5.3-1.3,8.2c0,3,0.5,5.7,1.3,8.2
				c0.8,2.5,2,4.7,3.5,6.5s3.4,3.2,5.6,4.3c2.2,1,4.7,1.5,7.5,1.5s5.3-0.5,7.5-1.5c2.2-1,4.1-2.4,5.6-4.3c1.5-1.8,2.7-4,3.5-6.5
				c0.8-2.5,1.3-5.3,1.3-8.2C77.2,139.5,76.7,136.7,75.9,134.2 M77.1,150.8c-0.8,2.6-2.1,4.9-3.7,6.9c-1.6,2-3.6,3.5-6,4.7
				c-2.4,1.2-5.1,1.7-8.2,1.7c-3.1,0-5.8-0.6-8.2-1.7c-2.4-1.2-4.4-2.7-6-4.7c-1.6-2-2.8-4.3-3.7-6.9c-0.8-2.6-1.2-5.4-1.2-8.4
				c0-2.9,0.4-5.7,1.2-8.4c0.8-2.6,2.1-4.9,3.7-6.9c1.6-2,3.6-3.5,6-4.7c2.4-1.1,5.1-1.7,8.2-1.7c3.1,0,5.8,0.6,8.2,1.7
				c2.4,1.1,4.4,2.7,6,4.7c1.6,2,2.8,4.3,3.7,6.9c0.8,2.6,1.2,5.4,1.2,8.4C78.4,145.4,78,148.2,77.1,150.8"/>
		</g>
	</g>
	<g>
		<g>
			<defs>
				<rect id="SVGID_7_" x="875.3" y="120.8" width="220.7" height="43.4"/>
			</defs>
			<clipPath id="SVGID_8_">
				<use xlink:href="#SVGID_7_"  overflow="visible"/>
			</clipPath>
			<path clip-path="url(#SVGID_8_)" fill="#B3B3B3" d="M943.3,150.8c0.8,2.5,2,4.7,3.5,6.5c1.5,1.8,3.4,3.2,5.6,4.3
				c2.2,1,4.7,1.5,7.5,1.5s5.3-0.5,7.5-1.5c2.2-1,4.1-2.4,5.6-4.3c1.5-1.8,2.7-4,3.5-6.5c0.8-2.5,1.3-5.3,1.3-8.2
				c0-3-0.5-5.7-1.3-8.2c-0.8-2.5-2-4.7-3.5-6.5s-3.4-3.2-5.6-4.3c-2.2-1-4.7-1.5-7.5-1.5s-5.3,0.5-7.5,1.5c-2.2,1-4.1,2.4-5.6,4.3
				c-1.5,1.8-2.7,4-3.5,6.5c-0.8,2.5-1.3,5.3-1.3,8.2C942,145.5,942.5,148.3,943.3,150.8 M942.1,134.2c0.8-2.6,2.1-4.9,3.7-6.9
				c1.6-2,3.6-3.5,6-4.7c2.4-1.2,5.1-1.7,8.2-1.7c3.1,0,5.8,0.6,8.2,1.7c2.4,1.2,4.4,2.7,6,4.7c1.6,2,2.8,4.3,3.7,6.9
				c0.8,2.6,1.2,5.4,1.2,8.4c0,2.9-0.4,5.7-1.2,8.4c-0.8,2.6-2.1,4.9-3.7,6.9s-3.6,3.5-6,4.7c-2.4,1.1-5.1,1.7-8.2,1.7
				c-3.1,0-5.8-0.6-8.2-1.7c-2.4-1.1-4.4-2.7-6-4.7s-2.8-4.3-3.7-6.9c-0.8-2.6-1.2-5.4-1.2-8.4C940.8,139.6,941.2,136.8,942.1,134.2
				 M927.7,163.3h-1.2v-41.5h1.2V163.3z M877.7,150.8c0.8,2.5,2,4.7,3.5,6.5c1.5,1.8,3.4,3.2,5.6,4.3c2.2,1,4.7,1.5,7.5,1.5
				s5.3-0.5,7.5-1.5c2.2-1,4.1-2.4,5.6-4.3c1.5-1.8,2.7-4,3.5-6.5c0.8-2.5,1.3-5.3,1.3-8.2c0-3-0.5-5.7-1.3-8.2
				c-0.8-2.5-2-4.7-3.5-6.5s-3.4-3.2-5.6-4.3c-2.2-1-4.7-1.5-7.5-1.5s-5.3,0.5-7.5,1.5c-2.2,1-4.1,2.4-5.6,4.3
				c-1.5,1.8-2.7,4-3.5,6.5c-0.8,2.5-1.3,5.3-1.3,8.2C876.5,145.5,876.9,148.3,877.7,150.8 M876.5,134.2c0.8-2.6,2.1-4.9,3.7-6.9
				c1.6-2,3.6-3.5,6-4.7c2.4-1.2,5.1-1.7,8.2-1.7c3.1,0,5.8,0.6,8.2,1.7c2.4,1.2,4.4,2.7,6,4.7c1.6,2,2.8,4.3,3.7,6.9
				c0.8,2.6,1.2,5.4,1.2,8.4c0,2.9-0.4,5.7-1.2,8.4c-0.8,2.6-2.1,4.9-3.7,6.9c-1.6,2-3.6,3.5-6,4.7c-2.4,1.1-5.1,1.7-8.2,1.7
				c-3.1,0-5.8-0.6-8.2-1.7c-2.4-1.1-4.4-2.7-6-4.7c-1.6-2-2.8-4.3-3.7-6.9c-0.8-2.6-1.2-5.4-1.2-8.4
				C875.3,139.6,875.7,136.8,876.5,134.2"/>
		</g>
		<g>
			<defs>
				<rect id="SVGID_9_" x="875.3" y="120.8" width="220.7" height="43.4"/>
			</defs>
			<clipPath id="SVGID_10_">
				<use xlink:href="#SVGID_9_"  overflow="visible"/>
			</clipPath>
			<path clip-path="url(#SVGID_10_)" fill="#B3B3B3" d="M1060.2,150.8c0.8,2.5,2,4.7,3.5,6.5c1.5,1.8,3.4,3.2,5.6,4.3
				c2.2,1,4.7,1.5,7.5,1.5s5.3-0.5,7.5-1.5c2.2-1,4.1-2.4,5.6-4.3c1.5-1.8,2.7-4,3.5-6.5c0.8-2.5,1.3-5.3,1.3-8.2
				c0-3-0.5-5.7-1.3-8.2c-0.8-2.5-2-4.7-3.5-6.5s-3.4-3.2-5.6-4.3c-2.2-1-4.7-1.5-7.5-1.5s-5.3,0.5-7.5,1.5c-2.2,1-4.1,2.4-5.6,4.3
				c-1.5,1.8-2.7,4-3.5,6.5c-0.8,2.5-1.3,5.3-1.3,8.2C1058.9,145.5,1059.4,148.3,1060.2,150.8 M1059,134.2c0.8-2.6,2.1-4.9,3.7-6.9
				c1.6-2,3.6-3.5,6-4.7c2.4-1.2,5.1-1.7,8.2-1.7c3.1,0,5.8,0.6,8.2,1.7c2.4,1.2,4.4,2.7,6,4.7c1.6,2,2.8,4.3,3.7,6.9
				c0.8,2.6,1.2,5.4,1.2,8.4c0,2.9-0.4,5.7-1.2,8.4c-0.8,2.6-2.1,4.9-3.7,6.9s-3.6,3.5-6,4.7c-2.4,1.1-5.1,1.7-8.2,1.7
				c-3.1,0-5.8-0.6-8.2-1.7c-2.4-1.1-4.4-2.7-6-4.7s-2.8-4.3-3.7-6.9c-0.8-2.6-1.2-5.4-1.2-8.4
				C1057.7,139.6,1058.2,136.8,1059,134.2 M1044.6,163.3h-1.2v-41.5h1.2V163.3z M994.7,150.8c0.8,2.5,2,4.7,3.5,6.5
				c1.5,1.8,3.4,3.2,5.6,4.3c2.2,1,4.7,1.5,7.5,1.5s5.3-0.5,7.5-1.5c2.2-1,4.1-2.4,5.6-4.3c1.5-1.8,2.7-4,3.5-6.5
				c0.8-2.5,1.3-5.3,1.3-8.2c0-3-0.5-5.7-1.3-8.2c-0.8-2.5-2-4.7-3.5-6.5c-1.5-1.8-3.4-3.2-5.6-4.3c-2.2-1-4.7-1.5-7.5-1.5
				s-5.3,0.5-7.5,1.5c-2.2,1-4.1,2.4-5.6,4.3c-1.5,1.8-2.7,4-3.5,6.5c-0.8,2.5-1.3,5.3-1.3,8.2C993.4,145.5,993.8,148.3,994.7,150.8
				 M993.5,134.2c0.8-2.6,2.1-4.9,3.7-6.9c1.6-2,3.6-3.5,6-4.7c2.4-1.2,5.1-1.7,8.2-1.7c3.1,0,5.8,0.6,8.2,1.7
				c2.4,1.2,4.4,2.7,6,4.7c1.6,2,2.8,4.3,3.7,6.9c0.8,2.6,1.2,5.4,1.2,8.4c0,2.9-0.4,5.7-1.2,8.4c-0.8,2.6-2.1,4.9-3.7,6.9
				c-1.6,2-3.6,3.5-6,4.7c-2.4,1.1-5.1,1.7-8.2,1.7c-3.1,0-5.8-0.6-8.2-1.7c-2.4-1.1-4.4-2.7-6-4.7c-1.6-2-2.8-4.3-3.7-6.9
				c-0.8-2.6-1.2-5.4-1.2-8.4C992.2,139.6,992.6,136.8,993.5,134.2"/>
		</g>
	</g>
</g>
<g id="Layer_1_1_">
</g>
</svg>
