<svg version="1.1" xmlns="http://www.w3.org/2000/svg" xmlns:xlink="http://www.w3.org/1999/xlink" x="0px" y="0px"
	 viewBox="0 0 132.794 118.821" style="enable-background:new 0 0 132.794 118.821;" xml:space="preserve">
<g id="brain">
	<path d="M129.06,64.858c-2.198,1.637-4.811,2.94-7.441,3.697c-2.531,0.707-2.727,0.938-4.167,5.204
		c-2.512,7.578-9.682,12.114-17.456,13.029c-3.112,0.372-3.481,0.392-5.235,3.041c-0.428,0.663-0.918,1.248-1.444,1.774
		c-2.276,2.295-2.217,2.649-0.914,3.637c16.458,12.472,43.085-8.099,39.851-29.389C131.826,63.065,131.748,62.834,129.06,64.858
		 M93.199,86.89c1.036-2.167,1.971-2.692,4.345-2.732c7.675-0.118,14.979-4.321,17.451-11.859c1.66-5.102,1.793-5.455,5.475-6.349
		c2.456-0.585,5.124-1.971,7.13-3.509c2.979-2.296,3.854-4.325,4.615-7.908c1.538-7.224,0.078-16.886-5.18-22.341
		c-1.656-1.711-2.394-3.077-3.175-6.157c-2.162-8.531-12.585-16.106-21.073-17.161c-4.678-0.601-5.224-0.738-7.637-2.629
		C86.928-0.199,73.703-2.149,64.296,2.74c-3.975,2.064-4.654,2.437-7.73,1.343c-10.133-3.56-23.495,1.636-28.597,11.085
		c-2.358,4.365-2.511,4.616-7.13,5.318c-9.093,1.366-15.211,7.091-15.152,16.596c0.02,3.759-0.197,4.109-2.261,7.303
		C-8.182,62.48,11.334,85.406,37.553,77.911c2.472-0.723,2.687-1.189,2.943-3.159c0.231-1.809,0.035-2.202-2.673-1.696
		c-5.878,1.095-12.346-0.31-16.242-5.141c-0.797-0.973-0.409-0.875-3.8-1.342C12.7,65.871,8.61,60.357,9.835,55.295
		c0.644-2.649,0.584-2.669,0.275-3.877c-2.104-7.79,4.752-15.466,12.836-14.179c1.676,0.251,1.829,0.271,1.907-1.774
		c0.216-6.118,4.87-11.259,10.851-12.409c1.829-0.349,1.907-0.565,3.681-2.609c4.713-5.494,16.4-6.099,20.803-0.196
		c1.205,1.616,1.574,1.793,3.057,2.162c1.13,0.294,1.381,0.133,2.256-1.421c3.799-6.722,13.327-10.168,20.434-6.973
		c2.379,1.051,2.551,0.973,3.74,0.698c7.814-1.75,17.511,3.002,20.552,10.463c0.855,2.064,1.068,2.413,3.077,3.355
		c6.114,2.837,8.959,10.399,4.595,15.948c-1.283,1.617-1.362,1.849-1.205,3.485c0.542,6.216-5.863,9.858-11.435,9.583
		c-2.63-0.133-2.983-0.172-4.089,0.373c-5.086,2.59-12.684,2.704-17.279-1.052c-1.327-1.11-1.656-1.012-3.308-0.137
		c-4.757,2.492-14.395,3.701-18.256-0.702c-1.205-1.401,0.918-3.254,2.127-1.849c2.978,3.407,11.82,1.868,15.387-0.235
		c2.625-1.578,2.998-1.656,5.765,0.683c3.661,3.115,10.242,2.943,14.316,0.8c1.774-0.934,2.237-0.977,5.141-0.702
		c4.073,0.369,9.544-2.163,8.766-6.954c-0.353-2.182-0.313-2.61,1.5-4.619c3.877-4.223,1.287-10.262-3.662-12.291
		c-2.241-0.914-2.767-1.558-4.034-4.635c-2.531-6.212-10.925-10.242-17.432-8.747c-2.512,0.565-2.782,0.275-5.357-0.875
		c-5.843-2.669-13.923,0.333-16.965,5.902c-0.663,1.209-0.349,1.715,1.17,3.622c1.421,1.813,2.3,4.113,2.394,6.703
		c0.059,1.381,0.176,1.519,1.64,1.436c1.283-0.055,2.586,0.083,3.795,0.432c1.95,0.549,2.143,0.643,3.508-0.133
		c8.198-4.678,19.049-2.127,23.801,6.208c0.915,1.601-1.518,3.002-2.436,1.385c-3.992-6.993-13.128-9.057-19.983-5.145
		c-2.59,1.484-2.767,1.213-5.647,0.393c-3.76-1.072-8.669,0.565-10.91,3.779c-1.695,2.453-1.868,2.531-4.733,3.351
		c-7.362,2.084-11.451,10.675-9.136,17.766c0.915,2.786,2.767,5.042,5.298,6.6c2.375,1.46,2.516,1.951,3.45,4.521
		c1.907,5.259,8.139,6.621,13.029,4.89c3.37-1.189,3.37-1.091,6.879-0.447c3.249,0.58,7.264-0.315,10.011-2.147
		c2.802-1.888,3.347-2.045,6.271-1.849c4.536,0.291,9.952-3.563,9.234-8.492c-0.255-1.828,2.531-2.221,2.782-0.392
		c0.934,6.389-5.239,11.573-11.259,11.71c-3.229,0.075-4.069,0.447-5.706,1.499c-3.312,2.139-7.829,3.096-11.726,2.414
		c-2.59-0.448-3.076-0.467-5.765,0.431c-6.215,2.08-13.75,0.094-16.281-6.353c-0.762-1.927-0.919-2.394-2.708-3.583
		c-1.597-1.032-2.924-2.378-4.035-3.991c-1.499-2.166-1.789-2.084-3.057-0.879c-7.401,7.15-5.921,19.849,4.109,24.15
		c3.917,1.68,8.591,1.872,12.546,0.196c3.933-1.671,4.227-1.577,7.672,0.236c4.227,2.221,9.274,3.041,13.928,1.754
		C89.247,91.662,91.743,89.966,93.199,86.89 M94.918,99.903c-1.675-0.762-3.371-1.758-4.815-2.865
		c-1.77-1.346-2.414-1.578-5.298-1.248c-2.295,0.271-2.315,0.447-1.185,2.708c2.939,5.839,5.121,11.938,8.547,17.604
		c1.601,2.614,2.088,3.061,5.106,2.512c1.832-0.345,2.472-1.225,2.123-2.704c-1.15-5.023-1.892-8.528-2.123-12.468
		C97.116,101.009,97.022,100.852,94.918,99.903 M46.433,63.63c1.464-1.283,1.735-2.182,1.582-4.108
		c-0.585-7.598,4.167-15.584,11.706-17.688c1.848-0.526,1.966-0.486,3.19-2.24c0.978-1.421,2.359-2.61,3.917-3.509
		c1.852-1.028,1.891-1.42,1.813-3.135c-0.157-3.697-2.398-6.915-6.059-7.81c-3.077-0.741-3.116-0.757-4.439-2.884
		c-3.002-4.831-13.15-4.207-16.733,0.141c-2.123,2.571-2.359,2.881-5.2,3.426c-5.086,1.013-9.037,5.726-8.512,10.965
		c0.134,1.46,0.507,1.601,2.708,1.562c7.574-0.177,15.015,9.312,10.612,16.301c-4.36,6.915-13.516,4.364-17.879-1.636
		c-1.092-1.499,1.188-3.136,2.279-1.656c3.116,4.285,9.952,6.973,13.225,1.793c3.293-5.239-3.332-12.758-8.9-11.942
		c-2.787,0.409-2.943,0.428-4.85-0.467c-6.758-3.159-13.908,3.136-12.06,10.07c0.569,2.084,0.432,2.1-0.271,5.18
		c-0.777,3.371,2.045,7.17,5.377,7.774c4.014,0.703,4.462,0.507,5.376,1.81c3.465,4.87,10.129,5.906,15.583,4.344
		C42.207,68.967,43.981,65.792,46.433,63.63"/>
</g>
<g id="Layer_1">
</g>
</svg>
