<?xml version="1.0" encoding="utf-8"?>
<!-- Generator: Adobe Illustrator 18.1.0, SVG Export Plug-In . SVG Version: 6.00 Build 0)  -->
<svg version="1.1" id="Layer_1" xmlns="http://www.w3.org/2000/svg" xmlns:xlink="http://www.w3.org/1999/xlink" x="0px" y="0px"
	 viewBox="-225 -162 850 524" enable-background="new -225 -162 850 524" xml:space="preserve">
<g id="bytes_x5F_small">
	<path fill="#666666" d="M-218.7-119.9v13.3h-0.4v-13.3H-218.7z"/>
	<path fill="#666666" d="M-224.6-92.4c0.3-0.8,0.7-1.6,1.2-2.2c0.5-0.6,1.2-1.1,1.9-1.5c0.8-0.4,1.6-0.6,2.6-0.6
		c1,0,1.9,0.2,2.6,0.6c0.8,0.4,1.4,0.9,1.9,1.5c0.5,0.6,0.9,1.4,1.2,2.2c0.3,0.8,0.4,1.7,0.4,2.7c0,0.9-0.1,1.8-0.4,2.7
		s-0.7,1.6-1.2,2.2c-0.5,0.6-1.2,1.1-1.9,1.5c-0.8,0.4-1.6,0.5-2.6,0.5c-1,0-1.9-0.2-2.6-0.5c-0.8-0.4-1.4-0.9-1.9-1.5
		c-0.5-0.6-0.9-1.4-1.2-2.2c-0.3-0.8-0.4-1.7-0.4-2.7C-225-90.7-224.9-91.6-224.6-92.4z M-224.2-87.1c0.3,0.8,0.6,1.5,1.1,2.1
		c0.5,0.6,1.1,1,1.8,1.4c0.7,0.3,1.5,0.5,2.4,0.5c0.9,0,1.7-0.2,2.4-0.5c0.7-0.3,1.3-0.8,1.8-1.4c0.5-0.6,0.9-1.3,1.1-2.1
		c0.3-0.8,0.4-1.7,0.4-2.6c0-1-0.2-1.8-0.4-2.6c-0.3-0.8-0.6-1.5-1.1-2.1c-0.5-0.6-1.1-1-1.8-1.4s-1.5-0.5-2.4-0.5
		c-0.9,0-1.7,0.2-2.4,0.5c-0.7,0.3-1.3,0.8-1.8,1.4c-0.5,0.6-0.9,1.3-1.1,2.1s-0.4,1.7-0.4,2.6C-224.6-88.8-224.5-87.9-224.2-87.1z"
		/>
	<path fill="#666666" d="M-218.7-72.8v13.3h-0.4v-13.3H-218.7z"/>
	<path fill="#666666" d="M-224.6-45.3c0.3-0.8,0.7-1.6,1.2-2.2c0.5-0.6,1.2-1.1,1.9-1.5c0.8-0.4,1.6-0.6,2.6-0.6
		c1,0,1.9,0.2,2.6,0.6c0.8,0.4,1.4,0.9,1.9,1.5c0.5,0.6,0.9,1.4,1.2,2.2c0.3,0.8,0.4,1.7,0.4,2.7c0,0.9-0.1,1.8-0.4,2.7
		c-0.3,0.8-0.7,1.6-1.2,2.2c-0.5,0.6-1.2,1.1-1.9,1.5c-0.8,0.4-1.6,0.5-2.6,0.5c-1,0-1.9-0.2-2.6-0.5c-0.8-0.4-1.4-0.9-1.9-1.5
		c-0.5-0.6-0.9-1.4-1.2-2.2c-0.3-0.8-0.4-1.7-0.4-2.7C-225-43.6-224.9-44.4-224.6-45.3z M-224.2-40c0.3,0.8,0.6,1.5,1.1,2.1
		c0.5,0.6,1.1,1,1.8,1.4c0.7,0.3,1.5,0.5,2.4,0.5c0.9,0,1.7-0.2,2.4-0.5c0.7-0.3,1.3-0.8,1.8-1.4c0.5-0.6,0.9-1.3,1.1-2.1
		c0.3-0.8,0.4-1.7,0.4-2.6c0-1-0.2-1.8-0.4-2.6c-0.3-0.8-0.6-1.5-1.1-2.1c-0.5-0.6-1.1-1-1.8-1.4s-1.5-0.5-2.4-0.5
		c-0.9,0-1.7,0.2-2.4,0.5c-0.7,0.3-1.3,0.8-1.8,1.4c-0.5,0.6-0.9,1.3-1.1,2.1s-0.4,1.7-0.4,2.6C-224.6-41.7-224.5-40.8-224.2-40z"/>
	<path fill="#666666" d="M-224.6-21.7c0.3-0.8,0.7-1.6,1.2-2.2c0.5-0.6,1.2-1.1,1.9-1.5c0.8-0.4,1.6-0.6,2.6-0.6
		c1,0,1.9,0.2,2.6,0.6c0.8,0.4,1.4,0.9,1.9,1.5c0.5,0.6,0.9,1.4,1.2,2.2c0.3,0.8,0.4,1.7,0.4,2.7c0,0.9-0.1,1.8-0.4,2.7
		s-0.7,1.6-1.2,2.2c-0.5,0.6-1.2,1.1-1.9,1.5c-0.8,0.4-1.6,0.5-2.6,0.5c-1,0-1.9-0.2-2.6-0.5c-0.8-0.4-1.4-0.9-1.9-1.5
		c-0.5-0.6-0.9-1.4-1.2-2.2c-0.3-0.8-0.4-1.7-0.4-2.7C-225-20-224.9-20.9-224.6-21.7z M-224.2-16.4c0.3,0.8,0.6,1.5,1.1,2.1
		c0.5,0.6,1.1,1,1.8,1.4c0.7,0.3,1.5,0.5,2.4,0.5c0.9,0,1.7-0.2,2.4-0.5c0.7-0.3,1.3-0.8,1.8-1.4c0.5-0.6,0.9-1.3,1.1-2.1
		c0.3-0.8,0.4-1.7,0.4-2.6c0-1-0.2-1.8-0.4-2.6c-0.3-0.8-0.6-1.5-1.1-2.1c-0.5-0.6-1.1-1-1.8-1.4c-0.7-0.3-1.5-0.5-2.4-0.5
		c-0.9,0-1.7,0.2-2.4,0.5c-0.7,0.3-1.3,0.8-1.8,1.4c-0.5,0.6-0.9,1.3-1.1,2.1s-0.4,1.7-0.4,2.6C-224.6-18.1-224.5-17.2-224.2-16.4z"
		/>
	<path fill="#666666" d="M-218.7-2.1v13.3h-0.4V-2.1H-218.7z"/>
	<path fill="#666666" d="M-224.6,25.4c0.3-0.8,0.7-1.6,1.2-2.2c0.5-0.6,1.2-1.1,1.9-1.5c0.8-0.4,1.6-0.6,2.6-0.6
		c1,0,1.9,0.2,2.6,0.6c0.8,0.4,1.4,0.9,1.9,1.5c0.5,0.6,0.9,1.4,1.2,2.2c0.3,0.8,0.4,1.7,0.4,2.7c0,0.9-0.1,1.8-0.4,2.7
		c-0.3,0.8-0.7,1.6-1.2,2.2c-0.5,0.6-1.2,1.1-1.9,1.5c-0.8,0.4-1.6,0.5-2.6,0.5c-1,0-1.9-0.2-2.6-0.5c-0.8-0.4-1.4-0.9-1.9-1.5
		c-0.5-0.6-0.9-1.4-1.2-2.2c-0.3-0.8-0.4-1.7-0.4-2.7C-225,27.1-224.9,26.2-224.6,25.4z M-224.2,30.7c0.3,0.8,0.6,1.5,1.1,2.1
		c0.5,0.6,1.1,1,1.8,1.4c0.7,0.3,1.5,0.5,2.4,0.5c0.9,0,1.7-0.2,2.4-0.5c0.7-0.3,1.3-0.8,1.8-1.4c0.5-0.6,0.9-1.3,1.1-2.1
		c0.3-0.8,0.4-1.7,0.4-2.6c0-1-0.2-1.8-0.4-2.6c-0.3-0.8-0.6-1.5-1.1-2.1c-0.5-0.6-1.1-1-1.8-1.4c-0.7-0.3-1.5-0.5-2.4-0.5
		c-0.9,0-1.7,0.2-2.4,0.5c-0.7,0.3-1.3,0.8-1.8,1.4c-0.5,0.6-0.9,1.3-1.1,2.1s-0.4,1.7-0.4,2.6C-224.6,29-224.5,29.9-224.2,30.7z"/>
	<path fill="#666666" d="M-218.7,45v13.3h-0.4V45H-218.7z"/>
	<path fill="#666666" d="M-224.6,72.5c0.3-0.8,0.7-1.6,1.2-2.2c0.5-0.6,1.2-1.1,1.9-1.5c0.8-0.4,1.6-0.6,2.6-0.6
		c1,0,1.9,0.2,2.6,0.6c0.8,0.4,1.4,0.9,1.9,1.5c0.5,0.6,0.9,1.4,1.2,2.2c0.3,0.8,0.4,1.7,0.4,2.7c0,0.9-0.1,1.8-0.4,2.7
		c-0.3,0.8-0.7,1.6-1.2,2.2c-0.5,0.6-1.2,1.1-1.9,1.5c-0.8,0.4-1.6,0.5-2.6,0.5c-1,0-1.9-0.2-2.6-0.5c-0.8-0.4-1.4-0.9-1.9-1.5
		c-0.5-0.6-0.9-1.4-1.2-2.2c-0.3-0.8-0.4-1.7-0.4-2.7S-224.9,73.4-224.6,72.5z M-224.2,77.8c0.3,0.8,0.6,1.5,1.1,2.1
		c0.5,0.6,1.1,1,1.8,1.4c0.7,0.3,1.5,0.5,2.4,0.5c0.9,0,1.7-0.2,2.4-0.5c0.7-0.3,1.3-0.8,1.8-1.4c0.5-0.6,0.9-1.3,1.1-2.1
		c0.3-0.8,0.4-1.7,0.4-2.6c0-1-0.2-1.8-0.4-2.6c-0.3-0.8-0.6-1.5-1.1-2.1c-0.5-0.6-1.1-1-1.8-1.4c-0.7-0.3-1.5-0.5-2.4-0.5
		c-0.9,0-1.7,0.2-2.4,0.5c-0.7,0.3-1.3,0.8-1.8,1.4c-0.5,0.6-0.9,1.3-1.1,2.1s-0.4,1.7-0.4,2.6C-224.6,76.2-224.5,77-224.2,77.8z"/>
	<path fill="#666666" d="M-218.7,92.1v13.3h-0.4V92.1H-218.7z"/>
	<path fill="#666666" d="M-224.6,119.7c0.3-0.8,0.7-1.6,1.2-2.2c0.5-0.6,1.2-1.1,1.9-1.5c0.8-0.4,1.6-0.6,2.6-0.6
		c1,0,1.9,0.2,2.6,0.6c0.8,0.4,1.4,0.9,1.9,1.5c0.5,0.6,0.9,1.4,1.2,2.2c0.3,0.8,0.4,1.7,0.4,2.7c0,0.9-0.1,1.8-0.4,2.7
		c-0.3,0.8-0.7,1.6-1.2,2.2c-0.5,0.6-1.2,1.1-1.9,1.5c-0.8,0.4-1.6,0.5-2.6,0.5c-1,0-1.9-0.2-2.6-0.5c-0.8-0.4-1.4-0.9-1.9-1.5
		c-0.5-0.6-0.9-1.4-1.2-2.2c-0.3-0.8-0.4-1.7-0.4-2.7C-225,121.4-224.9,120.5-224.6,119.7z M-224.2,125c0.3,0.8,0.6,1.5,1.1,2.1
		c0.5,0.6,1.1,1,1.8,1.4c0.7,0.3,1.5,0.5,2.4,0.5c0.9,0,1.7-0.2,2.4-0.5c0.7-0.3,1.3-0.8,1.8-1.4c0.5-0.6,0.9-1.3,1.1-2.1
		c0.3-0.8,0.4-1.7,0.4-2.6c0-1-0.2-1.8-0.4-2.6c-0.3-0.8-0.6-1.5-1.1-2.1c-0.5-0.6-1.1-1-1.8-1.4c-0.7-0.3-1.5-0.5-2.4-0.5
		c-0.9,0-1.7,0.2-2.4,0.5c-0.7,0.3-1.3,0.8-1.8,1.4c-0.5,0.6-0.9,1.3-1.1,2.1s-0.4,1.7-0.4,2.6C-224.6,123.3-224.5,124.2-224.2,125z
		"/>
	<path fill="#666666" d="M-224.6,143.2c0.3-0.8,0.7-1.6,1.2-2.2c0.5-0.6,1.2-1.1,1.9-1.5c0.8-0.4,1.6-0.6,2.6-0.6
		c1,0,1.9,0.2,2.6,0.6c0.8,0.4,1.4,0.9,1.9,1.5c0.5,0.6,0.9,1.4,1.2,2.2c0.3,0.8,0.4,1.7,0.4,2.7c0,0.9-0.1,1.8-0.4,2.7
		c-0.3,0.8-0.7,1.6-1.2,2.2c-0.5,0.6-1.2,1.1-1.9,1.5c-0.8,0.4-1.6,0.5-2.6,0.5c-1,0-1.9-0.2-2.6-0.5c-0.8-0.4-1.4-0.9-1.9-1.5
		c-0.5-0.6-0.9-1.4-1.2-2.2c-0.3-0.8-0.4-1.7-0.4-2.7S-224.9,144.1-224.6,143.2z M-224.2,148.5c0.3,0.8,0.6,1.5,1.1,2.1
		c0.5,0.6,1.1,1,1.8,1.4c0.7,0.3,1.5,0.5,2.4,0.5c0.9,0,1.7-0.2,2.4-0.5c0.7-0.3,1.3-0.8,1.8-1.4c0.5-0.6,0.9-1.3,1.1-2.1
		c0.3-0.8,0.4-1.7,0.4-2.6c0-1-0.2-1.8-0.4-2.6c-0.3-0.8-0.6-1.5-1.1-2.1c-0.5-0.6-1.1-1-1.8-1.4s-1.5-0.5-2.4-0.5
		c-0.9,0-1.7,0.2-2.4,0.5c-0.7,0.3-1.3,0.8-1.8,1.4c-0.5,0.6-0.9,1.3-1.1,2.1c-0.3,0.8-0.4,1.7-0.4,2.6
		C-224.6,146.9-224.5,147.7-224.2,148.5z"/>
	<path fill="#666666" d="M-218.7,162.8v13.3h-0.4v-13.3H-218.7z"/>
	<path fill="#666666" d="M-224.6,190.3c0.3-0.8,0.7-1.6,1.2-2.2c0.5-0.6,1.2-1.1,1.9-1.5c0.8-0.4,1.6-0.6,2.6-0.6
		c1,0,1.9,0.2,2.6,0.6c0.8,0.4,1.4,0.9,1.9,1.5c0.5,0.6,0.9,1.4,1.2,2.2c0.3,0.8,0.4,1.7,0.4,2.7c0,0.9-0.1,1.8-0.4,2.7
		c-0.3,0.8-0.7,1.6-1.2,2.2c-0.5,0.6-1.2,1.1-1.9,1.5c-0.8,0.4-1.6,0.5-2.6,0.5c-1,0-1.9-0.2-2.6-0.5c-0.8-0.4-1.4-0.9-1.9-1.5
		c-0.5-0.6-0.9-1.4-1.2-2.2c-0.3-0.8-0.4-1.7-0.4-2.7C-225,192.1-224.9,191.2-224.6,190.3z M-224.2,195.7c0.3,0.8,0.6,1.5,1.1,2.1
		c0.5,0.6,1.1,1,1.8,1.4c0.7,0.3,1.5,0.5,2.4,0.5c0.9,0,1.7-0.2,2.4-0.5c0.7-0.3,1.3-0.8,1.8-1.4c0.5-0.6,0.9-1.3,1.1-2.1
		c0.3-0.8,0.4-1.7,0.4-2.6c0-1-0.2-1.8-0.4-2.6c-0.3-0.8-0.6-1.5-1.1-2.1c-0.5-0.6-1.1-1-1.8-1.4c-0.7-0.3-1.5-0.5-2.4-0.5
		c-0.9,0-1.7,0.2-2.4,0.5c-0.7,0.3-1.3,0.8-1.8,1.4c-0.5,0.6-0.9,1.3-1.1,2.1s-0.4,1.7-0.4,2.6C-224.6,194-224.5,194.9-224.2,195.7z
		"/>
	<path fill="#666666" d="M-218.7,210v13.3h-0.4V210H-218.7z"/>
	<path fill="#666666" d="M-224.6,237.5c0.3-0.8,0.7-1.6,1.2-2.2c0.5-0.6,1.2-1.1,1.9-1.5c0.8-0.4,1.6-0.6,2.6-0.6
		c1,0,1.9,0.2,2.6,0.6c0.8,0.4,1.4,0.9,1.9,1.5c0.5,0.6,0.9,1.4,1.2,2.2c0.3,0.8,0.4,1.7,0.4,2.7c0,0.9-0.1,1.8-0.4,2.7
		c-0.3,0.8-0.7,1.6-1.2,2.2c-0.5,0.6-1.2,1.1-1.9,1.5c-0.8,0.4-1.6,0.5-2.6,0.5c-1,0-1.9-0.2-2.6-0.5c-0.8-0.4-1.4-0.9-1.9-1.5
		c-0.5-0.6-0.9-1.4-1.2-2.2c-0.3-0.8-0.4-1.7-0.4-2.7C-225,239.2-224.9,238.3-224.6,237.5z M-224.2,242.8c0.3,0.8,0.6,1.5,1.1,2.1
		c0.5,0.6,1.1,1,1.8,1.4c0.7,0.3,1.5,0.5,2.4,0.5c0.9,0,1.7-0.2,2.4-0.5c0.7-0.3,1.3-0.8,1.8-1.4c0.5-0.6,0.9-1.3,1.1-2.1
		c0.3-0.8,0.4-1.7,0.4-2.6c0-1-0.2-1.8-0.4-2.6c-0.3-0.8-0.6-1.5-1.1-2.1c-0.5-0.6-1.1-1-1.8-1.4s-1.5-0.5-2.4-0.5
		c-0.9,0-1.7,0.2-2.4,0.5c-0.7,0.3-1.3,0.8-1.8,1.4c-0.5,0.6-0.9,1.3-1.1,2.1s-0.4,1.7-0.4,2.6C-224.6,241.1-224.5,242-224.2,242.8z
		"/>
	<path fill="#666666" d="M-218.7,257.1v13.3h-0.4v-13.3H-218.7z"/>
	<path fill="#666666" d="M-218.7,280.8v13.3h-0.4v-13.3H-218.7z"/>
	<path fill="#666666" d="M-181.3-162v13.3h-0.4V-162H-181.3z"/>
	<path fill="#666666" d="M-187.2-134.5c0.3-0.8,0.7-1.6,1.2-2.2c0.5-0.6,1.2-1.1,1.9-1.5c0.8-0.4,1.6-0.6,2.6-0.6
		c1,0,1.9,0.2,2.6,0.6c0.8,0.4,1.4,0.9,1.9,1.5c0.5,0.6,0.9,1.4,1.2,2.2c0.3,0.8,0.4,1.7,0.4,2.7c0,0.9-0.1,1.8-0.4,2.7
		c-0.3,0.8-0.7,1.6-1.2,2.2c-0.5,0.6-1.2,1.1-1.9,1.5c-0.8,0.4-1.6,0.5-2.6,0.5c-1,0-1.9-0.2-2.6-0.5c-0.8-0.4-1.4-0.9-1.9-1.5
		c-0.5-0.6-0.9-1.4-1.2-2.2c-0.3-0.8-0.4-1.7-0.4-2.7C-187.6-132.7-187.5-133.6-187.2-134.5z M-186.8-129.2c0.3,0.8,0.6,1.5,1.1,2.1
		c0.5,0.6,1.1,1,1.8,1.4c0.7,0.3,1.5,0.5,2.4,0.5s1.7-0.2,2.4-0.5c0.7-0.3,1.3-0.8,1.8-1.4c0.5-0.6,0.9-1.3,1.1-2.1
		c0.3-0.8,0.4-1.7,0.4-2.6c0-1-0.2-1.8-0.4-2.6c-0.3-0.8-0.6-1.5-1.1-2.1c-0.5-0.6-1.1-1-1.8-1.4s-1.5-0.5-2.4-0.5s-1.7,0.2-2.4,0.5
		s-1.3,0.8-1.8,1.4c-0.5,0.6-0.9,1.3-1.1,2.1c-0.3,0.8-0.4,1.7-0.4,2.6C-187.2-130.8-187.1-130-186.8-129.2z"/>
	<path fill="#666666" d="M-181.3-114.9v13.3h-0.4v-13.3H-181.3z"/>
	<path fill="#666666" d="M-187.2-87.3c0.3-0.8,0.7-1.6,1.2-2.2c0.5-0.6,1.2-1.1,1.9-1.5c0.8-0.4,1.6-0.6,2.6-0.6
		c1,0,1.9,0.2,2.6,0.6c0.8,0.4,1.4,0.9,1.9,1.5c0.5,0.6,0.9,1.4,1.2,2.2c0.3,0.8,0.4,1.7,0.4,2.7c0,0.9-0.1,1.8-0.4,2.7
		c-0.3,0.8-0.7,1.6-1.2,2.2c-0.5,0.6-1.2,1.1-1.9,1.5c-0.8,0.4-1.6,0.5-2.6,0.5c-1,0-1.9-0.2-2.6-0.5c-0.8-0.4-1.4-0.9-1.9-1.5
		c-0.5-0.6-0.9-1.4-1.2-2.2c-0.3-0.8-0.4-1.7-0.4-2.7C-187.6-85.6-187.5-86.5-187.2-87.3z M-186.8-82c0.3,0.8,0.6,1.5,1.1,2.1
		c0.5,0.6,1.1,1,1.8,1.4c0.7,0.3,1.5,0.5,2.4,0.5s1.7-0.2,2.4-0.5c0.7-0.3,1.3-0.8,1.8-1.4c0.5-0.6,0.9-1.3,1.1-2.1
		c0.3-0.8,0.4-1.7,0.4-2.6c0-1-0.2-1.8-0.4-2.6s-0.6-1.5-1.1-2.1c-0.5-0.6-1.1-1-1.8-1.4s-1.5-0.5-2.4-0.5s-1.7,0.2-2.4,0.5
		s-1.3,0.8-1.8,1.4c-0.5,0.6-0.9,1.3-1.1,2.1s-0.4,1.7-0.4,2.6C-187.2-83.7-187.1-82.8-186.8-82z"/>
	<path fill="#666666" d="M-187.2-63.8c0.3-0.8,0.7-1.6,1.2-2.2c0.5-0.6,1.2-1.1,1.9-1.5c0.8-0.4,1.6-0.6,2.6-0.6
		c1,0,1.9,0.2,2.6,0.6c0.8,0.4,1.4,0.9,1.9,1.5c0.5,0.6,0.9,1.4,1.2,2.2c0.3,0.8,0.4,1.7,0.4,2.7c0,0.9-0.1,1.8-0.4,2.7
		c-0.3,0.8-0.7,1.6-1.2,2.2c-0.5,0.6-1.2,1.1-1.9,1.5c-0.8,0.4-1.6,0.5-2.6,0.5c-1,0-1.9-0.2-2.6-0.5c-0.8-0.4-1.4-0.9-1.9-1.5
		c-0.5-0.6-0.9-1.4-1.2-2.2c-0.3-0.8-0.4-1.7-0.4-2.7C-187.6-62-187.5-62.9-187.2-63.8z M-186.8-58.5c0.3,0.8,0.6,1.5,1.1,2.1
		c0.5,0.6,1.1,1,1.8,1.4s1.5,0.5,2.4,0.5s1.7-0.2,2.4-0.5c0.7-0.3,1.3-0.8,1.8-1.4c0.5-0.6,0.9-1.3,1.1-2.1c0.3-0.8,0.4-1.7,0.4-2.6
		c0-1-0.2-1.8-0.4-2.6s-0.6-1.5-1.1-2.1c-0.5-0.6-1.1-1-1.8-1.4s-1.5-0.5-2.4-0.5s-1.7,0.2-2.4,0.5s-1.3,0.8-1.8,1.4
		c-0.5,0.6-0.9,1.3-1.1,2.1s-0.4,1.7-0.4,2.6C-187.2-60.1-187.1-59.3-186.8-58.5z"/>
	<path fill="#666666" d="M-181.3-44.2v13.3h-0.4v-13.3H-181.3z"/>
	<path fill="#666666" d="M-187.2-16.7c0.3-0.8,0.7-1.6,1.2-2.2c0.5-0.6,1.2-1.1,1.9-1.5c0.8-0.4,1.6-0.6,2.6-0.6
		c1,0,1.9,0.2,2.6,0.6c0.8,0.4,1.4,0.9,1.9,1.5c0.5,0.6,0.9,1.4,1.2,2.2c0.3,0.8,0.4,1.7,0.4,2.7c0,0.9-0.1,1.8-0.4,2.7
		c-0.3,0.8-0.7,1.6-1.2,2.2c-0.5,0.6-1.2,1.1-1.9,1.5c-0.8,0.4-1.6,0.5-2.6,0.5c-1,0-1.9-0.2-2.6-0.5c-0.8-0.4-1.4-0.9-1.9-1.5
		c-0.5-0.6-0.9-1.4-1.2-2.2c-0.3-0.8-0.4-1.7-0.4-2.7C-187.6-14.9-187.5-15.8-187.2-16.7z M-186.8-11.3c0.3,0.8,0.6,1.5,1.1,2.1
		c0.5,0.6,1.1,1,1.8,1.4s1.5,0.5,2.4,0.5s1.7-0.2,2.4-0.5c0.7-0.3,1.3-0.8,1.8-1.4c0.5-0.6,0.9-1.3,1.1-2.1c0.3-0.8,0.4-1.7,0.4-2.6
		c0-1-0.2-1.8-0.4-2.6c-0.3-0.8-0.6-1.5-1.1-2.1c-0.5-0.6-1.1-1-1.8-1.4c-0.7-0.3-1.5-0.5-2.4-0.5s-1.7,0.2-2.4,0.5
		c-0.7,0.3-1.3,0.8-1.8,1.4c-0.5,0.6-0.9,1.3-1.1,2.1c-0.3,0.8-0.4,1.7-0.4,2.6C-187.2-13-187.1-12.1-186.8-11.3z"/>
	<path fill="#666666" d="M-181.3,2.9v13.3h-0.4V2.9H-181.3z"/>
	<path fill="#666666" d="M-187.2,30.5c0.3-0.8,0.7-1.6,1.2-2.2c0.5-0.6,1.2-1.1,1.9-1.5c0.8-0.4,1.6-0.6,2.6-0.6
		c1,0,1.9,0.2,2.6,0.6c0.8,0.4,1.4,0.9,1.9,1.5c0.5,0.6,0.9,1.4,1.2,2.2c0.3,0.8,0.4,1.7,0.4,2.7c0,0.9-0.1,1.8-0.4,2.7
		c-0.3,0.8-0.7,1.6-1.2,2.2c-0.5,0.6-1.2,1.1-1.9,1.5c-0.8,0.4-1.6,0.5-2.6,0.5c-1,0-1.9-0.2-2.6-0.5c-0.8-0.4-1.4-0.9-1.9-1.5
		c-0.5-0.6-0.9-1.4-1.2-2.2c-0.3-0.8-0.4-1.7-0.4-2.7C-187.6,32.2-187.5,31.3-187.2,30.5z M-186.8,35.8c0.3,0.8,0.6,1.5,1.1,2.1
		c0.5,0.6,1.1,1,1.8,1.4c0.7,0.3,1.5,0.5,2.4,0.5s1.7-0.2,2.4-0.5c0.7-0.3,1.3-0.8,1.8-1.4c0.5-0.6,0.9-1.3,1.1-2.1
		c0.3-0.8,0.4-1.7,0.4-2.6c0-1-0.2-1.8-0.4-2.6c-0.3-0.8-0.6-1.5-1.1-2.1c-0.5-0.6-1.1-1-1.8-1.4c-0.7-0.3-1.5-0.5-2.4-0.5
		s-1.7,0.2-2.4,0.5c-0.7,0.3-1.3,0.8-1.8,1.4c-0.5,0.6-0.9,1.3-1.1,2.1c-0.3,0.8-0.4,1.7-0.4,2.6C-187.2,34.1-187.1,35-186.8,35.8z"
		/>
	<path fill="#666666" d="M-181.3,50.1v13.3h-0.4V50.1H-181.3z"/>
	<path fill="#666666" d="M-187.2,77.6c0.3-0.8,0.7-1.6,1.2-2.2c0.5-0.6,1.2-1.1,1.9-1.5c0.8-0.4,1.6-0.6,2.6-0.6
		c1,0,1.9,0.2,2.6,0.6c0.8,0.4,1.4,0.9,1.9,1.5c0.5,0.6,0.9,1.4,1.2,2.2c0.3,0.8,0.4,1.7,0.4,2.7c0,0.9-0.1,1.8-0.4,2.7
		c-0.3,0.8-0.7,1.6-1.2,2.2c-0.5,0.6-1.2,1.1-1.9,1.5c-0.8,0.4-1.6,0.5-2.6,0.5c-1,0-1.9-0.2-2.6-0.5c-0.8-0.4-1.4-0.9-1.9-1.5
		c-0.5-0.6-0.9-1.4-1.2-2.2c-0.3-0.8-0.4-1.7-0.4-2.7C-187.6,79.3-187.5,78.4-187.2,77.6z M-186.8,82.9c0.3,0.8,0.6,1.5,1.1,2.1
		c0.5,0.6,1.1,1,1.8,1.4c0.7,0.3,1.5,0.5,2.4,0.5s1.7-0.2,2.4-0.5c0.7-0.3,1.3-0.8,1.8-1.4c0.5-0.6,0.9-1.3,1.1-2.1
		c0.3-0.8,0.4-1.7,0.4-2.6c0-1-0.2-1.8-0.4-2.6s-0.6-1.5-1.1-2.1c-0.5-0.6-1.1-1-1.8-1.4c-0.7-0.3-1.5-0.5-2.4-0.5s-1.7,0.2-2.4,0.5
		c-0.7,0.3-1.3,0.8-1.8,1.4c-0.5,0.6-0.9,1.3-1.1,2.1s-0.4,1.7-0.4,2.6C-187.2,81.2-187.1,82.1-186.8,82.9z"/>
	<path fill="#666666" d="M-187.2,101.2c0.3-0.8,0.7-1.6,1.2-2.2c0.5-0.6,1.2-1.1,1.9-1.5c0.8-0.4,1.6-0.6,2.6-0.6
		c1,0,1.9,0.2,2.6,0.6c0.8,0.4,1.4,0.9,1.9,1.5c0.5,0.6,0.9,1.4,1.2,2.2c0.3,0.8,0.4,1.7,0.4,2.7c0,0.9-0.1,1.8-0.4,2.7
		c-0.3,0.8-0.7,1.6-1.2,2.2c-0.5,0.6-1.2,1.1-1.9,1.5c-0.8,0.4-1.6,0.5-2.6,0.5c-1,0-1.9-0.2-2.6-0.5c-0.8-0.4-1.4-0.9-1.9-1.5
		c-0.5-0.6-0.9-1.4-1.2-2.2c-0.3-0.8-0.4-1.7-0.4-2.7C-187.6,102.9-187.5,102-187.2,101.2z M-186.8,106.5c0.3,0.8,0.6,1.5,1.1,2.1
		c0.5,0.6,1.1,1,1.8,1.4s1.5,0.5,2.4,0.5s1.7-0.2,2.4-0.5c0.7-0.3,1.3-0.8,1.8-1.4c0.5-0.6,0.9-1.3,1.1-2.1c0.3-0.8,0.4-1.7,0.4-2.6
		c0-1-0.2-1.8-0.4-2.6s-0.6-1.5-1.1-2.1c-0.5-0.6-1.1-1-1.8-1.4c-0.7-0.3-1.5-0.5-2.4-0.5s-1.7,0.2-2.4,0.5
		c-0.7,0.3-1.3,0.8-1.8,1.4c-0.5,0.6-0.9,1.3-1.1,2.1s-0.4,1.7-0.4,2.6C-187.2,104.8-187.1,105.7-186.8,106.5z"/>
	<path fill="#666666" d="M-181.3,120.8V134h-0.4v-13.3H-181.3z"/>
	<path fill="#666666" d="M-187.2,148.3c0.3-0.8,0.7-1.6,1.2-2.2c0.5-0.6,1.2-1.1,1.9-1.5c0.8-0.4,1.6-0.6,2.6-0.6
		c1,0,1.9,0.2,2.6,0.6c0.8,0.4,1.4,0.9,1.9,1.5c0.5,0.6,0.9,1.4,1.2,2.2c0.3,0.8,0.4,1.7,0.4,2.7c0,0.9-0.1,1.8-0.4,2.7
		c-0.3,0.8-0.7,1.6-1.2,2.2c-0.5,0.6-1.2,1.1-1.9,1.5c-0.8,0.4-1.6,0.5-2.6,0.5c-1,0-1.9-0.2-2.6-0.5c-0.8-0.4-1.4-0.9-1.9-1.5
		c-0.5-0.6-0.9-1.4-1.2-2.2c-0.3-0.8-0.4-1.7-0.4-2.7C-187.6,150-187.5,149.1-187.2,148.3z M-186.8,153.6c0.3,0.8,0.6,1.5,1.1,2.1
		c0.5,0.6,1.1,1,1.8,1.4c0.7,0.3,1.5,0.5,2.4,0.5s1.7-0.2,2.4-0.5c0.7-0.3,1.3-0.8,1.8-1.4c0.5-0.6,0.9-1.3,1.1-2.1
		c0.3-0.8,0.4-1.7,0.4-2.6c0-1-0.2-1.8-0.4-2.6c-0.3-0.8-0.6-1.5-1.1-2.1c-0.5-0.6-1.1-1-1.8-1.4s-1.5-0.5-2.4-0.5s-1.7,0.2-2.4,0.5
		c-0.7,0.3-1.3,0.8-1.8,1.4c-0.5,0.6-0.9,1.3-1.1,2.1s-0.4,1.7-0.4,2.6C-187.2,151.9-187.1,152.8-186.8,153.6z"/>
	<path fill="#666666" d="M-181.3,167.9v13.3h-0.4v-13.3H-181.3z"/>
	<path fill="#666666" d="M-187.2,195.4c0.3-0.8,0.7-1.6,1.2-2.2c0.5-0.6,1.2-1.1,1.9-1.5c0.8-0.4,1.6-0.6,2.6-0.6
		c1,0,1.9,0.2,2.6,0.6c0.8,0.4,1.4,0.9,1.9,1.5c0.5,0.6,0.9,1.4,1.2,2.2c0.3,0.8,0.4,1.7,0.4,2.7c0,0.9-0.1,1.8-0.4,2.7
		c-0.3,0.8-0.7,1.6-1.2,2.2c-0.5,0.6-1.2,1.1-1.9,1.5c-0.8,0.4-1.6,0.5-2.6,0.5c-1,0-1.9-0.2-2.6-0.5c-0.8-0.4-1.4-0.9-1.9-1.5
		c-0.5-0.6-0.9-1.4-1.2-2.2c-0.3-0.8-0.4-1.7-0.4-2.7C-187.6,197.2-187.5,196.3-187.2,195.4z M-186.8,200.7c0.3,0.8,0.6,1.5,1.1,2.1
		c0.5,0.6,1.1,1,1.8,1.4s1.5,0.5,2.4,0.5s1.7-0.2,2.4-0.5c0.7-0.3,1.3-0.8,1.8-1.4c0.5-0.6,0.9-1.3,1.1-2.1c0.3-0.8,0.4-1.7,0.4-2.6
		c0-1-0.2-1.8-0.4-2.6c-0.3-0.8-0.6-1.5-1.1-2.1c-0.5-0.6-1.1-1-1.8-1.4s-1.5-0.5-2.4-0.5s-1.7,0.2-2.4,0.5
		c-0.7,0.3-1.3,0.8-1.8,1.4c-0.5,0.6-0.9,1.3-1.1,2.1s-0.4,1.7-0.4,2.6C-187.2,199.1-187.1,199.9-186.8,200.7z"/>
	<path fill="#666666" d="M-181.3,215v13.3h-0.4V215H-181.3z"/>
	<path fill="#666666" d="M-181.3,238.7V252h-0.4v-13.3H-181.3z"/>
	<path fill="#666666" d="M619-52v13.3h-0.4V-52H619z"/>
	<path fill="#666666" d="M613.2-24.5c0.3-0.8,0.7-1.6,1.2-2.2s1.2-1.1,1.9-1.5c0.8-0.4,1.6-0.6,2.6-0.6c1,0,1.9,0.2,2.6,0.6
		c0.8,0.4,1.4,0.9,1.9,1.5c0.5,0.6,0.9,1.4,1.2,2.2c0.3,0.8,0.4,1.7,0.4,2.7c0,0.9-0.1,1.8-0.4,2.7c-0.3,0.8-0.7,1.6-1.2,2.2
		c-0.5,0.6-1.2,1.1-1.9,1.5c-0.8,0.4-1.6,0.5-2.6,0.5c-1,0-1.9-0.2-2.6-0.5c-0.8-0.4-1.4-0.9-1.9-1.5c-0.5-0.6-0.9-1.4-1.2-2.2
		c-0.3-0.8-0.4-1.7-0.4-2.7C612.8-22.7,612.9-23.6,613.2-24.5z M613.6-19.2c0.3,0.8,0.6,1.5,1.1,2.1c0.5,0.6,1.1,1,1.8,1.4
		c0.7,0.3,1.5,0.5,2.4,0.5c0.9,0,1.7-0.2,2.4-0.5c0.7-0.3,1.3-0.8,1.8-1.4c0.5-0.6,0.9-1.3,1.1-2.1c0.3-0.8,0.4-1.7,0.4-2.6
		c0-1-0.2-1.8-0.4-2.6c-0.3-0.8-0.6-1.5-1.1-2.1c-0.5-0.6-1.1-1-1.8-1.4c-0.7-0.3-1.5-0.5-2.4-0.5c-0.9,0-1.7,0.2-2.4,0.5
		c-0.7,0.3-1.3,0.8-1.8,1.4c-0.5,0.6-0.9,1.3-1.1,2.1c-0.3,0.8-0.4,1.7-0.4,2.6C613.1-20.8,613.3-20,613.6-19.2z"/>
	<path fill="#666666" d="M619-4.9V8.4h-0.4V-4.9H619z"/>
	<path fill="#666666" d="M613.2,22.6c0.3-0.8,0.7-1.6,1.2-2.2s1.2-1.1,1.9-1.5c0.8-0.4,1.6-0.6,2.6-0.6c1,0,1.9,0.2,2.6,0.6
		c0.8,0.4,1.4,0.9,1.9,1.5c0.5,0.6,0.9,1.4,1.2,2.2c0.3,0.8,0.4,1.7,0.4,2.7c0,0.9-0.1,1.8-0.4,2.7c-0.3,0.8-0.7,1.6-1.2,2.2
		c-0.5,0.6-1.2,1.1-1.9,1.5c-0.8,0.4-1.6,0.5-2.6,0.5c-1,0-1.9-0.2-2.6-0.5c-0.8-0.4-1.4-0.9-1.9-1.5c-0.5-0.6-0.9-1.4-1.2-2.2
		c-0.3-0.8-0.4-1.7-0.4-2.7C612.8,24.4,612.9,23.5,613.2,22.6z M613.6,28c0.3,0.8,0.6,1.5,1.1,2.1c0.5,0.6,1.1,1,1.8,1.4
		c0.7,0.3,1.5,0.5,2.4,0.5c0.9,0,1.7-0.2,2.4-0.5c0.7-0.3,1.3-0.8,1.8-1.4c0.5-0.6,0.9-1.3,1.1-2.1c0.3-0.8,0.4-1.7,0.4-2.6
		c0-1-0.2-1.8-0.4-2.6c-0.3-0.8-0.6-1.5-1.1-2.1c-0.5-0.6-1.1-1-1.8-1.4c-0.7-0.3-1.5-0.5-2.4-0.5c-0.9,0-1.7,0.2-2.4,0.5
		c-0.7,0.3-1.3,0.8-1.8,1.4c-0.5,0.6-0.9,1.3-1.1,2.1c-0.3,0.8-0.4,1.7-0.4,2.6C613.1,26.3,613.3,27.2,613.6,28z"/>
	<path fill="#666666" d="M613.2,46.2c0.3-0.8,0.7-1.6,1.2-2.2s1.2-1.1,1.9-1.5s1.6-0.6,2.6-0.6c1,0,1.9,0.2,2.6,0.6s1.4,0.9,1.9,1.5
		c0.5,0.6,0.9,1.4,1.2,2.2c0.3,0.8,0.4,1.7,0.4,2.7c0,0.9-0.1,1.8-0.4,2.7c-0.3,0.8-0.7,1.6-1.2,2.2c-0.5,0.6-1.2,1.1-1.9,1.5
		c-0.8,0.4-1.6,0.5-2.6,0.5c-1,0-1.9-0.2-2.6-0.5c-0.8-0.4-1.4-0.9-1.9-1.5c-0.5-0.6-0.9-1.4-1.2-2.2c-0.3-0.8-0.4-1.7-0.4-2.7
		C612.8,47.9,612.9,47.1,613.2,46.2z M613.6,51.5c0.3,0.8,0.6,1.5,1.1,2.1c0.5,0.6,1.1,1,1.8,1.4c0.7,0.3,1.5,0.5,2.4,0.5
		c0.9,0,1.7-0.2,2.4-0.5c0.7-0.3,1.3-0.8,1.8-1.4c0.5-0.6,0.9-1.3,1.1-2.1c0.3-0.8,0.4-1.7,0.4-2.6c0-1-0.2-1.8-0.4-2.6
		c-0.3-0.8-0.6-1.5-1.1-2.1c-0.5-0.6-1.1-1-1.8-1.4s-1.5-0.5-2.4-0.5c-0.9,0-1.7,0.2-2.4,0.5c-0.7,0.3-1.3,0.8-1.8,1.4
		c-0.5,0.6-0.9,1.3-1.1,2.1c-0.3,0.8-0.4,1.7-0.4,2.6C613.1,49.8,613.3,50.7,613.6,51.5z"/>
	<path fill="#666666" d="M619,65.8v13.3h-0.4V65.8H619z"/>
	<path fill="#666666" d="M613.2,93.3c0.3-0.8,0.7-1.6,1.2-2.2s1.2-1.1,1.9-1.5s1.6-0.6,2.6-0.6c1,0,1.9,0.2,2.6,0.6s1.4,0.9,1.9,1.5
		c0.5,0.6,0.9,1.4,1.2,2.2c0.3,0.8,0.4,1.7,0.4,2.7c0,0.9-0.1,1.8-0.4,2.7c-0.3,0.8-0.7,1.6-1.2,2.2c-0.5,0.6-1.2,1.1-1.9,1.5
		c-0.8,0.4-1.6,0.5-2.6,0.5c-1,0-1.9-0.2-2.6-0.5c-0.8-0.4-1.4-0.9-1.9-1.5c-0.5-0.6-0.9-1.4-1.2-2.2c-0.3-0.8-0.4-1.7-0.4-2.7
		C612.8,95.1,612.9,94.2,613.2,93.3z M613.6,98.7c0.3,0.8,0.6,1.5,1.1,2.1c0.5,0.6,1.1,1,1.8,1.4c0.7,0.3,1.5,0.5,2.4,0.5
		c0.9,0,1.7-0.2,2.4-0.5c0.7-0.3,1.3-0.8,1.8-1.4c0.5-0.6,0.9-1.3,1.1-2.1c0.3-0.8,0.4-1.7,0.4-2.6c0-1-0.2-1.8-0.4-2.6
		c-0.3-0.8-0.6-1.5-1.1-2.1c-0.5-0.6-1.1-1-1.8-1.4c-0.7-0.3-1.5-0.5-2.4-0.5c-0.9,0-1.7,0.2-2.4,0.5c-0.7,0.3-1.3,0.8-1.8,1.4
		c-0.5,0.6-0.9,1.3-1.1,2.1c-0.3,0.8-0.4,1.7-0.4,2.6C613.1,97,613.3,97.9,613.6,98.7z"/>
	<path fill="#666666" d="M619,112.9v13.3h-0.4v-13.3H619z"/>
	<path fill="#666666" d="M613.2,140.5c0.3-0.8,0.7-1.6,1.2-2.2c0.5-0.6,1.2-1.1,1.9-1.5s1.6-0.6,2.6-0.6c1,0,1.9,0.2,2.6,0.6
		s1.4,0.9,1.9,1.5c0.5,0.6,0.9,1.4,1.2,2.2c0.3,0.8,0.4,1.7,0.4,2.7c0,0.9-0.1,1.8-0.4,2.7c-0.3,0.8-0.7,1.6-1.2,2.2
		c-0.5,0.6-1.2,1.1-1.9,1.5c-0.8,0.4-1.6,0.5-2.6,0.5c-1,0-1.9-0.2-2.6-0.5c-0.8-0.4-1.4-0.9-1.9-1.5c-0.5-0.6-0.9-1.4-1.2-2.2
		c-0.3-0.8-0.4-1.7-0.4-2.7C612.8,142.2,612.9,141.3,613.2,140.5z M613.6,145.8c0.3,0.8,0.6,1.5,1.1,2.1s1.1,1,1.8,1.4
		c0.7,0.3,1.5,0.5,2.4,0.5c0.9,0,1.7-0.2,2.4-0.5c0.7-0.3,1.3-0.8,1.8-1.4c0.5-0.6,0.9-1.3,1.1-2.1c0.3-0.8,0.4-1.7,0.4-2.6
		c0-1-0.2-1.8-0.4-2.6c-0.3-0.8-0.6-1.5-1.1-2.1c-0.5-0.6-1.1-1-1.8-1.4s-1.5-0.5-2.4-0.5c-0.9,0-1.7,0.2-2.4,0.5
		c-0.7,0.3-1.3,0.8-1.8,1.4c-0.5,0.6-0.9,1.3-1.1,2.1c-0.3,0.8-0.4,1.7-0.4,2.6C613.1,144.1,613.3,145,613.6,145.8z"/>
	<path fill="#666666" d="M619,160.1v13.3h-0.4v-13.3H619z"/>
	<path fill="#666666" d="M613.2,187.6c0.3-0.8,0.7-1.6,1.2-2.2c0.5-0.6,1.2-1.1,1.9-1.5c0.8-0.4,1.6-0.6,2.6-0.6
		c1,0,1.9,0.2,2.6,0.6c0.8,0.4,1.4,0.9,1.9,1.5c0.5,0.6,0.9,1.4,1.2,2.2c0.3,0.8,0.4,1.7,0.4,2.7c0,0.9-0.1,1.8-0.4,2.7
		c-0.3,0.8-0.7,1.6-1.2,2.2c-0.5,0.6-1.2,1.1-1.9,1.5c-0.8,0.4-1.6,0.5-2.6,0.5c-1,0-1.9-0.2-2.6-0.5c-0.8-0.4-1.4-0.9-1.9-1.5
		c-0.5-0.6-0.9-1.4-1.2-2.2c-0.3-0.8-0.4-1.7-0.4-2.7C612.8,189.3,612.9,188.4,613.2,187.6z M613.6,192.9c0.3,0.8,0.6,1.5,1.1,2.1
		s1.1,1,1.8,1.4c0.7,0.3,1.5,0.5,2.4,0.5c0.9,0,1.7-0.2,2.4-0.5c0.7-0.3,1.3-0.8,1.8-1.4c0.5-0.6,0.9-1.3,1.1-2.1
		c0.3-0.8,0.4-1.7,0.4-2.6c0-1-0.2-1.8-0.4-2.6c-0.3-0.8-0.6-1.5-1.1-2.1c-0.5-0.6-1.1-1-1.8-1.4s-1.5-0.5-2.4-0.5
		c-0.9,0-1.7,0.2-2.4,0.5c-0.7,0.3-1.3,0.8-1.8,1.4c-0.5,0.6-0.9,1.3-1.1,2.1c-0.3,0.8-0.4,1.7-0.4,2.6
		C613.1,191.2,613.3,192.1,613.6,192.9z"/>
	<path fill="#666666" d="M613.2,211.2c0.3-0.8,0.7-1.6,1.2-2.2c0.5-0.6,1.2-1.1,1.9-1.5c0.8-0.4,1.6-0.6,2.6-0.6
		c1,0,1.9,0.2,2.6,0.6c0.8,0.4,1.4,0.9,1.9,1.5c0.5,0.6,0.9,1.4,1.2,2.2c0.3,0.8,0.4,1.7,0.4,2.7c0,0.9-0.1,1.8-0.4,2.7
		c-0.3,0.8-0.7,1.6-1.2,2.2c-0.5,0.6-1.2,1.1-1.9,1.5c-0.8,0.4-1.6,0.5-2.6,0.5c-1,0-1.9-0.2-2.6-0.5c-0.8-0.4-1.4-0.9-1.9-1.5
		c-0.5-0.6-0.9-1.4-1.2-2.2c-0.3-0.8-0.4-1.7-0.4-2.7C612.8,212.9,612.9,212,613.2,211.2z M613.6,216.5c0.3,0.8,0.6,1.5,1.1,2.1
		s1.1,1,1.8,1.4c0.7,0.3,1.5,0.5,2.4,0.5c0.9,0,1.7-0.2,2.4-0.5c0.7-0.3,1.3-0.8,1.8-1.4c0.5-0.6,0.9-1.3,1.1-2.1
		c0.3-0.8,0.4-1.7,0.4-2.6c0-1-0.2-1.8-0.4-2.6c-0.3-0.8-0.6-1.5-1.1-2.1c-0.5-0.6-1.1-1-1.8-1.4s-1.5-0.5-2.4-0.5
		c-0.9,0-1.7,0.2-2.4,0.5c-0.7,0.3-1.3,0.8-1.8,1.4c-0.5,0.6-0.9,1.3-1.1,2.1c-0.3,0.8-0.4,1.7-0.4,2.6
		C613.1,214.8,613.3,215.7,613.6,216.5z"/>
	<path fill="#666666" d="M619,230.8V244h-0.4v-13.3H619z"/>
	<path fill="#666666" d="M613.2,258.3c0.3-0.8,0.7-1.6,1.2-2.2c0.5-0.6,1.2-1.1,1.9-1.5s1.6-0.6,2.6-0.6c1,0,1.9,0.2,2.6,0.6
		s1.4,0.9,1.9,1.5c0.5,0.6,0.9,1.4,1.2,2.2c0.3,0.8,0.4,1.7,0.4,2.7c0,0.9-0.1,1.8-0.4,2.7c-0.3,0.8-0.7,1.6-1.2,2.2
		c-0.5,0.6-1.2,1.1-1.9,1.5c-0.8,0.4-1.6,0.5-2.6,0.5c-1,0-1.9-0.2-2.6-0.5c-0.8-0.4-1.4-0.9-1.9-1.5c-0.5-0.6-0.9-1.4-1.2-2.2
		c-0.3-0.8-0.4-1.7-0.4-2.7C612.8,260,612.9,259.1,613.2,258.3z M613.6,263.6c0.3,0.8,0.6,1.5,1.1,2.1s1.1,1,1.8,1.4
		c0.7,0.3,1.5,0.5,2.4,0.5c0.9,0,1.7-0.2,2.4-0.5c0.7-0.3,1.3-0.8,1.8-1.4c0.5-0.6,0.9-1.3,1.1-2.1c0.3-0.8,0.4-1.7,0.4-2.6
		c0-1-0.2-1.8-0.4-2.6c-0.3-0.8-0.6-1.5-1.1-2.1c-0.5-0.6-1.1-1-1.8-1.4c-0.7-0.3-1.5-0.5-2.4-0.5c-0.9,0-1.7,0.2-2.4,0.5
		c-0.7,0.3-1.3,0.8-1.8,1.4c-0.5,0.6-0.9,1.3-1.1,2.1c-0.3,0.8-0.4,1.7-0.4,2.6C613.1,261.9,613.3,262.8,613.6,263.6z"/>
	<path fill="#666666" d="M619,277.9v13.3h-0.4v-13.3H619z"/>
	<path fill="#666666" d="M613.2,305.4c0.3-0.8,0.7-1.6,1.2-2.2c0.5-0.6,1.2-1.1,1.9-1.5c0.8-0.4,1.6-0.6,2.6-0.6
		c1,0,1.9,0.2,2.6,0.6c0.8,0.4,1.4,0.9,1.9,1.5c0.5,0.6,0.9,1.4,1.2,2.2c0.3,0.8,0.4,1.7,0.4,2.7c0,0.9-0.1,1.8-0.4,2.7
		c-0.3,0.8-0.7,1.6-1.2,2.2c-0.5,0.6-1.2,1.1-1.9,1.5c-0.8,0.4-1.6,0.5-2.6,0.5c-1,0-1.9-0.2-2.6-0.5c-0.8-0.4-1.4-0.9-1.9-1.5
		c-0.5-0.6-0.9-1.4-1.2-2.2c-0.3-0.8-0.4-1.7-0.4-2.7C612.8,307.2,612.9,306.3,613.2,305.4z M613.6,310.7c0.3,0.8,0.6,1.5,1.1,2.1
		s1.1,1,1.8,1.4c0.7,0.3,1.5,0.5,2.4,0.5c0.9,0,1.7-0.2,2.4-0.5c0.7-0.3,1.3-0.8,1.8-1.4c0.5-0.6,0.9-1.3,1.1-2.1
		c0.3-0.8,0.4-1.7,0.4-2.6c0-1-0.2-1.8-0.4-2.6c-0.3-0.8-0.6-1.5-1.1-2.1c-0.5-0.6-1.1-1-1.8-1.4s-1.5-0.5-2.4-0.5
		c-0.9,0-1.7,0.2-2.4,0.5c-0.7,0.3-1.3,0.8-1.8,1.4c-0.5,0.6-0.9,1.3-1.1,2.1c-0.3,0.8-0.4,1.7-0.4,2.6
		C613.1,309,613.3,309.9,613.6,310.7z"/>
	<path fill="#666666" d="M619,325v13.3h-0.4V325H619z"/>
	<path fill="#666666" d="M619,348.7V362h-0.4v-13.3H619z"/>
	<path fill="#666666" d="M467.5,37.2v13.3h-0.4V37.2H467.5z"/>
	<path fill="#666666" d="M461.6,64.7c0.3-0.8,0.7-1.6,1.2-2.2s1.2-1.1,1.9-1.5c0.8-0.4,1.6-0.6,2.6-0.6c1,0,1.9,0.2,2.6,0.6
		s1.4,0.9,1.9,1.5c0.5,0.6,0.9,1.4,1.2,2.2c0.3,0.8,0.4,1.7,0.4,2.7c0,0.9-0.1,1.8-0.4,2.7s-0.7,1.6-1.2,2.2
		c-0.5,0.6-1.2,1.1-1.9,1.5c-0.8,0.4-1.6,0.5-2.6,0.5c-1,0-1.9-0.2-2.6-0.5c-0.8-0.4-1.4-0.9-1.9-1.5c-0.5-0.6-0.9-1.4-1.2-2.2
		c-0.3-0.8-0.4-1.7-0.4-2.7C461.2,66.4,461.4,65.5,461.6,64.7z M462,70c0.3,0.8,0.6,1.5,1.1,2.1c0.5,0.6,1.1,1,1.8,1.4
		c0.7,0.3,1.5,0.5,2.4,0.5s1.7-0.2,2.4-0.5c0.7-0.3,1.3-0.8,1.8-1.4c0.5-0.6,0.9-1.3,1.1-2.1c0.3-0.8,0.4-1.7,0.4-2.6
		c0-1-0.2-1.8-0.4-2.6c-0.3-0.8-0.6-1.5-1.1-2.1c-0.5-0.6-1.1-1-1.8-1.4s-1.5-0.5-2.4-0.5s-1.7,0.2-2.4,0.5
		c-0.7,0.3-1.3,0.8-1.8,1.4c-0.5,0.6-0.9,1.3-1.1,2.1c-0.3,0.8-0.4,1.7-0.4,2.6C461.6,68.3,461.7,69.2,462,70z"/>
	<path fill="#666666" d="M461.6,88.3c0.3-0.8,0.7-1.6,1.2-2.2s1.2-1.1,1.9-1.5c0.8-0.4,1.6-0.6,2.6-0.6c1,0,1.9,0.2,2.6,0.6
		s1.4,0.9,1.9,1.5c0.5,0.6,0.9,1.4,1.2,2.2c0.3,0.8,0.4,1.7,0.4,2.7c0,0.9-0.1,1.8-0.4,2.7s-0.7,1.6-1.2,2.2
		c-0.5,0.6-1.2,1.1-1.9,1.5c-0.8,0.4-1.6,0.5-2.6,0.5c-1,0-1.9-0.2-2.6-0.5c-0.8-0.4-1.4-0.9-1.9-1.5c-0.5-0.6-0.9-1.4-1.2-2.2
		c-0.3-0.8-0.4-1.7-0.4-2.7C461.2,90,461.4,89.1,461.6,88.3z M462,93.6c0.3,0.8,0.6,1.5,1.1,2.1c0.5,0.6,1.1,1,1.8,1.4
		c0.7,0.3,1.5,0.5,2.4,0.5s1.7-0.2,2.4-0.5c0.7-0.3,1.3-0.8,1.8-1.4c0.5-0.6,0.9-1.3,1.1-2.1c0.3-0.8,0.4-1.7,0.4-2.6
		c0-1-0.2-1.8-0.4-2.6c-0.3-0.8-0.6-1.5-1.1-2.1c-0.5-0.6-1.1-1-1.8-1.4c-0.7-0.3-1.5-0.5-2.4-0.5s-1.7,0.2-2.4,0.5
		c-0.7,0.3-1.3,0.8-1.8,1.4c-0.5,0.6-0.9,1.3-1.1,2.1c-0.3,0.8-0.4,1.7-0.4,2.6C461.6,91.9,461.7,92.8,462,93.6z"/>
	<path fill="#666666" d="M467.5,107.9v13.3h-0.4v-13.3H467.5z"/>
	<path fill="#666666" d="M461.6,135.4c0.3-0.8,0.7-1.6,1.2-2.2c0.5-0.6,1.2-1.1,1.9-1.5c0.8-0.4,1.6-0.6,2.6-0.6
		c1,0,1.9,0.2,2.6,0.6c0.8,0.4,1.4,0.9,1.9,1.5c0.5,0.6,0.9,1.4,1.2,2.2c0.3,0.8,0.4,1.7,0.4,2.7c0,0.9-0.1,1.8-0.4,2.7
		c-0.3,0.8-0.7,1.6-1.2,2.2c-0.5,0.6-1.2,1.1-1.9,1.5c-0.8,0.4-1.6,0.5-2.6,0.5c-1,0-1.9-0.2-2.6-0.5c-0.8-0.4-1.4-0.9-1.9-1.5
		c-0.5-0.6-0.9-1.4-1.2-2.2c-0.3-0.8-0.4-1.7-0.4-2.7S461.4,136.2,461.6,135.4z M462,140.7c0.3,0.8,0.6,1.5,1.1,2.1
		c0.5,0.6,1.1,1,1.8,1.4s1.5,0.5,2.4,0.5s1.7-0.2,2.4-0.5c0.7-0.3,1.3-0.8,1.8-1.4c0.5-0.6,0.9-1.3,1.1-2.1c0.3-0.8,0.4-1.7,0.4-2.6
		c0-1-0.2-1.8-0.4-2.6c-0.3-0.8-0.6-1.5-1.1-2.1c-0.5-0.6-1.1-1-1.8-1.4s-1.5-0.5-2.4-0.5s-1.7,0.2-2.4,0.5
		c-0.7,0.3-1.3,0.8-1.8,1.4c-0.5,0.6-0.9,1.3-1.1,2.1s-0.4,1.7-0.4,2.6C461.6,139,461.7,139.9,462,140.7z"/>
	<path fill="#666666" d="M467.5,155v13.3h-0.4V155H467.5z"/>
	<path fill="#666666" d="M461.6,182.5c0.3-0.8,0.7-1.6,1.2-2.2c0.5-0.6,1.2-1.1,1.9-1.5c0.8-0.4,1.6-0.6,2.6-0.6
		c1,0,1.9,0.2,2.6,0.6s1.4,0.9,1.9,1.5c0.5,0.6,0.9,1.4,1.2,2.2c0.3,0.8,0.4,1.7,0.4,2.7c0,0.9-0.1,1.8-0.4,2.7
		c-0.3,0.8-0.7,1.6-1.2,2.2c-0.5,0.6-1.2,1.1-1.9,1.5c-0.8,0.4-1.6,0.5-2.6,0.5c-1,0-1.9-0.2-2.6-0.5c-0.8-0.4-1.4-0.9-1.9-1.5
		c-0.5-0.6-0.9-1.4-1.2-2.2c-0.3-0.8-0.4-1.7-0.4-2.7C461.2,184.3,461.4,183.4,461.6,182.5z M462,187.8c0.3,0.8,0.6,1.5,1.1,2.1
		c0.5,0.6,1.1,1,1.8,1.4s1.5,0.5,2.4,0.5s1.7-0.2,2.4-0.5c0.7-0.3,1.3-0.8,1.8-1.4c0.5-0.6,0.9-1.3,1.1-2.1c0.3-0.8,0.4-1.7,0.4-2.6
		c0-1-0.2-1.8-0.4-2.6c-0.3-0.8-0.6-1.5-1.1-2.1c-0.5-0.6-1.1-1-1.8-1.4s-1.5-0.5-2.4-0.5s-1.7,0.2-2.4,0.5
		c-0.7,0.3-1.3,0.8-1.8,1.4c-0.5,0.6-0.9,1.3-1.1,2.1s-0.4,1.7-0.4,2.6C461.6,186.2,461.7,187,462,187.8z"/>
	<path fill="#666666" d="M467.5,202.1v13.3h-0.4v-13.3H467.5z"/>
	<path fill="#666666" d="M544.4-133.7v13.3H544v-13.3H544.4z"/>
	<path fill="#666666" d="M538.5-106.2c0.3-0.8,0.7-1.6,1.2-2.2s1.2-1.1,1.9-1.5c0.8-0.4,1.6-0.6,2.6-0.6c1,0,1.9,0.2,2.6,0.6
		c0.8,0.4,1.4,0.9,1.9,1.5s0.9,1.4,1.2,2.2c0.3,0.8,0.4,1.7,0.4,2.7c0,0.9-0.1,1.8-0.4,2.7c-0.3,0.8-0.7,1.6-1.2,2.2
		c-0.5,0.6-1.2,1.1-1.9,1.5c-0.8,0.4-1.6,0.5-2.6,0.5c-1,0-1.9-0.2-2.6-0.5c-0.8-0.4-1.4-0.9-1.9-1.5c-0.5-0.6-0.9-1.4-1.2-2.2
		c-0.3-0.8-0.4-1.7-0.4-2.7C538.1-104.4,538.3-105.3,538.5-106.2z M538.9-100.8c0.3,0.8,0.6,1.5,1.1,2.1c0.5,0.6,1.1,1,1.8,1.4
		s1.5,0.5,2.4,0.5c0.9,0,1.7-0.2,2.4-0.5c0.7-0.3,1.3-0.8,1.8-1.4c0.5-0.6,0.9-1.3,1.1-2.1c0.3-0.8,0.4-1.7,0.4-2.6
		c0-1-0.2-1.8-0.4-2.6c-0.3-0.8-0.6-1.5-1.1-2.1c-0.5-0.6-1.1-1-1.8-1.4c-0.7-0.3-1.5-0.5-2.4-0.5c-0.9,0-1.7,0.2-2.4,0.5
		c-0.7,0.3-1.3,0.8-1.8,1.4c-0.5,0.6-0.9,1.3-1.1,2.1c-0.3,0.8-0.4,1.7-0.4,2.6C538.5-102.5,538.7-101.6,538.9-100.8z"/>
	<path fill="#666666" d="M544.4-86.6v13.3H544v-13.3H544.4z"/>
	<path fill="#666666" d="M538.5-59c0.3-0.8,0.7-1.6,1.2-2.2c0.5-0.6,1.2-1.1,1.9-1.5c0.8-0.4,1.6-0.6,2.6-0.6c1,0,1.9,0.2,2.6,0.6
		c0.8,0.4,1.4,0.9,1.9,1.5c0.5,0.6,0.9,1.4,1.2,2.2c0.3,0.8,0.4,1.7,0.4,2.7c0,0.9-0.1,1.8-0.4,2.7c-0.3,0.8-0.7,1.6-1.2,2.2
		c-0.5,0.6-1.2,1.1-1.9,1.5c-0.8,0.4-1.6,0.5-2.6,0.5c-1,0-1.9-0.2-2.6-0.5c-0.8-0.4-1.4-0.9-1.9-1.5c-0.5-0.6-0.9-1.4-1.2-2.2
		c-0.3-0.8-0.4-1.7-0.4-2.7C538.1-57.3,538.3-58.2,538.5-59z M538.9-53.7c0.3,0.8,0.6,1.5,1.1,2.1c0.5,0.6,1.1,1,1.8,1.4
		c0.7,0.3,1.5,0.5,2.4,0.5c0.9,0,1.7-0.2,2.4-0.5c0.7-0.3,1.3-0.8,1.8-1.4c0.5-0.6,0.9-1.3,1.1-2.1c0.3-0.8,0.4-1.7,0.4-2.6
		c0-1-0.2-1.8-0.4-2.6c-0.3-0.8-0.6-1.5-1.1-2.1c-0.5-0.6-1.1-1-1.8-1.4s-1.5-0.5-2.4-0.5c-0.9,0-1.7,0.2-2.4,0.5s-1.3,0.8-1.8,1.4
		c-0.5,0.6-0.9,1.3-1.1,2.1c-0.3,0.8-0.4,1.7-0.4,2.6C538.5-55.4,538.7-54.5,538.9-53.7z"/>
	<path fill="#666666" d="M538.5-35.5c0.3-0.8,0.7-1.6,1.2-2.2s1.2-1.1,1.9-1.5c0.8-0.4,1.6-0.6,2.6-0.6c1,0,1.9,0.2,2.6,0.6
		c0.8,0.4,1.4,0.9,1.9,1.5c0.5,0.6,0.9,1.4,1.2,2.2c0.3,0.8,0.4,1.7,0.4,2.7c0,0.9-0.1,1.8-0.4,2.7c-0.3,0.8-0.7,1.6-1.2,2.2
		c-0.5,0.6-1.2,1.1-1.9,1.5c-0.8,0.4-1.6,0.5-2.6,0.5c-1,0-1.9-0.2-2.6-0.5c-0.8-0.4-1.4-0.9-1.9-1.5c-0.5-0.6-0.9-1.4-1.2-2.2
		c-0.3-0.8-0.4-1.7-0.4-2.7C538.1-33.7,538.3-34.6,538.5-35.5z M538.9-30.1c0.3,0.8,0.6,1.5,1.1,2.1c0.5,0.6,1.1,1,1.8,1.4
		c0.7,0.3,1.5,0.5,2.4,0.5c0.9,0,1.7-0.2,2.4-0.5c0.7-0.3,1.3-0.8,1.8-1.4c0.5-0.6,0.9-1.3,1.1-2.1c0.3-0.8,0.4-1.7,0.4-2.6
		c0-1-0.2-1.8-0.4-2.6c-0.3-0.8-0.6-1.5-1.1-2.1c-0.5-0.6-1.1-1-1.8-1.4s-1.5-0.5-2.4-0.5c-0.9,0-1.7,0.2-2.4,0.5s-1.3,0.8-1.8,1.4
		c-0.5,0.6-0.9,1.3-1.1,2.1c-0.3,0.8-0.4,1.7-0.4,2.6C538.5-31.8,538.7-30.9,538.9-30.1z"/>
	<path fill="#666666" d="M544.4-15.9v13.3H544v-13.3H544.4z"/>
	<path fill="#666666" d="M538.5,11.7c0.3-0.8,0.7-1.6,1.2-2.2s1.2-1.1,1.9-1.5c0.8-0.4,1.6-0.6,2.6-0.6c1,0,1.9,0.2,2.6,0.6
		c0.8,0.4,1.4,0.9,1.9,1.5c0.5,0.6,0.9,1.4,1.2,2.2c0.3,0.8,0.4,1.7,0.4,2.7c0,0.9-0.1,1.8-0.4,2.7c-0.3,0.8-0.7,1.6-1.2,2.2
		c-0.5,0.6-1.2,1.1-1.9,1.5c-0.8,0.4-1.6,0.5-2.6,0.5c-1,0-1.9-0.2-2.6-0.5c-0.8-0.4-1.4-0.9-1.9-1.5c-0.5-0.6-0.9-1.4-1.2-2.2
		c-0.3-0.8-0.4-1.7-0.4-2.7C538.1,13.4,538.3,12.5,538.5,11.7z M538.9,17c0.3,0.8,0.6,1.5,1.1,2.1c0.5,0.6,1.1,1,1.8,1.4
		s1.5,0.5,2.4,0.5c0.9,0,1.7-0.2,2.4-0.5c0.7-0.3,1.3-0.8,1.8-1.4c0.5-0.6,0.9-1.3,1.1-2.1c0.3-0.8,0.4-1.7,0.4-2.6
		c0-1-0.2-1.8-0.4-2.6c-0.3-0.8-0.6-1.5-1.1-2.1c-0.5-0.6-1.1-1-1.8-1.4s-1.5-0.5-2.4-0.5c-0.9,0-1.7,0.2-2.4,0.5
		c-0.7,0.3-1.3,0.8-1.8,1.4c-0.5,0.6-0.9,1.3-1.1,2.1c-0.3,0.8-0.4,1.7-0.4,2.6C538.5,15.3,538.7,16.2,538.9,17z"/>
	<path fill="#666666" d="M544.4,31.3v13.3H544V31.3H544.4z"/>
	<path fill="#666666" d="M538.5,58.8c0.3-0.8,0.7-1.6,1.2-2.2s1.2-1.1,1.9-1.5c0.8-0.4,1.6-0.6,2.6-0.6c1,0,1.9,0.2,2.6,0.6
		c0.8,0.4,1.4,0.9,1.9,1.5c0.5,0.6,0.9,1.4,1.2,2.2c0.3,0.8,0.4,1.7,0.4,2.7c0,0.9-0.1,1.8-0.4,2.7c-0.3,0.8-0.7,1.6-1.2,2.2
		c-0.5,0.6-1.2,1.1-1.9,1.5c-0.8,0.4-1.6,0.5-2.6,0.5c-1,0-1.9-0.2-2.6-0.5c-0.8-0.4-1.4-0.9-1.9-1.5c-0.5-0.6-0.9-1.4-1.2-2.2
		c-0.3-0.8-0.4-1.7-0.4-2.7C538.1,60.5,538.3,59.6,538.5,58.8z M538.9,64.1c0.3,0.8,0.6,1.5,1.1,2.1c0.5,0.6,1.1,1,1.8,1.4
		c0.7,0.3,1.5,0.5,2.4,0.5c0.9,0,1.7-0.2,2.4-0.5c0.7-0.3,1.3-0.8,1.8-1.4c0.5-0.6,0.9-1.3,1.1-2.1c0.3-0.8,0.4-1.7,0.4-2.6
		c0-1-0.2-1.8-0.4-2.6c-0.3-0.8-0.6-1.5-1.1-2.1c-0.5-0.6-1.1-1-1.8-1.4c-0.7-0.3-1.5-0.5-2.4-0.5c-0.9,0-1.7,0.2-2.4,0.5
		c-0.7,0.3-1.3,0.8-1.8,1.4c-0.5,0.6-0.9,1.3-1.1,2.1c-0.3,0.8-0.4,1.7-0.4,2.6C538.5,62.4,538.7,63.3,538.9,64.1z"/>
	<path fill="#666666" d="M544.4,78.4v13.3H544V78.4H544.4z"/>
	<path fill="#666666" d="M538.5,105.9c0.3-0.8,0.7-1.6,1.2-2.2c0.5-0.6,1.2-1.1,1.9-1.5c0.8-0.4,1.6-0.6,2.6-0.6
		c1,0,1.9,0.2,2.6,0.6c0.8,0.4,1.4,0.9,1.9,1.5c0.5,0.6,0.9,1.4,1.2,2.2c0.3,0.8,0.4,1.7,0.4,2.7c0,0.9-0.1,1.8-0.4,2.7
		c-0.3,0.8-0.7,1.6-1.2,2.2c-0.5,0.6-1.2,1.1-1.9,1.5c-0.8,0.4-1.6,0.5-2.6,0.5c-1,0-1.9-0.2-2.6-0.5c-0.8-0.4-1.4-0.9-1.9-1.5
		c-0.5-0.6-0.9-1.4-1.2-2.2c-0.3-0.8-0.4-1.7-0.4-2.7C538.1,107.7,538.3,106.8,538.5,105.9z M538.9,111.2c0.3,0.8,0.6,1.5,1.1,2.1
		c0.5,0.6,1.1,1,1.8,1.4c0.7,0.3,1.5,0.5,2.4,0.5c0.9,0,1.7-0.2,2.4-0.5c0.7-0.3,1.3-0.8,1.8-1.4c0.5-0.6,0.9-1.3,1.1-2.1
		c0.3-0.8,0.4-1.7,0.4-2.6c0-1-0.2-1.8-0.4-2.6c-0.3-0.8-0.6-1.5-1.1-2.1c-0.5-0.6-1.1-1-1.8-1.4c-0.7-0.3-1.5-0.5-2.4-0.5
		c-0.9,0-1.7,0.2-2.4,0.5c-0.7,0.3-1.3,0.8-1.8,1.4c-0.5,0.6-0.9,1.3-1.1,2.1c-0.3,0.8-0.4,1.7-0.4,2.6
		C538.5,109.6,538.7,110.4,538.9,111.2z"/>
	<path fill="#666666" d="M538.5,129.5c0.3-0.8,0.7-1.6,1.2-2.2c0.5-0.6,1.2-1.1,1.9-1.5c0.8-0.4,1.6-0.6,2.6-0.6
		c1,0,1.9,0.2,2.6,0.6c0.8,0.4,1.4,0.9,1.9,1.5c0.5,0.6,0.9,1.4,1.2,2.2c0.3,0.8,0.4,1.7,0.4,2.7c0,0.9-0.1,1.8-0.4,2.7
		c-0.3,0.8-0.7,1.6-1.2,2.2c-0.5,0.6-1.2,1.1-1.9,1.5c-0.8,0.4-1.6,0.5-2.6,0.5c-1,0-1.9-0.2-2.6-0.5c-0.8-0.4-1.4-0.9-1.9-1.5
		c-0.5-0.6-0.9-1.4-1.2-2.2c-0.3-0.8-0.4-1.7-0.4-2.7C538.1,131.2,538.3,130.3,538.5,129.5z M538.9,134.8c0.3,0.8,0.6,1.5,1.1,2.1
		c0.5,0.6,1.1,1,1.8,1.4s1.5,0.5,2.4,0.5c0.9,0,1.7-0.2,2.4-0.5c0.7-0.3,1.3-0.8,1.8-1.4c0.5-0.6,0.9-1.3,1.1-2.1
		c0.3-0.8,0.4-1.7,0.4-2.6c0-1-0.2-1.8-0.4-2.6c-0.3-0.8-0.6-1.5-1.1-2.1c-0.5-0.6-1.1-1-1.8-1.4c-0.7-0.3-1.5-0.5-2.4-0.5
		c-0.9,0-1.7,0.2-2.4,0.5s-1.3,0.8-1.8,1.4c-0.5,0.6-0.9,1.3-1.1,2.1c-0.3,0.8-0.4,1.7-0.4,2.6C538.5,133.1,538.7,134,538.9,134.8z"
		/>
	<path fill="#666666" d="M544.4,149.1v13.3H544v-13.3H544.4z"/>
	<path fill="#666666" d="M538.5,176.6c0.3-0.8,0.7-1.6,1.2-2.2c0.5-0.6,1.2-1.1,1.9-1.5c0.8-0.4,1.6-0.6,2.6-0.6
		c1,0,1.9,0.2,2.6,0.6c0.8,0.4,1.4,0.9,1.9,1.5c0.5,0.6,0.9,1.4,1.2,2.2c0.3,0.8,0.4,1.7,0.4,2.7c0,0.9-0.1,1.8-0.4,2.7
		c-0.3,0.8-0.7,1.6-1.2,2.2c-0.5,0.6-1.2,1.1-1.9,1.5c-0.8,0.4-1.6,0.5-2.6,0.5c-1,0-1.9-0.2-2.6-0.5c-0.8-0.4-1.4-0.9-1.9-1.5
		c-0.5-0.6-0.9-1.4-1.2-2.2c-0.3-0.8-0.4-1.7-0.4-2.7S538.3,177.5,538.5,176.6z M538.9,181.9c0.3,0.8,0.6,1.5,1.1,2.1
		c0.5,0.6,1.1,1,1.8,1.4s1.5,0.5,2.4,0.5c0.9,0,1.7-0.2,2.4-0.5c0.7-0.3,1.3-0.8,1.8-1.4c0.5-0.6,0.9-1.3,1.1-2.1
		c0.3-0.8,0.4-1.7,0.4-2.6c0-1-0.2-1.8-0.4-2.6c-0.3-0.8-0.6-1.5-1.1-2.1c-0.5-0.6-1.1-1-1.8-1.4s-1.5-0.5-2.4-0.5
		c-0.9,0-1.7,0.2-2.4,0.5s-1.3,0.8-1.8,1.4c-0.5,0.6-0.9,1.3-1.1,2.1c-0.3,0.8-0.4,1.7-0.4,2.6C538.5,180.2,538.7,181.1,538.9,181.9
		z"/>
	<path fill="#666666" d="M544.4,196.2v13.3H544v-13.3H544.4z"/>
	<path fill="#666666" d="M538.5,223.7c0.3-0.8,0.7-1.6,1.2-2.2c0.5-0.6,1.2-1.1,1.9-1.5c0.8-0.4,1.6-0.6,2.6-0.6
		c1,0,1.9,0.2,2.6,0.6c0.8,0.4,1.4,0.9,1.9,1.5c0.5,0.6,0.9,1.4,1.2,2.2c0.3,0.8,0.4,1.7,0.4,2.7c0,0.9-0.1,1.8-0.4,2.7
		c-0.3,0.8-0.7,1.6-1.2,2.2c-0.5,0.6-1.2,1.1-1.9,1.5c-0.8,0.4-1.6,0.5-2.6,0.5c-1,0-1.9-0.2-2.6-0.5c-0.8-0.4-1.4-0.9-1.9-1.5
		c-0.5-0.6-0.9-1.4-1.2-2.2c-0.3-0.8-0.4-1.7-0.4-2.7C538.1,225.5,538.3,224.6,538.5,223.7z M538.9,229.1c0.3,0.8,0.6,1.5,1.1,2.1
		c0.5,0.6,1.1,1,1.8,1.4s1.5,0.5,2.4,0.5c0.9,0,1.7-0.2,2.4-0.5c0.7-0.3,1.3-0.8,1.8-1.4c0.5-0.6,0.9-1.3,1.1-2.1
		c0.3-0.8,0.4-1.7,0.4-2.6c0-1-0.2-1.8-0.4-2.6c-0.3-0.8-0.6-1.5-1.1-2.1c-0.5-0.6-1.1-1-1.8-1.4s-1.5-0.5-2.4-0.5
		c-0.9,0-1.7,0.2-2.4,0.5s-1.3,0.8-1.8,1.4c-0.5,0.6-0.9,1.3-1.1,2.1c-0.3,0.8-0.4,1.7-0.4,2.6C538.5,227.4,538.7,228.3,538.9,229.1
		z"/>
	<path fill="#666666" d="M544.4,243.3v13.3H544v-13.3H544.4z"/>
	<path fill="#666666" d="M544.4,267v13.3H544V267H544.4z"/>
</g>
<g id="Layer_1_1_">
</g>
</svg>
