<svg version="1.1" xmlns="http://www.w3.org/2000/svg" id="Layer_1"  xmlns:xlink="http://www.w3.org/1999/xlink" x="0px" y="0px"
	 viewBox="-447.1 120.8 170.5 43.4" enable-background="new -447.1 120.8 170.5 43.4" xml:space="preserve">
<g id="bytes_x5F_LG">
	<g>
		<g>
			<defs>
				<rect id="SVGID_1_" x="-386.9" y="120.8" width="110.3" height="43.4"/>
			</defs>
			<clipPath id="SVGID_2_">
				<use xlink:href="#SVGID_1_"  overflow="visible"/>
			</clipPath>
			<path clip-path="url(#SVGID_2_)" fill="#B3B3B3" d="M-344.6,150.8c0.8-2.5,1.3-5.3,1.3-8.2c0-3-0.5-5.7-1.3-8.2
				c-0.8-2.5-2-4.7-3.5-6.5c-1.5-1.8-3.4-3.2-5.6-4.3c-2.2-1-4.7-1.5-7.5-1.5c-2.8,0-5.3,0.5-7.5,1.5c-2.2,1-4.1,2.4-5.6,4.3
				s-2.7,4-3.5,6.5c-0.8,2.5-1.3,5.3-1.3,8.2c0,3,0.5,5.7,1.3,8.2c0.8,2.5,2,4.7,3.5,6.5c1.5,1.8,3.4,3.2,5.6,4.3
				c2.2,1,4.7,1.5,7.5,1.5c2.8,0,5.3-0.5,7.5-1.5c2.2-1,4.1-2.4,5.6-4.3C-346.6,155.5-345.4,153.3-344.6,150.8 M-343.4,134.2
				c0.8,2.6,1.2,5.4,1.2,8.4c0,2.9-0.4,5.7-1.2,8.4c-0.8,2.6-2.1,4.9-3.7,6.9s-3.6,3.5-6,4.7c-2.4,1.1-5.1,1.7-8.2,1.7
				c-3.1,0-5.8-0.6-8.2-1.7c-2.4-1.1-4.4-2.7-6-4.7c-1.6-2-2.8-4.3-3.7-6.9c-0.8-2.6-1.2-5.4-1.2-8.4c0-2.9,0.4-5.7,1.2-8.4
				c0.8-2.6,2.1-4.9,3.7-6.9c1.6-2,3.6-3.5,6-4.7c2.4-1.2,5.1-1.7,8.2-1.7c3.1,0,5.8,0.6,8.2,1.7c2.4,1.2,4.4,2.7,6,4.7
				C-345.4,129.2-344.2,131.5-343.4,134.2 M-329,121.8h1.2v41.5h-1.2V121.8z M-279.1,150.8c0.8-2.5,1.3-5.3,1.3-8.2
				c0-3-0.5-5.7-1.3-8.2c-0.8-2.5-2-4.7-3.5-6.5c-1.5-1.8-3.4-3.2-5.6-4.3c-2.2-1-4.7-1.5-7.5-1.5c-2.8,0-5.3,0.5-7.5,1.5
				c-2.2,1-4.1,2.4-5.6,4.3s-2.7,4-3.5,6.5c-0.8,2.5-1.3,5.3-1.3,8.2c0,3,0.5,5.7,1.3,8.2c0.8,2.5,2,4.7,3.5,6.5
				c1.5,1.8,3.4,3.2,5.6,4.3c2.2,1,4.7,1.5,7.5,1.5c2.8,0,5.3-0.5,7.5-1.5c2.2-1,4.1-2.4,5.6-4.3
				C-281.1,155.5-279.9,153.3-279.1,150.8 M-277.8,134.2c0.8,2.6,1.2,5.4,1.2,8.4c0,2.9-0.4,5.7-1.2,8.4c-0.8,2.6-2.1,4.9-3.7,6.9
				c-1.6,2-3.6,3.5-6,4.7c-2.4,1.1-5.1,1.7-8.2,1.7c-3.1,0-5.8-0.6-8.2-1.7c-2.4-1.1-4.4-2.7-6-4.7c-1.6-2-2.8-4.3-3.7-6.9
				c-0.8-2.6-1.2-5.4-1.2-8.4c0-2.9,0.4-5.7,1.2-8.4c0.8-2.6,2.1-4.9,3.7-6.9c1.6-2,3.6-3.5,6-4.7c2.4-1.2,5.1-1.7,8.2-1.7
				c3.1,0,5.8,0.6,8.2,1.7c2.4,1.2,4.4,2.7,6,4.7C-279.9,129.2-278.7,131.5-277.8,134.2"/>
		</g>
		<g>
			<defs>
				<rect id="SVGID_3_" x="-386.9" y="120.8" width="110.3" height="43.4"/>
			</defs>
			<clipPath id="SVGID_4_">
				<use xlink:href="#SVGID_3_"  overflow="visible"/>
			</clipPath>
			<path clip-path="url(#SVGID_4_)" fill="#B3B3B3" d="M-461.5,150.8c0.8-2.5,1.3-5.3,1.3-8.2c0-3-0.5-5.7-1.3-8.2
				c-0.8-2.5-2-4.7-3.5-6.5c-1.5-1.8-3.4-3.2-5.6-4.3c-2.2-1-4.7-1.5-7.5-1.5c-2.8,0-5.3,0.5-7.5,1.5c-2.2,1-4.1,2.4-5.6,4.3
				s-2.7,4-3.5,6.5c-0.8,2.5-1.3,5.3-1.3,8.2c0,3,0.5,5.7,1.3,8.2c0.8,2.5,2,4.7,3.5,6.5c1.5,1.8,3.4,3.2,5.6,4.3
				c2.2,1,4.7,1.5,7.5,1.5c2.8,0,5.3-0.5,7.5-1.5c2.2-1,4.1-2.4,5.6-4.3C-463.5,155.5-462.4,153.3-461.5,150.8 M-460.3,134.2
				c0.8,2.6,1.2,5.4,1.2,8.4c0,2.9-0.4,5.7-1.2,8.4c-0.8,2.6-2.1,4.9-3.7,6.9c-1.6,2-3.6,3.5-6,4.7c-2.4,1.1-5.1,1.7-8.2,1.7
				c-3.1,0-5.8-0.6-8.2-1.7c-2.4-1.1-4.4-2.7-6-4.7c-1.6-2-2.8-4.3-3.7-6.9c-0.8-2.6-1.2-5.4-1.2-8.4c0-2.9,0.4-5.7,1.2-8.4
				c0.8-2.6,2.1-4.9,3.7-6.9c1.6-2,3.6-3.5,6-4.7c2.4-1.2,5.1-1.7,8.2-1.7c3.1,0,5.8,0.6,8.2,1.7c2.4,1.2,4.4,2.7,6,4.7
				C-462.4,129.2-461.1,131.5-460.3,134.2 M-445.9,121.8h1.2v41.5h-1.2V121.8z M-396,150.8c0.8-2.5,1.3-5.3,1.3-8.2
				c0-3-0.5-5.7-1.3-8.2c-0.8-2.5-2-4.7-3.5-6.5c-1.5-1.8-3.4-3.2-5.6-4.3c-2.2-1-4.7-1.5-7.5-1.5c-2.8,0-5.3,0.5-7.5,1.5
				c-2.2,1-4.1,2.4-5.6,4.3c-1.5,1.8-2.7,4-3.5,6.5c-0.8,2.5-1.3,5.3-1.3,8.2c0,3,0.5,5.7,1.3,8.2c0.8,2.5,2,4.7,3.5,6.5
				c1.5,1.8,3.4,3.2,5.6,4.3c2.2,1,4.7,1.5,7.5,1.5c2.8,0,5.3-0.5,7.5-1.5c2.2-1,4.1-2.4,5.6-4.3C-398,155.5-396.8,153.3-396,150.8
				 M-394.8,134.2c0.8,2.6,1.2,5.4,1.2,8.4c0,2.9-0.4,5.7-1.2,8.4c-0.8,2.6-2.1,4.9-3.7,6.9c-1.6,2-3.6,3.5-6,4.7
				c-2.4,1.1-5.1,1.7-8.2,1.7c-3.1,0-5.8-0.6-8.2-1.7c-2.4-1.1-4.4-2.7-6-4.7c-1.6-2-2.8-4.3-3.7-6.9c-0.8-2.6-1.2-5.4-1.2-8.4
				c0-2.9,0.4-5.7,1.2-8.4c0.8-2.6,2.1-4.9,3.7-6.9c1.6-2,3.6-3.5,6-4.7c2.4-1.2,5.1-1.7,8.2-1.7c3.1,0,5.8,0.6,8.2,1.7
				c2.4,1.2,4.4,2.7,6,4.7C-396.8,129.2-395.6,131.5-394.8,134.2"/>
		</g>
	</g>
	<g>
		<g>
			<defs>
				<rect id="SVGID_5_" x="-455" y="120.8" width="67.9" height="43.4"/>
			</defs>
			<clipPath id="SVGID_6_">
				<use xlink:href="#SVGID_5_"  overflow="visible"/>
			</clipPath>
			<path clip-path="url(#SVGID_6_)" fill="#B3B3B3" d="M-412.6,134.2c-0.8-2.5-2-4.7-3.5-6.5c-1.5-1.8-3.4-3.2-5.6-4.3
				c-2.2-1-4.7-1.5-7.5-1.5s-5.3,0.5-7.5,1.5c-2.2,1-4.1,2.4-5.6,4.3c-1.5,1.8-2.7,4-3.5,6.5c-0.8,2.5-1.3,5.3-1.3,8.2
				c0,3,0.5,5.7,1.3,8.2c0.8,2.5,2,4.7,3.5,6.5c1.5,1.8,3.4,3.2,5.6,4.3c2.2,1,4.7,1.5,7.5,1.5c2.8,0,5.3-0.5,7.5-1.5
				c2.2-1,4.1-2.4,5.6-4.3c1.5-1.8,2.7-4,3.5-6.5c0.8-2.5,1.3-5.3,1.3-8.2C-411.4,139.5-411.8,136.7-412.6,134.2 M-411.4,150.8
				c-0.8,2.6-2.1,4.9-3.7,6.9c-1.6,2-3.6,3.5-6,4.7c-2.4,1.2-5.1,1.7-8.2,1.7c-3.1,0-5.8-0.6-8.2-1.7c-2.4-1.2-4.4-2.7-6-4.7
				c-1.6-2-2.8-4.3-3.7-6.9c-0.8-2.6-1.2-5.4-1.2-8.4c0-2.9,0.4-5.7,1.2-8.4c0.8-2.6,2.1-4.9,3.7-6.9c1.6-2,3.6-3.5,6-4.7
				c2.4-1.1,5.1-1.7,8.2-1.7c3.1,0,5.8,0.6,8.2,1.7c2.4,1.1,4.4,2.7,6,4.7c1.6,2,2.8,4.3,3.7,6.9c0.8,2.6,1.2,5.4,1.2,8.4
				C-410.2,145.4-410.6,148.2-411.4,150.8 M-397,121.7h1.2v41.5h-1.2V121.7z M-347.1,134.2c-0.8-2.5-2-4.7-3.5-6.5
				c-1.5-1.8-3.4-3.2-5.6-4.3c-2.2-1-4.7-1.5-7.5-1.5c-2.8,0-5.3,0.5-7.5,1.5c-2.2,1-4.1,2.4-5.6,4.3c-1.5,1.8-2.7,4-3.5,6.5
				c-0.8,2.5-1.3,5.3-1.3,8.2c0,3,0.5,5.7,1.3,8.2c0.8,2.5,2,4.7,3.5,6.5s3.4,3.2,5.6,4.3c2.2,1,4.7,1.5,7.5,1.5
				c2.8,0,5.3-0.5,7.5-1.5c2.2-1,4.1-2.4,5.6-4.3c1.5-1.8,2.7-4,3.5-6.5c0.8-2.5,1.3-5.3,1.3-8.2
				C-345.8,139.5-346.3,136.7-347.1,134.2 M-345.9,150.8c-0.8,2.6-2.1,4.9-3.7,6.9c-1.6,2-3.6,3.5-6,4.7c-2.4,1.2-5.1,1.7-8.2,1.7
				c-3.1,0-5.8-0.6-8.2-1.7c-2.4-1.2-4.4-2.7-6-4.7c-1.6-2-2.8-4.3-3.7-6.9c-0.8-2.6-1.2-5.4-1.2-8.4c0-2.9,0.4-5.7,1.2-8.4
				c0.8-2.6,2.1-4.9,3.7-6.9c1.6-2,3.6-3.5,6-4.7c2.4-1.1,5.1-1.7,8.2-1.7c3.1,0,5.8,0.6,8.2,1.7c2.4,1.1,4.4,2.7,6,4.7
				c1.6,2,2.8,4.3,3.7,6.9c0.8,2.6,1.2,5.4,1.2,8.4C-344.6,145.4-345,148.2-345.9,150.8"/>
		</g>
	</g>
	<g>
		<g>
			<defs>
				<rect id="SVGID_7_" x="452.3" y="120.8" width="220.7" height="43.4"/>
			</defs>
			<clipPath id="SVGID_8_">
				<use xlink:href="#SVGID_7_"  overflow="visible"/>
			</clipPath>
			<path clip-path="url(#SVGID_8_)" fill="#B3B3B3" d="M520.3,150.8c0.8,2.5,2,4.7,3.5,6.5c1.5,1.8,3.4,3.2,5.6,4.3
				c2.2,1,4.7,1.5,7.5,1.5s5.3-0.5,7.5-1.5c2.2-1,4.1-2.4,5.6-4.3c1.5-1.8,2.7-4,3.5-6.5c0.8-2.5,1.3-5.3,1.3-8.2
				c0-3-0.5-5.7-1.3-8.2c-0.8-2.5-2-4.7-3.5-6.5s-3.4-3.2-5.6-4.3c-2.2-1-4.7-1.5-7.5-1.5s-5.3,0.5-7.5,1.5c-2.2,1-4.1,2.4-5.6,4.3
				c-1.5,1.8-2.7,4-3.5,6.5c-0.8,2.5-1.3,5.3-1.3,8.2C519,145.5,519.5,148.3,520.3,150.8 M519.1,134.2c0.8-2.6,2.1-4.9,3.7-6.9
				c1.6-2,3.6-3.5,6-4.7c2.4-1.2,5.1-1.7,8.2-1.7c3.1,0,5.8,0.6,8.2,1.7c2.4,1.2,4.4,2.7,6,4.7c1.6,2,2.8,4.3,3.7,6.9
				c0.8,2.6,1.2,5.4,1.2,8.4c0,2.9-0.4,5.7-1.2,8.4c-0.8,2.6-2.1,4.9-3.7,6.9s-3.6,3.5-6,4.7c-2.4,1.1-5.1,1.7-8.2,1.7
				c-3.1,0-5.8-0.6-8.2-1.7c-2.4-1.1-4.4-2.7-6-4.7s-2.8-4.3-3.7-6.9c-0.8-2.6-1.2-5.4-1.2-8.4C517.8,139.6,518.2,136.8,519.1,134.2
				 M504.7,163.3h-1.2v-41.5h1.2V163.3z M454.7,150.8c0.8,2.5,2,4.7,3.5,6.5c1.5,1.8,3.4,3.2,5.6,4.3c2.2,1,4.7,1.5,7.5,1.5
				s5.3-0.5,7.5-1.5c2.2-1,4.1-2.4,5.6-4.3c1.5-1.8,2.7-4,3.5-6.5c0.8-2.5,1.3-5.3,1.3-8.2c0-3-0.5-5.7-1.3-8.2
				c-0.8-2.5-2-4.7-3.5-6.5s-3.4-3.2-5.6-4.3c-2.2-1-4.7-1.5-7.5-1.5s-5.3,0.5-7.5,1.5c-2.2,1-4.1,2.4-5.6,4.3
				c-1.5,1.8-2.7,4-3.5,6.5c-0.8,2.5-1.3,5.3-1.3,8.2C453.5,145.5,453.9,148.3,454.7,150.8 M453.5,134.2c0.8-2.6,2.1-4.9,3.7-6.9
				c1.6-2,3.6-3.5,6-4.7c2.4-1.2,5.1-1.7,8.2-1.7c3.1,0,5.8,0.6,8.2,1.7c2.4,1.2,4.4,2.7,6,4.7c1.6,2,2.8,4.3,3.7,6.9
				c0.8,2.6,1.2,5.4,1.2,8.4c0,2.9-0.4,5.7-1.2,8.4c-0.8,2.6-2.1,4.9-3.7,6.9c-1.6,2-3.6,3.5-6,4.7c-2.4,1.1-5.1,1.7-8.2,1.7
				c-3.1,0-5.8-0.6-8.2-1.7c-2.4-1.1-4.4-2.7-6-4.7c-1.6-2-2.8-4.3-3.7-6.9c-0.8-2.6-1.2-5.4-1.2-8.4
				C452.3,139.6,452.7,136.8,453.5,134.2"/>
		</g>
		<g>
			<defs>
				<rect id="SVGID_9_" x="452.3" y="120.8" width="220.7" height="43.4"/>
			</defs>
			<clipPath id="SVGID_10_">
				<use xlink:href="#SVGID_9_"  overflow="visible"/>
			</clipPath>
			<path clip-path="url(#SVGID_10_)" fill="#B3B3B3" d="M637.2,150.8c0.8,2.5,2,4.7,3.5,6.5c1.5,1.8,3.4,3.2,5.6,4.3
				c2.2,1,4.7,1.5,7.5,1.5s5.3-0.5,7.5-1.5c2.2-1,4.1-2.4,5.6-4.3c1.5-1.8,2.7-4,3.5-6.5c0.8-2.5,1.3-5.3,1.3-8.2
				c0-3-0.5-5.7-1.3-8.2c-0.8-2.5-2-4.7-3.5-6.5s-3.4-3.2-5.6-4.3c-2.2-1-4.7-1.5-7.5-1.5s-5.3,0.5-7.5,1.5c-2.2,1-4.1,2.4-5.6,4.3
				c-1.5,1.8-2.7,4-3.5,6.5c-0.8,2.5-1.3,5.3-1.3,8.2C635.9,145.5,636.4,148.3,637.2,150.8 M636,134.2c0.8-2.6,2.1-4.9,3.7-6.9
				c1.6-2,3.6-3.5,6-4.7c2.4-1.2,5.1-1.7,8.2-1.7c3.1,0,5.8,0.6,8.2,1.7c2.4,1.2,4.4,2.7,6,4.7c1.6,2,2.8,4.3,3.7,6.9
				c0.8,2.6,1.2,5.4,1.2,8.4c0,2.9-0.4,5.7-1.2,8.4c-0.8,2.6-2.1,4.9-3.7,6.9s-3.6,3.5-6,4.7c-2.4,1.1-5.1,1.7-8.2,1.7
				c-3.1,0-5.8-0.6-8.2-1.7c-2.4-1.1-4.4-2.7-6-4.7s-2.8-4.3-3.7-6.9c-0.8-2.6-1.2-5.4-1.2-8.4C634.7,139.6,635.2,136.8,636,134.2
				 M621.6,163.3h-1.2v-41.5h1.2V163.3z M571.7,150.8c0.8,2.5,2,4.7,3.5,6.5c1.5,1.8,3.4,3.2,5.6,4.3c2.2,1,4.7,1.5,7.5,1.5
				s5.3-0.5,7.5-1.5c2.2-1,4.1-2.4,5.6-4.3c1.5-1.8,2.7-4,3.5-6.5c0.8-2.5,1.3-5.3,1.3-8.2c0-3-0.5-5.7-1.3-8.2
				c-0.8-2.5-2-4.7-3.5-6.5c-1.5-1.8-3.4-3.2-5.6-4.3c-2.2-1-4.7-1.5-7.5-1.5s-5.3,0.5-7.5,1.5c-2.2,1-4.1,2.4-5.6,4.3
				c-1.5,1.8-2.7,4-3.5,6.5c-0.8,2.5-1.3,5.3-1.3,8.2C570.4,145.5,570.8,148.3,571.7,150.8 M570.5,134.2c0.8-2.6,2.1-4.9,3.7-6.9
				c1.6-2,3.6-3.5,6-4.7c2.4-1.2,5.1-1.7,8.2-1.7c3.1,0,5.8,0.6,8.2,1.7c2.4,1.2,4.4,2.7,6,4.7c1.6,2,2.8,4.3,3.7,6.9
				c0.8,2.6,1.2,5.4,1.2,8.4c0,2.9-0.4,5.7-1.2,8.4c-0.8,2.6-2.1,4.9-3.7,6.9c-1.6,2-3.6,3.5-6,4.7c-2.4,1.1-5.1,1.7-8.2,1.7
				c-3.1,0-5.8-0.6-8.2-1.7c-2.4-1.1-4.4-2.7-6-4.7c-1.6-2-2.8-4.3-3.7-6.9c-0.8-2.6-1.2-5.4-1.2-8.4
				C569.2,139.6,569.6,136.8,570.5,134.2"/>
		</g>
	</g>
</g>
<g id="Layer_1_1_">
</g>
</svg>
