<?xml version="1.0" encoding="utf-8"?>
<!-- Generator: Adobe Illustrator 18.1.0, SVG Export Plug-In . SVG Version: 6.00 Build 0)  -->
<svg version="1.1" id="Layer_1" xmlns="http://www.w3.org/2000/svg" xmlns:xlink="http://www.w3.org/1999/xlink" x="0px" y="0px"
	 width="272.6px" height="53.6px" viewBox="0 150.4 272.6 53.6" enable-background="new 0 150.4 272.6 53.6" xml:space="preserve">
<g>
	<g>
		<g>
			<g>
				<defs>
					<rect id="SVGID_1_" x="0.2" y="150.4" width="272.6" height="53.6"/>
				</defs>
				<clipPath id="SVGID_2_">
					<use xlink:href="#SVGID_1_"  overflow="visible"/>
				</clipPath>
				<path clip-path="url(#SVGID_2_)" fill="#B3B3B3" d="M84.2,187.5c1,3.1,2.5,5.8,4.3,8c1.9,2.2,4.2,4,6.9,5.3
					c2.7,1.2,5.8,1.9,9.3,1.9s6.5-0.6,9.3-1.9c2.7-1.2,5.1-3,6.9-5.3c1.9-2.2,3.3-4.9,4.3-8s1.6-6.5,1.6-10.1c0-3.7-0.6-7-1.6-10.1
					s-2.5-5.8-4.3-8c-1.9-2.2-4.2-4-6.9-5.3c-2.7-1.2-5.8-1.9-9.3-1.9s-6.5,0.6-9.3,1.9c-2.7,1.2-5.1,3-6.9,5.3
					c-1.9,2.2-3.3,4.9-4.3,8s-1.6,6.5-1.6,10.1S83.2,184.4,84.2,187.5 M82.7,166.9c1-3.2,2.6-6.1,4.6-8.5c2-2.5,4.4-4.3,7.4-5.8
					s6.3-2.1,10.1-2.1c3.8,0,7.2,0.7,10.1,2.1c3,1.5,5.4,3.3,7.4,5.8s3.5,5.3,4.6,8.5c1,3.2,1.5,6.7,1.5,10.4c0,3.6-0.5,7-1.5,10.4
					c-1,3.2-2.6,6.1-4.6,8.5c-2,2.5-4.4,4.3-7.4,5.8c-3,1.4-6.3,2.1-10.1,2.1c-3.8,0-7.2-0.7-10.1-2.1c-3-1.4-5.4-3.3-7.4-5.8
					s-3.5-5.3-4.6-8.5c-1-3.2-1.5-6.7-1.5-10.4C81.1,173.6,81.6,170.2,82.7,166.9 M64.9,202.9h-1.5v-51.3h1.5V202.9z M3.2,187.5
					c1,3.1,2.5,5.8,4.3,8c1.9,2.2,4.2,4,6.9,5.3c2.7,1.2,5.8,1.9,9.3,1.9s6.5-0.6,9.3-1.9s5.1-3,6.9-5.3c1.9-2.2,3.3-4.9,4.3-8
					s1.6-6.5,1.6-10.1c0-3.7-0.6-7-1.6-10.1s-2.5-5.8-4.3-8s-4.2-4-6.9-5.3c-2.7-1.2-5.8-1.9-9.3-1.9s-6.5,0.6-9.3,1.9
					s-5.1,3-6.9,5.3c-1.9,2.2-3.3,4.9-4.3,8s-1.6,6.5-1.6,10.1C1.7,180.9,2.2,184.4,3.2,187.5 M1.7,166.9c1-3.2,2.6-6.1,4.6-8.5
					c2-2.5,4.4-4.3,7.4-5.8s6.3-2.1,10.1-2.1s7.2,0.7,10.1,2.1c3,1.5,5.4,3.3,7.4,5.8s3.5,5.3,4.6,8.5c1,3.2,1.5,6.7,1.5,10.4
					c0,3.6-0.5,7-1.5,10.4c-1,3.2-2.6,6.1-4.6,8.5c-2,2.5-4.4,4.3-7.4,5.8c-3,1.4-6.3,2.1-10.1,2.1s-7.2-0.7-10.1-2.1
					c-3-1.4-5.4-3.3-7.4-5.8s-3.5-5.3-4.6-8.5c-1-3.2-1.5-6.7-1.5-10.4C0.2,173.6,0.7,170.2,1.7,166.9"/>
			</g>
		</g>
	</g>
	<g>
		<g>
			<g>
				<defs>
					<rect id="SVGID_3_" x="0.2" y="150.4" width="272.6" height="53.6"/>
				</defs>
				<clipPath id="SVGID_4_">
					<use xlink:href="#SVGID_3_"  overflow="visible"/>
				</clipPath>
				<path clip-path="url(#SVGID_4_)" fill="#B3B3B3" d="M228.6,187.5c1,3.1,2.5,5.8,4.3,8c1.9,2.2,4.2,4,6.9,5.3
					c2.7,1.2,5.8,1.9,9.3,1.9s6.5-0.6,9.3-1.9c2.7-1.2,5.1-3,6.9-5.3c1.9-2.2,3.3-4.9,4.3-8s1.6-6.5,1.6-10.1c0-3.7-0.6-7-1.6-10.1
					s-2.5-5.8-4.3-8c-1.9-2.2-4.2-4-6.9-5.3c-2.7-1.2-5.8-1.9-9.3-1.9s-6.5,0.6-9.3,1.9c-2.7,1.2-5.1,3-6.9,5.3
					c-1.9,2.2-3.3,4.9-4.3,8s-1.6,6.5-1.6,10.1C227,180.9,227.6,184.4,228.6,187.5 M227.1,166.9c1-3.2,2.6-6.1,4.6-8.5
					c2-2.5,4.4-4.3,7.4-5.8s6.3-2.1,10.1-2.1s7.2,0.7,10.1,2.1c3,1.5,5.4,3.3,7.4,5.8s3.5,5.3,4.6,8.5c1,3.2,1.5,6.7,1.5,10.4
					c0,3.6-0.5,7-1.5,10.4c-1,3.2-2.6,6.1-4.6,8.5s-4.4,4.3-7.4,5.8c-3,1.4-6.3,2.1-10.1,2.1s-7.2-0.7-10.1-2.1
					c-3-1.4-5.4-3.3-7.4-5.8s-3.5-5.3-4.6-8.5c-1-3.2-1.5-6.7-1.5-10.4C225.5,173.6,226.1,170.2,227.1,166.9 M209.3,202.9h-1.5
					v-51.3h1.5V202.9z M147.7,187.5c1,3.1,2.5,5.8,4.3,8c1.9,2.2,4.2,4,6.9,5.3c2.7,1.2,5.8,1.9,9.3,1.9s6.5-0.6,9.3-1.9
					s5.1-3,6.9-5.3c1.9-2.2,3.3-4.9,4.3-8s1.6-6.5,1.6-10.1c0-3.7-0.6-7-1.6-10.1s-2.5-5.8-4.3-8c-1.9-2.2-4.2-4-6.9-5.3
					c-2.7-1.2-5.8-1.9-9.3-1.9s-6.5,0.6-9.3,1.9s-5.1,3-6.9,5.3c-1.9,2.2-3.3,4.9-4.3,8s-1.6,6.5-1.6,10.1
					C146.1,180.9,146.6,184.4,147.7,187.5 M146.2,166.9c1-3.2,2.6-6.1,4.6-8.5c2-2.5,4.4-4.3,7.4-5.8s6.3-2.1,10.1-2.1
					s7.2,0.7,10.1,2.1c3,1.5,5.4,3.3,7.4,5.8s3.5,5.3,4.6,8.5c1,3.2,1.5,6.7,1.5,10.4c0,3.6-0.5,7-1.5,10.4c-1,3.2-2.6,6.1-4.6,8.5
					c-2,2.5-4.4,4.3-7.4,5.8c-3,1.4-6.3,2.1-10.1,2.1s-7.2-0.7-10.1-2.1c-3-1.4-5.4-3.3-7.4-5.8s-3.5-5.3-4.6-8.5
					c-1-3.2-1.5-6.7-1.5-10.4C144.6,173.6,145.1,170.2,146.2,166.9"/>
			</g>
		</g>
	</g>
</g>
<g id="Layer_1_1_">
</g>
</svg>
