<svg version="1.1" xmlns="http://www.w3.org/2000/svg" xmlns:xlink="http://www.w3.org/1999/xlink" x="0px" y="0px"
	 viewBox="0 0 1024 43.371" style="enable-background:new 0 0 1024 43.371;" xml:space="preserve">
<g id="bytes_x5F_LG">
	<g>
		<defs>
			<rect id="SVGID_1_" x="36.071" y="0" width="110.337" height="43.37"/>
		</defs>
		<clipPath id="SVGID_2_">
			<use xlink:href="#SVGID_1_"  style="overflow:visible;"/>
		</clipPath>
		<path style="clip-path:url(#SVGID_2_);fill:#B3B3B3;" d="M78.392,29.959c0.833-2.516,1.268-5.264,1.306-8.244
			c-0.038-2.981-0.473-5.728-1.306-8.245c-0.832-2.515-2.012-4.683-3.542-6.502c-1.528-1.819-3.396-3.242-5.602-4.268
			c-2.206-1.025-4.703-1.538-7.49-1.538c-2.787,0-5.283,0.513-7.489,1.538c-2.207,1.026-4.074,2.449-5.603,4.268
			c-1.529,1.819-2.709,3.987-3.542,6.502c-0.832,2.517-1.267,5.264-1.306,8.245c0.039,2.98,0.474,5.728,1.306,8.244
			c0.833,2.516,2.013,4.684,3.542,6.502c1.529,1.82,3.396,3.243,5.603,4.268c2.206,1.026,4.702,1.538,7.489,1.538
			c2.787,0,5.284-0.512,7.49-1.538c2.206-1.025,4.074-2.448,5.602-4.268C76.38,34.643,77.56,32.475,78.392,29.959 M79.611,13.354
			c0.833,2.633,1.249,5.419,1.249,8.361c0,2.941-0.416,5.728-1.249,8.36c-0.832,2.633-2.051,4.935-3.657,6.909
			c-1.606,1.974-3.6,3.533-5.98,4.674c-2.381,1.141-5.119,1.713-8.216,1.713c-3.096,0-5.835-0.572-8.215-1.713
			c-2.381-1.141-4.374-2.7-5.98-4.674s-2.825-4.276-3.658-6.909c-0.832-2.632-1.248-5.419-1.248-8.36
			c0-2.942,0.416-5.728,1.248-8.361c0.833-2.632,2.052-4.935,3.658-6.909s3.599-3.542,5.98-4.703C55.923,0.581,58.662,0,61.758,0
			c3.097,0,5.835,0.581,8.216,1.742c2.38,1.161,4.374,2.729,5.98,4.703C77.56,8.419,78.779,10.722,79.611,13.354 M93.98,0.988h1.161
			v41.454H93.98L93.98,0.988z M143.94,29.959c0.833-2.516,1.268-5.264,1.306-8.244c-0.038-2.981-0.473-5.728-1.306-8.245
			c-0.832-2.515-2.012-4.683-3.542-6.502c-1.528-1.819-3.396-3.242-5.603-4.268c-2.206-1.025-4.702-1.538-7.489-1.538
			s-5.284,0.513-7.49,1.538c-2.206,1.026-4.073,2.449-5.602,4.268s-2.709,3.987-3.542,6.502c-0.832,2.517-1.267,5.264-1.306,8.245
			c0.039,2.98,0.474,5.728,1.306,8.244c0.833,2.516,2.013,4.684,3.542,6.502c1.529,1.82,3.396,3.243,5.602,4.268
			c2.206,1.026,4.703,1.538,7.49,1.538c2.787,0,5.283-0.512,7.489-1.538c2.207-1.025,4.075-2.448,5.603-4.268
			C141.928,34.643,143.108,32.475,143.94,29.959 M145.159,13.354c0.833,2.633,1.248,5.419,1.248,8.361
			c0,2.941-0.415,5.728-1.248,8.36c-0.832,2.633-2.051,4.935-3.658,6.909c-1.605,1.974-3.599,3.533-5.98,4.674
			c-2.38,1.141-5.118,1.713-8.215,1.713c-3.096,0-5.835-0.572-8.215-1.713c-2.381-1.141-4.374-2.7-5.981-4.674
			c-1.605-1.974-2.825-4.276-3.657-6.909c-0.832-2.632-1.249-5.419-1.249-8.36c0-2.942,0.417-5.728,1.249-8.361
			c0.832-2.632,2.052-4.935,3.657-6.909c1.607-1.974,3.6-3.542,5.981-4.703C121.471,0.581,124.21,0,127.306,0
			c3.097,0,5.835,0.581,8.215,1.742c2.381,1.161,4.375,2.729,5.98,4.703C143.108,8.419,144.327,10.722,145.159,13.354"/>
		<path style="clip-path:url(#SVGID_2_);fill:#B3B3B3;" d="M-38.53,29.959c0.833-2.516,1.268-5.264,1.306-8.244
			c-0.038-2.981-0.473-5.728-1.306-8.245c-0.832-2.515-2.012-4.683-3.542-6.502C-43.6,5.149-45.468,3.726-47.674,2.7
			c-2.206-1.025-4.703-1.538-7.49-1.538s-5.283,0.513-7.489,1.538c-2.207,1.026-4.074,2.449-5.603,4.268
			c-1.529,1.819-2.709,3.987-3.542,6.502c-0.832,2.517-1.267,5.264-1.306,8.245c0.039,2.98,0.474,5.728,1.306,8.244
			c0.833,2.516,2.013,4.684,3.542,6.502c1.529,1.82,3.396,3.243,5.603,4.268c2.206,1.026,4.702,1.538,7.489,1.538
			s5.284-0.512,7.49-1.538c2.206-1.025,4.074-2.448,5.602-4.268C-40.542,34.643-39.362,32.475-38.53,29.959 M-37.311,13.354
			c0.833,2.633,1.249,5.419,1.249,8.361c0,2.941-0.416,5.728-1.249,8.36c-0.832,2.633-2.051,4.935-3.657,6.909
			s-3.6,3.533-5.98,4.674c-2.381,1.141-5.119,1.713-8.216,1.713c-3.096,0-5.835-0.572-8.215-1.713
			c-2.381-1.141-4.374-2.7-5.98-4.674s-2.825-4.276-3.658-6.909c-0.832-2.632-1.248-5.419-1.248-8.36
			c0-2.942,0.416-5.728,1.248-8.361c0.833-2.632,2.052-4.935,3.658-6.909s3.599-3.542,5.98-4.703C-60.999,0.581-58.26,0-55.164,0
			c3.097,0,5.835,0.581,8.216,1.742c2.38,1.161,4.374,2.729,5.98,4.703S-38.143,10.722-37.311,13.354 M-22.942,0.988h1.161v41.454
			h-1.161V0.988z M27.018,29.959c0.833-2.516,1.268-5.264,1.306-8.244c-0.038-2.981-0.473-5.728-1.306-8.245
			c-0.832-2.515-2.012-4.683-3.542-6.502C21.948,5.149,20.08,3.726,17.873,2.7c-2.206-1.025-4.702-1.538-7.489-1.538
			S5.1,1.675,2.894,2.7C0.688,3.726-1.179,5.149-2.708,6.968c-1.529,1.819-2.709,3.987-3.542,6.502
			c-0.832,2.517-1.267,5.264-1.306,8.245c0.039,2.98,0.474,5.728,1.306,8.244c0.833,2.516,2.013,4.684,3.542,6.502
			c1.529,1.82,3.396,3.243,5.602,4.268c2.206,1.026,4.703,1.538,7.49,1.538s5.283-0.512,7.489-1.538
			c2.207-1.025,4.075-2.448,5.603-4.268C25.006,34.643,26.186,32.475,27.018,29.959 M28.237,13.354
			c0.833,2.633,1.248,5.419,1.248,8.361c0,2.941-0.415,5.728-1.248,8.36c-0.832,2.633-2.051,4.935-3.658,6.909
			c-1.605,1.974-3.599,3.533-5.98,4.674c-2.38,1.141-5.118,1.713-8.215,1.713c-3.096,0-5.835-0.572-8.215-1.713
			c-2.381-1.141-4.374-2.7-5.981-4.674c-1.605-1.974-2.825-4.276-3.657-6.909c-0.832-2.632-1.249-5.419-1.249-8.36
			c0-2.942,0.417-5.728,1.249-8.361c0.832-2.632,2.052-4.935,3.657-6.909c1.607-1.974,3.6-3.542,5.981-4.703
			C4.549,0.581,7.288,0,10.384,0c3.097,0,5.835,0.581,8.215,1.742c2.381,1.161,4.375,2.729,5.98,4.703
			C26.186,8.419,27.405,10.722,28.237,13.354"/>
	</g>
	<g>
		<defs>
			<rect id="SVGID_3_" x="-31.953" y="0" width="67.909" height="43.37"/>
		</defs>
		<clipPath id="SVGID_4_">
			<use xlink:href="#SVGID_3_"  style="overflow:visible;"/>
		</clipPath>
		<path style="clip-path:url(#SVGID_4_);fill:#B3B3B3;" d="M10.368,13.412C9.536,10.896,8.356,8.728,6.826,6.91
			C5.298,5.09,3.43,3.667,1.224,2.642c-2.206-1.026-4.703-1.538-7.49-1.538s-5.283,0.512-7.489,1.538
			c-2.207,1.025-4.074,2.448-5.603,4.268c-1.529,1.818-2.709,3.986-3.542,6.502c-0.832,2.516-1.267,5.264-1.306,8.244
			c0.039,2.981,0.474,5.728,1.306,8.245c0.833,2.515,2.013,4.683,3.542,6.502c1.529,1.819,3.396,3.242,5.603,4.268
			c2.206,1.025,4.702,1.538,7.489,1.538s5.284-0.513,7.49-1.538c2.206-1.026,4.074-2.449,5.602-4.268
			c1.53-1.819,2.71-3.987,3.542-6.502c0.833-2.517,1.268-5.264,1.306-8.245C11.636,18.676,11.201,15.928,10.368,13.412
			 M11.587,30.017c-0.832,2.632-2.051,4.935-3.657,6.909c-1.606,1.974-3.6,3.542-5.98,4.703c-2.381,1.161-5.119,1.742-8.216,1.742
			c-3.096,0-5.835-0.581-8.215-1.742c-2.381-1.161-4.374-2.729-5.98-4.703s-2.825-4.277-3.658-6.909
			c-0.832-2.633-1.248-5.419-1.248-8.361c0-2.941,0.416-5.728,1.248-8.36c0.833-2.633,2.052-4.935,3.658-6.909
			s3.599-3.533,5.98-4.674C-12.101,0.572-9.362,0-6.266,0c3.097,0,5.835,0.572,8.216,1.713c2.38,1.141,4.374,2.7,5.98,4.674
			c1.606,1.974,2.825,4.276,3.657,6.909c0.833,2.632,1.249,5.419,1.249,8.36C12.836,24.598,12.42,27.384,11.587,30.017
			 M25.956,0.929h1.161v41.454h-1.161V0.929z M75.916,13.412c-0.832-2.516-2.012-4.684-3.542-6.502
			c-1.528-1.82-3.396-3.243-5.603-4.268c-2.206-1.026-4.702-1.538-7.489-1.538c-2.787,0-5.284,0.512-7.49,1.538
			C49.586,3.667,47.719,5.09,46.19,6.91c-1.529,1.818-2.709,3.986-3.542,6.502c-0.832,2.516-1.267,5.264-1.306,8.244
			c0.039,2.981,0.474,5.728,1.306,8.245c0.833,2.515,2.013,4.683,3.542,6.502s3.396,3.242,5.602,4.268
			c2.206,1.025,4.703,1.538,7.49,1.538c2.787,0,5.283-0.513,7.489-1.538c2.207-1.026,4.075-2.449,5.603-4.268
			c1.53-1.819,2.71-3.987,3.542-6.502c0.833-2.517,1.268-5.264,1.306-8.245C77.184,18.676,76.749,15.928,75.916,13.412
			 M77.135,30.017c-0.832,2.632-2.051,4.935-3.658,6.909c-1.605,1.974-3.599,3.542-5.98,4.703c-2.38,1.161-5.118,1.742-8.215,1.742
			c-3.096,0-5.835-0.581-8.215-1.742c-2.381-1.161-4.374-2.729-5.981-4.703c-1.605-1.974-2.825-4.277-3.657-6.909
			c-0.832-2.633-1.249-5.419-1.249-8.361c0-2.941,0.417-5.728,1.249-8.36c0.832-2.633,2.052-4.935,3.657-6.909
			c1.607-1.974,3.6-3.533,5.981-4.674C53.447,0.572,56.186,0,59.282,0c3.097,0,5.835,0.572,8.215,1.713
			c2.381,1.141,4.375,2.7,5.98,4.674c1.607,1.974,2.826,4.276,3.658,6.909c0.833,2.632,1.248,5.419,1.248,8.36
			C78.383,24.598,77.968,27.384,77.135,30.017"/>
	</g>
	<g>
		<defs>
			<rect id="SVGID_5_" x="875.279" y="0" width="220.673" height="43.37"/>
		</defs>
		<clipPath id="SVGID_6_">
			<use xlink:href="#SVGID_5_"  style="overflow:visible;"/>
		</clipPath>
		<path style="clip-path:url(#SVGID_6_);fill:#B3B3B3;" d="M943.294,29.959c0.832,2.516,2.012,4.684,3.542,6.502
			c1.528,1.82,3.396,3.243,5.602,4.268c2.206,1.026,4.703,1.538,7.49,1.538c2.787,0,5.283-0.512,7.489-1.538
			c2.207-1.025,4.074-2.448,5.603-4.268c1.529-1.818,2.709-3.986,3.542-6.502c0.832-2.516,1.267-5.264,1.306-8.244
			c-0.039-2.981-0.474-5.728-1.306-8.245c-0.833-2.515-2.013-4.683-3.542-6.502c-1.529-1.819-3.396-3.242-5.603-4.268
			c-2.206-1.025-4.702-1.538-7.489-1.538c-2.787,0-5.284,0.513-7.49,1.538c-2.206,1.026-4.074,2.449-5.602,4.268
			c-1.53,1.819-2.71,3.987-3.542,6.502c-0.833,2.517-1.268,5.264-1.306,8.245C942.026,24.695,942.461,27.443,943.294,29.959
			 M942.075,13.354c0.832-2.632,2.051-4.935,3.657-6.909s3.6-3.542,5.98-4.703C954.093,0.581,956.831,0,959.928,0
			c3.096,0,5.835,0.581,8.215,1.742c2.381,1.161,4.374,2.729,5.98,4.703s2.825,4.277,3.658,6.909
			c0.832,2.633,1.248,5.419,1.248,8.361c0,2.941-0.416,5.728-1.248,8.36c-0.833,2.633-2.052,4.935-3.658,6.909
			s-3.599,3.533-5.98,4.674c-2.38,1.141-5.119,1.713-8.215,1.713c-3.097,0-5.835-0.572-8.216-1.713
			c-2.38-1.141-4.374-2.7-5.98-4.674s-2.825-4.276-3.657-6.909c-0.833-2.632-1.249-5.419-1.249-8.36
			C940.826,18.773,941.242,15.987,942.075,13.354 M927.706,42.442h-1.161V0.988h1.161V42.442z M877.746,29.959
			c0.832,2.516,2.012,4.684,3.542,6.502c1.528,1.82,3.396,3.243,5.603,4.268c2.206,1.026,4.702,1.538,7.489,1.538
			s5.284-0.512,7.49-1.538c2.206-1.025,4.073-2.448,5.602-4.268c1.529-1.818,2.709-3.986,3.542-6.502
			c0.832-2.516,1.267-5.264,1.306-8.244c-0.039-2.981-0.474-5.728-1.306-8.245c-0.833-2.515-2.013-4.683-3.542-6.502
			s-3.396-3.242-5.602-4.268c-2.206-1.025-4.703-1.538-7.49-1.538s-5.283,0.513-7.489,1.538c-2.207,1.026-4.075,2.449-5.603,4.268
			c-1.53,1.819-2.71,3.987-3.542,6.502c-0.833,2.517-1.268,5.264-1.306,8.245C876.478,24.695,876.913,27.443,877.746,29.959
			 M876.527,13.354c0.832-2.632,2.051-4.935,3.658-6.909c1.605-1.974,3.599-3.542,5.98-4.703C888.545,0.581,891.283,0,894.38,0
			c3.096,0,5.835,0.581,8.215,1.742c2.381,1.161,4.374,2.729,5.981,4.703c1.605,1.974,2.825,4.277,3.657,6.909
			c0.832,2.633,1.249,5.419,1.249,8.361c0,2.941-0.417,5.728-1.249,8.36c-0.832,2.633-2.052,4.935-3.657,6.909
			c-1.607,1.974-3.6,3.533-5.981,4.674c-2.38,1.141-5.119,1.713-8.215,1.713c-3.097,0-5.835-0.572-8.215-1.713
			c-2.381-1.141-4.375-2.7-5.98-4.674c-1.607-1.974-2.826-4.276-3.658-6.909c-0.833-2.632-1.248-5.419-1.248-8.36
			C875.279,18.773,875.694,15.987,876.527,13.354"/>
		<path style="clip-path:url(#SVGID_6_);fill:#B3B3B3;" d="M1060.217,29.959c0.832,2.516,2.012,4.684,3.542,6.502
			c1.528,1.82,3.396,3.243,5.602,4.268c2.206,1.026,4.703,1.538,7.49,1.538s5.283-0.512,7.489-1.538
			c2.207-1.025,4.074-2.448,5.603-4.268c1.529-1.818,2.709-3.986,3.542-6.502c0.832-2.516,1.267-5.264,1.306-8.244
			c-0.039-2.981-0.474-5.728-1.306-8.245c-0.833-2.515-2.013-4.683-3.542-6.502c-1.529-1.819-3.396-3.242-5.603-4.268
			c-2.206-1.025-4.702-1.538-7.489-1.538s-5.284,0.513-7.49,1.538c-2.206,1.026-4.074,2.449-5.602,4.268
			c-1.53,1.819-2.71,3.987-3.542,6.502c-0.833,2.517-1.268,5.264-1.306,8.245C1058.949,24.695,1059.384,27.443,1060.217,29.959
			 M1058.998,13.354c0.832-2.632,2.051-4.935,3.657-6.909s3.6-3.542,5.98-4.703c2.381-1.161,5.119-1.742,8.216-1.742
			c3.096,0,5.835,0.581,8.215,1.742c2.381,1.161,4.374,2.729,5.98,4.703c1.606,1.974,2.825,4.277,3.658,6.909
			c0.832,2.633,1.248,5.419,1.248,8.361c0,2.941-0.416,5.728-1.248,8.36c-0.833,2.633-2.052,4.935-3.658,6.909
			c-1.606,1.974-3.599,3.533-5.98,4.674c-2.38,1.141-5.119,1.713-8.215,1.713c-3.097,0-5.835-0.572-8.216-1.713
			c-2.38-1.141-4.374-2.7-5.98-4.674s-2.825-4.276-3.657-6.909c-0.833-2.632-1.249-5.419-1.249-8.36
			C1057.749,18.773,1058.165,15.987,1058.998,13.354 M1044.629,42.442h-1.161V0.988h1.161V42.442z M994.669,29.959
			c0.832,2.516,2.012,4.684,3.542,6.502c1.528,1.82,3.396,3.243,5.603,4.268c2.206,1.026,4.702,1.538,7.489,1.538
			s5.284-0.512,7.49-1.538c2.206-1.025,4.073-2.448,5.602-4.268c1.529-1.818,2.709-3.986,3.542-6.502
			c0.832-2.516,1.267-5.264,1.306-8.244c-0.039-2.981-0.474-5.728-1.306-8.245c-0.833-2.515-2.013-4.683-3.542-6.502
			c-1.529-1.819-3.396-3.242-5.602-4.268c-2.206-1.025-4.703-1.538-7.49-1.538s-5.283,0.513-7.489,1.538
			c-2.207,1.026-4.075,2.449-5.603,4.268c-1.53,1.819-2.71,3.987-3.542,6.502c-0.833,2.517-1.268,5.264-1.306,8.245
			C993.401,24.695,993.836,27.443,994.669,29.959 M993.45,13.354c0.832-2.632,2.051-4.935,3.658-6.909
			c1.605-1.974,3.599-3.542,5.98-4.703c2.38-1.161,5.118-1.742,8.215-1.742c3.096,0,5.835,0.581,8.215,1.742
			c2.381,1.161,4.374,2.729,5.981,4.703c1.605,1.974,2.825,4.277,3.657,6.909c0.832,2.633,1.249,5.419,1.249,8.361
			c0,2.941-0.417,5.728-1.249,8.36c-0.832,2.633-2.052,4.935-3.657,6.909c-1.607,1.974-3.6,3.533-5.981,4.674
			c-2.38,1.141-5.119,1.713-8.215,1.713c-3.097,0-5.835-0.572-8.215-1.713c-2.381-1.141-4.375-2.7-5.98-4.674
			c-1.607-1.974-2.826-4.276-3.658-6.909c-0.833-2.632-1.248-5.419-1.248-8.36C992.202,18.773,992.617,15.987,993.45,13.354"/>
	</g>
</g>
<g id="Layer_1">
</g>
</svg>
