<?xml version="1.0" encoding="utf-8"?>
<!-- Generator: Adobe Illustrator 18.1.0, SVG Export Plug-In . SVG Version: 6.00 Build 0)  -->
<svg version="1.1" id="Layer_1" xmlns="http://www.w3.org/2000/svg" xmlns:xlink="http://www.w3.org/1999/xlink" x="0px" y="0px"
	 width="531px" height="628px" viewBox="130 -138 531 628" enable-background="new 130 -138 531 628" xml:space="preserve">
<polygon fill="#CCCCCC" points="470,306 468.7,306 468.7,235.2 450.8,215.1 450.8,157.4 452,157.4 452,214.6 470,234.6 "/>
<path fill="#CCCCCC" d="M451.4,160.3c1.4,0,2.5-1.2,2.5-2.8s-1.1-2.8-2.5-2.8s-2.5,1.2-2.5,2.8C448.9,159,450,160.3,451.4,160.3"/>
<path fill="#CCCCCC" d="M469.3,308.8c1.4,0,2.5-1.2,2.5-2.8s-1.1-2.8-2.5-2.8s-2.5,1.2-2.5,2.8S467.9,308.8,469.3,308.8"/>
<polygon fill="#CCCCCC" points="457.7,303.4 456.5,303.4 456.5,235.2 439.5,216.2 439.5,157.4 440.7,157.4 440.7,215.7 457.7,234.6 
	"/>
<path fill="#CCCCCC" d="M440.1,160.3c1.4,0,2.5-1.2,2.5-2.8s-1.1-2.8-2.5-2.8s-2.5,1.2-2.5,2.8C437.6,159,438.7,160.3,440.1,160.3"
	/>
<path fill="#CCCCCC" d="M457.1,306.2c1.4,0,2.5-1.2,2.5-2.8s-1.1-2.8-2.5-2.8s-2.5,1.2-2.5,2.8C454.6,304.9,455.7,306.2,457.1,306.2
	"/>
<polygon fill="#CCCCCC" points="447.5,283.4 446.3,283.4 446.3,249.1 427.9,228.5 427.9,157.4 429.1,157.4 429.1,228 447.5,248.5 
	"/>
<path fill="#CCCCCC" d="M428.5,160.3c1.4,0,2.5-1.2,2.5-2.8s-1.1-2.8-2.5-2.8s-2.5,1.2-2.5,2.8C426,159,427.1,160.3,428.5,160.3"/>
<path fill="#CCCCCC" d="M446.9,286.1c1.4,0,2.5-1.2,2.5-2.8c0-1.5-1.1-2.8-2.5-2.8s-2.5,1.2-2.5,2.8
	C444.4,284.9,445.5,286.1,446.9,286.1"/>
<polygon fill="#CCCCCC" points="520.3,394.8 519,394.8 519,369.6 528.2,359.4 528.2,259.8 543.1,259.8 543.1,238.5 526.2,219.6 
	526.2,157.4 527.5,157.4 527.5,219 544.4,237.9 544.4,261.2 529.5,261.2 529.5,360 520.3,370.1 "/>
<path fill="#CCCCCC" d="M526.8,160.3c1.4,0,2.5-1.2,2.5-2.8s-1.1-2.8-2.5-2.8s-2.5,1.2-2.5,2.8C524.3,159,525.5,160.3,526.8,160.3"
	/>
<path fill="#CCCCCC" d="M519.6,397.6c1.4,0,2.5-1.2,2.5-2.8s-1.1-2.8-2.5-2.8c-1.4,0-2.5,1.2-2.5,2.8S518.2,397.6,519.6,397.6"/>
<polygon fill="#CCCCCC" points="533.5,367.1 532.6,366.1 541.1,356.5 541.1,268.8 553.1,268.8 553.1,232.9 538.2,216.2 538.2,157.4 
	539.5,157.4 539.5,215.7 554.4,232.4 554.4,270.1 542.4,270.1 542.4,357.1 "/>
<path fill="#CCCCCC" d="M538.8,160.3c1.4,0,2.5-1.2,2.5-2.8s-1.1-2.8-2.5-2.8s-2.5,1.2-2.5,2.8C536.3,159,537.5,160.3,538.8,160.3"
	/>
<path fill="#CCCCCC" d="M533.1,369.4c1.4,0,2.5-1.2,2.5-2.8s-1.1-2.8-2.5-2.8c-1.4,0-2.5,1.2-2.5,2.8
	C530.6,368,531.7,369.4,533.1,369.4"/>
<polygon fill="#CCCCCC" points="383.2,323.5 382,323.5 382,293.6 389,285.9 389,229.6 374.1,212.9 374.1,157.4 375.3,157.4 
	375.3,212.4 390.2,229.1 390.2,286.5 383.2,294.2 "/>
<path fill="#CCCCCC" d="M374.7,160.3c1.4,0,2.5-1.2,2.5-2.8s-1.1-2.8-2.5-2.8c-1.4,0-2.5,1.2-2.5,2.8
	C372.2,159,373.3,160.3,374.7,160.3"/>
<path fill="#CCCCCC" d="M382.6,326.3c1.4,0,2.5-1.2,2.5-2.8s-1.1-2.8-2.5-2.8s-2.5,1.2-2.5,2.8C380.2,325,381.3,326.3,382.6,326.3"
	/>
<polygon fill="#CCCCCC" points="393.9,275 393,274 397,269.5 397,209.6 388,199.6 388,157.4 389.2,157.4 389.2,199 398.2,208.9 
	398.2,270.1 "/>
<path fill="#CCCCCC" d="M388.6,160.3c1.4,0,2.5-1.2,2.5-2.8s-1.1-2.8-2.5-2.8s-2.5,1.2-2.5,2.8C386.1,159,387.2,160.3,388.6,160.3"
	/>
<path fill="#CCCCCC" d="M393.5,277.2c1.4,0,2.5-1.2,2.5-2.8s-1.1-2.8-2.5-2.8s-2.5,1.2-2.5,2.8S392.1,277.2,393.5,277.2"/>
<polygon fill="#CCCCCC" points="409.1,274.1 408,274.1 408,190.6 396,177.2 396,157.4 397.2,157.4 397.2,176.7 409.1,190 "/>
<path fill="#CCCCCC" d="M396.6,160.3c1.4,0,2.5-1.2,2.5-2.8s-1.1-2.8-2.5-2.8s-2.5,1.2-2.5,2.8C394.1,159,395.2,160.3,396.6,160.3"
	/>
<path fill="#CCCCCC" d="M408.5,276.8c1.4,0,2.5-1.2,2.5-2.8s-1.1-2.8-2.5-2.8s-2.5,1.2-2.5,2.8C406.1,275.6,407.2,276.8,408.5,276.8
	"/>
<polygon fill="#CCCCCC" points="269.3,355 268,355 268,320.2 254.5,305.1 254.5,278.4 254.7,278.2 276.7,253.5 276.7,232.5 
	278,232.5 278,254.1 277.8,254.3 255.7,279 255.7,304.6 269.3,319.6 "/>
<path fill="#CCCCCC" d="M268.6,352.2c-1.4,0-2.5,1.2-2.5,2.8s1.1,2.8,2.5,2.8s2.5-1.2,2.5-2.8S270,352.2,268.6,352.2"/>
<path fill="#CCCCCC" d="M277.4,229.7c-1.4,0-2.5,1.2-2.5,2.8s1.1,2.8,2.5,2.8s2.5-1.2,2.5-2.8S278.8,229.7,277.4,229.7"/>
<polygon fill="#CCCCCC" points="434.4,292.3 433.1,292.3 433.1,248.1 416.9,231.3 416.9,157.4 418.1,157.4 418.1,230.7 434.4,247.4 
	"/>
<path fill="#CCCCCC" d="M417.5,160.3c1.4,0,2.5-1.2,2.5-2.8s-1.1-2.8-2.5-2.8s-2.5,1.2-2.5,2.8C415,159,416.1,160.3,417.5,160.3"/>
<path fill="#CCCCCC" d="M433.8,295.1c1.4,0,2.5-1.2,2.5-2.8c0-1.6-1.1-2.8-2.5-2.8c-1.4,0-2.5,1.2-2.5,2.8
	C431.3,293.9,432.4,295.1,433.8,295.1"/>
<polygon fill="#CCCCCC" points="535.2,418.1 534,418.1 534,391.2 534.1,391 552.7,370.1 552.7,275.4 563.5,275.4 563.5,231.5 
	545.8,211.8 545.8,157.4 547.1,157.4 547.1,211.2 564.7,230.9 564.7,276.8 554,276.8 554,370.7 553.8,370.9 535.2,391.8 "/>
<path fill="#CCCCCC" d="M546.4,160.3c1.4,0,2.5-1.2,2.5-2.8s-1.1-2.8-2.5-2.8c-1.4,0-2.5,1.2-2.5,2.8
	C543.9,159,545,160.3,546.4,160.3"/>
<path fill="#CCCCCC" d="M534.6,420.9c1.4,0,2.5-1.2,2.5-2.8c0-1.5-1.1-2.8-2.5-2.8c-1.4,0-2.5,1.2-2.5,2.8
	C532.1,419.7,533.2,420.9,534.6,420.9"/>
<polygon fill="#CCCCCC" points="547,433.7 545.7,433.7 545.7,401 545.9,400.8 564.1,380.5 564.1,299.1 584.2,299.1 584.2,207.2 
	555.2,174.8 555.2,157.4 556.4,157.4 556.4,174.1 585.4,206.6 585.4,300.5 565.4,300.5 565.4,381.1 565.2,381.3 547,401.5 "/>
<path fill="#CCCCCC" d="M555.8,160.3c1.4,0,2.5-1.2,2.5-2.8s-1.1-2.8-2.5-2.8s-2.5,1.2-2.5,2.8C553.3,159,554.4,160.3,555.8,160.3"
	/>
<path fill="#CCCCCC" d="M546.4,436.5c1.4,0,2.5-1.2,2.5-2.8s-1.1-2.8-2.5-2.8c-1.4,0-2.5,1.2-2.5,2.8S545,436.5,546.4,436.5"/>
<polygon fill="#CCCCCC" points="560.4,463.8 559.2,463.8 559.2,448.5 559.4,448.3 575.1,430.6 575.1,316.6 595.9,316.6 595.9,206.2 
	574,181.7 574,157.4 575.3,157.4 575.3,181.1 597.2,205.6 597.2,318.1 576.3,318.1 576.3,431.3 576.2,431.4 560.4,449.1 "/>
<path fill="#CCCCCC" d="M559.8,466.6c1.4,0,2.5-1.2,2.5-2.8s-1.1-2.8-2.5-2.8s-2.5,1.2-2.5,2.8C557.3,465.3,558.4,466.6,559.8,466.6
	"/>
<path fill="#CCCCCC" d="M574.6,160.3c1.4,0,2.5-1.2,2.5-2.8s-1.1-2.8-2.5-2.8c-1.4,0-2.5,1.2-2.5,2.8
	C572.1,159,573.3,160.3,574.6,160.3"/>
<polygon fill="#CCCCCC" points="610.9,393.8 609.6,393.8 609.6,332.8 609.8,332.6 627.8,312.4 627.8,244.5 611.8,244.5 611.8,196.2 
	591.4,173.3 591.4,157.4 592.7,157.4 592.7,172.8 613.1,195.6 613.1,243.1 629.1,243.1 629.1,313 628.9,313.2 610.9,333.4 "/>
<path fill="#CCCCCC" d="M592,160.3c1.4,0,2.5-1.2,2.5-2.8s-1.1-2.8-2.5-2.8s-2.5,1.2-2.5,2.8C589.5,159,590.7,160.3,592,160.3"/>
<path fill="#CCCCCC" d="M610.2,396.7c1.4,0,2.5-1.2,2.5-2.8s-1.1-2.8-2.5-2.8s-2.5,1.2-2.5,2.8C607.7,395.4,608.9,396.7,610.2,396.7
	"/>
<polygon fill="#CCCCCC" points="590.1,423.7 588.8,423.7 588.8,337.6 589,337.4 603.7,320.9 603.7,265.9 604.9,265.9 604.9,321.6 
	604.8,321.7 590.1,338.2 "/>
<path fill="#CCCCCC" d="M604.3,268.7c1.4,0,2.5-1.2,2.5-2.8s-1.1-2.8-2.5-2.8s-2.5,1.2-2.5,2.8S602.9,268.7,604.3,268.7"/>
<path fill="#CCCCCC" d="M589.5,426.5c1.4,0,2.5-1.2,2.5-2.8s-1.1-2.8-2.5-2.8s-2.5,1.2-2.5,2.8C587,425.2,588.1,426.5,589.5,426.5"
	/>
<polygon fill="#CCCCCC" points="641.1,487.2 639.8,487.2 639.8,463 640,462.8 658.7,441.8 658.7,413.8 637.8,413.8 637.8,234.2 
	652.5,234.2 652.5,200.3 637.8,184 637.8,157.4 639.1,157.4 639.1,183.4 653.7,199.8 653.7,235.6 639.1,235.6 639.1,412.4 
	660,412.4 660,442.3 659.8,442.6 641.1,463.6 "/>
<path fill="#CCCCCC" d="M638.5,160.3c1.4,0,2.5-1.2,2.5-2.8s-1.1-2.8-2.5-2.8s-2.5,1.2-2.5,2.8C636,159,637.1,160.3,638.5,160.3"/>
<path fill="#CCCCCC" d="M640.5,490c1.4,0,2.5-1.2,2.5-2.8c0-1.5-1.1-2.8-2.5-2.8s-2.5,1.2-2.5,2.8S639.1,490,640.5,490"/>
<polygon fill="#CCCCCC" points="494.4,435.9 493.2,435.9 493.2,338.3 508.5,338.3 508.5,270.9 492.5,253 492.5,157.4 493.7,157.4 
	493.7,252.4 509.7,270.2 509.7,339.7 494.4,339.7 "/>
<path fill="#CCCCCC" d="M493.1,160.3c1.4,0,2.5-1.2,2.5-2.8s-1.1-2.8-2.5-2.8s-2.5,1.2-2.5,2.8C490.6,159,491.7,160.3,493.1,160.3"
	/>
<path fill="#CCCCCC" d="M493.8,438.8c1.4,0,2.5-1.2,2.5-2.8s-1.1-2.8-2.5-2.8s-2.5,1.2-2.5,2.8C491.3,437.5,492.4,438.8,493.8,438.8
	"/>
<polygon fill="#CCCCCC" points="502.8,433.7 501.5,433.7 501.5,348.4 517.4,348.4 517.4,268.5 501.5,250.7 501.5,157.4 502.8,157.4 
	502.8,250.2 518.6,268 518.6,349.8 502.8,349.8 "/>
<path fill="#CCCCCC" d="M502.1,160.3c1.4,0,2.5-1.2,2.5-2.8s-1.1-2.8-2.5-2.8s-2.5,1.2-2.5,2.8C499.6,159,500.8,160.3,502.1,160.3"
	/>
<path fill="#CCCCCC" d="M502.1,436.5c1.4,0,2.5-1.2,2.5-2.8s-1.1-2.8-2.5-2.8s-2.5,1.2-2.5,2.8S500.8,436.5,502.1,436.5"/>
<polygon fill="#CCCCCC" points="487.7,411.5 486.6,411.5 486.6,324.3 499.1,324.3 499.1,271.5 482.6,253 482.6,157.4 483.8,157.4 
	483.8,252.4 500.3,270.9 500.3,325.7 487.7,325.7 "/>
<path fill="#CCCCCC" d="M483.2,160.3c1.4,0,2.5-1.2,2.5-2.8s-1.1-2.8-2.5-2.8s-2.5,1.2-2.5,2.8C480.7,159,481.8,160.3,483.2,160.3"
	/>
<path fill="#CCCCCC" d="M487.2,414.3c1.4,0,2.5-1.2,2.5-2.8s-1.1-2.8-2.5-2.8s-2.5,1.2-2.5,2.8S485.8,414.3,487.2,414.3"/>
<polygon fill="#CCCCCC" points="333.9,328.7 332.6,328.7 332.6,297.6 332.8,297.4 350.5,277.6 350.5,188.7 363.9,188.7 363.9,157.4 
	365.2,157.4 365.2,190 351.8,190 351.8,278.3 351.6,278.5 333.9,298.2 "/>
<path fill="#CCCCCC" d="M364.5,160.3c1.4,0,2.5-1.2,2.5-2.8s-1.1-2.8-2.5-2.8s-2.5,1.2-2.5,2.8C362,159,363.2,160.3,364.5,160.3"/>
<path fill="#CCCCCC" d="M333.3,331.5c1.4,0,2.5-1.2,2.5-2.8c0-1.6-1.1-2.8-2.5-2.8c-1.4,0-2.5,1.2-2.5,2.8
	C330.8,330.1,331.9,331.5,333.3,331.5"/>
<polygon fill="#CCCCCC" points="291.7,347.4 290.5,347.4 290.5,311.7 305.4,311.7 305.4,256.4 287,235.7 287,159.2 288.2,159.2 
	288.2,235.2 306.6,255.7 306.6,313 291.7,313 "/>
<path fill="#CCCCCC" d="M287.6,162c1.4,0,2.5-1.2,2.5-2.8c0-1.5-1.1-2.8-2.5-2.8s-2.5,1.2-2.5,2.8C285.1,160.6,286.2,162,287.6,162"
	/>
<path fill="#CCCCCC" d="M291.1,350.1c1.4,0,2.5-1.2,2.5-2.8s-1.1-2.8-2.5-2.8s-2.5,1.2-2.5,2.8S289.7,350.1,291.1,350.1"/>
<polygon fill="#CCCCCC" points="288.2,426.5 287,426.5 287,366.6 296.3,356.2 296.3,318.2 313.2,318.2 313.2,252.4 295.3,232.4 
	295.3,167.9 304.1,167.9 304.1,169.3 296.5,169.3 296.5,231.8 314.5,251.8 314.5,319.5 297.6,319.5 297.6,356.8 288.2,367.2 "/>
<path fill="#CCCCCC" d="M304.1,171.4c1.4,0,2.5-1.2,2.5-2.8s-1.1-2.8-2.5-2.8s-2.5,1.2-2.5,2.8C301.7,170.1,302.8,171.4,304.1,171.4
	"/>
<path fill="#CCCCCC" d="M287.6,429.3c1.4,0,2.5-1.2,2.5-2.8s-1.1-2.8-2.5-2.8s-2.5,1.2-2.5,2.8S286.2,429.3,287.6,429.3"/>
<polygon fill="#CCCCCC" points="309.5,417.6 297,417.6 297,373.9 305.8,364.1 305.8,327.8 321.4,327.8 321.4,249.1 306.4,232.4 
	306.4,178 320.5,178 320.5,179.3 307.6,179.3 307.6,231.8 322.6,248.5 322.6,329.1 307,329.1 307,364.6 298.2,374.5 298.2,416.1 
	309.5,416.1 "/>
<path fill="#CCCCCC" d="M320.5,181.4c1.4,0,2.5-1.2,2.5-2.8c0-1.5-1.1-2.8-2.5-2.8s-2.5,1.2-2.5,2.8
	C318,180.2,319.1,181.4,320.5,181.4"/>
<path fill="#CCCCCC" d="M309.5,419.7c1.4,0,2.5-1.2,2.5-2.8s-1.1-2.8-2.5-2.8s-2.5,1.2-2.5,2.8S308.1,419.7,309.5,419.7"/>
<polyline fill="#CCCCCC" points="180.3,382.1 217.6,382.1 217.6,391.4 218.9,391.4 218.9,380.7 179.8,380.7 "/>
<path fill="#CCCCCC" d="M220.8,391.4c0,1.5-1.1,2.8-2.5,2.8c-1.4,0-2.5-1.2-2.5-2.8s1.1-2.8,2.5-2.8
	C219.7,388.6,220.8,389.8,220.8,391.4"/>
<polyline fill="#CCCCCC" points="170.6,389.6 208,389.6 208,406.7 209.2,406.7 209.2,388.2 170.1,388.2 "/>
<path fill="#CCCCCC" d="M211.1,406.7c0,1.5-1.1,2.8-2.5,2.8c-1.4,0-2.5-1.2-2.5-2.8s1.1-2.8,2.5-2.8
	C210,404,211.1,405.2,211.1,406.7"/>
<polygon fill="#CCCCCC" points="251.7,309 250.5,309 250.5,252.6 250.7,252.4 268.2,232.9 268.2,156.9 269.4,156.9 269.4,233.5 
	269.3,233.7 251.7,253.2 "/>
<path fill="#CCCCCC" d="M268.8,159.7c1.4,0,2.5-1.2,2.5-2.8s-1.1-2.8-2.5-2.8c-1.4,0-2.5,1.2-2.5,2.8
	C266.3,158.4,267.4,159.7,268.8,159.7"/>
<path fill="#CCCCCC" d="M251.1,311.8c1.4,0,2.5-1.2,2.5-2.8s-1.1-2.8-2.5-2.8c-1.4,0-2.5,1.2-2.5,2.8S249.7,311.8,251.1,311.8"/>
<polygon fill="#CCCCCC" points="244,293.4 242.8,293.4 242.8,243.6 243,243.3 259.2,225.1 259.2,163.6 260.4,163.6 260.4,225.8 
	260.3,225.9 244,244.1 "/>
<path fill="#CCCCCC" d="M259.8,166.4c1.4,0,2.5-1.2,2.5-2.8s-1.1-2.8-2.5-2.8c-1.4,0-2.5,1.2-2.5,2.8
	C257.3,165.2,258.4,166.4,259.8,166.4"/>
<path fill="#CCCCCC" d="M243.4,296.2c1.4,0,2.5-1.2,2.5-2.8s-1.1-2.8-2.5-2.8c-1.4,0-2.5,1.2-2.5,2.8S242,296.2,243.4,296.2"/>
<rect x="173.3" y="158.1" fill="#CCCCCC" width="42.8" height="1.4"/>
<path fill="#CCCCCC" d="M173.3,161.6c1.4,0,2.5-1.2,2.5-2.8s-1.1-2.8-2.5-2.8c-1.4,0-2.5,1.2-2.5,2.8S171.9,161.6,173.3,161.6"/>
<path fill="#CCCCCC" d="M216.2,161.6c1.4,0,2.5-1.2,2.5-2.8s-1.1-2.8-2.5-2.8c-1.4,0-2.5,1.2-2.5,2.8S214.8,161.6,216.2,161.6"/>
<rect x="179.3" y="167" fill="#CCCCCC" width="20.9" height="1.4"/>
<path fill="#CCCCCC" d="M179.3,170.6c1.4,0,2.5-1.2,2.5-2.8s-1.1-2.8-2.5-2.8c-1.4,0-2.5,1.2-2.5,2.8
	C176.8,169.3,177.9,170.6,179.3,170.6"/>
<path fill="#CCCCCC" d="M200.2,170.6c1.4,0,2.5-1.2,2.5-2.8s-1.1-2.8-2.5-2.8c-1.4,0-2.5,1.1-2.5,2.7
	C197.7,169.3,198.8,170.6,200.2,170.6"/>
<rect x="181.3" y="141.4" fill="#CCCCCC" width="46.8" height="1.4"/>
<path fill="#CCCCCC" d="M181.3,144.9c1.4,0,2.5-1.2,2.5-2.8s-1.1-2.8-2.5-2.8c-1.4,0-2.5,1.2-2.5,2.8
	C178.8,143.7,179.9,144.9,181.3,144.9"/>
<path fill="#CCCCCC" d="M228.1,144.9c1.4,0,2.5-1.2,2.5-2.8s-1.1-2.8-2.5-2.8c-1.4,0-2.5,1.2-2.5,2.8
	C225.6,143.7,226.7,144.9,228.1,144.9"/>
<rect x="176.8" y="351.6" fill="#CCCCCC" width="46.8" height="1.4"/>
<path fill="#CCCCCC" d="M176.8,355c1.4,0,2.5-1.2,2.5-2.8c0-1.5-1.1-2.8-2.5-2.8c-1.4,0-2.5,1.2-2.5,2.8S175.4,355,176.8,355"/>
<path fill="#CCCCCC" d="M223.6,355c1.4,0,2.5-1.2,2.5-2.8c0-1.5-1.1-2.8-2.5-2.8c-1.4,0-2.5,1.2-2.5,2.8
	C221.2,353.8,222.3,355,223.6,355"/>
<rect x="180.3" y="373.5" fill="#CCCCCC" width="46.8" height="1.4"/>
<path fill="#CCCCCC" d="M180.3,377c1.4,0,2.5-1.2,2.5-2.8c0-1.5-1.1-2.8-2.5-2.8c-1.4,0-2.5,1.2-2.5,2.8S178.9,377,180.3,377"/>
<path fill="#CCCCCC" d="M227.1,377c1.4,0,2.5-1.2,2.5-2.8c0-1.5-1.1-2.8-2.5-2.8c-1.4,0-2.5,1.2-2.5,2.8
	C224.6,375.7,225.8,377,227.1,377"/>
<polygon fill="#CCCCCC" points="179.1,197.4 142.5,197.4 142.5,196 178.6,196 195.6,177.1 217.2,177.1 217.2,178.4 196.1,178.4 "/>
<path fill="#CCCCCC" d="M142.5,199.6c1.4,0,2.5-1.2,2.5-2.8s-1.1-2.8-2.5-2.8s-2.5,1.2-2.5,2.8S141.1,199.6,142.5,199.6"/>
<path fill="#CCCCCC" d="M217.2,180.5c1.4,0,2.5-1.2,2.5-2.8s-1.1-2.7-2.5-2.7c-1.4,0-2.5,1.2-2.5,2.8S215.8,180.5,217.2,180.5"/>
<polygon fill="#CCCCCC" points="180.1,208.5 145.4,208.5 145.4,207.2 179.6,207.2 198,186.5 230.6,186.5 230.6,187.9 198.5,187.9 
	"/>
<path fill="#CCCCCC" d="M145.4,210.6c1.4,0,2.5-1.2,2.5-2.8s-1.1-2.8-2.5-2.8c-1.4,0-2.5,1.2-2.5,2.8S144,210.6,145.4,210.6"/>
<path fill="#CCCCCC" d="M230.6,190c1.4,0,2.5-1.2,2.5-2.8c0-1.5-1.1-2.8-2.5-2.8c-1.4,0-2.5,1.2-2.5,2.8S229.3,190,230.6,190"/>
<rect x="181.3" y="36.7" fill="#CCCCCC" width="35.9" height="1.4"/>
<path fill="#CCCCCC" d="M181.3,40.2c1.4,0,2.5-1.2,2.5-2.8s-1.1-2.8-2.5-2.8c-1.4,0-2.5,1.2-2.5,2.8S179.9,40.2,181.3,40.2"/>
<path fill="#CCCCCC" d="M217.2,40.2c1.4,0,2.5-1.2,2.5-2.8s-1.1-2.8-2.5-2.8c-1.4,0-2.5,1.2-2.5,2.8S215.8,40.2,217.2,40.2"/>
<rect x="181.3" y="25.5" fill="#CCCCCC" width="26.9" height="1.4"/>
<path fill="#CCCCCC" d="M181.3,29.1c1.4,0,2.5-1.2,2.5-2.8c0-1.5-1.1-2.8-2.5-2.8c-1.4,0-2.5,1.2-2.5,2.8
	C178.8,27.8,179.9,29.1,181.3,29.1"/>
<path fill="#CCCCCC" d="M208.2,29.1c1.4,0,2.5-1.2,2.5-2.8c0-1.5-1.1-2.8-2.5-2.8c-1.4,0-2.5,1.2-2.5,2.8
	C205.7,27.8,206.8,29.1,208.2,29.1"/>
<rect x="182.3" y="13.4" fill="#CCCCCC" width="14.4" height="1.4"/>
<path fill="#CCCCCC" d="M182.3,16.8c1.4,0,2.5-1.2,2.5-2.8s-1.1-2.8-2.5-2.8c-1.4,0-2.5,1.2-2.5,2.8S180.9,16.8,182.3,16.8"/>
<path fill="#CCCCCC" d="M196.7,16.8c1.4,0,2.5-1.2,2.5-2.8s-1.1-2.8-2.5-2.8c-1.4,0-2.5,1.2-2.5,2.8S195.4,16.8,196.7,16.8"/>
<polygon fill="#CCCCCC" points="222.9,-18.7 138.5,-18.7 138.5,-20.1 222.5,-20.1 239.4,-39 290,-39 290,-37.6 239.9,-37.6 "/>
<path fill="#CCCCCC" d="M290-35.5c1.4,0,2.5-1.2,2.5-2.8s-1.1-2.8-2.5-2.8s-2.5,1.2-2.5,2.8C287.5-36.8,288.6-35.5,290-35.5"/>
<path fill="#CCCCCC" d="M138.5-16.6c1.4,0,2.5-1.2,2.5-2.8c0-1.5-1.1-2.8-2.5-2.8S136-21,136-19.4C136-17.8,137.1-16.6,138.5-16.6"
	/>
<polygon fill="#CCCCCC" points="218,-30.8 132.5,-30.8 132.5,-32.2 217.5,-32.2 233.9,-50.7 278.9,-50.7 278.9,-49.2 234.5,-49.2 
	"/>
<path fill="#CCCCCC" d="M278.9-47.1c1.4,0,2.5-1.2,2.5-2.8s-1.1-2.8-2.5-2.8s-2.5,1.2-2.5,2.8C276.4-48.4,277.6-47.1,278.9-47.1"/>
<path fill="#CCCCCC" d="M132.5-28.7c1.4,0,2.5-1.2,2.5-2.8s-1.1-2.8-2.5-2.8s-2.5,1.2-2.5,2.8C130-30,131.1-28.7,132.5-28.7"/>
<polygon fill="#CCCCCC" points="208.1,-42.3 159.4,-42.3 159.4,-43.6 207.6,-43.6 223.4,-61.3 270.5,-61.3 270.5,-59.9 223.9,-59.9 
	"/>
<path fill="#CCCCCC" d="M270.5-57.8c1.4,0,2.5-1.2,2.5-2.8c0-1.5-1.1-2.8-2.5-2.8s-2.5,1.2-2.5,2.8C268-59.1,269.2-57.8,270.5-57.8"
	/>
<path fill="#CCCCCC" d="M159.4-40.2c1.4,0,2.5-1.2,2.5-2.8c0-1.5-1.1-2.8-2.5-2.8c-1.4,0-2.5,1.2-2.5,2.8
	C156.9-41.4,158-40.2,159.4-40.2"/>
<polygon fill="#CCCCCC" points="200.5,-50.4 168.4,-50.4 168.4,-51.9 200,-51.9 218.5,-72.4 259.5,-72.4 259.5,-71.1 219,-71.1 "/>
<path fill="#CCCCCC" d="M259.5-69c1.4,0,2.5-1.2,2.5-2.8c0-1.5-1.1-2.8-2.5-2.8s-2.5,1.2-2.5,2.8S258.2-69,259.5-69"/>
<path fill="#CCCCCC" d="M168.4-48.3c1.4,0,2.5-1.2,2.5-2.8c0-1.5-1.1-2.8-2.5-2.8c-1.4,0-2.5,1.2-2.5,2.8
	C165.9-49.7,167-48.3,168.4-48.3"/>
<polygon fill="#CCCCCC" points="199.5,-63.7 178.3,-63.7 178.3,-65.1 199,-65.1 214.7,-82.6 268.4,-82.6 268.4,-81.3 215.2,-81.3 
	"/>
<path fill="#CCCCCC" d="M268.4-79.2c1.4,0,2.5-1.2,2.5-2.8s-1.1-2.8-2.5-2.8s-2.5,1.2-2.5,2.8S267-79.2,268.4-79.2"/>
<path fill="#CCCCCC" d="M178.3-61.6c1.4,0,2.5-1.2,2.5-2.8c0-1.5-1.1-2.8-2.5-2.8c-1.4,0-2.5,1.2-2.5,2.8S176.9-61.6,178.3-61.6"/>
<rect x="180.3" y="-106.5" fill="#CCCCCC" width="36.9" height="1.4"/>
<path fill="#CCCCCC" d="M217.2-103c1.4,0,2.5-1.2,2.5-2.8s-1.1-2.8-2.5-2.8c-1.4,0-2.5,1.2-2.5,2.8S215.8-103,217.2-103"/>
<path fill="#CCCCCC" d="M180.3-103c1.4,0,2.5-1.2,2.5-2.8s-1.1-2.8-2.5-2.8c-1.4,0-2.5,1.2-2.5,2.8S178.9-103,180.3-103"/>
<rect x="179.3" y="-124.8" fill="#CCCCCC" width="32.2" height="1.4"/>
<path fill="#CCCCCC" d="M211.5-121.3c1.4,0,2.5-1.2,2.5-2.8c0-1.5-1.1-2.8-2.5-2.8s-2.5,1.2-2.5,2.8
	C209-122.6,210.1-121.3,211.5-121.3"/>
<path fill="#CCCCCC" d="M179.3-121.3c1.4,0,2.5-1.2,2.5-2.8c0-1.5-1.1-2.8-2.5-2.8c-1.4,0-2.5,1.2-2.5,2.8
	C176.8-122.6,177.9-121.3,179.3-121.3"/>
<rect x="155.4" y="-136" fill="#CCCCCC" width="45.3" height="1.4"/>
<path fill="#CCCCCC" d="M200.7-132.5c1.4,0,2.5-1.2,2.5-2.8s-1.1-2.7-2.5-2.7c-1.4,0-2.5,1.2-2.5,2.8S199.3-132.5,200.7-132.5"/>
<path fill="#CCCCCC" d="M155.4-132.5c1.4,0,2.5-1.2,2.5-2.8s-1.1-2.8-2.5-2.8c-1.4,0-2.5,1.2-2.5,2.8S154-132.5,155.4-132.5"/>
</svg>
