<?xml version="1.0" encoding="utf-8"?>
<!-- Generator: Adobe Illustrator 18.1.0, SVG Export Plug-In . SVG Version: 6.00 Build 0)  -->
<!DOCTYPE svg PUBLIC "-//W3C//DTD SVG 1.1//EN" "http://www.w3.org/Graphics/SVG/1.1/DTD/svg11.dtd">
<svg version="1.1" id="Layer_1" xmlns="http://www.w3.org/2000/svg" xmlns:xlink="http://www.w3.org/1999/xlink" x="0px" y="0px"
	 width="253px" height="188px" viewBox="0 0 253 188" enable-background="new 0 0 253 188" xml:space="preserve">
<path fill="#2DACD8" d="M167.6,56.8h19.7c2.6,0,4.8,2.9,4.8,6.5c0,3.6-2.2,6.5-4.8,6.5h-19.7"/>
<path fill="#2DACD8" d="M167.6,89.5h19.7c2.6,0,4.8,2.9,4.8,6.5c0,3.6-2.2,6.5-4.8,6.5h-19.7"/>
<path fill="#2DACD8" d="M167.6,122.3h19.7c2.6,0,4.8,2.9,4.8,6.5c0,3.6-2.2,6.5-4.8,6.5h-19.7"/>
<path fill="#2DACD8" d="M57.5,25V4.9c0-2.7,2.9-4.9,6.4-4.9c3.5,0,6.4,2.2,6.4,4.9V25"/>
<path fill="#2DACD8" d="M89.7,25V4.9c0-2.7,2.9-4.9,6.4-4.9c3.5,0,6.4,2.2,6.4,4.9V25"/>
<path fill="#2DACD8" d="M122,25V4.9c0-2.7,2.9-4.9,6.4-4.9c3.5,0,6.4,2.2,6.4,4.9V25"/>
<path fill="#2DACD8" d="M70.2,163v20.1c0,2.7-2.9,4.9-6.4,4.9c-3.5,0-6.4-2.2-6.4-4.9V163"/>
<path fill="#2DACD8" d="M102.5,163v20.1c0,2.7-2.9,4.9-6.4,4.9c-3.5,0-6.4-2.2-6.4-4.9V163"/>
<path fill="#2DACD8" d="M134.7,163v20.1c0,2.7-2.9,4.9-6.4,4.9c-3.5,0-6.4-2.2-6.4-4.9V163"/>
<path fill="#2DACD8" d="M24.5,69.7H4.8c-2.6,0-4.8-2.9-4.8-6.5s2.2-6.5,4.8-6.5h19.7"/>
<path fill="#2DACD8" d="M24.5,102.5H4.8C2.2,102.5,0,99.6,0,96c0-3.6,2.2-6.5,4.8-6.5h19.7"/>
<path fill="#2DACD8" d="M24.5,135.3H4.8c-2.6,0-4.8-2.9-4.8-6.5s2.2-6.5,4.8-6.5h19.7"/>
<path fill="#2DACD8" d="M141.9,55.6c0-3-2-5.5-4.5-5.5H54.7c-2.5,0-4.5,2.5-4.5,5.5v77.5c0,3,2,5.5,4.5,5.5h82.7
	c2.5,0,4.5-2.5,4.5-5.5V55.6z M164.6,152.3c0,4.5-3,8.2-6.7,8.2H34.3c-3.7,0-6.7-3.7-6.7-8.2V36.5c0-4.5,3-8.2,6.7-8.2h123.5
	c3.7,0,6.7,3.7,6.7,8.2V152.3z"/>
<line fill="#2DACD8" x1="128.5" y1="94.2" x2="118.9" y2="94.2"/>
<path fill="#FBE1C4" d="M116.7,97.8c-1.3-0.8-2.1-2.1-2.1-3.7c0-2.4,2-4.3,4.3-4.3l9.6,0.1c2.4,0,4.3,2,4.3,4.3c0,2.4-2,4.3-4.3,4.3
	l-9.6-0.1C118,98.4,117.3,98.2,116.7,97.8z"/>
<line fill="#2DACD8" x1="124.3" y1="78" x2="115.9" y2="82.8"/>
<path fill="#FCEBD8" d="M113.7,86.4c-0.6-0.4-1.1-0.9-1.5-1.5c-1.2-2.1-0.5-4.7,1.6-5.9l8.4-4.8c2.1-1.2,4.7-0.5,5.9,1.6
	c1.2,2.1,0.5,4.7-1.6,5.9l-8.4,4.8C116.6,87.3,115,87.2,113.7,86.4z"/>
<line fill="#2DACD8" x1="112.5" y1="66.1" x2="107.6" y2="74.4"/>
<path fill="#C1741E" d="M105.4,78c-2-1.2-2.7-3.8-1.5-5.8l4.9-8.3c1.2-2,3.8-2.7,5.9-1.5c0,0,0,0,0.1,0c2,1.2,2.7,3.8,1.5,5.8
	l-4.9,8.3C110.1,78.6,107.5,79.3,105.4,78C105.4,78.1,105.4,78,105.4,78z"/>
<line fill="#2DACD8" x1="96.3" y1="61.6" x2="96.2" y2="71.2"/>
<path fill="#D98222" d="M94,74.9c-1.3-0.8-2.1-2.1-2.1-3.7l0.1-9.6c0-2.4,2-4.3,4.3-4.3c2.4,0,4.3,2,4.3,4.3l-0.1,9.6
	c0,2.4-2,4.3-4.3,4.3C95.4,75.5,94.7,75.3,94,74.9z"/>
<line fill="#2DACD8" x1="80.1" y1="65.8" x2="84.8" y2="74.2"/>
<path fill="#F19126" d="M82.6,77.9c-0.6-0.4-1.1-0.9-1.5-1.5L76.3,68c-1.2-2.1-0.5-4.7,1.6-5.9c2.1-1.2,4.7-0.4,5.9,1.6l4.8,8.4
	c1.2,2.1,0.5,4.7-1.6,5.9C85.5,78.7,83.9,78.7,82.6,77.9z"/>
<line fill="#2DACD8" x1="68.1" y1="77.6" x2="76.4" y2="82.5"/>
<path fill="#F29B3A" d="M65.9,81.3c-2-1.2-2.7-3.8-1.5-5.8c1.2-2,3.8-2.7,5.9-1.5l8.3,4.9c2.1,1.2,2.7,3.8,1.5,5.9
	c-1.2,2-3.8,2.7-5.9,1.5L65.9,81.3C65.9,81.3,65.9,81.3,65.9,81.3z"/>
<line fill="#2DACD8" x1="63.7" y1="93.8" x2="73.3" y2="93.8"/>
<path fill="#F4A54D" d="M61.4,97.5c-1.3-0.8-2.1-2.1-2.1-3.7c0-2.4,2-4.3,4.3-4.3l9.6,0.1c2.4,0,4.3,2,4.3,4.3c0,2.4-2,4.3-4.3,4.3
	l-9.6-0.1C62.8,98.1,62.1,97.8,61.4,97.5z"/>
<line fill="#2DACD8" x1="67.9" y1="110" x2="76.3" y2="105.2"/>
<path fill="#F5AF61" d="M65.7,113.7c-0.6-0.4-1.1-0.9-1.5-1.5c-1.2-2.1-0.5-4.7,1.6-5.9l8.4-4.8c2.1-1.2,4.7-0.5,5.9,1.6
	c1.2,2.1,0.5,4.7-1.6,5.9l-8.4,4.8C68.6,114.5,67,114.5,65.7,113.7z"/>
<line fill="#2DACD8" x1="79.7" y1="121.9" x2="84.6" y2="113.6"/>
<path fill="#F6B975" d="M77.5,125.6c-2-1.2-2.7-3.8-1.5-5.8l4.9-8.3c1.2-2,3.8-2.7,5.9-1.5c2.1,1.2,2.7,3.8,1.5,5.9l-4.9,8.3
	C82.2,126.1,79.6,126.8,77.5,125.6C77.5,125.6,77.5,125.6,77.5,125.6z"/>
<line fill="#2DACD8" x1="95.9" y1="126.4" x2="95.9" y2="116.8"/>
<path fill="#F7C389" d="M93.6,130.1c-1.3-0.8-2.1-2.1-2.1-3.7l0.1-9.6c0-2.4,2-4.3,4.3-4.3c2.4,0,4.3,2,4.3,4.3l-0.1,9.6
	c0,2.4-2,4.3-4.3,4.3C95,130.7,94.3,130.4,93.6,130.1z"/>
<path fill="#F9CD9C" d="M109.9,125.8c-0.6-0.4-1.1-0.9-1.5-1.5l-4.8-8.4c-1.2-2.1-0.5-4.7,1.6-5.9c2.1-1.2,4.7-0.5,5.9,1.6l4.8,8.4
	c1.2,2.1,0.5,4.7-1.6,5.9C112.8,126.7,111.2,126.6,109.9,125.8z"/>
<line fill="#2DACD8" x1="124.1" y1="110.4" x2="115.8" y2="105.5"/>
<path fill="#FAD7B0" d="M113.5,109.2c-2-1.2-2.7-3.8-1.5-5.8c1.2-2,3.8-2.7,5.9-1.5l8.3,4.9c2.1,1.2,2.7,3.8,1.5,5.9
	c-1.2,2-3.8,2.7-5.9,1.5L113.5,109.2C113.6,109.2,113.5,109.2,113.5,109.2z"/>
<polyline fill="none" stroke="#CCCCCC" stroke-miterlimit="10" points="192,62.9 201.8,62.9 253,11.9 "/>
</svg>
