<svg version="1.1" xmlns="http://www.w3.org/2000/svg" id="Layer_1"  xmlns:xlink="http://www.w3.org/1999/xlink" x="0px" y="0px"
	 viewBox="0 0 531 563" enable-background="new 0 0 531 563" xml:space="preserve">
<polygon fill="#CCCCCC" points="340.7,398.6 339.5,398.6 339.5,335 321.5,317 321.5,265.3 322.7,265.3 322.7,316.5 340.7,334.5 "/>
<path fill="#CCCCCC" d="M322.1,267.8c1.4,0,2.5-1.1,2.5-2.5c0-1.4-1.1-2.5-2.5-2.5c-1.4,0-2.5,1.1-2.5,2.5
	C319.6,266.7,320.7,267.8,322.1,267.8"/>
<path fill="#CCCCCC" d="M340.1,401.1c1.4,0,2.5-1.1,2.5-2.5s-1.1-2.5-2.5-2.5c-1.4,0-2.5,1.1-2.5,2.5S338.7,401.1,340.1,401.1"/>
<polygon fill="#CCCCCC" points="328.4,396.3 327.2,396.3 327.2,335 310.2,318 310.2,265.3 311.4,265.3 311.4,317.5 328.4,334.5 "/>
<path fill="#CCCCCC" d="M310.8,267.8c1.4,0,2.5-1.1,2.5-2.5c0-1.4-1.1-2.5-2.5-2.5c-1.4,0-2.5,1.1-2.5,2.5
	C308.3,266.7,309.4,267.8,310.8,267.8"/>
<path fill="#CCCCCC" d="M327.8,398.8c1.4,0,2.5-1.1,2.5-2.5s-1.1-2.5-2.5-2.5c-1.4,0-2.5,1.1-2.5,2.5S326.4,398.8,327.8,398.8"/>
<polygon fill="#CCCCCC" points="318.2,378.3 317,378.3 317,347.5 298.5,329 298.5,265.3 299.7,265.3 299.7,328.5 318.2,347 "/>
<path fill="#CCCCCC" d="M299.1,267.8c1.4,0,2.5-1.1,2.5-2.5c0-1.4-1.1-2.5-2.5-2.5c-1.4,0-2.5,1.1-2.5,2.5
	C296.6,266.7,297.7,267.8,299.1,267.8"/>
<path fill="#CCCCCC" d="M317.6,380.8c1.4,0,2.5-1.1,2.5-2.5s-1.1-2.5-2.5-2.5c-1.4,0-2.5,1.1-2.5,2.5S316.2,380.8,317.6,380.8"/>
<polygon fill="#CCCCCC" points="391.2,478.3 390,478.3 390,455.7 399.2,446.5 399.2,357.1 414.2,357.1 414.2,338 397.2,321 
	397.2,265.3 398.4,265.3 398.4,320.5 415.4,337.5 415.4,358.4 400.4,358.4 400.4,447 391.2,456.2 "/>
<path fill="#CCCCCC" d="M397.8,267.8c1.4,0,2.5-1.1,2.5-2.5c0-1.4-1.1-2.5-2.5-2.5c-1.4,0-2.5,1.1-2.5,2.5
	C395.3,266.7,396.4,267.8,397.8,267.8"/>
<path fill="#CCCCCC" d="M390.6,480.8c1.4,0,2.5-1.1,2.5-2.5s-1.1-2.5-2.5-2.5c-1.4,0-2.5,1.1-2.5,2.5S389.2,480.8,390.6,480.8"/>
<polygon fill="#CCCCCC" points="404.5,453.4 403.6,452.5 412.2,444 412.2,365.1 424.2,365.1 424.2,333 409.2,318 409.2,265.3 
	410.4,265.3 410.4,317.5 425.4,332.5 425.4,366.4 413.4,366.4 413.4,444.5 "/>
<path fill="#CCCCCC" d="M409.8,267.8c1.4,0,2.5-1.1,2.5-2.5c0-1.4-1.1-2.5-2.5-2.5c-1.4,0-2.5,1.1-2.5,2.5
	C407.3,266.7,408.4,267.8,409.8,267.8"/>
<path fill="#CCCCCC" d="M404,455.5c1.4,0,2.5-1.1,2.5-2.5c0-1.4-1.1-2.5-2.5-2.5c-1.4,0-2.5,1.1-2.5,2.5
	C401.5,454.4,402.7,455.5,404,455.5"/>
<polygon fill="#CCCCCC" points="253.7,414.3 252.5,414.3 252.5,387.5 259.5,380.5 259.5,330 244.5,315 244.5,265.3 245.7,265.3 
	245.7,314.5 260.7,329.5 260.7,381 253.7,388 "/>
<path fill="#CCCCCC" d="M245.1,267.8c1.4,0,2.5-1.1,2.5-2.5c0-1.4-1.1-2.5-2.5-2.5c-1.4,0-2.5,1.1-2.5,2.5
	C242.6,266.7,243.7,267.8,245.1,267.8"/>
<path fill="#CCCCCC" d="M253.1,416.8c1.4,0,2.5-1.1,2.5-2.5s-1.1-2.5-2.5-2.5c-1.4,0-2.5,1.1-2.5,2.5S251.7,416.8,253.1,416.8"/>
<polygon fill="#CCCCCC" points="264.4,370.7 263.5,369.8 267.5,365.9 267.5,312 258.5,303 258.5,265.3 259.7,265.3 259.7,302.5 
	268.7,311.5 268.7,366.4 "/>
<path fill="#CCCCCC" d="M259.1,267.8c1.4,0,2.5-1.1,2.5-2.5c0-1.4-1.1-2.5-2.5-2.5c-1.4,0-2.5,1.1-2.5,2.5
	C256.6,266.7,257.7,267.8,259.1,267.8"/>
<path fill="#CCCCCC" d="M264,372.7c1.4,0,2.5-1.1,2.5-2.5s-1.1-2.5-2.5-2.5c-1.4,0-2.5,1.1-2.5,2.5S262.6,372.7,264,372.7"/>
<polygon fill="#CCCCCC" points="279.7,370 278.5,370 278.5,295 266.5,283 266.5,265.3 267.7,265.3 267.7,282.5 279.7,294.5 "/>
<path fill="#CCCCCC" d="M267.1,267.8c1.4,0,2.5-1.1,2.5-2.5c0-1.4-1.1-2.5-2.5-2.5c-1.4,0-2.5,1.1-2.5,2.5
	C264.6,266.7,265.7,267.8,267.1,267.8"/>
<path fill="#CCCCCC" d="M279.1,372.5c1.4,0,2.5-1.1,2.5-2.5s-1.1-2.5-2.5-2.5c-1.4,0-2.5,1.1-2.5,2.5S277.7,372.5,279.1,372.5"/>
<polygon fill="#CCCCCC" points="139.3,442.6 138,442.6 138,411.4 124.5,397.9 124.5,373.8 124.7,373.7 146.9,351.5 146.9,332.6 
	148.1,332.6 148.1,352 148,352.2 125.8,374.4 125.8,397.3 139.3,410.8 "/>
<path fill="#CCCCCC" d="M138.7,440.1c-1.4,0-2.5,1.1-2.5,2.5c0,1.4,1.1,2.5,2.5,2.5s2.5-1.1,2.5-2.5
	C141.2,441.2,140,440.1,138.7,440.1"/>
<path fill="#CCCCCC" d="M147.5,330.1c-1.4,0-2.5,1.1-2.5,2.5c0,1.4,1.1,2.5,2.5,2.5s2.5-1.1,2.5-2.5
	C150,331.2,148.9,330.1,147.5,330.1"/>
<polygon fill="#CCCCCC" points="305,386.3 303.7,386.3 303.7,346.6 287.5,331.5 287.5,265.3 288.7,265.3 288.7,331 305,346 "/>
<path fill="#CCCCCC" d="M288.1,267.8c1.4,0,2.5-1.1,2.5-2.5c0-1.4-1.1-2.5-2.5-2.5c-1.4,0-2.5,1.1-2.5,2.5
	C285.6,266.7,286.7,267.8,288.1,267.8"/>
<path fill="#CCCCCC" d="M304.4,388.8c1.4,0,2.5-1.1,2.5-2.5s-1.1-2.5-2.5-2.5c-1.4,0-2.5,1.1-2.5,2.5S303,388.8,304.4,388.8"/>
<polygon fill="#CCCCCC" points="406.2,499.3 404.9,499.3 404.9,475.1 405.1,474.9 423.8,456.2 423.8,371.1 434.5,371.1 434.5,331.7 
	416.9,314 416.9,265.3 418.1,265.3 418.1,313.5 435.8,331.2 435.8,372.4 425,372.4 425,456.7 424.9,456.9 406.2,475.6 "/>
<path fill="#CCCCCC" d="M417.5,267.8c1.4,0,2.5-1.1,2.5-2.5c0-1.4-1.1-2.5-2.5-2.5c-1.4,0-2.5,1.1-2.5,2.5
	C415,266.7,416.1,267.8,417.5,267.8"/>
<path fill="#CCCCCC" d="M405.5,501.8c1.4,0,2.5-1.1,2.5-2.5s-1.1-2.5-2.5-2.5c-1.4,0-2.5,1.1-2.5,2.5S404.2,501.8,405.5,501.8"/>
<polygon fill="#CCCCCC" points="418,513.3 416.8,513.3 416.8,483.9 417,483.7 435.2,465.5 435.2,392.4 455.3,392.4 455.3,309.9 
	426.2,280.8 426.2,265.3 427.5,265.3 427.5,280.3 456.6,309.4 456.6,393.6 436.4,393.6 436.4,466 436.2,466.2 418,484.4 "/>
<path fill="#CCCCCC" d="M426.9,267.8c1.4,0,2.5-1.1,2.5-2.5c0-1.4-1.1-2.5-2.5-2.5c-1.4,0-2.5,1.1-2.5,2.5
	C424.4,266.7,425.5,267.8,426.9,267.8"/>
<path fill="#CCCCCC" d="M417.4,515.8c1.4,0,2.5-1.1,2.5-2.5c0-1.4-1.1-2.5-2.5-2.5c-1.4,0-2.5,1.1-2.5,2.5
	C414.9,514.7,416,515.8,417.4,515.8"/>
<polygon fill="#CCCCCC" points="431.5,540.3 430.2,540.3 430.2,526.5 430.4,526.3 446.2,510.5 446.2,408.1 467.2,408.1 467.2,309 
	445.2,287 445.2,265.3 446.4,265.3 446.4,286.5 468.4,308.5 468.4,409.4 447.5,409.4 447.5,511 447.3,511.2 431.5,527 "/>
<path fill="#CCCCCC" d="M430.9,542.8c1.4,0,2.5-1.1,2.5-2.5c0-1.4-1.1-2.5-2.5-2.5c-1.4,0-2.5,1.1-2.5,2.5
	C428.4,541.7,429.5,542.8,430.9,542.8"/>
<path fill="#CCCCCC" d="M445.8,267.8c1.4,0,2.5-1.1,2.5-2.5c0-1.4-1.1-2.5-2.5-2.5c-1.4,0-2.5,1.1-2.5,2.5
	C443.3,266.7,444.4,267.8,445.8,267.8"/>
<polygon fill="#CCCCCC" points="482.1,477.5 480.9,477.5 480.9,422.7 481,422.5 499.2,404.4 499.2,343.4 483,343.4 483,300 
	462.5,279.5 462.5,265.3 463.8,265.3 463.8,279 484.3,299.5 484.3,342.1 500.4,342.1 500.4,404.9 500.2,405.1 482.1,423.2 "/>
<path fill="#CCCCCC" d="M463.2,267.8c1.4,0,2.5-1.1,2.5-2.5c0-1.4-1.1-2.5-2.5-2.5c-1.4,0-2.5,1.1-2.5,2.5
	C460.7,266.7,461.8,267.8,463.2,267.8"/>
<path fill="#CCCCCC" d="M481.5,480c1.4,0,2.5-1.1,2.5-2.5c0-1.4-1.1-2.5-2.5-2.5c-1.4,0-2.5,1.1-2.5,2.5
	C479,478.8,480.1,480,481.5,480"/>
<polygon fill="#CCCCCC" points="461.2,504.3 460,504.3 460,427 460.1,426.8 474.9,412.1 474.9,362.6 476.2,362.6 476.2,412.6 
	476,412.8 461.2,427.5 "/>
<path fill="#CCCCCC" d="M475.5,365.1c1.4,0,2.5-1.1,2.5-2.5c0-1.4-1.1-2.5-2.5-2.5c-1.4,0-2.5,1.1-2.5,2.5
	C473,364,474.2,365.1,475.5,365.1"/>
<path fill="#CCCCCC" d="M460.6,506.8c1.4,0,2.5-1.1,2.5-2.5s-1.1-2.5-2.5-2.5c-1.4,0-2.5,1.1-2.5,2.5S459.2,506.8,460.6,506.8"/>
<polygon fill="#CCCCCC" points="512.4,561.3 511.2,561.3 511.2,539.5 511.3,539.3 530.2,520.5 530.2,495.4 509.2,495.4 509.2,334.1 
	523.9,334.1 523.9,303.8 509.2,289 509.2,265.3 510.4,265.3 510.4,288.5 525.2,303.3 525.2,335.4 510.4,335.4 510.4,494.1 
	531.4,494.1 531.4,521 531.2,521.2 512.4,540 "/>
<path fill="#CCCCCC" d="M509.8,267.8c1.4,0,2.5-1.1,2.5-2.5c0-1.4-1.1-2.5-2.5-2.5c-1.4,0-2.5,1.1-2.5,2.5
	C507.3,266.7,508.4,267.8,509.8,267.8"/>
<path fill="#CCCCCC" d="M511.8,563.8c1.4,0,2.5-1.1,2.5-2.5c0-1.4-1.1-2.5-2.5-2.5c-1.4,0-2.5,1.1-2.5,2.5
	C509.3,562.7,510.4,563.8,511.8,563.8"/>
<polygon fill="#CCCCCC" points="365.3,515.3 364.1,515.3 364.1,427.6 379.3,427.6 379.3,367 363.3,351 363.3,265.3 364.6,265.3 
	364.6,350.5 380.6,366.5 380.6,428.9 365.3,428.9 "/>
<path fill="#CCCCCC" d="M363.9,267.8c1.4,0,2.5-1.1,2.5-2.5c0-1.4-1.1-2.5-2.5-2.5c-1.4,0-2.5,1.1-2.5,2.5
	C361.4,266.7,362.6,267.8,363.9,267.8"/>
<path fill="#CCCCCC" d="M364.7,517.8c1.4,0,2.5-1.1,2.5-2.5c0-1.4-1.1-2.5-2.5-2.5c-1.4,0-2.5,1.1-2.5,2.5
	C362.2,516.7,363.3,517.8,364.7,517.8"/>
<polygon fill="#CCCCCC" points="373.6,513.3 372.4,513.3 372.4,436.6 388.3,436.6 388.3,365 372.4,349 372.4,265.3 373.6,265.3 
	373.6,348.5 389.6,364.5 389.6,437.9 373.6,437.9 "/>
<path fill="#CCCCCC" d="M373,267.8c1.4,0,2.5-1.1,2.5-2.5c0-1.4-1.1-2.5-2.5-2.5c-1.4,0-2.5,1.1-2.5,2.5
	C370.5,266.7,371.6,267.8,373,267.8"/>
<path fill="#CCCCCC" d="M373,515.8c1.4,0,2.5-1.1,2.5-2.5c0-1.4-1.1-2.5-2.5-2.5c-1.4,0-2.5,1.1-2.5,2.5
	C370.5,514.7,371.6,515.8,373,515.8"/>
<polygon fill="#CCCCCC" points="358.6,493.3 357.3,493.3 357.3,415 369.9,415 369.9,367.6 353.3,351 353.3,265.3 354.6,265.3 
	354.6,350.5 371.2,367.1 371.2,416.2 358.6,416.2 "/>
<path fill="#CCCCCC" d="M353.9,267.8c1.4,0,2.5-1.1,2.5-2.5c0-1.4-1.1-2.5-2.5-2.5c-1.4,0-2.5,1.1-2.5,2.5
	C351.4,266.7,352.6,267.8,353.9,267.8"/>
<path fill="#CCCCCC" d="M357.9,495.8c1.4,0,2.5-1.1,2.5-2.5s-1.1-2.5-2.5-2.5c-1.4,0-2.5,1.1-2.5,2.5S356.6,495.8,357.9,495.8"/>
<polygon fill="#CCCCCC" points="204.2,418.9 203,418.9 203,391 203.1,390.9 220.8,373.2 220.8,293.3 234.3,293.3 234.3,265.3 
	235.6,265.3 235.6,294.6 222.1,294.6 222.1,373.7 221.9,373.9 204.2,391.6 "/>
<path fill="#CCCCCC" d="M234.9,267.8c1.4,0,2.5-1.1,2.5-2.5c0-1.4-1.1-2.5-2.5-2.5c-1.4,0-2.5,1.1-2.5,2.5
	C232.4,266.7,233.6,267.8,234.9,267.8"/>
<path fill="#CCCCCC" d="M203.6,421.4c1.4,0,2.5-1.1,2.5-2.5c0-1.4-1.1-2.5-2.5-2.5c-1.4,0-2.5,1.1-2.5,2.5
	C201.1,420.3,202.2,421.4,203.6,421.4"/>
<polygon fill="#CCCCCC" points="161.9,435.8 160.6,435.8 160.6,403.6 175.6,403.6 175.6,354 157.1,335.5 157.1,266.8 158.4,266.8 
	158.4,335 176.9,353.5 176.9,404.9 161.9,404.9 "/>
<path fill="#CCCCCC" d="M157.7,269.3c1.4,0,2.5-1.1,2.5-2.5c0-1.4-1.1-2.5-2.5-2.5c-1.4,0-2.5,1.1-2.5,2.5
	C155.2,268.2,156.4,269.3,157.7,269.3"/>
<path fill="#CCCCCC" d="M161.2,438.3c1.4,0,2.5-1.1,2.5-2.5s-1.1-2.5-2.5-2.5c-1.4,0-2.5,1.1-2.5,2.5S159.9,438.3,161.2,438.3"/>
<polygon fill="#CCCCCC" points="158.4,506.8 157.1,506.8 157.1,453 166.4,443.7 166.4,409.5 183.4,409.5 183.4,350.5 165.4,332.5 
	165.4,274.6 174.4,274.6 174.4,275.9 166.7,275.9 166.7,332 184.7,350 184.7,410.7 167.7,410.7 167.7,444.2 158.4,453.5 "/>
<path fill="#CCCCCC" d="M174.4,277.8c1.4,0,2.5-1.1,2.5-2.5c0-1.4-1.1-2.5-2.5-2.5c-1.4,0-2.5,1.1-2.5,2.5
	C171.9,276.7,173,277.8,174.4,277.8"/>
<path fill="#CCCCCC" d="M157.7,509.3c1.4,0,2.5-1.1,2.5-2.5s-1.1-2.5-2.5-2.5c-1.4,0-2.5,1.1-2.5,2.5S156.4,509.3,157.7,509.3"/>
<polygon fill="#CCCCCC" points="179.7,498.8 167.1,498.8 167.1,459.6 176,450.7 176,418.1 191.6,418.1 191.6,347.5 176.6,332.5 
	176.6,283.6 190.7,283.6 190.7,284.9 177.9,284.9 177.9,332 192.9,347 192.9,419.4 177.2,419.4 177.2,451.2 168.4,460.1 
	168.4,497.5 179.7,497.5 "/>
<path fill="#CCCCCC" d="M190.7,286.8c1.4,0,2.5-1.1,2.5-2.5c0-1.4-1.1-2.5-2.5-2.5c-1.4,0-2.5,1.1-2.5,2.5
	C188.2,285.7,189.4,286.8,190.7,286.8"/>
<path fill="#CCCCCC" d="M179.7,500.6c1.4,0,2.5-1.1,2.5-2.5s-1.1-2.5-2.5-2.5c-1.4,0-2.5,1.1-2.5,2.5S178.4,500.6,179.7,500.6"/>
<polyline fill="#CCCCCC" points="50.1,466.9 87.5,466.9 87.5,475.3 88.8,475.3 88.8,465.6 49.5,465.6 "/>
<path fill="#CCCCCC" d="M90.6,475.3c0,1.4-1.1,2.5-2.5,2.5c-1.4,0-2.5-1.1-2.5-2.5s1.1-2.5,2.5-2.5
	C89.5,472.8,90.6,473.9,90.6,475.3"/>
<polyline fill="#CCCCCC" points="40.4,473.7 77.8,473.7 77.8,489 79.1,489 79.1,472.4 39.9,472.4 "/>
<path fill="#CCCCCC" d="M81,489c0,1.4-1.1,2.5-2.5,2.5c-1.4,0-2.5-1.1-2.5-2.5c0-1.4,1.1-2.5,2.5-2.5C79.8,486.5,81,487.7,81,489"/>
<polygon fill="#CCCCCC" points="121.8,401.3 120.5,401.3 120.5,350.7 120.7,350.5 138.2,333 138.2,264.8 139.5,264.8 139.5,333.5 
	139.3,333.7 121.8,351.2 "/>
<path fill="#CCCCCC" d="M138.9,267.3c1.4,0,2.5-1.1,2.5-2.5c0-1.4-1.1-2.5-2.5-2.5s-2.5,1.1-2.5,2.5
	C136.4,266.2,137.5,267.3,138.9,267.3"/>
<path fill="#CCCCCC" d="M121.2,403.8c1.4,0,2.5-1.1,2.5-2.5s-1.1-2.5-2.5-2.5c-1.4,0-2.5,1.1-2.5,2.5S119.8,403.8,121.2,403.8"/>
<polygon fill="#CCCCCC" points="114,387.3 112.7,387.3 112.7,342.5 112.9,342.3 129.2,326 129.2,270.8 130.5,270.8 130.5,326.5 
	130.3,326.7 114,343 "/>
<path fill="#CCCCCC" d="M129.9,273.3c1.4,0,2.5-1.1,2.5-2.5c0-1.4-1.1-2.5-2.5-2.5s-2.5,1.1-2.5,2.5
	C127.4,272.2,128.5,273.3,129.9,273.3"/>
<path fill="#CCCCCC" d="M113.4,389.8c1.4,0,2.5-1.1,2.5-2.5s-1.1-2.5-2.5-2.5c-1.4,0-2.5,1.1-2.5,2.5S112,389.8,113.4,389.8"/>
<rect x="43.1" y="265.9" fill="#CCCCCC" width="43" height="1.2"/>
<path fill="#CCCCCC" d="M43.1,269c1.4,0,2.5-1.1,2.5-2.5c0-1.4-1.1-2.5-2.5-2.5c-1.4,0-2.5,1.1-2.5,2.5
	C40.6,267.9,41.7,269,43.1,269"/>
<path fill="#CCCCCC" d="M86.1,269c1.4,0,2.5-1.1,2.5-2.5c0-1.4-1.1-2.5-2.5-2.5c-1.4,0-2.5,1.1-2.5,2.5
	C83.6,267.9,84.7,269,86.1,269"/>
<rect x="49.1" y="273.9" fill="#CCCCCC" width="21" height="1.2"/>
<path fill="#CCCCCC" d="M49.1,277c1.4,0,2.5-1.1,2.5-2.5c0-1.4-1.1-2.5-2.5-2.5c-1.4,0-2.5,1.1-2.5,2.5
	C46.6,275.9,47.7,277,49.1,277"/>
<path fill="#CCCCCC" d="M70.1,277c1.4,0,2.5-1.1,2.5-2.5c0-1.4-1.1-2.5-2.5-2.5c-1.4,0-2.5,1.1-2.5,2.5
	C67.6,275.9,68.7,277,70.1,277"/>
<rect x="51.1" y="250.9" fill="#CCCCCC" width="47" height="1.2"/>
<path fill="#CCCCCC" d="M51.1,254c1.4,0,2.5-1.1,2.5-2.5s-1.1-2.5-2.5-2.5c-1.4,0-2.5,1.1-2.5,2.5S49.7,254,51.1,254"/>
<path fill="#CCCCCC" d="M98.1,254c1.4,0,2.5-1.1,2.5-2.5s-1.1-2.5-2.5-2.5c-1.4,0-2.5,1.1-2.5,2.5S96.7,254,98.1,254"/>
<rect x="46.6" y="439.5" fill="#CCCCCC" width="47" height="1.2"/>
<path fill="#CCCCCC" d="M46.6,442.6c1.4,0,2.5-1.1,2.5-2.5c0-1.4-1.1-2.5-2.5-2.5c-1.4,0-2.5,1.1-2.5,2.5
	C44.1,441.5,45.2,442.6,46.6,442.6"/>
<path fill="#CCCCCC" d="M93.6,442.6c1.4,0,2.5-1.1,2.5-2.5c0-1.4-1.1-2.5-2.5-2.5c-1.4,0-2.5,1.1-2.5,2.5
	C91.1,441.5,92.2,442.6,93.6,442.6"/>
<rect x="50.1" y="459.2" fill="#CCCCCC" width="47" height="1.2"/>
<path fill="#CCCCCC" d="M50.1,462.3c1.4,0,2.5-1.1,2.5-2.5s-1.1-2.5-2.5-2.5c-1.4,0-2.5,1.1-2.5,2.5S48.7,462.3,50.1,462.3"/>
<path fill="#CCCCCC" d="M97.1,462.3c1.4,0,2.5-1.1,2.5-2.5s-1.1-2.5-2.5-2.5c-1.4,0-2.5,1.1-2.5,2.5S95.7,462.3,97.1,462.3"/>
<polygon fill="#CCCCCC" points="48.8,301.1 12.1,301.1 12.1,299.9 48.3,299.9 65.3,282.9 87.1,282.9 87.1,284.1 65.8,284.1 "/>
<path fill="#CCCCCC" d="M12.1,303c1.4,0,2.5-1.1,2.5-2.5s-1.1-2.5-2.5-2.5s-2.5,1.1-2.5,2.5S10.7,303,12.1,303"/>
<path fill="#CCCCCC" d="M87.1,286c1.4,0,2.5-1.1,2.5-2.5s-1.1-2.5-2.5-2.5c-1.4,0-2.5,1.1-2.5,2.5S85.7,286,87.1,286"/>
<polygon fill="#CCCCCC" points="49.8,311.1 15.1,311.1 15.1,309.9 49.3,309.9 67.8,291.4 100.6,291.4 100.6,292.6 68.3,292.6 "/>
<path fill="#CCCCCC" d="M15.1,313c1.4,0,2.5-1.1,2.5-2.5s-1.1-2.5-2.5-2.5c-1.4,0-2.5,1.1-2.5,2.5S13.7,313,15.1,313"/>
<path fill="#CCCCCC" d="M100.6,294.5c1.4,0,2.5-1.1,2.5-2.5s-1.1-2.5-2.5-2.5c-1.4,0-2.5,1.1-2.5,2.5S99.2,294.5,100.6,294.5"/>
<rect x="51.1" y="156.9" fill="#CCCCCC" width="36" height="1.2"/>
<path fill="#CCCCCC" d="M51.1,160c1.4,0,2.5-1.1,2.5-2.5c0-1.4-1.1-2.5-2.5-2.5c-1.4,0-2.5,1.1-2.5,2.5
	C48.6,158.9,49.7,160,51.1,160"/>
<path fill="#CCCCCC" d="M87.1,160c1.4,0,2.5-1.1,2.5-2.5c0-1.4-1.1-2.5-2.5-2.5c-1.4,0-2.5,1.1-2.5,2.5
	C84.6,158.9,85.7,160,87.1,160"/>
<rect x="51.1" y="146.9" fill="#CCCCCC" width="27" height="1.2"/>
<path fill="#CCCCCC" d="M51.1,150c1.4,0,2.5-1.1,2.5-2.5c0-1.4-1.1-2.5-2.5-2.5c-1.4,0-2.5,1.1-2.5,2.5
	C48.6,148.9,49.7,150,51.1,150"/>
<path fill="#CCCCCC" d="M78.1,150c1.4,0,2.5-1.1,2.5-2.5c0-1.4-1.1-2.5-2.5-2.5c-1.4,0-2.5,1.1-2.5,2.5
	C75.6,148.9,76.7,150,78.1,150"/>
<rect x="52.1" y="135.9" fill="#CCCCCC" width="14.5" height="1.2"/>
<path fill="#CCCCCC" d="M52.1,139c1.4,0,2.5-1.1,2.5-2.5c0-1.4-1.1-2.5-2.5-2.5c-1.4,0-2.5,1.1-2.5,2.5
	C49.6,137.9,50.7,139,52.1,139"/>
<path fill="#CCCCCC" d="M66.6,139c1.4,0,2.5-1.1,2.5-2.5c0-1.4-1.1-2.5-2.5-2.5c-1.4,0-2.5,1.1-2.5,2.5
	C64.1,137.9,65.2,139,66.6,139"/>
<polygon fill="#CCCCCC" points="92.8,107.1 8.1,107.1 8.1,105.9 92.3,105.9 109.3,88.9 160.1,88.9 160.1,90.1 109.8,90.1 "/>
<path fill="#CCCCCC" d="M160.1,92c1.4,0,2.5-1.1,2.5-2.5c0-1.4-1.1-2.5-2.5-2.5c-1.4,0-2.5,1.1-2.5,2.5
	C157.6,90.9,158.7,92,160.1,92"/>
<path fill="#CCCCCC" d="M8.1,109c1.4,0,2.5-1.1,2.5-2.5c0-1.4-1.1-2.5-2.5-2.5s-2.5,1.1-2.5,2.5C5.6,107.9,6.7,109,8.1,109"/>
<polygon fill="#CCCCCC" points="87.8,96.3 2.1,96.3 2.1,95 87.3,95 103.9,78.5 149.1,78.5 149.1,79.7 104.4,79.7 "/>
<path fill="#CCCCCC" d="M149.1,81.6c1.4,0,2.5-1.1,2.5-2.5c0-1.4-1.1-2.5-2.5-2.5c-1.4,0-2.5,1.1-2.5,2.5
	C146.6,80.5,147.7,81.6,149.1,81.6"/>
<path fill="#CCCCCC" d="M2.1,98.2c1.4,0,2.5-1.1,2.5-2.5c0-1.4-1.1-2.5-2.5-2.5s-2.5,1.1-2.5,2.5C-0.4,97,0.7,98.2,2.1,98.2"/>
<polygon fill="#CCCCCC" points="78,86 29.1,86 29.1,84.8 77.4,84.8 93.3,68.9 140.6,68.9 140.6,70.1 93.8,70.1 "/>
<path fill="#CCCCCC" d="M140.6,72c1.4,0,2.5-1.1,2.5-2.5c0-1.4-1.1-2.5-2.5-2.5c-1.4,0-2.5,1.1-2.5,2.5
	C138.1,70.9,139.2,72,140.6,72"/>
<path fill="#CCCCCC" d="M29.1,87.9c1.4,0,2.5-1.1,2.5-2.5c0-1.4-1.1-2.5-2.5-2.5c-1.4,0-2.5,1.1-2.5,2.5
	C26.6,86.8,27.7,87.9,29.1,87.9"/>
<polygon fill="#CCCCCC" points="70.3,78.6 38.1,78.6 38.1,77.4 69.8,77.4 88.3,58.9 129.6,58.9 129.6,60.1 88.8,60.1 "/>
<path fill="#CCCCCC" d="M129.6,62c1.4,0,2.5-1.1,2.5-2.5c0-1.4-1.1-2.5-2.5-2.5c-1.4,0-2.5,1.1-2.5,2.5
	C127.1,60.9,128.2,62,129.6,62"/>
<path fill="#CCCCCC" d="M38.1,80.5c1.4,0,2.5-1.1,2.5-2.5c0-1.4-1.1-2.5-2.5-2.5c-1.4,0-2.5,1.1-2.5,2.5
	C35.6,79.4,36.7,80.5,38.1,80.5"/>
<polygon fill="#CCCCCC" points="69.3,66.7 48.1,66.7 48.1,65.5 68.8,65.5 84.6,49.7 138.4,49.7 138.4,51 85.1,51 "/>
<path fill="#CCCCCC" d="M138.4,52.9c1.4,0,2.5-1.1,2.5-2.5c0-1.4-1.1-2.5-2.5-2.5c-1.4,0-2.5,1.1-2.5,2.5
	C135.9,51.7,137,52.9,138.4,52.9"/>
<path fill="#CCCCCC" d="M48.1,68.6c1.4,0,2.5-1.1,2.5-2.5c0-1.4-1.1-2.5-2.5-2.5c-1.4,0-2.5,1.1-2.5,2.5
	C45.6,67.5,46.7,68.6,48.1,68.6"/>
<rect x="50.1" y="28.4" fill="#CCCCCC" width="37" height="1.2"/>
<path fill="#CCCCCC" d="M87.1,31.5c1.4,0,2.5-1.1,2.5-2.5c0-1.4-1.1-2.5-2.5-2.5c-1.4,0-2.5,1.1-2.5,2.5
	C84.6,30.4,85.7,31.5,87.1,31.5"/>
<path fill="#CCCCCC" d="M50.1,31.5c1.4,0,2.5-1.1,2.5-2.5c0-1.4-1.1-2.5-2.5-2.5c-1.4,0-2.5,1.1-2.5,2.5
	C47.6,30.4,48.7,31.5,50.1,31.5"/>
<rect x="49.1" y="11.9" fill="#CCCCCC" width="32.2" height="1.2"/>
<path fill="#CCCCCC" d="M81.3,15c1.4,0,2.5-1.1,2.5-2.5c0-1.4-1.1-2.5-2.5-2.5c-1.4,0-2.5,1.1-2.5,2.5C78.8,13.9,80,15,81.3,15"/>
<path fill="#CCCCCC" d="M49.1,15c1.4,0,2.5-1.1,2.5-2.5c0-1.4-1.1-2.5-2.5-2.5c-1.4,0-2.5,1.1-2.5,2.5C46.6,13.9,47.7,15,49.1,15"/>
<rect x="25.1" y="1.9" fill="#CCCCCC" width="45.5" height="1.2"/>
<path fill="#CCCCCC" d="M70.6,5c1.4,0,2.5-1.1,2.5-2.5C73.1,1.1,72,0,70.6,0c-1.4,0-2.5,1.1-2.5,2.5C68.1,3.9,69.2,5,70.6,5"/>
<path fill="#CCCCCC" d="M25.1,5c1.4,0,2.5-1.1,2.5-2.5c0-1.4-1.1-2.5-2.5-2.5c-1.4,0-2.5,1.1-2.5,2.5C22.6,3.9,23.7,5,25.1,5"/>
</svg>
