<?xml version="1.0" encoding="utf-8"?>
<!-- Generator: Adobe Illustrator 18.1.0, SVG Export Plug-In . SVG Version: 6.00 Build 0)  -->
<svg version="1.1" id="Layer_1" xmlns="http://www.w3.org/2000/svg" xmlns:xlink="http://www.w3.org/1999/xlink" x="0px" y="0px"
	 viewBox="-65 -181 530 562" enable-background="new -65 -181 530 562" xml:space="preserve">
<polygon fill="#CCCCCC" points="275,216.2 273.8,216.2 273.8,152.9 255.9,134.9 255.9,83.4 257.1,83.4 257.1,134.4 275,152.4 "/>
<path fill="#CCCCCC" d="M256.5,85.9c1.4,0,2.5-1.1,2.5-2.5s-1.1-2.5-2.5-2.5c-1.4,0-2.5,1.1-2.5,2.5C254,84.8,255.1,85.9,256.5,85.9
	"/>
<path fill="#CCCCCC" d="M274.4,218.7c1.4,0,2.5-1.1,2.5-2.5c0-1.4-1.1-2.5-2.5-2.5s-2.5,1.1-2.5,2.5
	C271.9,217.6,273,218.7,274.4,218.7"/>
<polygon fill="#CCCCCC" points="262.8,213.9 261.6,213.9 261.6,152.9 244.6,135.9 244.6,83.4 245.8,83.4 245.8,135.4 262.8,152.4 
	"/>
<path fill="#CCCCCC" d="M245.2,85.9c1.4,0,2.5-1.1,2.5-2.5s-1.1-2.5-2.5-2.5c-1.4,0-2.5,1.1-2.5,2.5
	C242.7,84.8,243.8,85.9,245.2,85.9"/>
<path fill="#CCCCCC" d="M262.2,216.4c1.4,0,2.5-1.1,2.5-2.5c0-1.4-1.1-2.5-2.5-2.5c-1.4,0-2.5,1.1-2.5,2.5
	C259.7,215.3,260.8,216.4,262.2,216.4"/>
<polygon fill="#CCCCCC" points="252.6,196 251.4,196 251.4,165.3 233,146.9 233,83.4 234.2,83.4 234.2,146.4 252.6,164.8 "/>
<path fill="#CCCCCC" d="M233.6,85.9c1.4,0,2.5-1.1,2.5-2.5s-1.1-2.5-2.5-2.5s-2.5,1.1-2.5,2.5C231.1,84.8,232.2,85.9,233.6,85.9"/>
<path fill="#CCCCCC" d="M252,198.5c1.4,0,2.5-1.1,2.5-2.5c0-1.4-1.1-2.5-2.5-2.5s-2.5,1.1-2.5,2.5
	C249.5,197.4,250.6,198.5,252,198.5"/>
<polygon fill="#CCCCCC" points="325.3,295.7 324.1,295.7 324.1,273.1 333.3,264 333.3,174.9 348.3,174.9 348.3,155.8 331.3,138.9 
	331.3,83.4 332.5,83.4 332.5,138.4 349.5,155.3 349.5,176.2 334.5,176.2 334.5,264.5 325.3,273.6 "/>
<path fill="#CCCCCC" d="M331.9,85.9c1.4,0,2.5-1.1,2.5-2.5s-1.1-2.5-2.5-2.5c-1.4,0-2.5,1.1-2.5,2.5
	C329.4,84.8,330.5,85.9,331.9,85.9"/>
<path fill="#CCCCCC" d="M324.7,298.2c1.4,0,2.5-1.1,2.5-2.5s-1.1-2.5-2.5-2.5c-1.4,0-2.5,1.1-2.5,2.5S323.4,298.2,324.7,298.2"/>
<polygon fill="#CCCCCC" points="338.6,270.9 337.7,270 346.3,261.5 346.3,182.9 358.2,182.9 358.2,150.9 343.3,135.9 343.3,83.4 
	344.5,83.4 344.5,135.4 359.4,150.4 359.4,184.1 347.5,184.1 347.5,262 "/>
<path fill="#CCCCCC" d="M343.9,85.9c1.4,0,2.5-1.1,2.5-2.5s-1.1-2.5-2.5-2.5c-1.4,0-2.5,1.1-2.5,2.5
	C341.4,84.8,342.5,85.9,343.9,85.9"/>
<path fill="#CCCCCC" d="M338.1,272.9c1.4,0,2.5-1.1,2.5-2.5s-1.1-2.5-2.5-2.5s-2.5,1.1-2.5,2.5S336.8,272.9,338.1,272.9"/>
<polygon fill="#CCCCCC" points="188.3,231.9 187.1,231.9 187.1,205.2 194.1,198.2 194.1,147.9 179.1,132.9 179.1,83.4 180.3,83.4 
	180.3,132.4 195.3,147.4 195.3,198.7 188.3,205.7 "/>
<path fill="#CCCCCC" d="M179.7,85.9c1.4,0,2.5-1.1,2.5-2.5s-1.1-2.5-2.5-2.5c-1.4,0-2.5,1.1-2.5,2.5
	C177.3,84.8,178.4,85.9,179.7,85.9"/>
<path fill="#CCCCCC" d="M187.7,234.4c1.4,0,2.5-1.1,2.5-2.5c0-1.4-1.1-2.5-2.5-2.5s-2.5,1.1-2.5,2.5
	C185.2,233.3,186.3,234.4,187.7,234.4"/>
<polygon fill="#CCCCCC" points="199,188.4 198.1,187.5 202.1,183.6 202.1,129.9 193.1,121 193.1,83.4 194.3,83.4 194.3,120.5 
	203.3,129.4 203.3,184.1 "/>
<path fill="#CCCCCC" d="M193.7,85.9c1.4,0,2.5-1.1,2.5-2.5s-1.1-2.5-2.5-2.5c-1.4,0-2.5,1.1-2.5,2.5
	C191.2,84.8,192.3,85.9,193.7,85.9"/>
<path fill="#CCCCCC" d="M198.6,190.4c1.4,0,2.5-1.1,2.5-2.5c0-1.4-1.1-2.5-2.5-2.5s-2.5,1.1-2.5,2.5
	C196.1,189.3,197.2,190.4,198.6,190.4"/>
<polygon fill="#CCCCCC" points="214.2,187.7 213,187.7 213,113 201.1,101 201.1,83.4 202.3,83.4 202.3,100.5 214.2,112.5 "/>
<path fill="#CCCCCC" d="M201.7,85.9c1.4,0,2.5-1.1,2.5-2.5s-1.1-2.5-2.5-2.5s-2.5,1.1-2.5,2.5C199.2,84.8,200.3,85.9,201.7,85.9"/>
<path fill="#CCCCCC" d="M213.6,190.2c1.4,0,2.5-1.1,2.5-2.5c0-1.4-1.1-2.5-2.5-2.5s-2.5,1.1-2.5,2.5
	C211.1,189.1,212.2,190.2,213.6,190.2"/>
<polygon fill="#CCCCCC" points="74.3,260.1 73,260.1 73,229 59.6,215.5 59.6,191.5 59.8,191.4 81.9,169.3 81.9,150.5 83.1,150.5 
	83.1,169.8 83,170 60.9,192.1 60.9,214.9 74.3,228.4 "/>
<path fill="#CCCCCC" d="M73.7,257.6c-1.4,0-2.5,1.1-2.5,2.5c0,1.4,1.1,2.5,2.5,2.5s2.5-1.1,2.5-2.5C76.2,258.7,75,257.6,73.7,257.6"
	/>
<path fill="#CCCCCC" d="M82.5,148c-1.4,0-2.5,1.1-2.5,2.5c0,1.4,1.1,2.5,2.5,2.5s2.5-1.1,2.5-2.5C85,149.1,83.9,148,82.5,148"/>
<polygon fill="#CCCCCC" points="239.4,204 238.1,204 238.1,164.4 222,149.4 222,83.4 223.2,83.4 223.2,148.9 239.4,163.8 "/>
<path fill="#CCCCCC" d="M222.6,85.9c1.4,0,2.5-1.1,2.5-2.5s-1.1-2.5-2.5-2.5c-1.4,0-2.5,1.1-2.5,2.5
	C220.1,84.8,221.2,85.9,222.6,85.9"/>
<path fill="#CCCCCC" d="M238.8,206.5c1.4,0,2.5-1.1,2.5-2.5c0-1.4-1.1-2.5-2.5-2.5s-2.5,1.1-2.5,2.5
	C236.4,205.4,237.4,206.5,238.8,206.5"/>
<polygon fill="#CCCCCC" points="340.3,316.6 339,316.6 339,292.5 339.2,292.3 357.8,273.6 357.8,188.8 368.5,188.8 368.5,149.6 
	351,131.9 351,83.4 352.2,83.4 352.2,131.4 369.8,149.1 369.8,190.1 359,190.1 359,274.1 358.9,274.3 340.3,293 "/>
<path fill="#CCCCCC" d="M351.6,85.9c1.4,0,2.5-1.1,2.5-2.5s-1.1-2.5-2.5-2.5c-1.4,0-2.5,1.1-2.5,2.5
	C349.1,84.8,350.2,85.9,351.6,85.9"/>
<path fill="#CCCCCC" d="M339.6,319.1c1.4,0,2.5-1.1,2.5-2.5s-1.1-2.5-2.5-2.5c-1.4,0-2.5,1.1-2.5,2.5S338.3,319.1,339.6,319.1"/>
<polygon fill="#CCCCCC" points="352.1,330.5 350.9,330.5 350.9,301.2 351.1,301 369.2,282.9 369.2,210.1 389.2,210.1 389.2,127.8 
	360.2,98.8 360.2,83.4 361.5,83.4 361.5,98.3 390.5,127.3 390.5,211.3 370.4,211.3 370.4,283.4 370.2,283.6 352.1,301.7 "/>
<path fill="#CCCCCC" d="M360.9,85.9c1.4,0,2.5-1.1,2.5-2.5s-1.1-2.5-2.5-2.5c-1.4,0-2.5,1.1-2.5,2.5
	C358.4,84.8,359.5,85.9,360.9,85.9"/>
<path fill="#CCCCCC" d="M351.5,333c1.4,0,2.5-1.1,2.5-2.5c0-1.4-1.1-2.5-2.5-2.5s-2.5,1.1-2.5,2.5C349,331.9,350.1,333,351.5,333"/>
<polygon fill="#CCCCCC" points="365.5,357.5 364.2,357.5 364.2,343.7 364.4,343.5 380.2,327.8 380.2,225.7 401.1,225.7 401.1,126.9 
	379.2,105 379.2,83.4 380.4,83.4 380.4,104.5 402.3,126.4 402.3,227 381.5,227 381.5,328.3 381.3,328.5 365.5,344.2 "/>
<path fill="#CCCCCC" d="M364.9,359.9c1.4,0,2.5-1.1,2.5-2.5c0-1.4-1.1-2.5-2.5-2.5c-1.4,0-2.5,1.1-2.5,2.5
	C362.4,358.8,363.5,359.9,364.9,359.9"/>
<path fill="#CCCCCC" d="M379.8,85.9c1.4,0,2.5-1.1,2.5-2.5s-1.1-2.5-2.5-2.5s-2.5,1.1-2.5,2.5C377.3,84.8,378.4,85.9,379.8,85.9"/>
<polygon fill="#CCCCCC" points="415.9,294.9 414.7,294.9 414.7,240.3 414.8,240.1 433,222 433,161.2 416.8,161.2 416.8,118 
	396.4,97.5 396.4,83.4 397.7,83.4 397.7,97 418.1,117.5 418.1,159.9 434.2,159.9 434.2,222.5 434,222.7 415.9,240.8 "/>
<path fill="#CCCCCC" d="M397.1,85.9c1.4,0,2.5-1.1,2.5-2.5s-1.1-2.5-2.5-2.5c-1.4,0-2.5,1.1-2.5,2.5
	C394.6,84.8,395.7,85.9,397.1,85.9"/>
<path fill="#CCCCCC" d="M415.3,297.4c1.4,0,2.5-1.1,2.5-2.5c0-1.4-1.1-2.5-2.5-2.5c-1.4,0-2.5,1.1-2.5,2.5
	C412.8,296.2,413.9,297.4,415.3,297.4"/>
<polygon fill="#CCCCCC" points="395.1,321.6 393.9,321.6 393.9,244.5 394,244.3 408.8,229.7 408.8,180.4 410.1,180.4 410.1,230.2 
	409.9,230.4 395.1,245 "/>
<path fill="#CCCCCC" d="M409.4,182.9c1.4,0,2.5-1.1,2.5-2.5c0-1.4-1.1-2.5-2.5-2.5c-1.4,0-2.5,1.1-2.5,2.5
	C406.9,181.8,408.1,182.9,409.4,182.9"/>
<path fill="#CCCCCC" d="M394.5,324.1c1.4,0,2.5-1.1,2.5-2.5s-1.1-2.5-2.5-2.5c-1.4,0-2.5,1.1-2.5,2.5S393.1,324.1,394.5,324.1"/>
<polygon fill="#CCCCCC" points="446.1,378.4 444.9,378.4 444.9,356.7 445,356.5 463.9,337.7 463.9,312.7 442.9,312.7 442.9,152 
	457.6,152 457.6,121.8 442.9,107 442.9,83.4 444.1,83.4 444.1,106.5 458.9,121.3 458.9,153.3 444.1,153.3 444.1,311.4 465.1,311.4 
	465.1,338.2 464.9,338.4 446.1,357.2 "/>
<path fill="#CCCCCC" d="M443.5,85.9c1.4,0,2.5-1.1,2.5-2.5s-1.1-2.5-2.5-2.5c-1.4,0-2.5,1.1-2.5,2.5C441,84.8,442.1,85.9,443.5,85.9
	"/>
<path fill="#CCCCCC" d="M445.5,380.9c1.4,0,2.5-1.1,2.5-2.5s-1.1-2.5-2.5-2.5s-2.5,1.1-2.5,2.5S444.1,380.9,445.5,380.9"/>
<polygon fill="#CCCCCC" points="299.5,332.5 298.3,332.5 298.3,245.1 313.5,245.1 313.5,184.7 297.5,168.8 297.5,83.4 298.8,83.4 
	298.8,168.3 314.8,184.2 314.8,246.4 299.5,246.4 "/>
<path fill="#CCCCCC" d="M298.1,85.9c1.4,0,2.5-1.1,2.5-2.5s-1.1-2.5-2.5-2.5c-1.4,0-2.5,1.1-2.5,2.5
	C295.6,84.8,296.8,85.9,298.1,85.9"/>
<path fill="#CCCCCC" d="M298.9,335c1.4,0,2.5-1.1,2.5-2.5c0-1.4-1.1-2.5-2.5-2.5c-1.4,0-2.5,1.1-2.5,2.5
	C296.4,333.9,297.5,335,298.9,335"/>
<polygon fill="#CCCCCC" points="307.8,330.5 306.6,330.5 306.6,254.1 322.5,254.1 322.5,182.8 306.6,166.8 306.6,83.4 307.8,83.4 
	307.8,166.3 323.8,182.3 323.8,255.4 307.8,255.4 "/>
<path fill="#CCCCCC" d="M307.2,85.9c1.4,0,2.5-1.1,2.5-2.5s-1.1-2.5-2.5-2.5c-1.4,0-2.5,1.1-2.5,2.5
	C304.7,84.8,305.8,85.9,307.2,85.9"/>
<path fill="#CCCCCC" d="M307.2,333c1.4,0,2.5-1.1,2.5-2.5c0-1.4-1.1-2.5-2.5-2.5c-1.4,0-2.5,1.1-2.5,2.5
	C304.7,331.9,305.8,333,307.2,333"/>
<polygon fill="#CCCCCC" points="292.9,310.6 291.6,310.6 291.6,232.6 304.1,232.6 304.1,185.3 287.6,168.8 287.6,83.4 288.9,83.4 
	288.9,168.3 305.4,184.8 305.4,233.8 292.9,233.8 "/>
<path fill="#CCCCCC" d="M288.2,85.9c1.4,0,2.5-1.1,2.5-2.5s-1.1-2.5-2.5-2.5s-2.5,1.1-2.5,2.5C285.7,84.8,286.9,85.9,288.2,85.9"/>
<path fill="#CCCCCC" d="M292.2,313.1c1.4,0,2.5-1.1,2.5-2.5s-1.1-2.5-2.5-2.5c-1.4,0-2.5,1.1-2.5,2.5S290.9,313.1,292.2,313.1"/>
<polygon fill="#CCCCCC" points="139,236.5 137.8,236.5 137.8,208.7 137.9,208.6 155.5,190.9 155.5,111.3 169,111.3 169,83.4 
	170.3,83.4 170.3,112.6 156.8,112.6 156.8,191.4 156.6,191.6 139,209.3 "/>
<path fill="#CCCCCC" d="M169.6,85.9c1.4,0,2.5-1.1,2.5-2.5s-1.1-2.5-2.5-2.5s-2.5,1.1-2.5,2.5C167.1,84.8,168.3,85.9,169.6,85.9"/>
<path fill="#CCCCCC" d="M138.4,239c1.4,0,2.5-1.1,2.5-2.5c0-1.4-1.1-2.5-2.5-2.5s-2.5,1.1-2.5,2.5C135.9,237.9,137,239,138.4,239"/>
<polygon fill="#CCCCCC" points="96.8,253.3 95.5,253.3 95.5,221.2 110.5,221.2 110.5,171.8 92,153.4 92,84.9 93.3,84.9 93.3,152.9 
	111.8,171.3 111.8,222.5 96.8,222.5 "/>
<path fill="#CCCCCC" d="M92.6,87.4c1.4,0,2.5-1.1,2.5-2.5s-1.1-2.5-2.5-2.5c-1.4,0-2.5,1.1-2.5,2.5C90.2,86.3,91.4,87.4,92.6,87.4"
	/>
<path fill="#CCCCCC" d="M96.1,255.8c1.4,0,2.5-1.1,2.5-2.5c0-1.4-1.1-2.5-2.5-2.5s-2.5,1.1-2.5,2.5
	C93.6,254.7,94.8,255.8,96.1,255.8"/>
<polygon fill="#CCCCCC" points="93.3,324.1 92,324.1 92,270.5 101.3,261.2 101.3,227.1 118.3,227.1 118.3,168.3 100.3,150.4 
	100.3,92.7 109.3,92.7 109.3,94 101.6,94 101.6,149.9 119.6,167.8 119.6,228.3 102.6,228.3 102.6,261.7 93.3,271 "/>
<path fill="#CCCCCC" d="M109.3,95.9c1.4,0,2.5-1.1,2.5-2.5s-1.1-2.5-2.5-2.5s-2.5,1.1-2.5,2.5C106.8,94.8,107.9,95.9,109.3,95.9"/>
<path fill="#CCCCCC" d="M92.6,326.6c1.4,0,2.5-1.1,2.5-2.5s-1.1-2.5-2.5-2.5c-1.4,0-2.5,1.1-2.5,2.5S91.4,326.6,92.6,326.6"/>
<polygon fill="#CCCCCC" points="114.6,316.1 102,316.1 102,277 110.9,268.2 110.9,235.7 126.4,235.7 126.4,165.3 111.5,150.4 
	111.5,101.6 125.5,101.6 125.5,102.9 112.8,102.9 112.8,149.9 127.7,164.8 127.7,237 112.1,237 112.1,268.7 103.3,277.5 
	103.3,314.8 114.6,314.8 "/>
<path fill="#CCCCCC" d="M125.5,104.8c1.4,0,2.5-1.1,2.5-2.5s-1.1-2.5-2.5-2.5s-2.5,1.1-2.5,2.5C123,103.7,124.2,104.8,125.5,104.8"
	/>
<path fill="#CCCCCC" d="M114.6,317.9c1.4,0,2.5-1.1,2.5-2.5c0-1.4-1.1-2.5-2.5-2.5s-2.5,1.1-2.5,2.5
	C112.1,316.8,113.3,317.9,114.6,317.9"/>
<polyline fill="#CCCCCC" points="-14.6,284.3 22.7,284.3 22.7,292.7 24,292.7 24,283 -15.2,283 "/>
<path fill="#CCCCCC" d="M25.8,292.7c0,1.4-1.1,2.5-2.5,2.5c-1.4,0-2.5-1.1-2.5-2.5s1.1-2.5,2.5-2.5
	C24.7,290.2,25.8,291.3,25.8,292.7"/>
<polyline fill="#CCCCCC" points="-24.3,291.1 13,291.1 13,306.3 14.3,306.3 14.3,289.8 -24.7,289.8 "/>
<path fill="#CCCCCC" d="M16.2,306.3c0,1.4-1.1,2.5-2.5,2.5s-2.5-1.1-2.5-2.5c0-1.4,1.1-2.5,2.5-2.5C15,303.8,16.2,305,16.2,306.3"/>
<polygon fill="#CCCCCC" points="56.9,218.9 55.6,218.9 55.6,168.5 55.8,168.3 73.2,150.9 73.2,82.9 74.5,82.9 74.5,151.4 
	74.3,151.6 56.9,169 "/>
<path fill="#CCCCCC" d="M73.9,85.4c1.4,0,2.5-1.1,2.5-2.5s-1.1-2.5-2.5-2.5s-2.5,1.1-2.5,2.5C71.4,84.3,72.5,85.4,73.9,85.4"/>
<path fill="#CCCCCC" d="M56.3,221.4c1.4,0,2.5-1.1,2.5-2.5c0-1.4-1.1-2.5-2.5-2.5s-2.5,1.1-2.5,2.5
	C53.8,220.3,54.9,221.4,56.3,221.4"/>
<polygon fill="#CCCCCC" points="49.1,205 47.8,205 47.8,160.3 48,160.1 64.2,143.9 64.2,88.9 65.5,88.9 65.5,144.4 65.3,144.6 
	49.1,160.8 "/>
<path fill="#CCCCCC" d="M64.9,91.4c1.4,0,2.5-1.1,2.5-2.5s-1.1-2.5-2.5-2.5c-1.4,0-2.5,1.1-2.5,2.5C62.5,90.3,63.5,91.4,64.9,91.4"
	/>
<path fill="#CCCCCC" d="M48.5,207.5c1.4,0,2.5-1.1,2.5-2.5c0-1.4-1.1-2.5-2.5-2.5c-1.4,0-2.5,1.1-2.5,2.5
	C46,206.4,47.1,207.5,48.5,207.5"/>
<rect x="-21.6" y="84" fill="#CCCCCC" width="42.9" height="1.2"/>
<path fill="#CCCCCC" d="M-21.6,87.1c1.4,0,2.5-1.1,2.5-2.5s-1.1-2.5-2.5-2.5c-1.4,0-2.5,1.1-2.5,2.5S-23,87.1-21.6,87.1"/>
<path fill="#CCCCCC" d="M21.3,87.1c1.4,0,2.5-1.1,2.5-2.5s-1.1-2.5-2.5-2.5c-1.4,0-2.5,1.1-2.5,2.5S19.9,87.1,21.3,87.1"/>
<rect x="-15.6" y="92" fill="#CCCCCC" width="20.9" height="1.2"/>
<path fill="#CCCCCC" d="M-15.6,95.1c1.4,0,2.5-1.1,2.5-2.5s-1.1-2.5-2.5-2.5s-2.5,1.1-2.5,2.5S-17,95.1-15.6,95.1"/>
<path fill="#CCCCCC" d="M5.3,95.1c1.4,0,2.5-1.1,2.5-2.5s-1.1-2.5-2.5-2.5s-2.5,1.1-2.5,2.5S4,95.1,5.3,95.1"/>
<rect x="-13.6" y="69" fill="#CCCCCC" width="46.8" height="1.2"/>
<path fill="#CCCCCC" d="M-13.6,72.1c1.4,0,2.5-1.1,2.5-2.5c0-1.4-1.1-2.5-2.5-2.5s-2.5,1.1-2.5,2.5C-16.1,71-15,72.1-13.6,72.1"/>
<path fill="#CCCCCC" d="M33.3,72.1c1.4,0,2.5-1.1,2.5-2.5c0-1.4-1.1-2.5-2.5-2.5c-1.4,0-2.5,1.1-2.5,2.5
	C30.8,71,31.9,72.1,33.3,72.1"/>
<rect x="-18.1" y="257" fill="#CCCCCC" width="46.8" height="1.2"/>
<path fill="#CCCCCC" d="M-18.1,260.1c1.4,0,2.5-1.1,2.5-2.5c0-1.4-1.1-2.5-2.5-2.5c-1.4,0-2.5,1.1-2.5,2.5
	C-20.6,259-19.5,260.1-18.1,260.1"/>
<path fill="#CCCCCC" d="M28.8,260.1c1.4,0,2.5-1.1,2.5-2.5c0-1.4-1.1-2.5-2.5-2.5c-1.4,0-2.5,1.1-2.5,2.5
	C26.3,259,27.4,260.1,28.8,260.1"/>
<rect x="-14.6" y="276.6" fill="#CCCCCC" width="46.8" height="1.2"/>
<path fill="#CCCCCC" d="M-14.6,279.7c1.4,0,2.5-1.1,2.5-2.5c0-1.4-1.1-2.5-2.5-2.5s-2.5,1.1-2.5,2.5
	C-17.1,278.6-16,279.7-14.6,279.7"/>
<path fill="#CCCCCC" d="M32.3,279.7c1.4,0,2.5-1.1,2.5-2.5c0-1.4-1.1-2.5-2.5-2.5c-1.4,0-2.5,1.1-2.5,2.5
	C29.8,278.6,30.9,279.7,32.3,279.7"/>
<polygon fill="#CCCCCC" points="-15.9,119.1 -52.5,119.1 -52.5,117.9 -16.4,117.9 0.6,100.9 22.3,100.9 22.3,102.1 1.1,102.1 "/>
<path fill="#CCCCCC" d="M-52.5,121c1.4,0,2.5-1.1,2.5-2.5s-1.1-2.5-2.5-2.5s-2.5,1.1-2.5,2.5S-53.8,121-52.5,121"/>
<path fill="#CCCCCC" d="M22.3,104c1.4,0,2.5-1.1,2.5-2.5S23.7,99,22.3,99s-2.5,1.1-2.5,2.5S20.9,104,22.3,104"/>
<polygon fill="#CCCCCC" points="-14.9,129 -49.5,129 -49.5,127.8 -15.4,127.8 3.1,109.4 35.7,109.4 35.7,110.6 3.6,110.6 "/>
<path fill="#CCCCCC" d="M-49.5,130.9c1.4,0,2.5-1.1,2.5-2.5c0-1.4-1.1-2.5-2.5-2.5s-2.5,1.1-2.5,2.5
	C-52,129.8-50.9,130.9-49.5,130.9"/>
<path fill="#CCCCCC" d="M35.7,112.5c1.4,0,2.5-1.1,2.5-2.5c0-1.4-1.1-2.5-2.5-2.5c-1.4,0-2.5,1.1-2.5,2.5
	C33.3,111.4,34.3,112.5,35.7,112.5"/>
<rect x="-13.6" y="-24.6" fill="#CCCCCC" width="35.9" height="1.2"/>
<path fill="#CCCCCC" d="M-13.6-21.5c1.4,0,2.5-1.1,2.5-2.5c0-1.4-1.1-2.5-2.5-2.5s-2.5,1.1-2.5,2.5C-16.1-22.6-15-21.5-13.6-21.5"/>
<path fill="#CCCCCC" d="M22.3-21.5c1.4,0,2.5-1.1,2.5-2.5c0-1.4-1.1-2.5-2.5-2.5s-2.5,1.1-2.5,2.5C19.8-22.6,20.9-21.5,22.3-21.5"/>
<rect x="-13.6" y="-34.6" fill="#CCCCCC" width="26.9" height="1.2"/>
<path fill="#CCCCCC" d="M-13.6-31.5c1.4,0,2.5-1.1,2.5-2.5s-1.1-2.5-2.5-2.5s-2.5,1.1-2.5,2.5S-15-31.5-13.6-31.5"/>
<path fill="#CCCCCC" d="M13.3-31.5c1.4,0,2.5-1.1,2.5-2.5s-1.1-2.5-2.5-2.5s-2.5,1.1-2.5,2.5S11.9-31.5,13.3-31.5"/>
<rect x="-12.6" y="-45.6" fill="#CCCCCC" width="14.5" height="1.2"/>
<path fill="#CCCCCC" d="M-12.6-42.5c1.4,0,2.5-1.1,2.5-2.5c0-1.4-1.1-2.5-2.5-2.5s-2.5,1.1-2.5,2.5C-15.1-43.6-14-42.5-12.6-42.5"/>
<path fill="#CCCCCC" d="M1.9-42.5c1.4,0,2.5-1.1,2.5-2.5c0-1.4-1.1-2.5-2.5-2.5s-2.5,1.1-2.5,2.5C-0.6-43.6,0.5-42.5,1.9-42.5"/>
<polygon fill="#CCCCCC" points="28,-74.3 -56.4,-74.3 -56.4,-75.5 27.5,-75.5 44.4,-92.4 95,-92.4 95,-91.2 44.9,-91.2 "/>
<path fill="#CCCCCC" d="M95-89.3c1.4,0,2.5-1.1,2.5-2.5s-1.1-2.5-2.5-2.5s-2.5,1.1-2.5,2.5S93.6-89.3,95-89.3"/>
<path fill="#CCCCCC" d="M-56.4-72.4c1.4,0,2.5-1.1,2.5-2.5s-1.1-2.5-2.5-2.5s-2.5,1.1-2.5,2.5S-57.8-72.4-56.4-72.4"/>
<polygon fill="#CCCCCC" points="23,-85 -62.4,-85 -62.4,-86.3 22.5,-86.3 39,-102.8 84.1,-102.8 84.1,-101.6 39.5,-101.6 "/>
<path fill="#CCCCCC" d="M84.1-99.7c1.4,0,2.5-1.1,2.5-2.5c0-1.4-1.1-2.5-2.5-2.5c-1.4,0-2.5,1.1-2.5,2.5
	C81.6-100.8,82.7-99.7,84.1-99.7"/>
<path fill="#CCCCCC" d="M-62.4-83.1c1.4,0,2.5-1.1,2.5-2.5c0-1.4-1.1-2.5-2.5-2.5c-1.4,0-2.5,1.1-2.5,2.5
	C-64.9-84.3-63.8-83.1-62.4-83.1"/>
<polygon fill="#CCCCCC" points="13.2,-95.3 -35.5,-95.3 -35.5,-96.5 12.6,-96.5 28.5,-112.3 75.6,-112.3 75.6,-111.1 29,-111.1 "/>
<path fill="#CCCCCC" d="M75.6-109.2c1.4,0,2.5-1.1,2.5-2.5s-1.1-2.5-2.5-2.5s-2.5,1.1-2.5,2.5S74.2-109.2,75.6-109.2"/>
<path fill="#CCCCCC" d="M-35.5-93.4c1.4,0,2.5-1.1,2.5-2.5s-1.1-2.5-2.5-2.5s-2.5,1.1-2.5,2.5S-36.9-93.4-35.5-93.4"/>
<polygon fill="#CCCCCC" points="5.5,-102.7 -26.5,-102.7 -26.5,-103.9 5,-103.9 23.5,-122.3 64.6,-122.3 64.6,-121.1 24,-121.1 "/>
<path fill="#CCCCCC" d="M64.6-119.2c1.4,0,2.5-1.1,2.5-2.5s-1.1-2.5-2.5-2.5c-1.4,0-2.5,1.1-2.5,2.5
	C62.2-120.3,63.2-119.2,64.6-119.2"/>
<path fill="#CCCCCC" d="M-26.5-100.8c1.4,0,2.5-1.1,2.5-2.5s-1.1-2.5-2.5-2.5c-1.4,0-2.5,1.1-2.5,2.5S-27.9-100.8-26.5-100.8"/>
<polygon fill="#CCCCCC" points="4.6,-114.5 -16.6,-114.5 -16.6,-115.7 4.1,-115.7 19.8,-131.5 73.4,-131.5 73.4,-130.2 20.3,-130.2 
	"/>
<path fill="#CCCCCC" d="M73.4-128.3c1.4,0,2.5-1.1,2.5-2.5s-1.1-2.5-2.5-2.5s-2.5,1.1-2.5,2.5C70.9-129.5,72-128.3,73.4-128.3"/>
<path fill="#CCCCCC" d="M-16.6-112.6c1.4,0,2.5-1.1,2.5-2.5s-1.1-2.5-2.5-2.5s-2.5,1.1-2.5,2.5S-18-112.6-16.6-112.6"/>
<rect x="-14.6" y="-152.7" fill="#CCCCCC" width="36.9" height="1.2"/>
<path fill="#CCCCCC" d="M22.3-149.6c1.4,0,2.5-1.1,2.5-2.5s-1.1-2.5-2.5-2.5s-2.5,1.1-2.5,2.5S20.9-149.6,22.3-149.6"/>
<path fill="#CCCCCC" d="M-14.6-149.6c1.4,0,2.5-1.1,2.5-2.5s-1.1-2.5-2.5-2.5s-2.5,1.1-2.5,2.5S-16-149.6-14.6-149.6"/>
<rect x="-15.6" y="-169.1" fill="#CCCCCC" width="32.1" height="1.2"/>
<path fill="#CCCCCC" d="M16.5-166.1c1.4,0,2.5-1.1,2.5-2.5c0-1.4-1.1-2.5-2.5-2.5s-2.5,1.1-2.5,2.5C14-167.1,15.2-166.1,16.5-166.1"
	/>
<path fill="#CCCCCC" d="M-15.6-166.1c1.4,0,2.5-1.1,2.5-2.5c0-1.4-1.1-2.5-2.5-2.5s-2.5,1.1-2.5,2.5
	C-18.1-167.1-17-166.1-15.6-166.1"/>
<rect x="-39.5" y="-179.1" fill="#CCCCCC" width="45.3" height="1.2"/>
<path fill="#CCCCCC" d="M5.8-176c1.4,0,2.5-1.1,2.5-2.5S7.2-181,5.8-181s-2.5,1.1-2.5,2.5S4.5-176,5.8-176"/>
<path fill="#CCCCCC" d="M-39.5-176c1.4,0,2.5-1.1,2.5-2.5s-1.1-2.5-2.5-2.5s-2.5,1.1-2.5,2.5S-40.9-176-39.5-176"/>
</svg>
