<?xml version="1.0" encoding="utf-8"?>
<!-- Generator: Adobe Illustrator 18.1.0, SVG Export Plug-In . SVG Version: 6.00 Build 0)  -->
<svg version="1.1" id="Layer_1" xmlns="http://www.w3.org/2000/svg" xmlns:xlink="http://www.w3.org/1999/xlink" x="0px" y="0px"
	 width="421px" height="491px" viewBox="0 0 421 491" enable-background="new 0 0 421 491" xml:space="preserve">
<polygon fill="#CDCCCC" points="402.7,243 401.5,243 401.5,182.1 387.5,182.1 387.5,99.8 370.5,82.8 370.5,40 371.7,40 371.7,82.2 
	388.7,99.2 388.7,180.9 402.7,180.9 "/>
<path fill="#CDCCCC" d="M402.1,245.5c1.4,0,2.5-1.1,2.5-2.5c0-1.4-1.1-2.5-2.5-2.5c-1.4,0-2.5,1.1-2.5,2.5
	C399.6,244.4,400.7,245.5,402.1,245.5"/>
<polygon fill="#CDCCCC" points="419.1,191 417.9,191 417.9,168.1 402.5,152.8 402.5,84.3 387,68.8 387,13 388.2,13 388.2,68.2 
	403.7,83.7 403.7,152.2 419.1,167.6 "/>
<path fill="#CDCCCC" d="M418.5,193.5c1.4,0,2.5-1.1,2.5-2.5c0-1.4-1.1-2.5-2.5-2.5c-1.4,0-2.5,1.1-2.5,2.5
	C416,192.4,417.1,193.5,418.5,193.5"/>
<polygon fill="#CDCCCC" points="394.7,243.5 393.5,243.5 393.5,189.1 379.5,189.1 379.5,113.5 362.1,96.1 362.1,19 363.4,19 
	363.4,95.6 380.7,113 380.7,187.9 394.7,187.9 "/>
<path fill="#CDCCCC" d="M394.1,246c1.4,0,2.5-1.1,2.5-2.5c0-1.4-1.1-2.5-2.5-2.5c-1.4,0-2.5,1.1-2.5,2.5
	C391.6,244.9,392.7,246,394.1,246"/>
<polygon fill="#CDCCCC" points="413.7,147 412.5,147 412.5,31.3 396,14.8 396,0 397.2,0 397.2,14.2 413.7,30.7 "/>
<path fill="#CDCCCC" d="M413.1,149.5c1.4,0,2.5-1.1,2.5-2.5c0-1.4-1.1-2.5-2.5-2.5c-1.4,0-2.5,1.1-2.5,2.5
	C410.6,148.4,411.7,149.5,413.1,149.5"/>
<polygon fill="#CDCCCC" points="15.5,387.5 14.2,387.5 14.2,332.3 14.4,332.1 32.6,313.9 32.6,241.9 20.2,241.9 20.2,159.8 
	2.2,141.8 2.2,99 3.5,99 3.5,141.2 21.5,159.2 21.5,240.7 33.9,240.7 33.9,314.4 33.7,314.6 15.5,332.8 "/>
<path fill="#CDCCCC" d="M2.9,101.5c1.4,0,2.5-1.1,2.5-2.5c0-1.4-1.1-2.5-2.5-2.5S0.4,97.6,0.4,99C0.4,100.4,1.5,101.5,2.9,101.5"/>
<path fill="#CDCCCC" d="M14.9,390c1.4,0,2.5-1.1,2.5-2.5c0-1.4-1.1-2.5-2.5-2.5c-1.4,0-2.5,1.1-2.5,2.5
	C12.4,388.9,13.5,390,14.9,390"/>
<polygon fill="#CDCCCC" points="351.5,284.4 350.6,283.6 361.6,272.5 361.6,257.1 348.9,257.1 348.9,166.5 350.1,166.5 350.1,255.9 
	362.9,255.9 362.9,273 "/>
<path fill="#CDCCCC" d="M349.5,169c1.4,0,2.5-1.1,2.5-2.5c0-1.4-1.1-2.5-2.5-2.5c-1.4,0-2.5,1.1-2.5,2.5
	C347,167.9,348.1,169,349.5,169"/>
<path fill="#CDCCCC" d="M351,286.5c1.4,0,2.5-1.1,2.5-2.5s-1.1-2.5-2.5-2.5c-1.4,0-2.5,1.1-2.5,2.5S349.6,286.5,351,286.5"/>
<polygon fill="#CDCCCC" points="40.9,212 39.6,212 39.6,151.9 23.5,135.8 23.5,69 24.7,69 24.7,135.2 40.9,151.4 "/>
<path fill="#CDCCCC" d="M24.1,71.5c1.4,0,2.5-1.1,2.5-2.5c0-1.4-1.1-2.5-2.5-2.5c-1.4,0-2.5,1.1-2.5,2.5
	C21.6,70.4,22.7,71.5,24.1,71.5"/>
<path fill="#CDCCCC" d="M40.3,214.5c1.4,0,2.5-1.1,2.5-2.5c0-1.4-1.1-2.5-2.5-2.5c-1.4,0-2.5,1.1-2.5,2.5
	C37.8,213.4,38.9,214.5,40.3,214.5"/>
<polygon fill="#CDCCCC" points="137.5,194.2 136.2,194.2 136.2,139.8 120.2,123.8 120.2,82 121.5,82 121.5,123.2 137.5,139.2 "/>
<path fill="#CDCCCC" d="M120.9,84.5c1.4,0,2.5-1.1,2.5-2.5c0-1.4-1.1-2.5-2.5-2.5c-1.4,0-2.5,1.1-2.5,2.5
	C118.4,83.4,119.5,84.5,120.9,84.5"/>
<path fill="#CDCCCC" d="M136.9,196.7c1.4,0,2.5-1.1,2.5-2.5c0-1.4-1.1-2.5-2.5-2.5c-1.4,0-2.5,1.1-2.5,2.5
	C134.4,195.6,135.5,196.7,136.9,196.7"/>
<polygon fill="#CDCCCC" points="113.5,388.5 112.2,388.5 112.2,288.5 112.4,288.3 128.2,272.5 128.2,197.4 112.2,197.4 112.2,128.8 
	113.5,128.8 113.5,196.1 129.5,196.1 129.5,273 129.3,273.2 113.5,289 "/>
<path fill="#CDCCCC" d="M112.9,131.3c1.4,0,2.5-1.1,2.5-2.5c0-1.4-1.1-2.5-2.5-2.5c-1.4,0-2.5,1.1-2.5,2.5
	C110.4,130.2,111.5,131.3,112.9,131.3"/>
<path fill="#CDCCCC" d="M112.9,391c1.4,0,2.5-1.1,2.5-2.5c0-1.4-1.1-2.5-2.5-2.5c-1.4,0-2.5,1.1-2.5,2.5
	C110.4,389.9,111.5,391,112.9,391"/>
<polygon fill="#CDCCCC" points="103.5,365.5 102.2,365.5 102.2,286.2 102.4,286.1 120.2,268.2 120.2,204.1 102.2,204.1 102.2,140.6 
	103.5,140.6 103.5,202.9 121.5,202.9 121.5,268.8 121.3,268.9 103.5,286.8 "/>
<path fill="#CDCCCC" d="M102.9,143.1c1.4,0,2.5-1.1,2.5-2.5c0-1.4-1.1-2.5-2.5-2.5c-1.4,0-2.5,1.1-2.5,2.5
	C100.4,142,101.5,143.1,102.9,143.1"/>
<path fill="#CDCCCC" d="M102.9,368c1.4,0,2.5-1.1,2.5-2.5c0-1.4-1.1-2.5-2.5-2.5c-1.4,0-2.5,1.1-2.5,2.5
	C100.4,366.9,101.5,368,102.9,368"/>
<polygon fill="#CDCCCC" points="92.5,316 91.2,316 91.2,282.7 91.4,282.6 111.7,262.2 111.7,212.6 91.2,212.6 91.2,158.4 
	92.5,158.4 92.5,211.4 113,211.4 113,262.8 112.8,262.9 92.5,283.3 "/>
<path fill="#CDCCCC" d="M91.9,160.9c1.4,0,2.5-1.1,2.5-2.5c0-1.4-1.1-2.5-2.5-2.5c-1.4,0-2.5,1.1-2.5,2.5
	C89.4,159.8,90.5,160.9,91.9,160.9"/>
<path fill="#CDCCCC" d="M91.9,318.5c1.4,0,2.5-1.1,2.5-2.5s-1.1-2.5-2.5-2.5c-1.4,0-2.5,1.1-2.5,2.5S90.5,318.5,91.9,318.5"/>
<polygon fill="#CDCCCC" points="72.5,302 71.2,302 71.2,275.8 59.2,263.8 59.2,210.5 59.4,210.3 76.2,193.5 76.2,169.5 77.5,169.5 
	77.5,194 77.3,194.2 60.5,211 60.5,263.2 72.5,275.2 "/>
<path fill="#CDCCCC" d="M76.9,172c1.4,0,2.5-1.1,2.5-2.5c0-1.4-1.1-2.5-2.5-2.5c-1.4,0-2.5,1.1-2.5,2.5
	C74.4,170.9,75.5,172,76.9,172"/>
<path fill="#CDCCCC" d="M71.9,304.5c1.4,0,2.5-1.1,2.5-2.5s-1.1-2.5-2.5-2.5c-1.4,0-2.5,1.1-2.5,2.5S70.5,304.5,71.9,304.5"/>
<polygon fill="#CDCCCC" points="147.7,214 146.5,214 146.5,138.4 128.9,120.8 128.9,66 130.1,66 130.1,120.2 147.7,137.9 "/>
<path fill="#CDCCCC" d="M129.5,68.5c1.4,0,2.5-1.1,2.5-2.5c0-1.4-1.1-2.5-2.5-2.5c-1.4,0-2.5,1.1-2.5,2.5
	C127,67.4,128.1,68.5,129.5,68.5"/>
<path fill="#CDCCCC" d="M147.1,216.5c1.4,0,2.5-1.1,2.5-2.5c0-1.4-1.1-2.5-2.5-2.5c-1.4,0-2.5,1.1-2.5,2.5
	C144.6,215.4,145.7,216.5,147.1,216.5"/>
<polygon fill="#CDCCCC" points="166.4,207.1 154.2,207.1 154.2,154 155.5,154 155.5,205.9 166.4,205.9 "/>
<path fill="#CDCCCC" d="M154.9,156.5c1.4,0,2.5-1.1,2.5-2.5c0-1.4-1.1-2.5-2.5-2.5c-1.4,0-2.5,1.1-2.5,2.5
	C152.4,155.4,153.5,156.5,154.9,156.5"/>
<path fill="#CDCCCC" d="M166.4,209c1.4,0,2.5-1.1,2.5-2.5c0-1.4-1.1-2.5-2.5-2.5c-1.4,0-2.5,1.1-2.5,2.5
	C163.9,207.9,165,209,166.4,209"/>
<polygon fill="#CDCCCC" points="179.4,198.4 162,198.4 162,135 163.2,135 163.2,197.1 179.4,197.1 "/>
<path fill="#CDCCCC" d="M162.6,137.5c1.4,0,2.5-1.1,2.5-2.5c0-1.4-1.1-2.5-2.5-2.5c-1.4,0-2.5,1.1-2.5,2.5
	C160.1,136.4,161.2,137.5,162.6,137.5"/>
<path fill="#CDCCCC" d="M179.4,200.2c1.4,0,2.5-1.1,2.5-2.5c0-1.4-1.1-2.5-2.5-2.5c-1.4,0-2.5,1.1-2.5,2.5
	C176.9,199.1,178,200.2,179.4,200.2"/>
<polygon fill="#CDCCCC" points="133.3,403 132.1,403 132.1,371.9 132.3,371.7 146.2,357.7 146.2,223.9 188.2,223.9 188.2,152 
	189.5,152 189.5,225.1 147.5,225.1 147.5,358.3 147.3,358.4 133.3,372.4 "/>
<path fill="#CDCCCC" d="M188.9,154.5c1.4,0,2.5-1.1,2.5-2.5c0-1.4-1.1-2.5-2.5-2.5c-1.4,0-2.5,1.1-2.5,2.5
	C186.4,153.4,187.5,154.5,188.9,154.5"/>
<polygon fill="#CDCCCC" points="173.4,369.7 172.2,369.7 172.2,350.9 154,332.7 154,230.9 196.1,230.9 196.1,168.9 197.4,168.9 
	197.4,232.1 155.2,232.1 155.2,332.2 173.4,350.3 "/>
<path fill="#CDCCCC" d="M196.7,171.4c1.4,0,2.5-1.1,2.5-2.5c0-1.4-1.1-2.5-2.5-2.5c-1.4,0-2.5,1.1-2.5,2.5
	C194.2,170.3,195.4,171.4,196.7,171.4"/>
<path fill="#CDCCCC" d="M172.8,372.2c1.4,0,2.5-1.1,2.5-2.5c0-1.4-1.1-2.5-2.5-2.5c-1.4,0-2.5,1.1-2.5,2.5
	C170.3,371,171.4,372.2,172.8,372.2"/>
<polygon fill="#CDCCCC" points="203.3,393.5 202.1,393.5 202.1,348.3 202.3,348.2 218.2,332.2 218.2,277.6 203.2,277.6 203.2,178 
	204.5,178 204.5,276.4 219.5,276.4 219.5,332.7 219.3,332.9 203.3,348.9 "/>
<path fill="#CDCCCC" d="M203.9,180.5c1.4,0,2.5-1.1,2.5-2.5c0-1.4-1.1-2.5-2.5-2.5c-1.4,0-2.5,1.1-2.5,2.5
	C201.4,179.4,202.5,180.5,203.9,180.5"/>
<path fill="#CDCCCC" d="M202.7,396c1.4,0,2.5-1.1,2.5-2.5c0-1.4-1.1-2.5-2.5-2.5c-1.4,0-2.5,1.1-2.5,2.5
	C200.2,394.9,201.3,396,202.7,396"/>
<polygon fill="#CDCCCC" points="307.6,490 290.5,490 290.4,489.9 215.2,414.8 215.2,352.7 215.4,352.6 233.2,334.7 233.2,264.1 
	220.2,264.1 220.2,138.8 203.2,121.8 203.2,81 204.5,81 204.5,121.2 221.5,138.2 221.5,262.9 234.5,262.9 234.5,335.3 234.3,335.4 
	216.5,353.3 216.5,414.2 291.1,488.8 307.6,488.8 "/>
<path fill="#CDCCCC" d="M203.9,83.5c1.4,0,2.5-1.1,2.5-2.5c0-1.4-1.1-2.5-2.5-2.5c-1.4,0-2.5,1.1-2.5,2.5
	C201.4,82.4,202.5,83.5,203.9,83.5"/>
<polygon fill="#CDCCCC" points="248.5,240.8 247.2,240.8 247.2,137.8 226.2,116.8 226.2,55 227.5,55 227.5,116.2 248.5,137.2 "/>
<path fill="#CDCCCC" d="M247.9,243.2c1.4,0,2.5-1.1,2.5-2.5c0-1.4-1.1-2.5-2.5-2.5c-1.4,0-2.5,1.1-2.5,2.5
	C245.4,242.1,246.5,243.2,247.9,243.2"/>
<polygon fill="#CDCCCC" points="264.6,248.5 263.4,248.5 263.4,189.9 254.2,180.8 254.2,147 255.5,147 255.5,180.2 264.6,189.4 "/>
<path fill="#CDCCCC" d="M254.9,149.5c1.4,0,2.5-1.1,2.5-2.5c0-1.4-1.1-2.5-2.5-2.5c-1.4,0-2.5,1.1-2.5,2.5
	C252.4,148.4,253.5,149.5,254.9,149.5"/>
<path fill="#CDCCCC" d="M264,251c1.4,0,2.5-1.1,2.5-2.5c0-1.4-1.1-2.5-2.5-2.5c-1.4,0-2.5,1.1-2.5,2.5
	C261.5,249.9,262.6,251,264,251"/>
<polygon fill="#CDCCCC" points="292.5,312.6 272.2,312.6 272.2,271.1 283.5,271.1 283.5,295.5 282.2,295.5 282.2,272.4 273.5,272.4 
	273.5,311.4 291.2,311.4 291.2,258.3 272.2,258.3 272.2,151.9 286.4,151.9 286.4,153.1 273.5,153.1 273.5,257 292.5,257 "/>
<path fill="#CDCCCC" d="M282.9,298c1.4,0,2.5-1.1,2.5-2.5s-1.1-2.5-2.5-2.5c-1.4,0-2.5,1.1-2.5,2.5S281.5,298,282.9,298"/>
<path fill="#CDCCCC" d="M286.4,155c1.4,0,2.5-1.1,2.5-2.5c0-1.4-1.1-2.5-2.5-2.5c-1.4,0-2.5,1.1-2.5,2.5
	C283.9,153.9,285,155,286.4,155"/>
<polygon fill="#CDCCCC" points="307.5,274.2 306.2,274.2 306.2,237.6 291.7,237.6 291.7,166 293,166 293,236.4 307.5,236.4 "/>
<path fill="#CDCCCC" d="M292.4,168.5c1.4,0,2.5-1.1,2.5-2.5c0-1.4-1.1-2.5-2.5-2.5c-1.4,0-2.5,1.1-2.5,2.5
	C289.9,167.4,291,168.5,292.4,168.5"/>
<path fill="#CDCCCC" d="M306.9,276.7c1.4,0,2.5-1.1,2.5-2.5s-1.1-2.5-2.5-2.5c-1.4,0-2.5,1.1-2.5,2.5S305.5,276.7,306.9,276.7"/>
<polygon fill="#CDCCCC" points="315.5,263 314.2,263 314.2,230.6 298.9,230.6 298.9,179 300.1,179 300.1,229.4 315.5,229.4 "/>
<path fill="#CDCCCC" d="M299.5,181.5c1.4,0,2.5-1.1,2.5-2.5c0-1.4-1.1-2.5-2.5-2.5c-1.4,0-2.5,1.1-2.5,2.5
	C297,180.4,298.1,181.5,299.5,181.5"/>
<path fill="#CDCCCC" d="M314.9,265.5c1.4,0,2.5-1.1,2.5-2.5s-1.1-2.5-2.5-2.5c-1.4,0-2.5,1.1-2.5,2.5S313.5,265.5,314.9,265.5"/>
<polygon fill="#CDCCCC" points="324.4,331.1 313.6,331.1 313.6,295.7 313.7,295.6 330.2,279.1 330.2,214.6 313.6,214.6 313.6,100.9 
	326.4,100.9 326.4,102.1 314.8,102.1 314.8,213.4 331.5,213.4 331.5,279.6 331.3,279.8 314.8,296.3 314.8,329.9 324.4,329.9 "/>
<path fill="#CDCCCC" d="M324.4,333c1.4,0,2.5-1.1,2.5-2.5s-1.1-2.5-2.5-2.5c-1.4,0-2.5,1.1-2.5,2.5S323,333,324.4,333"/>
<path fill="#CDCCCC" d="M326.4,104c1.4,0,2.5-1.1,2.5-2.5c0-1.4-1.1-2.5-2.5-2.5c-1.4,0-2.5,1.1-2.5,2.5
	C323.9,102.9,325,104,326.4,104"/>
<polygon fill="#CDCCCC" points="335.4,320.9 320.2,320.9 320.2,301.2 320.4,301.1 340.2,281.2 340.2,206.1 320.2,206.1 320.2,147.8 
	335.4,147.8 335.4,149 321.5,149 321.5,204.9 341.5,204.9 341.5,281.8 341.3,281.9 321.5,301.8 321.5,319.6 335.4,319.6 "/>
<path fill="#CDCCCC" d="M335.4,150.9c1.4,0,2.5-1.1,2.5-2.5c0-1.4-1.1-2.5-2.5-2.5c-1.4,0-2.5,1.1-2.5,2.5
	C332.9,149.8,334,150.9,335.4,150.9"/>
<path fill="#CDCCCC" d="M335.4,322.7c1.4,0,2.5-1.1,2.5-2.5s-1.1-2.5-2.5-2.5c-1.4,0-2.5,1.1-2.5,2.5S334,322.7,335.4,322.7"/>
<rect x="66.2" y="124" fill="#CDCCCC" width="1.2" height="57"/>
<path fill="#CDCCCC" d="M66.9,126.5c1.4,0,2.5-1.1,2.5-2.5c0-1.4-1.1-2.5-2.5-2.5c-1.4,0-2.5,1.1-2.5,2.5
	C64.4,125.4,65.5,126.5,66.9,126.5"/>
<path fill="#CDCCCC" d="M66.9,183.5c1.4,0,2.5-1.1,2.5-2.5c0-1.4-1.1-2.5-2.5-2.5c-1.4,0-2.5,1.1-2.5,2.5
	C64.4,182.4,65.5,183.5,66.9,183.5"/>
<polygon fill="#CDCCCC" points="50.5,252 49.2,252 49.2,200.5 56.2,193.5 56.2,139.6 57.5,139.6 57.5,194 50.5,201 "/>
<path fill="#CDCCCC" d="M56.9,142.1c1.4,0,2.5-1.1,2.5-2.5c0-1.4-1.1-2.5-2.5-2.5c-1.4,0-2.5,1.1-2.5,2.5
	C54.4,141,55.5,142.1,56.9,142.1"/>
<path fill="#CDCCCC" d="M49.9,254.5c1.4,0,2.5-1.1,2.5-2.5c0-1.4-1.1-2.5-2.5-2.5c-1.4,0-2.5,1.1-2.5,2.5
	C47.4,253.4,48.5,254.5,49.9,254.5"/>
<polygon fill="#CDCCCC" points="97.7,240.4 75.2,240.4 75.2,207.7 84.5,198.5 84.5,120 85.7,120 85.7,199 76.5,208.3 76.5,239.2 
	97.7,239.2 "/>
<path fill="#CDCCCC" d="M97.7,242.3c1.4,0,2.5-1.1,2.5-2.5c0-1.4-1.1-2.5-2.5-2.5c-1.4,0-2.5,1.1-2.5,2.5
	C95.2,241.2,96.3,242.3,97.7,242.3"/>
<path fill="#CDCCCC" d="M85.1,122.5c1.4,0,2.5-1.1,2.5-2.5c0-1.4-1.1-2.5-2.5-2.5c-1.4,0-2.5,1.1-2.5,2.5
	C82.6,121.4,83.7,122.5,85.1,122.5"/>
</svg>
