<?xml version="1.0" encoding="utf-8"?>
<!-- Generator: Adobe Illustrator 18.1.0, SVG Export Plug-In . SVG Version: 6.00 Build 0)  -->
<svg version="1.1" id="Layer_1" xmlns="http://www.w3.org/2000/svg" xmlns:xlink="http://www.w3.org/1999/xlink" x="0px" y="0px"
	 width="193px" height="189px" viewBox="0 0 193 189" enable-background="new 0 0 193 189" xml:space="preserve">
<path fill="#2EACD8" d="M168,57.3h19.7c2.6,0,4.8,2.9,4.8,6.5c0,3.6-2.2,6.5-4.8,6.5H168"/>
<path fill="#2EACD8" d="M168,90h19.7c2.6,0,4.8,2.9,4.8,6.5c0,3.6-2.2,6.5-4.8,6.5H168"/>
<path fill="#2EACD8" d="M168,122.8h19.7c2.6,0,4.8,2.9,4.8,6.5c0,3.6-2.2,6.5-4.8,6.5H168"/>
<path fill="#2EACD8" d="M57.9,25.5V5.4c0-2.7,2.9-4.9,6.4-4.9c3.5,0,6.4,2.2,6.4,4.9v20.1"/>
<path fill="#2EACD8" d="M90.1,25.5V5.4c0-2.7,2.9-4.9,6.4-4.9c3.5,0,6.4,2.2,6.4,4.9v20.1"/>
<path fill="#2EACD8" d="M122.3,25.5V5.4c0-2.7,2.9-4.9,6.4-4.9c3.5,0,6.4,2.2,6.4,4.9v20.1"/>
<path fill="#2EACD8" d="M70.6,163.5v20.1c0,2.7-2.9,4.9-6.4,4.9c-3.5,0-6.4-2.2-6.4-4.9v-20.1"/>
<path fill="#2EACD8" d="M102.9,163.5v20.1c0,2.7-2.9,4.9-6.4,4.9c-3.5,0-6.4-2.2-6.4-4.9v-20.1"/>
<path fill="#2EACD8" d="M135.1,163.5v20.1c0,2.7-2.9,4.9-6.4,4.9c-3.5,0-6.4-2.2-6.4-4.9v-20.1"/>
<path fill="#2EACD8" d="M25,70.2H5.3c-2.6,0-4.8-2.9-4.8-6.5s2.2-6.5,4.8-6.5H25"/>
<path fill="#2EACD8" d="M25,103H5.3c-2.6,0-4.8-2.9-4.8-6.5C0.5,93,2.7,90,5.3,90H25"/>
<path fill="#2EACD8" d="M25,135.8H5.3c-2.6,0-4.8-2.9-4.8-6.5s2.2-6.5,4.8-6.5H25"/>
<path fill="#2EACD8" d="M142.3,56.1c0-3-2-5.5-4.5-5.5H55.2c-2.5,0-4.5,2.5-4.5,5.5v77.5c0,3,2,5.5,4.5,5.5h82.6
	c2.5,0,4.5-2.5,4.5-5.5V56.1z M164.9,152.8c0,4.5-3,8.2-6.7,8.2H34.8c-3.7,0-6.7-3.7-6.7-8.2V37c0-4.5,3-8.2,6.7-8.2h123.4
	c3.7,0,6.7,3.7,6.7,8.2V152.8z"/>
<line fill="#2EACD8" x1="128.9" y1="94.7" x2="119.3" y2="94.7"/>
<path fill="#FAE0C4" d="M117,98.3c-1.3-0.8-2.1-2.1-2.1-3.7c0-2.4,2-4.3,4.3-4.3l9.6,0.1c2.4,0,4.3,2,4.3,4.3c0,2.4-2,4.3-4.3,4.3
	l-9.6-0.1C118.4,98.9,117.7,98.7,117,98.3z"/>
<line fill="#2EACD8" x1="124.7" y1="78.5" x2="116.3" y2="83.3"/>
<path fill="#FCEAD8" d="M114.1,86.9c-0.6-0.4-1.1-0.9-1.5-1.5c-1.2-2.1-0.5-4.7,1.6-5.9l8.4-4.8c2.1-1.2,4.7-0.5,5.9,1.6
	c1.2,2.1,0.5,4.7-1.6,5.9l-8.4,4.8C117,87.8,115.4,87.7,114.1,86.9z"/>
<line fill="#2EACD8" x1="112.9" y1="66.6" x2="108" y2="74.9"/>
<path fill="#C07529" d="M105.8,78.5c-2-1.2-2.7-3.8-1.5-5.8l4.9-8.3c1.2-2,3.8-2.7,5.9-1.5c0,0,0,0,0.1,0c2,1.2,2.7,3.8,1.5,5.8
	l-4.9,8.3C110.5,79.1,107.9,79.8,105.8,78.5C105.8,78.6,105.8,78.5,105.8,78.5z"/>
<line fill="#2EACD8" x1="96.7" y1="62.1" x2="96.7" y2="71.7"/>
<path fill="#D88227" d="M94.4,75.4c-1.3-0.8-2.1-2.1-2.1-3.7l0.1-9.6c0-2.4,2-4.3,4.3-4.3c2.4,0,4.3,2,4.3,4.3l-0.1,9.6
	c0,2.4-2,4.3-4.3,4.3C95.8,76,95.1,75.8,94.4,75.4z"/>
<line fill="#2EACD8" x1="80.5" y1="66.3" x2="85.2" y2="74.7"/>
<path fill="#F19126" d="M83,78.4c-0.6-0.4-1.1-0.9-1.5-1.5l-4.8-8.4c-1.2-2.1-0.5-4.7,1.6-5.9c2.1-1.2,4.7-0.4,5.9,1.6l4.8,8.4
	c1.2,2.1,0.5,4.7-1.6,5.9C86,79.2,84.3,79.2,83,78.4z"/>
<line fill="#2EACD8" x1="68.6" y1="78.1" x2="76.9" y2="83"/>
<path fill="#F29B3B" d="M66.3,81.8c-2-1.2-2.7-3.8-1.5-5.8c1.2-2,3.8-2.7,5.9-1.5l8.3,4.9c2.1,1.2,2.7,3.8,1.5,5.9
	c-1.2,2-3.8,2.7-5.9,1.5L66.3,81.8C66.4,81.8,66.3,81.8,66.3,81.8z"/>
<line fill="#2EACD8" x1="64.1" y1="94.3" x2="73.7" y2="94.3"/>
<path fill="#F4A64E" d="M61.9,98c-1.2-0.8-2.1-2.1-2.1-3.7c0-2.4,2-4.3,4.3-4.3l9.6,0.1c2.4,0,4.3,2,4.3,4.3c0,2.4-2,4.3-4.3,4.3
	l-9.6-0.1C63.3,98.6,62.5,98.3,61.9,98z"/>
<line fill="#2EACD8" x1="68.3" y1="110.5" x2="76.7" y2="105.7"/>
<path fill="#F4AF61" d="M66.1,114.2c-0.6-0.4-1.1-0.9-1.5-1.5c-1.2-2.1-0.5-4.7,1.6-5.9l8.4-4.8c2.1-1.2,4.7-0.5,5.9,1.6
	c1.2,2.1,0.5,4.7-1.6,5.9l-8.4,4.8C69.1,115,67.4,115,66.1,114.2z"/>
<line fill="#2EACD8" x1="80.1" y1="122.4" x2="85" y2="114.1"/>
<path fill="#F6B975" d="M77.9,126.1c-2-1.2-2.7-3.8-1.5-5.8l4.9-8.3c1.2-2,3.8-2.7,5.9-1.5c2.1,1.2,2.7,3.8,1.5,5.9l-4.9,8.3
	C82.6,126.6,80,127.3,77.9,126.1C77.9,126.1,77.9,126.1,77.9,126.1z"/>
<line fill="#2EACD8" x1="96.3" y1="126.9" x2="96.3" y2="117.3"/>
<path fill="#F6C489" d="M94.1,130.6c-1.2-0.8-2.1-2.1-2.1-3.7l0.1-9.6c0-2.4,2-4.3,4.3-4.3c2.4,0,4.3,2,4.3,4.3l-0.1,9.6
	c0,2.4-2,4.3-4.3,4.3C95.4,131.2,94.7,130.9,94.1,130.6z"/>
<path fill="#F8CD9C" d="M110.3,126.3c-0.6-0.4-1.1-0.9-1.5-1.5l-4.8-8.4c-1.2-2.1-0.5-4.7,1.6-5.9c2.1-1.2,4.7-0.5,5.9,1.6l4.8,8.4
	c1.2,2.1,0.5,4.7-1.6,5.9C113.2,127.2,111.6,127.1,110.3,126.3z"/>
<line fill="#2EACD8" x1="124.4" y1="110.9" x2="116.1" y2="106"/>
<path fill="#F9D6B0" d="M113.9,109.7c-2-1.2-2.7-3.8-1.5-5.8c1.2-2,3.8-2.7,5.9-1.5l8.3,4.9c2.1,1.2,2.7,3.8,1.5,5.9
	c-1.2,2-3.8,2.7-5.9,1.5L113.9,109.7C114,109.7,113.9,109.7,113.9,109.7z"/>
</svg>
