<?xml version="1.0" encoding="utf-8"?>
<!-- Generator: Adobe Illustrator 18.1.0, SVG Export Plug-In . SVG Version: 6.00 Build 0)  -->
<svg version="1.1" id="Layer_1" xmlns="http://www.w3.org/2000/svg" xmlns:xlink="http://www.w3.org/1999/xlink" x="0px" y="0px"
	 width="530px" height="628px" viewBox="165 -214 530 628" enable-background="new 165 -214 530 628" xml:space="preserve">
<g id="circuts_x5F_left">
	<polygon fill="#CCCCCC" points="503.4,229.2 502.1,229.2 502.1,158.5 484.2,138.5 484.2,80.9 485.4,80.9 485.4,138 503.4,157.9 	
		"/>
	<path fill="#CCCCCC" d="M484.8,83.7c1.4,0,2.5-1.2,2.5-2.8c0-1.5-1.1-2.8-2.5-2.8s-2.5,1.2-2.5,2.8
		C482.3,82.4,483.4,83.7,484.8,83.7"/>
	<path fill="#CCCCCC" d="M502.7,232c1.4,0,2.5-1.2,2.5-2.8c0-1.5-1.1-2.8-2.5-2.8c-1.4,0-2.5,1.2-2.5,2.8
		C500.2,230.8,501.4,232,502.7,232"/>
	<polygon fill="#CCCCCC" points="491.1,226.6 489.9,226.6 489.9,158.5 472.9,139.7 472.9,80.9 474.1,80.9 474.1,139.1 491.1,157.9 	
		"/>
	<path fill="#CCCCCC" d="M473.5,83.7c1.4,0,2.5-1.2,2.5-2.8c0-1.5-1.1-2.8-2.5-2.8c-1.4,0-2.5,1.2-2.5,2.8
		C471,82.4,472.1,83.7,473.5,83.7"/>
	<path fill="#CCCCCC" d="M490.5,229.4c1.4,0,2.5-1.2,2.5-2.8c0-1.5-1.1-2.8-2.5-2.8s-2.5,1.2-2.5,2.8
		C488,228.2,489.1,229.4,490.5,229.4"/>
	<polygon fill="#CCCCCC" points="480.9,206.7 479.7,206.7 479.7,172.4 461.2,151.8 461.2,80.9 462.4,80.9 462.4,151.2 480.9,171.8 	
		"/>
	<path fill="#CCCCCC" d="M461.8,83.7c1.4,0,2.5-1.2,2.5-2.8c0-1.5-1.1-2.8-2.5-2.8c-1.4,0-2.5,1.3-2.5,2.8S460.4,83.7,461.8,83.7"/>
	<path fill="#CCCCCC" d="M480.3,209.5c1.4,0,2.5-1.2,2.5-2.8c0-1.5-1.1-2.8-2.5-2.8s-2.5,1.2-2.5,2.8
		C477.8,208.2,478.9,209.5,480.3,209.5"/>
	<polygon fill="#CCCCCC" points="553.8,317.9 552.5,317.9 552.5,292.8 561.8,282.6 561.8,183.1 576.9,183.1 576.9,161.8 559.7,143 
		559.7,80.9 561,80.9 561,142.4 578.1,161.3 578.1,184.5 563.1,184.5 563.1,283.2 553.8,293.4 	"/>
	<path fill="#CCCCCC" d="M560.4,83.7c1.4,0,2.5-1.2,2.5-2.8c0-1.5-1.1-2.8-2.5-2.8c-1.4,0-2.5,1.2-2.5,2.8
		C557.9,82.4,559,83.7,560.4,83.7"/>
	<path fill="#CCCCCC" d="M553.2,320.6c1.4,0,2.5-1.2,2.5-2.8c0-1.6-1.1-2.8-2.5-2.8c-1.4,0-2.5,1.2-2.5,2.8
		C550.7,319.4,551.8,320.6,553.2,320.6"/>
	<polygon fill="#CCCCCC" points="567.2,290.3 566.3,289.3 574.9,279.7 574.9,192 586.9,192 586.9,156.3 571.9,139.7 571.9,80.9 
		573.1,80.9 573.1,139.1 588.1,155.7 588.1,193.4 576.1,193.4 576.1,280.3 	"/>
	<path fill="#CCCCCC" d="M572.5,83.7c1.4,0,2.5-1.2,2.5-2.8c0-1.5-1.1-2.8-2.5-2.8c-1.4,0-2.5,1.2-2.5,2.8
		C570,82.4,571.1,83.7,572.5,83.7"/>
	<path fill="#CCCCCC" d="M566.7,292.6c1.4,0,2.5-1.2,2.5-2.8c0-1.6-1.1-2.8-2.5-2.8s-2.5,1.2-2.5,2.8
		C564.2,291.4,565.3,292.6,566.7,292.6"/>
	<polygon fill="#CCCCCC" points="416.5,246.7 415.2,246.7 415.2,217 422.2,209.2 422.2,152.9 407.2,136.3 407.2,80.9 408.5,80.9 
		408.5,135.7 423.5,152.4 423.5,209.7 416.5,217.5 	"/>
	<path fill="#CCCCCC" d="M407.9,83.7c1.4,0,2.5-1.2,2.5-2.8c0-1.5-1.1-2.8-2.5-2.8c-1.4,0-2.5,1.2-2.5,2.8
		C405.4,82.4,406.5,83.7,407.9,83.7"/>
	<path fill="#CCCCCC" d="M415.9,249.5c1.4,0,2.5-1.2,2.5-2.8c0-1.5-1.1-2.8-2.5-2.8c-1.4,0-2.5,1.2-2.5,2.8
		C413.4,248.2,414.5,249.5,415.9,249.5"/>
	<polygon fill="#CCCCCC" points="427.2,198.2 426.3,197.2 430.3,192.8 430.3,133 421.2,123 421.2,80.9 422.5,80.9 422.5,122.4 
		431.5,132.4 431.5,193.4 	"/>
	<path fill="#CCCCCC" d="M421.9,83.7c1.4,0,2.5-1.2,2.5-2.8c0-1.5-1.1-2.8-2.5-2.8c-1.4,0-2.5,1.3-2.5,2.8S420.5,83.7,421.9,83.7"/>
	<path fill="#CCCCCC" d="M426.8,200.5c1.4,0,2.5-1.2,2.5-2.8c0-1.5-1.1-2.8-2.5-2.8c-1.4,0-2.5,1.2-2.5,2.8
		C424.3,199.3,425.4,200.5,426.8,200.5"/>
	<polygon fill="#CCCCCC" points="442.4,197.4 441.2,197.4 441.2,114 429.3,100.7 429.3,80.9 430.5,80.9 430.5,100.1 442.4,113.5 	
		"/>
	<path fill="#CCCCCC" d="M429.9,83.7c1.4,0,2.5-1.2,2.5-2.8c0-1.5-1.1-2.8-2.5-2.8s-2.5,1.3-2.5,2.8S428.5,83.7,429.9,83.7"/>
	<path fill="#CCCCCC" d="M441.8,200.2c1.4,0,2.5-1.2,2.5-2.8c0-1.6-1.1-2.8-2.5-2.8s-2.5,1.2-2.5,2.8
		C439.3,199,440.4,200.2,441.8,200.2"/>
	<polygon fill="#CCCCCC" points="302.2,278.2 300.9,278.2 300.9,243.4 287.3,228.4 287.3,201.7 287.5,201.5 309.8,176.8 
		309.8,155.8 311,155.8 311,177.4 310.8,177.6 288.6,202.3 288.6,227.8 302.2,242.8 	"/>
	<path fill="#CCCCCC" d="M301.5,275.4c-1.4,0-2.5,1.2-2.5,2.8c0,1.5,1.1,2.8,2.5,2.8c1.4,0,2.5-1.2,2.5-2.8
		C304,276.7,302.9,275.4,301.5,275.4"/>
	<path fill="#CCCCCC" d="M310.4,153c-1.4,0-2.5,1.2-2.5,2.8s1.1,2.8,2.5,2.8s2.5-1.2,2.5-2.8S311.8,153,310.4,153"/>
	<polygon fill="#CCCCCC" points="467.7,215.6 466.4,215.6 466.4,171.4 450.2,154.6 450.2,80.9 451.4,80.9 451.4,154 467.7,170.8 	
		"/>
	<path fill="#CCCCCC" d="M450.8,83.7c1.4,0,2.5-1.2,2.5-2.8c0-1.5-1.1-2.8-2.5-2.8c-1.4,0-2.5,1.2-2.5,2.8
		C448.3,82.4,449.4,83.7,450.8,83.7"/>
	<path fill="#CCCCCC" d="M467.1,218.4c1.4,0,2.5-1.2,2.5-2.8c0-1.5-1.1-2.8-2.5-2.8s-2.5,1.2-2.5,2.8
		C464.6,217.1,465.7,218.4,467.1,218.4"/>
	<polygon fill="#CCCCCC" points="568.9,341.3 567.6,341.3 567.6,314.3 567.8,314.1 586.5,293.4 586.5,198.7 597.2,198.7 
		597.2,154.8 579.5,135.2 579.5,80.9 580.8,80.9 580.8,134.6 598.5,154.2 598.5,200.1 587.7,200.1 587.7,294 587.6,294.2 
		568.9,314.9 	"/>
	<path fill="#CCCCCC" d="M580.2,83.7c1.4,0,2.5-1.2,2.5-2.8c0-1.5-1.1-2.8-2.5-2.8c-1.4,0-2.5,1.2-2.5,2.8
		C577.7,82.4,578.8,83.7,580.2,83.7"/>
	<path fill="#CCCCCC" d="M568.2,344c1.4,0,2.5-1.2,2.5-2.8c0-1.5-1.1-2.8-2.5-2.8c-1.4,0-2.5,1.2-2.5,2.8
		C565.7,342.8,566.8,344,568.2,344"/>
	<polygon fill="#CCCCCC" points="580.7,356.8 579.5,356.8 579.5,324.1 579.7,323.9 597.9,303.6 597.9,222.4 617.9,222.4 
		617.9,130.6 588.9,98.2 588.9,80.9 590.2,80.9 590.2,97.6 619.2,130 619.2,223.8 599.1,223.8 599.1,304.2 598.9,304.4 580.7,324.7 
			"/>
	<path fill="#CCCCCC" d="M589.6,83.7c1.4,0,2.5-1.2,2.5-2.8c0-1.5-1.1-2.8-2.5-2.8s-2.5,1.2-2.5,2.8
		C587.1,82.4,588.2,83.7,589.6,83.7"/>
	<path fill="#CCCCCC" d="M580.1,359.6c1.4,0,2.5-1.2,2.5-2.8c0-1.5-1.1-2.8-2.5-2.8c-1.4,0-2.5,1.2-2.5,2.8S578.7,359.6,580.1,359.6
		"/>
	<polygon fill="#CCCCCC" points="594.2,386.8 592.9,386.8 592.9,371.6 593.1,371.4 608.8,353.8 608.8,239.8 629.8,239.8 
		629.8,129.6 607.8,105.1 607.8,80.9 609,80.9 609,104.6 631.1,129.1 631.1,241.2 610.1,241.2 610.1,354.4 609.9,354.6 594.2,372.2 
			"/>
	<path fill="#CCCCCC" d="M593.6,389.6c1.4,0,2.5-1.2,2.5-2.8c0-1.6-1.1-2.8-2.5-2.8c-1.4,0-2.5,1.2-2.5,2.8
		C591.1,388.4,592.2,389.6,593.6,389.6"/>
	<path fill="#CCCCCC" d="M608.4,83.7c1.4,0,2.5-1.2,2.5-2.8c0-1.5-1.1-2.8-2.5-2.8c-1.4,0-2.5,1.2-2.5,2.8
		C606,82.4,607.1,83.7,608.4,83.7"/>
	<polygon fill="#CCCCCC" points="644.8,317 643.5,317 643.5,256 643.7,255.8 661.8,235.6 661.8,167.8 645.7,167.8 645.7,119.6 
		625.2,96.8 625.2,80.9 626.4,80.9 626.4,96.2 646.9,119 646.9,166.4 663.1,166.4 663.1,236.2 662.9,236.4 644.8,256.6 	"/>
	<path fill="#CCCCCC" d="M625.8,83.7c1.4,0,2.5-1.2,2.5-2.8c0-1.5-1.1-2.8-2.5-2.8c-1.4,0-2.5,1.2-2.5,2.8
		C623.3,82.4,624.4,83.7,625.8,83.7"/>
	<path fill="#CCCCCC" d="M644.1,319.7c1.4,0,2.5-1.2,2.5-2.8s-1.1-2.8-2.5-2.8s-2.5,1.2-2.5,2.8S642.7,319.7,644.1,319.7"/>
	<polygon fill="#CCCCCC" points="623.8,346.8 622.6,346.8 622.6,260.9 622.8,260.7 637.6,244.2 637.6,189.2 638.8,189.2 
		638.8,244.8 638.6,245 623.8,261.4 	"/>
	<path fill="#CCCCCC" d="M638.2,192c1.4,0,2.5-1.2,2.5-2.8c0-1.5-1.1-2.8-2.5-2.8s-2.5,1.2-2.5,2.8C635.7,190.8,636.8,192,638.2,192
		"/>
	<path fill="#CCCCCC" d="M623.2,349.6c1.4,0,2.5-1.2,2.5-2.8c0-1.5-1.1-2.8-2.5-2.8s-2.5,1.2-2.5,2.8
		C620.7,348.4,621.8,349.6,623.2,349.6"/>
	<polygon fill="#CCCCCC" points="675,410.2 673.7,410.2 673.7,386 673.9,385.8 692.7,364.9 692.7,336.9 671.7,336.9 671.7,157.5 
		686.5,157.5 686.5,123.8 671.7,107.4 671.7,80.9 673,80.9 673,106.8 687.7,123.2 687.7,158.9 673,158.9 673,335.5 694,335.5 
		694,365.5 693.8,365.7 675,386.6 	"/>
	<path fill="#CCCCCC" d="M672.4,83.7c1.4,0,2.5-1.2,2.5-2.8c0-1.5-1.1-2.8-2.5-2.8s-2.5,1.2-2.5,2.8C669.9,82.4,671,83.7,672.4,83.7
		"/>
	<path fill="#CCCCCC" d="M674.4,413c1.4,0,2.5-1.2,2.5-2.8c0-1.5-1.1-2.8-2.5-2.8c-1.4,0-2.5,1.2-2.5,2.8
		C671.9,411.8,673,413,674.4,413"/>
	<polygon fill="#CCCCCC" points="528,359.1 526.7,359.1 526.7,261.6 542,261.6 542,194.1 526,176.3 526,80.9 527.2,80.9 
		527.2,175.7 543.2,193.6 543.2,263 528,263 	"/>
	<path fill="#CCCCCC" d="M526.6,83.7c1.4,0,2.5-1.2,2.5-2.8c0-1.5-1.1-2.8-2.5-2.8s-2.5,1.2-2.5,2.8
		C524.1,82.4,525.2,83.7,526.6,83.7"/>
	<path fill="#CCCCCC" d="M527.3,361.9c1.4,0,2.5-1.2,2.5-2.8c0-1.5-1.1-2.8-2.5-2.8c-1.4,0-2.5,1.2-2.5,2.8
		C524.8,360.6,526,361.9,527.3,361.9"/>
	<polygon fill="#CCCCCC" points="536.3,356.8 535,356.8 535,271.6 550.9,271.6 550.9,191.8 535,174.1 535,80.9 536.3,80.9 
		536.3,173.5 552.1,191.3 552.1,273 536.3,273 	"/>
	<path fill="#CCCCCC" d="M535.7,83.7c1.4,0,2.5-1.2,2.5-2.8c0-1.5-1.1-2.8-2.5-2.8c-1.4,0-2.5,1.3-2.5,2.8S534.3,83.7,535.7,83.7"/>
	<path fill="#CCCCCC" d="M535.7,359.6c1.4,0,2.5-1.2,2.5-2.8c0-1.5-1.1-2.8-2.5-2.8c-1.4,0-2.5,1.2-2.5,2.8S534.3,359.6,535.7,359.6
		"/>
	<polygon fill="#CCCCCC" points="521.2,334.6 520,334.6 520,247.5 532.6,247.5 532.6,194.8 516,176.3 516,80.9 517.2,80.9 
		517.2,175.7 533.8,194.2 533.8,248.9 521.2,248.9 	"/>
	<path fill="#CCCCCC" d="M516.6,83.7c1.4,0,2.5-1.2,2.5-2.8c0-1.5-1.1-2.8-2.5-2.8c-1.4,0-2.5,1.2-2.5,2.8
		C514.1,82.4,515.2,83.7,516.6,83.7"/>
	<path fill="#CCCCCC" d="M520.6,337.4c1.4,0,2.5-1.2,2.5-2.8c0-1.5-1.1-2.8-2.5-2.8s-2.5,1.2-2.5,2.8
		C518.1,336.1,519.2,337.4,520.6,337.4"/>
	<polygon fill="#CCCCCC" points="367,251.8 365.8,251.8 365.8,220.9 366,220.7 383.6,201 383.6,112.1 397.1,112.1 397.1,80.9 
		398.3,80.9 398.3,113.5 384.8,113.5 384.8,201.6 384.6,201.8 367,221.5 	"/>
	<path fill="#CCCCCC" d="M397.7,83.7c1.4,0,2.5-1.2,2.5-2.8c0-1.5-1.1-2.8-2.5-2.8s-2.5,1.2-2.5,2.8
		C395.2,82.4,396.3,83.7,397.7,83.7"/>
	<path fill="#CCCCCC" d="M366.4,254.6c1.4,0,2.5-1.2,2.5-2.8c0-1.5-1.1-2.8-2.5-2.8c-1.4,0-2.5,1.2-2.5,2.8S365,254.6,366.4,254.6"
		/>
	<polygon fill="#CCCCCC" points="324.7,270.6 323.4,270.6 323.4,234.8 338.4,234.8 338.4,179.7 319.9,159.1 319.9,82.6 321.2,82.6 
		321.2,158.5 339.7,179.1 339.7,236.2 324.7,236.2 	"/>
	<path fill="#CCCCCC" d="M320.5,85.4c1.4,0,2.5-1.2,2.5-2.8c0-1.5-1.1-2.8-2.5-2.8c-1.4,0-2.5,1.2-2.5,2.8
		C318.1,84.1,319.1,85.4,320.5,85.4"/>
	<path fill="#CCCCCC" d="M324,273.4c1.4,0,2.5-1.2,2.5-2.8c0-1.5-1.1-2.8-2.5-2.8c-1.4,0-2.5,1.2-2.5,2.8
		C321.5,272.2,322.7,273.4,324,273.4"/>
	<polygon fill="#CCCCCC" points="321.2,349.6 319.9,349.6 319.9,289.8 329.2,279.4 329.2,241.3 346.2,241.3 346.2,175.8 
		328.2,155.7 328.2,91.3 337.2,91.3 337.2,92.7 329.5,92.7 329.5,155.1 347.5,175.2 347.5,242.7 330.5,242.7 330.5,280 321.2,290.4 
			"/>
	<path fill="#CCCCCC" d="M337.2,94.8c1.4,0,2.5-1.2,2.5-2.8c0-1.6-1.1-2.8-2.5-2.8c-1.4,0-2.5,1.2-2.5,2.8
		C334.7,93.6,335.8,94.8,337.2,94.8"/>
	<path fill="#CCCCCC" d="M320.5,352.4c1.4,0,2.5-1.2,2.5-2.8c0-1.6-1.1-2.8-2.5-2.8c-1.4,0-2.5,1.2-2.5,2.8
		C318.1,351.2,319.1,352.4,320.5,352.4"/>
	<polygon fill="#CCCCCC" points="342.5,340.7 329.9,340.7 329.9,297.1 338.8,287.2 338.8,251 354.4,251 354.4,172.4 339.4,155.7 
		339.4,101.4 353.6,101.4 353.6,102.8 340.7,102.8 340.7,155.1 355.7,171.8 355.7,252.4 340,252.4 340,287.8 331.2,297.7 
		331.2,339.3 342.5,339.3 	"/>
	<path fill="#CCCCCC" d="M353.6,104.8c1.4,0,2.5-1.2,2.5-2.8c0-1.5-1.1-2.8-2.5-2.8s-2.5,1.2-2.5,2.8S352.2,104.8,353.6,104.8"/>
	<path fill="#CCCCCC" d="M342.5,342.8c1.4,0,2.5-1.2,2.5-2.8c0-1.6-1.1-2.8-2.5-2.8s-2.5,1.2-2.5,2.8
		C340,341.6,341.2,342.8,342.5,342.8"/>
	<polyline fill="#CCCCCC" points="212.9,305.2 250.3,305.2 250.3,314.5 251.6,314.5 251.6,303.8 212.3,303.8 	"/>
	<path fill="#CCCCCC" d="M253.5,314.5c0,1.5-1.1,2.8-2.5,2.8s-2.5-1.2-2.5-2.8c0-1.6,1.1-2.8,2.5-2.8S253.5,313,253.5,314.5"/>
	<polyline fill="#CCCCCC" points="203.3,312.7 240.7,312.7 240.7,329.8 241.9,329.8 241.9,311.3 202.8,311.3 	"/>
	<path fill="#CCCCCC" d="M243.8,329.8c0,1.5-1.1,2.8-2.5,2.8c-1.4,0-2.5-1.2-2.5-2.8c0-1.5,1.1-2.8,2.5-2.8
		C242.7,327.1,243.8,328.3,243.8,329.8"/>
	<polygon fill="#CCCCCC" points="284.6,232.2 283.3,232.2 283.3,176 283.5,175.8 301.1,156.3 301.1,80.3 302.4,80.3 302.4,156.8 
		302.2,157 284.6,176.5 	"/>
	<path fill="#CCCCCC" d="M301.7,83.1c1.4,0,2.5-1.2,2.5-2.8c0-1.5-1.1-2.8-2.5-2.8s-2.5,1.2-2.5,2.8
		C299.2,81.9,300.3,83.1,301.7,83.1"/>
	<path fill="#CCCCCC" d="M283.9,235c1.4,0,2.5-1.2,2.5-2.8c0-1.6-1.1-2.8-2.5-2.8c-1.4,0-2.5,1.2-2.5,2.8
		C281.4,233.7,282.5,235,283.9,235"/>
	<polygon fill="#CCCCCC" points="276.7,216.7 275.5,216.7 275.5,166.8 275.7,166.6 292,148.6 292,87 293.2,87 293.2,149.1 
		293.1,149.3 276.7,167.4 	"/>
	<path fill="#CCCCCC" d="M292.6,89.8c1.4,0,2.5-1.2,2.5-2.8c0-1.5-1.1-2.8-2.5-2.8c-1.4,0-2.5,1.2-2.5,2.8S291.2,89.8,292.6,89.8"/>
	<path fill="#CCCCCC" d="M276.1,219.5c1.4,0,2.5-1.2,2.5-2.8c0-1.5-1.1-2.8-2.5-2.8c-1.4,0-2.5,1.2-2.5,2.8
		C273.6,218.2,274.7,219.5,276.1,219.5"/>
	<rect x="205.9" y="81.6" fill="#CCCCCC" width="42.9" height="1.4"/>
	<path fill="#CCCCCC" d="M248.9,85c1.4,0,2.5-1.2,2.5-2.8s-1.1-2.8-2.5-2.8s-2.5,1.2-2.5,2.8S247.5,85,248.9,85"/>
	<rect x="211.9" y="90.5" fill="#CCCCCC" width="21" height="1.4"/>
	<path fill="#CCCCCC" d="M232.9,94c1.4,0,2.5-1.2,2.5-2.8c0-1.6-1.1-2.8-2.5-2.8c-1.4,0-2.5,1.2-2.5,2.8
		C230.4,92.8,231.5,94,232.9,94"/>
	<rect x="213.9" y="65" fill="#CCCCCC" width="46.9" height="1.4"/>
	<path fill="#CCCCCC" d="M260.9,68.4c1.4,0,2.5-1.2,2.5-2.8c0-1.5-1.1-2.8-2.5-2.8s-2.5,1.2-2.5,2.8
		C258.4,67.2,259.5,68.4,260.9,68.4"/>
	<rect x="209.4" y="274.7" fill="#CCCCCC" width="46.9" height="1.4"/>
	<path fill="#CCCCCC" d="M256.4,278.2c1.4,0,2.5-1.2,2.5-2.8c0-1.5-1.1-2.8-2.5-2.8c-1.4,0-2.5,1.2-2.5,2.8
		C253.9,277,255,278.2,256.4,278.2"/>
	<rect x="212.9" y="296.7" fill="#CCCCCC" width="46.9" height="1.4"/>
	<path fill="#CCCCCC" d="M259.9,300.1c1.4,0,2.5-1.2,2.5-2.8c0-1.6-1.1-2.8-2.5-2.8c-1.4,0-2.5,1.2-2.5,2.8
		C257.4,299,258.5,300.1,259.9,300.1"/>
	<polygon fill="#CCCCCC" points="211.6,120.8 175,120.8 175,119.4 211.1,119.4 228.1,100.5 249.9,100.5 249.9,101.9 228.7,101.9 	
		"/>
	<path fill="#CCCCCC" d="M249.9,104c1.4,0,2.5-1.2,2.5-2.8c0-1.5-1.1-2.8-2.5-2.8c-1.4,0-2.5,1.2-2.5,2.8
		C247.4,102.7,248.5,104,249.9,104"/>
	<polygon fill="#CCCCCC" points="212.6,132 178,132 178,130.6 212.1,130.6 230.6,110 263.3,110 263.3,111.4 231.2,111.4 	"/>
	<path fill="#CCCCCC" d="M263.3,113.4c1.4,0,2.5-1.2,2.5-2.8c0-1.6-1.1-2.8-2.5-2.8c-1.4,0-2.5,1.2-2.5,2.8
		C260.9,112.2,261.9,113.4,263.3,113.4"/>
	<rect x="213.9" y="-39.7" fill="#CCCCCC" width="35.9" height="1.4"/>
	<path fill="#CCCCCC" d="M249.9-36.2c1.4,0,2.5-1.2,2.5-2.8c0-1.5-1.1-2.8-2.5-2.8c-1.4,0-2.5,1.2-2.5,2.8
		C247.4-37.4,248.5-36.2,249.9-36.2"/>
	<rect x="213.9" y="-50.8" fill="#CCCCCC" width="27" height="1.4"/>
	<path fill="#CCCCCC" d="M240.9-47.3c1.4,0,2.5-1.2,2.5-2.8c0-1.6-1.1-2.8-2.5-2.8s-2.5,1.2-2.5,2.8
		C238.4-48.5,239.5-47.3,240.9-47.3"/>
	<rect x="214.9" y="-63" fill="#CCCCCC" width="14.5" height="1.4"/>
	<path fill="#CCCCCC" d="M229.4-59.6c1.4,0,2.5-1.2,2.5-2.8c0-1.6-1.1-2.8-2.5-2.8c-1.4,0-2.5,1.2-2.5,2.8
		C226.9-60.8,228-59.6,229.4-59.6"/>
	<polygon fill="#CCCCCC" points="255.7,-95 171,-95 171,-96.4 255.2,-96.4 272.1,-115.3 322.9,-115.3 322.9,-113.9 272.6,-113.9 	
		"/>
	<path fill="#CCCCCC" d="M322.9-111.8c1.4,0,2.5-1.2,2.5-2.8c0-1.5-1.1-2.8-2.5-2.8c-1.4,0-2.5,1.2-2.5,2.8
		C320.4-113.1,321.5-111.8,322.9-111.8"/>
	<polygon fill="#CCCCCC" points="250.7,-107 164.9,-107 164.9,-108.4 250.2,-108.4 266.6,-126.9 312,-126.9 312,-125.5 
		267.2,-125.5 	"/>
	<path fill="#CCCCCC" d="M312-123.4c1.4,0,2.5-1.2,2.5-2.8c0-1.5-1.1-2.8-2.5-2.8c-1.4,0-2.5,1.2-2.5,2.8
		C309.5-124.6,310.6-123.4,312-123.4"/>
	<polygon fill="#CCCCCC" points="240.8,-118.5 192,-118.5 192,-119.9 240.3,-119.9 256.2,-137.6 303.5,-137.6 303.5,-136.2 
		256.7,-136.2 	"/>
	<path fill="#CCCCCC" d="M303.5-134.1c1.4,0,2.5-1.2,2.5-2.8c0-1.5-1.1-2.8-2.5-2.8s-2.5,1.2-2.5,2.8S302.1-134.1,303.5-134.1"/>
	<polygon fill="#CCCCCC" points="233.2,-126.7 201,-126.7 201,-128.1 232.6,-128.1 251.2,-148.7 292.4,-148.7 292.4,-147.3 
		251.7,-147.3 	"/>
	<path fill="#CCCCCC" d="M292.4-145.2c1.4,0,2.5-1.2,2.5-2.8c0-1.6-1.1-2.8-2.5-2.8s-2.5,1.2-2.5,2.8
		C289.9-146.4,291-145.2,292.4-145.2"/>
	<polygon fill="#CCCCCC" points="232.2,-140 210.9,-140 210.9,-141.4 231.6,-141.4 247.4,-158.8 301.3,-158.8 301.3,-157.4 
		247.9,-157.4 	"/>
	<path fill="#CCCCCC" d="M301.3-155.3c1.4,0,2.5-1.2,2.5-2.8s-1.1-2.8-2.5-2.8c-1.4,0-2.5,1.2-2.5,2.8S299.9-155.3,301.3-155.3"/>
	<rect x="212.9" y="-182.6" fill="#CCCCCC" width="36.9" height="1.4"/>
	<path fill="#CCCCCC" d="M249.9-179.1c1.4,0,2.5-1.2,2.5-2.8c0-1.6-1.1-2.8-2.5-2.8c-1.4,0-2.5,1.2-2.5,2.8
		C247.4-180.3,248.5-179.1,249.9-179.1"/>
	<rect x="211.9" y="-201" fill="#CCCCCC" width="32.2" height="1.4"/>
	<path fill="#CCCCCC" d="M244.2-197.5c1.4,0,2.5-1.2,2.5-2.8c0-1.5-1.1-2.8-2.5-2.8c-1.4,0-2.5,1.2-2.5,2.8
		C241.7-198.7,242.8-197.5,244.2-197.5"/>
	<rect x="188" y="-212.1" fill="#CCCCCC" width="45.4" height="1.4"/>
	<path fill="#CCCCCC" d="M233.4-208.6c1.4,0,2.5-1.2,2.5-2.8s-1.1-2.8-2.5-2.8s-2.5,1.2-2.5,2.8S232-208.6,233.4-208.6"/>
</g>
</svg>
