<?xml version="1.0" encoding="utf-8"?>
<!-- Generator: Adobe Illustrator 18.1.0, SVG Export Plug-In . SVG Version: 6.00 Build 0)  -->
<svg version="1.1" id="Layer_1" xmlns="http://www.w3.org/2000/svg" xmlns:xlink="http://www.w3.org/1999/xlink" x="0px" y="0px"
	 width="572px" height="965.8px" viewBox="150 -306.8 572 965.8" enable-background="new 150 -306.8 572 965.8"
	 xml:space="preserve">
<g id="circuts_x5F_right">
	<polygon fill="#CCCCCC" points="552.7,-61.1 551.5,-61.1 551.5,-122 537.5,-122 537.5,-204.4 520.5,-221.5 520.5,-264.3 
		521.7,-264.3 521.7,-222 538.7,-205 538.7,-123.3 552.7,-123.3 	"/>
	<path fill="#CCCCCC" d="M521.1-261.8c1.4,0,2.5-1.1,2.5-2.5s-1.1-2.5-2.5-2.5c-1.4,0-2.5,1.1-2.5,2.5S519.7-261.8,521.1-261.8"/>
	<path fill="#CCCCCC" d="M552.1-58.6c1.4,0,2.5-1.1,2.5-2.5s-1.1-2.5-2.5-2.5c-1.4,0-2.5,1.1-2.5,2.5
		C549.6-59.7,550.7-58.6,552.1-58.6"/>
	<polygon fill="#CCCCCC" points="569.1,-113.1 567.9,-113.1 567.9,-136 552.5,-151.4 552.5,-220 537,-235.5 537,-291.3 
		538.2,-291.3 538.2,-236 553.7,-220.5 553.7,-151.9 569.1,-136.5 	"/>
	<path fill="#CCCCCC" d="M537.6-288.8c1.4,0,2.5-1.1,2.5-2.5s-1.1-2.5-2.5-2.5c-1.4,0-2.5,1.1-2.5,2.5S536.2-288.8,537.6-288.8"/>
	<path fill="#CCCCCC" d="M568.5-110.6c1.4,0,2.5-1.1,2.5-2.5s-1.1-2.5-2.5-2.5s-2.5,1.1-2.5,2.5S567.1-110.6,568.5-110.6"/>
	<polygon fill="#CCCCCC" points="544.7,-60.6 543.5,-60.6 543.5,-115 529.5,-115 529.5,-190.7 512.1,-208.1 512.1,-285.3 
		513.3,-285.3 513.3,-208.6 530.7,-191.2 530.7,-116.3 544.7,-116.3 	"/>
	<path fill="#CCCCCC" d="M512.7-282.8c1.4,0,2.5-1.1,2.5-2.5s-1.1-2.5-2.5-2.5c-1.4,0-2.5,1.1-2.5,2.5S511.3-282.8,512.7-282.8"/>
	<path fill="#CCCCCC" d="M544.1-58.1c1.4,0,2.5-1.1,2.5-2.5s-1.1-2.5-2.5-2.5c-1.4,0-2.5,1.1-2.5,2.5
		C541.6-59.2,542.7-58.1,544.1-58.1"/>
	<polygon fill="#CCCCCC" points="563.7,-157.2 562.5,-157.2 562.5,-273 546,-289.5 546,-304.3 547.2,-304.3 547.2,-290 
		563.7,-273.5 	"/>
	<path fill="#CCCCCC" d="M546.6-301.8c1.4,0,2.5-1.1,2.5-2.5s-1.1-2.5-2.5-2.5c-1.4,0-2.5,1.1-2.5,2.5S545.2-301.8,546.6-301.8"/>
	<path fill="#CCCCCC" d="M563.1-154.7c1.4,0,2.5-1.1,2.5-2.5s-1.1-2.5-2.5-2.5c-1.4,0-2.5,1.1-2.5,2.5S561.7-154.7,563.1-154.7"/>
	<polygon fill="#CCCCCC" points="165.1,83.6 163.9,83.6 163.9,28.3 164.1,28.1 182.3,9.9 182.3,-62.2 169.9,-62.2 169.9,-144.4 
		151.9,-162.4 151.9,-205.2 153.1,-205.2 153.1,-162.9 171.1,-144.9 171.1,-63.4 183.5,-63.4 183.5,10.4 183.4,10.6 165.1,28.8 	"/>
	<path fill="#CCCCCC" d="M152.5-202.7c1.4,0,2.5-1.1,2.5-2.5s-1.1-2.5-2.5-2.5s-2.5,1.1-2.5,2.5S151.1-202.7,152.5-202.7"/>
	<path fill="#CCCCCC" d="M164.5,86.1c1.4,0,2.5-1.1,2.5-2.5s-1.1-2.5-2.5-2.5s-2.5,1.1-2.5,2.5S163.1,86.1,164.5,86.1"/>
	<polygon fill="#CCCCCC" points="501.4,-19.6 500.5,-20.5 511.6,-31.6 511.6,-46.9 498.8,-46.9 498.8,-137.6 500.1,-137.6 
		500.1,-48.2 512.8,-48.2 512.8,-31 	"/>
	<path fill="#CCCCCC" d="M499.5-135.1c1.4,0,2.5-1.1,2.5-2.5s-1.1-2.5-2.5-2.5s-2.5,1.1-2.5,2.5S498.1-135.1,499.5-135.1"/>
	<path fill="#CCCCCC" d="M501-17.5c1.4,0,2.5-1.1,2.5-2.5s-1.1-2.5-2.5-2.5s-2.5,1.1-2.5,2.5C498.5-18.7,499.6-17.5,501-17.5"/>
	<polygon fill="#CCCCCC" points="190.5,-92.1 189.3,-92.1 189.3,-152.3 173.1,-168.4 173.1,-235.2 174.4,-235.2 174.4,-168.9 
		190.5,-152.8 	"/>
	<path fill="#CCCCCC" d="M173.8-232.7c1.4,0,2.5-1.1,2.5-2.5s-1.1-2.5-2.5-2.5s-2.5,1.1-2.5,2.5S172.4-232.7,173.8-232.7"/>
	<path fill="#CCCCCC" d="M189.9-89.6c1.4,0,2.5-1.1,2.5-2.5s-1.1-2.5-2.5-2.5s-2.5,1.1-2.5,2.5S188.5-89.6,189.9-89.6"/>
	<polygon fill="#CCCCCC" points="287.2,-109.9 286,-109.9 286,-164.4 270,-180.4 270,-222.2 271.2,-222.2 271.2,-180.9 
		287.2,-164.9 	"/>
	<path fill="#CCCCCC" d="M270.6-219.7c1.4,0,2.5-1.1,2.5-2.5s-1.1-2.5-2.5-2.5s-2.5,1.1-2.5,2.5S269.2-219.7,270.6-219.7"/>
	<path fill="#CCCCCC" d="M286.6-107.4c1.4,0,2.5-1.1,2.5-2.5s-1.1-2.5-2.5-2.5s-2.5,1.1-2.5,2.5S285.2-107.4,286.6-107.4"/>
	<polygon fill="#CCCCCC" points="263.2,84.6 262,84.6 262,-15.5 262.2,-15.7 278,-31.6 278,-106.7 262,-106.7 262,-175.4 
		263.2,-175.4 263.2,-108 279.2,-108 279.2,-31 279.1,-30.9 263.2,-15 	"/>
	<path fill="#CCCCCC" d="M262.6-172.9c1.4,0,2.5-1.1,2.5-2.5s-1.1-2.5-2.5-2.5s-2.5,1.1-2.5,2.5C260.1-174,261.2-172.9,262.6-172.9"
		/>
	<path fill="#CCCCCC" d="M262.6,87.1c1.4,0,2.5-1.1,2.5-2.5s-1.1-2.5-2.5-2.5s-2.5,1.1-2.5,2.5S261.2,87.1,262.6,87.1"/>
	<polygon fill="#CCCCCC" points="253.2,61.5 252,61.5 252,-17.8 252.1,-18 270,-35.8 270,-100 252,-100 252,-163.5 253.2,-163.5 
		253.2,-101.2 271.2,-101.2 271.2,-35.3 271,-35.1 253.2,-17.3 	"/>
	<path fill="#CCCCCC" d="M252.6-161c1.4,0,2.5-1.1,2.5-2.5s-1.1-2.5-2.5-2.5c-1.4,0-2.5,1.1-2.5,2.5S251.2-161,252.6-161"/>
	<path fill="#CCCCCC" d="M252.6,64c1.4,0,2.5-1.1,2.5-2.5c0-1.4-1.1-2.5-2.5-2.5c-1.4,0-2.5,1.1-2.5,2.5
		C250.1,62.9,251.2,64,252.6,64"/>
	<polygon fill="#CCCCCC" points="242.2,12 241,12 241,-21.3 241.1,-21.5 261.5,-41.8 261.5,-91.5 241,-91.5 241,-145.8 
		242.2,-145.8 242.2,-92.7 262.7,-92.7 262.7,-41.3 262.5,-41.1 242.2,-20.8 	"/>
	<path fill="#CCCCCC" d="M241.6-143.3c1.4,0,2.5-1.1,2.5-2.5s-1.1-2.5-2.5-2.5c-1.4,0-2.5,1.1-2.5,2.5S240.2-143.3,241.6-143.3"/>
	<path fill="#CCCCCC" d="M241.6,14.5c1.4,0,2.5-1.1,2.5-2.5s-1.1-2.5-2.5-2.5c-1.4,0-2.5,1.1-2.5,2.5S240.2,14.5,241.6,14.5"/>
	<polygon fill="#CCCCCC" points="222.2,-2 220.9,-2 220.9,-28.3 208.9,-40.3 208.9,-93.6 209.1,-93.8 225.9,-110.6 225.9,-134.6 
		227.2,-134.6 227.2,-110.1 227,-109.9 210.2,-93.1 210.2,-40.8 222.2,-28.8 	"/>
	<path fill="#CCCCCC" d="M226.6-132.1c1.4,0,2.5-1.1,2.5-2.5s-1.1-2.5-2.5-2.5c-1.4,0-2.5,1.1-2.5,2.5S225.2-132.1,226.6-132.1"/>
	<path fill="#CCCCCC" d="M221.6,0.5c1.4,0,2.5-1.1,2.5-2.5s-1.1-2.5-2.5-2.5c-1.4,0-2.5,1.1-2.5,2.5C219.1-0.6,220.2,0.5,221.6,0.5"
		/>
	<polygon fill="#CCCCCC" points="297.5,-90.1 296.3,-90.1 296.3,-165.8 278.6,-183.4 278.6,-238.2 279.9,-238.2 279.9,-183.9 
		297.5,-166.3 	"/>
	<path fill="#CCCCCC" d="M279.2-235.7c1.4,0,2.5-1.1,2.5-2.5s-1.1-2.5-2.5-2.5c-1.4,0-2.5,1.1-2.5,2.5S277.9-235.7,279.2-235.7"/>
	<path fill="#CCCCCC" d="M296.9-87.6c1.4,0,2.5-1.1,2.5-2.5s-1.1-2.5-2.5-2.5s-2.5,1.1-2.5,2.5S295.5-87.6,296.9-87.6"/>
	<polygon fill="#CCCCCC" points="316.1,-97 304,-97 304,-150.2 305.3,-150.2 305.3,-98.2 316.1,-98.2 	"/>
	<path fill="#CCCCCC" d="M304.6-147.7c1.4,0,2.5-1.1,2.5-2.5s-1.1-2.5-2.5-2.5s-2.5,1.1-2.5,2.5S303.3-147.7,304.6-147.7"/>
	<path fill="#CCCCCC" d="M316.1-95.1c1.4,0,2.5-1.1,2.5-2.5s-1.1-2.5-2.5-2.5s-2.5,1.1-2.5,2.5S314.8-95.1,316.1-95.1"/>
	<polygon fill="#CCCCCC" points="329.2,-105.7 311.8,-105.7 311.8,-169.2 313,-169.2 313,-107 329.2,-107 	"/>
	<path fill="#CCCCCC" d="M312.4-166.7c1.4,0,2.5-1.1,2.5-2.5s-1.1-2.5-2.5-2.5s-2.5,1.1-2.5,2.5S311-166.7,312.4-166.7"/>
	<path fill="#CCCCCC" d="M329.2-103.9c1.4,0,2.5-1.1,2.5-2.5s-1.1-2.5-2.5-2.5c-1.4,0-2.5,1.1-2.5,2.5S327.8-103.9,329.2-103.9"/>
	<polygon fill="#CCCCCC" points="283.1,99.1 281.8,99.1 281.8,67.9 282,67.8 296,53.8 296,-80.2 338,-80.2 338,-152.2 339.3,-152.2 
		339.3,-79 297.3,-79 297.3,54.3 297.1,54.5 283.1,68.5 	"/>
	<path fill="#CCCCCC" d="M338.7-149.7c1.4,0,2.5-1.1,2.5-2.5s-1.1-2.5-2.5-2.5c-1.4,0-2.5,1.1-2.5,2.5S337.3-149.7,338.7-149.7"/>
	<path fill="#CCCCCC" d="M282.5,101.6c1.4,0,2.5-1.1,2.5-2.5s-1.1-2.5-2.5-2.5s-2.5,1.1-2.5,2.5C280,100.4,281.1,101.6,282.5,101.6"
		/>
	<polygon fill="#CCCCCC" points="323.2,65.7 322,65.7 322,46.9 303.8,28.7 303.8,-73.2 345.9,-73.2 345.9,-135.3 347.2,-135.3 
		347.2,-72 305,-72 305,28.2 323.2,46.4 	"/>
	<path fill="#CCCCCC" d="M346.6-132.8c1.4,0,2.5-1.1,2.5-2.5s-1.1-2.5-2.5-2.5s-2.5,1.1-2.5,2.5S345.2-132.8,346.6-132.8"/>
	<path fill="#CCCCCC" d="M322.6,68.2c1.4,0,2.5-1.1,2.5-2.5s-1.1-2.5-2.5-2.5s-2.5,1.1-2.5,2.5S321.2,68.2,322.6,68.2"/>
	<polygon fill="#CCCCCC" points="353.1,89.6 351.9,89.6 351.9,44.4 352.1,44.2 368.1,28.2 368.1,-26.4 353.1,-26.4 353.1,-126.1 
		354.3,-126.1 354.3,-27.7 369.3,-27.7 369.3,28.7 369.1,28.9 353.1,44.9 	"/>
	<path fill="#CCCCCC" d="M353.7-123.6c1.4,0,2.5-1.1,2.5-2.5s-1.1-2.5-2.5-2.5c-1.4,0-2.5,1.1-2.5,2.5S352.3-123.6,353.7-123.6"/>
	<path fill="#CCCCCC" d="M352.5,92.1c1.4,0,2.5-1.1,2.5-2.5s-1.1-2.5-2.5-2.5s-2.5,1.1-2.5,2.5S351.1,92.1,352.5,92.1"/>
	<polygon fill="#CCCCCC" points="457.5,186.2 440.4,186.2 440.2,186 365.1,110.8 365.1,48.8 365.2,48.6 383.1,30.8 383.1,-39.9 
		370.1,-39.9 370.1,-165.4 353.1,-182.4 353.1,-223.2 354.3,-223.2 354.3,-182.9 371.3,-165.9 371.3,-41.2 384.3,-41.2 384.3,31.3 
		384.1,31.5 366.3,49.3 366.3,110.3 440.9,184.9 457.5,184.9 	"/>
	<path fill="#CCCCCC" d="M353.7-220.7c1.4,0,2.5-1.1,2.5-2.5s-1.1-2.5-2.5-2.5c-1.4,0-2.5,1.1-2.5,2.5S352.3-220.7,353.7-220.7"/>
	<polygon fill="#CCCCCC" points="398.3,-63.3 397.1,-63.3 397.1,-166.4 376.1,-187.4 376.1,-249.2 377.3,-249.2 377.3,-187.9 
		398.3,-166.9 	"/>
	<path fill="#CCCCCC" d="M376.7-246.7c1.4,0,2.5-1.1,2.5-2.5s-1.1-2.5-2.5-2.5c-1.4,0-2.5,1.1-2.5,2.5S375.3-246.7,376.7-246.7"/>
	<path fill="#CCCCCC" d="M397.7-60.8c1.4,0,2.5-1.1,2.5-2.5s-1.1-2.5-2.5-2.5c-1.4,0-2.5,1.1-2.5,2.5S396.3-60.8,397.7-60.8"/>
	<polygon fill="#CCCCCC" points="414.5,-55.6 413.2,-55.6 413.2,-114.2 404.1,-123.4 404.1,-157.2 405.3,-157.2 405.3,-123.9 
		414.5,-114.8 	"/>
	<path fill="#CCCCCC" d="M404.7-154.7c1.4,0,2.5-1.1,2.5-2.5s-1.1-2.5-2.5-2.5c-1.4,0-2.5,1.1-2.5,2.5S403.3-154.7,404.7-154.7"/>
	<path fill="#CCCCCC" d="M413.9-53.1c1.4,0,2.5-1.1,2.5-2.5s-1.1-2.5-2.5-2.5s-2.5,1.1-2.5,2.5S412.5-53.1,413.9-53.1"/>
	<polygon fill="#CCCCCC" points="442.4,8.6 422.1,8.6 422.1,-32.9 433.4,-32.9 433.4,-8.5 432.1,-8.5 432.1,-31.7 423.4,-31.7 
		423.4,7.4 441.1,7.4 441.1,-45.8 422.1,-45.8 422.1,-152.3 436.3,-152.3 436.3,-151 423.4,-151 423.4,-47 442.4,-47 	"/>
	<path fill="#CCCCCC" d="M432.7-6c1.4,0,2.5-1.1,2.5-2.5s-1.1-2.5-2.5-2.5c-1.4,0-2.5,1.1-2.5,2.5S431.4-6,432.7-6"/>
	<path fill="#CCCCCC" d="M436.3-149.2c1.4,0,2.5-1.1,2.5-2.5s-1.1-2.5-2.5-2.5c-1.4,0-2.5,1.1-2.5,2.5S434.9-149.2,436.3-149.2"/>
	<polygon fill="#CCCCCC" points="457.4,-29.8 456.1,-29.8 456.1,-66.5 441.6,-66.5 441.6,-138.1 442.9,-138.1 442.9,-67.7 
		457.4,-67.7 	"/>
	<path fill="#CCCCCC" d="M442.3-135.6c1.4,0,2.5-1.1,2.5-2.5s-1.1-2.5-2.5-2.5c-1.4,0-2.5,1.1-2.5,2.5S440.9-135.6,442.3-135.6"/>
	<path fill="#CCCCCC" d="M456.8-27.3c1.4,0,2.5-1.1,2.5-2.5s-1.1-2.5-2.5-2.5c-1.4,0-2.5,1.1-2.5,2.5S455.4-27.3,456.8-27.3"/>
	<polygon fill="#CCCCCC" points="465.4,-41.1 464.2,-41.1 464.2,-73.5 448.8,-73.5 448.8,-125.1 450,-125.1 450,-74.7 465.4,-74.7 	
		"/>
	<path fill="#CCCCCC" d="M449.4-122.6c1.4,0,2.5-1.1,2.5-2.5s-1.1-2.5-2.5-2.5s-2.5,1.1-2.5,2.5C446.9-123.8,448-122.6,449.4-122.6"
		/>
	<path fill="#CCCCCC" d="M464.8-38.6c1.4,0,2.5-1.1,2.5-2.5s-1.1-2.5-2.5-2.5c-1.4,0-2.5,1.1-2.5,2.5S463.4-38.6,464.8-38.6"/>
	<polygon fill="#CCCCCC" points="474.3,27.1 463.5,27.1 463.5,-8.3 463.6,-8.5 480.2,-25 480.2,-89.5 463.5,-89.5 463.5,-203.3 
		476.3,-203.3 476.3,-202.1 464.7,-202.1 464.7,-90.7 481.4,-90.7 481.4,-24.5 481.2,-24.3 464.7,-7.8 464.7,25.9 474.3,25.9 	"/>
	<path fill="#CCCCCC" d="M474.3,29c1.4,0,2.5-1.1,2.5-2.5s-1.1-2.5-2.5-2.5c-1.4,0-2.5,1.1-2.5,2.5S472.9,29,474.3,29"/>
	<path fill="#CCCCCC" d="M476.3-200.2c1.4,0,2.5-1.1,2.5-2.5s-1.1-2.5-2.5-2.5c-1.4,0-2.5,1.1-2.5,2.5S474.9-200.2,476.3-200.2"/>
	<polygon fill="#CCCCCC" points="485.3,16.9 470.2,16.9 470.2,-2.8 470.3,-3 490.2,-22.8 490.2,-98 470.2,-98 470.2,-156.4 
		485.3,-156.4 485.3,-155.2 471.4,-155.2 471.4,-99.2 491.4,-99.2 491.4,-22.3 491.2,-22.1 471.4,-2.3 471.4,15.6 485.3,15.6 	"/>
	<path fill="#CCCCCC" d="M485.3-153.3c1.4,0,2.5-1.1,2.5-2.5s-1.1-2.5-2.5-2.5c-1.4,0-2.5,1.1-2.5,2.5S483.9-153.3,485.3-153.3"/>
	<path fill="#CCCCCC" d="M485.3,18.7c1.4,0,2.5-1.1,2.5-2.5s-1.1-2.5-2.5-2.5c-1.4,0-2.5,1.1-2.5,2.5S483.9,18.7,485.3,18.7"/>
	<rect x="215.9" y="-180.2" fill="#CCCCCC" width="1.3" height="57.1"/>
	<path fill="#CCCCCC" d="M216.6-177.7c1.4,0,2.5-1.1,2.5-2.5s-1.1-2.5-2.5-2.5c-1.4,0-2.5,1.1-2.5,2.5S215.2-177.7,216.6-177.7"/>
	<path fill="#CCCCCC" d="M216.6-120.6c1.4,0,2.5-1.1,2.5-2.5s-1.1-2.5-2.5-2.5c-1.4,0-2.5,1.1-2.5,2.5S215.2-120.6,216.6-120.6"/>
	<polygon fill="#CCCCCC" points="200.2,-52.1 198.9,-52.1 198.9,-103.6 205.9,-110.6 205.9,-164.5 207.2,-164.5 207.2,-110.1 
		200.2,-103.1 	"/>
	<path fill="#CCCCCC" d="M206.5-162c1.4,0,2.5-1.1,2.5-2.5s-1.1-2.5-2.5-2.5s-2.5,1.1-2.5,2.5S205.2-162,206.5-162"/>
	<path fill="#CCCCCC" d="M199.5-49.6c1.4,0,2.5-1.1,2.5-2.5s-1.1-2.5-2.5-2.5s-2.5,1.1-2.5,2.5S198.2-49.6,199.5-49.6"/>
	<polygon fill="#CCCCCC" points="247.4,-63.7 224.9,-63.7 224.9,-96.4 234.2,-105.6 234.2,-184.2 235.4,-184.2 235.4,-105.1 
		226.2,-95.8 226.2,-64.9 247.4,-64.9 	"/>
	<path fill="#CCCCCC" d="M247.4-61.8c1.4,0,2.5-1.1,2.5-2.5s-1.1-2.5-2.5-2.5c-1.4,0-2.5,1.1-2.5,2.5S246-61.8,247.4-61.8"/>
	<path fill="#CCCCCC" d="M234.8-181.7c1.4,0,2.5-1.1,2.5-2.5s-1.1-2.5-2.5-2.5s-2.5,1.1-2.5,2.5S233.4-181.7,234.8-181.7"/>
</g>
<g id="Layer_1_1_">
</g>
<g id="computer_x5F_chip_x5F_loading_x5F_SM">
	<path fill="#2DACD8" d="M686.9,130.2h27.2c3.6,0,6.6,4.1,6.6,9.1s-3,9.1-6.6,9.1h-27.2"/>
	<path fill="#2DACD8" d="M686.9,176.3h27.2c3.6,0,6.6,4.1,6.6,9.1s-3,9.1-6.6,9.1h-27.2"/>
	<path fill="#2DACD8" d="M686.9,222.3h27.2c3.6,0,6.6,4.1,6.6,9.1s-3,9.1-6.6,9.1h-27.2"/>
	<path fill="#2DACD8" d="M535,85.6V57.4c0-3.8,4-6.9,8.8-6.9s8.8,3.1,8.8,6.9v28.2"/>
	<path fill="#2DACD8" d="M579.5,85.6V57.4c0-3.8,4-6.9,8.8-6.9s8.8,3.1,8.8,6.9v28.2"/>
	<path fill="#2DACD8" d="M623.9,85.6V57.4c0-3.8,4-6.9,8.8-6.9c4.8,0,8.8,3.1,8.8,6.9v28.2"/>
	<path fill="#2DACD8" d="M552.6,279.5v28.2c0,3.8-4,6.9-8.8,6.9s-8.8-3.1-8.8-6.9v-28.2"/>
	<path fill="#2DACD8" d="M597,279.5v28.2c0,3.8-4,6.9-8.8,6.9s-8.8-3.1-8.8-6.9v-28.2"/>
	<path fill="#2DACD8" d="M641.5,279.5v28.2c0,3.8-4,6.9-8.8,6.9s-8.8-3.1-8.8-6.9v-28.2"/>
	<path fill="#2DACD8" d="M489.6,148.4h-27.2c-3.6,0-6.6-4.1-6.6-9.1s3-9.1,6.6-9.1h27.2"/>
	<path fill="#2DACD8" d="M489.6,194.4h-27.2c-3.6,0-6.6-4.1-6.6-9.1s3-9.1,6.6-9.1h27.2"/>
	<path fill="#2DACD8" d="M489.6,240.5h-27.2c-3.6,0-6.6-4.1-6.6-9.1s3-9.1,6.6-9.1h27.2"/>
	<path fill="#2DACD8" d="M651.5,128.6c0-4.2-2.8-7.7-6.2-7.7h-114c-3.4,0-6.2,3.5-6.2,7.7v108.9c0,4.2,2.8,7.7,6.2,7.7h114
		c3.4,0,6.2-3.5,6.2-7.7V128.6L651.5,128.6z M682.7,264.4c0,6.3-4.2,11.5-9.2,11.5H503.1c-5.1,0-9.2-5.2-9.2-11.5V101.7
		c0-6.3,4.2-11.5,9.2-11.5h170.4c5.1,0,9.2,5.2,9.2,11.5V264.4L682.7,264.4z"/>
	<line fill="none" x1="633" y1="182.8" x2="619.7" y2="182.7"/>
	<path fill="#FBE1C4" d="M616.6,187.9c-1.7-1.1-2.9-3-2.9-5.2c0-3.3,2.7-6,6-6l13.3,0.1c3.3,0,5.9,2.7,5.9,6.1c0,3.3-2.7,6-6,6
		l-13.3-0.1C618.6,188.7,617.5,188.4,616.6,187.9z"/>
	<line fill="none" x1="627.1" y1="160" x2="615.6" y2="166.7"/>
	<path fill="#FCEBD8" d="M612.5,171.9c-0.8-0.5-1.6-1.2-2.1-2.2c-1.6-2.9-0.6-6.6,2.2-8.2l11.5-6.7c2.8-1.6,6.5-0.6,8.1,2.3
		s0.6,6.6-2.2,8.2l-11.5,6.7C616.6,173.1,614.3,173,612.5,171.9z"/>
	<line fill="none" x1="610.9" y1="143.3" x2="604.2" y2="154.9"/>
	<path fill="#C1741E" d="M601.1,160.1c-2.8-1.7-3.7-5.4-2-8.2l6.7-11.6c1.7-2.9,5.3-3.8,8.1-2.2h0.1c2.8,1.7,3.7,5.4,2,8.2
		l-6.7,11.6C607.6,160.9,604,161.8,601.1,160.1L601.1,160.1z"/>
	<line fill="none" x1="588.6" y1="137" x2="588.5" y2="150.5"/>
	<path fill="#D98222" d="M585.4,155.7c-1.7-1.1-2.9-3-2.9-5.2l0.1-13.5c0-3.3,2.7-6,6-6c3.3,0,5.9,2.7,5.9,6.1l-0.1,13.5
		c0,3.3-2.7,6-6,6C587.3,156.6,586.3,156.2,585.4,155.7z"/>
	<line fill="none" x1="566.2" y1="143" x2="572.7" y2="154.7"/>
	<path fill="#F19126" d="M569.7,159.9c-0.8-0.5-1.6-1.2-2.1-2.2L561,146c-1.6-2.9-0.6-6.6,2.2-8.2s6.5-0.6,8.1,2.3l6.6,11.7
		c1.6,2.9,0.6,6.6-2.2,8.2C573.7,161.1,571.4,161,569.7,159.9z"/>
	<line fill="none" x1="549.7" y1="159.5" x2="561.2" y2="166.3"/>
	<path fill="#F29B3A" d="M546.6,164.7c-2.8-1.7-3.7-5.4-2-8.2c1.7-2.9,5.3-3.8,8.1-2.2l11.5,6.8c2.9,1.7,3.8,5.4,2.1,8.3
		c-1.7,2.9-5.3,3.8-8.1,2.2L546.6,164.7C546.7,164.7,546.7,164.7,546.6,164.7z"/>
	<line fill="none" x1="543.6" y1="182.2" x2="556.8" y2="182.3"/>
	<path fill="#F4A54D" d="M540.5,187.4c-1.7-1.1-2.9-3-2.9-5.2c0-3.3,2.7-6,6-6l13.3,0.1c3.3,0,5.9,2.7,5.9,6.1c0,3.3-2.7,6-6,6
		l-13.3-0.1C542.4,188.2,541.4,187.9,540.5,187.4z"/>
	<line fill="none" x1="549.4" y1="205" x2="560.9" y2="198.3"/>
	<path fill="#F5AF61" d="M546.3,210.1c-0.8-0.5-1.6-1.2-2.1-2.2c-1.6-2.9-0.6-6.6,2.2-8.2l11.5-6.7c2.8-1.6,6.5-0.6,8.1,2.3
		s0.6,6.6-2.2,8.2l-11.5,6.7C550.4,211.3,548.1,211.2,546.3,210.1z"/>
	<line fill="none" x1="565.7" y1="221.7" x2="572.4" y2="210.1"/>
	<path fill="#F6B975" d="M562.6,226.9c-2.8-1.7-3.7-5.4-2-8.2l6.7-11.6c1.7-2.9,5.3-3.8,8.1-2.2c2.9,1.7,3.8,5.4,2.1,8.3l-6.7,11.6
		C569.1,227.7,565.5,228.6,562.6,226.9L562.6,226.9z"/>
	<line fill="none" x1="588" y1="228" x2="588.1" y2="214.5"/>
	<path fill="#F7C389" d="M584.9,233.1c-1.7-1.1-2.9-3-2.9-5.2l0.1-13.5c0-3.3,2.7-6,6-6c3.3,0,5.9,2.7,5.9,6.1l-0.1,13.5
		c0,3.3-2.7,6-6,6C586.8,234,585.8,233.7,584.9,233.1z"/>
	<path fill="#F9CD9C" d="M607.3,227.2c-0.8-0.5-1.6-1.2-2.1-2.2l-6.6-11.7c-1.6-2.9-0.6-6.6,2.2-8.2c2.8-1.6,6.5-0.6,8.1,2.3
		l6.6,11.7c1.6,2.9,0.6,6.6-2.2,8.2C611.4,228.4,609.1,228.3,607.3,227.2z"/>
	<line fill="none" x1="626.8" y1="205.5" x2="615.4" y2="198.7"/>
	<path fill="#FAD7B0" d="M612.3,203.8c-2.8-1.7-3.7-5.4-2-8.2c1.7-2.9,5.3-3.8,8.1-2.2l11.5,6.8c2.8,1.7,3.8,5.4,2.1,8.3
		c-1.7,2.9-5.3,3.8-8.1,2.2L612.3,203.8C612.4,203.9,612.3,203.9,612.3,203.8z"/>
</g>
<g id="Layer_1_2_">
</g>
<script  src="chrome-extension://gppongmhjkpfnbhagpmjfkannfbllamg/js/inject.js" id="wappalyzerEnvDetection"></script>
<path fill="none" stroke="#CCCCCC" stroke-miterlimit="10" d="M394.7,284.5h10l51.3-51.3"/>
<g id="computer_x5F_chip_x5F_loading_x5F_SM_1_">
	<path fill="#2DACD8" d="M370.9,278.3h19.7c2.6,0,4.8,2.9,4.8,6.5s-2.2,6.5-4.8,6.5h-19.7"/>
	<path fill="#2DACD8" d="M370.9,311.1h19.7c2.6,0,4.8,2.9,4.8,6.5s-2.2,6.5-4.8,6.5h-19.7"/>
	<path fill="#2DACD8" d="M370.9,343.9h19.7c2.6,0,4.8,2.9,4.8,6.5s-2.2,6.5-4.8,6.5h-19.7"/>
	<path fill="#2DACD8" d="M260.8,246.5v-20.1c0-2.7,2.9-4.9,6.4-4.9s6.4,2.2,6.4,4.9v20.1"/>
	<path fill="#2DACD8" d="M293,246.5v-20.1c0-2.7,2.9-4.9,6.4-4.9s6.4,2.2,6.4,4.9v20.1"/>
	<path fill="#2DACD8" d="M325.2,246.5v-20.1c0-2.7,2.9-4.9,6.4-4.9s6.4,2.2,6.4,4.9v20.1"/>
	<path fill="#2DACD8" d="M273.5,384.6v20.1c0,2.7-2.9,4.9-6.4,4.9s-6.4-2.2-6.4-4.9v-20.1"/>
	<path fill="#2DACD8" d="M305.7,384.6v20.1c0,2.7-2.9,4.9-6.4,4.9s-6.4-2.2-6.4-4.9v-20.1"/>
	<path fill="#2DACD8" d="M338,384.6v20.1c0,2.7-2.9,4.9-6.4,4.9s-6.4-2.2-6.4-4.9v-20.1"/>
	<path fill="#2DACD8" d="M227.9,291.2h-19.7c-2.6,0-4.8-2.9-4.8-6.5s2.2-6.5,4.8-6.5h19.7"/>
	<path fill="#2DACD8" d="M227.9,324h-19.7c-2.6,0-4.8-2.9-4.8-6.5c0-3.6,2.2-6.5,4.8-6.5h19.7"/>
	<path fill="#2DACD8" d="M227.9,356.8h-19.7c-2.6,0-4.8-2.9-4.8-6.5s2.2-6.5,4.8-6.5h19.7"/>
	<path fill="#2DACD8" d="M345.2,277.2c0-3-2-5.5-4.5-5.5h-82.6c-2.5,0-4.5,2.5-4.5,5.5v77.5c0,3,2,5.5,4.5,5.5h82.6
		c2.5,0,4.5-2.5,4.5-5.5V277.2L345.2,277.2z M367.8,373.8c0,4.5-3,8.2-6.7,8.2H237.7c-3.7,0-6.7-3.7-6.7-8.2V258
		c0-4.5,3-8.2,6.7-8.2h123.4c3.7,0,6.7,3.7,6.7,8.2V373.8L367.8,373.8z"/>
	<line fill="none" x1="331.8" y1="315.8" x2="322.2" y2="315.7"/>
	<path fill="#FBE1C4" d="M319.9,319.4c-1.3-0.8-2.1-2.1-2.1-3.7c0-2.4,2-4.3,4.3-4.3l9.6,0.1c2.4,0,4.3,2,4.3,4.3
		c0,2.4-2,4.3-4.3,4.3l-9.6-0.1C321.3,320,320.6,319.8,319.9,319.4z"/>
	<line fill="none" x1="327.5" y1="299.5" x2="319.2" y2="304.3"/>
	<path fill="#FCEBD8" d="M316.9,308c-0.6-0.4-1.1-0.9-1.5-1.5c-1.2-2.1-0.5-4.7,1.6-5.9l8.4-4.8c2.1-1.2,4.7-0.5,5.9,1.6
		c1.2,2.1,0.5,4.7-1.6,5.9l-8.4,4.8C319.9,308.8,318.2,308.7,316.9,308z"/>
	<line fill="none" x1="315.8" y1="287.6" x2="310.9" y2="295.9"/>
	<path fill="#C1741E" d="M308.7,299.6c-2-1.2-2.7-3.8-1.5-5.8l4.9-8.3c1.2-2,3.8-2.7,5.9-1.5c0,0,0,0,0.1,0c2,1.2,2.7,3.8,1.5,5.8
		l-4.9,8.3C313.4,300.1,310.8,300.8,308.7,299.6L308.7,299.6z"/>
	<line fill="none" x1="299.6" y1="283.2" x2="299.5" y2="292.8"/>
	<path fill="#D98222" d="M297.3,296.4c-1.3-0.8-2.1-2.1-2.1-3.7l0.1-9.6c0-2.4,2-4.3,4.3-4.3c2.4,0,4.3,2,4.3,4.3l-0.1,9.6
		c0,2.4-2,4.3-4.3,4.3C298.7,297.1,298,296.8,297.3,296.4z"/>
	<line fill="none" x1="283.4" y1="287.4" x2="288.1" y2="295.7"/>
	<path fill="#F19126" d="M285.9,299.4c-0.6-0.4-1.1-0.9-1.5-1.5l-4.8-8.4c-1.2-2.1-0.5-4.7,1.6-5.9c2.1-1.2,4.7-0.4,5.9,1.6l4.8,8.4
		c1.2,2.1,0.5,4.7-1.6,5.9C288.8,300.3,287.2,300.2,285.9,299.4z"/>
	<line fill="none" x1="271.4" y1="299.2" x2="279.7" y2="304"/>
	<path fill="#F29B3A" d="M269.2,302.8c-2-1.2-2.7-3.8-1.5-5.8c1.2-2,3.8-2.7,5.9-1.5l8.3,4.9c2.1,1.2,2.7,3.8,1.5,5.9
		c-1.2,2-3.8,2.7-5.9,1.5L269.2,302.8C269.3,302.8,269.2,302.8,269.2,302.8z"/>
	<line fill="none" x1="267" y1="315.3" x2="276.6" y2="315.4"/>
	<path fill="#F4A54D" d="M264.8,319c-1.2-0.8-2.1-2.1-2.1-3.7c0-2.4,2-4.3,4.3-4.3l9.6,0.1c2.4,0,4.3,2,4.3,4.3c0,2.4-2,4.3-4.3,4.3
		l-9.6-0.1C266.2,319.6,265.4,319.4,264.8,319z"/>
	<line fill="none" x1="271.2" y1="331.5" x2="279.6" y2="326.8"/>
	<path fill="#F5AF61" d="M269,335.2c-0.6-0.4-1.1-0.9-1.5-1.5c-1.2-2.1-0.5-4.7,1.6-5.9l8.4-4.8c2.1-1.2,4.7-0.5,5.9,1.6
		c1.2,2.1,0.5,4.7-1.6,5.9l-8.4,4.8C271.9,336.1,270.3,336,269,335.2z"/>
	<line fill="none" x1="283" y1="343.5" x2="287.9" y2="335.2"/>
	<path fill="#F6B975" d="M280.8,347.1c-2-1.2-2.7-3.8-1.5-5.8l4.9-8.3c1.2-2,3.8-2.7,5.9-1.5s2.7,3.8,1.5,5.9l-4.9,8.3
		C285.5,347.7,282.9,348.4,280.8,347.1C280.8,347.2,280.8,347.1,280.8,347.1z"/>
	<line fill="none" x1="299.2" y1="347.9" x2="299.2" y2="338.3"/>
	<path fill="#F7C389" d="M296.9,351.6c-1.2-0.8-2.1-2.1-2.1-3.7l0.1-9.6c0-2.4,2-4.3,4.3-4.3c2.4,0,4.3,2,4.3,4.3l-0.1,9.6
		c0,2.4-2,4.3-4.3,4.3C298.3,352.2,297.6,352,296.9,351.6z"/>
	<path fill="#F9CD9C" d="M313.2,347.4c-0.6-0.4-1.1-0.9-1.5-1.5l-4.8-8.4c-1.2-2.1-0.5-4.7,1.6-5.9c2.1-1.2,4.7-0.5,5.9,1.6l4.8,8.4
		c1.2,2.1,0.5,4.7-1.6,5.9C316.1,348.2,314.4,348.1,313.2,347.4z"/>
	<line fill="none" x1="327.3" y1="331.9" x2="319" y2="327.1"/>
	<path fill="#FAD7B0" d="M316.8,330.7c-2-1.2-2.7-3.8-1.5-5.8c1.2-2,3.8-2.7,5.9-1.5l8.3,4.9c2.1,1.2,2.7,3.8,1.5,5.9
		c-1.2,2-3.8,2.7-5.9,1.5L316.8,330.7L316.8,330.7z"/>
</g>
<path fill="none" stroke="#CCCCCC" stroke-miterlimit="10" d="M543.7,314.5v50.9l41,41.2v178L512,658.3h-59.9"/>
</svg>
