<?xml version="1.0" encoding="utf-8"?>
<!-- Generator: Adobe Illustrator 18.1.0, SVG Export Plug-In . SVG Version: 6.00 Build 0)  -->
<svg version="1.1" id="Layer_1" xmlns="http://www.w3.org/2000/svg" xmlns:xlink="http://www.w3.org/1999/xlink" x="0px" y="0px"
	 width="531px" height="628px" viewBox="-65.5 -214 531 628" enable-background="new -65.5 -214 531 628" xml:space="preserve">
<polygon fill="#CCCCCC" points="274.5,230 273.2,230 273.2,159.2 255.3,139.1 255.3,81.4 256.5,81.4 256.5,138.6 274.5,158.6 "/>
<path fill="#CCCCCC" d="M255.9,84.3c1.4,0,2.5-1.2,2.5-2.8s-1.1-2.8-2.5-2.8s-2.5,1.2-2.5,2.8C253.4,83,254.5,84.3,255.9,84.3"/>
<path fill="#CCCCCC" d="M273.8,232.8c1.4,0,2.5-1.2,2.5-2.8s-1.1-2.8-2.5-2.8c-1.4,0-2.5,1.2-2.5,2.8S272.4,232.8,273.8,232.8"/>
<polygon fill="#CCCCCC" points="262.2,227.4 261,227.4 261,159.2 244,140.2 244,81.4 245.2,81.4 245.2,139.7 262.2,158.6 "/>
<path fill="#CCCCCC" d="M244.6,84.3c1.4,0,2.5-1.2,2.5-2.8s-1.1-2.8-2.5-2.8s-2.5,1.2-2.5,2.8C242.1,83,243.2,84.3,244.6,84.3"/>
<path fill="#CCCCCC" d="M261.6,230.2c1.4,0,2.5-1.2,2.5-2.8s-1.1-2.8-2.5-2.8c-1.4,0-2.5,1.2-2.5,2.8
	C259.1,228.9,260.2,230.2,261.6,230.2"/>
<polygon fill="#CCCCCC" points="252,207.4 250.8,207.4 250.8,173.1 232.4,152.5 232.4,81.4 233.6,81.4 233.6,152 252,172.5 "/>
<path fill="#CCCCCC" d="M233,84.3c1.4,0,2.5-1.2,2.5-2.8s-1.1-2.8-2.5-2.8s-2.5,1.2-2.5,2.8C230.5,83,231.6,84.3,233,84.3"/>
<path fill="#CCCCCC" d="M251.4,210.1c1.4,0,2.5-1.2,2.5-2.8c0-1.5-1.1-2.8-2.5-2.8s-2.5,1.2-2.5,2.8
	C248.9,208.9,250,210.1,251.4,210.1"/>
<polygon fill="#CCCCCC" points="324.8,318.8 323.5,318.8 323.5,293.6 332.7,283.4 332.7,183.8 347.6,183.8 347.6,162.5 330.7,143.6 
	330.7,81.4 332,81.4 332,143 348.9,161.9 348.9,185.2 334,185.2 334,284 324.8,294.1 "/>
<path fill="#CCCCCC" d="M331.3,84.3c1.4,0,2.5-1.2,2.5-2.8s-1.1-2.8-2.5-2.8c-1.4,0-2.5,1.2-2.5,2.8C328.8,83,330,84.3,331.3,84.3"
	/>
<path fill="#CCCCCC" d="M324.1,321.6c1.4,0,2.5-1.2,2.5-2.8s-1.1-2.8-2.5-2.8c-1.4,0-2.5,1.2-2.5,2.8S322.7,321.6,324.1,321.6"/>
<polygon fill="#CCCCCC" points="338,291.1 337.1,290.1 345.6,280.5 345.6,192.8 357.6,192.8 357.6,156.9 342.7,140.2 342.7,81.4 
	344,81.4 344,139.7 358.9,156.4 358.9,194.1 346.9,194.1 346.9,281.1 "/>
<path fill="#CCCCCC" d="M343.3,84.3c1.4,0,2.5-1.2,2.5-2.8s-1.1-2.8-2.5-2.8s-2.5,1.2-2.5,2.8C340.8,83,342,84.3,343.3,84.3"/>
<path fill="#CCCCCC" d="M337.6,293.4c1.4,0,2.5-1.2,2.5-2.8s-1.1-2.8-2.5-2.8c-1.4,0-2.5,1.2-2.5,2.8
	C335.1,292,336.2,293.4,337.6,293.4"/>
<polygon fill="#CCCCCC" points="187.7,247.5 186.5,247.5 186.5,217.6 193.5,209.9 193.5,153.6 178.6,136.9 178.6,81.4 179.8,81.4 
	179.8,136.4 194.7,153.1 194.7,210.5 187.7,218.2 "/>
<path fill="#CCCCCC" d="M179.2,84.3c1.4,0,2.5-1.2,2.5-2.8s-1.1-2.8-2.5-2.8s-2.5,1.2-2.5,2.8C176.7,83,177.8,84.3,179.2,84.3"/>
<path fill="#CCCCCC" d="M187.1,250.3c1.4,0,2.5-1.2,2.5-2.8s-1.1-2.8-2.5-2.8s-2.5,1.2-2.5,2.8C184.7,249,185.8,250.3,187.1,250.3"
	/>
<polygon fill="#CCCCCC" points="198.4,199 197.5,198 201.5,193.5 201.5,133.6 192.5,123.6 192.5,81.4 193.7,81.4 193.7,123 
	202.7,132.9 202.7,194.1 "/>
<path fill="#CCCCCC" d="M193.1,84.3c1.4,0,2.5-1.2,2.5-2.8s-1.1-2.8-2.5-2.8s-2.5,1.2-2.5,2.8C190.6,83,191.7,84.3,193.1,84.3"/>
<path fill="#CCCCCC" d="M198,201.2c1.4,0,2.5-1.2,2.5-2.8s-1.1-2.8-2.5-2.8c-1.4,0-2.5,1.2-2.5,2.8S196.6,201.2,198,201.2"/>
<polygon fill="#CCCCCC" points="213.6,198.1 212.5,198.1 212.5,114.6 200.5,101.2 200.5,81.4 201.7,81.4 201.7,100.7 213.6,114 "/>
<path fill="#CCCCCC" d="M201.1,84.3c1.4,0,2.5-1.2,2.5-2.8s-1.1-2.8-2.5-2.8s-2.5,1.2-2.5,2.8C198.6,83,199.7,84.3,201.1,84.3"/>
<path fill="#CCCCCC" d="M213,200.8c1.4,0,2.5-1.2,2.5-2.8s-1.1-2.8-2.5-2.8s-2.5,1.2-2.5,2.8C210.6,199.6,211.7,200.8,213,200.8"/>
<polygon fill="#CCCCCC" points="73.8,279 72.5,279 72.5,244.2 59,229.1 59,202.4 59.2,202.2 81.2,177.5 81.2,156.5 82.5,156.5 
	82.5,178.1 82.3,178.3 60.2,203 60.2,228.6 73.8,243.6 "/>
<path fill="#CCCCCC" d="M73.1,276.2c-1.4,0-2.5,1.2-2.5,2.8s1.1,2.8,2.5,2.8s2.5-1.2,2.5-2.8S74.5,276.2,73.1,276.2"/>
<path fill="#CCCCCC" d="M81.9,153.7c-1.4,0-2.5,1.2-2.5,2.8s1.1,2.8,2.5,2.8s2.5-1.2,2.5-2.8C84.4,154.9,83.3,153.7,81.9,153.7"/>
<polygon fill="#CCCCCC" points="238.9,216.3 237.6,216.3 237.6,172.1 221.4,155.3 221.4,81.4 222.6,81.4 222.6,154.7 238.9,171.4 
	"/>
<path fill="#CCCCCC" d="M222,84.3c1.4,0,2.5-1.2,2.5-2.8s-1.1-2.8-2.5-2.8s-2.5,1.2-2.5,2.8C219.5,83,220.6,84.3,222,84.3"/>
<path fill="#CCCCCC" d="M238.3,219.1c1.4,0,2.5-1.2,2.5-2.8s-1.1-2.8-2.5-2.8s-2.5,1.2-2.5,2.8S236.9,219.1,238.3,219.1"/>
<polygon fill="#CCCCCC" points="339.7,342.1 338.5,342.1 338.5,315.2 338.6,315 357.2,294.1 357.2,199.4 368,199.4 368,155.5 
	350.3,135.8 350.3,81.4 351.6,81.4 351.6,135.2 369.2,154.9 369.2,200.8 358.5,200.8 358.5,294.7 358.3,294.9 339.7,315.8 "/>
<path fill="#CCCCCC" d="M350.9,84.3c1.4,0,2.5-1.2,2.5-2.8s-1.1-2.8-2.5-2.8c-1.4,0-2.5,1.2-2.5,2.8C348.4,83,349.5,84.3,350.9,84.3
	"/>
<path fill="#CCCCCC" d="M339.1,344.9c1.4,0,2.5-1.2,2.5-2.8c0-1.5-1.1-2.8-2.5-2.8c-1.4,0-2.5,1.2-2.5,2.8
	C336.6,343.7,337.7,344.9,339.1,344.9"/>
<polygon fill="#CCCCCC" points="351.5,357.7 350.2,357.7 350.2,325 350.4,324.8 368.6,304.5 368.6,223.1 388.7,223.1 388.7,131.2 
	359.7,98.8 359.7,81.4 360.9,81.4 360.9,98.1 389.9,130.6 389.9,224.5 369.9,224.5 369.9,305.1 369.7,305.3 351.5,325.5 "/>
<path fill="#CCCCCC" d="M360.3,84.3c1.4,0,2.5-1.2,2.5-2.8s-1.1-2.8-2.5-2.8c-1.4,0-2.5,1.2-2.5,2.8C357.8,83,358.9,84.3,360.3,84.3
	"/>
<path fill="#CCCCCC" d="M350.9,360.5c1.4,0,2.5-1.2,2.5-2.8s-1.1-2.8-2.5-2.8c-1.4,0-2.5,1.2-2.5,2.8S349.5,360.5,350.9,360.5"/>
<polygon fill="#CCCCCC" points="364.9,387.8 363.7,387.8 363.7,372.5 363.9,372.3 379.6,354.6 379.6,240.6 400.4,240.6 400.4,130.2 
	378.5,105.7 378.5,81.4 379.8,81.4 379.8,105.1 401.7,129.6 401.7,242.1 380.8,242.1 380.8,355.3 380.7,355.4 364.9,373.1 "/>
<path fill="#CCCCCC" d="M364.3,390.6c1.4,0,2.5-1.2,2.5-2.8s-1.1-2.8-2.5-2.8c-1.4,0-2.5,1.2-2.5,2.8
	C361.8,389.3,362.9,390.6,364.3,390.6"/>
<path fill="#CCCCCC" d="M379.1,84.3c1.4,0,2.5-1.2,2.5-2.8s-1.1-2.8-2.5-2.8c-1.4,0-2.5,1.2-2.5,2.8C376.6,83,377.8,84.3,379.1,84.3
	"/>
<polygon fill="#CCCCCC" points="415.4,317.8 414.1,317.8 414.1,256.8 414.3,256.6 432.3,236.4 432.3,168.5 416.3,168.5 416.3,120.2 
	395.9,97.3 395.9,81.4 397.2,81.4 397.2,96.8 417.6,119.6 417.6,167.1 433.6,167.1 433.6,237 433.4,237.2 415.4,257.4 "/>
<path fill="#CCCCCC" d="M396.5,84.3c1.4,0,2.5-1.2,2.5-2.8s-1.1-2.8-2.5-2.8c-1.4,0-2.5,1.2-2.5,2.8C394,83,395.2,84.3,396.5,84.3"
	/>
<path fill="#CCCCCC" d="M414.7,320.7c1.4,0,2.5-1.2,2.5-2.8s-1.1-2.8-2.5-2.8c-1.4,0-2.5,1.2-2.5,2.8
	C412.2,319.4,413.4,320.7,414.7,320.7"/>
<polygon fill="#CCCCCC" points="394.6,347.7 393.3,347.7 393.3,261.6 393.5,261.4 408.2,244.9 408.2,189.9 409.4,189.9 409.4,245.6 
	409.3,245.7 394.6,262.2 "/>
<path fill="#CCCCCC" d="M408.8,192.7c1.4,0,2.5-1.2,2.5-2.8s-1.1-2.8-2.5-2.8c-1.4,0-2.5,1.2-2.5,2.8S407.4,192.7,408.8,192.7"/>
<path fill="#CCCCCC" d="M394,350.5c1.4,0,2.5-1.2,2.5-2.8s-1.1-2.8-2.5-2.8c-1.4,0-2.5,1.2-2.5,2.8
	C391.5,349.2,392.6,350.5,394,350.5"/>
<polygon fill="#CCCCCC" points="445.6,411.2 444.3,411.2 444.3,387 444.5,386.8 463.2,365.8 463.2,337.8 442.3,337.8 442.3,158.2 
	457,158.2 457,124.3 442.3,108 442.3,81.4 443.6,81.4 443.6,107.4 458.2,123.8 458.2,159.6 443.6,159.6 443.6,336.4 464.5,336.4 
	464.5,366.3 464.3,366.6 445.6,387.6 "/>
<path fill="#CCCCCC" d="M443,84.3c1.4,0,2.5-1.2,2.5-2.8s-1.1-2.8-2.5-2.8c-1.4,0-2.5,1.2-2.5,2.8C440.5,83,441.6,84.3,443,84.3"/>
<path fill="#CCCCCC" d="M445,414c1.4,0,2.5-1.2,2.5-2.8c0-1.5-1.1-2.8-2.5-2.8c-1.4,0-2.5,1.2-2.5,2.8
	C442.5,412.8,443.6,414,445,414"/>
<polygon fill="#CCCCCC" points="298.9,359.9 297.7,359.9 297.7,262.3 313,262.3 313,194.9 297,177 297,81.4 298.2,81.4 298.2,176.4 
	314.2,194.2 314.2,263.7 298.9,263.7 "/>
<path fill="#CCCCCC" d="M297.6,84.3c1.4,0,2.5-1.2,2.5-2.8s-1.1-2.8-2.5-2.8s-2.5,1.2-2.5,2.8C295.1,83,296.2,84.3,297.6,84.3"/>
<path fill="#CCCCCC" d="M298.3,362.8c1.4,0,2.5-1.2,2.5-2.8s-1.1-2.8-2.5-2.8c-1.4,0-2.5,1.2-2.5,2.8
	C295.8,361.5,296.9,362.8,298.3,362.8"/>
<polygon fill="#CCCCCC" points="307.3,357.7 306,357.7 306,272.4 321.9,272.4 321.9,192.5 306,174.7 306,81.4 307.3,81.4 
	307.3,174.2 323.1,192 323.1,273.8 307.3,273.8 "/>
<path fill="#CCCCCC" d="M306.6,84.3c1.4,0,2.5-1.2,2.5-2.8s-1.1-2.8-2.5-2.8c-1.4,0-2.5,1.2-2.5,2.8C304.1,83,305.3,84.3,306.6,84.3
	"/>
<path fill="#CCCCCC" d="M306.6,360.5c1.4,0,2.5-1.2,2.5-2.8s-1.1-2.8-2.5-2.8c-1.4,0-2.5,1.2-2.5,2.8S305.3,360.5,306.6,360.5"/>
<polygon fill="#CCCCCC" points="292.2,335.5 291.1,335.5 291.1,248.3 303.6,248.3 303.6,195.5 287.1,177 287.1,81.4 288.3,81.4 
	288.3,176.4 304.8,194.9 304.8,249.7 292.2,249.7 "/>
<path fill="#CCCCCC" d="M287.7,84.3c1.4,0,2.5-1.2,2.5-2.8s-1.1-2.8-2.5-2.8c-1.4,0-2.5,1.2-2.5,2.8C285.2,83,286.3,84.3,287.7,84.3
	"/>
<path fill="#CCCCCC" d="M291.7,338.3c1.4,0,2.5-1.2,2.5-2.8s-1.1-2.8-2.5-2.8c-1.4,0-2.5,1.2-2.5,2.8S290.3,338.3,291.7,338.3"/>
<polygon fill="#CCCCCC" points="138.4,252.7 137.1,252.7 137.1,221.6 137.3,221.4 155,201.6 155,112.7 168.4,112.7 168.4,81.4 
	169.7,81.4 169.7,114 156.3,114 156.3,202.3 156.1,202.5 138.4,222.2 "/>
<path fill="#CCCCCC" d="M169,84.3c1.4,0,2.5-1.2,2.5-2.8s-1.1-2.8-2.5-2.8s-2.5,1.2-2.5,2.8C166.5,83,167.7,84.3,169,84.3"/>
<path fill="#CCCCCC" d="M137.8,255.5c1.4,0,2.5-1.2,2.5-2.8s-1.1-2.8-2.5-2.8s-2.5,1.2-2.5,2.8C135.3,254.1,136.4,255.5,137.8,255.5
	"/>
<polygon fill="#CCCCCC" points="96.2,271.4 95,271.4 95,235.7 109.9,235.7 109.9,180.4 91.5,159.7 91.5,83.2 92.7,83.2 92.7,159.2 
	111.1,179.7 111.1,237 96.2,237 "/>
<path fill="#CCCCCC" d="M92.1,86c1.4,0,2.5-1.2,2.5-2.8c0-1.5-1.1-2.8-2.5-2.8c-1.4,0-2.5,1.2-2.5,2.8C89.6,84.6,90.7,86,92.1,86"/>
<path fill="#CCCCCC" d="M95.6,274.1c1.4,0,2.5-1.2,2.5-2.8s-1.1-2.8-2.5-2.8s-2.5,1.2-2.5,2.8S94.2,274.1,95.6,274.1"/>
<polygon fill="#CCCCCC" points="92.7,350.5 91.5,350.5 91.5,290.6 100.8,280.2 100.8,242.2 117.7,242.2 117.7,176.4 99.8,156.4 
	99.8,91.9 108.6,91.9 108.6,93.3 101,93.3 101,155.8 119,175.8 119,243.5 102.1,243.5 102.1,280.8 92.7,291.2 "/>
<path fill="#CCCCCC" d="M108.6,95.4c1.4,0,2.5-1.2,2.5-2.8s-1.1-2.8-2.5-2.8s-2.5,1.2-2.5,2.8C106.2,94.1,107.3,95.4,108.6,95.4"/>
<path fill="#CCCCCC" d="M92.1,353.3c1.4,0,2.5-1.2,2.5-2.8s-1.1-2.8-2.5-2.8c-1.4,0-2.5,1.2-2.5,2.8S90.7,353.3,92.1,353.3"/>
<polygon fill="#CCCCCC" points="114,341.6 101.5,341.6 101.5,297.9 110.3,288.1 110.3,251.8 125.9,251.8 125.9,173.1 110.9,156.4 
	110.9,102 125,102 125,103.3 112.1,103.3 112.1,155.8 127.1,172.5 127.1,253.1 111.5,253.1 111.5,288.6 102.7,298.5 102.7,340.1 
	114,340.1 "/>
<path fill="#CCCCCC" d="M125,105.4c1.4,0,2.5-1.2,2.5-2.8c0-1.5-1.1-2.8-2.5-2.8s-2.5,1.2-2.5,2.8
	C122.5,104.2,123.6,105.4,125,105.4"/>
<path fill="#CCCCCC" d="M114,343.7c1.4,0,2.5-1.2,2.5-2.8s-1.1-2.8-2.5-2.8s-2.5,1.2-2.5,2.8S112.6,343.7,114,343.7"/>
<polyline fill="#CCCCCC" points="-15.2,306.1 22.1,306.1 22.1,315.4 23.4,315.4 23.4,304.7 -15.7,304.7 "/>
<path fill="#CCCCCC" d="M25.3,315.4c0,1.5-1.1,2.8-2.5,2.8c-1.4,0-2.5-1.2-2.5-2.8s1.1-2.8,2.5-2.8
	C24.2,312.6,25.3,313.8,25.3,315.4"/>
<polyline fill="#CCCCCC" points="-24.9,313.6 12.5,313.6 12.5,330.7 13.7,330.7 13.7,312.2 -25.4,312.2 "/>
<path fill="#CCCCCC" d="M15.6,330.7c0,1.5-1.1,2.8-2.5,2.8s-2.5-1.2-2.5-2.8s1.1-2.8,2.5-2.8C14.5,328,15.6,329.2,15.6,330.7"/>
<polygon fill="#CCCCCC" points="56.2,233 55,233 55,176.6 55.2,176.4 72.7,156.9 72.7,80.9 73.9,80.9 73.9,157.5 73.8,157.7 
	56.2,177.2 "/>
<path fill="#CCCCCC" d="M73.3,83.7c1.4,0,2.5-1.2,2.5-2.8s-1.1-2.8-2.5-2.8s-2.5,1.2-2.5,2.8C70.8,82.4,71.9,83.7,73.3,83.7"/>
<path fill="#CCCCCC" d="M55.6,235.8c1.4,0,2.5-1.2,2.5-2.8s-1.1-2.8-2.5-2.8c-1.4,0-2.5,1.2-2.5,2.8S54.2,235.8,55.6,235.8"/>
<polygon fill="#CCCCCC" points="48.5,217.4 47.3,217.4 47.3,167.6 47.5,167.3 63.7,149.1 63.7,87.6 64.9,87.6 64.9,149.8 
	64.8,149.9 48.5,168.1 "/>
<path fill="#CCCCCC" d="M64.3,90.4c1.4,0,2.5-1.2,2.5-2.8s-1.1-2.8-2.5-2.8c-1.4,0-2.5,1.2-2.5,2.8C61.8,89.2,62.9,90.4,64.3,90.4"
	/>
<path fill="#CCCCCC" d="M47.9,220.2c1.4,0,2.5-1.2,2.5-2.8s-1.1-2.8-2.5-2.8c-1.4,0-2.5,1.2-2.5,2.8C45.4,219,46.5,220.2,47.9,220.2
	"/>
<rect x="-22.2" y="82.1" fill="#CCCCCC" width="42.8" height="1.4"/>
<path fill="#CCCCCC" d="M-22.2,85.6c1.4,0,2.5-1.2,2.5-2.8s-1.1-2.8-2.5-2.8c-1.4,0-2.5,1.2-2.5,2.8S-23.6,85.6-22.2,85.6"/>
<path fill="#CCCCCC" d="M20.7,85.6c1.4,0,2.5-1.2,2.5-2.8s-1.1-2.8-2.5-2.8c-1.4,0-2.5,1.2-2.5,2.8S19.3,85.6,20.7,85.6"/>
<rect x="-16.2" y="91" fill="#CCCCCC" width="20.9" height="1.4"/>
<path fill="#CCCCCC" d="M-16.2,94.6c1.4,0,2.5-1.2,2.5-2.8s-1.1-2.8-2.5-2.8s-2.5,1.2-2.5,2.8C-18.7,93.3-17.6,94.6-16.2,94.6"/>
<path fill="#CCCCCC" d="M4.7,94.6c1.4,0,2.5-1.2,2.5-2.8s-1.1-2.8-2.5-2.8s-2.5,1.1-2.5,2.7S3.3,94.6,4.7,94.6"/>
<rect x="-14.2" y="65.4" fill="#CCCCCC" width="46.8" height="1.4"/>
<path fill="#CCCCCC" d="M-14.2,68.9c1.4,0,2.5-1.2,2.5-2.8s-1.1-2.8-2.5-2.8s-2.5,1.2-2.5,2.8S-15.6,68.9-14.2,68.9"/>
<path fill="#CCCCCC" d="M32.6,68.9c1.4,0,2.5-1.2,2.5-2.8s-1.1-2.8-2.5-2.8c-1.4,0-2.5,1.2-2.5,2.8S31.2,68.9,32.6,68.9"/>
<rect x="-18.7" y="275.6" fill="#CCCCCC" width="46.8" height="1.4"/>
<path fill="#CCCCCC" d="M-18.7,279c1.4,0,2.5-1.2,2.5-2.8c0-1.5-1.1-2.8-2.5-2.8c-1.4,0-2.5,1.2-2.5,2.8
	C-21.2,277.8-20.1,279-18.7,279"/>
<path fill="#CCCCCC" d="M28.1,279c1.4,0,2.5-1.2,2.5-2.8c0-1.5-1.1-2.8-2.5-2.8c-1.4,0-2.5,1.2-2.5,2.8
	C25.7,277.8,26.8,279,28.1,279"/>
<rect x="-15.2" y="297.5" fill="#CCCCCC" width="46.8" height="1.4"/>
<path fill="#CCCCCC" d="M-15.2,301c1.4,0,2.5-1.2,2.5-2.8c0-1.5-1.1-2.8-2.5-2.8s-2.5,1.2-2.5,2.8C-17.7,299.8-16.6,301-15.2,301"/>
<path fill="#CCCCCC" d="M31.6,301c1.4,0,2.5-1.2,2.5-2.8c0-1.5-1.1-2.8-2.5-2.8s-2.5,1.2-2.5,2.8C29.1,299.7,30.3,301,31.6,301"/>
<polygon fill="#CCCCCC" points="-16.4,121.4 -53,121.4 -53,120 -16.9,120 0.1,101.1 21.7,101.1 21.7,102.4 0.6,102.4 "/>
<path fill="#CCCCCC" d="M-53,123.6c1.4,0,2.5-1.2,2.5-2.8s-1.1-2.8-2.5-2.8c-1.4,0-2.5,1.2-2.5,2.8S-54.4,123.6-53,123.6"/>
<path fill="#CCCCCC" d="M21.7,104.5c1.4,0,2.5-1.2,2.5-2.8S23.1,99,21.7,99c-1.4,0-2.5,1.2-2.5,2.8S20.3,104.5,21.7,104.5"/>
<polygon fill="#CCCCCC" points="-15.4,132.5 -50.1,132.5 -50.1,131.2 -15.9,131.2 2.5,110.5 35.1,110.5 35.1,111.9 3,111.9 "/>
<path fill="#CCCCCC" d="M-50.1,134.6c1.4,0,2.5-1.2,2.5-2.8s-1.1-2.8-2.5-2.8c-1.4,0-2.5,1.2-2.5,2.8S-51.5,134.6-50.1,134.6"/>
<path fill="#CCCCCC" d="M35.1,114c1.4,0,2.5-1.2,2.5-2.8c0-1.5-1.1-2.8-2.5-2.8s-2.5,1.2-2.5,2.8C32.6,112.8,33.8,114,35.1,114"/>
<rect x="-14.2" y="-39.3" fill="#CCCCCC" width="35.9" height="1.4"/>
<path fill="#CCCCCC" d="M-14.2-35.8c1.4,0,2.5-1.2,2.5-2.8s-1.1-2.8-2.5-2.8s-2.5,1.2-2.5,2.8S-15.6-35.8-14.2-35.8"/>
<path fill="#CCCCCC" d="M21.7-35.8c1.4,0,2.5-1.2,2.5-2.8s-1.1-2.8-2.5-2.8c-1.4,0-2.5,1.2-2.5,2.8S20.3-35.8,21.7-35.8"/>
<rect x="-14.2" y="-50.5" fill="#CCCCCC" width="26.9" height="1.4"/>
<path fill="#CCCCCC" d="M-14.2-46.9c1.4,0,2.5-1.2,2.5-2.8c0-1.5-1.1-2.8-2.5-2.8s-2.5,1.2-2.5,2.8C-16.7-48.2-15.6-46.9-14.2-46.9"
	/>
<path fill="#CCCCCC" d="M12.7-46.9c1.4,0,2.5-1.2,2.5-2.8c0-1.5-1.1-2.8-2.5-2.8s-2.5,1.2-2.5,2.8C10.2-48.2,11.3-46.9,12.7-46.9"/>
<rect x="-13.2" y="-62.6" fill="#CCCCCC" width="14.4" height="1.4"/>
<path fill="#CCCCCC" d="M-13.2-59.2c1.4,0,2.5-1.2,2.5-2.8s-1.1-2.8-2.5-2.8s-2.5,1.2-2.5,2.8S-14.6-59.2-13.2-59.2"/>
<path fill="#CCCCCC" d="M1.2-59.2c1.4,0,2.5-1.2,2.5-2.8s-1.1-2.8-2.5-2.8s-2.5,1.2-2.5,2.8S-0.1-59.2,1.2-59.2"/>
<polygon fill="#CCCCCC" points="27.4,-94.7 -57,-94.7 -57,-96.1 27,-96.1 43.9,-115 94.5,-115 94.5,-113.6 44.4,-113.6 "/>
<path fill="#CCCCCC" d="M94.5-111.5c1.4,0,2.5-1.2,2.5-2.8s-1.1-2.8-2.5-2.8s-2.5,1.2-2.5,2.8C92-112.8,93.1-111.5,94.5-111.5"/>
<path fill="#CCCCCC" d="M-57-92.6c1.4,0,2.5-1.2,2.5-2.8c0-1.5-1.1-2.8-2.5-2.8c-1.4,0-2.5,1.2-2.5,2.8
	C-59.5-93.8-58.4-92.6-57-92.6"/>
<polygon fill="#CCCCCC" points="22.5,-106.8 -63,-106.8 -63,-108.2 22,-108.2 38.4,-126.7 83.4,-126.7 83.4,-125.2 39,-125.2 "/>
<path fill="#CCCCCC" d="M83.4-123.1c1.4,0,2.5-1.2,2.5-2.8s-1.1-2.8-2.5-2.8c-1.4,0-2.5,1.2-2.5,2.8
	C80.9-124.4,82.1-123.1,83.4-123.1"/>
<path fill="#CCCCCC" d="M-63-104.7c1.4,0,2.5-1.2,2.5-2.8s-1.1-2.8-2.5-2.8c-1.4,0-2.5,1.2-2.5,2.8C-65.5-106-64.4-104.7-63-104.7"
	/>
<polygon fill="#CCCCCC" points="12.6,-118.3 -36.1,-118.3 -36.1,-119.6 12.1,-119.6 27.9,-137.3 75,-137.3 75,-135.9 28.4,-135.9 
	"/>
<path fill="#CCCCCC" d="M75-133.8c1.4,0,2.5-1.2,2.5-2.8c0-1.5-1.1-2.8-2.5-2.8s-2.5,1.2-2.5,2.8C72.5-135.1,73.7-133.8,75-133.8"/>
<path fill="#CCCCCC" d="M-36.1-116.2c1.4,0,2.5-1.2,2.5-2.8c0-1.5-1.1-2.8-2.5-2.8c-1.4,0-2.5,1.2-2.5,2.8
	C-38.6-117.4-37.5-116.2-36.1-116.2"/>
<polygon fill="#CCCCCC" points="5,-126.4 -27.1,-126.4 -27.1,-127.9 4.5,-127.9 23,-148.4 64,-148.4 64,-147.1 23.5,-147.1 "/>
<path fill="#CCCCCC" d="M64-145c1.4,0,2.5-1.2,2.5-2.8c0-1.5-1.1-2.8-2.5-2.8s-2.5,1.2-2.5,2.8C61.5-146.2,62.7-145,64-145"/>
<path fill="#CCCCCC" d="M-27.1-124.3c1.4,0,2.5-1.2,2.5-2.8c0-1.5-1.1-2.8-2.5-2.8c-1.4,0-2.5,1.2-2.5,2.8
	C-29.6-125.7-28.5-124.3-27.1-124.3"/>
<polygon fill="#CCCCCC" points="4,-139.7 -17.2,-139.7 -17.2,-141.1 3.5,-141.1 19.2,-158.6 72.9,-158.6 72.9,-157.3 19.7,-157.3 
	"/>
<path fill="#CCCCCC" d="M72.9-155.2c1.4,0,2.5-1.2,2.5-2.8s-1.1-2.8-2.5-2.8s-2.5,1.2-2.5,2.8C70.4-156.4,71.5-155.2,72.9-155.2"/>
<path fill="#CCCCCC" d="M-17.2-137.6c1.4,0,2.5-1.2,2.5-2.8c0-1.5-1.1-2.8-2.5-2.8s-2.5,1.2-2.5,2.8
	C-19.7-138.8-18.6-137.6-17.2-137.6"/>
<rect x="-15.2" y="-182.5" fill="#CCCCCC" width="36.9" height="1.4"/>
<path fill="#CCCCCC" d="M21.7-179c1.4,0,2.5-1.2,2.5-2.8s-1.1-2.8-2.5-2.8c-1.4,0-2.5,1.2-2.5,2.8C19.2-180.2,20.3-179,21.7-179"/>
<path fill="#CCCCCC" d="M-15.2-179c1.4,0,2.5-1.2,2.5-2.8s-1.1-2.8-2.5-2.8s-2.5,1.2-2.5,2.8C-17.7-180.2-16.6-179-15.2-179"/>
<rect x="-16.2" y="-200.8" fill="#CCCCCC" width="32.2" height="1.4"/>
<path fill="#CCCCCC" d="M16-197.3c1.4,0,2.5-1.2,2.5-2.8c0-1.5-1.1-2.8-2.5-2.8s-2.5,1.2-2.5,2.8C13.5-198.6,14.6-197.3,16-197.3"/>
<path fill="#CCCCCC" d="M-16.2-197.3c1.4,0,2.5-1.2,2.5-2.8c0-1.5-1.1-2.8-2.5-2.8s-2.5,1.2-2.5,2.8
	C-18.7-198.6-17.6-197.3-16.2-197.3"/>
<rect x="-40.1" y="-212" fill="#CCCCCC" width="45.3" height="1.4"/>
<path fill="#CCCCCC" d="M5.2-208.5c1.4,0,2.5-1.2,2.5-2.8S6.6-214,5.2-214s-2.5,1.2-2.5,2.8S3.8-208.5,5.2-208.5"/>
<path fill="#CCCCCC" d="M-40.1-208.5c1.4,0,2.5-1.2,2.5-2.8s-1.1-2.8-2.5-2.8c-1.4,0-2.5,1.2-2.5,2.8S-41.5-208.5-40.1-208.5"/>
</svg>
