<?xml version="1.0" encoding="utf-8"?>
<!-- Generator: Adobe Illustrator 18.1.0, SVG Export Plug-In . SVG Version: 6.00 Build 0)  -->
<svg version="1.1" id="Layer_1" xmlns="http://www.w3.org/2000/svg" xmlns:xlink="http://www.w3.org/1999/xlink" x="0px" y="0px"
	 width="572px" height="965.8px" viewBox="-186 -381 572 965.8" enable-background="new -186 -381 572 965.8" xml:space="preserve">
<g id="circuts_x5F_right">
	<polygon fill="#CCCCCC" points="216.7,-135.3 215.5,-135.3 215.5,-196.2 201.5,-196.2 201.5,-278.6 184.5,-295.7 184.5,-338.5 
		185.7,-338.5 185.7,-296.2 202.7,-279.2 202.7,-197.5 216.7,-197.5 	"/>
	<path fill="#CCCCCC" d="M185.1-336c1.4,0,2.5-1.1,2.5-2.5s-1.1-2.5-2.5-2.5c-1.4,0-2.5,1.1-2.5,2.5S183.7-336,185.1-336"/>
	<path fill="#CCCCCC" d="M216.1-132.8c1.4,0,2.5-1.1,2.5-2.5c0-1.4-1.1-2.5-2.5-2.5c-1.4,0-2.5,1.1-2.5,2.5
		C213.6-133.9,214.7-132.8,216.1-132.8"/>
	<polygon fill="#CCCCCC" points="233.1,-187.3 231.9,-187.3 231.9,-210.2 216.5,-225.6 216.5,-294.2 201,-309.7 201,-365.5 
		202.2,-365.5 202.2,-310.2 217.7,-294.7 217.7,-226.1 233.1,-210.7 	"/>
	<path fill="#CCCCCC" d="M201.6-363c1.4,0,2.5-1.1,2.5-2.5s-1.1-2.5-2.5-2.5c-1.4,0-2.5,1.1-2.5,2.5S200.2-363,201.6-363"/>
	<path fill="#CCCCCC" d="M232.5-184.8c1.4,0,2.5-1.1,2.5-2.5s-1.1-2.5-2.5-2.5c-1.4,0-2.5,1.1-2.5,2.5S231.1-184.8,232.5-184.8"/>
	<polygon fill="#CCCCCC" points="208.7,-134.8 207.5,-134.8 207.5,-189.2 193.5,-189.2 193.5,-264.9 176.1,-282.3 176.1,-359.5 
		177.3,-359.5 177.3,-282.8 194.7,-265.4 194.7,-190.5 208.7,-190.5 	"/>
	<path fill="#CCCCCC" d="M176.7-357c1.4,0,2.5-1.1,2.5-2.5c0-1.4-1.1-2.5-2.5-2.5c-1.4,0-2.5,1.1-2.5,2.5
		C174.2-358.1,175.3-357,176.7-357"/>
	<path fill="#CCCCCC" d="M208.1-132.3c1.4,0,2.5-1.1,2.5-2.5c0-1.4-1.1-2.5-2.5-2.5c-1.4,0-2.5,1.1-2.5,2.5
		C205.6-133.4,206.7-132.3,208.1-132.3"/>
	<polygon fill="#CCCCCC" points="227.7,-231.4 226.5,-231.4 226.5,-347.2 210,-363.7 210,-378.5 211.2,-378.5 211.2,-364.2 
		227.7,-347.7 	"/>
	<path fill="#CCCCCC" d="M210.6-376c1.4,0,2.5-1.1,2.5-2.5s-1.1-2.5-2.5-2.5c-1.4,0-2.5,1.1-2.5,2.5S209.2-376,210.6-376"/>
	<path fill="#CCCCCC" d="M227.1-228.9c1.4,0,2.5-1.1,2.5-2.5s-1.1-2.5-2.5-2.5c-1.4,0-2.5,1.1-2.5,2.5S225.7-228.9,227.1-228.9"/>
	<polygon fill="#CCCCCC" points="-170.9,9.4 -172.1,9.4 -172.1,-45.9 -171.9,-46.1 -153.7,-64.3 -153.7,-136.4 -166.1,-136.4 
		-166.1,-218.6 -184.1,-236.6 -184.1,-279.4 -182.9,-279.4 -182.9,-237.1 -164.9,-219.1 -164.9,-137.6 -152.5,-137.6 -152.5,-63.8 
		-152.6,-63.6 -170.9,-45.4 	"/>
	<path fill="#CCCCCC" d="M-183.5-276.9c1.4,0,2.5-1.1,2.5-2.5s-1.1-2.5-2.5-2.5s-2.5,1.1-2.5,2.5S-184.9-276.9-183.5-276.9"/>
	<path fill="#CCCCCC" d="M-171.5,11.9c1.4,0,2.5-1.1,2.5-2.5s-1.1-2.5-2.5-2.5S-174,8-174,9.4S-172.9,11.9-171.5,11.9"/>
	<polygon fill="#CCCCCC" points="165.4,-93.8 164.5,-94.7 175.6,-105.8 175.6,-121.1 162.8,-121.1 162.8,-211.8 164.1,-211.8 
		164.1,-122.4 176.8,-122.4 176.8,-105.2 	"/>
	<path fill="#CCCCCC" d="M163.5-209.3c1.4,0,2.5-1.1,2.5-2.5s-1.1-2.5-2.5-2.5c-1.4,0-2.5,1.1-2.5,2.5S162.1-209.3,163.5-209.3"/>
	<path fill="#CCCCCC" d="M165-91.7c1.4,0,2.5-1.1,2.5-2.5c0-1.4-1.1-2.5-2.5-2.5c-1.4,0-2.5,1.1-2.5,2.5
		C162.5-92.9,163.6-91.7,165-91.7"/>
	<polygon fill="#CCCCCC" points="-145.5,-166.3 -146.7,-166.3 -146.7,-226.5 -162.9,-242.6 -162.9,-309.4 -161.6,-309.4 
		-161.6,-243.1 -145.5,-227 	"/>
	<path fill="#CCCCCC" d="M-162.2-306.9c1.4,0,2.5-1.1,2.5-2.5s-1.1-2.5-2.5-2.5s-2.5,1.1-2.5,2.5S-163.6-306.9-162.2-306.9"/>
	<path fill="#CCCCCC" d="M-146.1-163.8c1.4,0,2.5-1.1,2.5-2.5s-1.1-2.5-2.5-2.5s-2.5,1.1-2.5,2.5S-147.5-163.8-146.1-163.8"/>
	<polygon fill="#CCCCCC" points="-48.8,-184.1 -50,-184.1 -50,-238.6 -66,-254.6 -66,-296.4 -64.8,-296.4 -64.8,-255.1 
		-48.8,-239.1 	"/>
	<path fill="#CCCCCC" d="M-65.4-293.9c1.4,0,2.5-1.1,2.5-2.5s-1.1-2.5-2.5-2.5s-2.5,1.1-2.5,2.5S-66.8-293.9-65.4-293.9"/>
	<path fill="#CCCCCC" d="M-49.4-181.6c1.4,0,2.5-1.1,2.5-2.5s-1.1-2.5-2.5-2.5c-1.4,0-2.5,1.1-2.5,2.5S-50.8-181.6-49.4-181.6"/>
	<polygon fill="#CCCCCC" points="-72.8,10.4 -74,10.4 -74,-89.7 -73.8,-89.9 -58,-105.8 -58,-180.9 -74,-180.9 -74,-249.6 
		-72.8,-249.6 -72.8,-182.2 -56.8,-182.2 -56.8,-105.2 -56.9,-105.1 -72.8,-89.2 	"/>
	<path fill="#CCCCCC" d="M-73.4-247.1c1.4,0,2.5-1.1,2.5-2.5s-1.1-2.5-2.5-2.5c-1.4,0-2.5,1.1-2.5,2.5
		C-75.9-248.2-74.8-247.1-73.4-247.1"/>
	<path fill="#CCCCCC" d="M-73.4,12.9c1.4,0,2.5-1.1,2.5-2.5s-1.1-2.5-2.5-2.5c-1.4,0-2.5,1.1-2.5,2.5S-74.8,12.9-73.4,12.9"/>
	<polygon fill="#CCCCCC" points="-82.8,-12.7 -84,-12.7 -84,-92 -83.9,-92.2 -66,-110 -66,-174.2 -84,-174.2 -84,-237.7 
		-82.8,-237.7 -82.8,-175.4 -64.8,-175.4 -64.8,-109.5 -65,-109.3 -82.8,-91.5 	"/>
	<path fill="#CCCCCC" d="M-83.4-235.2c1.4,0,2.5-1.1,2.5-2.5s-1.1-2.5-2.5-2.5c-1.4,0-2.5,1.1-2.5,2.5S-84.8-235.2-83.4-235.2"/>
	<path fill="#CCCCCC" d="M-83.4-10.2c1.4,0,2.5-1.1,2.5-2.5s-1.1-2.5-2.5-2.5c-1.4,0-2.5,1.1-2.5,2.5S-84.8-10.2-83.4-10.2"/>
	<polygon fill="#CCCCCC" points="-93.8,-62.2 -95,-62.2 -95,-95.5 -94.9,-95.7 -74.5,-116 -74.5,-165.7 -95,-165.7 -95,-220 
		-93.8,-220 -93.8,-166.9 -73.3,-166.9 -73.3,-115.5 -73.5,-115.3 -93.8,-95 	"/>
	<path fill="#CCCCCC" d="M-94.4-217.5c1.4,0,2.5-1.1,2.5-2.5s-1.1-2.5-2.5-2.5c-1.4,0-2.5,1.1-2.5,2.5S-95.8-217.5-94.4-217.5"/>
	<path fill="#CCCCCC" d="M-94.4-59.7c1.4,0,2.5-1.1,2.5-2.5s-1.1-2.5-2.5-2.5c-1.4,0-2.5,1.1-2.5,2.5S-95.8-59.7-94.4-59.7"/>
	<polygon fill="#CCCCCC" points="-113.8,-76.2 -115.1,-76.2 -115.1,-102.5 -127.1,-114.5 -127.1,-167.8 -126.9,-168 -110.1,-184.8 
		-110.1,-208.8 -108.8,-208.8 -108.8,-184.3 -109,-184.1 -125.8,-167.3 -125.8,-115 -113.8,-103 	"/>
	<path fill="#CCCCCC" d="M-109.4-206.3c1.4,0,2.5-1.1,2.5-2.5s-1.1-2.5-2.5-2.5s-2.5,1.1-2.5,2.5S-110.8-206.3-109.4-206.3"/>
	<path fill="#CCCCCC" d="M-114.4-73.7c1.4,0,2.5-1.1,2.5-2.5c0-1.4-1.1-2.5-2.5-2.5c-1.4,0-2.5,1.1-2.5,2.5
		C-116.9-74.8-115.8-73.7-114.4-73.7"/>
	<polygon fill="#CCCCCC" points="-38.5,-164.3 -39.7,-164.3 -39.7,-240 -57.4,-257.6 -57.4,-312.4 -56.1,-312.4 -56.1,-258.1 
		-38.5,-240.5 	"/>
	<path fill="#CCCCCC" d="M-56.8-309.9c1.4,0,2.5-1.1,2.5-2.5s-1.1-2.5-2.5-2.5c-1.4,0-2.5,1.1-2.5,2.5S-58.1-309.9-56.8-309.9"/>
	<path fill="#CCCCCC" d="M-39.1-161.8c1.4,0,2.5-1.1,2.5-2.5s-1.1-2.5-2.5-2.5c-1.4,0-2.5,1.1-2.5,2.5S-40.5-161.8-39.1-161.8"/>
	<polygon fill="#CCCCCC" points="-19.9,-171.2 -32,-171.2 -32,-224.4 -30.7,-224.4 -30.7,-172.4 -19.9,-172.4 	"/>
	<path fill="#CCCCCC" d="M-31.4-221.9c1.4,0,2.5-1.1,2.5-2.5s-1.1-2.5-2.5-2.5c-1.4,0-2.5,1.1-2.5,2.5S-32.7-221.9-31.4-221.9"/>
	<path fill="#CCCCCC" d="M-19.9-169.3c1.4,0,2.5-1.1,2.5-2.5s-1.1-2.5-2.5-2.5s-2.5,1.1-2.5,2.5S-21.2-169.3-19.9-169.3"/>
	<polygon fill="#CCCCCC" points="-6.8,-179.9 -24.2,-179.9 -24.2,-243.4 -23,-243.4 -23,-181.2 -6.8,-181.2 	"/>
	<path fill="#CCCCCC" d="M-23.6-240.9c1.4,0,2.5-1.1,2.5-2.5s-1.1-2.5-2.5-2.5s-2.5,1.1-2.5,2.5S-25-240.9-23.6-240.9"/>
	<path fill="#CCCCCC" d="M-6.8-178.1c1.4,0,2.5-1.1,2.5-2.5s-1.1-2.5-2.5-2.5s-2.5,1.1-2.5,2.5S-8.2-178.1-6.8-178.1"/>
	<polygon fill="#CCCCCC" points="-52.9,24.9 -54.2,24.9 -54.2,-6.3 -54,-6.4 -40,-20.4 -40,-154.4 2,-154.4 2,-226.4 3.3,-226.4 
		3.3,-153.2 -38.7,-153.2 -38.7,-19.9 -38.9,-19.7 -52.9,-5.7 	"/>
	<path fill="#CCCCCC" d="M2.7-223.9c1.4,0,2.5-1.1,2.5-2.5s-1.1-2.5-2.5-2.5s-2.5,1.1-2.5,2.5S1.3-223.9,2.7-223.9"/>
	<path fill="#CCCCCC" d="M-53.5,27.4c1.4,0,2.5-1.1,2.5-2.5c0-1.4-1.1-2.5-2.5-2.5s-2.5,1.1-2.5,2.5C-56,26.2-54.9,27.4-53.5,27.4"
		/>
	<polygon fill="#CCCCCC" points="-12.8,-8.5 -14,-8.5 -14,-27.3 -32.2,-45.5 -32.2,-147.4 9.9,-147.4 9.9,-209.5 11.2,-209.5 
		11.2,-146.2 -31,-146.2 -31,-46 -12.8,-27.8 	"/>
	<path fill="#CCCCCC" d="M10.6-207c1.4,0,2.5-1.1,2.5-2.5c0-1.4-1.1-2.5-2.5-2.5s-2.5,1.1-2.5,2.5C8.1-208.1,9.2-207,10.6-207"/>
	<path fill="#CCCCCC" d="M-13.4-6c1.4,0,2.5-1.1,2.5-2.5S-12-11-13.4-11s-2.5,1.1-2.5,2.5S-14.8-6-13.4-6"/>
	<polygon fill="#CCCCCC" points="17.1,15.4 15.9,15.4 15.9,-29.8 16.1,-30 32.1,-46 32.1,-100.6 17.1,-100.6 17.1,-200.3 
		18.3,-200.3 18.3,-101.9 33.3,-101.9 33.3,-45.5 33.1,-45.3 17.1,-29.3 	"/>
	<path fill="#CCCCCC" d="M17.7-197.8c1.4,0,2.5-1.1,2.5-2.5s-1.1-2.5-2.5-2.5s-2.5,1.1-2.5,2.5S16.3-197.8,17.7-197.8"/>
	<path fill="#CCCCCC" d="M16.5,17.9c1.4,0,2.5-1.1,2.5-2.5s-1.1-2.5-2.5-2.5S14,14,14,15.4S15.1,17.9,16.5,17.9"/>
	<polygon fill="#CCCCCC" points="121.5,112 104.4,112 104.2,111.8 29.1,36.6 29.1,-25.4 29.2,-25.6 47.1,-43.4 47.1,-114.1 
		34.1,-114.1 34.1,-239.6 17.1,-256.6 17.1,-297.4 18.3,-297.4 18.3,-257.1 35.3,-240.1 35.3,-115.4 48.3,-115.4 48.3,-42.9 
		48.1,-42.7 30.3,-24.9 30.3,36.1 104.9,110.7 121.5,110.7 	"/>
	<path fill="#CCCCCC" d="M17.7-294.9c1.4,0,2.5-1.1,2.5-2.5s-1.1-2.5-2.5-2.5s-2.5,1.1-2.5,2.5S16.3-294.9,17.7-294.9"/>
	<polygon fill="#CCCCCC" points="62.3,-137.5 61.1,-137.5 61.1,-240.6 40.1,-261.6 40.1,-323.4 41.3,-323.4 41.3,-262.1 
		62.3,-241.1 	"/>
	<path fill="#CCCCCC" d="M40.7-320.9c1.4,0,2.5-1.1,2.5-2.5s-1.1-2.5-2.5-2.5c-1.4,0-2.5,1.1-2.5,2.5S39.3-320.9,40.7-320.9"/>
	<path fill="#CCCCCC" d="M61.7-135c1.4,0,2.5-1.1,2.5-2.5s-1.1-2.5-2.5-2.5c-1.4,0-2.5,1.1-2.5,2.5S60.3-135,61.7-135"/>
	<polygon fill="#CCCCCC" points="78.5,-129.8 77.2,-129.8 77.2,-188.4 68.1,-197.6 68.1,-231.4 69.3,-231.4 69.3,-198.1 78.5,-189 	
		"/>
	<path fill="#CCCCCC" d="M68.7-228.9c1.4,0,2.5-1.1,2.5-2.5s-1.1-2.5-2.5-2.5s-2.5,1.1-2.5,2.5S67.3-228.9,68.7-228.9"/>
	<path fill="#CCCCCC" d="M77.9-127.3c1.4,0,2.5-1.1,2.5-2.5s-1.1-2.5-2.5-2.5c-1.4,0-2.5,1.1-2.5,2.5S76.5-127.3,77.9-127.3"/>
	<polygon fill="#CCCCCC" points="106.4,-65.6 86.1,-65.6 86.1,-107.1 97.4,-107.1 97.4,-82.7 96.1,-82.7 96.1,-105.9 87.4,-105.9 
		87.4,-66.8 105.1,-66.8 105.1,-120 86.1,-120 86.1,-226.5 100.3,-226.5 100.3,-225.2 87.4,-225.2 87.4,-121.2 106.4,-121.2 	"/>
	<path fill="#CCCCCC" d="M96.7-80.2c1.4,0,2.5-1.1,2.5-2.5s-1.1-2.5-2.5-2.5c-1.4,0-2.5,1.1-2.5,2.5S95.4-80.2,96.7-80.2"/>
	<path fill="#CCCCCC" d="M100.3-223.4c1.4,0,2.5-1.1,2.5-2.5s-1.1-2.5-2.5-2.5s-2.5,1.1-2.5,2.5S98.9-223.4,100.3-223.4"/>
	<polygon fill="#CCCCCC" points="121.4,-104 120.1,-104 120.1,-140.7 105.6,-140.7 105.6,-212.3 106.9,-212.3 106.9,-141.9 
		121.4,-141.9 	"/>
	<path fill="#CCCCCC" d="M106.3-209.8c1.4,0,2.5-1.1,2.5-2.5s-1.1-2.5-2.5-2.5s-2.5,1.1-2.5,2.5S104.9-209.8,106.3-209.8"/>
	<path fill="#CCCCCC" d="M120.8-101.5c1.4,0,2.5-1.1,2.5-2.5s-1.1-2.5-2.5-2.5c-1.4,0-2.5,1.1-2.5,2.5S119.4-101.5,120.8-101.5"/>
	<polygon fill="#CCCCCC" points="129.4,-115.3 128.2,-115.3 128.2,-147.7 112.8,-147.7 112.8,-199.3 114,-199.3 114,-148.9 
		129.4,-148.9 	"/>
	<path fill="#CCCCCC" d="M113.4-196.8c1.4,0,2.5-1.1,2.5-2.5c0-1.4-1.1-2.5-2.5-2.5s-2.5,1.1-2.5,2.5
		C110.9-198,112-196.8,113.4-196.8"/>
	<path fill="#CCCCCC" d="M128.8-112.8c1.4,0,2.5-1.1,2.5-2.5c0-1.4-1.1-2.5-2.5-2.5c-1.4,0-2.5,1.1-2.5,2.5
		C126.3-113.9,127.4-112.8,128.8-112.8"/>
	<polygon fill="#CCCCCC" points="138.3,-47.1 127.5,-47.1 127.5,-82.5 127.6,-82.7 144.2,-99.2 144.2,-163.7 127.5,-163.7 
		127.5,-277.5 140.3,-277.5 140.3,-276.3 128.7,-276.3 128.7,-164.9 145.4,-164.9 145.4,-98.7 145.2,-98.5 128.7,-82 128.7,-48.3 
		138.3,-48.3 	"/>
	<path fill="#CCCCCC" d="M138.3-45.2c1.4,0,2.5-1.1,2.5-2.5s-1.1-2.5-2.5-2.5c-1.4,0-2.5,1.1-2.5,2.5S136.9-45.2,138.3-45.2"/>
	<path fill="#CCCCCC" d="M140.3-274.4c1.4,0,2.5-1.1,2.5-2.5s-1.1-2.5-2.5-2.5c-1.4,0-2.5,1.1-2.5,2.5S138.9-274.4,140.3-274.4"/>
	<polygon fill="#CCCCCC" points="149.3,-57.3 134.2,-57.3 134.2,-77 134.3,-77.2 154.2,-97 154.2,-172.2 134.2,-172.2 134.2,-230.6 
		149.3,-230.6 149.3,-229.4 135.4,-229.4 135.4,-173.4 155.4,-173.4 155.4,-96.5 155.2,-96.3 135.4,-76.5 135.4,-58.6 149.3,-58.6 	
		"/>
	<path fill="#CCCCCC" d="M149.3-227.5c1.4,0,2.5-1.1,2.5-2.5s-1.1-2.5-2.5-2.5c-1.4,0-2.5,1.1-2.5,2.5S147.9-227.5,149.3-227.5"/>
	<path fill="#CCCCCC" d="M149.3-55.5c1.4,0,2.5-1.1,2.5-2.5s-1.1-2.5-2.5-2.5c-1.4,0-2.5,1.1-2.5,2.5S147.9-55.5,149.3-55.5"/>
	<rect x="-120.1" y="-254.4" fill="#CCCCCC" width="1.3" height="57.1"/>
	<path fill="#CCCCCC" d="M-119.4-251.9c1.4,0,2.5-1.1,2.5-2.5s-1.1-2.5-2.5-2.5s-2.5,1.1-2.5,2.5S-120.8-251.9-119.4-251.9"/>
	<path fill="#CCCCCC" d="M-119.4-194.8c1.4,0,2.5-1.1,2.5-2.5s-1.1-2.5-2.5-2.5s-2.5,1.1-2.5,2.5S-120.8-194.8-119.4-194.8"/>
	<polygon fill="#CCCCCC" points="-135.8,-126.3 -137.1,-126.3 -137.1,-177.8 -130.1,-184.8 -130.1,-238.7 -128.8,-238.7 
		-128.8,-184.3 -135.8,-177.3 	"/>
	<path fill="#CCCCCC" d="M-129.5-236.2c1.4,0,2.5-1.1,2.5-2.5s-1.1-2.5-2.5-2.5s-2.5,1.1-2.5,2.5S-130.8-236.2-129.5-236.2"/>
	<path fill="#CCCCCC" d="M-136.5-123.8c1.4,0,2.5-1.1,2.5-2.5c0-1.4-1.1-2.5-2.5-2.5c-1.4,0-2.5,1.1-2.5,2.5
		C-139-124.9-137.8-123.8-136.5-123.8"/>
	<polygon fill="#CCCCCC" points="-88.6,-137.9 -111.1,-137.9 -111.1,-170.6 -101.8,-179.8 -101.8,-258.4 -100.6,-258.4 
		-100.6,-179.3 -109.8,-170 -109.8,-139.1 -88.6,-139.1 	"/>
	<path fill="#CCCCCC" d="M-88.6-136c1.4,0,2.5-1.1,2.5-2.5s-1.1-2.5-2.5-2.5c-1.4,0-2.5,1.1-2.5,2.5S-90-136-88.6-136"/>
	<path fill="#CCCCCC" d="M-101.2-255.9c1.4,0,2.5-1.1,2.5-2.5s-1.1-2.5-2.5-2.5s-2.5,1.1-2.5,2.5S-102.6-255.9-101.2-255.9"/>
</g>
<g id="Layer_1_1_">
</g>
<g id="computer_x5F_chip_x5F_loading_x5F_SM">
	<path fill="#2DACD8" d="M350.9,56h27.2c3.6,0,6.6,4.1,6.6,9.1c0,5-3,9.1-6.6,9.1h-27.2"/>
	<path fill="#2DACD8" d="M350.9,102.1h27.2c3.6,0,6.6,4.1,6.6,9.1c0,5-3,9.1-6.6,9.1h-27.2"/>
	<path fill="#2DACD8" d="M350.9,148.1h27.2c3.6,0,6.6,4.1,6.6,9.1c0,5-3,9.1-6.6,9.1h-27.2"/>
	<path fill="#2DACD8" d="M199,11.4v-28.2c0-3.8,4-6.9,8.8-6.9s8.8,3.1,8.8,6.9v28.2"/>
	<path fill="#2DACD8" d="M243.5,11.4v-28.2c0-3.8,4-6.9,8.8-6.9c4.8,0,8.8,3.1,8.8,6.9v28.2"/>
	<path fill="#2DACD8" d="M287.9,11.4v-28.2c0-3.8,4-6.9,8.8-6.9c4.8,0,8.8,3.1,8.8,6.9v28.2"/>
	<path fill="#2DACD8" d="M216.6,205.3v28.2c0,3.8-4,6.9-8.8,6.9c-4.8,0-8.8-3.1-8.8-6.9v-28.2"/>
	<path fill="#2DACD8" d="M261,205.3v28.2c0,3.8-4,6.9-8.8,6.9s-8.8-3.1-8.8-6.9v-28.2"/>
	<path fill="#2DACD8" d="M305.5,205.3v28.2c0,3.8-4,6.9-8.8,6.9c-4.8,0-8.8-3.1-8.8-6.9v-28.2"/>
	<path fill="#2DACD8" d="M153.6,74.2h-27.2c-3.6,0-6.6-4.1-6.6-9.1s3-9.1,6.6-9.1h27.2"/>
	<path fill="#2DACD8" d="M153.6,120.2h-27.2c-3.6,0-6.6-4.1-6.6-9.1c0-5,3-9.1,6.6-9.1h27.2"/>
	<path fill="#2DACD8" d="M153.6,166.3h-27.2c-3.6,0-6.6-4.1-6.6-9.1c0-5,3-9.1,6.6-9.1h27.2"/>
	<path fill="#2DACD8" d="M315.5,54.4c0-4.2-2.8-7.7-6.2-7.7h-114c-3.4,0-6.2,3.5-6.2,7.7v108.9c0,4.2,2.8,7.7,6.2,7.7h114
		c3.4,0,6.2-3.5,6.2-7.7L315.5,54.4L315.5,54.4z M346.7,190.2c0,6.3-4.2,11.5-9.2,11.5H167.1c-5.1,0-9.2-5.2-9.2-11.5V27.5
		c0-6.3,4.2-11.5,9.2-11.5h170.4c5.1,0,9.2,5.2,9.2,11.5L346.7,190.2L346.7,190.2z"/>
	<line fill="none" x1="297" y1="108.6" x2="283.7" y2="108.5"/>
	<path fill="#FBE1C4" d="M280.6,113.7c-1.7-1.1-2.9-3-2.9-5.2c0-3.3,2.7-6,6-6l13.3,0.1c3.3,0,5.9,2.7,5.9,6.1c0,3.3-2.7,6-6,6
		l-13.3-0.1C282.6,114.5,281.5,114.2,280.6,113.7z"/>
	<line fill="none" x1="291.1" y1="85.8" x2="279.6" y2="92.5"/>
	<path fill="#FCEBD8" d="M276.5,97.7c-0.8-0.5-1.6-1.2-2.1-2.2c-1.6-2.9-0.6-6.6,2.2-8.2l11.5-6.7c2.8-1.6,6.5-0.6,8.1,2.3
		c1.6,2.9,0.6,6.6-2.2,8.2l-11.5,6.7C280.6,98.9,278.3,98.8,276.5,97.7z"/>
	<line fill="none" x1="274.9" y1="69.1" x2="268.2" y2="80.7"/>
	<path fill="#C1741E" d="M265.1,85.9c-2.8-1.7-3.7-5.4-2-8.2l6.7-11.6c1.7-2.9,5.3-3.8,8.1-2.2c0,0,0.1,0,0.1,0
		c2.8,1.7,3.7,5.4,2,8.2l-6.7,11.6C271.6,86.7,268,87.6,265.1,85.9C265.1,85.9,265.1,85.9,265.1,85.9z"/>
	<line fill="none" x1="252.6" y1="62.8" x2="252.5" y2="76.3"/>
	<path fill="#D98222" d="M249.4,81.5c-1.7-1.1-2.9-3-2.9-5.2l0.1-13.5c0-3.3,2.7-6,6-6c3.3,0,5.9,2.7,5.9,6.1l-0.1,13.5
		c0,3.3-2.7,6-6,6C251.3,82.4,250.3,82,249.4,81.5z"/>
	<line fill="none" x1="230.2" y1="68.8" x2="236.7" y2="80.5"/>
	<path fill="#F19126" d="M233.7,85.7c-0.8-0.5-1.6-1.2-2.1-2.2L225,71.8c-1.6-2.9-0.6-6.6,2.2-8.2c2.8-1.6,6.5-0.6,8.1,2.3l6.6,11.7
		c1.6,2.9,0.6,6.6-2.2,8.2C237.7,86.9,235.4,86.8,233.7,85.7z"/>
	<line fill="none" x1="213.7" y1="85.3" x2="225.2" y2="92.1"/>
	<path fill="#F29B3A" d="M210.6,90.5c-2.8-1.7-3.7-5.4-2-8.2c1.7-2.9,5.3-3.8,8.1-2.2l11.5,6.8c2.9,1.7,3.8,5.4,2.1,8.3
		c-1.7,2.9-5.3,3.8-8.1,2.2L210.6,90.5C210.7,90.5,210.7,90.5,210.6,90.5z"/>
	<line fill="none" x1="207.6" y1="108" x2="220.8" y2="108.1"/>
	<path fill="#F4A54D" d="M204.5,113.2c-1.7-1.1-2.9-3-2.9-5.2c0-3.3,2.7-6,6-6l13.3,0.1c3.3,0,5.9,2.7,5.9,6.1c0,3.3-2.7,6-6,6
		l-13.3-0.1C206.4,114,205.4,113.7,204.5,113.2z"/>
	<line fill="none" x1="213.4" y1="130.8" x2="224.9" y2="124.1"/>
	<path fill="#F5AF61" d="M210.3,135.9c-0.8-0.5-1.6-1.2-2.1-2.2c-1.6-2.9-0.6-6.6,2.2-8.2l11.5-6.7c2.8-1.6,6.5-0.6,8.1,2.3
		c1.6,2.9,0.6,6.6-2.2,8.2l-11.5,6.7C214.4,137.1,212.1,137,210.3,135.9z"/>
	<line fill="none" x1="229.7" y1="147.5" x2="236.4" y2="135.9"/>
	<path fill="#F6B975" d="M226.6,152.7c-2.8-1.7-3.7-5.4-2-8.2l6.7-11.6c1.7-2.9,5.3-3.8,8.1-2.2c2.9,1.7,3.8,5.4,2.1,8.3l-6.7,11.6
		C233.1,153.5,229.5,154.4,226.6,152.7C226.6,152.7,226.6,152.7,226.6,152.7z"/>
	<line fill="none" x1="252" y1="153.8" x2="252.1" y2="140.3"/>
	<path fill="#F7C389" d="M248.9,158.9c-1.7-1.1-2.9-3-2.9-5.2l0.1-13.5c0-3.3,2.7-6,6-6c3.3,0,5.9,2.7,5.9,6.1l-0.1,13.5
		c0,3.3-2.7,6-6,6C250.8,159.8,249.8,159.5,248.9,158.9z"/>
	<path fill="#F9CD9C" d="M271.3,153c-0.8-0.5-1.6-1.2-2.1-2.2l-6.6-11.7c-1.6-2.9-0.6-6.6,2.2-8.2c2.8-1.6,6.5-0.6,8.1,2.3l6.6,11.7
		c1.6,2.9,0.6,6.6-2.2,8.2C275.4,154.2,273.1,154.1,271.3,153z"/>
	<line fill="none" x1="290.8" y1="131.3" x2="279.4" y2="124.5"/>
	<path fill="#FAD7B0" d="M276.3,129.6c-2.8-1.7-3.7-5.4-2-8.2c1.7-2.9,5.3-3.8,8.1-2.2l11.5,6.8c2.8,1.7,3.8,5.4,2.1,8.3
		c-1.7,2.9-5.3,3.8-8.1,2.2L276.3,129.6C276.4,129.7,276.3,129.7,276.3,129.6z"/>
</g>
<g id="Layer_1_2_">
</g>
<path fill="none" stroke="#CCCCCC" stroke-miterlimit="10" d="M839.6,219V270l41,41.2v178l-72.8,73.7H748"/>
<path fill="#E6E6E6" d="M667.6,184.2h19.8c2.6,0,4.8,2.9,4.8,6.5s-2.2,6.5-4.8,6.5h-19.8 M667.6,217.1h19.8c2.6,0,4.8,2.9,4.8,6.5
	s-2.2,6.5-4.8,6.5h-19.8 M667.6,250h19.8c2.6,0,4.8,2.9,4.8,6.5c0,3.6-2.2,6.5-4.8,6.5h-19.8 M557.2,152.2v-20.1
	c0-2.7,2.9-4.9,6.4-4.9c3.5,0,6.4,2.2,6.4,4.9v20.1 M589.5,152.2v-20.1c0-2.7,2.9-4.9,6.4-4.9c3.5,0,6.4,2.2,6.4,4.9v20.1
	 M621.8,152.2v-20.1c0-2.7,2.9-4.9,6.4-4.9s6.4,2.2,6.4,4.9v20.1 M570,290.9V311c0,2.7-2.9,4.9-6.4,4.9c-3.5,0-6.4-2.2-6.4-4.9
	v-20.1 M602.2,290.9V311c0,2.7-2.9,4.9-6.4,4.9c-3.5,0-6.4-2.2-6.4-4.9v-20.1 M634.5,290.9V311c0,2.7-2.9,4.9-6.4,4.9
	c-3.5,0-6.4-2.2-6.4-4.9v-20.1 M524.1,197.2h-19.8c-2.6,0-4.8-2.9-4.8-6.5s2.2-6.5,4.8-6.5h19.8 M524.1,230.1h-19.8
	c-2.6,0-4.8-2.9-4.8-6.5s2.2-6.5,4.8-6.5h19.8 M524.1,263.1h-19.8c-2.6,0-4.8-2.9-4.8-6.5c0-3.6,2.2-6.5,4.8-6.5h19.8"/>
<path fill="#E6E6E6" d="M641.9,183.1c0-3-2-5.5-4.5-5.5h-82.9c-2.5,0-4.5,2.5-4.5,5.5V261c0,3,2,5.5,4.5,5.5h82.9
	c2.5,0,4.5-2.5,4.5-5.5V183.1z M664.6,280.1c0,4.5-3,8.2-6.7,8.2H533.9c-3.7,0-6.7-3.7-6.7-8.2V163.9c0-4.5,3-8.2,6.7-8.2h123.9
	c3.7,0,6.7,3.7,6.7,8.2V280.1z"/>
<path fill="#D0D2D3" d="M628.3,221.8l-9.6-0.1"/>
<path fill="#D0D2D3" d="M616.5,225.4c-1.3-0.8-2.1-2.1-2.1-3.7c0-2.4,2-4.3,4.3-4.3l9.6,0.1c2.4,0,4.3,2,4.3,4.3
	c0,2.4-2,4.3-4.3,4.3l-9.6-0.1C617.9,226,617.1,225.8,616.5,225.4z M624.1,205.5l-8.4,4.8"/>
<path fill="#D0D2D3" d="M613.5,214c-0.6-0.4-1.1-0.9-1.5-1.6c-1.2-2.1-0.5-4.7,1.6-5.9l8.4-4.8c2.1-1.2,4.7-0.5,5.9,1.6
	c1.2,2.1,0.5,4.7-1.6,5.9l-8.4,4.8C616.4,214.8,614.8,214.7,613.5,214z"/>
<path fill="#58595B" d="M612.3,193.5l-4.9,8.4"/>
<path fill="#58595B" d="M605.2,205.5c-2-1.2-2.7-3.8-1.5-5.9l4.9-8.3c1.2-2.1,3.8-2.7,5.9-1.5h0.1c2,1.2,2.7,3.8,1.5,5.9l-4.9,8.3
	C609.9,206.1,607.3,206.8,605.2,205.5C605.2,205.6,605.2,205.6,605.2,205.5z"/>
<path fill="#6D6E70" d="M596.1,189.1l-0.1,9.6"/>
<path fill="#6D6E70" d="M593.8,202.4c-1.3-0.8-2.1-2.1-2.1-3.7l0.1-9.6c0-2.4,2-4.3,4.3-4.3c2.4,0,4.3,2,4.3,4.3l-0.1,9.6
	c0,2.4-2,4.3-4.3,4.3C595.2,203,594.4,202.8,593.8,202.4z"/>
<path fill="#808184" d="M579.8,193.3l4.8,8.4"/>
<path fill="#808184" d="M582.4,205.4c-0.6-0.4-1.1-0.9-1.5-1.6l-4.8-8.4c-1.2-2.1-0.5-4.7,1.6-5.9c2.1-1.2,4.7-0.5,5.9,1.6l4.8,8.4
	c1.2,2.1,0.5,4.7-1.6,5.9C585.3,206.3,583.6,206.2,582.4,205.4z"/>
<path fill="#929497" d="M567.9,205.1l8.3,4.9"/>
<path fill="#929497" d="M565.6,208.8c-2-1.2-2.7-3.8-1.5-5.9c1.2-2.1,3.8-2.7,5.9-1.5l8.3,4.9c2.1,1.2,2.7,3.8,1.5,5.9
	c-1.2,2.1-3.8,2.7-5.9,1.5L565.6,208.8C565.7,208.8,565.6,208.8,565.6,208.8z"/>
<path fill="#A6A8AB" d="M563.4,221.3l9.6,0.1"/>
<path fill="#A6A8AB" d="M561.2,225c-1.3-0.8-2.1-2.1-2.1-3.7c0-2.4,2-4.3,4.3-4.3l9.6,0.1c2.4,0,4.3,2,4.3,4.3c0,2.4-2,4.3-4.3,4.3
	l-9.6-0.1C562.6,225.6,561.8,225.4,561.2,225z"/>
<path fill="#BBBDBF" d="M567.6,237.6l8.4-4.8"/>
<path fill="#BBBDBF" d="M565.4,241.3c-0.6-0.4-1.1-0.9-1.5-1.6c-1.2-2.1-0.5-4.7,1.6-5.9l8.4-4.8c2.1-1.2,4.7-0.5,5.9,1.6
	c1.2,2.1,0.5,4.7-1.6,5.9l-8.4,4.8C568.4,242.2,566.7,242.1,565.4,241.3z"/>
<path fill="#D0D2D3" d="M579.4,249.6l4.9-8.3"/>
<path fill="#D0D2D3" d="M577.2,253.3c-2-1.2-2.7-3.8-1.5-5.9l4.9-8.3c1.2-2.1,3.8-2.7,5.9-1.5c2.1,1.2,2.7,3.8,1.5,5.9l-4.9,8.3
	C582,253.8,579.3,254.5,577.2,253.3z M595.7,254v-9.6"/>
<path fill="#D0D2D3" d="M593.4,257.7c-1.3-0.8-2.1-2.1-2.1-3.7l0.1-9.6c0-2.4,2-4.3,4.3-4.3c2.4,0,4.3,2,4.3,4.3l-0.1,9.6
	c0,2.4-2,4.3-4.3,4.3C594.8,258.3,594.1,258.1,593.4,257.7z M609.7,253.5c-0.6-0.4-1.1-0.9-1.5-1.6l-4.8-8.4
	c-1.2-2.1-0.5-4.7,1.6-5.9c2.1-1.2,4.7-0.5,5.9,1.6l4.8,8.4c1.2,2.1,0.5,4.7-1.6,5.9C612.6,254.3,611,254.3,609.7,253.5z M623.9,238
	l-8.3-4.9"/>
<path fill="#D0D2D3" d="M613.3,236.8c-2-1.2-2.7-3.8-1.5-5.9c1.2-2.1,3.8-2.7,5.9-1.5l8.3,4.9c2.1,1.2,2.7,3.8,1.5,5.9
	c-1.2,2.1-3.8,2.7-5.9,1.5L613.3,236.8C613.4,236.8,613.4,236.8,613.3,236.8z"/>
<path fill="#E6E6E6" d="M983,38.1h27.2c3.6,0,6.6,4,6.6,8.9s-3,8.9-6.6,8.9H983 M983,83.4h27.2c3.6,0,6.6,4,6.6,8.9
	c0,4.9-3,8.9-6.6,8.9H983 M983,128.6h27.2c3.6,0,6.6,4,6.6,8.9c0,4.9-3,8.9-6.6,8.9H983 M831.3-5.7v-27.7c0-3.7,3.9-6.7,8.8-6.7
	c4.8,0,8.8,3,8.8,6.7v27.7 M875.7-5.7v-27.7c0-3.7,3.9-6.7,8.8-6.7c4.9,0,8.8,3,8.8,6.7v27.7 M920.1-5.7v-27.7
	c0-3.7,3.9-6.7,8.8-6.7c4.8,0,8.8,3,8.8,6.7v27.7 M848.8,184.8v27.7c0,3.7-3.9,6.7-8.8,6.7c-4.9,0-8.8-3-8.8-6.7v-27.7 M893.2,184.8
	v27.7c0,3.7-3.9,6.7-8.8,6.7c-4.8,0-8.8-3-8.8-6.7v-27.7 M937.7,184.8v27.7c0,3.7-3.9,6.7-8.8,6.7c-4.8,0-8.8-3-8.8-6.7v-27.7
	 M785.9,56.1h-27.2c-3.6,0-6.6-4-6.6-8.9s3-8.9,6.6-8.9h27.2 M785.9,101.2h-27.2c-3.6,0-6.6-4-6.6-8.9c0-4.9,3-8.9,6.6-8.9h27.2
	 M785.9,146.4h-27.2c-3.6,0-6.6-4-6.6-8.9c0-4.9,3-8.9,6.6-8.9h27.2"/>
<path fill="#E6E6E6" d="M947.6,36.6c0-4.2-2.8-7.6-6.2-7.6H827.4c-3.4,0-6.2,3.4-6.2,7.6v106.9c0,4.2,2.8,7.6,6.2,7.6h113.9
	c3.4,0,6.2-3.4,6.2-7.6C947.6,143.5,947.6,36.6,947.6,36.6z M978.8,170c0,6.2-4.1,11.3-9.2,11.3H799.4c-5.1,0-9.2-5.1-9.2-11.3V10.2
	c0-6.2,4.2-11.3,9.2-11.3h170.2c5.1,0,9.2,5.1,9.2,11.3V170z"/>
<path fill="#D0D2D3" d="M929.2,89.8l-13.3-0.1"/>
<path fill="#D0D2D3" d="M912.8,94.8c-1.7-1-2.9-2.9-2.9-5.1c0-3.3,2.7-5.9,6-5.9l13.2,0.1c3.3,0,5.9,2.7,5.9,6s-2.7,5.9-6,5.9
	l-13.2-0.1C914.7,95.7,913.6,95.3,912.8,94.8z M923.3,67.5L911.7,74"/>
<path fill="#D0D2D3" d="M908.7,79.1c-0.8-0.5-1.6-1.2-2.1-2.1c-1.6-2.8-0.6-6.5,2.2-8.1l11.5-6.5c2.8-1.6,6.5-0.6,8.1,2.2
	c1.6,2.8,0.6,6.5-2.2,8.1l-11.5,6.5C912.7,80.3,910.4,80.2,908.7,79.1z"/>
<path fill="#58595B" d="M907,51l-6.7,11.5"/>
<path fill="#58595B" d="M897.3,67.5c-2.8-1.7-3.7-5.3-2-8.1L902,48c1.7-2.8,5.3-3.8,8.1-2.1h0.1c2.8,1.7,3.7,5.3,2,8.1l-6.7,11.4
	C903.8,68.3,900.2,69.2,897.3,67.5C897.3,67.6,897.3,67.5,897.3,67.5z"/>
<path fill="#6D6E70" d="M884.8,44.8l-0.1,13.3"/>
<path fill="#6D6E70" d="M881.6,63.2c-1.7-1-2.9-2.9-2.9-5.1l0.1-13.2c0-3.3,2.7-5.9,6-5.9c3.3,0,5.9,2.7,5.9,6l-0.1,13.2
	c0,3.3-2.7,5.9-6,5.9C883.5,64.1,882.5,63.8,881.6,63.2z"/>
<path fill="#808184" d="M862.4,50.7l6.6,11.6"/>
<path fill="#808184" d="M865.9,67.3c-0.8-0.5-1.6-1.2-2.1-2.1l-6.5-11.5c-1.6-2.8-0.6-6.5,2.2-8.1c2.8-1.6,6.5-0.6,8.1,2.2l6.5,11.5
	c1.6,2.8,0.6,6.5-2.2,8.1C870,68.5,867.7,68.4,865.9,67.3z"/>
<path fill="#929497" d="M846,67l11.4,6.7"/>
<path fill="#929497" d="M842.9,72c-2.8-1.7-3.7-5.3-2-8.1c1.7-2.8,5.3-3.8,8.1-2.1l11.4,6.7c2.9,1.7,3.8,5.3,2.1,8.1
	c-1.7,2.8-5.3,3.8-8.1,2.1L842.9,72C843,72.1,842.9,72,842.9,72z"/>
<path fill="#A6A8AB" d="M839.8,89.2l13.3,0.1"/>
<path fill="#A6A8AB" d="M836.8,94.3c-1.7-1-2.9-2.9-2.9-5.1c0-3.3,2.7-5.9,6-5.9l13.2,0.1c3.3,0,5.9,2.7,5.9,6s-2.7,5.9-6,5.9
	l-13.2-0.1C838.7,95.1,837.7,94.8,836.8,94.3z"/>
<path fill="#BBBDBF" d="M845.7,111.6l11.5-6.6"/>
<path fill="#BBBDBF" d="M842.6,116.6c-0.8-0.5-1.6-1.2-2.1-2.1c-1.6-2.8-0.6-6.5,2.2-8.1l11.5-6.5c2.8-1.6,6.5-0.6,8.1,2.2
	c1.6,2.8,0.6,6.5-2.2,8.1l-11.5,6.5C846.7,117.8,844.4,117.7,842.6,116.6L842.6,116.6z"/>
<path fill="#D0D2D3" d="M861.9,128l6.7-11.4"/>
<path fill="#D0D2D3" d="M858.8,133.1c-2.8-1.7-3.7-5.3-2-8l6.7-11.4c1.7-2.8,5.3-3.8,8.1-2.1c2.8,1.7,3.8,5.3,2.1,8.1l-6.7,11.4
	C865.3,133.8,861.7,134.8,858.8,133.1C858.9,133.1,858.8,133.1,858.8,133.1z M884.2,134.1v-13.2"/>
<path fill="#D0D2D3" d="M881.1,139.2c-1.7-1-2.9-2.9-2.9-5.1l0.1-13.2c0-3.3,2.7-5.9,6-5.9s5.9,2.7,5.9,6l-0.1,13.2
	c0,3.3-2.7,5.9-6,5.9C883,140.1,882,139.7,881.1,139.2z M903.4,133.4c-0.8-0.5-1.6-1.2-2.1-2.1l-6.5-11.5c-1.6-2.8-0.6-6.5,2.2-8.1
	c2.8-1.6,6.5-0.6,8.1,2.2l6.5,11.5c1.6,2.8,0.6,6.5-2.2,8.1C907.5,134.6,905.2,134.5,903.4,133.4z M922.9,112.1l-11.4-6.7"/>
<path fill="#D0D2D3" d="M908.5,110.5c-2.8-1.7-3.7-5.3-2-8c1.7-2.8,5.3-3.8,8.1-2.1l11.4,6.7c2.8,1.7,3.8,5.3,2.1,8.1
	c-1.7,2.8-5.3,3.8-8.1,2.1C920,117.3,908.5,110.5,908.5,110.5z"/>
<path fill="#E6E6E6" d="M847.6-153.4h-1.2v-60.9h-14v-82.5l-17-17v-42.8h1.2v42.3l17,17v81.7h14V-153.4z M815.9-354.1
	c1.4,0,2.5-1.1,2.5-2.5c0-1.4-1.1-2.5-2.5-2.5c-1.4,0-2.5,1.1-2.5,2.5C813.4-355.2,814.5-354.1,815.9-354.1 M847-150.9
	c1.4,0,2.5-1.1,2.5-2.5s-1.1-2.5-2.5-2.5c-1.4,0-2.5,1.1-2.5,2.5S845.6-150.9,847-150.9"/>
<path fill="#E6E6E6" d="M864-205.5h-1.2v-22.8l-15.4-15.4v-68.6l-15.5-15.5v-55.9h1.2v55.4l15.5,15.5v68.6l15.4,15.4V-205.5z
	 M832.5-381.1c1.4,0,2.5-1.1,2.5-2.5s-1.1-2.5-2.5-2.5s-2.5,1.1-2.5,2.5S831.1-381.1,832.5-381.1 M863.4-203c1.4,0,2.5-1.1,2.5-2.5
	s-1.1-2.5-2.5-2.5c-1.4,0-2.5,1.1-2.5,2.5S862-203,863.4-203"/>
<path fill="#E6E6E6" d="M839.6-152.9h-1.2v-54.4h-14v-75.8l-17.4-17.3v-77.3h1.3v76.8l17.3,17.3v75h14L839.6-152.9z M807.5-375.1
	c1.4,0,2.5-1.1,2.5-2.5s-1.1-2.5-2.5-2.5c-1.4,0-2.5,1.1-2.5,2.5S806.2-375.1,807.5-375.1 M839-150.4c1.4,0,2.5-1.1,2.5-2.5
	s-1.1-2.5-2.5-2.5c-1.4,0-2.5,1.1-2.5,2.5S837.6-150.4,839-150.4"/>
<path fill="#E6E6E6" d="M858.6-249.5h-1.2v-115.8l-16.5-16.5v-14.8h1.2v14.3l16.5,16.5V-249.5z M841.5-394.2c1.4,0,2.5-1.1,2.5-2.5
	s-1.1-2.5-2.5-2.5c-1.4,0-2.5,1.1-2.5,2.5S840.1-394.2,841.5-394.2 M858-247c1.4,0,2.5-1.1,2.5-2.5s-1.1-2.5-2.5-2.5
	c-1.4,0-2.5,1.1-2.5,2.5S856.6-247,858-247"/>
<path fill="#E6E6E6" d="M460-8.8h-1.3v-55.3l0.2-0.2l18.2-18.2v-72.1h-12.4v-82.2l-18-18v-42.8h1.3v42.3l18,18v81.5h12.4v73.9
	l-0.2,0.1L460-63.6V-8.8z M447.3-295.1c1.4,0,2.5-1.1,2.5-2.5s-1.1-2.5-2.5-2.5c-1.4,0-2.5,1.1-2.5,2.5S445.9-295.1,447.3-295.1
	 M459.4-6.3c1.4,0,2.5-1.1,2.5-2.5s-1.1-2.5-2.5-2.5c-1.4,0-2.5,1.1-2.5,2.5S458-6.3,459.4-6.3"/>
<path fill="#E6E6E6" d="M796.3-111.9l-0.9-0.9l11-11.1v-15.3h-12.7V-230h1.2v89.5h12.8v17.1L796.3-111.9z M794.3-227.5
	c1.4,0,2.5-1.1,2.5-2.5s-1.1-2.5-2.5-2.5s-2.5,1.1-2.5,2.5S792.9-227.5,794.3-227.5 M795.8-109.9c1.4,0,2.5-1.1,2.5-2.5
	s-1.1-2.5-2.5-2.5c-1.4,0-2.5,1.1-2.5,2.5S794.4-109.9,795.8-109.9"/>
<path fill="#E6E6E6" d="M485.4-184.5h-1.3v-60.2L468-260.7v-66.9h1.2v66.4l16.2,16.1V-184.5z M468.6-325.1c1.4,0,2.5-1.1,2.5-2.5
	s-1.1-2.5-2.5-2.5c-1.4,0-2.5,1.1-2.5,2.5S467.2-325.1,468.6-325.1 M484.7-182c1.4,0,2.5-1.1,2.5-2.5s-1.1-2.5-2.5-2.5
	c-1.4,0-2.5,1.1-2.5,2.5S483.4-182,484.7-182"/>
<path fill="#E6E6E6" d="M582.1-202.2h-1.3v-54.6l-16-16v-41.8h1.3v41.3l16,16V-202.2z M565.5-312.1c1.4,0,2.5-1.1,2.5-2.5
	s-1.1-2.5-2.5-2.5c-1.4,0-2.5,1.1-2.5,2.5S564.1-312.1,565.5-312.1 M581.5-199.7c1.4,0,2.5-1.1,2.5-2.5c0-1.4-1.1-2.5-2.5-2.5
	s-2.5,1.1-2.5,2.5C579-200.8,580.1-199.7,581.5-199.7"/>
<path fill="#E6E6E6" d="M558.1-7.8h-1.3v-100.1l0.2-0.2l15.8-15.8v-75.2h-16v-68.7h1.3v67.5h16v76.9l-0.2,0.2l-15.8,15.8V-7.8z
	 M557.5-265.2c1.4,0,2.5-1.1,2.5-2.5s-1.1-2.5-2.5-2.5s-2.5,1.1-2.5,2.5S556.1-265.2,557.5-265.2 M557.5-5.3c1.4,0,2.5-1.1,2.5-2.5
	s-1.1-2.5-2.5-2.5S555-9.2,555-7.8S556.1-5.3,557.5-5.3"/>
<path fill="#E6E6E6" d="M548.1-30.8h-1.3v-79.3l0.2-0.2l17.8-17.8v-64.2h-18v-63.6h1.3v62.3h18v66l-0.2,0.2l-17.8,17.8V-30.8z
	 M547.5-253.3c1.4,0,2.5-1.1,2.5-2.5s-1.1-2.5-2.5-2.5s-2.5,1.1-2.5,2.5C545-254.5,546.1-253.3,547.5-253.3 M547.5-28.3
	c1.4,0,2.5-1.1,2.5-2.5c0-1.4-1.1-2.5-2.5-2.5s-2.5,1.1-2.5,2.5C545-29.4,546.1-28.3,547.5-28.3"/>
<path fill="#E6E6E6" d="M537-80.4h-1.3v-33.2l0.2-0.2l20.3-20.3v-49.6h-20.5v-54.4h1.3v53h20.5v51.4l-0.2,0.2L537-113.1V-80.4z
	 M536.4-235.6c1.4,0,2.5-1.1,2.5-2.5s-1.1-2.5-2.5-2.5s-2.5,1.1-2.5,2.5S535-235.6,536.4-235.6 M536.4-77.9c1.4,0,2.5-1.1,2.5-2.5
	c0-1.4-1.1-2.5-2.5-2.5s-2.5,1.1-2.5,2.5C533.9-79,535-77.9,536.4-77.9"/>
<path fill="#E6E6E6" d="M517-94.4h-1.3v-26.2l-12-12V-186l0.2-0.2l16.8-16.8v-24h1.3v24.5l-0.2,0.2L505-185.5v52.3l12,12V-94.4z
	 M521.4-224.5c1.4,0,2.5-1.1,2.5-2.5c0-1.4-1.1-2.5-2.5-2.5c-1.4,0-2.5,1.1-2.5,2.5C518.9-225.6,520-224.5,521.4-224.5 M516.4-91.9
	c1.4,0,2.5-1.1,2.5-2.5s-1.1-2.5-2.5-2.5c-1.4,0-2.5,1.1-2.5,2.5S515-91.9,516.4-91.9"/>
<path fill="#E6E6E6" d="M592.3-182.5h-1.2v-75.7l-17.6-17.6v-54.9h1.2v54.4l17.6,17.6V-182.5z M574.1-328.1c1.4,0,2.5-1.1,2.5-2.5
	s-1.1-2.5-2.5-2.5c-1.4,0-2.5,1.1-2.5,2.5S572.7-328.1,574.1-328.1 M591.7-180c1.4,0,2.5-1.1,2.5-2.5c0-1.4-1.1-2.5-2.5-2.5
	c-1.4,0-2.5,1.1-2.5,2.5C589.2-181.1,590.3-180,591.7-180"/>
<path fill="#E6E6E6" d="M611-189.3h-12.2v-53.2h1.3v51.9H611V-189.3z M599.5-240c1.4,0,2.5-1.1,2.5-2.5s-1.1-2.5-2.5-2.5
	c-1.4,0-2.5,1.1-2.5,2.5S598.1-240,599.5-240 M611-187.5c1.4,0,2.5-1.1,2.5-2.5s-1.1-2.5-2.5-2.5c-1.4,0-2.5,1.1-2.5,2.5
	S609.6-187.5,611-187.5"/>
<path fill="#E6E6E6" d="M624-198.1h-17.4v-63.5h1.2v62.3H624V-198.1z M607.2-259c1.4,0,2.5-1.1,2.5-2.5s-1.1-2.5-2.5-2.5
	s-2.5,1.1-2.5,2.5S605.8-259,607.2-259 M624-196.2c1.4,0,2.5-1.1,2.5-2.5s-1.1-2.5-2.5-2.5c-1.4,0-2.5,1.1-2.5,2.5
	S622.6-196.2,624-196.2"/>
<path fill="#E6E6E6" d="M577.9,6.7h-1.2v-31.1l0.2-0.1l13.9-14v-134h42v-72h1.3v73.3h-42V-38l-0.2,0.2l-14,14V6.7z M633.5-242
	c1.4,0,2.5-1.1,2.5-2.5c0-1.4-1.1-2.5-2.5-2.5c-1.4,0-2.5,1.1-2.5,2.5C631-243.1,632.1-242,633.5-242 M577.3,9.2
	c1.4,0,2.5-1.1,2.5-2.5s-1.1-2.5-2.5-2.5s-2.5,1.1-2.5,2.5S575.9,9.2,577.3,9.2"/>
<path fill="#E6E6E6" d="M618-26.6h-1.2v-18.8l-18.2-18.2v-101.9h42.1v-62.1h1.3v63.4h-42.2v100.1L618-45.9V-26.6z M641.4-225.1
	c1.4,0,2.5-1.1,2.5-2.5s-1.1-2.5-2.5-2.5c-1.4,0-2.5,1.1-2.5,2.5S640.1-225.1,641.4-225.1 M617.4-24.1c1.4,0,2.5-1.1,2.5-2.5
	c0-1.4-1.1-2.5-2.5-2.5c-1.4,0-2.5,1.1-2.5,2.5C614.9-25.2,616-24.1,617.4-24.1"/>
<path fill="#E6E6E6" d="M648-2.8h-1.2v-45.1l0.1-0.2l16-16v-54.6h-15v-99.8h1.3v98.5h15v56.4l-0.2,0.2l-16,16V-2.8z M648.6-216
	c1.4,0,2.5-1.1,2.5-2.5s-1.1-2.5-2.5-2.5c-1.4,0-2.5,1.1-2.5,2.5S647.2-216,648.6-216 M647.4-0.3c1.4,0,2.5-1.1,2.5-2.5
	s-1.1-2.5-2.5-2.5c-1.4,0-2.5,1.1-2.5,2.5S646-0.3,647.4-0.3"/>
<path fill="#E6E6E6" d="M752.4,93.9h-17.1l-0.2-0.2l-75.2-75.2v-62.1l0.2-0.2l17.8-17.8v-70.7h-13v-125.5l-17-17v-40.8h1.3v40.3
	l17,17v124.7h13v72.5l-0.2,0.2L661.2-43V18l74.6,74.6h16.6V93.9z M648.6-313.1c1.4,0,2.5-1.1,2.5-2.5c0-1.4-1.1-2.5-2.5-2.5
	c-1.4,0-2.5,1.1-2.5,2.5C646.1-314.2,647.2-313.1,648.6-313.1"/>
<path fill="#E6E6E6" d="M693.2-155.6h-1.3v-103.1l-21-21v-61.9h1.3v61.4l21,21V-155.6z M671.6-339.1c1.4,0,2.5-1.1,2.5-2.5
	c0-1.4-1.1-2.5-2.5-2.5c-1.4,0-2.5,1.1-2.5,2.5C669.1-340.2,670.2-339.1,671.6-339.1 M692.6-153.1c1.4,0,2.5-1.1,2.5-2.5
	s-1.1-2.5-2.5-2.5c-1.4,0-2.5,1.1-2.5,2.5S691.2-153.1,692.6-153.1"/>
<path fill="#E6E6E6" d="M709.3-147.9h-1.2v-58.7l-9.2-9.1v-33.8h1.3v33.3l9.1,9.1V-147.9z M699.6-247c1.4,0,2.5-1.1,2.5-2.5
	s-1.1-2.5-2.5-2.5c-1.4,0-2.5,1.1-2.5,2.5S698.2-247,699.6-247 M708.7-145.4c1.4,0,2.5-1.1,2.5-2.5s-1.1-2.5-2.5-2.5
	s-2.5,1.1-2.5,2.5S707.3-145.4,708.7-145.4"/>
<path fill="#E6E6E6" d="M737.3-83.7h-20.3v-41.5h11.3v24.3h-1.3V-124h-8.7v39H736v-53.1h-19v-106.5h14.2v1.3h-12.9v104h19
	L737.3-83.7z M727.6-98.4c1.4,0,2.5-1.1,2.5-2.5s-1.1-2.5-2.5-2.5c-1.4,0-2.5,1.1-2.5,2.5S726.2-98.4,727.6-98.4 M731.1-241.5
	c1.4,0,2.5-1.1,2.5-2.5s-1.1-2.5-2.5-2.5c-1.4,0-2.5,1.1-2.5,2.5S729.7-241.5,731.1-241.5"/>
<path fill="#E6E6E6" d="M752.3-122.1H751v-36.6h-14.5v-71.8h1.3v70.5h14.5V-122.1z M737.2-228c1.4,0,2.5-1.1,2.5-2.5
	s-1.1-2.5-2.5-2.5c-1.4,0-2.5,1.1-2.5,2.5S735.8-228,737.2-228 M751.7-119.6c1.4,0,2.5-1.1,2.5-2.5s-1.1-2.5-2.5-2.5
	c-1.4,0-2.5,1.1-2.5,2.5S750.3-119.6,751.7-119.6"/>
<path fill="#E6E6E6" d="M760.3-133.4H759v-32.3h-15.3v-51.7h1.2v50.4h15.4L760.3-133.4z M744.3-215c1.4,0,2.5-1.1,2.5-2.5
	c0-1.4-1.1-2.5-2.5-2.5c-1.4,0-2.5,1.1-2.5,2.5C741.8-216.1,742.9-215,744.3-215 M759.7-130.9c1.4,0,2.5-1.1,2.5-2.5
	c0-1.4-1.1-2.5-2.5-2.5c-1.4,0-2.5,1.1-2.5,2.5C757.2-132,758.3-130.9,759.7-130.9"/>
<path fill="#E6E6E6" d="M769.2-65.2h-10.9v-35.4l0.2-0.2l16.5-16.5v-64.5h-16.7v-113.9h12.9v1.3h-11.6v111.3h16.7v66.3l-0.2,0.2
	l-16.5,16.5v33.6h9.6V-65.2z M769.2-63.4c1.4,0,2.5-1.1,2.5-2.5s-1.1-2.5-2.5-2.5c-1.4,0-2.5,1.1-2.5,2.5S767.8-63.4,769.2-63.4
	 M771.2-292.6c1.4,0,2.5-1.1,2.5-2.5c0-1.4-1.1-2.5-2.5-2.5c-1.4,0-2.5,1.1-2.5,2.5C768.7-293.7,769.8-292.6,771.2-292.6"/>
<path fill="#E6E6E6" d="M780.2-75.5H765v-19.6l0.2-0.2l19.8-19.8v-75.2h-20v-58.5h15.2v1.2h-13.9v56h20v77l-0.2,0.2l-19.8,19.8v17.9
	h13.9V-75.5z M780.2-245.6c1.4,0,2.5-1.1,2.5-2.5s-1.1-2.5-2.5-2.5c-1.4,0-2.5,1.1-2.5,2.5S778.8-245.6,780.2-245.6 M780.2-73.6
	c1.4,0,2.5-1.1,2.5-2.5s-1.1-2.5-2.5-2.5c-1.4,0-2.5,1.1-2.5,2.5S778.8-73.6,780.2-73.6"/>
<path fill="#E6E6E6" d="M510.7-272.5h1.2v57.1h-1.2V-272.5z M511.4-270c1.4,0,2.5-1.1,2.5-2.5c0-1.4-1.1-2.5-2.5-2.5
	s-2.5,1.1-2.5,2.5C508.9-271.1,510-270,511.4-270 M511.4-213c1.4,0,2.5-1.1,2.5-2.5s-1.1-2.5-2.5-2.5s-2.5,1.1-2.5,2.5
	S510-213,511.4-213"/>
<path fill="#E6E6E6" d="M495-144.4h-1.3V-196l7-7v-53.9h1.3v54.4l-7,7V-144.4z M501.4-254.3c1.4,0,2.5-1.1,2.5-2.5
	c0-1.4-1.1-2.5-2.5-2.5c-1.4,0-2.5,1.1-2.5,2.5C498.9-255.5,500-254.3,501.4-254.3 M494.4-141.9c1.4,0,2.5-1.1,2.5-2.5
	c0-1.4-1.1-2.5-2.5-2.5c-1.4,0-2.5,1.1-2.5,2.5C491.9-143,493-141.9,494.4-141.9"/>
<path fill="#E6E6E6" d="M542.2-156h-22.5v-32.6l9.3-9.3v-78.6h1.2v79.1l-9.2,9.3v30.9h21.2V-156z M542.2-154.1
	c1.4,0,2.5-1.1,2.5-2.5s-1.1-2.5-2.5-2.5s-2.5,1.1-2.5,2.5S540.8-154.1,542.2-154.1 M529.6-274c1.4,0,2.5-1.1,2.5-2.5
	s-1.1-2.5-2.5-2.5c-1.4,0-2.5,1.1-2.5,2.5S528.2-274,529.6-274"/>
<path fill="none" stroke="#CCCCCC" stroke-miterlimit="10" d="M691.9,190.5h10l51.3-51.2"/>
<script  src="chrome-extension://gppongmhjkpfnbhagpmjfkannfbllamg/js/inject.js" id="wappalyzerEnvDetection"></script>
<path fill="none" stroke="#CCCCCC" stroke-miterlimit="10" d="M58.7,210.3h10L120,159"/>
<g id="computer_x5F_chip_x5F_loading_x5F_SM_1_">
	<path fill="#2DACD8" d="M34.9,204.1h19.7c2.6,0,4.8,2.9,4.8,6.5c0,3.6-2.2,6.5-4.8,6.5H34.9"/>
	<path fill="#2DACD8" d="M34.9,236.9h19.7c2.6,0,4.8,2.9,4.8,6.5s-2.2,6.5-4.8,6.5H34.9"/>
	<path fill="#2DACD8" d="M34.9,269.7h19.7c2.6,0,4.8,2.9,4.8,6.5c0,3.6-2.2,6.5-4.8,6.5H34.9"/>
	<path fill="#2DACD8" d="M-75.2,172.3v-20.1c0-2.7,2.9-4.9,6.4-4.9s6.4,2.2,6.4,4.9v20.1"/>
	<path fill="#2DACD8" d="M-43,172.3v-20.1c0-2.7,2.9-4.9,6.4-4.9c3.5,0,6.4,2.2,6.4,4.9v20.1"/>
	<path fill="#2DACD8" d="M-10.8,172.3v-20.1c0-2.7,2.9-4.9,6.4-4.9c3.5,0,6.4,2.2,6.4,4.9v20.1"/>
	<path fill="#2DACD8" d="M-62.5,310.4v20.1c0,2.7-2.9,4.9-6.4,4.9c-3.5,0-6.4-2.2-6.4-4.9v-20.1"/>
	<path fill="#2DACD8" d="M-30.3,310.4v20.1c0,2.7-2.9,4.9-6.4,4.9c-3.5,0-6.4-2.2-6.4-4.9v-20.1"/>
	<path fill="#2DACD8" d="M2,310.4v20.1c0,2.7-2.9,4.9-6.4,4.9c-3.5,0-6.4-2.2-6.4-4.9v-20.1"/>
	<path fill="#2DACD8" d="M-108.1,217h-19.7c-2.6,0-4.8-2.9-4.8-6.5s2.2-6.5,4.8-6.5h19.7"/>
	<path fill="#2DACD8" d="M-108.1,249.8h-19.7c-2.6,0-4.8-2.9-4.8-6.5c0-3.6,2.2-6.5,4.8-6.5h19.7"/>
	<path fill="#2DACD8" d="M-108.1,282.6h-19.7c-2.6,0-4.8-2.9-4.8-6.5s2.2-6.5,4.8-6.5h19.7"/>
	<path fill="#2DACD8" d="M9.2,203c0-3-2-5.5-4.5-5.5h-82.6c-2.5,0-4.5,2.5-4.5,5.5v77.5c0,3,2,5.5,4.5,5.5H4.7
		c2.5,0,4.5-2.5,4.5-5.5L9.2,203L9.2,203z M31.8,299.6c0,4.5-3,8.2-6.7,8.2H-98.3c-3.7,0-6.7-3.7-6.7-8.2V183.8c0-4.5,3-8.2,6.7-8.2
		H25.1c3.7,0,6.7,3.7,6.7,8.2L31.8,299.6L31.8,299.6z"/>
	<line fill="none" x1="-4.2" y1="241.6" x2="-13.8" y2="241.5"/>
	<path fill="#FBE1C4" d="M-16.1,245.2c-1.3-0.8-2.1-2.1-2.1-3.7c0-2.4,2-4.3,4.3-4.3l9.6,0.1c2.4,0,4.3,2,4.3,4.3
		c0,2.4-2,4.3-4.3,4.3l-9.6-0.1C-14.7,245.8-15.4,245.6-16.1,245.2z"/>
	<line fill="none" x1="-8.5" y1="225.3" x2="-16.8" y2="230.1"/>
	<path fill="#FCEBD8" d="M-19.1,233.8c-0.6-0.4-1.1-0.9-1.5-1.5c-1.2-2.1-0.5-4.7,1.6-5.9l8.4-4.8c2.1-1.2,4.7-0.5,5.9,1.6
		c1.2,2.1,0.5,4.7-1.6,5.9l-8.4,4.8C-16.1,234.6-17.8,234.5-19.1,233.8z"/>
	<line fill="none" x1="-20.2" y1="213.4" x2="-25.1" y2="221.7"/>
	<path fill="#C1741E" d="M-27.3,225.4c-2-1.2-2.7-3.8-1.5-5.8l4.9-8.3c1.2-2,3.8-2.7,5.9-1.5c0,0,0,0,0.1,0c2,1.2,2.7,3.8,1.5,5.8
		l-4.9,8.3C-22.6,225.9-25.2,226.6-27.3,225.4C-27.3,225.4-27.3,225.4-27.3,225.4z"/>
	<line fill="none" x1="-36.4" y1="209" x2="-36.5" y2="218.6"/>
	<path fill="#D98222" d="M-38.7,222.2c-1.3-0.8-2.1-2.1-2.1-3.7l0.1-9.6c0-2.4,2-4.3,4.3-4.3c2.4,0,4.3,2,4.3,4.3l-0.1,9.6
		c0,2.4-2,4.3-4.3,4.3C-37.3,222.9-38,222.6-38.7,222.2z"/>
	<line fill="none" x1="-52.6" y1="213.2" x2="-47.9" y2="221.5"/>
	<path fill="#F19126" d="M-50.1,225.2c-0.6-0.4-1.1-0.9-1.5-1.5l-4.8-8.4c-1.2-2.1-0.5-4.7,1.6-5.9c2.1-1.2,4.7-0.4,5.9,1.6l4.8,8.4
		c1.2,2.1,0.5,4.7-1.6,5.9C-47.2,226.1-48.8,226-50.1,225.2z"/>
	<line fill="none" x1="-64.6" y1="225" x2="-56.3" y2="229.8"/>
	<path fill="#F29B3A" d="M-66.8,228.6c-2-1.2-2.7-3.8-1.5-5.8c1.2-2,3.8-2.7,5.9-1.5l8.3,4.9c2.1,1.2,2.7,3.8,1.5,5.9
		c-1.2,2-3.8,2.7-5.9,1.5L-66.8,228.6C-66.7,228.6-66.8,228.6-66.8,228.6z"/>
	<line fill="none" x1="-69" y1="241.1" x2="-59.4" y2="241.2"/>
	<path fill="#F4A54D" d="M-71.2,244.8c-1.2-0.8-2.1-2.1-2.1-3.7c0-2.4,2-4.3,4.3-4.3l9.6,0.1c2.4,0,4.3,2,4.3,4.3
		c0,2.4-2,4.3-4.3,4.3l-9.6-0.1C-69.8,245.4-70.6,245.2-71.2,244.8z"/>
	<line fill="none" x1="-64.8" y1="257.3" x2="-56.4" y2="252.6"/>
	<path fill="#F5AF61" d="M-67,261c-0.6-0.4-1.1-0.9-1.5-1.5c-1.2-2.1-0.5-4.7,1.6-5.9l8.4-4.8c2.1-1.2,4.7-0.5,5.9,1.6
		c1.2,2.1,0.5,4.7-1.6,5.9l-8.4,4.8C-64.1,261.9-65.7,261.8-67,261z"/>
	<line fill="none" x1="-53" y1="269.3" x2="-48.1" y2="261"/>
	<path fill="#F6B975" d="M-55.2,272.9c-2-1.2-2.7-3.8-1.5-5.8l4.9-8.3c1.2-2,3.8-2.7,5.9-1.5c2.1,1.2,2.7,3.8,1.5,5.9l-4.9,8.3
		C-50.5,273.5-53.1,274.2-55.2,272.9C-55.2,273-55.2,272.9-55.2,272.9z"/>
	<line fill="none" x1="-36.8" y1="273.7" x2="-36.8" y2="264.1"/>
	<path fill="#F7C389" d="M-39.1,277.4c-1.2-0.8-2.1-2.1-2.1-3.7l0.1-9.6c0-2.4,2-4.3,4.3-4.3c2.4,0,4.3,2,4.3,4.3l-0.1,9.6
		c0,2.4-2,4.3-4.3,4.3C-37.7,278-38.4,277.8-39.1,277.4z"/>
	<path fill="#F9CD9C" d="M-22.8,273.2c-0.6-0.4-1.1-0.9-1.5-1.5l-4.8-8.4c-1.2-2.1-0.5-4.7,1.6-5.9c2.1-1.2,4.7-0.5,5.9,1.6l4.8,8.4
		c1.2,2.1,0.5,4.7-1.6,5.9C-19.9,274-21.6,273.9-22.8,273.2z"/>
	<line fill="none" x1="-8.7" y1="257.7" x2="-17" y2="252.9"/>
	<path fill="#FAD7B0" d="M-19.2,256.5c-2-1.2-2.7-3.8-1.5-5.8c1.2-2,3.8-2.7,5.9-1.5l8.3,4.9c2.1,1.2,2.7,3.8,1.5,5.9
		c-1.2,2-3.8,2.7-5.9,1.5L-19.2,256.5C-19.2,256.5-19.2,256.5-19.2,256.5z"/>
</g>
<path fill="none" stroke="#CCCCCC" stroke-miterlimit="10" d="M207.7,240.3v50.9l41,41.2v178L176,584.1h-59.9"/>
</svg>
