<svg version="1.1" xmlns="http://www.w3.org/2000/svg" xmlns:xlink="http://www.w3.org/1999/xlink" x="0px" y="0px"
	 viewBox="0 0 231.172 204.274" style="enable-background:new 0 0 231.172 204.274;" xml:space="preserve">
<g id="circle_x5F_servers">
	<g>
		<defs>
			<circle id="SVGID_1_" cx="103.64" cy="102.268" r="101.289"/>
		</defs>
		<clipPath id="SVGID_2_">
			<use xlink:href="#SVGID_1_"  style="overflow:visible;"/>
		</clipPath>
		<polygon style="clip-path:url(#SVGID_2_);fill:#999999;" points="49.109,158.164 199.036,193.631 231.203,69.027 152,45.699 
			152,158.301 		"/>
	</g>
	<g>
		<g>
			<g>
				<g style="opacity:0.15;">
					<g>
						<path d="M102.137,204.274c56.409,0,102.137-45.728,102.137-102.138C204.273,45.728,158.545,0,102.137,0S0,45.728,0,102.137
							C0,158.546,45.728,204.274,102.137,204.274"/>
					</g>
				</g>
			</g>
		</g>
		<g>
			<g>
				<g style="opacity:0.1;">
					<g>
						<path style="fill:#231F20;" d="M147.54,10.897c-10.14-3.386-20.991-5.22-32.27-5.22c-56.242,0-101.834,45.597-101.834,101.845
							c0,39.554,22.549,73.843,55.491,90.711l-0.238-0.055C28.72,184.426,0,146.492,0,101.85C0,45.603,45.593,0.006,101.834,0.006
							c16.449,0,31.987,3.9,45.74,10.827L147.54,10.897z"/>
						<path style="fill:none;" d="M147.54,10.897c-10.14-3.386-20.991-5.22-32.27-5.22c-56.242,0-101.834,45.597-101.834,101.845
							c0,39.554,22.549,73.843,55.491,90.711l-0.238-0.055C28.72,184.426,0,146.492,0,101.85C0,45.603,45.593,0.006,101.834,0.006
							c16.449,0,31.987,3.9,45.74,10.827L147.54,10.897z"/>
					</g>
				</g>
			</g>
		</g>
	</g>
	<g>
		<defs>
			<rect id="SVGID_3_" x="48.939" y="45.973" width="106.394" height="112.327"/>
		</defs>
		<clipPath id="SVGID_4_">
			<use xlink:href="#SVGID_3_"  style="overflow:visible;"/>
		</clipPath>
		<path style="clip-path:url(#SVGID_4_);" d="M48.939,154.639c0,2.023,1.64,3.661,3.661,3.661h99.071
			c2.022,0,3.661-1.639,3.661-3.661v-18.128c0-2.023-1.64-3.661-3.661-3.661H52.601c-2.022,0-3.661,1.639-3.661,3.661V154.639z"/>
		<path style="clip-path:url(#SVGID_4_);" d="M48.939,125.681c0,2.023,1.64,3.661,3.661,3.661h99.071
			c2.022,0,3.661-1.639,3.661-3.661v-18.128c0-2.023-1.64-3.661-3.661-3.661H52.601c-2.022,0-3.661,1.639-3.661,3.661V125.681z"/>
		<path style="clip-path:url(#SVGID_4_);" d="M48.939,96.722c0,2.023,1.64,3.661,3.661,3.661h99.071
			c2.022,0,3.661-1.639,3.661-3.661V78.594c0-2.023-1.64-3.661-3.661-3.661H52.601c-2.022,0-3.661,1.639-3.661,3.661V96.722z"/>
		<path style="clip-path:url(#SVGID_4_);" d="M48.939,67.764c0,2.023,1.64,3.661,3.661,3.661h99.071
			c2.022,0,3.661-1.639,3.661-3.661V49.635c0-2.023-1.64-3.661-3.661-3.661H52.601c-2.022,0-3.661,1.639-3.661,3.661V67.764z"/>
		<path style="clip-path:url(#SVGID_4_);fill:#F1F1F1;" d="M147.265,141.517c0,1.187-0.962,2.149-2.149,2.149
			c-1.187,0-2.149-0.962-2.149-2.149c0-1.187,0.962-2.149,2.149-2.149C146.303,139.368,147.265,140.33,147.265,141.517"/>
		<path style="clip-path:url(#SVGID_4_);fill:#F1F1F1;" d="M139.209,141.517c0,1.187-0.962,2.149-2.149,2.149
			c-1.188,0-2.149-0.962-2.149-2.149c0-1.187,0.961-2.149,2.149-2.149C138.246,139.368,139.209,140.33,139.209,141.517"/>
		<path style="clip-path:url(#SVGID_4_);fill:#F1F1F1;" d="M130.457,141.517c0,1.187-0.962,2.149-2.149,2.149
			c-1.187,0-2.149-0.962-2.149-2.149c0-1.187,0.962-2.149,2.149-2.149C129.494,139.368,130.457,140.33,130.457,141.517"/>
		<path style="clip-path:url(#SVGID_4_);fill:#F1F1F1;" d="M66.087,148.779c0,0.435-0.352,0.787-0.787,0.787h-6.392
			c-0.435,0-0.787-0.352-0.787-0.787v-6.392c0-0.435,0.352-0.787,0.787-0.787H65.3c0.435,0,0.787,0.352,0.787,0.787V148.779z"/>
		<path style="clip-path:url(#SVGID_4_);fill:#F1F1F1;" d="M147.265,112.558c0,1.187-0.962,2.149-2.149,2.149
			c-1.187,0-2.149-0.962-2.149-2.149s0.962-2.149,2.149-2.149C146.303,110.409,147.265,111.371,147.265,112.558"/>
		<path style="clip-path:url(#SVGID_4_);fill:#F1F1F1;" d="M139.209,112.558c0,1.187-0.962,2.149-2.149,2.149
			c-1.188,0-2.149-0.962-2.149-2.149s0.961-2.149,2.149-2.149C138.246,110.409,139.209,111.371,139.209,112.558"/>
		<path style="clip-path:url(#SVGID_4_);fill:#F1F1F1;" d="M130.457,112.558c0,1.187-0.962,2.149-2.149,2.149
			c-1.187,0-2.149-0.962-2.149-2.149s0.962-2.149,2.149-2.149C129.494,110.409,130.457,111.371,130.457,112.558"/>
		<path style="clip-path:url(#SVGID_4_);fill:#F1F1F1;" d="M66.087,119.821c0,0.435-0.352,0.787-0.787,0.787h-6.392
			c-0.435,0-0.787-0.352-0.787-0.787v-6.392c0-0.435,0.352-0.787,0.787-0.787H65.3c0.435,0,0.787,0.352,0.787,0.787V119.821z"/>
		<path style="clip-path:url(#SVGID_4_);fill:#F1F1F1;" d="M147.265,83.599c0,1.187-0.962,2.149-2.149,2.149
			c-1.187,0-2.149-0.962-2.149-2.149s0.962-2.149,2.149-2.149C146.303,81.45,147.265,82.412,147.265,83.599"/>
		<path style="clip-path:url(#SVGID_4_);fill:#F1F1F1;" d="M139.209,83.599c0,1.187-0.962,2.149-2.149,2.149
			c-1.188,0-2.149-0.962-2.149-2.149s0.961-2.149,2.149-2.149C138.246,81.45,139.209,82.412,139.209,83.599"/>
		<path style="clip-path:url(#SVGID_4_);fill:#F1F1F1;" d="M130.457,83.599c0,1.187-0.962,2.149-2.149,2.149
			c-1.187,0-2.149-0.962-2.149-2.149s0.962-2.149,2.149-2.149C129.494,81.45,130.457,82.412,130.457,83.599"/>
		<path style="clip-path:url(#SVGID_4_);fill:#F1F1F1;" d="M66.087,90.862c0,0.435-0.352,0.787-0.787,0.787h-6.392
			c-0.435,0-0.787-0.352-0.787-0.787v-6.392c0-0.435,0.352-0.787,0.787-0.787H65.3c0.435,0,0.787,0.352,0.787,0.787V90.862z"/>
		<path style="clip-path:url(#SVGID_4_);fill:#F1F1F1;" d="M147.265,54.641c0,1.187-0.962,2.149-2.149,2.149
			c-1.187,0-2.149-0.962-2.149-2.149c0-1.187,0.962-2.149,2.149-2.149C146.303,52.492,147.265,53.454,147.265,54.641"/>
		<path style="clip-path:url(#SVGID_4_);fill:#F1F1F1;" d="M139.209,54.641c0,1.187-0.962,2.149-2.149,2.149
			c-1.188,0-2.149-0.962-2.149-2.149c0-1.187,0.961-2.149,2.149-2.149C138.246,52.492,139.209,53.454,139.209,54.641"/>
		<path style="clip-path:url(#SVGID_4_);fill:#F1F1F1;" d="M130.457,54.641c0,1.187-0.962,2.149-2.149,2.149
			c-1.187,0-2.149-0.962-2.149-2.149c0-1.187,0.962-2.149,2.149-2.149C129.494,52.492,130.457,53.454,130.457,54.641"/>
		<path style="clip-path:url(#SVGID_4_);fill:#F1F1F1;" d="M66.087,61.904c0,0.435-0.352,0.787-0.787,0.787h-6.392
			c-0.435,0-0.787-0.352-0.787-0.787v-6.392c0-0.435,0.352-0.787,0.787-0.787H65.3c0.435,0,0.787,0.352,0.787,0.787V61.904z"/>
	</g>
</g>
<g id="Layer_1">
</g>
</svg>
