<?xml version="1.0" encoding="utf-8"?>
<!-- Generator: Adobe Illustrator 18.1.0, SVG Export Plug-In . SVG Version: 6.00 Build 0)  -->
<svg version="1.1" id="Layer_1" xmlns="http://www.w3.org/2000/svg" xmlns:xlink="http://www.w3.org/1999/xlink" x="0px" y="0px"
	 viewBox="-86.4 -381 572.4 962.6" enable-background="new -86.4 -381 572.4 962.6" xml:space="preserve">
<polyline fill="none" stroke="#CCCCCC" stroke-miterlimit="10" points="308.5,237.5 308.5,288.5 349.6,329.8 349.6,507.9 
	276.8,581.6 216.9,581.6 "/>
<path fill="#E6E6E6" d="M136.4,202.7h19.8c2.6,0,4.8,2.9,4.8,6.5s-2.2,6.5-4.8,6.5h-19.8"/>
<path fill="#E6E6E6" d="M136.4,235.6h19.8c2.6,0,4.8,2.9,4.8,6.5s-2.2,6.5-4.8,6.5h-19.8"/>
<path fill="#E6E6E6" d="M136.4,268.6h19.8c2.6,0,4.8,2.9,4.8,6.5c0,3.6-2.2,6.5-4.8,6.5h-19.8"/>
<path fill="#E6E6E6" d="M25.9,170.7v-20.1c0-2.7,2.9-4.9,6.4-4.9c3.5,0,6.4,2.2,6.4,4.9v20.1"/>
<path fill="#E6E6E6" d="M58.3,170.7v-20.1c0-2.7,2.9-4.9,6.4-4.9c3.5,0,6.4,2.2,6.4,4.9v20.1"/>
<path fill="#E6E6E6" d="M90.7,170.7v-20.1c0-2.7,2.9-4.9,6.4-4.9c3.5,0,6.4,2.2,6.4,4.9v20.1"/>
<path fill="#E6E6E6" d="M38.8,309.4v20.1c0,2.7-2.9,4.9-6.4,4.9c-3.5,0-6.4-2.2-6.4-4.9v-20.1"/>
<path fill="#E6E6E6" d="M71,309.4v20.1c0,2.7-2.9,4.9-6.4,4.9c-3.5,0-6.4-2.2-6.4-4.9v-20.1"/>
<path fill="#E6E6E6" d="M103.4,309.4v20.1c0,2.7-2.9,4.9-6.4,4.9c-3.5,0-6.4-2.2-6.4-4.9v-20.1"/>
<path fill="#E6E6E6" d="M-7.1,215.7h-19.8c-2.6,0-4.8-2.9-4.8-6.5s2.2-6.5,4.8-6.5h19.8"/>
<path fill="#E6E6E6" d="M-7.1,248.6h-19.8c-2.6,0-4.8-2.9-4.8-6.5s2.2-6.5,4.8-6.5h19.8"/>
<path fill="#E6E6E6" d="M-7.1,281.6h-19.8c-2.6,0-4.8-2.9-4.8-6.5c0-3.6,2.2-6.5,4.8-6.5h19.8"/>
<path fill="#E6E6E6" d="M110.7,201.6c0-3-2-5.5-4.5-5.5H23.2c-2.5,0-4.5,2.5-4.5,5.5v77.9c0,3,2,5.5,4.5,5.5h82.9
	c2.5,0,4.5-2.5,4.5-5.5V201.6z M133.4,298.6c0,4.5-3,8.2-6.7,8.2H2.7c-3.7,0-6.7-3.7-6.7-8.2V182.3c0-4.5,3-8.2,6.7-8.2h124
	c3.7,0,6.7,3.7,6.7,8.2V298.6z"/>
<line fill="none" x1="97.2" y1="240.3" x2="87.5" y2="240.2"/>
<path fill="#D0D2D3" d="M85.3,243.9c-1.3-0.8-2.1-2.1-2.1-3.7c0-2.4,2-4.3,4.3-4.3l9.6,0.1c2.4,0,4.3,2,4.3,4.3c0,2.4-2,4.3-4.3,4.3
	l-9.6-0.1C86.7,244.5,85.9,244.3,85.3,243.9z"/>
<line fill="none" x1="93" y1="224" x2="84.5" y2="228.8"/>
<path fill="#D0D2D3" d="M82.3,232.5c-0.6-0.4-1.1-0.9-1.5-1.6c-1.2-2.1-0.5-4.7,1.6-5.9l8.4-4.8c2.1-1.2,4.7-0.5,5.9,1.6
	s0.5,4.7-1.6,5.9l-8.4,4.8C85.2,233.3,83.6,233.2,82.3,232.5z"/>
<line fill="none" x1="81.1" y1="212" x2="76.2" y2="220.4"/>
<path fill="#58595B" d="M74,224c-2-1.2-2.7-3.8-1.5-5.9l4.9-8.3c1.2-2.1,3.8-2.7,5.9-1.5c0,0,0,0,0.1,0c2,1.2,2.7,3.8,1.5,5.9
	l-4.9,8.3C78.7,224.6,76.1,225.3,74,224C74,224.1,74,224.1,74,224z"/>
<line fill="none" x1="64.9" y1="207.6" x2="64.8" y2="217.2"/>
<path fill="#6D6E70" d="M62.6,220.9c-1.3-0.8-2.1-2.1-2.1-3.7l0.1-9.6c0-2.4,2-4.3,4.3-4.3c2.4,0,4.3,2,4.3,4.3l-0.1,9.6
	c0,2.4-2,4.3-4.3,4.3C64,221.5,63.2,221.3,62.6,220.9z"/>
<line fill="none" x1="48.6" y1="211.8" x2="53.4" y2="220.2"/>
<path fill="#808184" d="M51.2,223.9c-0.6-0.4-1.1-0.9-1.5-1.6l-4.8-8.4c-1.2-2.1-0.5-4.7,1.6-5.9c2.1-1.2,4.7-0.5,5.9,1.6l4.8,8.4
	c1.2,2.1,0.5,4.7-1.6,5.9C54.1,224.8,52.4,224.7,51.2,223.9z"/>
<line fill="none" x1="36.7" y1="223.6" x2="45" y2="228.5"/>
<path fill="#929497" d="M34.4,227.3c-2-1.2-2.7-3.8-1.5-5.9c1.2-2.1,3.8-2.7,5.9-1.5l8.3,4.9c2.1,1.2,2.7,3.8,1.5,5.9
	c-1.2,2.1-3.8,2.7-5.9,1.5L34.4,227.3C34.5,227.3,34.4,227.3,34.4,227.3z"/>
<line fill="none" x1="32.2" y1="239.8" x2="41.8" y2="239.9"/>
<path fill="#A6A8AB" d="M29.9,243.5c-1.3-0.8-2.1-2.1-2.1-3.7c0-2.4,2-4.3,4.3-4.3l9.6,0.1c2.4,0,4.3,2,4.3,4.3c0,2.4-2,4.3-4.3,4.3
	l-9.6-0.1C31.4,244.1,30.5,243.9,29.9,243.5z"/>
<line fill="none" x1="36.4" y1="256.2" x2="44.8" y2="251.3"/>
<path fill="#BBBDBF" d="M34.2,259.9c-0.6-0.4-1.1-0.9-1.5-1.6c-1.2-2.1-0.5-4.7,1.6-5.9l8.4-4.8c2.1-1.2,4.7-0.5,5.9,1.6
	c1.2,2.1,0.5,4.7-1.6,5.9l-8.4,4.8C37.2,260.8,35.5,260.7,34.2,259.9z"/>
<line fill="none" x1="48.2" y1="268.2" x2="53.1" y2="259.9"/>
<path fill="#D0D2D3" d="M46,271.9c-2-1.2-2.7-3.8-1.5-5.9l4.9-8.3c1.2-2.1,3.8-2.7,5.9-1.5c2.1,1.2,2.7,3.8,1.5,5.9l-4.9,8.3
	C50.8,272.4,48.1,273.1,46,271.9L46,271.9z"/>
<line fill="none" x1="64.5" y1="272.6" x2="64.5" y2="263"/>
<path fill="#D0D2D3" d="M62.2,276.3c-1.3-0.8-2.1-2.1-2.1-3.7l0.1-9.6c0-2.4,2-4.3,4.3-4.3c2.4,0,4.3,2,4.3,4.3l-0.1,9.6
	c0,2.4-2,4.3-4.3,4.3C63.6,276.9,62.9,276.7,62.2,276.3z"/>
<path fill="#D0D2D3" d="M78.5,272.1c-0.6-0.4-1.1-0.9-1.5-1.6l-4.8-8.4c-1.2-2.1-0.5-4.7,1.6-5.9c2.1-1.2,4.7-0.5,5.9,1.6l4.8,8.4
	c1.2,2.1,0.5,4.7-1.6,5.9C81.4,272.9,79.8,272.9,78.5,272.1z"/>
<line fill="none" x1="92.8" y1="256.6" x2="84.4" y2="251.6"/>
<path fill="#D0D2D3" d="M82.1,255.4c-2-1.2-2.7-3.8-1.5-5.9c1.2-2.1,3.8-2.7,5.9-1.5l8.3,4.9c2.1,1.2,2.7,3.8,1.5,5.9
	c-1.2,2.1-3.8,2.7-5.9,1.5L82.1,255.4C82.2,255.4,82.2,255.4,82.1,255.4z"/>
<path fill="#E6E6E6" d="M452.1,56.5h27.2c3.6,0,6.6,4,6.6,8.9s-3,8.9-6.6,8.9h-27.2"/>
<path fill="#E6E6E6" d="M452.1,101.8h27.2c3.6,0,6.6,4,6.6,8.9s-3,8.9-6.6,8.9h-27.2"/>
<path fill="#E6E6E6" d="M452.1,147.1h27.2c3.6,0,6.6,4,6.6,8.9c0,4.9-3,8.9-6.6,8.9h-27.2"/>
<path fill="#E6E6E6" d="M300.2,12.6v-27.7c0-3.7,3.9-6.7,8.8-6.7c4.8,0,8.8,3,8.8,6.7v27.7"/>
<path fill="#E6E6E6" d="M344.7,12.6v-27.7c0-3.7,3.9-6.7,8.8-6.7c4.9,0,8.8,3,8.8,6.7v27.7"/>
<path fill="#E6E6E6" d="M389.2,12.6v-27.7c0-3.7,3.9-6.7,8.8-6.7c4.8,0,8.8,3,8.8,6.7v27.7"/>
<path fill="#E6E6E6" d="M317.7,203.3V231c0,3.7-3.9,6.7-8.8,6.7c-4.9,0-8.8-3-8.8-6.7v-27.7"/>
<path fill="#E6E6E6" d="M362.2,203.3V231c0,3.7-3.9,6.7-8.8,6.7c-4.8,0-8.8-3-8.8-6.7v-27.7"/>
<path fill="#E6E6E6" d="M406.7,203.3V231c0,3.7-3.9,6.7-8.8,6.7c-4.8,0-8.8-3-8.8-6.7v-27.7"/>
<path fill="#E6E6E6" d="M254.8,74.4h-27.2c-3.6,0-6.6-4-6.6-8.9s3-8.9,6.6-8.9h27.2"/>
<path fill="#E6E6E6" d="M254.8,119.6h-27.2c-3.6,0-6.6-4-6.6-8.9s3-8.9,6.6-8.9h27.2"/>
<path fill="#E6E6E6" d="M254.8,164.9h-27.2c-3.6,0-6.6-4-6.6-8.9c0-4.9,3-8.9,6.6-8.9h27.2"/>
<path fill="#E6E6E6" d="M416.6,55c0-4.2-2.8-7.6-6.2-7.6h-114c-3.4,0-6.2,3.4-6.2,7.6v107c0,4.2,2.8,7.6,6.2,7.6h114
	c3.4,0,6.2-3.4,6.2-7.6C416.6,162,416.6,55,416.6,55z M447.9,188.4c0,6.2-4.1,11.3-9.2,11.3H268.4c-5.1,0-9.2-5.1-9.2-11.3V28.6
	c0-6.2,4.2-11.3,9.2-11.3h170.3c5.1,0,9.2,5.1,9.2,11.3V188.4z"/>
<line fill="none" x1="398.2" y1="108.2" x2="384.9" y2="108.1"/>
<path fill="#D0D2D3" d="M381.8,113.2c-1.7-1-2.9-2.9-2.9-5.1c0-3.3,2.7-5.9,6-5.9l13.2,0.1c3.3,0,5.9,2.7,5.9,6s-2.7,5.9-6,5.9
	l-13.2-0.1C383.7,114.1,382.6,113.7,381.8,113.2z"/>
<line fill="none" x1="392.4" y1="85.9" x2="380.7" y2="92.4"/>
<path fill="#D0D2D3" d="M377.7,97.5c-0.8-0.5-1.6-1.2-2.1-2.1c-1.6-2.8-0.6-6.5,2.2-8.1l11.5-6.5c2.8-1.6,6.5-0.6,8.1,2.2
	c1.6,2.8,0.6,6.5-2.2,8.1l-11.5,6.5C381.7,98.7,379.4,98.6,377.7,97.5z"/>
<line fill="none" x1="376" y1="69.3" x2="369.3" y2="80.9"/>
<path fill="#58595B" d="M366.3,85.9c-2.8-1.7-3.7-5.3-2-8.1l6.7-11.4c1.7-2.8,5.3-3.8,8.1-2.1h0.1c2.8,1.7,3.7,5.3,2,8.1l-6.7,11.4
	C372.8,86.7,369.2,87.6,366.3,85.9C366.3,86,366.3,85.9,366.3,85.9z"/>
<line fill="none" x1="353.8" y1="63.2" x2="353.7" y2="76.6"/>
<path fill="#6D6E70" d="M350.6,81.6c-1.7-1-2.9-2.9-2.9-5.1l0.1-13.2c0-3.3,2.7-5.9,6-5.9c3.3,0,5.9,2.7,5.9,6l-0.1,13.2
	c0,3.3-2.7,5.9-6,5.9C352.5,82.5,351.5,82.2,350.6,81.6z"/>
<line fill="none" x1="331.4" y1="69" x2="338" y2="80.7"/>
<path fill="#808184" d="M334.9,85.7c-0.8-0.5-1.6-1.2-2.1-2.1L326.3,72c-1.6-2.8-0.6-6.5,2.2-8.1c2.8-1.6,6.5-0.6,8.1,2.2l6.5,11.5
	c1.6,2.8,0.6,6.5-2.2,8.1C339,86.9,336.7,86.8,334.9,85.7z"/>
<line fill="none" x1="314.9" y1="85.4" x2="326.4" y2="92.1"/>
<path fill="#929497" d="M311.8,90.4c-2.8-1.7-3.7-5.3-2-8.1c1.7-2.8,5.3-3.8,8.1-2.1l11.4,6.7c2.9,1.7,3.8,5.3,2.1,8.1
	c-1.7,2.8-5.3,3.8-8.1,2.1L311.8,90.4C311.9,90.5,311.8,90.4,311.8,90.4z"/>
<line fill="none" x1="308.7" y1="107.6" x2="322" y2="107.7"/>
<path fill="#A6A8AB" d="M305.7,112.7c-1.7-1-2.9-2.9-2.9-5.1c0-3.3,2.7-5.9,6-5.9l13.2,0.1c3.3,0,5.9,2.7,5.9,6s-2.7,5.9-6,5.9
	l-13.2-0.1C307.6,113.5,306.6,113.2,305.7,112.7z"/>
<line fill="none" x1="314.6" y1="130" x2="326.2" y2="123.4"/>
<path fill="#BBBDBF" d="M311.5,135.1c-0.8-0.5-1.6-1.2-2.1-2.1c-1.6-2.8-0.6-6.5,2.2-8.1l11.5-6.5c2.8-1.6,6.5-0.6,8.1,2.2
	c1.6,2.8,0.6,6.5-2.2,8.1l-11.5,6.5C315.6,136.3,313.3,136.2,311.5,135.1z"/>
<line fill="none" x1="330.9" y1="146.5" x2="337.6" y2="135.1"/>
<path fill="#D0D2D3" d="M327.8,151.6c-2.8-1.7-3.7-5.3-2-8l6.7-11.4c1.7-2.8,5.3-3.8,8.1-2.1c2.8,1.7,3.8,5.3,2.1,8.1l-6.7,11.4
	C334.3,152.3,330.7,153.3,327.8,151.6C327.9,151.6,327.8,151.6,327.8,151.6z"/>
<line fill="none" x1="353.2" y1="152.6" x2="353.2" y2="139.4"/>
<path fill="#D0D2D3" d="M350.1,157.7c-1.7-1-2.9-2.9-2.9-5.1l0.1-13.2c0-3.3,2.7-5.9,6-5.9c3.3,0,5.9,2.7,5.9,6l-0.1,13.2
	c0,3.3-2.7,5.9-6,5.9C352,158.6,351,158.2,350.1,157.7z"/>
<path fill="#D0D2D3" d="M372.4,151.9c-0.8-0.5-1.6-1.2-2.1-2.1l-6.5-11.5c-1.6-2.8-0.6-6.5,2.2-8.1c2.8-1.6,6.5-0.6,8.1,2.2
	l6.5,11.5c1.6,2.8,0.6,6.5-2.2,8.1C376.5,153.1,374.2,153,372.4,151.9z"/>
<line fill="none" x1="392" y1="130.5" x2="380.5" y2="123.8"/>
<path fill="#D0D2D3" d="M377.5,128.9c-2.8-1.7-3.7-5.3-2-8c1.7-2.8,5.3-3.8,8.1-2.1l11.4,6.7c2.8,1.7,3.8,5.3,2.1,8.1
	c-1.7,2.8-5.3,3.8-8.1,2.1L377.5,128.9L377.5,128.9z"/>
<polygon fill="#E6E6E6" points="316.5,-135.2 315.3,-135.2 315.3,-196.1 301.3,-196.1 301.3,-278.7 284.3,-295.7 284.3,-338.6 
	285.5,-338.6 285.5,-296.2 302.5,-279.2 302.5,-197.4 316.5,-197.4 "/>
<path fill="#E6E6E6" d="M284.9-336c1.4,0,2.5-1.1,2.5-2.5c0-1.4-1.1-2.5-2.5-2.5s-2.5,1.1-2.5,2.5C282.4-337.2,283.5-336,284.9-336"
	/>
<path fill="#E6E6E6" d="M315.9-132.7c1.4,0,2.5-1.1,2.5-2.5s-1.1-2.5-2.5-2.5s-2.5,1.1-2.5,2.5C313.4-133.8,314.5-132.7,315.9-132.7
	"/>
<polygon fill="#E6E6E6" points="333,-187.3 331.8,-187.3 331.8,-210.1 316.3,-225.6 316.3,-294.2 300.8,-309.7 300.8,-365.6 
	302,-365.6 302,-310.2 317.5,-294.7 317.5,-226.1 333,-210.6 "/>
<path fill="#E6E6E6" d="M301.4-363.1c1.4,0,2.5-1.1,2.5-2.5s-1.1-2.5-2.5-2.5s-2.5,1.1-2.5,2.5S300-363.1,301.4-363.1"/>
<path fill="#E6E6E6" d="M332.4-184.8c1.4,0,2.5-1.1,2.5-2.5s-1.1-2.5-2.5-2.5s-2.5,1.1-2.5,2.5C329.9-185.9,331-184.8,332.4-184.8"
	/>
<polygon fill="#E6E6E6" points="308.5,-134.7 307.3,-134.7 307.3,-189.1 293.3,-189.1 293.3,-264.9 275.9,-282.3 275.9,-359.6 
	277.2,-359.6 277.2,-282.8 294.5,-265.4 294.5,-190.4 308.5,-190.4 "/>
<path fill="#E6E6E6" d="M276.5-357.1c1.4,0,2.5-1.1,2.5-2.5s-1.1-2.5-2.5-2.5c-1.4,0-2.5,1.1-2.5,2.5S275.2-357.1,276.5-357.1"/>
<path fill="#E6E6E6" d="M307.9-132.2c1.4,0,2.5-1.1,2.5-2.5s-1.1-2.5-2.5-2.5s-2.5,1.1-2.5,2.5C305.4-133.3,306.5-132.2,307.9-132.2
	"/>
<polygon fill="#E6E6E6" points="327.6,-231.4 326.4,-231.4 326.4,-347.3 309.8,-363.8 309.8,-378.6 311,-378.6 311,-364.3 
	327.6,-347.8 "/>
<path fill="#E6E6E6" d="M310.4-376.1c1.4,0,2.5-1.1,2.5-2.5c0-1.4-1.1-2.5-2.5-2.5s-2.5,1.1-2.5,2.5
	C307.9-377.2,309-376.1,310.4-376.1"/>
<path fill="#E6E6E6" d="M327-228.9c1.4,0,2.5-1.1,2.5-2.5s-1.1-2.5-2.5-2.5s-2.5,1.1-2.5,2.5C324.4-230,325.5-228.9,327-228.9"/>
<polygon fill="#E6E6E6" points="-71.3,9.5 -72.6,9.5 -72.6,-45.8 -72.4,-46 -54.2,-64.2 -54.2,-136.3 -66.6,-136.3 -66.6,-218.5 
	-84.6,-236.6 -84.6,-279.5 -83.3,-279.5 -83.3,-237.1 -65.3,-219 -65.3,-137.5 -52.9,-137.5 -52.9,-63.6 -53.1,-63.5 -71.3,-45.3 
	"/>
<path fill="#E6E6E6" d="M-83.9-276.9c1.4,0,2.5-1.1,2.5-2.5s-1.1-2.5-2.5-2.5c-1.4,0-2.5,1.1-2.5,2.5S-85.3-276.9-83.9-276.9"/>
<path fill="#E6E6E6" d="M-71.9,12c1.4,0,2.5-1.1,2.5-2.5S-70.5,7-71.9,7c-1.4,0-2.5,1.1-2.5,2.5S-73.3,12-71.9,12"/>
<polygon fill="#E6E6E6" points="265.2,-93.6 264.3,-94.5 275.4,-105.7 275.4,-121 262.6,-121 262.6,-211.8 263.8,-211.8 
	263.8,-122.3 276.7,-122.3 276.7,-105.2 "/>
<path fill="#E6E6E6" d="M263.2-209.3c1.4,0,2.5-1.1,2.5-2.5c0-1.4-1.1-2.5-2.5-2.5s-2.5,1.1-2.5,2.5
	C260.7-210.4,261.8-209.3,263.2-209.3"/>
<path fill="#E6E6E6" d="M264.7-91.6c1.4,0,2.5-1.1,2.5-2.5c0-1.4-1.1-2.5-2.5-2.5s-2.5,1.1-2.5,2.5
	C262.2-92.7,263.3-91.6,264.7-91.6"/>
<polygon fill="#E6E6E6" points="-45.9,-166.3 -47.2,-166.3 -47.2,-226.5 -63.3,-242.6 -63.3,-309.5 -62.1,-309.5 -62.1,-243.1 
	-45.9,-227 "/>
<path fill="#E6E6E6" d="M-62.7-307c1.4,0,2.5-1.1,2.5-2.5s-1.1-2.5-2.5-2.5c-1.4,0-2.5,1.1-2.5,2.5S-64.1-307-62.7-307"/>
<path fill="#E6E6E6" d="M-46.6-163.8c1.4,0,2.5-1.1,2.5-2.5c0-1.4-1.1-2.5-2.5-2.5c-1.4,0-2.5,1.1-2.5,2.5S-47.9-163.8-46.6-163.8"
	/>
<polygon fill="#E6E6E6" points="50.9,-184 49.6,-184 49.6,-238.6 33.6,-254.6 33.6,-296.5 34.9,-296.5 34.9,-255.1 50.9,-239.1 "/>
<path fill="#E6E6E6" d="M34.3-294c1.4,0,2.5-1.1,2.5-2.5s-1.1-2.5-2.5-2.5c-1.4,0-2.5,1.1-2.5,2.5S32.9-294,34.3-294"/>
<path fill="#E6E6E6" d="M50.3-181.5c1.4,0,2.5-1.1,2.5-2.5s-1.1-2.5-2.5-2.5c-1.4,0-2.5,1.1-2.5,2.5
	C47.8-182.6,48.9-181.5,50.3-181.5"/>
<polygon fill="#E6E6E6" points="26.8,10.5 25.5,10.5 25.5,-89.6 25.7,-89.8 41.6,-105.7 41.6,-180.9 25.5,-180.9 25.5,-249.6 
	26.8,-249.6 26.8,-182.1 42.9,-182.1 42.9,-105.2 42.7,-105 26.8,-89.1 "/>
<path fill="#E6E6E6" d="M26.2-247.1c1.4,0,2.5-1.1,2.5-2.5s-1.1-2.5-2.5-2.5s-2.5,1.1-2.5,2.5C23.7-248.2,24.8-247.1,26.2-247.1"/>
<path fill="#E6E6E6" d="M26.2,13c1.4,0,2.5-1.1,2.5-2.5S27.6,8,26.2,8s-2.5,1.1-2.5,2.5S24.8,13,26.2,13"/>
<polygon fill="#E6E6E6" points="16.8,-12.5 15.5,-12.5 15.5,-91.8 15.7,-92 33.6,-109.9 33.6,-174.1 15.5,-174.1 15.5,-237.7 
	16.8,-237.7 16.8,-175.4 34.9,-175.4 34.9,-109.4 34.7,-109.2 16.8,-91.3 "/>
<path fill="#E6E6E6" d="M16.2-235.2c1.4,0,2.5-1.1,2.5-2.5s-1.1-2.5-2.5-2.5s-2.5,1.1-2.5,2.5C13.7-236.4,14.8-235.2,16.2-235.2"/>
<path fill="#E6E6E6" d="M16.2-10c1.4,0,2.5-1.1,2.5-2.5S17.6-15,16.2-15s-2.5,1.1-2.5,2.5S14.8-10,16.2-10"/>
<polygon fill="#E6E6E6" points="5.8,-62.1 4.5,-62.1 4.5,-95.3 4.7,-95.5 25,-115.9 25,-165.6 4.5,-165.6 4.5,-220 5.8,-220 
	5.8,-166.9 26.3,-166.9 26.3,-115.4 26.1,-115.2 5.8,-94.8 "/>
<path fill="#E6E6E6" d="M5.2-217.4c1.4,0,2.5-1.1,2.5-2.5c0-1.4-1.1-2.5-2.5-2.5s-2.5,1.1-2.5,2.5C2.7-218.5,3.8-217.4,5.2-217.4"/>
<path fill="#E6E6E6" d="M5.2-59.6c1.4,0,2.5-1.1,2.5-2.5c0-1.4-1.1-2.5-2.5-2.5s-2.5,1.1-2.5,2.5C2.7-60.7,3.8-59.6,5.2-59.6"/>
<polygon fill="#E6E6E6" points="-14.2,-76.1 -15.5,-76.1 -15.5,-102.4 -27.5,-114.4 -27.5,-167.8 -27.3,-168 -10.5,-184.8 
	-10.5,-208.8 -9.2,-208.8 -9.2,-184.3 -9.4,-184.1 -26.2,-167.3 -26.2,-114.9 -14.2,-102.9 "/>
<path fill="#E6E6E6" d="M-9.8-206.3c1.4,0,2.5-1.1,2.5-2.5c0-1.4-1.1-2.5-2.5-2.5s-2.5,1.1-2.5,2.5
	C-12.3-207.4-11.2-206.3-9.8-206.3"/>
<path fill="#E6E6E6" d="M-14.8-73.6c1.4,0,2.5-1.1,2.5-2.5s-1.1-2.5-2.5-2.5s-2.5,1.1-2.5,2.5S-16.2-73.6-14.8-73.6"/>
<polygon fill="#E6E6E6" points="61.1,-164.3 59.9,-164.3 59.9,-240 42.3,-257.6 42.3,-312.5 43.5,-312.5 43.5,-258.1 61.1,-240.5 
	"/>
<path fill="#E6E6E6" d="M42.9-310c1.4,0,2.5-1.1,2.5-2.5s-1.1-2.5-2.5-2.5c-1.4,0-2.5,1.1-2.5,2.5S41.5-310,42.9-310"/>
<path fill="#E6E6E6" d="M60.5-161.8c1.4,0,2.5-1.1,2.5-2.5s-1.1-2.5-2.5-2.5c-1.4,0-2.5,1.1-2.5,2.5C58-162.9,59.1-161.8,60.5-161.8
	"/>
<polygon fill="#E6E6E6" points="79.8,-171.1 67.6,-171.1 67.6,-224.4 68.9,-224.4 68.9,-172.4 79.8,-172.4 "/>
<path fill="#E6E6E6" d="M68.3-221.9c1.4,0,2.5-1.1,2.5-2.5s-1.1-2.5-2.5-2.5s-2.5,1.1-2.5,2.5C65.8-223,66.9-221.9,68.3-221.9"/>
<path fill="#E6E6E6" d="M79.8-169.3c1.4,0,2.5-1.1,2.5-2.5s-1.1-2.5-2.5-2.5c-1.4,0-2.5,1.1-2.5,2.5
	C77.3-170.4,78.4-169.3,79.8-169.3"/>
<polygon fill="#E6E6E6" points="92.9,-179.9 75.4,-179.9 75.4,-243.4 76.6,-243.4 76.6,-181.1 92.9,-181.1 "/>
<path fill="#E6E6E6" d="M76-240.9c1.4,0,2.5-1.1,2.5-2.5s-1.1-2.5-2.5-2.5c-1.4,0-2.5,1.1-2.5,2.5C73.5-242,74.6-240.9,76-240.9"/>
<path fill="#E6E6E6" d="M92.9-178c1.4,0,2.5-1.1,2.5-2.5c0-1.4-1.1-2.5-2.5-2.5c-1.4,0-2.5,1.1-2.5,2.5
	C90.4-179.1,91.5-178,92.9-178"/>
<polygon fill="#E6E6E6" points="46.7,25.1 45.5,25.1 45.5,-6.1 45.7,-6.2 59.6,-20.2 59.6,-154.3 101.7,-154.3 101.7,-226.4 
	103,-226.4 103,-153 60.9,-153 60.9,-19.7 60.7,-19.5 46.7,-5.5 "/>
<path fill="#E6E6E6" d="M102.4-223.9c1.4,0,2.5-1.1,2.5-2.5s-1.1-2.5-2.5-2.5s-2.5,1.1-2.5,2.5C99.9-225,101-223.9,102.4-223.9"/>
<path fill="#E6E6E6" d="M46.1,27.6c1.4,0,2.5-1.1,2.5-2.5s-1.1-2.5-2.5-2.5c-1.4,0-2.5,1.1-2.5,2.5S44.7,27.6,46.1,27.6"/>
<polygon fill="#E6E6E6" points="86.8,-8.3 85.6,-8.3 85.6,-27.1 67.4,-45.4 67.4,-147.3 109.6,-147.3 109.6,-209.4 110.9,-209.4 
	110.9,-146 68.6,-146 68.6,-45.9 86.8,-27.6 "/>
<path fill="#E6E6E6" d="M110.2-206.9c1.4,0,2.5-1.1,2.5-2.5s-1.1-2.5-2.5-2.5s-2.5,1.1-2.5,2.5S108.9-206.9,110.2-206.9"/>
<path fill="#E6E6E6" d="M86.2-5.8c1.4,0,2.5-1.1,2.5-2.5s-1.1-2.5-2.5-2.5s-2.5,1.1-2.5,2.5S84.8-5.8,86.2-5.8"/>
<polygon fill="#E6E6E6" points="116.8,15.5 115.6,15.5 115.6,-29.6 115.7,-29.8 131.7,-45.9 131.7,-100.4 116.7,-100.4 
	116.7,-200.3 118,-200.3 118,-101.8 133,-101.8 133,-45.4 132.8,-45.2 116.8,-29.1 "/>
<path fill="#E6E6E6" d="M117.4-197.8c1.4,0,2.5-1.1,2.5-2.5s-1.1-2.5-2.5-2.5c-1.4,0-2.5,1.1-2.5,2.5
	C114.9-198.9,116-197.8,117.4-197.8"/>
<path fill="#E6E6E6" d="M116.2,18.1c1.4,0,2.5-1.1,2.5-2.5c0-1.4-1.1-2.5-2.5-2.5s-2.5,1.1-2.5,2.5C113.7,17,114.8,18.1,116.2,18.1"
	/>
<polygon fill="#E6E6E6" points="221.3,112.3 204.1,112.3 203.9,112.1 128.7,36.9 128.7,-25.2 128.9,-25.4 146.7,-43.3 146.7,-114 
	133.7,-114 133.7,-239.6 116.7,-256.6 116.7,-297.5 118,-297.5 118,-257.1 135,-240.1 135,-115.3 148,-115.3 148,-42.8 147.8,-42.6 
	130,-24.7 130,36.4 204.6,111 221.3,111 "/>
<path fill="#E6E6E6" d="M117.4-295c1.4,0,2.5-1.1,2.5-2.5s-1.1-2.5-2.5-2.5c-1.4,0-2.5,1.1-2.5,2.5S116-295,117.4-295"/>
<polygon fill="#E6E6E6" points="162.1,-137.4 160.8,-137.4 160.8,-240.6 139.7,-261.6 139.7,-323.5 141,-323.5 141,-262.1 
	162.1,-241.1 "/>
<path fill="#E6E6E6" d="M140.4-321c1.4,0,2.5-1.1,2.5-2.5c0-1.4-1.1-2.5-2.5-2.5s-2.5,1.1-2.5,2.5C137.9-322.1,139-321,140.4-321"/>
<path fill="#E6E6E6" d="M161.5-134.9c1.4,0,2.5-1.1,2.5-2.5s-1.1-2.5-2.5-2.5s-2.5,1.1-2.5,2.5C159-136,160.1-134.9,161.5-134.9"/>
<polygon fill="#E6E6E6" points="178.2,-129.7 177,-129.7 177,-188.4 167.8,-197.5 167.8,-231.4 169.1,-231.4 169.1,-198 
	178.2,-188.9 "/>
<path fill="#E6E6E6" d="M168.5-228.9c1.4,0,2.5-1.1,2.5-2.5s-1.1-2.5-2.5-2.5s-2.5,1.1-2.5,2.5C166-230,167.1-228.9,168.5-228.9"/>
<path fill="#E6E6E6" d="M177.6-127.2c1.4,0,2.5-1.1,2.5-2.5c0-1.4-1.1-2.5-2.5-2.5c-1.4,0-2.5,1.1-2.5,2.5S176.2-127.2,177.6-127.2"
	/>
<polygon fill="#E6E6E6" points="206.1,-65.4 185.8,-65.4 185.8,-107 197.1,-107 197.1,-82.6 195.8,-82.6 195.8,-105.8 187.1,-105.8 
	187.1,-66.7 204.8,-66.7 204.8,-119.9 185.8,-119.9 185.8,-226.5 200,-226.5 200,-225.2 187.1,-225.2 187.1,-121.1 206.1,-121.1 "/>
<path fill="#E6E6E6" d="M196.5-80.1c1.4,0,2.5-1.1,2.5-2.5c0-1.4-1.1-2.5-2.5-2.5S194-84,194-82.6C194-81.2,195.1-80.1,196.5-80.1"
	/>
<path fill="#E6E6E6" d="M200-223.4c1.4,0,2.5-1.1,2.5-2.5s-1.1-2.5-2.5-2.5c-1.4,0-2.5,1.1-2.5,2.5
	C197.5-224.5,198.6-223.4,200-223.4"/>
<polygon fill="#E6E6E6" points="221.2,-103.9 219.9,-103.9 219.9,-140.5 205.3,-140.5 205.3,-212.3 206.6,-212.3 206.6,-141.8 
	221.2,-141.8 "/>
<path fill="#E6E6E6" d="M206-209.8c1.4,0,2.5-1.1,2.5-2.5s-1.1-2.5-2.5-2.5s-2.5,1.1-2.5,2.5C203.5-210.9,204.6-209.8,206-209.8"/>
<path fill="#E6E6E6" d="M220.6-101.4c1.4,0,2.5-1.1,2.5-2.5c0-1.4-1.1-2.5-2.5-2.5s-2.5,1.1-2.5,2.5
	C218.1-102.5,219.2-101.4,220.6-101.4"/>
<polygon fill="#E6E6E6" points="229.2,-115.2 227.9,-115.2 227.9,-147.5 212.6,-147.5 212.6,-199.3 213.8,-199.3 213.8,-148.8 
	229.2,-148.8 "/>
<path fill="#E6E6E6" d="M213.2-196.8c1.4,0,2.5-1.1,2.5-2.5s-1.1-2.5-2.5-2.5s-2.5,1.1-2.5,2.5C210.7-197.9,211.8-196.8,213.2-196.8
	"/>
<path fill="#E6E6E6" d="M228.6-112.7c1.4,0,2.5-1.1,2.5-2.5s-1.1-2.5-2.5-2.5s-2.5,1.1-2.5,2.5S227.2-112.7,228.6-112.7"/>
<polygon fill="#E6E6E6" points="238.1,-46.9 227.2,-46.9 227.2,-82.3 227.4,-82.5 243.9,-99 243.9,-163.6 227.2,-163.6 
	227.2,-277.5 240.1,-277.5 240.1,-276.2 228.5,-276.2 228.5,-164.9 245.2,-164.9 245.2,-98.5 245,-98.3 228.5,-81.8 228.5,-48.2 
	238.1,-48.2 "/>
<path fill="#E6E6E6" d="M238.1-45.1c1.4,0,2.5-1.1,2.5-2.5c0-1.4-1.1-2.5-2.5-2.5c-1.4,0-2.5,1.1-2.5,2.5
	C235.6-46.2,236.7-45.1,238.1-45.1"/>
<path fill="#E6E6E6" d="M240.1-274.4c1.4,0,2.5-1.1,2.5-2.5s-1.1-2.5-2.5-2.5s-2.5,1.1-2.5,2.5S238.7-274.4,240.1-274.4"/>
<polygon fill="#E6E6E6" points="249.1,-57.2 233.9,-57.2 233.9,-76.8 234.1,-77 253.9,-96.8 253.9,-172.1 233.9,-172.1 
	233.9,-230.6 249.1,-230.6 249.1,-229.4 235.2,-229.4 235.2,-173.4 255.2,-173.4 255.2,-96.3 255,-96.1 235.2,-76.3 235.2,-58.4 
	249.1,-58.4 "/>
<path fill="#E6E6E6" d="M249.1-227.5c1.4,0,2.5-1.1,2.5-2.5s-1.1-2.5-2.5-2.5c-1.4,0-2.5,1.1-2.5,2.5S247.7-227.5,249.1-227.5"/>
<path fill="#E6E6E6" d="M249.1-55.3c1.4,0,2.5-1.1,2.5-2.5c0-1.4-1.1-2.5-2.5-2.5c-1.4,0-2.5,1.1-2.5,2.5
	C246.6-56.4,247.7-55.3,249.1-55.3"/>
<rect x="-20.5" y="-254.4" fill="#E6E6E6" width="1.2" height="57.1"/>
<path fill="#E6E6E6" d="M-19.8-251.9c1.4,0,2.5-1.1,2.5-2.5c0-1.4-1.1-2.5-2.5-2.5s-2.5,1.1-2.5,2.5
	C-22.3-253-21.2-251.9-19.8-251.9"/>
<path fill="#E6E6E6" d="M-19.8-194.8c1.4,0,2.5-1.1,2.5-2.5s-1.1-2.5-2.5-2.5s-2.5,1.1-2.5,2.5C-22.3-195.9-21.2-194.8-19.8-194.8"
	/>
<polygon fill="#E6E6E6" points="-36.3,-126.2 -37.6,-126.2 -37.6,-177.8 -30.6,-184.8 -30.6,-238.7 -29.3,-238.7 -29.3,-184.3 
	-36.3,-177.3 "/>
<path fill="#E6E6E6" d="M-29.9-236.2c1.4,0,2.5-1.1,2.5-2.5c0-1.4-1.1-2.5-2.5-2.5s-2.5,1.1-2.5,2.5
	C-32.4-237.4-31.3-236.2-29.9-236.2"/>
<path fill="#E6E6E6" d="M-36.9-123.7c1.4,0,2.5-1.1,2.5-2.5c0-1.4-1.1-2.5-2.5-2.5c-1.4,0-2.5,1.1-2.5,2.5
	C-39.4-124.8-38.3-123.7-36.9-123.7"/>
<polygon fill="#E6E6E6" points="11,-137.8 -11.5,-137.8 -11.5,-170.5 -2.2,-179.8 -2.2,-258.4 -1,-258.4 -1,-179.3 -10.2,-170 
	-10.2,-139 11,-139 "/>
<path fill="#E6E6E6" d="M11-135.9c1.4,0,2.5-1.1,2.5-2.5s-1.1-2.5-2.5-2.5s-2.5,1.1-2.5,2.5C8.5-137,9.6-135.9,11-135.9"/>
<path fill="#E6E6E6" d="M-1.6-255.9c1.4,0,2.5-1.1,2.5-2.5s-1.1-2.5-2.5-2.5s-2.5,1.1-2.5,2.5S-3-255.9-1.6-255.9"/>
<polyline fill="none" stroke="#CCCCCC" stroke-miterlimit="10" points="160.8,209 170.8,209 222.1,157.7 "/>
</svg>
