<svg version="1.1" xmlns="http://www.w3.org/2000/svg" id="Layer_1"  xmlns:xlink="http://www.w3.org/1999/xlink" x="0px" y="0px"
	 viewBox="366.5 0 291 285" enable-background="new 366.5 0 291 285" xml:space="preserve">
<g id="computer_x5F_chip_x5F_loading_x5F_SM">
	<path fill="#E6E6E6" d="M620.3,86.1h29.9c4,0,7.3,4.4,7.3,9.8c0,5.4-3.3,9.8-7.3,9.8h-29.9"/>
	<path fill="#E6E6E6" d="M620.3,135.8h29.9c4,0,7.3,4.4,7.3,9.8s-3.3,9.8-7.3,9.8h-29.9"/>
	<path fill="#E6E6E6" d="M620.3,185.5h29.9c4,0,7.3,4.4,7.3,9.8s-3.3,9.8-7.3,9.8h-29.9"/>
	<path fill="#E6E6E6" d="M453.5,37.8V7.4c0-4.1,4.3-7.4,9.6-7.4s9.6,3.3,9.6,7.4v30.4"/>
	<path fill="#E6E6E6" d="M502.3,37.8V7.4c0-4.1,4.3-7.4,9.6-7.4s9.6,3.3,9.6,7.4v30.4"/>
	<path fill="#E6E6E6" d="M551.2,37.8V7.4c0-4.1,4.3-7.4,9.6-7.4s9.6,3.3,9.6,7.4v30.4"/>
	<path fill="#E6E6E6" d="M472.8,247.2v30.4c0,4.1-4.3,7.4-9.6,7.4c-5.3,0-9.6-3.3-9.6-7.4v-30.4"/>
	<path fill="#E6E6E6" d="M521.6,247.2v30.4c0,4.1-4.3,7.4-9.6,7.4s-9.6-3.3-9.6-7.4v-30.4"/>
	<path fill="#E6E6E6" d="M570.5,247.2v30.4c0,4.1-4.3,7.4-9.6,7.4c-5.3,0-9.6-3.3-9.6-7.4v-30.4"/>
	<path fill="#E6E6E6" d="M403.7,105.7h-29.9c-4,0-7.3-4.4-7.3-9.8s3.3-9.8,7.3-9.8h29.9"/>
	<path fill="#E6E6E6" d="M403.7,155.4h-29.9c-4,0-7.3-4.4-7.3-9.8c0-5.4,3.3-9.8,7.3-9.8h29.9"/>
	<path fill="#E6E6E6" d="M403.7,205.1h-29.9c-4,0-7.3-4.4-7.3-9.8s3.3-9.8,7.3-9.8h29.9"/>
	<path fill="#E6E6E6" d="M581.4,84.3c0-4.6-3.1-8.3-6.8-8.3H449.4c-3.7,0-6.8,3.7-6.8,8.3v117.5c0,4.6,3.1,8.3,6.8,8.3h125.2
		c3.7,0,6.8-3.7,6.8-8.3L581.4,84.3L581.4,84.3z M615.7,230.9c0,6.8-4.6,12.4-10.1,12.4H418.5c-5.6,0-10.1-5.6-10.1-12.4V55.3
		c0-6.8,4.6-12.4,10.1-12.4h187.1c5.6,0,10.1,5.6,10.1,12.4L615.7,230.9L615.7,230.9z"/>
	<line fill="none" x1="561.1" y1="142.8" x2="546.5" y2="142.7"/>
	<path fill="#D0D2D3" d="M543.1,148.3c-1.9-1.2-3.2-3.2-3.1-5.6c0-3.6,3-6.5,6.6-6.5l14.6,0.1c3.6,0,6.5,3,6.5,6.6
		c0,3.6-3,6.5-6.6,6.5l-14.6-0.1C545.2,149.2,544.1,148.9,543.1,148.3z"/>
	<line fill="none" x1="554.7" y1="118.2" x2="542" y2="125.4"/>
	<path fill="#D0D2D3" d="M538.6,131c-0.9-0.6-1.7-1.3-2.3-2.3c-1.8-3.1-0.7-7.1,2.4-8.9l12.7-7.2c3.1-1.8,7.1-0.7,8.9,2.4
		c1.8,3.1,0.7,7.1-2.4,8.9l-12.7,7.2C543.1,132.3,540.6,132.2,538.6,131z"/>
	<line fill="none" x1="536.8" y1="100.2" x2="529.5" y2="112.7"/>
	<path fill="#58595B" d="M526.1,118.3c-3-1.8-4-5.8-2.2-8.9l7.4-12.6c1.8-3.1,5.8-4.1,8.9-2.3c0,0,0.1,0,0.1,0c3,1.8,4,5.8,2.2,8.9
		l-7.4,12.6C533.2,119.1,529.3,120.2,526.1,118.3C526.1,118.3,526.1,118.3,526.1,118.3z"/>
	<line fill="none" x1="512.3" y1="93.4" x2="512.2" y2="108"/>
	<path fill="#6D6E70" d="M508.9,113.6c-1.9-1.1-3.2-3.2-3.1-5.6l0.1-14.6c0-3.6,3-6.5,6.6-6.5c3.6,0,6.5,3,6.5,6.6l-0.1,14.6
		c0,3.6-3,6.5-6.6,6.5C511,114.5,509.8,114.1,508.9,113.6z"/>
	<line fill="none" x1="487.7" y1="99.8" x2="494.9" y2="112.5"/>
	<path fill="#808184" d="M491.6,118.1c-0.9-0.6-1.7-1.3-2.3-2.3l-7.2-12.7c-1.8-3.1-0.7-7.1,2.4-8.9c3.1-1.8,7.1-0.7,8.9,2.4
		l7.2,12.7c1.8,3.1,0.7,7.1-2.4,8.9C496,119.4,493.5,119.2,491.6,118.1z"/>
	<line fill="none" x1="469.7" y1="117.7" x2="482.2" y2="125"/>
	<path fill="#929497" d="M466.3,123.2c-3-1.8-4-5.8-2.2-8.9c1.8-3.1,5.8-4.1,8.9-2.3l12.6,7.4c3.1,1.8,4.1,5.8,2.3,8.9
		c-1.8,3.1-5.8,4.1-8.9,2.3L466.3,123.2C466.3,123.3,466.3,123.3,466.3,123.2z"/>
	<line fill="none" x1="462.9" y1="142.2" x2="477.5" y2="142.3"/>
	<path fill="#A6A8AB" d="M459.5,147.7c-1.9-1.1-3.2-3.2-3.1-5.6c0-3.6,3-6.5,6.6-6.5l14.6,0.1c3.6,0,6.5,3,6.5,6.6
		c0,3.6-3,6.5-6.6,6.5l-14.6-0.1C461.7,148.7,460.5,148.3,459.5,147.7z"/>
	<line fill="none" x1="469.3" y1="166.8" x2="482" y2="159.6"/>
	<path fill="#BBBDBF" d="M465.9,172.3c-0.9-0.6-1.7-1.3-2.3-2.3c-1.8-3.1-0.7-7.1,2.4-8.9l12.7-7.2c3.1-1.8,7.1-0.7,8.9,2.4
		c1.8,3.1,0.7,7.1-2.4,8.9l-12.7,7.2C470.4,173.6,467.9,173.5,465.9,172.3z"/>
	<line fill="none" x1="487.2" y1="184.8" x2="494.5" y2="172.3"/>
	<path fill="#D0D2D3" d="M483.8,190.4c-3-1.8-4-5.8-2.2-8.9l7.4-12.6c1.8-3.1,5.8-4.1,8.9-2.3c3.1,1.8,4.1,5.8,2.3,8.9l-7.4,12.6
		C491,191.2,487,192.3,483.8,190.4C483.8,190.4,483.8,190.4,483.8,190.4z"/>
	<line fill="none" x1="511.7" y1="191.6" x2="511.8" y2="177"/>
	<path fill="#D0D2D3" d="M508.3,197.2c-1.9-1.2-3.2-3.2-3.1-5.6l0.1-14.6c0-3.6,3-6.5,6.6-6.5c3.6,0,6.5,3,6.5,6.6l-0.1,14.6
		c0,3.6-3,6.5-6.6,6.5C510.4,198.1,509.3,197.7,508.3,197.2z"/>
	<path fill="#D0D2D3" d="M532.9,190.7c-0.9-0.6-1.7-1.3-2.3-2.3l-7.2-12.7c-1.8-3.1-0.7-7.1,2.4-8.9c3.1-1.8,7.1-0.7,8.9,2.4
		l7.2,12.7c1.8,3.1,0.7,7.1-2.4,8.9C537.3,192,534.8,191.9,532.9,190.7z"/>
	<line fill="none" x1="554.3" y1="167.3" x2="541.8" y2="160"/>
	<path fill="#D0D2D3" d="M538.4,165.5c-3-1.8-4-5.8-2.2-8.9c1.8-3.1,5.8-4.1,8.9-2.3l12.6,7.4c3.1,1.8,4.1,5.8,2.3,8.9
		c-1.8,3.1-5.8,4.1-8.9,2.3L538.4,165.5C538.5,165.6,538.4,165.5,538.4,165.5z"/>
</g>
<g id="Layer_1_1_">
</g>
</svg>
