<?xml version="1.0" encoding="utf-8"?>
<!-- Generator: Adobe Illustrator 18.1.0, SVG Export Plug-In . SVG Version: 6.00 Build 0)  -->
<svg version="1.1" id="Layer_1" xmlns="http://www.w3.org/2000/svg" xmlns:xlink="http://www.w3.org/1999/xlink" x="0px" y="0px"
	 viewBox="0 0 400 200" enable-background="new 0 0 400 200" xml:space="preserve">
<path fill="#E6E6E6" d="M179,60.4h21c2.8,0,5.1,3.1,5.1,6.9s-2.3,6.9-5.1,6.9h-21"/>
<path fill="#E6E6E6" d="M179,95.3h21c2.8,0,5.1,3.1,5.1,6.9c0,3.8-2.3,6.9-5.1,6.9h-21"/>
<path fill="#E6E6E6" d="M179,130.2h21c2.8,0,5.1,3.1,5.1,6.9s-2.3,6.9-5.1,6.9h-21"/>
<path fill="#E6E6E6" d="M62,26.5V5.2C62,2.3,65,0,68.7,0c3.7,0,6.7,2.3,6.7,5.2v21.3"/>
<path fill="#E6E6E6" d="M96.2,26.5V5.2c0-2.9,3-5.2,6.7-5.2c3.7,0,6.7,2.3,6.7,5.2v21.3"/>
<path fill="#E6E6E6" d="M130.5,26.5V5.2c0-2.9,3-5.2,6.7-5.2s6.7,2.3,6.7,5.2v21.3"/>
<path fill="#E6E6E6" d="M75.5,173.5v21.3c0,2.9-3,5.2-6.7,5.2c-3.7,0-6.7-2.3-6.7-5.2v-21.3"/>
<path fill="#E6E6E6" d="M109.8,173.5v21.3c0,2.9-3,5.2-6.7,5.2c-3.7,0-6.7-2.3-6.7-5.2v-21.3"/>
<path fill="#E6E6E6" d="M144,173.5v21.3c0,2.9-3,5.2-6.7,5.2c-3.7,0-6.7-2.3-6.7-5.2v-21.3"/>
<path fill="#E6E6E6" d="M151.6,59.2c0-3.2-2.2-5.8-4.8-5.8H59c-2.6,0-4.8,2.6-4.8,5.8v82.5c0,3.2,2.2,5.8,4.8,5.8h87.9
	c2.6,0,4.8-2.6,4.8-5.8V59.2z M175.7,162c0,4.8-3.2,8.7-7.1,8.7H37.3c-3.9,0-7.1-3.9-7.1-8.7V38.8c0-4.8,3.2-8.7,7.1-8.7h131.3
	c3.9,0,7.1,3.9,7.1,8.7V162z"/>
<path fill="#E6E6E6" d="M83.1,69.2h39.7v7.3c0,9.5-5.6,17.7-13.7,21.5c-0.8,0.4-1.3,1.1-1.3,2c0,0.9,0.5,1.6,1.3,2
	c8.1,3.8,13.7,12,13.7,21.5v7.3H83.1v-7.3c0-9.5,5.6-17.7,13.7-21.5c0.8-0.4,1.3-1.1,1.3-2s-0.5-1.6-1.3-2
	c-8.1-3.8-13.7-12-13.7-21.5V69.2L83.1,69.2z M88.2,74.3h29.5v2.2c0,3.9-1.3,7.7-3.5,10.8H103H91.8c-2.2-3.1-3.5-6.9-3.5-10.8
	L88.2,74.3L88.2,74.3z M102.9,101.8c0.6,2.1,2,3.9,4,4.8c6.5,3,10.8,9.6,10.8,16.8v2.2h-1.2l-10.4-6.5c-2-1.3-4.4-1.3-6.4,0
	l-10.4,6.5h-1.2v-2.2c0-7.2,4.3-13.8,10.8-16.8C101,105.7,102.5,103.9,102.9,101.8L102.9,101.8z"/>
<path fill="#E6E6E6" d="M81.6,130.2h42.7c1.9,0,3.4,1.5,3.4,3.4v0.5c0,1.9-1.5,3.4-3.4,3.4H81.6c-1.9,0-3.4-1.5-3.4-3.4v-0.5
	C78.2,131.8,79.7,130.2,81.6,130.2L81.6,130.2z M81.6,62.5h42.7c1.9,0,3.4,1.5,3.4,3.4v0.5c0,1.9-1.5,3.4-3.4,3.4H81.6
	c-1.9,0-3.4-1.5-3.4-3.4v-0.5C78.2,64,79.7,62.5,81.6,62.5L81.6,62.5z"/>
<path fill="#E6E6E6" d="M26.1,143.9h-21c-2.8,0-5.1-3.1-5.1-6.9c0-3.8,2.3-6.9,5.1-6.9h21"/>
<path fill="#E6E6E6" d="M26.1,109.1h-21c-2.8,0-5.1-3.1-5.1-6.9c0-3.8,2.3-6.9,5.1-6.9h21"/>
<path fill="#E6E6E6" d="M26.1,74.2h-21c-2.8,0-5.1-3.1-5.1-6.9s2.3-6.9,5.1-6.9h21"/>
</svg>
