<svg version="1.1" xmlns="http://www.w3.org/2000/svg" id="Layer_1"  xmlns:xlink="http://www.w3.org/1999/xlink" x="0px" y="0px"
	 viewBox="322.6 0 292.2 285" enable-background="new 322.6 0 292.2 285" xml:space="preserve">
<path fill="#E6E6E6" d="M577.6,86.1h29.9c4,0,7.3,4.4,7.3,9.8c0,5.4-3.3,9.8-7.3,9.8h-29.9"/>
<path fill="#E6E6E6" d="M577.6,135.8h29.9c4,0,7.3,4.4,7.3,9.8c0,5.4-3.3,9.8-7.3,9.8h-29.9"/>
<path fill="#E6E6E6" d="M577.6,185.5h29.9c4,0,7.3,4.4,7.3,9.8c0,5.4-3.3,9.8-7.3,9.8h-29.9"/>
<path fill="#E6E6E6" d="M410.8,37.8V7.4c0-4.1,4.3-7.4,9.6-7.4c5.3,0,9.6,3.3,9.6,7.4v30.4"/>
<path fill="#E6E6E6" d="M459.6,37.8V7.4c0-4.1,4.3-7.4,9.6-7.4s9.6,3.3,9.6,7.4v30.4"/>
<path fill="#E6E6E6" d="M508.4,37.8V7.4c0-4.1,4.3-7.4,9.6-7.4s9.6,3.3,9.6,7.4v30.4"/>
<path fill="#E6E6E6" d="M430.1,247.2v30.4c0,4.1-4.3,7.4-9.6,7.4c-5.3,0-9.6-3.3-9.6-7.4v-30.4"/>
<path fill="#E6E6E6" d="M478.9,247.2v30.4c0,4.1-4.3,7.4-9.6,7.4c-5.3,0-9.6-3.3-9.6-7.4v-30.4"/>
<path fill="#E6E6E6" d="M527.7,247.2v30.4c0,4.1-4.3,7.4-9.6,7.4c-5.3,0-9.6-3.3-9.6-7.4v-30.4"/>
<path fill="#E6E6E6" d="M538.6,84.3c0-4.6-3.1-8.3-6.8-8.3H406.6c-3.7,0-6.8,3.7-6.8,8.3v117.5c0,4.6,3.1,8.3,6.8,8.3h125.2
	c3.7,0,6.8-3.7,6.8-8.3V84.3z M572.9,230.9c0,6.8-4.6,12.4-10.1,12.4H375.7c-5.6,0-10.1-5.6-10.1-12.4V55.3
	c0-6.8,4.6-12.4,10.1-12.4h187.1c5.6,0,10.1,5.6,10.1,12.4V230.9z"/>
<path fill="#E6E6E6" d="M440.9,98.6h56.6V109c0,13.5-8,25.2-19.5,30.6c-1.1,0.5-1.8,1.6-1.8,2.9c0,1.3,0.7,2.3,1.8,2.9
	c11.5,5.4,19.5,17.1,19.5,30.6v10.4h-56.6V176c0-13.5,8-25.2,19.5-30.6c1.1-0.5,1.8-1.6,1.8-2.9s-0.7-2.3-1.8-2.9
	c-11.5-5.4-19.5-17.1-19.5-30.6V98.6L440.9,98.6z M448.2,105.9h42.1v3.2c0,5.6-1.8,11-5,15.4h-16h-16c-3.2-4.4-5-9.8-5-15.4V105.9
	L448.2,105.9z M469.2,145.1c0.8,3,2.8,5.5,5.7,6.8c9.3,4.3,15.4,13.7,15.4,24v3.2h-1.7l-14.8-9.2c-2.9-1.8-6.2-1.8-9.1,0l-14.8,9.2
	h-1.7V176c0-10.3,6.1-19.7,15.4-24C466.4,150.6,468.5,148.1,469.2,145.1L469.2,145.1z"/>
<path fill="#E6E6E6" d="M438.8,185.6h60.8c2.7,0,4.8,2.2,4.8,4.8v0.7c0,2.7-2.2,4.8-4.8,4.8h-60.8c-2.7,0-4.8-2.2-4.8-4.8v-0.7
	C434,187.8,436.1,185.6,438.8,185.6L438.8,185.6z M438.8,89.1h60.8c2.7,0,4.8,2.2,4.8,4.8v0.7c0,2.7-2.2,4.8-4.8,4.8h-60.8
	c-2.7,0-4.8-2.2-4.8-4.8v-0.7C434,91.2,436.1,89.1,438.8,89.1L438.8,89.1z"/>
<path fill="#E6E6E6" d="M359.7,205.1h-29.9c-4,0-7.3-4.4-7.3-9.8c0-5.4,3.3-9.8,7.3-9.8h29.9"/>
<path fill="#E6E6E6" d="M359.7,155.4h-29.9c-4,0-7.3-4.4-7.3-9.8s3.3-9.8,7.3-9.8h29.9"/>
<path fill="#E6E6E6" d="M359.7,105.7h-29.9c-4,0-7.3-4.4-7.3-9.8c0-5.4,3.3-9.8,7.3-9.8h29.9"/>
</svg>
