<?xml version="1.0" encoding="utf-8"?>
<!-- Generator: Adobe Illustrator 18.1.0, SVG Export Plug-In . SVG Version: 6.00 Build 0)  -->
<svg version="1.1" id="Layer_1" xmlns="http://www.w3.org/2000/svg" xmlns:xlink="http://www.w3.org/1999/xlink" x="0px" y="0px"
	 width="200px" height="200px" viewBox="-411 0 200 200" enable-background="new -411 0 200 200" xml:space="preserve">
<path fill="#DE7226" d="M-346.4,150.5c27.2,19.6,65.1,13.4,84.7-13.8c19.6-27.2,13.4-65.1-13.8-84.7c-27.2-19.6-65.1-13.4-84.7,13.8
	C-379.8,93-373.6,130.9-346.4,150.5"/>
<polygon fill="#DE7226" points="-311,179.4 -290,199.2 -279,172.6 -251.8,182.2 -252.5,153.3 -223.7,151 -236.1,125 -210.8,111.2 
	-232.7,92.4 -215.2,69.5 -242.8,61.3 -236.1,33.2 -264.7,36.9 -270,8.6 -294.6,23.6 -311,-0.1 -327.4,23.6 -352,8.6 -357.3,36.9 
	-385.9,33.2 -379.2,61.3 -406.8,69.5 -389.3,92.4 -411.2,111.2 -385.9,125 -398.3,151 -369.5,153.3 -370.2,182.2 -343,172.6 
	-332,199.2 "/>
<path fill="#FFFFFF" d="M-279.6,96c-1.1,0.8-2.4,1.5-3.7,1.9c-1.3,0.4-1.4,0.5-2.1,2.6c-1.3,3.8-4.9,6.1-8.8,6.5
	c-1.6,0.2-1.7,0.2-2.6,1.5c-0.2,0.3-0.5,0.6-0.7,0.9c-1.1,1.2-1.1,1.3-0.5,1.8c8.3,6.3,21.6-4.1,20-14.7
	C-278.2,95.1-278.2,95-279.6,96 M-297.6,107c0.5-1.1,1-1.3,2.2-1.4c3.8-0.1,7.5-2.2,8.8-5.9c0.8-2.6,0.9-2.7,2.7-3.2
	c1.2-0.3,2.6-1,3.6-1.8c1.5-1.2,1.9-2.2,2.3-4c0.8-3.6,0-8.5-2.6-11.2c-0.8-0.9-1.2-1.5-1.6-3.1c-1.1-4.3-6.3-8.1-10.6-8.6
	c-2.3-0.3-2.6-0.4-3.8-1.3c-4.1-3.2-10.8-4.2-15.5-1.8c-2,1-2.3,1.2-3.9,0.7c-5.1-1.8-11.8,0.8-14.3,5.6c-1.2,2.2-1.3,2.3-3.6,2.7
	c-4.6,0.7-7.6,3.6-7.6,8.3c0,1.9-0.1,2.1-1.1,3.7c-5.8,9.1,4,20.6,17.1,16.8c1.2-0.4,1.3-0.6,1.5-1.6c0.1-0.9,0-1.1-1.3-0.9
	c-2.9,0.5-6.2-0.2-8.1-2.6c-0.4-0.5-0.2-0.4-1.9-0.7c-2.5-0.4-4.6-3.1-4-5.7c0.3-1.3,0.3-1.3,0.1-1.9c-1.1-3.9,2.4-7.8,6.4-7.1
	c0.8,0.1,0.9,0.1,1-0.9c0.1-3.1,2.4-5.6,5.4-6.2c0.9-0.2,1-0.3,1.8-1.3c2.4-2.8,8.2-3.1,10.4-0.1c0.6,0.8,0.8,0.9,1.5,1.1
	c0.6,0.1,0.7,0.1,1.1-0.7c1.9-3.4,6.7-5.1,10.2-3.5c1.2,0.5,1.3,0.5,1.9,0.3c3.9-0.9,8.8,1.5,10.3,5.2c0.4,1,0.5,1.2,1.5,1.7
	c3.1,1.4,4.5,5.2,2.3,8c-0.6,0.8-0.7,0.9-0.6,1.7c0.3,3.1-2.9,4.9-5.7,4.8c-1.3-0.1-1.5-0.1-2.1,0.2c-2.6,1.3-6.4,1.4-8.7-0.5
	c-0.7-0.6-0.8-0.5-1.7-0.1c-2.4,1.2-7.2,1.9-9.2-0.4c-0.6-0.7,0.5-1.6,1.1-0.9c1.5,1.7,5.9,0.9,7.7-0.1c1.3-0.8,1.5-0.8,2.9,0.3
	c1.8,1.6,5.1,1.5,7.2,0.4c0.9-0.5,1.1-0.5,2.6-0.4c2,0.2,4.8-1.1,4.4-3.5c-0.2-1.1-0.2-1.3,0.8-2.3c1.9-2.1,0.6-5.1-1.8-6.2
	c-1.1-0.5-1.4-0.8-2-2.3c-1.3-3.1-5.5-5.1-8.7-4.4c-1.3,0.3-1.4,0.1-2.7-0.4c-2.9-1.3-7,0.2-8.5,3c-0.3,0.6-0.2,0.9,0.6,1.8
	c0.7,0.9,1.2,2.1,1.2,3.4c0,0.7,0.1,0.8,0.8,0.7c0.6,0,1.3,0,1.9,0.2c1,0.3,1.1,0.3,1.8-0.1c4.1-2.3,9.6-1.1,11.9,3.1
	c0.5,0.8-0.8,1.5-1.2,0.7c-2-3.5-6.6-4.5-10-2.6c-1.3,0.7-1.4,0.6-2.8,0.2c-1.9-0.5-4.3,0.3-5.5,1.9c-0.8,1.2-0.9,1.3-2.4,1.7
	c-3.7,1-5.7,5.4-4.6,8.9c0.5,1.4,1.4,2.5,2.7,3.3c1.2,0.7,1.3,1,1.7,2.3c1,2.6,4.1,3.3,6.5,2.5c1.7-0.6,1.7-0.5,3.4-0.2
	c1.6,0.3,3.6-0.2,5-1.1c1.4-0.9,1.7-1,3.1-0.9c2.3,0.1,5-1.8,4.6-4.3c-0.1-0.9,1.3-1.1,1.4-0.2c0.5,3.2-2.6,5.8-5.6,5.9
	c-1.6,0-2,0.2-2.9,0.8c-1.7,1.1-3.9,1.6-5.9,1.2c-1.3-0.2-1.5-0.2-2.9,0.2c-3.1,1-6.9,0-8.2-3.2c-0.4-1-0.5-1.2-1.4-1.8
	c-0.8-0.5-1.5-1.2-2-2c-0.8-1.1-0.9-1-1.5-0.4c-3.7,3.6-3,10,2.1,12.1c2,0.8,4.3,0.9,6.3,0.1c2-0.8,2.1-0.8,3.8,0.1
	c2.1,1.1,4.7,1.5,7,0.9C-299.5,109.4-298.3,108.6-297.6,107 M-296.7,113.6c-0.8-0.4-1.7-0.9-2.4-1.4c-0.9-0.7-1.2-0.8-2.7-0.6
	c-1.2,0.1-1.2,0.2-0.6,1.4c1.5,2.9,2.6,6,4.3,8.8c0.8,1.3,1,1.5,2.6,1.3c0.9-0.2,1.2-0.6,1.1-1.4c-0.6-2.5-0.9-4.3-1.1-6.3
	C-295.6,114.1-295.6,114-296.7,113.6 M-321,95.4c0.7-0.6,0.9-1.1,0.8-2.1c-0.3-3.8,2.1-7.8,5.9-8.9c0.9-0.3,1-0.2,1.6-1.1
	c0.5-0.7,1.2-1.3,2-1.8c0.9-0.5,0.9-0.7,0.9-1.6c-0.1-1.9-1.2-3.5-3-3.9c-1.5-0.4-1.6-0.4-2.2-1.4c-1.5-2.4-6.6-2.1-8.4,0.1
	c-1.1,1.3-1.2,1.4-2.6,1.7c-2.6,0.5-4.5,2.9-4.3,5.5c0.1,0.7,0.3,0.8,1.4,0.8c3.8-0.1,7.5,4.7,5.3,8.2c-2.2,3.5-6.8,2.2-9-0.8
	c-0.5-0.8,0.6-1.6,1.1-0.8c1.6,2.1,5,3.5,6.6,0.9c1.7-2.6-1.7-6.4-4.5-6c-1.4,0.2-1.5,0.2-2.4-0.2c-3.4-1.6-7,1.6-6,5
	c0.3,1,0.2,1.1-0.1,2.6c-0.4,1.7,1,3.6,2.7,3.9c2,0.4,2.2,0.3,2.7,0.9c1.7,2.4,5.1,3,7.8,2.2C-323.1,98.1-322.2,96.5-321,95.4"/>
<rect x="-379.8" y="129.4" fill="none" width="137.7" height="17.9"/>
<text transform="matrix(1 0 0 1 -343.1787 141.1367)" fill="#FFFFFF" font-family="'LubalinDemi'" font-size="15">Insights</text>
</svg>
