<svg version="1.1" xmlns="http://www.w3.org/2000/svg" id="Layer_1"  xmlns:xlink="http://www.w3.org/1999/xlink" x="0px" y="0px"
          viewBox="0 0 285 285" enable-background="new 0 0 285 285" xml:space="preserve">
          <path fill="#ffffff" d="M193.1,75.8L249,49.3l-31.8,53l62-1.4l-50.7,35.5l57.3,23.9L225,172l42.7,45l-60.4-14l20.8,58.4l-49.6-37.3
          l-4.8,61.7l-30.2-54.2L113.8,286l-5.6-61.7l-49.1,37.6l20-58.5l-60.3,14.3L61,172.4l-61-11.5l57-24.1L5.9,101.6l62,1.1L35.5,49.8
          L91.7,76l-8.2-61.4l40.8,46.8l17.5-59.3l18.3,59.2l40.2-47L193.1,75.8z"/>
          <path d="M204.7,148.6c-2.2,1.6-4.8,2.9-7.4,3.7c-2.5,0.7-2.7,0.9-4.2,5.2c-2.5,7.6-9.7,12.1-17.5,13c-3.1,0.4-3.5,0.4-5.2,3
          c-0.4,0.7-0.9,1.2-1.4,1.8c-2.3,2.3-2.2,2.6-0.9,3.6c16.5,12.5,43.1-8.1,39.9-29.4C207.4,146.8,207.4,146.5,204.7,148.6
          M168.8,170.6c1-2.2,2-2.7,4.3-2.7c7.7-0.1,15-4.3,17.5-11.9c1.7-5.1,1.8-5.5,5.5-6.3c2.5-0.6,5.1-2,7.1-3.5c3-2.3,3.9-4.3,4.6-7.9
          c1.5-7.2,0.1-16.9-5.2-22.3c-1.7-1.7-2.4-3.1-3.2-6.2c-2.2-8.5-12.6-16.1-21.1-17.2c-4.7-0.6-5.2-0.7-7.6-2.6
          c-8.2-6.4-21.4-8.4-30.9-3.5c-4,2.1-4.7,2.4-7.7,1.3c-10.1-3.6-23.5,1.6-28.6,11.1c-2.4,4.4-2.5,4.6-7.1,5.3
          c-9.1,1.4-15.2,7.1-15.2,16.6c0,3.8-0.2,4.1-2.3,7.3c-11.6,18.1,7.9,41,34.1,33.5c2.5-0.7,2.7-1.2,2.9-3.2c0.2-1.8,0-2.2-2.7-1.7
          c-5.9,1.1-12.3-0.3-16.2-5.1c-0.8-1-0.4-0.9-3.8-1.3c-5.1-0.7-9.2-6.2-7.9-11.3c0.6-2.6,0.6-2.7,0.3-3.9
          c-2.1-7.8,4.8-15.5,12.8-14.2c1.7,0.3,1.8,0.3,1.9-1.8c0.2-6.1,4.9-11.3,10.9-12.4c1.8-0.3,1.9-0.6,3.7-2.6
          c4.7-5.5,16.4-6.1,20.8-0.2c1.2,1.6,1.6,1.8,3.1,2.2c1.1,0.3,1.4,0.1,2.3-1.4c3.8-6.7,13.3-10.2,20.4-7c2.4,1.1,2.6,1,3.7,0.7
          c7.8-1.8,17.5,3,20.6,10.5c0.9,2.1,1.1,2.4,3.1,3.4c6.1,2.8,9,10.4,4.6,15.9c-1.3,1.6-1.4,1.8-1.2,3.5c0.5,6.2-5.9,9.9-11.4,9.6
          c-2.6-0.1-3-0.2-4.1,0.4c-5.1,2.6-12.7,2.7-17.3-1.1c-1.3-1.1-1.7-1-3.3-0.1c-4.8,2.5-14.4,3.7-18.3-0.7c-1.2-1.4,0.9-3.3,2.1-1.8
          c3,3.4,11.8,1.9,15.4-0.2c2.6-1.6,3-1.7,5.8,0.7c3.7,3.1,10.2,2.9,14.3,0.8c1.8-0.9,2.2-1,5.1-0.7c4.1,0.4,9.5-2.2,8.8-7
          c-0.4-2.2-0.3-2.6,1.5-4.6c3.9-4.2,1.3-10.3-3.7-12.3c-2.2-0.9-2.8-1.6-4-4.6c-2.5-6.2-10.9-10.2-17.4-8.7c-2.5,0.6-2.8,0.3-5.4-0.9
          c-5.8-2.7-13.9,0.3-17,5.9c-0.7,1.2-0.3,1.7,1.2,3.6c1.4,1.8,2.3,4.1,2.4,6.7c0.1,1.4,0.2,1.5,1.6,1.4c1.3-0.1,2.6,0.1,3.8,0.4
          c1.9,0.5,2.1,0.6,3.5-0.1c8.2-4.7,19-2.1,23.8,6.2c0.9,1.6-1.5,3-2.4,1.4c-4-7-13.1-9.1-20-5.1c-2.6,1.5-2.8,1.2-5.6,0.4
          c-3.8-1.1-8.7,0.6-10.9,3.8c-1.7,2.5-1.9,2.5-4.7,3.4c-7.4,2.1-11.5,10.7-9.1,17.8c0.9,2.8,2.8,5,5.3,6.6c2.4,1.5,2.5,2,3.5,4.5
          c1.9,5.3,8.1,6.6,13,4.9c3.4-1.2,3.4-1.1,6.9-0.4c3.2,0.6,7.3-0.3,10-2.1c2.8-1.9,3.3-2,6.3-1.8c4.5,0.3,10-3.6,9.2-8.5
          c-0.3-1.8,2.5-2.2,2.8-0.4c0.9,6.4-5.2,11.6-11.3,11.7c-3.2,0.1-4.1,0.4-5.7,1.5c-3.3,2.1-7.8,3.1-11.7,2.4
          c-2.6-0.4-3.1-0.5-5.8,0.4c-6.2,2.1-13.7,0.1-16.3-6.4c-0.8-1.9-0.9-2.4-2.7-3.6c-1.6-1-2.9-2.4-4-4c-1.5-2.2-1.8-2.1-3.1-0.9
          c-7.4,7.2-5.9,19.8,4.1,24.2c3.9,1.7,8.6,1.9,12.5,0.2c3.9-1.7,4.2-1.6,7.7,0.2c4.2,2.2,9.3,3,13.9,1.8
          C164.8,175.4,167.3,173.7,168.8,170.6 M170.5,183.6c-1.7-0.8-3.4-1.8-4.8-2.9c-1.8-1.3-2.4-1.6-5.3-1.2c-2.3,0.3-2.3,0.4-1.2,2.7
          c2.9,5.8,5.1,11.9,8.5,17.6c1.6,2.6,2.1,3.1,5.1,2.5c1.8-0.3,2.5-1.2,2.1-2.7c-1.2-5-1.9-8.5-2.1-12.5
          C172.7,184.7,172.6,184.6,170.5,183.6 M122,147.3c1.5-1.3,1.7-2.2,1.6-4.1c-0.6-7.6,4.2-15.6,11.7-17.7c1.8-0.5,2-0.5,3.2-2.2
          c1-1.4,2.4-2.6,3.9-3.5c1.9-1,1.9-1.4,1.8-3.1c-0.2-3.7-2.4-6.9-6.1-7.8c-3.1-0.7-3.1-0.8-4.4-2.9c-3-4.8-13.2-4.2-16.7,0.1
          c-2.1,2.6-2.4,2.9-5.2,3.4c-5.1,1-9,5.7-8.5,11c0.1,1.5,0.5,1.6,2.7,1.6c7.6-0.2,15,9.3,10.6,16.3c-4.4,6.9-13.5,4.4-17.9-1.6
          c-1.1-1.5,1.2-3.1,2.3-1.7c3.1,4.3,10,7,13.2,1.8c3.3-5.2-3.3-12.8-8.9-11.9c-2.8,0.4-2.9,0.4-4.8-0.5c-6.8-3.2-13.9,3.1-12.1,10.1
          c0.6,2.1,0.4,2.1-0.3,5.2c-0.8,3.4,2,7.2,5.4,7.8c4,0.7,4.5,0.5,5.4,1.8c3.5,4.9,10.1,5.9,15.6,4.3
          C117.8,152.7,119.6,149.5,122,147.3"/>
        </svg>