<?xml version="1.0" encoding="utf-8"?>
<!-- Generator: Adobe Illustrator 18.1.0, SVG Export Plug-In . SVG Version: 6.00 Build 0)  -->
<svg version="1.1" id="Layer_1" xmlns="http://www.w3.org/2000/svg" xmlns:xlink="http://www.w3.org/1999/xlink" x="0px" y="0px"
	 width="400px" height="400px" viewBox="64 -24 400 400" enable-background="new 64 -24 400 400" xml:space="preserve">
<circle fill="#028ABF" cx="264" cy="176" r="200"/>
<path fill="#FFFFFF" d="M246.1,218.3c-0.8,2.6-1.9,5-3.1,7.4l6,12.5c-3.5,4.8-7.7,9-12.5,12.5l-12.5-5.9c-2.3,1.2-4.8,2.3-7.4,3.1
	l-4.6,13c-2.9,0.4-5.8,0.7-8.8,0.7s-5.9-0.2-8.8-0.7l-4.6-13c-2.6-0.8-5-1.9-7.4-3.1l-12.5,5.9c-4.8-3.5-9-7.7-12.5-12.5l5.9-12.5
	c-1.2-2.3-2.2-4.8-3.1-7.4l-13.1-4.6c-0.4-2.9-0.7-5.8-0.7-8.8s0.3-5.9,0.7-8.8l13.1-4.7c0.8-2.6,1.9-5,3.1-7.4l-5.9-12.5
	c3.5-4.8,7.7-9,12.5-12.5l12.5,6c2.3-1.2,4.8-2.3,7.4-3.1l4.6-13.1c2.9-0.4,5.8-0.6,8.8-0.6s5.9,0.2,8.8,0.6l4.6,13.1
	c2.6,0.8,5,1.9,7.4,3.1l12.5-6c4.7,3.5,9,7.7,12.5,12.5l-6,12.5c1.2,2.3,2.3,4.8,3.1,7.4l13.1,4.7c0.4,2.9,0.7,5.8,0.7,8.8
	s-0.2,6-0.7,8.8L246.1,218.3z M224.5,204.8c0-11.8-9.6-21.3-21.4-21.3c-11.8,0-21.3,9.6-21.3,21.3c0,11.8,9.6,21.3,21.3,21.3
	C214.9,226.1,224.5,216.6,224.5,204.8z"/>
<path fill="#FFFFFF" d="M364.5,159.5c-1,3.2-2.3,6.3-3.9,9.3l7.5,15.8c-4.3,6.1-9.6,11.4-15.6,15.8l-15.8-7.5
	c-3,1.5-6.1,2.9-9.3,3.9l-5.9,16.4c-3.6,0.6-7.3,0.9-11.1,0.9c-3.8,0-7.5-0.3-11.1-0.9l-5.9-16.5c-3.2-1-6.3-2.3-9.3-3.9l-15.8,7.6
	c-6-4.4-11.4-9.7-15.7-15.8l7.5-15.8c-1.6-3-2.9-6.1-3.9-9.3l-16.5-5.8c-0.6-3.7-0.9-7.3-0.9-11.1s0.3-7.5,0.9-11.1l16.5-5.9
	c1-3.2,2.3-6.3,3.9-9.3l-7.5-15.8c4.4-6,9.7-11.4,15.7-15.7l15.8,7.5c3-1.6,6-2.9,9.3-3.9l5.9-16.5c3.6-0.6,7.3-0.9,11.1-0.9
	c3.8,0,7.5,0.3,11.1,0.9l5.9,16.5c3.2,1,6.3,2.3,9.3,3.9l15.8-7.5c6,4.4,11.4,9.7,15.7,15.8l-7.5,15.8c1.6,3,2.9,6.1,3.9,9.3
	l16.4,5.8c0.6,3.6,0.9,7.3,0.9,11.1c0,3.8-0.3,7.5-0.9,11.1L364.5,159.5z M337.3,142.6c0-14.9-12.1-26.9-26.9-26.9
	c-14.9,0-26.9,12-26.9,26.9c0,14.9,12,26.9,26.9,26.9S337.3,157.5,337.3,142.6z"/>
<path fill="#FFFFFF" d="M207.4,117.9c-0.4,1.9-0.9,3.7-1.6,5.5l5.1,8.4c-2.1,3.7-4.8,6.9-7.9,9.8l-9.3-3.3c-1.6,1-3.3,2-5,2.7
	l-2.4,9.6c-2,0.5-4.1,0.9-6.2,1.1c-2.1,0.2-4.2,0.3-6.3,0.2l-4.3-8.9c-1.9-0.4-3.7-1-5.4-1.6l-8.4,5.2c-3.7-2.1-7-4.8-9.8-8l3.3-9.3
	c-1.1-1.6-2-3.3-2.7-5l-9.6-2.3c-0.5-2-0.9-4.1-1.1-6.2c-0.2-2.1-0.3-4.2-0.2-6.3l8.9-4.3c0.4-1.9,0.9-3.7,1.6-5.4l-5.1-8.4
	c2.1-3.7,4.8-7,7.9-9.8l9.3,3.3c1.6-1.1,3.2-2,5-2.7l2.4-9.6c2-0.5,4.1-0.9,6.2-1.1s4.2-0.3,6.3-0.2l4.3,8.9
	c1.9,0.4,3.7,0.9,5.5,1.6l8.4-5.2c3.7,2.1,6.9,4.8,9.8,8l-3.3,9.3c1.1,1.6,2,3.2,2.7,5l9.6,2.4c0.5,2,0.9,4.1,1.1,6.2
	s0.3,4.2,0.2,6.3L207.4,117.9z M191.1,110c-0.9-8.4-8.3-14.5-16.7-13.6s-14.5,8.3-13.6,16.7c0.8,8.4,8.3,14.4,16.7,13.6
	C185.9,125.8,191.9,118.3,191.1,110z"/>
<g>
	<path fill="#FFFFFF" d="M194.6,317.4c-0.8,2.3-2.2,4.1-4.2,5.5c-1.9,1.3-4,2-6.1,2c-3.1,0-5.7-1.1-7.9-3.4c-2.2-2.2-3.3-4.9-3.3-8
		c0-3,1.1-5.7,3.3-7.9c2.2-2.2,4.7-3.4,7.6-3.4c1.5,0,2.7,0.2,3.7,0.6c0.9,0.4,1.9,1,3,2v-2.1h3.4v6.9h-3.9
		c-0.7-1.1-1.5-1.9-2.6-2.5c-1.1-0.6-2.2-0.9-3.4-0.9c-2,0-3.7,0.7-5,2.1s-2,3.1-2,5.1s0.7,3.6,2.1,5c1.4,1.4,3.1,2.1,5,2.1
		c1.1,0,2.2-0.3,3.2-0.8c1.1-0.6,1.9-1.4,2.6-2.4L194.6,317.4L194.6,317.4z"/>
	<path fill="#FFFFFF" d="M213.6,316.1c0,2.5-0.8,4.5-2.5,6.1c-1.7,1.6-3.7,2.4-6.1,2.4s-4.4-0.8-6.1-2.5c-1.7-1.7-2.5-3.7-2.5-6
		c0-2.4,0.9-4.3,2.6-6c1.7-1.6,3.8-2.4,6.2-2.4c2.4,0,4.4,0.8,6.1,2.4C212.8,311.8,213.6,313.8,213.6,316.1z M209.9,316.2
		c0-1.3-0.5-2.5-1.4-3.4c-1-0.9-2.1-1.4-3.5-1.4s-2.5,0.5-3.5,1.4c-1,0.9-1.5,2-1.5,3.3c0,1.4,0.5,2.5,1.4,3.5c1,1,2.1,1.5,3.4,1.5
		c1.4,0,2.6-0.5,3.5-1.4C209.4,318.7,209.9,317.6,209.9,316.2z"/>
	<path fill="#FFFFFF" d="M243.5,324.4h-7.8V321h2.1v-6.5c0-0.8-0.3-1.6-1-2.2c-0.6-0.6-1.4-0.9-2.2-0.9c-0.9,0-1.7,0.3-2.3,0.9
		c-0.6,0.6-0.9,1.3-0.9,2.2v6.5h2v3.4h-7.9V321h2.1v-6.5c0-0.9-0.3-1.6-0.9-2.2c-0.6-0.6-1.3-0.9-2.1-0.9c-1,0-1.9,0.4-2.6,1.2
		c-0.6,0.7-0.9,1.4-0.9,2.1v6.3h2v3.4h-7.8V321h2.1v-9.3h-2v-3.4h5.4v2.3c0.5-0.9,1.1-1.6,2-2.1c0.8-0.5,1.7-0.7,2.6-0.7
		c1.1,0,2.2,0.3,3.1,1c0.9,0.6,1.5,1.4,1.9,2.4c0.5-1.1,1.2-2,2.1-2.6c0.9-0.6,2-0.9,3.2-0.9c1.6,0,2.9,0.5,4.1,1.6
		c1.2,1.1,1.7,2.3,1.7,3.9v7.8h2V324.4L243.5,324.4z"/>
	<path fill="#FFFFFF" d="M265.3,316.2c0,2.3-0.8,4.3-2.5,5.9c-1.6,1.6-3.6,2.5-5.9,2.5c-1.2,0-2.3-0.2-3.1-0.6
		c-0.9-0.4-1.7-1.1-2.6-2v4.7h2.2v3.6h-8.2v-3.6h2.2v-15.1h-2v-3.4h6v2.4c0.8-1,1.6-1.6,2.4-2c0.9-0.5,1.9-0.7,3.1-0.7
		c2.3,0,4.3,0.8,6,2.5C264.5,311.9,265.3,313.9,265.3,316.2z M261.3,316.1c0-1.3-0.5-2.5-1.5-3.4s-2.2-1.4-3.5-1.4
		c-1.4,0-2.6,0.5-3.6,1.4c-1,1-1.5,2.1-1.5,3.5s0.5,2.5,1.5,3.5s2.2,1.4,3.6,1.4c1.4,0,2.6-0.5,3.6-1.5
		C260.8,318.7,261.3,317.5,261.3,316.1z"/>
	<path fill="#FFFFFF" d="M284.9,324.4h-5.3v-2.1c-0.6,0.8-1.3,1.5-2.3,1.9c-0.8,0.4-1.8,0.6-2.7,0.6c-1.7,0-3-0.6-4-1.7
		c-1-1.2-1.5-2.7-1.5-4.7v-6.7h-2v-3.4h5.6v9.9c0,0.9,0.3,1.7,0.9,2.3s1.3,1,2.2,1c1.1,0,2.1-0.4,2.8-1.3c0.6-0.7,0.9-1.4,0.9-2.2
		v-6.3h-2v-3.4h5.6V321h2L284.9,324.4L284.9,324.4z"/>
	<path fill="#FFFFFF" d="M295.2,324.4H289v-12.7h-2.4v-3.4h2.4v-5.5h3.5v5.5h2.5v3.4h-2.5v9.3h2.7V324.4L295.2,324.4z"/>
	<path fill="#FFFFFF" d="M304.7,324.4h-7.8V321h2.1v-9.3h-2v-3.4h5.8V321h1.9V324.4L304.7,324.4z M302.8,306.2h-3.6v-3.5h3.6V306.2z
		"/>
	<path fill="#FFFFFF" d="M323.4,324.4h-7.2V321h1.9v-6.5c0-0.8-0.3-1.5-0.9-2.1c-0.6-0.6-1.3-0.9-2.1-0.9c-1.1,0-2,0.4-2.6,1.3
		c-0.5,0.7-0.7,1.3-0.7,1.9v6.3h1.8v3.4h-7.1V321h1.9v-9.3h-1.9v-3.4h5.3v2.1c1.1-1.8,2.5-2.6,4.4-2.6c1.7,0,3.1,0.6,4,1.8
		c0.9,1.2,1.4,2.8,1.4,4.9v6.5h1.9L323.4,324.4L323.4,324.4z"/>
	<path fill="#FFFFFF" d="M344.1,311.6H342v11.3c0,2.7-0.9,4.8-2.7,6.3c-1.5,1.3-3.4,1.9-5.5,1.9c-1.1,0-2.1-0.1-2.9-0.3
		c-1.1-0.3-2-0.8-2.8-1.5c-0.9-0.8-1.6-2-2.2-3.4h4.3c0.4,0.7,1,1.2,1.6,1.6c0.6,0.4,1.4,0.5,2.4,0.5c1.2,0,2.2-0.4,3-1.3
		c0.8-0.8,1.2-1.7,1.2-2.7v-1.8c-0.9,1-1.6,1.6-2.2,1.9c-0.7,0.4-1.7,0.6-3,0.6c-2.5,0-4.5-0.8-6-2.5c-1.5-1.6-2.2-3.6-2.2-5.9
		c0-2.2,0.9-4.1,2.6-5.8c1.7-1.7,3.5-2.5,5.5-2.5c1.4,0,2.4,0.2,3.2,0.7c0.6,0.3,1.4,1,2.2,2v-2.3h5.5L344.1,311.6L344.1,311.6z
		 M338.7,316.2c0-1.3-0.5-2.5-1.5-3.4c-1-0.9-2.1-1.4-3.5-1.4c-1.4,0-2.5,0.5-3.5,1.4c-1,1-1.4,2.1-1.4,3.5c0,1.4,0.5,2.5,1.5,3.5
		s2.2,1.5,3.5,1.5c1.3,0,2.5-0.5,3.4-1.5C338.2,318.8,338.7,317.6,338.7,316.2z"/>
</g>
</svg>
