<?xml version="1.0" encoding="utf-8"?>
<!-- Generator: Adobe Illustrator 18.1.0, SVG Export Plug-In . SVG Version: 6.00 Build 0)  -->
<svg version="1.1" id="Layer_1" xmlns="http://www.w3.org/2000/svg" xmlns:xlink="http://www.w3.org/1999/xlink" x="0px" y="0px"
	 width="400px" height="400px" viewBox="64 -24 400 400" enable-background="new 64 -24 400 400" xml:space="preserve">
<circle opacity="0.87" fill="#2DACD8" enable-background="new    " cx="264" cy="176" r="200"/>
<path fill="#FFFFFF" d="M342.4,101.8c-17.4,0-31.5,14.1-31.5,31.5c0,8.9,3.7,17,9.7,22.7l-45.9,47.8c-3.5-1.7-7.5-2.7-11.7-2.7
	c-3,0-6,0.5-8.7,1.5l-14.6-37.3c6.5-4.2,10.8-11.4,10.8-19.7c0-12.9-10.5-23.4-23.4-23.4s-23.4,10.5-23.4,23.4c0,4.1,1,7.9,2.9,11.2
	l-32,34.9c-1.8-0.6-3.7-1-5.7-1c-9.3,0-16.9,7.5-16.9,16.9c0,9.3,7.6,16.9,16.9,16.9s16.9-7.5,16.9-16.9c0-4.2-1.5-8-4-10.9
	l30.3-33.2c4.1,3.4,9.3,5.4,15,5.4c1.3,0,2.6-0.1,3.9-0.3l15.1,38.6c-5.9,4.9-9.6,12.2-9.6,20.5c0,14.7,11.9,26.5,26.5,26.5
	c14.7,0,26.5-11.9,26.5-26.5c0-7.1-2.8-13.5-7.3-18.2l46-47.9c4.3,2.1,9.1,3.4,14.2,3.4c17.4,0,31.5-14.1,31.5-31.5
	C373.9,115.9,359.8,101.8,342.4,101.8z"/>
<g>
	<path fill="#FFFFFF" d="M247.6,317.7c0,2.8-0.9,5.2-2.6,7.2c-1.8,2.1-4,3.2-6.6,3.2h-10.9v-3.3h2.3v-14.3h-2.2v-3.3h10.7
		c2.6,0,4.9,1.1,6.6,3.2C246.7,312.5,247.6,314.9,247.6,317.7z M243.4,317.6c0-1.8-0.5-3.4-1.5-4.7c-1.1-1.4-2.4-2.1-4-2.1h-4.4
		v13.7h4.3c1.7,0,3-0.7,4.1-2.1C242.9,321,243.4,319.4,243.4,317.6z"/>
	<path fill="#FFFFFF" d="M267.8,315.8h-2v9h1.9v3.3h-5.4v-2c-0.8,0.8-1.5,1.4-2.3,1.8c-0.8,0.4-1.7,0.6-2.7,0.6
		c-2.3,0-4.2-0.8-5.7-2.5c-1.5-1.6-2.3-3.6-2.3-5.9c0-2.2,0.8-4.1,2.5-5.7c1.7-1.6,3.5-2.4,5.6-2.4c1.2,0,2.1,0.2,2.9,0.7
		c0.5,0.3,1.2,1,2,1.9v-2.1h5.6L267.8,315.8L267.8,315.8z M262.3,320.1c0-1.3-0.5-2.4-1.4-3.3c-0.9-0.9-2.1-1.3-3.4-1.3
		s-2.4,0.5-3.3,1.4c-0.9,1-1.4,2.1-1.4,3.4s0.5,2.4,1.4,3.3c0.9,0.9,2,1.4,3.3,1.4s2.4-0.5,3.4-1.4
		C261.8,322.6,262.3,321.5,262.3,320.1z"/>
	<path fill="#FFFFFF" d="M277.8,328.1h-6v-12.3h-2.2v-3.3h2.3v-5.3h3.4v5.3h2.4v3.3h-2.5v9h2.6V328.1L277.8,328.1z"/>
	<path fill="#FFFFFF" d="M298.1,315.8h-2v9h1.9v3.3h-5.4v-2c-0.8,0.8-1.5,1.4-2.3,1.8c-0.8,0.4-1.7,0.6-2.7,0.6
		c-2.3,0-4.2-0.8-5.7-2.5c-1.5-1.6-2.3-3.6-2.3-5.9c0-2.2,0.8-4.1,2.5-5.7c1.7-1.6,3.5-2.4,5.6-2.4c1.2,0,2.1,0.2,2.9,0.7
		c0.5,0.3,1.2,1,2,1.9v-2.1h5.6L298.1,315.8L298.1,315.8z M292.6,320.1c0-1.3-0.5-2.4-1.4-3.3c-0.9-0.9-2.1-1.3-3.4-1.3
		c-1.3,0-2.4,0.5-3.3,1.4c-0.9,1-1.4,2.1-1.4,3.4s0.5,2.4,1.4,3.3c0.9,0.9,2,1.4,3.3,1.4c1.3,0,2.4-0.5,3.4-1.4
		C292.1,322.6,292.6,321.5,292.6,320.1z"/>
</g>
</svg>
