<?xml version="1.0" encoding="utf-8"?>
<!-- Generator: Adobe Illustrator 18.1.0, SVG Export Plug-In . SVG Version: 6.00 Build 0)  -->
<svg version="1.1" id="Layer_1" xmlns="http://www.w3.org/2000/svg" xmlns:xlink="http://www.w3.org/1999/xlink" x="0px" y="0px"
	 width="200px" height="200px" viewBox="0 0 200 200" enable-background="new 0 0 200 200" xml:space="preserve">
<path fill="#DE7226" d="M63.9,150.9c27.1,19.5,64.9,13.4,84.5-13.8c19.5-27.1,13.4-64.9-13.8-84.5c-27.1-19.5-64.9-13.4-84.5,13.8
	C30.6,93.5,36.8,131.3,63.9,150.9"/>
<polygon fill="#DE7226" points="100,179.7 120.9,199.5 132,172.9 159.1,182.4 158.4,153.7 187.1,151.4 174.7,125.4 200,111.6 
	178.1,92.9 195.6,70 168,61.8 174.7,33.8 146.2,37.5 140.9,9.2 116.3,24.3 100,0.5 83.7,24.3 59.1,9.2 53.8,37.5 25.3,33.8 32,61.8 
	4.4,70 21.9,92.9 0,111.6 25.3,125.4 12.9,151.4 41.6,153.7 40.9,182.4 68,172.9 79.1,199.5 "/>
<path fill="#FFFFFF" d="M131.4,96.5c-1.1,0.8-2.4,1.5-3.7,1.8c-1.3,0.4-1.4,0.5-2.1,2.6c-1.3,3.8-4.8,6.1-8.7,6.5
	c-1.6,0.2-1.7,0.2-2.6,1.5c-0.2,0.3-0.5,0.6-0.7,0.9c-1.1,1.1-1.1,1.3-0.5,1.8c8.2,6.2,21.6-4.1,19.9-14.7
	C132.7,95.6,132.7,95.4,131.4,96.5 M113.4,107.5c0.5-1.1,1-1.3,2.2-1.4c3.8-0.1,7.5-2.2,8.7-5.9c0.8-2.6,0.9-2.7,2.7-3.2
	c1.2-0.3,2.6-1,3.6-1.8c1.5-1.1,1.9-2.2,2.3-4c0.8-3.6,0-8.4-2.6-11.2c-0.8-0.9-1.2-1.5-1.6-3.1c-1.1-4.3-6.3-8.1-10.5-8.6
	c-2.3-0.3-2.6-0.4-3.8-1.3c-4.1-3.2-10.7-4.2-15.4-1.8c-2,1-2.3,1.2-3.9,0.7c-5.1-1.8-11.8,0.8-14.3,5.5c-1.2,2.2-1.3,2.3-3.6,2.7
	c-4.5,0.7-7.6,3.5-7.6,8.3c0,1.9-0.1,2.1-1.1,3.7c-5.8,9.1,4,20.5,17.1,16.8c1.2-0.4,1.3-0.6,1.5-1.6c0.1-0.9,0-1.1-1.3-0.8
	c-2.9,0.5-6.2-0.2-8.1-2.6c-0.4-0.5-0.2-0.4-1.9-0.7c-2.5-0.4-4.6-3.1-4-5.6c0.3-1.3,0.3-1.3,0.1-1.9c-1.1-3.9,2.4-7.7,6.4-7.1
	c0.8,0.1,0.9,0.1,1-0.9c0.1-3.1,2.4-5.6,5.4-6.2c0.9-0.2,1-0.3,1.8-1.3c2.4-2.7,8.2-3.1,10.4-0.1c0.6,0.8,0.8,0.9,1.5,1.1
	c0.6,0.1,0.7,0.1,1.1-0.7c1.9-3.4,6.7-5.1,10.2-3.5c1.2,0.5,1.3,0.5,1.9,0.3c3.9-0.9,8.8,1.5,10.3,5.2c0.4,1,0.5,1.2,1.5,1.7
	c3.1,1.4,4.5,5.2,2.3,8c-0.6,0.8-0.7,0.9-0.6,1.7c0.3,3.1-2.9,4.9-5.7,4.8c-1.3-0.1-1.5-0.1-2,0.2c-2.5,1.3-6.3,1.4-8.6-0.5
	c-0.7-0.6-0.8-0.5-1.7-0.1c-2.4,1.2-7.2,1.9-9.1-0.4c-0.6-0.7,0.5-1.6,1.1-0.9c1.5,1.7,5.9,0.9,7.7-0.1c1.3-0.8,1.5-0.8,2.9,0.3
	c1.8,1.6,5.1,1.5,7.2,0.4c0.9-0.5,1.1-0.5,2.6-0.4c2,0.2,4.8-1.1,4.4-3.5c-0.2-1.1-0.2-1.3,0.8-2.3c1.9-2.1,0.6-5.1-1.8-6.1
	c-1.1-0.5-1.4-0.8-2-2.3c-1.3-3.1-5.5-5.1-8.7-4.4c-1.3,0.3-1.4,0.1-2.7-0.4c-2.9-1.3-7,0.2-8.5,3c-0.3,0.6-0.2,0.9,0.6,1.8
	c0.7,0.9,1.2,2.1,1.2,3.4c0,0.7,0.1,0.8,0.8,0.7c0.6,0,1.3,0,1.9,0.2c1,0.3,1.1,0.3,1.8-0.1c4.1-2.3,9.5-1.1,11.9,3.1
	c0.5,0.8-0.8,1.5-1.2,0.7c-2-3.5-6.6-4.5-10-2.6c-1.3,0.7-1.4,0.6-2.8,0.2c-1.9-0.5-4.3,0.3-5.5,1.9c-0.8,1.2-0.9,1.3-2.4,1.7
	c-3.7,1-5.7,5.3-4.6,8.9c0.5,1.4,1.4,2.5,2.7,3.3c1.2,0.7,1.3,1,1.7,2.3c1,2.6,4.1,3.3,6.5,2.4c1.7-0.6,1.7-0.5,3.4-0.2
	c1.6,0.3,3.6-0.2,5-1.1c1.4-0.9,1.7-1,3.1-0.9c2.3,0.1,5-1.8,4.6-4.2c-0.1-0.9,1.3-1.1,1.4-0.2c0.5,3.2-2.6,5.8-5.6,5.9
	c-1.6,0-2,0.2-2.9,0.7c-1.7,1.1-3.9,1.5-5.9,1.2c-1.3-0.2-1.5-0.2-2.9,0.2c-3.1,1-6.9,0-8.1-3.2c-0.4-1-0.5-1.2-1.4-1.8
	c-0.8-0.5-1.5-1.2-2-2c-0.7-1.1-0.9-1-1.5-0.4c-3.7,3.6-3,9.9,2.1,12.1c2,0.8,4.3,0.9,6.3,0.1c2-0.8,2.1-0.8,3.8,0.1
	c2.1,1.1,4.6,1.5,7,0.9C111.4,109.9,112.7,109,113.4,107.5 M114.3,114c-0.8-0.4-1.7-0.9-2.4-1.4c-0.9-0.7-1.2-0.8-2.7-0.6
	c-1.1,0.1-1.2,0.2-0.6,1.4c1.5,2.9,2.6,6,4.3,8.8c0.8,1.3,1,1.5,2.6,1.3c0.9-0.2,1.2-0.6,1.1-1.4c-0.6-2.5-0.9-4.3-1.1-6.2
	C115.4,114.5,115.3,114.5,114.3,114 M90,95.8c0.7-0.6,0.9-1.1,0.8-2.1c-0.3-3.8,2.1-7.8,5.9-8.8c0.9-0.3,1-0.2,1.6-1.1
	c0.5-0.7,1.2-1.3,2-1.8c0.9-0.5,0.9-0.7,0.9-1.6c-0.1-1.8-1.2-3.5-3-3.9c-1.5-0.4-1.6-0.4-2.2-1.4c-1.5-2.4-6.6-2.1-8.4,0.1
	c-1.1,1.3-1.2,1.4-2.6,1.7c-2.5,0.5-4.5,2.9-4.3,5.5c0.1,0.7,0.3,0.8,1.4,0.8c3.8-0.1,7.5,4.7,5.3,8.2c-2.2,3.5-6.8,2.2-8.9-0.8
	c-0.5-0.7,0.6-1.6,1.1-0.8c1.6,2.1,5,3.5,6.6,0.9c1.6-2.6-1.7-6.4-4.5-6c-1.4,0.2-1.5,0.2-2.4-0.2c-3.4-1.6-7,1.6-6,5
	c0.3,1,0.2,1.1-0.1,2.6c-0.4,1.7,1,3.6,2.7,3.9c2,0.4,2.2,0.3,2.7,0.9c1.7,2.4,5.1,3,7.8,2.2C87.9,98.5,88.8,96.9,90,95.8"/>
<rect x="31.3" y="129.8" fill="none" width="137.4" height="10.4"/>
</svg>
