<?xml version="1.0" encoding="utf-8"?>
<!-- Generator: Adobe Illustrator 18.1.0, SVG Export Plug-In . SVG Version: 6.00 Build 0)  -->
<svg version="1.1" id="Layer_1" xmlns="http://www.w3.org/2000/svg" xmlns:xlink="http://www.w3.org/1999/xlink" x="0px" y="0px"
	 width="400px" height="400px" viewBox="98 -100 400 400" enable-background="new 98 -100 400 400" xml:space="preserve">
<circle fill="#028ABF" cx="298" cy="100" r="200"/>
<path fill="#FFFFFF" d="M339.6,112.8c-0.8,2.4-1.8,4.8-3,7.2l5.8,12c-3.4,4.6-7.4,8.6-12,12l-12.2-5.8c-2.2,1.2-4.6,2.2-7.2,3
	l-4.4,12.6c-2.8,0.4-5.6,0.6-8.4,0.6c-2.8,0-5.8-0.2-8.6-0.6l-4.6-12.5c-2.4-0.8-4.8-1.8-7.2-3l-12,5.8c-4.6-3.4-8.6-7.4-12-12
	l5.8-12c-1.2-2.2-2.2-4.6-3-7.2l-12.6-4.4c-0.4-2.8-0.6-5.6-0.6-8.6c0-2.8,0.2-5.8,0.6-8.4l12.6-4.4c0.8-2.4,1.8-4.8,3-7.2L254,68
	c3.4-4.6,7.4-8.6,12-12l12,5.8c2.2-1.2,4.6-2.2,7.2-3l4.4-12.6c2.8-0.4,5.6-0.6,8.6-0.6s5.8,0.2,8.4,0.6l4.4,12.6
	c2.4,0.8,4.8,1.8,7.2,3l12-5.8c4.6,3.4,8.6,7.4,12,12l-5.8,12c1.2,2.2,2.2,4.6,3,7.2l12.6,4.4c0.4,2.8,0.6,5.6,0.6,8.4
	c0,2.8-0.2,5.8-0.6,8.6L339.6,112.8z M318.7,100c0-11.4-9.2-20.6-20.6-20.6c-11.4,0-20.6,9.2-20.6,20.6c0,11.4,9.2,20.6,20.6,20.6
	C309.6,120.4,318.7,111.2,318.7,100z"/>
<path fill="#FFFFFF" d="M350.5,116.4c-1,3.2-2.2,6.2-3.8,9l7.2,15.2c-4.2,5.8-9.4,11-15.2,15.2l-15.2-7.2c-2.8,1.4-5.8,2.8-9,3.8
	l-5.6,16c-3.4,0.6-7,0.8-10.8,0.8c-3.6,0-7.2-0.2-10.8-0.8l-5.6-16c-3.2-1-6.2-2.2-9-3.8l-15.2,7.2c-5.8-4.2-11-9.4-15.2-15.2
	l6.9-15.2c-1.6-2.8-2.8-5.8-3.8-9l-16-5.6c-0.6-3.6-0.8-7-0.8-10.8c0-3.6,0.2-7.2,0.8-10.8l16-5.6c1-3.2,2.2-6,3.8-9l-7-15.2
	c4.2-5.8,9.4-11,15.2-15.2l15.2,7.2c2.8-1.6,5.8-2.8,9-3.8l5.6-16c3.4-0.6,7-0.8,10.8-0.8c3.6,0,7.2,0.2,10.8,0.8l5.6,16
	c3.2,1,6.2,2.2,9,3.8l15.2-7.2c5.8,4.2,11,9.4,15.2,15.2l-7.2,15.2c1.6,2.8,2.8,5.8,3.8,9l16,5.6c0.6,3.4,0.8,7,0.8,10.8
	c0,3.6-0.2,7.2-0.8,10.8L350.5,116.4z M324,99.9c0-14.4-11.6-26-26-26s-26,11.6-26,26s11.6,26,26,26S324,114.4,324,99.9z"/>
<path fill="#FFFFFF" d="M328.1,106.2c-0.4,1.8-0.8,3.6-1.6,5.2l5,8.2c-2,3.6-4.6,6.6-7.6,9.4l-9-3.2c-1.6,1-3.2,1.8-4.8,2.6
	l-2.2,9.2c-2,0.6-4,0.8-6,1c-2,0.2-4,0.2-6,0.2l-4.2-8.6c-1.8-0.4-3.6-1-5.2-1.6l-8.2,5c-3.6-2-6.8-4.6-9.4-7.6l3.2-9
	c-1-1.6-2-3.2-2.6-4.8l-9.2-2.2c-0.6-2-0.8-4-1-6c-0.2-2-0.2-4-0.2-6l8.6-4.2c0.4-1.8,0.8-3.6,1.6-5.2l-5-8.2c2-3.6,4.6-6.8,7.6-9.4
	l9,3.2c1.6-1,3.2-2,4.8-2.6l2.2-9.2c2-0.6,4-0.8,6-1c2-0.2,4-0.2,6-0.2l4.2,8.6c1.8,0.4,3.6,0.8,5.2,1.6l8.2-5
	c3.6,2,6.8,4.6,9.4,7.6l-3.2,9c1,1.6,2,3.2,2.6,4.8l9.2,2.2c0.6,2,0.8,4,1,6c0.2,2,0.2,4,0.2,6L328.1,106.2z M312.5,98.6
	c-0.8-8-8-14-16.2-13.2c-8,0.8-14,8-13.2,16.2c0.8,8,8,14,16.2,13C307.3,113.8,313.3,106.6,312.5,98.6z"/>
<rect x="187.1" y="85.9" fill="none" width="221.8" height="28.2"/>
<g id="Layer_1_1_">
</g>
</svg>
