<?xml version="1.0" encoding="utf-8"?>
<!-- Generator: Adobe Illustrator 18.1.0, SVG Export Plug-In . SVG Version: 6.00 Build 0)  -->
<svg version="1.1" id="Layer_1" xmlns="http://www.w3.org/2000/svg" xmlns:xlink="http://www.w3.org/1999/xlink" x="0px" y="0px"
	 viewBox="0 -100 400 400" enable-background="new 0 -100 400 400" xml:space="preserve">
<circle fill="#CCCCCC" enable-background="new    " cx="200" cy="100" r="200"/>
<path fill="#F2F2F2" d="M187.7,149.7c-0.8,2.5-1.8,4.9-3,7.1l5.8,12.1c-3.4,4.6-7.4,8.7-12,12l-12.1-5.7c-2.2,1.2-4.6,2.2-7.1,3
	l-4.5,12.6c-2.8,0.4-5.6,0.7-8.5,0.7c-2.9,0-5.7-0.2-8.5-0.7l-4.5-12.6c-2.5-0.8-4.9-1.8-7.1-3l-12.1,5.7c-4.6-3.4-8.7-7.4-12-12
	l5.7-12.1c-1.2-2.2-2.2-4.6-3-7.1l-12.6-4.5c-0.4-2.8-0.7-5.6-0.7-8.5c0-2.9,0.3-5.7,0.7-8.5l12.6-4.5c0.8-2.5,1.8-4.9,3-7.1
	l-5.7-12.1c3.4-4.6,7.4-8.7,12-12l12.1,5.8c2.3-1.2,4.6-2.2,7.1-3l4.5-12.6c2.8-0.4,5.6-0.6,8.5-0.6c2.9,0,5.7,0.2,8.5,0.6l4.5,12.6
	c2.5,0.8,4.9,1.8,7.1,3l12.1-5.8c4.6,3.4,8.7,7.4,12,12l-5.8,12.1c1.2,2.2,2.2,4.6,3,7.1l12.6,4.5c0.4,2.8,0.6,5.6,0.6,8.5
	c0,2.9-0.2,5.8-0.6,8.5L187.7,149.7z M166.8,136.7c0-11.4-9.2-20.6-20.6-20.6c-11.4,0-20.6,9.2-20.6,20.6c0,11.4,9.2,20.6,20.6,20.6
	C157.6,157.3,166.8,148.1,166.8,136.7z"/>
<path fill="#F2F2F2" d="M302.1,93c-0.9,3.1-2.2,6.1-3.7,9l7.2,15.2c-4.2,5.8-9.3,10.9-15.2,15.2l-15.2-7.3c-2.9,1.5-5.9,2.8-9,3.7
	l-5.7,15.9c-3.5,0.5-7.1,0.8-10.7,0.8c-3.6,0-7.2-0.3-10.7-0.8l-5.7-15.9c-3.1-1-6.1-2.3-9-3.7l-15.2,7.3c-5.8-4.3-11-9.4-15.2-15.2
	l7.2-15.2c-1.5-2.9-2.8-5.9-3.7-9l-15.9-5.6c-0.6-3.5-0.8-7.1-0.8-10.7c0-3.7,0.3-7.2,0.8-10.7l15.9-5.7c0.9-3.1,2.2-6.1,3.7-9
	L194,36c4.2-5.8,9.3-11,15.2-15.2l15.2,7.3c2.9-1.5,5.8-2.8,9-3.7l5.7-15.9c3.5-0.5,7.1-0.8,10.7-0.8c3.7,0,7.2,0.3,10.7,0.8
	l5.7,15.9c3.1,0.9,6.1,2.2,9,3.7l15.2-7.3c5.8,4.2,11,9.4,15.2,15.2l-7.2,15.2c1.5,2.9,2.8,5.8,3.7,9l15.9,5.7
	c0.6,3.5,0.8,7.1,0.8,10.7c0,3.7-0.3,7.2-0.8,10.7L302.1,93z M275.8,76.6c0-14.4-11.6-26-26-26c-14.3,0-26,11.6-26,26
	c0,14.4,11.7,26,26,26C264.1,102.6,275.8,91,275.8,76.6z"/>
<path fill="#F2F2F2" d="M150.3,52.8c-0.4,1.8-0.9,3.6-1.6,5.3l5,8.1c-2,3.5-4.6,6.7-7.7,9.4l-9-3.2c-1.5,1-3.1,1.9-4.8,2.6l-2.3,9.3
	c-1.9,0.5-3.9,0.9-6,1.1c-2,0.2-4.1,0.3-6.1,0.2l-4.1-8.6c-1.8-0.4-3.6-0.9-5.3-1.6l-8.2,5c-3.5-2.1-6.7-4.6-9.4-7.7l3.2-9
	c-1-1.5-1.9-3.1-2.6-4.9l-9.3-2.2c-0.5-2-0.9-3.9-1.1-6c-0.2-2.1-0.3-4.1-0.1-6.1l8.6-4.1c0.4-1.8,0.9-3.6,1.6-5.3l-5-8.1
	c2-3.5,4.6-6.7,7.7-9.4l9,3.2c1.5-1,3.1-1.9,4.8-2.6l2.3-9.3c1.9-0.5,3.9-0.9,6-1.1c2.1-0.2,4.1-0.3,6.1-0.2l4.1,8.6
	c1.8,0.4,3.6,0.9,5.3,1.6l8.1-5c3.5,2,6.7,4.6,9.4,7.7l-3.2,9c1,1.5,1.9,3.1,2.6,4.8l9.3,2.3c0.5,1.9,0.9,3.9,1.1,6
	c0.2,2.1,0.3,4.1,0.1,6.1L150.3,52.8z M134.6,45.1c-0.8-8.1-8.1-14-16.1-13.1c-8.1,0.8-14,8.1-13.1,16.1c0.8,8.1,8.1,13.9,16.1,13.1
	C129.6,60.4,135.4,53.2,134.6,45.1z"/>
<g id="Layer_1_1_">
</g>
</svg>
