<?xml version="1.0" encoding="utf-8"?>
<!-- Generator: Adobe Illustrator 18.1.0, SVG Export Plug-In . SVG Version: 6.00 Build 0)  -->
<svg version="1.1" id="Layer_1" xmlns="http://www.w3.org/2000/svg" xmlns:xlink="http://www.w3.org/1999/xlink" x="0px" y="0px"
	 viewBox="62.5 -37.5 275 275" enable-background="new 62.5 -37.5 275 275" xml:space="preserve">
<path fill="#FFFFFF" d="M248.6,33.9l53.8-25.7l-30.6,51.3l59.7-1.4l-48.8,34.4l55.1,23.2l-58.5,11.3l41.1,43.6l-58.1-13.6l20,56.6
	l-47.7-36.1l-4.6,59.8l-29.1-52.5l-28.6,52.7l-5.4-59.8l-47.2,36.4l19.2-56.7l-58,13.9l40.6-43.9l-58.7-11.1L117.6,93L68.5,58.9
	l59.7,1.1L96.9,8.7L151,34.1l-7.9-59.5l39.3,45.3l16.8-57.4l17.6,57.3l38.7-45.5L248.6,33.9z"/>
<path d="M259.7,104.4c-2.1,1.5-4.6,2.8-7.1,3.6c-2.4,0.7-2.6,0.9-4,5c-2.4,7.4-9.3,11.7-16.8,12.6c-3,0.4-3.4,0.4-5,2.9
	c-0.4,0.7-0.9,1.2-1.3,1.7c-2.2,2.2-2.1,2.5-0.9,3.5c15.9,12.1,41.5-7.8,38.4-28.5C262.3,102.7,262.3,102.4,259.7,104.4
	 M225.2,125.7c1-2.1,1.9-2.6,4.1-2.6c7.4-0.1,14.4-4.2,16.8-11.5c1.6-4.9,1.7-5.3,5.3-6.1c2.4-0.6,4.9-1.9,6.8-3.4
	c2.9-2.2,3.8-4.2,4.4-7.7c1.4-7,0.1-16.4-5-21.6c-1.6-1.6-2.3-3-3.1-6c-2.1-8.2-12.1-15.6-20.3-16.7c-4.5-0.6-5-0.7-7.3-2.5
	c-7.9-6.2-20.6-8.1-29.7-3.4c-3.8,2-4.5,2.3-7.4,1.3c-9.7-3.5-22.6,1.5-27.5,10.8c-2.3,4.3-2.4,4.5-6.8,5.1
	c-8.8,1.4-14.6,6.9-14.6,16.1c0,3.7-0.2,4-2.2,7.1c-11.2,17.5,7.6,39.7,32.8,32.4c2.4-0.7,2.6-1.2,2.8-3.1c0.2-1.7,0-2.1-2.6-1.6
	c-5.7,1.1-11.8-0.3-15.6-4.9c-0.8-1-0.4-0.9-3.7-1.3c-4.9-0.7-8.9-6-7.6-10.9c0.6-2.5,0.6-2.6,0.3-3.8c-2-7.6,4.6-15,12.3-13.8
	c1.6,0.3,1.7,0.3,1.8-1.7c0.2-5.9,4.7-10.9,10.5-12c1.7-0.3,1.8-0.6,3.6-2.5c4.5-5.3,15.8-5.9,20-0.2c1.2,1.5,1.5,1.7,3,2.1
	c1.1,0.3,1.3,0.1,2.2-1.4c3.7-6.5,12.8-9.9,19.6-6.8c2.3,1.1,2.5,1,3.6,0.7c7.5-1.7,16.8,2.9,19.8,10.2c0.9,2,1.1,2.3,3,3.3
	c5.9,2.7,8.7,10.1,4.4,15.4c-1.3,1.5-1.3,1.7-1.2,3.4c0.5,6-5.7,9.6-11,9.3c-2.5-0.1-2.9-0.2-3.9,0.4c-4.9,2.5-12.2,2.6-16.6-1.1
	c-1.3-1.1-1.6-1-3.2-0.1c-4.6,2.4-13.9,3.6-17.6-0.7c-1.2-1.4,0.9-3.2,2-1.7c2.9,3.3,11.4,1.8,14.8-0.2c2.5-1.5,2.9-1.6,5.6,0.7
	c3.6,3,9.8,2.8,13.8,0.8c1.7-0.9,2.1-1,4.9-0.7c3.9,0.4,9.1-2.1,8.5-6.8c-0.4-2.1-0.3-2.5,1.4-4.5c3.8-4.1,1.3-10-3.6-11.9
	c-2.1-0.9-2.7-1.5-3.8-4.5c-2.4-6-10.5-9.9-16.7-8.4c-2.4,0.6-2.7,0.3-5.2-0.9c-5.6-2.6-13.4,0.3-16.4,5.7c-0.7,1.2-0.3,1.6,1.2,3.5
	c1.3,1.7,2.2,4,2.3,6.5c0.1,1.4,0.2,1.5,1.5,1.4c1.3-0.1,2.5,0.1,3.7,0.4c1.8,0.5,2,0.6,3.4-0.1c7.9-4.6,18.3-2,22.9,6
	c0.9,1.5-1.4,2.9-2.3,1.4c-3.8-6.8-12.6-8.8-19.2-4.9c-2.5,1.5-2.7,1.2-5.4,0.4c-3.7-1.1-8.4,0.6-10.5,3.7c-1.6,2.4-1.8,2.4-4.5,3.3
	c-7.1,2-11.1,10.4-8.8,17.2c0.9,2.7,2.7,4.8,5.1,6.4c2.3,1.5,2.4,1.9,3.4,4.4c1.8,5.1,7.8,6.4,12.5,4.7c3.3-1.2,3.3-1.1,6.6-0.4
	c3.1,0.6,7-0.3,9.6-2c2.7-1.8,3.2-1.9,6.1-1.7c4.3,0.3,9.6-3.5,8.9-8.2c-0.3-1.7,2.4-2.1,2.7-0.4c0.9,6.2-5,11.2-10.9,11.3
	c-3.1,0.1-3.9,0.4-5.5,1.5c-3.2,2-7.5,3-11.3,2.3c-2.5-0.4-3-0.5-5.6,0.4c-6,2-13.2,0.1-15.7-6.2c-0.8-1.8-0.9-2.3-2.6-3.5
	c-1.5-1-2.8-2.3-3.8-3.9c-1.4-2.1-1.7-2-3-0.9c-7.1,7-5.7,19.2,3.9,23.4c3.8,1.6,8.3,1.8,12,0.2c3.8-1.6,4-1.5,7.4,0.2
	c4,2.1,8.9,2.9,13.4,1.7C221.4,130.4,223.8,128.7,225.2,125.7 M226.8,138.3c-1.6-0.8-3.3-1.7-4.6-2.8c-1.7-1.3-2.3-1.5-5.1-1.2
	c-2.2,0.3-2.2,0.4-1.2,2.6c2.8,5.6,4.9,11.5,8.2,17c1.5,2.5,2,3,4.9,2.4c1.7-0.3,2.4-1.2,2-2.6c-1.2-4.8-1.8-8.2-2-12.1
	C229,139.4,228.9,139.3,226.8,138.3 M180.2,103.1c1.4-1.3,1.6-2.1,1.5-4c-0.6-7.4,4-15.1,11.3-17.1c1.7-0.5,1.9-0.5,3.1-2.1
	c1-1.4,2.3-2.5,3.8-3.4c1.8-1,1.8-1.4,1.7-3c-0.2-3.6-2.3-6.7-5.9-7.6c-3-0.7-3-0.8-4.2-2.8c-2.9-4.6-12.7-4.1-16.1,0.1
	c-2,2.5-2.3,2.8-5,3.3c-4.9,1-8.7,5.5-8.2,10.7c0.1,1.5,0.5,1.5,2.6,1.5c7.3-0.2,14.4,9,10.2,15.8c-4.2,6.7-13,4.3-17.2-1.5
	c-1.1-1.5,1.2-3,2.2-1.6c3,4.2,9.6,6.8,12.7,1.7c3.2-5-3.2-12.4-8.6-11.5c-2.7,0.4-2.8,0.4-4.6-0.5c-6.5-3.1-13.4,3-11.6,9.8
	c0.6,2,0.4,2-0.3,5c-0.8,3.3,1.9,7,5.2,7.6c3.8,0.7,4.3,0.5,5.2,1.7c3.4,4.7,9.7,5.7,15,4.2C176.1,108.4,177.9,105.3,180.2,103.1"/>
</svg>
