<?xml version="1.0" encoding="utf-8"?>
<!-- Generator: Adobe Illustrator 18.1.0, SVG Export Plug-In . SVG Version: 6.00 Build 0)  -->
<svg version="1.1" id="Layer_1" xmlns="http://www.w3.org/2000/svg" xmlns:xlink="http://www.w3.org/1999/xlink" x="0px" y="0px"
	 viewBox="0 -100 400 400" enable-background="new 0 -100 400 400" xml:space="preserve">
<circle fill="#B3B3B3" enable-background="new    " cx="200" cy="100" r="200"/>
<path fill="#E6E6E6" d="M279.4,25.8c-17.4,0-31.5,14.1-31.5,31.5c0,8.9,3.7,17,9.7,22.7l-45.8,47.8c-3.5-1.7-7.5-2.7-11.7-2.7
	c-3,0-6,0.5-8.7,1.5l-14.6-37.3c6.5-4.2,10.8-11.4,10.8-19.7c0-12.9-10.5-23.4-23.4-23.4c-12.9,0-23.4,10.5-23.4,23.4
	c0,4.1,1,7.9,2.9,11.2l-32,34.9c-1.8-0.6-3.7-1-5.7-1c-9.3,0-16.9,7.5-16.9,16.9c0,9.3,7.6,16.9,16.9,16.9c9.3,0,16.9-7.5,16.9-16.9
	c0-4.2-1.5-8-4-10.9l30.4-33.1c4.1,3.4,9.3,5.4,15,5.4c1.3,0,2.6-0.1,3.9-0.3l15.1,38.6c-5.9,4.9-9.6,12.2-9.6,20.5
	c0,14.7,11.9,26.5,26.5,26.5c14.7,0,26.5-11.9,26.5-26.5c0-7.1-2.8-13.5-7.3-18.2l46-47.9c4.3,2.1,9.1,3.4,14.2,3.4
	c17.4,0,31.5-14.1,31.5-31.5C311,39.9,296.9,25.8,279.4,25.8z"/>
</svg>
