<?xml version="1.0" encoding="utf-8"?>
<!-- Generator: Adobe Illustrator 18.1.0, SVG Export Plug-In . SVG Version: 6.00 Build 0)  -->
<!DOCTYPE svg PUBLIC "-//W3C//DTD SVG 1.1//EN" "http://www.w3.org/Graphics/SVG/1.1/DTD/svg11.dtd">
<svg version="1.1" id="Layer_1" xmlns="http://www.w3.org/2000/svg" xmlns:xlink="http://www.w3.org/1999/xlink" x="0px" y="0px"
	 width="275.3px" height="273.8px" viewBox="-264 -90.8 275.3 273.8" enable-background="new -264 -90.8 275.3 273.8"
	 xml:space="preserve">
<path fill="#DE7226" d="M-176,116.1c37.3,26.9,89.4,18.4,116.3-18.9C-32.9,59.8-41.4,7.8-78.7-19.1C-116-46-168.1-37.5-195-0.2
	C-221.8,37.2-213.4,89.2-176,116.1"/>
<polygon fill="#DE7226" points="-126.4,155.7 -97.6,183 -82.4,146.4 -45,159.6 -46,120 -6.5,116.8 -23.5,81 11.3,62.1 -18.8,36.3 
	5.3,4.9 -32.7,-6.4 -23.5,-45 -62.8,-39.9 -70.1,-78.8 -103.9,-58.1 -126.4,-90.8 -148.8,-58.1 -182.6,-78.8 -189.9,-39.9 
	-229.2,-45 -220,-6.4 -258,4.9 -233.9,36.3 -264,62.1 -229.2,81 -246.2,116.8 -206.7,120 -207.7,159.6 -170.3,146.4 -155.1,183 "/>
<path fill="#FFFFFF" d="M-83.2,41.2c-1.5,1.1-3.3,2-5.1,2.5c-1.7,0.5-1.9,0.6-2.9,3.6c-1.7,5.2-6.7,8.3-12,9
	c-2.1,0.3-2.4,0.3-3.6,2.1c-0.3,0.5-0.6,0.9-1,1.2c-1.6,1.6-1.5,1.8-0.6,2.5c11.3,8.6,29.7-5.6,27.4-20.2
	C-81.3,40-81.4,39.8-83.2,41.2 M-107.9,56.4c0.7-1.5,1.4-1.9,3-1.9c5.3-0.1,10.3-3,12-8.2c1.1-3.5,1.2-3.8,3.8-4.4
	c1.7-0.4,3.5-1.4,4.9-2.4c2.1-1.6,2.7-3,3.2-5.4c1.1-5,0.1-11.6-3.6-15.4c-1.1-1.2-1.6-2.1-2.2-4.2c-1.5-5.9-8.7-11.1-14.5-11.8
	c-3.2-0.4-3.6-0.5-5.3-1.8c-5.7-4.4-14.8-5.8-21.2-2.4c-2.7,1.4-3.2,1.7-5.3,0.9c-7-2.5-16.2,1.1-19.7,7.6c-1.6,3-1.7,3.2-4.9,3.7
	c-6.3,0.9-10.5,4.9-10.4,11.4c0,2.6-0.1,2.8-1.6,5c-8,12.5,5.4,28.2,23.5,23.1c1.7-0.5,1.8-0.8,2-2.2c0.2-1.2,0-1.5-1.8-1.2
	c-4,0.8-8.5-0.2-11.2-3.5c-0.5-0.7-0.3-0.6-2.6-0.9c-3.5-0.5-6.3-4.3-5.5-7.8c0.4-1.8,0.4-1.8,0.2-2.7c-1.4-5.4,3.3-10.7,8.8-9.8
	c1.2,0.2,1.3,0.2,1.3-1.2c0.1-4.2,3.4-7.8,7.5-8.5c1.3-0.2,1.3-0.4,2.5-1.8c3.2-3.8,11.3-4.2,14.3-0.1c0.8,1.1,1.1,1.2,2.1,1.5
	c0.8,0.2,1,0.1,1.6-1c2.6-4.6,9.2-7,14.1-4.8c1.6,0.7,1.8,0.7,2.6,0.5c5.4-1.2,12.1,2.1,14.2,7.2c0.6,1.4,0.7,1.7,2.1,2.3
	c4.2,2,6.2,7.2,3.2,11c-0.9,1.1-0.9,1.3-0.8,2.4c0.4,4.3-4,6.8-7.9,6.6c-1.8-0.1-2.1-0.1-2.8,0.3c-3.5,1.8-8.7,1.9-11.9-0.7
	c-0.9-0.8-1.1-0.7-2.3-0.1c-3.3,1.7-9.9,2.5-12.6-0.5c-0.8-1,0.6-2.2,1.5-1.3c2.1,2.3,8.1,1.3,10.6-0.2c1.8-1.1,2.1-1.1,4,0.5
	c2.5,2.1,7.1,2,9.9,0.6c1.2-0.6,1.5-0.7,3.5-0.5c2.8,0.3,6.6-1.5,6-4.8c-0.2-1.5-0.2-1.8,1-3.2c2.7-2.9,0.9-7.1-2.5-8.5
	c-1.5-0.6-1.9-1.1-2.8-3.2c-1.7-4.3-7.5-7.1-12-6c-1.7,0.4-1.9,0.2-3.7-0.6c-4-1.8-9.6,0.2-11.7,4.1c-0.5,0.8-0.2,1.2,0.8,2.5
	c1,1.2,1.6,2.8,1.6,4.6c0,1,0.1,1,1.1,1c0.9,0,1.8,0.1,2.6,0.3c1.3,0.4,1.5,0.4,2.4-0.1c5.6-3.2,13.1-1.5,16.4,4.3
	c0.6,1.1-1,2.1-1.7,1c-2.7-4.8-9-6.2-13.8-3.5c-1.8,1-1.9,0.8-3.9,0.3c-2.6-0.7-6,0.4-7.5,2.6c-1.2,1.7-1.3,1.7-3.3,2.3
	c-5.1,1.4-7.9,7.4-6.3,12.2c0.6,1.9,1.9,3.5,3.6,4.5c1.6,1,1.7,1.3,2.4,3.1c1.3,3.6,5.6,4.6,9,3.4c2.3-0.8,2.3-0.8,4.7-0.3
	c2.2,0.4,5-0.2,6.9-1.5c1.9-1.3,2.3-1.4,4.3-1.3c3.1,0.2,6.9-2.5,6.4-5.8c-0.2-1.3,1.7-1.5,1.9-0.3c0.6,4.4-3.6,8-7.8,8.1
	c-2.2,0.1-2.8,0.3-3.9,1c-2.3,1.5-5.4,2.1-8.1,1.7c-1.8-0.3-2.1-0.3-4,0.3c-4.3,1.4-9.5,0.1-11.2-4.4c-0.5-1.3-0.6-1.6-1.9-2.5
	c-1.1-0.7-2-1.6-2.8-2.7c-1-1.5-1.2-1.4-2.1-0.6c-5.1,4.9-4.1,13.7,2.8,16.6c2.7,1.2,5.9,1.3,8.6,0.1c2.7-1.2,2.9-1.1,5.3,0.2
	c2.9,1.5,6.4,2.1,9.6,1.2C-110.6,59.7-108.9,58.5-107.9,56.4 M-106.7,65.4c-1.2-0.5-2.3-1.2-3.3-2c-1.2-0.9-1.7-1.1-3.6-0.9
	c-1.6,0.2-1.6,0.3-0.8,1.9c2,4,3.5,8.2,5.9,12.1c1.1,1.8,1.4,2.1,3.5,1.7c1.3-0.2,1.7-0.8,1.5-1.9c-0.8-3.5-1.3-5.9-1.5-8.6
	C-105.2,66.1-105.3,66-106.7,65.4 M-140.1,40.4c1-0.9,1.2-1.5,1.1-2.8c-0.4-5.2,2.9-10.7,8.1-12.2c1.3-0.4,1.4-0.3,2.2-1.5
	c0.7-1,1.6-1.8,2.7-2.4c1.3-0.7,1.3-1,1.2-2.2c-0.1-2.5-1.7-4.8-4.2-5.4c-2.1-0.5-2.1-0.5-3.1-2c-2.1-3.3-9.1-2.9-11.5,0.1
	c-1.5,1.8-1.6,2-3.6,2.4c-3.5,0.7-6.2,3.9-5.9,7.6c0.1,1,0.3,1.1,1.9,1.1c5.2-0.1,10.3,6.4,7.3,11.2c-3,4.8-9.3,3-12.3-1.1
	c-0.8-1,0.8-2.2,1.6-1.1c2.1,3,6.9,4.8,9.1,1.2c2.3-3.6-2.3-8.8-6.1-8.2c-1.9,0.3-2,0.3-3.3-0.3c-4.7-2.2-9.6,2.2-8.3,6.9
	c0.4,1.4,0.3,1.4-0.2,3.6c-0.5,2.3,1.4,4.9,3.7,5.4c2.8,0.5,3.1,0.3,3.7,1.2c2.4,3.4,7,4.1,10.7,3C-143,44.1-141.8,41.9-140.1,40.4"
	/>
<g>
	<path fill="#FFFFFF" d="M-153.4,98.9h-4.7V97h1.3v-8h-1.3v-1.9h4.7V89h-1.2v8h1.2L-153.4,98.9L-153.4,98.9z"/>
	<path fill="#FFFFFF" d="M-143.2,98.9h-3.9V97h1v-3.5c0-0.4-0.2-0.8-0.5-1.2c-0.3-0.3-0.7-0.5-1.2-0.5c-0.6,0-1.1,0.2-1.4,0.7
		c-0.3,0.4-0.4,0.7-0.4,1V97h1v1.9h-3.8V97h1v-5h-1.1v-1.9h2.9v1.1c0.6-1,1.4-1.4,2.4-1.4c0.9,0,1.7,0.3,2.2,1
		c0.5,0.6,0.7,1.5,0.7,2.7V97h1V98.9z"/>
	<path fill="#FFFFFF" d="M-135.5,96.3c0,0.9-0.3,1.5-1,2.1c-0.6,0.5-1.3,0.7-2.2,0.7c-0.5,0-0.9-0.1-1.2-0.2c-0.3-0.1-0.7-0.4-1-0.7
		v0.7h-1.5v-2.6h2c0,0.4,0.1,0.7,0.4,0.9s0.6,0.4,1,0.4c0.3,0,0.6-0.1,0.8-0.3c0.2-0.2,0.3-0.5,0.3-0.8c0-0.5-0.4-0.9-1.2-1.1
		c-0.4-0.1-0.8-0.2-1.2-0.3c-0.7-0.2-1.3-0.6-1.6-0.9c-0.4-0.4-0.6-1-0.6-1.6c0-0.8,0.3-1.5,0.9-2c0.6-0.5,1.3-0.7,2.1-0.7
		c0.4,0,0.8,0.1,1,0.2c0.3,0.1,0.6,0.3,0.9,0.6v-0.5h1.5v2.3h-1.9c0-0.3-0.1-0.6-0.3-0.7c-0.2-0.2-0.5-0.3-0.8-0.3
		c-0.3,0-0.6,0.1-0.7,0.2c-0.2,0.2-0.3,0.4-0.3,0.7c0,0.4,0.2,0.6,0.6,0.8c0.2,0.1,0.6,0.3,1.1,0.4c0.4,0.1,0.7,0.2,1.1,0.3
		c0.5,0.2,1,0.5,1.3,0.9C-135.7,95.2-135.5,95.7-135.5,96.3z"/>
	<path fill="#FFFFFF" d="M-130.3,98.9h-4.2V97h1.1v-5h-1.1v-1.9h3.2V97h1L-130.3,98.9L-130.3,98.9z M-131.3,89h-2v-1.9h2V89z"/>
	<path fill="#FFFFFF" d="M-119,92h-1.1l0,6.1c0,1.5-0.5,2.6-1.5,3.4c-0.8,0.7-1.8,1-3,1c-0.6,0-1.1-0.1-1.6-0.2
		c-0.6-0.2-1.1-0.4-1.5-0.8c-0.5-0.4-0.9-1.1-1.2-1.9h2.3c0.2,0.4,0.5,0.6,0.9,0.8s0.8,0.3,1.3,0.3c0.6,0,1.2-0.2,1.7-0.7
		c0.4-0.4,0.6-0.9,0.6-1.4v-1c-0.5,0.5-0.9,0.9-1.2,1c-0.4,0.2-0.9,0.3-1.6,0.3c-1.3,0-2.4-0.5-3.3-1.4c-0.8-0.9-1.2-1.9-1.2-3.2
		c0-1.2,0.5-2.2,1.4-3.2c0.9-0.9,1.9-1.3,3-1.3c0.7,0,1.3,0.1,1.8,0.4c0.3,0.2,0.7,0.5,1.2,1.1v-1.3h3L-119,92L-119,92z M-122,94.5
		c0-0.7-0.3-1.3-0.8-1.9c-0.5-0.5-1.2-0.8-1.9-0.8c-0.7,0-1.4,0.3-1.9,0.8c-0.5,0.5-0.8,1.2-0.8,1.9c0,0.7,0.3,1.4,0.8,1.9
		c0.5,0.5,1.2,0.8,1.9,0.8c0.7,0,1.4-0.3,1.9-0.8C-122.2,95.8-122,95.2-122,94.5z"/>
	<path fill="#FFFFFF" d="M-108,98.9h-4.2V97h1.1v-3.4c0-0.5-0.2-0.9-0.5-1.2c-0.4-0.3-0.8-0.5-1.3-0.5s-0.9,0.2-1.3,0.5
		s-0.6,0.7-0.6,1.2V97h1.1v1.9h-4.2V97h1.1v-8h-1.1v-1.9h3.1l0,4.3c0.6-1,1.5-1.5,2.6-1.5c0.8,0,1.5,0.3,2.1,0.9
		c0.6,0.6,0.9,1.3,0.9,2V97h1.2L-108,98.9L-108,98.9z"/>
	<path fill="#FFFFFF" d="M-102.4,98.9h-3.3V92h-1.3v-1.9h1.3v-3h1.9v3h1.4V92h-1.4v5h1.5L-102.4,98.9L-102.4,98.9z"/>
	<path fill="#FFFFFF" d="M-94.7,96.3c0,0.9-0.3,1.5-1,2.1c-0.6,0.5-1.3,0.7-2.2,0.7c-0.5,0-0.9-0.1-1.2-0.2c-0.3-0.1-0.7-0.4-1-0.7
		v0.7h-1.5v-2.6h2c0,0.4,0.1,0.7,0.4,0.9s0.6,0.4,1,0.4c0.3,0,0.6-0.1,0.8-0.3c0.2-0.2,0.3-0.5,0.3-0.8c0-0.5-0.4-0.9-1.1-1.1
		c-0.4-0.1-0.8-0.2-1.2-0.3c-0.7-0.2-1.3-0.6-1.6-0.9c-0.4-0.4-0.6-1-0.6-1.6c0-0.8,0.3-1.5,0.9-2c0.6-0.5,1.3-0.7,2.1-0.7
		c0.4,0,0.8,0.1,1,0.2c0.3,0.1,0.6,0.3,0.9,0.6v-0.5h1.5v2.3h-1.9c0-0.3-0.1-0.6-0.3-0.7c-0.2-0.2-0.5-0.3-0.8-0.3
		c-0.3,0-0.6,0.1-0.7,0.2c-0.2,0.2-0.3,0.4-0.3,0.7c0,0.4,0.2,0.6,0.6,0.8c0.2,0.1,0.6,0.3,1.1,0.4c0.4,0.1,0.7,0.2,1.1,0.3
		c0.5,0.2,1,0.5,1.3,0.9C-94.9,95.2-94.7,95.7-94.7,96.3z"/>
</g>
</svg>
