<?xml version="1.0" encoding="utf-8"?>
<!-- Generator: Adobe Illustrator 18.1.0, SVG Export Plug-In . SVG Version: 6.00 Build 0)  -->
<!DOCTYPE svg PUBLIC "-//W3C//DTD SVG 1.1//EN" "http://www.w3.org/Graphics/SVG/1.1/DTD/svg11.dtd">
<svg version="1.1" id="Layer_1" xmlns="http://www.w3.org/2000/svg" xmlns:xlink="http://www.w3.org/1999/xlink" x="0px" y="0px"
	 width="400px" height="400px" viewBox="-197.5 -154.5 400 400" enable-background="new -197.5 -154.5 400 400"
	 xml:space="preserve">
<circle opacity="0.87" fill="#2DACD8" enable-background="new    " cx="2.5" cy="45.5" r="200"/>
<path fill="#FFFFFF" d="M80.9-28.7c-17.4,0-31.5,14.1-31.5,31.5c0,8.9,3.7,17,9.7,22.7L13.2,73.3c-3.5-1.7-7.5-2.7-11.7-2.7
	c-3,0-6,0.5-8.7,1.5l-14.6-37.3c6.5-4.2,10.8-11.4,10.8-19.7c0-12.9-10.5-23.4-23.4-23.4c-12.9,0-23.4,10.5-23.4,23.4
	c0,4.1,1,7.9,2.9,11.2l-32,34.9c-1.8-0.6-3.7-1-5.7-1c-9.3,0-16.9,7.5-16.9,16.9c0,9.3,7.6,16.9,16.9,16.9c9.3,0,16.9-7.5,16.9-16.9
	c0-4.2-1.5-8-4-10.9L-49.4,33c4.1,3.4,9.3,5.4,15,5.4c1.3,0,2.6-0.1,3.9-0.3l15.1,38.6c-5.9,4.9-9.6,12.2-9.6,20.5
	c0,14.7,11.9,26.5,26.5,26.5c14.7,0,26.5-11.9,26.5-26.5c0-7.1-2.8-13.5-7.3-18.2l46-47.9c4.3,2.1,9.1,3.4,14.2,3.4
	c17.4,0,31.5-14.1,31.5-31.5C112.4-14.6,98.3-28.7,80.9-28.7z"/>
<g>
	<path fill="#FFFFFF" d="M-13.9,187.2c0,2.8-0.9,5.2-2.6,7.2c-1.8,2.1-4,3.2-6.6,3.2H-34v-3.3h2.3v-14.3h-2.2v-3.3h10.7
		c2.6,0,4.9,1.1,6.6,3.2C-14.8,182-13.9,184.4-13.9,187.2z M-18.1,187.1c0-1.8-0.5-3.4-1.5-4.7c-1.1-1.4-2.4-2.1-4-2.1h-4.4V194h4.3
		c1.7,0,3-0.7,4.1-2.1C-18.6,190.5-18.1,188.9-18.1,187.1z"/>
	<path fill="#FFFFFF" d="M6.3,185.3h-2v9h1.9v3.3H0.8v-2c-0.8,0.8-1.5,1.4-2.3,1.8c-0.8,0.4-1.7,0.6-2.7,0.6c-2.3,0-4.2-0.8-5.7-2.5
		c-1.5-1.6-2.3-3.6-2.3-5.9c0-2.2,0.8-4.1,2.5-5.7c1.7-1.6,3.5-2.4,5.6-2.4c1.2,0,2.1,0.2,2.9,0.7c0.5,0.3,1.2,1,2,1.9V182h5.6
		L6.3,185.3L6.3,185.3z M0.8,189.6c0-1.3-0.5-2.4-1.4-3.3c-0.9-0.9-2.1-1.3-3.4-1.3c-1.3,0-2.4,0.5-3.3,1.4c-0.9,1-1.4,2.1-1.4,3.4
		c0,1.3,0.5,2.4,1.4,3.3c0.9,0.9,2,1.4,3.3,1.4c1.3,0,2.4-0.5,3.4-1.4C0.3,192.1,0.8,191,0.8,189.6z"/>
	<path fill="#FFFFFF" d="M16.3,197.6h-6v-12.3H8.1V182h2.3v-5.3h3.4v5.3h2.4v3.3h-2.5v9h2.6L16.3,197.6L16.3,197.6z"/>
	<path fill="#FFFFFF" d="M36.6,185.3h-2v9h1.9v3.3h-5.4v-2c-0.8,0.8-1.5,1.4-2.3,1.8c-0.8,0.4-1.7,0.6-2.7,0.6
		c-2.3,0-4.2-0.8-5.7-2.5c-1.5-1.6-2.3-3.6-2.3-5.9c0-2.2,0.8-4.1,2.5-5.7c1.7-1.6,3.5-2.4,5.6-2.4c1.2,0,2.1,0.2,2.9,0.7
		c0.5,0.3,1.2,1,2,1.9V182h5.6L36.6,185.3L36.6,185.3z M31.1,189.6c0-1.3-0.5-2.4-1.4-3.3c-0.9-0.9-2.1-1.3-3.4-1.3
		c-1.3,0-2.4,0.5-3.3,1.4c-0.9,1-1.4,2.1-1.4,3.4c0,1.3,0.5,2.4,1.4,3.3c0.9,0.9,2,1.4,3.3,1.4c1.3,0,2.4-0.5,3.4-1.4
		C30.6,192.1,31.1,191,31.1,189.6z"/>
</g>
</svg>
