<?xml version="1.0" encoding="utf-8"?>
<!-- Generator: Adobe Illustrator 18.1.0, SVG Export Plug-In . SVG Version: 6.00 Build 0)  -->
<svg version="1.1" id="Layer_1" xmlns="http://www.w3.org/2000/svg" xmlns:xlink="http://www.w3.org/1999/xlink" x="0px" y="0px"
	 width="400px" height="400px" viewBox="100 -100 400 400" enable-background="new 100 -100 400 400" xml:space="preserve">
<ellipse opacity="0.87" fill="#2DACD8" enable-background="new    " cx="300" cy="100" rx="200.1" ry="200"/>
<path fill="#FFFFFF" d="M379.3,23.9c-17.4,0-31.6,14.2-31.6,31.6c0,9,3.8,17,9.6,22.6l-45.8,47.8c-3.6-1.8-7.6-2.8-11.8-2.8
	c-3,0-6,0.6-8.6,1.4l-14.6-37.4c6.4-4.2,10.8-11.4,10.8-19.6c0-12.8-10.4-23.4-23.4-23.4c-12.8,0-23.4,10.4-23.4,23.4
	c0,4,1,7.8,2.8,11.2l-32,34.8c-1.8-0.6-3.6-1-5.6-1c-9.4,0-16.8,7.6-16.8,16.8c0,9.4,7.6,16.8,16.8,16.8c9.4,0,16.8-7.6,16.8-16.8
	c0-4.2-1.6-8-4-11l30.4-32.8c4,3.4,9.2,5.4,15,5.4c1.4,0,2.6-0.2,3.8-0.4l15.2,38.6c-5.8,4.8-9.6,12.2-9.6,20.4
	c0,14.6,11.8,26.6,26.6,26.6c14.6,0,26.6-11.8,26.6-26.6c0-7-2.8-13.4-7.2-18.2l46-47.8c4.2,2.2,9,3.4,14.2,3.4
	c17.4,0,31.6-14.2,31.6-31.6C411,38.1,396.8,23.9,379.3,23.9z"/>
<g id="Layer_1_1_">
</g>
</svg>
