<?xml version="1.0" encoding="utf-8"?>
<!-- Generator: Adobe Illustrator 18.1.0, SVG Export Plug-In . SVG Version: 6.00 Build 0)  -->
<!DOCTYPE svg PUBLIC "-//W3C//DTD SVG 1.1//EN" "http://www.w3.org/Graphics/SVG/1.1/DTD/svg11.dtd">
<svg version="1.1" id="Layer_1" xmlns="http://www.w3.org/2000/svg" xmlns:xlink="http://www.w3.org/1999/xlink" x="0px" y="0px"
	 width="400px" height="400px" viewBox="-197.5 -154.5 400 400" enable-background="new -197.5 -154.5 400 400"
	 xml:space="preserve">
<circle fill="#028ABF" cx="2.5" cy="45.5" r="200"/>
<path fill="#FFFFFF" d="M-15.4,87.8c-0.8,2.6-1.9,5-3.1,7.4l6,12.5c-3.5,4.8-7.7,9-12.5,12.5l-12.5-5.9c-2.3,1.2-4.8,2.3-7.4,3.1
	l-4.6,13c-2.9,0.4-5.8,0.7-8.8,0.7c-3,0-5.9-0.2-8.8-0.7l-4.6-13c-2.6-0.8-5-1.9-7.4-3.1l-12.5,5.9c-4.8-3.5-9-7.7-12.5-12.5
	l5.9-12.5c-1.2-2.3-2.2-4.8-3.1-7.4l-13.1-4.6c-0.4-2.9-0.7-5.8-0.7-8.8c0-3,0.3-5.9,0.7-8.8l13.1-4.7c0.8-2.6,1.9-5,3.1-7.4
	l-5.9-12.5c3.5-4.8,7.7-9,12.5-12.5l12.5,6c2.3-1.2,4.8-2.3,7.4-3.1l4.6-13.1c2.9-0.4,5.8-0.6,8.8-0.6c3,0,5.9,0.2,8.8,0.6l4.6,13.1
	c2.6,0.8,5,1.9,7.4,3.1l12.5-6c4.7,3.5,9,7.7,12.5,12.5l-6,12.5c1.2,2.3,2.3,4.8,3.1,7.4l13.1,4.7c0.4,2.9,0.7,5.8,0.7,8.8
	c0,3-0.2,6-0.7,8.8L-15.4,87.8z M-37,74.3C-37,62.5-46.6,53-58.4,53c-11.8,0-21.3,9.6-21.3,21.3c0,11.8,9.6,21.3,21.3,21.3
	C-46.6,95.6-37,86.1-37,74.3z"/>
<path fill="#FFFFFF" d="M103,29c-1,3.2-2.3,6.3-3.9,9.3l7.5,15.8C102.3,60.2,97,65.5,91,69.9l-15.8-7.5c-3,1.5-6.1,2.9-9.3,3.9
	L60,82.7c-3.6,0.6-7.3,0.9-11.1,0.9c-3.8,0-7.5-0.3-11.1-0.9l-5.9-16.5c-3.2-1-6.3-2.3-9.3-3.9L6.8,69.9c-6-4.4-11.4-9.7-15.7-15.8
	l7.5-15.8c-1.6-3-2.9-6.1-3.9-9.3l-16.5-5.8c-0.6-3.7-0.9-7.3-0.9-11.1c0-3.8,0.3-7.5,0.9-11.1l16.5-5.9c1-3.2,2.3-6.3,3.9-9.3
	L-8.9-30C-4.5-36,0.8-41.4,6.8-45.7l15.8,7.5c3-1.6,6-2.9,9.3-3.9l5.9-16.5c3.6-0.6,7.3-0.9,11.1-0.9c3.8,0,7.5,0.3,11.1,0.9
	l5.9,16.5c3.2,1,6.3,2.3,9.3,3.9L91-45.7c6,4.4,11.4,9.7,15.7,15.8l-7.5,15.8c1.6,3,2.9,6.1,3.9,9.3L119.5,1
	c0.6,3.6,0.9,7.3,0.9,11.1c0,3.8-0.3,7.5-0.9,11.1L103,29z M75.8,12.1c0-14.9-12.1-26.9-26.9-26.9C34-14.8,22-2.8,22,12.1
	C22,27,34,39,48.9,39C63.8,39,75.8,27,75.8,12.1z"/>
<path fill="#FFFFFF" d="M-54.1-12.6c-0.4,1.9-0.9,3.7-1.6,5.5l5.1,8.4c-2.1,3.7-4.8,6.9-7.9,9.8l-9.3-3.3c-1.6,1-3.3,2-5,2.7
	l-2.4,9.6c-2,0.5-4.1,0.9-6.2,1.1c-2.1,0.2-4.2,0.3-6.3,0.2l-4.3-8.9c-1.9-0.4-3.7-1-5.4-1.6l-8.4,5.2c-3.7-2.1-7-4.8-9.8-8l3.3-9.3
	c-1.1-1.6-2-3.3-2.7-5l-9.6-2.3c-0.5-2-0.9-4.1-1.1-6.2c-0.2-2.1-0.3-4.2-0.2-6.3l8.9-4.3c0.4-1.9,0.9-3.7,1.6-5.4l-5.1-8.4
	c2.1-3.7,4.8-7,7.9-9.8l9.3,3.3c1.6-1.1,3.2-2,5-2.7l2.4-9.6c2-0.5,4.1-0.9,6.2-1.1c2.1-0.2,4.2-0.3,6.3-0.2l4.3,8.9
	c1.9,0.4,3.7,0.9,5.5,1.6l8.4-5.2c3.7,2.1,6.9,4.8,9.8,8l-3.3,9.3c1.1,1.6,2,3.2,2.7,5l9.6,2.4c0.5,2,0.9,4.1,1.1,6.2
	c0.2,2.1,0.3,4.2,0.2,6.3L-54.1-12.6z M-70.4-20.5c-0.9-8.4-8.3-14.5-16.7-13.6c-8.4,0.9-14.5,8.3-13.6,16.7C-99.9-9-92.4-3-84-3.8
	C-75.6-4.7-69.6-12.2-70.4-20.5z"/>
<g>
	<path fill="#FFFFFF" d="M-66.9,186.9c-0.8,2.3-2.2,4.1-4.2,5.5c-1.9,1.3-4,2-6.1,2c-3.1,0-5.7-1.1-7.9-3.4c-2.2-2.2-3.3-4.9-3.3-8
		c0-3,1.1-5.7,3.3-7.9c2.2-2.2,4.7-3.4,7.6-3.4c1.5,0,2.7,0.2,3.7,0.6c0.9,0.4,1.9,1,3,2v-2.1h3.4v6.9h-3.9
		c-0.7-1.1-1.5-1.9-2.6-2.5c-1.1-0.6-2.2-0.9-3.4-0.9c-2,0-3.7,0.7-5,2.1c-1.3,1.4-2,3.1-2,5.1c0,2,0.7,3.6,2.1,5
		c1.4,1.4,3.1,2.1,5,2.1c1.1,0,2.2-0.3,3.2-0.8c1.1-0.6,1.9-1.4,2.6-2.4L-66.9,186.9L-66.9,186.9z"/>
	<path fill="#FFFFFF" d="M-47.9,185.6c0,2.5-0.8,4.5-2.5,6.1c-1.7,1.6-3.7,2.4-6.1,2.4c-2.4,0-4.4-0.8-6.1-2.5
		c-1.7-1.7-2.5-3.7-2.5-6c0-2.4,0.9-4.3,2.6-6c1.7-1.6,3.8-2.4,6.2-2.4c2.4,0,4.4,0.8,6.1,2.4C-48.7,181.3-47.9,183.3-47.9,185.6z
		 M-51.6,185.7c0-1.3-0.5-2.5-1.4-3.4c-1-0.9-2.1-1.4-3.5-1.4c-1.4,0-2.5,0.5-3.5,1.4c-1,0.9-1.5,2-1.5,3.3c0,1.4,0.5,2.5,1.4,3.5
		c1,1,2.1,1.5,3.4,1.5c1.4,0,2.6-0.5,3.5-1.4C-52.1,188.2-51.6,187.1-51.6,185.7z"/>
	<path fill="#FFFFFF" d="M-18,193.9h-7.8v-3.4h2.1v-6.5c0-0.8-0.3-1.6-1-2.2c-0.6-0.6-1.4-0.9-2.2-0.9c-0.9,0-1.7,0.3-2.3,0.9
		c-0.6,0.6-0.9,1.3-0.9,2.2v6.5h2v3.4H-36v-3.4h2.1V184c0-0.9-0.3-1.6-0.9-2.2c-0.6-0.6-1.3-0.9-2.1-0.9c-1,0-1.9,0.4-2.6,1.2
		c-0.6,0.7-0.9,1.4-0.9,2.1v6.3h2v3.4h-7.8v-3.4h2.1v-9.3h-2v-3.4h5.4v2.3c0.5-0.9,1.1-1.6,2-2.1c0.8-0.5,1.7-0.7,2.6-0.7
		c1.1,0,2.2,0.3,3.1,1c0.9,0.6,1.5,1.4,1.9,2.4c0.5-1.1,1.2-2,2.1-2.6c0.9-0.6,2-0.9,3.2-0.9c1.6,0,2.9,0.5,4.1,1.6s1.7,2.3,1.7,3.9
		v7.8h2L-18,193.9L-18,193.9z"/>
	<path fill="#FFFFFF" d="M3.8,185.7c0,2.3-0.8,4.3-2.5,5.9c-1.6,1.6-3.6,2.5-5.9,2.5c-1.2,0-2.3-0.2-3.1-0.6c-0.9-0.4-1.7-1.1-2.6-2
		v4.7h2.2v3.6h-8.2v-3.6h2.2v-15.1h-2v-3.4h6v2.4c0.8-1,1.6-1.6,2.4-2c0.9-0.5,1.9-0.7,3.1-0.7c2.3,0,4.3,0.8,6,2.5
		C3,181.4,3.8,183.4,3.8,185.7z M-0.2,185.6c0-1.3-0.5-2.5-1.5-3.4s-2.2-1.4-3.5-1.4c-1.4,0-2.6,0.5-3.6,1.4c-1,1-1.5,2.1-1.5,3.5
		c0,1.4,0.5,2.5,1.5,3.5c1,1,2.2,1.4,3.6,1.4s2.6-0.5,3.6-1.5C-0.7,188.2-0.2,187-0.2,185.6z"/>
	<path fill="#FFFFFF" d="M23.4,193.9h-5.3v-2.1c-0.6,0.8-1.3,1.5-2.3,1.9c-0.8,0.4-1.8,0.6-2.7,0.6c-1.7,0-3-0.6-4-1.7
		c-1-1.2-1.5-2.7-1.5-4.7v-6.7h-2v-3.4h5.6v9.9c0,0.9,0.3,1.7,0.9,2.3s1.3,1,2.2,1c1.1,0,2.1-0.4,2.8-1.3c0.6-0.7,0.9-1.4,0.9-2.2
		v-6.3h-2v-3.4h5.6v12.7h2L23.4,193.9L23.4,193.9z"/>
	<path fill="#FFFFFF" d="M33.7,193.9h-6.2v-12.7h-2.4v-3.4h2.4v-5.5H31v5.5h2.5v3.4H31v9.3h2.7L33.7,193.9L33.7,193.9z"/>
	<path fill="#FFFFFF" d="M43.2,193.9h-7.8v-3.4h2.1v-9.3h-2v-3.4h5.8v12.7h1.9L43.2,193.9L43.2,193.9z M41.3,175.7h-3.6v-3.5h3.6
		V175.7z"/>
	<path fill="#FFFFFF" d="M61.9,193.9h-7.2v-3.4h1.9v-6.5c0-0.8-0.3-1.5-0.9-2.1c-0.6-0.6-1.3-0.9-2.1-0.9c-1.1,0-2,0.4-2.6,1.3
		c-0.5,0.7-0.7,1.3-0.7,1.9v6.3h1.8v3.4H45v-3.4h1.9v-9.3h-1.9v-3.4h5.3v2.1c1.1-1.8,2.5-2.6,4.4-2.6c1.7,0,3.1,0.6,4,1.8
		c0.9,1.2,1.4,2.8,1.4,4.9v6.5h1.9L61.9,193.9L61.9,193.9z"/>
	<path fill="#FFFFFF" d="M82.6,181.1h-2.1l0,11.3c0,2.7-0.9,4.8-2.7,6.3c-1.5,1.3-3.4,1.9-5.5,1.9c-1.1,0-2.1-0.1-2.9-0.3
		c-1.1-0.3-2-0.8-2.8-1.5c-0.9-0.8-1.6-2-2.2-3.4h4.3c0.4,0.7,1,1.2,1.6,1.6c0.6,0.4,1.4,0.5,2.4,0.5c1.2,0,2.2-0.4,3-1.3
		c0.8-0.8,1.2-1.7,1.2-2.7v-1.8c-0.9,1-1.6,1.6-2.2,1.9c-0.7,0.4-1.7,0.6-3,0.6c-2.5,0-4.5-0.8-6-2.5c-1.5-1.6-2.2-3.6-2.2-5.9
		c0-2.2,0.9-4.1,2.6-5.8c1.7-1.7,3.5-2.5,5.5-2.5c1.4,0,2.4,0.2,3.2,0.7c0.6,0.3,1.4,1,2.2,2v-2.3h5.5L82.6,181.1L82.6,181.1z
		 M77.2,185.7c0-1.3-0.5-2.5-1.5-3.4s-2.1-1.4-3.5-1.4c-1.4,0-2.5,0.5-3.5,1.4c-1,1-1.4,2.1-1.4,3.5c0,1.4,0.5,2.5,1.5,3.5
		c1,1,2.2,1.5,3.5,1.5c1.3,0,2.5-0.5,3.4-1.5C76.7,188.3,77.2,187.1,77.2,185.7z"/>
</g>
</svg>
