<?xml version="1.0" encoding="utf-8"?>
<!-- Generator: Adobe Illustrator 18.1.0, SVG Export Plug-In . SVG Version: 6.00 Build 0)  -->
<svg version="1.1" id="Layer_1" xmlns="http://www.w3.org/2000/svg" xmlns:xlink="http://www.w3.org/1999/xlink" x="0px" y="0px"
	 width="236.2px" height="231.3px" viewBox="-17 61.7 236.2 231.3" enable-background="new -17 61.7 236.2 231.3"
	 xml:space="preserve">
<path fill="#2DACD8" d="M189,130.5h24.3c3.2,0,5.9,3.6,5.9,8s-2.7,8-5.9,8H189"/>
<path fill="#2DACD8" d="M189,170.9h24.3c3.2,0,5.9,3.6,5.9,8c0,4.4-2.7,8-5.9,8H189"/>
<path fill="#2DACD8" d="M189,211.2h24.3c3.2,0,5.9,3.6,5.9,8s-2.7,8-5.9,8H189"/>
<path fill="#2DACD8" d="M53.6,91.4V66.7c0-3.3,3.5-6,7.8-6c4.3,0,7.8,2.7,7.8,6v24.7"/>
<path fill="#2DACD8" d="M93.3,91.4V66.7c0-3.3,3.5-6,7.8-6s7.8,2.7,7.8,6v24.7"/>
<path fill="#2DACD8" d="M132.9,91.4V66.7c0-3.3,3.5-6,7.8-6c4.3,0,7.8,2.7,7.8,6v24.7"/>
<path fill="#2DACD8" d="M69.3,261.3V286c0,3.3-3.5,6-7.8,6s-7.8-2.7-7.8-6v-24.7"/>
<path fill="#2DACD8" d="M108.9,261.3V286c0,3.3-3.5,6-7.8,6c-4.3,0-7.8-2.7-7.8-6v-24.7"/>
<path fill="#2DACD8" d="M148.5,261.3V286c0,3.3-3.5,6-7.8,6s-7.8-2.7-7.8-6v-24.7"/>
<path fill="#2DACD8" d="M13.2,146.4h-24.3c-3.2,0-5.9-3.6-5.9-8c0-4.4,2.7-8,5.9-8h24.3"/>
<path fill="#2DACD8" d="M13.2,186.8h-24.3c-3.2,0-5.9-3.6-5.9-8s2.7-8,5.9-8h24.3"/>
<path fill="#2DACD8" d="M13.2,227.1h-24.3c-3.2,0-5.9-3.6-5.9-8s2.7-8,5.9-8h24.3"/>
<path fill="#2DACD8" d="M157.4,129.1c0-3.7-2.5-6.8-5.5-6.8H50.3c-3,0-5.5,3-5.5,6.8v95.4c0,3.7,2.5,6.8,5.5,6.8h101.6
	c3,0,5.5-3,5.5-6.8V129.1z M185.2,248.1c0,5.6-3.7,10.1-8.2,10.1H25.2c-4.5,0-8.2-4.5-8.2-10.1V105.5c0-5.5,3.7-10.1,8.2-10.1H177
	c4.5,0,8.2,4.5,8.2,10.1V248.1z"/>
<path fill="#F19126" d="M108.2,174c9.3-4.4,15.9-13.9,15.9-24.8v-8.5H78.2v8.5c0,11,6.5,20.5,15.9,24.8c0.9,0.4,1.5,1.3,1.5,2.3
	s-0.5,1.9-1.5,2.3c-9.3,4.4-15.9,13.9-15.9,24.8v8.5h45.9v-8.5c0-11-6.5-20.5-15.9-24.8c-0.9-0.4-1.5-1.3-1.5-2.3
	S107.3,174.4,108.2,174z M118.2,203.5v2.6h-1.4l-12-7.5c-2.3-1.4-5.1-1.4-7.4,0l-12,7.5H84v-2.6c0-8.4,4.9-16,12.5-19.5
	c2.3-1.1,4-3.1,4.6-5.5c0.6,2.4,2.3,4.4,4.6,5.5C113.2,187.5,118.2,195.1,118.2,203.5z M88.1,161.7c-2.6-3.6-4-7.9-4-12.5v-2.6h34.2
	v2.6c0,4.6-1.5,8.9-4.1,12.5H88.1z"/>
<path fill="#2DACD8" d="M76.4,211.3h49.4c2.2,0,3.9,1.8,3.9,3.9v0.6c0,2.2-1.8,3.9-3.9,3.9H76.4c-2.2,0-3.9-1.8-3.9-3.9v-0.6
	C72.5,213.1,74.2,211.3,76.4,211.3L76.4,211.3z M76.4,132.9h49.4c2.2,0,3.9,1.8,3.9,3.9v0.6c0,2.2-1.8,3.9-3.9,3.9H76.4
	c-2.2,0-3.9-1.8-3.9-3.9v-0.6C72.5,134.7,74.2,132.9,76.4,132.9L76.4,132.9z"/>
</svg>
