<?xml version="1.0" encoding="utf-8"?>
<!-- Generator: Adobe Illustrator 18.1.0, SVG Export Plug-In . SVG Version: 6.00 Build 0)  -->
<svg version="1.1" id="Layer_1" xmlns="http://www.w3.org/2000/svg" xmlns:xlink="http://www.w3.org/1999/xlink" x="0px" y="0px"
	 viewBox="97.8 0 204.4 200" enable-background="new 97.8 0 204.4 200" xml:space="preserve">
<g transform="matrix( 1, 0, 0, 1, 0,0) ">
	<g>
		<g id="Layer0_0_FILL">
			<path fill="#E6E6E6" d="M180.1,76.6c0,4.7,1.3,9,3.8,12.9c2.5,3.8,5.8,6.6,10,8.6c0.9,0.4,1.2,1.1,1.2,2.1c0,0.9-0.4,1.6-1.2,2
				c-4.1,1.9-7.5,4.8-10,8.6c-2.5,3.9-3.8,8.2-3.8,12.9v6.8h39.7v-6.8c0-4.7-1.3-9-3.8-12.9c-2.5-3.8-5.8-6.6-10-8.6
				c-0.9-0.3-1.3-1-1.3-2s0.4-1.6,1.3-2.1c4.1-1.9,7.5-4.8,10-8.6c2.5-3.9,3.8-8.2,3.8-12.9v-6.8h-39.7V76.6 M185.2,76.6v-2.3h29.5
				v2.3c0,4-1.2,7.6-3.4,10.8h-22.6C186.4,84.1,185.2,80.4,185.2,76.6 M214.7,123.4v2.3h-1.2l-10.4-6.4c-1-0.6-2.1-0.9-3.2-0.9
				c-1.1,0-2.2,0.3-3.2,0.9l-10.4,6.4h-1.2v-2.3c0-3.6,0.9-6.9,2.9-10c2-3,4.6-5.4,7.9-6.9c2.1-0.9,3.4-2.6,4-4.8
				c0.5,2.3,1.9,3.8,4,4.8c3.3,1.6,5.9,3.8,7.9,6.9C213.8,116.5,214.7,119.8,214.7,123.4z"/>
		</g>
	</g>
</g>
<g transform="matrix( 1, 0, 0, 1, 0,0) ">
	<g>
		<g id="Layer0_1_FILL">
			<path fill="#E6E6E6" d="M123.9,130.1H103c-1.4,0-2.6,0.7-3.6,2c-1,1.4-1.6,2.9-1.6,4.8c0,1.9,0.5,3.6,1.6,4.8
				c0.9,1.4,2.2,2.1,3.6,2.1h20.9V130.1 M123.9,95.2H103c-1.4,0-2.6,0.7-3.6,2.1c-1,1.4-1.6,2.9-1.6,4.8s0.5,3.4,1.6,4.8
				c0.9,1.4,2.2,2,3.6,2h20.9V95.2 M97.9,67.2c0,1.9,0.5,3.4,1.6,4.8c0.9,1.4,2.2,2.1,3.6,2.1H124V60.3h-20.9
				c-1.4,0-2.6,0.7-3.6,2.1C98.4,63.7,97.9,65.3,97.9,67.2 M172.4,194.8v-21.3H159v21.3c0,1.5,0.7,2.7,2,3.6c1.3,1,2.9,1.6,4.8,1.6
				c1.9,0,3.4-0.5,4.8-1.6C171.8,197.4,172.4,196.2,172.4,194.8 M206.6,173.5h-13.5v21.3c0,1.4,0.7,2.6,2,3.6c1.3,1,2.9,1.6,4.8,1.6
				c1.8,0,3.4-0.5,4.8-1.6c1.3-1,2-2.3,2-3.6v-21.3 M241,173.5h-13.5v21.3c0,1.5,0.7,2.7,2,3.6c1.3,1,2.9,1.6,4.8,1.6
				c1.9,0,3.4-0.5,4.8-1.6c1.3-1,2-2.3,2-3.6v-21.3 M300.6,132.1c-0.9-1.4-2.2-2-3.6-2h-21v13.8h21c1.4,0,2.6-0.7,3.6-2.1
				c1-1.4,1.5-2.9,1.6-4.8C302,135.1,301.6,133.5,300.6,132.1 M172.4,26.5V5.1c0-1.4-0.7-2.7-2-3.6c-1.3-1-2.9-1.6-4.8-1.6
				c-1.8,0-3.4,0.5-4.8,1.6c-1.3,1-2,2.3-2,3.6v21.5L172.4,26.5 M300.6,97.3c-0.9-1.4-2.2-2.1-3.6-2.1h-21v13.8h21
				c1.4,0,2.6-0.7,3.6-2c1-1.4,1.5-2.9,1.6-4.8C302,100.2,301.6,98.6,300.6,97.3 M276,60.3v13.8h21c1.4,0,2.6-0.7,3.6-2.1
				c1-1.4,1.5-2.9,1.6-4.8c0-1.9-0.5-3.6-1.6-4.8c-0.9-1.4-2.2-2.1-3.6-2.1L276,60.3 M270.7,32.6c-1.4-1.7-3.1-2.6-5.1-2.6H134.3
				c-2,0-3.6,0.9-5,2.6c-1.4,1.7-2.2,3.8-2.2,6.1V162c0,2.4,0.7,4.4,2.2,6.1c1.4,1.7,3,2.5,5,2.5h131.3c2,0,3.6-0.9,5.1-2.5
				c1.4-1.7,2.1-3.7,2.1-6.1V38.7C272.7,36.3,272,34.3,270.7,32.6 M247.2,55c0.9,1.1,1.4,2.5,1.4,4.1v82.5c0,1.6-0.4,3-1.4,4.1
				c-0.9,1.1-2.1,1.6-3.4,1.6H156c-1.3,0-2.4-0.5-3.4-1.6c-0.9-1.1-1.4-2.5-1.4-4.1V59.1c0-1.6,0.4-2.9,1.4-4.1
				c0.9-1.1,2.1-1.7,3.4-1.7h87.9C245.2,53.3,246.4,53.9,247.2,55 M223.7,131.2c-0.5-0.5-1.1-0.9-1.8-0.9c-0.2,0-0.3,0-0.5-0.1
				h-42.9c-0.2,0-0.3,0-0.4,0.1c-0.7,0.1-1.3,0.4-1.8,0.9c-0.7,0.7-1,1.5-1,2.4v0.5c0,0.9,0.3,1.7,1,2.4s1.5,1,2.4,1h42.7
				c0.9,0,1.7-0.3,2.4-1s0.9-1.5,0.9-2.4v-0.5C224.7,132.7,224.4,131.9,223.7,131.2 M176.2,63.4c-0.7,0.7-1,1.5-1,2.4v0.5
				c0,0.9,0.3,1.7,1,2.4c0.3,0.3,0.8,0.6,1.2,0.8c0.3,0.2,0.8,0.2,1.2,0.2h1.6v0.1h39.7v-0.1h1.6c0.4,0,0.9-0.1,1.2-0.2
				c0.4-0.2,0.8-0.4,1.2-0.8c0.7-0.7,0.9-1.5,0.9-2.4v-0.5c0-0.9-0.3-1.7-0.9-2.4c-0.6-0.7-1.5-0.9-2.4-0.9h-42.7
				C177.7,62.4,176.9,62.8,176.2,63.4 M229.4,1.5c-1.3,1-2,2.3-2,3.6v21.5h13.5V5.1c0-1.4-0.7-2.7-2-3.6c-1.3-1-2.9-1.6-4.8-1.6
				C232.4-0.1,230.8,0.4,229.4,1.5 M195.2,1.5c-1.3,1-2,2.3-2,3.6v21.5h13.5V5.1c0-1.4-0.7-2.7-2-3.6c-1.3-1-2.9-1.6-4.8-1.6
				C198.1-0.1,196.4,0.4,195.2,1.5z"/>
		</g>
	</g>
</g>
</svg>
