<?xml version="1.0" encoding="utf-8"?>
<!-- Generator: Adobe Illustrator 18.1.0, SVG Export Plug-In . SVG Version: 6.00 Build 0)  -->
<svg version="1.1" id="Layer_1" xmlns="http://www.w3.org/2000/svg" xmlns:xlink="http://www.w3.org/1999/xlink" x="0px" y="0px"
	 width="205px" height="200px" viewBox="-2.5 0 205 200" enable-background="new -2.5 0 205 200" xml:space="preserve">
<path fill="#2DACD8" d="M176.4,60.4h21c2.8,0,5.1,3.1,5.1,6.9c0,3.8-2.3,6.9-5.1,6.9h-21"/>
<path fill="#2DACD8" d="M176.4,95.3h21c2.8,0,5.1,3.1,5.1,6.9c0,3.8-2.3,6.9-5.1,6.9h-21"/>
<path fill="#2DACD8" d="M176.4,130.1h21c2.8,0,5.1,3.1,5.1,6.9c0,3.8-2.3,6.9-5.1,6.9h-21"/>
<path fill="#2DACD8" d="M59,26.6V5.2C59,2.3,62,0,65.7,0c3.7,0,6.8,2.3,6.8,5.2v21.4"/>
<path fill="#2DACD8" d="M93.2,26.6V5.2c0-2.9,3-5.2,6.8-5.2c3.7,0,6.8,2.3,6.8,5.2v21.4"/>
<path fill="#2DACD8" d="M127.5,26.6V5.2c0-2.9,3-5.2,6.8-5.2c3.7,0,6.8,2.3,6.8,5.2v21.4"/>
<path fill="#2DACD8" d="M72.5,173.4v21.4c0,2.9-3,5.2-6.8,5.2s-6.8-2.3-6.8-5.2v-21.4"/>
<path fill="#2DACD8" d="M106.8,173.4v21.4c0,2.9-3,5.2-6.8,5.2s-6.8-2.3-6.8-5.2v-21.4"/>
<path fill="#2DACD8" d="M141,173.4v21.4c0,2.9-3,5.2-6.8,5.2c-3.7,0-6.8-2.3-6.8-5.2v-21.4"/>
<path fill="#2DACD8" d="M148.7,59.2c0-3.2-2.1-5.8-4.8-5.8H56.1c-2.6,0-4.8,2.6-4.8,5.8v82.5c0,3.2,2.1,5.8,4.8,5.8h87.9
	c2.6,0,4.8-2.6,4.8-5.8V59.2z M172.8,162c0,4.8-3.2,8.7-7.1,8.7H34.4c-3.9,0-7.1-3.9-7.1-8.7V38.8c0-4.8,3.2-8.7,7.1-8.7h131.3
	c3.9,0,7.1,3.9,7.1,8.7V162z"/>
<path fill="#F19126" d="M80.2,69.2h39.7v7.3c0,9.5-5.6,17.7-13.7,21.5c-0.8,0.4-1.3,1.1-1.3,2c0,0.9,0.5,1.6,1.3,2
	c8.1,3.8,13.7,12,13.7,21.5v7.3H80.2v-7.3c0-9.5,5.6-17.7,13.7-21.5c0.8-0.4,1.3-1.1,1.3-2s-0.5-1.6-1.3-2
	c-8.1-3.8-13.7-12-13.7-21.5V69.2L80.2,69.2z M85.2,74.3h29.5v2.2c0,4-1.3,7.7-3.5,10.8H100H88.7c-2.2-3.1-3.5-6.9-3.5-10.8V74.3
	L85.2,74.3z M100,101.8c0.5,2.1,2,3.8,4,4.8c6.5,3.1,10.8,9.6,10.8,16.9v2.2h-1.2l-10.4-6.4c-2-1.2-4.4-1.2-6.4,0l-10.4,6.4h-1.2
	v-2.2c0-7.2,4.3-13.8,10.8-16.9C98,105.7,99.5,103.9,100,101.8L100,101.8z"/>
<path fill="#2DACD8" d="M78.7,130.2h42.7c1.9,0,3.4,1.5,3.4,3.4v0.5c0,1.9-1.5,3.4-3.4,3.4H78.7c-1.9,0-3.4-1.5-3.4-3.4v-0.5
	C75.3,131.8,76.8,130.2,78.7,130.2L78.7,130.2z M78.7,62.5h42.7c1.9,0,3.4,1.5,3.4,3.4v0.5c0,1.9-1.5,3.4-3.4,3.4H78.7
	c-1.9,0-3.4-1.5-3.4-3.4v-0.5C75.3,64,76.8,62.5,78.7,62.5L78.7,62.5z"/>
<path fill="#2DACD8" d="M23.6,143.9h-21c-2.8,0-5.1-3.1-5.1-6.9c0-3.8,2.3-6.9,5.1-6.9h21"/>
<path fill="#2DACD8" d="M23.6,109h-21c-2.8,0-5.1-3.1-5.1-6.9s2.3-6.9,5.1-6.9h21"/>
<path fill="#2DACD8" d="M23.6,74.2h-21c-2.8,0-5.1-3.1-5.1-6.9c0-3.8,2.3-6.9,5.1-6.9h21"/>
</svg>
