<?xml version="1.0" encoding="utf-8"?>
<!-- Generator: Adobe Illustrator 18.1.0, SVG Export Plug-In . SVG Version: 6.00 Build 0)  -->
<svg version="1.1" id="Layer_1" xmlns="http://www.w3.org/2000/svg" xmlns:xlink="http://www.w3.org/1999/xlink" x="0px" y="0px"
	 width="275px" height="261px" viewBox="2 46 275 261" enable-background="new 2 46 275 261" xml:space="preserve">
<path fill="#2DACD8" d="M241.8,215.8h28.3c3.8,0,6.9,4.1,6.9,9s-3.1,9-6.9,9h-28.3"/>
<path fill="#2DACD8" d="M84.3,80.7V52.8c0-3.7,4.1-6.8,9.1-6.8s9.1,3,9.1,6.8v27.9"/>
<path fill="#2DACD8" d="M130.5,80.7V52.8c0-3.7,4.1-6.8,9.1-6.8s9.1,3,9.1,6.8v27.9"/>
<path fill="#2DACD8" d="M176.5,80.7V52.8c0-3.7,4.1-6.8,9.1-6.8s9.1,3,9.1,6.8v27.9"/>
<path fill="#2DACD8" d="M102.5,272.3v27.9c0,3.7-4.1,6.8-9.1,6.8s-9.1-3-9.1-6.8v-27.9"/>
<path fill="#2DACD8" d="M148.6,272.3v27.9c0,3.7-4.1,6.8-9.1,6.8s-9.1-3-9.1-6.8v-27.9"/>
<path fill="#2DACD8" d="M194.7,272.3v27.9c0,3.7-4.1,6.8-9.1,6.8s-9.1-3-9.1-6.8v-27.9"/>
<path fill="#2DACD8" d="M37.2,142.9H8.9c-3.8,0-6.9-4.1-6.9-9c0-4.9,3.1-9,6.9-9h28.3"/>
<path fill="#2DACD8" d="M37.2,188.2H8.9c-3.8,0-6.9-4.1-6.9-9s3.1-9,6.9-9h28.3"/>
<path fill="#2DACD8" d="M37.2,233.8H8.9c-3.8,0-6.9-4.1-6.9-9s3.1-9,6.9-9h28.3"/>
<path fill="#F19126" d="M147.7,173.9c10.9-4.9,18.5-15.7,18.5-28v-9.5h-53.5v9.5c0,12.4,7.6,23.1,18.5,28c1.1,0.5,1.7,1.5,1.7,2.6
	s-0.6,2.1-1.7,2.6c-10.9,4.9-18.5,15.7-18.5,28v9.5h53.5v-9.4c0-12.4-7.6-23.1-18.5-28c-1.1-0.5-1.7-1.5-1.7-2.6
	C146,175.5,146.7,174.4,147.7,173.9z M159.3,207.1v2.9h-1.6l-14-8.4c-2.7-1.6-5.9-1.6-8.6,0l-14,8.4h-1.6v-2.9c0-9.5,5.7-18,14.5-22
	c2.7-1.3,4.7-3.5,5.4-6.2c0.7,2.7,2.7,5,5.4,6.2C153.6,189.1,159.3,197.6,159.3,207.1z M124.4,160c-3-4.1-4.7-8.9-4.7-14.2v-2.9
	h39.8v2.9c0,5.1-1.7,10.1-4.7,14.2H124.4z"/>
<path fill="#2DACD8" d="M110.8,215.9h57.5c2.5,0,4.6,2,4.6,4.5v0.6c0,2.4-2.1,4.5-4.6,4.5h-57.5c-2.5,0-4.6-2-4.6-4.5v-0.6
	C106.3,217.9,108.3,215.9,110.8,215.9L110.8,215.9z M110.8,127.7h57.5c2.5,0,4.6,2,4.6,4.5v0.6c0,2.4-2.1,4.5-4.6,4.5h-57.5
	c-2.5,0-4.6-2-4.6-4.5v-0.6C106.3,129.6,108.3,127.7,110.8,127.7L110.8,127.7z"/>
<path fill="#2DACD8" d="M223.8,133.3V85.9H51.2c-5.3,0-9.3,4.6-9.3,10.9v160.7c0,6.3,4,11.5,9.3,11.5h176.5c5.3,0,10-5.2,10-11.5
	v-111L223.8,133.3z M204.8,230.8c0,4.2-2.7,8-6.2,8H80.4c-3.5,0-6.5-3.9-6.5-8V123.3c0-4.2,2.9-7.4,6.5-7.4h118.3
	c3.5,0,6.2,3.2,6.2,7.4v107.5H204.8z"/>
<path fill="#2DACD8" d="M261.8,170.2h-20v18.3H270c2.4,0,4.6-1.9,5.8-4.5L261.8,170.2z"/>
</svg>
