<?xml version="1.0" encoding="utf-8"?>
<!-- Generator: Adobe Illustrator 18.1.0, SVG Export Plug-In . SVG Version: 6.00 Build 0)  -->
<svg version="1.1" id="Layer_1" xmlns="http://www.w3.org/2000/svg" xmlns:xlink="http://www.w3.org/1999/xlink" x="0px" y="0px"
	 width="236.2px" height="231.3px" viewBox="-81 -15.3 236.2 231.3" enable-background="new -81 -15.3 236.2 231.3"
	 xml:space="preserve">
<path fill="#2DACD8" d="M125,54.5h24.3c3.2,0,5.9,3.6,5.9,8s-2.7,8-5.9,8H125"/>
<path fill="#2DACD8" d="M125,94.9h24.3c3.2,0,5.9,3.6,5.9,8s-2.7,8-5.9,8H125"/>
<path fill="#2DACD8" d="M125,135.2h24.3c3.2,0,5.9,3.6,5.9,8s-2.7,8-5.9,8H125"/>
<path fill="#2DACD8" d="M-10.4,15.4V-9.3c0-3.3,3.5-6,7.8-6s7.8,2.7,7.8,6v24.7"/>
<path fill="#2DACD8" d="M29.3,15.4V-9.3c0-3.3,3.5-6,7.8-6s7.8,2.7,7.8,6v24.7"/>
<path fill="#2DACD8" d="M68.9,15.4V-9.3c0-3.3,3.5-6,7.8-6c4.3,0,7.8,2.7,7.8,6v24.7"/>
<path fill="#2DACD8" d="M5.3,185.3V210c0,3.3-3.5,6-7.8,6s-7.8-2.7-7.8-6v-24.7"/>
<path fill="#2DACD8" d="M44.9,185.3V210c0,3.3-3.5,6-7.8,6s-7.8-2.7-7.8-6v-24.7"/>
<path fill="#2DACD8" d="M84.5,185.3V210c0,3.3-3.5,6-7.8,6c-4.3,0-7.8-2.7-7.8-6v-24.7"/>
<path fill="#2DACD8" d="M-50.8,70.4h-24.3c-3.2,0-5.9-3.6-5.9-8s2.7-8,5.9-8h24.3"/>
<path fill="#2DACD8" d="M-50.8,110.8h-24.3c-3.2,0-5.9-3.6-5.9-8s2.7-8,5.9-8h24.3"/>
<path fill="#2DACD8" d="M-50.8,151.1h-24.3c-3.2,0-5.9-3.6-5.9-8s2.7-8,5.9-8h24.3"/>
<path fill="#2DACD8" d="M93.4,53.1c0-3.7-2.5-6.8-5.5-6.8H-13.7c-3,0-5.5,3-5.5,6.8v95.4c0,3.7,2.5,6.8,5.5,6.8H87.9
	c3,0,5.5-3,5.5-6.8C93.4,148.5,93.4,53.1,93.4,53.1z M121.2,172.1c0,5.6-3.7,10.1-8.2,10.1H-38.8c-4.5,0-8.2-4.5-8.2-10.1V29.5
	c0-5.5,3.7-10.1,8.2-10.1H113c4.5,0,8.2,4.5,8.2,10.1V172.1z"/>
<path fill="#F19126" d="M44.2,98c9.3-4.4,15.9-13.9,15.9-24.8v-8.5H14.2v8.5c0,11,6.5,20.5,15.9,24.8c0.9,0.4,1.5,1.3,1.5,2.3
	s-0.5,1.9-1.5,2.3c-9.3,4.4-15.9,13.9-15.9,24.8v8.5h45.9v-8.5c0-11-6.5-20.5-15.9-24.8c-0.9-0.4-1.5-1.3-1.5-2.3
	C42.7,99.3,43.3,98.4,44.2,98z M54.2,127.5v2.6h-1.4l-12-7.5c-2.3-1.4-5.1-1.4-7.4,0l-12,7.5H20v-2.6c0-8.4,4.9-16,12.5-19.5
	c2.3-1.1,4-3.1,4.6-5.5c0.6,2.4,2.3,4.4,4.6,5.5C49.2,111.5,54.2,119.1,54.2,127.5z M24.1,85.7c-2.6-3.6-4-7.9-4-12.5v-2.6h34.2v2.6
	c0,4.6-1.5,8.9-4.1,12.5H24.1z"/>
<path fill="#2DACD8" d="M12.4,135.3h49.4c2.2,0,3.9,1.8,3.9,3.9v0.6c0,2.2-1.8,3.9-3.9,3.9H12.4c-2.2,0-3.9-1.8-3.9-3.9v-0.6
	C8.5,137.1,10.2,135.3,12.4,135.3L12.4,135.3z M12.4,56.9h49.4c2.2,0,3.9,1.8,3.9,3.9v0.6c0,2.2-1.8,3.9-3.9,3.9H12.4
	c-2.2,0-3.9-1.8-3.9-3.9v-0.6C8.5,58.7,10.2,56.9,12.4,56.9L12.4,56.9z"/>
</svg>
