<?xml version="1.0" encoding="utf-8"?>
<!-- Generator: Adobe Illustrator 18.1.0, SVG Export Plug-In . SVG Version: 6.00 Build 0)  -->
<svg version="1.1" id="Layer_1" xmlns="http://www.w3.org/2000/svg" xmlns:xlink="http://www.w3.org/1999/xlink" x="0px" y="0px"
	 width="275px" height="261px" viewBox="62.5 -30.5 275 261" enable-background="new 62.5 -30.5 275 261" xml:space="preserve">
<path fill="#2DACD8" d="M302.3,139.3h28.3c3.8,0,6.9,4.1,6.9,9s-3.1,9-6.9,9h-28.3"/>
<path fill="#2DACD8" d="M144.8,4.2v-27.9c0-3.7,4.1-6.8,9.1-6.8s9.1,3,9.1,6.8V4.2"/>
<path fill="#2DACD8" d="M191,4.2v-27.9c0-3.7,4.1-6.8,9.1-6.8s9.1,3,9.1,6.8V4.2"/>
<path fill="#2DACD8" d="M237,4.2v-27.9c0-3.7,4.1-6.8,9.1-6.8s9.1,3,9.1,6.8V4.2"/>
<path fill="#2DACD8" d="M163,195.8v27.9c0,3.7-4.1,6.8-9.1,6.8s-9.1-3-9.1-6.8v-27.9"/>
<path fill="#2DACD8" d="M209.1,195.8v27.9c0,3.7-4.1,6.8-9.1,6.8s-9.1-3-9.1-6.8v-27.9"/>
<path fill="#2DACD8" d="M255.2,195.8v27.9c0,3.7-4.1,6.8-9.1,6.8s-9.1-3-9.1-6.8v-27.9"/>
<path fill="#2DACD8" d="M97.7,66.4H69.4c-3.8,0-6.9-4.1-6.9-9s3.1-9,6.9-9h28.3"/>
<path fill="#2DACD8" d="M97.7,111.7H69.4c-3.8,0-6.9-4.1-6.9-9s3.1-9,6.9-9h28.3"/>
<path fill="#2DACD8" d="M97.7,157.3H69.4c-3.8,0-6.9-4.1-6.9-9s3.1-9,6.9-9h28.3"/>
<path fill="#F19126" d="M208.2,97.4c10.9-4.9,18.5-15.7,18.5-28v-9.5h-53.5v9.5c0,12.4,7.6,23.1,18.5,28c1.1,0.5,1.7,1.5,1.7,2.6
	s-0.6,2.1-1.7,2.6c-10.9,4.9-18.5,15.7-18.5,28v9.5h53.5v-9.4c0-12.4-7.6-23.1-18.5-28c-1.1-0.5-1.7-1.5-1.7-2.6
	S207.2,97.9,208.2,97.4z M219.8,130.6v2.9h-1.6l-14-8.4c-2.7-1.6-5.9-1.6-8.6,0l-14,8.4h-1.6v-2.9c0-9.5,5.7-18,14.5-22
	c2.7-1.3,4.7-3.5,5.4-6.2c0.7,2.7,2.7,5,5.4,6.2C214.1,112.6,219.8,121.1,219.8,130.6z M184.9,83.5c-3-4.1-4.7-8.9-4.7-14.2v-2.9
	h39.8v2.9c0,5.1-1.7,10.1-4.7,14.2H184.9z"/>
<path fill="#2DACD8" d="M171.3,139.4h57.5c2.5,0,4.6,2,4.6,4.5v0.6c0,2.4-2.1,4.5-4.6,4.5h-57.5c-2.5,0-4.6-2-4.6-4.5v-0.6
	C166.8,141.4,168.8,139.4,171.3,139.4L171.3,139.4z M171.3,51.2h57.5c2.5,0,4.6,2,4.6,4.5v0.6c0,2.4-2.1,4.5-4.6,4.5h-57.5
	c-2.5,0-4.6-2-4.6-4.5v-0.6C166.8,53.1,168.8,51.2,171.3,51.2L171.3,51.2z"/>
<path fill="#2DACD8" d="M284.3,56.8V9.4H111.7c-5.3,0-9.3,4.6-9.3,10.9V181c0,6.3,4,11.5,9.3,11.5h176.5c5.3,0,10-5.2,10-11.5v-111
	L284.3,56.8z M265.3,154.3c0,4.2-2.7,8-6.2,8H140.9c-3.5,0-6.5-3.9-6.5-8V46.8c0-4.2,2.9-7.4,6.5-7.4h118.3c3.5,0,6.2,3.2,6.2,7.4
	V154.3L265.3,154.3z"/>
<path fill="#2DACD8" d="M322.3,93.7h-20V112h28.2c2.4,0,4.6-1.9,5.8-4.5L322.3,93.7z"/>
</svg>
