<?xml version="1.0" encoding="utf-8"?>
<!-- Generator: Adobe Illustrator 18.1.0, SVG Export Plug-In . SVG Version: 6.00 Build 0)  -->
<svg version="1.1" id="Layer_1" xmlns="http://www.w3.org/2000/svg" xmlns:xlink="http://www.w3.org/1999/xlink" x="0px" y="0px"
	 viewBox="62.5 -35 275 270" enable-background="new 62.5 -35 275 270" xml:space="preserve">
<g id="computer_x5F_chip_x5F_hour_x5F_LG">
	<path fill="#2DACD8" d="M302.4,140.7h28.3c3.8,0,6.9,4.2,6.9,9.3s-3.1,9.3-6.9,9.3h-28.3"/>
	<path fill="#2DACD8" d="M144.7,0.8V-28c0-3.9,4.1-7,9.1-7s9.1,3.2,9.1,7V0.8"/>
	<path fill="#2DACD8" d="M190.9,0.8V-28c0-3.9,4.1-7,9.1-7c5,0,9.1,3.2,9.1,7V0.8"/>
	<path fill="#2DACD8" d="M237,0.8V-28c0-3.9,4.1-7,9.1-7s9.1,3.2,9.1,7V0.8"/>
	<path fill="#2DACD8" d="M163,199.2V228c0,3.9-4.1,7-9.1,7s-9.1-3.2-9.1-7v-28.8"/>
	<path fill="#2DACD8" d="M209.1,199.2V228c0,3.9-4.1,7-9.1,7c-5,0-9.1-3.2-9.1-7v-28.8"/>
	<path fill="#2DACD8" d="M255.2,199.2V228c0,3.9-4.1,7-9.1,7c-5,0-9.1-3.2-9.1-7v-28.8"/>
	<path fill="#2DACD8" d="M97.6,65.1H69.4c-3.8,0-6.9-4.2-6.9-9.3s3.1-9.3,6.9-9.3h28.3"/>
	<path fill="#2DACD8" d="M97.6,112.2H69.4c-3.8,0-6.9-4.2-6.9-9.3c0-5.1,3.1-9.3,6.9-9.3h28.3"/>
	<path fill="#2DACD8" d="M97.6,159.3H69.4c-3.8,0-6.9-4.2-6.9-9.3s3.1-9.3,6.9-9.3h28.3"/>
	<path fill="#F19126" d="M173.3,58.4h53.5v9.9c0,12.8-7.6,23.9-18.5,29c-1.1,0.5-1.7,1.5-1.7,2.7c0,1.2,0.6,2.2,1.7,2.7
		c10.9,5.1,18.5,16.2,18.5,29v9.9h-53.5v-9.9c0-12.8,7.6-23.9,18.5-29c1.1-0.5,1.7-1.5,1.7-2.7c0-1.2-0.6-2.2-1.7-2.7
		c-10.9-5.1-18.5-16.2-18.5-29L173.3,58.4L173.3,58.4z M180.1,65.3h39.8v3c0,5.4-1.7,10.4-4.7,14.6H200h-15.2
		c-3-4.2-4.7-9.3-4.7-14.6L180.1,65.3L180.1,65.3z M200,102.5c0.7,2.8,2.6,5.2,5.4,6.5c8.8,4.1,14.5,13,14.5,22.8v3h-1.6l-14-8.7
		c-2.7-1.7-5.9-1.7-8.6,0l-14,8.7h-1.6v-3c0-9.8,5.7-18.6,14.5-22.8C197.3,107.7,199.3,105.3,200,102.5L200,102.5z"/>
	<path fill="#2DACD8" d="M171.2,140.8h57.5c2.5,0,4.6,2.1,4.6,4.6v0.6c0,2.5-2.1,4.6-4.6,4.6h-57.5c-2.5,0-4.6-2.1-4.6-4.6v-0.6
		C166.7,142.9,168.7,140.8,171.2,140.8L171.2,140.8z M171.2,49.4h57.5c2.5,0,4.6,2.1,4.6,4.6v0.6c0,2.5-2.1,4.6-4.6,4.6h-57.5
		c-2.5,0-4.6-2.1-4.6-4.6v-0.6C166.7,51.4,168.7,49.4,171.2,49.4L171.2,49.4z"/>
	<path fill="#2DACD8" d="M284.5,55.2V6.4h-173c-5.3,0-9.1,4.5-9.1,11v166.3c0,6.5,3.8,12.2,9.1,12.2h176.8c5.3,0,10.2-5.7,10.2-12.2
		V68.9L284.5,55.2z M265.5,156.2c0,4.3-2.9,8.6-6.4,8.6H140.8c-3.5,0-6.3-4.3-6.3-8.6V44.9c0-4.3,2.8-7.4,6.3-7.4h118.3
		c3.5,0,6.4,3.1,6.4,7.4V156.2z"/>
	<path fill="#2DACD8" d="M322.4,93.6h-19.8v19.1h28.1c2.4,0,4.6-2,5.8-4.6L322.4,93.6z"/>
</g>
<g id="Layer_1_1_">
</g>
</svg>
