<?xml version="1.0" encoding="utf-8"?>
<!-- Generator: Adobe Illustrator 18.1.0, SVG Export Plug-In . SVG Version: 6.00 Build 0)  -->
<svg version="1.1" id="Layer_1" xmlns="http://www.w3.org/2000/svg" xmlns:xlink="http://www.w3.org/1999/xlink" x="0px" y="0px"
	 width="200px" height="200px" viewBox="0 0 200 200" enable-background="new 0 0 200 200" xml:space="preserve">
<g id="energy_x5F_worker">
	<path fill="#00619E" d="M192.6,137.8c-0.1,0.2-0.1,0.4-0.2,0.5L192.6,137.8c0.1-0.2,0.2-0.4,0.3-0.6
		C192.8,137.4,192.7,137.6,192.6,137.8 M129.9,70.5l0.5-0.7h-0.2c-0.1,0.1-0.3,0.3-0.5,0.5l-0.9,0.8l-1.9,1.2l-5,2l-0.6,0.1
		l-1.1,0.3c-0.2,0.1-1,0.2-2.4,0.5l-2.6,0.4c-1.2,0.2-2.1,0.3-2.7,0.4L98,76.6l-8.6-0.5c-1.2-0.2-2.1-0.3-2.7-0.4l-5-0.9l-4.2-1.3
		l-3.2-1.5l-2-1.6c-0.3-0.3-0.5-0.5-0.5-0.6l-0.4-0.6l0.1,0.2l0.7,1.2l0.7,0.9l2.5,2c0.9,0.6,2.2,1.3,3.7,1.9l2.2,0.8
		c0.5,0.2,1.4,0.5,2.5,0.7l2.6,0.6c1.7,0.3,2.7,0.5,2.8,0.5l7.3,0.7l10.6-0.1l5.8-0.6c0.9-0.1,1.8-0.3,2.8-0.5l2.6-0.6
		c1.6-0.4,3.1-0.9,4.7-1.5c1.5-0.6,2.8-1.3,3.7-1.9l1.4-1L129.9,70.5 M85.9,37.9l0.2-0.1l2.8-1.2l2.7-0.8l3.3,30.8L93.5,33h0.1
		l3.1-0.4l6.3-0.2l5.2,0.6h0.1v0.1l86.9,36.5c0,0.1,0,0.1,0.1,0.2c-0.9-2.9-2-5.9-3.2-8.7c-5.1-12-12.2-22.6-21.4-31.8
		c-7.8-7.8-16.6-14.1-26.3-18.9v0.1c-10.1-3.2-20.6-4.9-31.5-4.9c-13.5,0-26.4,2.6-38.8,7.8c-11.9,5-22.5,12.2-31.7,21.4
		S26.1,54.5,21,66.4c-5.2,12.4-7.8,25.3-7.8,38.8c0,19.1,5,36.7,15.1,52.7c1.1,1.8,2.3,3.6,3.6,5.4c0.7-3.1,1.6-6.5,2.6-10.1
		l2.4-8.9c1.2-2.9,3.2-5,5.8-6.2c1.3-0.6,2.5-0.9,3.5-0.9c0.1,0,4.6-1.3,13.3-4l3.3,27.8l-8.4,28c2.2,1.1,4.4,2.2,6.7,3.1
		c12.4,5.2,25.4,7.8,38.9,7.8c13.6,0,26.6-2.6,38.9-7.8c2.5-1.1,4.9-2.2,7.3-3.4l-8.5-27.7l3.3-27.4l-0.1-0.8c-3-1.1-6-2-9.1-2.6
		l-2.7,12.3c-2.4,9-4.9,14.3-7.5,15.8H78.7c-2.6-1.5-5-6.8-7.5-15.8l-2.7-12.1c0.5-0.2,1-0.3,1.5-0.5c1.4-0.9,2.8-1.7,4.4-2.7
		c3.1-1.8,5-2.8,5.7-3l3,0.9h0.2l1.1-11.9c-2.1-3.8-3.6-7.8-4.5-12.2c-0.3,0.2-0.6,0.2-1,0.2c-0.8-0.1-1.5-0.9-2-2.2
		c-1-2.7-1.7-5.5-2-8.5c-0.5-4,0.1-5.7,1.9-5l-1.4-2.6l4.3,1.2c3.7,0.9,7.5,1.6,11.4,2c12.5,1.5,23.9,0.4,34.2-3.3
		c0.4-0.7,0.8-1.5,1.2-2.2c-0.7,0.3-1.4,0.6-2.2,0.9c-6.4,2.2-14.3,3.3-23.5,3.3s-17.1-1.1-23.5-3.3c-6.5-2.2-9.8-4.9-9.8-8.2
		c0-2.1,1.2-4.4,3.7-7.1c0.5-5.7,1.9-10.7,4.3-15.1c2.3-4.2,5.4-7.6,9.2-10.1l4.3,8.7l-1.7-6.4C86.9,40.9,86.4,39.1,85.9,37.9
		 M133.2,176.4c1.6,1.6,2.3,3.5,2.3,5.8s-0.8,4.2-2.3,5.8c-1.6,1.6-3.5,2.3-5.8,2.3h-9.1c-2.2,0-4.1-0.8-5.7-2.3
		c-1.6-1.6-2.4-3.5-2.4-5.8c0-2.2,0.8-4.2,2.4-5.8c1.6-1.6,3.5-2.4,5.7-2.4h9.1C129.7,174,131.6,174.8,133.2,176.4 M124.3,180.9
		l3-4.5l-6.9,5.6l1.6,0.4l-2.8,5.5l6.5-6L124.3,180.9z"/>
	<path fill="#114069" d="M100,0c-0.1,0-0.2,0-0.3,0C88,0,76.7,2,65.9,5.9L65.7,6c-1.6,0.6-3.2,1.2-4.8,1.9
		C49,12.9,38.4,20,29.2,29.2S12.9,49,7.8,60.9c-0.7,1.6-1.3,3.2-1.9,4.8l-0.1,0.2C2,76.8,0,88,0,99.7c0,0.1,0,0.2,0,0.3
		c0,0.1,0,0.3,0,0.4c0,0.1,0,0.2,0,0.4c0,0.1,0,0.3,0,0.4c0,0.1,0,0.3,0,0.4c0,0.1,0,0.3,0,0.4c0,0.1,0,0.2,0,0.3c0,0.1,0,0.2,0,0.3
		c0.2,5.9,0.8,11.6,1.9,17.3l2,8.2c0.1,0.4,0.3,0.8,0.4,1.2l2.6,7.3c0.1,0.1,0.1,0.3,0.2,0.4l0.2,0.4c0.2,0.5,0.4,1,0.6,1.4
		c0,0.1,0,0.1,0.1,0.2c5.1,12,12.2,22.6,21.4,31.8c0.3,0.3,0.5,0.5,0.8,0.8c0-0.1,0-0.2,0.1-0.3c0.5-2.4,1.1-5.1,1.7-7.9
		c-1.2-1.7-2.4-3.5-3.6-5.4c-10.1-16.1-15.1-33.6-15.1-52.7c0-13.5,2.6-26.4,7.8-38.8c5-11.9,12.2-22.5,21.4-31.7
		s19.8-16.3,31.7-21.4c12.4-5.2,25.3-7.8,38.8-7.8c10.9,0,21.5,1.6,31.5,4.9v-0.1c-1.8-0.9-3.6-1.7-5.5-2.5c-0.1,0-0.2-0.1-0.3-0.2
		l-6.8-2.6c-0.7-0.2-1.4-0.4-2.1-0.6C120.1,1.5,110.2,0,100,0z"/>
	<path fill="#114069" d="M110.4,35.8l2.7,0.8l2.8,1.2l0.2,0.1l-3.4,11.8l4.3-8.7c3.8,2.5,6.9,5.9,9.2,10.1c2.4,4.4,3.9,9.4,4.3,15.1
		c2.5,2.7,3.8,5.1,3.8,7.1c0,2.9-2.5,5.3-7.6,7.4c-0.4,0.7-0.7,1.5-1.2,2.2l-0.9,2.6c1.7-0.7,2.4,1,1.9,5.1c-0.4,3.1-1.1,6-2.1,8.6
		c-0.5,1.2-1.1,2-1.8,2.1c-0.4,0.1-0.8,0-1.1-0.2c-0.8,4.3-2.3,8.4-4.4,12.2l1,11.9h0.2l2.5-0.9c1.2,0.3,3.5,1.8,6.9,4.5l4.3,1.3
		l-0.1,0.2c3.1,0.6,6.1,1.4,9.1,2.6l0.1,0.8l0.1-0.6c9.1,2.8,13.9,4.3,14.4,4.3l3.5,0.9c2.6,1.2,4.5,3.3,5.8,6.2l2.5,8.4
		c1.8,6.5,3.2,12.2,4.2,17.3c-0.1,0.1-0.1,0.2-0.2,0.2l0.3-0.2c0.3-0.3,0.6-0.7,0.9-1c0.1-0.1,0.2-0.2,0.3-0.4
		c7-7.3,12.6-15.5,17.1-24.5c0.3-0.7,0.7-1.3,1-2c0.5-1.1,1-2.1,1.5-3.3l0.2-0.6c0.1-0.2,0.2-0.3,0.2-0.5c0.1-0.2,0.2-0.4,0.3-0.6
		l0.7-1.9c3.7-9.8,5.8-20,6.3-30.5c0-0.3,0-0.7,0.1-1.1c0-0.5,0-0.9,0.1-1.4c0-0.8,0-1.5,0-2.3c0.1-11.7-1.5-21.8-4.6-30.1
		c0-0.1,0-0.1-0.1-0.2l-86.9-36.5l-1.3,33.5l1.1-8.6c0.2-1.9,0.4-3.3,0.5-4.3L110.4,35.8z"/>
	<rect x="114.2" y="175.9" fill="#FFFFFF" width="16" height="13.4"/>
	<path fill="#2DACD8" d="M135.5,182.1c0-2.2-0.8-4.2-2.3-5.8c-1.6-1.6-3.5-2.4-5.8-2.4h-9.1c-2.2,0-4.1,0.8-5.7,2.4
		c-1.6,1.6-2.4,3.5-2.4,5.8c0,2.2,0.8,4.2,2.4,5.8c1.6,1.6,3.5,2.3,5.7,2.3h9.1c2.2,0,4.2-0.8,5.8-2.3
		C134.7,186.3,135.5,184.4,135.5,182.1 M127.3,176.3l-3,4.5l1.4,1.1l-6.5,6l2.8-5.5l-1.6-0.4L127.3,176.3 M46.1,137.2
		c-1.1,0-2.2,0.3-3.5,0.9c-2.6,1.2-4.6,3.3-5.8,6.2l-2.4,8.9c-1,3.6-1.8,7-2.6,10.1c-0.7,2.8-1.2,5.4-1.7,7.9c0,0.1,0,0.2-0.1,0.3
		c1.1,1.1,2.3,2.1,3.4,3.1c0.1,0.1,0.3,0.3,0.4,0.4c5.9,5.2,12.2,9.6,19,13.2c0.5,0.3,0.9,0.5,1.4,0.7l0,0l8.4-28l-3.3-27.8
		C50.7,135.9,46.2,137.2,46.1,137.2 M158.9,138.1l-3.5-0.9c-0.5,0-5.3-1.4-14.4-4.3l-3.4,28l8.5,27.7c0,0,0.1,0,0.1-0.1
		c0.7-0.4,1.4-0.8,2.1-1.2c8.2-4.5,15.6-10.1,22.3-16.8c0.2-0.2,0.3-0.3,0.4-0.5c0.1-0.1,0.2-0.1,0.2-0.2c-1-5.1-2.5-10.8-4.2-17.3
		l-2.5-8.4C163.4,141.4,161.5,139.4,158.9,138.1 M124.6,85.5l0.9-2.6c-10.3,3.6-21.7,4.7-34.2,3.3c-3.9-0.5-7.7-1.1-11.4-2l-4.3-1.2
		l1.4,2.6c-1.8-0.7-2.4,1-1.9,5c0.4,3,1,5.9,2,8.5c0.5,1.4,1.2,2.1,2,2.2c0.4,0.1,0.7,0,1-0.2c0.9,4.4,2.4,8.4,4.5,12.2l-1.1,11.9
		h-0.2l-3-0.9c-0.7,0.2-2.6,1.2-5.7,3c-1.5,0.9-3,1.8-4.4,2.7c-0.5,0.2-1,0.3-1.5,0.5l2.7,12.1c2.4,9,4.9,14.3,7.5,15.8h42.9
		c2.6-1.5,5-6.8,7.5-15.8l2.7-12.5l-4.3-1.3c-3.3-2.7-5.6-4.2-6.9-4.5l-2.5,0.9H118l-1-11.9c2.1-3.8,3.6-7.9,4.4-12.2
		c0.3,0.2,0.7,0.3,1.1,0.2c0.7-0.2,1.4-0.9,1.8-2.1c1-2.7,1.7-5.5,2.1-8.6C127,86.5,126.3,84.8,124.6,85.5 M96.8,32.6L93.6,33h-0.1
		l1.3,33.6l-3.3-30.8l-2.7,0.8l-2.8,1.2l-0.2,0.1c0.4,1.2,1,3,1.7,5.4l1.7,6.4L85,40.9c-3.8,2.5-6.9,5.9-9.2,10.1
		c-2.4,4.4-3.9,9.4-4.3,15.1c-2.5,2.7-3.7,5-3.7,7.1c0,3.3,3.3,6,9.8,8.2c6.4,2.2,14.2,3.3,23.5,3.3s17.1-1.1,23.5-3.3
		c0.8-0.3,1.5-0.6,2.2-0.9c5-2,7.6-4.5,7.6-7.4c0-2-1.3-4.4-3.8-7.1c-0.5-5.7-1.9-10.7-4.3-15.1c-2.3-4.2-5.4-7.6-9.2-10.1l-4.3,8.7
		l3.4-11.8l-0.2-0.1l-2.8-1.2l-2.7-0.8l-1.7,18c-0.1,1-0.2,2.4-0.5,4.3l-1.1,8.6l1.3-33.6h-0.1l-5.2-0.6L96.8,32.6 M130.6,69.3
		l-0.2,0.5l-0.5,0.7l-1.9,1.9l-1.4,1c-0.9,0.6-2.2,1.3-3.7,1.9c-1.6,0.6-3.1,1.2-4.7,1.5l-2.6,0.6c-0.9,0.2-1.8,0.4-2.8,0.5
		l-5.8,0.6l-10.6,0.1L89.1,78c-0.1,0-1-0.2-2.8-0.5l-2.6-0.6c-1.1-0.3-1.9-0.5-2.5-0.7l-2.2-0.8c-1.5-0.6-2.8-1.3-3.7-1.9l-2.5-2
		l-0.7-0.9l-0.7-1.2l-0.1-0.2l0.4,0.6c0.1,0.1,0.2,0.4,0.5,0.6l2,1.6l3.2,1.5l4.2,1.3l5,0.9c0.6,0.1,1.5,0.2,2.7,0.4l8.6,0.5
		l14.5-0.5c0.6,0,1.5-0.2,2.7-0.4l2.6-0.4c1.4-0.2,2.2-0.4,2.4-0.5l1.1-0.3l0.6-0.1l5-2l1.9-1.2l0.9-0.8c0.2-0.2,0.4-0.4,0.5-0.5
		c0,0,0-0.1,0.1-0.1l0.4-0.6L130.6,69.3z"/>
</g>
<g id="Layer_1_1_">
</g>
</svg>
