<?xml version="1.0" encoding="utf-8"?>
<!-- Generator: Adobe Illustrator 18.1.0, SVG Export Plug-In . SVG Version: 6.00 Build 0)  -->
<svg version="1.1" id="Layer_1" xmlns="http://www.w3.org/2000/svg" xmlns:xlink="http://www.w3.org/1999/xlink" x="0px" y="0px"
	 width="239.1px" height="238.3px" viewBox="-15 57.7 239.1 238.3" enable-background="new -15 57.7 239.1 238.3"
	 xml:space="preserve">
<path fill="#00619E" d="M223.9,177c0-65.9-53.4-119.3-119.3-119.3S-14.6,111.1-14.6,177c0,4,0.2,7.9,0.6,11.8
	C-7.9,249,43.1,296,105,296c13.4,0,26.2-2.2,38.1-6.1C190.1,273.9,223.9,229.4,223.9,177z"/>
<path fill="#114069" d="M224.1,177.3c0-10.3-1.3-20.4-3.7-29.9c-33.9-11.7-83.2-28.4-94.5-32.3c-13.8-4.7-57-12.2-80.6,33.9
	c-21.5,41.9,11.2,77.6,28.2,85.4c12.2,5.6,70.3,25,106,35.8C206.7,248.6,224.1,215.2,224.1,177.3z"/>
<path fill="#114069" d="M65.5,289.2C27,269.5,0.7,229.4,0.7,183.2c0-65.7,53.2-118.9,118.9-118.9c13.2,0,25.8,2.1,37.7,6.1l0-0.1
	c-16.1-8.1-34.2-12.6-53.4-12.6c-42,0-78.9,21.8-100.1,54.7c-11.7,18.5-18.5,40.4-18.5,64c0,44.9,24.7,83.9,61.2,104.4
	c0.5,0.3,1.1,0.6,1.6,0.9c0.1,0.1,0.3,0.1,0.4,0.2c5.3,2.8,10.9,5.2,16.6,7.2L65.5,289.2z"/>
<path fill="#2DACD8" d="M138.2,152.1c-1.6-3.6-3.6-7.2-5.7-10.6c-1,0.5-2,0.7-3.2,0.7c-4,0-7.2-3.2-7.2-7.2c0-0.7,0.1-1.3,0.3-1.9
	c-17.8-5.7-36.7-5.4-53.8,0.4c0.7,1.1,1.2,2.5,1.2,3.9c0,4-3.2,7.2-7.2,7.2c-0.5,0-1.1-0.1-1.6-0.2c-2,19.9,3.2,40.2,14.8,57
	c0.9-0.4,1.9-0.6,3-0.6c3,0,5.5,1.8,6.6,4.3h0c18.3-5,34.9-16.1,46.3-32.7c1.8-2.6,3.4-5.3,4.8-8c-1.7-1.3-2.7-3.4-2.7-5.6
	C133.8,155.8,135.6,153.2,138.2,152.1z"/>
<path fill="#2DACD8" d="M51.4,138.2c1.3-0.8,2.6-1.5,3.9-2.2c0.5-2.7,2.6-4.9,5.2-5.6c0.3-1,0.6-2.1,0.9-3.1
	C57.8,130.5,54.4,134.1,51.4,138.2z"/>
<path fill="#2DACD8" d="M134.7,139.8c2.4,3.8,4.5,7.7,6.3,11.8c0.3,0,0.6,0,0.9,0.1c0.9-2.6,1.6-5.3,2.1-8c-2.8-1.8-5.6-3.5-8.5-5
	C135.3,139,135,139.4,134.7,139.8z"/>
<path fill="#2DACD8" d="M146.6,145.3c-0.5,2.4-1.2,4.8-2,7.2c2.2,1.2,3.6,3.6,3.6,6.3c0,2.2-1,4.2-2.6,5.6
	c6.4,23.5,3,49.3-11.6,70.6c-0.2,0.2-0.3,0.4-0.5,0.7c9.7-4.8,18.3-12.1,24.8-21.6c9.3-13.6,12.8-29.4,11-44.6
	C163.5,160.2,155.9,152,146.6,145.3z"/>
<path fill="#2DACD8" d="M105.8,111.5c1.3,0.8,2.5,1.6,3.8,2.5c6.2,4.3,11.8,9.2,16.5,14.6c0.9-0.4,2-0.7,3.1-0.7
	c4,0,7.2,3.2,7.2,7.2c0,0.3,0,0.6-0.1,0.9c2.8,1.4,5.5,3,8.2,4.7c0.8-4.7,1.2-9.5,1.2-14.2c-1.5-1.2-3-2.4-4.6-3.5
	C130.4,115.5,118.1,111.8,105.8,111.5z"/>
<path fill="#2DACD8" d="M141,166c-0.7,0-1.3-0.1-2-0.3c-1.5,2.8-3.2,5.6-5,8.3c-11.8,17.3-29.1,28.8-48.1,33.9c0,0,0,0.1,0,0.1
	c0,1.6-0.5,3-1.4,4.2c4.1,4.2,8.6,8.1,13.7,11.6c9.6,6.6,20,10.9,30.7,13.3c0.9-1.2,1.9-2.5,2.7-3.8c14-20.4,17.3-45.1,11.4-67.6
	C142.4,165.9,141.7,166,141,166z"/>
<path fill="#2DACD8" d="M58.2,143.2c-1.3-1-2.3-2.4-2.7-4c-2.7,1.5-5.3,3.1-7.9,4.9c-11.4,19.6-11.5,43-1.9,62.2
	c8.6,1.8,17.3,2.2,25.8,1.3c0.1-1.8,0.8-3.4,1.9-4.6C61.2,185.4,55.8,164,58.2,143.2z"/>
<path fill="#2DACD8" d="M108,116.3c-2.5-1.7-5.1-3.3-7.7-4.7c-12.4,0.8-24.5,5-34.7,12.5c-0.8,2.1-1.5,4.1-2.1,6.2
	c1,0.2,1.9,0.5,2.7,1c18.1-6.5,38.4-6.9,57.3-0.7l0.3-0.3C119.3,125.1,114,120.4,108,116.3z"/>
<path fill="#2DACD8" d="M148.6,128.8c-0.1,4.5-0.6,9-1.5,13.5c8.3,5.8,15.3,12.7,21,20.4C165.3,150,158.7,138,148.6,128.8z"/>
<path fill="#2DACD8" d="M82.5,214.2c-1.1,0.7-2.4,1.1-3.8,1.1c-3.1,0-5.8-2-6.8-4.8c-8.1,0.8-16.3,0.5-24.5-0.9
	c4.8,8.3,11.4,15.7,19.8,21.5c17.6,12,39,14.3,57.7,8.1c-9.9-2.5-19.5-6.8-28.4-12.9C91.4,222.6,86.7,218.6,82.5,214.2z"/>
<circle fill="#F19126" cx="79.5" cy="207.6" r="7.5"/>
<circle fill="#F19126" cx="63.5" cy="137.6" r="7.5"/>
<circle fill="#F19126" cx="129.5" cy="134.6" r="7.5"/>
<circle fill="#F19126" cx="141.5" cy="158.6" r="7.5"/>
</svg>
