<?xml version="1.0" encoding="utf-8"?>
<!-- Generator: Adobe Illustrator 18.1.0, SVG Export Plug-In . SVG Version: 6.00 Build 0)  -->
<svg version="1.1" id="Layer_1" xmlns="http://www.w3.org/2000/svg" xmlns:xlink="http://www.w3.org/1999/xlink" x="0px" y="0px"
	 width="200px" height="200px" viewBox="-35 77 200 200" enable-background="new -35 77 200 200" xml:space="preserve">
<g id="university">
	<path fill="#00619E" d="M63.6,243.7h-14V272h14V243.7 M67.9,272h14v-28.3h-14V272 M6.9,250.2h-10c3.2,3,6.5,5.7,10,8.2V250.2
		 M6.9,243.9V231H-5v12.9H6.9 M24.1,250.2H12.2V262c0.6,0.4,1.3,0.8,1.9,1.2H24L24.1,250.2 M12.2,231v12.9H24V231H12.2 M65.7,209
		c-3.1,0-5.8,1.1-8,3.3s-3.3,4.8-3.3,8s1.1,5.8,3.3,8c2.2,2.2,4.8,3.3,8,3.3c3.1,0,5.8-1.1,8-3.3s3.3-4.9,3.3-8s-1.1-5.8-3.3-8
		C71.5,210.1,68.9,209,65.7,209 M64.3,213.3c0-0.4,0.2-0.7,0.5-1c0.3-0.2,0.7-0.4,1.1-0.4s0.7,0.1,1.1,0.4c0.3,0.3,0.5,0.6,0.5,1
		v6.3h7.7c0.7,0,1,0.3,1,1c0,0.6-0.3,1-1,1h-9.3l-0.6-0.1c-0.6-0.2-1-0.6-1-1.3L64.3,213.3 M80.1,163v-24.5H51.4V163H80.1 M69,140.4
		c2.4,0.8,3.8,2.4,3.9,4.8c0.3,3.7,0.6,5.9,1,6.7c0.5,1,1.1,1.8,1.8,2.3c0.5,0.4,0.8,0.7,0.8,0.9v1.9c0,0.3-0.1,0.5-0.3,0.7
		c-0.2,0.2-0.4,0.3-0.7,0.3H56c-0.2,0-0.5-0.1-0.7-0.3c-0.2-0.2-0.3-0.4-0.3-0.7v-1.9c0-0.2,0.2-0.5,0.7-0.9
		c0.7-0.6,1.3-1.3,1.9-2.3c0.4-0.8,0.7-3,1-6.7c0.2-2.4,1.5-4,3.9-4.8C64.7,139.7,66.9,139.7,69,140.4 M58.9,161.1
		c-0.6-0.5-1-1.1-1.2-1.8h6.5c-0.2,0.7-0.6,1.3-1.2,1.8s-1.3,0.7-2.1,0.7S59.5,161.5,58.9,161.1 M95.7,81.8
		c-0.4-0.1-0.8-0.2-1.2-0.3c0.8,0.2,1.5,0.5,2.2,0.7L95.7,81.8 M152.2,127.8c-4.4-7.9-9.9-15-16.5-21.5
		c-9.2-9.2-19.8-16.4-31.7-21.4c-0.1,0-0.2-0.1-0.3-0.2l-3.5-1.3c3.1,1.2,6.2,2.6,9.3,4.2v0.1c-10.2-3.4-20.7-5.1-31.6-5.1
		c-13.5,0-26.5,2.6-38.8,7.9c-12,5-22.5,12.1-31.7,21.3S-9,131.5-14,143.5c-5.2,12.3-7.9,25.3-7.9,38.8c0,12.1,2,23.6,6.1,34.4v-43
		h59.3v12.6H47v-47.8h-3.4v-7.1l20.8-9.6V96.5h2.9v2.4c3.7-1,6.9-1.3,9.7-0.8c1.8,0.3,4,1.2,6.6,2.5c3,1.6,5.3,2.6,6.9,3.1
		c2.9,0.9,6.2,1.2,9.9,1.1c0.3,0,0.6,0,0.8-0.1c-0.1,0.1-0.2,0.2-0.4,0.3L152.2,127.8 M124.7,250.2v7.1c2.4-1.8,4.7-3.7,6.9-5.7
		c0.5-0.4,1-0.9,1.5-1.4L124.7,250.2 M115.8,263.1c1.2-0.7,2.3-1.4,3.5-2.1v-10.8h-11.8v13h8.3 M119.3,243.9V231h-11.8v12.9H119.3
		 M136.5,243.9V231h-11.8v12.9H136.5 M142.8,225.1v-4.6h-37.9v-7.9l-39.2-29.8l-39.1,29.8v7.9h-40.9c0.9,2.1,1.9,4.2,3,6.3V225h41.7
		v44.8c0.7,0.4,1.4,0.8,2.1,1.1l-0.3-0.1c-0.6-0.2-1.2-0.4-1.9-0.7v0.5c1.1,0.4,2.2,0.8,3.3,1.2H35v-51.4h-3.8v-5.7l34.6-26.2
		l34.6,26.2v5.7h-3.8v51.3c1.5-0.5,3-1,4.5-1.6v-45.2h41.7V225.1z"/>
	<rect x="49.7" y="204" fill="#FFFFFF" width="35.1" height="34"/>
	<path fill="#2DACD8" d="M12.2,250.2H24v13h-9.9c3.8,2.2,7.8,4.2,11.9,6c1.4,0.6,2.9,1.2,4.3,1.7v-45.7h-41.6v16.5
		c1.8,2.1,3.7,4.1,5.6,6.1c0.8,0.8,1.7,1.7,2.5,2.5h10v8.2c1.7,1.3,3.5,2.5,5.4,3.6L12.2,250.2 M24.1,243.9H12.2V231H24L24.1,243.9
		 M6.9,231v12.9H-5V231H6.9 M31.2,214.9v5.7H35V272h-1.3c10.1,3.3,20.5,5,31.3,5c10.9,0,21.4-1.7,31.6-5.1v-51.3h3.8v-5.7
		l-34.6-26.2L31.2,214.9 M57.8,212.3c2.2-2.2,4.8-3.3,8-3.3s5.8,1.1,8,3.3s3.3,4.8,3.3,8c0,3.1-1.1,5.8-3.3,8
		c-2.2,2.2-4.9,3.3-8,3.3s-5.8-1.1-8-3.3s-3.3-4.9-3.3-8S55.6,214.5,57.8,212.3 M81.9,272h-14v-28.3h14V272 M63.6,272h-14v-28.3h14
		V272 M64.7,212.4c-0.3,0.3-0.5,0.6-0.5,1v7c0,0.7,0.3,1.1,1,1.3l0.6,0.1h9.3c0.7,0,1-0.3,1-1s-0.3-1-1-1h-7.7v-6.3
		c0-0.4-0.2-0.7-0.5-1c-0.3-0.2-0.7-0.4-1.1-0.4C65.4,212,65.1,212.1,64.7,212.4 M133.1,250.2c0.9-0.8,1.8-1.6,2.6-2.5
		c2.5-2.5,4.9-5.2,7.1-7.9v-14.6h-41.7v45.2c1-0.4,1.9-0.8,2.9-1.2c4.1-1.8,8.1-3.7,11.9-6h-8.4v-13h11.8V261
		c1.8-1.2,3.6-2.4,5.4-3.8v-7.1h8.4 M136.5,231v12.9h-11.8V231H136.5 M119.3,231v12.9h-11.8V231H119.3 M147.3,220.6v-46.9H88v12.6
		h-3.5v-47.8H88v-7.1l-20.8-9.6v-7.9c1.5-1.1,3.4-1.6,5.7-1.7c2.3,0,4.3,0.4,6.1,1.4c3.6,1.9,7.5,1.7,11.8-0.8
		c0.2-0.1,3.7-2.8,10.3-8c-4,0.3-7.6-0.1-10.7-1c-1.6-0.5-3.9-1.5-6.9-3.1c-2.6-1.4-4.8-2.2-6.6-2.5C74.2,97.7,71,98,67.2,99v-2.4
		h-2.9v25.3l-20.8,9.6v7.1H47v47.8h-3.5v-12.7h-59.3v46.9h42.4v-7.9l39.1-29.8l39.2,29.8v7.9H147.3 M80.1,138.5V163H51.4v-24.5H80.1
		 M57.7,159.3c0.2,0.7,0.6,1.3,1.2,1.8s1.3,0.7,2.1,0.7c0.8,0,1.5-0.2,2.1-0.7s1-1.1,1.2-1.8H57.7 M72.9,145.3
		c-0.2-2.4-1.5-4-3.9-4.8c-2.1-0.7-4.3-0.7-6.4,0c-2.4,0.8-3.8,2.4-3.9,4.8c-0.3,3.7-0.6,5.9-1,6.7c-0.5,1-1.1,1.8-1.9,2.3
		c-0.5,0.4-0.8,0.7-0.8,0.9v1.9c0,0.3,0.1,0.5,0.3,0.7c0.2,0.2,0.4,0.3,0.7,0.3h19.6c0.3,0,0.5-0.1,0.7-0.3c0.2-0.2,0.3-0.4,0.3-0.7
		v-1.9c0-0.2-0.3-0.5-0.8-0.9c-0.7-0.6-1.3-1.3-1.8-2.3C73.5,151.2,73.2,148.9,72.9,145.3z"/>
	<path fill="#114069" d="M65,77c-0.1,0-0.2,0-0.3,0c-11.7,0-23,2-33.8,5.9L30.7,83c-1.6,0.6-3.2,1.2-4.8,1.9
		c-12,5-22.5,12.1-31.7,21.3s-16.3,19.8-21.3,31.7c-0.7,1.6-1.3,3.2-1.9,4.8l-0.1,0.2C-33,153.7-35,165-35,176.7c0,0.1,0,0.2,0,0.3
		c0,8.3,1,16.5,3,24.4c0.3,1.3,0.7,2.6,1.1,3.9l2.8,8c0.1,0.2,0.1,0.4,0.2,0.5c3,7.4,7,14.6,11.9,21.4c1.5,2.1,3.1,4.1,4.7,6.1V227
		c-1.1-2.1-2.1-4.2-3-6.3h-1.5v-3.9c-4-10.9-6.1-22.4-6.1-34.4c0-13.5,2.6-26.5,7.9-38.8c5-12,12.1-22.5,21.3-31.7
		S27.1,95.6,39,90.6c12.3-5.2,25.3-7.9,38.8-7.9c10.9,0,21.4,1.7,31.6,5.1v-0.1c-3.1-1.5-6.2-2.9-9.3-4.2L99,83
		c-0.5-0.2-1-0.3-1.4-0.5l-0.8-0.3c-0.7-0.3-1.5-0.5-2.2-0.7c0.4,0.1,0.8,0.2,1.2,0.3C85.8,78.6,75.6,77,65,77z"/>
	<path fill="#114069" d="M165,177c0-13.6-2.6-26.5-7.9-39c-1.5-3.5-3.1-6.9-5-10.2L100.7,105c-6.4,5-9.7,7.6-9.9,7.7
		c-4.3,2.5-8.2,2.7-11.8,0.8c-1.8-1-3.8-1.5-6.1-1.4c-2.3,0.1-4.2,0.6-5.7,1.7v7.9l20.8,9.6v7.1h-3.5v47.8H88v-12.5h59.3v46.9h-4.5
		v19.2c5.9-7.2,10.7-15.2,14.3-23.9C162.4,203.5,165,190.6,165,177z"/>
</g>
<g id="Layer_1_1_">
</g>
</svg>
