<?xml version="1.0" encoding="utf-8"?>
<!-- Generator: Adobe Illustrator 18.1.0, SVG Export Plug-In . SVG Version: 6.00 Build 0)  -->
<svg version="1.1" id="Layer_1" xmlns="http://www.w3.org/2000/svg" xmlns:xlink="http://www.w3.org/1999/xlink" x="0px" y="0px"
	 width="204.3px" height="204.3px" viewBox="-33 74.7 204.3 204.3" enable-background="new -33 74.7 204.3 204.3"
	 xml:space="preserve">
<circle fill="#00619E" cx="69.1" cy="176.9" r="102.1"/>
<path fill="#114069" d="M171.3,176.9c0-15.7-3.6-30.6-9.9-43.9l-42.7-12.4L18,121.1v3.9l-2,3.8v94.7l2,4.5v4.8l111.2,26.7
	C154.7,241,171.3,210.8,171.3,176.9z"/>
<path opacity="0.1" fill="#231F20" enable-background="new    " d="M66.4,74.8C11.3,76.1-33,121.1-33,176.6c0,0,0,0.1,0,0.1
	C-32.9,121.3,11.3,76.2,66.4,74.8z"/>
<path fill="#114069" d="M35.7,272.9l0.2,0.1C3,256.1-19.6,221.8-19.6,182.2C-19.6,126,26,80.4,82.3,80.4c11.3,0,22.1,1.8,32.3,5.2
	l0-0.1c-13.8-6.9-29.3-10.8-45.7-10.8c-0.8,0-1.6,0-2.4,0C11.3,76.2-32.9,121.3-33,176.7C-33,221.3-4.2,259.2,35.7,272.9z"/>
<path fill="#2DACD8" d="M118.7,207.6H19.6c-2,0-3.7,1.6-3.7,3.7v18.1c0,2,1.6,3.7,3.7,3.7h99.1c2,0,3.7-1.6,3.7-3.7v-18.1
	C122.3,209.2,120.7,207.6,118.7,207.6z"/>
<path fill="#2DACD8" d="M118.7,178.6H19.6c-2,0-3.7,1.6-3.7,3.7v18.1c0,2,1.6,3.7,3.7,3.7h99.1c2,0,3.7-1.6,3.7-3.7v-18.1
	C122.3,180.3,120.7,178.6,118.7,178.6z"/>
<path fill="#2DACD8" d="M118.7,149.7H19.6c-2,0-3.7,1.6-3.7,3.7v18.1c0,2,1.6,3.7,3.7,3.7h99.1c2,0,3.7-1.6,3.7-3.7v-18.1
	C122.3,151.3,120.7,149.7,118.7,149.7z"/>
<path fill="#2DACD8" d="M118.7,120.7H19.6c-2,0-3.7,1.6-3.7,3.7v18.1c0,2,1.6,3.7,3.7,3.7h99.1c2,0,3.7-1.6,3.7-3.7v-18.1
	C122.3,122.3,120.7,120.7,118.7,120.7z"/>
<circle fill="#F1F1F1" cx="112.1" cy="216.2" r="2.1"/>
<circle fill="#F1F1F1" cx="104.1" cy="216.2" r="2.1"/>
<circle fill="#F1F1F1" cx="95.3" cy="216.2" r="2.1"/>
<path fill="#F19126" d="M32.3,216.3h-6.4c-0.4,0-0.8,0.4-0.8,0.8v6.4c0,0.4,0.4,0.8,0.8,0.8h6.4c0.4,0,0.8-0.4,0.8-0.8v-6.4
	C33.1,216.7,32.7,216.3,32.3,216.3z"/>
<circle fill="#F1F1F1" cx="112.1" cy="187.3" r="2.1"/>
<circle fill="#F1F1F1" cx="104.1" cy="187.3" r="2.1"/>
<circle fill="#F1F1F1" cx="95.3" cy="187.3" r="2.1"/>
<path fill="#F19126" d="M32.3,187.4h-6.4c-0.4,0-0.8,0.4-0.8,0.8v6.4c0,0.4,0.4,0.8,0.8,0.8h6.4c0.4,0,0.8-0.4,0.8-0.8v-6.4
	C33.1,187.7,32.7,187.4,32.3,187.4z"/>
<circle fill="#F1F1F1" cx="112.1" cy="158.3" r="2.1"/>
<circle fill="#F1F1F1" cx="104.1" cy="158.3" r="2.1"/>
<circle fill="#F1F1F1" cx="95.3" cy="158.3" r="2.1"/>
<path fill="#F19126" d="M32.3,158.4h-6.4c-0.4,0-0.8,0.4-0.8,0.8v6.4c0,0.4,0.4,0.8,0.8,0.8h6.4c0.4,0,0.8-0.4,0.8-0.8v-6.4
	C33.1,158.8,32.7,158.4,32.3,158.4z"/>
<circle fill="#F1F1F1" cx="112.1" cy="129.4" r="2.1"/>
<circle fill="#F1F1F1" cx="104.1" cy="129.4" r="2.1"/>
<circle fill="#F1F1F1" cx="95.3" cy="129.4" r="2.1"/>
<path fill="#F19126" d="M32.3,129.5h-6.4c-0.4,0-0.8,0.4-0.8,0.8v6.4c0,0.4,0.4,0.8,0.8,0.8h6.4c0.4,0,0.8-0.4,0.8-0.8v-6.4
	C33.1,129.8,32.7,129.5,32.3,129.5z"/>
<rect x="15.9" y="120.7" fill="none" width="106.4" height="112.3"/>
</svg>
