<?xml version="1.0" encoding="utf-8"?>
<!-- Generator: Adobe Illustrator 18.1.0, SVG Export Plug-In . SVG Version: 6.00 Build 0)  -->
<svg version="1.1" id="Layer_1" xmlns="http://www.w3.org/2000/svg" xmlns:xlink="http://www.w3.org/1999/xlink" x="0px" y="0px"
	 width="271px" height="270.9px" viewBox="0 40.5 271 270.9" enable-background="new 0 40.5 271 270.9" xml:space="preserve">
<g id="doctor">
	<path fill="#00619E" d="M67.1,259.6l0.1-1.3c-2.4,0.4-4.3,1.6-5.9,3.6c-1.6,1.9-2.4,4.2-2.4,6.8c0,2.9,1,5.4,3,7.4
		c1,1,2.1,1.8,3.3,2.3c1.2,0.5,2.6,0.8,4,0.8c2.8,0,5.2-1,7.2-3.1c2-2,3-4.5,3-7.4c0-2.5-0.7-4.7-2.2-6.6c-1.5-1.9-3.4-3.2-5.7-3.7
		l-0.1,1.2c2,0.5,3.6,1.6,4.8,3.3c1.3,1.7,2,3.7,2,5.9c0,2.6-0.9,4.7-2.6,6.6s-3.8,2.7-6.3,2.7c-2.5,0-4.6-0.9-6.4-2.7
		c-1.7-1.8-2.6-4-2.6-6.6c0-2.2,0.7-4.2,2-5.9C63.4,261.2,65.1,260.1,67.1,259.6 M261.3,225.2l0.4,0.1c0.1-0.2,0.2-0.5,0.3-0.7
		c-0.1,0.2-0.2,0.5-0.3,0.7L261.3,225.2 M188.8,203.8c-0.2-0.2-0.5-0.4-0.7-0.7l-6.1-1.9c1.6,1.1,3.2,2.6,4.8,4.3
		c1.7,1.9,3.2,3.8,4.3,5.9c0.6,1.1,1.2,2.3,1.7,3.5H190c-2.2,0-4.1,0.8-5.6,2.5c-1.6,1.6-2.4,3.6-2.4,5.9v6h0.1l-0.3,16.1
		c0.2,11.7,1.4,20.2,3.6,25.4l1.3,2.7c0.2,0.3,0.4,0.7,0.7,1c1.1,1.5,2.3,2.7,3.6,3.5c-1-0.1-2.1-0.5-3.3-1v-0.8
		c0-0.4-0.3-0.7-0.7-0.8l-3.2-1.6c-0.2-0.1-0.5-0.2-0.7-0.2c-0.6,0-1,0.2-1.2,0.7l-0.9,2.6c-0.2,0.8,0.2,1.3,1.2,1.6l3.5,0.9
		c0.7,0.2,1.2-0.1,1.4-0.8c2.8,1.1,5.3,1.4,7.5,0.9c2.3,0.5,4.8,0.2,7.5-0.9c0.4,0.7,0.9,0.9,1.4,0.8l3.5-0.9c0.5-0.1,0.8-0.3,1-0.6
		c0.2-0.3,0.2-0.6,0.1-1l-0.9-2.6c-0.2-0.5-0.6-0.7-1.2-0.7l-0.8,0.2l-3.2,1.6c-0.6,0.3-0.8,0.8-0.6,1.6c-1.3,0.5-2.5,0.9-3.3,1
		c1.6-1.1,3.1-2.6,4.3-4.6l1.3-2.7c2.1-5.2,3.3-13.7,3.6-25.4l-0.3-16.1h0.1v-6c0-0.9-0.1-1.8-0.4-2.7c-1.6-1.8-3.3-3.5-5.1-5.3
		c-0.8-0.3-1.7-0.4-2.6-0.4h-3.3c-0.8-2.6-2-4.9-3.6-7.2C191.3,206.4,190.1,205,188.8,203.8 M203.3,218.9c1.2,1.3,1.8,2.8,1.8,4.6
		v5.8h0.3c0.1,2.4,0.2,4.8,0.2,7c0.4,15.8-0.8,27.1-3.3,33.8l-1.8,3.4c-1.6,2.4-3.6,3.8-5.9,4.4c-2.3-0.6-4.2-2-5.9-4.4l-1.8-3.4
		c-1.8-4.9-2.9-12.5-3.3-22.9c-0.2-6.3-0.1-12.3,0.2-17.9h0.2v-5.8c0-1.8,0.6-3.3,1.8-4.6c1.2-1.3,2.6-1.9,4.3-1.9h8.8
		C200.7,217.1,202.1,217.7,203.3,218.9 M231.3,80.2c-12.5-12.5-26.9-22.1-43.1-29c-0.1-0.1-0.3-0.1-0.4-0.2l-9.2-3.5
		c-1.1-0.3-2.1-0.6-3.2-0.9c6.9,2.2,13.7,5,20.3,8.4V55c-13.9-4.6-28.1-6.9-42.8-6.9c-18.3,0-35.8,3.5-52.6,10.6
		c-16.1,6.8-30.4,16.5-42.9,29s-22.1,26.8-29,42.9c-7.1,16.8-10.6,34.3-10.6,52.6c0,22.7,5.3,43.9,15.8,63.5c0.9-4,2-8,3.2-12.1
		l3.6-11.6c1.8-4.5,4.7-7.7,8.5-9.5l5.3-1.4c0.7,0,12.6-3.8,35.8-11.3c-1.4,1.6-2.7,3.2-4,4.9c-7.1,9.6-12.3,20.9-15.5,34
		c-1.7,6.8-2.7,13.5-3.1,19.9c-0.1,1.8-0.2,3.6-0.2,5.3c-1.4,0.7-2.2,2-2.2,3.8c0,1.2,0.4,2.1,1.2,3c0.8,0.8,1.7,1.2,2.8,1.2
		c1.1,0,2-0.4,2.8-1.2c0.8-0.8,1.2-1.8,1.2-3c0-0.9-0.2-1.7-0.7-2.4c-0.5-0.7-1.1-1.2-1.8-1.5c0-2.1,0-4.2,0.1-6.4
		c0.4-5.9,1.4-12.2,3-18.8c1.7-6.8,4-13.2,6.9-19.1c0.1-0.3,0.3-0.6,0.4-0.9c2.1-4.3,4.6-8.3,7.4-12.1c1.2-1.6,2.5-3.2,3.8-4.8
		c1.2-1.3,2.3-2.6,3.5-3.8c1.3-1,2.6-2.1,4.1-3.2c2.9-2.2,5-3.5,6.1-3.8l-4.6,10.2c-3.4,8.3-6.1,16.3-7.9,23.9l6.2,1.6
		c4.8,1.4,9,2.9,12.4,4.4l-4.6,2.5c-3.6,2.2-6.5,4.6-9,7.2l4.6,3.7c3.7,3.3,7.2,6.9,10.6,10.9c8.2,9.6,14.3,19.8,18.4,30.8
		c1.4,3.7,2.5,7.4,3.5,11.2c0.9-3.8,2.1-7.5,3.5-11.1c4.1-10.9,10.3-21.2,18.6-30.8c5.5-6.4,10.5-11.3,15-14.6c-2.5-2.6-5.4-5-9-7.2
		l-4.6-2.5c5.5-2.5,11.7-4.5,18.6-6c-1.8-7.6-4.5-15.5-7.9-23.7c-2.4-5.4-3.9-8.8-4.4-10c-1.4-0.4-2.7-0.6-4-0.6l0.1,0.4v0.1
		c-0.2,1.4-0.6,2.4-1.2,3.1l-20.9,14.2c3.3,2.6,5.5,5,6.8,7.4c-1.6,2.2-3.1,4.9-4.4,8.2c-0.6,1.6-1.1,3-1.4,4.2v4.8l3.8,10.7
		l0.9,23.5l-3.3,7.4c-1.7,4-3.3,7.7-4.6,11.1c-0.5,1.5-1,2.9-1.5,4.2c-0.5-1.4-1-2.8-1.6-4.3c-1.2-3.3-2.7-6.9-4.4-10.9l-3.3-7.4
		l0.9-23.5l3.8-10.7v-4.8c-1.3-4.7-3.2-8.8-5.8-12.4c1.3-2.4,3.5-4.8,6.7-7.4l-21-14.2c-0.7-0.7-1.1-1.8-1.2-3.1v-0.1l1.7-20.9
		c-3-5.7-5.2-12-6.6-18.9c-0.4,0.3-0.9,0.4-1.5,0.3c-1.2-0.2-2.2-1.4-2.9-3.5c-1.4-4-2.5-8.4-3-13.2c-0.8-6.2,0.2-8.8,2.8-7.8
		L98,104.8c0-1.3,0.3-2.9,0.8-4.7c1-3.5,2.8-6.2,5.5-8.2c1.2-0.8,2.4-3.3,3.8-7.4c2.6-4,7.7-6.7,15.3-8.1c0.2,0,0.2-0.1-0.1-0.2
		c-0.5-0.2-0.9-0.4-1.2-0.6c-1.7-1.2-2.3-1.7-2-1.5c0.1,0,0.7,0.3,1.9,0.7c1.3,0.5,2.5,0.8,3.5,0.9l1.7,0.1c0.1,0,0.1,0,0-0.1
		c-0.5-0.2-1-0.6-1.5-0.9c-0.8-0.6-1.5-1.5-2.2-2.7c-0.8-1.5-0.9-1.9-0.4-1.2c0.3,0.5,1.3,1,2.9,1.7c1.6,0.7,3.1,1,4.3,1.1l5.9,0.1
		c4.9,0,9.3,0.7,13.2,1.9c0.9,0.3,1.8,0.6,2.7,0.9c2.4,1,4.7,2.3,7,4l105.5,54.2c-1.2-3.9-2.7-7.7-4.3-11.5
		C253.5,107,243.8,92.7,231.3,80.2z"/>
	<path fill="#00619E" d="M238.6,263.9c-0.4,0.5-0.9,1.1-1.4,1.6c0,0.1,0,0.1,0,0.1L238.6,263.9 M204.9,217.4c-0.9-1-2-1.6-3.1-2
		c1.7,1.7,3.4,3.5,5.1,5.3C206.5,219.4,205.9,218.3,204.9,217.4z"/>
	<rect x="58.9" y="258.4" fill="#FFFFFF" width="27.8" height="26.9"/>
	<path fill="#2DACD8" d="M123.1,70.8c-0.5-0.7-0.3-0.3,0.4,1.2c0.6,1.2,1.3,2.1,2.2,2.7c0.5,0.4,1,0.7,1.5,0.9
		c0.1,0.1,0.1,0.1,0,0.1l-1.7-0.1c-1.1-0.1-2.2-0.4-3.5-0.9c-1.2-0.4-1.8-0.7-1.9-0.7c-0.4-0.2,0.3,0.3,2,1.5
		c0.3,0.2,0.7,0.4,1.2,0.6c0.3,0.1,0.4,0.2,0.1,0.2c-7.7,1.4-12.8,4.1-15.3,8.1c-1.4,4.1-2.7,6.5-3.8,7.4c-2.6,2-4.5,4.7-5.5,8.2
		c-0.5,1.8-0.8,3.3-0.8,4.7l2.2,23.4c-2.6-1-3.6,1.6-2.8,7.8c0.6,4.8,1.6,9.2,3,13.2c0.7,2.1,1.7,3.2,2.9,3.5c0.6,0.1,1.1,0,1.5-0.3
		c1.3,6.9,3.5,13.2,6.6,18.9l-1.7,20.9v0.1c0.1,1.3,0.5,2.4,1.2,3.1l21,14.2c-3.2,2.6-5.5,5-6.7,7.4c2.6,3.6,4.5,7.7,5.8,12.4v4.8
		l-3.8,10.7l-0.9,23.5l3.3,7.4c1.7,4,3.2,7.6,4.4,10.9c0.6,1.5,1.1,3,1.6,4.3c0.5-1.3,1-2.7,1.5-4.2c1.3-3.3,2.8-7,4.6-11.1l3.3-7.4
		l-0.9-23.5l-3.8-10.7v-4.8c0.3-1.2,0.8-2.6,1.4-4.2c1.3-3.2,2.8-5.9,4.4-8.2c-1.3-2.4-3.5-4.8-6.8-7.4l20.9-14.2
		c0.6-0.7,1-1.7,1.2-3.1v-0.1l-1.7-20.9c3-5.7,5.2-12,6.6-18.9c1.8,0.9,3.3-0.1,4.3-3c1.5-4.1,2.5-8.5,3.1-13.4
		c0.8-6.3-0.2-8.9-2.8-7.9l2.2-23.4c0.1-3.2-0.4-6.4-1.6-9.5c-0.7-1.9-1.5-3.3-2.5-4.1c-0.5-0.5-1.3-0.9-2.2-1.2
		c-0.6-0.2-0.9-0.7-1-1.4c0-1.3-0.6-2.4-1.5-3.5c-0.7-0.9-2-2.1-3.9-3.6c-0.4-0.3-0.8-0.6-1.2-0.9c-2.3-1.7-4.6-3.1-7-4
		c-0.9-0.3-1.7-0.7-2.7-0.9c-3.9-1.2-8.3-1.8-13.2-1.9l-5.9-0.1c-1.2,0-2.6-0.4-4.3-1.1C124.4,71.8,123.5,71.3,123.1,70.8
		 M205.1,223.5c0-1.8-0.6-3.3-1.8-4.6s-2.6-1.9-4.3-1.9h-8.8c-1.7,0-3.1,0.6-4.3,1.9c-1.2,1.3-1.8,2.8-1.8,4.6v5.8h-0.2
		c-0.3,5.6-0.4,11.6-0.2,17.9c0.3,10.4,1.4,18,3.3,22.9l1.8,3.4c1.7,2.4,3.7,3.8,5.9,4.4c2.3-0.6,4.3-2,5.9-4.4l1.8-3.4
		c2.6-6.7,3.7-18,3.3-33.8c0-2.2-0.1-4.6-0.2-7h-0.3V223.5 M193.2,204.6c-1.7-0.5-3.4-1.1-5.3-1.7c0.1,0.1,0.1,0.1,0.1,0.1
		c0.3,0.2,0.5,0.4,0.7,0.7c1.3,1.3,2.5,2.6,3.5,4c1.6,2.2,2.8,4.6,3.6,7.2h3.3c0.9,0,1.8,0.1,2.6,0.4c1.1,0.4,2.2,1.1,3.1,2
		c0.9,1,1.6,2.1,2,3.3c0.3,0.8,0.4,1.7,0.4,2.7v6h-0.1l0.3,16.1c-0.3,11.7-1.5,20.2-3.6,25.4l-1.3,2.7c-1.2,2-2.6,3.5-4.3,4.6
		c0.9-0.1,2-0.5,3.3-1c-0.2-0.8,0-1.3,0.6-1.6l3.2-1.6l0.8-0.2c0.5,0,0.9,0.2,1.2,0.7l0.9,2.6c0.1,0.4,0,0.7-0.1,1
		c-0.2,0.3-0.5,0.5-1,0.6l-3.5,0.9c-0.5,0.1-1-0.1-1.4-0.8c-2.7,1.1-5.2,1.4-7.5,0.9c-2.2,0.5-4.7,0.2-7.5-0.9
		c-0.2,0.7-0.7,1-1.4,0.8l-3.5-0.9c-1-0.2-1.3-0.8-1.2-1.6l0.9-2.6c0.2-0.5,0.6-0.7,1.2-0.7c0.2,0,0.5,0.1,0.7,0.2l3.2,1.6
		c0.4,0.1,0.6,0.4,0.7,0.8v0.8c1.2,0.5,2.3,0.9,3.3,1c-1.3-0.9-2.6-2.1-3.6-3.5c-0.2-0.3-0.4-0.7-0.7-1l-1.3-2.7
		c-2.2-5.2-3.4-13.7-3.6-25.4l0.3-16.1h-0.1v-6c0-2.3,0.8-4.3,2.4-5.9c1.5-1.6,3.4-2.5,5.6-2.5h2.8c-0.5-1.2-1-2.4-1.7-3.5
		c-1.2-2-2.6-4-4.3-5.9c-1.6-1.7-3.2-3.1-4.8-4.3c-0.2-0.1-0.3-0.2-0.5-0.3l-6.1-2c-5-4.1-8.4-6.5-10.2-6.9c0,0,0.1,0.2,0.2,0.4
		c0.5,1.2,2,4.5,4.4,10c3.4,8.2,6,16.1,7.9,23.7c-6.9,1.5-13.1,3.5-18.6,6l4.6,2.5c3.5,2.2,6.5,4.6,9,7.2c-4.5,3.3-9.5,8.2-15,14.6
		c-8.2,9.7-14.4,20-18.6,30.8c-1.4,3.7-2.5,7.4-3.5,11.1c-0.9-3.8-2.1-7.5-3.5-11.2c-4.1-10.9-10.3-21.2-18.4-30.8
		c-3.4-4-7-7.6-10.6-10.9l-4.6-3.7c2.4-2.6,5.4-5,9-7.2l4.6-2.5c-3.5-1.5-7.6-3-12.4-4.4l-6.2-1.6c1.9-7.7,4.5-15.6,7.9-23.9
		l4.6-10.2c-1.1,0.3-3.1,1.5-6.1,3.8c-1.5,1.1-2.9,2.2-4.1,3.2c-1.2,1.2-2.4,2.5-3.5,3.8c-1.3,1.5-2.5,3.1-3.8,4.8
		c-2.8,3.8-5.2,7.8-7.4,12.1c-0.1,0.3-0.3,0.6-0.4,0.9c-2.8,5.9-5.1,12.2-6.9,19.1c-1.6,6.6-2.6,12.9-3,18.8
		c-0.1,2.2-0.2,4.3-0.1,6.4c0.7,0.3,1.3,0.8,1.8,1.5c0.4,0.7,0.7,1.5,0.7,2.4c0,1.2-0.4,2.1-1.2,3c-0.8,0.8-1.7,1.2-2.8,1.2
		c-1.1,0-2-0.5-2.8-1.2c-0.8-0.8-1.2-1.8-1.2-3c0-1.8,0.7-3,2.2-3.8c0-1.8,0.1-3.5,0.2-5.3c0.4-6.5,1.4-13.1,3.1-19.9
		c3.2-13.1,8.4-24.4,15.5-34c1.3-1.7,2.6-3.3,4-4.9C66.9,208.2,55,212,54.2,212l-5.3,1.4c-3.9,1.8-6.7,5-8.5,9.5l-3.6,11.6
		c-1.2,4.1-2.2,8.1-3.2,12.1c-1.2,5-2.2,9.8-3,14.6c0,0.2,0,0.3-0.1,0.4h-0.1c2.9,3.5,6,6.9,9.2,10.2c0.1,0.1,0.2,0.2,0.2,0.2
		c0.1,0.1,0.2,0.2,0.3,0.3c0.1,0.1,0.1,0.1,0.2,0.2l0.1,0.1c0.1,0.1,0.3,0.3,0.4,0.4c0.4,0.3,0.7,0.6,1,0.9l7.2,6.4
		c0.2,0.1,0.3,0.2,0.4,0.3c1.9,1.6,3.9,3.2,5.9,4.6c0.3,0.2,0.5,0.4,0.8,0.5c6.4,4.9,13.7,9.2,21.9,13c0.2,0.1,0.3,0.1,0.5,0.2
		s0.3,0.1,0.4,0.2c0.3,0.1,0.6,0.3,0.9,0.4c0.2,0.1,0.4,0.2,0.5,0.2c0.6,0.3,1.2,0.6,1.8,0.8c0.2,0.1,0.4,0.2,0.7,0.3
		c16.6,7,33.9,10.5,52.1,10.6c0.2,0,0.4,0,0.7,0c0.1,0,0.2,0,0.3,0c0.3,0,0.5,0,0.7,0c0.1,0,0.2,0,0.3,0c1.7,0,3.5-0.1,5.1-0.1
		l7.8-0.6c0.3,0,0.6,0,0.8-0.1c0.3,0,0.6-0.1,0.9-0.1c10.4-1.2,20.6-3.6,30.5-7.2c2.1-0.7,4.3-1.6,6.4-2.5
		c9.3-3.9,17.9-8.8,25.9-14.5c5.4-3.9,10.6-8.1,15.5-12.9c0.6-0.5,1.2-1.1,1.7-1.7c2-2.1,4-4.2,5.9-6.4c0.5-0.5,0.9-1,1.4-1.6
		l0.5-0.6c0.4-0.5,0.8-1,1.2-1.5c-1.5-7.9-3.6-16.7-6.2-26.4l-3.6-12.5c-1.9-4.5-4.7-7.7-8.6-9.5l-5.3-1.4
		C216.3,212,208.5,209.5,193.2,204.6 M67.2,258.3l-0.1,1.3c-2,0.5-3.7,1.6-5,3.3c-1.3,1.7-2,3.6-2,5.9c0,2.6,0.9,4.7,2.6,6.6
		c1.7,1.8,3.9,2.7,6.4,2.7c2.5,0,4.6-0.9,6.3-2.7s2.6-4,2.6-6.6c0-2.2-0.7-4.1-2-5.9c-1.3-1.6-2.9-2.7-4.8-3.3l0.1-1.2
		c2.3,0.5,4.2,1.8,5.7,3.7s2.2,4.1,2.2,6.6c0,2.9-1,5.4-3,7.4c-2,2.1-4.4,3.1-7.2,3.1c-1.4,0-2.7-0.3-4-0.8
		c-1.2-0.5-2.3-1.3-3.3-2.3c-2-2-3-4.5-3-7.4c0-2.6,0.8-4.9,2.4-6.8C62.8,259.9,64.8,258.7,67.2,258.3z"/>
	<path fill="#114069" d="M269.3,154.1c-0.9-7.1-2.4-13.5-4.5-19.3L159.1,80.5c0.4,0.3,0.8,0.6,1.2,0.9c1.9,1.5,3.2,2.7,3.9,3.6
		c1,1.1,1.5,2.3,1.5,3.5c0.1,0.7,0.4,1.2,1,1.4c1,0.3,1.7,0.7,2.2,1.2c0.9,0.9,1.7,2.2,2.5,4.1c1.2,3.2,1.7,6.4,1.6,9.5l-2.2,23.4
		c2.6-1,3.6,1.6,2.8,7.9c-0.6,4.8-1.6,9.3-3.1,13.4c-1.1,2.9-2.5,3.9-4.3,3c-1.3,6.9-3.5,13.2-6.6,18.9l1.7,20.5
		c1.3,0,2.6,0.2,4,0.6c-0.1-0.3-0.2-0.4-0.2-0.4c1.8,0.5,5.2,2.8,10.2,6.9l6.1,2c0.2,0.1,0.3,0.2,0.5,0.3l6.1,1.9
		c0,0-0.1-0.1-0.1-0.1c1.9,0.6,3.6,1.2,5.3,1.7c15.3,4.9,23.1,7.4,23.5,7.4l5.3,1.4c3.9,1.8,6.7,5,8.6,9.5l3.6,12.5
		c2.6,9.7,4.7,18.5,6.2,26.4l0.1-0.1c0.2-0.2,0.3-0.4,0.5-0.6l5.7-7.6c0.3-0.4,0.5-0.8,0.8-1.2c0.2-0.3,0.5-0.7,0.7-1l4.7-7.5
		c0.6-0.9,1.1-1.8,1.6-2.7c0.3-0.5,0.5-1,0.8-1.5c0.3-0.5,0.6-1.1,0.9-1.7c0.6-1.2,1.3-2.5,1.9-3.8c0.4-0.8,0.7-1.6,1.1-2.4
		c0.1-0.2,0.2-0.4,0.2-0.6c0.4-0.8,0.8-1.7,1.2-2.5c0.5-1.1,0.9-2.2,1.3-3.3l-0.4-0.1l0.4,0.1c0.1-0.2,0.2-0.5,0.3-0.7
		c6-15.5,9-31.8,9-48.7c0-0.2,0-0.5,0-0.7v-0.1C271,168,270.4,161,269.3,154.1z"/>
	<path fill="#114069" d="M195.7,55L195.7,55c-6.6-3.4-13.4-6.2-20.3-8.5c1.1,0.3,2.1,0.6,3.2,0.9c-13.8-4.6-28.2-6.9-43.1-6.9
		c-0.1,0-0.3,0-0.4,0c-15.8,0-31.1,2.7-45.7,8L89,48.6c-2.2,0.8-4.3,1.6-6.5,2.5c-16.1,6.8-30.4,16.5-42.9,29
		c-12.5,12.4-22.1,26.7-29,42.9c-0.9,2.1-1.7,4.3-2.5,6.5v0.1c-5.4,14.7-8,30.1-8.1,46c0,0.1,0,0.2,0,0.4c0,17.8,3.3,34.8,9.9,51.1
		l0.6,1.4c0.1,0.1,0.1,0.2,0.1,0.3c5.1,12,11.7,23,19.9,32.9h0.1c0-0.1,0-0.3,0.1-0.4c0.8-4.7,1.8-9.6,3-14.6
		c-10.5-19.6-15.8-40.7-15.8-63.5c0-18.3,3.5-35.8,10.6-52.6c6.8-16.1,16.5-30.4,29-42.9s26.8-22.1,42.9-29
		c16.8-7.1,34.3-10.6,52.6-10.6C167.6,48,181.9,50.4,195.7,55z"/>
</g>
<g id="Layer_1_1_">
</g>
</svg>
