<?xml version="1.0" encoding="utf-8"?>
<!-- Generator: Adobe Illustrator 18.1.0, SVG Export Plug-In . SVG Version: 6.00 Build 0)  -->
<!DOCTYPE svg PUBLIC "-//W3C//DTD SVG 1.1//EN" "http://www.w3.org/Graphics/SVG/1.1/DTD/svg11.dtd">
<svg version="1.1" id="Layer_1" xmlns="http://www.w3.org/2000/svg" xmlns:xlink="http://www.w3.org/1999/xlink" x="0px" y="0px"
	 width="87.6px" height="259px" viewBox="709.5 -167 87.6 259" enable-background="new 709.5 -167 87.6 259" xml:space="preserve">
<g enable-background="new    ">
	<path fill="#CCCCCC" d="M729.5-101v-0.8h13v0.8H729.5z"/>
	<path fill="#CCCCCC" d="M736-115.8c0.9,0,1.8,0.1,2.7,0.4c0.8,0.3,1.5,0.7,2.2,1.2c0.6,0.5,1.1,1.2,1.4,1.9
		c0.4,0.8,0.5,1.6,0.5,2.6c0,1-0.2,1.8-0.5,2.6s-0.8,1.4-1.4,1.9c-0.6,0.5-1.3,0.9-2.2,1.2c-0.8,0.3-1.7,0.4-2.7,0.4
		s-1.8-0.1-2.7-0.4c-0.8-0.3-1.5-0.7-2.2-1.2c-0.6-0.5-1.1-1.2-1.4-1.9c-0.4-0.8-0.5-1.6-0.5-2.6c0-1,0.2-1.8,0.5-2.6
		c0.4-0.8,0.8-1.4,1.4-1.9c0.6-0.5,1.3-0.9,2.2-1.2C734.2-115.7,735.1-115.8,736-115.8z M736-104.3c0.8,0,1.6-0.1,2.4-0.4
		c0.7-0.2,1.4-0.6,1.9-1.1c0.6-0.5,1-1,1.3-1.7c0.3-0.7,0.5-1.4,0.5-2.3c0-0.8-0.2-1.6-0.5-2.3c-0.3-0.7-0.8-1.2-1.3-1.7
		c-0.5-0.5-1.2-0.8-1.9-1.1c-0.7-0.2-1.5-0.4-2.4-0.4c-0.8,0-1.6,0.1-2.4,0.4c-0.7,0.2-1.4,0.6-1.9,1.1c-0.5,0.5-1,1-1.3,1.7
		c-0.3,0.7-0.5,1.4-0.5,2.3c0,0.8,0.2,1.6,0.5,2.3c0.3,0.7,0.8,1.2,1.3,1.7c0.6,0.5,1.2,0.8,1.9,1.1
		C734.4-104.4,735.2-104.3,736-104.3z"/>
</g>
<g enable-background="new    ">
	<path fill="#CCCCCC" d="M771.2-97c0.9,0,1.8,0.1,2.7,0.4c0.8,0.3,1.5,0.7,2.2,1.2c0.6,0.5,1.1,1.2,1.4,1.9c0.4,0.8,0.5,1.6,0.5,2.6
		c0,1-0.2,1.8-0.5,2.6s-0.8,1.4-1.4,1.9c-0.6,0.5-1.3,0.9-2.2,1.2c-0.8,0.3-1.7,0.4-2.7,0.4s-1.8-0.1-2.7-0.4
		c-0.8-0.3-1.5-0.7-2.2-1.2c-0.6-0.5-1.1-1.2-1.4-1.9c-0.4-0.8-0.5-1.6-0.5-2.6c0-1,0.2-1.8,0.5-2.6c0.4-0.8,0.8-1.4,1.4-1.9
		c0.6-0.5,1.3-0.9,2.2-1.2C769.4-96.9,770.3-97,771.2-97z M771.2-85.5c0.8,0,1.6-0.1,2.4-0.4c0.7-0.2,1.4-0.6,1.9-1.1
		c0.6-0.5,1-1,1.3-1.7c0.3-0.7,0.5-1.4,0.5-2.3c0-0.8-0.2-1.6-0.5-2.3c-0.3-0.7-0.8-1.2-1.3-1.7c-0.5-0.5-1.2-0.8-1.9-1.1
		c-0.7-0.2-1.5-0.4-2.4-0.4c-0.8,0-1.6,0.1-2.4,0.4c-0.7,0.2-1.4,0.6-1.9,1.1c-0.5,0.5-1,1-1.3,1.7c-0.3,0.7-0.5,1.4-0.5,2.3
		c0,0.8,0.2,1.6,0.5,2.3c0.3,0.7,0.8,1.2,1.3,1.7c0.6,0.5,1.2,0.8,1.9,1.1C769.6-85.6,770.4-85.5,771.2-85.5z"/>
	<path fill="#CCCCCC" d="M764.7-98.7v-0.8h13v0.8H764.7z"/>
	<path fill="#CCCCCC" d="M771.2-113.5c0.9,0,1.8,0.1,2.7,0.4c0.8,0.3,1.5,0.7,2.2,1.2c0.6,0.5,1.1,1.2,1.4,1.9
		c0.4,0.8,0.5,1.6,0.5,2.6c0,1-0.2,1.8-0.5,2.6s-0.8,1.4-1.4,1.9c-0.6,0.5-1.3,0.9-2.2,1.2c-0.8,0.3-1.7,0.4-2.7,0.4
		s-1.8-0.1-2.7-0.4c-0.8-0.3-1.5-0.7-2.2-1.2c-0.6-0.5-1.1-1.2-1.4-1.9c-0.4-0.8-0.5-1.6-0.5-2.6c0-1,0.2-1.8,0.5-2.6
		c0.4-0.8,0.8-1.4,1.4-1.9c0.6-0.5,1.3-0.9,2.2-1.2C769.4-113.4,770.3-113.5,771.2-113.5z M771.2-102c0.8,0,1.6-0.1,2.4-0.4
		c0.7-0.2,1.4-0.6,1.9-1.1c0.6-0.5,1-1,1.3-1.7c0.3-0.7,0.5-1.4,0.5-2.3c0-0.8-0.2-1.6-0.5-2.3c-0.3-0.7-0.8-1.2-1.3-1.7
		c-0.5-0.5-1.2-0.8-1.9-1.1c-0.7-0.2-1.5-0.4-2.4-0.4c-0.8,0-1.6,0.1-2.4,0.4c-0.7,0.2-1.4,0.6-1.9,1.1c-0.5,0.5-1,1-1.3,1.7
		c-0.3,0.7-0.5,1.4-0.5,2.3c0,0.8,0.2,1.6,0.5,2.3c0.3,0.7,0.8,1.2,1.3,1.7c0.6,0.5,1.2,0.8,1.9,1.1
		C769.6-102.1,770.4-102,771.2-102z"/>
	<path fill="#CCCCCC" d="M764.7-115.2v-0.8h13v0.8H764.7z"/>
</g>
<rect x="711.8" y="-123" fill="none" width="15.3" height="34.2"/>
<g enable-background="new    ">
	<path fill="#CCCCCC" d="M712.1-90.3v-0.8h13v0.8H712.1z"/>
	<path fill="#CCCCCC" d="M718.6-105.1c0.9,0,1.8,0.1,2.7,0.4c0.8,0.3,1.5,0.7,2.2,1.2c0.6,0.5,1.1,1.2,1.4,1.9
		c0.4,0.8,0.5,1.6,0.5,2.6c0,1-0.2,1.8-0.5,2.6s-0.8,1.4-1.4,1.9c-0.6,0.5-1.3,0.9-2.2,1.2c-0.8,0.3-1.7,0.4-2.7,0.4
		s-1.8-0.1-2.7-0.4c-0.8-0.3-1.5-0.7-2.2-1.2c-0.6-0.5-1.1-1.2-1.4-1.9c-0.4-0.8-0.5-1.6-0.5-2.6c0-1,0.2-1.8,0.5-2.6
		c0.4-0.8,0.8-1.4,1.4-1.9c0.6-0.5,1.3-0.9,2.2-1.2C716.8-105,717.7-105.1,718.6-105.1z M718.6-93.6c0.8,0,1.6-0.1,2.4-0.4
		c0.7-0.2,1.4-0.6,1.9-1.1c0.6-0.5,1-1,1.3-1.7c0.3-0.7,0.5-1.4,0.5-2.3c0-0.8-0.2-1.6-0.5-2.3c-0.3-0.7-0.8-1.2-1.3-1.7
		c-0.5-0.5-1.2-0.8-1.9-1.1c-0.7-0.2-1.5-0.4-2.4-0.4c-0.8,0-1.6,0.1-2.4,0.4c-0.7,0.2-1.4,0.6-1.9,1.1c-0.5,0.5-1,1-1.3,1.7
		c-0.3,0.7-0.5,1.4-0.5,2.3c0,0.8,0.2,1.6,0.5,2.3c0.3,0.7,0.8,1.2,1.3,1.7c0.6,0.5,1.2,0.8,1.9,1.1C717-93.7,717.8-93.6,718.6-93.6
		z"/>
	<path fill="#CCCCCC" d="M718.6-118.6c0.9,0,1.8,0.1,2.7,0.4c0.8,0.3,1.5,0.7,2.2,1.2c0.6,0.5,1.1,1.2,1.4,1.9
		c0.4,0.8,0.5,1.6,0.5,2.6c0,1-0.2,1.8-0.5,2.6s-0.8,1.4-1.4,1.9c-0.6,0.5-1.3,0.9-2.2,1.2c-0.8,0.3-1.7,0.4-2.7,0.4
		s-1.8-0.1-2.7-0.4c-0.8-0.3-1.5-0.7-2.2-1.2c-0.6-0.5-1.1-1.2-1.4-1.9c-0.4-0.8-0.5-1.6-0.5-2.6c0-1,0.2-1.8,0.5-2.6
		c0.4-0.8,0.8-1.4,1.4-1.9c0.6-0.5,1.3-0.9,2.2-1.2C716.8-118.4,717.7-118.6,718.6-118.6z M718.6-107c0.8,0,1.6-0.1,2.4-0.4
		c0.7-0.2,1.4-0.6,1.9-1.1c0.6-0.5,1-1,1.3-1.7c0.3-0.7,0.5-1.4,0.5-2.3c0-0.8-0.2-1.6-0.5-2.3c-0.3-0.7-0.8-1.2-1.3-1.7
		c-0.5-0.5-1.2-0.8-1.9-1.1c-0.7-0.2-1.5-0.4-2.4-0.4c-0.8,0-1.6,0.1-2.4,0.4c-0.7,0.2-1.4,0.6-1.9,1.1c-0.5,0.5-1,1-1.3,1.7
		c-0.3,0.7-0.5,1.4-0.5,2.3c0,0.8,0.2,1.6,0.5,2.3c0.3,0.7,0.8,1.2,1.3,1.7c0.6,0.5,1.2,0.8,1.9,1.1C717-107.2,717.8-107,718.6-107z
		"/>
</g>
<rect x="781.8" y="-114.5" fill="none" width="15.3" height="31.1"/>
<g enable-background="new    ">
	<path fill="#CCCCCC" d="M788.6-94.5c0.9,0,1.8,0.1,2.7,0.4c0.8,0.3,1.5,0.7,2.2,1.2c0.6,0.5,1.1,1.2,1.4,1.9
		c0.4,0.8,0.5,1.6,0.5,2.6c0,1-0.2,1.8-0.5,2.6s-0.8,1.4-1.4,1.9c-0.6,0.5-1.3,0.9-2.2,1.2c-0.8,0.3-1.7,0.4-2.7,0.4
		s-1.8-0.1-2.7-0.4c-0.8-0.3-1.5-0.7-2.2-1.2c-0.6-0.5-1.1-1.2-1.4-1.9c-0.4-0.8-0.5-1.6-0.5-2.6c0-1,0.2-1.8,0.5-2.6
		c0.4-0.8,0.8-1.4,1.4-1.9c0.6-0.5,1.3-0.9,2.2-1.2C786.8-94.4,787.7-94.5,788.6-94.5z M788.6-83c0.8,0,1.6-0.1,2.4-0.4
		c0.7-0.2,1.4-0.6,1.9-1.1c0.6-0.5,1-1,1.3-1.7c0.3-0.7,0.5-1.4,0.5-2.3c0-0.8-0.2-1.6-0.5-2.3c-0.3-0.7-0.8-1.2-1.3-1.7
		c-0.5-0.5-1.2-0.8-1.9-1.1c-0.7-0.2-1.5-0.4-2.4-0.4c-0.8,0-1.6,0.1-2.4,0.4c-0.7,0.2-1.4,0.6-1.9,1.1c-0.5,0.5-1,1-1.3,1.7
		c-0.3,0.7-0.5,1.4-0.5,2.3c0,0.8,0.2,1.6,0.5,2.3c0.3,0.7,0.8,1.2,1.3,1.7c0.6,0.5,1.2,0.8,1.9,1.1C787-83.1,787.8-83,788.6-83z"/>
	<path fill="#CCCCCC" d="M782.1-96.3v-0.8h13v0.8H782.1z"/>
	<path fill="#CCCCCC" d="M788.6-111.1c0.9,0,1.8,0.1,2.7,0.4c0.8,0.3,1.5,0.7,2.2,1.2c0.6,0.5,1.1,1.2,1.4,1.9
		c0.4,0.8,0.5,1.6,0.5,2.6c0,1-0.2,1.8-0.5,2.6s-0.8,1.4-1.4,1.9c-0.6,0.5-1.3,0.9-2.2,1.2c-0.8,0.3-1.7,0.4-2.7,0.4
		s-1.8-0.1-2.7-0.4c-0.8-0.3-1.5-0.7-2.2-1.2c-0.6-0.5-1.1-1.2-1.4-1.9c-0.4-0.8-0.5-1.6-0.5-2.6c0-1,0.2-1.8,0.5-2.6
		c0.4-0.8,0.8-1.4,1.4-1.9c0.6-0.5,1.3-0.9,2.2-1.2C786.8-110.9,787.7-111.1,788.6-111.1z M788.6-99.6c0.8,0,1.6-0.1,2.4-0.4
		c0.7-0.2,1.4-0.6,1.9-1.1c0.6-0.5,1-1,1.3-1.7c0.3-0.7,0.5-1.4,0.5-2.3c0-0.8-0.2-1.6-0.5-2.3c-0.3-0.7-0.8-1.2-1.3-1.7
		c-0.5-0.5-1.2-0.8-1.9-1.1c-0.7-0.2-1.5-0.4-2.4-0.4c-0.8,0-1.6,0.1-2.4,0.4c-0.7,0.2-1.4,0.6-1.9,1.1c-0.5,0.5-1,1-1.3,1.7
		c-0.3,0.7-0.5,1.4-0.5,2.3c0,0.8,0.2,1.6,0.5,2.3c0.3,0.7,0.8,1.2,1.3,1.7c0.6,0.5,1.2,0.8,1.9,1.1C787-99.7,787.8-99.6,788.6-99.6
		z"/>
</g>
<rect x="729.6" y="-118.8" fill="none" width="15.3" height="40.1"/>
<g enable-background="new    ">
	<path fill="#CCCCCC" d="M736.1-61.1c0.9,0,1.8,0.1,2.7,0.4c0.8,0.3,1.5,0.7,2.2,1.2c0.6,0.5,1.1,1.2,1.4,1.9
		c0.4,0.8,0.5,1.6,0.5,2.6c0,1-0.2,1.8-0.5,2.6s-0.8,1.4-1.4,1.9c-0.6,0.5-1.3,0.9-2.2,1.2c-0.8,0.3-1.7,0.4-2.7,0.4
		s-1.8-0.1-2.7-0.4c-0.8-0.3-1.5-0.7-2.2-1.2c-0.6-0.5-1.1-1.2-1.4-1.9c-0.4-0.8-0.5-1.6-0.5-2.6c0-1,0.2-1.8,0.5-2.6
		c0.4-0.8,0.8-1.4,1.4-1.9c0.6-0.5,1.3-0.9,2.2-1.2C734.3-60.9,735.2-61.1,736.1-61.1z M736.1-49.5c0.8,0,1.6-0.1,2.4-0.4
		c0.7-0.2,1.4-0.6,1.9-1.1c0.6-0.5,1-1,1.3-1.7c0.3-0.7,0.5-1.4,0.5-2.3c0-0.8-0.2-1.6-0.5-2.3c-0.3-0.7-0.8-1.2-1.3-1.7
		c-0.5-0.5-1.2-0.8-1.9-1.1c-0.7-0.2-1.5-0.4-2.4-0.4c-0.8,0-1.6,0.1-2.4,0.4c-0.7,0.2-1.4,0.6-1.9,1.1c-0.5,0.5-1,1-1.3,1.7
		c-0.3,0.7-0.5,1.4-0.5,2.3c0,0.8,0.2,1.6,0.5,2.3c0.3,0.7,0.8,1.2,1.3,1.7c0.6,0.5,1.2,0.8,1.9,1.1
		C734.5-49.7,735.3-49.5,736.1-49.5z"/>
	<path fill="#CCCCCC" d="M736.1-74.5c0.9,0,1.8,0.1,2.7,0.4c0.8,0.3,1.5,0.7,2.2,1.2c0.6,0.5,1.1,1.2,1.4,1.9
		c0.4,0.8,0.5,1.6,0.5,2.6c0,1-0.2,1.8-0.5,2.6s-0.8,1.4-1.4,1.9c-0.6,0.5-1.3,0.9-2.2,1.2c-0.8,0.3-1.7,0.4-2.7,0.4
		s-1.8-0.1-2.7-0.4c-0.8-0.3-1.5-0.7-2.2-1.2c-0.6-0.5-1.1-1.2-1.4-1.9c-0.4-0.8-0.5-1.6-0.5-2.6c0-1,0.2-1.8,0.5-2.6
		c0.4-0.8,0.8-1.4,1.4-1.9c0.6-0.5,1.3-0.9,2.2-1.2C734.3-74.4,735.2-74.5,736.1-74.5z M736.1-63c0.8,0,1.6-0.1,2.4-0.4
		c0.7-0.2,1.4-0.6,1.9-1.1c0.6-0.5,1-1,1.3-1.7c0.3-0.7,0.5-1.4,0.5-2.3c0-0.8-0.2-1.6-0.5-2.3c-0.3-0.7-0.8-1.2-1.3-1.7
		c-0.5-0.5-1.2-0.8-1.9-1.1c-0.7-0.2-1.5-0.4-2.4-0.4c-0.8,0-1.6,0.1-2.4,0.4c-0.7,0.2-1.4,0.6-1.9,1.1c-0.5,0.5-1,1-1.3,1.7
		c-0.3,0.7-0.5,1.4-0.5,2.3c0,0.8,0.2,1.6,0.5,2.3c0.3,0.7,0.8,1.2,1.3,1.7c0.6,0.5,1.2,0.8,1.9,1.1C734.5-63.1,735.3-63,736.1-63z"
		/>
	<path fill="#CCCCCC" d="M729.6-76.2V-77h13v0.8H729.6z"/>
	<path fill="#CCCCCC" d="M729.6-79.3v-0.8h13v0.8H729.6z"/>
	<path fill="#CCCCCC" d="M736.1-94.1c0.9,0,1.8,0.1,2.7,0.4c0.8,0.3,1.5,0.7,2.2,1.2c0.6,0.5,1.1,1.2,1.4,1.9
		c0.4,0.8,0.5,1.6,0.5,2.6c0,1-0.2,1.8-0.5,2.6s-0.8,1.4-1.4,1.9c-0.6,0.5-1.3,0.9-2.2,1.2c-0.8,0.3-1.7,0.4-2.7,0.4
		s-1.8-0.1-2.7-0.4c-0.8-0.3-1.5-0.7-2.2-1.2c-0.6-0.5-1.1-1.2-1.4-1.9c-0.4-0.8-0.5-1.6-0.5-2.6c0-1,0.2-1.8,0.5-2.6
		c0.4-0.8,0.8-1.4,1.4-1.9c0.6-0.5,1.3-0.9,2.2-1.2C734.3-94,735.2-94.1,736.1-94.1z M736.1-82.6c0.8,0,1.6-0.1,2.4-0.4
		c0.7-0.2,1.4-0.6,1.9-1.1c0.6-0.5,1-1,1.3-1.7c0.3-0.7,0.5-1.4,0.5-2.3c0-0.8-0.2-1.6-0.5-2.3c-0.3-0.7-0.8-1.2-1.3-1.7
		c-0.5-0.5-1.2-0.8-1.9-1.1c-0.7-0.2-1.5-0.4-2.4-0.4c-0.8,0-1.6,0.1-2.4,0.4c-0.7,0.2-1.4,0.6-1.9,1.1c-0.5,0.5-1,1-1.3,1.7
		c-0.3,0.7-0.5,1.4-0.5,2.3c0,0.8,0.2,1.6,0.5,2.3c0.3,0.7,0.8,1.2,1.3,1.7c0.6,0.5,1.2,0.8,1.9,1.1
		C734.5-82.7,735.3-82.6,736.1-82.6z"/>
</g>
<rect x="764" y="-117.1" fill="none" width="15.3" height="34.7"/>
<rect x="746.4" y="-118.8" fill="none" width="15.3" height="34.7"/>
<g enable-background="new    ">
	<path fill="#CCCCCC" d="M747.1-84.9v-0.8h13v0.8H747.1z"/>
	<path fill="#CCCCCC" d="M753.6-99.8c0.9,0,1.8,0.1,2.7,0.4c0.8,0.3,1.5,0.7,2.2,1.2c0.6,0.5,1.1,1.2,1.4,1.9
		c0.4,0.8,0.5,1.6,0.5,2.6c0,1-0.2,1.8-0.5,2.6s-0.8,1.4-1.4,1.9c-0.6,0.5-1.3,0.9-2.2,1.2c-0.8,0.3-1.7,0.4-2.7,0.4
		s-1.8-0.1-2.7-0.4c-0.8-0.3-1.5-0.7-2.2-1.2c-0.6-0.5-1.1-1.2-1.4-1.9c-0.4-0.8-0.5-1.6-0.5-2.6c0-1,0.2-1.8,0.5-2.6
		c0.4-0.8,0.8-1.4,1.4-1.9c0.6-0.5,1.3-0.9,2.2-1.2C751.8-99.6,752.7-99.8,753.6-99.8z M753.6-88.2c0.8,0,1.6-0.1,2.4-0.4
		c0.7-0.2,1.4-0.6,1.9-1.1c0.6-0.5,1-1,1.3-1.7c0.3-0.7,0.5-1.4,0.5-2.3c0-0.8-0.2-1.6-0.5-2.3c-0.3-0.7-0.8-1.2-1.3-1.7
		c-0.5-0.5-1.2-0.8-1.9-1.1c-0.7-0.2-1.5-0.4-2.4-0.4c-0.8,0-1.6,0.1-2.4,0.4c-0.7,0.2-1.4,0.6-1.9,1.1c-0.5,0.5-1,1-1.3,1.7
		c-0.3,0.7-0.5,1.4-0.5,2.3c0,0.8,0.2,1.6,0.5,2.3c0.3,0.7,0.8,1.2,1.3,1.7c0.6,0.5,1.2,0.8,1.9,1.1C752-88.4,752.8-88.2,753.6-88.2
		z"/>
	<path fill="#CCCCCC" d="M753.6-113.2c0.9,0,1.8,0.1,2.7,0.4c0.8,0.3,1.5,0.7,2.2,1.2c0.6,0.5,1.1,1.2,1.4,1.9
		c0.4,0.8,0.5,1.6,0.5,2.6c0,1-0.2,1.8-0.5,2.6s-0.8,1.4-1.4,1.9c-0.6,0.5-1.3,0.9-2.2,1.2c-0.8,0.3-1.7,0.4-2.7,0.4
		s-1.8-0.1-2.7-0.4c-0.8-0.3-1.5-0.7-2.2-1.2c-0.6-0.5-1.1-1.2-1.4-1.9c-0.4-0.8-0.5-1.6-0.5-2.6c0-1,0.2-1.8,0.5-2.6
		c0.4-0.8,0.8-1.4,1.4-1.9c0.6-0.5,1.3-0.9,2.2-1.2C751.8-113.1,752.7-113.2,753.6-113.2z M753.6-101.7c0.8,0,1.6-0.1,2.4-0.4
		c0.7-0.2,1.4-0.6,1.9-1.1c0.6-0.5,1-1,1.3-1.7c0.3-0.7,0.5-1.4,0.5-2.3c0-0.8-0.2-1.6-0.5-2.3c-0.3-0.7-0.8-1.2-1.3-1.7
		c-0.5-0.5-1.2-0.8-1.9-1.1c-0.7-0.2-1.5-0.4-2.4-0.4c-0.8,0-1.6,0.1-2.4,0.4c-0.7,0.2-1.4,0.6-1.9,1.1c-0.5,0.5-1,1-1.3,1.7
		c-0.3,0.7-0.5,1.4-0.5,2.3c0,0.8,0.2,1.6,0.5,2.3c0.3,0.7,0.8,1.2,1.3,1.7c0.6,0.5,1.2,0.8,1.9,1.1
		C752-101.8,752.8-101.7,753.6-101.7z"/>
</g>
<g enable-background="new    ">
	<path fill="#CCCCCC" d="M753.5-63.8c0.9,0,1.8,0.1,2.7,0.4c0.8,0.3,1.5,0.7,2.2,1.2c0.6,0.5,1.1,1.2,1.4,1.9
		c0.4,0.8,0.5,1.6,0.5,2.6c0,1-0.2,1.8-0.5,2.6s-0.8,1.4-1.4,1.9c-0.6,0.5-1.3,0.9-2.2,1.2c-0.8,0.3-1.7,0.4-2.7,0.4
		s-1.8-0.1-2.7-0.4c-0.8-0.3-1.5-0.7-2.2-1.2c-0.6-0.5-1.1-1.2-1.4-1.9c-0.4-0.8-0.5-1.6-0.5-2.6c0-1,0.2-1.8,0.5-2.6
		c0.4-0.8,0.8-1.4,1.4-1.9c0.6-0.5,1.3-0.9,2.2-1.2C751.7-63.6,752.6-63.8,753.5-63.8z M753.5-52.3c0.8,0,1.6-0.1,2.4-0.4
		c0.7-0.2,1.4-0.6,1.9-1.1c0.6-0.5,1-1,1.3-1.7c0.3-0.7,0.5-1.4,0.5-2.3c0-0.8-0.2-1.6-0.5-2.3c-0.3-0.7-0.8-1.2-1.3-1.7
		c-0.5-0.5-1.2-0.8-1.9-1.1c-0.7-0.2-1.5-0.4-2.4-0.4c-0.8,0-1.6,0.1-2.4,0.4c-0.7,0.2-1.4,0.6-1.9,1.1c-0.5,0.5-1,1-1.3,1.7
		c-0.3,0.7-0.5,1.4-0.5,2.3c0,0.8,0.2,1.6,0.5,2.3c0.3,0.7,0.8,1.2,1.3,1.7c0.6,0.5,1.2,0.8,1.9,1.1
		C751.9-52.4,752.7-52.3,753.5-52.3z"/>
	<path fill="#CCCCCC" d="M747-65.5v-0.8h13v0.8H747z"/>
	<path fill="#CCCCCC" d="M753.5-80.3c0.9,0,1.8,0.1,2.7,0.4c0.8,0.3,1.5,0.7,2.2,1.2c0.6,0.5,1.1,1.2,1.4,1.9
		c0.4,0.8,0.5,1.6,0.5,2.6c0,1-0.2,1.8-0.5,2.6s-0.8,1.4-1.4,1.9c-0.6,0.5-1.3,0.9-2.2,1.2c-0.8,0.3-1.7,0.4-2.7,0.4
		s-1.8-0.1-2.7-0.4c-0.8-0.3-1.5-0.7-2.2-1.2c-0.6-0.5-1.1-1.2-1.4-1.9c-0.4-0.8-0.5-1.6-0.5-2.6c0-1,0.2-1.8,0.5-2.6
		c0.4-0.8,0.8-1.4,1.4-1.9c0.6-0.5,1.3-0.9,2.2-1.2C751.7-80.2,752.6-80.3,753.5-80.3z M753.5-68.8c0.8,0,1.6-0.1,2.4-0.4
		c0.7-0.2,1.4-0.6,1.9-1.1c0.6-0.5,1-1,1.3-1.7c0.3-0.7,0.5-1.4,0.5-2.3c0-0.8-0.2-1.6-0.5-2.3c-0.3-0.7-0.8-1.2-1.3-1.7
		c-0.5-0.5-1.2-0.8-1.9-1.1c-0.7-0.2-1.5-0.4-2.4-0.4c-0.8,0-1.6,0.1-2.4,0.4c-0.7,0.2-1.4,0.6-1.9,1.1c-0.5,0.5-1,1-1.3,1.7
		c-0.3,0.7-0.5,1.4-0.5,2.3c0,0.8,0.2,1.6,0.5,2.3c0.3,0.7,0.8,1.2,1.3,1.7c0.6,0.5,1.2,0.8,1.9,1.1
		C751.9-68.9,752.7-68.8,753.5-68.8z"/>
</g>
<g enable-background="new    ">
	<path fill="#CCCCCC" d="M747.2-2.4v-0.8h13v0.8H747.2z"/>
	<path fill="#CCCCCC" d="M753.7-17.2c0.9,0,1.8,0.1,2.7,0.4c0.8,0.3,1.5,0.7,2.2,1.2c0.6,0.5,1.1,1.2,1.4,1.9
		c0.4,0.8,0.5,1.6,0.5,2.6s-0.2,1.8-0.5,2.6c-0.4,0.8-0.8,1.4-1.4,1.9c-0.6,0.5-1.3,0.9-2.2,1.2c-0.8,0.3-1.7,0.4-2.7,0.4
		s-1.8-0.1-2.7-0.4c-0.8-0.3-1.5-0.7-2.2-1.2c-0.6-0.5-1.1-1.2-1.4-1.9c-0.4-0.8-0.5-1.6-0.5-2.6s0.2-1.8,0.5-2.6
		c0.4-0.8,0.8-1.4,1.4-1.9c0.6-0.5,1.3-0.9,2.2-1.2C751.9-17.1,752.8-17.2,753.7-17.2z M753.7-5.7c0.8,0,1.6-0.1,2.4-0.4
		s1.4-0.6,1.9-1.1c0.6-0.5,1-1,1.3-1.7c0.3-0.7,0.5-1.4,0.5-2.3s-0.2-1.6-0.5-2.3c-0.3-0.7-0.8-1.2-1.3-1.7
		c-0.5-0.5-1.2-0.8-1.9-1.1c-0.7-0.2-1.5-0.4-2.4-0.4c-0.8,0-1.6,0.1-2.4,0.4c-0.7,0.2-1.4,0.6-1.9,1.1c-0.5,0.5-1,1-1.3,1.7
		c-0.3,0.7-0.5,1.4-0.5,2.3s0.2,1.6,0.5,2.3c0.3,0.7,0.8,1.2,1.3,1.7c0.6,0.5,1.2,0.8,1.9,1.1C752.1-5.8,752.9-5.7,753.7-5.7z"/>
	<path fill="#CCCCCC" d="M753.7-30.6c0.9,0,1.8,0.1,2.7,0.4c0.8,0.3,1.5,0.7,2.2,1.2c0.6,0.5,1.1,1.2,1.4,1.9
		c0.4,0.8,0.5,1.6,0.5,2.6c0,1-0.2,1.8-0.5,2.6s-0.8,1.4-1.4,1.9c-0.6,0.5-1.3,0.9-2.2,1.2c-0.8,0.3-1.7,0.4-2.7,0.4
		s-1.8-0.1-2.7-0.4c-0.8-0.3-1.5-0.7-2.2-1.2c-0.6-0.5-1.1-1.2-1.4-1.9c-0.4-0.8-0.5-1.6-0.5-2.6c0-1,0.2-1.8,0.5-2.6
		c0.4-0.8,0.8-1.4,1.4-1.9c0.6-0.5,1.3-0.9,2.2-1.2C751.9-30.5,752.8-30.6,753.7-30.6z M753.7-19.1c0.8,0,1.6-0.1,2.4-0.4
		c0.7-0.2,1.4-0.6,1.9-1.1c0.6-0.5,1-1,1.3-1.7c0.3-0.7,0.5-1.4,0.5-2.3c0-0.8-0.2-1.6-0.5-2.3c-0.3-0.7-0.8-1.2-1.3-1.7
		c-0.5-0.5-1.2-0.8-1.9-1.1c-0.7-0.2-1.5-0.4-2.4-0.4c-0.8,0-1.6,0.1-2.4,0.4c-0.7,0.2-1.4,0.6-1.9,1.1c-0.5,0.5-1,1-1.3,1.7
		c-0.3,0.7-0.5,1.4-0.5,2.3c0,0.8,0.2,1.6,0.5,2.3c0.3,0.7,0.8,1.2,1.3,1.7c0.6,0.5,1.2,0.8,1.9,1.1
		C752.1-19.2,752.9-19.1,753.7-19.1z"/>
	<path fill="#CCCCCC" d="M747.2-32.4v-0.8h13v0.8H747.2z"/>
	<path fill="#CCCCCC" d="M753.7-47.2c0.9,0,1.8,0.1,2.7,0.4c0.8,0.3,1.5,0.7,2.2,1.2c0.6,0.5,1.1,1.2,1.4,1.9
		c0.4,0.8,0.5,1.6,0.5,2.6c0,1-0.2,1.8-0.5,2.6s-0.8,1.4-1.4,1.9c-0.6,0.5-1.3,0.9-2.2,1.2c-0.8,0.3-1.7,0.4-2.7,0.4
		s-1.8-0.1-2.7-0.4c-0.8-0.3-1.5-0.7-2.2-1.2c-0.6-0.5-1.1-1.2-1.4-1.9c-0.4-0.8-0.5-1.6-0.5-2.6c0-1,0.2-1.8,0.5-2.6
		c0.4-0.8,0.8-1.4,1.4-1.9c0.6-0.5,1.3-0.9,2.2-1.2C751.9-47,752.8-47.2,753.7-47.2z M753.7-35.7c0.8,0,1.6-0.1,2.4-0.4
		c0.7-0.2,1.4-0.6,1.9-1.1c0.6-0.5,1-1,1.3-1.7c0.3-0.7,0.5-1.4,0.5-2.3c0-0.8-0.2-1.6-0.5-2.3c-0.3-0.7-0.8-1.2-1.3-1.7
		c-0.5-0.5-1.2-0.8-1.9-1.1c-0.7-0.2-1.5-0.4-2.4-0.4c-0.8,0-1.6,0.1-2.4,0.4c-0.7,0.2-1.4,0.6-1.9,1.1c-0.5,0.5-1,1-1.3,1.7
		c-0.3,0.7-0.5,1.4-0.5,2.3c0,0.8,0.2,1.6,0.5,2.3c0.3,0.7,0.8,1.2,1.3,1.7c0.6,0.5,1.2,0.8,1.9,1.1
		C752.1-35.8,752.9-35.7,753.7-35.7z"/>
</g>
<rect x="711.8" y="-96.4" fill="none" width="15.3" height="42"/>
<g enable-background="new    ">
	<path fill="#CCCCCC" d="M718.6-67.7c0.9,0,1.8,0.1,2.7,0.4c0.8,0.3,1.5,0.7,2.2,1.2c0.6,0.5,1.1,1.2,1.4,1.9
		c0.4,0.8,0.5,1.6,0.5,2.6c0,1-0.2,1.8-0.5,2.6s-0.8,1.4-1.4,1.9c-0.6,0.5-1.3,0.9-2.2,1.2c-0.8,0.3-1.7,0.4-2.7,0.4
		s-1.8-0.1-2.7-0.4c-0.8-0.3-1.5-0.7-2.2-1.2c-0.6-0.5-1.1-1.2-1.4-1.9c-0.4-0.8-0.5-1.6-0.5-2.6c0-1,0.2-1.8,0.5-2.6
		c0.4-0.8,0.8-1.4,1.4-1.9c0.6-0.5,1.3-0.9,2.2-1.2C716.8-67.6,717.7-67.7,718.6-67.7z M718.6-56.2c0.8,0,1.6-0.1,2.4-0.4
		c0.7-0.2,1.4-0.6,1.9-1.1c0.6-0.5,1-1,1.3-1.7c0.3-0.7,0.5-1.4,0.5-2.3c0-0.8-0.2-1.6-0.5-2.3c-0.3-0.7-0.8-1.2-1.3-1.7
		c-0.5-0.5-1.2-0.8-1.9-1.1c-0.7-0.2-1.5-0.4-2.4-0.4c-0.8,0-1.6,0.1-2.4,0.4c-0.7,0.2-1.4,0.6-1.9,1.1c-0.5,0.5-1,1-1.3,1.7
		c-0.3,0.7-0.5,1.4-0.5,2.3c0,0.8,0.2,1.6,0.5,2.3c0.3,0.7,0.8,1.2,1.3,1.7c0.6,0.5,1.2,0.8,1.9,1.1C717-56.3,717.8-56.2,718.6-56.2
		z"/>
	<path fill="#CCCCCC" d="M718.6-81.1c0.9,0,1.8,0.1,2.7,0.4c0.8,0.3,1.5,0.7,2.2,1.2c0.6,0.5,1.1,1.2,1.4,1.9
		c0.4,0.8,0.5,1.6,0.5,2.6c0,1-0.2,1.8-0.5,2.6s-0.8,1.4-1.4,1.9c-0.6,0.5-1.3,0.9-2.2,1.2c-0.8,0.3-1.7,0.4-2.7,0.4
		s-1.8-0.1-2.7-0.4c-0.8-0.3-1.5-0.7-2.2-1.2c-0.6-0.5-1.1-1.2-1.4-1.9c-0.4-0.8-0.5-1.6-0.5-2.6c0-1,0.2-1.8,0.5-2.6
		c0.4-0.8,0.8-1.4,1.4-1.9c0.6-0.5,1.3-0.9,2.2-1.2C716.8-81,717.7-81.1,718.6-81.1z M718.6-69.6c0.8,0,1.6-0.1,2.4-0.4
		c0.7-0.2,1.4-0.6,1.9-1.1c0.6-0.5,1-1,1.3-1.7c0.3-0.7,0.5-1.4,0.5-2.3c0-0.8-0.2-1.6-0.5-2.3c-0.3-0.7-0.8-1.2-1.3-1.7
		c-0.5-0.5-1.2-0.8-1.9-1.1c-0.7-0.2-1.5-0.4-2.4-0.4c-0.8,0-1.6,0.1-2.4,0.4c-0.7,0.2-1.4,0.6-1.9,1.1c-0.5,0.5-1,1-1.3,1.7
		c-0.3,0.7-0.5,1.4-0.5,2.3c0,0.8,0.2,1.6,0.5,2.3c0.3,0.7,0.8,1.2,1.3,1.7c0.6,0.5,1.2,0.8,1.9,1.1C717-69.7,717.8-69.6,718.6-69.6
		z"/>
	<path fill="#CCCCCC" d="M712.1-82.8v-0.8h13v0.8H712.1z"/>
</g>
<rect x="711.8" y="-76.1" fill="none" width="15.3" height="58.6"/>
<g enable-background="new    ">
	<path fill="#CCCCCC" d="M712.1-18.6v-0.8h13v0.8H712.1z"/>
	<path fill="#CCCCCC" d="M718.6-33.5c0.9,0,1.8,0.1,2.7,0.4c0.8,0.3,1.5,0.7,2.2,1.2c0.6,0.5,1.1,1.2,1.4,1.9
		c0.4,0.8,0.5,1.6,0.5,2.6c0,1-0.2,1.8-0.5,2.6s-0.8,1.4-1.4,1.9c-0.6,0.5-1.3,0.9-2.2,1.2c-0.8,0.3-1.7,0.4-2.7,0.4
		s-1.8-0.1-2.7-0.4c-0.8-0.3-1.5-0.7-2.2-1.2c-0.6-0.5-1.1-1.2-1.4-1.9c-0.4-0.8-0.5-1.6-0.5-2.6c0-1,0.2-1.8,0.5-2.6
		c0.4-0.8,0.8-1.4,1.4-1.9c0.6-0.5,1.3-0.9,2.2-1.2C716.8-33.3,717.7-33.5,718.6-33.5z M718.6-21.9c0.8,0,1.6-0.1,2.4-0.4
		c0.7-0.2,1.4-0.6,1.9-1.1c0.6-0.5,1-1,1.3-1.7c0.3-0.7,0.5-1.4,0.5-2.3c0-0.8-0.2-1.6-0.5-2.3c-0.3-0.7-0.8-1.2-1.3-1.7
		c-0.5-0.5-1.2-0.8-1.9-1.1c-0.7-0.2-1.5-0.4-2.4-0.4c-0.8,0-1.6,0.1-2.4,0.4c-0.7,0.2-1.4,0.6-1.9,1.1c-0.5,0.5-1,1-1.3,1.7
		c-0.3,0.7-0.5,1.4-0.5,2.3c0,0.8,0.2,1.6,0.5,2.3c0.3,0.7,0.8,1.2,1.3,1.7c0.6,0.5,1.2,0.8,1.9,1.1C717-22.1,717.8-21.9,718.6-21.9
		z"/>
	<path fill="#CCCCCC" d="M718.6-46.9c0.9,0,1.8,0.1,2.7,0.4c0.8,0.3,1.5,0.7,2.2,1.2c0.6,0.5,1.1,1.2,1.4,1.9
		c0.4,0.8,0.5,1.6,0.5,2.6c0,1-0.2,1.8-0.5,2.6s-0.8,1.4-1.4,1.9c-0.6,0.5-1.3,0.9-2.2,1.2c-0.8,0.3-1.7,0.4-2.7,0.4
		s-1.8-0.1-2.7-0.4c-0.8-0.3-1.5-0.7-2.2-1.2c-0.6-0.5-1.1-1.2-1.4-1.9c-0.4-0.8-0.5-1.6-0.5-2.6c0-1,0.2-1.8,0.5-2.6
		c0.4-0.8,0.8-1.4,1.4-1.9c0.6-0.5,1.3-0.9,2.2-1.2C716.8-46.8,717.7-46.9,718.6-46.9z M718.6-35.4c0.8,0,1.6-0.1,2.4-0.4
		c0.7-0.2,1.4-0.6,1.9-1.1c0.6-0.5,1-1,1.3-1.7c0.3-0.7,0.5-1.4,0.5-2.3c0-0.8-0.2-1.6-0.5-2.3c-0.3-0.7-0.8-1.2-1.3-1.7
		c-0.5-0.5-1.2-0.8-1.9-1.1c-0.7-0.2-1.5-0.4-2.4-0.4c-0.8,0-1.6,0.1-2.4,0.4c-0.7,0.2-1.4,0.6-1.9,1.1c-0.5,0.5-1,1-1.3,1.7
		c-0.3,0.7-0.5,1.4-0.5,2.3c0,0.8,0.2,1.6,0.5,2.3c0.3,0.7,0.8,1.2,1.3,1.7c0.6,0.5,1.2,0.8,1.9,1.1C717-35.5,717.8-35.4,718.6-35.4
		z"/>
</g>
<rect x="765.3" y="-90.1" fill="none" width="15.3" height="58.6"/>
<g enable-background="new    ">
	<path fill="#CCCCCC" d="M771.3-44.1c0.9,0,1.8,0.1,2.7,0.4c0.8,0.3,1.5,0.7,2.2,1.2c0.6,0.5,1.1,1.2,1.4,1.9
		c0.4,0.8,0.5,1.6,0.5,2.6c0,1-0.2,1.8-0.5,2.6s-0.8,1.4-1.4,1.9c-0.6,0.5-1.3,0.9-2.2,1.2c-0.8,0.3-1.7,0.4-2.7,0.4
		s-1.8-0.1-2.7-0.4c-0.8-0.3-1.5-0.7-2.2-1.2c-0.6-0.5-1.1-1.2-1.4-1.9c-0.4-0.8-0.5-1.6-0.5-2.6c0-1,0.2-1.8,0.5-2.6
		c0.4-0.8,0.8-1.4,1.4-1.9c0.6-0.5,1.3-0.9,2.2-1.2C769.4-44,770.3-44.1,771.3-44.1z M771.3-32.6c0.8,0,1.6-0.1,2.4-0.4
		c0.7-0.2,1.4-0.6,1.9-1.1c0.6-0.5,1-1,1.3-1.7c0.3-0.7,0.5-1.4,0.5-2.3c0-0.8-0.2-1.6-0.5-2.3c-0.3-0.7-0.8-1.2-1.3-1.7
		c-0.5-0.5-1.2-0.8-1.9-1.1c-0.7-0.2-1.5-0.4-2.4-0.4c-0.8,0-1.6,0.1-2.4,0.4c-0.7,0.2-1.4,0.6-1.9,1.1c-0.5,0.5-1,1-1.3,1.7
		c-0.3,0.7-0.5,1.4-0.5,2.3c0,0.8,0.2,1.6,0.5,2.3c0.3,0.7,0.8,1.2,1.3,1.7c0.6,0.5,1.2,0.8,1.9,1.1
		C769.6-32.7,770.4-32.6,771.3-32.6z"/>
	<path fill="#CCCCCC" d="M764.8-45.8v-0.8h13v0.8H764.8z"/>
	<path fill="#CCCCCC" d="M771.3-60.6c0.9,0,1.8,0.1,2.7,0.4c0.8,0.3,1.5,0.7,2.2,1.2c0.6,0.5,1.1,1.2,1.4,1.9
		c0.4,0.8,0.5,1.6,0.5,2.6c0,1-0.2,1.8-0.5,2.6s-0.8,1.4-1.4,1.9c-0.6,0.5-1.3,0.9-2.2,1.2c-0.8,0.3-1.7,0.4-2.7,0.4
		s-1.8-0.1-2.7-0.4c-0.8-0.3-1.5-0.7-2.2-1.2c-0.6-0.5-1.1-1.2-1.4-1.9c-0.4-0.8-0.5-1.6-0.5-2.6c0-1,0.2-1.8,0.5-2.6
		c0.4-0.8,0.8-1.4,1.4-1.9c0.6-0.5,1.3-0.9,2.2-1.2C769.4-60.5,770.3-60.6,771.3-60.6z M771.3-49.1c0.8,0,1.6-0.1,2.4-0.4
		c0.7-0.2,1.4-0.6,1.9-1.1c0.6-0.5,1-1,1.3-1.7c0.3-0.7,0.5-1.4,0.5-2.3c0-0.8-0.2-1.6-0.5-2.3c-0.3-0.7-0.8-1.2-1.3-1.7
		c-0.5-0.5-1.2-0.8-1.9-1.1c-0.7-0.2-1.5-0.4-2.4-0.4c-0.8,0-1.6,0.1-2.4,0.4c-0.7,0.2-1.4,0.6-1.9,1.1c-0.5,0.5-1,1-1.3,1.7
		c-0.3,0.7-0.5,1.4-0.5,2.3c0,0.8,0.2,1.6,0.5,2.3c0.3,0.7,0.8,1.2,1.3,1.7c0.6,0.5,1.2,0.8,1.9,1.1
		C769.6-49.2,770.4-49.1,771.3-49.1z"/>
	<path fill="#CCCCCC" d="M771.3-74.1c0.9,0,1.8,0.1,2.7,0.4c0.8,0.3,1.5,0.7,2.2,1.2c0.6,0.5,1.1,1.2,1.4,1.9
		c0.4,0.8,0.5,1.6,0.5,2.6c0,1-0.2,1.8-0.5,2.6s-0.8,1.4-1.4,1.9c-0.6,0.5-1.3,0.9-2.2,1.2c-0.8,0.3-1.7,0.4-2.7,0.4
		s-1.8-0.1-2.7-0.4c-0.8-0.3-1.5-0.7-2.2-1.2c-0.6-0.5-1.1-1.2-1.4-1.9c-0.4-0.8-0.5-1.6-0.5-2.6c0-1,0.2-1.8,0.5-2.6
		c0.4-0.8,0.8-1.4,1.4-1.9c0.6-0.5,1.3-0.9,2.2-1.2C769.4-73.9,770.3-74.1,771.3-74.1z M771.3-62.5c0.8,0,1.6-0.1,2.4-0.4
		c0.7-0.2,1.4-0.6,1.9-1.1c0.6-0.5,1-1,1.3-1.7c0.3-0.7,0.5-1.4,0.5-2.3c0-0.8-0.2-1.6-0.5-2.3c-0.3-0.7-0.8-1.2-1.3-1.7
		c-0.5-0.5-1.2-0.8-1.9-1.1c-0.7-0.2-1.5-0.4-2.4-0.4c-0.8,0-1.6,0.1-2.4,0.4c-0.7,0.2-1.4,0.6-1.9,1.1c-0.5,0.5-1,1-1.3,1.7
		c-0.3,0.7-0.5,1.4-0.5,2.3c0,0.8,0.2,1.6,0.5,2.3c0.3,0.7,0.8,1.2,1.3,1.7c0.6,0.5,1.2,0.8,1.9,1.1
		C769.6-62.7,770.4-62.5,771.3-62.5z"/>
	<path fill="#CCCCCC" d="M764.8-75.8v-0.8h13v0.8H764.8z"/>
</g>
<rect x="765.3" y="-48.1" fill="none" width="15.3" height="58.6"/>
<g enable-background="new    ">
	<path fill="#CCCCCC" d="M771.1-2.5c0.9,0,1.8,0.1,2.7,0.4c0.8,0.3,1.5,0.7,2.2,1.2c0.6,0.5,1.1,1.2,1.4,1.9s0.5,1.6,0.5,2.6
		s-0.2,1.8-0.5,2.6c-0.4,0.8-0.8,1.4-1.4,1.9c-0.6,0.5-1.3,0.9-2.2,1.2c-0.8,0.3-1.7,0.4-2.7,0.4s-1.8-0.1-2.7-0.4
		c-0.8-0.3-1.5-0.7-2.2-1.2c-0.6-0.5-1.1-1.2-1.4-1.9c-0.4-0.8-0.5-1.6-0.5-2.6s0.2-1.8,0.5-2.6c0.4-0.8,0.8-1.4,1.4-1.9
		c0.6-0.5,1.3-0.9,2.2-1.2C769.3-2.4,770.2-2.5,771.1-2.5z M771.1,9c0.8,0,1.6-0.1,2.4-0.4s1.4-0.6,1.9-1.1c0.6-0.5,1-1,1.3-1.7
		c0.3-0.7,0.5-1.4,0.5-2.3s-0.2-1.6-0.5-2.3c-0.3-0.7-0.8-1.2-1.3-1.7c-0.5-0.5-1.2-0.8-1.9-1.1s-1.5-0.4-2.4-0.4
		c-0.8,0-1.6,0.1-2.4,0.4c-0.7,0.2-1.4,0.6-1.9,1.1c-0.5,0.5-1,1-1.3,1.7c-0.3,0.7-0.5,1.4-0.5,2.3s0.2,1.6,0.5,2.3
		c0.3,0.7,0.8,1.2,1.3,1.7c0.6,0.5,1.2,0.8,1.9,1.1C769.5,8.9,770.3,9,771.1,9z"/>
	<path fill="#CCCCCC" d="M771.1-15.9c0.9,0,1.8,0.1,2.7,0.4c0.8,0.3,1.5,0.7,2.2,1.2c0.6,0.5,1.1,1.2,1.4,1.9s0.5,1.6,0.5,2.6
		s-0.2,1.8-0.5,2.6c-0.4,0.8-0.8,1.4-1.4,1.9c-0.6,0.5-1.3,0.9-2.2,1.2c-0.8,0.3-1.7,0.4-2.7,0.4s-1.8-0.1-2.7-0.4
		c-0.8-0.3-1.5-0.7-2.2-1.2c-0.6-0.5-1.1-1.2-1.4-1.9c-0.4-0.8-0.5-1.6-0.5-2.6s0.2-1.8,0.5-2.6c0.4-0.8,0.8-1.4,1.4-1.9
		c0.6-0.5,1.3-0.9,2.2-1.2C769.3-15.8,770.2-15.9,771.1-15.9z M771.1-4.4c0.8,0,1.6-0.1,2.4-0.4s1.4-0.6,1.9-1.1
		c0.6-0.5,1-1,1.3-1.7c0.3-0.7,0.5-1.4,0.5-2.3s-0.2-1.6-0.5-2.3c-0.3-0.7-0.8-1.2-1.3-1.7c-0.5-0.5-1.2-0.8-1.9-1.1
		s-1.5-0.4-2.4-0.4c-0.8,0-1.6,0.1-2.4,0.4c-0.7,0.2-1.4,0.6-1.9,1.1c-0.5,0.5-1,1-1.3,1.7c-0.3,0.7-0.5,1.4-0.5,2.3
		s0.2,1.6,0.5,2.3c0.3,0.7,0.8,1.2,1.3,1.7c0.6,0.5,1.2,0.8,1.9,1.1C769.5-4.5,770.3-4.4,771.1-4.4z"/>
	<path fill="#CCCCCC" d="M764.7-17.6v-0.8h13v0.8H764.7z"/>
	<path fill="#CCCCCC" d="M764.7-20.7v-0.8h13v0.8H764.7z"/>
</g>
<rect x="729.6" y="-86.2" fill="none" width="15.3" height="58.6"/>
<g enable-background="new    ">
	<path fill="#CCCCCC" d="M729.5,1.2V0.4h13v0.8H729.5z"/>
	<path fill="#CCCCCC" d="M735.9-13.7c0.9,0,1.8,0.1,2.7,0.4c0.8,0.3,1.5,0.7,2.2,1.2c0.6,0.5,1.1,1.2,1.4,1.9
		c0.4,0.8,0.5,1.6,0.5,2.6c0,1-0.2,1.8-0.5,2.6s-0.8,1.4-1.4,1.9c-0.6,0.5-1.3,0.9-2.2,1.2c-0.8,0.3-1.7,0.4-2.7,0.4
		s-1.8-0.1-2.7-0.4c-0.8-0.3-1.5-0.7-2.2-1.2c-0.6-0.5-1.1-1.2-1.4-1.9c-0.4-0.8-0.5-1.6-0.5-2.6c0-1,0.2-1.8,0.5-2.6
		c0.4-0.8,0.8-1.4,1.4-1.9c0.6-0.5,1.3-0.9,2.2-1.2C734.1-13.5,735-13.7,735.9-13.7z M735.9-2.1c0.8,0,1.6-0.1,2.4-0.4
		c0.7-0.2,1.4-0.6,1.9-1.1c0.6-0.5,1-1,1.3-1.7c0.3-0.7,0.5-1.4,0.5-2.3c0-0.8-0.2-1.6-0.5-2.3c-0.3-0.7-0.8-1.2-1.3-1.7
		c-0.5-0.5-1.2-0.8-1.9-1.1c-0.7-0.2-1.5-0.4-2.4-0.4c-0.8,0-1.6,0.1-2.4,0.4c-0.7,0.2-1.4,0.6-1.9,1.1c-0.5,0.5-1,1-1.3,1.7
		c-0.3,0.7-0.5,1.4-0.5,2.3c0,0.8,0.2,1.6,0.5,2.3c0.3,0.7,0.8,1.2,1.3,1.7c0.6,0.5,1.2,0.8,1.9,1.1C734.3-2.3,735.1-2.1,735.9-2.1z
		"/>
	<path fill="#CCCCCC" d="M735.9-27.1c0.9,0,1.8,0.1,2.7,0.4c0.8,0.3,1.5,0.7,2.2,1.2c0.6,0.5,1.1,1.2,1.4,1.9
		c0.4,0.8,0.5,1.6,0.5,2.6c0,1-0.2,1.8-0.5,2.6s-0.8,1.4-1.4,1.9c-0.6,0.5-1.3,0.9-2.2,1.2c-0.8,0.3-1.7,0.4-2.7,0.4
		s-1.8-0.1-2.7-0.4c-0.8-0.3-1.5-0.7-2.2-1.2c-0.6-0.5-1.1-1.2-1.4-1.9c-0.4-0.8-0.5-1.6-0.5-2.6c0-1,0.2-1.8,0.5-2.6
		c0.4-0.8,0.8-1.4,1.4-1.9c0.6-0.5,1.3-0.9,2.2-1.2C734.1-27,735-27.1,735.9-27.1z M735.9-15.6c0.8,0,1.6-0.1,2.4-0.4
		c0.7-0.2,1.4-0.6,1.9-1.1c0.6-0.5,1-1,1.3-1.7c0.3-0.7,0.5-1.4,0.5-2.3c0-0.8-0.2-1.6-0.5-2.3c-0.3-0.7-0.8-1.2-1.3-1.7
		c-0.5-0.5-1.2-0.8-1.9-1.1c-0.7-0.2-1.5-0.4-2.4-0.4c-0.8,0-1.6,0.1-2.4,0.4c-0.7,0.2-1.4,0.6-1.9,1.1c-0.5,0.5-1,1-1.3,1.7
		c-0.3,0.7-0.5,1.4-0.5,2.3c0,0.8,0.2,1.6,0.5,2.3c0.3,0.7,0.8,1.2,1.3,1.7c0.6,0.5,1.2,0.8,1.9,1.1
		C734.3-15.7,735.1-15.6,735.9-15.6z"/>
	<path fill="#CCCCCC" d="M729.5-28.8v-0.8h13v0.8H729.5z"/>
	<path fill="#CCCCCC" d="M735.9-43.6c0.9,0,1.8,0.1,2.7,0.4c0.8,0.3,1.5,0.7,2.2,1.2c0.6,0.5,1.1,1.2,1.4,1.9
		c0.4,0.8,0.5,1.6,0.5,2.6c0,1-0.2,1.8-0.5,2.6s-0.8,1.4-1.4,1.9c-0.6,0.5-1.3,0.9-2.2,1.2c-0.8,0.3-1.7,0.4-2.7,0.4
		s-1.8-0.1-2.7-0.4c-0.8-0.3-1.5-0.7-2.2-1.2c-0.6-0.5-1.1-1.2-1.4-1.9c-0.4-0.8-0.5-1.6-0.5-2.6c0-1,0.2-1.8,0.5-2.6
		c0.4-0.8,0.8-1.4,1.4-1.9c0.6-0.5,1.3-0.9,2.2-1.2C734.1-43.5,735-43.6,735.9-43.6z M735.9-32.1c0.8,0,1.6-0.1,2.4-0.4
		c0.7-0.2,1.4-0.6,1.9-1.1c0.6-0.5,1-1,1.3-1.7c0.3-0.7,0.5-1.4,0.5-2.3c0-0.8-0.2-1.6-0.5-2.3c-0.3-0.7-0.8-1.2-1.3-1.7
		c-0.5-0.5-1.2-0.8-1.9-1.1c-0.7-0.2-1.5-0.4-2.4-0.4c-0.8,0-1.6,0.1-2.4,0.4c-0.7,0.2-1.4,0.6-1.9,1.1c-0.5,0.5-1,1-1.3,1.7
		c-0.3,0.7-0.5,1.4-0.5,2.3c0,0.8,0.2,1.6,0.5,2.3c0.3,0.7,0.8,1.2,1.3,1.7c0.6,0.5,1.2,0.8,1.9,1.1
		C734.3-32.2,735.1-32.1,735.9-32.1z"/>
</g>
<rect x="729.6" y="-35.3" fill="none" width="15.3" height="58.6"/>
<g enable-background="new    ">
	<path fill="#CCCCCC" d="M736.1,41.1c0.9,0,1.8,0.1,2.7,0.4c0.8,0.3,1.5,0.7,2.2,1.2c0.6,0.5,1.1,1.2,1.4,1.9s0.5,1.6,0.5,2.6
		s-0.2,1.8-0.5,2.6c-0.4,0.8-0.8,1.4-1.4,1.9c-0.6,0.5-1.3,0.9-2.2,1.2c-0.8,0.3-1.7,0.4-2.7,0.4s-1.8-0.1-2.7-0.4
		c-0.8-0.3-1.5-0.7-2.2-1.2c-0.6-0.5-1.1-1.2-1.4-1.9c-0.4-0.8-0.5-1.6-0.5-2.6s0.2-1.8,0.5-2.6c0.4-0.8,0.8-1.4,1.4-1.9
		c0.6-0.5,1.3-0.9,2.2-1.2C734.2,41.3,735.1,41.1,736.1,41.1z M736.1,52.6c0.8,0,1.6-0.1,2.4-0.4s1.4-0.6,1.9-1.1
		c0.6-0.5,1-1,1.3-1.7c0.3-0.7,0.5-1.4,0.5-2.3s-0.2-1.6-0.5-2.3c-0.3-0.7-0.8-1.2-1.3-1.7c-0.5-0.5-1.2-0.8-1.9-1.1
		s-1.5-0.4-2.4-0.4c-0.8,0-1.6,0.1-2.4,0.4c-0.7,0.2-1.4,0.6-1.9,1.1c-0.5,0.5-1,1-1.3,1.7c-0.3,0.7-0.5,1.4-0.5,2.3
		s0.2,1.6,0.5,2.3c0.3,0.7,0.8,1.2,1.3,1.7c0.6,0.5,1.2,0.8,1.9,1.1C734.4,52.5,735.2,52.6,736.1,52.6z"/>
	<path fill="#CCCCCC" d="M736.1,27.7c0.9,0,1.8,0.1,2.7,0.4c0.8,0.3,1.5,0.7,2.2,1.2c0.6,0.5,1.1,1.2,1.4,1.9s0.5,1.6,0.5,2.6
		s-0.2,1.8-0.5,2.6c-0.4,0.8-0.8,1.4-1.4,1.9c-0.6,0.5-1.3,0.9-2.2,1.2c-0.8,0.3-1.7,0.4-2.7,0.4s-1.8-0.1-2.7-0.4
		c-0.8-0.3-1.5-0.7-2.2-1.2c-0.6-0.5-1.1-1.2-1.4-1.9c-0.4-0.8-0.5-1.6-0.5-2.6s0.2-1.8,0.5-2.6c0.4-0.8,0.8-1.4,1.4-1.9
		c0.6-0.5,1.3-0.9,2.2-1.2C734.2,27.8,735.1,27.7,736.1,27.7z M736.1,39.2c0.8,0,1.6-0.1,2.4-0.4s1.4-0.6,1.9-1.1
		c0.6-0.5,1-1,1.3-1.7c0.3-0.7,0.5-1.4,0.5-2.3s-0.2-1.6-0.5-2.3c-0.3-0.7-0.8-1.2-1.3-1.7c-0.5-0.5-1.2-0.8-1.9-1.1
		s-1.5-0.4-2.4-0.4c-0.8,0-1.6,0.1-2.4,0.4c-0.7,0.2-1.4,0.6-1.9,1.1c-0.5,0.5-1,1-1.3,1.7c-0.3,0.7-0.5,1.4-0.5,2.3
		s0.2,1.6,0.5,2.3c0.3,0.7,0.8,1.2,1.3,1.7c0.6,0.5,1.2,0.8,1.9,1.1C734.4,39.1,735.2,39.2,736.1,39.2z"/>
	<path fill="#CCCCCC" d="M729.6,26v-0.8h13V26H729.6z"/>
	<path fill="#CCCCCC" d="M729.6,22.9v-0.8h13v0.8H729.6z"/>
	<path fill="#CCCCCC" d="M736.1,8.1c0.9,0,1.8,0.1,2.7,0.4c0.8,0.3,1.5,0.7,2.2,1.2c0.6,0.5,1.1,1.2,1.4,1.9s0.5,1.6,0.5,2.6
		s-0.2,1.8-0.5,2.6c-0.4,0.8-0.8,1.4-1.4,1.9c-0.6,0.5-1.3,0.9-2.2,1.2c-0.8,0.3-1.7,0.4-2.7,0.4s-1.8-0.1-2.7-0.4
		c-0.8-0.3-1.5-0.7-2.2-1.2c-0.6-0.5-1.1-1.2-1.4-1.9c-0.4-0.8-0.5-1.6-0.5-2.6s0.2-1.8,0.5-2.6c0.4-0.8,0.8-1.4,1.4-1.9
		c0.6-0.5,1.3-0.9,2.2-1.2C734.2,8.2,735.1,8.1,736.1,8.1z M736.1,19.6c0.8,0,1.6-0.1,2.4-0.4s1.4-0.6,1.9-1.1c0.6-0.5,1-1,1.3-1.7
		c0.3-0.7,0.5-1.4,0.5-2.3s-0.2-1.6-0.5-2.3c-0.3-0.7-0.8-1.2-1.3-1.7c-0.5-0.5-1.2-0.8-1.9-1.1c-0.7-0.2-1.5-0.4-2.4-0.4
		c-0.8,0-1.6,0.1-2.4,0.4c-0.7,0.2-1.4,0.6-1.9,1.1c-0.5,0.5-1,1-1.3,1.7c-0.3,0.7-0.5,1.4-0.5,2.3s0.2,1.6,0.5,2.3
		c0.3,0.7,0.8,1.2,1.3,1.7c0.6,0.5,1.2,0.8,1.9,1.1C734.4,19.5,735.2,19.6,736.1,19.6z"/>
</g>
<rect x="781.8" y="-88.4" fill="none" width="15.3" height="25.5"/>
<g enable-background="new    ">
	<path fill="#CCCCCC" d="M788.7-75.8c0.9,0,1.8,0.1,2.7,0.4c0.8,0.3,1.5,0.7,2.2,1.2c0.6,0.5,1.1,1.2,1.4,1.9
		c0.4,0.8,0.5,1.6,0.5,2.6c0,1-0.2,1.8-0.5,2.6s-0.8,1.4-1.4,1.9c-0.6,0.5-1.3,0.9-2.2,1.2c-0.8,0.3-1.7,0.4-2.7,0.4
		s-1.8-0.1-2.7-0.4c-0.8-0.3-1.5-0.7-2.2-1.2c-0.6-0.5-1.1-1.2-1.4-1.9c-0.4-0.8-0.5-1.6-0.5-2.6c0-1,0.2-1.8,0.5-2.6
		c0.4-0.8,0.8-1.4,1.4-1.9c0.6-0.5,1.3-0.9,2.2-1.2C786.9-75.6,787.7-75.8,788.7-75.8z M788.7-64.2c0.8,0,1.6-0.1,2.4-0.4
		c0.7-0.2,1.4-0.6,1.9-1.1c0.6-0.5,1-1,1.3-1.7c0.3-0.7,0.5-1.4,0.5-2.3c0-0.8-0.2-1.6-0.5-2.3c-0.3-0.7-0.8-1.2-1.3-1.7
		c-0.5-0.5-1.2-0.8-1.9-1.1c-0.7-0.2-1.5-0.4-2.4-0.4c-0.8,0-1.6,0.1-2.4,0.4c-0.7,0.2-1.4,0.6-1.9,1.1c-0.5,0.5-1,1-1.3,1.7
		c-0.3,0.7-0.5,1.4-0.5,2.3c0,0.8,0.2,1.6,0.5,2.3c0.3,0.7,0.8,1.2,1.3,1.7c0.6,0.5,1.2,0.8,1.9,1.1
		C787.1-64.4,787.9-64.2,788.7-64.2z"/>
	<path fill="#CCCCCC" d="M782.2-77.5v-0.8h13v0.8H782.2z"/>
</g>
<rect x="781.8" y="-65.5" fill="none" width="15.3" height="58.6"/>
<g enable-background="new    ">
	<path fill="#CCCCCC" d="M788.5-19.2c0.9,0,1.8,0.1,2.7,0.4c0.8,0.3,1.5,0.7,2.2,1.2c0.6,0.5,1.1,1.2,1.4,1.9s0.5,1.6,0.5,2.6
		s-0.2,1.8-0.5,2.6c-0.4,0.8-0.8,1.4-1.4,1.9c-0.6,0.5-1.3,0.9-2.2,1.2c-0.8,0.3-1.7,0.4-2.7,0.4s-1.8-0.1-2.7-0.4
		c-0.8-0.3-1.5-0.7-2.2-1.2c-0.6-0.5-1.1-1.2-1.4-1.9c-0.4-0.8-0.5-1.6-0.5-2.6s0.2-1.8,0.5-2.6c0.4-0.8,0.8-1.4,1.4-1.9
		c0.6-0.5,1.3-0.9,2.2-1.2C786.7-19.1,787.5-19.2,788.5-19.2z M788.5-7.7c0.8,0,1.6-0.1,2.4-0.4s1.4-0.6,1.9-1.1
		c0.6-0.5,1-1,1.3-1.7c0.3-0.7,0.5-1.4,0.5-2.3s-0.2-1.6-0.5-2.3c-0.3-0.7-0.8-1.2-1.3-1.7c-0.5-0.5-1.2-0.8-1.9-1.1
		s-1.5-0.4-2.4-0.4c-0.8,0-1.6,0.1-2.4,0.4c-0.7,0.2-1.4,0.6-1.9,1.1c-0.5,0.5-1,1-1.3,1.7c-0.3,0.7-0.5,1.4-0.5,2.3
		s0.2,1.6,0.5,2.3c0.3,0.7,0.8,1.2,1.3,1.7c0.6,0.5,1.2,0.8,1.9,1.1C786.9-7.8,787.6-7.7,788.5-7.7z"/>
	<path fill="#CCCCCC" d="M782-20.9v-0.8h13v0.8H782z"/>
	<path fill="#CCCCCC" d="M788.5-35.7c0.9,0,1.8,0.1,2.7,0.4c0.8,0.3,1.5,0.7,2.2,1.2c0.6,0.5,1.1,1.2,1.4,1.9
		c0.4,0.8,0.5,1.6,0.5,2.6c0,1-0.2,1.8-0.5,2.6s-0.8,1.4-1.4,1.9c-0.6,0.5-1.3,0.9-2.2,1.2c-0.8,0.3-1.7,0.4-2.7,0.4
		s-1.8-0.1-2.7-0.4c-0.8-0.3-1.5-0.7-2.2-1.2c-0.6-0.5-1.1-1.2-1.4-1.9c-0.4-0.8-0.5-1.6-0.5-2.6c0-1,0.2-1.8,0.5-2.6
		c0.4-0.8,0.8-1.4,1.4-1.9c0.6-0.5,1.3-0.9,2.2-1.2C786.7-35.6,787.5-35.7,788.5-35.7z M788.5-24.2c0.8,0,1.6-0.1,2.4-0.4
		s1.4-0.6,1.9-1.1c0.6-0.5,1-1,1.3-1.7c0.3-0.7,0.5-1.4,0.5-2.3c0-0.8-0.2-1.6-0.5-2.3c-0.3-0.7-0.8-1.2-1.3-1.7
		c-0.5-0.5-1.2-0.8-1.9-1.1c-0.7-0.2-1.5-0.4-2.4-0.4c-0.8,0-1.6,0.1-2.4,0.4c-0.7,0.2-1.4,0.6-1.9,1.1c-0.5,0.5-1,1-1.3,1.7
		c-0.3,0.7-0.5,1.4-0.5,2.3c0,0.8,0.2,1.6,0.5,2.3c0.3,0.7,0.8,1.2,1.3,1.7c0.6,0.5,1.2,0.8,1.9,1.1
		C786.9-24.3,787.6-24.2,788.5-24.2z"/>
	<path fill="#CCCCCC" d="M788.5-49.2c0.9,0,1.8,0.1,2.7,0.4c0.8,0.3,1.5,0.7,2.2,1.2c0.6,0.5,1.1,1.2,1.4,1.9
		c0.4,0.8,0.5,1.6,0.5,2.6c0,1-0.2,1.8-0.5,2.6s-0.8,1.4-1.4,1.9c-0.6,0.5-1.3,0.9-2.2,1.2c-0.8,0.3-1.7,0.4-2.7,0.4
		s-1.8-0.1-2.7-0.4c-0.8-0.3-1.5-0.7-2.2-1.2c-0.6-0.5-1.1-1.2-1.4-1.9c-0.4-0.8-0.5-1.6-0.5-2.6c0-1,0.2-1.8,0.5-2.6
		c0.4-0.8,0.8-1.4,1.4-1.9c0.6-0.5,1.3-0.9,2.2-1.2C786.7-49,787.5-49.2,788.5-49.2z M788.5-37.7c0.8,0,1.6-0.1,2.4-0.4
		c0.7-0.2,1.4-0.6,1.9-1.1c0.6-0.5,1-1,1.3-1.7c0.3-0.7,0.5-1.4,0.5-2.3c0-0.8-0.2-1.6-0.5-2.3c-0.3-0.7-0.8-1.2-1.3-1.7
		c-0.5-0.5-1.2-0.8-1.9-1.1c-0.7-0.2-1.5-0.4-2.4-0.4c-0.8,0-1.6,0.1-2.4,0.4c-0.7,0.2-1.4,0.6-1.9,1.1c-0.5,0.5-1,1-1.3,1.7
		c-0.3,0.7-0.5,1.4-0.5,2.3c0,0.8,0.2,1.6,0.5,2.3c0.3,0.7,0.8,1.2,1.3,1.7c0.6,0.5,1.2,0.8,1.9,1.1
		C786.9-37.8,787.6-37.7,788.5-37.7z"/>
	<path fill="#CCCCCC" d="M782-50.9v-0.8h13v0.8H782z"/>
</g>
<rect x="711.8" y="-25.1" fill="none" width="15.3" height="58.6"/>
<g enable-background="new    ">
	<path fill="#CCCCCC" d="M712.1,32v-0.8h13V32H712.1z"/>
	<path fill="#CCCCCC" d="M718.6,17.2c0.9,0,1.8,0.1,2.7,0.4c0.8,0.3,1.5,0.7,2.2,1.2c0.6,0.5,1.1,1.2,1.4,1.9s0.5,1.6,0.5,2.6
		s-0.2,1.8-0.5,2.6c-0.4,0.8-0.8,1.4-1.4,1.9c-0.6,0.5-1.3,0.9-2.2,1.2c-0.8,0.3-1.7,0.4-2.7,0.4s-1.8-0.1-2.7-0.4
		c-0.8-0.3-1.5-0.7-2.2-1.2c-0.6-0.5-1.1-1.2-1.4-1.9c-0.4-0.8-0.5-1.6-0.5-2.6s0.2-1.8,0.5-2.6c0.4-0.8,0.8-1.4,1.4-1.9
		c0.6-0.5,1.3-0.9,2.2-1.2C716.8,17.3,717.6,17.2,718.6,17.2z M718.6,28.7c0.8,0,1.6-0.1,2.4-0.4s1.4-0.6,1.9-1.1
		c0.6-0.5,1-1,1.3-1.7c0.3-0.7,0.5-1.4,0.5-2.3s-0.2-1.6-0.5-2.3c-0.3-0.7-0.8-1.2-1.3-1.7c-0.5-0.5-1.2-0.8-1.9-1.1
		s-1.5-0.4-2.4-0.4c-0.8,0-1.6,0.1-2.4,0.4c-0.7,0.2-1.4,0.6-1.9,1.1c-0.5,0.5-1,1-1.3,1.7c-0.3,0.7-0.5,1.4-0.5,2.3
		s0.2,1.6,0.5,2.3c0.3,0.7,0.8,1.2,1.3,1.7c0.6,0.5,1.2,0.8,1.9,1.1C717,28.6,717.7,28.7,718.6,28.7z"/>
	<path fill="#CCCCCC" d="M718.6,3.7c0.9,0,1.8,0.1,2.7,0.4c0.8,0.3,1.5,0.7,2.2,1.2c0.6,0.5,1.1,1.2,1.4,1.9s0.5,1.6,0.5,2.6
		s-0.2,1.8-0.5,2.6c-0.4,0.8-0.8,1.4-1.4,1.9c-0.6,0.5-1.3,0.9-2.2,1.2c-0.8,0.3-1.7,0.4-2.7,0.4s-1.8-0.1-2.7-0.4
		c-0.8-0.3-1.5-0.7-2.2-1.2c-0.6-0.5-1.1-1.2-1.4-1.9c-0.4-0.8-0.5-1.6-0.5-2.6s0.2-1.8,0.5-2.6c0.4-0.8,0.8-1.4,1.4-1.9
		c0.6-0.5,1.3-0.9,2.2-1.2C716.8,3.9,717.6,3.7,718.6,3.7z M718.6,15.3c0.8,0,1.6-0.1,2.4-0.4s1.4-0.6,1.9-1.1c0.6-0.5,1-1,1.3-1.7
		c0.3-0.7,0.5-1.4,0.5-2.3s-0.2-1.6-0.5-2.3c-0.3-0.7-0.8-1.2-1.3-1.7c-0.5-0.5-1.2-0.8-1.9-1.1s-1.5-0.4-2.4-0.4
		c-0.8,0-1.6,0.1-2.4,0.4c-0.7,0.2-1.4,0.6-1.9,1.1c-0.5,0.5-1,1-1.3,1.7c-0.3,0.7-0.5,1.4-0.5,2.3s0.2,1.6,0.5,2.3
		c0.3,0.7,0.8,1.2,1.3,1.7c0.6,0.5,1.2,0.8,1.9,1.1C717,15.1,717.7,15.3,718.6,15.3z"/>
	<path fill="#CCCCCC" d="M712.1,2V1.2h13V2H712.1z"/>
	<path fill="#CCCCCC" d="M718.6-12.8c0.9,0,1.8,0.1,2.7,0.4c0.8,0.3,1.5,0.7,2.2,1.2c0.6,0.5,1.1,1.2,1.4,1.9s0.5,1.6,0.5,2.6
		s-0.2,1.8-0.5,2.6c-0.4,0.8-0.8,1.4-1.4,1.9c-0.6,0.5-1.3,0.9-2.2,1.2c-0.8,0.3-1.7,0.4-2.7,0.4s-1.8-0.1-2.7-0.4
		c-0.8-0.3-1.5-0.7-2.2-1.2c-0.6-0.5-1.1-1.2-1.4-1.9c-0.4-0.8-0.5-1.6-0.5-2.6s0.2-1.8,0.5-2.6c0.4-0.8,0.8-1.4,1.4-1.9
		c0.6-0.5,1.3-0.9,2.2-1.2C716.8-12.6,717.6-12.8,718.6-12.8z M718.6-1.3c0.8,0,1.6-0.1,2.4-0.4s1.4-0.6,1.9-1.1
		c0.6-0.5,1-1,1.3-1.7c0.3-0.7,0.5-1.4,0.5-2.3s-0.2-1.6-0.5-2.3c-0.3-0.7-0.8-1.2-1.3-1.7c-0.5-0.5-1.2-0.8-1.9-1.1
		s-1.5-0.4-2.4-0.4c-0.8,0-1.6,0.1-2.4,0.4c-0.7,0.2-1.4,0.6-1.9,1.1c-0.5,0.5-1,1-1.3,1.7c-0.3,0.7-0.5,1.4-0.5,2.3
		s0.2,1.6,0.5,2.3c0.3,0.7,0.8,1.2,1.3,1.7c0.6,0.5,1.2,0.8,1.9,1.1C717-1.4,717.7-1.3,718.6-1.3z"/>
</g>
<rect x="711.8" y="25.8" fill="none" width="15.3" height="58.6"/>
<g enable-background="new    ">
	<path fill="#CCCCCC" d="M718.7,71.9c0.9,0,1.8,0.1,2.7,0.4c0.8,0.3,1.5,0.7,2.2,1.2c0.6,0.5,1.1,1.2,1.4,1.9s0.5,1.6,0.5,2.6
		s-0.2,1.8-0.5,2.6c-0.4,0.8-0.8,1.4-1.4,1.9c-0.6,0.5-1.3,0.9-2.2,1.2c-0.8,0.3-1.7,0.4-2.7,0.4s-1.8-0.1-2.7-0.4
		c-0.8-0.3-1.5-0.7-2.2-1.2c-0.6-0.5-1.1-1.2-1.4-1.9c-0.4-0.8-0.5-1.6-0.5-2.6s0.2-1.8,0.5-2.6c0.4-0.8,0.8-1.4,1.4-1.9
		c0.6-0.5,1.3-0.9,2.2-1.2C716.9,72.1,717.7,71.9,718.7,71.9z M718.7,83.5c0.8,0,1.6-0.1,2.4-0.4s1.4-0.6,1.9-1.1
		c0.6-0.5,1-1,1.3-1.7c0.3-0.7,0.5-1.4,0.5-2.3s-0.2-1.6-0.5-2.3c-0.3-0.7-0.8-1.2-1.3-1.7c-0.5-0.5-1.2-0.8-1.9-1.1
		s-1.5-0.4-2.4-0.4c-0.8,0-1.6,0.1-2.4,0.4c-0.7,0.2-1.4,0.6-1.9,1.1c-0.5,0.5-1,1-1.3,1.7c-0.3,0.7-0.5,1.4-0.5,2.3
		s0.2,1.6,0.5,2.3c0.3,0.7,0.8,1.2,1.3,1.7c0.6,0.5,1.2,0.8,1.9,1.1C717.1,83.3,717.9,83.5,718.7,83.5z"/>
	<path fill="#CCCCCC" d="M718.7,58.5c0.9,0,1.8,0.1,2.7,0.4c0.8,0.3,1.5,0.7,2.2,1.2c0.6,0.5,1.1,1.2,1.4,1.9s0.5,1.6,0.5,2.6
		s-0.2,1.8-0.5,2.6c-0.4,0.8-0.8,1.4-1.4,1.9c-0.6,0.5-1.3,0.9-2.2,1.2c-0.8,0.3-1.7,0.4-2.7,0.4s-1.8-0.1-2.7-0.4
		c-0.8-0.3-1.5-0.7-2.2-1.2c-0.6-0.5-1.1-1.2-1.4-1.9c-0.4-0.8-0.5-1.6-0.5-2.6s0.2-1.8,0.5-2.6c0.4-0.8,0.8-1.4,1.4-1.9
		c0.6-0.5,1.3-0.9,2.2-1.2C716.9,58.6,717.7,58.5,718.7,58.5z M718.7,70c0.8,0,1.6-0.1,2.4-0.4s1.4-0.6,1.9-1.1c0.6-0.5,1-1,1.3-1.7
		c0.3-0.7,0.5-1.4,0.5-2.3s-0.2-1.6-0.5-2.3c-0.3-0.7-0.8-1.2-1.3-1.7c-0.5-0.5-1.2-0.8-1.9-1.1s-1.5-0.4-2.4-0.4
		c-0.8,0-1.6,0.1-2.4,0.4c-0.7,0.2-1.4,0.6-1.9,1.1c-0.5,0.5-1,1-1.3,1.7c-0.3,0.7-0.5,1.4-0.5,2.3s0.2,1.6,0.5,2.3
		c0.3,0.7,0.8,1.2,1.3,1.7c0.6,0.5,1.2,0.8,1.9,1.1C717.1,69.9,717.9,70,718.7,70z"/>
	<path fill="#CCCCCC" d="M712.2,56.8V56h13v0.8H712.2z"/>
	<path fill="#CCCCCC" d="M712.2,53.7v-0.8h13v0.8H712.2z"/>
	<path fill="#CCCCCC" d="M718.7,38.9c0.9,0,1.8,0.1,2.7,0.4c0.8,0.3,1.5,0.7,2.2,1.2c0.6,0.5,1.1,1.2,1.4,1.9s0.5,1.6,0.5,2.6
		s-0.2,1.8-0.5,2.6c-0.4,0.8-0.8,1.4-1.4,1.9c-0.6,0.5-1.3,0.9-2.2,1.2c-0.8,0.3-1.7,0.4-2.7,0.4s-1.8-0.1-2.7-0.4
		c-0.8-0.3-1.5-0.7-2.2-1.2c-0.6-0.5-1.1-1.2-1.4-1.9c-0.4-0.8-0.5-1.6-0.5-2.6s0.2-1.8,0.5-2.6c0.4-0.8,0.8-1.4,1.4-1.9
		c0.6-0.5,1.3-0.9,2.2-1.2C716.9,39,717.7,38.9,718.7,38.9z M718.7,50.4c0.8,0,1.6-0.1,2.4-0.4s1.4-0.6,1.9-1.1c0.6-0.5,1-1,1.3-1.7
		c0.3-0.7,0.5-1.4,0.5-2.3s-0.2-1.6-0.5-2.3c-0.3-0.7-0.8-1.2-1.3-1.7c-0.5-0.5-1.2-0.8-1.9-1.1s-1.5-0.4-2.4-0.4
		c-0.8,0-1.6,0.1-2.4,0.4c-0.7,0.2-1.4,0.6-1.9,1.1c-0.5,0.5-1,1-1.3,1.7c-0.3,0.7-0.5,1.4-0.5,2.3s0.2,1.6,0.5,2.3
		c0.3,0.7,0.8,1.2,1.3,1.7c0.6,0.5,1.2,0.8,1.9,1.1C717.1,50.3,717.9,50.4,718.7,50.4z"/>
</g>
<rect x="729.6" y="22" fill="none" width="15.3" height="35.6"/>
<g enable-background="new    ">
	<path fill="#CCCCCC" d="M736,74.7c0.9,0,1.8,0.1,2.7,0.4c0.8,0.3,1.5,0.7,2.2,1.2c0.6,0.5,1.1,1.2,1.4,1.9s0.5,1.6,0.5,2.6
		s-0.2,1.8-0.5,2.6c-0.4,0.8-0.8,1.4-1.4,1.9c-0.6,0.5-1.3,0.9-2.2,1.2c-0.8,0.3-1.7,0.4-2.7,0.4s-1.8-0.1-2.7-0.4
		c-0.8-0.3-1.5-0.7-2.2-1.2c-0.6-0.5-1.1-1.2-1.4-1.9c-0.4-0.8-0.5-1.6-0.5-2.6s0.2-1.8,0.5-2.6c0.4-0.8,0.8-1.4,1.4-1.9
		c0.6-0.5,1.3-0.9,2.2-1.2C734.2,74.8,735.1,74.7,736,74.7z M736,86.2c0.8,0,1.6-0.1,2.4-0.4s1.4-0.6,1.9-1.1c0.6-0.5,1-1,1.3-1.7
		c0.3-0.7,0.5-1.4,0.5-2.3s-0.2-1.6-0.5-2.3c-0.3-0.7-0.8-1.2-1.3-1.7c-0.5-0.5-1.2-0.8-1.9-1.1s-1.5-0.4-2.4-0.4
		c-0.8,0-1.6,0.1-2.4,0.4c-0.7,0.2-1.4,0.6-1.9,1.1c-0.5,0.5-1,1-1.3,1.7c-0.3,0.7-0.5,1.4-0.5,2.3s0.2,1.6,0.5,2.3
		c0.3,0.7,0.8,1.2,1.3,1.7c0.6,0.5,1.2,0.8,1.9,1.1C734.4,86.1,735.2,86.2,736,86.2z"/>
	<path fill="#CCCCCC" d="M729.5,73v-0.8h13V73H729.5z"/>
	<path fill="#CCCCCC" d="M736,58.2c0.9,0,1.8,0.1,2.7,0.4c0.8,0.3,1.5,0.7,2.2,1.2c0.6,0.5,1.1,1.2,1.4,1.9s0.5,1.6,0.5,2.6
		s-0.2,1.8-0.5,2.6c-0.4,0.8-0.8,1.4-1.4,1.9c-0.6,0.5-1.3,0.9-2.2,1.2c-0.8,0.3-1.7,0.4-2.7,0.4s-1.8-0.1-2.7-0.4
		c-0.8-0.3-1.5-0.7-2.2-1.2c-0.6-0.5-1.1-1.2-1.4-1.9c-0.4-0.8-0.5-1.6-0.5-2.6s0.2-1.8,0.5-2.6c0.4-0.8,0.8-1.4,1.4-1.9
		c0.6-0.5,1.3-0.9,2.2-1.2C734.2,58.3,735.1,58.2,736,58.2z M736,69.7c0.8,0,1.6-0.1,2.4-0.4s1.4-0.6,1.9-1.1c0.6-0.5,1-1,1.3-1.7
		c0.3-0.7,0.5-1.4,0.5-2.3s-0.2-1.6-0.5-2.3c-0.3-0.7-0.8-1.2-1.3-1.7c-0.5-0.5-1.2-0.8-1.9-1.1S736.8,59,736,59
		c-0.8,0-1.6,0.1-2.4,0.4c-0.7,0.2-1.4,0.6-1.9,1.1c-0.5,0.5-1,1-1.3,1.7c-0.3,0.7-0.5,1.4-0.5,2.3s0.2,1.6,0.5,2.3
		c0.3,0.7,0.8,1.2,1.3,1.7c0.6,0.5,1.2,0.8,1.9,1.1C734.4,69.6,735.2,69.7,736,69.7z"/>
</g>
<rect x="781.8" y="-13.3" fill="none" width="15.3" height="25.5"/>
<g enable-background="new    ">
	<path fill="#CCCCCC" d="M788.6-0.6c0.9,0,1.8,0.1,2.7,0.4c0.8,0.3,1.5,0.7,2.2,1.2c0.6,0.5,1.1,1.2,1.4,1.9s0.5,1.6,0.5,2.6
		s-0.2,1.8-0.5,2.6c-0.4,0.8-0.8,1.4-1.4,1.9c-0.6,0.5-1.3,0.9-2.2,1.2c-0.8,0.3-1.7,0.4-2.7,0.4s-1.8-0.1-2.7-0.4
		c-0.8-0.3-1.5-0.7-2.2-1.2c-0.6-0.5-1.1-1.2-1.4-1.9c-0.4-0.8-0.5-1.6-0.5-2.6s0.2-1.8,0.5-2.6c0.4-0.8,0.8-1.4,1.4-1.9
		c0.6-0.5,1.3-0.9,2.2-1.2C786.8-0.5,787.7-0.6,788.6-0.6z M788.6,10.9c0.8,0,1.6-0.1,2.4-0.4s1.4-0.6,1.9-1.1c0.6-0.5,1-1,1.3-1.7
		c0.3-0.7,0.5-1.4,0.5-2.3s-0.2-1.6-0.5-2.3c-0.3-0.7-0.8-1.2-1.3-1.7c-0.5-0.5-1.2-0.8-1.9-1.1s-1.5-0.4-2.4-0.4
		c-0.8,0-1.6,0.1-2.4,0.4c-0.7,0.2-1.4,0.6-1.9,1.1c-0.5,0.5-1,1-1.3,1.7c-0.3,0.7-0.5,1.4-0.5,2.3s0.2,1.6,0.5,2.3
		c0.3,0.7,0.8,1.2,1.3,1.7c0.6,0.5,1.2,0.8,1.9,1.1C787,10.8,787.8,10.9,788.6,10.9z"/>
	<path fill="#CCCCCC" d="M782.2-2.3v-0.8h13v0.8H782.2z"/>
</g>
<rect x="781.8" y="9.6" fill="none" width="15.3" height="58.6"/>
<g enable-background="new    ">
	<path fill="#CCCCCC" d="M788.4,55.9c0.9,0,1.8,0.1,2.7,0.4c0.8,0.3,1.5,0.7,2.2,1.2c0.6,0.5,1.1,1.2,1.4,1.9s0.5,1.6,0.5,2.6
		s-0.2,1.8-0.5,2.6c-0.4,0.8-0.8,1.4-1.4,1.9c-0.6,0.5-1.3,0.9-2.2,1.2c-0.8,0.3-1.7,0.4-2.7,0.4s-1.8-0.1-2.7-0.4
		c-0.8-0.3-1.5-0.7-2.2-1.2c-0.6-0.5-1.1-1.2-1.4-1.9c-0.4-0.8-0.5-1.6-0.5-2.6s0.2-1.8,0.5-2.6c0.4-0.8,0.8-1.4,1.4-1.9
		c0.6-0.5,1.3-0.9,2.2-1.2C786.6,56.1,787.5,55.9,788.4,55.9z M788.4,67.4c0.8,0,1.6-0.1,2.4-0.4s1.4-0.6,1.9-1.1
		c0.6-0.5,1-1,1.3-1.7c0.3-0.7,0.5-1.4,0.5-2.3s-0.2-1.6-0.5-2.3c-0.3-0.7-0.8-1.2-1.3-1.7c-0.5-0.5-1.2-0.8-1.9-1.1
		s-1.5-0.4-2.4-0.4c-0.8,0-1.6,0.1-2.4,0.4c-0.7,0.2-1.4,0.6-1.9,1.1c-0.5,0.5-1,1-1.3,1.7c-0.3,0.7-0.5,1.4-0.5,2.3
		s0.2,1.6,0.5,2.3c0.3,0.7,0.8,1.2,1.3,1.7c0.6,0.5,1.2,0.8,1.9,1.1C786.8,67.3,787.6,67.4,788.4,67.4z"/>
	<path fill="#CCCCCC" d="M782,54.2v-0.8h13v0.8H782z"/>
	<path fill="#CCCCCC" d="M788.4,39.4c0.9,0,1.8,0.1,2.7,0.4c0.8,0.3,1.5,0.7,2.2,1.2c0.6,0.5,1.1,1.2,1.4,1.9s0.5,1.6,0.5,2.6
		c0,1-0.2,1.8-0.5,2.6c-0.4,0.8-0.8,1.4-1.4,1.9c-0.6,0.5-1.3,0.9-2.2,1.2c-0.8,0.3-1.7,0.4-2.7,0.4s-1.8-0.1-2.7-0.4
		c-0.8-0.3-1.5-0.7-2.2-1.2c-0.6-0.5-1.1-1.2-1.4-1.9c-0.4-0.8-0.5-1.6-0.5-2.6c0-1,0.2-1.8,0.5-2.6c0.4-0.8,0.8-1.4,1.4-1.9
		c0.6-0.5,1.3-0.9,2.2-1.2C786.6,39.5,787.5,39.4,788.4,39.4z M788.4,50.9c0.8,0,1.6-0.1,2.4-0.4s1.4-0.6,1.9-1.1
		c0.6-0.5,1-1,1.3-1.7c0.3-0.7,0.5-1.4,0.5-2.3c0-0.8-0.2-1.6-0.5-2.3c-0.3-0.7-0.8-1.2-1.3-1.7c-0.5-0.5-1.2-0.8-1.9-1.1
		s-1.5-0.4-2.4-0.4c-0.8,0-1.6,0.1-2.4,0.4c-0.7,0.2-1.4,0.6-1.9,1.1c-0.5,0.5-1,1-1.3,1.7c-0.3,0.7-0.5,1.4-0.5,2.3
		c0,0.8,0.2,1.6,0.5,2.3c0.3,0.7,0.8,1.2,1.3,1.7c0.6,0.5,1.2,0.8,1.9,1.1C786.8,50.8,787.6,50.9,788.4,50.9z"/>
	<path fill="#CCCCCC" d="M788.4,26c0.9,0,1.8,0.1,2.7,0.4c0.8,0.3,1.5,0.7,2.2,1.2c0.6,0.5,1.1,1.2,1.4,1.9s0.5,1.6,0.5,2.6
		s-0.2,1.8-0.5,2.6c-0.4,0.8-0.8,1.4-1.4,1.9c-0.6,0.5-1.3,0.9-2.2,1.2c-0.8,0.3-1.7,0.4-2.7,0.4s-1.8-0.1-2.7-0.4
		c-0.8-0.3-1.5-0.7-2.2-1.2c-0.6-0.5-1.1-1.2-1.4-1.9c-0.4-0.8-0.5-1.6-0.5-2.6s0.2-1.8,0.5-2.6c0.4-0.8,0.8-1.4,1.4-1.9
		c0.6-0.5,1.3-0.9,2.2-1.2C786.6,26.1,787.5,26,788.4,26z M788.4,37.5c0.8,0,1.6-0.1,2.4-0.4s1.4-0.6,1.9-1.1c0.6-0.5,1-1,1.3-1.7
		c0.3-0.7,0.5-1.4,0.5-2.3s-0.2-1.6-0.5-2.3c-0.3-0.7-0.8-1.2-1.3-1.7c-0.5-0.5-1.2-0.8-1.9-1.1s-1.5-0.4-2.4-0.4
		c-0.8,0-1.6,0.1-2.4,0.4c-0.7,0.2-1.4,0.6-1.9,1.1c-0.5,0.5-1,1-1.3,1.7c-0.3,0.7-0.5,1.4-0.5,2.3s0.2,1.6,0.5,2.3
		c0.3,0.7,0.8,1.2,1.3,1.7c0.6,0.5,1.2,0.8,1.9,1.1C786.8,37.4,787.6,37.5,788.4,37.5z"/>
	<path fill="#CCCCCC" d="M782,24.2v-0.8h13v0.8H782z"/>
</g>
<rect x="781.8" y="63.1" fill="none" width="15.3" height="25.5"/>
<g enable-background="new    ">
	<path fill="#CCCCCC" d="M788.5,76.1c0.9,0,1.8,0.1,2.7,0.4c0.8,0.3,1.5,0.7,2.2,1.2c0.6,0.5,1.1,1.2,1.4,1.9s0.5,1.6,0.5,2.6
		s-0.2,1.8-0.5,2.6c-0.4,0.8-0.8,1.4-1.4,1.9c-0.6,0.5-1.3,0.9-2.2,1.2c-0.8,0.3-1.7,0.4-2.7,0.4s-1.8-0.1-2.7-0.4
		c-0.8-0.3-1.5-0.7-2.2-1.2c-0.6-0.5-1.1-1.2-1.4-1.9c-0.4-0.8-0.5-1.6-0.5-2.6s0.2-1.8,0.5-2.6c0.4-0.8,0.8-1.4,1.4-1.9
		c0.6-0.5,1.3-0.9,2.2-1.2C786.7,76.2,787.6,76.1,788.5,76.1z M788.5,87.6c0.8,0,1.6-0.1,2.4-0.4s1.4-0.6,1.9-1.1
		c0.6-0.5,1-1,1.3-1.7c0.3-0.7,0.5-1.4,0.5-2.3s-0.2-1.6-0.5-2.3c-0.3-0.7-0.8-1.2-1.3-1.7c-0.5-0.5-1.2-0.8-1.9-1.1
		s-1.5-0.4-2.4-0.4c-0.8,0-1.6,0.1-2.4,0.4c-0.7,0.2-1.4,0.6-1.9,1.1c-0.5,0.5-1,1-1.3,1.7c-0.3,0.7-0.5,1.4-0.5,2.3
		s0.2,1.6,0.5,2.3c0.3,0.7,0.8,1.2,1.3,1.7c0.6,0.5,1.2,0.8,1.9,1.1C786.9,87.5,787.7,87.6,788.5,87.6z"/>
	<path fill="#CCCCCC" d="M782,74.4v-0.8h13v0.8H782z"/>
</g>
<rect x="765.3" y="0.3" fill="none" width="15.3" height="42"/>
<g enable-background="new    ">
	<path fill="#CCCCCC" d="M771.2,29.6c0.9,0,1.8,0.1,2.7,0.4c0.8,0.3,1.5,0.7,2.2,1.2c0.6,0.5,1.1,1.2,1.4,1.9s0.5,1.6,0.5,2.6
		s-0.2,1.8-0.5,2.6c-0.4,0.8-0.8,1.4-1.4,1.9c-0.6,0.5-1.3,0.9-2.2,1.2c-0.8,0.3-1.7,0.4-2.7,0.4s-1.8-0.1-2.7-0.4
		c-0.8-0.3-1.5-0.7-2.2-1.2c-0.6-0.5-1.1-1.2-1.4-1.9c-0.4-0.8-0.5-1.6-0.5-2.6s0.2-1.8,0.5-2.6c0.4-0.8,0.8-1.4,1.4-1.9
		c0.6-0.5,1.3-0.9,2.2-1.2C769.4,29.7,770.3,29.6,771.2,29.6z M771.2,41.1c0.8,0,1.6-0.1,2.4-0.4s1.4-0.6,1.9-1.1
		c0.6-0.5,1-1,1.3-1.7c0.3-0.7,0.5-1.4,0.5-2.3s-0.2-1.6-0.5-2.3c-0.3-0.7-0.8-1.2-1.3-1.7c-0.5-0.5-1.2-0.8-1.9-1.1
		s-1.5-0.4-2.4-0.4c-0.8,0-1.6,0.1-2.4,0.4c-0.7,0.2-1.4,0.6-1.9,1.1c-0.5,0.5-1,1-1.3,1.7c-0.3,0.7-0.5,1.4-0.5,2.3
		s0.2,1.6,0.5,2.3c0.3,0.7,0.8,1.2,1.3,1.7c0.6,0.5,1.2,0.8,1.9,1.1C769.6,41,770.4,41.1,771.2,41.1z"/>
	<path fill="#CCCCCC" d="M771.2,16.1c0.9,0,1.8,0.1,2.7,0.4c0.8,0.3,1.5,0.7,2.2,1.2c0.6,0.5,1.1,1.2,1.4,1.9s0.5,1.6,0.5,2.6
		s-0.2,1.8-0.5,2.6c-0.4,0.8-0.8,1.4-1.4,1.9c-0.6,0.5-1.3,0.9-2.2,1.2c-0.8,0.3-1.7,0.4-2.7,0.4s-1.8-0.1-2.7-0.4
		c-0.8-0.3-1.5-0.7-2.2-1.2c-0.6-0.5-1.1-1.2-1.4-1.9c-0.4-0.8-0.5-1.6-0.5-2.6s0.2-1.8,0.5-2.6c0.4-0.8,0.8-1.4,1.4-1.9
		c0.6-0.5,1.3-0.9,2.2-1.2C769.4,16.3,770.3,16.1,771.2,16.1z M771.2,27.7c0.8,0,1.6-0.1,2.4-0.4s1.4-0.6,1.9-1.1
		c0.6-0.5,1-1,1.3-1.7c0.3-0.7,0.5-1.4,0.5-2.3s-0.2-1.6-0.5-2.3c-0.3-0.7-0.8-1.2-1.3-1.7c-0.5-0.5-1.2-0.8-1.9-1.1
		s-1.5-0.4-2.4-0.4c-0.8,0-1.6,0.1-2.4,0.4c-0.7,0.2-1.4,0.6-1.9,1.1c-0.5,0.5-1,1-1.3,1.7c-0.3,0.7-0.5,1.4-0.5,2.3
		s0.2,1.6,0.5,2.3c0.3,0.7,0.8,1.2,1.3,1.7c0.6,0.5,1.2,0.8,1.9,1.1C769.6,27.5,770.4,27.7,771.2,27.7z"/>
	<path fill="#CCCCCC" d="M764.8,14.4v-0.8h13v0.8H764.8z"/>
</g>
<rect x="765.3" y="20.7" fill="none" width="15.3" height="58.6"/>
<g enable-background="new    ">
	<path fill="#CCCCCC" d="M764.8,78.6v-0.8h13v0.8H764.8z"/>
	<path fill="#CCCCCC" d="M771.3,63.8c0.9,0,1.8,0.1,2.7,0.4c0.8,0.3,1.5,0.7,2.2,1.2c0.6,0.5,1.1,1.2,1.4,1.9S778,69,778,70
		s-0.2,1.8-0.5,2.6c-0.4,0.8-0.8,1.4-1.4,1.9c-0.6,0.5-1.3,0.9-2.2,1.2c-0.8,0.3-1.7,0.4-2.7,0.4s-1.8-0.1-2.7-0.4
		c-0.8-0.3-1.5-0.7-2.2-1.2c-0.6-0.5-1.1-1.2-1.4-1.9c-0.4-0.8-0.5-1.6-0.5-2.6s0.2-1.8,0.5-2.6c0.4-0.8,0.8-1.4,1.4-1.9
		c0.6-0.5,1.3-0.9,2.2-1.2C769.4,64,770.3,63.8,771.3,63.8z M771.3,75.3c0.8,0,1.6-0.1,2.4-0.4s1.4-0.6,1.9-1.1c0.6-0.5,1-1,1.3-1.7
		c0.3-0.7,0.5-1.4,0.5-2.3s-0.2-1.6-0.5-2.3c-0.3-0.7-0.8-1.2-1.3-1.7c-0.5-0.5-1.2-0.8-1.9-1.1s-1.5-0.4-2.4-0.4
		c-0.8,0-1.6,0.1-2.4,0.4c-0.7,0.2-1.4,0.6-1.9,1.1c-0.5,0.5-1,1-1.3,1.7c-0.3,0.7-0.5,1.4-0.5,2.3s0.2,1.6,0.5,2.3
		c0.3,0.7,0.8,1.2,1.3,1.7c0.6,0.5,1.2,0.8,1.9,1.1C769.6,75.2,770.4,75.3,771.3,75.3z"/>
	<path fill="#CCCCCC" d="M771.3,50.4c0.9,0,1.8,0.1,2.7,0.4c0.8,0.3,1.5,0.7,2.2,1.2c0.6,0.5,1.1,1.2,1.4,1.9s0.5,1.6,0.5,2.6
		s-0.2,1.8-0.5,2.6c-0.4,0.8-0.8,1.4-1.4,1.9c-0.6,0.5-1.3,0.9-2.2,1.2c-0.8,0.3-1.7,0.4-2.7,0.4s-1.8-0.1-2.7-0.4
		c-0.8-0.3-1.5-0.7-2.2-1.2c-0.6-0.5-1.1-1.2-1.4-1.9c-0.4-0.8-0.5-1.6-0.5-2.6s0.2-1.8,0.5-2.6c0.4-0.8,0.8-1.4,1.4-1.9
		c0.6-0.5,1.3-0.9,2.2-1.2C769.4,50.5,770.3,50.4,771.3,50.4z M771.3,61.9c0.8,0,1.6-0.1,2.4-0.4s1.4-0.6,1.9-1.1
		c0.6-0.5,1-1,1.3-1.7c0.3-0.7,0.5-1.4,0.5-2.3s-0.2-1.6-0.5-2.3c-0.3-0.7-0.8-1.2-1.3-1.7c-0.5-0.5-1.2-0.8-1.9-1.1
		s-1.5-0.4-2.4-0.4c-0.8,0-1.6,0.1-2.4,0.4c-0.7,0.2-1.4,0.6-1.9,1.1c-0.5,0.5-1,1-1.3,1.7c-0.3,0.7-0.5,1.4-0.5,2.3
		s0.2,1.6,0.5,2.3c0.3,0.7,0.8,1.2,1.3,1.7c0.6,0.5,1.2,0.8,1.9,1.1C769.6,61.8,770.4,61.9,771.3,61.9z"/>
</g>
<rect x="747.4" y="-8.8" fill="none" width="15.3" height="58.6"/>
<g enable-background="new    ">
	<path fill="#CCCCCC" d="M753.6,37.5c0.9,0,1.8,0.1,2.7,0.4c0.8,0.3,1.5,0.7,2.2,1.2c0.6,0.5,1.1,1.2,1.4,1.9s0.5,1.6,0.5,2.6
		s-0.2,1.8-0.5,2.6c-0.4,0.8-0.8,1.4-1.4,1.9c-0.6,0.5-1.3,0.9-2.2,1.2c-0.8,0.3-1.7,0.4-2.7,0.4s-1.8-0.1-2.7-0.4
		c-0.8-0.3-1.5-0.7-2.2-1.2c-0.6-0.5-1.1-1.2-1.4-1.9c-0.4-0.8-0.5-1.6-0.5-2.6s0.2-1.8,0.5-2.6c0.4-0.8,0.8-1.4,1.4-1.9
		c0.6-0.5,1.3-0.9,2.2-1.2C751.8,37.7,752.7,37.5,753.6,37.5z M753.6,49c0.8,0,1.6-0.1,2.4-0.4s1.4-0.6,1.9-1.1c0.6-0.5,1-1,1.3-1.7
		c0.3-0.7,0.5-1.4,0.5-2.3s-0.2-1.6-0.5-2.3c-0.3-0.7-0.8-1.2-1.3-1.7c-0.5-0.5-1.2-0.8-1.9-1.1s-1.5-0.4-2.4-0.4
		c-0.8,0-1.6,0.1-2.4,0.4c-0.7,0.2-1.4,0.6-1.9,1.1c-0.5,0.5-1,1-1.3,1.7c-0.3,0.7-0.5,1.4-0.5,2.3s0.2,1.6,0.5,2.3
		c0.3,0.7,0.8,1.2,1.3,1.7c0.6,0.5,1.2,0.8,1.9,1.1C752,48.9,752.8,49,753.6,49z"/>
	<path fill="#CCCCCC" d="M747.1,35.8V35h13v0.8H747.1z"/>
	<path fill="#CCCCCC" d="M753.6,21c0.9,0,1.8,0.1,2.7,0.4c0.8,0.3,1.5,0.7,2.2,1.2c0.6,0.5,1.1,1.2,1.4,1.9s0.5,1.6,0.5,2.6
		s-0.2,1.8-0.5,2.6c-0.4,0.8-0.8,1.4-1.4,1.9c-0.6,0.5-1.3,0.9-2.2,1.2c-0.8,0.3-1.7,0.4-2.7,0.4s-1.8-0.1-2.7-0.4
		c-0.8-0.3-1.5-0.7-2.2-1.2c-0.6-0.5-1.1-1.2-1.4-1.9c-0.4-0.8-0.5-1.6-0.5-2.6s0.2-1.8,0.5-2.6c0.4-0.8,0.8-1.4,1.4-1.9
		c0.6-0.5,1.3-0.9,2.2-1.2C751.8,21.1,752.7,21,753.6,21z M753.6,32.5c0.8,0,1.6-0.1,2.4-0.4s1.4-0.6,1.9-1.1c0.6-0.5,1-1,1.3-1.7
		c0.3-0.7,0.5-1.4,0.5-2.3s-0.2-1.6-0.5-2.3c-0.3-0.7-0.8-1.2-1.3-1.7c-0.5-0.5-1.2-0.8-1.9-1.1s-1.5-0.4-2.4-0.4
		c-0.8,0-1.6,0.1-2.4,0.4c-0.7,0.2-1.4,0.6-1.9,1.1c-0.5,0.5-1,1-1.3,1.7c-0.3,0.7-0.5,1.4-0.5,2.3s0.2,1.6,0.5,2.3
		c0.3,0.7,0.8,1.2,1.3,1.7c0.6,0.5,1.2,0.8,1.9,1.1C752,32.4,752.8,32.5,753.6,32.5z"/>
	<path fill="#CCCCCC" d="M753.6,7.5c0.9,0,1.8,0.1,2.7,0.4c0.8,0.3,1.5,0.7,2.2,1.2c0.6,0.5,1.1,1.2,1.4,1.9s0.5,1.6,0.5,2.6
		s-0.2,1.8-0.5,2.6c-0.4,0.8-0.8,1.4-1.4,1.9c-0.6,0.5-1.3,0.9-2.2,1.2c-0.8,0.3-1.7,0.4-2.7,0.4s-1.8-0.1-2.7-0.4
		c-0.8-0.3-1.5-0.7-2.2-1.2c-0.6-0.5-1.1-1.2-1.4-1.9c-0.4-0.8-0.5-1.6-0.5-2.6s0.2-1.8,0.5-2.6c0.4-0.8,0.8-1.4,1.4-1.9
		c0.6-0.5,1.3-0.9,2.2-1.2C751.8,7.7,752.7,7.5,753.6,7.5z M753.6,19.1c0.8,0,1.6-0.1,2.4-0.4s1.4-0.6,1.9-1.1c0.6-0.5,1-1,1.3-1.7
		c0.3-0.7,0.5-1.4,0.5-2.3s-0.2-1.6-0.5-2.3c-0.3-0.7-0.8-1.2-1.3-1.7c-0.5-0.5-1.2-0.8-1.9-1.1s-1.5-0.4-2.4-0.4
		c-0.8,0-1.6,0.1-2.4,0.4c-0.7,0.2-1.4,0.6-1.9,1.1c-0.5,0.5-1,1-1.3,1.7c-0.3,0.7-0.5,1.4-0.5,2.3s0.2,1.6,0.5,2.3
		c0.3,0.7,0.8,1.2,1.3,1.7c0.6,0.5,1.2,0.8,1.9,1.1C752,18.9,752.8,19.1,753.6,19.1z"/>
	<path fill="#CCCCCC" d="M747.1,5.8V5h13v0.8H747.1z"/>
</g>
<rect x="747.4" y="33.2" fill="none" width="15.3" height="58.6"/>
<g enable-background="new    ">
	<path fill="#CCCCCC" d="M753.5,79.1c0.9,0,1.8,0.1,2.7,0.4c0.8,0.3,1.5,0.7,2.2,1.2c0.6,0.5,1.1,1.2,1.4,1.9s0.5,1.6,0.5,2.6
		s-0.2,1.8-0.5,2.6c-0.4,0.8-0.8,1.4-1.4,1.9c-0.6,0.5-1.3,0.9-2.2,1.2c-0.8,0.3-1.7,0.4-2.7,0.4s-1.8-0.1-2.7-0.4
		c-0.8-0.3-1.5-0.7-2.2-1.2c-0.6-0.5-1.1-1.2-1.4-1.9c-0.4-0.8-0.5-1.6-0.5-2.6s0.2-1.8,0.5-2.6c0.4-0.8,0.8-1.4,1.4-1.9
		c0.6-0.5,1.3-0.9,2.2-1.2C751.7,79.3,752.6,79.1,753.5,79.1z M753.5,90.6c0.8,0,1.6-0.1,2.4-0.4s1.4-0.6,1.9-1.1
		c0.6-0.5,1-1,1.3-1.7c0.3-0.7,0.5-1.4,0.5-2.3s-0.2-1.6-0.5-2.3c-0.3-0.7-0.8-1.2-1.3-1.7c-0.5-0.5-1.2-0.8-1.9-1.1
		s-1.5-0.4-2.4-0.4c-0.8,0-1.6,0.1-2.4,0.4c-0.7,0.2-1.4,0.6-1.9,1.1c-0.5,0.5-1,1-1.3,1.7c-0.3,0.7-0.5,1.4-0.5,2.3
		s0.2,1.6,0.5,2.3c0.3,0.7,0.8,1.2,1.3,1.7c0.6,0.5,1.2,0.8,1.9,1.1C751.9,90.5,752.7,90.6,753.5,90.6z"/>
	<path fill="#CCCCCC" d="M753.5,65.7c0.9,0,1.8,0.1,2.7,0.4c0.8,0.3,1.5,0.7,2.2,1.2c0.6,0.5,1.1,1.2,1.4,1.9s0.5,1.6,0.5,2.6
		s-0.2,1.8-0.5,2.6c-0.4,0.8-0.8,1.4-1.4,1.9c-0.6,0.5-1.3,0.9-2.2,1.2c-0.8,0.3-1.7,0.4-2.7,0.4s-1.8-0.1-2.7-0.4
		c-0.8-0.3-1.5-0.7-2.2-1.2c-0.6-0.5-1.1-1.2-1.4-1.9c-0.4-0.8-0.5-1.6-0.5-2.6s0.2-1.8,0.5-2.6c0.4-0.8,0.8-1.4,1.4-1.9
		c0.6-0.5,1.3-0.9,2.2-1.2C751.7,65.8,752.6,65.7,753.5,65.7z M753.5,77.2c0.8,0,1.6-0.1,2.4-0.4s1.4-0.6,1.9-1.1
		c0.6-0.5,1-1,1.3-1.7c0.3-0.7,0.5-1.4,0.5-2.3s-0.2-1.6-0.5-2.3c-0.3-0.7-0.8-1.2-1.3-1.7c-0.5-0.5-1.2-0.8-1.9-1.1
		s-1.5-0.4-2.4-0.4c-0.8,0-1.6,0.1-2.4,0.4c-0.7,0.2-1.4,0.6-1.9,1.1c-0.5,0.5-1,1-1.3,1.7c-0.3,0.7-0.5,1.4-0.5,2.3
		s0.2,1.6,0.5,2.3c0.3,0.7,0.8,1.2,1.3,1.7c0.6,0.5,1.2,0.8,1.9,1.1C751.9,77.1,752.7,77.2,753.5,77.2z"/>
	<path fill="#CCCCCC" d="M747,64v-0.8h13V64H747z"/>
	<path fill="#CCCCCC" d="M747,60.9v-0.8h13v0.8H747z"/>
</g>
<rect x="744.7" y="-148.5" fill="none" width="15.3" height="34.2"/>
<g enable-background="new    ">
	<path fill="#CCCCCC" d="M759.6-147v0.8h-13v-0.8H759.6z"/>
	<path fill="#CCCCCC" d="M753.1-132.1c-0.9,0-1.8-0.1-2.7-0.4c-0.8-0.3-1.5-0.7-2.2-1.2c-0.6-0.5-1.1-1.2-1.4-1.9
		c-0.4-0.8-0.5-1.6-0.5-2.6c0-1,0.2-1.8,0.5-2.6s0.8-1.4,1.4-1.9c0.6-0.5,1.3-0.9,2.2-1.2c0.8-0.3,1.7-0.4,2.7-0.4s1.8,0.1,2.7,0.4
		c0.8,0.3,1.5,0.7,2.2,1.2c0.6,0.5,1.1,1.2,1.4,1.9c0.4,0.8,0.5,1.6,0.5,2.6c0,1-0.2,1.8-0.5,2.6c-0.4,0.8-0.8,1.4-1.4,1.9
		c-0.6,0.5-1.3,0.9-2.2,1.2C754.9-132.3,754.1-132.1,753.1-132.1z M753.1-143.7c-0.8,0-1.6,0.1-2.4,0.4c-0.7,0.2-1.4,0.6-1.9,1.1
		c-0.6,0.5-1,1-1.3,1.7c-0.3,0.7-0.5,1.4-0.5,2.3c0,0.8,0.2,1.6,0.5,2.3c0.3,0.7,0.8,1.2,1.3,1.7c0.5,0.5,1.2,0.8,1.9,1.1
		c0.7,0.2,1.5,0.4,2.4,0.4c0.8,0,1.6-0.1,2.4-0.4c0.7-0.2,1.4-0.6,1.9-1.1c0.5-0.5,1-1,1.3-1.7c0.3-0.7,0.5-1.4,0.5-2.3
		c0-0.8-0.2-1.6-0.5-2.3c-0.3-0.7-0.8-1.2-1.3-1.7c-0.6-0.5-1.2-0.8-1.9-1.1C754.7-143.5,754-143.7,753.1-143.7z"/>
	<path fill="#CCCCCC" d="M753.1-118.7c-0.9,0-1.8-0.1-2.7-0.4c-0.8-0.3-1.5-0.7-2.2-1.2c-0.6-0.5-1.1-1.2-1.4-1.9
		c-0.4-0.8-0.5-1.6-0.5-2.6c0-1,0.2-1.8,0.5-2.6s0.8-1.4,1.4-1.9c0.6-0.5,1.3-0.9,2.2-1.2c0.8-0.3,1.7-0.4,2.7-0.4s1.8,0.1,2.7,0.4
		c0.8,0.3,1.5,0.7,2.2,1.2c0.6,0.5,1.1,1.2,1.4,1.9c0.4,0.8,0.5,1.6,0.5,2.6c0,1-0.2,1.8-0.5,2.6c-0.4,0.8-0.8,1.4-1.4,1.9
		c-0.6,0.5-1.3,0.9-2.2,1.2C754.9-118.8,754.1-118.7,753.1-118.7z M753.1-130.2c-0.8,0-1.6,0.1-2.4,0.4c-0.7,0.2-1.4,0.6-1.9,1.1
		c-0.6,0.5-1,1-1.3,1.7c-0.3,0.7-0.5,1.4-0.5,2.3c0,0.8,0.2,1.6,0.5,2.3c0.3,0.7,0.8,1.2,1.3,1.7c0.5,0.5,1.2,0.8,1.9,1.1
		c0.7,0.2,1.5,0.4,2.4,0.4c0.8,0,1.6-0.1,2.4-0.4c0.7-0.2,1.4-0.6,1.9-1.1c0.5-0.5,1-1,1.3-1.7c0.3-0.7,0.5-1.4,0.5-2.3
		c0-0.8-0.2-1.6-0.5-2.3c-0.3-0.7-0.8-1.2-1.3-1.7c-0.6-0.5-1.2-0.8-1.9-1.1C754.7-130.1,754-130.2,753.1-130.2z"/>
</g>
<rect x="744.7" y="-182.8" fill="none" width="15.3" height="42"/>
<rect x="744.7" y="-219.8" fill="none" width="15.3" height="58.6"/>
<rect x="712.3" y="-189.1" fill="none" width="15.3" height="34.7"/>
<g enable-background="new    ">
	<path fill="#CCCCCC" d="M718.4-134.1c0.9,0,1.8,0.1,2.7,0.4c0.8,0.3,1.5,0.7,2.2,1.2c0.6,0.5,1.1,1.2,1.4,1.9
		c0.4,0.8,0.5,1.6,0.5,2.6c0,1-0.2,1.8-0.5,2.6s-0.8,1.4-1.4,1.9c-0.6,0.5-1.3,0.9-2.2,1.2c-0.8,0.3-1.7,0.4-2.7,0.4
		s-1.8-0.1-2.7-0.4c-0.8-0.3-1.5-0.7-2.2-1.2c-0.6-0.5-1.1-1.2-1.4-1.9c-0.4-0.8-0.5-1.6-0.5-2.6c0-1,0.2-1.8,0.5-2.6
		c0.4-0.8,0.8-1.4,1.4-1.9c0.6-0.5,1.3-0.9,2.2-1.2C716.5-134,717.4-134.1,718.4-134.1z M718.4-122.6c0.8,0,1.6-0.1,2.4-0.4
		c0.7-0.2,1.4-0.6,1.9-1.1c0.6-0.5,1-1,1.3-1.7c0.3-0.7,0.5-1.4,0.5-2.3c0-0.8-0.2-1.6-0.5-2.3c-0.3-0.7-0.8-1.2-1.3-1.7
		c-0.5-0.5-1.2-0.8-1.9-1.1c-0.7-0.2-1.5-0.4-2.4-0.4c-0.8,0-1.6,0.1-2.4,0.4c-0.7,0.2-1.4,0.6-1.9,1.1c-0.5,0.5-1,1-1.3,1.7
		c-0.3,0.7-0.5,1.4-0.5,2.3c0,0.8,0.2,1.6,0.5,2.3c0.3,0.7,0.8,1.2,1.3,1.7c0.6,0.5,1.2,0.8,1.9,1.1
		C716.7-122.7,717.5-122.6,718.4-122.6z"/>
	<path fill="#CCCCCC" d="M711.9-135.8v-0.8h13v0.8H711.9z"/>
	<path fill="#CCCCCC" d="M718.4-150.7c0.9,0,1.8,0.1,2.7,0.4c0.8,0.3,1.5,0.7,2.2,1.2c0.6,0.5,1.1,1.2,1.4,1.9
		c0.4,0.8,0.5,1.6,0.5,2.6c0,1-0.2,1.8-0.5,2.6s-0.8,1.4-1.4,1.9c-0.6,0.5-1.3,0.9-2.2,1.2c-0.8,0.3-1.7,0.4-2.7,0.4
		s-1.8-0.1-2.7-0.4c-0.8-0.3-1.5-0.7-2.2-1.2c-0.6-0.5-1.1-1.2-1.4-1.9c-0.4-0.8-0.5-1.6-0.5-2.6c0-1,0.2-1.8,0.5-2.6
		c0.4-0.8,0.8-1.4,1.4-1.9c0.6-0.5,1.3-0.9,2.2-1.2C716.5-150.5,717.4-150.7,718.4-150.7z M718.4-139.1c0.8,0,1.6-0.1,2.4-0.4
		c0.7-0.2,1.4-0.6,1.9-1.1c0.6-0.5,1-1,1.3-1.7c0.3-0.7,0.5-1.4,0.5-2.3c0-0.8-0.2-1.6-0.5-2.3c-0.3-0.7-0.8-1.2-1.3-1.7
		c-0.5-0.5-1.2-0.8-1.9-1.1c-0.7-0.2-1.5-0.4-2.4-0.4c-0.8,0-1.6,0.1-2.4,0.4c-0.7,0.2-1.4,0.6-1.9,1.1c-0.5,0.5-1,1-1.3,1.7
		c-0.3,0.7-0.5,1.4-0.5,2.3c0,0.8,0.2,1.6,0.5,2.3c0.3,0.7,0.8,1.2,1.3,1.7c0.6,0.5,1.2,0.8,1.9,1.1
		C716.7-139.3,717.5-139.1,718.4-139.1z"/>
</g>
<rect x="727.5" y="-146.4" fill="none" width="15.3" height="31.1"/>
<g enable-background="new    ">
	<path fill="#CCCCCC" d="M736-135.2c-0.9,0-1.8-0.1-2.7-0.4c-0.8-0.3-1.5-0.7-2.2-1.2c-0.6-0.5-1.1-1.2-1.4-1.9
		c-0.4-0.8-0.5-1.6-0.5-2.6c0-1,0.2-1.8,0.5-2.6s0.8-1.4,1.4-1.9c0.6-0.5,1.3-0.9,2.2-1.2c0.8-0.3,1.7-0.4,2.7-0.4s1.8,0.1,2.7,0.4
		c0.8,0.3,1.5,0.7,2.2,1.2c0.6,0.5,1.1,1.2,1.4,1.9c0.4,0.8,0.5,1.6,0.5,2.6c0,1-0.2,1.8-0.5,2.6c-0.4,0.8-0.8,1.4-1.4,1.9
		c-0.6,0.5-1.3,0.9-2.2,1.2C737.8-135.3,736.9-135.2,736-135.2z M736-146.7c-0.8,0-1.6,0.1-2.4,0.4c-0.7,0.2-1.4,0.6-1.9,1.1
		c-0.6,0.5-1,1-1.3,1.7c-0.3,0.7-0.5,1.4-0.5,2.3c0,0.8,0.2,1.6,0.5,2.3c0.3,0.7,0.8,1.2,1.3,1.7c0.5,0.5,1.2,0.8,1.9,1.1
		c0.7,0.2,1.5,0.4,2.4,0.4c0.8,0,1.6-0.1,2.4-0.4c0.7-0.2,1.4-0.6,1.9-1.1c0.5-0.5,1-1,1.3-1.7c0.3-0.7,0.5-1.4,0.5-2.3
		c0-0.8-0.2-1.6-0.5-2.3c-0.3-0.7-0.8-1.2-1.3-1.7c-0.6-0.5-1.2-0.8-1.9-1.1C737.6-146.6,736.8-146.7,736-146.7z"/>
	<path fill="#CCCCCC" d="M742.4-133.5v0.8h-13v-0.8H742.4z"/>
	<path fill="#CCCCCC" d="M736-118.7c-0.9,0-1.8-0.1-2.7-0.4c-0.8-0.3-1.5-0.7-2.2-1.2c-0.6-0.5-1.1-1.2-1.4-1.9
		c-0.4-0.8-0.5-1.6-0.5-2.6c0-1,0.2-1.8,0.5-2.6c0.4-0.8,0.8-1.4,1.4-1.9c0.6-0.5,1.3-0.9,2.2-1.2c0.8-0.3,1.7-0.4,2.7-0.4
		s1.8,0.1,2.7,0.4c0.8,0.3,1.5,0.7,2.2,1.2c0.6,0.5,1.1,1.2,1.4,1.9c0.4,0.8,0.5,1.6,0.5,2.6c0,1-0.2,1.8-0.5,2.6
		c-0.4,0.8-0.8,1.4-1.4,1.9c-0.6,0.5-1.3,0.9-2.2,1.2C737.8-118.8,736.9-118.7,736-118.7z M736-130.2c-0.8,0-1.6,0.1-2.4,0.4
		c-0.7,0.2-1.4,0.6-1.9,1.1c-0.6,0.5-1,1-1.3,1.7c-0.3,0.7-0.5,1.4-0.5,2.3c0,0.8,0.2,1.6,0.5,2.3c0.3,0.7,0.8,1.2,1.3,1.7
		c0.5,0.5,1.2,0.8,1.9,1.1c0.7,0.2,1.5,0.4,2.4,0.4c0.8,0,1.6-0.1,2.4-0.4c0.7-0.2,1.4-0.6,1.9-1.1c0.5-0.5,1-1,1.3-1.7
		c0.3-0.7,0.5-1.4,0.5-2.3c0-0.8-0.2-1.6-0.5-2.3c-0.3-0.7-0.8-1.2-1.3-1.7c-0.6-0.5-1.2-0.8-1.9-1.1
		C737.6-130.1,736.8-130.2,736-130.2z"/>
</g>
<rect x="727.5" y="-166.8" fill="none" width="15.3" height="25.5"/>
<g enable-background="new    ">
	<path fill="#CCCCCC" d="M735.9-154c-0.9,0-1.8-0.1-2.7-0.4c-0.8-0.3-1.5-0.7-2.2-1.2c-0.6-0.5-1.1-1.2-1.4-1.9
		c-0.4-0.8-0.5-1.6-0.5-2.6c0-1,0.2-1.8,0.5-2.6s0.8-1.4,1.4-1.9c0.6-0.5,1.3-0.9,2.2-1.2c0.8-0.3,1.7-0.4,2.7-0.4s1.8,0.1,2.7,0.4
		c0.8,0.3,1.5,0.7,2.2,1.2c0.6,0.5,1.1,1.2,1.4,1.9c0.4,0.8,0.5,1.6,0.5,2.6c0,1-0.2,1.8-0.5,2.6c-0.4,0.8-0.8,1.4-1.4,1.9
		c-0.6,0.5-1.3,0.9-2.2,1.2C737.7-154.1,736.8-154,735.9-154z M735.9-165.5c-0.8,0-1.6,0.1-2.4,0.4c-0.7,0.2-1.4,0.6-1.9,1.1
		c-0.6,0.5-1,1-1.3,1.7c-0.3,0.7-0.5,1.4-0.5,2.3c0,0.8,0.2,1.6,0.5,2.3c0.3,0.7,0.8,1.2,1.3,1.7c0.5,0.5,1.2,0.8,1.9,1.1
		c0.7,0.2,1.5,0.4,2.4,0.4c0.8,0,1.6-0.1,2.4-0.4c0.7-0.2,1.4-0.6,1.9-1.1c0.5-0.5,1-1,1.3-1.7c0.3-0.7,0.5-1.4,0.5-2.3
		c0-0.8-0.2-1.6-0.5-2.3c-0.3-0.7-0.8-1.2-1.3-1.7c-0.6-0.5-1.2-0.8-1.9-1.1C737.5-165.4,736.7-165.5,735.9-165.5z"/>
	<path fill="#CCCCCC" d="M742.4-152.3v0.8h-13v-0.8H742.4z"/>
</g>
<rect x="727.5" y="-222.8" fill="none" width="15.3" height="58.6"/>
<g enable-background="new    ">
	<path fill="#CCCCCC" d="M795-130.5v0.8h-13v-0.8H795z"/>
	<path fill="#CCCCCC" d="M788.5-115.7c-0.9,0-1.8-0.1-2.7-0.4c-0.8-0.3-1.5-0.7-2.2-1.2c-0.6-0.5-1.1-1.2-1.4-1.9
		c-0.4-0.8-0.5-1.6-0.5-2.6c0-1,0.2-1.8,0.5-2.6s0.8-1.4,1.4-1.9c0.6-0.5,1.3-0.9,2.2-1.2c0.8-0.3,1.7-0.4,2.7-0.4s1.8,0.1,2.7,0.4
		c0.8,0.3,1.5,0.7,2.2,1.2c0.6,0.5,1.1,1.2,1.4,1.9c0.4,0.8,0.5,1.6,0.5,2.6c0,1-0.2,1.8-0.5,2.6c-0.4,0.8-0.8,1.4-1.4,1.9
		c-0.6,0.5-1.3,0.9-2.2,1.2C790.3-115.8,789.5-115.7,788.5-115.7z M788.5-127.2c-0.8,0-1.6,0.1-2.4,0.4c-0.7,0.2-1.4,0.6-1.9,1.1
		c-0.6,0.5-1,1-1.3,1.7c-0.3,0.7-0.5,1.4-0.5,2.3c0,0.8,0.2,1.6,0.5,2.3c0.3,0.7,0.8,1.2,1.3,1.7c0.5,0.5,1.2,0.8,1.9,1.1
		c0.7,0.2,1.5,0.4,2.4,0.4c0.8,0,1.6-0.1,2.4-0.4c0.7-0.2,1.4-0.6,1.9-1.1c0.5-0.5,1-1,1.3-1.7c0.3-0.7,0.5-1.4,0.5-2.3
		c0-0.8-0.2-1.6-0.5-2.3c-0.3-0.7-0.8-1.2-1.3-1.7c-0.6-0.5-1.2-0.8-1.9-1.1C790.1-127.1,789.4-127.2,788.5-127.2z"/>
</g>
<rect x="779.6" y="-152.9" fill="none" width="15.3" height="40.1"/>
<path fill="#CCCCCC" d="M794.9-155.3v0.8h-13v-0.8H794.9z"/>
<path fill="#CCCCCC" d="M794.9-152.2v0.8h-13v-0.8H794.9z"/>
<path fill="#CCCCCC" d="M788.4-137.4c-0.9,0-1.8-0.1-2.7-0.4c-0.8-0.3-1.5-0.7-2.2-1.2c-0.6-0.5-1.1-1.2-1.4-1.9
	c-0.4-0.8-0.5-1.6-0.5-2.6c0-1,0.2-1.8,0.5-2.6s0.8-1.4,1.4-1.9c0.6-0.5,1.3-0.9,2.2-1.2c0.8-0.3,1.7-0.4,2.7-0.4s1.8,0.1,2.7,0.4
	c0.8,0.3,1.5,0.7,2.2,1.2c0.6,0.5,1.1,1.2,1.4,1.9c0.4,0.8,0.5,1.6,0.5,2.6c0,1-0.2,1.8-0.5,2.6c-0.4,0.8-0.8,1.4-1.4,1.9
	c-0.6,0.5-1.3,0.9-2.2,1.2C790.2-137.5,789.4-137.4,788.4-137.4z M788.4-148.9c-0.8,0-1.6,0.1-2.4,0.4c-0.7,0.2-1.4,0.6-1.9,1.1
	c-0.6,0.5-1,1-1.3,1.7c-0.3,0.7-0.5,1.4-0.5,2.3c0,0.8,0.2,1.6,0.5,2.3c0.3,0.7,0.8,1.2,1.3,1.7c0.5,0.5,1.2,0.8,1.9,1.1
	c0.7,0.2,1.5,0.4,2.4,0.4c0.8,0,1.6-0.1,2.4-0.4c0.7-0.2,1.4-0.6,1.9-1.1c0.5-0.5,1-1,1.3-1.7c0.3-0.7,0.5-1.4,0.5-2.3
	c0-0.8-0.2-1.6-0.5-2.3c-0.3-0.7-0.8-1.2-1.3-1.7c-0.6-0.5-1.2-0.8-1.9-1.1C790-148.8,789.2-148.9,788.4-148.9z"/>
<rect x="779.6" y="-203.8" fill="none" width="15.3" height="58.6"/>
<g enable-background="new    ">
	<path fill="#CCCCCC" d="M771.6-151.2c-0.9,0-1.8-0.1-2.7-0.4c-0.8-0.3-1.5-0.7-2.2-1.2c-0.6-0.5-1.1-1.2-1.4-1.9
		c-0.4-0.8-0.5-1.6-0.5-2.6c0-1,0.2-1.8,0.5-2.6s0.8-1.4,1.4-1.9c0.6-0.5,1.3-0.9,2.2-1.2c0.8-0.3,1.7-0.4,2.7-0.4s1.8,0.1,2.7,0.4
		c0.8,0.3,1.5,0.7,2.2,1.2c0.6,0.5,1.1,1.2,1.4,1.9c0.4,0.8,0.5,1.6,0.5,2.6c0,1-0.2,1.8-0.5,2.6c-0.4,0.8-0.8,1.4-1.4,1.9
		c-0.6,0.5-1.3,0.9-2.2,1.2C773.5-151.3,772.6-151.2,771.6-151.2z M771.6-162.7c-0.8,0-1.6,0.1-2.4,0.4c-0.7,0.2-1.4,0.6-1.9,1.1
		c-0.6,0.5-1,1-1.3,1.7c-0.3,0.7-0.5,1.4-0.5,2.3c0,0.8,0.2,1.6,0.5,2.3c0.3,0.7,0.8,1.2,1.3,1.7c0.5,0.5,1.2,0.8,1.9,1.1
		c0.7,0.2,1.5,0.4,2.4,0.4c0.8,0,1.6-0.1,2.4-0.4c0.7-0.2,1.4-0.6,1.9-1.1c0.5-0.5,1-1,1.3-1.7c0.3-0.7,0.5-1.4,0.5-2.3
		c0-0.8-0.2-1.6-0.5-2.3c-0.3-0.7-0.8-1.2-1.3-1.7c-0.6-0.5-1.2-0.8-1.9-1.1C773.3-162.6,772.5-162.7,771.6-162.7z"/>
	<path fill="#CCCCCC" d="M771.6-137.7c-0.9,0-1.8-0.1-2.7-0.4c-0.8-0.3-1.5-0.7-2.2-1.2c-0.6-0.5-1.1-1.2-1.4-1.9
		c-0.4-0.8-0.5-1.6-0.5-2.6c0-1,0.2-1.8,0.5-2.6s0.8-1.4,1.4-1.9c0.6-0.5,1.3-0.9,2.2-1.2c0.8-0.3,1.7-0.4,2.7-0.4s1.8,0.1,2.7,0.4
		c0.8,0.3,1.5,0.7,2.2,1.2c0.6,0.5,1.1,1.2,1.4,1.9c0.4,0.8,0.5,1.6,0.5,2.6c0,1-0.2,1.8-0.5,2.6c-0.4,0.8-0.8,1.4-1.4,1.9
		c-0.6,0.5-1.3,0.9-2.2,1.2C773.5-137.9,772.6-137.7,771.6-137.7z M771.6-149.3c-0.8,0-1.6,0.1-2.4,0.4c-0.7,0.2-1.4,0.6-1.9,1.1
		c-0.6,0.5-1,1-1.3,1.7c-0.3,0.7-0.5,1.4-0.5,2.3c0,0.8,0.2,1.6,0.5,2.3c0.3,0.7,0.8,1.2,1.3,1.7c0.5,0.5,1.2,0.8,1.9,1.1
		c0.7,0.2,1.5,0.4,2.4,0.4c0.8,0,1.6-0.1,2.4-0.4c0.7-0.2,1.4-0.6,1.9-1.1c0.5-0.5,1-1,1.3-1.7c0.3-0.7,0.5-1.4,0.5-2.3
		c0-0.8-0.2-1.6-0.5-2.3c-0.3-0.7-0.8-1.2-1.3-1.7c-0.6-0.5-1.2-0.8-1.9-1.1C773.3-149.1,772.5-149.3,771.6-149.3z"/>
	<path fill="#CCCCCC" d="M778.1-136v0.8h-13v-0.8H778.1z"/>
	<path fill="#CCCCCC" d="M778.1-133v0.8h-13v-0.8H778.1z"/>
	<path fill="#CCCCCC" d="M771.6-118.1c-0.9,0-1.8-0.1-2.7-0.4c-0.8-0.3-1.5-0.7-2.2-1.2c-0.6-0.5-1.1-1.2-1.4-1.9
		c-0.4-0.8-0.5-1.6-0.5-2.6c0-1,0.2-1.8,0.5-2.6s0.8-1.4,1.4-1.9c0.6-0.5,1.3-0.9,2.2-1.2c0.8-0.3,1.7-0.4,2.7-0.4s1.8,0.1,2.7,0.4
		c0.8,0.3,1.5,0.7,2.2,1.2c0.6,0.5,1.1,1.2,1.4,1.9c0.4,0.8,0.5,1.6,0.5,2.6c0,1-0.2,1.8-0.5,2.6c-0.4,0.8-0.8,1.4-1.4,1.9
		c-0.6,0.5-1.3,0.9-2.2,1.2C773.5-118.3,772.6-118.1,771.6-118.1z M771.6-129.6c-0.8,0-1.6,0.1-2.4,0.4c-0.7,0.2-1.4,0.6-1.9,1.1
		c-0.6,0.5-1,1-1.3,1.7c-0.3,0.7-0.5,1.4-0.5,2.3c0,0.8,0.2,1.6,0.5,2.3c0.3,0.7,0.8,1.2,1.3,1.7c0.5,0.5,1.2,0.8,1.9,1.1
		c0.7,0.2,1.5,0.4,2.4,0.4c0.8,0,1.6-0.1,2.4-0.4c0.7-0.2,1.4-0.6,1.9-1.1c0.5-0.5,1-1,1.3-1.7c0.3-0.7,0.5-1.4,0.5-2.3
		c0-0.8-0.2-1.6-0.5-2.3c-0.3-0.7-0.8-1.2-1.3-1.7c-0.6-0.5-1.2-0.8-1.9-1.1C773.3-129.5,772.5-129.6,771.6-129.6z"/>
</g>
</svg>
