<?xml version="1.0" encoding="iso-8859-1"?>
<!-- Generator: Adobe Illustrator 18.1.0, SVG Export Plug-In . SVG Version: 6.00 Build 0)  -->
<!DOCTYPE svg PUBLIC "-//W3C//DTD SVG 1.1//EN" "http://www.w3.org/Graphics/SVG/1.1/DTD/svg11.dtd">
<svg version="1.1" id="Layer_1" xmlns="http://www.w3.org/2000/svg" xmlns:xlink="http://www.w3.org/1999/xlink" x="0px" y="0px"
	 width="218.515px" height="218.516px" viewBox="0 0 218.515 218.516" style="enable-background:new 0 0 218.515 218.516;"
	 xml:space="preserve">
<circle style="fill:#00619E;" cx="109.258" cy="109.258" r="109.258"/>
<path style="fill:#114069;" d="M73.478,211.996l0.254,0.058c-35.239-18.043-59.36-54.723-59.36-97.035
	c0-60.17,48.771-108.946,108.934-108.946c12.065,0,23.672,1.961,34.52,5.584l0.036-0.069C143.152,4.179,126.53,0.007,108.934,0.007
	c-0.867,0-1.732,0.013-2.595,0.033C47.41,1.585,0.102,49.79,0.002,109.07C0.053,156.773,30.758,197.297,73.478,211.996z"/>
<path style="fill:#114069;" d="M218.515,109.258c0-10.477-1.478-20.609-4.231-30.201l-58.918-17.671l1.699,92.261H81.081v18.833
	l3.308,5.437l87.585,20.76C200.076,178.906,218.515,146.228,218.515,109.258z"/>
<path style="fill:#2DACD8;" d="M175.87,82.055h-14.41v9.462h14.41c1.925,0,3.501-2.13,3.501-4.731
	C179.372,84.184,177.796,82.055,175.87,82.055z"/>
<path style="fill:#2DACD8;" d="M175.87,106.006h-14.41v9.462h14.41c1.925,0,3.501-2.129,3.501-4.731S177.796,106.006,175.87,106.006
	z"/>
<path style="fill:#2DACD8;" d="M175.87,129.957h-14.41v9.462h14.41c1.925,0,3.501-2.129,3.501-4.731
	C179.372,132.086,177.796,129.957,175.87,129.957z"/>
<path style="fill:#2DACD8;" d="M85.728,40.585c-2.556,0-4.647,1.604-4.647,3.565v14.67h9.294V44.15
	C90.374,42.189,88.284,40.585,85.728,40.585z"/>
<path style="fill:#2DACD8;" d="M109.254,40.585c-2.556,0-4.647,1.604-4.647,3.565v14.67h9.295V44.15
	C113.901,42.189,111.81,40.585,109.254,40.585z"/>
<path style="fill:#2DACD8;" d="M132.78,40.585c-2.556,0-4.647,1.604-4.647,3.565v14.67h9.295V44.15
	C137.427,42.189,135.336,40.585,132.78,40.585z"/>
<path style="fill:#2DACD8;" d="M81.081,174.368c0,1.96,2.09,3.564,4.646,3.564s4.647-1.604,4.647-3.564v-14.67h-9.294V174.368z"/>
<path style="fill:#2DACD8;" d="M104.606,174.368c0,1.96,2.092,3.564,4.647,3.564s4.647-1.604,4.647-3.564v-14.67h-9.295V174.368z"/>
<path style="fill:#2DACD8;" d="M128.132,174.368c0,1.96,2.092,3.564,4.647,3.564c2.557,0,4.647-1.604,4.647-3.564v-14.67h-9.295
	V174.368z"/>
<path style="fill:#2DACD8;" d="M39.144,86.786c0,2.602,1.576,4.731,3.501,4.731h14.41v-9.462h-14.41
	C40.72,82.055,39.144,84.184,39.144,86.786z"/>
<path style="fill:#2DACD8;" d="M39.144,110.737c0,2.602,1.576,4.731,3.501,4.731h14.41v-9.462h-14.41
	C40.72,106.006,39.144,108.136,39.144,110.737z"/>
<path style="fill:#2DACD8;" d="M39.144,134.688c0,2.602,1.576,4.731,3.501,4.731h14.41v-9.462h-14.41
	C40.72,129.956,39.144,132.085,39.144,134.688z"/>
<path style="fill:#2DACD8;" d="M154.324,61.244H64.177c-2.69,0-4.891,2.696-4.891,5.991v84.617c0,3.295,2.201,5.991,4.891,5.991
	h90.147c2.69,0,4.89-2.696,4.89-5.991V67.234C159.213,63.939,157.014,61.244,154.324,61.244z M142.692,137.861
	c0,2.206-1.474,4.011-3.273,4.011H79.082c-1.799,0-3.273-1.805-3.273-4.011V81.226c0-2.206,1.474-4.01,3.273-4.01h60.337
	c1.799,0,3.273,1.804,3.273,4.01V137.861z"/>
<rect x="84" y="84.293" style="fill:#F19126;" width="50.5" height="50.5"/>
</svg>
