<svg  version="1.1" xmlns="http://www.w3.org/2000/svg" xmlns:xlink="http://www.w3.org/1999/xlink" preserveAspectRatio="none" x="0px" y="0px" width="200px" height="200px" viewBox="0 0 200 200">
<defs>
<g id="Layer0_0_FILL">
<path fill="#CCCCCC" stroke="none" d="
M 568.35 208.95
L 568.4 208.05
Q 565.95 208.5 564.3 210.55 562.65 212.55 562.65 215.25 562.65 218.3 564.7 220.4 565.7267578125 221.476953125 566.95 222 568.227734375 222.55 569.7 222.55 572.6 222.55 574.65 220.4 576.7 218.3 576.7 215.25 576.7 212.65 575.15 210.65 573.6 208.65 571.2 208.1
L 571.15 208.95
Q 573.2 209.5 574.5 211.2 575.85 213 575.85 215.25 575.85 217.9 574.05 219.8 572.25 221.7 569.7 221.7 567.1 221.7 565.3 219.8 563.5 217.9 563.5 215.25 563.5 212.95 564.9 211.2 566.25 209.45 568.35 208.95
M 702.8 185.15
L 703.05 185.25
Q 703.1794921875 185.0087890625 703.25 184.75 703.175390625 184.99453125 703.05 185.25
L 702.8 185.15
M 652.6 170.3
Q 652.3689453125 170.083984375 652.1 169.85
L 647.85 168.55
Q 649.521484375 169.730859375 651.2 171.5 652.99375 173.421875 654.2 175.55 654.86484375 176.7421875 655.35 178
L 653.4 178
Q 651.1 178 649.5 179.7 647.85 181.4 647.85 183.8
L 647.85 187.95 647.95 187.95 647.75 199.1
Q 648 211.3 650.25 216.7
L 651.15 218.55
Q 651.37109375 218.9125 651.6 219.25 652.7005859375 220.79453125 654.1 221.7 653.05 221.55 651.8 221
L 651.8 220.45
Q 651.75 220.05 651.35 219.9
L 649.15 218.8
Q 648.9 218.7 648.65 218.65 648.05 218.6 647.85 219.1
L 647.2 220.9
Q 647 221.75 648 222
L 650.4 222.65
Q 651.15 222.85 651.4 222.1 654.3 223.25 656.6 222.75 658.95 223.25 661.8 222.1 662.25 222.8 662.8 222.65
L 665.2 222
Q 665.7 221.875 665.9 221.6 666.1 221.325 666 220.9
L 665.4 219.1
Q 665.15 218.6 664.6 218.65
L 664.05 218.8 661.85 219.9
Q 661.25 220.2 661.45 221 660.05 221.55 659.15 221.7 660.85 220.6 662.1 218.55
L 663 216.7
Q 665.2 211.3 665.5 199.1
L 665.3 187.95 665.4 187.95 665.4 183.8
Q 665.4 182.8212890625 665.1 181.95 663.4025390625 180.0931640625 661.6 178.3 660.7529296875 178 659.8 178
L 657.5 178
Q 656.625390625 175.348046875 655 173.05 653.9482421875 171.606640625 652.6 170.3
M 662.65 180.8
Q 663.9 182.1 663.9 183.95
L 663.9 187.95 664.1 187.95
Q 664.2123046875 190.4837890625 664.25 192.8 664.6193359375 209.2423828125 661.95 216.2
L 660.7 218.55
Q 659 221 656.6 221.6 654.25 221 652.5 218.55
L 651.25 216.2
Q 649.35 211.15 649 200.35 648.8 193.8 649.15 187.95
L 649.3 187.95 649.3 183.95
Q 649.3 182.1 650.55 180.8 651.8 179.5 653.55 179.5
L 659.65 179.5
Q 661.4 179.5 662.65 180.8
M 682.05 84.75
Q 669.05 71.8 652.2 64.65 652.0640625 64.592578125 651.9 64.5
L 645.55 62.1
Q 644.4587890625 61.7990234375 643.35 61.45 650.5552734375 63.7751953125 657.4 67.25
L 657.4 67.3
Q 643 62.5 627.75 62.5 608.75 62.5 591.35 69.85 574.6 76.95 561.65 89.9 548.7 102.85 541.6 119.6 534.25 137 534.25 156 534.25 179.61875 545.2 199.95 546.180859375 195.8453125 547.4 191.6
L 549.9 183.55
Q 551.8 178.85 555.8 176.95
L 559.45 176
Q 560.2 176 584.2 168.2 582.7583984375 169.8529296875 581.45 171.6 574.0537109375 181.565234375 570.7 195.15 568.9728515625 202.216015625 568.55 208.95 568.421484375 210.8234375 568.4 212.65 566.9 213.4 566.9 215.25 566.9 216.45 567.7 217.3 568.5 218.1 569.65 218.15 570.8 218.15 571.6 217.3 572.45 216.45 572.45 215.25 572.45 214.35 572 213.6 571.5 212.9 570.75 212.55 570.7234375 210.408203125 570.85 208.15 571.2619140625 202.0125 572.95 195.15 574.747265625 188.044140625 577.7 181.95 577.8458984375 181.634765625 578 181.3 580.2326171875 176.833984375 583.1 172.9 584.35625 171.203125 585.7 169.6 586.8958984375 168.238671875 588.15 166.95 589.45 165.9 591 164.75 594.05 162.45 595.2 162.15
L 592 169.2
Q 588.45 177.8 586.5 185.75
L 590.8 186.85
Q 595.8 188.3 599.4 189.9
L 596.25 191.65
Q 592.55 193.95 590.05 196.65
L 593.2 199.2
Q 597 202.6 600.55 206.75 609.0208984375 216.6826171875 613.3 228.05 614.7361328125 231.844140625 615.7 235.8 616.6615234375 231.8916015625 618.1 228.1 622.3970703125 216.803515625 630.95 206.75 636.65 200.1 641.35 196.65 638.8 193.95 635.15 191.65
L 632 189.9
Q 637.7 187.35 644.85 185.75 642.95 177.9 639.4 169.35 636.872265625 163.69296875 636.35 162.45 634.946484375 162.00703125 633.6 162.05
L 633.65 162.35 633.65 162.4
Q 633.45 163.85 632.8 164.55
L 618.3 174.35
Q 621.7 177 623 179.45 621.3 181.75 619.95 185.1 619.3 186.8 618.95 188
L 618.95 191.35 621.6 198.75 622.2 215 619.95 220.1
Q 618.1412109375 224.27421875 616.8 227.75 616.2369140625 229.2654296875 615.75 230.65 615.2634765625 229.2216796875 614.65 227.65 613.3837890625 224.2166015625 611.6 220.1
L 609.3 215 609.95 198.75 612.55 191.35 612.55 188
Q 611.2 183.15 608.55 179.45 609.85 177 613.2 174.35
L 598.65 164.55
Q 597.95 163.8 597.85 162.4
L 597.85 162.35 599 147.85
Q 595.85 141.95 594.45 134.75 594 135.05 593.4 134.95 592.15 134.7 591.4 132.55 589.9 128.4 589.3 123.4 588.5 116.95 591.25 118
L 589.75 101.8
Q 589.75 100.4 590.3 98.55 591.35 94.95 594.1 92.9 595.3 92.05 596.75 87.8 599.4 83.65 607.35 82.2 607.6 82.15 607.25 82.05 606.7 81.85 606.4 81.65 604.65 80.4 605.05 80.6 605.15 80.65 606.35 81.1 607.7 81.6 608.8 81.7
L 610 81.75
Q 610.15 81.75 610 81.65 609.45 81.4 608.95 81 608.1 80.35 607.45 79.1 606.65 77.55 607.15 78.25 607.5 78.75 609.15 79.4 610.85 80.1 612.1 80.15
L 616.2 80.2
Q 621.3048828125 80.2404296875 625.35 81.5 626.3083984375 81.7896484375 627.2 82.15 629.664453125 83.1697265625 632.05 84.95
L 705.1 122.5
Q 703.8095703125 118.47890625 702.15 114.55 695 97.7 682.05 84.75 Z"/>

<path fill="#B3B3B3" stroke="none" d="
M 687.1 211.9
Q 686.6443359375 212.4677734375 686.15 213 686.1642578125 213.0521484375 686.15 213.05
L 687.1 211.9
M 663.75 179.7
Q 662.78359375 178.704296875 661.6 178.3 663.4025390625 180.0931640625 665.1 181.95 664.7271484375 180.7068359375 663.75 179.7 Z"/>
</g>

<g id="Layer0_1_FILL">
<path fill="#000000" stroke="none" d="
M 607.15 78.25
Q 606.65 77.55 607.45 79.1 608.1 80.35 608.95 81 609.45 81.4 610 81.65 610.15 81.75 610 81.75
L 608.8 81.7
Q 607.7 81.6 606.35 81.1 605.15 80.65 605.05 80.6 604.65 80.4 606.4 81.65 606.7 81.85 607.25 82.05 607.6 82.15 607.35 82.2 599.4 83.65 596.75 87.8 595.3 92.05 594.1 92.9 591.35 94.95 590.3 98.55 589.75 100.4 589.75 101.8
L 591.25 118
Q 588.5 116.95 589.3 123.4 589.9 128.4 591.4 132.55 592.15 134.7 593.4 134.95 594 135.05 594.45 134.75 595.85 141.95 599 147.85
L 597.85 162.35 597.85 162.4
Q 597.95 163.8 598.65 164.55
L 613.2 174.35
Q 609.85 177 608.55 179.45 611.2 183.15 612.55 188
L 612.55 191.35 609.95 198.75 609.3 215 611.6 220.1
Q 613.3837890625 224.2166015625 614.65 227.65 615.2634765625 229.2216796875 615.75 230.65 616.2369140625 229.2654296875 616.8 227.75 618.1412109375 224.27421875 619.95 220.1
L 622.2 215 621.6 198.75 618.95 191.35 618.95 188
Q 619.3 186.8 619.95 185.1 621.3 181.75 623 179.45 621.7 177 618.3 174.35
L 632.8 164.55
Q 633.45 163.85 633.65 162.4
L 633.65 162.35 632.45 147.85
Q 635.6 141.95 637 134.8 638.9 135.75 640 132.7 641.55 128.45 642.15 123.45 642.95 116.95 640.2 118
L 641.7 101.8
Q 641.8 98.5 640.6 95.2 639.85 93.25 638.9 92.35 638.35 91.85 637.35 91.5 636.75 91.3 636.65 90.55 636.6 89.25 635.6 88.1 634.85 87.15 632.9 85.6 632.4794921875 85.262109375 632.05 84.95 629.664453125 83.1697265625 627.2 82.15 626.3083984375 81.7896484375 625.35 81.5 621.3048828125 80.2404296875 616.2 80.2
L 612.1 80.15
Q 610.85 80.1 609.15 79.4 607.5 78.75 607.15 78.25
M 663.9 183.95
Q 663.9 182.1 662.65 180.8 661.4 179.5 659.65 179.5
L 653.55 179.5
Q 651.8 179.5 650.55 180.8 649.3 182.1 649.3 183.95
L 649.3 187.95 649.15 187.95
Q 648.8 193.8 649 200.35 649.35 211.15 651.25 216.2
L 652.5 218.55
Q 654.25 221 656.6 221.6 659 221 660.7 218.55
L 661.95 216.2
Q 664.6193359375 209.2423828125 664.25 192.8 664.2123046875 190.4837890625 664.1 187.95
L 663.9 187.95 663.9 183.95
M 655.65 170.9
Q 653.9306640625 170.3703125 652 169.75 652.0662109375 169.8095703125 652.1 169.85 652.3689453125 170.083984375 652.6 170.3 653.9482421875 171.606640625 655 173.05 656.625390625 175.348046875 657.5 178
L 659.8 178
Q 660.7529296875 178 661.6 178.3 662.78359375 178.704296875 663.75 179.7 664.7271484375 180.7068359375 665.1 181.95 665.4 182.8212890625 665.4 183.8
L 665.4 187.95 665.3 187.95 665.5 199.1
Q 665.2 211.3 663 216.7
L 662.1 218.55
Q 660.85 220.6 659.15 221.7 660.05 221.55 661.45 221 661.25 220.2 661.85 219.9
L 664.05 218.8 664.6 218.65
Q 665.15 218.6 665.4 219.1
L 666 220.9
Q 666.1 221.325 665.9 221.6 665.7 221.875 665.2 222
L 662.8 222.65
Q 662.25 222.8 661.8 222.1 658.95 223.25 656.6 222.75 654.3 223.25 651.4 222.1 651.15 222.85 650.4 222.65
L 648 222
Q 647 221.75 647.2 220.9
L 647.85 219.1
Q 648.05 218.6 648.65 218.65 648.9 218.7 649.15 218.8
L 651.35 219.9
Q 651.75 220.05 651.8 220.45
L 651.8 221
Q 653.05 221.55 654.1 221.7 652.7005859375 220.79453125 651.6 219.25 651.37109375 218.9125 651.15 218.55
L 650.25 216.7
Q 648 211.3 647.75 199.1
L 647.95 187.95 647.85 187.95 647.85 183.8
Q 647.85 181.4 649.5 179.7 651.1 178 653.4 178
L 655.35 178
Q 654.86484375 176.7421875 654.2 175.55 652.99375 173.421875 651.2 171.5 649.521484375 169.730859375 647.85 168.55 647.671484375 168.461328125 647.5 168.35
L 643.25 166.95
Q 638.05 162.65 636.2 162.15 636.2099609375 162.1796875 636.35 162.45 636.872265625 163.69296875 639.4 169.35 642.95 177.9 644.85 185.75 637.7 187.35 632 189.9
L 635.15 191.65
Q 638.8 193.95 641.35 196.65 636.65 200.1 630.95 206.75 622.3970703125 216.803515625 618.1 228.1 616.6615234375 231.8916015625 615.7 235.8 614.7361328125 231.844140625 613.3 228.05 609.0208984375 216.6826171875 600.55 206.75 597 202.6 593.2 199.2
L 590.05 196.65
Q 592.55 193.95 596.25 191.65
L 599.4 189.9
Q 595.8 188.3 590.8 186.85
L 586.5 185.75
Q 588.45 177.8 592 169.2
L 595.2 162.15
Q 594.05 162.45 591 164.75 589.45 165.9 588.15 166.95 586.8958984375 168.238671875 585.7 169.6 584.35625 171.203125 583.1 172.9 580.2326171875 176.833984375 578 181.3 577.8458984375 181.634765625 577.7 181.95 574.747265625 188.044140625 572.95 195.15 571.2619140625 202.0125 570.85 208.15 570.7234375 210.408203125 570.75 212.55 571.5 212.9 572 213.6 572.45 214.35 572.45 215.25 572.45 216.45 571.6 217.3 570.8 218.15 569.65 218.15 568.5 218.1 567.7 217.3 566.9 216.45 566.9 215.25 566.9 213.4 568.4 212.65 568.421484375 210.8234375 568.55 208.95 568.9728515625 202.216015625 570.7 195.15 574.0537109375 181.565234375 581.45 171.6 582.7583984375 169.8529296875 584.2 168.2 560.2 176 559.45 176
L 555.8 176.95
Q 551.8 178.85 549.9 183.55
L 547.4 191.6
Q 546.180859375 195.8453125 545.2 199.95 543.960546875 205.125 543.1 210.05 543.0736328125 210.212890625 543.05 210.35
L 543 210.35
Q 546.0162109375 214.0162109375 549.4 217.4 549.4876953125 217.4876953125 549.55 217.55 549.65859375 217.658203125 549.75 217.75 549.8279296875 217.8271484375 549.9 217.9
L 549.95 217.95
Q 550.0986328125 218.0908203125 550.2 218.2 550.5673828125 218.5349609375 550.9 218.85
L 555.85 223.3
Q 556.012890625 223.41484375 556.15 223.5 558.1458984375 225.174609375 560.2 226.7 560.483203125 226.8904296875 560.75 227.05 567.3798828125 232.1369140625 575.9 236.05 576.0859375 236.1236328125 576.25 236.2 576.4138671875 236.27578125 576.55 236.35 576.873828125 236.488671875 577.15 236.6 577.351171875 236.697265625 577.5 236.75 578.1443359375 237.053515625 578.75 237.3 578.9890625 237.410546875 579.2 237.5 596.3951171875 244.7634765625 615.25 244.85 615.475 244.85 615.7 244.85 615.8119140625 244.85 615.9 244.85 616.1703125 244.8494140625 616.4 244.85 616.522265625 244.84921875 616.6 244.85 618.41171875 244.8322265625 620.15 244.75
L 625.55 244.35
Q 625.8482421875 244.3294921875 626.1 244.3 626.4298828125 244.2666015625 626.7 244.2 637.5517578125 242.97109375 647.8 239.2 650.019140625 238.4212890625 652.2 237.5 661.8150390625 233.4201171875 670.15 227.45 675.796484375 223.43984375 680.85 218.55 681.4541015625 217.9935546875 682.05 217.4 684.177734375 215.2640625 686.15 213 686.6443359375 212.4677734375 687.1 211.9
L 687.45 211.5
Q 687.89453125 210.9982421875 688.3 210.45 686.7283203125 202.284765625 684 192.2
L 681.5 183.55
Q 679.55 178.85 675.55 176.95
L 671.9 176
Q 671.4947265625 176 655.65 170.9
M 568.4 208.05
L 568.35 208.95
Q 566.25 209.45 564.9 211.2 563.5 212.95 563.5 215.25 563.5 217.9 565.3 219.8 567.1 221.7 569.7 221.7 572.25 221.7 574.05 219.8 575.85 217.9 575.85 215.25 575.85 213 574.5 211.2 573.2 209.5 571.15 208.95
L 571.2 208.1
Q 573.6 208.65 575.15 210.65 576.7 212.65 576.7 215.25 576.7 218.3 574.65 220.4 572.6 222.55 569.7 222.55 568.227734375 222.55 566.95 222 565.7267578125 221.476953125 564.7 220.4 562.65 218.3 562.65 215.25 562.65 212.55 564.3 210.55 565.95 208.5 568.4 208.05 Z"/>
</g>

<g id="Layer0_2_FILL">
<path fill="#B3B3B3" stroke="none" d="
M 708.3 135.9
Q 707.3201171875 128.5177734375 705.2 122.55
L 632.05 84.95
Q 632.4794921875 85.262109375 632.9 85.6 634.85 87.15 635.6 88.1 636.6 89.25 636.65 90.55 636.75 91.3 637.35 91.5 638.35 91.85 638.9 92.35 639.85 93.25 640.6 95.2 641.8 98.5 641.7 101.8
L 640.2 118
Q 642.95 116.95 642.15 123.45 641.55 128.45 640 132.7 638.9 135.75 637 134.8 635.6 141.95 632.45 147.85
L 633.6 162.05
Q 634.946484375 162.00703125 636.35 162.45 636.2099609375 162.1796875 636.2 162.15 638.05 162.65 643.25 166.95
L 647.5 168.35
Q 647.671484375 168.461328125 647.85 168.55
L 652.1 169.85
Q 652.0662109375 169.8095703125 652 169.75 653.9306640625 170.3703125 655.65 170.9 671.4947265625 176 671.9 176
L 675.55 176.95
Q 679.55 178.85 681.5 183.55
L 684 192.2
Q 686.7283203125 202.284765625 688.3 210.45
L 688.35 210.4
Q 688.5322265625 210.22265625 688.7 210
L 692.65 204.75
Q 692.934375 204.3634765625 693.2 203.95 693.445703125 203.614453125 693.65 203.25
L 696.9 198.05
Q 697.4728515625 197.109375 698 196.15 698.275390625 195.640234375 698.55 195.1 698.8494140625 194.5583984375 699.15 193.95 699.8193359375 192.6724609375 700.45 191.35 700.8291015625 190.5421875 701.2 189.7 701.28359375 189.5291015625 701.35 189.3 701.7708984375 188.443359375 702.15 187.55 702.62890625 186.4162109375 703.05 185.25
L 702.8 185.15 703.05 185.25
Q 703.175390625 184.99453125 703.25 184.75 709.5 168.6201171875 709.5 151.05 709.5 150.8 709.5 150.55
L 709.5 150.5
Q 709.4591796875 143.083203125 708.3 135.9 Z"/>
</g>

<g id="Layer0_3_FILL">
<path fill="#999999" stroke="none" d="
M 657.4 67.3
L 657.4 67.25
Q 650.5552734375 63.7751953125 643.35 61.45 644.4587890625 61.7990234375 645.55 62.1 631.1822265625 57.3 615.7 57.3 615.55078125 57.3 615.4 57.3 598.953515625 57.3498046875 583.75 62.85
L 583.5 62.9
Q 581.2458984375 63.7013671875 579 64.65 562.25 71.75 549.3 84.7 536.35 97.6 529.25 114.4 528.309375 116.6267578125 527.5 118.9
L 527.5 118.95
Q 521.9421875 134.242578125 521.9 150.8 521.9 150.925 521.9 151.05 521.9 169.5318359375 528.75 186.4
L 529.15 187.35
Q 529.2109375 187.4578125 529.25 187.55 534.5390625 200.0142578125 543 210.35
L 543.05 210.35
Q 543.0736328125 210.212890625 543.1 210.05 543.960546875 205.125 545.2 199.95 534.25 179.61875 534.25 156 534.25 137 541.6 119.6 548.7 102.85 561.65 89.9 574.6 76.95 591.35 69.85 608.75 62.5 627.75 62.5 643 62.5 657.4 67.3 Z"/>
</g>
</defs>

<g transform="matrix( 1, 0, 0, 1, -515.2,-51.1) ">
<use xlink:href="#Layer0_0_FILL"/>
</g>

<g transform="matrix( 1, 0, 0, 1, -515.2,-51.1) ">
<use xlink:href="#Layer0_1_FILL"/>
</g>

<g transform="matrix( 1, 0, 0, 1, -515.2,-51.1) ">
<use xlink:href="#Layer0_2_FILL"/>
</g>

<g transform="matrix( 1, 0, 0, 1, -515.2,-51.1) ">
<use xlink:href="#Layer0_3_FILL"/>
</g>
</svg>
