<svg version="1.1" xmlns="http://www.w3.org/2000/svg" id="Layer_1"  xmlns:xlink="http://www.w3.org/1999/xlink" x="0px" y="0px"
	 viewBox="0 180 1296 1324" enable-background="new 0 180 1296 1324" xml:space="preserve">
<g transform="matrix( 1, 0, 0, 1, 0,0) ">
	<g>
		<g id="Layer0_0_FILL">
			<path fill="#999999" d="M499.8,1228.8l3.4,0.6c-1.1-0.6-2.2-1.1-3.4-1.7V1228.8z"/>
			<path fill="#CCCCCC" d="M149.1,1201.9c-13.5-18.5-25.8-37.6-37.6-56.7c7.9,14,15.7,27.5,24.7,41l13.5,17.4
				C149.7,1203,149.7,1202.5,149.1,1201.9 M884.7,279c-1.7-0.6-3.4-1.1-5-1.7c12.3,5,24.1,10.7,36.5,16.8l-10.7-5.6
				C898.7,285.2,891.4,282.4,884.7,279z"/>
		</g>
	</g>
</g>
<g transform="matrix( 1, 0, 0, 1, -315.85,-61.4) ">
	<g>
		<g id="Layer0_1_FILL">
			<path fill="#999999" d="M528.1,471.7c-10.7,10.1-20.8,20.8-30.3,32c-34.8,39.8-63.4,83-86.4,130.2c-27.5,56.1-46,115-55.5,176.7
				c-1.1,7.9-2.2,16.3-3.4,24.7c-2.8,23-3.9,46-3.9,69.6c0,0.6,0,0.6,0,1.1c0,18.5,0.6,36.5,2.2,53.9c7.3,63.4,21.9,123.4,43.8,179
				c1.1,2.8,2.2,5.6,3.9,8.4l29.7,59.5c11.2,19.1,23.6,38.2,37,57.2c76.3,104.4,175,177.8,296.8,219.4l1.1,0.6
				c-100.4-51.6-180.7-125.1-241.2-221.6c-61.7-98.7-92.6-206.5-92.6-323.7c0-41.5,3.9-82.5,12.3-122.9c7.9-39.3,19.6-78,35.9-115
				c6.2-15.1,13.5-29.7,20.2-44.3c28.6-55.5,65.6-106,110.5-150.9C665,448.7,729.5,404.9,803,374.1c75.7-32,155.4-48.2,238.4-48.2
				c66.8,0,131.3,10.7,193.6,31.4v-0.6c-13.5-6.7-26.9-12.9-40.4-18.5l-25.8-10.1c-52.7-19.1-112.8-30.9-180.7-35.9
				c-9-0.6-18-0.6-27.5-0.6c-83,0-162.7,16.3-238.4,48.2C649.3,371.3,584.8,415,528.1,471.7z"/>
		</g>
	</g>
</g>
<g transform="matrix( 1, 0, 0, 1, -315.85,-61.4) ">
	<g>
		<g id="Layer0_2_FILL">
			<path fill="#999999" d="M1564.9,812.8c-2.8-19.1-6.2-37.6-10.7-56.1c-0.6-6.2-1.7-12.3-2.8-18.5L1235.6,649c5,6.7,7.3,14,7.3,23
				v475.2c0,9.5-2.8,17.4-7.9,23.6c-5,6.7-11.8,10.1-19.6,10.1H803l1.1,12.3v-2.2h52.2v81.9c0,5.6-2.8,10.1-7.3,14
				c-5,3.9-11.2,5.6-18.5,5.6c-1.1,0-2.2,0-2.8,0l483.6,115.6c93.1-64.5,161-145.3,202.5-242.4c38.2-79.1,57.2-166.6,57.2-261.4
				C1570.5,872.8,1568.8,842.5,1564.9,812.8 M1336.6,755.6c5.6,0,10.1,2.8,14,7.9c3.9,5,5.6,11.2,5.6,18.5s-1.7,13.5-5.6,19.1
				c-3.9,5-8.4,7.9-14,7.9h-80.8v-52.7h80.8 M1336.6,889.7c5.6,0,10.1,2.8,14,7.9c3.9,5,5.6,11.2,5.6,18.5c0,7.3-1.7,14-5.6,19.1
				c-3.9,5-8.4,7.9-14,7.9h-80.8v-53.3L1336.6,889.7 M1336.6,1024.3c5.6,0,10.1,2.8,14,7.9c3.9,5,5.6,11.2,5.6,18.5
				s-1.7,14-5.6,19.1c-3.9,5-8.4,7.9-14,7.9h-80.8v-52.7h80.8 M1068.9,1191.5h52.2v81.9c0,5.6-2.2,10.1-7.3,14s-11.2,5.6-18.5,5.6
				c-7.3,0-13.5-2.2-18.5-5.6c-5-3.9-7.3-8.4-7.3-14v-81.9 M936.5,1191.5h52.2v81.9c0,5.6-2.2,10.1-7.3,14c-5,3.9-11.2,5.6-18.5,5.6
				c-7.3,0-13.5-2.2-18.5-5.6c-5-3.9-7.3-8.4-7.3-14v-81.9H936.5z"/>
		</g>
	</g>
</g>
<g transform="matrix( 1, 0, 0, 1, -315.85,-61.4) ">
	<g>
		<g id="Layer0_3_FILL">
			<path d="M988.7,1191.5h-52.2v81.9c0,5.6,2.8,10.1,7.3,14c5,3.9,11.2,5.6,18.5,5.6s13.5-2.2,18.5-5.6c5-3.9,7.3-8.4,7.3-14v-81.9
				 M1120.6,1191.5h-52.2v81.9c0,5.6,2.8,10.1,7.3,14c5,3.9,11.2,5.6,18.5,5.6s13.5-2.2,18.5-5.6c5-3.4,7.3-8.4,7.3-14v-81.9
				 M814.8,1289.7c1.1,0.6,2.2,1.1,3.4,1.1c2.8,1.1,6.2,2.2,9,2.2c1.1,0,2.2,0,2.8,0c7.3,0,13.5-2.2,18.5-5.6c5-3.9,7.3-8.4,7.3-14
				v-81.9h-52.2v81.9c0,5.6,2.2,10.1,7.3,14C813.1,1288,814.2,1288.6,814.8,1289.7 M575.2,1069.2c3.9,5,8.4,7.9,14,7.9H670v-52.7
				h-80.8c-5.6,0-10.1,2.8-14,7.9c-3.9,5-5.6,11.2-5.6,18.5C569.6,1058,571.3,1064.1,575.2,1069.2 M575.2,935.1
				c3.9,5,8.4,7.9,14,7.9H670v-53.3h-80.8c-5.6,0-10.1,2.8-14,7.9c-3.9,5-5.6,11.2-5.6,18.5C569.6,923.3,571.3,930,575.2,935.1
				 M670,808.3v-52.7h-80.8c-5.6,0-10.1,2.8-14,7.9c-3.9,5-5.6,11.2-5.6,18.5c0,7.3,1.7,13.5,5.6,19.1c3.9,5,8.4,7.9,14,7.9H670
				 M1235,648.4c-5-6.7-11.8-10.1-19.6-10.1H709.3c-7.3,0-14,3.4-19.1,10.1c-5.6,6.7-8.4,14.6-8.4,23.6v475.2c0,9,2.8,17.4,8.4,23.6
				c5,6.7,11.8,10.1,19.1,10.1h506.6c7.9,0,14-3.4,19.6-10.1c5.6-6.7,7.9-14.6,7.9-23.6V672.5c0-9-2.8-16.3-7.3-23
				C1235.6,649,1235,649,1235,648.4 M1145.2,735.4c3.4,4.5,5,9.5,5,15.7v317.5c0,6.2-1.7,11.8-5,16.3c-3.9,4.5-8.4,6.2-13.5,6.2
				H793.5c-5,0-9.5-2.2-12.9-6.2c-3.4-4.5-5.6-10.1-5.6-16.3V751.1c0-6.2,1.7-11.2,5.6-15.7c3.4-4.5,7.9-6.7,12.9-6.7h338.3
				C1137.4,728.6,1141.3,730.9,1145.2,735.4 M1076.2,528.9c-5,3.9-7.3,9-7.3,14.6v81.9h52.2v-81.9c0-5.6-2.2-10.7-7.3-14.6
				c-5-3.9-11.2-6.2-18.5-6.2C1087.5,522.7,1081.3,525,1076.2,528.9 M944.4,528.9c-5,3.9-7.3,9-7.3,14.6v81.9h52.2v-81.9
				c0-5.6-2.2-10.7-7.3-14.6c-5-3.9-11.2-6.2-18.5-6.2C956.2,522.7,949.4,525,944.4,528.9 M812,528.9c-5,3.9-7.3,9-7.3,14.6v81.9
				h52.2v-81.9c0-5.6-2.8-10.7-7.3-14.6c-5-3.9-11.2-6.2-18.5-6.2C823.8,522.7,817.6,525,812,528.9 M1350.6,1032.2
				c-3.9-5-8.4-7.9-14-7.9h-80.8v52.7h80.8c5.6,0,10.1-2.8,14-7.9c3.9-5,5.6-11.2,5.6-19.1
				C1356.2,1043.4,1354.5,1037.2,1350.6,1032.2 M1350.6,897.5c-3.9-5-8.4-7.9-14-7.9h-80.8V943h80.8c5.6,0,10.1-2.8,14-7.9
				c3.9-5,5.6-11.2,5.6-19.1C1356.2,909.3,1354.5,902.6,1350.6,897.5 M1350.6,763.4c-3.9-5-8.4-7.9-14-7.9h-80.8v52.7h80.8
				c5.6,0,10.1-2.8,14-7.9c3.9-5,5.6-11.8,5.6-19.1C1356.2,774.1,1354.5,768.5,1350.6,763.4z"/>
		</g>
	</g>
</g>
<g transform="matrix( 1, 0, 0, 1, 0,0) ">
	<g>
		<g id="Layer0_4_FILL">
			<path fill="#CCCCCC" d="M186.7,1250.2c8.4,9.5,16.8,18.5,25.8,27.5c30.9,30.9,65.1,58.3,101.5,81.9c1.1,0.6,2.2,1.7,3.4,2.2
				l21.9,11.8c-7.3-4.5-14.6-8.4-21.9-13.5c-52.7-33.1-99.9-74.6-140.8-123.4L186.7,1250.2 M477.9,666.7c-5,0-9.5,2.2-12.9,6.7
				s-5,9.5-5,15.7v318.1c0,6.2,1.7,11.8,5,15.7c3.4,4.5,7.9,6.7,12.9,6.7h338.9c5,0,9.5-2.2,12.9-6.7c3.4-4.5,5.6-10.1,5.6-15.7
				V689.1c0-6.2-1.7-11.2-5.6-15.7c-3.9-4.5-7.9-6.7-12.9-6.7H477.9 M1001.9,345.2c-18-12.9-37-25.2-56.7-35.9l-25.8-13.5l0,0
				C857.2,275.1,792.1,265,725.3,265c-83,0-162.1,15.7-237.9,47.7c-73.5,30.9-138,74.6-194.7,131.3
				c-44.9,44.9-81.9,94.8-110.5,150.9c-7.3,14.6-14,29.2-20.2,43.8c-15.7,37.6-28.1,75.7-35.9,115.6c-8.4,39.8-12.3,80.8-12.3,122.9
				c0,117.3,30.9,225,92.6,323.7c42.6,68.4,95.9,125.7,159.3,171.7c25.8,18.5,52.7,35.3,81.9,49.9l-1.1-0.6
				c-28.1-9.5-54.4-20.8-79.7-33.7l30.9,16.3c3.4,1.7,6.7,2.8,10.7,4.5c2.8,1.1,5.6,2.2,8.4,3.4l40.4,14.6
				c61.2,20.2,124.6,30.3,189.6,30.3c83,0,162.7-16.3,239-48.2c31.4-13.5,61.7-29.2,89.8-47.1c7.3-4.5,14-9.5,21.3-14l-484.2-115.6
				c-3.4-0.6-6.2-1.1-9-2.2l-3.4-0.6v-1.1c-1.1-0.6-2.2-1.1-3.4-2.2c-5-3.9-7.3-8.4-7.3-14v-79.7l-1.1-12.9h-93.7
				c-7.3,0-14-3.4-19.1-10.1c-5.6-6.7-7.9-14.6-7.9-23.6V610.6c0-9,2.8-16.8,7.9-23.6c5-6.7,11.8-10.1,19.1-10.1h506.1
				c7.9,0,14,3.4,19.1,10.1l0.6,0.6l315.9,89.2c-6.7-24.1-15.1-48.2-25.2-71.8c-6.2-15.1-13.5-29.7-20.8-44.3
				c-28.6-55.5-65.6-105.5-110.5-150.4C1055.2,386.2,1029.4,364.3,1001.9,345.2 M259.1,702c3.9-5,8.4-7.9,14-7.9h80.8v52.7h-80.8
				c-5.6,0-10.1-2.8-14-7.9c-3.9-5-5.6-11.8-5.6-19.1S255.7,707.1,259.1,702 M273.1,828.8h80.8v52.7h-80.8c-5.6,0-10.1-2.8-14-7.9
				c-3.9-5-5.6-11.8-5.6-19.1c0-7.3,1.7-13.5,5.6-18.5C263.6,831.1,268.1,828.8,273.1,828.8 M797.7,467.5c5,3.9,7.9,8.4,7.9,14V564
				h-52.2v-82.5c0-5.6,2.8-10.1,7.9-14s11.2-6.2,18.5-6.2C786.5,461.3,792.1,463.6,797.7,467.5 M496.4,467.5
				c5-3.9,11.2-6.2,18.5-6.2c7.3,0,13.5,2.2,18.5,6.2c5,3.9,7.3,8.4,7.3,14V564h-52.2v-82.5C489.1,475.9,491.4,471.4,496.4,467.5
				 M665.8,467.5c5,3.9,7.9,8.4,7.9,14V564h-52.2v-82.5c0-5.6,2.8-10.1,7.9-14s11.2-6.2,18.5-6.2
				C654.1,461.3,660.2,463.6,665.8,467.5 M253.5,989.3c0-7.3,1.7-13.5,5.6-18.5c3.9-5,8.4-7.9,14-7.9h80.8v52.7h-80.8
				c-5.6,0-10.1-2.8-14-7.9C255.7,1002.7,253.5,996.6,253.5,989.3z"/>
		</g>
	</g>
</g>
</svg>
