<?xml version="1.0" encoding="utf-8"?>
<!-- Generator: Adobe Illustrator 18.1.0, SVG Export Plug-In . SVG Version: 6.00 Build 0)  -->
<svg version="1.1" id="Layer_1" xmlns="http://www.w3.org/2000/svg" xmlns:xlink="http://www.w3.org/1999/xlink" x="0px" y="0px"
	 width="200px" height="200px" viewBox="-35 77 200 200" enable-background="new -35 77 200 200" xml:space="preserve">
<g id="laboratory">
	<path fill="#00619E" d="M96.2,246.1l-13.3-1v30.3c1.3-0.2,2.5-0.5,3.8-0.7c0.2,0,0.4-0.1,0.5-0.2c3-0.7,6-1.5,9-2.4V246.1
		 M82.9,230.8l13.3,1.5v-22.2l-13.3-2.2L82.9,230.8 M70.8,229.5v-23.6l-13.3-2.2V228L70.8,229.5 M131.6,251.6
		c1.4-1.2,2.8-2.5,4.1-3.9h-4.1V251.6 M121.4,248l-13.3-1v20.2c4.6-2.2,9.1-4.8,13.3-7.6V248 M108.2,233.6l13.3,1.4v-20.6l-13.3-2.3
		V233.6 M57.6,243.2v24.4l13.3,0.3v-23.6L57.6,243.2 M27,175.8l0.1-14.6c0.8-1.3,1.3-2.8,1.4-4.7l-7.9,6.2c0.1,1.6,0.4,2.5,1.1,2.6
		l-0.3,14L12,214.4c-0.7,2.4-0.8,4.7-0.4,7.1c0.4,2.4,1.1,3.5,2.1,3.3l21.9-3.6c0.8-0.1,1.5-0.7,2.2-1.6c0.6-1,1.1-2.2,1.5-3.8
		c0.8-3.3,0.7-6.3-0.4-9L27,175.8 M20.1,202.2c0.2-0.6,0.5-1,0.8-1.1c0.3-0.1,0.6,0,0.8,0.5c0.2,0.4,0.3,1,0.3,1.8
		c0,0.7-0.1,1.4-0.3,2.1c-0.2,0.6-0.5,1-0.8,1.1s-0.6-0.1-0.8-0.5c-0.2-0.5-0.3-1.1-0.3-1.8C19.8,203.5,19.9,202.8,20.1,202.2
		 M22.9,164.4l3-2.3l-0.2,15.3l5.3,14.4l-13.4,5.9l4.9-18.4L22.9,164.4 M26.8,198.9c0.4-0.2,0.7,0,0.9,0.5s0.4,1.1,0.3,1.9
		c0,0.8-0.1,1.6-0.4,2.2c-0.2,0.6-0.5,1-0.9,1.1c-0.4,0.1-0.7,0-0.9-0.5s-0.4-1.1-0.3-1.9c0-0.8,0.1-1.5,0.4-2.1
		C26.1,199.4,26.4,199,26.8,198.9 M29.9,206.3c0.4-0.1,0.6,0.1,0.8,0.5c0.2,0.4,0.4,1,0.4,1.8s-0.1,1.4-0.4,2
		c-0.2,0.6-0.5,0.9-0.8,1s-0.6-0.1-0.8-0.6c-0.2-0.5-0.4-1-0.4-1.8s0.1-1.4,0.4-2C29.3,206.7,29.6,206.4,29.9,206.3 M22.9,209.2
		c0.2-0.6,0.5-0.9,0.7-1c0.3-0.1,0.5,0.1,0.7,0.5c0.2,0.5,0.3,1,0.3,1.7s-0.1,1.3-0.3,1.9c-0.2,0.6-0.5,0.9-0.7,1
		c-0.3,0.1-0.5-0.1-0.7-0.5c-0.2-0.5-0.3-1-0.3-1.7C22.6,210.4,22.7,209.7,22.9,209.2 M18.1,210c0.3-0.1,0.5,0.1,0.6,0.5
		c0.2,0.4,0.2,0.9,0.2,1.6c0,0.7-0.1,1.3-0.3,1.8s-0.4,0.8-0.7,0.8c-0.2,0.1-0.5-0.1-0.6-0.5c-0.2-0.5-0.2-1-0.2-1.6
		s0.1-1.2,0.3-1.7C17.6,210.4,17.8,210.1,18.1,210 M70.8,152.7v-23.6l-13.3-4.7v24.4L70.8,152.7 M108.2,198.8l13.3,2.7v-20.6
		l-13.3-3.5V198.8 M82.9,193.6l13.3,2.8v-22.3l-13.3-3.5L82.9,193.6 M70.8,191.1v-23.6L57.6,164v24.4L70.8,191.1 M96.2,138.1
		l-13.3-4.7v22.9l13.3,3.9V138.1 M121.4,147.2l-13.3-4.7v21.4l13.3,4V147.2 M94.5,81.5c0.8,0.3,1.6,0.5,2.3,0.8l-1.2-0.5
		C95.3,81.7,94.9,81.6,94.5,81.5 M103.9,84.9c-0.1,0-0.2-0.1-0.3-0.2l-3.2-1.1c3.1,1.2,6.1,2.5,9.1,4l-0.1,0.1
		c-10.2-3.4-20.7-5.1-31.6-5.1c-9,0-17.7,1.1-26.2,3.5c-4.3,1.2-8.5,2.6-12.6,4.4c-11.9,5-22.5,12.1-31.7,21.3S-9,131.5-14,143.5
		c-5.2,12.3-7.8,25.3-7.8,38.8c0,19.1,5,36.7,15.1,52.8c3.4,5.5,7.3,10.6,11.5,15.2V145l42.7-31.5l60.9,22.8l0.1-5.9l-62-23.3
		l-12,8.9v-7.7L53.7,94l54.7,20.6v0.4h0.3l47.5,21c-5-11.1-11.8-21-20.5-29.7C126.5,97.1,115.9,89.9,103.9,84.9z"/>
	<path fill="#114069" d="M108.7,115h-0.3l-0.1,21.3l23.3,8.7v102.7h4.1c9.2-9.2,16.4-19.8,21.4-31.8c5.2-12.4,7.9-25.4,7.9-38.9
		s-2.6-26.5-7.9-39c-0.3-0.7-0.6-1.3-0.9-2L108.7,115z"/>
	<rect x="9.2" y="147.2" fill="#FFFFFF" width="32.9" height="93.6"/>
	<path fill="#2DACD8" d="M47.4,113.5L4.8,145v111.8c6.5,5,13.6,9.1,21.3,12.3c12.4,5.2,25.4,7.9,39,7.9c6.1,0,12-0.5,17.9-1.6v-30.3
		l13.3,1v26c1.2-0.4,2.4-0.8,3.6-1.3l2.9-1.1c0.3-0.1,0.6-0.3,0.9-0.4c0.1,0,0.2,0,0.2-0.1l0.2-0.1c1.4-0.6,2.9-1.2,4.2-1.9V247
		l13.3,1v11.6c3.6-2.4,6.9-5.1,10.2-8V145L47.4,113.5 M108.2,142.4l13.3,4.7v20.7l-13.3-4V142.4 M82.9,133.4l13.3,4.7v22.1
		l-13.3-3.9L82.9,133.4 M70.8,167.5v23.6l-13.3-2.8V164L70.8,167.5 M96.2,196.3l-13.3-2.8v-22.9l13.3,3.5V196.3 M121.4,201.5
		l-13.3-2.7v-21.4l13.3,3.5V201.5 M70.8,129.1v23.6l-13.3-4v-24.3L70.8,129.1 M27.1,161.2L27,175.8l11.8,30.9c1,2.7,1.1,5.7,0.4,9
		c-0.4,1.6-0.8,2.9-1.5,3.8s-1.4,1.5-2.2,1.6l-21.9,3.6c-1,0.2-1.7-0.9-2.1-3.3c-0.4-2.3-0.2-4.7,0.4-7.1l9.4-35.1l0.3-14
		c-0.7-0.1-1-1-1.1-2.6l7.9-6.2C28.4,158.3,27.9,159.9,27.1,161.2 M57.6,267.6v-24.4l13.3,1v23.6L57.6,267.6 M121.4,235.1l-13.3-1.4
		v-21.5l13.3,2.3V235.1 M70.8,205.9v23.6L57.6,228v-24.4L70.8,205.9 M96.2,232.3l-13.3-1.5v-22.9l13.3,2.2V232.3 M18.7,210.5
		c-0.1-0.4-0.4-0.5-0.6-0.5c-0.2,0.1-0.5,0.4-0.7,0.9s-0.3,1.1-0.3,1.7c0,0.6,0,1.2,0.2,1.6c0.2,0.4,0.4,0.5,0.6,0.5
		c0.3,0,0.5-0.3,0.7-0.8s0.3-1.1,0.3-1.8C19,211.4,18.9,210.9,18.7,210.5 M23.7,208.3c-0.3,0.1-0.5,0.4-0.7,1
		c-0.2,0.5-0.3,1.1-0.3,1.8s0.1,1.2,0.3,1.7c0.2,0.4,0.5,0.6,0.7,0.5c0.3-0.1,0.5-0.4,0.7-1c0.2-0.5,0.3-1.1,0.3-1.9
		c0-0.7-0.1-1.2-0.3-1.7C24.2,208.3,23.9,208.2,23.7,208.3 M30.8,206.8c-0.2-0.5-0.5-0.6-0.8-0.5s-0.6,0.4-0.8,1
		c-0.2,0.6-0.4,1.3-0.4,2s0.1,1.3,0.4,1.8c0.2,0.5,0.5,0.7,0.8,0.6c0.4-0.1,0.6-0.4,0.8-1c0.2-0.6,0.4-1.3,0.4-2
		S31,207.3,30.8,206.8 M27.7,199.3c-0.2-0.5-0.5-0.7-0.9-0.5c-0.4,0.1-0.7,0.5-0.9,1.2c-0.2,0.6-0.4,1.3-0.4,2.1
		c0,0.8,0.1,1.4,0.3,1.9s0.5,0.7,0.9,0.5c0.4-0.1,0.7-0.5,0.9-1.1c0.2-0.7,0.4-1.4,0.4-2.2C28,200.4,27.9,199.8,27.7,199.3
		 M25.8,162.1l-3,2.3l-0.3,15l-4.9,18.4l13.4-5.9l-5.3-14.4L25.8,162.1 M20.9,201.2c-0.3,0.1-0.6,0.5-0.8,1.1
		c-0.2,0.6-0.3,1.3-0.4,2c0,0.7,0.1,1.3,0.3,1.8s0.5,0.6,0.8,0.5s0.6-0.5,0.8-1.1c0.2-0.6,0.3-1.3,0.3-2.1c0-0.8-0.1-1.4-0.3-1.8
		C21.5,201.2,21.3,201,20.9,201.2 M108.4,130.4v-15.8L53.7,94l-19.2,14.3v7.7l12-8.9L108.4,130.4z"/>
	<path fill="#114069" d="M100.4,83.6l-1.1-0.4c-0.7-0.3-1.4-0.5-2.1-0.8l-0.4-0.1c-0.8-0.3-1.5-0.5-2.3-0.8c0.4,0.1,0.8,0.2,1.2,0.3
		C85.8,78.6,75.6,77,65,77c-0.1,0-0.2,0-0.3,0c-11.7,0-23,2-33.9,5.9L30.7,83c-1.6,0.6-3.2,1.2-4.8,1.9C14,89.9,3.4,97-5.8,106.2
		s-16.3,19.8-21.3,31.7c-0.7,1.6-1.3,3.2-1.9,4.8l-0.1,0.2C-33,153.7-35,165-35,176.7c0,0.1,0,0.2,0,0.3c0,0.3,0,0.6,0,0.8
		c0,0.1,0,0.2,0,0.3s0,0.2,0,0.3c0,0.1,0,0.1,0,0.2c0,0.2,0,0.4,0,0.6c0,0.1,0,0.2,0,0.2c0,0.1,0,0.1,0,0.2c0,0.1,0,0.2,0,0.2
		c0.2,6.2,0.9,12.3,2.2,18.2l0.7,3.3c0,0,0,0,0.1,0.1l0.8,2.9c0.1,0.3,0.2,0.7,0.3,1l2.8,8c0.1,0.2,0.1,0.4,0.2,0.5l0.3,0.7
		c3,7.2,6.9,14.1,11.7,20.7c6,8.3,13,15.5,20.8,21.3v-6.3c-4.3-4.6-8.1-9.7-11.5-15.2c-10-16.1-15.1-33.7-15.1-52.8
		c0-13.5,2.6-26.5,7.8-38.8c5.1-12,12.2-22.5,21.4-31.7S27.1,95.4,39,90.4c4.1-1.8,8.4-3.2,12.6-4.4c8.5-2.3,17.2-3.5,26.2-3.5
		c10.9,0,21.4,1.7,31.6,5.1l0.1-0.1C106.5,86.1,103.5,84.8,100.4,83.6z"/>
</g>
<g id="Layer_1_1_">
</g>
</svg>
