<svg version="1.1" xmlns="http://www.w3.org/2000/svg" id="Layer_1"  xmlns:xlink="http://www.w3.org/1999/xlink" x="0px" y="0px"
	 viewBox="0 0 55.7 55.5" enable-background="new 0 0 55.7 55.5" xml:space="preserve">
<g transform="matrix( 1, 0, 0, 1, 0,0) ">
	<g>
		<g id="Layer0_0_FILL">
			<path fill="#B3B3B3" d="M12.6,27.7c0-2.6,0.7-5,2-7.3c-2.5,4-2.9,8.2-1.3,12.6c0,0.1,0.1,0.2,0.1,0.3
				C12.9,31.5,12.6,29.6,12.6,27.7z"/>
			<path fill="#CCCCCC" d="M6.8,9.6C6.9,9.5,7,9.4,7.1,9.3C7,9.4,6.9,9.5,6.8,9.6L6.8,9.6 M29.3,0.1c-0.1,0-0.3,0-0.4,0
				C29,0.1,29.1,0.1,29.3,0.1L29.3,0.1z"/>
		</g>
	</g>
</g>
<g transform="matrix( 1, 0, 0, 1, 14.45,-5.4) ">
	<g>
		<g id="Layer0_1_FILL">
			<path d="M11.4,48.5c2.3,0.3,4.6,0.1,6.8-0.7c-2.4-0.6-4.6-1.6-6.6-3c-1.2-0.8-2.3-1.8-3.3-2.8c-0.3,0.2-0.5,0.3-0.9,0.3
				c-0.4,0-0.7-0.1-1-0.3c-0.3-0.2-0.5-0.5-0.6-0.8c-1.9,0.2-3.8,0.1-5.6-0.2c0,0,0,0,0,0c1.2,2,2.7,3.7,4.6,5c1.4,1,3,1.7,4.6,2.1
				C10.1,48.3,10.7,48.4,11.4,48.5 M28.2,30.1c-0.3-1.5-0.9-2.9-1.7-4.2c-0.8-1.4-1.7-2.6-2.9-3.6c0,1.1-0.2,2.1-0.3,3.2
				C25.3,26.7,26.9,28.3,28.2,30.1 M21.9,30.9c-0.2,0-0.3,0-0.5-0.1c-0.4,0.7-0.8,1.3-1.2,2c-1.3,2-3,3.6-5,5
				c-1.9,1.3-4,2.3-6.2,2.9v0c0,0.4-0.1,0.7-0.3,1c1,1,2,1.9,3.2,2.7c2.2,1.5,4.5,2.5,7.1,3.1l0.7-0.9c1.6-2.3,2.6-4.9,3.1-7.7
				c0.4-2.7,0.3-5.4-0.4-8C22.2,30.9,22.1,30.9,21.9,30.9 M23.2,26.1c-0.1,0.6-0.3,1.1-0.5,1.7c0.3,0.1,0.5,0.3,0.6,0.6
				c0.2,0.3,0.2,0.5,0.2,0.8c0,0.5-0.2,1-0.6,1.3c0.8,2.8,0.9,5.6,0.5,8.4c-0.5,2.9-1.5,5.6-3.2,8L20.2,47c2.3-1.2,4.2-2.8,5.8-5
				c1.1-1.6,1.8-3.2,2.2-5c0.4-1.7,0.5-3.5,0.3-5.3C27.1,29.5,25.3,27.6,23.2,26.1 M21.9,27.6c0.1,0,0.2,0,0.2,0
				c0.2-0.6,0.4-1.2,0.5-1.9c-0.7-0.5-1.4-0.9-2-1.2l-0.2,0.3C21,25.8,21.5,26.7,21.9,27.6 M23,21.7c-0.3-0.3-0.7-0.6-1.1-0.8
				c-0.6-0.4-1.2-0.8-1.8-1.1c-2-1-4.1-1.5-6.4-1.6l0.9,0.6c1.4,1,2.7,2.1,3.8,3.4c0.2-0.1,0.5-0.2,0.7-0.2c0.5,0,0.9,0.2,1.2,0.5
				s0.5,0.7,0.5,1.2l0,0.2c0.7,0.3,1.3,0.7,1.9,1.1C22.9,23.9,23,22.8,23,21.7 M5.1,23.4c0.2,0.3,0.3,0.6,0.3,0.9
				c0,0.5-0.2,0.9-0.5,1.2s-0.7,0.5-1.2,0.5c-0.1,0-0.2,0-0.4,0c-0.2,2.3,0,4.6,0.5,6.9c0.6,2.3,1.6,4.4,2.9,6.4
				C6.9,39.1,7.2,39,7.4,39c0.3,0,0.7,0.1,0.9,0.3s0.5,0.4,0.6,0.7c2.2-0.6,4.2-1.5,6-2.8c1.9-1.3,3.5-2.9,4.8-4.8
				c0.4-0.6,0.8-1.2,1.1-1.9c-0.4-0.3-0.7-0.8-0.7-1.3c0-0.3,0.1-0.7,0.3-0.9s0.4-0.5,0.7-0.6c-0.4-0.8-0.8-1.7-1.3-2.5
				c-0.2,0.1-0.5,0.2-0.7,0.2c-0.5,0-0.9-0.2-1.2-0.5s-0.5-0.7-0.5-1.2c0-0.2,0-0.3,0.1-0.4c-2.1-0.7-4.2-1-6.3-1
				C9.1,22.3,7.1,22.7,5.1,23.4 M0.2,25.8c-1.3,2.3-2,4.7-2,7.3c0,1.9,0.3,3.8,0.9,5.6l0.1,0.2c0.2,0.5,0.4,1,0.7,1.4c0,0,0,0,0,0
				c2,0.4,4,0.5,5.9,0.3c0-0.4,0.2-0.7,0.5-1.1c-1.4-2-2.4-4.3-3-6.7c-0.6-2.4-0.8-4.8-0.5-7.2c-0.3-0.2-0.5-0.5-0.6-0.9
				C1.4,25,0.8,25.4,0.2,25.8 M3.2,22.6l0.2-0.7l0,0c-0.1,0.1-0.2,0.2-0.3,0.3l-1.4,1.4c-0.2,0.3-0.4,0.5-0.6,0.8L2,23.9
				c0.1-0.3,0.2-0.6,0.4-0.8C2.7,22.9,2.9,22.7,3.2,22.6 M10.1,18.6l-1.3,0.3c-0.2,0.1-0.4,0.1-0.6,0.2c-1.4,0.5-2.7,1.2-3.8,2
				c-0.2,0.4-0.3,0.9-0.5,1.4c0.2,0,0.4,0.1,0.6,0.2c2.1-0.8,4.3-1.2,6.6-1.2c2.3,0,4.6,0.3,6.7,1l0.1-0.1c-1.1-1.2-2.3-2.3-3.7-3.2
				c-0.6-0.4-1.2-0.8-1.7-1c0,0-0.1,0-0.1,0C11.7,18.3,10.9,18.4,10.1,18.6z"/>
		</g>
	</g>
</g>
<g transform="matrix( 1, 0, 0, 1, 14.45,-5.4) ">
	<g>
		<g id="Layer0_2_FILL">
			<path fill="#B3B3B3" d="M40.3,26.8c0,0,0-0.1,0-0.2c-10.4-3.6-17.2-5.8-20.1-6.8c0.6,0.3,1.2,0.7,1.8,1.1
				c0.3,0.2,0.7,0.5,1.1,0.8c0,1.1-0.1,2.2-0.3,3.3c-0.6-0.4-1.2-0.7-1.9-1.1l0-0.2c0-0.5-0.2-0.9-0.5-1.2s-0.7-0.5-1.2-0.5
				c-0.3,0-0.5,0-0.7,0.2c-1.2-1.3-2.4-2.4-3.8-3.4l-0.8-0.5c-0.4,0-0.9,0-1.3,0c0.5,0.3,1.1,0.6,1.7,1c1.4,1,2.6,2,3.7,3.2
				l-0.1,0.1c-2.2-0.7-4.4-1-6.7-1c-2.3,0-4.5,0.4-6.6,1.2c-0.2-0.1-0.4-0.2-0.6-0.2c0.2-0.6,0.3-1.1,0.5-1.4c1.2-0.9,2.5-1.5,3.8-2
				c0.2-0.1,0.4-0.1,0.6-0.2c-2,0.6-3.7,1.6-5.4,3l-0.2,0.7c-0.3,0.1-0.6,0.3-0.8,0.5c-0.2,0.2-0.4,0.5-0.4,0.8l-0.9,0.5
				c-0.3,0.4-0.6,0.9-0.9,1.4c0.6-0.4,1.2-0.8,1.8-1.1c0.1,0.4,0.3,0.7,0.6,0.9c-0.3,2.4-0.1,4.9,0.5,7.2c0.6,2.4,1.6,4.6,3,6.7
				c-0.3,0.3-0.4,0.7-0.5,1.1c-2,0.2-3.9,0.1-5.9-0.3c0.1,0.3,0.3,0.5,0.4,0.7c1.9,0.3,3.7,0.4,5.6,0.2c0.1,0.3,0.3,0.6,0.6,0.8
				c0.3,0.2,0.6,0.3,1,0.3c0.3,0,0.6-0.1,0.9-0.3c1,1,2.1,2,3.3,2.8c2,1.4,4.2,2.4,6.6,3c-2.2,0.7-4.5,1-6.8,0.7
				c-0.7-0.1-1.3-0.2-2-0.4c1.8,0.7,4.1,1.5,7.1,2.5c4,1.3,8.6,2.8,14,4.4c0,0,0,0,0.1,0c0,0,0.1,0,0.1-0.1c0.2-0.1,0.3-0.3,0.5-0.4
				c0,0,0.1,0,0.1-0.1c0.4-0.3,0.7-0.7,1.1-1c0.7-0.6,1.3-1.3,1.9-2c0.2-0.3,0.4-0.5,0.7-0.7c0.3-0.4,0.7-0.9,1-1.3
				c0.3-0.4,0.6-0.9,0.9-1.3c2.9-4.4,4.3-9.3,4.3-14.9c0-2.2-0.2-4.4-0.7-6.4L40.3,26.8 M5.3,24.3c0-0.3-0.1-0.6-0.3-0.9
				c2-0.7,4.1-1,6.2-1c2.2,0,4.2,0.3,6.3,1c0,0.1-0.1,0.3-0.1,0.4c0,0.5,0.2,0.9,0.5,1.2s0.7,0.5,1.2,0.5c0.3,0,0.5,0,0.7-0.2
				c0.5,0.8,1,1.6,1.3,2.5c-0.3,0.1-0.6,0.3-0.7,0.6c-0.2,0.3-0.3,0.6-0.3,0.9c0,0.6,0.2,1,0.7,1.3c-0.3,0.7-0.7,1.3-1.1,1.9
				c-1.3,1.9-2.9,3.5-4.8,4.8c-1.8,1.3-3.8,2.2-6,2.8c-0.1-0.3-0.3-0.6-0.6-0.7C8.1,39.1,7.8,39,7.4,39c-0.3,0-0.5,0-0.7,0.1
				c-1.3-2-2.3-4.1-2.9-6.4c-0.6-2.3-0.8-4.6-0.5-6.9c0.1,0,0.3,0,0.4,0c0.5,0,0.9-0.2,1.2-0.5C5.2,25.1,5.3,24.7,5.3,24.3
				 M22.1,27.6c0,0-0.1,0-0.2,0c-0.4-0.9-0.9-1.8-1.5-2.7l0.2-0.3c0.6,0.3,1.2,0.7,2,1.2C22.5,26.3,22.3,26.9,22.1,27.6 M22.7,27.8
				c0.2-0.5,0.3-1.1,0.5-1.7c2.1,1.5,3.9,3.4,5.3,5.6c0.2,1.8,0.1,3.6-0.3,5.3c-0.4,1.8-1.2,3.5-2.2,5c-1.5,2.2-3.4,3.9-5.8,5
				l0.1-0.2c1.7-2.4,2.7-5.1,3.2-8c0.4-2.8,0.3-5.6-0.5-8.4c0.4-0.3,0.6-0.8,0.6-1.3c0-0.3-0.1-0.6-0.2-0.8
				C23.2,28.1,23,27.9,22.7,27.8 M21.5,30.8c0.2,0,0.3,0.1,0.5,0.1s0.3,0,0.5-0.1c0.7,2.7,0.8,5.3,0.4,8c-0.4,2.8-1.5,5.3-3.1,7.7
				l-0.7,0.9c-2.6-0.6-4.9-1.6-7.1-3.1c-1.1-0.8-2.2-1.7-3.2-2.7c0.2-0.3,0.3-0.6,0.3-1v0c2.3-0.6,4.3-1.6,6.2-2.9c2-1.4,3.6-3,5-5
				C20.7,32.2,21.1,31.5,21.5,30.8 M26.6,25.9c0.8,1.3,1.3,2.7,1.7,4.2c-1.3-1.8-3-3.4-4.9-4.7c0.2-1,0.3-2,0.3-3.2
				C24.8,23.3,25.8,24.5,26.6,25.9z"/>
		</g>
	</g>
</g>
<g transform="matrix( 1, 0, 0, 1, 14.45,-5.4) ">
	<g>
		<g id="Layer0_3_FILL">
			<path fill="#CCCCCC" d="M40.3,26.6c0,0,0,0.1,0,0.2h0.1c-1.1-4.9-3.6-9.3-7.5-13.2c-2.2-2.2-4.6-3.9-7.2-5.2l0,0c0,0,0,0,0,0
				c-0.1,0-0.2-0.1-0.3-0.1C22.7,7.4,19.9,7,17,7C13.2,7,9.6,7.7,6.2,9.2c-0.7,0.3-1.5,0.7-2.2,1c-0.1,0.1-0.2,0.1-0.3,0.2
				c-2.6,1.5-4.6,3-6.1,4.6l-0.3,0.2c0,0,0,0,0,0c-1.5,1.6-2.8,3.2-3.9,4.9c-0.4,0.6-0.7,1.2-1,1.8c-0.3,0.7-0.7,1.3-0.9,2
				c-0.7,1.7-1.3,3.4-1.6,5.2c-0.4,1.8-0.6,3.7-0.6,5.6c0,5.3,1.4,10.2,4.2,14.7c2.5,4.1,5.9,7.3,10,9.5c0.3,0.2,0.6,0.3,0.9,0.5
				l-0.1,0c-0.1,0,0,0,0.3,0.1l-0.8-0.2c1,0.3,1.9,0.6,2.9,0.8c1.4,0.3,2.9,0.6,4.3,0.7c0.4,0,0.7,0,1.1,0c0.4,0,0.8,0,1.2,0
				c0.3,0,0.6,0,0.8,0c0.8,0,1.7-0.1,2.5-0.2c1.3-0.1,2.6-0.4,3.8-0.7c1.3-0.3,2.5-0.8,3.7-1.3c1.3-0.5,2.5-1.2,3.6-1.8
				c1-0.6,1.9-1.2,2.7-1.9c0,0,0,0-0.1,0c-5.3-1.6-10-3.1-14-4.4c-2.9-1-5.3-1.8-7.1-2.5C7.8,47.7,6.3,47,4.9,46
				c-1.9-1.3-3.4-3-4.6-5c0,0,0,0,0,0c-0.1-0.3-0.3-0.5-0.4-0.7c0,0,0,0,0,0c-0.2-0.5-0.4-1-0.7-1.4l-0.1-0.2c0-0.1-0.1-0.2-0.1-0.3
				c-1.6-4.4-1.2-8.6,1.3-12.5c0.3-0.5,0.6-1,0.9-1.4l0,0c0.2-0.3,0.4-0.5,0.6-0.8l1.4-1.4C3.3,22.2,3.4,22,3.5,22l0,0
				c1.6-1.4,3.4-2.4,5.4-3l1.3-0.3c0.8-0.2,1.5-0.3,2.3-0.3c0,0,0.1,0,0.1,0c0.4,0,0.9,0,1.3,0l-0.1-0.1c2.3,0.1,4.4,0.6,6.4,1.6
				C23.1,20.8,29.8,23.1,40.3,26.6z"/>
		</g>
	</g>
</g>
<g transform="matrix( 1, 0, 0, 1, 14.45,-5.4) ">
	<g>
		<g id="Layer0_4_FILL">
			<path fill="#999999" d="M11.9,5.5L11.9,5.5c-7.1,0.3-13.1,3-18.2,8.1c-0.3,0.3-0.7,0.7-1,1.1c-0.1,0.1-0.2,0.2-0.3,0.3h0
				c-3.6,4.1-5.8,8.8-6.6,14.1c-0.2,1.3-0.3,2.7-0.3,4c0,0,0,0,0,0.1l0,0c0,0.7,0,1.3,0.1,2c0,0.5,0.1,1,0.1,1.4
				c0.6,4.7,2.3,9,5.1,12.8c0.9,1.1,1.8,2.2,2.9,3.3c3,3,6.4,5.2,10.2,6.5l0.8,0.2c-0.3-0.1-0.4-0.2-0.3-0.1l0.1,0
				c-0.3-0.2-0.6-0.3-0.9-0.5c-4.2-2.3-7.5-5.5-10-9.5c-2.8-4.5-4.2-9.4-4.2-14.7c0-1.9,0.2-3.7,0.6-5.6c0.4-1.8,0.9-3.5,1.6-5.2
				c0.3-0.7,0.6-1.3,0.9-2c0.3-0.6,0.7-1.2,1-1.8c1.1-1.7,2.4-3.4,3.9-4.9c0,0,0,0,0,0l0.3-0.2c1.5-1.5,3.5-3,6.1-4.6
				c0.1,0,0.2-0.1,0.3-0.2c0.7-0.4,1.4-0.7,2.2-1C9.6,7.7,13.2,7,17,7c2.9,0,5.7,0.4,8.4,1.3c0.1,0,0.2,0.1,0.3,0.1c0,0,0,0,0,0l0,0
				c-3.3-1.7-7-2.6-11-2.8l0,0c-0.1,0-0.3,0-0.4,0c-0.3,0-0.6,0-1-0.1c0,0,0,0-0.1,0C12.9,5.5,12.4,5.5,11.9,5.5 M22.3,6.9
				C22.3,6.9,22.3,6.9,22.3,6.9c0,0-0.1,0-0.1,0C22.2,6.9,22.2,6.9,22.3,6.9z"/>
		</g>
	</g>
</g>
</svg>
