<?xml version="1.0" encoding="utf-8"?>
<!-- Generator: Adobe Illustrator 18.1.0, SVG Export Plug-In . SVG Version: 6.00 Build 0)  -->
<svg version="1.1" id="Layer_1" xmlns="http://www.w3.org/2000/svg" xmlns:xlink="http://www.w3.org/1999/xlink" x="0px" y="0px"
	 width="240px" height="240px" viewBox="-20 -20 240 240" enable-background="new -20 -20 240 240" xml:space="preserve">
<g id="circle_x5F_ball">
	<path fill="#2DACD8" d="M91.4,166.5c10,1.3,19.7,0.4,29.4-2.8c-10.2-2.6-19.6-7-28.5-13.1c-5.2-3.6-10-7.6-14.2-12
		c-1.1,0.7-2.3,1.1-3.8,1.1c-1.6,0-3-0.4-4.2-1.3c-1.2-0.9-2.1-2-2.6-3.4c-8.1,0.8-16.2,0.5-24.2-0.9c-0.1,0-0.2,0-0.2-0.1
		c5,8.7,11.6,15.9,19.8,21.5c6.2,4.3,12.8,7.3,19.9,9.2C85.7,165.6,88.5,166.1,91.4,166.5 M164,86.9c-1.4-6.4-3.8-12.6-7.1-18.3
		c-3.3-5.9-7.5-11.2-12.4-15.7c-0.2,4.7-0.7,9.2-1.5,13.7C151.3,72.2,158.2,79.1,164,86.9 M136.9,90.2c-0.7,0-1.3-0.1-2-0.3
		c-1.6,3-3.3,5.8-5,8.4c-5.8,8.5-13,15.8-21.4,21.7c-8.1,5.6-17.1,9.7-26.8,12.4v0.1c0,1.6-0.4,3-1.4,4.2c4.2,4.4,8.8,8.2,13.6,11.7
		c9.3,6.4,19.5,11,30.6,13.4l2.8-3.8c6.9-10,11.3-21.2,13.2-33.3c1.9-11.7,1.3-23.2-1.8-34.8C138.1,90.1,137.4,90.2,136.9,90.2
		 M142.4,69.5c-0.6,2.5-1.2,4.8-2,7.1c1.1,0.6,2,1.5,2.6,2.6c0.7,1.1,1,2.3,1,3.6c0,2.2-0.9,4.1-2.6,5.6c3.3,12.1,4,24.2,2.1,36.3
		c-2,12.6-6.5,24.1-13.7,34.6l-0.4,0.7c10.1-5,18.3-12.3,24.8-21.8c4.6-6.7,7.8-14,9.6-21.8c1.8-7.5,2.3-15.3,1.4-23
		C159.1,84.1,151.5,76,142.4,69.5 M136.9,75.7c0.4,0,0.7,0,0.9,0.1c0.9-2.7,1.6-5.3,2.1-8c-3.1-2-6-3.7-8.5-5l-0.9,1.2
		C133,68,135.2,71.9,136.9,75.7 M141.7,50.4c-1.5-1.3-3.1-2.5-4.6-3.5c-2.6-1.7-5.2-3.3-7.9-4.6c-8.5-4.2-17.7-6.5-27.5-6.8l3.8,2.4
		c6.1,4.2,11.6,9,16.5,14.7c0.9-0.5,2-0.7,3.1-0.7c2,0,3.7,0.7,5.1,2.1c1.4,1.4,2.1,3.1,2.1,5.1l-0.1,0.8c3,1.5,5.7,3.1,8.1,4.7
		C141.3,60,141.7,55.3,141.7,50.4 M64.2,57.5c0.8,1.2,1.1,2.5,1.1,3.9c0,2-0.7,3.7-2.1,5.1C61.8,68,60,68.7,58,68.7
		c-0.5,0-1-0.1-1.6-0.2c-1,10-0.2,20,2.3,29.9c2.6,9.9,6.7,19.1,12.5,27.5c0.9-0.4,1.9-0.6,3-0.6c1.5,0,2.8,0.4,4,1.2s2,1.9,2.6,3.1
		c9.3-2.5,17.9-6.5,25.8-12.1c8.1-5.6,15-12.6,20.6-20.9c1.7-2.4,3.3-5.1,4.9-8.1c-1.8-1.4-2.8-3.3-2.8-5.6c0-1.5,0.4-2.8,1.2-4
		c0.8-1.2,1.9-2.1,3.1-2.6c-1.6-3.6-3.5-7.2-5.7-10.6c-0.9,0.5-2,0.8-3.1,0.8c-2,0-3.7-0.7-5.1-2.1c-1.4-1.4-2.1-3.1-2.1-5.1
		c0-0.7,0.1-1.3,0.3-1.9c-8.9-2.9-17.9-4.2-27.2-4.1C81.8,53.1,72.8,54.6,64.2,57.5 M43.3,68.2c-5.6,9.7-8.6,20.2-8.8,31.5
		c-0.2,8.3,1.1,16.4,3.9,24l0.3,0.8c0.8,2.1,1.7,4.2,2.8,6.2c0.1,0,0.1,0,0.2,0c8.6,1.8,17.1,2.2,25.6,1.3c0.1-1.7,0.8-3.2,2-4.6
		c-6.1-8.8-10.5-18.5-13.1-29c-2.6-10.3-3.3-20.8-2.1-31.4c-1.4-1-2.3-2.3-2.7-4C48.4,64.8,45.7,66.5,43.3,68.2 M56.3,54.4l0.9-3.1
		l0,0c-0.5,0.4-1,0.9-1.4,1.3l-5.9,6.2c-0.9,1.1-1.8,2.3-2.7,3.4l3.9-2.2c0.3-1.4,0.9-2.6,1.8-3.6C53.8,55.5,54.9,54.8,56.3,54.4
		 M86,36.9l-5.7,1.4c-0.8,0.3-1.6,0.6-2.4,0.9c-6,2.1-11.5,5-16.5,8.8c-0.7,1.7-1.4,3.8-2.1,6.2c1,0.2,1.9,0.5,2.6,1
		c9.1-3.3,18.6-5,28.5-5.2c9.9-0.1,19.6,1.3,29.1,4.4l0.3-0.3c-4.6-5.2-9.9-9.8-15.9-14c-2.7-1.8-5.1-3.3-7.3-4.5
		c-0.1-0.1-0.3-0.1-0.4-0.2C92.7,35.7,89.3,36.2,86,36.9z"/>
	<path fill="#114069" d="M216.1,72.4c0-0.2-0.1-0.5-0.1-0.7c-45.1-15.4-74-25.1-86.8-29.5c2.7,1.4,5.3,2.9,7.9,4.6
		c1.5,1,3.1,2.2,4.6,3.5c0,4.9-0.4,9.6-1.2,14.3c-2.4-1.6-5.1-3.2-8.1-4.7l0.1-0.8c0-2-0.7-3.7-2.1-5.1c-1.4-1.4-3.1-2.1-5.1-2.1
		c-1.1,0-2.2,0.2-3.1,0.7c-5-5.5-10.5-10.4-16.5-14.7l-3.4-2.1c-1.9-0.1-3.7-0.1-5.6,0c2.2,1.2,4.6,2.7,7.3,4.5
		c6,4.1,11.3,8.8,15.9,14l-0.3,0.3c-9.4-3.1-19.1-4.5-29.1-4.4c-9.8,0.2-19.2,1.9-28.5,5.2c-0.7-0.5-1.6-0.8-2.6-1
		c0.7-2.5,1.4-4.6,2.1-6.2c5.1-3.7,10.6-6.6,16.5-8.8c0.8-0.3,1.6-0.6,2.4-0.9c-8.4,2.5-16.1,6.8-23.1,13l-0.9,3.1
		c-1.3,0.4-2.5,1.1-3.4,2.1c-1,1-1.6,2.2-1.8,3.6l-3.8,2.1c-1.4,1.9-2.7,3.9-3.9,6c2.5-1.7,5.1-3.4,7.9-4.9c0.4,1.7,1.3,3,2.7,4
		c-1.2,10.5-0.4,21,2.1,31.4c2.6,10.4,7,20.1,13.1,29c-1.2,1.3-1.9,2.8-2,4.6c-8.5,0.9-17,0.4-25.6-1.3c0.6,1.1,1.2,2.2,1.8,3.2
		c8.1,1.4,16.1,1.7,24.2,0.9c0.5,1.4,1.4,2.6,2.6,3.4c1.2,0.9,2.6,1.3,4.2,1.3c1.4,0,2.7-0.3,3.8-1.1c4.2,4.4,8.9,8.4,14.2,12
		c8.8,6,18.2,10.3,28.5,13.1c-9.6,3.2-19.3,4.1-29.4,2.8c-2.9-0.4-5.8-0.9-8.5-1.7c7.7,2.9,17.8,6.5,30.5,10.6
		c17.1,5.7,37.2,12.1,60.2,19.1c0.1-0.1,0.2-0.2,0.3-0.2c0.1-0.1,0.3-0.2,0.4-0.3c0.7-0.5,1.3-1.1,2-1.6c0.2-0.1,0.3-0.2,0.5-0.4
		c1.6-1.4,3.2-2.8,4.8-4.3c2.9-2.7,5.7-5.6,8.3-8.6c1-1.1,1.9-2.1,2.8-3.2c1.5-1.8,2.9-3.7,4.3-5.6c1.4-1.9,2.7-3.8,4-5.7
		c12.4-18.9,18.6-40.3,18.6-64.4c0-9.6-1-18.9-3-27.7h-0.9 M65.3,61.5c0-1.4-0.4-2.7-1.1-3.9c8.6-2.9,17.5-4.4,26.6-4.5
		c9.3-0.1,18.3,1.3,27.2,4.1c-0.2,0.6-0.3,1.2-0.3,1.9c0,2,0.7,3.7,2.1,5.1c1.4,1.4,3.1,2.1,5.1,2.1c1.2,0,2.2-0.2,3.1-0.8
		c2.2,3.5,4.1,7,5.7,10.6c-1.3,0.5-2.4,1.4-3.1,2.6c-0.8,1.2-1.2,2.5-1.2,4c0,2.4,0.9,4.2,2.8,5.6c-1.5,2.9-3.1,5.6-4.9,8.1
		c-5.6,8.2-12.5,15.2-20.6,20.9c-7.9,5.5-16.5,9.5-25.8,12.1c-0.6-1.3-1.4-2.4-2.6-3.1c-1.2-0.8-2.5-1.2-4-1.2c-1.1,0-2.1,0.2-3,0.6
		c-5.8-8.4-10-17.6-12.5-27.5c-2.5-9.8-3.3-19.8-2.3-29.9c0.6,0.1,1.1,0.2,1.6,0.2c2,0,3.7-0.7,5.2-2.1
		C64.6,65.2,65.3,63.5,65.3,61.5 M137.7,75.7c-0.2,0-0.5-0.1-0.9-0.1c-1.6-3.7-3.7-7.6-6.3-11.9l0.9-1.2c2.5,1.3,5.3,2.9,8.5,5
		C139.3,70.4,138.5,73,137.7,75.7 M140.4,76.6c0.7-2.3,1.4-4.7,2-7.1c9.1,6.6,16.7,14.7,22.8,24.1c0.9,7.7,0.5,15.5-1.4,23
		c-1.9,7.8-5.1,15.1-9.6,21.8c-6.5,9.4-14.7,16.8-24.8,21.8l0.4-0.7c7.2-10.5,11.7-22,13.7-34.6c1.9-12.2,1.2-24.2-2.1-36.3
		c1.8-1.5,2.6-3.4,2.6-5.6c0-1.3-0.3-2.5-1-3.6C142.4,78.1,141.5,77.2,140.4,76.6 M134.9,89.9c0.7,0.2,1.3,0.3,2,0.3
		c0.7,0,1.4-0.1,2-0.3c3,11.6,3.6,23.1,1.8,34.8c-1.9,12.1-6.3,23.1-13.2,33.3l-2.8,3.8c-11.1-2.4-21.3-6.9-30.6-13.4
		c-4.9-3.3-9.4-7.1-13.6-11.7c0.9-1.2,1.4-2.6,1.4-4.2v-0.1c9.7-2.6,18.6-6.7,26.8-12.4c8.4-5.9,15.5-13.2,21.4-21.7
		C131.5,95.7,133.2,92.9,134.9,89.9 M156.9,68.5c3.3,5.7,5.6,11.9,7.1,18.3c-5.8-7.8-12.8-14.7-21-20.4c0.8-4.3,1.3-8.8,1.5-13.7
		C149.5,57.4,153.6,62.7,156.9,68.5z"/>
	<path fill="#00619E" d="M216,71.7c0.1,0.2,0.1,0.5,0.1,0.7h0.5C211.8,51,201,32,184.4,15.4c-9.5-9.5-19.7-17.1-30.8-22.7l-0.1,0.2
		c-0.1,0-0.1-0.1-0.2-0.1c-0.4-0.1-0.9-0.3-1.3-0.4c-11.7-3.7-23.8-5.6-36.4-5.6c-16.2,0-31.7,3.1-46.6,9.3
		c-3.2,1.4-6.3,2.8-9.3,4.5c-0.4,0.3-0.9,0.5-1.3,0.8C47.2,8,38.4,14.6,32.2,21.2L31.1,22c-0.1,0.1-0.2,0.2-0.2,0.2
		c-6.4,6.7-12,13.9-16.8,21.4c-1.6,2.6-3.1,5.2-4.4,7.8c-1.4,2.8-2.8,5.7-4,8.6c-3.1,7.3-5.4,14.9-7,22.6c-1.6,7.8-2.4,15.9-2.4,24
		c0,22.9,6,44.1,18.1,63.5c10.9,17.6,25.3,31.5,43.3,41.3c1.3,0.7,2.6,1.4,3.9,2.1l-0.3-0.1c-0.6-0.2-0.2,0,1.2,0.6l-3.3-1
		c4.1,1.4,8.2,2.6,12.5,3.6c6.1,1.5,12.3,2.4,18.7,2.9c1.6,0.1,3.2,0.2,4.8,0.2c1.7,0.1,3.4,0.1,5.1,0.1c1.2,0,2.4,0,3.6-0.1
		c3.6-0.1,7.1-0.3,10.6-0.8c5.6-0.6,11.1-1.6,16.4-3c5.4-1.5,10.7-3.3,15.9-5.5c5.4-2.3,10.7-5,15.6-7.9c4.1-2.5,8-5.3,11.8-8.3
		c-0.1,0.1-0.2,0.2-0.3,0.2c-23-7-43.1-13.5-60.2-19.1c-12.7-4.2-22.8-7.7-30.5-10.6c-7.1-1.9-13.7-4.9-19.9-9.2
		c-8.2-5.6-14.8-12.9-19.8-21.5c0.1,0,0.2,0,0.2,0.1c-0.6-1.1-1.2-2.1-1.8-3.2c0,0-0.1,0-0.2,0c-1-2-1.9-4.1-2.8-6.2l-0.3-0.8
		c-0.2-0.4-0.3-0.8-0.5-1.2c-7-19-5.2-37.1,5.4-54.3c1.3-2.1,2.6-4.1,3.9-6l-0.1,0.1c0.9-1.2,1.8-2.3,2.7-3.4l5.9-6.2
		c0.5-0.4,1-0.9,1.4-1.3l0,0c7-6.1,14.7-10.4,23.1-13l5.7-1.4c3.3-0.7,6.6-1.2,10.1-1.4c0.1,0.1,0.3,0.1,0.4,0.2
		c1.8-0.1,3.7-0.1,5.6,0l-0.4-0.3c9.8,0.3,19,2.5,27.5,6.8C142,46.5,170.9,56.3,216,71.7z"/>
	<path fill="#114069" d="M93.7-19.6L93.7-19.6c-30.4,1.4-56.6,13.1-78.5,35c-1.5,1.5-3,3-4.4,4.6c-0.4,0.5-0.8,0.9-1.2,1.4H9.5
		C-6.3,39.2-15.7,59.6-18.8,82.7c-0.8,5.7-1.2,11.6-1.2,17.5c0,0.1,0,0.2,0,0.4l0,0c0,2.9,0.1,5.8,0.3,8.6c0.1,2.1,0.3,4.2,0.6,6.2
		c2.4,20.4,9.7,38.8,21.9,55.2c3.7,4.9,7.8,9.6,12.3,14.3C28.3,198,42.9,207.4,59,213.1l3.3,1c-1.5-0.6-1.9-0.8-1.2-0.6l0.3,0.1
		c-1.3-0.7-2.6-1.3-3.9-2.1c-17.9-9.9-32.4-23.7-43.3-41.3c-12-19.4-18.1-40.6-18.1-63.5c0-8.1,0.8-16.2,2.4-24
		c1.6-7.7,3.9-15.3,7-22.6c1.2-2.9,2.6-5.8,4-8.6c1.4-2.7,2.9-5.3,4.4-7.8C18.8,36,24.4,29,30.8,22.1c0.1-0.1,0.2-0.2,0.2-0.2
		l1.1-0.8c6.3-6.5,15-13.2,26.2-19.7c0.4-0.2,0.9-0.5,1.3-0.8c3-1.6,6.1-3.1,9.3-4.5c14.8-6.2,30.3-9.3,46.6-9.3
		c12.5,0,24.6,1.9,36.4,5.6c0.4,0.1,0.9,0.3,1.3,0.4c0.1,0,0.1,0.1,0.2,0.1l0.1-0.2c-14.4-7.3-30.2-11.5-47.5-12.3l0,0
		c-0.6,0-1.2-0.1-1.8-0.1c-1.4-0.1-2.7-0.2-4.1-0.3c-0.1,0-0.2,0-0.3,0C97.8-19.9,95.7-19.8,93.7-19.6 M138.3-13.6
		C138.3-13.6,138.4-13.6,138.3-13.6c-0.1,0.1-0.3,0-0.5-0.1C138-13.7,138.1-13.6,138.3-13.6z"/>
	<ellipse fill="#F19126" cx="74.6" cy="132.5" rx="7.5" ry="7.5"/>
	<ellipse fill="#F19126" cx="58.6" cy="62" rx="7.5" ry="7.5"/>
	<ellipse fill="#F19126" cx="124.8" cy="59" rx="7.5" ry="7.5"/>
	<ellipse fill="#F19126" cx="136.9" cy="83.2" rx="7.5" ry="7.5"/>
</g>
<g id="Layer_1_1_">
</g>
</svg>
