<?xml version="1.0" encoding="utf-8"?>
<!-- Generator: Adobe Illustrator 18.1.0, SVG Export Plug-In . SVG Version: 6.00 Build 0)  -->
<svg version="1.1" id="Layer_1" xmlns="http://www.w3.org/2000/svg" xmlns:xlink="http://www.w3.org/1999/xlink" x="0px" y="0px"
	 width="200px" height="200px" viewBox="0 0 200 200" enable-background="new 0 0 200 200" xml:space="preserve">
<g id="university">
	<path fill="#00619E" d="M98.6,166.7h-14V195h14V166.7 M102.9,195h14v-28.3h-14V195 M41.9,173.2h-10c3.2,3,6.5,5.7,10,8.2V173.2
		 M41.9,166.9V154H30v12.9H41.9 M59.1,173.2H47.2V185c0.6,0.4,1.3,0.8,1.9,1.2h9.9V173.2 M47.2,154v12.9h11.8V154H47.2 M100.7,132
		c-3.1,0-5.8,1.1-8,3.3c-2.2,2.2-3.3,4.8-3.3,8s1.1,5.8,3.3,8c2.2,2.2,4.8,3.3,8,3.3c3.1,0,5.8-1.1,8-3.3c2.2-2.2,3.3-4.9,3.3-8
		c0-3.1-1.1-5.8-3.3-8C106.5,133.1,103.9,132,100.7,132 M99.3,136.3c0-0.4,0.2-0.7,0.5-1c0.3-0.2,0.7-0.4,1.1-0.4s0.7,0.1,1.1,0.4
		c0.3,0.3,0.5,0.6,0.5,1v6.3h7.7c0.7,0,1,0.3,1,1c0,0.6-0.3,1-1,1h-9.3l-0.6-0.1c-0.6-0.2-1-0.6-1-1.3L99.3,136.3 M115.1,86V61.5
		H86.4V86H115.1 M104,63.4c2.4,0.8,3.8,2.4,3.9,4.8c0.3,3.7,0.6,5.9,1,6.7c0.5,1,1.1,1.8,1.8,2.3c0.5,0.4,0.8,0.7,0.8,0.9v1.9
		c0,0.3-0.1,0.5-0.3,0.7s-0.4,0.3-0.7,0.3H91c-0.2,0-0.5-0.1-0.7-0.3c-0.2-0.2-0.3-0.4-0.3-0.7v-1.9c0-0.2,0.2-0.5,0.7-0.9
		c0.7-0.6,1.3-1.3,1.9-2.3c0.4-0.8,0.7-3,1-6.7c0.2-2.4,1.5-4,3.9-4.8C99.7,62.7,101.9,62.7,104,63.4 M93.9,84.1
		c-0.6-0.5-1-1.1-1.2-1.8h6.5c-0.2,0.7-0.6,1.3-1.2,1.8c-0.6,0.5-1.3,0.7-2.1,0.7S94.5,84.5,93.9,84.1 M130.7,4.8
		c-0.4-0.1-0.8-0.2-1.2-0.3c0.8,0.2,1.5,0.5,2.2,0.7L130.7,4.8 M187.2,50.8c-4.4-7.9-9.9-15-16.5-21.5c-9.2-9.2-19.8-16.4-31.7-21.4
		c-0.1,0-0.2-0.1-0.3-0.2l-3.5-1.3c3.1,1.2,6.2,2.6,9.3,4.2v0.1c-10.2-3.4-20.7-5.1-31.6-5.1c-13.5,0-26.5,2.6-38.8,7.9
		c-12,5-22.5,12.1-31.7,21.3S26,54.5,21,66.5c-5.2,12.3-7.9,25.3-7.9,38.8c0,12.1,2,23.6,6.1,34.4v-43h59.3v12.6H82V61.5h-3.4v-7.1
		l20.8-9.6V19.5h2.9v2.4c3.7-1,6.9-1.3,9.7-0.8c1.8,0.3,4,1.2,6.6,2.5c3,1.6,5.3,2.6,6.9,3.1c2.9,0.9,6.2,1.2,9.9,1.1
		c0.3,0,0.6,0,0.8-0.1c-0.1,0.1-0.2,0.2-0.4,0.3L187.2,50.8 M159.7,173.2v7.1c2.4-1.8,4.7-3.7,6.9-5.7c0.5-0.4,1-0.9,1.5-1.4
		L159.7,173.2 M150.8,186.1c1.2-0.7,2.3-1.4,3.5-2.1v-10.8h-11.8v13H150.8 M154.3,166.9V154h-11.8v12.9H154.3 M171.5,166.9V154
		h-11.8v12.9H171.5 M177.8,148.1v-4.6h-37.9v-7.9l-39.2-29.8l-39.1,29.8v7.9H20.7c0.9,2.1,1.9,4.2,3,6.3v-1.8h41.7v44.8
		c0.7,0.4,1.4,0.8,2.1,1.1l-0.3-0.1c-0.6-0.2-1.2-0.4-1.9-0.7v0.5c1.1,0.4,2.2,0.8,3.3,1.2H70v-51.4h-3.8v-5.7l34.6-26.2l34.6,26.2
		v5.7h-3.8v51.3c1.5-0.5,3-1,4.5-1.6v-45.2H177.8z"/>
	<rect x="84.7" y="127" fill="#FFFFFF" width="35.1" height="34"/>
	<path fill="#2DACD8" d="M47.2,173.2h11.8v13h-9.9c3.8,2.2,7.8,4.2,11.9,6c1.4,0.6,2.9,1.2,4.3,1.7v-45.7H23.7v16.5
		c1.8,2.1,3.7,4.1,5.6,6.1c0.8,0.8,1.7,1.7,2.5,2.5h10v8.2c1.7,1.3,3.5,2.5,5.4,3.6L47.2,173.2 M59.1,166.9H47.2V154h11.8V166.9
		 M41.9,154v12.9H30V154H41.9 M66.2,137.9v5.7H70V195h-1.3c10.1,3.3,20.5,5,31.3,5c10.9,0,21.4-1.7,31.6-5.1v-51.3h3.8v-5.7
		l-34.6-26.2L66.2,137.9 M92.8,135.3c2.2-2.2,4.8-3.3,8-3.3s5.8,1.1,8,3.3c2.2,2.2,3.3,4.8,3.3,8c0,3.1-1.1,5.8-3.3,8
		c-2.2,2.2-4.9,3.3-8,3.3c-3.1,0-5.8-1.1-8-3.3c-2.2-2.2-3.3-4.9-3.3-8S90.6,137.5,92.8,135.3 M116.9,195h-14v-28.3h14V195
		 M98.6,195h-14v-28.3h14V195 M99.7,135.4c-0.3,0.3-0.5,0.6-0.5,1v7c0,0.7,0.3,1.1,1,1.3l0.6,0.1h9.3c0.7,0,1-0.3,1-1
		c0-0.7-0.3-1-1-1h-7.7v-6.3c0-0.4-0.2-0.7-0.5-1c-0.3-0.2-0.7-0.4-1.1-0.4C100.4,135,100.1,135.1,99.7,135.4 M168.1,173.2
		c0.9-0.8,1.8-1.6,2.6-2.5c2.5-2.5,4.9-5.2,7.1-7.9v-14.6h-41.7v45.2c1-0.4,1.9-0.8,2.9-1.2c4.1-1.8,8.1-3.7,11.9-6h-8.4v-13h11.8
		V184c1.8-1.2,3.6-2.4,5.4-3.8v-7.1H168.1 M171.5,154v12.9h-11.8V154H171.5 M154.3,154v12.9h-11.8V154H154.3 M182.3,143.6V96.7H123
		v12.6h-3.5V61.5h3.5v-7.1l-20.8-9.6v-7.9c1.5-1.1,3.4-1.6,5.7-1.7c2.3,0,4.3,0.4,6.1,1.4c3.6,1.9,7.5,1.7,11.8-0.8
		c0.2-0.1,3.7-2.8,10.3-8c-4,0.3-7.6-0.1-10.7-1c-1.6-0.5-3.9-1.5-6.9-3.1c-2.6-1.4-4.8-2.2-6.6-2.5c-2.7-0.5-5.9-0.2-9.7,0.8v-2.4
		h-2.9v25.3l-20.8,9.6v7.1H82v47.8h-3.5V96.7H19.2v46.9h42.4v-7.9l39.1-29.8l39.2,29.8v7.9H182.3 M115.1,61.5V86H86.4V61.5H115.1
		 M92.7,82.3c0.2,0.7,0.6,1.3,1.2,1.8c0.6,0.5,1.3,0.7,2.1,0.7c0.8,0,1.5-0.2,2.1-0.7c0.6-0.5,1-1.1,1.2-1.8H92.7 M107.9,68.3
		c-0.2-2.4-1.5-4-3.9-4.8c-2.1-0.7-4.3-0.7-6.4,0c-2.4,0.8-3.8,2.4-3.9,4.8c-0.3,3.7-0.6,5.9-1,6.7c-0.5,1-1.1,1.8-1.9,2.3
		C90.3,77.7,90,78,90,78.2v1.9c0,0.3,0.1,0.5,0.3,0.7c0.2,0.2,0.4,0.3,0.7,0.3h19.6c0.3,0,0.5-0.1,0.7-0.3c0.2-0.2,0.3-0.4,0.3-0.7
		v-1.9c0-0.2-0.3-0.5-0.8-0.9c-0.7-0.6-1.3-1.3-1.8-2.3C108.5,74.2,108.2,71.9,107.9,68.3z"/>
	<path fill="#114069" d="M100,0c-0.1,0-0.2,0-0.3,0C88,0,76.7,2,65.9,5.9L65.7,6c-1.6,0.6-3.2,1.2-4.8,1.9
		c-12,5-22.5,12.1-31.7,21.3S12.9,49,7.9,60.9c-0.7,1.6-1.3,3.2-1.9,4.8l-0.1,0.2C2,76.7,0,88,0,99.7c0,0.1,0,0.2,0,0.3
		c0,8.3,1,16.5,3,24.4c0.3,1.3,0.7,2.6,1.1,3.9l2.8,8c0.1,0.2,0.1,0.4,0.2,0.5c3,7.4,7,14.6,11.9,21.4c1.5,2.1,3.1,4.1,4.7,6.1
		v-14.3c-1.1-2.1-2.1-4.2-3-6.3h-1.5v-3.9c-4-10.9-6.1-22.4-6.1-34.4c0-13.5,2.6-26.5,7.9-38.8c5-12,12.1-22.5,21.3-31.7
		s19.8-16.3,31.7-21.3c12.3-5.2,25.3-7.9,38.8-7.9c10.9,0,21.4,1.7,31.6,5.1v-0.1c-3.1-1.5-6.2-2.9-9.3-4.2L134,6
		c-0.5-0.2-1-0.3-1.4-0.5l-0.8-0.3c-0.7-0.3-1.5-0.5-2.2-0.7c0.4,0.1,0.8,0.2,1.2,0.3C120.8,1.6,110.6,0,100,0z"/>
	<path fill="#114069" d="M200,100c0-13.6-2.6-26.5-7.9-39c-1.5-3.5-3.1-6.9-5-10.2l-51.4-22.8c-6.4,5-9.7,7.6-9.9,7.7
		c-4.3,2.5-8.2,2.7-11.8,0.8c-1.8-1-3.8-1.5-6.1-1.4c-2.3,0.1-4.2,0.6-5.7,1.7v7.9l20.8,9.6v7.1h-3.5v47.8h3.5V96.7h59.3v46.9h-4.5
		v19.2c5.9-7.2,10.7-15.2,14.3-23.9C197.4,126.5,200,113.6,200,100z"/>
</g>
<g id="Layer_1_1_">
</g>
</svg>
