<?xml version="1.0" encoding="iso-8859-1"?>
<!-- Generator: Adobe Illustrator 18.1.0, SVG Export Plug-In . SVG Version: 6.00 Build 0)  -->
<!DOCTYPE svg PUBLIC "-//W3C//DTD SVG 1.1//EN" "http://www.w3.org/Graphics/SVG/1.1/DTD/svg11.dtd">
<svg version="1.1" id="Layer_1" xmlns="http://www.w3.org/2000/svg" xmlns:xlink="http://www.w3.org/1999/xlink" x="0px" y="0px"
	 width="204.273px" height="204.274px" viewBox="0 0 204.273 204.274" style="enable-background:new 0 0 204.273 204.274;"
	 xml:space="preserve">
<circle style="fill:#00619E;" cx="102.137" cy="102.137" r="102.137"/>
<path style="fill:#114069;" d="M204.273,102.137c0-15.713-3.552-30.595-9.891-43.893l-42.71-12.439L50.952,46.37v3.935l-2,3.75
	v94.75l2,4.5v4.808l111.182,26.681C187.668,166.229,204.273,136.124,204.273,102.137z"/>
<path style="opacity:0.1;fill:#231F20;" d="M99.409,0.037C44.288,1.326,0,46.414,0,101.85c0,0.037,0.002,0.074,0.002,0.111
	C0.096,46.545,44.32,1.481,99.409,0.037z"/>
<path style="fill:#114069;" d="M68.689,198.179l0.238,0.055c-32.942-16.867-55.491-51.156-55.491-90.711
	c0-56.248,45.593-101.845,101.834-101.845c11.279,0,22.13,1.833,32.27,5.22l0.034-0.064c-13.753-6.927-29.291-10.827-45.74-10.827
	c-0.811,0-1.619,0.012-2.425,0.031C44.32,1.481,0.096,46.545,0.002,101.961C0.05,146.555,28.753,184.438,68.689,198.179z"/>
<path style="fill:#2DACD8;" d="M151.672,132.849H52.601c-2.022,0-3.661,1.639-3.661,3.661v18.128c0,2.023,1.64,3.661,3.661,3.661
	h99.071c2.022,0,3.661-1.639,3.661-3.661v-18.128C155.334,134.488,153.694,132.849,151.672,132.849z"/>
<path style="fill:#2DACD8;" d="M151.672,103.891H52.601c-2.022,0-3.661,1.639-3.661,3.661v18.128c0,2.023,1.64,3.661,3.661,3.661
	h99.071c2.022,0,3.661-1.639,3.661-3.661v-18.128C155.334,105.53,153.694,103.891,151.672,103.891z"/>
<path style="fill:#2DACD8;" d="M151.672,74.933H52.601c-2.022,0-3.661,1.639-3.661,3.661v18.128c0,2.023,1.64,3.661,3.661,3.661
	h99.071c2.022,0,3.661-1.639,3.661-3.661V78.594C155.334,76.571,153.694,74.933,151.672,74.933z"/>
<path style="fill:#2DACD8;" d="M151.672,45.974H52.601c-2.022,0-3.661,1.639-3.661,3.661v18.128c0,2.023,1.64,3.661,3.661,3.661
	h99.071c2.022,0,3.661-1.639,3.661-3.661V49.635C155.334,47.613,153.694,45.974,151.672,45.974z"/>
<circle style="fill:#F1F1F1;" cx="145.116" cy="141.517" r="2.149"/>
<circle style="fill:#F1F1F1;" cx="137.059" cy="141.517" r="2.149"/>
<circle style="fill:#F1F1F1;" cx="128.307" cy="141.517" r="2.149"/>
<path style="fill:#F19126;" d="M65.3,141.601h-6.392c-0.435,0-0.787,0.352-0.787,0.787v6.392c0,0.435,0.352,0.787,0.787,0.787H65.3
	c0.435,0,0.787-0.352,0.787-0.787v-6.392C66.087,141.953,65.735,141.601,65.3,141.601z"/>
<circle style="fill:#F1F1F1;" cx="145.116" cy="112.558" r="2.149"/>
<circle style="fill:#F1F1F1;" cx="137.059" cy="112.558" r="2.149"/>
<circle style="fill:#F1F1F1;" cx="128.307" cy="112.558" r="2.149"/>
<path style="fill:#F19126;" d="M65.3,112.642h-6.392c-0.435,0-0.787,0.352-0.787,0.787v6.392c0,0.435,0.352,0.787,0.787,0.787H65.3
	c0.435,0,0.787-0.352,0.787-0.787v-6.392C66.087,112.994,65.735,112.642,65.3,112.642z"/>
<circle style="fill:#F1F1F1;" cx="145.116" cy="83.599" r="2.149"/>
<circle style="fill:#F1F1F1;" cx="137.059" cy="83.599" r="2.149"/>
<circle style="fill:#F1F1F1;" cx="128.307" cy="83.599" r="2.149"/>
<path style="fill:#F19126;" d="M65.3,83.684h-6.392c-0.435,0-0.787,0.352-0.787,0.787v6.392c0,0.435,0.352,0.787,0.787,0.787H65.3
	c0.435,0,0.787-0.352,0.787-0.787v-6.392C66.087,84.036,65.735,83.684,65.3,83.684z"/>
<circle style="fill:#F1F1F1;" cx="145.116" cy="54.641" r="2.149"/>
<circle style="fill:#F1F1F1;" cx="137.059" cy="54.641" r="2.149"/>
<circle style="fill:#F1F1F1;" cx="128.307" cy="54.641" r="2.149"/>
<path style="fill:#F19126;" d="M65.3,54.725h-6.392c-0.435,0-0.787,0.352-0.787,0.787v6.392c0,0.435,0.352,0.787,0.787,0.787H65.3
	c0.435,0,0.787-0.352,0.787-0.787v-6.392C66.087,55.077,65.735,54.725,65.3,54.725z"/>
<rect x="48.939" y="45.974" style="fill:none;" width="106.394" height="112.327"/>
</svg>
