<?xml version="1.0" encoding="utf-8"?>
<!-- Generator: Adobe Illustrator 18.1.0, SVG Export Plug-In . SVG Version: 6.00 Build 0)  -->
<svg version="1.1" id="Layer_1" xmlns="http://www.w3.org/2000/svg" xmlns:xlink="http://www.w3.org/1999/xlink" x="0px" y="0px"
	 width="200px" height="200px" viewBox="-7.5 -7.5 200 200" enable-background="new -7.5 -7.5 200 200" xml:space="preserve">
<g id="doctor">
	<path fill="#00619E" d="M41.8,154.6v-1c-1.7,0.3-3.2,1.2-4.3,2.7c-1.2,1.4-1.7,3.1-1.7,5c0,2.2,0.8,4,2.2,5.5
		c0.8,0.8,1.5,1.3,2.4,1.7c0.9,0.4,1.8,0.5,2.9,0.5c2.1,0,3.8-0.8,5.3-2.3c1.4-1.5,2.2-3.4,2.2-5.5c0-1.8-0.5-3.5-1.6-4.9
		s-2.5-2.4-4.2-2.7v0.9c1.4,0.4,2.6,1.2,3.6,2.4c1,1.3,1.4,2.7,1.4,4.3c0,1.8-0.6,3.5-1.9,4.9c-1.3,1.3-2.8,2.1-4.7,2.1
		c-1.8,0-3.5-0.6-4.7-2.1c-1.3-1.3-1.9-2.9-1.9-4.9c0-1.6,0.5-3,1.5-4.3C39.1,155.7,40.3,154.9,41.8,154.6 M185.6,129.1l0.2,0.1
		c0.1-0.2,0.2-0.3,0.2-0.5c0,0.2-0.1,0.3-0.2,0.5L185.6,129.1 M132,113.4c-0.2-0.1-0.3-0.3-0.5-0.4l-4.5-1.4
		c1.2,0.9,2.4,1.8,3.6,3.1c1.3,1.4,2.4,2.8,3.2,4.3c0.4,0.9,0.9,1.7,1.2,2.6h-2.1c-1.6,0-3,0.6-4.1,1.8c-1.2,1.2-1.7,2.7-1.7,4.3
		v4.4h0.1l-0.2,11.9c0.2,8.6,1.1,14.9,2.7,18.8l1,1.9c0.1,0.2,0.3,0.5,0.4,0.8c0.8,1.1,1.6,1.9,2.7,2.6c-0.8-0.1-1.5-0.3-2.5-0.8
		v-0.5c0-0.3-0.2-0.4-0.4-0.5l-2.4-1.2c-0.2-0.1-0.3-0.1-0.5-0.1c-0.4,0-0.8,0.1-0.9,0.4l-0.6,1.9c-0.1,0.6,0.1,1,0.9,1.2l2.6,0.6
		c0.5,0.1,0.9,0,1.1-0.5c2.1,0.9,3.9,1.1,5.5,0.6c1.6,0.3,3.6,0.1,5.5-0.6c0.3,0.5,0.6,0.6,1.1,0.5l2.6-0.6c0.3-0.1,0.6-0.2,0.8-0.4
		s0.2-0.4,0.1-0.8l-0.6-1.9c-0.2-0.3-0.4-0.5-0.9-0.4l-0.5,0.1l-2.4,1.2c-0.4,0.2-0.5,0.6-0.4,1.2c-1,0.4-1.8,0.6-2.5,0.8
		c1.2-0.8,2.3-1.9,3.1-3.4l1-1.9c1.5-3.9,2.5-10.1,2.7-18.8l-0.2-11.9h0.1v-4.4c0-0.6-0.1-1.4-0.3-1.9c-1.2-1.3-2.5-2.6-3.8-3.9
		c-0.6-0.2-1.2-0.3-1.9-0.3h-2.5c-0.6-1.8-1.5-3.7-2.7-5.3C133.8,115.2,132.9,114.2,132,113.4 M142.7,124.5c0.9,1,1.3,2.1,1.3,3.4
		v4.2h0.2c0.1,1.8,0.1,3.6,0.1,5.2c0.2,11.7-0.5,20-2.5,25l-1.3,2.5c-1.2,1.7-2.7,2.8-4.3,3.2c-1.6-0.4-3.1-1.5-4.3-3.2l-1.3-2.5
		c-1.3-3.6-2.2-9.2-2.4-16.9c-0.1-4.6-0.1-9.1,0.1-13.2h0.1V128c0-1.3,0.4-2.5,1.3-3.4c0.9-1,1.9-1.4,3.2-1.4h6.5
		C140.7,123.1,141.8,123.6,142.7,124.5 M163.4,21.8c-9.2-9.2-19.9-16.3-31.8-21.4c-0.1,0-0.2-0.1-0.3-0.1l-6.8-2.6
		c-0.8-0.2-1.5-0.4-2.4-0.6c5.1,1.6,10.2,3.7,15,6.2l0,0c-10.3-3.5-20.8-5.1-31.6-5.1C92-1.9,79.1,0.7,66.6,6
		c-12.1,4.9-22.7,12-31.9,21.4c-9.2,9.2-16.3,19.8-21.4,31.7C8.1,71.4,5.5,84.4,5.5,98c0,16.8,3.9,32.4,11.7,47
		c0.6-2.9,1.5-5.8,2.4-8.9l2.7-8.5c1.3-3.4,3.5-5.7,6.3-7l3.9-1c0.5,0,9.3-2.8,26.4-8.3c-1,1.2-2.1,2.4-2.9,3.7
		c-5.3,7.1-9.1,15.5-11.5,25.1c-1.2,5-1.9,9.9-2.3,14.7c-0.1,1.3-0.1,2.6-0.1,3.9c-1.1,0.5-1.6,1.4-1.6,2.8c0,0.9,0.3,1.6,0.9,2.2
		c0.5,0.5,1.3,0.9,2.1,0.9c0.9,0,1.5-0.3,2.1-0.9c0.6-0.6,0.9-1.3,0.9-2.2c0-0.6-0.1-1.2-0.4-1.7c-0.3-0.5-0.8-0.9-1.3-1.1
		c0-1.5,0-3.1,0.1-4.6c0.3-4.3,1.1-9,2.3-13.8c1.3-5.1,2.9-9.7,5.1-14.1c0.1-0.2,0.2-0.4,0.3-0.6c1.6-3.1,3.4-6.2,5.4-9
		c0.9-1.2,1.8-2.4,2.8-3.6c0.9-1,1.7-1.9,2.6-2.8c1-0.8,1.9-1.5,3-2.4c2.2-1.6,3.7-2.6,4.4-2.8l-3.5,7.6c-2.5,6.2-4.4,12-5.8,17.6
		l4.5,1.2c3.6,1.1,6.6,2.2,9.2,3.2l-3.4,1.8c-2.6,1.6-4.9,3.5-6.6,5.3l3.4,2.7c2.7,2.4,5.3,5.1,7.8,8c6.1,7,10.6,14.6,13.6,22.7
		c1,2.7,1.8,5.4,2.6,8.2c0.6-2.8,1.5-5.5,2.6-8.2c3-8,7.6-15.6,13.7-22.8c4-4.8,7.8-8.3,11.1-10.8c-1.8-1.9-4-3.7-6.6-5.3l-3.4-1.8
		c4-1.8,8.7-3.2,13.7-4.4c-1.3-5.6-3.2-11.5-5.8-17.5c-1.8-4-2.9-6.5-3.2-7.4c-1-0.3-1.9-0.4-2.9-0.4v0.3l0,0
		c-0.1,1.1-0.4,1.8-0.9,2.3l-15.5,10.5c2.4,1.8,4.1,3.7,5,5.4c-1.2,1.6-2.3,3.7-3.2,6.1c-0.4,1.2-0.9,2.3-1.1,3.1v3.6l2.8,7.9
		l0.6,17.3l-2.4,5.4c-1.3,2.9-2.4,5.7-3.4,8.1c-0.4,1.1-0.8,2.2-1.1,3.1c-0.3-1-0.8-2.1-1.2-3.2c-0.9-2.5-1.9-5.1-3.2-8l-2.5-5.4
		l0.6-17.3l2.8-7.9v-3.6c-1-3.5-2.4-6.5-4.2-9.1c1-1.7,2.6-3.6,5-5.4l-15.5-10.5c-0.5-0.5-0.8-1.3-0.9-2.3l0,0l1.2-15.5
		c-2.3-4.2-3.9-8.9-4.9-13.9c-0.3,0.2-0.6,0.3-1.1,0.2c-0.9-0.2-1.6-1.1-2.2-2.6c-1.1-2.9-1.8-6.2-2.3-9.7c-0.5-4.5,0.1-6.5,2.1-5.7
		l-1.6-17.3c0-1,0.2-2.2,0.5-3.5c0.8-2.6,2.1-4.5,4-6.1c0.9-0.6,1.8-2.4,2.8-5.4c1.8-2.9,5.6-5,11.4-5.9c0.2,0,0.1-0.1-0.1-0.1
		c-0.4-0.1-0.6-0.3-0.9-0.4c-1.3-0.9-1.7-1.3-1.4-1.1c0.1,0,0.5,0.2,1.4,0.5c1,0.3,1.8,0.5,2.6,0.6h1.3c0.1,0,0.1,0,0-0.1
		c-0.4-0.2-0.8-0.4-1.1-0.6c-0.6-0.4-1.2-1.2-1.6-2.1c-0.5-1.1-0.6-1.4-0.3-0.9c0.2,0.3,1,0.8,2.2,1.2c1.2,0.5,2.3,0.8,3.1,0.8h4.3
		c3.7,0,6.9,0.5,9.7,1.4c0.6,0.2,1.3,0.4,1.9,0.6c1.7,0.8,3.5,1.7,5.2,3l78.1,40.1c-0.9-2.8-1.9-5.7-3.1-8.4
		C179.9,41.7,172.6,31.1,163.4,21.8z"/>
	<path fill="#00619E" d="M168.9,157.7c-0.3,0.4-0.6,0.8-1,1.2c0,0,0,0.1,0,0L168.9,157.7 M143.9,123.3c-0.6-0.8-1.4-1.2-2.3-1.5
		c1.3,1.3,2.5,2.6,3.8,3.9C145.1,124.8,144.5,124.1,143.9,123.3z"/>
	<rect x="35.8" y="153.7" fill="#FFFFFF" width="20.6" height="19.9"/>
	<path fill="#2DACD8" d="M83.3,14.9c-0.3-0.5-0.2-0.2,0.3,0.9c0.4,0.9,1,1.5,1.6,2.1c0.3,0.3,0.8,0.5,1.1,0.6c0.1,0.1,0.1,0.1,0,0.1
		H85c-0.8-0.1-1.6-0.3-2.6-0.6c-0.9-0.3-1.3-0.5-1.4-0.5c-0.3-0.1,0.2,0.2,1.4,1.1c0.2,0.1,0.5,0.3,0.9,0.4c0.2,0.1,0.3,0.1,0.1,0.1
		c-5.6,1.1-9.4,3-11.4,5.9c-1.1,3-1.9,4.9-2.8,5.4c-1.9,1.4-3.4,3.5-4,6.1c-0.4,1.3-0.5,2.5-0.5,3.5l1.6,17.3
		c-1.9-0.8-2.6,1.2-2.1,5.7c0.4,3.6,1.2,6.8,2.3,9.7c0.5,1.5,1.3,2.4,2.2,2.6c0.4,0.1,0.8,0,1.1-0.2c1,5.1,2.6,9.7,4.9,13.9
		l-1.2,15.5l0,0c0.1,1,0.3,1.7,0.9,2.3l15.5,10.5c-2.4,1.8-4,3.7-5,5.4c1.8,2.6,3.4,5.6,4.2,9.1v3.6l-2.8,7.9l-0.6,17.3l2.5,5.4
		c1.3,2.9,2.4,5.6,3.2,8c0.4,1.1,0.9,2.2,1.2,3.2c0.3-1,0.8-2.1,1.1-3.1c1-2.5,2.1-5.2,3.4-8.1l2.4-5.4l-0.6-17.3l-2.8-7.9v-3.6
		c0.2-0.9,0.6-1.8,1.1-3.1c1-2.4,2.1-4.4,3.2-6.1c-1-1.7-2.6-3.6-5-5.4l15.5-10.5c0.4-0.5,0.8-1.3,0.9-2.3l0,0l-1.3-15.5
		c2.3-4.2,3.9-8.9,4.9-13.9c1.3,0.6,2.4-0.1,3.2-2.3c1.1-3,1.8-6.3,2.3-9.8c0.5-4.6-0.1-6.6-2.1-5.8l1.6-17.3c0.1-2.4-0.3-4.6-1.2-7
		c-0.5-1.4-1.2-2.4-1.8-3c-0.4-0.3-1-0.6-1.6-0.9c-0.4-0.1-0.6-0.4-0.8-1c0-1-0.4-1.8-1.1-2.6c-0.5-0.6-1.5-1.5-2.9-2.7
		c-0.3-0.2-0.6-0.4-0.9-0.6c-1.7-1.3-3.5-2.3-5.2-3c-0.6-0.2-1.3-0.5-1.9-0.6c-2.9-0.9-6.2-1.4-9.7-1.4h-4.3c-0.9,0-1.9-0.3-3.1-0.8
		C84.2,15.6,83.5,15.2,83.3,14.9 M144,127.9c0-1.3-0.4-2.5-1.3-3.4c-0.9-0.9-1.9-1.4-3.2-1.4h-6.5c-1.3,0-2.3,0.4-3.2,1.4
		c-0.9,1-1.3,2.1-1.3,3.4v4.2h-0.1c-0.2,4.1-0.3,8.5-0.1,13.2c0.2,7.7,1.1,13.3,2.4,16.9l1.3,2.5c1.3,1.7,2.7,2.8,4.3,3.2
		c1.7-0.4,3.1-1.5,4.3-3.2l1.3-2.5c1.9-5,2.7-13.3,2.5-25c0-1.6-0.1-3.4-0.1-5.2H144L144,127.9 M135.2,114c-1.2-0.3-2.5-0.8-3.9-1.2
		l0.1,0.1c0.2,0.2,0.3,0.3,0.5,0.4c1,1,1.8,1.9,2.6,2.9c1.2,1.6,2.1,3.4,2.7,5.3h2.5c0.6,0,1.3,0.1,1.9,0.3c0.9,0.3,1.6,0.8,2.3,1.5
		c0.6,0.8,1.2,1.5,1.4,2.4c0.2,0.6,0.3,1.3,0.3,1.9v4.4h-0.1l0.2,11.9c-0.2,8.6-1.1,14.9-2.7,18.8l-1,1.9c-0.9,1.4-1.9,2.6-3.1,3.4
		c0.6-0.1,1.4-0.3,2.5-0.8c-0.1-0.5,0-1,0.4-1.2l2.4-1.2l0.5-0.1c0.4,0,0.6,0.1,0.9,0.4l0.6,1.9c0.1,0.3,0,0.5-0.1,0.8
		c-0.1,0.2-0.4,0.3-0.8,0.4l-2.6,0.6c-0.4,0.1-0.8-0.1-1.1-0.5c-2.1,0.9-3.9,1.1-5.5,0.6c-1.6,0.3-3.5,0.1-5.5-0.6
		c-0.2,0.5-0.5,0.8-1.1,0.5l-2.6-0.6c-0.8-0.2-1-0.5-0.9-1.2l0.6-1.9c0.1-0.3,0.4-0.5,0.9-0.4c0.2,0,0.3,0.1,0.5,0.1l2.4,1.2
		c0.3,0.1,0.4,0.3,0.4,0.5v0.5c0.9,0.4,1.7,0.6,2.5,0.8c-1-0.6-1.8-1.5-2.7-2.6c-0.2-0.2-0.3-0.5-0.4-0.8l-1-1.9
		c-1.6-3.9-2.5-10.1-2.7-18.8l0.2-11.9h-0.1v-4.4c0-1.7,0.5-3.1,1.7-4.3c1.2-1.2,2.5-1.8,4.1-1.8h2.1c-0.3-0.9-0.8-1.7-1.2-2.6
		c-0.9-1.5-1.9-2.9-3.2-4.3c-1.2-1.3-2.4-2.3-3.6-3.1c-0.1-0.1-0.2-0.1-0.3-0.2l-4.5-1.5c-3.7-3-6.2-4.8-7.6-5.1
		c0,0,0.1,0.1,0.1,0.3c0.3,0.9,1.4,3.4,3.2,7.4c2.5,6.1,4.4,11.9,5.8,17.5c-5.1,1.2-9.6,2.6-13.7,4.4l3.4,1.8
		c2.6,1.6,4.8,3.5,6.6,5.3c-3.4,2.5-7,6.1-11.1,10.8c-6.1,7.1-10.6,14.7-13.7,22.8c-1,2.7-1.8,5.4-2.6,8.2c-0.6-2.8-1.5-5.6-2.6-8.2
		c-3-8.1-7.6-15.7-13.6-22.7c-2.5-2.9-5.2-5.6-7.8-8l-3.4-2.7c1.7-1.9,4-3.7,6.6-5.3l3.4-1.8c-2.6-1.2-5.6-2.3-9.2-3.2l-4.5-1.2
		c1.4-5.6,3.4-11.6,5.8-17.6l3.5-7.6c-0.9,0.2-2.3,1.2-4.4,2.8c-1.1,0.9-2.2,1.6-3,2.4c-0.9,0.9-1.7,1.8-2.6,2.8
		c-1,1.2-1.8,2.3-2.8,3.6c-2.1,2.8-3.9,5.7-5.4,9c-0.1,0.2-0.2,0.4-0.3,0.6c-2.1,4.3-3.8,9-5.1,14.1c-1.2,4.9-1.9,9.5-2.3,13.8
		c-0.1,1.6-0.1,3.1-0.1,4.6c0.5,0.2,1,0.6,1.3,1.1c0.3,0.5,0.4,1.1,0.4,1.7c0,0.9-0.3,1.6-0.9,2.2c-0.5,0.6-1.3,0.9-2.1,0.9
		c-0.9,0-1.5-0.3-2.1-0.9c-0.5-0.6-0.9-1.3-0.9-2.2c0-1.3,0.5-2.3,1.6-2.8c0-1.3,0.1-2.6,0.1-3.9c0.3-4.8,1.1-9.7,2.3-14.7
		c2.4-9.6,6.2-18.1,11.5-25.1c1-1.2,1.9-2.5,2.9-3.7c-17.1,5.5-25.9,8.3-26.4,8.3l-3.9,1c-2.8,1.3-5,3.7-6.3,7l-2.7,8.5
		c-0.9,3-1.6,5.9-2.4,8.9c-0.9,3.7-1.6,7.2-2.3,10.8c0,0.1,0,0.2,0,0.3l0,0c2.2,2.6,4.4,5.1,6.8,7.6c0.1,0.1,0.1,0.1,0.1,0.1
		c0.1,0.1,0.1,0.1,0.2,0.2s0.1,0.1,0.1,0.1l0,0c0.1,0.1,0.2,0.2,0.2,0.2c0.2,0.2,0.5,0.4,0.8,0.6l5.3,4.8c0.1,0.1,0.2,0.1,0.3,0.2
		c1.4,1.2,2.8,2.4,4.3,3.5c0.2,0.1,0.4,0.2,0.5,0.3c4.8,3.6,10.1,6.8,16.1,9.6c0.1,0,0.2,0.1,0.3,0.1c0.1,0.1,0.2,0.1,0.3,0.1
		c0.2,0.1,0.4,0.2,0.6,0.2c0.1,0.1,0.2,0.1,0.3,0.1c0.4,0.2,0.9,0.4,1.3,0.5c0.2,0.1,0.3,0.1,0.4,0.2c12.2,5.2,25.1,7.8,38.6,7.9
		c0.1,0,0.3,0,0.4,0c0.1,0,0.1,0,0.2,0c0.2,0,0.3,0,0.5,0c0.1,0,0.1,0,0.2,0c1.3,0,2.6,0,3.8-0.1l5.7-0.4c0.2,0,0.4,0,0.5,0
		c0.2,0,0.4-0.1,0.6-0.1c7.7-0.9,15.3-2.7,22.5-5.3c1.6-0.5,3.1-1.2,4.7-1.8c6.8-2.9,13.2-6.5,19.1-10.7c4-2.8,7.8-6.1,11.5-9.5
		c0.4-0.4,0.9-0.8,1.3-1.2c1.5-1.5,2.9-3.1,4.3-4.6c0.3-0.4,0.6-0.8,1-1.2l0.3-0.4c0.3-0.3,0.6-0.8,0.9-1.1
		c-1.1-5.8-2.6-12.3-4.5-19.5l-2.7-9.2c-1.4-3.4-3.5-5.7-6.4-7l-3.9-1C152.3,119.4,146.5,117.6,135.2,114 M41.9,153.6v1
		c-1.5,0.3-2.7,1.2-3.7,2.4c-1,1.3-1.5,2.7-1.5,4.3c0,1.8,0.6,3.5,1.9,4.9c1.3,1.3,2.8,2.1,4.7,2.1s3.4-0.6,4.7-2.1
		c1.3-1.3,1.9-2.9,1.9-4.9c0-1.6-0.4-3-1.4-4.3c-1-1.2-2.2-2.1-3.6-2.4v-0.9c1.7,0.4,3.1,1.3,4.2,2.7c1.1,1.4,1.6,3,1.6,4.9
		c0,2.2-0.8,4-2.2,5.5c-1.4,1.5-3.2,2.3-5.3,2.3c-1.1,0-2.1-0.2-2.9-0.5c-0.9-0.3-1.6-1-2.4-1.7c-1.4-1.5-2.2-3.4-2.2-5.5
		c0-1.9,0.5-3.6,1.7-5C38.7,154.8,40.1,153.9,41.9,153.6z"/>
	<path fill="#114069" d="M191.5,76.4c-0.6-5.3-1.8-9.9-3.4-14.3L109.9,22c0.3,0.2,0.6,0.4,0.9,0.6c1.4,1.1,2.4,1.9,2.9,2.7
		c0.8,0.9,1.1,1.7,1.1,2.6c0.1,0.5,0.3,0.9,0.8,1c0.8,0.2,1.3,0.5,1.6,0.9c0.6,0.6,1.3,1.6,1.8,3c0.9,2.4,1.3,4.6,1.2,7l-1.6,17.3
		c1.9-0.8,2.6,1.2,2.1,5.8c-0.4,3.6-1.2,6.8-2.3,9.8c-0.8,2.2-1.8,2.9-3.2,2.3c-1,5.1-2.6,9.7-4.9,13.9l1.2,15.1
		c1,0,1.9,0.1,2.9,0.4c-0.1-0.2-0.1-0.3-0.1-0.3c1.3,0.3,3.8,2.1,7.6,5.1l4.5,1.5c0.1,0.1,0.2,0.1,0.3,0.2l4.5,1.4l-0.1-0.1
		c1.4,0.4,2.7,0.9,3.9,1.2c11.3,3.7,17.1,5.4,17.3,5.4l4,1.1c2.8,1.3,5,3.7,6.4,7l2.7,9.2c1.9,7.1,3.5,13.6,4.5,19.5l0,0
		c0.1-0.1,0.2-0.2,0.3-0.4l4.2-5.6c0.2-0.3,0.4-0.5,0.5-0.9c0.2-0.2,0.3-0.5,0.4-0.8l3.5-5.5c0.4-0.6,0.8-1.3,1.2-2.1
		c0.2-0.3,0.4-0.8,0.5-1.1c0.2-0.4,0.4-0.8,0.6-1.2c0.4-0.9,1-1.8,1.4-2.8c0.2-0.5,0.5-1.2,0.8-1.7c0.1-0.1,0.1-0.2,0.1-0.4
		c0.3-0.6,0.5-1.2,0.9-1.8c0.3-0.8,0.6-1.6,1-2.5l-0.2-0.1l0.2,0.1c0.1-0.2,0.1-0.3,0.2-0.5c4.4-11.5,6.7-23.5,6.7-36
		c0-0.2,0-0.3,0-0.5l0,0C192.8,86.8,192.3,81.6,191.5,76.4z"/>
	<path fill="#114069" d="M137,3.2L137,3.2c-4.9-2.5-9.8-4.5-15-6.3c0.8,0.2,1.6,0.4,2.4,0.6c-10.2-3.4-20.8-5.1-31.8-5.1
		c-0.1,0-0.2,0-0.3,0c-11.7,0-22.9,2.1-33.9,5.9h-0.2c-1.6,0.5-3.2,1.2-4.8,1.8C41.5,5.4,30.9,12.5,21.7,21.7S5.4,41.4,0.3,53.4
		C-0.4,55-1,56.5-1.5,58.1l0,0c-4,10.9-6,22.2-6,34.1c0,0.1,0,0.2,0,0.2c0,13.2,2.5,25.7,7.4,37.8l0.4,1c0,0.1,0.1,0.1,0.1,0.2
		c3.8,8.9,8.7,17,14.7,24.3l0,0c0-0.1,0-0.2,0-0.3c0.6-3.5,1.4-7.1,2.3-10.8c-7.8-14.5-11.7-30.1-11.7-47c0-13.5,2.6-26.5,7.8-38.9
		C18.6,46.8,25.7,36.2,34.9,27C44,17.8,54.5,10.9,66.4,5.9C78.7,0.7,91.7-2,105.3-2C116.3-2,126.9-0.3,137,3.2z"/>
</g>
<g id="Layer_1_1_">
</g>
</svg>
