<?xml version="1.0" encoding="utf-8"?>
<!-- Generator: Adobe Illustrator 18.1.0, SVG Export Plug-In . SVG Version: 6.00 Build 0)  -->
<svg version="1.1" id="Layer_1" xmlns="http://www.w3.org/2000/svg" xmlns:xlink="http://www.w3.org/1999/xlink" x="0px" y="0px"
	 width="220px" height="225px" viewBox="-10 -12.5 220 225" enable-background="new -10 -12.5 220 225" xml:space="preserve">
<g id="circle_x5F_microchip">
	<path fill="#114069" d="M22.3,20.6c-1.9,1.8-3.7,3.8-5.4,5.9C10.6,33.7,5.4,41.6,1.3,50.3c-5,10.2-8.3,21.1-10,32.4
		c-0.2,1.5-0.5,3-0.6,4.5c-0.5,4.2-0.7,8.4-0.7,12.7c0,0.1,0,0.1,0,0.2c0,3.4,0.1,6.6,0.5,9.9c1.4,11.6,4,22.6,7.8,32.9
		c0.2,0.6,0.5,1,0.7,1.6l5.3,10.9c2,3.5,4.2,7,6.7,10.5c13.7,19.1,31.5,32.7,53.4,40.3l0.2,0.1c-18-9.5-32.5-23-43.4-40.7
		c-11.1-18.1-16.7-38-16.7-59.5c0-7.7,0.7-15.1,2.3-22.5c1.4-7.2,3.5-14.3,6.5-21.1c1.1-2.8,2.4-5.4,3.6-8.1
		C22,44.3,28.7,35.1,36.8,26.9C47,16.5,58.5,8.4,71.8,2.8c13.6-5.9,28-8.9,42.8-8.9c12,0,23.6,1.9,34.8,5.7v-0.1
		c-2.4-1.2-4.9-2.4-7.3-3.4l-4.6-1.8c-9.5-3.5-20.3-5.6-32.5-6.6c-1.6-0.2-3.3-0.2-5-0.2c-15,0-29.2,3-42.8,8.9
		C44,2.1,32.5,10.1,22.3,20.6z"/>
	<path fill="#114069" d="M208.7,83.2c-0.5-3.5-1.1-6.9-1.9-10.2c-0.1-1.1-0.3-2.3-0.5-3.4l-56.8-16.3c0.9,1.2,1.4,2.6,1.4,4.2v87.3
		c0,1.8-0.5,3.2-1.4,4.3c-0.9,1.2-2.2,1.8-3.5,1.8H71.9l0.2,2.3v-0.5h9.4v15.1c0,1-0.5,1.8-1.4,2.6c-0.9,0.7-2,1-3.3,1
		c-0.2,0-0.5,0-0.5,0l86.9,21.2c16.8-11.8,29-26.7,36.4-44.5c6.9-14.5,10.3-30.6,10.3-48C209.7,94.1,209.4,88.6,208.7,83.2
		 M167.7,72.6c1,0,1.8,0.6,2.5,1.5s1,2,1,3.4s-0.3,2.5-1,3.5c-0.7,0.9-1.5,1.5-2.5,1.5h-14.5v-9.7L167.7,72.6 M167.7,97.2
		c1,0,1.8,0.6,2.5,1.5c0.7,0.9,1,2,1,3.4s-0.3,2.6-1,3.5c-0.7,0.9-1.5,1.5-2.5,1.5h-14.5v-9.8L167.7,97.2 M167.7,121.9
		c1,0,1.8,0.6,2.5,1.5c0.7,0.9,1,2,1,3.4s-0.3,2.6-1,3.5c-0.7,0.9-1.5,1.5-2.5,1.5h-14.5V122L167.7,121.9 M119.5,152.7h9.4v15
		c0,1-0.5,1.8-1.4,2.6c-0.9,0.7-2,1-3.3,1c-1.4,0-2.4-0.5-3.3-1c-0.9-0.7-1.4-1.6-1.4-2.6L119.5,152.7 M95.7,152.7h9.4v15
		c0,1-0.5,1.8-1.4,2.6c-0.9,0.7-2,1-3.3,1c-1.4,0-2.4-0.5-3.3-1c-0.9-0.7-1.4-1.6-1.4-2.6L95.7,152.7L95.7,152.7z"/>
	<path fill="#2DACD8" d="M105.1,152.7h-9.4v15c0,1,0.5,1.8,1.4,2.6c0.9,0.7,2,1,3.3,1c1.4,0,2.4-0.5,3.3-1c0.9-0.7,1.4-1.6,1.4-2.6
		L105.1,152.7 M128.8,152.7h-9.4v15c0,1,0.5,1.8,1.4,2.6c0.9,0.7,2,1,3.3,1c1.4,0,2.4-0.5,3.3-1c0.9-0.6,1.4-1.6,1.4-2.6
		L128.8,152.7 M73.8,170.7c0.2,0.1,0.5,0.2,0.6,0.2c0.5,0.2,1.1,0.5,1.6,0.5c0.2,0,0.5,0,0.5,0c1.4,0,2.4-0.5,3.3-1
		c0.9-0.7,1.4-1.6,1.4-2.6v-15.1h-9.4v15c0,1,0.5,1.8,1.4,2.6C73.5,170.3,73.7,170.4,73.8,170.7 M30.8,130.1
		c0.7,0.9,1.5,1.5,2.5,1.5h14.5v-9.7H33.3c-1,0-1.8,0.6-2.5,1.5c-0.7,0.9-1,2-1,3.4S30,129.2,30.8,130.1 M30.8,105.6
		c0.7,0.9,1.5,1.5,2.5,1.5h14.5v-9.8H33.3c-1,0-1.8,0.6-2.5,1.5c-0.7,0.9-1,2-1,3.4C29.7,103.4,30,104.7,30.8,105.6 M47.8,82.3v-9.7
		H33.3c-1,0-1.8,0.6-2.5,1.5c-0.7,0.9-1,2-1,3.4s0.3,2.5,1,3.5c0.7,0.9,1.5,1.5,2.5,1.5L47.8,82.3 M149.4,53
		c-0.9-1.2-2.2-1.8-3.5-1.8h-91c-1.4,0-2.5,0.6-3.4,1.8c-1,1.2-1.5,2.7-1.5,4.3v87.3c0,1.7,0.5,3.2,1.5,4.3c0.9,1.2,2.2,1.8,3.4,1.8
		H146c1.4,0,2.5-0.6,3.5-1.8c1-1.2,1.4-2.7,1.4-4.3V57.4c0-1.7-0.5-3-1.4-4.2C149.5,53.1,149.4,53.1,149.4,53 M133.2,68.9
		c0.6,0.8,0.9,1.8,0.9,2.9v58.3c0,1.1-0.3,2.1-0.9,3c-0.7,0.8-1.5,1.1-2.4,1.1H70c-0.9,0-1.7-0.5-2.3-1.1c-0.6-0.8-1-1.8-1-3V71.8
		c0-1.1,0.3-2,1-2.9c0.6-0.8,1.4-1.2,2.3-1.2h60.9C131.9,67.6,132.5,68.1,133.2,68.9 M120.9,31c-0.9,0.7-1.4,1.7-1.4,2.7v15.1h9.4
		V33.7c0-1-0.5-1.9-1.4-2.7c-0.9-0.7-2-1.1-3.3-1.1C122.9,29.9,121.8,30.2,120.9,31 M97.2,31c-0.9,0.7-1.4,1.7-1.4,2.7v15.1h9.4
		V33.7c0-1-0.5-1.9-1.4-2.7c-0.9-0.7-2-1.1-3.3-1.1S98.1,30.2,97.2,31 M73.3,31c-0.9,0.7-1.4,1.7-1.4,2.7v15.1h9.4V33.7
		c0-1-0.5-1.9-1.4-2.7c-0.9-0.7-2-1.1-3.3-1.1C75.4,29.9,74.3,30.2,73.3,31 M170.2,123.4c-0.7-0.9-1.5-1.5-2.5-1.5h-14.5v9.7h14.5
		c1,0,1.8-0.6,2.5-1.5s1-2,1-3.5C171.2,125.4,170.9,124.3,170.2,123.4 M170.2,98.7c-0.7-0.9-1.5-1.5-2.5-1.5h-14.5v9.8h14.5
		c1,0,1.8-0.6,2.5-1.5s1-2,1-3.5C171.2,100.9,170.9,99.6,170.2,98.7 M170.2,74c-0.7-0.9-1.5-1.5-2.5-1.5h-14.5v9.7h14.5
		c1,0,1.8-0.6,2.5-1.5c0.7-0.9,1-2.1,1-3.5C171.2,76,170.9,74.9,170.2,74z"/>
	<path fill="#00619E" d="M17.6,174.7c1.5,1.8,3.1,3.4,4.6,5.1c5.6,5.6,11.7,10.7,18.2,15.1c0.2,0.1,0.5,0.3,0.6,0.5l4,2.1
		c-1.4-0.8-2.6-1.6-4-2.5c-9.5-6.1-17.9-13.7-25.3-22.6L17.6,174.7 M70,67.5c-0.9,0-1.7,0.5-2.3,1.2c-0.6,0.8-0.9,1.8-0.9,2.9v58.4
		c0,1.1,0.3,2.1,0.9,2.9c0.6,0.8,1.4,1.2,2.3,1.2h61c0.9,0,1.7-0.5,2.3-1.2c0.6-0.8,1-1.8,1-2.9V71.7c0-1.1-0.3-2-1-2.9
		c-0.7-0.8-1.4-1.2-2.3-1.2L70,67.5 M164.3,8.5c-3.2-2.4-6.7-4.6-10.2-6.6l-4.6-2.5l0,0c-11.2-3.8-22.9-5.6-34.9-5.6
		c-15,0-29.1,2.9-42.7,8.8C58.5,8.2,47,16.3,36.8,26.6c-8,8.2-14.7,17.5-19.8,27.7c-1.4,2.7-2.5,5.4-3.6,8
		c-2.8,6.9-5.1,13.9-6.5,21.2C5.4,90.8,4.6,98.4,4.6,106c0,21.5,5.6,41.3,16.7,59.5c7.7,12.6,17.2,23.1,28.7,31.5
		c4.6,3.4,9.5,6.5,14.7,9.1l-0.2-0.1c-5.1-1.8-9.7-3.8-14.3-6.2l5.6,3c0.6,0.3,1.2,0.6,1.9,0.8c0.5,0.2,1,0.5,1.5,0.6l7.3,2.7
		c11,3.7,22.4,5.5,34.1,5.5c15,0,29.2-3,43-8.9c5.7-2.5,11.1-5.4,16.1-8.7c1.4-0.8,2.5-1.8,3.9-2.6l-87-21.2
		c-0.6-0.1-1.1-0.2-1.6-0.5l-0.6-0.1v-0.2c-0.2-0.1-0.5-0.2-0.6-0.5c-0.9-0.7-1.4-1.6-1.4-2.6v-14.6l-0.2-2.4H55.1
		c-1.4,0-2.5-0.6-3.4-1.8c-1-1.2-1.4-2.7-1.4-4.3V57.3c0-1.7,0.5-3,1.4-4.3c0.9-1.2,2.2-1.8,3.4-1.8h91c1.4,0,2.5,0.6,3.4,1.8
		l0.1,0.1l56.8,16.3c-1.2-4.4-2.7-8.9-4.5-13.2c-1.1-2.8-2.4-5.4-3.7-8.1c-5.1-10.2-11.8-19.4-19.8-27.6
		C173.9,16.1,169.3,12.1,164.3,8.5 M30.7,74c0.7-0.9,1.5-1.5,2.5-1.5h14.6v9.7H33.3c-1,0-1.8-0.6-2.5-1.5c-0.7-0.9-1-2.1-1-3.5
		C29.6,76,30.1,74.9,30.7,74 M33.3,97.4h14.5v9.7H33.3c-1,0-1.8-0.6-2.5-1.5c-0.7-0.9-1-2.1-1-3.5s0.3-2.5,1-3.4
		C31.4,97.7,32.2,97.4,33.3,97.4 M127.6,31c0.9,0.7,1.4,1.6,1.4,2.6v15.1h-9.4V33.6c0-1,0.5-1.8,1.4-2.6c0.9-0.7,2-1.1,3.3-1.1
		C125.5,29.9,126.5,30.2,127.6,31 M73.4,31c0.9-0.7,2-1.1,3.3-1.1c1.4,0,2.4,0.5,3.3,1.1c0.9,0.7,1.4,1.6,1.4,2.6v15.1h-9.4V33.6
		C72,32.6,72.5,31.7,73.4,31 M103.9,31c0.9,0.7,1.4,1.6,1.4,2.6v15.1h-9.4V33.6c0-1,0.5-1.8,1.4-2.6c0.9-0.7,2-1.1,3.3-1.1
		C101.7,29.9,102.9,30.2,103.9,31 M29.6,126.8c0-1.4,0.3-2.5,1-3.4c0.7-0.9,1.5-1.5,2.5-1.5h14.6v9.7H33.3c-1,0-1.8-0.6-2.5-1.5
		C30.1,129.2,29.6,128.1,29.6,126.8z"/>
	<rect x="75.5" y="75.2" fill="#F19126" width="49.9" height="50.9"/>
</g>
<g id="Layer_1_1_">
</g>
</svg>
