<?xml version="1.0" encoding="utf-8"?>
<!-- Generator: Adobe Illustrator 18.1.0, SVG Export Plug-In . SVG Version: 6.00 Build 0)  -->
<svg version="1.1" id="Layer_1" xmlns="http://www.w3.org/2000/svg" xmlns:xlink="http://www.w3.org/1999/xlink" x="0px" y="0px"
	 width="200px" height="200px" viewBox="-35 77 200 200" enable-background="new -35 77 200 200" xml:space="preserve">
<g id="air_x5F_travel_x5F_worker">
	<path fill="#CDCCCC" d="M123.5,258.2c2-1.5,3.9-3,5.9-4.5l-0.1-0.1c-1.9,1.6-3.9,3.1-5.9,4.6l-1.9,1.3L123.5,258.2 M-28.1,213.6
		c0.1,0.4,0.3,0.8,0.4,1.2l0.4,1c0,0,0,0.1,0.1,0.2c5.1,12,12.2,22.6,21.5,31.8c1.5,1.5,3.1,3,4.6,4.3c0-0.1,0.1-0.1,0.1-0.2
		c-5.5-4.9-10.6-10.5-15.1-16.7C-21,228.3-25.1,221.1-28.1,213.6 M164.8,183h-0.1c-0.1,1.4-0.2,2.8-0.3,4.3c0-0.1,0-0.1,0.1-0.2
		l0.3-3.8C164.8,183.1,164.8,183.1,164.8,183z"/>
	<path fill="#B4B4B4" d="M78.2,196.2l0.3,1.3c0-0.1,0-0.3-0.1-0.4L78.2,196.2z"/>
	<path fill="#134169" d="M161.2,149.5c-0.3-1-0.6-2-1-2.9l-92.8-41.2c2.8,3.6,6,7.7,9.6,12.4c0.8,0,1.4,0.3,1.8,0.7L89,131.2
		c1.6,2.2,2.6,3.5,2.9,4.1c0.4,0.7,0.3,1.3-0.1,1.7l1,2.1c2.5,6.2,3.4,13.7,2.6,22.6c-0.8,8.8-3,17.2-6.7,25.1
		c-0.4,0.9-1.4,1.5-2.9,2l-2.2,0.5c0.6-2.2,1.2-5.3,1.8-9.1l-0.3,0.1c-0.8,2-1.6,3.6-2.4,4.8c-0.8,1.3-2.2,3-4.2,5l-0.1,0.3
		l-0.3,5.7c1.4,0.2,3.1,1.5,5.1,3.8c1.5,1.8,2.7,3.4,3.4,4.8l29.2,9.8h0.6c0.5,0.1,1.1,0.4,1.6,0.9c1.7,1.5,3.1,4.5,4.2,9.1
		c0.7,2.8,3,12.5,7,29.1l0,0c2.2-1.8,4.4-3.8,6.4-5.9c0.1-0.1,0.2-0.2,0.3-0.3l4.1-4.4c0.1-0.1,0.2-0.2,0.3-0.4s0.3-0.3,0.4-0.5
		l0.9-1.1c6.3-7.6,11.5-16,15.4-25.2c2.1-5,3.8-10.1,5.1-15.3l2.2-13.1c0-0.1,0-0.2,0.1-0.3c0.1-1.4,0.2-2.9,0.3-4.3h0.1
		c0-0.3,0.1-0.5,0.1-0.8l0.2-4.4c0-0.2,0-0.5,0-0.7c0-0.1,0-0.1,0-0.2l-0.2-4.6c0-0.5-0.1-1-0.1-1.5s0-1.1-0.1-1.6l-0.5-4.7
		c-0.5-4.5-1.4-9-2.6-13.3c0-0.2-0.1-0.3-0.1-0.5l-0.2-0.5C161.3,149.9,161.2,149.7,161.2,149.5z"/>
	<path fill="#00629F" d="M91.4,246.2L91.4,246.2l-1.4,0.1l-0.1-0.1c-0.8-0.8-2.6-1.5-5.3-1.9l-3.8-0.4l1.8,1.7
		c1.5,1.2,2.8,2.2,4.1,2.8c1.4,0.7,2.5,0.8,3.4,0.2h1.3c0.9,0.6,2,0.5,3.3-0.2c2-1,4-2.5,5.9-4.5c-1.2,0.1-2.5,0.2-3.8,0.4
		C94,244.7,92.2,245.3,91.4,246.2 M57.3,134.9c1.5,1.2,2.8,2.2,4.1,2.8c1.4,0.7,2.5,0.8,3.4,0.2h1.3c0.9,0.6,2,0.5,3.3-0.2
		c2-1,4-2.5,5.9-4.5c-1.2,0.1-2.5,0.2-3.8,0.4c-2.7,0.5-4.5,1.1-5.3,1.9l-0.1,0.1h-1.3l-0.1-0.1c-0.8-0.8-2.6-1.5-5.3-1.9l-3.8-0.4
		L57.3,134.9 M103.9,84.8c-0.1,0-0.2-0.1-0.3-0.2L96.8,82c-0.8-0.2-1.6-0.4-2.3-0.7c5.1,1.7,10.1,3.7,15,6.2v0.1
		c-10.2-3.4-20.8-5.1-31.6-5.1c-13.5,0-26.4,2.6-38.8,7.8c-11.9,5-22.5,12.2-31.7,21.4S-9,131.5-14,143.4
		c-5.2,12.4-7.8,25.3-7.8,38.8c0,19.1,5,36.7,15.1,52.7c2.4,3.8,5,7.4,7.7,10.8c3.5-10.9,5.6-17.9,6.4-21.3c1.1-4.6,2.5-7.6,4.2-9.1
		c0.5-0.5,1.1-0.7,1.6-0.9c0.3,0,0.5,0,0.6,0l29.6-10c0.9-1.6,2-3.2,3.5-4.8c2-2.2,3.6-3.4,5-3.7l-0.3,0.9c-0.2,0.7-0.2,1.6,0.1,2.5
		c0.2,0.9,1.7,2.7,4.5,5.4l5.5,5.3l1.4,1.7V241l1.9,2.7l1.9-2.7v-29.3l1.5-1.7c0.1-0.1,1.6-1.6,4.4-4.3l0.1-0.1
		c0.3-0.3,0.6-0.6,1-0.9c2.8-2.7,4.4-4.6,4.5-5.4c0.2-0.8,0.2-1.5,0.1-2.2l-0.3-1.2l0.3-5.7l0.1-0.3c-0.3,0.4-0.7,0.7-1.1,1.1
		l-1.6,1.5c-0.3,0.3-0.6,0.6-0.9,0.8l-2.4,2c0,0,0,0-0.1,0.1c-2.1,1.4-4.4,2.1-6.8,2.1h-0.1c-0.6,0-1.5-0.1-2.6-0.3
		c-1.6-0.4-3-1-4.3-1.8c-0.8-0.5-1.9-1.5-3.4-2.8c0,0-0.1,0-0.1-0.1c-0.4-0.4-0.9-0.9-1.4-1.3c-2.6-2.5-4.4-4.5-5.4-6.1
		c-0.7-1.1-1.5-2.6-2.3-4.7c0.4,2.1,0.8,4.4,1.3,6.8c0.4,1.6,0.5,2.3,0.4,2.1c-0.7-0.1-1.5-0.2-2.2-0.5c-1.6-0.5-2.5-1.2-2.9-2
		c-2.6-5.7-4.5-11.7-5.7-18.1c-1.2-6.3-1.5-12.3-1-17.9c0.2-4.7,1.3-9.1,3.1-13.2c-0.9-0.7-1.3-1.4-1.1-1.9c0.2-0.5,1.2-2,3-4.5
		c1.8-2.4,5.2-6.7,10.1-12.7l7.6,8.3l2,1.8c1.6,1.2,3,1.8,4.3,1.8s2.7-0.6,4.4-1.8c0.8-0.6,1.5-1.2,2-1.8l7.5-8.3
		c-0.4-0.4-1-0.7-1.8-0.7l-5.7,6.3c-0.5,0.6-1.2,1.2-2,1.8c-1.6,1.2-3.1,1.8-4.4,1.8s-2.7-0.6-4.3-1.8l-2-1.8l-5.7-6.3l9.5-12.4
		c0.4-0.4,0.8,0,1.3,1.2c0.5-0.2,0.9-0.4,1.2-0.5l1.2,0.5c0.5-1.1,0.9-1.5,1.2-1.2l92.8,41.2c0.3,1,0.7,1.9,1,2.9
		c0.1,0.2,0.1,0.4,0.2,0.5c-1.1-4.1-2.5-8.1-4.2-12c-5.1-12-12.2-22.6-21.4-31.8C126.5,97.1,115.9,89.9,103.9,84.8 M54,193.9
		L54,193.9c1.3,1,2.6,1.8,3.9,2.7c0,0,0.1,0,0.1,0.1c0.9,0.5,1.9,1,2.8,1.5c1.6,0.8,3,1.4,4.2,1.9l4.1-1.4c2.8-1.2,5.2-2.6,7.4-4.3
		c0.3-0.3,0.7-0.5,1-0.8v5.4c-0.7,1.2-1.7,2.6-3.1,4.2c-0.7,0.8-1.4,1.5-2.1,2.2c-2.2,2.1-4.6,3.9-7.2,5.3c-3-1.6-5.7-3.7-8.2-6.2
		c-0.4-0.4-0.8-0.9-1.2-1.3l-3.1-4.2v-6.2l1.1,0.9C53.8,193.7,53.9,193.8,54,193.9z"/>
	<rect x="69.8" y="226.4" fill="#FFFFFF" width="33.3" height="29.2"/>
	<path fill="#2EACD8" d="M116.4,214.6h-0.6l-29.2-9.8c-0.7-1.4-1.9-3-3.4-4.8c-2-2.3-3.7-3.6-5.1-3.8l0.3,0.9c0,0.1,0,0.2,0.1,0.3
		c0.1,0.7,0,1.4-0.1,2.2c-0.2,0.9-1.7,2.7-4.5,5.4c-0.3,0.3-0.7,0.6-1,0.9l-0.1,0.1c-2.8,2.8-4.3,4.2-4.4,4.3l-1.5,1.7v29.3L65,244
		l-1.9-2.7V212l-1.4-1.7l-5.5-5.3c-2.8-2.7-4.3-4.6-4.5-5.4c-0.2-0.9-0.2-1.8-0.1-2.5l0.3-0.9c-1.4,0.2-3,1.5-5,3.7
		c-1.4,1.6-2.6,3.2-3.5,4.8l-29.6,10c-0.1,0-0.4,0-0.6,0c-0.5,0.1-1.1,0.4-1.6,0.9c-1.7,1.5-3.1,4.5-4.2,9.1
		C6.6,228,4.5,235.1,1,246c-0.6,1.9-1.3,3.9-2,6c0,0.1,0,0.2-0.1,0.2c0.2,0.2,0.4,0.4,0.5,0.5l4.1,3.4c0.1,0.1,0.2,0.1,0.2,0.2
		c0.1,0.1,0.1,0.1,0.2,0.2c0.1,0.1,0.2,0.1,0.2,0.2c0.8,0.6,1.6,1.2,2.3,1.8c7.4,5.2,15.2,9.4,23.6,12.4c9.6,3.6,19.6,5.7,29.9,6.3
		c10.2,0.4,20.2-0.7,30-3.3c9-2.3,17.5-5.8,25.6-10.6c2-1.1,3.9-2.3,5.8-3.6l1.9-1.3c2-1.5,4-3,5.9-4.6c-4-16.5-6.4-26.2-7-29.1
		c-1.1-4.6-2.5-7.6-4.2-9.1C117.5,215,117,214.8,116.4,214.6 M91.3,246.2L91.3,246.2c0.9-0.9,2.6-1.5,5.4-2c1.4-0.2,2.6-0.4,3.8-0.4
		c-2,2-3.9,3.4-5.9,4.5c-1.4,0.7-2.5,0.8-3.3,0.2H90c-0.8,0.6-1.9,0.5-3.4-0.2c-1.2-0.6-2.6-1.6-4.1-2.8l-1.8-1.7l3.8,0.4
		c2.7,0.5,4.5,1.1,5.3,1.9l0.1,0.1H91.3 M54.1,194L54.1,194c-0.2-0.2-0.3-0.3-0.4-0.4l-1.1-0.9v6.2l3.1,4.2c0.4,0.5,0.8,0.9,1.2,1.3
		c2.4,2.5,5.2,4.6,8.2,6.2c2.6-1.4,5-3.2,7.2-5.3c0.7-0.7,1.4-1.5,2.1-2.2c1.4-1.6,2.4-3,3.1-4.2v-5.4c-0.3,0.3-0.7,0.5-1,0.8
		c-2.1,1.7-4.6,3.1-7.4,4.3L65,200c-1.1-0.4-2.5-1-4.2-1.9c-1-0.5-1.9-1-2.8-1.5c0,0,0,0-0.1-0.1C56.6,195.7,55.3,194.9,54.1,194
		 M67.4,105.4c-0.4-0.4-0.8,0-1.2,1.2l-1.2-0.5c-0.4,0.1-0.8,0.2-1.2,0.5c-0.5-1.2-0.9-1.6-1.3-1.2L53,117.8l5.7,6.3l2,1.8
		c1.6,1.2,3,1.8,4.3,1.8s2.7-0.6,4.4-1.8c0.8-0.6,1.5-1.2,2-1.8l5.7-6.3C73.4,113.1,70.2,109,67.4,105.4 M92.8,139.2l-1-2.1
		c0.4-0.4,0.5-1,0.1-1.7c-0.3-0.6-1.2-1.9-2.9-4.1l-10.2-12.7l-7.5,8.3c-0.5,0.6-1.2,1.2-2,1.8c-1.6,1.2-3.1,1.8-4.4,1.8
		s-2.7-0.6-4.3-1.8l-2-1.8l-7.6-8.4c-4.9,6.1-8.3,10.3-10.1,12.7c-1.8,2.5-2.9,4-3,4.5c-0.2,0.6,0.2,1.2,1.1,1.9
		c-1.8,4.1-2.8,8.5-3.1,13.2c-0.5,5.7-0.2,11.6,1,17.9c1.2,6.4,3.1,12.4,5.7,18.1c0.4,0.9,1.4,1.5,2.9,2c0.8,0.3,1.5,0.5,2.2,0.5
		c0.1,0.1-0.1-0.6-0.4-2.1c-0.5-2.4-1-4.7-1.3-6.8c0.9,2.1,1.7,3.6,2.3,4.7c1,1.6,2.8,3.6,5.4,6.1c0.5,0.5,1,0.9,1.4,1.3
		c0,0,0.1,0,0.1,0.1c1.5,1.4,2.6,2.3,3.4,2.8c1.3,0.9,2.7,1.5,4.3,1.8c1.1,0.2,1.9,0.3,2.6,0.3h0.1c2.4,0,4.7-0.7,6.8-2.1
		c0,0,0,0,0.1-0.1l2.4-2c0.2-0.1,0.3-0.2,0.4-0.4c0.2-0.1,0.3-0.3,0.5-0.4l1.6-1.5c0.4-0.4,0.7-0.7,1.1-1.1c2-2,3.4-3.7,4.2-5
		c0.8-1.2,1.6-2.8,2.4-4.8l0.3-0.1c-0.6,3.8-1.2,6.9-1.8,9.1l2.2-0.5c1.6-0.5,2.5-1.2,2.9-2c3.7-7.9,5.9-16.3,6.7-25.1
		C96.2,152.9,95.3,145.4,92.8,139.2 M61.4,137.7c-1.2-0.6-2.6-1.6-4.1-2.8l-1.8-1.7l3.8,0.4c2.7,0.5,4.5,1.1,5.3,1.9l0.1,0.1H66
		l0.1-0.1c0.8-0.8,2.6-1.5,5.3-1.9c1.4-0.2,2.6-0.4,3.8-0.4c-2,2-3.9,3.4-5.9,4.5c-1.4,0.7-2.5,0.8-3.3,0.2h-1.3
		C63.9,138.5,62.8,138.4,61.4,137.7z"/>
	<path fill="#134169" d="M65,77c-0.1,0-0.2,0-0.3,0c-11.7,0-23.1,2-33.9,6h-0.1c-1.6,0.6-3.2,1.2-4.8,1.9C14,89.9,3.4,97-5.8,106.2
		s-16.3,19.8-21.4,31.7c-0.7,1.6-1.3,3.2-1.9,4.8v0.1C-33,153.6-35,165-35,176.7c0,0.1,0,0.2,0,0.3c0,13.1,2.4,25.7,7.3,37.7
		c-0.1-0.4-0.3-0.7-0.4-1.1c3.1,7.5,7.1,14.8,12.1,21.7c4.5,6.2,9.5,11.8,15,16.6c0.7-2.1,1.4-4.1,2-6c-2.8-3.4-5.3-7-7.7-10.8
		c-10.1-16.1-15.1-33.7-15.1-52.7c0-13.5,2.6-26.5,7.8-38.8c5-12.1,12.2-22.6,21.4-31.8S27.1,95.4,39,90.4
		c12.4-5.2,25.3-7.8,38.8-7.8c10.8,0,21.4,1.7,31.6,5.1v-0.1c-4.9-2.5-9.9-4.5-15-6.2c0.8,0.2,1.6,0.5,2.3,0.7
		C86.6,78.7,76,77,65,77z"/>
</g>
<g id="Layer_1_1_">
</g>
</svg>
