<?xml version="1.0" encoding="utf-8"?>
<!-- Generator: Adobe Illustrator 18.1.0, SVG Export Plug-In . SVG Version: 6.00 Build 0)  -->
<svg version="1.1" id="Layer_1" xmlns="http://www.w3.org/2000/svg" xmlns:xlink="http://www.w3.org/1999/xlink" x="0px" y="0px"
	 width="200px" height="200px" viewBox="-35 77 200 200" enable-background="new -35 77 200 200" xml:space="preserve">
<g id="business">
	<path fill="#00619E" d="M54.3,236.5l-8.9-1.2v11.2l8.9,0.9V236.5 M68.1,255.2l-8.9-0.7v10.7l8.9,0.4V255.2 M101.6,252.6V246
		l-17.7,2.7v6.1L101.6,252.6 M101.6,265.4v-6.6l-17.7,1.6v6.1L101.6,265.4 M40.5,253l-8.9-0.7V264l8.9,0.4V253 M45.4,253.4v11.2
		l8.9,0.4v-10.9L45.4,253.4 M40.5,234.6l-8.9-1.2v11.7l8.9,0.8V234.6 M31.6,226.2l8.9,1.4v-11.4l-8.9-1.8V226.2 M40.5,197.9
		l-8.9-2.3v11.7l8.9,2V197.9 M31.6,176.8v11.7l8.9,2.4v-11.4L31.6,176.8 M40.5,161.2l-8.9-3.3v11.7l8.9,3V161.2 M40.5,142.8
		l-8.9-3.8v11.7l8.9,3.5V142.8 M54.3,194.7v-10.9l-8.9-2.7v11.1L54.3,194.7 M101.6,239.7v-6.6l-17.7,3.8v6.1L101.6,239.7 M106,206
		l-7.3,2.3v3.9l6.9-2.2l28.1,16v23.6c0.7-0.6,1.4-1.3,2-2c0.6-0.6,1.1-1.1,1.6-1.7v-22L106,206 M83.9,225.1v6.1l17.7-4.2v-6.6
		L83.9,225.1 M68.1,238.4l-8.9-1.2v10.7l8.9,0.9V238.4 M54.3,229.8v-10.9l-8.9-1.7v11.1L54.3,229.8 M59.3,230.6l8.9,1.4v-10.4
		l-8.9-1.8V230.6 M54.3,212.2v-10.9l-8.9-2.2v11.2L54.3,212.2 M68.1,204.9l-8.9-2.2v10.7l8.9,1.9V204.9 M54.3,177.1v-10.9l-8.9-3.2
		v11.2L54.3,177.1 M68.1,188.1l-8.9-2.8V196l8.9,2.4V188.1 M68.1,171.3l-8.9-3.2v10.7l8.9,3V171.3 M54.3,159.5v-10.8l-8.9-3.8v11.2
		L54.3,159.5 M68.1,154.5l-8.9-3.8v10.7l8.9,3.5V154.5 M68.1,148.2v-10.4l-8.9-4.2v10.7L68.1,148.2 M54.3,131.1l-8.9-4.3V138
		l8.9,3.9V131.1 M40.5,124.5l-8.9-4.3v11.7l8.9,4V124.5 M39,90.4c-9.7,4.1-18.4,9.5-26.3,16.3c-1.8,1.6-3.6,3.3-5.4,5
		C-1.8,120.9-9,131.5-14,143.5c-5.2,12.3-7.8,25.3-7.8,38.8c0,19.1,5,36.7,15.1,52.8c0.1,0.2,0.3,0.5,0.4,0.7v-104l32.4-23L73.7,133
		v0.3l29.8,13.3l24.9-15.1l0.3,0.2l31.2,13.7c-0.8-2.4-1.7-4.9-2.8-7.3c-2.4-5.6-5.2-11-8.5-16c-3.6-5.4-7.8-10.5-12.5-15.3
		c-0.1-0.1-0.3-0.3-0.4-0.4c-9.2-9.2-19.8-16.4-31.8-21.4c-0.1,0-0.2-0.1-0.3-0.2l-3.2-1.1c3.1,1.2,6.1,2.5,9.1,4l-0.1,0.1
		c-10.2-3.4-20.7-5.1-31.6-5.1C64.3,82.5,51.4,85.1,39,90.4z"/>
	<rect x="77.3" y="219" fill="#FFFFFF" width="26.6" height="50.2"/>
	<path fill="#114069" d="M30.8,82.9L30.7,83c-1.6,0.6-3.2,1.2-4.8,1.9C14,89.9,3.4,97-5.8,106.2s-16.3,19.8-21.3,31.7
		c-0.7,1.6-1.3,3.2-1.9,4.8l-0.1,0.2C-33,153.7-35,165-35,176.7c0,0.1,0,0.2,0,0.3c0,8.3,1,16.5,3,24.4c0.3,1.3,0.7,2.6,1.1,3.9
		l2.8,8c0.1,0.2,0.1,0.4,0.2,0.5c3,7.4,7,14.6,11.9,21.4c3,4.2,6.3,8,9.7,11.6v-11c-0.1-0.2-0.3-0.5-0.4-0.7
		c-10-16.1-15.1-33.7-15.1-52.8c0-13.5,2.6-26.5,7.8-38.8c5.1-12,12.2-22.5,21.4-31.7S27.1,95.4,39,90.4c12.3-5.2,25.3-7.9,38.8-7.9
		c10.9,0,21.4,1.7,31.6,5.1l0.1-0.1c-3-1.5-6-2.8-9.1-4l-1.1-0.4c-0.7-0.3-1.4-0.5-2.1-0.8l-0.4-0.1c-0.8-0.3-1.5-0.5-2.3-0.8
		c0.4,0.1,0.8,0.2,1.2,0.3C85.8,78.6,75.6,77,65,77c-0.1,0-0.2,0-0.3,0C53,77,41.7,79,30.8,82.9z"/>
	<path fill="#114069" d="M165,177c0-1.1,0-2.2-0.1-3.3c-0.3-9.7-2-19.2-5-28.3l-31.2-13.7l21.1,19.4v79.1c2-3.1,3.8-6.4,5.4-9.8
		c0.7-1.4,1.4-2.9,2-4.4C162.4,203.5,165,190.6,165,177 M98.7,149.3l4.8-2.9l-29.8-13.3v143.5c0.9-0.1,1.8-0.2,2.7-0.3
		c0.3,0,0.7-0.1,1-0.1V219l21.4-6.7L98.7,149.3L98.7,149.3z"/>
	<path fill="#2DACD8" d="M98.7,208.3l7.3-2.3l31.3,17.9v22c4.7-4.9,8.9-10.2,12.4-15.9v-79.1l-21.3-19.6l-29.7,17.9V208.3
		 M133.7,226.1l-28.1-16L77.3,219v57.3c9.1-1.1,18-3.5,26.6-7.1c11.1-4.7,21-11.2,29.8-19.5V226.1 M83.9,231.2v-6.1l17.7-4.8v6.6
		L83.9,231.2 M101.6,233.2v6.6L83.9,243v-6.1L101.6,233.2 M101.6,258.8v6.6l-17.7,1.1v-6.1L101.6,258.8 M101.6,245.9v6.6l-17.7,2.1
		v-6.1L101.6,245.9 M26.1,108.7l-32.4,23v115.4c0.2,0.2,0.4,0.4,0.6,0.6c9.2,9.2,19.8,16.4,31.7,21.4c12.4,5.2,25.4,7.9,39,7.9
		c0.4,0,0.8,0,1.1,0l7-0.3c0.2,0,0.4,0,0.6-0.1V132.9L26.1,108.7 M31.6,120.2l8.9,4.3v11.4l-8.9-4V120.2 M45.4,126.8l8.9,4.3V142
		l-8.9-4V126.8 M68.1,137.8v10.4l-8.9-4v-10.7L68.1,137.8 M59.3,150.8l8.9,3.8V165l-8.9-3.5V150.8 M54.3,148.7v10.9l-8.9-3.5v-11.2
		L54.3,148.7 M68.1,171.3v10.4l-8.9-3v-10.6L68.1,171.3 M54.3,166.2v10.9l-8.9-2.9V163L54.3,166.2 M59.3,185.3l8.9,2.8v10.4
		l-8.9-2.4V185.3 M59.3,202.6l8.9,2.2v10.4l-8.9-1.9V202.6 M54.3,201.4v10.9l-8.9-1.9v-11.2L54.3,201.4 M68.1,232l-8.9-1.4v-10.7
		l8.9,1.8V232 M59.3,237.2l8.9,1.2v10.4l-8.9-0.9V237.2 M54.3,218.9v10.9l-8.9-1.4v-11.1L54.3,218.9 M54.3,183.8v10.9l-8.9-2.4
		v-11.1L54.3,183.8 M31.6,139l8.9,3.8v11.4l-8.9-3.5V139 M31.6,157.9l8.9,3.3v11.4l-8.9-3V157.9 M31.6,188.5v-11.7l8.9,2.8V191
		L31.6,188.5 M31.6,195.6l8.9,2.3v11.4l-8.9-2V195.6 M31.6,233.4l8.9,1.2V246l-8.9-0.8V233.4 M40.5,216.3v11.4l-8.9-1.4v-11.7
		L40.5,216.3 M45.4,264.6v-11.2l8.9,0.7V265L45.4,264.6 M31.6,252.3l8.9,0.7v11.4l-8.9-0.4V252.3 M59.3,265.2v-10.7l8.9,0.7v10.4
		L59.3,265.2 M45.4,235.3l8.9,1.2v10.9l-8.9-0.9V235.3z"/>
</g>
<g id="Layer_1_1_">
</g>
</svg>
