<?xml version="1.0" encoding="iso-8859-1"?>
<!-- Generator: Adobe Illustrator 18.1.0, SVG Export Plug-In . SVG Version: 6.00 Build 0)  -->
<!DOCTYPE svg PUBLIC "-//W3C//DTD SVG 1.1//EN" "http://www.w3.org/Graphics/SVG/1.1/DTD/svg11.dtd">
<svg version="1.1" xmlns="http://www.w3.org/2000/svg" xmlns:xlink="http://www.w3.org/1999/xlink" x="0px" y="0px"
	 viewBox="0 0 187.6 187.55" style="enable-background:new 0 0 187.6 187.55;" xml:space="preserve">
<g id="doctor">
	<path style="fill:#00619E;" d="M46.45,151.65l0.05-0.9c-1.633,0.3-3,1.133-4.1,2.5c-1.1,1.333-1.65,2.9-1.65,4.7
		c0,2.033,0.683,3.75,2.05,5.15c0.685,0.718,1.435,1.251,2.25,1.6c0.852,0.367,1.768,0.55,2.75,0.55c1.933,0,3.583-0.717,4.95-2.15
		c1.367-1.4,2.05-3.117,2.05-5.15c0-1.733-0.517-3.267-1.55-4.6c-1.033-1.333-2.35-2.183-3.95-2.55l-0.05,0.85
		c1.367,0.367,2.483,1.117,3.35,2.25c0.9,1.2,1.35,2.55,1.35,4.05c0,1.767-0.6,3.283-1.8,4.55c-1.2,1.267-2.65,1.9-4.35,1.9
		c-1.733,0-3.2-0.633-4.4-1.9c-1.2-1.267-1.8-2.783-1.8-4.55c0-1.533,0.467-2.883,1.4-4.05C43.9,152.733,45.05,151.983,46.45,151.65
		 M180.9,127.85l0.25,0.1c0.086-0.161,0.153-0.327,0.2-0.5c-0.05,0.163-0.116,0.33-0.2,0.5L180.9,127.85 M130.7,113
		c-0.154-0.144-0.321-0.294-0.5-0.45l-4.25-1.3c1.114,0.787,2.231,1.771,3.35,2.95c1.196,1.281,2.196,2.631,3,4.05
		c0.443,0.795,0.827,1.611,1.15,2.45h-1.95c-1.533,0-2.833,0.567-3.9,1.7c-1.1,1.133-1.65,2.5-1.65,4.1v4.15h0.1l-0.2,11.15
		c0.167,8.133,1,14,2.5,17.6l0.9,1.85c0.147,0.242,0.297,0.475,0.45,0.7c0.734,1.03,1.567,1.846,2.5,2.45
		c-0.7-0.1-1.467-0.333-2.3-0.7v-0.55c-0.033-0.267-0.183-0.45-0.45-0.55l-2.2-1.1c-0.167-0.067-0.333-0.117-0.5-0.15
		c-0.4-0.033-0.667,0.117-0.8,0.45l-0.65,1.8c-0.133,0.567,0.133,0.933,0.8,1.1l2.4,0.65c0.5,0.133,0.833-0.05,1-0.55
		c1.933,0.767,3.667,0.983,5.2,0.65c1.567,0.333,3.3,0.117,5.2-0.65c0.3,0.467,0.633,0.65,1,0.55l2.4-0.65
		c0.333-0.083,0.567-0.217,0.7-0.4c0.133-0.183,0.167-0.417,0.1-0.7l-0.6-1.8c-0.167-0.333-0.433-0.483-0.8-0.45l-0.55,0.15
		l-2.2,1.1c-0.4,0.2-0.533,0.567-0.4,1.1c-0.933,0.367-1.7,0.6-2.3,0.7c1.133-0.733,2.117-1.783,2.95-3.15l0.9-1.85
		c1.467-3.6,2.3-9.467,2.5-17.6l-0.2-11.15h0.1v-4.15c0-0.652-0.1-1.269-0.3-1.85c-1.132-1.238-2.298-2.455-3.5-3.65
		c-0.565-0.2-1.165-0.3-1.8-0.3h-2.3c-0.583-1.768-1.416-3.418-2.5-4.95C132.399,114.788,131.599,113.871,130.7,113 M140.75,123.5
		c0.833,0.867,1.25,1.917,1.25,3.15v4h0.2c0.075,1.689,0.125,3.306,0.15,4.85c0.246,10.962-0.52,18.762-2.3,23.4l-1.25,2.35
		c-1.133,1.633-2.5,2.65-4.1,3.05c-1.567-0.4-2.933-1.417-4.1-3.05l-1.25-2.35c-1.267-3.367-2.017-8.65-2.25-15.85
		c-0.133-4.367-0.083-8.5,0.15-12.4h0.15v-4c0-1.233,0.417-2.283,1.25-3.15c0.833-0.867,1.833-1.3,3-1.3h6.1
		C138.917,122.2,139.917,122.633,140.75,123.5 M160.15,27.45c-8.667-8.633-18.617-15.333-29.85-20.1
		c-0.091-0.038-0.191-0.088-0.3-0.15l-6.35-2.4c-0.727-0.201-1.461-0.417-2.2-0.65c4.804,1.55,9.487,3.483,14.05,5.8V10
		c-9.6-3.2-19.483-4.8-29.65-4.8c-12.667,0-24.8,2.45-36.4,7.35c-11.167,4.733-21.067,11.417-29.7,20.05
		c-8.633,8.633-15.317,18.533-20.05,29.7c-4.9,11.6-7.35,23.733-7.35,36.4c0,15.746,3.65,30.396,10.95,43.95
		c0.654-2.736,1.387-5.52,2.2-8.35l2.5-8.05c1.267-3.133,3.233-5.333,5.9-6.6l3.65-0.95c0.5,0,8.75-2.6,24.75-7.8
		c-0.961,1.102-1.878,2.235-2.75,3.4c-4.931,6.643-8.514,14.493-10.75,23.55c-1.151,4.711-1.868,9.311-2.15,13.8
		c-0.086,1.249-0.136,2.482-0.15,3.7c-1,0.5-1.5,1.367-1.5,2.6c0,0.8,0.267,1.483,0.8,2.05c0.533,0.533,1.183,0.817,1.95,0.85
		c0.767,0,1.417-0.283,1.95-0.85c0.567-0.567,0.85-1.25,0.85-2.05c0-0.6-0.15-1.15-0.45-1.65c-0.333-0.467-0.75-0.817-1.25-1.05
		c-0.018-1.428,0.016-2.895,0.1-4.4c0.275-4.092,0.975-8.425,2.1-13c1.198-4.737,2.781-9.137,4.75-13.2
		c0.097-0.21,0.197-0.427,0.3-0.65c1.488-2.977,3.188-5.777,5.1-8.4c0.838-1.131,1.704-2.231,2.6-3.3
		c0.797-0.908,1.614-1.791,2.45-2.65c0.867-0.7,1.817-1.433,2.85-2.2c2.033-1.533,3.433-2.4,4.2-2.6l-3.2,7.05
		c-2.367,5.733-4.2,11.25-5.5,16.55l4.3,1.1c3.333,0.967,6.2,1.983,8.6,3.05l-3.15,1.75c-2.467,1.533-4.533,3.2-6.2,5l3.15,2.55
		c2.533,2.267,4.983,4.783,7.35,7.55c5.647,6.622,9.897,13.722,12.75,21.3c0.957,2.529,1.757,5.113,2.4,7.75
		c0.641-2.606,1.441-5.172,2.4-7.7c2.865-7.531,7.148-14.648,12.85-21.35c3.8-4.433,7.267-7.8,10.4-10.1c-1.7-1.8-3.767-3.467-6.2-5
		l-3.15-1.75c3.8-1.7,8.083-3.083,12.85-4.15c-1.267-5.233-3.083-10.7-5.45-16.4c-1.685-3.771-2.702-6.071-3.05-6.9
		c-0.936-0.295-1.852-0.429-2.75-0.4l0.05,0.3v0.05c-0.133,0.967-0.417,1.683-0.85,2.15l-14.5,9.8c2.267,1.767,3.833,3.467,4.7,5.1
		c-1.133,1.533-2.15,3.417-3.05,5.65c-0.433,1.133-0.767,2.1-1,2.9v3.35l2.65,7.4l0.6,16.25l-2.25,5.1
		c-1.206,2.783-2.256,5.333-3.15,7.65c-0.375,1.01-0.725,1.977-1.05,2.9c-0.324-0.952-0.691-1.952-1.1-3
		c-0.844-2.289-1.861-4.806-3.05-7.55l-2.3-5.1l0.65-16.25l2.6-7.4v-3.35c-0.9-3.233-2.233-6.083-4-8.55
		c0.867-1.633,2.417-3.333,4.65-5.1l-14.55-9.8c-0.467-0.5-0.733-1.217-0.8-2.15v-0.05l1.15-14.5c-2.1-3.933-3.617-8.3-4.55-13.1
		c-0.3,0.2-0.65,0.267-1.05,0.2c-0.833-0.167-1.5-0.967-2-2.4c-1-2.767-1.7-5.817-2.1-9.15c-0.533-4.3,0.117-6.1,1.95-5.4l-1.5-16.2
		c0-0.933,0.183-2.017,0.55-3.25c0.7-2.4,1.967-4.283,3.8-5.65c0.8-0.567,1.683-2.267,2.65-5.1c1.767-2.767,5.3-4.633,10.6-5.6
		c0.167-0.033,0.133-0.083-0.1-0.15c-0.367-0.133-0.65-0.267-0.85-0.4c-1.167-0.833-1.617-1.183-1.35-1.05
		c0.067,0.033,0.5,0.2,1.3,0.5c0.9,0.333,1.717,0.533,2.45,0.6l1.2,0.05c0.1,0,0.1-0.033,0-0.1c-0.367-0.167-0.717-0.383-1.05-0.65
		c-0.567-0.433-1.067-1.067-1.5-1.9c-0.533-1.033-0.633-1.317-0.3-0.85c0.233,0.333,0.9,0.717,2,1.15
		c1.133,0.467,2.117,0.717,2.95,0.75l4.1,0.05c3.403,0.027,6.453,0.46,9.15,1.3c0.639,0.193,1.256,0.41,1.85,0.65
		c1.643,0.68,3.26,1.613,4.85,2.8L183.2,65.2c-0.86-2.681-1.844-5.331-2.95-7.95C175.483,46.017,168.783,36.083,160.15,27.45z"/>
	<path style="fill:#00619E;" d="M165.2,154.6c-0.304,0.379-0.62,0.745-0.95,1.1c0.009,0.035,0.009,0.051,0,0.05L165.2,154.6
		 M141.85,122.4c-0.644-0.664-1.361-1.13-2.15-1.4c1.202,1.195,2.368,2.412,3.5,3.65C142.951,123.821,142.501,123.071,141.85,122.4z
		"/>
	<rect x="40.75" y="150.85" style="fill:#FFFFFF;" width="19.217" height="18.608"/>
	<path style="fill:#2DACD8;" d="M85.25,20.95c-0.333-0.467-0.233-0.183,0.3,0.85c0.433,0.833,0.933,1.467,1.5,1.9
		c0.333,0.267,0.683,0.483,1.05,0.65c0.1,0.067,0.1,0.1,0,0.1l-1.2-0.05c-0.733-0.067-1.55-0.267-2.45-0.6
		c-0.8-0.3-1.233-0.467-1.3-0.5c-0.267-0.133,0.183,0.217,1.35,1.05c0.2,0.133,0.483,0.267,0.85,0.4
		c0.233,0.067,0.267,0.117,0.1,0.15c-5.3,0.967-8.833,2.833-10.6,5.6c-0.967,2.833-1.85,4.533-2.65,5.1
		c-1.833,1.367-3.1,3.25-3.8,5.65c-0.367,1.233-0.55,2.317-0.55,3.25l1.5,16.2c-1.833-0.7-2.483,1.1-1.95,5.4
		c0.4,3.333,1.1,6.383,2.1,9.15c0.5,1.433,1.167,2.233,2,2.4c0.4,0.067,0.75,0,1.05-0.2c0.933,4.8,2.45,9.167,4.55,13.1l-1.15,14.5
		v0.05c0.067,0.933,0.333,1.65,0.8,2.15l14.55,9.8c-2.233,1.767-3.783,3.467-4.65,5.1c1.767,2.467,3.1,5.317,4,8.55v3.35l-2.6,7.4
		L87.4,157.7l2.3,5.1c1.189,2.744,2.206,5.261,3.05,7.55c0.409,1.048,0.776,2.048,1.1,3c0.325-0.923,0.675-1.89,1.05-2.9
		c0.894-2.317,1.944-4.867,3.15-7.65l2.25-5.1l-0.6-16.25l-2.65-7.4v-3.35c0.233-0.8,0.567-1.767,1-2.9
		c0.9-2.233,1.917-4.117,3.05-5.65c-0.867-1.633-2.433-3.333-4.7-5.1l14.5-9.8c0.433-0.467,0.717-1.183,0.85-2.15v-0.05l-1.2-14.5
		c2.1-3.933,3.617-8.283,4.55-13.05c1.267,0.633,2.267-0.067,3-2.1c1.033-2.833,1.75-5.917,2.15-9.25
		c0.533-4.333-0.117-6.15-1.95-5.45l1.5-16.2c0.067-2.2-0.3-4.4-1.1-6.6c-0.5-1.3-1.067-2.25-1.7-2.85
		c-0.367-0.333-0.883-0.617-1.55-0.85c-0.4-0.133-0.633-0.45-0.7-0.95c-0.033-0.867-0.383-1.683-1.05-2.45
		c-0.5-0.633-1.4-1.467-2.7-2.5c-0.28-0.225-0.564-0.442-0.85-0.65c-1.59-1.187-3.207-2.12-4.85-2.8
		c-0.594-0.24-1.211-0.457-1.85-0.65c-2.697-0.84-5.747-1.273-9.15-1.3l-4.1-0.05c-0.833-0.033-1.817-0.283-2.95-0.75
		C86.15,21.667,85.483,21.283,85.25,20.95 M142,126.65c0-1.233-0.417-2.283-1.25-3.15s-1.833-1.3-3-1.3h-6.1
		c-1.167,0-2.167,0.433-3,1.3c-0.833,0.867-1.25,1.917-1.25,3.15v4h-0.15c-0.233,3.9-0.283,8.033-0.15,12.4
		c0.233,7.2,0.983,12.483,2.25,15.85l1.25,2.35c1.167,1.633,2.533,2.65,4.1,3.05c1.6-0.4,2.967-1.417,4.1-3.05l1.25-2.35
		c1.78-4.638,2.546-12.438,2.3-23.4c-0.025-1.544-0.075-3.161-0.15-4.85H142V126.65 M133.75,113.6
		c-1.146-0.353-2.363-0.736-3.65-1.15c0.044,0.04,0.077,0.073,0.1,0.1c0.179,0.156,0.346,0.306,0.5,0.45
		c0.899,0.871,1.699,1.788,2.4,2.75c1.084,1.532,1.917,3.182,2.5,4.95h2.3c0.635,0,1.235,0.1,1.8,0.3
		c0.789,0.27,1.506,0.736,2.15,1.4c0.651,0.671,1.101,1.421,1.35,2.25c0.2,0.581,0.3,1.198,0.3,1.85v4.15h-0.1l0.2,11.15
		c-0.2,8.133-1.033,14-2.5,17.6l-0.9,1.85c-0.833,1.367-1.817,2.417-2.95,3.15c0.6-0.1,1.367-0.333,2.3-0.7
		c-0.133-0.533,0-0.9,0.4-1.1l2.2-1.1l0.55-0.15c0.367-0.033,0.633,0.117,0.8,0.45l0.6,1.8c0.067,0.283,0.033,0.517-0.1,0.7
		c-0.133,0.183-0.367,0.317-0.7,0.4l-2.4,0.65c-0.367,0.1-0.7-0.083-1-0.55c-1.9,0.767-3.633,0.983-5.2,0.65
		c-1.533,0.333-3.267,0.117-5.2-0.65c-0.167,0.5-0.5,0.683-1,0.55l-2.4-0.65c-0.667-0.167-0.933-0.533-0.8-1.1l0.65-1.8
		c0.133-0.333,0.4-0.483,0.8-0.45c0.167,0.033,0.333,0.083,0.5,0.15l2.2,1.1c0.267,0.1,0.417,0.283,0.45,0.55v0.55
		c0.833,0.367,1.6,0.6,2.3,0.7c-0.933-0.604-1.766-1.42-2.5-2.45c-0.153-0.225-0.303-0.458-0.45-0.7l-0.9-1.85
		c-1.5-3.6-2.333-9.467-2.5-17.6l0.2-11.15h-0.1v-4.15c0-1.6,0.55-2.967,1.65-4.1c1.067-1.133,2.367-1.7,3.9-1.7h1.95
		c-0.323-0.839-0.707-1.655-1.15-2.45c-0.804-1.419-1.804-2.769-3-4.05c-1.119-1.179-2.236-2.163-3.35-2.95
		c-0.119-0.059-0.236-0.126-0.35-0.2l-4.25-1.4c-3.467-2.867-5.817-4.467-7.05-4.8c0.007,0.02,0.057,0.12,0.15,0.3
		c0.348,0.829,1.365,3.129,3.05,6.9c2.367,5.7,4.183,11.167,5.45,16.4c-4.767,1.067-9.05,2.45-12.85,4.15l3.15,1.75
		c2.433,1.533,4.5,3.2,6.2,5c-3.133,2.3-6.6,5.667-10.4,10.1c-5.702,6.702-9.985,13.819-12.85,21.35
		c-0.959,2.528-1.759,5.094-2.4,7.7c-0.643-2.637-1.443-5.221-2.4-7.75c-2.853-7.578-7.103-14.678-12.75-21.3
		c-2.367-2.767-4.817-5.283-7.35-7.55l-3.15-2.55c1.667-1.8,3.733-3.467,6.2-5l3.15-1.75c-2.4-1.067-5.267-2.083-8.6-3.05l-4.3-1.1
		c1.3-5.3,3.133-10.817,5.5-16.55l3.2-7.05c-0.767,0.2-2.167,1.067-4.2,2.6c-1.033,0.767-1.983,1.5-2.85,2.2
		c-0.836,0.859-1.653,1.742-2.45,2.65c-0.896,1.069-1.763,2.169-2.6,3.3c-1.912,2.623-3.612,5.423-5.1,8.4
		c-0.103,0.223-0.203,0.44-0.3,0.65c-1.969,4.063-3.552,8.463-4.75,13.2c-1.125,4.575-1.825,8.908-2.1,13
		c-0.084,1.505-0.118,2.972-0.1,4.4c0.5,0.233,0.917,0.583,1.25,1.05c0.3,0.5,0.45,1.05,0.45,1.65c0,0.8-0.283,1.483-0.85,2.05
		c-0.533,0.567-1.183,0.85-1.95,0.85c-0.767-0.033-1.417-0.317-1.95-0.85c-0.533-0.567-0.8-1.25-0.8-2.05c0-1.233,0.5-2.1,1.5-2.6
		c0.014-1.218,0.064-2.451,0.15-3.7c0.282-4.489,0.999-9.089,2.15-13.8c2.236-9.057,5.819-16.907,10.75-23.55
		c0.872-1.165,1.789-2.298,2.75-3.4c-16,5.2-24.25,7.8-24.75,7.8l-3.65,0.95c-2.667,1.267-4.633,3.467-5.9,6.6l-2.5,8.05
		c-0.813,2.83-1.546,5.614-2.2,8.35c-0.826,3.45-1.526,6.817-2.1,10.1c-0.018,0.109-0.034,0.209-0.05,0.3H21.1
		c2.011,2.444,4.144,4.794,6.4,7.05c0.058,0.058,0.108,0.108,0.15,0.15c0.072,0.072,0.139,0.139,0.2,0.2
		c0.052,0.051,0.102,0.101,0.15,0.15l0.05,0.05c0.099,0.094,0.182,0.177,0.25,0.25c0.245,0.223,0.478,0.44,0.7,0.65l4.95,4.45
		c0.109,0.077,0.209,0.143,0.3,0.2c1.331,1.116,2.681,2.183,4.05,3.2c0.189,0.127,0.372,0.244,0.55,0.35
		c4.42,3.391,9.47,6.391,15.15,9c0.124,0.049,0.241,0.099,0.35,0.15c0.109,0.051,0.209,0.101,0.3,0.15
		c0.216,0.092,0.416,0.176,0.6,0.25c0.134,0.065,0.251,0.115,0.35,0.15c0.43,0.202,0.846,0.386,1.25,0.55
		c0.159,0.074,0.309,0.14,0.45,0.2c11.463,4.842,23.48,7.292,36.05,7.35c0.15,0,0.3,0,0.45,0c0.075,0,0.141,0,0.2,0
		c0.18,0,0.347,0,0.5,0c0.081-0.001,0.148-0.001,0.2,0c1.208-0.012,2.391-0.045,3.55-0.1l5.4-0.4c0.199-0.014,0.382-0.03,0.55-0.05
		c0.22-0.022,0.42-0.056,0.6-0.1c7.234-0.819,14.268-2.486,21.1-5c1.479-0.519,2.946-1.086,4.4-1.7
		c6.41-2.72,12.393-6.07,17.95-10.05c3.764-2.673,7.331-5.64,10.7-8.9c0.403-0.371,0.803-0.754,1.2-1.15
		c1.419-1.424,2.785-2.891,4.1-4.4c0.33-0.355,0.646-0.721,0.95-1.1l0.35-0.4c0.296-0.335,0.58-0.685,0.85-1.05
		c-1.048-5.443-2.481-11.527-4.3-18.25l-2.5-8.65c-1.3-3.133-3.283-5.333-5.95-6.6L150,118.7C149.73,118.7,144.313,117,133.75,113.6
		 M46.5,150.75l-0.05,0.9c-1.4,0.333-2.55,1.083-3.45,2.25c-0.933,1.167-1.4,2.517-1.4,4.05c0,1.767,0.6,3.283,1.8,4.55
		c1.2,1.267,2.667,1.9,4.4,1.9c1.7,0,3.15-0.633,4.35-1.9c1.2-1.267,1.8-2.783,1.8-4.55c0-1.5-0.45-2.85-1.35-4.05
		c-0.867-1.133-1.983-1.883-3.35-2.25l0.05-0.85c1.6,0.367,2.917,1.217,3.95,2.55c1.033,1.333,1.55,2.867,1.55,4.6
		c0,2.033-0.683,3.75-2.05,5.15c-1.367,1.433-3.017,2.15-4.95,2.15c-0.982,0-1.898-0.183-2.75-0.55
		c-0.815-0.349-1.565-0.882-2.25-1.6c-1.367-1.4-2.05-3.117-2.05-5.15c0-1.8,0.55-3.367,1.65-4.7
		C43.5,151.883,44.867,151.05,46.5,150.75z"/>
	<path style="fill:#114069;" d="M186.4,78.6c-0.653-4.921-1.687-9.371-3.1-13.35l-73.15-37.6c0.286,0.208,0.57,0.425,0.85,0.65
		c1.3,1.033,2.2,1.867,2.7,2.5c0.667,0.767,1.017,1.583,1.05,2.45c0.067,0.5,0.3,0.817,0.7,0.95c0.667,0.233,1.183,0.517,1.55,0.85
		c0.633,0.6,1.2,1.55,1.7,2.85c0.8,2.2,1.167,4.4,1.1,6.6l-1.5,16.2c1.833-0.7,2.483,1.117,1.95,5.45
		c-0.4,3.333-1.117,6.417-2.15,9.25c-0.733,2.033-1.733,2.733-3,2.1c-0.933,4.767-2.45,9.117-4.55,13.05l1.15,14.2
		c0.898-0.029,1.814,0.105,2.75,0.4c-0.093-0.18-0.143-0.28-0.15-0.3c1.233,0.333,3.583,1.933,7.05,4.8l4.25,1.4
		c0.114,0.074,0.231,0.141,0.35,0.2l4.25,1.3c-0.023-0.027-0.056-0.06-0.1-0.1c1.287,0.414,2.504,0.797,3.65,1.15
		c10.563,3.4,15.98,5.1,16.25,5.1l3.65,0.95c2.667,1.267,4.65,3.467,5.95,6.6l2.5,8.65c1.819,6.723,3.252,12.807,4.3,18.25
		l0.05-0.05c0.122-0.118,0.238-0.252,0.35-0.4l3.95-5.25c0.19-0.258,0.373-0.524,0.55-0.8c0.164-0.224,0.314-0.457,0.45-0.7
		l3.25-5.2c0.382-0.627,0.749-1.26,1.1-1.9c0.184-0.34,0.367-0.69,0.55-1.05c0.2-0.361,0.4-0.744,0.6-1.15
		c0.446-0.852,0.88-1.718,1.3-2.6c0.253-0.539,0.503-1.089,0.75-1.65c0.056-0.114,0.106-0.247,0.15-0.4
		c0.281-0.571,0.547-1.154,0.8-1.75c0.319-0.756,0.619-1.523,0.9-2.3l-0.25-0.1l0.25,0.1c0.084-0.17,0.15-0.337,0.2-0.5
		c4.167-10.753,6.25-21.987,6.25-33.7c0-0.167,0-0.333,0-0.5V93.2C187.573,88.255,187.173,83.389,186.4,78.6z"/>
	<path style="fill:#114069;" d="M135.5,10V9.95c-4.563-2.317-9.247-4.25-14.05-5.8c0.739,0.233,1.473,0.449,2.2,0.65
		C114.071,1.6,104.121,0,93.8,0c-0.099,0-0.199,0-0.3,0C82.536,0.033,71.986,1.883,61.85,5.55L61.6,5.6
		c-1.503,0.534-3.003,1.118-4.5,1.75C45.933,12.083,36.033,18.767,27.4,27.4C18.767,36,12.083,45.9,7.35,57.1
		c-0.627,1.484-1.21,2.984-1.75,4.5v0.05C1.895,71.845,0.028,82.462,0,93.5c0,0.083,0,0.167,0,0.25
		c0,12.321,2.283,24.105,6.85,35.35l0.4,0.95c0.041,0.072,0.074,0.139,0.1,0.2c3.526,8.309,8.109,15.91,13.75,22.8h0.05
		c0.016-0.091,0.032-0.191,0.05-0.3c0.574-3.283,1.274-6.65,2.1-10.1C16,129.096,12.35,114.446,12.35,98.7
		c0-12.667,2.45-24.8,7.35-36.4c4.733-11.167,11.417-21.067,20.05-29.7c8.633-8.633,18.533-15.317,29.7-20.05
		c11.6-4.9,23.733-7.35,36.4-7.35C116.017,5.2,125.9,6.8,135.5,10z"/>
</g>
<g id="Layer_1">
</g>
</svg>
