<?xml version="1.0" encoding="utf-8"?>
<!-- Generator: Adobe Illustrator 18.1.0, SVG Export Plug-In . SVG Version: 6.00 Build 0)  -->
<svg version="1.1" id="Layer_1" xmlns="http://www.w3.org/2000/svg" xmlns:xlink="http://www.w3.org/1999/xlink" x="0px" y="0px"
	 width="200px" height="200px" viewBox="0 0 200 200" enable-background="new 0 0 200 200" xml:space="preserve">
<g id="laboratory">
	<path fill="#00619E" d="M131.2,169.1l-13.3-1v30.3c1.3-0.2,2.5-0.5,3.8-0.7c0.2,0,0.4-0.1,0.5-0.2c3-0.7,6-1.5,9-2.4V169.1
		 M117.9,153.8l13.3,1.5v-22.2l-13.3-2.2V153.8 M105.8,152.5v-23.6l-13.3-2.2V151L105.8,152.5 M166.6,174.6c1.4-1.2,2.8-2.5,4.1-3.9
		h-4.1V174.6 M156.4,171l-13.3-1v20.2c4.6-2.2,9.1-4.8,13.3-7.6V171 M143.2,156.6l13.3,1.4v-20.6l-13.3-2.3V156.6 M92.6,166.2v24.4
		l13.3,0.3v-23.6L92.6,166.2 M62,98.8l0.1-14.6c0.8-1.3,1.3-2.8,1.4-4.7l-7.9,6.2c0.1,1.6,0.4,2.5,1.1,2.6l-0.3,14l-9.4,35.1
		c-0.7,2.4-0.8,4.7-0.4,7.1c0.4,2.4,1.1,3.5,2.1,3.3l21.9-3.6c0.8-0.1,1.5-0.7,2.2-1.6c0.6-1,1.1-2.2,1.5-3.8c0.8-3.3,0.7-6.3-0.4-9
		L62,98.8 M55.1,125.2c0.2-0.6,0.5-1,0.8-1.1c0.3-0.1,0.6,0,0.8,0.5c0.2,0.4,0.3,1,0.3,1.8c0,0.7-0.1,1.4-0.3,2.1
		c-0.2,0.6-0.5,1-0.8,1.1s-0.6-0.1-0.8-0.5c-0.2-0.5-0.3-1.1-0.3-1.8C54.8,126.5,54.9,125.8,55.1,125.2 M57.9,87.4l3-2.3l-0.2,15.3
		l5.3,14.4l-13.4,5.9l4.9-18.4L57.9,87.4 M61.8,121.9c0.4-0.2,0.7,0,0.9,0.5c0.2,0.5,0.4,1.1,0.3,1.9c0,0.8-0.1,1.6-0.4,2.2
		c-0.2,0.6-0.5,1-0.9,1.1c-0.4,0.1-0.7,0-0.9-0.5c-0.2-0.5-0.4-1.1-0.3-1.9c0-0.8,0.1-1.5,0.4-2.1C61.1,122.4,61.4,122,61.8,121.9
		 M64.9,129.3c0.4-0.1,0.6,0.1,0.8,0.5c0.2,0.4,0.4,1,0.4,1.8s-0.1,1.4-0.4,2c-0.2,0.6-0.5,0.9-0.8,1c-0.3,0.1-0.6-0.1-0.8-0.6
		c-0.2-0.5-0.4-1-0.4-1.8s0.1-1.4,0.4-2C64.3,129.7,64.6,129.4,64.9,129.3 M57.9,132.2c0.2-0.6,0.5-0.9,0.7-1
		c0.3-0.1,0.5,0.1,0.7,0.5c0.2,0.5,0.3,1,0.3,1.7c0,0.7-0.1,1.3-0.3,1.9c-0.2,0.6-0.5,0.9-0.7,1c-0.3,0.1-0.5-0.1-0.7-0.5
		c-0.2-0.5-0.3-1-0.3-1.7C57.6,133.4,57.7,132.7,57.9,132.2 M53.1,133c0.3-0.1,0.5,0.1,0.6,0.5c0.2,0.4,0.2,0.9,0.2,1.6
		c0,0.7-0.1,1.3-0.3,1.8c-0.2,0.5-0.4,0.8-0.7,0.8c-0.2,0.1-0.5-0.1-0.6-0.5c-0.2-0.5-0.2-1-0.2-1.6c0-0.6,0.1-1.2,0.3-1.7
		C52.6,133.4,52.8,133.1,53.1,133 M105.8,75.7V52.1l-13.3-4.7v24.4L105.8,75.7 M143.2,121.8l13.3,2.7v-20.6l-13.3-3.5V121.8
		 M117.9,116.6l13.3,2.8V97.1l-13.3-3.5V116.6 M105.8,114.1V90.5L92.6,87v24.4L105.8,114.1 M131.2,61.1l-13.3-4.7v22.9l13.3,3.9
		V61.1 M156.4,70.2l-13.3-4.7v21.4l13.3,4V70.2 M129.5,4.5c0.8,0.3,1.6,0.5,2.3,0.8l-1.2-0.5C130.3,4.7,129.9,4.6,129.5,4.5
		 M138.9,7.9c-0.1,0-0.2-0.1-0.3-0.2l-3.2-1.1c3.1,1.2,6.1,2.5,9.1,4l-0.1,0.1c-10.2-3.4-20.7-5.1-31.6-5.1c-9,0-17.7,1.1-26.2,3.5
		c-4.3,1.2-8.5,2.6-12.6,4.4c-11.9,5-22.5,12.1-31.7,21.3S26,54.5,21,66.5c-5.2,12.3-7.8,25.3-7.8,38.8c0,19.1,5,36.7,15.1,52.8
		c3.4,5.5,7.3,10.6,11.5,15.2V68l42.7-31.5l60.9,22.8l0.1-5.9L81.5,30.1l-12,8.9v-7.7L88.7,17l54.7,20.6V38h0.3L191.2,59
		c-5-11.1-11.8-21-20.5-29.7C161.5,20.1,150.9,12.9,138.9,7.9z"/>
	<path fill="#114069" d="M143.7,38h-0.3l-0.1,21.3l23.3,8.7v102.7h4.1c9.2-9.2,16.4-19.8,21.4-31.8c5.2-12.4,7.9-25.4,7.9-38.9
		s-2.6-26.5-7.9-39c-0.3-0.7-0.6-1.3-0.9-2L143.7,38z"/>
	<rect x="44.2" y="70.2" fill="#FFFFFF" width="32.9" height="93.6"/>
	<path fill="#2DACD8" d="M82.4,36.5L39.8,68v111.8c6.5,5,13.6,9.1,21.3,12.3c12.4,5.2,25.4,7.9,39,7.9c6.1,0,12-0.5,17.9-1.6v-30.3
		l13.3,1v26c1.2-0.4,2.4-0.8,3.6-1.3l2.9-1.1c0.3-0.1,0.6-0.3,0.9-0.4c0.1,0,0.2,0,0.2-0.1l0.2-0.1c1.4-0.6,2.9-1.2,4.2-1.9V170
		l13.3,1v11.6c3.6-2.4,6.9-5.1,10.2-8V68L82.4,36.5 M143.2,65.4l13.3,4.7v20.7l-13.3-4V65.4 M117.9,56.4l13.3,4.7v22.1l-13.3-3.9
		V56.4 M105.8,90.5v23.6l-13.3-2.8V87L105.8,90.5 M131.2,119.3l-13.3-2.8V93.6l13.3,3.5V119.3 M156.4,124.5l-13.3-2.7v-21.4
		l13.3,3.5V124.5 M105.8,52.1v23.6l-13.3-4V47.4L105.8,52.1 M62.1,84.2L62,98.8l11.8,30.9c1,2.7,1.1,5.7,0.4,9
		c-0.4,1.6-0.8,2.9-1.5,3.8s-1.4,1.5-2.2,1.6l-21.9,3.6c-1,0.2-1.7-0.9-2.1-3.3c-0.4-2.3-0.2-4.7,0.4-7.1l9.4-35.1l0.3-14
		c-0.7-0.1-1-1-1.1-2.6l7.9-6.2C63.4,81.3,62.9,82.9,62.1,84.2 M92.6,190.6v-24.4l13.3,1v23.6L92.6,190.6 M156.4,158.1l-13.3-1.4
		v-21.5l13.3,2.3V158.1 M105.8,128.9v23.6L92.6,151v-24.4L105.8,128.9 M131.2,155.3l-13.3-1.5v-22.9l13.3,2.2V155.3 M53.7,133.5
		c-0.1-0.4-0.4-0.5-0.6-0.5c-0.2,0.1-0.5,0.4-0.7,0.9c-0.2,0.5-0.3,1.1-0.3,1.7c0,0.6,0,1.2,0.2,1.6c0.2,0.4,0.4,0.5,0.6,0.5
		c0.3,0,0.5-0.3,0.7-0.8c0.2-0.5,0.3-1.1,0.3-1.8C54,134.4,53.9,133.9,53.7,133.5 M58.7,131.3c-0.3,0.1-0.5,0.4-0.7,1
		c-0.2,0.5-0.3,1.1-0.3,1.8c0,0.7,0.1,1.2,0.3,1.7c0.2,0.4,0.5,0.6,0.7,0.5c0.3-0.1,0.5-0.4,0.7-1c0.2-0.5,0.3-1.1,0.3-1.9
		c0-0.7-0.1-1.2-0.3-1.7C59.2,131.3,58.9,131.2,58.7,131.3 M65.8,129.8c-0.2-0.5-0.5-0.6-0.8-0.5c-0.3,0.1-0.6,0.4-0.8,1
		c-0.2,0.6-0.4,1.3-0.4,2s0.1,1.3,0.4,1.8c0.2,0.5,0.5,0.7,0.8,0.6c0.4-0.1,0.6-0.4,0.8-1c0.2-0.6,0.4-1.3,0.4-2
		S66,130.3,65.8,129.8 M62.7,122.3c-0.2-0.5-0.5-0.7-0.9-0.5c-0.4,0.1-0.7,0.5-0.9,1.2c-0.2,0.6-0.4,1.3-0.4,2.1
		c0,0.8,0.1,1.4,0.3,1.9c0.2,0.5,0.5,0.7,0.9,0.5c0.4-0.1,0.7-0.5,0.9-1.1c0.2-0.7,0.4-1.4,0.4-2.2C63,123.4,62.9,122.8,62.7,122.3
		 M60.8,85.1l-3,2.3l-0.3,15l-4.9,18.4l13.4-5.9l-5.3-14.4L60.8,85.1 M55.9,124.2c-0.3,0.1-0.6,0.5-0.8,1.1s-0.3,1.3-0.4,2
		c0,0.7,0.1,1.3,0.3,1.8s0.5,0.6,0.8,0.5s0.6-0.5,0.8-1.1c0.2-0.6,0.3-1.3,0.3-2.1c0-0.8-0.1-1.4-0.3-1.8
		C56.5,124.2,56.3,124,55.9,124.2 M143.4,53.4V37.6L88.7,17L69.5,31.3V39l12-8.9L143.4,53.4z"/>
	<path fill="#114069" d="M135.4,6.6l-1.1-0.4c-0.7-0.3-1.4-0.5-2.1-0.8l-0.4-0.1c-0.8-0.3-1.5-0.5-2.3-0.8c0.4,0.1,0.8,0.2,1.2,0.3
		C120.8,1.6,110.6,0,100,0c-0.1,0-0.2,0-0.3,0C88,0,76.7,2,65.8,5.9L65.7,6c-1.6,0.6-3.2,1.2-4.8,1.9C49,12.9,38.4,20,29.2,29.2
		S12.9,49,7.9,60.9c-0.7,1.6-1.3,3.2-1.9,4.8l-0.1,0.2C2,76.7,0,88,0,99.7c0,0.1,0,0.2,0,0.3c0,0.3,0,0.6,0,0.8c0,0.1,0,0.2,0,0.3
		c0,0.1,0,0.2,0,0.3c0,0.1,0,0.1,0,0.2c0,0.2,0,0.4,0,0.6c0,0.1,0,0.2,0,0.2c0,0.1,0,0.1,0,0.2c0,0.1,0,0.2,0,0.2
		c0.2,6.2,0.9,12.3,2.2,18.2l0.7,3.3c0,0,0,0,0.1,0.1l0.8,2.9c0.1,0.3,0.2,0.7,0.3,1l2.8,8c0.1,0.2,0.1,0.4,0.2,0.5l0.3,0.7
		c3,7.2,6.9,14.1,11.7,20.7c6,8.3,13,15.5,20.8,21.3v-6.3c-4.3-4.6-8.1-9.7-11.5-15.2c-10-16.1-15.1-33.7-15.1-52.8
		c0-13.5,2.6-26.5,7.8-38.8c5.1-12,12.2-22.5,21.4-31.7S62.1,18.4,74,13.4c4.1-1.8,8.4-3.2,12.6-4.4c8.5-2.3,17.2-3.5,26.2-3.5
		c10.9,0,21.4,1.7,31.6,5.1l0.1-0.1C141.5,9.1,138.5,7.8,135.4,6.6z"/>
</g>
<g id="Layer_1_1_">
</g>
</svg>
