<?xml version="1.0" encoding="iso-8859-1"?>
<!-- Generator: Adobe Illustrator 18.1.0, SVG Export Plug-In . SVG Version: 6.00 Build 0)  -->
<!DOCTYPE svg PUBLIC "-//W3C//DTD SVG 1.1//EN" "http://www.w3.org/Graphics/SVG/1.1/DTD/svg11.dtd">
<svg version="1.1" xmlns="http://www.w3.org/2000/svg" xmlns:xlink="http://www.w3.org/1999/xlink" x="0px" y="0px"
	 viewBox="0 0 205.086 204.936" style="enable-background:new 0 0 205.086 204.936;" xml:space="preserve">
<g id="circle_x5F_servers">
	<path style="fill:#114069;" d="M115.703,5.615c11.029,0,21.857,1.704,32.284,5.214v-0.1c-2.507-1.303-5.013-2.406-7.62-3.409v-0.1
		C128.235,2.406,115.602,0,102.368,0c-0.1,0-0.201,0-0.301,0c-12.031,0-23.562,2.106-34.59,6.016l-0.201,0.1
		c-1.604,0.602-3.309,1.203-4.913,1.905c-12.232,5.214-22.96,12.533-32.385,21.957S13.235,50.231,8.021,62.363
		c-1.303,3.208-2.507,6.417-3.509,9.725l-0.1,0.301C1.504,82.014,0,91.84,0,102.167c0,0.1,0,0.201,0,0.201
		c0,4.512,0.301,8.923,0.902,13.235c0,0.1,0,0.201,0,0.201c0,0.1,0,0.1,0.1,0.201c1.103,8.222,3.208,16.242,6.216,23.963
		c0.1,0.301,0.201,0.602,0.301,0.902c0.1,0.201,0.201,0.401,0.201,0.501l0.1,0.201c3.008,7.018,6.918,13.836,11.63,20.253
		c4.813,6.517,10.026,12.332,15.841,17.446c9.725,8.422,20.955,14.839,33.588,19.25h0.201
		c-16.844-8.623-30.179-20.855-40.205-36.896c-10.327-16.443-15.44-34.49-15.44-54.041c0-13.836,2.707-27.071,8.021-39.704
		c5.214-12.232,12.433-23.06,21.957-32.485c9.425-9.425,20.253-16.744,32.485-21.957C88.632,8.322,101.866,5.615,115.703,5.615z"/>
	<path style="fill:#00619E;" d="M142.473,8.021c-0.602-0.301-1.203-0.501-1.905-0.802v0.1c2.607,1.003,5.113,2.206,7.62,3.409v0.1
		c-10.528-3.509-21.256-5.214-32.284-5.214c-13.836,0-27.071,2.707-39.704,8.021c-12.232,5.214-23.06,12.433-32.485,21.957
		C34.29,45.018,26.97,55.846,21.757,68.078c-5.314,12.633-8.021,25.968-8.021,39.704c0,19.551,5.113,37.498,15.44,54.041
		c10.026,16.042,23.361,28.374,40.205,36.896h-0.201c-12.633-4.412-23.862-10.828-33.588-19.25
		c-5.815-5.113-11.129-10.929-15.841-17.446s-8.522-13.235-11.63-20.253c0.1,0.201,0.201,0.401,0.201,0.602
		c5.214,12.232,12.533,23.161,21.957,32.585c1.704,1.704,3.409,3.208,5.113,4.813c8.222,7.119,17.345,12.834,27.472,17.145
		c12.633,5.414,25.968,8.021,39.904,8.021s27.171-2.707,39.904-8.021c7.119-3.008,13.836-6.818,20.052-11.229l-110.389-26.67
		c-0.501,0-0.902-0.1-1.404-0.401l-0.602-0.1l0.602,0.1c-0.401-0.201-0.702-0.401-1.003-0.802c-0.702-0.702-1.103-1.604-1.103-2.607
		v-18.147l0,0V49.83c0-1.003,0.401-1.805,1.103-2.507c0.702-0.702,1.604-1.103,2.607-1.103l99.36-0.201l43.514,12.834
		c-5.013-10.628-11.731-20.153-20.153-28.575C165.533,20.453,154.705,13.134,142.473,8.021z"/>
	<path style="fill:#114069;" d="M65.822,142.673c0-0.201-0.1-0.401-0.201-0.501c-0.1-0.201-0.301-0.201-0.602-0.201h-6.417
		c-0.501,0-0.802,0.201-0.802,0.802v6.417c0,0.501,0.301,0.802,0.802,0.802h6.417c0.501,0,0.802-0.301,0.802-0.802V142.673
		 M65.02,120.816c0.501,0,0.802-0.301,0.802-0.802v-6.417c0-0.501-0.301-0.802-0.802-0.802h-6.417c-0.501,0-0.802,0.301-0.802,0.802
		v6.417c0,0.501,0.301,0.802,0.802,0.802H65.02 M143.626,143.375c0.401,0.401,0.902,0.602,1.504,0.602s1.103-0.201,1.504-0.602
		c0.401-0.401,0.602-0.902,0.602-1.504s-0.201-1.103-0.602-1.504c-0.401-0.401-1.003-0.702-1.504-0.702
		c-0.602,0-1.103,0.201-1.504,0.702c-0.401,0.401-0.602,0.902-0.602,1.504C142.924,142.372,143.124,142.974,143.626,143.375
		 M135.504,140.367c-0.401,0.401-0.602,0.902-0.602,1.504s0.201,1.103,0.602,1.504s0.902,0.602,1.504,0.602s1.103-0.201,1.504-0.602
		c0.401-0.401,0.702-0.902,0.702-1.504s-0.201-1.103-0.702-1.504c-0.401-0.401-0.902-0.702-1.504-0.702
		C136.407,139.665,135.905,139.866,135.504,140.367 M126.08,141.871c0,0.602,0.201,1.103,0.602,1.504
		c0.401,0.401,0.902,0.602,1.504,0.602c0.602,0,1.103-0.201,1.504-0.602c0.401-0.401,0.702-0.902,0.702-1.504
		s-0.201-1.103-0.702-1.504c-0.401-0.401-0.902-0.702-1.504-0.702c-0.602,0-1.103,0.201-1.504,0.702
		C126.28,140.668,126.08,141.269,126.08,141.871 M130.391,112.795c0-0.602-0.201-1.103-0.702-1.504
		c-0.401-0.401-0.902-0.602-1.504-0.602c-0.602,0-1.103,0.201-1.504,0.602c-0.401,0.401-0.602,0.902-0.602,1.504
		c0,0.602,0.201,1.103,0.602,1.504c0.401,0.401,0.902,0.702,1.504,0.702c0.602,0,1.103-0.201,1.504-0.702
		C130.19,113.898,130.391,113.397,130.391,112.795 M139.214,112.795c0-0.602-0.201-1.103-0.702-1.504
		c-0.401-0.401-0.902-0.602-1.504-0.602s-1.103,0.201-1.504,0.602c-0.401,0.401-0.602,0.902-0.602,1.504
		c0,0.602,0.201,1.103,0.602,1.504c0.401,0.401,0.902,0.702,1.504,0.702s1.103-0.201,1.504-0.702
		C138.913,113.898,139.214,113.397,139.214,112.795 M146.633,111.291c-0.401-0.401-1.003-0.602-1.504-0.602
		c-0.602,0-1.103,0.201-1.504,0.602c-0.401,0.401-0.602,0.902-0.602,1.504c0,0.602,0.201,1.103,0.602,1.504
		c0.401,0.401,0.902,0.702,1.504,0.702s1.103-0.201,1.504-0.702c0.401-0.401,0.602-0.902,0.602-1.504
		C147.235,112.193,147.034,111.692,146.633,111.291 M145.13,81.613c-0.301,0-0.602,0.1-0.902,0.201
		c-0.201,0.1-0.401,0.301-0.602,0.401c-0.401,0.401-0.602,0.902-0.602,1.504c0,0.602,0.201,1.103,0.602,1.504
		c0.401,0.401,0.902,0.602,1.504,0.602s1.103-0.201,1.504-0.602c0.401-0.401,0.602-0.902,0.602-1.504
		c0-0.602-0.201-1.103-0.602-1.504c-0.201-0.201-0.401-0.301-0.602-0.401C145.731,81.714,145.43,81.613,145.13,81.613
		 M129.088,81.814c-0.301-0.1-0.501-0.201-0.902-0.201c-0.301,0-0.602,0.1-0.902,0.201c-0.201,0.1-0.401,0.301-0.602,0.401
		c-0.401,0.401-0.602,0.902-0.602,1.504c0,0.602,0.201,1.103,0.602,1.504c0.401,0.401,0.902,0.602,1.504,0.602
		c0.602,0,1.103-0.201,1.504-0.602c0.401-0.401,0.702-0.902,0.702-1.504c0-0.602-0.201-1.103-0.702-1.504
		C129.589,82.115,129.288,81.914,129.088,81.814 M136.106,81.814c-0.201,0.1-0.401,0.301-0.602,0.401
		c-0.401,0.401-0.602,0.902-0.602,1.504c0,0.602,0.201,1.103,0.602,1.504c0.401,0.401,0.902,0.602,1.504,0.602
		s1.103-0.201,1.504-0.602c0.401-0.401,0.702-0.902,0.702-1.504c0-0.602-0.201-1.103-0.702-1.504
		c-0.201-0.201-0.401-0.301-0.602-0.401c-0.301-0.1-0.501-0.201-0.902-0.201C136.707,81.613,136.407,81.714,136.106,81.814
		 M130.391,54.643c0-0.602-0.201-1.103-0.702-1.504c-0.401-0.401-0.902-0.602-1.504-0.602c-0.602,0-1.103,0.201-1.504,0.602
		c-0.401,0.401-0.602,0.902-0.602,1.504c0,0.602,0.201,1.103,0.602,1.604c0.401,0.401,0.902,0.602,1.504,0.602
		c0.602,0,1.103-0.201,1.504-0.602C130.19,55.846,130.391,55.345,130.391,54.643 M138.512,56.247
		c0.401-0.401,0.702-0.902,0.702-1.604c0-0.602-0.201-1.103-0.702-1.504c-0.401-0.401-0.902-0.602-1.504-0.602
		s-1.103,0.201-1.504,0.602c-0.401,0.401-0.602,0.902-0.602,1.504c0,0.602,0.201,1.103,0.602,1.604
		c0.401,0.401,0.902,0.602,1.504,0.602S138.111,56.648,138.512,56.247 M142.924,54.643c0,0.602,0.201,1.103,0.602,1.604
		c0.401,0.401,0.902,0.602,1.504,0.602c0.602,0,1.103-0.201,1.504-0.602c0.401-0.401,0.602-0.902,0.602-1.604
		c0-0.602-0.201-1.103-0.602-1.504c-0.401-0.401-1.003-0.602-1.504-0.602c-0.602,0-1.103,0.201-1.504,0.602
		C143.124,53.64,142.924,54.142,142.924,54.643 M65.822,84.621c0-0.501-0.301-0.802-0.802-0.802h-6.417
		c-0.501,0-0.802,0.301-0.802,0.802v6.417c0,0.201,0.1,0.401,0.201,0.602c0.1,0.201,0.301,0.201,0.501,0.201h6.417
		c0.201,0,0.401-0.1,0.602-0.201c0.201-0.201,0.201-0.301,0.201-0.602v-6.417 M65.02,62.764c0.501,0,0.802-0.201,0.802-0.802v-6.417
		c0-0.501-0.301-0.802-0.802-0.802h-6.417c-0.501,0-0.802,0.301-0.802,0.802v6.417c0,0.501,0.301,0.802,0.802,0.802H65.02
		 M195.261,58.653L195.261,58.653L151.747,45.82l-9.425,0.1l9.324,0.1c0.501,0,1.003,0.1,1.404,0.301
		c0.401,0.201,0.802,0.401,1.203,0.802c0.702,0.702,1.003,1.604,1.003,2.607v18.248c0,1.003-0.401,1.905-1.003,2.607
		c-0.702,0.702-1.604,1.103-2.607,1.103h-99.36c-1.003,0-1.905-0.301-2.607-1.103c-0.702-0.702-1.103-1.504-1.103-2.507v10.628
		c0-1.003,0.401-1.805,1.103-2.406c0.702-0.702,1.604-1.103,2.607-1.103h99.36c1.003,0,1.905,0.401,2.607,1.103
		c0.702,0.702,1.003,1.504,1.003,2.507v18.248c0,1.003-0.401,1.905-1.003,2.607c-0.702,0.702-1.604,1.103-2.607,1.103h-99.46
		c-1.003,0-1.805-0.401-2.406-1.103c-0.702-0.702-1.103-1.504-1.103-2.507v10.728c0-1.003,0.401-1.805,1.103-2.507
		c0.702-0.702,1.604-1.103,2.607-1.103h99.36c1.003,0,1.905,0.401,2.607,1.103c0.702,0.702,1.003,1.604,1.003,2.607v18.147
		c0,1.003-0.401,1.905-1.003,2.607c-0.702,0.702-1.604,1.003-2.607,1.003h-99.36c-1.003,0-1.905-0.301-2.607-1.003
		c-0.702-0.702-1.103-1.504-1.103-2.507v10.628c0-1.003,0.401-1.805,1.103-2.507c0.702-0.702,1.604-1.103,2.607-1.103h99.36
		c1.003,0,1.905,0.401,2.607,1.103c0.702,0.702,1.003,1.604,1.003,2.607v18.147c0,1.003-0.401,1.905-1.003,2.607
		c-0.702,0.702-1.604,1.103-2.607,1.103h-99.36c-0.1,0-0.1,0-0.201,0l110.389,26.77c4.412-3.208,8.623-6.818,12.533-10.628
		c9.425-9.425,16.744-20.353,21.857-32.585c5.414-12.633,8.121-25.968,8.121-39.904s-2.707-27.171-8.121-39.904
		c-0.1-0.1-0.1-0.301-0.1-0.401l-0.902-2.206C195.561,59.456,195.461,59.054,195.261,58.653z"/>
	<rect x="113.593" y="47.13" style="fill:#FFFFFF;" width="37.735" height="15.734"/>
	<rect x="113.593" y="77.154" style="fill:#FFFFFF;" width="37.735" height="15.734"/>
	<rect x="113.593" y="106.178" style="fill:#FFFFFF;" width="37.735" height="15.734"/>
	<rect x="113.593" y="136.202" style="fill:#FFFFFF;" width="37.735" height="15.734"/>
	<path style="fill:#2DACD8;" d="M155.256,136.858c0-1.003-0.401-1.905-1.003-2.607c-0.702-0.702-1.604-1.103-2.607-1.103h-99.36
		c-1.003,0-1.905,0.401-2.607,1.103c-0.702,0.702-1.103,1.604-1.103,2.607v18.147c0,1.003,0.401,1.905,1.103,2.607
		c0.301,0.301,0.602,0.602,1.003,0.802l0.1,0.1c0.401,0.201,0.802,0.301,1.303,0.301c0.1,0,0.1,0,0.201,0h99.36
		c1.003,0,1.905-0.401,2.607-1.103c0.702-0.702,1.003-1.604,1.003-2.607V136.858 M126.681,143.375
		c-0.401-0.401-0.602-0.902-0.602-1.504s0.201-1.103,0.602-1.504c0.401-0.401,0.902-0.702,1.504-0.702
		c0.602,0,1.103,0.201,1.504,0.702c0.401,0.401,0.702,0.902,0.702,1.504s-0.201,1.103-0.702,1.504
		c-0.401,0.401-0.902,0.602-1.504,0.602C127.584,143.977,127.082,143.776,126.681,143.375 M134.803,141.871
		c0-0.602,0.201-1.103,0.602-1.504c0.401-0.401,0.902-0.702,1.504-0.702c0.602,0,1.103,0.201,1.504,0.702
		c0.401,0.401,0.702,0.902,0.702,1.504s-0.201,1.103-0.702,1.504c-0.401,0.401-0.902,0.602-1.504,0.602
		c-0.602,0-1.103-0.201-1.504-0.602C135.103,142.974,134.803,142.372,134.803,141.871 M145.13,139.665
		c0.602,0,1.103,0.201,1.504,0.702c0.401,0.401,0.602,0.902,0.602,1.504s-0.201,1.103-0.602,1.504
		c-0.401,0.401-1.003,0.602-1.504,0.602c-0.602,0-1.103-0.201-1.504-0.602c-0.401-0.401-0.602-0.902-0.602-1.504
		s0.201-1.103,0.602-1.504C144.027,139.866,144.428,139.665,145.13,139.665 M65.02,141.871c0.201,0,0.401,0.1,0.602,0.201
		c0.201,0.1,0.201,0.301,0.201,0.501v6.417c0,0.501-0.301,0.802-0.802,0.802h-6.417c-0.501,0-0.802-0.301-0.802-0.802v-6.417
		c0-0.501,0.301-0.802,0.802-0.802h6.417 M154.253,105.175c-0.702-0.702-1.604-1.103-2.607-1.103h-99.36
		c-1.003,0-1.905,0.401-2.607,1.103c-0.702,0.702-1.103,1.604-1.103,2.607v18.147c0,1.003,0.401,1.905,1.103,2.607
		c0.702,0.702,1.604,1.003,2.607,1.003h99.36c1.003,0,1.905-0.301,2.607-1.003c0.702-0.702,1.003-1.604,1.003-2.607v-18.147
		C155.256,106.779,154.955,105.877,154.253,105.175 M142.924,112.795c0-0.602,0.201-1.103,0.602-1.504
		c0.401-0.401,0.902-0.602,1.504-0.602c0.602,0,1.103,0.201,1.504,0.602c0.401,0.401,0.602,0.902,0.602,1.504
		c0,0.602-0.201,1.103-0.602,1.504c-0.401,0.401-1.003,0.702-1.504,0.702c-0.602,0-1.103-0.201-1.504-0.702
		C143.124,113.898,142.924,113.397,142.924,112.795 M137.008,110.589c0.602,0,1.103,0.201,1.504,0.602
		c0.401,0.401,0.702,0.902,0.702,1.504s-0.201,1.103-0.702,1.504c-0.401,0.401-0.902,0.702-1.504,0.702s-1.103-0.201-1.504-0.702
		c-0.401-0.401-0.602-0.902-0.602-1.504s0.201-1.103,0.602-1.504C135.905,110.89,136.407,110.589,137.008,110.589 M128.185,110.589
		c0.602,0,1.103,0.201,1.504,0.602c0.401,0.401,0.702,0.902,0.702,1.504s-0.201,1.103-0.702,1.504
		c-0.401,0.401-0.902,0.702-1.504,0.702c-0.602,0-1.103-0.201-1.504-0.702c-0.401-0.401-0.602-0.902-0.602-1.504
		s0.201-1.103,0.602-1.504C127.082,110.89,127.584,110.589,128.185,110.589 M65.822,120.014c0,0.501-0.301,0.802-0.802,0.802h-6.417
		c-0.501,0-0.802-0.301-0.802-0.802v-6.417c0-0.501,0.301-0.802,0.802-0.802h6.417c0.501,0,0.802,0.301,0.802,0.802V120.014
		 M52.287,75.096c-1.003,0-1.905,0.401-2.607,1.103c-0.702,0.702-1.103,1.504-1.103,2.406v18.348c0,1.003,0.401,1.805,1.103,2.507
		c0.702,0.702,1.504,1.003,2.406,1.103h99.46c1.003,0,1.905-0.401,2.607-1.103c0.702-0.702,1.003-1.604,1.003-2.607V78.606
		c0-1.003-0.401-1.805-1.003-2.507c-0.702-0.702-1.604-1.103-2.607-1.103h-99.26 M65.02,83.819c0.501,0,0.802,0.301,0.802,0.802
		v6.417c0,0.201-0.1,0.401-0.201,0.602c-0.1,0.201-0.301,0.201-0.602,0.201h-6.417c-0.201,0-0.401-0.1-0.501-0.201
		c-0.201-0.201-0.201-0.301-0.201-0.602v-6.417c0-0.501,0.301-0.802,0.802-0.802H65.02 M129.689,82.215
		c0.401,0.401,0.702,0.902,0.702,1.504c0,0.602-0.201,1.103-0.702,1.504c-0.401,0.401-0.902,0.602-1.504,0.602
		c-0.602,0-1.103-0.201-1.504-0.602c-0.401-0.401-0.602-0.902-0.602-1.504c0-0.602,0.201-1.103,0.602-1.504
		c0.401-0.401,0.902-0.602,1.504-0.602C128.787,81.613,129.288,81.814,129.689,82.215 M135.504,85.223
		c-0.401-0.401-0.602-0.902-0.602-1.504c0-0.602,0.201-1.103,0.602-1.504s0.902-0.602,1.504-0.602s1.103,0.201,1.504,0.602
		c0.401,0.401,0.702,0.902,0.702,1.504c0,0.602-0.201,1.103-0.702,1.504c-0.401,0.401-0.902,0.602-1.504,0.602
		C136.407,85.925,135.905,85.624,135.504,85.223 M143.626,82.215c0.401-0.401,0.902-0.602,1.504-0.602s1.103,0.201,1.504,0.602
		c0.401,0.401,0.602,0.902,0.602,1.504c0,0.602-0.201,1.103-0.602,1.504c-0.401,0.401-1.003,0.602-1.504,0.602
		c-0.602,0-1.103-0.201-1.504-0.602c-0.401-0.401-0.602-0.902-0.602-1.504C142.924,83.117,143.124,82.616,143.626,82.215
		 M52.287,46.02c-1.003,0-1.905,0.401-2.607,1.103c-0.702,0.702-1.103,1.504-1.103,2.507v18.348c0,1.003,0.401,1.805,1.103,2.507
		c0.702,0.702,1.604,1.103,2.607,1.103h99.36c1.003,0,1.905-0.301,2.607-1.103c0.702-0.702,1.003-1.604,1.003-2.607V49.63
		c0-1.003-0.401-1.905-1.003-2.607c-0.401-0.401-0.802-0.602-1.203-0.802c-0.401-0.201-0.902-0.301-1.404-0.301h-99.36
		 M65.822,55.646v6.417c0,0.501-0.301,0.802-0.802,0.802h-6.417c-0.501,0-0.802-0.201-0.802-0.802v-6.417
		c0-0.501,0.301-0.802,0.802-0.802h6.417C65.521,54.843,65.822,55.044,65.822,55.646 M145.13,56.849
		c-0.602,0-1.103-0.201-1.504-0.602c-0.401-0.401-0.602-0.902-0.602-1.604c0-0.602,0.201-1.103,0.602-1.504s0.902-0.602,1.504-0.602
		s1.103,0.201,1.504,0.602c0.401,0.401,0.602,0.902,0.602,1.504c0,0.602-0.201,1.103-0.602,1.604
		C146.232,56.648,145.631,56.849,145.13,56.849 M138.512,53.139c0.401,0.401,0.702,0.902,0.702,1.504
		c0,0.602-0.201,1.103-0.702,1.604c-0.401,0.401-0.902,0.602-1.504,0.602s-1.103-0.201-1.504-0.602
		c-0.401-0.401-0.602-0.902-0.602-1.604c0-0.602,0.201-1.103,0.602-1.504s0.902-0.602,1.504-0.602
		C137.61,52.537,138.111,52.738,138.512,53.139 M128.185,52.537c0.602,0,1.103,0.201,1.504,0.602
		c0.401,0.401,0.702,0.902,0.702,1.504c0,0.602-0.201,1.103-0.702,1.604c-0.401,0.401-0.902,0.602-1.504,0.602
		c-0.602,0-1.103-0.201-1.504-0.602c-0.401-0.401-0.602-0.902-0.602-1.604c0-0.602,0.201-1.103,0.602-1.504
		C127.082,52.738,127.584,52.537,128.185,52.537z"/>
	<rect x="57.801" y="54.168" style="fill:#F19126;" width="8.696" height="8.696"/>
	<rect x="57.801" y="83.293" style="fill:#F19126;" width="8.696" height="8.696"/>
	<rect x="57.801" y="112.418" style="fill:#F19126;" width="8.696" height="8.696"/>
	<rect x="57.801" y="141.543" style="fill:#F19126;" width="8.696" height="8.696"/>
</g>
<g id="Layer_1">
</g>
</svg>
