<?xml version="1.0" encoding="utf-8"?>
<!-- Generator: Adobe Illustrator 18.1.0, SVG Export Plug-In . SVG Version: 6.00 Build 0)  -->
<svg version="1.1" id="Layer_1" xmlns="http://www.w3.org/2000/svg" xmlns:xlink="http://www.w3.org/1999/xlink" x="0px" y="0px"
	 width="200px" height="200px" viewBox="-47.2 77.2 200 200" enable-background="new -47.2 77.2 200 200" xml:space="preserve">
<path fill="#00619E" d="M2.3,238.9l0.1-1c-1.7,0.3-3.2,1.2-4.4,2.7c-1.2,1.4-1.8,3.1-1.8,5c0,2.2,0.7,4,2.2,5.5
	c0.7,0.8,1.5,1.3,2.4,1.7c0.9,0.4,1.9,0.6,2.9,0.6c2.1,0,3.8-0.8,5.3-2.3c1.5-1.5,2.2-3.3,2.2-5.5c0-1.8-0.6-3.5-1.7-4.9
	c-1.1-1.4-2.5-2.3-4.2-2.7l-0.1,0.9c1.5,0.4,2.6,1.2,3.6,2.4c1,1.3,1.4,2.7,1.4,4.3c0,1.9-0.6,3.5-1.9,4.9c-1.3,1.4-2.8,2-4.6,2
	c-1.8,0-3.4-0.7-4.7-2s-1.9-3-1.9-4.9c0-1.6,0.5-3.1,1.5-4.3C-0.4,240.1,0.8,239.3,2.3,238.9 M145.7,213.6l0.3,0.1
	c0.1-0.2,0.2-0.3,0.2-0.5c-0.1,0.2-0.1,0.4-0.2,0.5L145.7,213.6 M92.1,197.7c-0.2-0.2-0.3-0.3-0.5-0.5l-4.5-1.4
	c1.2,0.8,2.4,1.9,3.6,3.1c1.3,1.4,2.3,2.8,3.2,4.3c0.5,0.8,0.9,1.7,1.2,2.6H93c-1.6,0-3,0.6-4.2,1.8c-1.2,1.2-1.8,2.7-1.8,4.4v4.4
	h0.1L87,228.4c0.2,8.7,1.1,14.9,2.7,18.8l1,2c0.2,0.3,0.3,0.5,0.5,0.7c0.8,1.1,1.7,2,2.7,2.6c-0.7-0.1-1.6-0.4-2.5-0.7v-0.6
	c0-0.3-0.2-0.5-0.5-0.6l-2.3-1.2c-0.2-0.1-0.4-0.1-0.5-0.2c-0.4,0-0.7,0.1-0.9,0.5l-0.7,1.9c-0.1,0.6,0.1,1,0.9,1.2l2.6,0.7
	c0.5,0.1,0.9-0.1,1.1-0.6c2.1,0.8,3.9,1,5.5,0.7c1.7,0.4,3.5,0.1,5.5-0.7c0.3,0.5,0.7,0.7,1.1,0.6l2.6-0.7c0.4-0.1,0.6-0.2,0.7-0.4
	s0.2-0.4,0.1-0.7l-0.6-1.9c-0.2-0.4-0.5-0.5-0.9-0.5l-0.6,0.2l-2.3,1.2c-0.4,0.2-0.6,0.6-0.4,1.2c-1,0.4-1.8,0.6-2.5,0.7
	c1.2-0.8,2.3-1.9,3.1-3.4l1-2c1.6-3.8,2.5-10.1,2.7-18.8l-0.2-11.9h0.1v-4.4c0-0.7-0.1-1.4-0.3-2c-1.2-1.3-2.4-2.6-3.7-3.9
	c-0.6-0.2-1.2-0.3-1.9-0.3h-2.5c-0.6-1.9-1.5-3.6-2.7-5.3C94,199.6,93.1,198.7,92.1,197.7 M102.9,208.9c0.9,0.9,1.3,2,1.3,3.4v4.3
	h0.2c0.1,1.8,0.1,3.5,0.2,5.2c0.3,11.7-0.6,20-2.5,25l-1.3,2.5c-1.2,1.7-2.7,2.8-4.4,3.3c-1.7-0.4-3.1-1.5-4.4-3.3l-1.3-2.5
	c-1.4-3.6-2.2-9.2-2.4-16.9c-0.1-4.7-0.1-9.1,0.2-13.2h0.2v-4.3c0-1.3,0.4-2.4,1.3-3.4c0.9-0.9,2-1.4,3.2-1.4h6.5
	C100.9,207.5,102,208,102.9,208.9 M123.5,106.5c-9.2-9.2-19.8-16.4-31.8-21.4c-0.1,0-0.2-0.1-0.3-0.2l-6.8-2.6
	c-0.8-0.2-1.6-0.4-2.3-0.7c5.1,1.7,10.1,3.7,15,6.2v0.1c-10.2-3.4-20.8-5.1-31.6-5.1c-13.5,0-26.4,2.6-38.8,7.8
	c-11.9,5-22.5,12.2-31.7,21.4s-16.3,19.8-21.4,31.7C-31.4,156-34,169-34,182.5c0,16.8,3.9,32.4,11.7,46.9c0.7-2.9,1.5-5.9,2.3-8.9
	l2.7-8.6c1.4-3.3,3.4-5.7,6.3-7l3.9-1c0.5,0,9.3-2.8,26.4-8.3c-1,1.2-2,2.4-2.9,3.6c-5.3,7.1-9.1,15.5-11.5,25.1
	c-1.2,5-2,9.9-2.3,14.7c-0.1,1.3-0.1,2.6-0.2,3.9c-1.1,0.5-1.6,1.5-1.6,2.8c0,0.9,0.3,1.6,0.9,2.2c0.6,0.6,1.3,0.9,2.1,0.9
	c0.8,0,1.5-0.3,2.1-0.9c0.6-0.6,0.9-1.3,0.9-2.2c0-0.6-0.2-1.2-0.5-1.8c-0.4-0.5-0.8-0.9-1.3-1.1c0-1.5,0-3.1,0.1-4.7
	c0.3-4.4,1-9,2.2-13.9c1.3-5.1,3-9.7,5.1-14.1c0.1-0.2,0.2-0.5,0.3-0.7c1.6-3.2,3.4-6.2,5.4-9c0.9-1.2,1.8-2.4,2.8-3.5
	c0.8-1,1.7-1.9,2.6-2.8c0.9-0.7,1.9-1.5,3-2.3c2.2-1.6,3.7-2.6,4.5-2.8l-3.4,7.5c-2.5,6.1-4.5,12-5.9,17.6l4.6,1.2
	c3.6,1,6.6,2.1,9.2,3.3l-3.4,1.9c-2.6,1.6-4.8,3.4-6.6,5.3l3.4,2.7c2.7,2.4,5.3,5.1,7.8,8.1c6,7.1,10.6,14.6,13.6,22.7
	c1,2.7,1.9,5.5,2.6,8.3c0.7-2.8,1.5-5.5,2.6-8.2c3.1-8,7.6-15.6,13.7-22.8c4.1-4.7,7.7-8.3,11.1-10.8c-1.8-1.9-4-3.7-6.6-5.3
	l-3.4-1.9c4.1-1.8,8.6-3.3,13.7-4.4c-1.4-5.6-3.3-11.4-5.8-17.5c-1.8-4-2.9-6.5-3.3-7.4c-1-0.3-2-0.5-2.9-0.4l0.1,0.3v0.1
	c-0.1,1-0.4,1.8-0.9,2.3L55.6,202c2.4,1.9,4.1,3.7,5,5.4c-1.2,1.6-2.3,3.6-3.3,6c-0.5,1.2-0.8,2.2-1.1,3.1v3.6l2.8,7.9l0.6,17.3
	l-2.4,5.4c-1.3,3-2.4,5.7-3.4,8.2c-0.4,1.1-0.8,2.1-1.1,3.1c-0.3-1-0.7-2.1-1.2-3.2c-0.9-2.4-2-5.1-3.3-8.1l-2.5-5.4l0.7-17.3
	l2.8-7.9v-3.6c-1-3.4-2.4-6.5-4.3-9.1c0.9-1.7,2.6-3.6,5-5.4l-15.5-10.5c-0.5-0.5-0.8-1.3-0.9-2.3v-0.1l1.2-15.5
	c-2.2-4.2-3.9-8.9-4.9-14c-0.3,0.2-0.7,0.3-1.1,0.2c-0.9-0.2-1.6-1-2.1-2.6c-1.1-3-1.8-6.2-2.2-9.8c-0.6-4.6,0.1-6.5,2.1-5.8
	l-1.6-17.3c0-1,0.2-2.2,0.6-3.5c0.7-2.6,2.1-4.6,4.1-6c0.9-0.6,1.8-2.4,2.8-5.4c1.9-3,5.7-4.9,11.3-6c0.2,0,0.1-0.1-0.1-0.2
	c-0.4-0.1-0.7-0.3-0.9-0.4c-1.2-0.9-1.7-1.3-1.4-1.1c0.1,0,0.5,0.2,1.4,0.5c1,0.4,1.8,0.6,2.6,0.6l1.3,0.1c0.1,0,0.1,0,0-0.1
	c-0.4-0.2-0.8-0.4-1.1-0.7c-0.6-0.5-1.1-1.1-1.6-2c-0.6-1.1-0.7-1.4-0.3-0.9c0.2,0.4,1,0.8,2.1,1.2c1.2,0.5,2.3,0.8,3.1,0.8l4.4,0.1
	c3.6,0,6.9,0.5,9.8,1.4c0.7,0.2,1.3,0.4,2,0.7c1.8,0.7,3.5,1.7,5.2,3l77.9,40c-0.9-2.9-2-5.7-3.1-8.5
	C139.9,126.3,132.7,115.7,123.5,106.5z"/>
<path fill="#00619E" d="M128.9,242.1c-0.3,0.4-0.7,0.8-1,1.2c0,0,0,0.1,0,0.1L128.9,242.1 M104,207.8c-0.7-0.7-1.5-1.2-2.3-1.5
	c1.3,1.3,2.5,2.6,3.7,3.9C105.2,209.3,104.7,208.5,104,207.8z"/>
<rect x="-3.8" y="238.1" fill="#FFFFFF" width="20.5" height="19.8"/>
<path fill="#2DACD8" d="M43.7,99.6c-0.4-0.5-0.2-0.2,0.3,0.9c0.5,0.9,1,1.6,1.6,2c0.4,0.3,0.7,0.5,1.1,0.7c0.1,0.1,0.1,0.1,0,0.1
	l-1.3-0.1c-0.8-0.1-1.7-0.3-2.6-0.6c-0.9-0.3-1.3-0.5-1.4-0.5c-0.3-0.1,0.2,0.2,1.4,1.1c0.2,0.1,0.5,0.3,0.9,0.4
	c0.2,0.1,0.3,0.1,0.1,0.2c-5.7,1-9.4,3-11.3,6c-1,3-2,4.8-2.8,5.4c-2,1.5-3.3,3.5-4.1,6c-0.4,1.3-0.6,2.5-0.6,3.5l1.6,17.3
	c-2-0.7-2.6,1.2-2.1,5.8c0.4,3.6,1.2,6.8,2.2,9.8c0.5,1.5,1.2,2.4,2.1,2.6c0.4,0.1,0.8,0,1.1-0.2c1,5.1,2.6,9.8,4.9,14l-1.2,15.5
	v0.1c0.1,1,0.4,1.8,0.9,2.3L50.1,202c-2.4,1.9-4,3.7-5,5.4c1.9,2.6,3.3,5.7,4.3,9.1v3.6l-2.8,7.9L46,245.4l2.5,5.4
	c1.3,2.9,2.4,5.6,3.3,8.1c0.4,1.1,0.8,2.2,1.2,3.2c0.3-1,0.7-2,1.1-3.1c1-2.5,2.1-5.2,3.4-8.2l2.4-5.4l-0.6-17.3l-2.8-7.9v-3.6
	c0.2-0.9,0.6-1.9,1.1-3.1c1-2.4,2-4.4,3.3-6c-0.9-1.7-2.6-3.6-5-5.4L71,191.6c0.5-0.5,0.8-1.3,0.9-2.3v-0.1l-1.3-15.5
	c2.2-4.2,3.9-8.8,4.9-13.9c1.4,0.7,2.4-0.1,3.2-2.2c1.1-3,1.9-6.3,2.3-9.9c0.6-4.6-0.1-6.6-2.1-5.8l1.6-17.3c0.1-2.3-0.3-4.7-1.2-7
	c-0.5-1.4-1.1-2.4-1.8-3c-0.4-0.4-0.9-0.7-1.7-0.9c-0.4-0.1-0.7-0.5-0.7-1c0-0.9-0.4-1.8-1.1-2.6c-0.5-0.7-1.5-1.6-2.9-2.7
	c-0.3-0.2-0.6-0.5-0.9-0.7c-1.7-1.3-3.4-2.3-5.2-3c-0.6-0.3-1.3-0.5-2-0.7c-2.9-0.9-6.1-1.4-9.8-1.4l-4.4-0.1
	c-0.9,0-1.9-0.3-3.1-0.8C44.6,100.3,43.9,99.9,43.7,99.6 M104.2,212.3c0-1.3-0.4-2.4-1.3-3.4c-0.9-0.9-2-1.4-3.2-1.4h-6.5
	c-1.2,0-2.3,0.5-3.2,1.4c-0.9,0.9-1.3,2-1.3,3.4v4.3h-0.2c-0.2,4.2-0.3,8.6-0.2,13.2c0.2,7.7,1,13.3,2.4,16.9l1.3,2.5
	c1.2,1.7,2.7,2.8,4.4,3.3c1.7-0.4,3.2-1.5,4.4-3.3l1.3-2.5c1.9-4.9,2.7-13.3,2.5-25c0-1.6-0.1-3.4-0.2-5.2h-0.2V212.3 M95.4,198.4
	c-1.2-0.4-2.5-0.8-3.9-1.2c0,0,0.1,0.1,0.1,0.1c0.2,0.2,0.4,0.3,0.5,0.5c1,0.9,1.8,1.9,2.6,2.9c1.2,1.6,2,3.4,2.7,5.3h2.5
	c0.7,0,1.3,0.1,1.9,0.3c0.8,0.3,1.6,0.8,2.3,1.5c0.7,0.7,1.2,1.5,1.4,2.4c0.2,0.6,0.3,1.3,0.3,2v4.4h-0.1l0.2,11.9
	c-0.2,8.7-1.1,14.9-2.7,18.8l-1,2c-0.9,1.5-1.9,2.6-3.1,3.4c0.6-0.1,1.5-0.4,2.5-0.7c-0.1-0.6,0-1,0.4-1.2l2.3-1.2l0.6-0.2
	c0.4,0,0.7,0.1,0.9,0.5l0.6,1.9c0.1,0.3,0,0.6-0.1,0.7c-0.1,0.2-0.4,0.3-0.7,0.4l-2.6,0.7c-0.4,0.1-0.7-0.1-1.1-0.6
	c-2,0.8-3.9,1-5.5,0.7c-1.6,0.4-3.5,0.1-5.5-0.7c-0.2,0.5-0.5,0.7-1.1,0.6l-2.6-0.7c-0.7-0.2-1-0.6-0.9-1.2l0.7-1.9
	c0.1-0.4,0.4-0.5,0.9-0.5c0.2,0,0.4,0.1,0.5,0.2l2.3,1.2c0.3,0.1,0.4,0.3,0.5,0.6v0.6c0.9,0.4,1.7,0.6,2.5,0.7
	c-1-0.6-1.9-1.5-2.7-2.6c-0.2-0.2-0.3-0.5-0.5-0.7l-1-2c-1.6-3.8-2.5-10.1-2.7-18.8l0.2-11.9h-0.1v-4.4c0-1.7,0.6-3.2,1.8-4.4
	c1.1-1.2,2.5-1.8,4.2-1.8h2.1c-0.3-0.9-0.8-1.8-1.2-2.6c-0.9-1.5-1.9-3-3.2-4.3c-1.2-1.3-2.4-2.3-3.6-3.1c-0.1-0.1-0.3-0.1-0.4-0.2
	l-4.5-1.5c-3.7-3.1-6.2-4.8-7.5-5.1c0,0,0.1,0.1,0.2,0.3c0.4,0.9,1.5,3.3,3.3,7.4c2.5,6.1,4.5,11.9,5.8,17.5
	c-5.1,1.1-9.6,2.6-13.7,4.4l3.4,1.9c2.6,1.6,4.8,3.4,6.6,5.3c-3.3,2.5-7,6-11.1,10.8c-6.1,7.1-10.6,14.7-13.7,22.8
	c-1,2.7-1.9,5.4-2.6,8.2c-0.7-2.8-1.5-5.6-2.6-8.3c-3-8.1-7.6-15.7-13.6-22.7c-2.5-3-5.1-5.6-7.8-8.1l-3.4-2.7
	c1.8-1.9,4-3.7,6.6-5.3l3.4-1.9c-2.6-1.1-5.6-2.2-9.2-3.3l-4.6-1.2c1.4-5.7,3.3-11.5,5.9-17.6l3.4-7.5c-0.8,0.2-2.3,1.1-4.5,2.8
	c-1.1,0.8-2.1,1.6-3,2.3c-0.9,0.9-1.8,1.9-2.6,2.8c-1,1.1-1.9,2.3-2.8,3.5c-2,2.8-3.9,5.8-5.4,9c-0.1,0.2-0.2,0.5-0.3,0.7
	c-2.1,4.3-3.8,9-5.1,14.1c-1.2,4.9-1.9,9.5-2.2,13.9c-0.1,1.6-0.1,3.2-0.1,4.7c0.5,0.2,1,0.6,1.3,1.1c0.3,0.5,0.5,1.1,0.5,1.8
	c0,0.9-0.3,1.6-0.9,2.2c-0.6,0.6-1.3,0.9-2.1,0.9c-0.8,0-1.5-0.3-2.1-0.9c-0.6-0.6-0.9-1.3-0.9-2.2c0-1.3,0.5-2.2,1.6-2.8
	c0-1.3,0.1-2.6,0.2-3.9c0.3-4.8,1.1-9.7,2.3-14.7c2.4-9.7,6.2-18,11.5-25.1c0.9-1.2,1.9-2.5,2.9-3.6c-17.1,5.5-25.9,8.3-26.4,8.3
	l-3.9,1c-2.8,1.4-4.9,3.7-6.3,7l-2.7,8.6c-0.9,3-1.6,6-2.3,8.9c-0.9,3.7-1.6,7.3-2.2,10.8c0,0.1,0,0.2-0.1,0.3h-0.1
	c2.1,2.6,4.4,5.1,6.8,7.5c0.1,0.1,0.1,0.1,0.2,0.2c0.1,0.1,0.1,0.1,0.2,0.2c0.1,0.1,0.1,0.1,0.2,0.2l0.1,0.1
	c0.1,0.1,0.2,0.2,0.3,0.3c0.3,0.2,0.5,0.5,0.7,0.7l5.3,4.7c0.1,0.1,0.2,0.2,0.3,0.2c1.4,1.2,2.9,2.3,4.3,3.4
	c0.2,0.1,0.4,0.3,0.6,0.4c4.7,3.6,10.1,6.8,16.2,9.6c0.1,0.1,0.3,0.1,0.4,0.2c0.1,0.1,0.2,0.1,0.3,0.2c0.2,0.1,0.4,0.2,0.6,0.3
	c0.1,0.1,0.3,0.1,0.4,0.2c0.5,0.2,0.9,0.4,1.3,0.6c0.2,0.1,0.3,0.1,0.5,0.2c12.2,5.2,25,7.8,38.4,7.8c0.2,0,0.3,0,0.5,0
	c0.1,0,0.2,0,0.2,0c0.2,0,0.4,0,0.5,0c0.1,0,0.2,0,0.2,0c1.3,0,2.5,0,3.8-0.1l5.8-0.4c0.2,0,0.4,0,0.6-0.1c0.2,0,0.4-0.1,0.6-0.1
	c7.7-0.9,15.2-2.7,22.5-5.3c1.6-0.6,3.1-1.2,4.7-1.8c6.8-2.9,13.2-6.5,19.1-10.7c4-2.9,7.8-6,11.4-9.5c0.4-0.4,0.9-0.8,1.3-1.2
	c1.5-1.5,3-3.1,4.4-4.7c0.4-0.4,0.7-0.8,1-1.2l0.4-0.4c0.3-0.4,0.6-0.7,0.9-1.1c-1.1-5.8-2.6-12.3-4.6-19.5l-2.7-9.2
	c-1.4-3.3-3.5-5.7-6.3-7l-3.9-1C112.4,203.8,106.7,202,95.4,198.4 M2.4,238l-0.1,1c-1.5,0.4-2.7,1.2-3.7,2.4c-1,1.2-1.5,2.7-1.5,4.3
	c0,1.9,0.6,3.5,1.9,4.9s2.8,2,4.7,2c1.8,0,3.4-0.7,4.6-2c1.3-1.4,1.9-3,1.9-4.9c0-1.6-0.5-3-1.4-4.3c-0.9-1.2-2.1-2-3.6-2.4l0.1-0.9
	c1.7,0.4,3.1,1.3,4.2,2.7c1.1,1.4,1.7,3.1,1.7,4.9c0,2.2-0.7,4-2.2,5.5c-1.5,1.5-3.2,2.3-5.3,2.3c-1,0-2-0.2-2.9-0.6
	c-0.9-0.4-1.7-0.9-2.4-1.7c-1.5-1.5-2.2-3.3-2.2-5.5c0-1.9,0.6-3.6,1.8-5C-0.8,239.2,0.6,238.3,2.4,238z"/>
<path fill="#114069" d="M151.5,161c-0.7-5.2-1.8-10-3.3-14.2l-78-40.1c0.3,0.2,0.6,0.5,0.9,0.7c1.4,1.1,2.3,2,2.9,2.7
	c0.7,0.8,1.1,1.7,1.1,2.6c0.1,0.5,0.3,0.9,0.7,1c0.7,0.2,1.3,0.6,1.7,0.9c0.7,0.6,1.3,1.7,1.8,3c0.9,2.3,1.2,4.7,1.2,7L78.9,142
	c2-0.7,2.6,1.2,2.1,5.8c-0.4,3.6-1.2,6.8-2.3,9.9c-0.8,2.2-1.8,2.9-3.2,2.2c-1,5.1-2.6,9.7-4.9,13.9l1.2,15.1c1,0,1.9,0.1,2.9,0.4
	c-0.1-0.2-0.2-0.3-0.2-0.3c1.3,0.4,3.8,2.1,7.5,5.1l4.5,1.5c0.1,0.1,0.2,0.2,0.4,0.2l4.5,1.4c0,0-0.1-0.1-0.1-0.1
	c1.4,0.4,2.7,0.8,3.9,1.2c11.3,3.6,17,5.4,17.3,5.4l3.9,1c2.8,1.4,5,3.7,6.3,7l2.7,9.2c1.9,7.2,3.5,13.7,4.6,19.5l0.1-0.1
	c0.1-0.1,0.3-0.3,0.4-0.4l4.2-5.6c0.2-0.3,0.4-0.6,0.6-0.9c0.2-0.2,0.3-0.5,0.5-0.7l3.5-5.5c0.4-0.7,0.8-1.3,1.2-2
	c0.2-0.4,0.4-0.7,0.6-1.1c0.2-0.4,0.4-0.8,0.6-1.2c0.5-0.9,0.9-1.8,1.4-2.8c0.3-0.6,0.5-1.2,0.8-1.8c0.1-0.1,0.1-0.3,0.2-0.4
	c0.3-0.6,0.6-1.2,0.9-1.9c0.3-0.8,0.7-1.6,1-2.5l-0.3-0.1l0.3,0.1c0.1-0.2,0.2-0.4,0.2-0.5c4.4-11.5,6.7-23.4,6.7-35.9
	c0-0.2,0-0.4,0-0.5v-0.1C152.8,171.3,152.3,166.1,151.5,161z"/>
<path fill="#114069" d="M97.3,87.9L97.3,87.9c-4.9-2.5-9.9-4.6-15-6.2c0.8,0.2,1.6,0.5,2.3,0.7c-10.2-3.4-20.8-5.1-31.8-5.1
	c-0.1,0-0.2,0-0.3,0c-11.7,0-22.9,2-33.7,5.9l-0.3,0.1c-1.6,0.6-3.2,1.2-4.8,1.9C1.8,90.1-8.8,97.2-18,106.4
	c-9.2,9.2-16.3,19.7-21.4,31.7c-0.7,1.6-1.3,3.2-1.9,4.8v0.1c-3.9,10.9-5.9,22.2-6,34c0,0.1,0,0.2,0,0.3c0,13.1,2.4,25.7,7.3,37.7
	l0.4,1c0,0.1,0.1,0.1,0.1,0.2c3.8,8.9,8.6,17,14.7,24.3h0.1c0-0.1,0-0.2,0.1-0.3c0.6-3.5,1.4-7.1,2.2-10.8
	c-7.8-14.5-11.7-30.1-11.7-46.9c0-13.5,2.6-26.4,7.8-38.8c5-11.9,12.2-22.5,21.4-31.7s19.8-16.3,31.7-21.4
	c12.4-5.2,25.3-7.8,38.8-7.8C76.5,82.8,87,84.5,97.3,87.9z"/>
</svg>
