<?xml version="1.0" encoding="utf-8"?>
<!-- Generator: Adobe Illustrator 18.1.0, SVG Export Plug-In . SVG Version: 6.00 Build 0)  -->
<svg version="1.1" id="Layer_1" xmlns="http://www.w3.org/2000/svg" xmlns:xlink="http://www.w3.org/1999/xlink" x="0px" y="0px"
	 width="200px" height="200px" viewBox="0 0 200 200" enable-background="new 0 0 200 200" xml:space="preserve">
<g id="business">
	<path fill="#00619E" d="M89.3,159.5l-8.9-1.2v11.2l8.9,0.9V159.5 M103.1,178.2l-8.9-0.7v10.7l8.9,0.4V178.2 M136.6,175.6v-6.6
		l-17.7,2.7v6.1L136.6,175.6 M136.6,188.4v-6.6l-17.7,1.6v6.1L136.6,188.4 M75.5,176l-8.9-0.7v11.7l8.9,0.4V176 M80.4,176.4v11.2
		l8.9,0.4v-10.9L80.4,176.4 M75.5,157.6l-8.9-1.2v11.7l8.9,0.8V157.6 M66.6,149.2l8.9,1.4v-11.4l-8.9-1.8V149.2 M75.5,120.9
		l-8.9-2.3v11.7l8.9,2V120.9 M66.6,99.8v11.7l8.9,2.4v-11.4L66.6,99.8 M75.5,84.2l-8.9-3.3v11.7l8.9,3V84.2 M75.5,65.8L66.6,62v11.7
		l8.9,3.5V65.8 M89.3,117.7v-10.9l-8.9-2.7v11.1L89.3,117.7 M136.6,162.7v-6.6l-17.7,3.8v6.1L136.6,162.7 M141,129l-7.3,2.3v3.9
		l6.9-2.2l28.1,16v23.6c0.7-0.6,1.4-1.3,2-2c0.6-0.6,1.1-1.1,1.6-1.7v-22L141,129 M118.9,148.1v6.1l17.7-4.2v-6.6L118.9,148.1
		 M103.1,161.4l-8.9-1.2v10.7l8.9,0.9V161.4 M89.3,152.8v-10.9l-8.9-1.7v11.1L89.3,152.8 M94.3,153.6l8.9,1.4v-10.4l-8.9-1.8V153.6
		 M89.3,135.2v-10.9l-8.9-2.2v11.2L89.3,135.2 M103.1,127.9l-8.9-2.2v10.7l8.9,1.9V127.9 M89.3,100.1V89.2L80.4,86v11.2L89.3,100.1
		 M103.1,111.1l-8.9-2.8v10.7l8.9,2.4V111.1 M103.1,94.3l-8.9-3.2v10.7l8.9,3V94.3 M89.3,82.5V71.7l-8.9-3.8v11.2L89.3,82.5
		 M103.1,77.5l-8.9-3.8v10.7l8.9,3.5V77.5 M103.1,71.2V60.8l-8.9-4.2v10.7L103.1,71.2 M89.3,54.1l-8.9-4.3V61l8.9,3.9V54.1
		 M75.5,47.5l-8.9-4.3v11.7l8.9,4V47.5 M74,13.4c-9.7,4.1-18.4,9.5-26.3,16.3c-1.8,1.6-3.6,3.3-5.4,5C33.2,43.9,26,54.5,21,66.5
		c-5.2,12.3-7.8,25.3-7.8,38.8c0,19.1,5,36.7,15.1,52.8c0.1,0.2,0.3,0.5,0.4,0.7v-104l32.4-23l47.6,24.2v0.3l29.8,13.3l24.9-15.1
		l0.3,0.2l31.2,13.7c-0.8-2.4-1.7-4.9-2.8-7.3c-2.4-5.6-5.2-11-8.5-16c-3.6-5.4-7.8-10.5-12.5-15.3c-0.1-0.1-0.3-0.3-0.4-0.4
		c-9.2-9.2-19.8-16.4-31.8-21.4c-0.1,0-0.2-0.1-0.3-0.2l-3.2-1.1c3.1,1.2,6.1,2.5,9.1,4l-0.1,0.1c-10.2-3.4-20.7-5.1-31.6-5.1
		C99.3,5.5,86.4,8.1,74,13.4z"/>
	<rect x="112.3" y="142" fill="#FFFFFF" width="26.6" height="50.2"/>
	<path fill="#114069" d="M65.8,5.9L65.7,6c-1.6,0.6-3.2,1.2-4.8,1.9C49,12.9,38.4,20,29.2,29.2S12.9,49,7.9,60.9
		c-0.7,1.6-1.3,3.2-1.9,4.8l-0.1,0.2C2,76.7,0,88,0,99.7c0,0.1,0,0.2,0,0.3c0,8.3,1,16.5,3,24.4c0.3,1.3,0.7,2.6,1.1,3.9l2.8,8
		c0.1,0.2,0.1,0.4,0.2,0.5c3,7.4,7,14.6,11.9,21.4c3,4.2,6.3,8,9.7,11.6v-11c-0.1-0.2-0.3-0.5-0.4-0.7c-10-16.1-15.1-33.7-15.1-52.8
		c0-13.5,2.6-26.5,7.8-38.8c5.1-12,12.2-22.5,21.4-31.7S62.1,18.4,74,13.4c12.3-5.2,25.3-7.9,38.8-7.9c10.9,0,21.4,1.7,31.6,5.1
		l0.1-0.1c-3-1.5-6-2.8-9.1-4l-1.1-0.4c-0.7-0.3-1.4-0.5-2.1-0.8l-0.4-0.1c-0.8-0.3-1.5-0.5-2.3-0.8c0.4,0.1,0.8,0.2,1.2,0.3
		C120.8,1.6,110.6,0,100,0c-0.1,0-0.2,0-0.3,0C88,0,76.7,2,65.8,5.9z"/>
	<path fill="#114069" d="M200,100c0-1.1,0-2.2-0.1-3.3c-0.3-9.7-2-19.2-5-28.3l-31.2-13.7l21.1,19.4v79.1c2-3.1,3.8-6.4,5.4-9.8
		c0.7-1.4,1.4-2.9,2-4.4C197.4,126.5,200,113.6,200,100 M133.7,72.3l4.8-2.9l-29.8-13.3v143.5c0.9-0.1,1.8-0.2,2.7-0.3
		c0.3,0,0.7-0.1,1-0.1V142l21.4-6.7V72.3z"/>
	<path fill="#2DACD8" d="M133.7,131.3l7.3-2.3l31.3,17.9v22c4.7-4.9,8.9-10.2,12.4-15.9V73.9l-21.3-19.6l-29.7,17.9L133.7,131.3
		 M168.7,149.1l-28.1-16l-28.3,8.9v57.3c9.1-1.1,18-3.5,26.6-7.1c11.1-4.7,21-11.2,29.8-19.5V149.1 M118.9,154.2v-6.1l17.7-4.8v6.6
		L118.9,154.2 M136.6,156.2v6.6l-17.7,3.2v-6.1L136.6,156.2 M136.6,181.8v6.6l-17.7,1.1v-6.1L136.6,181.8 M136.6,168.9v6.6
		l-17.7,2.1v-6.1L136.6,168.9 M61.1,31.7l-32.4,23v115.4c0.2,0.2,0.4,0.4,0.6,0.6c9.2,9.2,19.8,16.4,31.7,21.4
		c12.4,5.2,25.4,7.9,39,7.9c0.4,0,0.8,0,1.1,0l7-0.3c0.2,0,0.4,0,0.6-0.1V55.9L61.1,31.7 M66.6,43.2l8.9,4.3v11.4l-8.9-4V43.2
		 M80.4,49.8l8.9,4.3V65L80.4,61V49.8 M103.1,60.8v10.4l-8.9-4V56.5L103.1,60.8 M94.3,73.8l8.9,3.8V88l-8.9-3.5V73.8 M89.3,71.7
		v10.9l-8.9-3.5V67.9L89.3,71.7 M103.1,94.3v10.4l-8.9-3V91.1L103.1,94.3 M89.3,89.2v10.9l-8.9-2.9V86L89.3,89.2 M94.3,108.3
		l8.9,2.8v10.4l-8.9-2.4V108.3 M94.3,125.6l8.9,2.2v10.4l-8.9-1.9V125.6 M89.3,124.4v10.9l-8.9-1.9v-11.2L89.3,124.4 M103.1,155
		l-8.9-1.4v-10.7l8.9,1.8V155 M94.3,160.2l8.9,1.2v10.4l-8.9-0.9V160.2 M89.3,141.9v10.9l-8.9-1.4v-11.1L89.3,141.9 M89.3,106.8
		v10.9l-8.9-2.4v-11.1L89.3,106.8 M66.6,62l8.9,3.8v11.4l-8.9-3.5V62 M66.6,80.9l8.9,3.3v11.4l-8.9-3V80.9 M66.6,111.5V99.8l8.9,2.8
		v11.4L66.6,111.5 M66.6,118.6l8.9,2.3v11.4l-8.9-2V118.6 M66.6,156.4l8.9,1.2v11.4l-8.9-0.8V156.4 M75.5,139.3v11.4l-8.9-1.4v-11.7
		L75.5,139.3 M80.4,187.6v-11.2l8.9,0.7V188L80.4,187.6 M66.6,175.3l8.9,0.7v11.4l-8.9-0.4V175.3 M94.3,188.2v-10.7l8.9,0.7v10.4
		L94.3,188.2 M80.4,158.3l8.9,1.2v10.9l-8.9-0.9V158.3z"/>
</g>
<g id="Layer_1_1_">
</g>
</svg>
