<?xml version="1.0" encoding="utf-8"?>
<!-- Generator: Adobe Illustrator 18.1.0, SVG Export Plug-In . SVG Version: 6.00 Build 0)  -->
<svg version="1.1" id="Layer_1" xmlns="http://www.w3.org/2000/svg" xmlns:xlink="http://www.w3.org/1999/xlink" x="0px" y="0px"
	 viewBox="-20.7 -20.7 230 229.8" enable-background="new -20.7 -20.7 230 229.8" xml:space="preserve">
<g transform="matrix( 1, 0, 0, 1, 0,0) ">
	<g>
		<g id="Layer0_0_FILL">
			<path fill="#999999" d="M36.2,156.8l-0.7-0.2L36.2,156.8L36.2,156.8z"/>
		</g>
	</g>
</g>
<g transform="matrix( 1, 0, 0, 1, -44.65,-246.5) ">
	<g>
		<g id="Layer0_1_FILL">
			<path fill="#999999" d="M153.7,232.1c12.4,0,24.5,1.9,36.2,5.9v-0.1c-2.8-1.5-5.6-2.7-8.5-3.8v-0.1c-13.6-5.4-27.8-8.1-42.6-8.1
				c-0.1,0-0.2,0-0.3,0c-13.5,0-26.4,2.4-38.8,6.7l-0.2,0.1c-1.8,0.7-3.7,1.4-5.5,2.1c-13.7,5.9-25.8,14.1-36.3,24.6
				c-10.6,10.6-18.8,22.7-24.6,36.3c-1.5,3.6-2.8,7.2-3.9,10.9l-0.1,0.3c-3.3,10.8-5,21.8-5,33.4c0,0.1,0,0.2,0,0.2
				c0,5.1,0.3,10,1,14.8c0,0.1,0,0.2,0,0.2c0,0.1,0,0.1,0.1,0.2c1.2,9.2,3.6,18.2,7,26.9c0.1,0.3,0.2,0.7,0.3,1
				c0.1,0.2,0.2,0.5,0.2,0.6l0.1,0.2c3.4,7.9,7.8,15.5,13,22.7c5.4,7.3,11.2,13.8,17.8,19.6c10.9,9.4,23.5,16.6,37.7,21.6h0.2
				C82.5,438.7,67.6,425,56.3,407C44.7,388.6,39,368.3,39,346.4c0-15.5,3-30.4,9-44.5c5.9-13.7,13.9-25.9,24.6-36.4
				c10.6-10.6,22.7-18.8,36.4-24.6C123.3,235.1,138.2,232.1,153.7,232.1z"/>
		</g>
	</g>
</g>
<g transform="matrix( 1, 0, 0, 1, -44.65,-246.5) ">
	<g>
		<g id="Layer0_2_FILL">
			<path fill="#CCCCCC" d="M183.7,234.8c-0.7-0.3-1.4-0.6-2.1-0.9v0.1c2.9,1.1,5.7,2.5,8.5,3.8v0.1c-11.8-3.9-23.8-5.9-36.2-5.9
				c-15.5,0-30.4,3-44.5,9C95.7,246.9,83.5,255,73,265.7c-10.6,10.6-18.8,22.7-24.6,36.4c-6,14.2-9,29.1-9,44.5
				c0,21.9,5.7,42.1,17.3,60.6c11.2,18,26.2,31.8,45.1,41.4h-0.2c-14.2-5-26.7-12.1-37.7-21.6c-6.5-5.7-12.5-12.3-17.8-19.6
				s-9.6-14.8-13-22.7c0.1,0.2,0.2,0.5,0.2,0.7c5.9,13.7,14.1,26,24.6,36.5c1.9,1.9,3.8,3.6,5.7,5.4c9.2,8,19.4,14.4,30.8,19.2
				c14.2,6.1,29.1,9,44.7,9s30.5-3,44.7-9c8-3.4,15.5-7.6,22.5-12.6L82.6,404.1c-0.6,0-1-0.1-1.6-0.5l-0.7-0.1l0.7,0.1
				c-0.5-0.2-0.8-0.5-1.1-0.9c-0.8-0.8-1.2-1.8-1.2-2.9v-20.3l0,0v-97.8c0-1.1,0.5-2,1.2-2.8c0.8-0.8,1.8-1.2,2.9-1.2l111.4-0.2
				l48.8,14.4c-5.6-11.9-13.2-22.6-22.6-32C209.6,248.7,197.4,240.5,183.7,234.8z"/>
		</g>
	</g>
</g>
<g transform="matrix( 1, 0, 0, 1, 0,0) ">
	<g>
		<g id="Layer0_3_FILL">
			<path fill="#999999" d="M53.1,139.3c0-0.2-0.1-0.5-0.2-0.6c-0.1-0.2-0.3-0.2-0.7-0.2H45c-0.6,0-0.9,0.2-0.9,0.9v7.2
				c0,0.6,0.3,0.9,0.9,0.9h7.2c0.6,0,0.9-0.3,0.9-0.9V139.3 M52.2,114.7c0.6,0,0.9-0.3,0.9-0.9v-7.2c0-0.6-0.3-0.9-0.9-0.9H45
				c-0.6,0-0.9,0.3-0.9,0.9v7.2c0,0.6,0.3,0.9,0.9,0.9H52.2 M140.3,140c0.5,0.5,1,0.7,1.7,0.7s1.2-0.2,1.7-0.7
				c0.5-0.5,0.7-1,0.7-1.7c0-0.7-0.2-1.2-0.7-1.7c-0.5-0.5-1.1-0.8-1.7-0.8c-0.7,0-1.2,0.2-1.7,0.8c-0.5,0.5-0.7,1-0.7,1.7
				C139.5,138.9,139.8,139.6,140.3,140 M131.2,136.7c-0.5,0.5-0.7,1-0.7,1.7s0.2,1.2,0.7,1.7c0.5,0.5,1,0.7,1.7,0.7s1.2-0.2,1.7-0.7
				c0.5-0.5,0.8-1,0.8-1.7s-0.2-1.2-0.8-1.7c-0.5-0.5-1-0.8-1.7-0.8C132.2,135.9,131.7,136.1,131.2,136.7 M120.7,138.4
				c0,0.7,0.2,1.2,0.7,1.7c0.5,0.5,1,0.7,1.7,0.7c0.7,0,1.2-0.2,1.7-0.7c0.5-0.5,0.8-1,0.8-1.7c0-0.7-0.2-1.2-0.8-1.7
				c-0.5-0.5-1-0.8-1.7-0.8c-0.7,0-1.2,0.2-1.7,0.8C120.9,137,120.7,137.7,120.7,138.4 M125.5,105.7c0-0.7-0.2-1.2-0.8-1.7
				c-0.5-0.5-1-0.7-1.7-0.7s-1.2,0.2-1.7,0.7c-0.5,0.5-0.7,1-0.7,1.7c0,0.7,0.2,1.2,0.7,1.7c0.5,0.5,1,0.8,1.7,0.8s1.2-0.2,1.7-0.8
				C125.3,107,125.5,106.4,125.5,105.7 M135.4,105.7c0-0.7-0.2-1.2-0.8-1.7c-0.5-0.5-1-0.7-1.7-0.7c-0.7,0-1.2,0.2-1.7,0.7
				c-0.5,0.5-0.7,1-0.7,1.7c0,0.7,0.2,1.2,0.7,1.7c0.5,0.5,1,0.8,1.7,0.8c0.7,0,1.2-0.2,1.7-0.8C135,107,135.4,106.4,135.4,105.7
				 M143.7,104.1c-0.5-0.5-1.1-0.7-1.7-0.7c-0.7,0-1.2,0.2-1.7,0.7c-0.5,0.5-0.7,1-0.7,1.7s0.2,1.2,0.7,1.7c0.5,0.5,1,0.8,1.7,0.8
				s1.2-0.2,1.7-0.8c0.5-0.5,0.7-1,0.7-1.7C144.4,105.1,144.2,104.5,143.7,104.1 M142,70.8c-0.3,0-0.7,0.1-1,0.2
				c-0.2,0.1-0.5,0.3-0.7,0.5c-0.5,0.5-0.7,1-0.7,1.7c0,0.7,0.2,1.2,0.7,1.7c0.5,0.5,1,0.7,1.7,0.7s1.2-0.2,1.7-0.7s0.7-1,0.7-1.7
				c0-0.7-0.2-1.2-0.7-1.7c-0.2-0.2-0.5-0.3-0.7-0.5C142.7,70.9,142.4,70.8,142,70.8 M124,71c-0.3-0.1-0.6-0.2-1-0.2
				c-0.3,0-0.7,0.1-1,0.2c-0.2,0.1-0.5,0.3-0.7,0.5c-0.5,0.5-0.7,1-0.7,1.7s0.2,1.2,0.7,1.7s1,0.7,1.7,0.7s1.2-0.2,1.7-0.7
				c0.5-0.5,0.8-1,0.8-1.7s-0.2-1.2-0.8-1.7C124.6,71.4,124.3,71.1,124,71 M131.9,71c-0.2,0.1-0.5,0.3-0.7,0.5
				c-0.5,0.5-0.7,1-0.7,1.7s0.2,1.2,0.7,1.7s1,0.7,1.7,0.7s1.2-0.2,1.7-0.7c0.5-0.5,0.8-1,0.8-1.7s-0.2-1.2-0.8-1.7
				c-0.2-0.2-0.5-0.3-0.7-0.5c-0.3-0.1-0.6-0.2-1-0.2C132.6,70.8,132.2,70.9,131.9,71 M125.5,40.5c0-0.7-0.2-1.2-0.8-1.7
				c-0.5-0.5-1-0.7-1.7-0.7s-1.2,0.2-1.7,0.7c-0.5,0.5-0.7,1-0.7,1.7c0,0.7,0.2,1.2,0.7,1.8c0.5,0.5,1,0.7,1.7,0.7s1.2-0.2,1.7-0.7
				C125.3,41.9,125.5,41.3,125.5,40.5 M134.6,42.3c0.5-0.5,0.8-1,0.8-1.8c0-0.7-0.2-1.2-0.8-1.7c-0.5-0.5-1-0.7-1.7-0.7
				c-0.7,0-1.2,0.2-1.7,0.7c-0.5,0.5-0.7,1-0.7,1.7c0,0.7,0.2,1.2,0.7,1.8c0.5,0.5,1,0.7,1.7,0.7C133.6,43,134.2,42.8,134.6,42.3
				 M139.5,40.5c0,0.7,0.2,1.2,0.7,1.8c0.5,0.5,1,0.7,1.7,0.7s1.2-0.2,1.7-0.7c0.5-0.5,0.7-1,0.7-1.8c0-0.7-0.2-1.2-0.7-1.7
				c-0.5-0.5-1.1-0.7-1.7-0.7c-0.7,0-1.2,0.2-1.7,0.7C139.8,39.4,139.5,40,139.5,40.5 M53.1,74.2c0-0.6-0.3-0.9-0.9-0.9H45
				c-0.6,0-0.9,0.3-0.9,0.9v7.2c0,0.2,0.1,0.5,0.2,0.7c0.1,0.2,0.3,0.2,0.6,0.2h7.2c0.2,0,0.5-0.1,0.7-0.2c0.2-0.2,0.2-0.3,0.2-0.7
				v-7.2 M52.2,49.7c0.6,0,0.9-0.2,0.9-0.9v-7.2c0-0.6-0.3-0.9-0.9-0.9H45c-0.6,0-0.9,0.3-0.9,0.9v7.2c0,0.6,0.3,0.9,0.9,0.9H52.2
				 M198.2,45L198.2,45l-48.8-14.4l-10.6,0.1l10.4,0.1c0.6,0,1.1,0.1,1.6,0.3c0.5,0.2,0.9,0.5,1.4,0.9c0.8,0.8,1.1,1.8,1.1,2.9v20.5
				c0,1.1-0.5,2.1-1.1,2.9c-0.8,0.8-1.8,1.2-2.9,1.2H37.9c-1.1,0-2.1-0.3-2.9-1.2c-0.8-0.8-1.2-1.7-1.2-2.8v11.9
				c0-1.1,0.5-2,1.2-2.7c0.8-0.8,1.8-1.2,2.9-1.2h111.4c1.1,0,2.1,0.5,2.9,1.2c0.8,0.8,1.1,1.7,1.1,2.8v20.5c0,1.1-0.5,2.1-1.1,2.9
				c-0.8,0.8-1.8,1.2-2.9,1.2H37.8c-1.1,0-2-0.5-2.7-1.2c-0.8-0.8-1.2-1.7-1.2-2.8v12c0-1.1,0.5-2,1.2-2.8c0.8-0.8,1.8-1.2,2.9-1.2
				h111.4c1.1,0,2.1,0.5,2.9,1.2c0.8,0.8,1.1,1.8,1.1,2.9v20.3c0,1.1-0.5,2.1-1.1,2.9c-0.8,0.8-1.8,1.1-2.9,1.1H38
				c-1.1,0-2.1-0.3-2.9-1.1c-0.8-0.8-1.2-1.7-1.2-2.8v11.9c0-1.1,0.5-2,1.2-2.8c0.8-0.8,1.8-1.2,2.9-1.2h111.4
				c1.1,0,2.1,0.5,2.9,1.2s1.1,1.8,1.1,2.9v20.3c0,1.1-0.5,2.1-1.1,2.9c-0.8,0.8-1.8,1.2-2.9,1.2H38c-0.1,0-0.1,0-0.2,0l123.8,30
				c5-3.6,9.7-7.6,14.1-11.9c10.6-10.6,18.8-22.8,24.5-36.5c6.1-14.2,9.1-29.1,9.1-44.7s-3-30.5-9.1-44.7c-0.1-0.1-0.1-0.3-0.1-0.5
				l-1-2.5C198.6,45.9,198.5,45.5,198.2,45z"/>
		</g>
	</g>
</g>
<g transform="matrix( 1, 0, 0, 1, 0,0) ">
	<g>
		<g id="Layer0_4_FILL">
			<path d="M153.4,132.7c0-1.1-0.5-2.1-1.1-2.9c-0.8-0.8-1.8-1.2-2.9-1.2H37.9c-1.1,0-2.1,0.5-2.9,1.2c-0.8,0.8-1.2,1.8-1.2,2.9
				v20.3c0,1.1,0.5,2.1,1.2,2.9c0.3,0.3,0.7,0.7,1.1,0.9l0.1,0.1c0.5,0.2,0.9,0.3,1.5,0.3c0.1,0,0.1,0,0.2,0h111.4
				c1.1,0,2.1-0.5,2.9-1.2c0.8-0.8,1.1-1.8,1.1-2.9V132.7 M121.3,140c-0.5-0.5-0.7-1-0.7-1.7c0-0.7,0.2-1.2,0.7-1.7
				c0.5-0.5,1-0.8,1.7-0.8c0.7,0,1.2,0.2,1.7,0.8c0.5,0.5,0.8,1,0.8,1.7c0,0.7-0.2,1.2-0.8,1.7c-0.5,0.5-1,0.7-1.7,0.7
				C122.3,140.7,121.8,140.5,121.3,140 M130.4,138.4c0-0.7,0.2-1.2,0.7-1.7c0.5-0.5,1-0.8,1.7-0.8c0.7,0,1.2,0.2,1.7,0.8
				c0.5,0.5,0.8,1,0.8,1.7c0,0.7-0.2,1.2-0.8,1.7c-0.5,0.5-1,0.7-1.7,0.7c-0.7,0-1.2-0.2-1.7-0.7
				C130.8,139.6,130.4,138.9,130.4,138.4 M142,135.9c0.7,0,1.2,0.2,1.7,0.8c0.5,0.5,0.7,1,0.7,1.7s-0.2,1.2-0.7,1.7
				s-1.1,0.7-1.7,0.7c-0.7,0-1.2-0.2-1.7-0.7s-0.7-1-0.7-1.7s0.2-1.2,0.7-1.7C140.8,136.1,141.2,135.9,142,135.9 M52.2,138.4
				c0.2,0,0.5,0.1,0.7,0.2c0.2,0.1,0.2,0.3,0.2,0.6v7.2c0,0.6-0.3,0.9-0.9,0.9H45c-0.6,0-0.9-0.3-0.9-0.9v-7.2
				c0-0.6,0.3-0.9,0.9-0.9h7.2 M152.3,97.2c-0.8-0.8-1.8-1.2-2.9-1.2H37.9c-1.1,0-2.1,0.5-2.9,1.2c-0.8,0.8-1.2,1.8-1.2,2.9v20.3
				c0,1.1,0.5,2.1,1.2,2.9c0.8,0.8,1.8,1.1,2.9,1.1h111.4c1.1,0,2.1-0.3,2.9-1.1c0.8-0.8,1.1-1.8,1.1-2.9v-20.3
				C153.4,99,153,98,152.3,97.2 M139.5,105.7c0-0.7,0.2-1.2,0.7-1.7c0.5-0.5,1-0.7,1.7-0.7s1.2,0.2,1.7,0.7c0.5,0.5,0.7,1,0.7,1.7
				c0,0.7-0.2,1.2-0.7,1.7c-0.5,0.5-1.1,0.8-1.7,0.8c-0.7,0-1.2-0.2-1.7-0.8C139.8,107,139.5,106.4,139.5,105.7 M132.9,103.3
				c0.7,0,1.2,0.2,1.7,0.7c0.5,0.5,0.8,1,0.8,1.7s-0.2,1.2-0.8,1.7c-0.5,0.5-1,0.8-1.7,0.8s-1.2-0.2-1.7-0.8c-0.5-0.5-0.7-1-0.7-1.7
				s0.2-1.2,0.7-1.7C131.7,103.6,132.2,103.3,132.9,103.3 M123,103.3c0.7,0,1.2,0.2,1.7,0.7c0.5,0.5,0.8,1,0.8,1.7s-0.2,1.2-0.8,1.7
				c-0.5,0.5-1,0.8-1.7,0.8s-1.2-0.2-1.7-0.8c-0.5-0.5-0.7-1-0.7-1.7s0.2-1.2,0.7-1.7C121.8,103.6,122.3,103.3,123,103.3
				 M53.1,113.8c0,0.6-0.3,0.9-0.9,0.9H45c-0.6,0-0.9-0.3-0.9-0.9v-7.2c0-0.6,0.3-0.9,0.9-0.9h7.2c0.6,0,0.9,0.3,0.9,0.9V113.8
				 M37.9,63.5c-1.1,0-2.1,0.5-2.9,1.2c-0.8,0.8-1.2,1.7-1.2,2.7V88c0,1.1,0.5,2,1.2,2.8c0.8,0.8,1.7,1.1,2.7,1.2h111.5
				c1.1,0,2.1-0.5,2.9-1.2c0.8-0.8,1.1-1.8,1.1-2.9V67.4c0-1.1-0.5-2-1.1-2.8c-0.8-0.8-1.8-1.2-2.9-1.2H37.9 M52.2,73.3
				c0.6,0,0.9,0.3,0.9,0.9v7.2c0,0.2-0.1,0.5-0.2,0.7c-0.1,0.2-0.3,0.2-0.7,0.2H45c-0.2,0-0.5-0.1-0.6-0.2c-0.2-0.2-0.2-0.3-0.2-0.7
				v-7.2c0-0.6,0.3-0.9,0.9-0.9H52.2 M124.7,71.5c0.5,0.5,0.8,1,0.8,1.7s-0.2,1.2-0.8,1.7c-0.5,0.5-1,0.7-1.7,0.7s-1.2-0.2-1.7-0.7
				c-0.5-0.5-0.7-1-0.7-1.7s0.2-1.2,0.7-1.7c0.5-0.5,1-0.7,1.7-0.7S124.3,71,124.7,71.5 M131.2,74.8c-0.5-0.5-0.7-1-0.7-1.7
				c0-0.7,0.2-1.2,0.7-1.7c0.5-0.5,1-0.7,1.7-0.7s1.2,0.2,1.7,0.7c0.5,0.5,0.8,1,0.8,1.7c0,0.7-0.2,1.2-0.8,1.7
				c-0.5,0.5-1,0.7-1.7,0.7C132.2,75.6,131.7,75.3,131.2,74.8 M140.3,71.5c0.5-0.5,1-0.7,1.7-0.7s1.2,0.2,1.7,0.7
				c0.5,0.5,0.7,1,0.7,1.7s-0.2,1.2-0.7,1.7s-1.1,0.7-1.7,0.7c-0.7,0-1.2-0.2-1.7-0.7c-0.5-0.5-0.7-1-0.7-1.7
				C139.5,72.5,139.8,71.9,140.3,71.5 M37.9,30.9c-1.1,0-2.1,0.5-2.9,1.2c-0.8,0.8-1.2,1.7-1.2,2.8v20.6c0,1.1,0.5,2,1.2,2.8
				c0.8,0.8,1.8,1.2,2.9,1.2h111.4c1.1,0,2.1-0.3,2.9-1.2c0.8-0.8,1.1-1.8,1.1-2.9V34.9c0-1.1-0.5-2.1-1.1-2.9
				c-0.5-0.5-0.9-0.7-1.4-0.9s-1-0.3-1.6-0.3H37.9 M53.1,41.7v7.2c0,0.6-0.3,0.9-0.9,0.9H45c-0.6,0-0.9-0.2-0.9-0.9v-7.2
				c0-0.6,0.3-0.9,0.9-0.9h7.2C52.8,40.8,53.1,41,53.1,41.7 M142,43c-0.7,0-1.2-0.2-1.7-0.7c-0.5-0.5-0.7-1-0.7-1.8
				c0-0.7,0.2-1.2,0.7-1.7s1-0.7,1.7-0.7s1.2,0.2,1.7,0.7c0.5,0.5,0.7,1,0.7,1.7c0,0.7-0.2,1.2-0.7,1.8C143.3,42.8,142.6,43,142,43
				 M134.6,38.9c0.5,0.5,0.8,1,0.8,1.7c0,0.7-0.2,1.2-0.8,1.8c-0.5,0.5-1,0.7-1.7,0.7c-0.7,0-1.2-0.2-1.7-0.7
				c-0.5-0.5-0.7-1-0.7-1.8c0-0.7,0.2-1.2,0.7-1.7s1-0.7,1.7-0.7C133.6,38.2,134.2,38.4,134.6,38.9 M123,38.2c0.7,0,1.2,0.2,1.7,0.7
				c0.5,0.5,0.8,1,0.8,1.7c0,0.7-0.2,1.2-0.8,1.8c-0.5,0.5-1,0.7-1.7,0.7s-1.2-0.2-1.7-0.7c-0.5-0.5-0.7-1-0.7-1.8
				c0-0.7,0.2-1.2,0.7-1.7C121.8,38.4,122.3,38.2,123,38.2z"/>
		</g>
	</g>
</g>
</svg>
