<svg version="1.1" xmlns="http://www.w3.org/2000/svg" id="Layer_1"  xmlns:xlink="http://www.w3.org/1999/xlink" x="0px" y="0px"
	 viewBox="0 298.8 1296 1296.1" enable-background="new 0 298.8 1296 1296.1" xml:space="preserve">
<g transform="matrix( 1, 0, 0, 1, 0,0) ">
	<g>
		<g id="Layer0_0_FILL">
			<path fill="#999999" d="M334.2,1281.3l-3.6-1.2L334.2,1281.3L334.2,1281.3z"/>
		</g>
	</g>
</g>
<g transform="matrix( 1, 0, 0, 1, -44.65,-246.5) ">
	<g>
		<g id="Layer0_1_FILL">
			<path fill="#999999" d="M765.5,618.2c65.7,0,130.2,10.2,192.3,31.1v-0.6c-14.9-7.8-29.9-14.3-45.4-20.3v-0.6
				c-72.3-28.7-147.5-43-226.4-43c-0.6,0-1.2,0-1.8,0c-71.7,0-140.4,12.5-206,35.8l-1.2,0.6c-9.6,3.6-19.7,7.2-29.3,11.3
				c-72.9,31.1-136.8,74.7-192.9,130.8c-56.1,56.1-99.7,120.6-130.8,192.9c-7.8,19.1-14.9,38.2-20.9,57.9l-0.6,1.8
				c-17.3,57.3-26.3,115.9-26.3,177.4c0,0.6,0,1.2,0,1.2c0,26.9,1.8,53.2,5.4,78.8c0,0.6,0,1.2,0,1.2c0,0.6,0,0.6,0.6,1.2
				c6.6,49,19.1,96.8,37,142.7c0.6,1.8,1.2,3.6,1.8,5.4c0.6,1.2,1.2,2.4,1.2,3l0.6,1.2c17.9,41.8,41.2,82.4,69.3,120.6
				c28.7,38.8,59.7,73.5,94.4,103.9c57.9,50.2,124.8,88.4,200.1,114.7h1.2c-100.3-51.4-179.8-124.2-239.5-219.8
				c-61.5-97.9-92-205.4-92-321.9c0-82.4,16.1-161.3,47.8-236.5c31.1-72.9,74.1-137.4,130.8-193.5c56.1-56.1,120.6-99.7,193.5-130.8
				C604.3,634.3,683.1,618.2,765.5,618.2z"/>
		</g>
	</g>
</g>
<g transform="matrix( 1, 0, 0, 1, -44.65,-246.5) ">
	<g>
		<g id="Layer0_2_FILL">
			<path fill="#CCCCCC" d="M925,632.5c-3.6-1.8-7.2-3-11.3-4.8v0.6c15.5,6,30.5,13.1,45.4,20.3v0.6
				c-62.7-20.9-126.6-31.1-192.3-31.1c-82.4,0-161.3,16.1-236.5,47.8C457.4,697,392.9,740,336.7,796.8
				c-56.1,56.1-99.7,120.6-130.8,193.5c-31.7,75.3-47.8,154.7-47.8,236.5c0,116.5,30.5,223.4,92,321.9
				c59.7,95.6,139.2,169,239.5,219.8h-1.2c-75.3-26.3-142.1-64.5-200.1-114.7c-34.6-30.5-66.3-65.1-94.4-103.9
				c-28.1-38.8-50.8-78.8-69.3-120.6c0.6,1.2,1.2,2.4,1.2,3.6c31.1,72.9,74.7,138,130.8,194.1c10.2,10.2,20.3,19.1,30.5,28.7
				c49,42.4,103.3,76.4,163.6,102.1c75.3,32.3,154.7,47.8,237.7,47.8s161.9-16.1,237.7-47.8c42.4-17.9,82.4-40.6,119.4-66.9
				L388.1,1532c-3,0-5.4-0.6-8.4-2.4l-3.6-0.6l3.6,0.6c-2.4-1.2-4.2-2.4-6-4.8c-4.2-4.2-6.6-9.6-6.6-15.5v-108.1l0,0V881.6
				c0-6,2.4-10.8,6.6-14.9s9.6-6.6,15.5-6.6l591.9-1.2l259.2,76.4c-29.9-63.3-69.9-120-120-170.2C1062.4,706.6,997.9,663,925,632.5z
				"/>
		</g>
	</g>
</g>
<g transform="matrix( 1, 0, 0, 1, 0,0) ">
	<g>
		<g id="Layer0_3_FILL">
			<path fill="#999999" d="M423.8,1188.1c0-1.2-0.6-2.4-1.2-3c-0.6-1.2-1.8-1.2-3.6-1.2h-38.2c-3,0-4.8,1.2-4.8,4.8v38.2
				c0,3,1.8,4.8,4.8,4.8H419c3,0,4.8-1.8,4.8-4.8V1188.1 M419,1057.9c3,0,4.8-1.8,4.8-4.8v-38.2c0-3-1.8-4.8-4.8-4.8h-38.2
				c-3,0-4.8,1.8-4.8,4.8v38.2c0,3,1.8,4.8,4.8,4.8H419 M887.2,1192.3c2.4,2.4,5.4,3.6,9,3.6c3.6,0,6.6-1.2,9-3.6s3.6-5.4,3.6-9
				c0-3.6-1.2-6.6-3.6-9s-6-4.2-9-4.2c-3.6,0-6.6,1.2-9,4.2c-2.4,2.4-3.6,5.4-3.6,9C883,1186.3,884.2,1189.9,887.2,1192.3
				 M838.8,1174.4c-2.4,2.4-3.6,5.4-3.6,9c0,3.6,1.2,6.6,3.6,9c2.4,2.4,5.4,3.6,9,3.6s6.6-1.2,9-3.6c2.4-2.4,4.2-5.4,4.2-9
				c0-3.6-1.2-6.6-4.2-9c-2.4-2.4-5.4-4.2-9-4.2C844.2,1170.2,841.2,1171.4,838.8,1174.4 M782.7,1183.3c0,3.6,1.2,6.6,3.6,9
				s5.4,3.6,9,3.6c3.6,0,6.6-1.2,9-3.6s4.2-5.4,4.2-9c0-3.6-1.2-6.6-4.2-9c-2.4-2.4-5.4-4.2-9-4.2c-3.6,0-6.6,1.2-9,4.2
				C783.9,1176.2,782.7,1179.8,782.7,1183.3 M808.4,1010.1c0-3.6-1.2-6.6-4.2-9c-2.4-2.4-5.4-3.6-9-3.6c-3.6,0-6.6,1.2-9,3.6
				c-2.4,2.4-3.6,5.4-3.6,9c0,3.6,1.2,6.6,3.6,9s5.4,4.2,9,4.2c3.6,0,6.6-1.2,9-4.2C807.2,1016.7,808.4,1013.7,808.4,1010.1
				 M860.9,1010.1c0-3.6-1.2-6.6-4.2-9c-2.4-2.4-5.4-3.6-9-3.6s-6.6,1.2-9,3.6c-2.4,2.4-3.6,5.4-3.6,9c0,3.6,1.2,6.6,3.6,9
				c2.4,2.4,5.4,4.2,9,4.2s6.6-1.2,9-4.2C859.1,1016.7,860.9,1013.7,860.9,1010.1 M905.1,1001.2c-2.4-2.4-6-3.6-9-3.6
				c-3.6,0-6.6,1.2-9,3.6c-2.4,2.4-3.6,5.4-3.6,9c0,3.6,1.2,6.6,3.6,9s5.4,4.2,9,4.2c3.6,0,6.6-1.2,9-4.2c2.4-2.4,3.6-5.4,3.6-9
				C908.7,1006.6,907.5,1003.6,905.1,1001.2 M896.2,824.4c-1.8,0-3.6,0.6-5.4,1.2c-1.2,0.6-2.4,1.8-3.6,2.4c-2.4,2.4-3.6,5.4-3.6,9
				s1.2,6.6,3.6,9s5.4,3.6,9,3.6c3.6,0,6.6-1.2,9-3.6c2.4-2.4,3.6-5.4,3.6-9s-1.2-6.6-3.6-9c-1.2-1.2-2.4-1.8-3.6-2.4
				C899.7,825,898,824.4,896.2,824.4 M800.6,825.6c-1.8-0.6-3-1.2-5.4-1.2c-1.8,0-3.6,0.6-5.4,1.2c-1.2,0.6-2.4,1.8-3.6,2.4
				c-2.4,2.4-3.6,5.4-3.6,9s1.2,6.6,3.6,9s5.4,3.6,9,3.6c3.6,0,6.6-1.2,9-3.6c2.4-2.4,4.2-5.4,4.2-9s-1.2-6.6-4.2-9
				C803.6,827.4,801.8,826.2,800.6,825.6 M842.4,825.6c-1.2,0.6-2.4,1.8-3.6,2.4c-2.4,2.4-3.6,5.4-3.6,9s1.2,6.6,3.6,9
				c2.4,2.4,5.4,3.6,9,3.6s6.6-1.2,9-3.6c2.4-2.4,4.2-5.4,4.2-9s-1.2-6.6-4.2-9c-1.2-1.2-2.4-1.8-3.6-2.4c-1.8-0.6-3-1.2-5.4-1.2
				C846,824.4,844.2,825,842.4,825.6 M808.4,663.7c0-3.6-1.2-6.6-4.2-9c-2.4-2.4-5.4-3.6-9-3.6c-3.6,0-6.6,1.2-9,3.6
				c-2.4,2.4-3.6,5.4-3.6,9s1.2,6.6,3.6,9.6c2.4,2.4,5.4,3.6,9,3.6c3.6,0,6.6-1.2,9-3.6C807.2,670.9,808.4,667.9,808.4,663.7
				 M856.7,673.3c2.4-2.4,4.2-5.4,4.2-9.6c0-3.6-1.2-6.6-4.2-9c-2.4-2.4-5.4-3.6-9-3.6s-6.6,1.2-9,3.6c-2.4,2.4-3.6,5.4-3.6,9
				s1.2,6.6,3.6,9.6c2.4,2.4,5.4,3.6,9,3.6S854.4,675.7,856.7,673.3 M883,663.7c0,3.6,1.2,6.6,3.6,9.6c2.4,2.4,5.4,3.6,9,3.6
				s6.6-1.2,9-3.6c2.4-2.4,3.6-5.4,3.6-9.6c0-3.6-1.2-6.6-3.6-9c-2.4-2.4-6-3.6-9-3.6c-3.6,0-6.6,1.2-9,3.6
				C884.2,657.8,883,660.8,883,663.7 M423.8,842.3c0-3-1.8-4.8-4.8-4.8h-38.2c-3,0-4.8,1.8-4.8,4.8v38.2c0,1.2,0.6,2.4,1.2,3.6
				c0.6,1.2,1.8,1.2,3,1.2h38.2c1.2,0,2.4-0.6,3.6-1.2c1.2-1.2,1.2-1.8,1.2-3.6v-38.2 M419,712.1c3,0,4.8-1.2,4.8-4.8v-38.2
				c0-3-1.8-4.8-4.8-4.8h-38.2c-3,0-4.8,1.8-4.8,4.8v38.2c0,3,1.8,4.8,4.8,4.8H419 M1194.8,687.6L1194.8,687.6l-259.2-76.4
				l-56.1,0.6l55.5,0.6c3,0,6,0.6,8.4,1.8s4.8,2.4,7.2,4.8c4.2,4.2,6,9.6,6,15.5v108.7c0,6-2.4,11.3-6,15.5
				c-4.2,4.2-9.6,6.6-15.5,6.6H343.1c-6,0-11.3-1.8-15.5-6.6c-4.2-4.2-6.6-9-6.6-14.9v63.3c0-6,2.4-10.8,6.6-14.3
				c4.2-4.2,9.6-6.6,15.5-6.6H935c6,0,11.3,2.4,15.5,6.6c4.2,4.2,6,9,6,14.9v108.7c0,6-2.4,11.3-6,15.5c-4.2,4.2-9.6,6.6-15.5,6.6
				H342.5c-6,0-10.8-2.4-14.3-6.6c-4.2-4.2-6.6-9-6.6-14.9v63.9c0-6,2.4-10.8,6.6-14.9c4.2-4.2,9.6-6.6,15.5-6.6h591.9
				c6,0,11.3,2.4,15.5,6.6c4.2,4.2,6,9.6,6,15.5v108.1c0,6-2.4,11.3-6,15.5c-4.2,4.2-9.6,6-15.5,6H343.7c-6,0-11.3-1.8-15.5-6
				c-4.2-4.2-6.6-9-6.6-14.9v63.3c0-6,2.4-10.8,6.6-14.9c4.2-4.2,9.6-6.6,15.5-6.6h591.9c6,0,11.3,2.4,15.5,6.6s6,9.6,6,15.5v108.1
				c0,6-2.4,11.3-6,15.5c-4.2,4.2-9.6,6.6-15.5,6.6H343.7c-0.6,0-0.6,0-1.2,0l657.6,159.5c26.3-19.1,51.4-40.6,74.7-63.3
				c56.1-56.1,99.7-121.2,130.2-194.1c32.3-75.3,48.4-154.7,48.4-237.7s-16.1-161.9-48.4-237.7c-0.6-0.6-0.6-1.8-0.6-2.4l-5.4-13.1
				C1196.6,692.4,1196,690,1194.8,687.6z"/>
		</g>
	</g>
</g>
<g transform="matrix( 1, 0, 0, 1, 0,0) ">
	<g>
		<g id="Layer0_4_FILL">
			<path d="M956.5,1153.5c0-6-2.4-11.3-6-15.5c-4.2-4.2-9.6-6.6-15.5-6.6H343.1c-6,0-11.3,2.4-15.5,6.6c-4.2,4.2-6.6,9.6-6.6,15.5
				v108.1c0,6,2.4,11.3,6.6,15.5c1.8,1.8,3.6,3.6,6,4.8l0.6,0.6c2.4,1.2,4.8,1.8,7.8,1.8c0.6,0,0.6,0,1.2,0H935
				c6,0,11.3-2.4,15.5-6.6c4.2-4.2,6-9.6,6-15.5V1153.5 M786.3,1192.3c-2.4-2.4-3.6-5.4-3.6-9c0-3.6,1.2-6.6,3.6-9s5.4-4.2,9-4.2
				c3.6,0,6.6,1.2,9,4.2c2.4,2.4,4.2,5.4,4.2,9c0,3.6-1.2,6.6-4.2,9c-2.4,2.4-5.4,3.6-9,3.6C791.6,1195.9,788.7,1194.7,786.3,1192.3
				 M834.6,1183.3c0-3.6,1.2-6.6,3.6-9s5.4-4.2,9-4.2c3.6,0,6.6,1.2,9,4.2c2.4,2.4,4.2,5.4,4.2,9c0,3.6-1.2,6.6-4.2,9
				c-2.4,2.4-5.4,3.6-9,3.6c-3.6,0-6.6-1.2-9-3.6C836.4,1189.9,834.6,1186.3,834.6,1183.3 M896.2,1170.2c3.6,0,6.6,1.2,9,4.2
				c2.4,2.4,3.6,5.4,3.6,9c0,3.6-1.2,6.6-3.6,9s-6,3.6-9,3.6c-3.6,0-6.6-1.2-9-3.6s-3.6-5.4-3.6-9c0-3.6,1.2-6.6,3.6-9
				C889.6,1171.4,892,1170.2,896.2,1170.2 M419,1183.3c1.2,0,2.4,0.6,3.6,1.2c1.2,0.6,1.2,1.8,1.2,3v38.2c0,3-1.8,4.8-4.8,4.8h-38.2
				c-3,0-4.8-1.8-4.8-4.8v-38.2c0-3,1.8-4.8,4.8-4.8H419 M950.5,964.8c-4.2-4.2-9.6-6.6-15.5-6.6H343.1c-6,0-11.3,2.4-15.5,6.6
				c-4.2,4.2-6.6,9.6-6.6,15.5v108.1c0,6,2.4,11.3,6.6,15.5c4.2,4.2,9.6,6,15.5,6H935c6,0,11.3-1.8,15.5-6c4.2-4.2,6-9.6,6-15.5
				V980.3C956.5,974.3,954.7,968.9,950.5,964.8 M883,1010.1c0-3.6,1.2-6.6,3.6-9c2.4-2.4,5.4-3.6,9-3.6s6.6,1.2,9,3.6
				c2.4,2.4,3.6,5.4,3.6,9c0,3.6-1.2,6.6-3.6,9c-2.4,2.4-6,4.2-9,4.2c-3.6,0-6.6-1.2-9-4.2C884.2,1016.7,883,1013.7,883,1010.1
				 M847.8,997c3.6,0,6.6,1.2,9,3.6c2.4,2.4,4.2,5.4,4.2,9s-1.2,6.6-4.2,9c-2.4,2.4-5.4,4.2-9,4.2s-6.6-1.2-9-4.2
				c-2.4-2.4-3.6-5.4-3.6-9s1.2-6.6,3.6-9C841.2,998.8,844.2,997,847.8,997 M795.2,997c3.6,0,6.6,1.2,9,3.6c2.4,2.4,4.2,5.4,4.2,9
				s-1.2,6.6-4.2,9c-2.4,2.4-5.4,4.2-9,4.2c-3.6,0-6.6-1.2-9-4.2c-2.4-2.4-3.6-5.4-3.6-9s1.2-6.6,3.6-9
				C788.7,998.8,791.6,997,795.2,997 M423.8,1053.1c0,3-1.8,4.8-4.8,4.8h-38.2c-3,0-4.8-1.8-4.8-4.8v-38.2c0-3,1.8-4.8,4.8-4.8H419
				c3,0,4.8,1.8,4.8,4.8V1053.1 M343.1,785.6c-6,0-11.3,2.4-15.5,6.6c-4.2,4.2-6.6,9-6.6,14.3v109.3c0,6,2.4,10.8,6.6,14.9
				c4.2,4.2,9,6,14.3,6.6h592.5c6,0,11.3-2.4,15.5-6.6c4.2-4.2,6-9.6,6-15.5V806.5c0-6-2.4-10.8-6-14.9c-4.2-4.2-9.6-6.6-15.5-6.6
				H343.1 M419,837.5c3,0,4.8,1.8,4.8,4.8v38.2c0,1.2-0.6,2.4-1.2,3.6c-0.6,1.2-1.8,1.2-3.6,1.2h-38.2c-1.2,0-2.4-0.6-3-1.2
				c-1.2-1.2-1.2-1.8-1.2-3.6v-38.2c0-3,1.8-4.8,4.8-4.8H419 M804.2,828c2.4,2.4,4.2,5.4,4.2,9s-1.2,6.6-4.2,9
				c-2.4,2.4-5.4,3.6-9,3.6c-3.6,0-6.6-1.2-9-3.6c-2.4-2.4-3.6-5.4-3.6-9s1.2-6.6,3.6-9c2.4-2.4,5.4-3.6,9-3.6
				C798.8,824.4,801.8,825.6,804.2,828 M838.8,845.9c-2.4-2.4-3.6-5.4-3.6-9s1.2-6.6,3.6-9c2.4-2.4,5.4-3.6,9-3.6s6.6,1.2,9,3.6
				c2.4,2.4,4.2,5.4,4.2,9s-1.2,6.6-4.2,9c-2.4,2.4-5.4,3.6-9,3.6C844.2,850.1,841.2,848.3,838.8,845.9 M887.2,828
				c2.4-2.4,5.4-3.6,9-3.6c3.6,0,6.6,1.2,9,3.6c2.4,2.4,3.6,5.4,3.6,9s-1.2,6.6-3.6,9s-6,3.6-9,3.6c-3.6,0-6.6-1.2-9-3.6
				c-2.4-2.4-3.6-5.4-3.6-9C883,833.4,884.2,830.4,887.2,828 M343.1,612.4c-6,0-11.3,2.4-15.5,6.6c-4.2,4.2-6.6,9-6.6,14.9v109.3
				c0,6,2.4,10.8,6.6,14.9c4.2,4.2,9.6,6.6,15.5,6.6H935c6,0,11.3-1.8,15.5-6.6c4.2-4.2,6-9.6,6-15.5V633.9c0-6-2.4-11.3-6-15.5
				c-2.4-2.4-4.8-3.6-7.2-4.8c-2.4-1.2-5.4-1.8-8.4-1.8H343.1 M423.8,669.7v38.2c0,3-1.8,4.8-4.8,4.8h-38.2c-3,0-4.8-1.2-4.8-4.8
				v-38.2c0-3,1.8-4.8,4.8-4.8H419C422,664.9,423.8,666.1,423.8,669.7 M896.2,676.9c-3.6,0-6.6-1.2-9-3.6c-2.4-2.4-3.6-5.4-3.6-9.6
				c0-3.6,1.2-6.6,3.6-9s5.4-3.6,9-3.6c3.6,0,6.6,1.2,9,3.6c2.4,2.4,3.6,5.4,3.6,9s-1.2,6.6-3.6,9.6
				C902.7,675.7,899.2,676.9,896.2,676.9 M856.7,654.8c2.4,2.4,4.2,5.4,4.2,9s-1.2,6.6-4.2,9.6c-2.4,2.4-5.4,3.6-9,3.6
				s-6.6-1.2-9-3.6c-2.4-2.4-3.6-5.4-3.6-9.6c0-3.6,1.2-6.6,3.6-9c2.4-2.4,5.4-3.6,9-3.6C851.4,651.2,854.4,652.4,856.7,654.8
				 M795.2,651.2c3.6,0,6.6,1.2,9,3.6c2.4,2.4,4.2,5.4,4.2,9s-1.2,6.6-4.2,9.6c-2.4,2.4-5.4,3.6-9,3.6c-3.6,0-6.6-1.2-9-3.6
				c-2.4-2.4-3.6-5.4-3.6-9.6c0-3.6,1.2-6.6,3.6-9C788.7,652.4,791.6,651.2,795.2,651.2z"/>
		</g>
	</g>
</g>
</svg>
