<?xml version="1.0" encoding="utf-8"?>
<!-- Generator: Adobe Illustrator 18.1.0, SVG Export Plug-In . SVG Version: 6.00 Build 0)  -->
<svg version="1.1" id="Layer_1" xmlns="http://www.w3.org/2000/svg" xmlns:xlink="http://www.w3.org/1999/xlink" x="0px" y="0px"
	 width="87.6px" height="259px" viewBox="-91 47 87.6 259" enable-background="new -91 47 87.6 259" xml:space="preserve">
<g enable-background="new    ">
	<path fill="#CCCCCC" d="M-73.1,113.2v-0.8h13v0.8H-73.1z"/>
	<path fill="#CCCCCC" d="M-66.6,98.4c0.9,0,1.8,0.1,2.7,0.4c0.8,0.3,1.5,0.7,2.2,1.2c0.6,0.5,1.1,1.2,1.4,1.9
		c0.4,0.8,0.5,1.6,0.5,2.6s-0.2,1.8-0.5,2.6s-0.8,1.4-1.4,1.9c-0.6,0.5-1.3,0.9-2.2,1.2c-0.8,0.3-1.7,0.4-2.7,0.4s-1.8-0.1-2.7-0.4
		c-0.8-0.3-1.5-0.7-2.2-1.2c-0.6-0.5-1.1-1.2-1.4-1.9c-0.4-0.8-0.5-1.6-0.5-2.6s0.2-1.8,0.5-2.6c0.4-0.8,0.8-1.4,1.4-1.9
		c0.6-0.5,1.3-0.9,2.2-1.2S-67.5,98.4-66.6,98.4z M-66.6,109.9c0.8,0,1.6-0.1,2.4-0.4c0.7-0.2,1.4-0.6,1.9-1.1c0.6-0.5,1-1,1.3-1.7
		s0.5-1.4,0.5-2.3c0-0.8-0.2-1.6-0.5-2.3c-0.3-0.7-0.8-1.2-1.3-1.7s-1.2-0.8-1.9-1.1c-0.7-0.2-1.5-0.4-2.4-0.4
		c-0.8,0-1.6,0.1-2.4,0.4c-0.7,0.2-1.4,0.6-1.9,1.1s-1,1-1.3,1.7s-0.5,1.4-0.5,2.3c0,0.8,0.2,1.6,0.5,2.3c0.3,0.7,0.8,1.2,1.3,1.7
		c0.6,0.5,1.2,0.8,1.9,1.1C-68.2,109.8-67.4,109.9-66.6,109.9z"/>
</g>
<g enable-background="new    ">
	<path fill="#CCCCCC" d="M-31.4,117.2c0.9,0,1.8,0.1,2.7,0.4c0.8,0.3,1.5,0.7,2.2,1.2c0.6,0.5,1.1,1.2,1.4,1.9
		c0.4,0.8,0.5,1.6,0.5,2.6s-0.2,1.8-0.5,2.6s-0.8,1.4-1.4,1.9c-0.6,0.5-1.3,0.9-2.2,1.2c-0.8,0.3-1.7,0.4-2.7,0.4s-1.8-0.1-2.7-0.4
		c-0.8-0.3-1.5-0.7-2.2-1.2c-0.6-0.5-1.1-1.2-1.4-1.9c-0.4-0.8-0.5-1.6-0.5-2.6s0.2-1.8,0.5-2.6c0.4-0.8,0.8-1.4,1.4-1.9
		c0.6-0.5,1.3-0.9,2.2-1.2C-33.2,117.3-32.3,117.2-31.4,117.2z M-31.4,128.7c0.8,0,1.6-0.1,2.4-0.4c0.7-0.2,1.4-0.6,1.9-1.1
		c0.6-0.5,1-1,1.3-1.7s0.5-1.4,0.5-2.3c0-0.8-0.2-1.6-0.5-2.3c-0.3-0.7-0.8-1.2-1.3-1.7s-1.2-0.8-1.9-1.1c-0.7-0.2-1.5-0.4-2.4-0.4
		c-0.8,0-1.6,0.1-2.4,0.4c-0.7,0.2-1.4,0.6-1.9,1.1s-1,1-1.3,1.7s-0.5,1.4-0.5,2.3c0,0.8,0.2,1.6,0.5,2.3c0.3,0.7,0.8,1.2,1.3,1.7
		c0.6,0.5,1.2,0.8,1.9,1.1C-33,128.6-32.2,128.7-31.4,128.7z"/>
	<path fill="#CCCCCC" d="M-37.9,115.5v-0.8h13v0.8H-37.9z"/>
	<path fill="#CCCCCC" d="M-31.4,100.7c0.9,0,1.8,0.1,2.7,0.4c0.8,0.3,1.5,0.7,2.2,1.2c0.6,0.5,1.1,1.2,1.4,1.9
		c0.4,0.8,0.5,1.6,0.5,2.6s-0.2,1.8-0.5,2.6s-0.8,1.4-1.4,1.9c-0.6,0.5-1.3,0.9-2.2,1.2c-0.8,0.3-1.7,0.4-2.7,0.4s-1.8-0.1-2.7-0.4
		c-0.8-0.3-1.5-0.7-2.2-1.2c-0.6-0.5-1.1-1.2-1.4-1.9c-0.4-0.8-0.5-1.6-0.5-2.6s0.2-1.8,0.5-2.6c0.4-0.8,0.8-1.4,1.4-1.9
		c0.6-0.5,1.3-0.9,2.2-1.2C-33.2,100.8-32.3,100.7-31.4,100.7z M-31.4,112.2c0.8,0,1.6-0.1,2.4-0.4c0.7-0.2,1.4-0.6,1.9-1.1
		c0.6-0.5,1-1,1.3-1.7s0.5-1.4,0.5-2.3c0-0.8-0.2-1.6-0.5-2.3c-0.3-0.7-0.8-1.2-1.3-1.7s-1.2-0.8-1.9-1.1c-0.7-0.2-1.5-0.4-2.4-0.4
		c-0.8,0-1.6,0.1-2.4,0.4c-0.7,0.2-1.4,0.6-1.9,1.1s-1,1-1.3,1.7s-0.5,1.4-0.5,2.3c0,0.8,0.2,1.6,0.5,2.3c0.3,0.7,0.8,1.2,1.3,1.7
		c0.6,0.5,1.2,0.8,1.9,1.1C-33,112.1-32.2,112.2-31.4,112.2z"/>
	<path fill="#CCCCCC" d="M-37.9,99v-0.8h13V99H-37.9z"/>
</g>
<rect x="-90.8" y="91.2" fill="none" width="15.3" height="34.2"/>
<g enable-background="new    ">
	<path fill="#CCCCCC" d="M-90.5,123.9v-0.8h13v0.8H-90.5z"/>
	<path fill="#CCCCCC" d="M-84,109.1c0.9,0,1.8,0.1,2.7,0.4c0.8,0.3,1.5,0.7,2.2,1.2c0.6,0.5,1.1,1.2,1.4,1.9
		c0.4,0.8,0.5,1.6,0.5,2.6s-0.2,1.8-0.5,2.6s-0.8,1.4-1.4,1.9c-0.6,0.5-1.3,0.9-2.2,1.2c-0.8,0.3-1.7,0.4-2.7,0.4s-1.8-0.1-2.7-0.4
		c-0.8-0.3-1.5-0.7-2.2-1.2c-0.6-0.5-1.1-1.2-1.4-1.9c-0.4-0.8-0.5-1.6-0.5-2.6s0.2-1.8,0.5-2.6c0.4-0.8,0.8-1.4,1.4-1.9
		c0.6-0.5,1.3-0.9,2.2-1.2C-85.8,109.2-84.9,109.1-84,109.1z M-84,120.6c0.8,0,1.6-0.1,2.4-0.4c0.7-0.2,1.4-0.6,1.9-1.1
		c0.6-0.5,1-1,1.3-1.7s0.5-1.4,0.5-2.3c0-0.8-0.2-1.6-0.5-2.3c-0.3-0.7-0.8-1.2-1.3-1.7s-1.2-0.8-1.9-1.1c-0.7-0.2-1.5-0.4-2.4-0.4
		c-0.8,0-1.6,0.1-2.4,0.4c-0.7,0.2-1.4,0.6-1.9,1.1s-1,1-1.3,1.7s-0.5,1.4-0.5,2.3c0,0.8,0.2,1.6,0.5,2.3c0.3,0.7,0.8,1.2,1.3,1.7
		c0.6,0.5,1.2,0.8,1.9,1.1C-85.6,120.5-84.8,120.6-84,120.6z"/>
	<path fill="#CCCCCC" d="M-84,95.6c0.9,0,1.8,0.1,2.7,0.4c0.8,0.3,1.5,0.7,2.2,1.2c0.6,0.5,1.1,1.2,1.4,1.9c0.4,0.8,0.5,1.6,0.5,2.6
		s-0.2,1.8-0.5,2.6s-0.8,1.4-1.4,1.9c-0.6,0.5-1.3,0.9-2.2,1.2c-0.8,0.3-1.7,0.4-2.7,0.4s-1.8-0.1-2.7-0.4c-0.8-0.3-1.5-0.7-2.2-1.2
		c-0.6-0.5-1.1-1.2-1.4-1.9c-0.4-0.8-0.5-1.6-0.5-2.6s0.2-1.8,0.5-2.6c0.4-0.8,0.8-1.4,1.4-1.9c0.6-0.5,1.3-0.9,2.2-1.2
		C-85.8,95.8-84.9,95.6-84,95.6z M-84,107.2c0.8,0,1.6-0.1,2.4-0.4c0.7-0.2,1.4-0.6,1.9-1.1c0.6-0.5,1-1,1.3-1.7s0.5-1.4,0.5-2.3
		c0-0.8-0.2-1.6-0.5-2.3c-0.3-0.7-0.8-1.2-1.3-1.7s-1.2-0.8-1.9-1.1c-0.7-0.2-1.5-0.4-2.4-0.4c-0.8,0-1.6,0.1-2.4,0.4
		c-0.7,0.2-1.4,0.6-1.9,1.1s-1,1-1.3,1.7s-0.5,1.4-0.5,2.3c0,0.8,0.2,1.6,0.5,2.3c0.3,0.7,0.8,1.2,1.3,1.7c0.6,0.5,1.2,0.8,1.9,1.1
		C-85.6,107-84.8,107.2-84,107.2z"/>
</g>
<rect x="-20.8" y="99.7" fill="none" width="15.3" height="31.1"/>
<g enable-background="new    ">
	<path fill="#CCCCCC" d="M-14,119.7c0.9,0,1.8,0.1,2.7,0.4c0.8,0.3,1.5,0.7,2.2,1.2c0.6,0.5,1.1,1.2,1.4,1.9
		c0.4,0.8,0.5,1.6,0.5,2.6s-0.2,1.8-0.5,2.6c-0.3,0.8-0.8,1.4-1.4,1.9c-0.6,0.5-1.3,0.9-2.2,1.2c-0.8,0.3-1.7,0.4-2.7,0.4
		s-1.8-0.1-2.7-0.4c-0.8-0.3-1.5-0.7-2.2-1.2c-0.6-0.5-1.1-1.2-1.4-1.9c-0.4-0.8-0.5-1.6-0.5-2.6s0.2-1.8,0.5-2.6
		c0.4-0.8,0.8-1.4,1.4-1.9c0.6-0.5,1.3-0.9,2.2-1.2C-15.8,119.8-14.9,119.7-14,119.7z M-14,131.2c0.8,0,1.6-0.1,2.4-0.4
		c0.7-0.2,1.4-0.6,1.9-1.1c0.6-0.5,1-1,1.3-1.7s0.5-1.4,0.5-2.3c0-0.8-0.2-1.6-0.5-2.3c-0.3-0.7-0.8-1.2-1.3-1.7s-1.2-0.8-1.9-1.1
		c-0.7-0.2-1.5-0.4-2.4-0.4c-0.8,0-1.6,0.1-2.4,0.4c-0.7,0.2-1.4,0.6-1.9,1.1s-1,1-1.3,1.7s-0.5,1.4-0.5,2.3c0,0.8,0.2,1.6,0.5,2.3
		c0.3,0.7,0.8,1.2,1.3,1.7c0.6,0.5,1.2,0.8,1.9,1.1C-15.6,131.1-14.8,131.2-14,131.2z"/>
	<path fill="#CCCCCC" d="M-20.5,117.9v-0.8h13v0.8H-20.5z"/>
	<path fill="#CCCCCC" d="M-14,103.1c0.9,0,1.8,0.1,2.7,0.4c0.8,0.3,1.5,0.7,2.2,1.2c0.6,0.5,1.1,1.2,1.4,1.9
		c0.4,0.8,0.5,1.6,0.5,2.6s-0.2,1.8-0.5,2.6s-0.8,1.4-1.4,1.9c-0.6,0.5-1.3,0.9-2.2,1.2c-0.8,0.3-1.7,0.4-2.7,0.4s-1.8-0.1-2.7-0.4
		c-0.8-0.3-1.5-0.7-2.2-1.2c-0.6-0.5-1.1-1.2-1.4-1.9c-0.4-0.8-0.5-1.6-0.5-2.6s0.2-1.8,0.5-2.6c0.4-0.8,0.8-1.4,1.4-1.9
		c0.6-0.5,1.3-0.9,2.2-1.2C-15.8,103.3-14.9,103.1-14,103.1z M-14,114.6c0.8,0,1.6-0.1,2.4-0.4c0.7-0.2,1.4-0.6,1.9-1.1
		c0.6-0.5,1-1,1.3-1.7s0.5-1.4,0.5-2.3c0-0.8-0.2-1.6-0.5-2.3c-0.3-0.7-0.8-1.2-1.3-1.7s-1.2-0.8-1.9-1.1c-0.7-0.2-1.5-0.4-2.4-0.4
		c-0.8,0-1.6,0.1-2.4,0.4c-0.7,0.2-1.4,0.6-1.9,1.1s-1,1-1.3,1.7s-0.5,1.4-0.5,2.3c0,0.8,0.2,1.6,0.5,2.3c0.3,0.7,0.8,1.2,1.3,1.7
		c0.6,0.5,1.2,0.8,1.9,1.1C-15.6,114.5-14.8,114.6-14,114.6z"/>
</g>
<rect x="-73" y="95.4" fill="none" width="15.3" height="40.1"/>
<g enable-background="new    ">
	<path fill="#CCCCCC" d="M-66.5,153.1c0.9,0,1.8,0.1,2.7,0.4c0.8,0.3,1.5,0.7,2.2,1.2c0.6,0.5,1.1,1.2,1.4,1.9
		c0.4,0.8,0.5,1.6,0.5,2.6s-0.2,1.8-0.5,2.6s-0.8,1.4-1.4,1.9c-0.6,0.5-1.3,0.9-2.2,1.2c-0.8,0.3-1.7,0.4-2.7,0.4s-1.8-0.1-2.7-0.4
		c-0.8-0.3-1.5-0.7-2.2-1.2c-0.6-0.5-1.1-1.2-1.4-1.9c-0.4-0.8-0.5-1.6-0.5-2.6s0.2-1.8,0.5-2.6c0.4-0.8,0.8-1.4,1.4-1.9
		c0.6-0.5,1.3-0.9,2.2-1.2C-68.3,153.3-67.4,153.1-66.5,153.1z M-66.5,164.7c0.8,0,1.6-0.1,2.4-0.4c0.7-0.2,1.4-0.6,1.9-1.1
		c0.6-0.5,1-1,1.3-1.7c0.3-0.7,0.5-1.4,0.5-2.3c0-0.8-0.2-1.6-0.5-2.3c-0.3-0.7-0.8-1.2-1.3-1.7s-1.2-0.8-1.9-1.1
		c-0.7-0.2-1.5-0.4-2.4-0.4c-0.8,0-1.6,0.1-2.4,0.4c-0.7,0.2-1.4,0.6-1.9,1.1s-1,1-1.3,1.7c-0.3,0.7-0.5,1.4-0.5,2.3
		c0,0.8,0.2,1.6,0.5,2.3c0.3,0.7,0.8,1.2,1.3,1.7c0.6,0.5,1.2,0.8,1.9,1.1C-68.1,164.5-67.3,164.7-66.5,164.7z"/>
	<path fill="#CCCCCC" d="M-66.5,139.7c0.9,0,1.8,0.1,2.7,0.4c0.8,0.3,1.5,0.7,2.2,1.2c0.6,0.5,1.1,1.2,1.4,1.9
		c0.4,0.8,0.5,1.6,0.5,2.6s-0.2,1.8-0.5,2.6s-0.8,1.4-1.4,1.9c-0.6,0.5-1.3,0.9-2.2,1.2c-0.8,0.3-1.7,0.4-2.7,0.4s-1.8-0.1-2.7-0.4
		c-0.8-0.3-1.5-0.7-2.2-1.2c-0.6-0.5-1.1-1.2-1.4-1.9c-0.4-0.8-0.5-1.6-0.5-2.6s0.2-1.8,0.5-2.6c0.4-0.8,0.8-1.4,1.4-1.9
		c0.6-0.5,1.3-0.9,2.2-1.2C-68.3,139.8-67.4,139.7-66.5,139.7z M-66.5,151.2c0.8,0,1.6-0.1,2.4-0.4c0.7-0.2,1.4-0.6,1.9-1.1
		c0.6-0.5,1-1,1.3-1.7s0.5-1.4,0.5-2.3c0-0.8-0.2-1.6-0.5-2.3c-0.3-0.7-0.8-1.2-1.3-1.7s-1.2-0.8-1.9-1.1c-0.7-0.2-1.5-0.4-2.4-0.4
		c-0.8,0-1.6,0.1-2.4,0.4c-0.7,0.2-1.4,0.6-1.9,1.1s-1,1-1.3,1.7s-0.5,1.4-0.5,2.3c0,0.8,0.2,1.6,0.5,2.3c0.3,0.7,0.8,1.2,1.3,1.7
		c0.6,0.5,1.2,0.8,1.9,1.1C-68.1,151.1-67.3,151.2-66.5,151.2z"/>
	<path fill="#CCCCCC" d="M-73,138v-0.8h13v0.8H-73z"/>
	<path fill="#CCCCCC" d="M-73,134.9v-0.8h13v0.8H-73z"/>
	<path fill="#CCCCCC" d="M-66.5,120.1c0.9,0,1.8,0.1,2.7,0.4c0.8,0.3,1.5,0.7,2.2,1.2c0.6,0.5,1.1,1.2,1.4,1.9
		c0.4,0.8,0.5,1.6,0.5,2.6s-0.2,1.8-0.5,2.6c-0.3,0.8-0.8,1.4-1.4,1.9c-0.6,0.5-1.3,0.9-2.2,1.2c-0.8,0.3-1.7,0.4-2.7,0.4
		s-1.8-0.1-2.7-0.4c-0.8-0.3-1.5-0.7-2.2-1.2c-0.6-0.5-1.1-1.2-1.4-1.9c-0.4-0.8-0.5-1.6-0.5-2.6s0.2-1.8,0.5-2.6
		c0.4-0.8,0.8-1.4,1.4-1.9c0.6-0.5,1.3-0.9,2.2-1.2C-68.3,120.2-67.4,120.1-66.5,120.1z M-66.5,131.6c0.8,0,1.6-0.1,2.4-0.4
		c0.7-0.2,1.4-0.6,1.9-1.1c0.6-0.5,1-1,1.3-1.7c0.3-0.7,0.5-1.4,0.5-2.3c0-0.8-0.2-1.6-0.5-2.3c-0.3-0.7-0.8-1.2-1.3-1.7
		s-1.2-0.8-1.9-1.1c-0.7-0.2-1.5-0.4-2.4-0.4c-0.8,0-1.6,0.1-2.4,0.4c-0.7,0.2-1.4,0.6-1.9,1.1s-1,1-1.3,1.7s-0.5,1.4-0.5,2.3
		c0,0.8,0.2,1.6,0.5,2.3c0.3,0.7,0.8,1.2,1.3,1.7c0.6,0.5,1.2,0.8,1.9,1.1C-68.1,131.5-67.3,131.6-66.5,131.6z"/>
</g>
<rect x="-38.6" y="97.1" fill="none" width="15.3" height="34.7"/>
<rect x="-56.2" y="95.4" fill="none" width="15.3" height="34.7"/>
<g enable-background="new    ">
	<path fill="#CCCCCC" d="M-55.5,129.3v-0.8h13v0.8H-55.5z"/>
	<path fill="#CCCCCC" d="M-49,114.4c0.9,0,1.8,0.1,2.7,0.4c0.8,0.3,1.5,0.7,2.2,1.2c0.6,0.5,1.1,1.2,1.4,1.9
		c0.4,0.8,0.5,1.6,0.5,2.6s-0.2,1.8-0.5,2.6s-0.8,1.4-1.4,1.9c-0.6,0.5-1.3,0.9-2.2,1.2c-0.8,0.3-1.7,0.4-2.7,0.4s-1.8-0.1-2.7-0.4
		c-0.8-0.3-1.5-0.7-2.2-1.2c-0.6-0.5-1.1-1.2-1.4-1.9c-0.4-0.8-0.5-1.6-0.5-2.6s0.2-1.8,0.5-2.6c0.4-0.8,0.8-1.4,1.4-1.9
		c0.6-0.5,1.3-0.9,2.2-1.2C-50.8,114.6-49.9,114.4-49,114.4z M-49,126c0.8,0,1.6-0.1,2.4-0.4c0.7-0.2,1.4-0.6,1.9-1.1
		c0.6-0.5,1-1,1.3-1.7s0.5-1.4,0.5-2.3c0-0.8-0.2-1.6-0.5-2.3c-0.3-0.7-0.8-1.2-1.3-1.7s-1.2-0.8-1.9-1.1c-0.7-0.2-1.5-0.4-2.4-0.4
		c-0.8,0-1.6,0.1-2.4,0.4c-0.7,0.2-1.4,0.6-1.9,1.1s-1,1-1.3,1.7s-0.5,1.4-0.5,2.3c0,0.8,0.2,1.6,0.5,2.3c0.3,0.7,0.8,1.2,1.3,1.7
		c0.6,0.5,1.2,0.8,1.9,1.1C-50.6,125.8-49.8,126-49,126z"/>
	<path fill="#CCCCCC" d="M-49,101c0.9,0,1.8,0.1,2.7,0.4c0.8,0.3,1.5,0.7,2.2,1.2c0.6,0.5,1.1,1.2,1.4,1.9c0.4,0.8,0.5,1.6,0.5,2.6
		s-0.2,1.8-0.5,2.6s-0.8,1.4-1.4,1.9c-0.6,0.5-1.3,0.9-2.2,1.2c-0.8,0.3-1.7,0.4-2.7,0.4s-1.8-0.1-2.7-0.4c-0.8-0.3-1.5-0.7-2.2-1.2
		c-0.6-0.5-1.1-1.2-1.4-1.9c-0.4-0.8-0.5-1.6-0.5-2.6s0.2-1.8,0.5-2.6c0.4-0.8,0.8-1.4,1.4-1.9c0.6-0.5,1.3-0.9,2.2-1.2
		C-50.8,101.1-49.9,101-49,101z M-49,112.5c0.8,0,1.6-0.1,2.4-0.4c0.7-0.2,1.4-0.6,1.9-1.1c0.6-0.5,1-1,1.3-1.7s0.5-1.4,0.5-2.3
		c0-0.8-0.2-1.6-0.5-2.3c-0.3-0.7-0.8-1.2-1.3-1.7s-1.2-0.8-1.9-1.1c-0.7-0.2-1.5-0.4-2.4-0.4c-0.8,0-1.6,0.1-2.4,0.4
		c-0.7,0.2-1.4,0.6-1.9,1.1s-1,1-1.3,1.7s-0.5,1.4-0.5,2.3c0,0.8,0.2,1.6,0.5,2.3c0.3,0.7,0.8,1.2,1.3,1.7c0.6,0.5,1.2,0.8,1.9,1.1
		C-50.6,112.4-49.8,112.5-49,112.5z"/>
</g>
<g enable-background="new    ">
	<path fill="#CCCCCC" d="M-49.1,150.4c0.9,0,1.8,0.1,2.7,0.4c0.8,0.3,1.5,0.7,2.2,1.2c0.6,0.5,1.1,1.2,1.4,1.9
		c0.4,0.8,0.5,1.6,0.5,2.6s-0.2,1.8-0.5,2.6c-0.3,0.8-0.8,1.4-1.4,1.9c-0.6,0.5-1.3,0.9-2.2,1.2c-0.8,0.3-1.7,0.4-2.7,0.4
		s-1.8-0.1-2.7-0.4c-0.8-0.3-1.5-0.7-2.2-1.2c-0.6-0.5-1.1-1.2-1.4-1.9c-0.4-0.8-0.5-1.6-0.5-2.6s0.2-1.8,0.5-2.6
		c0.4-0.8,0.8-1.4,1.4-1.9c0.6-0.5,1.3-0.9,2.2-1.2C-50.9,150.6-50,150.4-49.1,150.4z M-49.1,161.9c0.8,0,1.6-0.1,2.4-0.4
		c0.7-0.2,1.4-0.6,1.9-1.1c0.6-0.5,1-1,1.3-1.7s0.5-1.4,0.5-2.3c0-0.8-0.2-1.6-0.5-2.3c-0.3-0.7-0.8-1.2-1.3-1.7s-1.2-0.8-1.9-1.1
		c-0.7-0.2-1.5-0.4-2.4-0.4c-0.8,0-1.6,0.1-2.4,0.4c-0.7,0.2-1.4,0.6-1.9,1.1s-1,1-1.3,1.7c-0.3,0.7-0.5,1.4-0.5,2.3
		c0,0.8,0.2,1.6,0.5,2.3s0.8,1.2,1.3,1.7c0.6,0.5,1.2,0.8,1.9,1.1C-50.7,161.8-49.9,161.9-49.1,161.9z"/>
	<path fill="#CCCCCC" d="M-55.6,148.7v-0.8h13v0.8H-55.6z"/>
	<path fill="#CCCCCC" d="M-49.1,133.9c0.9,0,1.8,0.1,2.7,0.4c0.8,0.3,1.5,0.7,2.2,1.2c0.6,0.5,1.1,1.2,1.4,1.9
		c0.4,0.8,0.5,1.6,0.5,2.6s-0.2,1.8-0.5,2.6s-0.8,1.4-1.4,1.9c-0.6,0.5-1.3,0.9-2.2,1.2c-0.8,0.3-1.7,0.4-2.7,0.4s-1.8-0.1-2.7-0.4
		c-0.8-0.3-1.5-0.7-2.2-1.2c-0.6-0.5-1.1-1.2-1.4-1.9c-0.4-0.8-0.5-1.6-0.5-2.6s0.2-1.8,0.5-2.6c0.4-0.8,0.8-1.4,1.4-1.9
		c0.6-0.5,1.3-0.9,2.2-1.2C-50.9,134-50,133.9-49.1,133.9z M-49.1,145.4c0.8,0,1.6-0.1,2.4-0.4c0.7-0.2,1.4-0.6,1.9-1.1
		c0.6-0.5,1-1,1.3-1.7s0.5-1.4,0.5-2.3c0-0.8-0.2-1.6-0.5-2.3s-0.8-1.2-1.3-1.7s-1.2-0.8-1.9-1.1c-0.7-0.2-1.5-0.4-2.4-0.4
		c-0.8,0-1.6,0.1-2.4,0.4c-0.7,0.2-1.4,0.6-1.9,1.1s-1,1-1.3,1.7s-0.5,1.4-0.5,2.3c0,0.8,0.2,1.6,0.5,2.3s0.8,1.2,1.3,1.7
		c0.6,0.5,1.2,0.8,1.9,1.1C-50.7,145.3-49.9,145.4-49.1,145.4z"/>
</g>
<g enable-background="new    ">
	<path fill="#CCCCCC" d="M-55.4,211.8V211h13v0.8H-55.4z"/>
	<path fill="#CCCCCC" d="M-48.9,197c0.9,0,1.8,0.1,2.7,0.4c0.8,0.3,1.5,0.7,2.2,1.2c0.6,0.5,1.1,1.2,1.4,1.9
		c0.4,0.8,0.5,1.6,0.5,2.6s-0.2,1.8-0.5,2.6c-0.4,0.8-0.8,1.4-1.4,1.9c-0.6,0.5-1.3,0.9-2.2,1.2c-0.8,0.3-1.7,0.4-2.7,0.4
		s-1.8-0.1-2.7-0.4c-0.8-0.3-1.5-0.7-2.2-1.2c-0.6-0.5-1.1-1.2-1.4-1.9c-0.4-0.8-0.5-1.6-0.5-2.6s0.2-1.8,0.5-2.6
		c0.4-0.8,0.8-1.4,1.4-1.9c0.6-0.5,1.3-0.9,2.2-1.2S-49.8,197-48.9,197z M-48.9,208.5c0.8,0,1.6-0.1,2.4-0.4
		c0.8-0.3,1.4-0.6,1.9-1.1c0.6-0.5,1-1,1.3-1.7c0.3-0.7,0.5-1.4,0.5-2.3c0-0.9-0.2-1.6-0.5-2.3s-0.8-1.2-1.3-1.7s-1.2-0.8-1.9-1.1
		c-0.7-0.2-1.5-0.4-2.4-0.4c-0.8,0-1.6,0.1-2.4,0.4c-0.7,0.2-1.4,0.6-1.9,1.1s-1,1-1.3,1.7s-0.5,1.4-0.5,2.3c0,0.9,0.2,1.6,0.5,2.3
		s0.8,1.2,1.3,1.7c0.6,0.5,1.2,0.8,1.9,1.1C-50.5,208.4-49.7,208.5-48.9,208.5z"/>
	<path fill="#CCCCCC" d="M-48.9,183.6c0.9,0,1.8,0.1,2.7,0.4c0.8,0.3,1.5,0.7,2.2,1.2c0.6,0.5,1.1,1.2,1.4,1.9
		c0.4,0.8,0.5,1.6,0.5,2.6s-0.2,1.8-0.5,2.6s-0.8,1.4-1.4,1.9c-0.6,0.5-1.3,0.9-2.2,1.2c-0.8,0.3-1.7,0.4-2.7,0.4s-1.8-0.1-2.7-0.4
		c-0.8-0.3-1.5-0.7-2.2-1.2c-0.6-0.5-1.1-1.2-1.4-1.9c-0.4-0.8-0.5-1.6-0.5-2.6s0.2-1.8,0.5-2.6c0.4-0.8,0.8-1.4,1.4-1.9
		c0.6-0.5,1.3-0.9,2.2-1.2S-49.8,183.6-48.9,183.6z M-48.9,195.1c0.8,0,1.6-0.1,2.4-0.4c0.7-0.2,1.4-0.6,1.9-1.1
		c0.6-0.5,1-1,1.3-1.7s0.5-1.4,0.5-2.3c0-0.8-0.2-1.6-0.5-2.3c-0.3-0.7-0.8-1.2-1.3-1.7s-1.2-0.8-1.9-1.1c-0.7-0.2-1.5-0.4-2.4-0.4
		c-0.8,0-1.6,0.1-2.4,0.4c-0.7,0.2-1.4,0.6-1.9,1.1s-1,1-1.3,1.7c-0.3,0.7-0.5,1.4-0.5,2.3c0,0.8,0.2,1.6,0.5,2.3s0.8,1.2,1.3,1.7
		c0.6,0.5,1.2,0.8,1.9,1.1C-50.5,195-49.7,195.1-48.9,195.1z"/>
	<path fill="#CCCCCC" d="M-55.4,181.8V181h13v0.8H-55.4z"/>
	<path fill="#CCCCCC" d="M-48.9,167c0.9,0,1.8,0.1,2.7,0.4c0.8,0.3,1.5,0.7,2.2,1.2c0.6,0.5,1.1,1.2,1.4,1.9
		c0.4,0.8,0.5,1.6,0.5,2.6s-0.2,1.8-0.5,2.6s-0.8,1.4-1.4,1.9c-0.6,0.5-1.3,0.9-2.2,1.2c-0.8,0.3-1.7,0.4-2.7,0.4s-1.8-0.1-2.7-0.4
		c-0.8-0.3-1.5-0.7-2.2-1.2c-0.6-0.5-1.1-1.2-1.4-1.9c-0.4-0.8-0.5-1.6-0.5-2.6s0.2-1.8,0.5-2.6c0.4-0.8,0.8-1.4,1.4-1.9
		c0.6-0.5,1.3-0.9,2.2-1.2C-50.7,167.2-49.8,167-48.9,167z M-48.9,178.5c0.8,0,1.6-0.1,2.4-0.4c0.7-0.2,1.4-0.6,1.9-1.1
		c0.6-0.5,1-1,1.3-1.7c0.3-0.7,0.5-1.4,0.5-2.3c0-0.8-0.2-1.6-0.5-2.3s-0.8-1.2-1.3-1.7s-1.2-0.8-1.9-1.1c-0.7-0.2-1.5-0.4-2.4-0.4
		c-0.8,0-1.6,0.1-2.4,0.4c-0.7,0.2-1.4,0.6-1.9,1.1s-1,1-1.3,1.7s-0.5,1.4-0.5,2.3c0,0.8,0.2,1.6,0.5,2.3c0.3,0.7,0.8,1.2,1.3,1.7
		c0.6,0.5,1.2,0.8,1.9,1.1C-50.5,178.4-49.7,178.5-48.9,178.5z"/>
</g>
<rect x="-90.8" y="117.8" fill="none" width="15.3" height="42"/>
<g enable-background="new    ">
	<path fill="#CCCCCC" d="M-84,146.5c0.9,0,1.8,0.1,2.7,0.4c0.8,0.3,1.5,0.7,2.2,1.2c0.6,0.5,1.1,1.2,1.4,1.9
		c0.4,0.8,0.5,1.6,0.5,2.6s-0.2,1.8-0.5,2.6s-0.8,1.4-1.4,1.9c-0.6,0.5-1.3,0.9-2.2,1.2c-0.8,0.3-1.7,0.4-2.7,0.4s-1.8-0.1-2.7-0.4
		c-0.8-0.3-1.5-0.7-2.2-1.2c-0.6-0.5-1.1-1.2-1.4-1.9c-0.4-0.8-0.5-1.6-0.5-2.6s0.2-1.8,0.5-2.6c0.4-0.8,0.8-1.4,1.4-1.9
		c0.6-0.5,1.3-0.9,2.2-1.2C-85.8,146.6-84.9,146.5-84,146.5z M-84,158c0.8,0,1.6-0.1,2.4-0.4c0.7-0.2,1.4-0.6,1.9-1.1
		c0.6-0.5,1-1,1.3-1.7c0.3-0.7,0.5-1.4,0.5-2.3c0-0.8-0.2-1.6-0.5-2.3s-0.8-1.2-1.3-1.7s-1.2-0.8-1.9-1.1c-0.7-0.2-1.5-0.4-2.4-0.4
		c-0.8,0-1.6,0.1-2.4,0.4c-0.7,0.2-1.4,0.6-1.9,1.1s-1,1-1.3,1.7s-0.5,1.4-0.5,2.3c0,0.8,0.2,1.6,0.5,2.3s0.8,1.2,1.3,1.7
		c0.6,0.5,1.2,0.8,1.9,1.1C-85.6,157.9-84.8,158-84,158z"/>
	<path fill="#CCCCCC" d="M-84,133.1c0.9,0,1.8,0.1,2.7,0.4c0.8,0.3,1.5,0.7,2.2,1.2c0.6,0.5,1.1,1.2,1.4,1.9
		c0.4,0.8,0.5,1.6,0.5,2.6s-0.2,1.8-0.5,2.6c-0.3,0.8-0.8,1.4-1.4,1.9c-0.6,0.5-1.3,0.9-2.2,1.2c-0.8,0.3-1.7,0.4-2.7,0.4
		s-1.8-0.1-2.7-0.4c-0.8-0.3-1.5-0.7-2.2-1.2c-0.6-0.5-1.1-1.2-1.4-1.9c-0.4-0.8-0.5-1.6-0.5-2.6s0.2-1.8,0.5-2.6
		c0.4-0.8,0.8-1.4,1.4-1.9c0.6-0.5,1.3-0.9,2.2-1.2C-85.8,133.2-84.9,133.1-84,133.1z M-84,144.6c0.8,0,1.6-0.1,2.4-0.4
		c0.7-0.2,1.4-0.6,1.9-1.1c0.6-0.5,1-1,1.3-1.7c0.3-0.7,0.5-1.4,0.5-2.3c0-0.8-0.2-1.6-0.5-2.3c-0.3-0.7-0.8-1.2-1.3-1.7
		s-1.2-0.8-1.9-1.1c-0.7-0.2-1.5-0.4-2.4-0.4c-0.8,0-1.6,0.1-2.4,0.4c-0.7,0.2-1.4,0.6-1.9,1.1s-1,1-1.3,1.7
		c-0.3,0.7-0.5,1.4-0.5,2.3c0,0.8,0.2,1.6,0.5,2.3c0.3,0.7,0.8,1.2,1.3,1.7c0.6,0.5,1.2,0.8,1.9,1.1
		C-85.6,144.5-84.8,144.6-84,144.6z"/>
	<path fill="#CCCCCC" d="M-90.5,131.4v-0.8h13v0.8H-90.5z"/>
</g>
<rect x="-90.8" y="138.1" fill="none" width="15.3" height="58.6"/>
<g enable-background="new    ">
	<path fill="#CCCCCC" d="M-90.5,195.6v-0.8h13v0.8H-90.5z"/>
	<path fill="#CCCCCC" d="M-84,180.7c0.9,0,1.8,0.1,2.7,0.4c0.8,0.3,1.5,0.7,2.2,1.2c0.6,0.5,1.1,1.2,1.4,1.9
		c0.4,0.8,0.5,1.6,0.5,2.6s-0.2,1.8-0.5,2.6c-0.3,0.8-0.8,1.4-1.4,1.9c-0.6,0.5-1.3,0.9-2.2,1.2c-0.8,0.3-1.7,0.4-2.7,0.4
		s-1.8-0.1-2.7-0.4c-0.8-0.3-1.5-0.7-2.2-1.2c-0.6-0.5-1.1-1.2-1.4-1.9c-0.4-0.8-0.5-1.6-0.5-2.6s0.2-1.8,0.5-2.6
		c0.4-0.8,0.8-1.4,1.4-1.9c0.6-0.5,1.3-0.9,2.2-1.2C-85.8,180.9-84.9,180.7-84,180.7z M-84,192.3c0.8,0,1.6-0.1,2.4-0.4
		c0.7-0.2,1.4-0.6,1.9-1.1c0.6-0.5,1-1,1.3-1.7c0.3-0.7,0.5-1.4,0.5-2.3c0-0.8-0.2-1.6-0.5-2.3s-0.8-1.2-1.3-1.7s-1.2-0.8-1.9-1.1
		c-0.7-0.2-1.5-0.4-2.4-0.4c-0.8,0-1.6,0.1-2.4,0.4c-0.7,0.2-1.4,0.6-1.9,1.1s-1,1-1.3,1.7s-0.5,1.4-0.5,2.3c0,0.8,0.2,1.6,0.5,2.3
		c0.3,0.7,0.8,1.2,1.3,1.7c0.6,0.5,1.2,0.8,1.9,1.1C-85.6,192.1-84.8,192.3-84,192.3z"/>
	<path fill="#CCCCCC" d="M-84,167.3c0.9,0,1.8,0.1,2.7,0.4c0.8,0.3,1.5,0.7,2.2,1.2c0.6,0.5,1.1,1.2,1.4,1.9
		c0.4,0.8,0.5,1.6,0.5,2.6s-0.2,1.8-0.5,2.6c-0.3,0.8-0.8,1.4-1.4,1.9c-0.6,0.5-1.3,0.9-2.2,1.2c-0.8,0.3-1.7,0.4-2.7,0.4
		s-1.8-0.1-2.7-0.4c-0.8-0.3-1.5-0.7-2.2-1.2c-0.6-0.5-1.1-1.2-1.4-1.9c-0.4-0.8-0.5-1.6-0.5-2.6s0.2-1.8,0.5-2.6
		c0.4-0.8,0.8-1.4,1.4-1.9c0.6-0.5,1.3-0.9,2.2-1.2S-84.9,167.3-84,167.3z M-84,178.8c0.8,0,1.6-0.1,2.4-0.4
		c0.7-0.2,1.4-0.6,1.9-1.1c0.6-0.5,1-1,1.3-1.7s0.5-1.4,0.5-2.3c0-0.8-0.2-1.6-0.5-2.3c-0.3-0.7-0.8-1.2-1.3-1.7s-1.2-0.8-1.9-1.1
		c-0.7-0.2-1.5-0.4-2.4-0.4c-0.8,0-1.6,0.1-2.4,0.4c-0.7,0.2-1.4,0.6-1.9,1.1s-1,1-1.3,1.7c-0.3,0.7-0.5,1.4-0.5,2.3
		c0,0.8,0.2,1.6,0.5,2.3s0.8,1.2,1.3,1.7c0.6,0.5,1.2,0.8,1.9,1.1C-85.6,178.7-84.8,178.8-84,178.8z"/>
</g>
<rect x="-37.3" y="124.1" fill="none" width="15.3" height="58.6"/>
<g enable-background="new    ">
	<path fill="#CCCCCC" d="M-31.3,170.1c0.9,0,1.8,0.1,2.7,0.4c0.8,0.3,1.5,0.7,2.2,1.2c0.6,0.5,1.1,1.2,1.4,1.9
		c0.4,0.8,0.5,1.6,0.5,2.6s-0.2,1.8-0.5,2.6s-0.8,1.4-1.4,1.9c-0.6,0.5-1.3,0.9-2.2,1.2c-0.8,0.3-1.7,0.4-2.7,0.4s-1.8-0.1-2.7-0.4
		c-0.8-0.3-1.5-0.7-2.2-1.2c-0.6-0.5-1.1-1.2-1.4-1.9c-0.4-0.8-0.5-1.6-0.5-2.6s0.2-1.8,0.5-2.6c0.4-0.8,0.8-1.4,1.4-1.9
		c0.6-0.5,1.3-0.9,2.2-1.2C-33.2,170.2-32.3,170.1-31.3,170.1z M-31.3,181.6c0.8,0,1.6-0.1,2.4-0.4c0.7-0.2,1.4-0.6,1.9-1.1
		c0.6-0.5,1-1,1.3-1.7c0.3-0.7,0.5-1.4,0.5-2.3c0-0.8-0.2-1.6-0.5-2.3s-0.8-1.2-1.3-1.7s-1.2-0.8-1.9-1.1c-0.7-0.2-1.5-0.4-2.4-0.4
		c-0.8,0-1.6,0.1-2.4,0.4c-0.7,0.2-1.4,0.6-1.9,1.1s-1,1-1.3,1.7s-0.5,1.4-0.5,2.3c0,0.8,0.2,1.6,0.5,2.3c0.3,0.7,0.8,1.2,1.3,1.7
		c0.6,0.5,1.2,0.8,1.9,1.1S-32.2,181.6-31.3,181.6z"/>
	<path fill="#CCCCCC" d="M-37.8,168.4v-0.8h13v0.8H-37.8z"/>
	<path fill="#CCCCCC" d="M-31.3,153.6c0.9,0,1.8,0.1,2.7,0.4c0.8,0.3,1.5,0.7,2.2,1.2c0.6,0.5,1.1,1.2,1.4,1.9
		c0.4,0.8,0.5,1.6,0.5,2.6s-0.2,1.8-0.5,2.6s-0.8,1.4-1.4,1.9c-0.6,0.5-1.3,0.9-2.2,1.2c-0.8,0.3-1.7,0.4-2.7,0.4s-1.8-0.1-2.7-0.4
		c-0.8-0.3-1.5-0.7-2.2-1.2c-0.6-0.5-1.1-1.2-1.4-1.9c-0.4-0.8-0.5-1.6-0.5-2.6s0.2-1.8,0.5-2.6c0.4-0.8,0.8-1.4,1.4-1.9
		c0.6-0.5,1.3-0.9,2.2-1.2C-33.2,153.7-32.3,153.6-31.3,153.6z M-31.3,165.1c0.8,0,1.6-0.1,2.4-0.4c0.7-0.2,1.4-0.6,1.9-1.1
		c0.6-0.5,1-1,1.3-1.7c0.3-0.7,0.5-1.4,0.5-2.3c0-0.8-0.2-1.6-0.5-2.3s-0.8-1.2-1.3-1.7s-1.2-0.8-1.9-1.1c-0.7-0.2-1.5-0.4-2.4-0.4
		c-0.8,0-1.6,0.1-2.4,0.4c-0.7,0.2-1.4,0.6-1.9,1.1s-1,1-1.3,1.7s-0.5,1.4-0.5,2.3c0,0.8,0.2,1.6,0.5,2.3c0.3,0.7,0.8,1.2,1.3,1.7
		c0.6,0.5,1.2,0.8,1.9,1.1S-32.2,165.1-31.3,165.1z"/>
	<path fill="#CCCCCC" d="M-31.3,140.1c0.9,0,1.8,0.1,2.7,0.4c0.8,0.3,1.5,0.7,2.2,1.2c0.6,0.5,1.1,1.2,1.4,1.9
		c0.4,0.8,0.5,1.6,0.5,2.6s-0.2,1.8-0.5,2.6c-0.3,0.8-0.8,1.4-1.4,1.9c-0.6,0.5-1.3,0.9-2.2,1.2c-0.8,0.3-1.7,0.4-2.7,0.4
		s-1.8-0.1-2.7-0.4c-0.8-0.3-1.5-0.7-2.2-1.2c-0.6-0.5-1.1-1.2-1.4-1.9c-0.4-0.8-0.5-1.6-0.5-2.6s0.2-1.8,0.5-2.6
		c0.4-0.8,0.8-1.4,1.4-1.9c0.6-0.5,1.3-0.9,2.2-1.2C-33.2,140.3-32.3,140.1-31.3,140.1z M-31.3,151.7c0.8,0,1.6-0.1,2.4-0.4
		c0.7-0.2,1.4-0.6,1.9-1.1c0.6-0.5,1-1,1.3-1.7s0.5-1.4,0.5-2.3c0-0.8-0.2-1.6-0.5-2.3c-0.3-0.7-0.8-1.2-1.3-1.7s-1.2-0.8-1.9-1.1
		c-0.7-0.2-1.5-0.4-2.4-0.4c-0.8,0-1.6,0.1-2.4,0.4c-0.7,0.2-1.4,0.6-1.9,1.1s-1,1-1.3,1.7s-0.5,1.4-0.5,2.3c0,0.8,0.2,1.6,0.5,2.3
		c0.3,0.7,0.8,1.2,1.3,1.7c0.6,0.5,1.2,0.8,1.9,1.1C-33,151.5-32.2,151.7-31.3,151.7z"/>
	<path fill="#CCCCCC" d="M-37.8,138.4v-0.8h13v0.8H-37.8z"/>
</g>
<rect x="-37.3" y="166.1" fill="none" width="15.3" height="58.6"/>
<g enable-background="new    ">
	<path fill="#CCCCCC" d="M-31.5,211.7c0.9,0,1.8,0.1,2.7,0.4c0.8,0.3,1.5,0.7,2.2,1.2c0.6,0.5,1.1,1.2,1.4,1.9s0.5,1.6,0.5,2.6
		s-0.2,1.8-0.5,2.6c-0.4,0.8-0.8,1.4-1.4,1.9c-0.6,0.5-1.3,0.9-2.2,1.2c-0.8,0.3-1.7,0.4-2.7,0.4s-1.8-0.1-2.7-0.4
		c-0.8-0.3-1.5-0.7-2.2-1.2c-0.6-0.5-1.1-1.2-1.4-1.9c-0.4-0.8-0.5-1.6-0.5-2.6s0.2-1.8,0.5-2.6c0.4-0.8,0.8-1.4,1.4-1.9
		c0.6-0.5,1.3-0.9,2.2-1.2C-33.3,211.8-32.4,211.7-31.5,211.7z M-31.5,223.2c0.8,0,1.6-0.1,2.4-0.4c0.8-0.3,1.4-0.6,1.9-1.1
		c0.6-0.5,1-1,1.3-1.7s0.5-1.4,0.5-2.3s-0.2-1.6-0.5-2.3s-0.8-1.2-1.3-1.7s-1.2-0.8-1.9-1.1c-0.7-0.3-1.5-0.4-2.4-0.4
		c-0.8,0-1.6,0.1-2.4,0.4c-0.7,0.2-1.4,0.6-1.9,1.1s-1,1-1.3,1.7s-0.5,1.4-0.5,2.3s0.2,1.6,0.5,2.3s0.8,1.2,1.3,1.7
		c0.6,0.5,1.2,0.8,1.9,1.1C-33.1,223.1-32.3,223.2-31.5,223.2z"/>
	<path fill="#CCCCCC" d="M-31.5,198.3c0.9,0,1.8,0.1,2.7,0.4c0.8,0.3,1.5,0.7,2.2,1.2c0.6,0.5,1.1,1.2,1.4,1.9
		c0.3,0.7,0.5,1.6,0.5,2.6s-0.2,1.8-0.5,2.6c-0.4,0.8-0.8,1.4-1.4,1.9c-0.6,0.5-1.3,0.9-2.2,1.2c-0.8,0.3-1.7,0.4-2.7,0.4
		s-1.8-0.1-2.7-0.4c-0.8-0.3-1.5-0.7-2.2-1.2c-0.6-0.5-1.1-1.2-1.4-1.9c-0.4-0.8-0.5-1.6-0.5-2.6s0.2-1.8,0.5-2.6
		c0.4-0.8,0.8-1.4,1.4-1.9c0.6-0.5,1.3-0.9,2.2-1.2S-32.4,198.3-31.5,198.3z M-31.5,209.8c0.8,0,1.6-0.1,2.4-0.4s1.4-0.6,1.9-1.1
		c0.6-0.5,1-1,1.3-1.7c0.3-0.7,0.5-1.4,0.5-2.3c0-0.9-0.2-1.6-0.5-2.3s-0.8-1.2-1.3-1.7s-1.2-0.8-1.9-1.1s-1.5-0.4-2.4-0.4
		c-0.8,0-1.6,0.1-2.4,0.4c-0.7,0.2-1.4,0.6-1.9,1.1s-1,1-1.3,1.7s-0.5,1.4-0.5,2.3c0,0.9,0.2,1.6,0.5,2.3c0.3,0.7,0.8,1.2,1.3,1.7
		c0.6,0.5,1.2,0.8,1.9,1.1C-33.1,209.7-32.3,209.8-31.5,209.8z"/>
	<path fill="#CCCCCC" d="M-37.9,196.6v-0.8h13v0.8H-37.9z"/>
	<path fill="#CCCCCC" d="M-37.9,193.5v-0.8h13v0.8H-37.9z"/>
</g>
<rect x="-73" y="128" fill="none" width="15.3" height="58.6"/>
<g enable-background="new    ">
	<path fill="#CCCCCC" d="M-73.1,215.4v-0.8h13v0.8H-73.1z"/>
	<path fill="#CCCCCC" d="M-66.7,200.5c0.9,0,1.8,0.1,2.7,0.4c0.8,0.3,1.5,0.7,2.2,1.2c0.6,0.5,1.1,1.2,1.4,1.9
		c0.4,0.8,0.5,1.6,0.5,2.6s-0.2,1.8-0.5,2.6s-0.8,1.4-1.4,1.9c-0.6,0.5-1.3,0.9-2.2,1.2c-0.8,0.3-1.7,0.4-2.7,0.4s-1.8-0.1-2.7-0.4
		c-0.8-0.3-1.5-0.7-2.2-1.2c-0.6-0.5-1.1-1.2-1.4-1.9c-0.4-0.8-0.5-1.6-0.5-2.6s0.2-1.8,0.5-2.6c0.4-0.8,0.8-1.4,1.4-1.9
		c0.6-0.5,1.3-0.9,2.2-1.2C-68.5,200.7-67.6,200.5-66.7,200.5z M-66.7,212.1c0.8,0,1.6-0.1,2.4-0.4c0.7-0.2,1.4-0.6,1.9-1.1
		c0.6-0.5,1-1,1.3-1.7s0.5-1.4,0.5-2.3c0-0.8-0.2-1.6-0.5-2.3c-0.3-0.7-0.8-1.2-1.3-1.7s-1.2-0.8-1.9-1.1c-0.7-0.2-1.5-0.4-2.4-0.4
		c-0.8,0-1.6,0.1-2.4,0.4c-0.7,0.2-1.4,0.6-1.9,1.1s-1,1-1.3,1.7c-0.3,0.7-0.5,1.4-0.5,2.3c0,0.8,0.2,1.6,0.5,2.3s0.8,1.2,1.3,1.7
		c0.6,0.5,1.2,0.8,1.9,1.1C-68.3,211.9-67.5,212.1-66.7,212.1z"/>
	<path fill="#CCCCCC" d="M-66.7,187.1c0.9,0,1.8,0.1,2.7,0.4c0.8,0.3,1.5,0.7,2.2,1.2c0.6,0.5,1.1,1.2,1.4,1.9
		c0.4,0.8,0.5,1.6,0.5,2.6s-0.2,1.8-0.5,2.6s-0.8,1.4-1.4,1.9c-0.6,0.5-1.3,0.9-2.2,1.2c-0.8,0.3-1.7,0.4-2.7,0.4s-1.8-0.1-2.7-0.4
		c-0.8-0.3-1.5-0.7-2.2-1.2c-0.6-0.5-1.1-1.2-1.4-1.9c-0.4-0.8-0.5-1.6-0.5-2.6s0.2-1.8,0.5-2.6c0.4-0.8,0.8-1.4,1.4-1.9
		c0.6-0.5,1.3-0.9,2.2-1.2C-68.5,187.2-67.6,187.1-66.7,187.1z M-66.7,198.6c0.8,0,1.6-0.1,2.4-0.4c0.7-0.2,1.4-0.6,1.9-1.1
		c0.6-0.5,1-1,1.3-1.7s0.5-1.4,0.5-2.3c0-0.8-0.2-1.6-0.5-2.3c-0.3-0.7-0.8-1.2-1.3-1.7s-1.2-0.8-1.9-1.1c-0.7-0.2-1.5-0.4-2.4-0.4
		c-0.8,0-1.6,0.1-2.4,0.4c-0.7,0.2-1.4,0.6-1.9,1.1s-1,1-1.3,1.7c-0.3,0.7-0.5,1.4-0.5,2.3c0,0.8,0.2,1.6,0.5,2.3s0.8,1.2,1.3,1.7
		c0.6,0.5,1.2,0.8,1.9,1.1C-68.3,198.5-67.5,198.6-66.7,198.6z"/>
	<path fill="#CCCCCC" d="M-73.1,185.4v-0.8h13v0.8H-73.1z"/>
	<path fill="#CCCCCC" d="M-66.7,170.6c0.9,0,1.8,0.1,2.7,0.4c0.8,0.3,1.5,0.7,2.2,1.2c0.6,0.5,1.1,1.2,1.4,1.9
		c0.4,0.8,0.5,1.6,0.5,2.6s-0.2,1.8-0.5,2.6s-0.8,1.4-1.4,1.9c-0.6,0.5-1.3,0.9-2.2,1.2c-0.8,0.3-1.7,0.4-2.7,0.4s-1.8-0.1-2.7-0.4
		c-0.8-0.3-1.5-0.7-2.2-1.2c-0.6-0.5-1.1-1.2-1.4-1.9c-0.4-0.8-0.5-1.6-0.5-2.6s0.2-1.8,0.5-2.6c0.4-0.8,0.8-1.4,1.4-1.9
		c0.6-0.5,1.3-0.9,2.2-1.2C-68.5,170.7-67.6,170.6-66.7,170.6z M-66.7,182.1c0.8,0,1.6-0.1,2.4-0.4c0.7-0.2,1.4-0.6,1.9-1.1
		c0.6-0.5,1-1,1.3-1.7c0.3-0.7,0.5-1.4,0.5-2.3c0-0.8-0.2-1.6-0.5-2.3s-0.8-1.2-1.3-1.7s-1.2-0.8-1.9-1.1c-0.7-0.2-1.5-0.4-2.4-0.4
		c-0.8,0-1.6,0.1-2.4,0.4c-0.7,0.2-1.4,0.6-1.9,1.1s-1,1-1.3,1.7s-0.5,1.4-0.5,2.3c0,0.8,0.2,1.6,0.5,2.3c0.3,0.7,0.8,1.2,1.3,1.7
		c0.6,0.5,1.2,0.8,1.9,1.1C-68.3,182-67.5,182.1-66.7,182.1z"/>
</g>
<rect x="-73" y="178.9" fill="none" width="15.3" height="58.6"/>
<g enable-background="new    ">
	<path fill="#CCCCCC" d="M-66.5,255.3c0.9,0,1.8,0.1,2.7,0.4c0.8,0.3,1.5,0.7,2.2,1.2c0.6,0.5,1.1,1.2,1.4,1.9
		c0.3,0.7,0.5,1.6,0.5,2.6s-0.2,1.8-0.5,2.6c-0.4,0.8-0.8,1.4-1.4,1.9c-0.6,0.5-1.3,0.9-2.2,1.2c-0.8,0.3-1.7,0.4-2.7,0.4
		s-1.8-0.1-2.7-0.4c-0.8-0.3-1.5-0.7-2.2-1.2c-0.6-0.5-1.1-1.2-1.4-1.9c-0.4-0.8-0.5-1.6-0.5-2.6s0.2-1.8,0.5-2.6
		c0.4-0.8,0.8-1.4,1.4-1.9c0.6-0.5,1.3-0.9,2.2-1.2C-68.4,255.5-67.5,255.3-66.5,255.3z M-66.5,266.8c0.8,0,1.6-0.1,2.4-0.4
		s1.4-0.6,1.9-1.1c0.6-0.5,1-1,1.3-1.7c0.3-0.7,0.5-1.4,0.5-2.3s-0.2-1.6-0.5-2.3s-0.8-1.2-1.3-1.7s-1.2-0.8-1.9-1.1
		c-0.7-0.3-1.5-0.4-2.4-0.4c-0.8,0-1.6,0.1-2.4,0.4c-0.7,0.2-1.4,0.6-1.9,1.1s-1,1-1.3,1.7s-0.5,1.4-0.5,2.3s0.2,1.6,0.5,2.3
		c0.3,0.7,0.8,1.2,1.3,1.7c0.6,0.5,1.2,0.8,1.9,1.1C-68.2,266.7-67.4,266.8-66.5,266.8z"/>
	<path fill="#CCCCCC" d="M-66.5,241.9c0.9,0,1.8,0.1,2.7,0.4c0.8,0.3,1.5,0.7,2.2,1.2c0.6,0.5,1.1,1.2,1.4,1.9s0.5,1.6,0.5,2.6
		s-0.2,1.8-0.5,2.6c-0.4,0.8-0.8,1.4-1.4,1.9c-0.6,0.5-1.3,0.9-2.2,1.2c-0.8,0.3-1.7,0.4-2.7,0.4s-1.8-0.1-2.7-0.4
		c-0.8-0.3-1.5-0.7-2.2-1.2c-0.6-0.5-1.1-1.2-1.4-1.9c-0.4-0.8-0.5-1.6-0.5-2.6s0.2-1.8,0.5-2.6c0.4-0.8,0.8-1.4,1.4-1.9
		c0.6-0.5,1.3-0.9,2.2-1.2C-68.4,242-67.5,241.9-66.5,241.9z M-66.5,253.4c0.8,0,1.6-0.1,2.4-0.4s1.4-0.6,1.9-1.1
		c0.6-0.5,1-1,1.3-1.7s0.5-1.4,0.5-2.3s-0.2-1.6-0.5-2.3c-0.3-0.7-0.8-1.2-1.3-1.7s-1.2-0.8-1.9-1.1s-1.5-0.4-2.4-0.4
		c-0.8,0-1.6,0.1-2.4,0.4c-0.7,0.2-1.4,0.6-1.9,1.1s-1,1-1.3,1.7c-0.3,0.7-0.5,1.4-0.5,2.3s0.2,1.6,0.5,2.3s0.8,1.2,1.3,1.7
		c0.6,0.5,1.2,0.8,1.9,1.1C-68.2,253.3-67.4,253.4-66.5,253.4z"/>
	<path fill="#CCCCCC" d="M-73,240.2v-0.8h13v0.8H-73z"/>
	<path fill="#CCCCCC" d="M-73,237.1v-0.8h13v0.8H-73z"/>
	<path fill="#CCCCCC" d="M-66.5,222.3c0.9,0,1.8,0.1,2.7,0.4c0.8,0.3,1.5,0.7,2.2,1.2c0.6,0.5,1.1,1.2,1.4,1.9
		c0.3,0.7,0.5,1.6,0.5,2.6s-0.2,1.8-0.5,2.6c-0.4,0.8-0.8,1.4-1.4,1.9c-0.6,0.5-1.3,0.9-2.2,1.2c-0.8,0.3-1.7,0.4-2.7,0.4
		s-1.8-0.1-2.7-0.4c-0.8-0.3-1.5-0.7-2.2-1.2c-0.6-0.5-1.1-1.2-1.4-1.9c-0.4-0.8-0.5-1.6-0.5-2.6s0.2-1.8,0.5-2.6
		c0.4-0.8,0.8-1.4,1.4-1.9c0.6-0.5,1.3-0.9,2.2-1.2C-68.4,222.4-67.5,222.3-66.5,222.3z M-66.5,233.8c0.8,0,1.6-0.1,2.4-0.4
		c0.8-0.3,1.4-0.6,1.9-1.1c0.6-0.5,1-1,1.3-1.7c0.3-0.7,0.5-1.4,0.5-2.3c0-0.9-0.2-1.6-0.5-2.3s-0.8-1.2-1.3-1.7s-1.2-0.8-1.9-1.1
		c-0.7-0.2-1.5-0.4-2.4-0.4c-0.8,0-1.6,0.1-2.4,0.4c-0.7,0.2-1.4,0.6-1.9,1.1s-1,1-1.3,1.7s-0.5,1.4-0.5,2.3c0,0.9,0.2,1.6,0.5,2.3
		c0.3,0.7,0.8,1.2,1.3,1.7c0.6,0.5,1.2,0.8,1.9,1.1C-68.2,233.7-67.4,233.8-66.5,233.8z"/>
</g>
<rect x="-20.8" y="125.8" fill="none" width="15.3" height="25.5"/>
<g enable-background="new    ">
	<path fill="#CCCCCC" d="M-13.9,138.4c0.9,0,1.8,0.1,2.7,0.4c0.8,0.3,1.5,0.7,2.2,1.2c0.6,0.5,1.1,1.2,1.4,1.9
		c0.4,0.8,0.5,1.6,0.5,2.6s-0.2,1.8-0.5,2.6s-0.8,1.4-1.4,1.9c-0.6,0.5-1.3,0.9-2.2,1.2c-0.8,0.3-1.7,0.4-2.7,0.4s-1.8-0.1-2.7-0.4
		c-0.8-0.3-1.5-0.7-2.2-1.2c-0.6-0.5-1.1-1.2-1.4-1.9c-0.4-0.8-0.5-1.6-0.5-2.6s0.2-1.8,0.5-2.6c0.4-0.8,0.8-1.4,1.4-1.9
		c0.6-0.5,1.3-0.9,2.2-1.2C-15.7,138.6-14.9,138.4-13.9,138.4z M-13.9,150c0.8,0,1.6-0.1,2.4-0.4c0.7-0.2,1.4-0.6,1.9-1.1
		c0.6-0.5,1-1,1.3-1.7s0.5-1.4,0.5-2.3c0-0.8-0.2-1.6-0.5-2.3s-0.8-1.2-1.3-1.7s-1.2-0.8-1.9-1.1c-0.7-0.2-1.5-0.4-2.4-0.4
		c-0.8,0-1.6,0.1-2.4,0.4c-0.7,0.2-1.4,0.6-1.9,1.1s-1,1-1.3,1.7s-0.5,1.4-0.5,2.3c0,0.8,0.2,1.6,0.5,2.3s0.8,1.2,1.3,1.7
		c0.6,0.5,1.2,0.8,1.9,1.1C-15.5,149.8-14.7,150-13.9,150z"/>
	<path fill="#CCCCCC" d="M-20.4,136.7v-0.8h13v0.8H-20.4z"/>
</g>
<rect x="-20.8" y="148.7" fill="none" width="15.3" height="58.6"/>
<g enable-background="new    ">
	<path fill="#CCCCCC" d="M-14.1,195c0.9,0,1.8,0.1,2.7,0.4c0.8,0.3,1.5,0.7,2.2,1.2c0.6,0.5,1.1,1.2,1.4,1.9s0.5,1.6,0.5,2.6
		s-0.2,1.8-0.5,2.6c-0.4,0.8-0.8,1.4-1.4,1.9c-0.6,0.5-1.3,0.9-2.2,1.2c-0.8,0.3-1.7,0.4-2.7,0.4s-1.8-0.1-2.7-0.4
		c-0.8-0.3-1.5-0.7-2.2-1.2c-0.6-0.5-1.1-1.2-1.4-1.9c-0.4-0.8-0.5-1.6-0.5-2.6s0.2-1.8,0.5-2.6c0.4-0.8,0.8-1.4,1.4-1.9
		c0.6-0.5,1.3-0.9,2.2-1.2S-15.1,195-14.1,195z M-14.1,206.5c0.8,0,1.6-0.1,2.4-0.4c0.8-0.3,1.4-0.6,1.9-1.1c0.6-0.5,1-1,1.3-1.7
		c0.3-0.7,0.5-1.4,0.5-2.3c0-0.9-0.2-1.6-0.5-2.3s-0.8-1.2-1.3-1.7s-1.2-0.8-1.9-1.1s-1.5-0.4-2.4-0.4c-0.8,0-1.6,0.1-2.4,0.4
		c-0.7,0.2-1.4,0.6-1.9,1.1s-1,1-1.3,1.7s-0.5,1.4-0.5,2.3c0,0.9,0.2,1.6,0.5,2.3c0.3,0.7,0.8,1.2,1.3,1.7c0.6,0.5,1.2,0.8,1.9,1.1
		C-15.7,206.4-15,206.5-14.1,206.5z"/>
	<path fill="#CCCCCC" d="M-20.6,193.3v-0.8h13v0.8H-20.6z"/>
	<path fill="#CCCCCC" d="M-14.1,178.5c0.9,0,1.8,0.1,2.7,0.4c0.8,0.3,1.5,0.7,2.2,1.2c0.6,0.5,1.1,1.2,1.4,1.9
		c0.4,0.8,0.5,1.6,0.5,2.6s-0.2,1.8-0.5,2.6s-0.8,1.4-1.4,1.9c-0.6,0.5-1.3,0.9-2.2,1.2c-0.8,0.3-1.7,0.4-2.7,0.4s-1.8-0.1-2.7-0.4
		c-0.8-0.3-1.5-0.7-2.2-1.2c-0.6-0.5-1.1-1.2-1.4-1.9c-0.4-0.8-0.5-1.6-0.5-2.6s0.2-1.8,0.5-2.6c0.4-0.8,0.8-1.4,1.4-1.9
		c0.6-0.5,1.3-0.9,2.2-1.2C-15.9,178.6-15.1,178.5-14.1,178.5z M-14.1,190c0.8,0,1.6-0.1,2.4-0.4c0.8-0.3,1.4-0.6,1.9-1.1
		c0.6-0.5,1-1,1.3-1.7c0.3-0.7,0.5-1.4,0.5-2.3c0-0.8-0.2-1.6-0.5-2.3s-0.8-1.2-1.3-1.7s-1.2-0.8-1.9-1.1c-0.7-0.2-1.5-0.4-2.4-0.4
		c-0.8,0-1.6,0.1-2.4,0.4c-0.7,0.2-1.4,0.6-1.9,1.1s-1,1-1.3,1.7s-0.5,1.4-0.5,2.3c0,0.8,0.2,1.6,0.5,2.3c0.3,0.7,0.8,1.2,1.3,1.7
		c0.6,0.5,1.2,0.8,1.9,1.1C-15.7,189.9-15,190-14.1,190z"/>
	<path fill="#CCCCCC" d="M-14.1,165c0.9,0,1.8,0.1,2.7,0.4c0.8,0.3,1.5,0.7,2.2,1.2c0.6,0.5,1.1,1.2,1.4,1.9
		c0.4,0.8,0.5,1.6,0.5,2.6s-0.2,1.8-0.5,2.6s-0.8,1.4-1.4,1.9c-0.6,0.5-1.3,0.9-2.2,1.2c-0.8,0.3-1.7,0.4-2.7,0.4s-1.8-0.1-2.7-0.4
		c-0.8-0.3-1.5-0.7-2.2-1.2c-0.6-0.5-1.1-1.2-1.4-1.9c-0.4-0.8-0.5-1.6-0.5-2.6s0.2-1.8,0.5-2.6c0.4-0.8,0.8-1.4,1.4-1.9
		c0.6-0.5,1.3-0.9,2.2-1.2C-15.9,165.2-15.1,165-14.1,165z M-14.1,176.5c0.8,0,1.6-0.1,2.4-0.4c0.7-0.2,1.4-0.6,1.9-1.1
		c0.6-0.5,1-1,1.3-1.7c0.3-0.7,0.5-1.4,0.5-2.3c0-0.8-0.2-1.6-0.5-2.3s-0.8-1.2-1.3-1.7s-1.2-0.8-1.9-1.1c-0.7-0.2-1.5-0.4-2.4-0.4
		c-0.8,0-1.6,0.1-2.4,0.4c-0.7,0.2-1.4,0.6-1.9,1.1s-1,1-1.3,1.7s-0.5,1.4-0.5,2.3c0,0.8,0.2,1.6,0.5,2.3c0.3,0.7,0.8,1.2,1.3,1.7
		c0.6,0.5,1.2,0.8,1.9,1.1C-15.7,176.4-15,176.5-14.1,176.5z"/>
	<path fill="#CCCCCC" d="M-20.6,163.3v-0.8h13v0.8H-20.6z"/>
</g>
<rect x="-90.8" y="189.1" fill="none" width="15.3" height="58.6"/>
<g enable-background="new    ">
	<path fill="#CCCCCC" d="M-90.5,246.2v-0.8h13v0.8H-90.5z"/>
	<path fill="#CCCCCC" d="M-84,231.4c0.9,0,1.8,0.1,2.7,0.4c0.8,0.3,1.5,0.7,2.2,1.2c0.6,0.5,1.1,1.2,1.4,1.9s0.5,1.6,0.5,2.6
		s-0.2,1.8-0.5,2.6c-0.4,0.8-0.8,1.4-1.4,1.9c-0.6,0.5-1.3,0.9-2.2,1.2c-0.8,0.3-1.7,0.4-2.7,0.4s-1.8-0.1-2.7-0.4
		c-0.8-0.3-1.5-0.7-2.2-1.2c-0.6-0.5-1.1-1.2-1.4-1.9c-0.4-0.8-0.5-1.6-0.5-2.6s0.2-1.8,0.5-2.6c0.4-0.8,0.8-1.4,1.4-1.9
		c0.6-0.5,1.3-0.9,2.2-1.2S-85,231.4-84,231.4z M-84,242.9c0.8,0,1.6-0.1,2.4-0.4s1.4-0.6,1.9-1.1c0.6-0.5,1-1,1.3-1.7
		s0.5-1.4,0.5-2.3c0-0.9-0.2-1.6-0.5-2.3c-0.3-0.7-0.8-1.2-1.3-1.7s-1.2-0.8-1.9-1.1s-1.5-0.4-2.4-0.4c-0.8,0-1.6,0.1-2.4,0.4
		c-0.7,0.2-1.4,0.6-1.9,1.1s-1,1-1.3,1.7c-0.3,0.7-0.5,1.4-0.5,2.3c0,0.9,0.2,1.6,0.5,2.3s0.8,1.2,1.3,1.7c0.6,0.5,1.2,0.8,1.9,1.1
		C-85.6,242.8-84.9,242.9-84,242.9z"/>
	<path fill="#CCCCCC" d="M-84,217.9c0.9,0,1.8,0.1,2.7,0.4c0.8,0.3,1.5,0.7,2.2,1.2c0.6,0.5,1.1,1.2,1.4,1.9s0.5,1.6,0.5,2.6
		s-0.2,1.8-0.5,2.6c-0.4,0.8-0.8,1.4-1.4,1.9c-0.6,0.5-1.3,0.9-2.2,1.2c-0.8,0.3-1.7,0.4-2.7,0.4s-1.8-0.1-2.7-0.4
		c-0.8-0.3-1.5-0.7-2.2-1.2c-0.6-0.5-1.1-1.2-1.4-1.9c-0.4-0.8-0.5-1.6-0.5-2.6s0.2-1.8,0.5-2.6c0.4-0.8,0.8-1.4,1.4-1.9
		c0.6-0.5,1.3-0.9,2.2-1.2C-85.8,218.1-85,217.9-84,217.9z M-84,229.5c0.8,0,1.6-0.1,2.4-0.4c0.8-0.3,1.4-0.6,1.9-1.1
		c0.6-0.5,1-1,1.3-1.7c0.3-0.7,0.5-1.4,0.5-2.3c0-0.9-0.2-1.6-0.5-2.3s-0.8-1.2-1.3-1.7s-1.2-0.8-1.9-1.1s-1.5-0.4-2.4-0.4
		c-0.8,0-1.6,0.1-2.4,0.4c-0.7,0.2-1.4,0.6-1.9,1.1s-1,1-1.3,1.7s-0.5,1.4-0.5,2.3c0,0.9,0.2,1.6,0.5,2.3c0.3,0.7,0.8,1.2,1.3,1.7
		c0.6,0.5,1.2,0.8,1.9,1.1C-85.6,229.3-84.9,229.5-84,229.5z"/>
	<path fill="#CCCCCC" d="M-90.5,216.2v-0.8h13v0.8H-90.5z"/>
	<path fill="#CCCCCC" d="M-84,201.4c0.9,0,1.8,0.1,2.7,0.4c0.8,0.3,1.5,0.7,2.2,1.2c0.6,0.5,1.1,1.2,1.4,1.9s0.5,1.6,0.5,2.6
		s-0.2,1.8-0.5,2.6c-0.4,0.8-0.8,1.4-1.4,1.9c-0.6,0.5-1.3,0.9-2.2,1.2c-0.8,0.3-1.7,0.4-2.7,0.4s-1.8-0.1-2.7-0.4
		c-0.8-0.3-1.5-0.7-2.2-1.2c-0.6-0.5-1.1-1.2-1.4-1.9c-0.4-0.8-0.5-1.6-0.5-2.6s0.2-1.8,0.5-2.6c0.4-0.8,0.8-1.4,1.4-1.9
		c0.6-0.5,1.3-0.9,2.2-1.2C-85.8,201.6-85,201.4-84,201.4z M-84,212.9c0.8,0,1.6-0.1,2.4-0.4s1.4-0.6,1.9-1.1c0.6-0.5,1-1,1.3-1.7
		s0.5-1.4,0.5-2.3c0-0.9-0.2-1.6-0.5-2.3c-0.3-0.7-0.8-1.2-1.3-1.7s-1.2-0.8-1.9-1.1c-0.7-0.3-1.5-0.4-2.4-0.4
		c-0.8,0-1.6,0.1-2.4,0.4c-0.7,0.2-1.4,0.6-1.9,1.1s-1,1-1.3,1.7c-0.3,0.7-0.5,1.4-0.5,2.3c0,0.9,0.2,1.6,0.5,2.3s0.8,1.2,1.3,1.7
		c0.6,0.5,1.2,0.8,1.9,1.1C-85.6,212.8-84.9,212.9-84,212.9z"/>
</g>
<rect x="-90.8" y="240" fill="none" width="15.3" height="58.6"/>
<g enable-background="new    ">
	<path fill="#CCCCCC" d="M-83.9,286.1c0.9,0,1.8,0.1,2.7,0.4c0.8,0.3,1.5,0.7,2.2,1.2c0.6,0.5,1.1,1.2,1.4,1.9
		c0.3,0.7,0.5,1.6,0.5,2.6s-0.2,1.8-0.5,2.6c-0.4,0.8-0.8,1.4-1.4,1.9c-0.6,0.5-1.3,0.9-2.2,1.2c-0.8,0.3-1.7,0.4-2.7,0.4
		s-1.8-0.1-2.7-0.4c-0.8-0.3-1.5-0.7-2.2-1.2c-0.6-0.5-1.1-1.2-1.4-1.9c-0.4-0.8-0.5-1.6-0.5-2.6s0.2-1.8,0.5-2.6
		c0.4-0.8,0.8-1.4,1.4-1.9c0.6-0.5,1.3-0.9,2.2-1.2C-85.7,286.3-84.9,286.1-83.9,286.1z M-83.9,297.7c0.8,0,1.6-0.1,2.4-0.4
		c0.8-0.3,1.4-0.6,1.9-1.1c0.6-0.5,1-1,1.3-1.7s0.5-1.4,0.5-2.3c0-0.9-0.2-1.6-0.5-2.3c-0.3-0.7-0.8-1.2-1.3-1.7s-1.2-0.8-1.9-1.1
		c-0.7-0.3-1.5-0.4-2.4-0.4c-0.8,0-1.6,0.1-2.4,0.4c-0.7,0.2-1.4,0.6-1.9,1.1s-1,1-1.3,1.7s-0.5,1.4-0.5,2.3c0,0.9,0.2,1.6,0.5,2.3
		s0.8,1.2,1.3,1.7c0.6,0.5,1.2,0.8,1.9,1.1C-85.5,297.5-84.7,297.7-83.9,297.7z"/>
	<path fill="#CCCCCC" d="M-83.9,272.7c0.9,0,1.8,0.1,2.7,0.4c0.8,0.3,1.5,0.7,2.2,1.2c0.6,0.5,1.1,1.2,1.4,1.9
		c0.3,0.7,0.5,1.6,0.5,2.6s-0.2,1.8-0.5,2.6c-0.4,0.8-0.8,1.4-1.4,1.9c-0.6,0.5-1.3,0.9-2.2,1.2c-0.8,0.3-1.7,0.4-2.7,0.4
		s-1.8-0.1-2.7-0.4c-0.8-0.3-1.5-0.7-2.2-1.2c-0.6-0.5-1.1-1.2-1.4-1.9c-0.4-0.8-0.5-1.6-0.5-2.6s0.2-1.8,0.5-2.6
		c0.4-0.8,0.8-1.4,1.4-1.9c0.6-0.5,1.3-0.9,2.2-1.2C-85.7,272.8-84.9,272.7-83.9,272.7z M-83.9,284.2c0.8,0,1.6-0.1,2.4-0.4
		c0.8-0.3,1.4-0.6,1.9-1.1c0.6-0.5,1-1,1.3-1.7s0.5-1.4,0.5-2.3c0-0.9-0.2-1.6-0.5-2.3c-0.3-0.7-0.8-1.2-1.3-1.7s-1.2-0.8-1.9-1.1
		c-0.7-0.3-1.5-0.4-2.4-0.4c-0.8,0-1.6,0.1-2.4,0.4c-0.7,0.2-1.4,0.6-1.9,1.1s-1,1-1.3,1.7c-0.3,0.7-0.5,1.4-0.5,2.3
		c0,0.9,0.2,1.6,0.5,2.3s0.8,1.2,1.3,1.7c0.6,0.5,1.2,0.8,1.9,1.1C-85.5,284.1-84.7,284.2-83.9,284.2z"/>
	<path fill="#CCCCCC" d="M-90.4,271v-0.8h13v0.8H-90.4z"/>
	<path fill="#CCCCCC" d="M-90.4,267.9v-0.8h13v0.8H-90.4z"/>
	<path fill="#CCCCCC" d="M-83.9,253.1c0.9,0,1.8,0.1,2.7,0.4c0.8,0.3,1.5,0.7,2.2,1.2c0.6,0.5,1.1,1.2,1.4,1.9
		c0.3,0.7,0.5,1.6,0.5,2.6s-0.2,1.8-0.5,2.6c-0.4,0.8-0.8,1.4-1.4,1.9c-0.6,0.5-1.3,0.9-2.2,1.2c-0.8,0.3-1.7,0.4-2.7,0.4
		s-1.8-0.1-2.7-0.4c-0.8-0.3-1.5-0.7-2.2-1.2c-0.6-0.5-1.1-1.2-1.4-1.9c-0.4-0.8-0.5-1.6-0.5-2.6s0.2-1.8,0.5-2.6
		c0.4-0.8,0.8-1.4,1.4-1.9c0.6-0.5,1.3-0.9,2.2-1.2S-84.9,253.1-83.9,253.1z M-83.9,264.6c0.8,0,1.6-0.1,2.4-0.4
		c0.8-0.3,1.4-0.6,1.9-1.1c0.6-0.5,1-1,1.3-1.7c0.3-0.7,0.5-1.4,0.5-2.3s-0.2-1.6-0.5-2.3c-0.3-0.7-0.8-1.2-1.3-1.7
		s-1.2-0.8-1.9-1.1s-1.5-0.4-2.4-0.4c-0.8,0-1.6,0.1-2.4,0.4c-0.7,0.2-1.4,0.6-1.9,1.1s-1,1-1.3,1.7c-0.3,0.7-0.5,1.4-0.5,2.3
		s0.2,1.6,0.5,2.3c0.3,0.7,0.8,1.2,1.3,1.7c0.6,0.5,1.2,0.8,1.9,1.1C-85.5,264.5-84.7,264.6-83.9,264.6z"/>
</g>
<rect x="-73" y="236.2" fill="none" width="15.3" height="35.6"/>
<g enable-background="new    ">
	<path fill="#CCCCCC" d="M-66.6,288.9c0.9,0,1.8,0.1,2.7,0.4c0.8,0.3,1.5,0.7,2.2,1.2c0.6,0.5,1.1,1.2,1.4,1.9s0.5,1.6,0.5,2.6
		s-0.2,1.8-0.5,2.6c-0.4,0.8-0.8,1.4-1.4,1.9c-0.6,0.5-1.3,0.9-2.2,1.2c-0.8,0.3-1.7,0.4-2.7,0.4s-1.8-0.1-2.7-0.4
		c-0.8-0.3-1.5-0.7-2.2-1.2c-0.6-0.5-1.1-1.2-1.4-1.9c-0.4-0.8-0.5-1.6-0.5-2.6s0.2-1.8,0.5-2.6c0.4-0.8,0.8-1.4,1.4-1.9
		c0.6-0.5,1.3-0.9,2.2-1.2S-67.5,288.9-66.6,288.9z M-66.6,300.4c0.8,0,1.6-0.1,2.4-0.4c0.8-0.3,1.4-0.6,1.9-1.1
		c0.6-0.5,1-1,1.3-1.7c0.3-0.7,0.5-1.4,0.5-2.3s-0.2-1.6-0.5-2.3c-0.3-0.7-0.8-1.2-1.3-1.7s-1.2-0.8-1.9-1.1s-1.5-0.4-2.4-0.4
		c-0.8,0-1.6,0.1-2.4,0.4c-0.7,0.2-1.4,0.6-1.9,1.1s-1,1-1.3,1.7c-0.3,0.7-0.5,1.4-0.5,2.3s0.2,1.6,0.5,2.3c0.3,0.7,0.8,1.2,1.3,1.7
		c0.6,0.5,1.2,0.8,1.9,1.1C-68.2,300.3-67.4,300.4-66.6,300.4z"/>
	<path fill="#CCCCCC" d="M-73.1,287.2v-0.8h13v0.8H-73.1z"/>
	<path fill="#CCCCCC" d="M-66.6,272.4c0.9,0,1.8,0.1,2.7,0.4c0.8,0.3,1.5,0.7,2.2,1.2c0.6,0.5,1.1,1.2,1.4,1.9
		c0.3,0.7,0.5,1.6,0.5,2.6s-0.2,1.8-0.5,2.6c-0.4,0.8-0.8,1.4-1.4,1.9c-0.6,0.5-1.3,0.9-2.2,1.2c-0.8,0.3-1.7,0.4-2.7,0.4
		s-1.8-0.1-2.7-0.4c-0.8-0.3-1.5-0.7-2.2-1.2c-0.6-0.5-1.1-1.2-1.4-1.9c-0.4-0.8-0.5-1.6-0.5-2.6s0.2-1.8,0.5-2.6
		c0.4-0.8,0.8-1.4,1.4-1.9c0.6-0.5,1.3-0.9,2.2-1.2C-68.4,272.5-67.5,272.4-66.6,272.4z M-66.6,283.9c0.8,0,1.6-0.1,2.4-0.4
		c0.8-0.3,1.4-0.6,1.9-1.1c0.6-0.5,1-1,1.3-1.7c0.3-0.7,0.5-1.4,0.5-2.3s-0.2-1.6-0.5-2.3c-0.3-0.7-0.8-1.2-1.3-1.7
		s-1.2-0.8-1.9-1.1c-0.7-0.3-1.6-0.1-2.4-0.1s-1.6,0.1-2.4,0.4c-0.7,0.2-1.4,0.6-1.9,1.1s-1,1-1.3,1.7c-0.3,0.7-0.5,1.4-0.5,2.3
		c0,0.9,0.2,1.6,0.5,2.3s0.8,1.2,1.3,1.7c0.6,0.5,1.2,0.8,1.9,1.1C-68.2,283.8-67.4,283.9-66.6,283.9z"/>
</g>
<rect x="-20.8" y="200.9" fill="none" width="15.3" height="25.5"/>
<g enable-background="new    ">
	<path fill="#CCCCCC" d="M-14,213.6c0.9,0,1.8,0.1,2.7,0.4c0.8,0.3,1.5,0.7,2.2,1.2c0.6,0.5,1.1,1.2,1.4,1.9
		c0.3,0.7,0.5,1.6,0.5,2.6s-0.2,1.8-0.5,2.6c-0.4,0.8-0.8,1.4-1.4,1.9c-0.6,0.5-1.3,0.9-2.2,1.2c-0.8,0.3-1.7,0.4-2.7,0.4
		s-1.8-0.1-2.7-0.4c-0.8-0.3-1.5-0.7-2.2-1.2c-0.6-0.5-1.1-1.2-1.4-1.9c-0.4-0.8-0.5-1.6-0.5-2.6s0.2-1.8,0.5-2.6
		c0.4-0.8,0.8-1.4,1.4-1.9c0.6-0.5,1.3-0.9,2.2-1.2S-14.9,213.6-14,213.6z M-14,225.1c0.8,0,1.6-0.1,2.4-0.4s1.4-0.6,1.9-1.1
		c0.6-0.5,1-1,1.3-1.7s0.5-1.4,0.5-2.3c0-0.9-0.2-1.6-0.5-2.3c-0.3-0.7-0.8-1.2-1.3-1.7s-1.2-0.8-1.9-1.1s-1.5-0.4-2.4-0.4
		c-0.8,0-1.6,0.1-2.4,0.4c-0.7,0.2-1.4,0.6-1.9,1.1s-1,1-1.3,1.7c-0.3,0.7-0.5,1.4-0.5,2.3c0,0.9,0.2,1.6,0.5,2.3s0.8,1.2,1.3,1.7
		c0.6,0.5,1.2,0.8,1.9,1.1C-15.6,225-14.8,225.1-14,225.1z"/>
	<path fill="#CCCCCC" d="M-20.4,211.9v-0.8h13v0.8H-20.4z"/>
</g>
<rect x="-20.8" y="223.8" fill="none" width="15.3" height="58.6"/>
<g enable-background="new    ">
	<path fill="#CCCCCC" d="M-14.2,270.1c0.9,0,1.8,0.1,2.7,0.4c0.8,0.3,1.5,0.7,2.2,1.2c0.6,0.5,1.1,1.2,1.4,1.9
		c0.3,0.7,0.5,1.6,0.5,2.6s-0.2,1.8-0.5,2.6c-0.4,0.8-0.8,1.4-1.4,1.9c-0.6,0.5-1.3,0.9-2.2,1.2c-0.8,0.3-1.7,0.4-2.7,0.4
		s-1.8-0.1-2.7-0.4c-0.8-0.3-1.5-0.7-2.2-1.2c-0.6-0.5-1.1-1.2-1.4-1.9c-0.4-0.8-0.5-1.6-0.5-2.6s0.2-1.8,0.5-2.6
		c0.4-0.8,0.8-1.4,1.4-1.9c0.6-0.5,1.3-0.9,2.2-1.2C-16,270.3-15.1,270.1-14.2,270.1z M-14.2,281.6c0.8,0,1.6-0.1,2.4-0.4
		c0.8-0.3,1.4-0.6,1.9-1.1c0.6-0.5,1-1,1.3-1.7c0.3-0.7,0.5-1.4,0.5-2.3s-0.2-1.6-0.5-2.3c-0.3-0.7-0.8-1.2-1.3-1.7
		s-1.2-0.8-1.9-1.1s-1.5-0.4-2.4-0.4c-0.8,0-1.6,0.1-2.4,0.4c-0.7,0.2-1.4,0.6-1.9,1.1s-1,1-1.3,1.7c-0.3,0.7-0.5,1.4-0.5,2.3
		s0.2,1.6,0.5,2.3c0.3,0.7,0.8,1.2,1.3,1.7c0.6,0.5,1.2,0.8,1.9,1.1C-15.8,281.5-15,281.6-14.2,281.6z"/>
	<path fill="#CCCCCC" d="M-20.6,268.4v-0.8h13v0.8H-20.6z"/>
	<path fill="#CCCCCC" d="M-14.2,253.6c0.9,0,1.8,0.1,2.7,0.4c0.8,0.3,1.5,0.7,2.2,1.2c0.6,0.5,1.1,1.2,1.4,1.9
		c0.3,0.7,0.5,1.6,0.5,2.6s-0.2,1.8-0.5,2.6c-0.4,0.8-0.8,1.4-1.4,1.9c-0.6,0.5-1.3,0.9-2.2,1.2c-0.8,0.3-1.7,0.4-2.7,0.4
		s-1.8-0.1-2.7-0.4c-0.8-0.3-1.5-0.7-2.2-1.2c-0.6-0.5-1.1-1.2-1.4-1.9c-0.4-0.8-0.5-1.6-0.5-2.6s0.2-1.8,0.5-2.6
		c0.4-0.8,0.8-1.4,1.4-1.9c0.6-0.5,1.3-0.9,2.2-1.2C-16,253.7-15.1,253.6-14.2,253.6z M-14.2,265.1c0.8,0,1.6-0.1,2.4-0.4
		c0.8-0.3,1.4-0.6,1.9-1.1c0.6-0.5,1-1,1.3-1.7c0.3-0.7,0.5-1.4,0.5-2.3c0-0.8-0.2-1.6-0.5-2.3c-0.3-0.7-0.8-1.2-1.3-1.7
		s-1.2-0.8-1.9-1.1s-1.5-0.4-2.4-0.4c-0.8,0-1.6,0.1-2.4,0.4c-0.7,0.2-1.4,0.6-1.9,1.1s-1,1-1.3,1.7c-0.3,0.7-0.5,1.4-0.5,2.3
		c0,0.8,0.2,1.6,0.5,2.3c0.3,0.7,0.8,1.2,1.3,1.7c0.6,0.5,1.2,0.8,1.9,1.1C-15.8,265-15,265.1-14.2,265.1z"/>
	<path fill="#CCCCCC" d="M-14.2,240.2c0.9,0,1.8,0.1,2.7,0.4c0.8,0.3,1.5,0.7,2.2,1.2c0.6,0.5,1.1,1.2,1.4,1.9s0.5,1.6,0.5,2.6
		c0,1-0.2,1.8-0.5,2.6c-0.4,0.8-0.8,1.4-1.4,1.9c-0.6,0.5-1.3,0.9-2.2,1.2c-0.8,0.3-1.7,0.4-2.7,0.4s-1.8-0.1-2.7-0.4
		c-0.8-0.3-1.5-0.7-2.2-1.2c-0.6-0.5-1.1-1.2-1.4-1.9c-0.4-0.8-0.5-1.6-0.5-2.6s0.2-1.8,0.5-2.6c0.4-0.8,0.8-1.4,1.4-1.9
		c0.6-0.5,1.3-0.9,2.2-1.2C-16,240.3-15.1,240.2-14.2,240.2z M-14.2,251.7c0.8,0,1.6-0.1,2.4-0.4c0.8-0.3,1.4-0.6,1.9-1.1
		c0.6-0.5,1-1,1.3-1.7c0.3-0.7,0.5-1.4,0.5-2.3s-0.2-1.6-0.5-2.3s-0.8-1.2-1.3-1.7s-1.2-0.8-1.9-1.1s-1.5-0.4-2.4-0.4
		c-0.8,0-1.6,0.1-2.4,0.4c-0.7,0.2-1.4,0.6-1.9,1.1s-1,1-1.3,1.7c-0.3,0.7-0.5,1.4-0.5,2.3c0,0.9,0.2,1.6,0.5,2.3
		c0.3,0.7,0.8,1.2,1.3,1.7c0.6,0.5,1.2,0.8,1.9,1.1C-15.8,251.6-15,251.7-14.2,251.7z"/>
	<path fill="#CCCCCC" d="M-20.6,238.4v-0.8h13v0.8H-20.6z"/>
</g>
<rect x="-20.8" y="277.3" fill="none" width="15.3" height="25.5"/>
<g enable-background="new    ">
	<path fill="#CCCCCC" d="M-14.1,290.3c0.9,0,1.8,0.1,2.7,0.4c0.8,0.3,1.5,0.7,2.2,1.2c0.6,0.5,1.1,1.2,1.4,1.9s0.5,1.6,0.5,2.6
		s-0.2,1.8-0.5,2.6c-0.4,0.8-0.8,1.4-1.4,1.9c-0.6,0.5-1.3,0.9-2.2,1.2c-0.8,0.3-1.7,0.4-2.7,0.4s-1.8-0.1-2.7-0.4
		c-0.8-0.3-1.5-0.7-2.2-1.2c-0.6-0.5-1.1-1.2-1.4-1.9c-0.4-0.8-0.5-1.6-0.5-2.6s0.2-1.8,0.5-2.6c0.4-0.8,0.8-1.4,1.4-1.9
		c0.6-0.5,1.3-0.9,2.2-1.2C-15.9,290.4-15,290.3-14.1,290.3z M-14.1,301.8c0.8,0,1.6-0.1,2.4-0.4s1.4-0.6,1.9-1.1
		c0.6-0.5,1-1,1.3-1.7c0.3-0.7,0.5-1.4,0.5-2.3c0-0.9-0.2-1.6-0.5-2.3s-0.8-1.2-1.3-1.7s-1.2-0.8-1.9-1.1c-0.7-0.3-1.5-0.4-2.4-0.4
		c-0.8,0-1.6,0.1-2.4,0.4c-0.7,0.2-1.4,0.6-1.9,1.1s-1,1-1.3,1.7c-0.3,0.7-0.5,1.4-0.5,2.3c0,0.9,0.2,1.6,0.5,2.3
		c0.3,0.7,0.8,1.2,1.3,1.7c0.6,0.5,1.2,0.8,1.9,1.1C-15.7,301.7-14.9,301.8-14.1,301.8z"/>
	<path fill="#CCCCCC" d="M-20.6,288.6v-0.8h13v0.8H-20.6z"/>
</g>
<rect x="-37.3" y="214.5" fill="none" width="15.3" height="42"/>
<g enable-background="new    ">
	<path fill="#CCCCCC" d="M-31.4,243.8c0.9,0,1.8,0.1,2.7,0.4c0.8,0.3,1.5,0.7,2.2,1.2c0.6,0.5,1.1,1.2,1.4,1.9s0.5,1.6,0.5,2.6
		s-0.2,1.8-0.5,2.6c-0.4,0.8-0.8,1.4-1.4,1.9c-0.6,0.5-1.3,0.9-2.2,1.2c-0.8,0.3-1.7,0.4-2.7,0.4s-1.8-0.1-2.7-0.4
		c-0.8-0.3-1.5-0.7-2.2-1.2c-0.6-0.5-1.1-1.2-1.4-1.9c-0.4-0.8-0.5-1.6-0.5-2.6s0.2-1.8,0.5-2.6c0.4-0.8,0.8-1.4,1.4-1.9
		c0.6-0.5,1.3-0.9,2.2-1.2S-32.3,243.8-31.4,243.8z M-31.4,255.3c0.8,0,1.6-0.1,2.4-0.4s1.4-0.6,1.9-1.1c0.6-0.5,1-1,1.3-1.7
		s0.5-1.4,0.5-2.3c0-0.9-0.2-1.6-0.5-2.3c-0.3-0.7-0.8-1.2-1.3-1.7s-1.2-0.8-1.9-1.1s-1.5-0.4-2.4-0.4c-0.8,0-1.6,0.1-2.4,0.4
		c-0.7,0.2-1.4,0.6-1.9,1.1s-1,1-1.3,1.7c-0.3,0.7-0.5,1.4-0.5,2.3c0,0.9,0.2,1.6,0.5,2.3s0.8,1.2,1.3,1.7c0.6,0.5,1.2,0.8,1.9,1.1
		C-33,255.2-32.2,255.3-31.4,255.3z"/>
	<path fill="#CCCCCC" d="M-31.4,230.3c0.9,0,1.8,0.1,2.7,0.4c0.8,0.3,1.5,0.7,2.2,1.2c0.6,0.5,1.1,1.2,1.4,1.9s0.5,1.6,0.5,2.6
		s-0.2,1.8-0.5,2.6c-0.4,0.8-0.8,1.4-1.4,1.9c-0.6,0.5-1.3,0.9-2.2,1.2c-0.8,0.3-1.7,0.4-2.7,0.4s-1.8-0.1-2.7-0.4
		c-0.8-0.3-1.5-0.7-2.2-1.2c-0.6-0.5-1.1-1.2-1.4-1.9c-0.4-0.8-0.5-1.6-0.5-2.6s0.2-1.8,0.5-2.6c0.4-0.8,0.8-1.4,1.4-1.9
		c0.6-0.5,1.3-0.9,2.2-1.2C-33.2,230.5-32.3,230.3-31.4,230.3z M-31.4,241.9c0.8,0,1.6-0.1,2.4-0.4s1.4-0.6,1.9-1.1
		c0.6-0.5,1-1,1.3-1.7s0.5-1.4,0.5-2.3c0-0.9-0.2-1.6-0.5-2.3c-0.3-0.7-0.8-1.2-1.3-1.7s-1.2-0.8-1.9-1.1s-1.5-0.4-2.4-0.4
		c-0.8,0-1.6,0.1-2.4,0.4c-0.7,0.2-1.4,0.6-1.9,1.1s-1,1-1.3,1.7c-0.3,0.7-0.5,1.4-0.5,2.3c0,0.9,0.2,1.6,0.5,2.3s0.8,1.2,1.3,1.7
		c0.6,0.5,1.2,0.8,1.9,1.1C-33,241.7-32.2,241.9-31.4,241.9z"/>
	<path fill="#CCCCCC" d="M-37.8,228.6v-0.8h13v0.8H-37.8z"/>
</g>
<rect x="-37.3" y="234.9" fill="none" width="15.3" height="58.6"/>
<g enable-background="new    ">
	<path fill="#CCCCCC" d="M-37.8,292.8V292h13v0.8H-37.8z"/>
	<path fill="#CCCCCC" d="M-31.3,278c0.9,0,1.8,0.1,2.7,0.4c0.8,0.3,1.5,0.7,2.2,1.2c0.6,0.5,1.1,1.2,1.4,1.9s0.4,1.7,0.4,2.7
		s-0.2,1.8-0.5,2.6c-0.4,0.8-0.8,1.4-1.4,1.9c-0.6,0.5-1.3,0.9-2.2,1.2c-0.8,0.3-1.7,0.4-2.7,0.4s-1.8-0.1-2.7-0.4
		c-0.8-0.3-1.5-0.7-2.2-1.2c-0.6-0.5-1.1-1.2-1.4-1.9c-0.4-0.8-0.5-1.6-0.5-2.6s0.2-1.8,0.5-2.6c0.4-0.8,0.8-1.4,1.4-1.9
		c0.6-0.5,1.3-0.9,2.2-1.2C-33.2,278.2-32.3,278-31.3,278z M-31.3,289.5c0.8,0,1.6-0.1,2.4-0.4c0.8-0.3,1.4-0.6,1.9-1.1
		c0.6-0.5,1-1,1.3-1.7c0.3-0.7,0.5-1.4,0.5-2.3s-0.2-1.6-0.5-2.3c-0.3-0.7-0.8-1.2-1.3-1.7s-1.2-0.8-1.9-1.1
		c-0.7-0.3-1.5-0.4-2.4-0.4c-0.8,0-1.6,0.1-2.4,0.4c-0.7,0.2-1.4,0.6-1.9,1.1s-1,1-1.3,1.7c-0.3,0.7-0.5,1.4-0.5,2.3
		s0.2,1.6,0.5,2.3c0.3,0.7,0.8,1.2,1.3,1.7c0.6,0.5,1.2,0.8,1.9,1.1C-33,289.4-32.2,289.5-31.3,289.5z"/>
	<path fill="#CCCCCC" d="M-31.3,264.6c0.9,0,1.8,0.1,2.7,0.4c0.8,0.3,1.5,0.7,2.2,1.2c0.6,0.5,1.1,1.2,1.4,1.9
		c0.3,0.7,0.5,1.6,0.5,2.6s-0.2,1.8-0.5,2.6c-0.4,0.8-0.8,1.4-1.4,1.9c-0.6,0.5-1.3,0.9-2.2,1.2c-0.8,0.3-1.7,0.4-2.7,0.4
		s-1.8-0.1-2.7-0.4c-0.8-0.3-1.5-0.7-2.2-1.2c-0.6-0.5-1.1-1.2-1.4-1.9c-0.4-0.8-0.5-1.6-0.5-2.6s0.2-1.8,0.5-2.6
		c0.4-0.8,0.8-1.4,1.4-1.9c0.6-0.5,1.3-0.9,2.2-1.2C-33.2,264.7-32.3,264.6-31.3,264.6z M-31.3,276.1c0.8,0,1.6-0.1,2.4-0.4
		c0.8-0.3,1.4-0.6,1.9-1.1c0.6-0.5,1-1,1.3-1.7c0.3-0.7,0.5-1.4,0.5-2.3s-0.2-1.6-0.5-2.3c-0.3-0.7-0.8-1.2-1.3-1.7
		s-1.2-0.8-1.9-1.1s-1.5-0.4-2.4-0.4c-0.8,0-1.6,0.1-2.4,0.4c-0.7,0.2-1.4,0.6-1.9,1.1s-1,1-1.3,1.7c-0.3,0.7-0.5,1.4-0.5,2.3
		s0.2,1.6,0.5,2.3c0.3,0.7,0.8,1.2,1.3,1.7c0.6,0.5,1.2,0.8,1.9,1.1C-33,276-32.2,276.1-31.3,276.1z"/>
</g>
<rect x="-55.2" y="205.4" fill="none" width="15.3" height="58.6"/>
<g enable-background="new    ">
	<path fill="#CCCCCC" d="M-49,251.7c0.9,0,1.8,0.1,2.7,0.4c0.8,0.3,1.5,0.7,2.2,1.2c0.6,0.5,1.1,1.2,1.4,1.9s0.5,1.6,0.5,2.6
		s-0.2,1.8-0.5,2.6c-0.4,0.8-0.8,1.4-1.4,1.9c-0.6,0.5-1.3,0.9-2.2,1.2c-0.8,0.3-1.7,0.4-2.7,0.4s-1.8-0.1-2.7-0.4
		c-0.8-0.3-1.5-0.7-2.2-1.2c-0.6-0.5-1.1-1.2-1.4-1.9c-0.4-0.8-0.5-1.6-0.5-2.6s0.2-1.8,0.5-2.6c0.4-0.8,0.8-1.4,1.4-1.9
		c0.6-0.5,1.3-0.9,2.2-1.2C-50.8,251.9-49.9,251.7-49,251.7z M-49,263.2c0.8,0,1.6-0.1,2.4-0.4c0.8-0.3,1.4-0.6,1.9-1.1
		c0.6-0.5,1-1,1.3-1.7s0.5-1.4,0.5-2.3c0-0.9-0.2-1.6-0.5-2.3c-0.3-0.7-0.8-1.2-1.3-1.7s-1.2-0.8-1.9-1.1c-0.7-0.3-1.5-0.4-2.4-0.4
		c-0.8,0-1.6,0.1-2.4,0.4c-0.7,0.2-1.4,0.6-1.9,1.1s-1,1-1.3,1.7c-0.3,0.7-0.5,1.4-0.5,2.3c0,0.9,0.2,1.6,0.5,2.3s0.8,1.2,1.3,1.7
		c0.6,0.5,1.2,0.8,1.9,1.1C-50.6,263.1-49.8,263.2-49,263.2z"/>
	<path fill="#CCCCCC" d="M-55.5,250v-0.8h13v0.8H-55.5z"/>
	<path fill="#CCCCCC" d="M-49,235.2c0.9,0,1.8,0.1,2.7,0.4c0.8,0.3,1.5,0.7,2.2,1.2c0.6,0.5,1.1,1.2,1.4,1.9s0.5,1.6,0.5,2.6
		s-0.2,1.8-0.5,2.6c-0.4,0.8-0.8,1.4-1.4,1.9c-0.6,0.5-1.3,0.9-2.2,1.2c-0.8,0.3-1.7,0.4-2.7,0.4s-1.8-0.1-2.7-0.4
		c-0.8-0.3-1.5-0.7-2.2-1.2c-0.6-0.5-1.1-1.2-1.4-1.9c-0.4-0.8-0.5-1.6-0.5-2.6s0.2-1.8,0.5-2.6c0.4-0.8,0.8-1.4,1.4-1.9
		c0.6-0.5,1.3-0.9,2.2-1.2C-50.8,235.3-49.9,235.2-49,235.2z M-49,246.7c0.8,0,1.6-0.1,2.4-0.4c0.8-0.3,1.4-0.6,1.9-1.1
		c0.6-0.5,1-1,1.3-1.7c0.3-0.7,0.5-1.4,0.5-2.3c0-0.9-0.2-1.6-0.5-2.3s-0.8-1.2-1.3-1.7s-1.2-0.8-1.9-1.1s-1.5-0.4-2.4-0.4
		c-0.8,0-1.6,0.1-2.4,0.4c-0.7,0.2-1.4,0.6-1.9,1.1s-1,1-1.3,1.7s-0.5,1.4-0.5,2.3c0,0.9,0.2,1.6,0.5,2.3c0.3,0.7,0.8,1.2,1.3,1.7
		c0.6,0.5,1.2,0.8,1.9,1.1C-50.6,246.6-49.8,246.7-49,246.7z"/>
	<path fill="#CCCCCC" d="M-49,221.7c0.9,0,1.8,0.1,2.7,0.4c0.8,0.3,1.5,0.7,2.2,1.2c0.6,0.5,1.1,1.2,1.4,1.9s0.5,1.6,0.5,2.6
		s-0.2,1.8-0.5,2.6c-0.4,0.8-0.8,1.4-1.4,1.9c-0.6,0.5-1.3,0.9-2.2,1.2c-0.8,0.3-1.7,0.4-2.7,0.4s-1.8-0.1-2.7-0.4
		c-0.8-0.3-1.5-0.7-2.2-1.2c-0.6-0.5-1.1-1.2-1.4-1.9c-0.4-0.8-0.5-1.6-0.5-2.6s0.2-1.8,0.5-2.6c0.4-0.8,0.8-1.4,1.4-1.9
		c0.6-0.5,1.3-0.9,2.2-1.2C-50.8,221.9-49.9,221.7-49,221.7z M-49,233.3c0.8,0,1.6-0.1,2.4-0.4c0.8-0.3,1.4-0.6,1.9-1.1
		c0.6-0.5,1-1,1.3-1.7c0.3-0.7,0.5-1.4,0.5-2.3c0-0.9-0.2-1.6-0.5-2.3s-0.8-1.2-1.3-1.7s-1.2-0.8-1.9-1.1s-1.5-0.4-2.4-0.4
		c-0.8,0-1.6,0.1-2.4,0.4c-0.7,0.2-1.4,0.6-1.9,1.1s-1,1-1.3,1.7s-0.5,1.4-0.5,2.3c0,0.9,0.2,1.6,0.5,2.3c0.3,0.7,0.8,1.2,1.3,1.7
		c0.6,0.5,1.2,0.8,1.9,1.1C-50.6,233.1-49.8,233.3-49,233.3z"/>
	<path fill="#CCCCCC" d="M-55.5,220v-0.8h13v0.8H-55.5z"/>
</g>
<rect x="-55.2" y="247.4" fill="none" width="15.3" height="58.6"/>
<g enable-background="new    ">
	<path fill="#CCCCCC" d="M-49.1,293.3c0.9,0,1.8,0.1,2.7,0.4c0.8,0.3,1.5,0.7,2.2,1.2c0.6,0.5,1.1,1.2,1.4,1.9s0.5,1.6,0.5,2.6
		s-0.2,1.8-0.5,2.6c-0.4,0.8-0.8,1.4-1.4,1.9c-0.6,0.5-1.3,0.9-2.2,1.2c-0.8,0.3-1.7,0.4-2.7,0.4s-1.8-0.1-2.7-0.4
		c-0.8-0.3-1.5-0.7-2.2-1.2c-0.6-0.5-1.1-1.2-1.4-1.9c-0.4-0.8-0.5-1.6-0.5-2.6s0.2-1.8,0.5-2.6c0.4-0.8,0.8-1.4,1.4-1.9
		c0.6-0.5,1.3-0.9,2.2-1.2C-50.9,293.5-50,293.3-49.1,293.3z M-49.1,304.8c0.8,0,1.6-0.1,2.4-0.4s1.4-0.6,1.9-1.1
		c0.6-0.5,1-1,1.3-1.7c0.3-0.7,0.5-1.4,0.5-2.3c0-0.9-0.2-1.6-0.5-2.3s-0.8-1.2-1.3-1.7s-1.2-0.8-1.9-1.1c-0.7-0.3-1.5-0.4-2.4-0.4
		c-0.8,0-1.6,0.1-2.4,0.4c-0.7,0.2-1.4,0.6-1.9,1.1s-1,1-1.3,1.7c-0.3,0.7-0.5,1.4-0.5,2.3c0,0.9,0.2,1.6,0.5,2.3
		c0.3,0.7,0.8,1.2,1.3,1.7c0.6,0.5,1.2,0.8,1.9,1.1C-50.7,304.7-49.9,304.8-49.1,304.8z"/>
	<path fill="#CCCCCC" d="M-49.1,279.9c0.9,0,1.8,0.1,2.7,0.4c0.8,0.3,1.5,0.7,2.2,1.2c0.6,0.5,1.1,1.2,1.4,1.9s0.5,1.6,0.5,2.6
		s-0.2,1.8-0.5,2.6c-0.4,0.8-0.8,1.4-1.4,1.9c-0.6,0.5-1.3,0.9-2.2,1.2c-0.8,0.3-1.7,0.4-2.7,0.4s-1.8-0.1-2.7-0.4
		c-0.8-0.3-1.5-0.7-2.2-1.2c-0.6-0.5-1.1-1.2-1.4-1.9c-0.4-0.8-0.5-1.6-0.5-2.6s0.2-1.8,0.5-2.6c0.4-0.8,0.8-1.4,1.4-1.9
		c0.6-0.5,1.3-0.9,2.2-1.2S-50,279.9-49.1,279.9z M-49.1,291.4c0.8,0,1.6-0.1,2.4-0.4c0.8-0.3,1.4-0.6,1.9-1.1c0.6-0.5,1-1,1.3-1.7
		c0.3-0.7,0.5-1.4,0.5-2.3s-0.2-1.6-0.5-2.3c-0.3-0.7-0.8-1.2-1.3-1.7s-1.2-0.8-1.9-1.1s-1.5-0.4-2.4-0.4c-0.8,0-1.6,0.1-2.4,0.4
		c-0.7,0.2-1.4,0.6-1.9,1.1s-1,1-1.3,1.7c-0.3,0.7-0.5,1.4-0.5,2.3s0.2,1.6,0.5,2.3c0.3,0.7,0.8,1.2,1.3,1.7
		c0.6,0.5,1.2,0.8,1.9,1.1C-50.7,291.3-49.9,291.4-49.1,291.4z"/>
	<path fill="#CCCCCC" d="M-55.6,278.2v-0.8h13v0.8H-55.6z"/>
	<path fill="#CCCCCC" d="M-55.6,275.1v-0.8h13v0.8H-55.6z"/>
</g>
<rect x="-57.9" y="65.7" fill="none" width="15.3" height="34.2"/>
<g enable-background="new    ">
	<path fill="#CCCCCC" d="M-43,67.2V68h-13v-0.8H-43z"/>
	<path fill="#CCCCCC" d="M-49.5,82.1c-0.9,0-1.8-0.1-2.7-0.4c-0.8-0.3-1.5-0.7-2.2-1.2c-0.6-0.5-1.1-1.2-1.4-1.9
		c-0.4-0.8-0.5-1.6-0.5-2.6s0.2-1.8,0.5-2.6s0.8-1.4,1.4-1.9c0.6-0.5,1.3-0.9,2.2-1.2c0.8-0.3,1.7-0.4,2.7-0.4s1.8,0.1,2.7,0.4
		c0.8,0.3,1.5,0.7,2.2,1.2c0.6,0.5,1.1,1.2,1.4,1.9c0.4,0.8,0.5,1.6,0.5,2.6s-0.2,1.8-0.5,2.6c-0.4,0.8-0.8,1.4-1.4,1.9
		c-0.6,0.5-1.3,0.9-2.2,1.2C-47.7,81.9-48.5,82.1-49.5,82.1z M-49.5,70.5c-0.8,0-1.6,0.1-2.4,0.4c-0.7,0.2-1.4,0.6-1.9,1.1
		c-0.6,0.5-1,1-1.3,1.7s-0.5,1.4-0.5,2.3c0,0.8,0.2,1.6,0.5,2.3s0.8,1.2,1.3,1.7s1.2,0.8,1.9,1.1c0.7,0.2,1.5,0.4,2.4,0.4
		c0.8,0,1.6-0.1,2.4-0.4c0.7-0.2,1.4-0.6,1.9-1.1s1-1,1.3-1.7s0.5-1.4,0.5-2.3c0-0.8-0.2-1.6-0.5-2.3s-0.8-1.2-1.3-1.7
		c-0.6-0.5-1.2-0.8-1.9-1.1C-47.9,70.7-48.6,70.5-49.5,70.5z"/>
	<path fill="#CCCCCC" d="M-49.5,95.5c-0.9,0-1.8-0.1-2.7-0.4c-0.8-0.3-1.5-0.7-2.2-1.2c-0.6-0.5-1.1-1.2-1.4-1.9
		c-0.4-0.8-0.5-1.6-0.5-2.6s0.2-1.8,0.5-2.6c0.3-0.8,0.8-1.4,1.4-1.9c0.6-0.5,1.3-0.9,2.2-1.2c0.8-0.3,1.7-0.4,2.7-0.4
		s1.8,0.1,2.7,0.4c0.8,0.3,1.5,0.7,2.2,1.2c0.6,0.5,1.1,1.2,1.4,1.9c0.4,0.8,0.5,1.6,0.5,2.6s-0.2,1.8-0.5,2.6
		c-0.4,0.8-0.8,1.4-1.4,1.9c-0.6,0.5-1.3,0.9-2.2,1.2C-47.7,95.4-48.5,95.5-49.5,95.5z M-49.5,84c-0.8,0-1.6,0.1-2.4,0.4
		c-0.7,0.2-1.4,0.6-1.9,1.1c-0.6,0.5-1,1-1.3,1.7s-0.5,1.4-0.5,2.3c0,0.8,0.2,1.6,0.5,2.3c0.3,0.7,0.8,1.2,1.3,1.7s1.2,0.8,1.9,1.1
		c0.7,0.2,1.5,0.4,2.4,0.4c0.8,0,1.6-0.1,2.4-0.4c0.7-0.2,1.4-0.6,1.9-1.1s1-1,1.3-1.7s0.5-1.4,0.5-2.3c0-0.8-0.2-1.6-0.5-2.3
		c-0.3-0.7-0.8-1.2-1.3-1.7c-0.6-0.5-1.2-0.8-1.9-1.1C-47.9,84.1-48.6,84-49.5,84z"/>
</g>
<rect x="-57.9" y="31.4" fill="none" width="15.3" height="42"/>
<rect x="-57.9" y="-5.6" fill="none" width="15.3" height="58.6"/>
<rect x="-90.3" y="25.1" fill="none" width="15.3" height="34.7"/>
<g enable-background="new    ">
	<path fill="#CCCCCC" d="M-84.2,80.1c0.9,0,1.8,0.1,2.7,0.4c0.8,0.3,1.5,0.7,2.2,1.2c0.6,0.5,1.1,1.2,1.4,1.9
		c0.4,0.8,0.5,1.6,0.5,2.6s-0.2,1.8-0.5,2.6s-0.8,1.4-1.4,1.9c-0.6,0.5-1.3,0.9-2.2,1.2c-0.8,0.3-1.7,0.4-2.7,0.4s-1.8-0.1-2.7-0.4
		c-0.8-0.3-1.5-0.7-2.2-1.2c-0.6-0.5-1.1-1.2-1.4-1.9c-0.4-0.8-0.5-1.6-0.5-2.6s0.2-1.8,0.5-2.6c0.4-0.8,0.8-1.4,1.4-1.9
		c0.6-0.5,1.3-0.9,2.2-1.2C-86.1,80.2-85.2,80.1-84.2,80.1z M-84.2,91.6c0.8,0,1.6-0.1,2.4-0.4c0.7-0.2,1.4-0.6,1.9-1.1
		c0.6-0.5,1-1,1.3-1.7s0.5-1.4,0.5-2.3c0-0.8-0.2-1.6-0.5-2.3s-0.8-1.2-1.3-1.7s-1.2-0.8-1.9-1.1c-0.7-0.2-1.5-0.4-2.4-0.4
		c-0.8,0-1.6,0.1-2.4,0.4c-0.7,0.2-1.4,0.6-1.9,1.1s-1,1-1.3,1.7s-0.5,1.4-0.5,2.3c0,0.8,0.2,1.6,0.5,2.3c0.3,0.7,0.8,1.2,1.3,1.7
		c0.6,0.5,1.2,0.8,1.9,1.1S-85.1,91.6-84.2,91.6z"/>
	<path fill="#CCCCCC" d="M-90.7,78.4v-0.8h13v0.8H-90.7z"/>
	<path fill="#CCCCCC" d="M-84.2,63.5c0.9,0,1.8,0.1,2.7,0.4c0.8,0.3,1.5,0.7,2.2,1.2c0.6,0.5,1.1,1.2,1.4,1.9
		c0.4,0.8,0.5,1.6,0.5,2.6s-0.2,1.8-0.5,2.6s-0.8,1.4-1.4,1.9c-0.6,0.5-1.3,0.9-2.2,1.2c-0.8,0.3-1.7,0.4-2.7,0.4s-1.8-0.1-2.7-0.4
		c-0.8-0.3-1.5-0.7-2.2-1.2c-0.6-0.5-1.1-1.2-1.4-1.9c-0.4-0.8-0.5-1.6-0.5-2.6s0.2-1.8,0.5-2.6c0.4-0.8,0.8-1.4,1.4-1.9
		c0.6-0.5,1.3-0.9,2.2-1.2C-86.1,63.7-85.2,63.5-84.2,63.5z M-84.2,75.1c0.8,0,1.6-0.1,2.4-0.4c0.7-0.2,1.4-0.6,1.9-1.1
		c0.6-0.5,1-1,1.3-1.7s0.5-1.4,0.5-2.3c0-0.8-0.2-1.6-0.5-2.3s-0.8-1.2-1.3-1.7s-1.2-0.8-1.9-1.1c-0.7-0.2-1.5-0.4-2.4-0.4
		c-0.8,0-1.6,0.1-2.4,0.4c-0.7,0.2-1.4,0.6-1.9,1.1s-1,1-1.3,1.7s-0.5,1.4-0.5,2.3c0,0.8,0.2,1.6,0.5,2.3s0.8,1.2,1.3,1.7
		c0.6,0.5,1.2,0.8,1.9,1.1C-85.9,74.9-85.1,75.1-84.2,75.1z"/>
</g>
<rect x="-75.1" y="67.8" fill="none" width="15.3" height="31.1"/>
<g enable-background="new    ">
	<path fill="#CCCCCC" d="M-66.6,79c-0.9,0-1.8-0.1-2.7-0.4c-0.8-0.3-1.5-0.7-2.2-1.2c-0.6-0.5-1.1-1.2-1.4-1.9
		c-0.4-0.8-0.5-1.6-0.5-2.6s0.2-1.8,0.5-2.6s0.8-1.4,1.4-1.9c0.6-0.5,1.3-0.9,2.2-1.2c0.8-0.3,1.7-0.4,2.7-0.4s1.8,0.1,2.7,0.4
		c0.8,0.3,1.5,0.7,2.2,1.2c0.6,0.5,1.1,1.2,1.4,1.9c0.4,0.8,0.5,1.6,0.5,2.6s-0.2,1.8-0.5,2.6c-0.4,0.8-0.8,1.4-1.4,1.9
		c-0.6,0.5-1.3,0.9-2.2,1.2C-64.8,78.9-65.7,79-66.6,79z M-66.6,67.5c-0.8,0-1.6,0.1-2.4,0.4c-0.7,0.2-1.4,0.6-1.9,1.1
		c-0.6,0.5-1,1-1.3,1.7s-0.5,1.4-0.5,2.3c0,0.8,0.2,1.6,0.5,2.3s0.8,1.2,1.3,1.7s1.2,0.8,1.9,1.1c0.7,0.2,1.5,0.4,2.4,0.4
		c0.8,0,1.6-0.1,2.4-0.4c0.7-0.2,1.4-0.6,1.9-1.1s1-1,1.3-1.7s0.5-1.4,0.5-2.3c0-0.8-0.2-1.6-0.5-2.3s-0.8-1.2-1.3-1.7
		c-0.6-0.5-1.2-0.8-1.9-1.1C-65,67.6-65.8,67.5-66.6,67.5z"/>
	<path fill="#CCCCCC" d="M-60.2,80.7v0.8h-13v-0.8H-60.2z"/>
	<path fill="#CCCCCC" d="M-66.6,95.5c-0.9,0-1.8-0.1-2.7-0.4c-0.8-0.3-1.5-0.7-2.2-1.2c-0.6-0.5-1.1-1.2-1.4-1.9
		c-0.4-0.8-0.5-1.6-0.5-2.6s0.2-1.8,0.5-2.6c0.4-0.8,0.8-1.4,1.4-1.9c0.6-0.5,1.3-0.9,2.2-1.2c0.8-0.3,1.7-0.4,2.7-0.4
		s1.8,0.1,2.7,0.4c0.8,0.3,1.5,0.7,2.2,1.2c0.6,0.5,1.1,1.2,1.4,1.9c0.4,0.8,0.5,1.6,0.5,2.6s-0.2,1.8-0.5,2.6
		c-0.4,0.8-0.8,1.4-1.4,1.9c-0.6,0.5-1.3,0.9-2.2,1.2C-64.8,95.4-65.7,95.5-66.6,95.5z M-66.6,84c-0.8,0-1.6,0.1-2.4,0.4
		c-0.7,0.2-1.4,0.6-1.9,1.1c-0.6,0.5-1,1-1.3,1.7s-0.5,1.4-0.5,2.3c0,0.8,0.2,1.6,0.5,2.3c0.3,0.7,0.8,1.2,1.3,1.7s1.2,0.8,1.9,1.1
		c0.7,0.2,1.5,0.4,2.4,0.4c0.8,0,1.6-0.1,2.4-0.4c0.7-0.2,1.4-0.6,1.9-1.1s1-1,1.3-1.7s0.5-1.4,0.5-2.3c0-0.8-0.2-1.6-0.5-2.3
		c-0.3-0.7-0.8-1.2-1.3-1.7c-0.6-0.5-1.2-0.8-1.9-1.1C-65,84.1-65.8,84-66.6,84z"/>
</g>
<rect x="-75.1" y="47.4" fill="none" width="15.3" height="25.5"/>
<g enable-background="new    ">
	<path fill="#CCCCCC" d="M-66.7,60.2c-0.9,0-1.8-0.1-2.7-0.4c-0.8-0.3-1.5-0.7-2.2-1.2c-0.6-0.5-1.1-1.2-1.4-1.9
		c-0.4-0.8-0.5-1.6-0.5-2.6s0.2-1.8,0.5-2.6s0.8-1.4,1.4-1.9c0.6-0.5,1.3-0.9,2.2-1.2c0.8-0.3,1.7-0.4,2.7-0.4s1.8,0.1,2.7,0.4
		c0.8,0.3,1.5,0.7,2.2,1.2c0.6,0.5,1.1,1.2,1.4,1.9c0.4,0.8,0.5,1.6,0.5,2.6s-0.2,1.8-0.5,2.6c-0.4,0.8-0.8,1.4-1.4,1.9
		c-0.6,0.5-1.3,0.9-2.2,1.2C-64.9,60.1-65.8,60.2-66.7,60.2z M-66.7,48.7c-0.8,0-1.6,0.1-2.4,0.4c-0.7,0.2-1.4,0.6-1.9,1.1
		c-0.6,0.5-1,1-1.3,1.7s-0.5,1.4-0.5,2.3c0,0.8,0.2,1.6,0.5,2.3s0.8,1.2,1.3,1.7s1.2,0.8,1.9,1.1c0.7,0.2,1.5,0.4,2.4,0.4
		c0.8,0,1.6-0.1,2.4-0.4c0.7-0.2,1.4-0.6,1.9-1.1s1-1,1.3-1.7s0.5-1.4,0.5-2.3c0-0.8-0.2-1.6-0.5-2.3s-0.8-1.2-1.3-1.7
		c-0.6-0.5-1.2-0.8-1.9-1.1C-65.1,48.8-65.9,48.7-66.7,48.7z"/>
	<path fill="#CCCCCC" d="M-60.2,61.9v0.8h-13v-0.8H-60.2z"/>
</g>
<rect x="-75.1" y="-8.6" fill="none" width="15.3" height="58.6"/>
<g enable-background="new    ">
	<path fill="#CCCCCC" d="M-7.6,83.7v0.8h-13v-0.8H-7.6z"/>
	<path fill="#CCCCCC" d="M-14.1,98.5c-0.9,0-1.8-0.1-2.7-0.4c-0.8-0.3-1.5-0.7-2.2-1.2c-0.6-0.5-1.1-1.2-1.4-1.9
		c-0.4-0.8-0.5-1.6-0.5-2.6s0.2-1.8,0.5-2.6s0.8-1.4,1.4-1.9c0.6-0.5,1.3-0.9,2.2-1.2c0.8-0.3,1.7-0.4,2.7-0.4s1.8,0.1,2.7,0.4
		c0.8,0.3,1.5,0.7,2.2,1.2c0.6,0.5,1.1,1.2,1.4,1.9c0.4,0.8,0.5,1.6,0.5,2.6s-0.2,1.8-0.5,2.6c-0.4,0.8-0.8,1.4-1.4,1.9
		c-0.6,0.5-1.3,0.9-2.2,1.2S-13.1,98.5-14.1,98.5z M-14.1,87c-0.8,0-1.6,0.1-2.4,0.4c-0.7,0.2-1.4,0.6-1.9,1.1c-0.6,0.5-1,1-1.3,1.7
		s-0.5,1.4-0.5,2.3c0,0.8,0.2,1.6,0.5,2.3c0.3,0.7,0.8,1.2,1.3,1.7s1.2,0.8,1.9,1.1c0.7,0.2,1.5,0.4,2.4,0.4c0.8,0,1.6-0.1,2.4-0.4
		c0.7-0.2,1.4-0.6,1.9-1.1s1-1,1.3-1.7S-8,93.4-8,92.5c0-0.8-0.2-1.6-0.5-2.3c-0.3-0.7-0.8-1.2-1.3-1.7c-0.6-0.5-1.2-0.8-1.9-1.1
		C-12.5,87.1-13.2,87-14.1,87z"/>
</g>
<rect x="-23" y="61.3" fill="none" width="15.3" height="40.1"/>
<path fill="#CCCCCC" d="M-7.7,58.9v0.8h-13v-0.8H-7.7z"/>
<path fill="#CCCCCC" d="M-7.7,62v0.8h-13V62H-7.7z"/>
<path fill="#CCCCCC" d="M-14.2,76.8c-0.9,0-1.8-0.1-2.7-0.4c-0.8-0.3-1.5-0.7-2.2-1.2c-0.6-0.5-1.1-1.2-1.4-1.9
	c-0.4-0.8-0.5-1.6-0.5-2.6s0.2-1.8,0.5-2.6s0.8-1.4,1.4-1.9c0.6-0.5,1.3-0.9,2.2-1.2c0.8-0.3,1.7-0.4,2.7-0.4s1.8,0.1,2.7,0.4
	c0.8,0.3,1.5,0.7,2.2,1.2c0.6,0.5,1.1,1.2,1.4,1.9c0.4,0.8,0.5,1.6,0.5,2.6s-0.2,1.8-0.5,2.6c-0.4,0.8-0.8,1.4-1.4,1.9
	c-0.6,0.5-1.3,0.9-2.2,1.2C-12.4,76.7-13.2,76.8-14.2,76.8z M-14.2,65.3c-0.8,0-1.6,0.1-2.4,0.4c-0.7,0.2-1.4,0.6-1.9,1.1
	c-0.6,0.5-1,1-1.3,1.7s-0.5,1.4-0.5,2.3c0,0.8,0.2,1.6,0.5,2.3s0.8,1.2,1.3,1.7s1.2,0.8,1.9,1.1c0.7,0.2,1.5,0.4,2.4,0.4
	c0.8,0,1.6-0.1,2.4-0.4c0.7-0.2,1.4-0.6,1.9-1.1s1-1,1.3-1.7s0.5-1.4,0.5-2.3c0-0.8-0.2-1.6-0.5-2.3s-0.8-1.2-1.3-1.7
	c-0.6-0.5-1.2-0.8-1.9-1.1C-12.6,65.4-13.4,65.3-14.2,65.3z"/>
<rect x="-23" y="10.4" fill="none" width="15.3" height="58.6"/>
<g enable-background="new    ">
	<path fill="#CCCCCC" d="M-31,63c-0.9,0-1.8-0.1-2.7-0.4c-0.8-0.3-1.5-0.7-2.2-1.2c-0.6-0.5-1.1-1.2-1.4-1.9
		c-0.4-0.8-0.5-1.6-0.5-2.6s0.2-1.8,0.5-2.6s0.8-1.4,1.4-1.9c0.6-0.5,1.3-0.9,2.2-1.2c0.8-0.3,1.7-0.4,2.7-0.4s1.8,0.1,2.7,0.4
		c0.8,0.3,1.5,0.7,2.2,1.2c0.6,0.5,1.1,1.2,1.4,1.9c0.4,0.8,0.5,1.6,0.5,2.6s-0.2,1.8-0.5,2.6c-0.4,0.8-0.8,1.4-1.4,1.9
		c-0.6,0.5-1.3,0.9-2.2,1.2C-29.1,62.9-30,63-31,63z M-31,51.5c-0.8,0-1.6,0.1-2.4,0.4c-0.7,0.2-1.4,0.6-1.9,1.1
		c-0.6,0.5-1,1-1.3,1.7s-0.5,1.4-0.5,2.3c0,0.8,0.2,1.6,0.5,2.3s0.8,1.2,1.3,1.7s1.2,0.8,1.9,1.1c0.7,0.2,1.5,0.4,2.4,0.4
		c0.8,0,1.6-0.1,2.4-0.4c0.7-0.2,1.4-0.6,1.9-1.1s1-1,1.3-1.7s0.5-1.4,0.5-2.3c0-0.8-0.2-1.6-0.5-2.3s-0.8-1.2-1.3-1.7
		c-0.6-0.5-1.2-0.8-1.9-1.1S-30.1,51.5-31,51.5z"/>
	<path fill="#CCCCCC" d="M-31,76.5c-0.9,0-1.8-0.1-2.7-0.4c-0.8-0.3-1.5-0.7-2.2-1.2c-0.6-0.5-1.1-1.2-1.4-1.9
		c-0.4-0.8-0.5-1.6-0.5-2.6s0.2-1.8,0.5-2.6s0.8-1.4,1.4-1.9c0.6-0.5,1.3-0.9,2.2-1.2c0.8-0.3,1.7-0.4,2.7-0.4s1.8,0.1,2.7,0.4
		c0.8,0.3,1.5,0.7,2.2,1.2c0.6,0.5,1.1,1.2,1.4,1.9c0.4,0.8,0.5,1.6,0.5,2.6s-0.2,1.8-0.5,2.6c-0.4,0.8-0.8,1.4-1.4,1.9
		c-0.6,0.5-1.3,0.9-2.2,1.2C-29.1,76.3-30,76.5-31,76.5z M-31,64.9c-0.8,0-1.6,0.1-2.4,0.4c-0.7,0.2-1.4,0.6-1.9,1.1
		c-0.6,0.5-1,1-1.3,1.7s-0.5,1.4-0.5,2.3c0,0.8,0.2,1.6,0.5,2.3s0.8,1.2,1.3,1.7s1.2,0.8,1.9,1.1c0.7,0.2,1.5,0.4,2.4,0.4
		c0.8,0,1.6-0.1,2.4-0.4c0.7-0.2,1.4-0.6,1.9-1.1s1-1,1.3-1.7s0.5-1.4,0.5-2.3c0-0.8-0.2-1.6-0.5-2.3s-0.8-1.2-1.3-1.7
		c-0.6-0.5-1.2-0.8-1.9-1.1C-29.3,65.1-30.1,64.9-31,64.9z"/>
	<path fill="#CCCCCC" d="M-24.5,78.2V79h-13v-0.8H-24.5z"/>
	<path fill="#CCCCCC" d="M-24.5,81.2V82h-13v-0.8H-24.5z"/>
	<path fill="#CCCCCC" d="M-31,96.1c-0.9,0-1.8-0.1-2.7-0.4c-0.8-0.3-1.5-0.7-2.2-1.2c-0.6-0.5-1.1-1.2-1.4-1.9
		c-0.4-0.8-0.5-1.6-0.5-2.6s0.2-1.8,0.5-2.6s0.8-1.4,1.4-1.9c0.6-0.5,1.3-0.9,2.2-1.2c0.8-0.3,1.7-0.4,2.7-0.4s1.8,0.1,2.7,0.4
		c0.8,0.3,1.5,0.7,2.2,1.2c0.6,0.5,1.1,1.2,1.4,1.9c0.4,0.8,0.5,1.6,0.5,2.6s-0.2,1.8-0.5,2.6c-0.4,0.8-0.8,1.4-1.4,1.9
		c-0.6,0.5-1.3,0.9-2.2,1.2C-29.1,95.9-30,96.1-31,96.1z M-31,84.6c-0.8,0-1.6,0.1-2.4,0.4c-0.7,0.2-1.4,0.6-1.9,1.1
		c-0.6,0.5-1,1-1.3,1.7s-0.5,1.4-0.5,2.3c0,0.8,0.2,1.6,0.5,2.3c0.3,0.7,0.8,1.2,1.3,1.7s1.2,0.8,1.9,1.1c0.7,0.2,1.5,0.4,2.4,0.4
		c0.8,0,1.6-0.1,2.4-0.4c0.7-0.2,1.4-0.6,1.9-1.1s1-1,1.3-1.7s0.5-1.4,0.5-2.3c0-0.8-0.2-1.6-0.5-2.3c-0.3-0.7-0.8-1.2-1.3-1.7
		c-0.6-0.5-1.2-0.8-1.9-1.1C-29.3,84.7-30.1,84.6-31,84.6z"/>
</g>
</svg>
