<?xml version="1.0" encoding="utf-8"?>
<!-- Generator: Adobe Illustrator 18.1.0, SVG Export Plug-In . SVG Version: 6.00 Build 0)  -->
<svg version="1.1" id="Layer_1" xmlns="http://www.w3.org/2000/svg" xmlns:xlink="http://www.w3.org/1999/xlink" x="0px" y="0px"
	 viewBox="90 -12.5 220 225" enable-background="new 90 -12.5 220 225" xml:space="preserve">
<g transform="matrix( 1, 0, 0, 1, 0,0) ">
	<g>
		<g id="Layer0_0_FILL">
			<path fill="#999999" d="M174.1,170.6l0.6,0.1c-0.2-0.1-0.4-0.2-0.6-0.3V170.6z"/>
			<path fill="#CCCCCC" d="M110.9,165.7c-2.4-3.4-4.6-6.9-6.8-10.4c1.4,2.6,2.8,5,4.4,7.5l2.4,3.2C111,165.9,111,165.8,110.9,165.7
				 M243.3-3.6c-0.3-0.1-0.6-0.2-0.9-0.3c2.2,0.9,4.3,2,6.6,3.1l-1.9-1C245.8-2.4,244.5-2.9,243.3-3.6z"/>
		</g>
	</g>
</g>
<g transform="matrix( 1, 0, 0, 1, -315.85,-61.4) ">
	<g>
		<g id="Layer0_1_FILL">
			<path fill="#999999" d="M438.2,81.9c-1.9,1.9-3.7,3.8-5.5,5.9c-6.3,7.3-11.4,15.2-15.5,23.9c-4.9,10.3-8.3,21.1-10,32.4
				c-0.2,1.4-0.4,3-0.6,4.5c-0.5,4.2-0.7,8.4-0.7,12.8c0,0.1,0,0.1,0,0.2c0,3.4,0.1,6.7,0.4,9.9c1.3,11.6,3.9,22.6,7.9,32.8
				c0.2,0.5,0.4,1,0.7,1.5l5.3,10.9c2,3.5,4.2,7,6.7,10.5c13.7,19.1,31.5,32.6,53.4,40.2l0.2,0.1c-18.1-9.5-32.5-22.9-43.4-40.6
				c-11.1-18.1-16.7-37.9-16.7-59.4c0-7.6,0.7-15.1,2.2-22.5c1.4-7.2,3.5-14.3,6.5-21.1c1.1-2.8,2.4-5.4,3.6-8.1
				c5.1-10.2,11.8-19.4,19.9-27.7c10.2-10.4,21.8-18.5,35.1-24.1c13.6-5.9,28-8.8,42.9-8.8c12,0,23.6,2,34.8,5.8v-0.1
				c-2.4-1.2-4.8-2.4-7.3-3.4l-4.6-1.9c-9.5-3.5-20.3-5.7-32.5-6.6c-1.6-0.1-3.2-0.1-4.9-0.1c-14.9,0-29.3,3-42.9,8.8
				C460,63.5,448.4,71.5,438.2,81.9z"/>
		</g>
	</g>
</g>
<g transform="matrix( 1, 0, 0, 1, -315.85,-61.4) ">
	<g>
		<g id="Layer0_2_FILL">
			<path fill="#999999" d="M624.8,144.5c-0.5-3.5-1.1-6.9-1.9-10.3c-0.1-1.1-0.3-2.3-0.5-3.4l-56.8-16.4c0.9,1.2,1.3,2.6,1.3,4.2
				v87.1c0,1.7-0.5,3.2-1.4,4.3c-0.9,1.2-2.1,1.9-3.5,1.9h-74.2l0.2,2.3v-0.4h9.4v15c0,1-0.5,1.9-1.3,2.6c-0.9,0.7-2,1-3.3,1
				c-0.2,0-0.4,0-0.5,0l87,21.2c16.8-11.8,29-26.6,36.4-44.4c6.9-14.5,10.3-30.5,10.3-47.9C625.8,155.5,625.5,149.9,624.8,144.5
				 M583.7,134c1,0,1.8,0.5,2.5,1.4c0.7,0.9,1,2.1,1,3.4c0,1.3-0.3,2.5-1,3.5c-0.7,0.9-1.5,1.4-2.5,1.4h-14.5v-9.7h14.5
				 M583.7,158.6c1,0,1.8,0.5,2.5,1.4c0.7,0.9,1,2.1,1,3.4s-0.3,2.6-1,3.5c-0.7,0.9-1.5,1.4-2.5,1.4h-14.5v-9.8L583.7,158.6
				 M583.7,183.2c1,0,1.8,0.5,2.5,1.4c0.7,0.9,1,2.1,1,3.4s-0.3,2.6-1,3.5c-0.7,0.9-1.5,1.4-2.5,1.4h-14.5v-9.7h14.5 M535.5,213.9
				h9.4v15c0,1-0.4,1.9-1.3,2.6s-2,1-3.3,1c-1.3,0-2.4-0.4-3.3-1c-0.9-0.7-1.3-1.5-1.3-2.6v-15 M511.7,213.9h9.4v15
				c0,1-0.4,1.9-1.3,2.6c-0.9,0.7-2,1-3.3,1c-1.3,0-2.4-0.4-3.3-1c-0.9-0.7-1.3-1.5-1.3-2.6v-15H511.7z"/>
		</g>
	</g>
</g>
<g transform="matrix( 1, 0, 0, 1, -315.85,-61.4) ">
	<g>
		<g id="Layer0_3_FILL">
			<path d="M521.1,213.9h-9.4v15c0,1,0.5,1.9,1.3,2.6c0.9,0.7,2,1,3.3,1c1.3,0,2.4-0.4,3.3-1c0.9-0.7,1.3-1.5,1.3-2.6v-15
				 M544.8,213.9h-9.4v15c0,1,0.5,1.9,1.3,2.6c0.9,0.7,2,1,3.3,1s2.4-0.4,3.3-1c0.9-0.6,1.3-1.5,1.3-2.6v-15 M489.8,231.9
				c0.2,0.1,0.4,0.2,0.6,0.2c0.5,0.2,1.1,0.4,1.6,0.4c0.2,0,0.4,0,0.5,0c1.3,0,2.4-0.4,3.3-1c0.9-0.7,1.3-1.5,1.3-2.6v-15h-9.4v15
				c0,1,0.4,1.9,1.3,2.6C489.4,231.6,489.6,231.7,489.8,231.9 M446.6,191.5c0.7,0.9,1.5,1.4,2.5,1.4h14.5v-9.7h-14.5
				c-1,0-1.8,0.5-2.5,1.4c-0.7,0.9-1,2.1-1,3.4C445.6,189.4,445.9,190.5,446.6,191.5 M446.6,166.9c0.7,0.9,1.5,1.4,2.5,1.4h14.5
				v-9.8h-14.5c-1,0-1.8,0.5-2.5,1.4c-0.7,0.9-1,2.1-1,3.4C445.6,164.7,445.9,166,446.6,166.9 M463.7,143.6V134h-14.5
				c-1,0-1.8,0.5-2.5,1.4c-0.7,0.9-1,2.1-1,3.4c0,1.3,0.3,2.5,1,3.5c0.7,0.9,1.5,1.4,2.5,1.4h14.5 M565.4,114.3
				c-0.9-1.2-2.1-1.9-3.5-1.9h-91.1c-1.3,0-2.5,0.6-3.4,1.9c-1,1.2-1.5,2.7-1.5,4.3v87.1c0,1.7,0.5,3.2,1.5,4.3
				c0.9,1.2,2.1,1.9,3.4,1.9h91.2c1.4,0,2.5-0.6,3.5-1.9c1-1.2,1.4-2.7,1.4-4.3v-87c0-1.7-0.5-3-1.3-4.2
				C565.5,114.4,565.4,114.4,565.4,114.3 M549.2,130.3c0.6,0.8,0.9,1.7,0.9,2.9v58.2c0,1.1-0.3,2.2-0.9,3c-0.7,0.8-1.5,1.1-2.4,1.1
				h-60.9c-0.9,0-1.7-0.4-2.3-1.1c-0.6-0.8-1-1.9-1-3v-58.2c0-1.1,0.3-2.1,1-2.9c0.6-0.8,1.4-1.2,2.3-1.2h60.9
				C547.8,129,548.5,129.4,549.2,130.3 M536.8,92.4c-0.9,0.7-1.3,1.7-1.3,2.7v15h9.4v-15c0-1-0.4-2-1.3-2.7c-0.9-0.7-2-1.1-3.3-1.1
				C538.8,91.3,537.7,91.7,536.8,92.4 M513.1,92.4c-0.9,0.7-1.3,1.7-1.3,2.7v15h9.4v-15c0-1-0.4-2-1.3-2.7c-0.9-0.7-2-1.1-3.3-1.1
				C515.2,91.3,514,91.7,513.1,92.4 M489.2,92.4c-0.9,0.7-1.3,1.7-1.3,2.7v15h9.4v-15c0-1-0.5-2-1.3-2.7c-0.9-0.7-2-1.1-3.3-1.1
				S490.3,91.7,489.2,92.4 M586.2,184.7c-0.7-0.9-1.5-1.4-2.5-1.4h-14.5v9.7h14.5c1,0,1.8-0.5,2.5-1.4c0.7-0.9,1-2.1,1-3.5
				C587.2,186.7,586.9,185.6,586.2,184.7 M586.2,160c-0.7-0.9-1.5-1.4-2.5-1.4h-14.5v9.8h14.5c1,0,1.8-0.5,2.5-1.4
				c0.7-0.9,1-2.1,1-3.5C587.2,162.2,586.9,160.9,586.2,160 M586.2,135.4c-0.7-0.9-1.5-1.4-2.5-1.4h-14.5v9.7h14.5
				c1,0,1.8-0.5,2.5-1.4c0.7-0.9,1-2.2,1-3.5C587.2,137.4,586.9,136.3,586.2,135.4z"/>
		</g>
	</g>
</g>
<g transform="matrix( 1, 0, 0, 1, 0,0) ">
	<g>
		<g id="Layer0_4_FILL">
			<path fill="#CCCCCC" d="M117.7,174.5c1.5,1.7,3,3.4,4.6,5c5.6,5.7,11.7,10.7,18.3,15c0.2,0.1,0.4,0.3,0.6,0.4l3.9,2.2
				c-1.3-0.8-2.6-1.5-3.9-2.5c-9.5-6.1-18-13.7-25.3-22.6L117.7,174.5 M170.1,67.5c-0.9,0-1.7,0.4-2.3,1.2c-0.6,0.8-0.9,1.7-0.9,2.9
				V130c0,1.1,0.3,2.2,0.9,2.9c0.6,0.8,1.4,1.2,2.3,1.2h61c0.9,0,1.7-0.4,2.3-1.2c0.6-0.8,1-1.9,1-2.9V71.6c0-1.1-0.3-2.1-1-2.9
				c-0.7-0.8-1.4-1.2-2.3-1.2L170.1,67.5 M264.4,8.6c-3.2-2.4-6.7-4.6-10.2-6.6l-4.6-2.5l0,0c-11.2-3.8-22.9-5.6-34.9-5.6
				c-14.9,0-29.2,2.9-42.8,8.7c-13.2,5.7-24.8,13.7-35,24.1c-8.1,8.2-14.7,17.4-19.9,27.7c-1.3,2.7-2.5,5.4-3.6,8
				c-2.8,6.9-5.1,13.9-6.5,21.2c-1.5,7.3-2.2,14.8-2.2,22.5c0,21.5,5.6,41.3,16.7,59.4c7.7,12.5,17.3,23,28.7,31.5
				c4.6,3.4,9.5,6.5,14.7,9.1l-0.2-0.1c-5.1-1.7-9.8-3.8-14.3-6.2l5.6,3c0.6,0.3,1.2,0.5,1.9,0.8c0.5,0.2,1,0.4,1.5,0.6l7.3,2.7
				c11,3.7,22.4,5.6,34.1,5.6c14.9,0,29.3-3,43-8.8c5.7-2.5,11.1-5.4,16.2-8.6c1.3-0.8,2.5-1.7,3.8-2.6l-87.1-21.2
				c-0.6-0.1-1.1-0.2-1.6-0.4l-0.6-0.1v-0.2c-0.2-0.1-0.4-0.2-0.6-0.4c-0.9-0.7-1.3-1.5-1.3-2.6V153l-0.2-2.4h-16.9
				c-1.3,0-2.5-0.6-3.4-1.9c-1-1.2-1.4-2.7-1.4-4.3V57.2c0-1.7,0.5-3.1,1.4-4.3c0.9-1.2,2.1-1.9,3.4-1.9h91.1c1.4,0,2.5,0.6,3.4,1.9
				l0.1,0.1l56.9,16.4c-1.2-4.4-2.7-8.8-4.5-13.2c-1.1-2.8-2.4-5.4-3.7-8.1c-5.1-10.2-11.8-19.3-19.9-27.6
				C274,16.1,269.4,12.1,264.4,8.6 M130.7,74c0.7-0.9,1.5-1.4,2.5-1.4h14.5v9.7h-14.5c-1,0-1.8-0.5-2.5-1.4c-0.7-0.9-1-2.2-1-3.5
				C129.7,75.9,130.1,74.9,130.7,74 M133.3,97.3h14.5v9.7h-14.5c-1,0-1.8-0.5-2.5-1.4c-0.7-0.9-1-2.2-1-3.5c0-1.3,0.3-2.5,1-3.4
				C131.5,97.7,132.4,97.3,133.3,97.3 M227.7,31c0.9,0.7,1.4,1.5,1.4,2.6v15.1h-9.4V33.6c0-1,0.5-1.9,1.4-2.6s2-1.1,3.3-1.1
				C225.7,29.9,226.7,30.3,227.7,31 M173.4,31c0.9-0.7,2-1.1,3.3-1.1c1.3,0,2.4,0.4,3.3,1.1c0.9,0.7,1.3,1.5,1.3,2.6v15.1H172V33.6
				C172.1,32.6,172.5,31.7,173.4,31 M203.9,31c0.9,0.7,1.4,1.5,1.4,2.6v15.1H196V33.6c0-1,0.5-1.9,1.4-2.6s2-1.1,3.3-1.1
				C201.8,29.9,202.9,30.3,203.9,31 M129.7,126.7c0-1.3,0.3-2.5,1-3.4c0.7-0.9,1.5-1.4,2.5-1.4h14.5v9.7h-14.5c-1,0-1.8-0.5-2.5-1.4
				C130.1,129.1,129.7,128,129.7,126.7z"/>
		</g>
	</g>
</g>
</svg>
