<?xml version="1.0" encoding="iso-8859-1"?>
<!-- Generator: Adobe Illustrator 18.1.0, SVG Export Plug-In . SVG Version: 6.00 Build 0)  -->
<!DOCTYPE svg PUBLIC "-//W3C//DTD SVG 1.1//EN" "http://www.w3.org/Graphics/SVG/1.1/DTD/svg11.dtd">
<svg version="1.1" id="Layer_1" xmlns="http://www.w3.org/2000/svg" xmlns:xlink="http://www.w3.org/1999/xlink" x="0px" y="0px"
	 width="239.111px" height="238.298px" viewBox="0 0 239.111 238.298" style="enable-background:new 0 0 239.111 238.298;"
	 xml:space="preserve">
<path style="fill:#00619E;" d="M238.875,119.258C238.875,53.393,185.481,0,119.617,0S0.359,53.393,0.359,119.258
	c0,3.974,0.199,7.902,0.579,11.777c6.196,60.26,57.114,107.264,119.012,107.264c13.353,0,26.175-2.151,38.136-6.125
	C205.074,216.169,238.875,171.662,238.875,119.258z"/>
<path style="fill:#114069;" d="M239.111,119.603c0-10.317-1.294-20.352-3.73-29.943c-33.906-11.683-83.212-28.414-94.538-32.261
	C127.03,52.707,83.84,45.229,60.232,91.318c-21.452,41.881,11.248,77.638,28.172,85.407c12.187,5.594,70.312,24.951,105.952,35.84
	C221.675,190.908,239.111,157.469,239.111,119.603z"/>
<path style="fill:#114069;" d="M80.481,231.463c-38.464-19.695-64.793-59.731-64.793-105.916
	c0-65.677,53.235-118.917,118.905-118.917c13.169,0,25.839,2.141,37.679,6.095l0.039-0.075
	c-16.058-8.088-34.201-12.642-53.407-12.642c-42.01,0-78.93,21.789-100.081,54.683C7.097,73.191,0.303,95.126,0.303,118.651
	c0,44.859,24.693,83.945,61.223,104.427c0.549,0.303,1.09,0.617,1.644,0.911c0.135,0.073,0.273,0.143,0.409,0.216
	c5.317,2.801,10.87,5.214,16.625,7.194L80.481,231.463z"/>
<path style="fill:#2DACD8;" d="M153.169,94.405c-1.648-3.646-3.555-7.187-5.719-10.605c-0.955,0.469-2.026,0.73-3.157,0.73
	c-3.986,0-7.215-3.234-7.215-7.22c0-0.658,0.091-1.297,0.256-1.903c-17.814-5.728-36.735-5.434-53.801,0.365
	c0.729,1.127,1.15,2.466,1.15,3.905c0,3.986-3.234,7.22-7.22,7.22c-0.549,0-1.079-0.061-1.59-0.181
	c-2.031,19.859,3.176,40.196,14.831,57.039c0.909-0.412,1.918-0.644,2.977-0.644c2.963,0,5.511,1.785,6.618,4.34h0.006
	c18.328-4.951,34.932-16.057,46.34-32.725c1.789-2.613,3.404-5.297,4.842-8.037c-1.662-1.322-2.722-3.357-2.722-5.643
	C148.765,98.059,150.58,95.499,153.169,94.405z"/>
<path style="fill:#2DACD8;" d="M66.444,80.519c1.292-0.767,2.603-1.5,3.934-2.191c0.516-2.732,2.57-4.919,5.226-5.624
	c0.283-1.037,0.587-2.073,0.913-3.1C72.825,72.784,69.436,76.429,66.444,80.519z"/>
<path style="fill:#2DACD8;" d="M149.713,82.077c2.409,3.777,4.521,7.707,6.315,11.754c0.288,0,0.578,0.019,0.856,0.057
	c0.853-2.642,1.571-5.307,2.145-7.995c-2.765-1.842-5.596-3.504-8.479-4.985C150.31,81.33,150.025,81.717,149.713,82.077z"/>
<path style="fill:#2DACD8;" d="M161.552,87.63c-0.549,2.405-1.207,4.795-1.969,7.162c2.163,1.245,3.616,3.579,3.616,6.254
	c0,2.244-1.023,4.246-2.622,5.566c6.375,23.513,2.954,49.29-11.632,70.601c-0.151,0.222-0.307,0.435-0.463,0.658
	c9.671-4.814,18.291-12.086,24.824-21.634c9.297-13.586,12.782-29.43,11.002-44.593C178.504,102.523,170.883,94.319,161.552,87.63z"
	/>
<path style="fill:#2DACD8;" d="M120.841,53.769c1.278,0.785,2.546,1.605,3.802,2.461c6.229,4.265,11.754,9.175,16.54,14.566
	c0.941-0.45,1.998-0.7,3.11-0.7c3.986,0,7.219,3.228,7.219,7.214c0,0.294-0.019,0.582-0.057,0.867
	c2.77,1.405,5.497,2.968,8.161,4.696c0.824-4.71,1.231-9.469,1.231-14.221c-1.472-1.207-3.001-2.362-4.597-3.455
	C145.391,57.769,133.087,54.052,120.841,53.769z"/>
<path style="fill:#2DACD8;" d="M155.986,108.265c-0.682,0-1.339-0.094-1.965-0.274c-1.5,2.845-3.176,5.629-5.031,8.341
	c-11.839,17.293-29.071,28.797-48.092,33.89c0.005,0.033,0.005,0.071,0.005,0.104c0,1.572-0.505,3.031-1.363,4.214
	c4.066,4.227,8.63,8.114,13.667,11.559c9.586,6.561,20.004,10.945,30.661,13.269c0.938-1.221,1.851-2.471,2.732-3.753
	c13.97-20.417,17.349-45.071,11.403-67.638C157.363,108.165,156.686,108.265,155.986,108.265z"/>
<path style="fill:#2DACD8;" d="M73.152,85.467c-1.292-0.966-2.253-2.357-2.67-3.967c-2.707,1.472-5.34,3.1-7.881,4.89
	c-11.384,19.585-11.513,43.013-1.894,62.232c8.559,1.761,17.256,2.191,25.772,1.349c0.085-1.761,0.804-3.355,1.926-4.564
	C76.153,127.726,70.78,106.311,73.152,85.467z"/>
<path style="fill:#2DACD8;" d="M123.037,58.579c-2.509-1.718-5.08-3.286-7.697-4.711c-12.38,0.753-24.465,5-34.686,12.451
	c-0.776,2.059-1.457,4.137-2.059,6.234c0.971,0.151,1.879,0.497,2.679,1.004c18.118-6.49,38.354-6.921,57.347-0.71l0.283-0.337
	C134.304,67.35,129.007,62.66,123.037,58.579z"/>
<path style="fill:#2DACD8;" d="M163.649,71.086c-0.128,4.526-0.608,9.047-1.46,13.522c8.286,5.772,15.306,12.686,20.987,20.37
	C180.336,92.249,173.713,80.339,163.649,71.086z"/>
<path style="fill:#2DACD8;" d="M97.456,156.475c-1.098,0.677-2.392,1.065-3.774,1.065c-3.119,0-5.775-1.979-6.779-4.753
	c-8.084,0.809-16.326,0.505-24.473-0.943c4.757,8.303,11.413,15.688,19.835,21.454c17.59,12.038,38.969,14.324,57.744,8.07
	c-9.866-2.542-19.49-6.821-28.409-12.928C106.388,164.878,101.664,160.854,97.456,156.475z"/>
<circle style="fill:#F19126;" cx="94.455" cy="149.93" r="7.478"/>
<circle style="fill:#F19126;" cx="78.455" cy="79.93" r="7.478"/>
<circle style="fill:#F19126;" cx="144.455" cy="76.93" r="7.478"/>
<circle style="fill:#F19126;" cx="156.455" cy="100.93" r="7.478"/>
</svg>
