<?xml version="1.0" encoding="utf-8"?>
<!-- Generator: Adobe Illustrator 18.1.0, SVG Export Plug-In . SVG Version: 6.00 Build 0)  -->
<svg version="1.1" id="Layer_1" xmlns="http://www.w3.org/2000/svg" xmlns:xlink="http://www.w3.org/1999/xlink" x="0px" y="0px"
	 width="218.5px" height="218.5px" viewBox="-26 67.5 218.5 218.5" enable-background="new -26 67.5 218.5 218.5"
	 xml:space="preserve">
<circle fill="#00619E" cx="83.3" cy="176.7" r="109.3"/>
<path fill="#114069" d="M47.5,279.5l0.3,0.1c-35.2-18-59.4-54.7-59.4-97c0-60.2,48.8-108.9,108.9-108.9c12.1,0,23.7,2,34.5,5.6
	l0-0.1c-14.7-7.4-31.3-11.6-48.9-11.6c-0.9,0-1.7,0-2.6,0C21.4,69.1-25.9,117.3-26,176.6C-25.9,224.3,4.8,264.8,47.5,279.5z"/>
<path fill="#114069" d="M192.5,176.7c0-10.5-1.5-20.6-4.2-30.2l-58.9-17.7l1.7,92.3h-76V240l3.3,5.4l87.6,20.8
	C174.1,246.4,192.5,213.7,192.5,176.7z"/>
<path fill="#2DACD8" d="M149.9,149.5h-14.4v9.5h14.4c1.9,0,3.5-2.1,3.5-4.7C153.4,151.7,151.8,149.5,149.9,149.5z"/>
<path fill="#2DACD8" d="M149.9,173.5h-14.4v9.5h14.4c1.9,0,3.5-2.1,3.5-4.7C153.4,175.6,151.8,173.5,149.9,173.5z"/>
<path fill="#2DACD8" d="M149.9,197.4h-14.4v9.5h14.4c1.9,0,3.5-2.1,3.5-4.7C153.4,199.6,151.8,197.4,149.9,197.4z"/>
<path fill="#2DACD8" d="M59.7,108.1c-2.6,0-4.6,1.6-4.6,3.6v14.7h9.3v-14.7C64.4,109.7,62.3,108.1,59.7,108.1z"/>
<path fill="#2DACD8" d="M83.3,108.1c-2.6,0-4.6,1.6-4.6,3.6v14.7h9.3v-14.7C87.9,109.7,85.8,108.1,83.3,108.1z"/>
<path fill="#2DACD8" d="M106.8,108.1c-2.6,0-4.6,1.6-4.6,3.6v14.7h9.3v-14.7C111.4,109.7,109.3,108.1,106.8,108.1z"/>
<path fill="#2DACD8" d="M55.1,241.9c0,2,2.1,3.6,4.6,3.6s4.6-1.6,4.6-3.6v-14.7h-9.3L55.1,241.9L55.1,241.9z"/>
<path fill="#2DACD8" d="M78.6,241.9c0,2,2.1,3.6,4.6,3.6s4.6-1.6,4.6-3.6v-14.7h-9.3L78.6,241.9L78.6,241.9z"/>
<path fill="#2DACD8" d="M102.1,241.9c0,2,2.1,3.6,4.6,3.6c2.6,0,4.6-1.6,4.6-3.6v-14.7h-9.3L102.1,241.9L102.1,241.9z"/>
<path fill="#2DACD8" d="M13.1,154.3c0,2.6,1.6,4.7,3.5,4.7h14.4v-9.5H16.6C14.7,149.5,13.1,151.7,13.1,154.3z"/>
<path fill="#2DACD8" d="M13.1,178.2c0,2.6,1.6,4.7,3.5,4.7h14.4v-9.5H16.6C14.7,173.5,13.1,175.6,13.1,178.2z"/>
<path fill="#2DACD8" d="M13.1,202.2c0,2.6,1.6,4.7,3.5,4.7h14.4v-9.5H16.6C14.7,197.4,13.1,199.6,13.1,202.2z"/>
<path fill="#2DACD8" d="M128.3,128.7H38.2c-2.7,0-4.9,2.7-4.9,6v84.6c0,3.3,2.2,6,4.9,6h90.1c2.7,0,4.9-2.7,4.9-6v-84.6
	C133.2,131.4,131,128.7,128.3,128.7z M116.7,205.3c0,2.2-1.5,4-3.3,4H53.1c-1.8,0-3.3-1.8-3.3-4v-56.6c0-2.2,1.5-4,3.3-4h60.3
	c1.8,0,3.3,1.8,3.3,4V205.3z"/>
<rect x="58" y="151.8" fill="#F19126" width="50.5" height="50.5"/>
</svg>
