<?xml version="1.0" encoding="utf-8"?>
<!-- Generator: Adobe Illustrator 18.1.0, SVG Export Plug-In . SVG Version: 6.00 Build 0)  -->
<svg version="1.1" id="Layer_1" xmlns="http://www.w3.org/2000/svg" xmlns:xlink="http://www.w3.org/1999/xlink" x="0px" y="0px"
	 viewBox="80 -20 240 240" enable-background="new 80 -20 240 240" xml:space="preserve">
<g transform="matrix( 1, 0, 0, 1, 0,0) ">
	<g>
		<g id="Layer0_0_FILL">
			<path fill="#B3B3B3" d="M134.3,99.8c0-11.3,3-21.7,8.6-31.7c-10.8,17.4-12.5,35.6-5.6,54.7c0,0.4,0.4,0.9,0.4,1.3
				C135.6,116.3,134.3,108,134.3,99.8z"/>
			<path fill="#CCCCCC" d="M109.3,21.2c0.4-0.4,0.9-0.9,1.3-1.3C110.2,20.4,109.8,20.8,109.3,21.2L109.3,21.2 M206.3-20
				c-0.4,0-1.3,0-1.7,0C205-20,205.4-20,206.3-20L206.3-20z"/>
		</g>
	</g>
</g>
<g transform="matrix( 1, 0, 0, 1, 14.45,-5.4) ">
	<g>
		<g id="Layer0_1_FILL">
			<path d="M177,172c9.9,1.3,19.8,0.4,29.3-3c-10.3-2.6-19.8-6.9-28.4-13c-5.2-3.5-9.9-7.8-14.2-12.2c-1.3,0.9-2.2,1.3-3.9,1.3
				c-1.7,0-3-0.4-4.3-1.3c-1.3-0.9-2.2-2.2-2.6-3.5c-8.2,0.9-16.4,0.4-24.1-0.9l0,0c5.2,8.7,11.6,16.1,19.8,21.7
				c6,4.3,12.9,7.4,19.8,9.1C171.4,171.2,174,171.6,177,172 M249.4,92.2c-1.3-6.5-3.9-12.6-7.3-18.2c-3.4-6.1-7.3-11.3-12.5-15.6
				c0,4.8-0.9,9.1-1.3,13.9C236.9,77.4,243.8,84.4,249.4,92.2 M222.2,95.6c-0.9,0-1.3,0-2.2-0.4c-1.7,3-3.4,5.6-5.2,8.7
				c-5.6,8.7-12.9,15.6-21.5,21.7c-8.2,5.6-17.2,10-26.7,12.6l0,0c0,1.7-0.4,3-1.3,4.3c4.3,4.3,8.6,8.2,13.8,11.7
				c9.5,6.5,19.4,10.8,30.6,13.5l3-3.9c6.9-10,11.2-21.3,13.4-33.4c1.7-11.7,1.3-23.4-1.7-34.7C223.5,95.6,223.1,95.6,222.2,95.6
				 M227.8,74.8c-0.4,2.6-1.3,4.8-2.2,7.4c1.3,0.4,2.2,1.3,2.6,2.6c0.9,1.3,0.9,2.2,0.9,3.5c0,2.2-0.9,4.3-2.6,5.6
				c3.4,12.2,3.9,24.3,2.2,36.5c-2.2,12.6-6.5,24.3-13.8,34.7v0.4c9.9-5.2,18.1-12.2,25-21.7c4.7-6.9,7.8-13.9,9.5-21.7
				c1.7-7.4,2.2-15.2,1.3-23C244.6,89.6,236.9,81.3,227.8,74.8 M222.2,81.3c0.4,0,0.9,0,0.9,0c0.9-2.6,1.7-5.2,2.2-8.2
				c-3-2.2-6-3.9-8.6-5.2l-0.9,1.3C218.3,73.5,220.5,77.4,222.2,81.3 M226.9,55.7c-1.3-1.3-3-2.6-4.7-3.5c-2.6-1.7-5.2-3.5-7.8-4.8
				c-8.6-4.3-17.7-6.5-27.6-6.9l3.9,2.6c6,4.3,11.6,9.1,16.4,14.8c0.9-0.4,2.2-0.9,3-0.9c2.2,0,3.9,0.9,5.2,2.2s2.2,3,2.2,5.2v0.9
				c3,1.3,5.6,3,8.2,4.8C226.5,65.3,226.9,60.5,226.9,55.7 M149.8,63.1c0.9,1.3,1.3,2.6,1.3,3.9c0,2.2-0.9,3.9-2.2,5.2
				c-1.3,1.3-3,2.2-5.2,2.2c-0.4,0-0.9,0-1.7,0c-0.9,10,0,20,2.2,29.9c2.6,10,6.9,19.1,12.5,27.8c0.9-0.9,2.2-1.3,3-1.3
				c1.3,0,3,0.4,3.9,1.3s2.2,1.7,2.6,3c9.5-2.6,18.1-6.5,25.9-12.2c8.2-5.6,15.1-12.6,20.7-20.8c1.7-2.6,3.4-5.2,4.7-8.2
				c-1.7-1.3-3-3.5-3-5.6c0-1.3,0.4-3,1.3-3.9s1.7-2.2,3-2.6c-1.7-3.5-3.4-7.4-5.6-10.8c-0.9,0.4-2.2,0.9-3,0.9
				c-2.2,0-3.9-0.9-5.2-2.2c-1.3-1.3-2.2-3-2.2-5.2c0-0.9,0-1.3,0.4-1.7c-9-3-18.1-4.3-27.1-4.3C167.1,58.3,158.4,60,149.8,63.1
				 M128.7,73.5c-5.6,10-8.6,20.4-8.6,31.7c0,8.2,1.3,16.5,3.9,24.3l0.4,0.9c0.9,2.2,1.7,4.3,3,6.1l0,0c8.6,1.7,17.2,2.2,25.4,1.3
				c0-1.7,0.9-3,2.2-4.8c-6-8.7-10.3-18.7-12.9-29.1c-2.6-10.4-3.4-20.8-2.2-31.2c-1.3-0.9-2.2-2.2-2.6-3.9
				C133.9,70,131.3,71.8,128.7,73.5 M141.6,59.6l0.9-3l0,0c-0.4,0.4-0.9,0.9-1.3,1.3l-6,6.1c-0.9,1.3-1.7,2.2-2.6,3.5l3.9-2.2
				c0.4-1.3,0.9-2.6,1.7-3.5C139.5,60.9,140.3,60,141.6,59.6 M171.4,42.3l-5.6,1.3c-0.9,0.4-1.7,0.4-2.6,0.9
				c-6,2.2-11.6,5.2-16.4,8.7c-0.9,1.7-1.3,3.9-2.2,6.1c0.9,0,1.7,0.4,2.6,0.9c9-3.5,18.5-5.2,28.4-5.2c9.9,0,19.8,1.3,28.9,4.3
				l0.4-0.4c-4.7-5.2-9.9-10-15.9-13.9c-2.6-1.7-5.2-3.5-7.3-4.3h-0.4C178.3,41,174.8,41.4,171.4,42.3z"/>
		</g>
	</g>
</g>
<g transform="matrix( 1, 0, 0, 1, 14.45,-5.4) ">
	<g>
		<g id="Layer0_2_FILL">
			<path fill="#B3B3B3" d="M301.5,77.8c0,0,0-0.4,0-0.9c-44.8-15.6-74.1-25.2-86.6-29.5c2.6,1.3,5.2,3,7.8,4.8
				c1.3,0.9,3,2.2,4.7,3.5c0,4.8-0.4,9.5-1.3,14.3c-2.6-1.7-5.2-3-8.2-4.8v-0.9c0-2.2-0.9-3.9-2.2-5.2s-3-2.2-5.2-2.2
				c-1.3,0-2.2,0-3,0.9c-5.2-5.6-10.3-10.4-16.4-14.8l-3.4-2.2c-1.7,0-3.9,0-5.6,0c2.2,1.3,4.7,2.6,7.3,4.3
				c6,4.3,11.2,8.7,15.9,13.9l-0.4,0.4c-9.5-3-19-4.3-28.9-4.3s-19.4,1.7-28.4,5.2c-0.9-0.4-1.7-0.9-2.6-0.9
				c0.9-2.6,1.3-4.8,2.2-6.1c5.2-3.9,10.8-6.5,16.4-8.7c0.9-0.4,1.7-0.4,2.6-0.9c-8.6,2.6-15.9,6.9-23.3,13l-0.9,3
				c-1.3,0.4-2.6,1.3-3.4,2.2s-1.7,2.2-1.7,3.5l-3.9,2.2c-1.3,1.7-2.6,3.9-3.9,6.1c2.6-1.7,5.2-3.5,7.8-4.8c0.4,1.7,1.3,3,2.6,3.9
				c-1.3,10.4-0.4,21.3,2.2,31.2c2.6,10.4,6.9,20,12.9,29.1c-1.3,1.3-1.7,3-2.2,4.8c-8.6,0.9-16.8,0.4-25.4-1.3
				c0.4,1.3,1.3,2.2,1.7,3c8.2,1.3,15.9,1.7,24.1,0.9c0.4,1.3,1.3,2.6,2.6,3.5s2.6,1.3,4.3,1.3c1.3,0,2.6-0.4,3.9-1.3
				c4.3,4.3,9,8.7,14.2,12.2c8.6,6.1,18.1,10.4,28.4,13c-9.5,3-19.4,4.3-29.3,3c-3-0.4-5.6-0.9-8.6-1.7c7.8,3,17.7,6.5,30.6,10.8
				c17.2,5.6,37.1,12.2,60.3,19.1c0,0,0,0,0.4,0c0,0,0.4,0,0.4-0.4c0.9-0.4,1.3-1.3,2.2-1.7c0,0,0.4,0,0.4-0.4c1.7-1.3,3-3,4.7-4.3
				c3-2.6,5.6-5.6,8.2-8.7c0.9-1.3,1.7-2.2,3-3c1.3-1.7,3-3.9,4.3-5.6c1.3-1.7,2.6-3.9,3.9-5.6c12.5-19.1,18.5-40.4,18.5-64.7
				c0-9.5-0.9-19.1-3-27.8L301.5,77.8 M150.7,67c0-1.3-0.4-2.6-1.3-3.9c8.6-3,17.7-4.3,26.7-4.3c9.5,0,18.1,1.3,27.1,4.3
				c0,0.4-0.4,1.3-0.4,1.7c0,2.2,0.9,3.9,2.2,5.2c1.3,1.3,3,2.2,5.2,2.2c1.3,0,2.2,0,3-0.9c2.2,3.5,4.3,6.9,5.6,10.8
				c-1.3,0.4-2.6,1.3-3,2.6c-0.9,1.3-1.3,2.6-1.3,3.9c0,2.6,0.9,4.3,3,5.6c-1.3,3-3,5.6-4.7,8.2c-5.6,8.2-12.5,15.2-20.7,20.8
				c-7.8,5.6-16.4,9.5-25.9,12.2c-0.4-1.3-1.3-2.6-2.6-3c-0.9-1.3-2.2-1.7-3.9-1.7c-1.3,0-2.2,0-3,0.4c-5.6-8.7-9.9-17.8-12.5-27.8
				s-3.4-20-2.2-29.9c0.4,0,1.3,0,1.7,0c2.2,0,3.9-0.9,5.2-2.2C150.3,70.5,150.7,68.7,150.7,67 M223.1,81.3c0,0-0.4,0-0.9,0
				c-1.7-3.9-3.9-7.8-6.5-11.7l0.9-1.3c2.6,1.3,5.2,3,8.6,5.2C224.8,75.7,223.9,78.3,223.1,81.3 M225.7,82.2
				c0.9-2.2,1.3-4.8,2.2-7.4c9,6.5,16.8,14.8,22.8,24.3c0.9,7.8,0.4,15.6-1.3,23c-1.7,7.8-5.2,15.2-9.5,21.7
				c-6.5,9.5-14.6,16.9-25,21.7l0.4-0.9c7.3-10.4,11.6-22.1,13.8-34.7c1.7-12.2,1.3-24.3-2.2-36.5c1.7-1.3,2.6-3.5,2.6-5.6
				c0-1.3-0.4-2.6-0.9-3.5C227.8,83.5,226.9,82.6,225.7,82.2 M220.5,95.2c0.9,0,1.3,0.4,2.2,0.4c0.9,0,1.3,0,2.2-0.4
				c3,11.7,3.4,23,1.7,34.7c-1.7,12.2-6.5,23-13.4,33.4l-3,3.9c-11.2-2.6-21.1-6.9-30.6-13.5c-4.7-3.5-9.5-7.4-13.8-11.7
				c0.9-1.3,1.3-2.6,1.3-4.3l0,0c9.9-2.6,18.5-6.9,26.7-12.6c8.6-6.1,15.5-13,21.5-21.7C217,101.3,218.8,98.2,220.5,95.2
				 M242.5,73.9c3.4,5.6,5.6,11.7,7.3,18.2c-5.6-7.8-12.9-14.8-21.1-20.4c0.9-4.3,1.3-8.7,1.3-13.9C234.7,62.7,239,67.9,242.5,73.9z
				"/>
		</g>
	</g>
</g>
<g transform="matrix( 1, 0, 0, 1, 14.45,-5.4) ">
	<g>
		<g id="Layer0_3_FILL">
			<path fill="#CCCCCC" d="M301.5,77c0,0,0,0.4,0,0.9h0.4c-4.7-21.3-15.5-40.4-32.3-57.3c-9.5-9.5-19.8-16.9-31-22.6l0,0l0,0
				c-0.4,0-0.9-0.4-1.3-0.4c-11.6-3.9-23.7-5.6-36.2-5.6c-16.4,0-31.9,3-46.5,9.5c-3,1.3-6.5,3-9.5,4.3c-0.4,0.4-0.9,0.4-1.3,0.9
				c-11.2,6.5-19.8,13-26.3,20l-1.3,0.9l0,0c-6.5,6.9-12.1,13.9-16.8,21.3c-1.7,2.6-3,5.2-4.3,7.8c-1.3,3-3,5.6-3.9,8.7
				c-3,7.4-5.6,14.8-6.9,22.6c-1.7,7.8-2.6,16.1-2.6,24.3c0,23,6,44.3,18.1,63.8c10.8,17.8,25.4,31.7,43.1,41.2
				c1.3,0.9,2.6,1.3,3.9,2.2h-0.4c-0.4,0,0,0,1.3,0.4l-3.4-0.9c4.3,1.3,8.2,2.6,12.5,3.5c6,1.3,12.5,2.6,18.5,3c1.7,0,3,0,4.7,0
				c1.7,0,3.4,0,5.2,0c1.3,0,2.6,0,3.4,0c3.4,0,7.3-0.4,10.8-0.9c5.6-0.4,11.2-1.7,16.4-3c5.6-1.3,10.8-3.5,15.9-5.6
				c5.6-2.2,10.8-5.2,15.5-7.8c4.3-2.6,8.2-5.2,11.6-8.2c0,0,0,0-0.4,0c-22.8-6.9-43.1-13.5-60.3-19.1c-12.5-4.3-22.8-7.8-30.6-10.8
				c-6-1.3-12.5-4.3-18.5-8.7c-8.2-5.6-14.6-13-19.8-21.7l0,0c-0.4-1.3-1.3-2.2-1.7-3l0,0c-0.9-2.2-1.7-4.3-3-6.1l-0.4-0.9
				c0-0.4-0.4-0.9-0.4-1.3c-6.9-19.1-5.2-37.3,5.6-54.2c1.3-2.2,2.6-4.3,3.9-6.1l0,0c0.9-1.3,1.7-2.2,2.6-3.5l6-6.1
				c0.4-0.4,0.9-1.3,1.3-1.3l0,0c6.9-6.1,14.6-10.4,23.3-13l5.6-1.3c3.4-0.9,6.5-1.3,9.9-1.3h0.4c1.7,0,3.9,0,5.6,0l-0.4-0.4
				c9.9,0.4,19,2.6,27.6,6.9C227.4,51.8,256.2,61.8,301.5,77z"/>
		</g>
	</g>
</g>
<g transform="matrix( 1, 0, 0, 1, 14.45,-5.4) ">
	<g>
		<g id="Layer0_4_FILL">
			<path fill="#999999" d="M179.1-14.6L179.1-14.6c-30.6,1.3-56.4,13-78.4,35.2c-1.3,1.3-3,3-4.3,4.8c-0.4,0.4-0.9,0.9-1.3,1.3l0,0
				c-15.5,17.8-25,38.2-28.4,61.2c-0.9,5.6-1.3,11.7-1.3,17.4c0,0,0,0,0,0.4l0,0c0,3,0,5.6,0.4,8.7c0,2.2,0.4,4.3,0.4,6.1
				c2.6,20.4,9.9,39.1,22,55.6c3.9,4.8,7.8,9.5,12.5,14.3c12.9,13,27.6,22.6,43.9,28.2l3.4,0.9c-1.3-0.4-1.7-0.9-1.3-0.4h0.4
				c-1.3-0.9-2.6-1.3-3.9-2.2c-18.1-10-32.3-23.9-43.1-41.2c-12.1-19.5-18.1-40.8-18.1-63.8c0-8.2,0.9-16.1,2.6-24.3
				c1.7-7.8,3.9-15.2,6.9-22.6c1.3-3,2.6-5.6,3.9-8.7c1.3-2.6,3-5.2,4.3-7.8c4.7-7.4,10.3-14.8,16.8-21.3l0,0l1.3-0.9
				c6.5-6.5,15.1-13,26.3-20c0.4,0,0.9-0.4,1.3-0.9c3-1.7,6-3,9.5-4.3c14.2-6.1,29.7-9.1,46.1-9.1c12.5,0,24.6,1.7,36.2,5.6
				c0.4,0,0.9,0.4,1.3,0.4l0,0l0,0c-14.2-7.4-30.2-11.3-47.4-12.2l0,0c-0.4,0-1.3,0-1.7,0c-1.3,0-2.6,0-4.3-0.4c0,0,0,0-0.4,0
				C183.4-14.6,181.3-14.6,179.1-14.6 M223.9-8.5L223.9-8.5h-0.4C223.5-8.5,223.5-8.5,223.9-8.5z"/>
		</g>
	</g>
</g>
</svg>
