<?xml version="1.0" encoding="utf-8"?>
<!-- Generator: Adobe Illustrator 18.1.0, SVG Export Plug-In . SVG Version: 6.00 Build 0)  -->
<svg version="1.1" id="Layer_1" xmlns="http://www.w3.org/2000/svg" xmlns:xlink="http://www.w3.org/1999/xlink" x="0px" y="0px"
	 width="200px" height="200px" viewBox="0 0 200 200" enable-background="new 0 0 200 200" xml:space="preserve">
<g id="air_x5F_travel_x5F_worker">
	<path fill="#CDCCCC" d="M158.5,181.2c2-1.5,3.9-3,5.9-4.5l-0.1-0.1c-1.9,1.6-3.9,3.1-5.9,4.6l-1.9,1.3L158.5,181.2 M6.9,136.6
		c0.1,0.4,0.3,0.8,0.4,1.2l0.4,1c0,0,0,0.1,0.1,0.2c5.1,12,12.2,22.6,21.5,31.8c1.5,1.5,3.1,3,4.6,4.3c0-0.1,0.1-0.1,0.1-0.2
		c-5.5-4.9-10.6-10.5-15.1-16.7C14,151.3,9.9,144.1,6.9,136.6 M199.8,106h-0.1c-0.1,1.4-0.2,2.8-0.3,4.3c0-0.1,0-0.1,0.1-0.2
		l0.3-3.8C199.8,106.1,199.8,106.1,199.8,106z"/>
	<path fill="#B4B4B4" d="M113.2,119.2l0.3,1.3c0-0.1,0-0.3-0.1-0.4L113.2,119.2z"/>
	<path fill="#134169" d="M196.2,72.5c-0.3-1-0.6-2-1-2.9l-92.8-41.2c2.8,3.6,6,7.7,9.6,12.4c0.8,0,1.4,0.3,1.8,0.7L124,54.2
		c1.6,2.2,2.6,3.5,2.9,4.1c0.4,0.7,0.3,1.3-0.1,1.7l1,2.1c2.5,6.2,3.4,13.7,2.6,22.6c-0.8,8.8-3,17.2-6.7,25.1
		c-0.4,0.9-1.4,1.5-2.9,2l-2.2,0.5c0.6-2.2,1.2-5.3,1.8-9.1l-0.3,0.1c-0.8,2-1.6,3.6-2.4,4.8c-0.8,1.3-2.2,3-4.2,5l-0.1,0.3
		l-0.3,5.7c1.4,0.2,3.1,1.5,5.1,3.8c1.5,1.8,2.7,3.4,3.4,4.8l29.2,9.8h0.6c0.5,0.1,1.1,0.4,1.6,0.9c1.7,1.5,3.1,4.5,4.2,9.1
		c0.7,2.8,3,12.5,7,29.1l0,0c2.2-1.8,4.4-3.8,6.4-5.9c0.1-0.1,0.2-0.2,0.3-0.3l4.1-4.4c0.1-0.1,0.2-0.2,0.3-0.4
		c0.1-0.2,0.3-0.3,0.4-0.5l0.9-1.1c6.3-7.6,11.5-16,15.4-25.2c2.1-5,3.8-10.1,5.1-15.3l2.2-13.1c0-0.1,0-0.2,0.1-0.3
		c0.1-1.4,0.2-2.9,0.3-4.3h0.1c0-0.3,0.1-0.5,0.1-0.8l0.2-4.4c0-0.2,0-0.5,0-0.7c0-0.1,0-0.1,0-0.2l-0.2-4.6c0-0.5-0.1-1-0.1-1.5
		c0-0.5,0-1.1-0.1-1.6l-0.5-4.7c-0.5-4.5-1.4-9-2.6-13.3c0-0.2-0.1-0.3-0.1-0.5l-0.2-0.5C196.3,72.9,196.2,72.7,196.2,72.5z"/>
	<path fill="#00629F" d="M126.4,169.2L126.4,169.2l-1.4,0.1l-0.1-0.1c-0.8-0.8-2.6-1.5-5.3-1.9l-3.8-0.4l1.8,1.7
		c1.5,1.2,2.8,2.2,4.1,2.8c1.4,0.7,2.5,0.8,3.4,0.2h1.3c0.9,0.6,2,0.5,3.3-0.2c2-1,4-2.5,5.9-4.5c-1.2,0.1-2.5,0.2-3.8,0.4
		C129,167.7,127.2,168.3,126.4,169.2 M92.3,57.9c1.5,1.2,2.8,2.2,4.1,2.8c1.4,0.7,2.5,0.8,3.4,0.2h1.3c0.9,0.6,2,0.5,3.3-0.2
		c2-1,4-2.5,5.9-4.5c-1.2,0.1-2.5,0.2-3.8,0.4c-2.7,0.5-4.5,1.1-5.3,1.9l-0.1,0.1h-1.3l-0.1-0.1c-0.8-0.8-2.6-1.5-5.3-1.9l-3.8-0.4
		L92.3,57.9 M138.9,7.8c-0.1,0-0.2-0.1-0.3-0.2l-6.8-2.6c-0.8-0.2-1.6-0.4-2.3-0.7c5.1,1.7,10.1,3.7,15,6.2v0.1
		c-10.2-3.4-20.8-5.1-31.6-5.1c-13.5,0-26.4,2.6-38.8,7.8c-11.9,5-22.5,12.2-31.7,21.4S26,54.5,21,66.4c-5.2,12.4-7.8,25.3-7.8,38.8
		c0,19.1,5,36.7,15.1,52.7c2.4,3.8,5,7.4,7.7,10.8c3.5-10.9,5.6-17.9,6.4-21.3c1.1-4.6,2.5-7.6,4.2-9.1c0.5-0.5,1.1-0.7,1.6-0.9
		c0.3,0,0.5,0,0.6,0l29.6-10c0.9-1.6,2-3.2,3.5-4.8c2-2.2,3.6-3.4,5-3.7l-0.3,0.9c-0.2,0.7-0.2,1.6,0.1,2.5c0.2,0.9,1.7,2.7,4.5,5.4
		l5.5,5.3l1.4,1.7v29.3l1.9,2.7l1.9-2.7v-29.3l1.5-1.7c0.1-0.1,1.6-1.6,4.4-4.3c0,0,0.1-0.1,0.1-0.1c0.3-0.3,0.6-0.6,1-0.9
		c2.8-2.7,4.4-4.6,4.5-5.4c0.2-0.8,0.2-1.5,0.1-2.2l-0.3-1.2l0.3-5.7l0.1-0.3c-0.3,0.4-0.7,0.7-1.1,1.1l-1.6,1.5
		c-0.3,0.3-0.6,0.6-0.9,0.8l-2.4,2c0,0,0,0-0.1,0.1c-2.1,1.4-4.4,2.1-6.8,2.1h-0.1c-0.6,0-1.5-0.1-2.6-0.3c-1.6-0.4-3-1-4.3-1.8
		c-0.8-0.5-1.9-1.5-3.4-2.8c0,0-0.1,0-0.1-0.1c-0.4-0.4-0.9-0.9-1.4-1.3c-2.6-2.5-4.4-4.5-5.4-6.1c-0.7-1.1-1.5-2.6-2.3-4.7
		c0.4,2.1,0.8,4.4,1.3,6.8c0.4,1.6,0.5,2.3,0.4,2.1c-0.7-0.1-1.5-0.2-2.2-0.5c-1.6-0.5-2.5-1.2-2.9-2c-2.6-5.7-4.5-11.7-5.7-18.1
		c-1.2-6.3-1.5-12.3-1-17.9c0.2-4.7,1.3-9.1,3.1-13.2c-0.9-0.7-1.3-1.4-1.1-1.9c0.2-0.5,1.2-2,3-4.5c1.8-2.4,5.2-6.7,10.1-12.7
		l7.6,8.3l2,1.8c1.6,1.2,3,1.8,4.3,1.8s2.7-0.6,4.4-1.8c0.8-0.6,1.5-1.2,2-1.8l7.5-8.3c-0.4-0.4-1-0.7-1.8-0.7l-5.7,6.3
		c-0.5,0.6-1.2,1.2-2,1.8c-1.6,1.2-3.1,1.8-4.4,1.8c-1.3,0-2.7-0.6-4.3-1.8l-2-1.8l-5.7-6.3l9.5-12.4c0.4-0.4,0.8,0,1.3,1.2
		c0.5-0.2,0.9-0.4,1.2-0.5l1.2,0.5c0.5-1.1,0.9-1.5,1.2-1.2l92.8,41.2c0.3,1,0.7,1.9,1,2.9c0.1,0.2,0.1,0.4,0.2,0.5
		c-1.1-4.1-2.5-8.1-4.2-12c-5.1-12-12.2-22.6-21.4-31.8C161.5,20.1,150.9,12.9,138.9,7.8 M89,116.9L89,116.9c1.3,1,2.6,1.8,3.9,2.7
		c0,0,0.1,0,0.1,0.1c0.9,0.5,1.9,1,2.8,1.5c1.6,0.8,3,1.4,4.2,1.9l4.1-1.4c2.8-1.2,5.2-2.6,7.4-4.3c0.3-0.3,0.7-0.5,1-0.8v5.4
		c-0.7,1.2-1.7,2.6-3.1,4.2c-0.7,0.8-1.4,1.5-2.1,2.2c-2.2,2.1-4.6,3.9-7.2,5.3c-3-1.6-5.7-3.7-8.2-6.2c-0.4-0.4-0.8-0.9-1.2-1.3
		l-3.1-4.2v-6.2l1.1,0.9C88.8,116.7,88.9,116.8,89,116.9z"/>
	<rect x="104.8" y="149.4" fill="#FFFFFF" width="33.3" height="29.2"/>
	<path fill="#2EACD8" d="M151.4,137.6h-0.6l-29.2-9.8c-0.7-1.4-1.9-3-3.4-4.8c-2-2.3-3.7-3.6-5.1-3.8l0.3,0.9c0,0.1,0,0.2,0.1,0.3
		c0.1,0.7,0,1.4-0.1,2.2c-0.2,0.9-1.7,2.7-4.5,5.4c-0.3,0.3-0.7,0.6-1,0.9c0,0-0.1,0.1-0.1,0.1c-2.8,2.8-4.3,4.2-4.4,4.3l-1.5,1.7
		v29.3l-1.9,2.7l-1.9-2.7v-29.3l-1.4-1.7l-5.5-5.3c-2.8-2.7-4.3-4.6-4.5-5.4c-0.2-0.9-0.2-1.8-0.1-2.5l0.3-0.9c-1.4,0.2-3,1.5-5,3.7
		c-1.4,1.6-2.6,3.2-3.5,4.8l-29.6,10c-0.1,0-0.4,0-0.6,0c-0.5,0.1-1.1,0.4-1.6,0.9c-1.7,1.5-3.1,4.5-4.2,9.1
		c-0.8,3.3-2.9,10.4-6.4,21.3c-0.6,1.9-1.3,3.9-2,6c0,0.1,0,0.2-0.1,0.2c0.2,0.2,0.4,0.4,0.5,0.5l4.1,3.4c0.1,0.1,0.2,0.1,0.2,0.2
		c0.1,0.1,0.1,0.1,0.2,0.2c0.1,0.1,0.2,0.1,0.2,0.2c0.8,0.6,1.6,1.2,2.3,1.8c7.4,5.2,15.2,9.4,23.6,12.4c9.6,3.6,19.6,5.7,29.9,6.3
		c10.2,0.4,20.2-0.7,30-3.3c9-2.3,17.5-5.8,25.6-10.6c2-1.1,3.9-2.3,5.8-3.6l1.9-1.3c2-1.5,4-3,5.9-4.6c-4-16.5-6.4-26.2-7-29.1
		c-1.1-4.6-2.5-7.6-4.2-9.1C152.5,138,152,137.8,151.4,137.6 M126.3,169.2L126.3,169.2c0.9-0.9,2.6-1.5,5.4-2
		c1.4-0.2,2.6-0.4,3.8-0.4c-2,2-3.9,3.4-5.9,4.5c-1.4,0.7-2.5,0.8-3.3,0.2H125c-0.8,0.6-1.9,0.5-3.4-0.2c-1.2-0.6-2.6-1.6-4.1-2.8
		l-1.8-1.7l3.8,0.4c2.7,0.5,4.5,1.1,5.3,1.9l0.1,0.1H126.3 M89.1,117L89.1,117c-0.2-0.2-0.3-0.3-0.4-0.4l-1.1-0.9v6.2l3.1,4.2
		c0.4,0.5,0.8,0.9,1.2,1.3c2.4,2.5,5.2,4.6,8.2,6.2c2.6-1.4,5-3.2,7.2-5.3c0.7-0.7,1.4-1.5,2.1-2.2c1.4-1.6,2.4-3,3.1-4.2v-5.4
		c-0.3,0.3-0.7,0.5-1,0.8c-2.1,1.7-4.6,3.1-7.4,4.3L100,123c-1.1-0.4-2.5-1-4.2-1.9c-1-0.5-1.9-1-2.8-1.5c0,0,0,0-0.1-0.1
		C91.6,118.7,90.3,117.9,89.1,117 M102.4,28.4c-0.4-0.4-0.8,0-1.2,1.2l-1.2-0.5c-0.4,0.1-0.8,0.2-1.2,0.5c-0.5-1.2-0.9-1.6-1.3-1.2
		l-9.5,12.4l5.7,6.3l2,1.8c1.6,1.2,3,1.8,4.3,1.8s2.7-0.6,4.4-1.8c0.8-0.6,1.5-1.2,2-1.8l5.7-6.3C108.4,36.1,105.2,32,102.4,28.4
		 M127.8,62.2l-1-2.1c0.4-0.4,0.5-1,0.1-1.7c-0.3-0.6-1.2-1.9-2.9-4.1l-10.2-12.7l-7.5,8.3c-0.5,0.6-1.2,1.2-2,1.8
		c-1.6,1.2-3.1,1.8-4.4,1.8c-1.3,0-2.7-0.6-4.3-1.8l-2-1.8L86,41.5c-4.9,6.1-8.3,10.3-10.1,12.7c-1.8,2.5-2.9,4-3,4.5
		c-0.2,0.6,0.2,1.2,1.1,1.9c-1.8,4.1-2.8,8.5-3.1,13.2c-0.5,5.7-0.2,11.6,1,17.9c1.2,6.4,3.1,12.4,5.7,18.1c0.4,0.9,1.4,1.5,2.9,2
		c0.8,0.3,1.5,0.5,2.2,0.5c0.1,0.1-0.1-0.6-0.4-2.1c-0.5-2.4-1-4.7-1.3-6.8c0.9,2.1,1.7,3.6,2.3,4.7c1,1.6,2.8,3.6,5.4,6.1
		c0.5,0.5,1,0.9,1.4,1.3c0,0,0.1,0,0.1,0.1c1.5,1.4,2.6,2.3,3.4,2.8c1.3,0.9,2.7,1.5,4.3,1.8c1.1,0.2,1.9,0.3,2.6,0.3h0.1
		c2.4,0,4.7-0.7,6.8-2.1c0,0,0,0,0.1-0.1l2.4-2c0.2-0.1,0.3-0.2,0.4-0.4c0.2-0.1,0.3-0.3,0.5-0.4l1.6-1.5c0.4-0.4,0.7-0.7,1.1-1.1
		c2-2,3.4-3.7,4.2-5c0.8-1.2,1.6-2.8,2.4-4.8l0.3-0.1c-0.6,3.8-1.2,6.9-1.8,9.1l2.2-0.5c1.6-0.5,2.5-1.2,2.9-2
		c3.7-7.9,5.9-16.3,6.7-25.1C131.2,75.9,130.3,68.4,127.8,62.2 M96.4,60.7c-1.2-0.6-2.6-1.6-4.1-2.8l-1.8-1.7l3.8,0.4
		c2.7,0.5,4.5,1.1,5.3,1.9l0.1,0.1h1.3l0.1-0.1c0.8-0.8,2.6-1.5,5.3-1.9c1.4-0.2,2.6-0.4,3.8-0.4c-2,2-3.9,3.4-5.9,4.5
		c-1.4,0.7-2.5,0.8-3.3,0.2h-1.3C98.9,61.5,97.8,61.4,96.4,60.7z"/>
	<path fill="#134169" d="M100,0c-0.1,0-0.2,0-0.3,0C88,0,76.6,2,65.8,6h-0.1c-1.6,0.6-3.2,1.2-4.8,1.9C49,12.9,38.4,20,29.2,29.2
		S12.9,49,7.8,60.9c-0.7,1.6-1.3,3.2-1.9,4.8v0.1C2,76.6,0,88,0,99.7c0,0.1,0,0.2,0,0.3c0,13.1,2.4,25.7,7.3,37.7
		c-0.1-0.4-0.3-0.7-0.4-1.1c3.1,7.5,7.1,14.8,12.1,21.7c4.5,6.2,9.5,11.8,15,16.6c0.7-2.1,1.4-4.1,2-6c-2.8-3.4-5.3-7-7.7-10.8
		c-10.1-16.1-15.1-33.7-15.1-52.7c0-13.5,2.6-26.5,7.8-38.8C26,54.5,33.2,44,42.4,34.8S62.1,18.4,74,13.4
		c12.4-5.2,25.3-7.8,38.8-7.8c10.8,0,21.4,1.7,31.6,5.1v-0.1c-4.9-2.5-9.9-4.5-15-6.2c0.8,0.2,1.6,0.5,2.3,0.7
		C121.6,1.7,111,0,100,0z"/>
</g>
<g id="Layer_1_1_">
</g>
</svg>
