
<svg  version="1.1" xmlns="http://www.w3.org/2000/svg" xmlns:xlink="http://www.w3.org/1999/xlink" preserveAspectRatio="none" x="0px" y="0px" width="200px" height="200px" viewBox="0 0 200 200">
<defs>
<g id="Layer0_0_FILL">
<path fill="#CCCCCC" stroke="none" d="
M 191.9 633.45
L 179.4 632.55 179.4 661.05
Q 181.1830078125 660.7404296875 182.95 660.35 183.2150390625 660.29140625 183.45 660.2 187.7365234375 659.262890625 191.9 657.9
L 191.9 633.45
M 179.4 619.05
L 191.9 620.45 191.9 599.55 179.4 597.45 179.4 619.05
M 168.05 617.8
L 168.05 595.55 155.55 593.45 155.55 616.4 168.05 617.8
M 225.3 638.6
Q 227.264453125 636.835546875 229.15 634.95
L 225.3 634.95 225.3 638.6
M 215.7 635.25
L 203.2 634.3 203.2 653.35
Q 209.755078125 650.2173828125 215.7 646.15
L 215.7 635.25
M 203.2 621.7
L 215.7 623.05 215.7 603.6 203.2 601.45 203.2 621.7
M 155.55 630.75
L 155.55 653.7 168.05 653.95 168.05 631.7 155.55 630.75
M 126.75 567.25
L 126.85 553.45
Q 128 551.65 128.15 549
L 120.7 554.85
Q 120.8 557.15 121.75 557.3
L 121.45 570.5 112.55 603.6
Q 111.6 606.95 112.15 610.25 112.7 613.65 114.15 613.4
L 134.8 610
Q 135.95 609.8 136.85 608.45 137.75 607.1 138.25 604.85 139.35 600.15 137.9 596.35
L 126.75 567.25
M 120.3 592.1
Q 120.6 591.25 121.05 591.1 121.5 590.9 121.8 591.55 122.1 592.15 122.05 593.25 122.05 594.3 121.75 595.2 121.4 596.05 120.95 596.2 120.5 596.35 120.2 595.7 119.9 595.05 119.95 594 120 592.95 120.3 592.1
M 122.85 556.5
L 125.65 554.35 125.5 568.8 130.5 582.35 117.9 587.95 122.55 570.6 122.85 556.5
M 126.55 588.95
Q 127.05 588.7 127.4 589.4 127.75 590.05 127.7 591.15 127.7 592.3 127.35 593.25 127 594.15 126.5 594.3 126 594.5 125.65 593.8 125.3 593.15 125.35 592.05 125.35 590.95 125.7 590.05 126.05 589.15 126.55 588.95
M 129.5 595.95
Q 130 595.8 130.3 596.45 130.65 597.05 130.65 598.1 130.65 599.15 130.3 600 130 600.8 129.5 600.95 129.05 601.05 128.75 600.4 128.4 599.75 128.4 598.75 128.4 597.75 128.75 596.9 129.05 596.1 129.5 595.95
M 122.9 598.7
Q 123.2 597.9 123.6 597.8 124 597.65 124.3 598.25 124.6 598.9 124.55 599.85 124.55 600.85 124.25 601.6 123.95 602.4 123.55 602.5 123.15 602.6 122.85 602 122.55 601.35 122.6 600.4 122.6 599.45 122.9 598.7
M 118.35 599.45
Q 118.75 599.35 118.95 599.9 119.2 600.45 119.15 601.4 119.15 602.35 118.85 603.1 118.6 603.85 118.2 603.9 117.85 604 117.6 603.45 117.35 602.8 117.4 601.9 117.45 601 117.7 600.3 118 599.55 118.35 599.45
M 168.05 545.5
L 168.05 523.25 155.55 518.8 155.55 541.75 168.05 545.5
M 203.2 588.85
L 215.7 591.4 215.7 571.95 203.2 568.65 203.2 588.85
M 179.4 583.95
L 191.9 586.55 191.9 565.65 179.4 562.35 179.4 583.95
M 168.05 581.65
L 168.05 559.4 155.55 556.1 155.55 579.05 168.05 581.65
M 191.9 531.75
L 179.4 527.3 179.4 548.9 191.9 552.6 191.9 531.75
M 215.7 540.25
L 203.2 535.8 203.2 556 215.7 559.75 215.7 540.25
M 190.3 478.35
Q 191.432421875 478.705859375 192.5 479.1
L 191.4 478.65
Q 190.869921875 478.5134765625 190.3 478.35
M 199.2 481.55
Q 199.06328125 481.4921875 198.9 481.4
L 195.9 480.35
Q 200.24453125 482.03125 204.45 484.15
L 204.4 484.2
Q 190 479.35 174.65 479.35 161.959765625 479.35 150 482.6 143.9560546875 484.2666015625 138.1 486.75 121.25 493.85 108.25 506.85 95.25 519.85 88.1 536.75 80.75 554.2 80.75 573.3 80.75 600.25 94.95 623 99.7896484375 630.7787109375 105.8 637.3
L 105.8 538.2 146 508.55 203.35 530 203.45 524.45 145.15 502.5 133.8 510.9 133.8 503.6 151.95 490.2 203.45 509.6 203.45 509.9 203.7 509.9 248.5 529.75
Q 241.473828125 514.0265625 229.15 501.75 216.1 488.7 199.2 481.55 Z"/>
</g>

<g id="Layer0_1_FILL">
<path fill="#B3B3B3" stroke="none" d="
M 203.7 509.9
L 203.45 509.9 203.35 530 225.3 538.2 225.3 634.95 229.15 634.95
Q 242.2 621.9 249.35 605 256.75 587.5 256.75 568.35 256.75 549.2 249.35 531.65 248.9521484375 530.7095703125 248.5 529.75
L 203.7 509.9 Z"/>
</g>

<g id="Layer0_2_FILL">
<path fill="#000000" stroke="none" d="
M 146 508.55
L 105.8 538.2 105.8 643.55
Q 115.0265625 650.5708984375 125.85 655.15 143.4 662.55 162.55 662.55 171.141015625 662.55 179.4 661.05
L 179.4 632.55 191.9 633.45 191.9 657.9
Q 193.61640625 657.3310546875 195.3 656.7
L 198 655.65
Q 198.432421875 655.4619140625 198.85 655.25 198.980078125 655.2384765625 199.05 655.2
L 199.2 655.15
Q 201.2275390625 654.2921875 203.2 653.35
L 203.2 634.3 215.7 635.25 215.7 646.15
Q 220.7169921875 642.7072265625 225.3 638.6
L 225.3 538.2 146 508.55
M 203.2 535.8
L 215.7 540.25 215.7 559.75 203.2 556 203.2 535.8
M 179.4 527.3
L 191.9 531.75 191.9 552.6 179.4 548.9 179.4 527.3
M 168.05 559.4
L 168.05 581.65 155.55 579.05 155.55 556.1 168.05 559.4
M 191.9 586.55
L 179.4 583.95 179.4 562.35 191.9 565.65 191.9 586.55
M 215.7 591.4
L 203.2 588.85 203.2 568.65 215.7 571.95 215.7 591.4
M 168.05 523.25
L 168.05 545.5 155.55 541.75 155.55 518.8 168.05 523.25
M 126.85 553.45
L 126.75 567.25 137.9 596.35
Q 139.35 600.15 138.25 604.85 137.75 607.1 136.85 608.45 135.95 609.8 134.8 610
L 114.15 613.4
Q 112.7 613.65 112.15 610.25 111.6 606.95 112.55 603.6
L 121.45 570.5 121.75 557.3
Q 120.8 557.15 120.7 554.85
L 128.15 549
Q 128 551.65 126.85 553.45
M 155.55 653.7
L 155.55 630.75 168.05 631.7 168.05 653.95 155.55 653.7
M 215.7 623.05
L 203.2 621.7 203.2 601.45 215.7 603.6 215.7 623.05
M 168.05 595.55
L 168.05 617.8 155.55 616.4 155.55 593.45 168.05 595.55
M 191.9 620.45
L 179.4 619.05 179.4 597.45 191.9 599.55 191.9 620.45
M 118.95 599.9
Q 118.75 599.35 118.35 599.45 118 599.55 117.7 600.3 117.45 601 117.4 601.9 117.35 602.8 117.6 603.45 117.85 604 118.2 603.9 118.6 603.85 118.85 603.1 119.15 602.35 119.15 601.4 119.2 600.45 118.95 599.9
M 123.6 597.8
Q 123.2 597.9 122.9 598.7 122.6 599.45 122.6 600.4 122.55 601.35 122.85 602 123.15 602.6 123.55 602.5 123.95 602.4 124.25 601.6 124.55 600.85 124.55 599.85 124.6 598.9 124.3 598.25 124 597.65 123.6 597.8
M 130.3 596.45
Q 130 595.8 129.5 595.95 129.05 596.1 128.75 596.9 128.4 597.75 128.4 598.75 128.4 599.75 128.75 600.4 129.05 601.05 129.5 600.95 130 600.8 130.3 600 130.65 599.15 130.65 598.1 130.65 597.05 130.3 596.45
M 127.4 589.4
Q 127.05 588.7 126.55 588.95 126.05 589.15 125.7 590.05 125.35 590.95 125.35 592.05 125.3 593.15 125.65 593.8 126 594.5 126.5 594.3 127 594.15 127.35 593.25 127.7 592.3 127.7 591.15 127.75 590.05 127.4 589.4
M 125.65 554.35
L 122.85 556.5 122.55 570.6 117.9 587.95 130.5 582.35 125.5 568.8 125.65 554.35
M 121.05 591.1
Q 120.6 591.25 120.3 592.1 120 592.95 119.95 594 119.9 595.05 120.2 595.7 120.5 596.35 120.95 596.2 121.4 596.05 121.75 595.2 122.05 594.3 122.05 593.25 122.1 592.15 121.8 591.55 121.5 590.9 121.05 591.1
M 203.45 524.45
L 203.45 509.6 151.95 490.2 133.8 503.6 133.8 510.9 145.15 502.5 203.45 524.45 Z"/>
</g>

<g id="Layer0_3_FILL">
<path fill="#999999" stroke="none" d="
M 195.9 480.35
L 194.9 479.95
Q 193.9173828125 479.5861328125 192.9 479.2
L 192.5 479.1
Q 191.432421875 478.705859375 190.3 478.35 190.869921875 478.5134765625 191.4 478.65 177.4900390625 474.15 162.55 474.15 162.4 474.15 162.25 474.15 145.7185546875 474.200390625 130.35 479.75
L 130.2 479.8
Q 127.9400390625 480.6 125.7 481.55 108.85 488.65 95.85 501.65 82.85 514.65 75.75 531.5 74.8 533.7400390625 74 536
L 73.95 536.15
Q 68.4005859375 551.5189453125 68.35 568.05 68.35 568.2001953125 68.35 568.35 68.35 568.7619140625 68.35 569.15 68.351171875 569.3171875 68.35 569.45 68.3513671875 569.57421875 68.35 569.7 68.3513671875 569.7986328125 68.35 569.9 68.3548828125 570.18515625 68.35 570.45 68.3521484375 570.5662109375 68.35 570.65 68.35234375 570.74140625 68.35 570.8 68.3529296875 570.9263671875 68.35 571 68.619140625 579.7658203125 70.4 588.15
L 71.1 591.25
Q 71.1392578125 591.28203125 71.15 591.3
L 71.9 594.05
Q 72.015625 594.5193359375 72.15 594.95
L 74.75 602.5
Q 74.849609375 602.7501953125 74.95 603
L 75.2 603.65
Q 79.4427734375 613.8375 86.2 623.15 94.7328125 634.9345703125 105.8 643.25
L 105.8 637.3
Q 99.7896484375 630.7787109375 94.95 623 80.75 600.25 80.75 573.3 80.75 554.2 88.1 536.75 95.25 519.85 108.25 506.85 121.25 493.85 138.1 486.75 143.9560546875 484.2666015625 150 482.6 161.959765625 479.35 174.65 479.35 190 479.35 204.4 484.2
L 204.45 484.15
Q 200.24453125 482.03125 195.9 480.35 Z"/>
</g>
</defs>

<g transform="matrix( 1, 0, 0, 1, -62.05,-468.4) ">
<use xlink:href="#Layer0_0_FILL"/>
</g>

<g transform="matrix( 1, 0, 0, 1, -62.05,-468.4) ">
<use xlink:href="#Layer0_1_FILL"/>
</g>

<g transform="matrix( 1, 0, 0, 1, -62.05,-468.4) ">
<use xlink:href="#Layer0_2_FILL"/>
</g>

<g transform="matrix( 1, 0, 0, 1, -62.05,-468.4) ">
<use xlink:href="#Layer0_3_FILL"/>
</g>
</svg>
