<svg version="1.1" xmlns="http://www.w3.org/2000/svg" xmlns:xlink="http://www.w3.org/1999/xlink" x="0px" y="0px"
	 viewBox="0 0 195.947 192.082" style="enable-background:new 0 0 195.947 192.082;" xml:space="preserve">
<g id="labratory">
	<g>
		<defs>
			<circle id="SVGID_1_" cx="93.757" cy="93.757" r="93.757"/>
		</defs>
		<clipPath id="SVGID_2_">
			<use xlink:href="#SVGID_1_"  style="overflow:visible;"/>
		</clipPath>
		<polygon style="clip-path:url(#SVGID_2_);fill:#999999;" points="195.947,180.583 155.447,180.583 155.305,63.238 134.52,55.751 
			134.52,34.986 195.947,58.333 		"/>
	</g>
	<g>
		<defs>
			<path id="SVGID_3_" d="M42.914,15.621c-3.986,2.57-7.77,5.437-11.309,8.565v140.319c16.503,14.581,38.192,23.432,61.945,23.432
				c26.813,0,50.992-11.275,68.055-29.344V30.098c-5.189-5.496-11.039-10.364-17.42-14.477H42.914z"/>
		</defs>
		<clipPath id="SVGID_4_">
			<use xlink:href="#SVGID_3_"  style="overflow:visible;"/>
		</clipPath>
		<path style="clip-path:url(#SVGID_4_);" d="M76.228,27.933l-11.345,8.368v-7.283l18.163-13.396l51.474,19.364v14.863
			L76.228,27.933z M161.605,180.415v11.667h-130v-11.667h5.252V63.63l40.214-29.662l79.282,29.662v116.785H161.605z M134.277,81.42
			l12.501,3.743V65.679l-12.501-4.467V81.42z M134.277,114.255l12.501,2.565V97.337l-12.501-3.29V114.255z M134.277,147.09
			l12.501,1.388v-19.484l-12.501-2.111V147.09z M134.277,179.926l12.501,0.209v-19.484l-12.501-0.934V179.926z M110.462,74.29
			l12.5,3.743V57.168l-12.5-4.467V74.29z M110.462,109.369l12.5,2.565V91.069l-12.5-3.289V109.369z M110.462,144.448l12.5,1.387
			V124.97l-12.5-2.111V144.448z M86.646,67.16l12.5,3.742V48.657l-12.5-4.467V67.16z M86.646,104.483l12.5,2.565V84.802l-12.5-3.29
			V104.483z M86.646,141.805l12.5,1.387v-22.245l-12.5-2.112V141.805z M86.646,179.128l12.5,0.209v-22.245l-12.5-0.935V179.128z
			 M122.962,185.767v-26.895l-12.5-0.935v27.83H122.962z M65.894,135.402c1.487-0.245,2.77-2.141,3.447-5.137
			c0.678-2.999,0.536-6.156-0.367-8.51L57.813,92.659l0.118-13.779c0.712-1.139,1.21-2.877,1.284-4.49l-7.439,5.856
			c0.022,1.422,0.416,2.384,1.031,2.487l-0.273,13.16l-8.926,33.093c-0.577,2.142-0.722,4.591-0.388,6.68
			c0.339,2.13,1.083,3.305,2.025,3.149L65.894,135.402z M53.9,81.91l2.843-2.137l-0.165,14.444l5.017,13.52l-12.643,5.597
			l4.693-17.343L53.9,81.91z M57.609,114.334c0.659-0.26,1.193,0.738,1.183,2.24c-0.009,1.512-0.563,2.93-1.23,3.156
			c-0.657,0.223-1.17-0.805-1.154-2.283C56.425,115.978,56.959,114.589,57.609,114.334 M60.587,121.352
			c0.619-0.193,1.126,0.767,1.127,2.156c0,1.396-0.512,2.67-1.137,2.834c-0.618,0.163-1.108-0.821-1.102-2.189
			C59.481,122.793,59.976,121.543,60.587,121.352 M52.122,116.493c0.587-0.231,1.047,0.727,1.022,2.15
			c-0.027,1.432-0.535,2.765-1.128,2.966c-0.586,0.199-1.029-0.786-0.997-2.188C51.051,118.028,51.542,116.722,52.122,116.493
			 M54.672,123.201c0.548-0.171,0.983,0.746,0.966,2.058c-0.016,1.318-0.483,2.512-1.037,2.657
			c-0.547,0.144-0.968-0.793-0.946-2.086C53.677,124.544,54.13,123.371,54.672,123.201 M49.409,124.847
			c0.489-0.153,0.866,0.724,0.835,1.966c-0.03,1.249-0.459,2.372-0.952,2.502c-0.488,0.128-0.852-0.767-0.817-1.992
			C48.509,126.104,48.925,124.999,49.409,124.847"/>
	</g>
</g>
<g id="Layer_1">
</g>
</svg>
