
<svg version="1.1" xmlns="http://www.w3.org/2000/svg"baseProfile="basic"  xmlns:xlink="http://www.w3.org/1999/xlink" x="0px" y="0px"
	 viewBox="60 90 212.3 70" style="enable-background:new 0 0 172.3 139.983;" xml:space="preserve">
	<polygon style="fill-rule:evenodd;clip-rule:evenodd;fill:#FFFFFF;" points="66.056,97.513 86.739,97.513 86.739,100.426
		66.056,100.426 66.056,97.513 	"/>
	<polygon style="fill-rule:evenodd;clip-rule:evenodd;fill:#FFFFFF;" points="111.933,97.513 112.701,97.513 113.426,97.629
		114.152,97.766 114.888,97.923 115.624,98.165 116.297,98.439 116.97,98.765 117.653,99.122 118.273,99.553 118.873,99.984
		119.335,100.426 89.704,100.426 89.704,97.513 111.933,97.513 	"/>
	<polygon style="fill-rule:evenodd;clip-rule:evenodd;fill:#FFFFFF;" points="125.161,97.513 141.974,97.513 143.005,100.426
		125.161,100.426 125.161,97.513 	"/>
	<polygon style="fill-rule:evenodd;clip-rule:evenodd;fill:#FFFFFF;" points="155.644,97.513 172.3,97.513 172.3,100.426
		154.613,100.426 155.644,97.513 	"/>
	<polygon style="fill-rule:evenodd;clip-rule:evenodd;fill:#FFFFFF;" points="66.056,103.181 86.739,103.181 86.739,106.051
		66.056,106.051 66.056,103.181 	"/>
	<polygon style="fill-rule:evenodd;clip-rule:evenodd;fill:#FFFFFF;" points="71.965,108.796 80.808,108.796 80.808,111.73
		71.965,111.73 71.965,108.796 	"/>
	<polygon style="fill-rule:evenodd;clip-rule:evenodd;fill:#FFFFFF;" points="71.965,114.432 80.808,114.432 80.808,117.366
		71.965,117.366 71.965,114.432 	"/>
	<polygon style="fill-rule:evenodd;clip-rule:evenodd;fill:#FFFFFF;" points="121.428,103.181 121.586,103.454 121.912,104.138
		122.185,104.895 122.532,106.051 89.704,106.051 89.704,103.181 121.428,103.181 	"/>
	<polygon style="fill-rule:evenodd;clip-rule:evenodd;fill:#FFFFFF;" points="95.614,108.796 104.446,108.796 104.446,111.73
		95.614,111.73 95.614,108.796 	"/>
	<polygon style="fill-rule:evenodd;clip-rule:evenodd;fill:#FFFFFF;" points="122.805,108.796 122.784,109.259 122.7,110.016
		122.585,110.752 122.406,111.477 122.322,111.73 113.342,111.73 113.342,108.796 122.805,108.796 	"/>
	<polygon style="fill-rule:evenodd;clip-rule:evenodd;fill:#FFFFFF;" points="121.07,114.432 120.797,114.842 120.334,115.441
		119.851,116.009 119.335,116.545 118.768,117.04 118.273,117.366 95.614,117.366 95.614,114.432 121.07,114.432 	"/>
	<polygon style="fill-rule:evenodd;clip-rule:evenodd;fill:#FFFFFF;" points="125.161,103.181 143.951,103.181 144.982,106.051
		125.161,106.051 125.161,103.181 	"/>
	<polygon style="fill-rule:evenodd;clip-rule:evenodd;fill:#FFFFFF;" points="172.3,103.181 172.3,106.051 152.658,106.051
		153.656,103.181 172.3,103.181 	"/>
	<polygon style="fill-rule:evenodd;clip-rule:evenodd;fill:#FFFFFF;" points="131.081,108.796 145.907,108.796 146.937,111.73
		131.081,111.73 131.081,108.796 	"/>
	<polygon style="fill-rule:evenodd;clip-rule:evenodd;fill:#FFFFFF;" points="166.537,108.796 166.537,111.73 150.67,111.73
		151.68,108.796 166.537,108.796 	"/>
	<polygon style="fill-rule:evenodd;clip-rule:evenodd;fill:#FFFFFF;" points="140.87,117.366 156.78,117.366 157.673,114.758
		157.673,117.366 166.537,117.366 166.537,114.432 149.734,114.432 148.809,117.04 147.884,114.432 131.081,114.432
		131.081,117.366 139.945,117.366 139.945,114.737 140.87,117.366 	"/>
	<polygon style="fill-rule:evenodd;clip-rule:evenodd;fill:#FFFFFF;" points="66.056,137.029 86.739,137.029 86.739,139.983
		66.056,139.983 66.056,137.029 	"/>
	<polygon style="fill-rule:evenodd;clip-rule:evenodd;fill:#FFFFFF;" points="66.056,131.351 86.739,131.351 86.739,134.305
		66.056,134.305 66.056,131.351 	"/>
	<polygon style="fill-rule:evenodd;clip-rule:evenodd;fill:#FFFFFF;" points="71.965,120.1 80.808,120.1 80.808,123.002
		71.965,123.002 71.965,120.1 	"/>
	<polygon style="fill-rule:evenodd;clip-rule:evenodd;fill:#FFFFFF;" points="71.965,125.736 80.808,125.736 80.808,128.669
		71.965,128.669 71.965,125.736 	"/>
	<polygon style="fill-rule:evenodd;clip-rule:evenodd;fill:#FFFFFF;" points="118.273,120.1 118.768,120.457 119.335,120.941
		119.851,121.488 120.334,122.055 120.797,122.655 121.07,123.002 95.614,123.002 95.614,120.1 118.273,120.1 	"/>
	<polygon style="fill-rule:evenodd;clip-rule:evenodd;fill:#FFFFFF;" points="95.614,125.736 104.446,125.736 104.446,128.669
		95.614,128.669 95.614,125.736 	"/>
	<polygon style="fill-rule:evenodd;clip-rule:evenodd;fill:#FFFFFF;" points="122.322,125.736 122.406,126.019 122.585,126.745
		122.7,127.471 122.784,128.228 122.805,128.669 113.342,128.669 113.342,125.736 122.322,125.736 	"/>
	<polygon style="fill-rule:evenodd;clip-rule:evenodd;fill:#FFFFFF;" points="122.532,131.351 122.406,131.95 122.185,132.654
		121.912,133.359 121.586,134.042 121.428,134.305 89.704,134.305 89.704,131.351 122.532,131.351 	"/>
	<polygon style="fill-rule:evenodd;clip-rule:evenodd;fill:#FFFFFF;" points="119.335,137.029 118.768,137.502 118.168,137.965
		117.548,138.374 116.875,138.732 116.191,139.058 115.519,139.321 114.782,139.573 114.047,139.731 113.342,139.868
		112.585,139.952 111.828,139.983 89.704,139.983 89.704,137.029 119.335,137.029 	"/>
	<polygon style="fill-rule:evenodd;clip-rule:evenodd;fill:#FFFFFF;" points="131.081,120.1 139.945,120.1 139.945,123.002
		131.081,123.002 131.081,120.1 	"/>
	<polygon style="fill-rule:evenodd;clip-rule:evenodd;fill:#FFFFFF;" points="154.803,123.002 142.784,123.002 141.785,120.1
		155.823,120.1 154.803,123.002 	"/>
	<polygon style="fill-rule:evenodd;clip-rule:evenodd;fill:#FFFFFF;" points="157.673,120.1 166.537,120.1 166.537,123.002
		157.673,123.002 157.673,120.1 	"/>
	<polygon style="fill-rule:evenodd;clip-rule:evenodd;fill:#FFFFFF;" points="131.081,125.736 139.945,125.736 139.945,128.669
		131.081,128.669 131.081,125.736 	"/>
	<polygon style="fill-rule:evenodd;clip-rule:evenodd;fill:#FFFFFF;" points="153.909,125.736 152.899,128.669 144.719,128.669
		143.709,125.736 153.909,125.736 	"/>
	<polygon style="fill-rule:evenodd;clip-rule:evenodd;fill:#FFFFFF;" points="157.673,125.736 166.537,125.736 166.537,128.669
		157.673,128.669 157.673,125.736 	"/>
	<polygon style="fill-rule:evenodd;clip-rule:evenodd;fill:#FFFFFF;" points="125.161,131.351 139.945,131.351 139.945,134.305
		125.161,134.305 125.161,131.351 	"/>
	<polygon style="fill-rule:evenodd;clip-rule:evenodd;fill:#FFFFFF;" points="151.974,131.351 150.975,134.305 146.643,134.305
		145.633,131.351 151.974,131.351 	"/>
	<polygon style="fill-rule:evenodd;clip-rule:evenodd;fill:#FFFFFF;" points="157.673,131.351 172.3,131.351 172.3,134.305
		157.673,134.305 157.673,131.351 	"/>
	<polygon style="fill-rule:evenodd;clip-rule:evenodd;fill:#FFFFFF;" points="125.161,137.029 139.945,137.029 139.945,139.983
		125.161,139.983 125.161,137.029 	"/>
	<polygon style="fill-rule:evenodd;clip-rule:evenodd;fill:#FFFFFF;" points="157.673,137.029 172.3,137.029 172.3,139.983
		157.673,139.983 157.673,137.029 	"/>
	<polygon style="fill-rule:evenodd;clip-rule:evenodd;fill:#FFFFFF;" points="149.019,139.983 150.029,137.029 147.589,137.029
		148.588,139.983 149.019,139.983 	"/>
  <circle cx="268 " cy="161" r="3" style="fill:white;fill-rule:both;"/>
</svg>
