<?xml version="1.0" encoding="iso-8859-1"?>
<!-- Generator: Adobe Illustrator 18.1.0, SVG Export Plug-In . SVG Version: 6.00 Build 0)  -->
<!DOCTYPE svg PUBLIC "-//W3C//DTD SVG 1.1//EN" "http://www.w3.org/Graphics/SVG/1.1/DTD/svg11.dtd">
<svg version="1.1" xmlns="http://www.w3.org/2000/svg" xmlns:xlink="http://www.w3.org/1999/xlink" x="0px" y="0px"
	 viewBox="0 0 410.34 5067" style="enable-background:new 0 0 410.34 5067;" xml:space="preserve">
<g id="main_x5F_path">
	<polyline style="fill:none;stroke:#000000;stroke-width:2;stroke-miterlimit:10;" points="245,0 245,197 79,197 79,634.405 
		114,633.472 114,789 152,827.331 152,936 116,972.18 116,1032 238.17,1154.102 200.043,1193 2.34,1193 98.9,1294 188,1294 
		188,1395.333 211,1394.667 211,1432 188,1432.211 188,1526 162.379,1557.333 219,1556.962 219,1639 317,1736.521 317,1823 
		329,1823 329,1883 310,1901.689 310,1919 212,2017.474 212,2144 227,2159.431 227,2255 212,2255 212,2372 220,2372 220,2457 
		199,2477.583 199,2495 244.318,2540 289,2540 289,2611 391.84,2611 391.926,2648.224 409,2648 409,2666 338.34,2666 305.09,2699 
		214.34,2699 118,2793.669 118,2922 147,2922 147,2970 245,3068.228 245,5067 	"/>
</g>
<g id="Layer_1">
</g>
</svg>
