<?xml version="1.0" encoding="iso-8859-1"?>
<!-- Generator: Adobe Illustrator 18.1.0, SVG Export Plug-In . SVG Version: 6.00 Build 0)  -->
<!DOCTYPE svg PUBLIC "-//W3C//DTD SVG 1.1//EN" "http://www.w3.org/Graphics/SVG/1.1/DTD/svg11.dtd">
<svg version="1.1" xmlns="http://www.w3.org/2000/svg" xmlns:xlink="http://www.w3.org/1999/xlink" x="0px" y="0px"
	 viewBox="0 0 258.152 250.148" style="enable-background:new 0 0 258.152 250.148;" xml:space="preserve">
<g id="man_x5F_compter">
	<path d="M169.082,16.643c-0.101,0.608-0.101,1.5-0.101,2.797v62.407c0,0.993,0.101,1.905,0.203,2.797
		c0,0.203,5.391,0.405,16.114,0.608c5.391,0.101,10.905,0.203,16.6,0.304l3.101,0.101c0.304,0,0.608-0.101,0.892-0.405
		c0.304-0.304,0.405-0.608,0.405-0.79l0.203-9.506c0-0.608,0.101-1.196,0.304-1.804c0.203-0.507,0.608-0.709,1.196-0.709
		c0.405,0,0.79,0.101,0.993,0.203c0.405,0.203,0.608,0.405,0.608,0.608c0,0.203,0.101,0.507,0.203,0.892L209.7,89.752v0.405
		c0,0.304-0.203,0.608-0.405,0.892c-0.304,0.203-0.507,0.405-0.892,0.405c-2.392,0.101-3.608,0.203-3.608,0.203h-17.107
		c-1.601,0.101-2.797,0.203-3.709,0.203l-1.095,3.101c-0.507,0.304-0.79,0.405-0.892,0.405l-7.905,0.101
		c-0.608-1.601-1.5-3.202-2.493-4.905c-1.297-2.209-2.311-4.601-3-7.195c-0.203-0.79-0.892-2.696-2.108-5.493
		c-0.507-1.095-1.399-2.108-2.797-2.898c-2.007-1.297-4.398-2.007-7.398-2.209c-3.202-0.203-5.797,0.405-8.006,1.804
		c-2.594,1.703-4.196,2.797-4.804,3.202c-1.703,1.297-3,2.594-3.993,3.993c-0.304,0.507-1.095,1.297-2.392,2.493
		c-4.297,4.094-6.912,6.608-7.803,7.499c-0.709,0.709-1.399,1.196-2.007,1.5c-1.399,0.79-2.898,1.905-4.297,3.405h-2.311
		c-3.506-0.101-6.608-0.892-9.202-2.392c-0.507-0.304-1.905-0.892-3.993-1.804l-4.905-6.81c-4.196-5.797-7.398-10.094-9.506-13.013
		c-1.399-1.804-1.905-3.811-1.399-5.898l1.297-5.594c0.203-0.608,0.304-1.095,0.304-1.399c-0.101-1.196-0.304-2.209-0.709-2.797
		c-0.507-0.709-1.399-1.196-2.696-1.399l-6.81-1.601c-2.209-0.507-3.506-1.703-3.993-3.506c-0.203-0.79-1.095-3.993-2.797-9.303
		l-0.993-2.797c0-0.101-0.304-0.608-0.79-1.5c-0.304-0.608-0.405-1.196-0.304-1.703c0.101-0.608,0.608-0.993,1.196-1.196
		c0.79-0.203,1.399-0.507,1.703-0.709c0.405-0.203,0.709-0.507,0.79-0.892c0.203-0.405,0.203-0.79,0-1.095l-2.392-4.905
		c-0.507-1.196-0.608-2.108-0.101-2.797c0.892-1.5,1.095-3.304,0.507-5.696c-0.709-2.696-1.601-5.493-2.898-8.31
		c-1.399-3-3.811-5.108-7.094-6.202c-4.196-1.399-7.499-2.392-9.81-2.898c-5.493-1.196-10.398,0-14.512,3.608
		c-2.493,2.108-4.601,5.006-6.506,8.797c-0.892,1.804-1.095,3.709-0.709,5.696c0.405,1.601,1.095,5.31,2.209,11.006
		c0.203,0.892,0.304,2.007,0.405,3.304c0,0.405-0.101,0.79-0.203,1.399c-0.203,0.608-0.608,1.095-0.993,1.399
		c-0.507,0.304-1.095,0.304-1.804,0c-2.594-1.095-5.391-1.399-8.493-0.892c-1.703,0.304-3.993,0.608-6.993,0.993
		c-3.202,0.507-5.594,0.79-7.195,0.892c-2.797,0.304-5.209,0.405-7.297,0.304c-0.203,0-0.709,0-1.601,0.101
		c-0.608,0.101-1.095,0.304-1.601,0.79C0.284,38.351,0,38.837,0,39.344c0.101,1.703,0.203,3,0.405,3.811
		c0.304,1.196,0.79,2.898,1.601,5.108c1.905,5.31,2.797,10.499,2.594,15.708c0,2.108-0.101,5.391-0.101,9.709
		c0,2.898,0.507,5.898,1.703,9.101l2.209,5.391c5.696,12.81,9.911,22.397,12.709,28.802c0.608,1.399,2.007,5.108,4.297,10.905
		c0.892,2.311,1.297,4.702,1.196,7.094c-0.101,1.905-0.203,4.804-0.203,8.695c-0.101,3.405-0.304,6.304-0.608,8.695
		c-0.304,3.811-0.709,9.405-1.095,16.904c-0.101,1.196-0.101,2.696,0.101,4.398c0,0.608,0.101,1.297,0.405,1.905
		c0.507,1.095,1.5,1.804,2.898,2.007c1.196,0.203,2.108-0.203,2.797-1.095c0.993-1.5,1.804-2.594,2.311-3.202
		c0.507-0.608,1.095-0.79,1.905-0.79c2.493,0.304,6.81,0.405,13.013,0.507l10.905,0.101c1.095,0,2.209,0.101,3.202,0.304
		c0.79,0.203,1.399,0.608,1.804,1.399c0.405,0.79,0.405,1.399-0.101,2.007c-0.892,1.297-2.311,3.202-4.196,5.696
		c-0.608,0.892-1.601,2.311-2.797,4.094c-1.095,1.601-2.108,2.898-3.101,3.892c-0.709,0.709-1.905,2.311-3.608,4.905
		c-0.892,1.297-2.209,2.007-4.094,2.007c-1.703,0.101-3,0.101-3.811,0.101c-2.311,0-5.31,0.304-9.101,0.993
		c-6.608,1.196-11.411,4.297-14.31,9.506c-0.101,0.203-0.203,0.405-0.101,0.405c0.304,0.405,0.608,0.608,0.79,0.608
		c0.101,0,0.304,0,0.709-0.203c0,0.203-0.101,0.405-0.101,0.709c-0.101,0.304-0.203,0.507-0.304,0.507
		c-1.703,1.095-2.898,2.594-3.405,4.297c-0.405,1.399-0.507,3.101-0.203,5.108c0.203,1.196,1.095,2.007,2.493,2.392
		c2.898,0.79,5.594,0.608,7.905-0.405l0.203-3c0.507-3.101-0.405-6.304-2.392-9.607c-0.405-0.608-0.608-1.196-0.405-1.905
		c0.101-0.608,0.507-1.095,1.196-1.5c1.399-0.892,2.493-1.399,3.202-1.703c2.594-0.892,4.702-1.399,6.304-1.399
		c0.892,0,2.209,0,3.993-0.101c1.601,0,2.898,0.101,4.094,0.203c3.811,0.405,8.31,0.608,13.499,0.608l5.391,0.101
		c2.696,0.101,4.601,0.101,5.391,0c0.608,0,1.399,0.101,2.594,0.405c1.095,0.304,2.007,0.304,2.594,0.203
		c0.405,0.608,0.405,1.196,0.101,1.804c-0.709,1.095-1.804,2.392-3.405,3.709c-1.5,1.095-3.405,3-5.797,5.493
		c-2.392,2.594-4.297,4.398-5.594,5.493l-0.405,0.405c-3.608,4.601-4.804,9.709-3.811,15.202c0,0.203,0.203,0.507,0.405,0.892
		c0.101,0.203,0.304,0.405,0.507,0.892c-0.101,0.101-0.304,0.203-0.608,0.405c-0.304,0.203-0.405,0.304-0.405,0.507
		c-0.608,1.804-0.507,3.608,0.507,5.209c0.892,1.5,2.108,2.898,3.405,4.297c1.399,1.5,2.696,2.209,3.892,2.108
		c1.095,0,2.311-0.709,3.811-1.905c0.304-0.304,0.709-0.79,1.196-1.601c0.507-0.993,0.892-1.703,1.196-2.108
		c0.709-1.095,0.892-2.493,0.608-4.196c-0.405-1.905-1.601-3.304-3.608-3.993l-2.108-0.507c-0.304-0.101-0.608-0.405-0.79-0.709
		c-0.203-0.304-0.304-0.608-0.203-0.892c0.892-4.398,2.797-8.797,5.594-13.013c3.405-5.108,6.993-9.709,11.006-13.803
		c2.392-0.101,3.892-0.101,4.398-0.203c0.608,0,1.5-0.203,2.594-0.507c1.196-0.304,1.905-0.993,2.209-1.905
		c0.101-0.405,0.405-0.608,0.709-0.79c0.304-0.203,0.608-0.203,0.993-0.101c2.007,0.507,4.905,1.297,8.797,2.392
		c8.412,2.493,15.81,5.493,22.215,8.999c3,1.703,5.209,3.405,6.506,5.108c0.79,0.993,1.601,1.601,2.392,1.703
		c-2.108,1.297-3.101,3-3,5.209c0.101,0.709,0.203,1.804,0.304,3.304c0.203,1.399,1.095,2.311,2.797,2.696
		c1.703,0.507,3.304,0.709,4.804,0.507c1.297-0.101,2.108-0.608,2.493-1.5c1.399-3.507,1.095-6.608-0.79-9.202
		c-0.304-0.405-0.709-0.993-1.095-1.601c-0.405-0.79-0.709-1.399-0.892-1.804c-0.892-1.5-1.5-2.696-2.007-3.507
		c-0.79-1.095-1.601-1.804-2.392-1.905c-0.709-0.101-1.601-0.608-2.594-1.196c-1.095-0.79-1.905-1.196-2.493-1.399
		c-0.79-0.203-1.804-0.709-2.898-1.196c-1.601-0.79-2.493-1.297-2.898-1.399c-6-2.493-11.513-4.5-16.701-5.797
		c-1.196-0.304-4.196-1.196-9.202-2.797c-0.405-0.101-0.608-0.203-0.608-0.203c-0.203-0.101-0.304-0.304-0.203-0.507l0.507-0.304
		l22.802-7.803c1.905-0.608,3.709-1.095,5.209-1.399c1.804-0.405,3.101,0.304,3.892,2.007c-2.108,0.892-3.304,1.399-3.405,1.5
		c-1.399,0.709-2.209,1.399-2.493,1.905c-0.405,0.709-0.405,1.804-0.101,3.202c0.203,0.79,0.608,2.007,1.399,3.608
		c0.101,0.304,0.608,0.507,1.297,0.79c1.297,0.304,2.696,0.304,4.297-0.101c0.507-0.203,1.095-0.507,1.804-0.993
		c0.304-0.608,0.608-0.993,0.892-1.196c1.703-2.108,2.209-4.5,1.5-7.398c-0.79-2.696-2.392-4.5-4.905-5.391
		c-0.101,0-0.203,0-0.405,0c-0.203,0.101-0.405,0.203-0.507,0.203h-1.5c-0.101,0-0.405-0.101-0.79-0.203
		c0.101,0,0.203-0.101,0.304-0.203l0.507,0.101l1.5,0.304c-0.79-0.79-1.703-1.297-2.797-1.297c-0.79-0.101-1.804,0.101-3.101,0.405
		c-0.507,0.507-1.196,0.892-2.108,1.095c-1.095,0.101-1.905,0.203-2.392,0.304c-2.007,0.405-3.811,0.709-5.31,1.095
		c-0.993,0.304-3.709,0.892-8.31,2.007c-3.405,0.79-6.202,1.601-8.31,2.311l-0.507,0.101c-0.304,0.101-0.709,0-0.993-0.101
		c-0.304-0.203-0.507-0.507-0.608-0.79l-1.196-14.512v-0.507c0-0.304,0.101-0.608,0.405-0.79c0.304-0.203,0.608-0.405,0.993-0.507
		c0.993-0.203,1.601,0,1.905,0.608l1.095,2.797c0.304,0.993,1.095,1.5,2.392,1.703c2.898,0.405,5.493,0,7.803-1.399
		c0.993-0.608,1.5-1.399,1.5-2.392c-0.101-0.892-0.203-1.5-0.203-1.905c-0.101-1.399,0.709-2.108,2.311-2.007
		c2.392,0.101,4.5,0.304,6.506,0.507c4.094,0.507,7.803,0.507,10.905,0.101c4.398-0.507,8.006-2.209,10.905-5.006
		c2.594-2.696,4.297-4.905,5.108-6.81c0.203-0.304,0.405-0.79,0.79-1.297c0.507-0.79,1.196-1.196,2.108-1.095l2.696,0.507
		c2.696,0.405,4.905,0.304,6.405-0.203c0.304-0.101,0.709,0,0.993,0.203c0.405,0.203,0.608,0.507,0.608,0.79l0.507,28.011
		c0,3.304,0.101,5.594,0.203,6.81c0.304,2.392,0.507,5.898,0.608,10.601c0.304,3.202-0.203,7.195-1.5,11.999
		c-0.203,0.892-0.608,2.311-1.095,4.196c-0.709,2.898-1.095,5.108-1.399,6.608c-0.203,1.196,0.304,2.108,1.601,2.898
		c0.709,0.405,1.196,0.608,1.399,0.709c4.094,1.297,6.709,2.108,7.702,2.392c2.898,0.79,5.594,1.297,8.006,1.399
		c1.601,0.101,3,0.507,4.094,1.095l3.892,1.804c3,1.399,5.898,2.392,8.594,2.898c6.993,1.297,14.208,1.804,21.606,1.196
		c0.892,0,1.905-0.304,3.101-0.709c0.709-0.203,1.095-0.507,1.196-0.892c0.709-1.601,1.095-2.594,1.196-2.898
		c0.405-1.095,0.507-2.108,0.203-3.101v-0.101c4.094-0.101,8.898,0,14.512,0.101c3.202,0.101,8.006,0.203,14.411,0.405l5.696,0.101
		c0.993,0,1.601-0.203,2.007-0.507c0.405-0.304,0.608-0.79,0.709-1.601v-1.804c0.203-2.392-0.304-5.006-1.399-7.702
		c-13.904-35.105-24.302-61.516-31.315-79.028c-0.507-1.196-1.297-3.101-2.392-5.594c-4.398-9.992-2.898-19.296,4.398-27.809
		c3-3.405,6.81-6.202,11.513-8.412l5.493-2.594c5.696-2.797,11.695-4.094,17.897-3.811c0.993,0.101,2.108,0.101,3.101,0
		c0.304,0,0.507-0.203,0.709-0.608c0.304-0.79,0.203-1.601,0-2.209c-0.203-0.304-0.405-0.507-0.709-0.608
		c-1.095-0.203-2.108-0.304-3-0.203h-25.903c-1.095,0-1.703-0.203-2.007-0.405c-0.304-0.203-0.608-0.892-0.79-2.108l-0.304-1.095
		c-1.095-0.203-1.905-0.304-2.493-0.304c2.898,0,3.608-0.101,2.108-0.101c-0.507,0-0.892-0.203-1.095-0.405
		c-0.304-0.304-0.507-0.608-0.507-0.892l-0.101-13.803c0-1.703,0-3,0-3.892c0.101-1.5,0.304-2.797,0.608-3.892
		c0-0.101,0.101-0.405,0.101-0.892c0-0.405-1.601-0.79-5.006-1.297c-2.594-0.405-4.5-0.608-5.797-0.709
		c-1.095,0-2.007-0.101-2.493-0.101l-1.601-0.203c-0.304,0-0.608-0.203-0.892-0.405c-0.304-0.304-0.507-0.507-0.507-0.79
		c-0.101-1.399-0.203-2.493-0.203-3.202l-0.101-42.22c0-0.304-0.101-0.79-0.304-1.297c-0.101-0.405-0.405-0.79-0.79-1.095
		c-0.405-0.304-0.892-0.507-1.399-0.608c-0.507,0-11.695,0-33.808,0.101C169.487,15.731,169.082,16.035,169.082,16.643
		 M186.189,133.958c-2.696-2.493-5.209-4.297-7.601-5.391c-1.297-0.608-2.311-1.196-3-2.007c-0.709-0.709-1.5-0.892-2.493-0.608
		c-1.297,0.507-3.101,0.608-5.391,0.304c-0.304,0-0.507-0.101-0.79-0.405c-0.304-0.203-0.405-0.405-0.405-0.608
		c0.203-0.608,0.405-0.993,0.709-1.196c1.095-0.993,2.392-1.5,3.892-1.399c0.892,0.101,1.804,0.101,2.696,0.101
		c2.797,0,5.391-0.79,7.803-2.311l4.601,13.6L186.189,133.958 M191.58,163.571c-0.101-0.892,0.101-1.703,0.608-2.392l3.101-0.892
		l23.208,68.326c0.101,0.101,0.203,0.79,0.304,1.905c-1.5,0.203-3.405,0.304-5.493,0.203c-2.392,0-4.196,0-5.391,0
		c-0.79-0.507-1.703-0.892-2.797-1.196l-1.5-0.507l-8.31-3.608c-1.601-0.608-2.594-1.5-3.202-2.493
		c-0.507-0.993-1.703-2.007-3.405-3c-1.297-0.709-2.898-1.703-4.905-3c-0.608-0.405-0.79-0.79-0.507-1.196
		c0.203-0.304,0.405-0.507,0.709-0.608c0.203-0.101,1.095-0.405,2.594-0.79c2.696-0.79,5.493-2.311,8.209-4.601
		c1.095-0.892,1.601-2.108,1.5-3.405l-0.709-6.81c-0.79-6-1.399-10.499-1.703-13.499c-0.507-4.5-1.095-11.31-1.905-20.208
		C191.682,164.868,191.58,164.078,191.58,163.571 M72.866,182.482c0,0.203-0.203,0.405-0.405,0.405c-0.304,0.101-0.507,0.101-0.79,0
		l-1.5-0.608c-0.304-0.101-1.196-0.101-2.696-0.203c-0.101,0-0.203,0-0.304,0.101c-0.101,0.101-0.203,0.101-0.203,0.101
		c0.101,0.405,0.203,0.608,0.405,0.709c1.703,0.892,2.797,1.5,3.202,1.703c0.993,0.304,1.703,0.892,2.108,1.5
		c0.304,0.507,0.405,1.297,0.304,2.311v0.507c-0.203,0.507-0.405,1.196-0.507,2.108c0,0.507-0.101,1.297-0.203,2.392l-1.399-1.601
		c-2.898-3.608-4.601-5.594-5.108-6.202c-0.304-0.304-0.709-0.507-1.297-0.79c-0.101,0-0.304,0-0.507,0.101
		c-0.203,0.101-0.405,0.101-0.405,0.203c-0.709,2.797-0.507,5.31,0.405,7.499c0.203,0.405,0.608,0.892,1.196,1.601
		c0.203,0.304,0.405,0.709,0.608,1.297c0.203,0.405,0,0.608-0.405,0.79c-0.507,0.203-0.79,0.304-0.993,0.304
		c-2.311,0.101-5.696,0.203-10.195,0.203c-0.101,0-0.101-0.101-0.203-0.203c-0.101-0.203-0.203-0.405-0.203-0.507
		c0-0.304,0.101-0.507,0.405-0.79c1.196-1.804,2.007-2.898,2.209-3.304c0.79-1.297,1.297-2.493,1.5-3.608
		c2.311-3.993,4.196-6.912,5.696-8.695c1.399-1.703,2.392-2.594,2.898-2.594c0.507-0.101,1.804,0.608,3.811,1.905
		c0.507,0.304,1.399,1.095,2.594,2.392C72.866,181.57,72.866,181.874,72.866,182.482 M59.246,237.39l0.709,0.203l-0.709,0.101
		V237.39 M130.47,225.087c-0.304,0-0.608-0.101-0.608-0.101c-0.892-0.79-1.196-1.905-0.892-3c0.304,0.79,0.405,1.196,0.507,1.297
		c0.203,0.203,0.892,0.892,2.209,2.007C131.463,225.188,131.078,225.188,130.47,225.087z"/>
</g>
<g id="Layer_1">
</g>
</svg>
