<?xml version="1.0" encoding="utf-8"?>
<!-- Generator: Adobe Illustrator 18.1.0, SVG Export Plug-In . SVG Version: 6.00 Build 0)  -->
<svg version="1.1" id="Layer_1" xmlns="http://www.w3.org/2000/svg" xmlns:xlink="http://www.w3.org/1999/xlink" x="0px" y="0px"
	 width="271px" height="262.6px" viewBox="0 44.7 271 262.6" enable-background="new 0 44.7 271 262.6" xml:space="preserve">
<g id="man_x5F_compter">
	<path d="M177.5,62.2c-0.1,0.6-0.1,1.6-0.1,2.9v65.5c0,1,0.1,2,0.2,2.9c0,0.2,5.7,0.4,16.9,0.6c5.7,0.1,11.4,0.2,17.4,0.3l3.3,0.1
		c0.3,0,0.6-0.1,0.9-0.4c0.3-0.3,0.4-0.6,0.4-0.8l0.2-10c0-0.6,0.1-1.3,0.3-1.9c0.2-0.5,0.6-0.7,1.3-0.7c0.4,0,0.8,0.1,1,0.2
		c0.4,0.2,0.6,0.4,0.6,0.6c0,0.2,0.1,0.5,0.2,0.9l-0.1,16.4v0.4c0,0.3-0.2,0.6-0.4,0.9c-0.3,0.2-0.5,0.4-0.9,0.4
		c-2.5,0.1-3.8,0.2-3.8,0.2h-18c-1.7,0.1-2.9,0.2-3.9,0.2l-1.1,3.3c-0.5,0.3-0.8,0.4-0.9,0.4l-8.3,0.1c-0.6-1.7-1.6-3.4-2.6-5.1
		c-1.4-2.3-2.4-4.8-3.1-7.6c-0.2-0.8-0.9-2.8-2.2-5.8c-0.5-1.1-1.5-2.2-2.9-3c-2.1-1.4-4.6-2.1-7.8-2.3c-3.4-0.2-6.1,0.4-8.4,1.9
		c-2.7,1.8-4.4,2.9-5,3.4c-1.8,1.4-3.1,2.7-4.2,4.2c-0.3,0.5-1.1,1.4-2.5,2.6c-4.5,4.3-7.3,6.9-8.2,7.9c-0.7,0.7-1.5,1.3-2.1,1.6
		c-1.5,0.8-3,2-4.5,3.6h-2.4c-3.7-0.1-6.9-0.9-9.7-2.5c-0.5-0.3-2-0.9-4.2-1.9l-5.1-7.1c-4.4-6.1-7.8-10.6-10-13.7
		c-1.5-1.9-2-4-1.5-6.2l1.4-5.9c0.2-0.6,0.3-1.1,0.3-1.5c-0.1-1.3-0.3-2.3-0.7-2.9c-0.5-0.7-1.5-1.3-2.8-1.5l-7.1-1.7
		c-2.3-0.5-3.7-1.8-4.2-3.7c-0.2-0.8-1.1-4.2-2.9-9.8L79,85c0-0.1-0.3-0.6-0.8-1.6c-0.3-0.6-0.4-1.3-0.3-1.8c0.1-0.6,0.6-1,1.3-1.3
		c0.8-0.2,1.5-0.5,1.8-0.7c0.4-0.2,0.7-0.5,0.8-0.9c0.2-0.4,0.2-0.8,0-1.1l-2.5-5.1c-0.5-1.3-0.6-2.2-0.1-2.9c0.9-1.6,1.1-3.5,0.5-6
		c-0.7-2.8-1.7-5.8-3-8.7c-1.5-3.1-4-5.4-7.4-6.5c-4.4-1.5-7.9-2.5-10.3-3c-5.8-1.3-10.9,0-15.2,3.8c-2.6,2.2-4.8,5.3-6.8,9.2
		c-0.9,1.9-1.1,3.9-0.7,6c0.4,1.7,1.1,5.6,2.3,11.6c0.2,0.9,0.3,2.1,0.4,3.5c0,0.4-0.1,0.8-0.2,1.5c-0.2,0.6-0.6,1.1-1,1.5
		c-0.5,0.3-1.1,0.3-1.9,0c-2.7-1.1-5.7-1.5-8.9-0.9c-1.8,0.3-4.2,0.6-7.3,1c-3.4,0.5-5.9,0.8-7.6,0.9c-2.9,0.3-5.5,0.4-7.7,0.3
		c-0.2,0-0.7,0-1.7,0.1c-0.6,0.1-1.1,0.3-1.7,0.8C0.3,85,0,85.5,0,86c0.1,1.8,0.2,3.1,0.4,4c0.3,1.3,0.8,3,1.7,5.4
		c2,5.6,2.9,11,2.7,16.5c0,2.2-0.1,5.7-0.1,10.2c0,3,0.5,6.2,1.8,9.6l2.3,5.7c6,13.4,10.4,23.5,13.3,30.2c0.6,1.5,2.1,5.4,4.5,11.4
		c0.9,2.4,1.4,4.9,1.3,7.4c-0.1,2-0.2,5-0.2,9.1c-0.1,3.6-0.3,6.6-0.6,9.1c-0.3,4-0.7,9.9-1.1,17.7c-0.1,1.3-0.1,2.8,0.1,4.6
		c0,0.6,0.1,1.4,0.4,2c0.5,1.1,1.6,1.9,3,2.1c1.3,0.2,2.2-0.2,2.9-1.1c1-1.6,1.9-2.7,2.4-3.4s1.1-0.8,2-0.8
		c2.6,0.3,7.1,0.4,13.7,0.5l11.4,0.1c1.1,0,2.3,0.1,3.4,0.3c0.8,0.2,1.5,0.6,1.9,1.5c0.4,0.8,0.4,1.5-0.1,2.1
		c-0.9,1.4-2.4,3.4-4.4,6c-0.6,0.9-1.7,2.4-2.9,4.3c-1.1,1.7-2.2,3-3.3,4.1c-0.7,0.7-2,2.4-3.8,5.1c-0.9,1.4-2.3,2.1-4.3,2.1
		c-1.8,0.1-3.1,0.1-4,0.1c-2.4,0-5.6,0.3-9.6,1c-6.9,1.3-12,4.5-15,10c-0.1,0.2-0.2,0.4-0.1,0.4c0.3,0.4,0.6,0.6,0.8,0.6
		c0.1,0,0.3,0,0.7-0.2c0,0.2-0.1,0.4-0.1,0.7c-0.1,0.3-0.2,0.5-0.3,0.5c-1.8,1.1-3,2.7-3.6,4.5c-0.4,1.5-0.5,3.3-0.2,5.4
		c0.2,1.3,1.1,2.1,2.6,2.5c3,0.8,5.9,0.6,8.3-0.4l0.2-3.1c0.5-3.3-0.4-6.6-2.5-10.1c-0.4-0.6-0.6-1.3-0.4-2c0.1-0.6,0.5-1.1,1.3-1.6
		c1.5-0.9,2.6-1.5,3.4-1.8c2.7-0.9,4.9-1.5,6.6-1.5c0.9,0,2.3,0,4.2-0.1c1.7,0,3,0.1,4.3,0.2c4,0.4,8.7,0.6,14.2,0.6l5.7,0.1
		c2.8,0.1,4.8,0.1,5.7,0c0.6,0,1.5,0.1,2.7,0.4c1.1,0.3,2.1,0.3,2.7,0.2c0.4,0.6,0.4,1.3,0.1,1.9c-0.7,1.1-1.9,2.5-3.6,3.9
		c-1.6,1.1-3.6,3.1-6.1,5.8c-2.5,2.7-4.5,4.6-5.9,5.8l-0.4,0.4c-3.8,4.8-5,10.2-4,16c0,0.2,0.2,0.5,0.4,0.9c0.1,0.2,0.3,0.4,0.5,0.9
		c-0.1,0.1-0.3,0.2-0.6,0.4c-0.3,0.2-0.4,0.3-0.4,0.5c-0.6,1.9-0.5,3.8,0.5,5.5c0.9,1.6,2.2,3,3.6,4.5c1.5,1.6,2.8,2.3,4.1,2.2
		c1.1,0,2.4-0.7,4-2c0.3-0.3,0.7-0.8,1.3-1.7c0.5-1,0.9-1.8,1.3-2.2c0.7-1.1,0.9-2.6,0.6-4.4c-0.4-2-1.7-3.5-3.8-4.2l-2.2-0.5
		c-0.3-0.1-0.6-0.4-0.8-0.7c-0.2-0.3-0.3-0.6-0.2-0.9c0.9-4.6,2.9-9.2,5.9-13.7c3.6-5.4,7.3-10.2,11.6-14.5c2.5-0.1,4.1-0.1,4.6-0.2
		c0.6,0,1.6-0.2,2.7-0.5c1.3-0.3,2-1,2.3-2c0.1-0.4,0.4-0.6,0.7-0.8c0.3-0.2,0.6-0.2,1-0.1c2.1,0.5,5.1,1.4,9.2,2.5
		c8.8,2.6,16.6,5.8,23.3,9.4c3.1,1.8,5.5,3.6,6.8,5.4c0.8,1,1.7,1.7,2.5,1.8c-2.2,1.4-3.3,3.1-3.1,5.5c0.1,0.7,0.2,1.9,0.3,3.5
		c0.2,1.5,1.1,2.4,2.9,2.8c1.8,0.5,3.5,0.7,5,0.5c1.4-0.1,2.2-0.6,2.6-1.6c1.5-3.7,1.1-6.9-0.8-9.7c-0.3-0.4-0.7-1-1.1-1.7
		c-0.4-0.8-0.7-1.5-0.9-1.9c-0.9-1.6-1.6-2.8-2.1-3.7c-0.8-1.1-1.7-1.9-2.5-2c-0.7-0.1-1.7-0.6-2.7-1.3c-1.1-0.8-2-1.3-2.6-1.5
		c-0.8-0.2-1.9-0.7-3-1.3c-1.7-0.8-2.6-1.4-3-1.5c-6.3-2.6-12.1-4.7-17.5-6.1c-1.3-0.3-4.4-1.3-9.7-2.9c-0.4-0.1-0.6-0.2-0.6-0.2
		c-0.2-0.1-0.3-0.3-0.2-0.5l0.5-0.3l23.9-8.2c2-0.6,3.9-1.1,5.5-1.5c1.9-0.4,3.3,0.3,4.1,2.1c-2.2,0.9-3.5,1.5-3.6,1.6
		c-1.5,0.7-2.3,1.5-2.6,2c-0.4,0.7-0.4,1.9-0.1,3.4c0.2,0.8,0.6,2.1,1.5,3.8c0.1,0.3,0.6,0.5,1.4,0.8c1.4,0.3,2.8,0.3,4.5-0.1
		c0.5-0.2,1.1-0.5,1.9-1c0.3-0.6,0.6-1,0.9-1.3c1.8-2.2,2.3-4.7,1.6-7.8c-0.8-2.8-2.5-4.7-5.1-5.7c-0.1,0-0.2,0-0.4,0
		c-0.2,0.1-0.4,0.2-0.5,0.2h-1.6c-0.1,0-0.4-0.1-0.8-0.2c0.1,0,0.2-0.1,0.3-0.2l0.5,0.1l1.6,0.3c-0.8-0.8-1.8-1.4-2.9-1.4
		c-0.8-0.1-1.9,0.1-3.3,0.4c-0.5,0.5-1.3,0.9-2.2,1.1c-1.1,0.1-2,0.2-2.5,0.3c-2.1,0.4-4,0.7-5.6,1.1c-1,0.3-3.9,0.9-8.7,2.1
		c-3.6,0.8-6.5,1.7-8.7,2.4l-0.5,0.1c-0.3,0.1-0.7,0-1-0.1c-0.3-0.2-0.5-0.5-0.6-0.8l-1.3-15.2v-0.5c0-0.3,0.1-0.6,0.4-0.8
		c0.3-0.2,0.6-0.4,1-0.5c1-0.2,1.7,0,2,0.6l1.1,2.9c0.3,1,1.1,1.6,2.5,1.8c3,0.4,5.8,0,8.2-1.5c1-0.6,1.6-1.5,1.6-2.5
		c-0.1-0.9-0.2-1.6-0.2-2c-0.1-1.5,0.7-2.2,2.4-2.1c2.5,0.1,4.7,0.3,6.8,0.5c4.3,0.5,8.2,0.5,11.4,0.1c4.6-0.5,8.4-2.3,11.4-5.3
		c2.7-2.8,4.5-5.1,5.4-7.1c0.2-0.3,0.4-0.8,0.8-1.4c0.5-0.8,1.3-1.3,2.2-1.1l2.8,0.5c2.8,0.4,5.1,0.3,6.7-0.2c0.3-0.1,0.7,0,1,0.2
		c0.4,0.2,0.6,0.5,0.6,0.8l0.5,29.4c0,3.5,0.1,5.9,0.2,7.1c0.3,2.5,0.5,6.2,0.6,11.1c0.3,3.4-0.2,7.6-1.6,12.6
		c-0.2,0.9-0.6,2.4-1.1,4.4c-0.7,3-1.1,5.4-1.5,6.9c-0.2,1.3,0.3,2.2,1.7,3c0.7,0.4,1.3,0.6,1.5,0.7c4.3,1.4,7,2.2,8.1,2.5
		c3,0.8,5.9,1.4,8.4,1.5c1.7,0.1,3.1,0.5,4.3,1.1l4.1,1.9c3.1,1.5,6.2,2.5,9,3c7.3,1.4,14.9,1.9,22.7,1.3c0.9,0,2-0.3,3.3-0.7
		c0.7-0.2,1.1-0.5,1.3-0.9c0.7-1.7,1.1-2.7,1.3-3c0.4-1.1,0.5-2.2,0.2-3.3v-0.1c4.3-0.1,9.3,0,15.2,0.1c3.4,0.1,8.4,0.2,15.1,0.4
		l6,0.1c1,0,1.7-0.2,2.1-0.5c0.4-0.3,0.6-0.8,0.7-1.7v-1.9c0.2-2.5-0.3-5.3-1.5-8.1c-14.6-36.9-25.5-64.6-32.9-83
		c-0.5-1.3-1.4-3.3-2.5-5.9c-4.6-10.5-3-20.3,4.6-29.2c3.1-3.6,7.1-6.5,12.1-8.8l5.8-2.7c6-2.9,12.3-4.3,18.8-4c1,0.1,2.2,0.1,3.3,0
		c0.3,0,0.5-0.2,0.7-0.6c0.3-0.8,0.2-1.7,0-2.3c-0.2-0.3-0.4-0.5-0.7-0.6c-1.1-0.2-2.2-0.3-3.1-0.2h-27.2c-1.1,0-1.8-0.2-2.1-0.4
		c-0.3-0.2-0.6-0.9-0.8-2.2l-0.3-1.1c-1.1-0.2-2-0.3-2.6-0.3c3,0,3.8-0.1,2.2-0.1c-0.5,0-0.9-0.2-1.1-0.4c-0.3-0.3-0.5-0.6-0.5-0.9
		l-0.1-14.5c0-1.8,0-3.1,0-4.1c0.1-1.6,0.3-2.9,0.6-4.1c0-0.1,0.1-0.4,0.1-0.9c0-0.4-1.7-0.8-5.3-1.4c-2.7-0.4-4.7-0.6-6.1-0.7
		c-1.1,0-2.1-0.1-2.6-0.1l-1.7-0.2c-0.3,0-0.6-0.2-0.9-0.4c-0.3-0.3-0.5-0.5-0.5-0.8c-0.1-1.5-0.2-2.6-0.2-3.4l-0.1-44.3
		c0-0.3-0.1-0.8-0.3-1.4c-0.1-0.4-0.4-0.8-0.8-1.1c-0.4-0.3-0.9-0.5-1.5-0.6c-0.5,0-12.3,0-35.5,0.1
		C177.9,61.2,177.5,61.5,177.5,62.2 M195.5,185.3c-2.8-2.6-5.5-4.5-8-5.7c-1.4-0.6-2.4-1.3-3.1-2.1c-0.7-0.7-1.6-0.9-2.6-0.6
		c-1.4,0.5-3.3,0.6-5.7,0.3c-0.3,0-0.5-0.1-0.8-0.4c-0.3-0.2-0.4-0.4-0.4-0.6c0.2-0.6,0.4-1,0.7-1.3c1.1-1,2.5-1.6,4.1-1.5
		c0.9,0.1,1.9,0.1,2.8,0.1c2.9,0,5.7-0.8,8.2-2.4L195.5,185.3L195.5,185.3 M201.1,216.4c-0.1-0.9,0.1-1.8,0.6-2.5l3.3-0.9l24.4,71.7
		c0.1,0.1,0.2,0.8,0.3,2c-1.6,0.2-3.6,0.3-5.8,0.2c-2.5,0-4.4,0-5.7,0c-0.8-0.5-1.8-0.9-2.9-1.3l-1.6-0.5l-8.7-3.8
		c-1.7-0.6-2.7-1.6-3.4-2.6c-0.5-1-1.8-2.1-3.6-3.1c-1.4-0.7-3-1.8-5.1-3.1c-0.6-0.4-0.8-0.8-0.5-1.3c0.2-0.3,0.4-0.5,0.7-0.6
		c0.2-0.1,1.1-0.4,2.7-0.8c2.8-0.8,5.8-2.4,8.6-4.8c1.1-0.9,1.7-2.2,1.6-3.6l-0.7-7.1c-0.8-6.3-1.5-11-1.8-14.2
		c-0.5-4.7-1.1-11.9-2-21.2C201.2,217.8,201.1,216.9,201.1,216.4 M76.5,236.3c0,0.2-0.2,0.4-0.4,0.4c-0.3,0.1-0.5,0.1-0.8,0
		l-1.6-0.6c-0.3-0.1-1.3-0.1-2.8-0.2c-0.1,0-0.2,0-0.3,0.1c-0.1,0.1-0.2,0.1-0.2,0.1c0.1,0.4,0.2,0.6,0.4,0.7
		c1.8,0.9,2.9,1.6,3.4,1.8c1,0.3,1.8,0.9,2.2,1.6c0.3,0.5,0.4,1.4,0.3,2.4v0.5c-0.2,0.5-0.4,1.3-0.5,2.2c0,0.5-0.1,1.4-0.2,2.5
		l-1.5-1.7c-3-3.8-4.8-5.9-5.4-6.5c-0.3-0.3-0.7-0.5-1.4-0.8c-0.1,0-0.3,0-0.5,0.1c-0.2,0.1-0.4,0.1-0.4,0.2
		c-0.7,2.9-0.5,5.6,0.4,7.9c0.2,0.4,0.6,0.9,1.3,1.7c0.2,0.3,0.4,0.7,0.6,1.4c0.2,0.4,0,0.6-0.4,0.8c-0.5,0.2-0.8,0.3-1,0.3
		c-2.4,0.1-6,0.2-10.7,0.2c-0.1,0-0.1-0.1-0.2-0.2c-0.1-0.2-0.2-0.4-0.2-0.5c0-0.3,0.1-0.5,0.4-0.8c1.3-1.9,2.1-3,2.3-3.5
		c0.8-1.4,1.4-2.6,1.6-3.8c2.4-4.2,4.4-7.3,6-9.1c1.5-1.8,2.5-2.7,3-2.7c0.5-0.1,1.9,0.6,4,2c0.5,0.3,1.5,1.1,2.7,2.5
		C76.5,235.3,76.5,235.6,76.5,236.3 M62.2,293.9l0.7,0.2l-0.7,0.1V293.9 M137,281c-0.3,0-0.6-0.1-0.6-0.1c-0.9-0.8-1.3-2-0.9-3.1
		c0.3,0.8,0.4,1.3,0.5,1.4c0.2,0.2,0.9,0.9,2.3,2.1C138,281.1,137.6,281.1,137,281z"/>
</g>
<g id="Layer_1_1_">
</g>
</svg>
