<svg version="1.1" xmlns="http://www.w3.org/2000/svg" id="Layer_1"  xmlns:xlink="http://www.w3.org/1999/xlink" x="0px" y="0px"
	 viewBox="0 0 56.8 55" enable-background="new 0 0 56.8 55" xml:space="preserve">
<g transform="matrix( 1, 0, 0, 1, -31,0) ">
	<g>
		<g id="Layer0_0_FILL">
			<path fill="#134268" d="M68.2,3.7c0,0.1,0,0.3,0,0.6V18c0,0.2,0,0.4,0,0.6c0,0,1.2,0.1,3.5,0.1c1.2,0,2.4,0,3.7,0.1l0.7,0
				c0.1,0,0.1,0,0.2-0.1c0.1-0.1,0.1-0.1,0.1-0.2l0-2.1c0-0.1,0-0.3,0.1-0.4c0-0.1,0.1-0.2,0.3-0.2c0.1,0,0.2,0,0.2,0
				c0.1,0,0.1,0.1,0.1,0.1s0,0.1,0,0.2l0,3.4v0.1c0,0.1,0,0.1-0.1,0.2c-0.1,0-0.1,0.1-0.2,0.1c-0.5,0-0.8,0-0.8,0h-3.8
				c-0.4,0-0.6,0-0.8,0l-0.2,0.7C71.1,20.9,71,21,71,21l-1.7,0c-0.1-0.4-0.3-0.7-0.5-1.1c-0.3-0.5-0.5-1-0.7-1.6
				c0-0.2-0.2-0.6-0.5-1.2c-0.1-0.2-0.3-0.5-0.6-0.6c-0.4-0.3-1-0.4-1.6-0.5c-0.7,0-1.3,0.1-1.8,0.4c-0.6,0.4-0.9,0.6-1.1,0.7
				c-0.4,0.3-0.7,0.6-0.9,0.9c-0.1,0.1-0.2,0.3-0.5,0.5c-0.9,0.9-1.5,1.5-1.7,1.6c-0.2,0.2-0.3,0.3-0.4,0.3
				c-0.3,0.2-0.6,0.4-0.9,0.7h-0.5c-0.8,0-1.5-0.2-2-0.5c-0.1-0.1-0.4-0.2-0.9-0.4l-1.1-1.5c-0.9-1.3-1.6-2.2-2.1-2.9
				c-0.3-0.4-0.4-0.8-0.3-1.3l0.3-1.2c0-0.1,0.1-0.2,0.1-0.3c0-0.3-0.1-0.5-0.2-0.6c-0.1-0.2-0.3-0.3-0.6-0.3l-1.5-0.4
				c-0.5-0.1-0.8-0.4-0.9-0.8c0-0.2-0.2-0.9-0.6-2l-0.2-0.6c0,0-0.1-0.1-0.2-0.3c-0.1-0.1-0.1-0.3-0.1-0.4c0-0.1,0.1-0.2,0.3-0.3
				c0.2,0,0.3-0.1,0.4-0.2c0.1,0,0.2-0.1,0.2-0.2c0-0.1,0-0.2,0-0.2l-0.5-1.1c-0.1-0.3-0.1-0.5,0-0.6c0.2-0.3,0.2-0.7,0.1-1.3
				c-0.2-0.6-0.4-1.2-0.6-1.8c-0.3-0.7-0.8-1.1-1.6-1.4c-0.9-0.3-1.6-0.5-2.2-0.6c-1.2-0.3-2.3,0-3.2,0.8c-0.5,0.5-1,1.1-1.4,1.9
				c-0.2,0.4-0.2,0.8-0.2,1.3c0.1,0.4,0.2,1.2,0.5,2.4c0,0.2,0.1,0.4,0.1,0.7c0,0.1,0,0.2,0,0.3c0,0.1-0.1,0.2-0.2,0.3
				c-0.1,0.1-0.2,0.1-0.4,0c-0.6-0.2-1.2-0.3-1.9-0.2c-0.4,0.1-0.9,0.1-1.5,0.2C34.4,8,33.8,8,33.5,8.1c-0.6,0.1-1.1,0.1-1.6,0.1
				c0,0-0.2,0-0.4,0c-0.1,0-0.2,0.1-0.4,0.2C31.1,8.4,31,8.5,31,8.6c0,0.4,0,0.7,0.1,0.8c0.1,0.3,0.2,0.6,0.4,1.1
				c0.4,1.2,0.6,2.3,0.6,3.5c0,0.5,0,1.2,0,2.1c0,0.6,0.1,1.3,0.4,2l0.5,1.2c1.3,2.8,2.2,4.9,2.8,6.3c0.1,0.3,0.4,1.1,0.9,2.4
				c0.2,0.5,0.3,1,0.3,1.6c0,0.4,0,1.1,0,1.9c0,0.7-0.1,1.4-0.1,1.9c-0.1,0.8-0.2,2.1-0.2,3.7c0,0.3,0,0.6,0,1c0,0.1,0,0.3,0.1,0.4
				c0.1,0.2,0.3,0.4,0.6,0.4c0.3,0,0.5,0,0.6-0.2c0.2-0.3,0.4-0.6,0.5-0.7c0.1-0.1,0.2-0.2,0.4-0.2c0.5,0.1,1.5,0.1,2.9,0.1l2.4,0
				c0.2,0,0.5,0,0.7,0.1c0.2,0,0.3,0.1,0.4,0.3c0.1,0.2,0.1,0.3,0,0.4c-0.2,0.3-0.5,0.7-0.9,1.3c-0.1,0.2-0.4,0.5-0.6,0.9
				c-0.2,0.4-0.5,0.6-0.7,0.9C42.7,42,42.4,42.4,42,43c-0.2,0.3-0.5,0.4-0.9,0.4c-0.4,0-0.7,0-0.8,0c-0.5,0-1.2,0.1-2,0.2
				c-1.5,0.3-2.5,0.9-3.1,2.1c0,0,0,0.1,0,0.1c0.1,0.1,0.1,0.1,0.2,0.1c0,0,0.1,0,0.2,0c0,0,0,0.1,0,0.2c0,0.1,0,0.1-0.1,0.1
				c-0.4,0.2-0.6,0.6-0.7,0.9c-0.1,0.3-0.1,0.7,0,1.1c0,0.3,0.2,0.4,0.5,0.5c0.6,0.2,1.2,0.1,1.7-0.1l0-0.7c0.1-0.7-0.1-1.4-0.5-2.1
				c-0.1-0.1-0.1-0.3-0.1-0.4c0-0.1,0.1-0.2,0.3-0.3c0.3-0.2,0.5-0.3,0.7-0.4c0.6-0.2,1-0.3,1.4-0.3c0.2,0,0.5,0,0.9,0
				c0.4,0,0.6,0,0.9,0c0.8,0.1,1.8,0.1,3,0.1l1.2,0c0.6,0,1,0,1.2,0c0.1,0,0.3,0,0.6,0.1c0.2,0.1,0.4,0.1,0.6,0
				c0.1,0.1,0.1,0.3,0,0.4c-0.2,0.2-0.4,0.5-0.7,0.8c-0.3,0.2-0.7,0.7-1.3,1.2c-0.5,0.6-0.9,1-1.2,1.2l-0.1,0.1
				c-0.8,1-1.1,2.1-0.8,3.3c0,0,0,0.1,0.1,0.2c0,0,0.1,0.1,0.1,0.2c0,0-0.1,0-0.1,0.1c-0.1,0-0.1,0.1-0.1,0.1
				c-0.1,0.4-0.1,0.8,0.1,1.1c0.2,0.3,0.5,0.6,0.7,0.9c0.3,0.3,0.6,0.5,0.9,0.5c0.2,0,0.5-0.2,0.8-0.4c0.1-0.1,0.2-0.2,0.3-0.4
				c0.1-0.2,0.2-0.4,0.3-0.5c0.2-0.2,0.2-0.5,0.1-0.9c-0.1-0.4-0.4-0.7-0.8-0.9l-0.5-0.1c-0.1,0-0.1-0.1-0.2-0.2
				c0-0.1-0.1-0.1,0-0.2c0.2-1,0.6-1.9,1.2-2.9c0.7-1.1,1.5-2.1,2.4-3c0.5,0,0.9,0,1,0c0.1,0,0.3,0,0.6-0.1c0.3-0.1,0.4-0.2,0.5-0.4
				c0-0.1,0.1-0.1,0.2-0.2c0.1,0,0.1,0,0.2,0c0.4,0.1,1.1,0.3,1.9,0.5c1.8,0.5,3.5,1.2,4.9,2c0.7,0.4,1.1,0.7,1.4,1.1
				c0.2,0.2,0.4,0.4,0.5,0.4c-0.5,0.3-0.7,0.7-0.7,1.1c0,0.2,0,0.4,0.1,0.7c0,0.3,0.2,0.5,0.6,0.6c0.4,0.1,0.7,0.2,1.1,0.1
				c0.3,0,0.5-0.1,0.5-0.3c0.3-0.8,0.2-1.5-0.2-2c-0.1-0.1-0.2-0.2-0.2-0.4c-0.1-0.2-0.2-0.3-0.2-0.4c-0.2-0.3-0.3-0.6-0.4-0.8
				c-0.2-0.2-0.4-0.4-0.5-0.4c-0.2,0-0.4-0.1-0.6-0.3c-0.2-0.2-0.4-0.3-0.5-0.3c-0.2,0-0.4-0.2-0.6-0.3C57.2,46.1,57,46,57,46
				c-1.3-0.5-2.5-1-3.7-1.3c-0.3-0.1-0.9-0.3-2-0.6c-0.1,0-0.1,0-0.1,0c0,0-0.1-0.1,0-0.1l0.1-0.1l5-1.7c0.4-0.1,0.8-0.2,1.1-0.3
				c0.4-0.1,0.7,0.1,0.9,0.4c-0.5,0.2-0.7,0.3-0.7,0.3c-0.3,0.2-0.5,0.3-0.5,0.4c-0.1,0.2-0.1,0.4,0,0.7c0,0.2,0.1,0.4,0.3,0.8
				c0,0.1,0.1,0.1,0.3,0.2c0.3,0.1,0.6,0.1,0.9,0c0.1,0,0.2-0.1,0.4-0.2c0.1-0.1,0.1-0.2,0.2-0.3c0.4-0.5,0.5-1,0.3-1.6
				c-0.2-0.6-0.5-1-1.1-1.2c0,0,0,0-0.1,0c0,0-0.1,0-0.1,0h-0.3c0,0-0.1,0-0.2,0c0,0,0,0,0.1,0l0.1,0l0.3,0.1
				c-0.2-0.2-0.4-0.3-0.6-0.3c-0.2,0-0.4,0-0.7,0.1c-0.1,0.1-0.3,0.2-0.5,0.2c-0.2,0-0.4,0-0.5,0.1c-0.4,0.1-0.8,0.2-1.2,0.2
				c-0.2,0.1-0.8,0.2-1.8,0.4c-0.7,0.2-1.4,0.4-1.8,0.5l-0.1,0c-0.1,0-0.2,0-0.2,0c-0.1,0-0.1-0.1-0.1-0.2l-0.3-3.2v-0.1
				c0-0.1,0-0.1,0.1-0.2c0.1,0,0.1-0.1,0.2-0.1c0.2,0,0.4,0,0.4,0.1l0.2,0.6c0.1,0.2,0.2,0.3,0.5,0.4c0.6,0.1,1.2,0,1.7-0.3
				c0.2-0.1,0.3-0.3,0.3-0.5c0-0.2,0-0.3,0-0.4c0-0.3,0.2-0.5,0.5-0.4c0.5,0,1,0.1,1.4,0.1c0.9,0.1,1.7,0.1,2.4,0
				c1-0.1,1.8-0.5,2.4-1.1c0.6-0.6,0.9-1.1,1.1-1.5c0-0.1,0.1-0.2,0.2-0.3c0.1-0.2,0.3-0.3,0.5-0.2l0.6,0.1c0.6,0.1,1.1,0.1,1.4,0
				c0.1,0,0.2,0,0.2,0c0.1,0,0.1,0.1,0.1,0.2l0.1,6.2c0,0.7,0,1.2,0,1.5c0.1,0.5,0.1,1.3,0.1,2.3c0.1,0.7,0,1.6-0.3,2.6
				c0,0.2-0.1,0.5-0.2,0.9c-0.2,0.6-0.2,1.1-0.3,1.5c0,0.3,0.1,0.5,0.4,0.6c0.2,0.1,0.3,0.1,0.3,0.2c0.9,0.3,1.5,0.5,1.7,0.5
				c0.6,0.2,1.2,0.3,1.8,0.3c0.4,0,0.7,0.1,0.9,0.2l0.9,0.4c0.7,0.3,1.3,0.5,1.9,0.6c1.5,0.3,3.1,0.4,4.8,0.3c0.2,0,0.4-0.1,0.7-0.2
				c0.2,0,0.2-0.1,0.3-0.2c0.2-0.4,0.2-0.6,0.3-0.6c0.1-0.2,0.1-0.5,0-0.7v0c0.9,0,2,0,3.2,0c0.7,0,1.8,0,3.2,0.1l1.3,0
				c0.2,0,0.4,0,0.4-0.1s0.1-0.2,0.2-0.4v-0.4c0-0.5-0.1-1.1-0.3-1.7c-3.1-7.7-5.3-13.5-6.9-17.4c-0.1-0.3-0.3-0.7-0.5-1.2
				c-1-2.2-0.6-4.2,1-6.1c0.7-0.7,1.5-1.4,2.5-1.8l1.2-0.6c1.3-0.6,2.6-0.9,3.9-0.8c0.2,0,0.5,0,0.7,0c0.1,0,0.1,0,0.2-0.1
				c0.1-0.2,0-0.4,0-0.5c0-0.1-0.1-0.1-0.2-0.1c-0.2,0-0.5-0.1-0.7,0h-5.7c-0.2,0-0.4,0-0.4-0.1c-0.1,0-0.1-0.2-0.2-0.5l-0.1-0.2
				c-0.2,0-0.4-0.1-0.5-0.1c0.6,0,0.8,0,0.5,0c-0.1,0-0.2,0-0.2-0.1c-0.1-0.1-0.1-0.1-0.1-0.2l0-3c0-0.4,0-0.7,0-0.9
				c0-0.3,0.1-0.6,0.1-0.9c0,0,0-0.1,0-0.2c0-0.1-0.4-0.2-1.1-0.3c-0.6-0.1-1-0.1-1.3-0.2c-0.2,0-0.4,0-0.5,0l-0.4,0
				c-0.1,0-0.1,0-0.2-0.1c-0.1-0.1-0.1-0.1-0.1-0.2c0-0.3,0-0.5,0-0.7l0-9.3c0-0.1,0-0.2-0.1-0.3c0-0.1-0.1-0.2-0.2-0.2
				c-0.1-0.1-0.2-0.1-0.3-0.1c-0.1,0-2.6,0-7.4,0C68.3,3.5,68.2,3.5,68.2,3.7 M71.9,29.5c-0.6-0.5-1.1-0.9-1.7-1.2
				c-0.3-0.1-0.5-0.3-0.7-0.4c-0.2-0.2-0.3-0.2-0.5-0.1c-0.3,0.1-0.7,0.1-1.2,0.1c-0.1,0-0.1,0-0.2-0.1c-0.1,0-0.1-0.1-0.1-0.1
				c0-0.1,0.1-0.2,0.2-0.3c0.2-0.2,0.5-0.3,0.9-0.3c0.2,0,0.4,0,0.6,0c0.6,0,1.2-0.2,1.7-0.5L71.9,29.5L71.9,29.5 M73.1,36
				c0-0.2,0-0.4,0.1-0.5l0.7-0.2l5.1,15c0,0,0,0.2,0.1,0.4c-0.3,0-0.7,0.1-1.2,0c-0.5,0-0.9,0-1.2,0c-0.2-0.1-0.4-0.2-0.6-0.3
				l-0.3-0.1l-1.8-0.8c-0.4-0.1-0.6-0.3-0.7-0.5c-0.1-0.2-0.4-0.4-0.7-0.7c-0.3-0.2-0.6-0.4-1.1-0.7c-0.1-0.1-0.2-0.2-0.1-0.3
				c0-0.1,0.1-0.1,0.2-0.1c0,0,0.2-0.1,0.6-0.2c0.6-0.2,1.2-0.5,1.8-1c0.2-0.2,0.4-0.5,0.3-0.7L74,43.9c-0.2-1.3-0.3-2.3-0.4-3
				c-0.1-1-0.2-2.5-0.4-4.4C73.2,36.3,73.1,36.1,73.1,36 M47,40.1C47,40.2,47,40.2,47,40.1c-0.2,0.1-0.2,0.1-0.3,0.1l-0.3-0.1
				c-0.1,0-0.3,0-0.6,0c0,0,0,0-0.1,0s0,0,0,0c0,0.1,0,0.1,0.1,0.2c0.4,0.2,0.6,0.3,0.7,0.4c0.2,0.1,0.4,0.2,0.5,0.3
				c0.1,0.1,0.1,0.3,0.1,0.5v0.1c0,0.1-0.1,0.3-0.1,0.5c0,0.1,0,0.3,0,0.5l-0.3-0.4c-0.6-0.8-1-1.2-1.1-1.4
				c-0.1-0.1-0.2-0.1-0.3-0.2c0,0-0.1,0-0.1,0s-0.1,0-0.1,0c-0.2,0.6-0.1,1.2,0.1,1.6c0,0.1,0.1,0.2,0.3,0.4c0,0.1,0.1,0.2,0.1,0.3
				c0,0.1,0,0.1-0.1,0.2c-0.1,0-0.2,0.1-0.2,0.1c-0.5,0-1.3,0-2.2,0c0,0,0,0,0,0c0,0,0-0.1,0-0.1c0-0.1,0-0.1,0.1-0.2
				c0.3-0.4,0.4-0.6,0.5-0.7c0.2-0.3,0.3-0.5,0.3-0.8c0.5-0.9,0.9-1.5,1.3-1.9c0.3-0.4,0.5-0.6,0.6-0.6c0.1,0,0.4,0.1,0.8,0.4
				c0.1,0.1,0.3,0.2,0.6,0.5C47,39.9,47,40,47,40.1 M44,52.2l0.2,0L44,52.2L44,52.2 M59.7,49.5c-0.1,0-0.1,0-0.1,0
				c-0.2-0.2-0.3-0.4-0.2-0.7c0.1,0.2,0.1,0.3,0.1,0.3c0,0,0.2,0.2,0.5,0.4C59.9,49.5,59.8,49.5,59.7,49.5z"/>
		</g>
	</g>
</g>
</svg>
