<svg version="1.1" xmlns="http://www.w3.org/2000/svg" id="Layer_1"  xmlns:xlink="http://www.w3.org/1999/xlink" x="0px" y="0px"
	 viewBox="0 0 200 153.9" enable-background="new 0 0 200 153.9" xml:space="preserve">
<rect x="79.7" y="43.8" fill="#FFFFFF" width="41" height="35.4"/>
<path d="M124.3,48.4h6.8c0.9,0,1.6,1,1.6,2.2c0,1.2-0.7,2.2-1.6,2.2h-6.8"/>
<path d="M124.3,59.6h6.8c0.9,0,1.6,1,1.6,2.2s-0.7,2.2-1.6,2.2h-6.8"/>
<path d="M124.3,70.9h6.8c0.9,0,1.6,1,1.6,2.2s-0.7,2.2-1.6,2.2h-6.8"/>
<path d="M86.5,37.4v-6.9c0-0.9,1-1.7,2.2-1.7c1.2,0,2.2,0.8,2.2,1.7v6.9"/>
<path d="M97.6,37.4v-6.9c0-0.9,1-1.7,2.2-1.7c1.2,0,2.2,0.8,2.2,1.7v6.9"/>
<path d="M108.6,37.4v-6.9c0-0.9,1-1.7,2.2-1.7s2.2,0.8,2.2,1.7v6.9"/>
<path d="M90.9,84.8v6.9c0,0.9-1,1.7-2.2,1.7s-2.2-0.8-2.2-1.7v-6.9"/>
<path d="M101.9,84.8v6.9c0,0.9-1,1.7-2.2,1.7s-2.2-0.8-2.2-1.7v-6.9"/>
<path d="M113,84.8v6.9c0,0.9-1,1.7-2.2,1.7c-1.2,0-2.2-0.8-2.2-1.7v-6.9"/>
<path d="M75.2,52.8h-6.8c-0.9,0-1.6-1-1.6-2.2s0.7-2.2,1.6-2.2h6.8"/>
<path d="M75.2,64.1h-6.8c-0.9,0-1.6-1-1.6-2.2c0-1.2,0.7-2.2,1.6-2.2h6.8"/>
<path d="M75.2,75.3h-6.8c-0.9,0-1.6-1-1.6-2.2c0-1.2,0.7-2.2,1.6-2.2h6.8"/>
<path d="M115.5,48c0-1-0.7-1.9-1.5-1.9H85.6c-0.8,0-1.5,0.8-1.5,1.9v26.6c0,1,0.7,1.9,1.5,1.9h28.3c0.8,0,1.5-0.8,1.5-1.9V48z
	 M123.2,81.1c0,1.5-1,2.8-2.3,2.8H78.6c-1.3,0-2.3-1.3-2.3-2.8V41.4c0-1.5,1-2.8,2.3-2.8h42.4c1.3,0,2.3,1.3,2.3,2.8V81.1z"/>
<polygon points="108.2,71 95.5,58.3 90.5,63.2 79.7,52.4 81.7,50.5 90.5,59.3 95.5,54.4 110.1,69.1 "/>
<polygon points="111.8,72.6 111.5,64.5 103.6,72.3 "/>
<polygon points="85.6,61.7 85.6,76.9 90.5,76.9 90.5,66.6 88.9,65 "/>
<polygon points="91.9,65.5 91.9,76.9 96.8,76.9 96.8,63.9 95.2,62.2 "/>
<polygon points="98.2,65 98.2,79.7 103.1,79.7 103.1,69.9 100.4,67.1 "/>
<path d="M130.2,150.2c0,0-3.5-2.9-5.4-4.8c-1.9-1.9-2.4-4.3-2.4-4.3l-1.5-16.2h-42l-1.5,16.3c0,0-0.5,2.5-2.4,4.4
	c-1.9,1.9-5.4,4.8-5.4,4.8s-3.1,2.2,1.6,2.9c2.7,0.4,14.6,0.7,24.2,0.7h9.1c9.8,0,21.5-0.3,24.2-0.7
	C133.4,152.5,130.2,150.2,130.2,150.2"/>
<path d="M191.6,113.2H7.5V8.9h184.1V113.2z M194.9,0H4.8C2.1,0-0.2,2.4-0.2,5.1v111.6c0,2.8,2.3,5.3,5.1,5.3h70.3h4h41.5h4.2h70
	c2.7,0,4.9-2.6,4.9-5.3V5.1C199.8,2.4,197.6,0,194.9,0"/>
</svg>
