<svg version="1.1" xmlns="http://www.w3.org/2000/svg" xmlns:xlink="http://www.w3.org/1999/xlink" x="0px" y="0px"
	 viewBox="0 0 363.703 279.826" style="enable-background:new 0 0 363.703 279.826;" xml:space="preserve">
<g id="computer">
	<path d="M237.272,273.163c0,0-6.298-5.334-9.763-8.799c-3.466-3.467-4.405-7.862-4.405-7.862l-2.741-29.54h-76.379l-2.753,29.553
		c0,0-0.946,4.567-4.412,8.031c-3.466,3.468-9.767,8.745-9.767,8.745s-5.669,4.017,2.838,5.277
		c4.872,0.721,26.598,1.258,44.056,1.258h16.482c17.814,0,39.167-0.578,44.038-1.3C242.973,277.266,237.272,273.163,237.272,273.163
		"/>
	<path d="M348.901,205.817H14.096V16.212h334.805V205.817z M354.869,0H9.202C4.249,0,0,4.35,0,9.351v203.003
		c0,5.002,4.249,9.674,9.202,9.674h127.88h7.351h75.485h7.694h127.257c4.954,0,8.834-4.672,8.834-9.674V9.351
		C363.703,4.35,359.823,0,354.869,0"/>
</g>
<g id="Layer_1">
</g>
</svg>
