<svg version="1.1" xmlns="http://www.w3.org/2000/svg" id="Layer_1"  xmlns:xlink="http://www.w3.org/1999/xlink" x="0px" y="0px"
	 viewBox="0 0 465 279.8" enable-background="new 0 0 465 279.8" xml:space="preserve">
<polyline fill="none" stroke="#CCCCCC" stroke-miterlimit="10" points="157.9,16.4 163.1,21.7 229.5,21.7 229.5,52.2 "/>
<polyline fill="none" stroke="#CCCCCC" stroke-miterlimit="10" points="288.5,16.2 288.5,19.9 253,55.6 "/>
<polyline fill="none" stroke="#CCCCCC" stroke-miterlimit="10" points="123.2,16.4 158.5,51.2 158.5,92.7 190,92.7 "/>
<polyline fill="none" stroke="#CCCCCC" stroke-miterlimit="10" points="273.8,55.5 294.9,34.7 369,34.7 417.2,82.9 "/>
<polyline fill="none" stroke="#CCCCCC" stroke-miterlimit="10" points="307,87.7 329.5,65.2 329.5,16.2 "/>
<polyline fill="none" stroke="#CCCCCC" stroke-miterlimit="10" points="310,112.7 354,112.7 383.7,142.7 465,142.7 "/>
<polyline fill="none" stroke="#CCCCCC" stroke-miterlimit="10" points="310,132.7 349,132.7 384.5,168.2 384.5,206.2 "/>
<polyline fill="none" stroke="#CCCCCC" stroke-miterlimit="10" points="273.9,167.4 291.4,184.7 338.5,184.7 338.5,206.2 "/>
<polyline fill="none" stroke="#CCCCCC" stroke-miterlimit="10" points="250,169.8 231.5,188.1 231.5,206.2 "/>
<polyline fill="none" stroke="#CCCCCC" stroke-miterlimit="10" points="190,132.7 134,132.7 79.9,186.7 53,186.7 34.1,167.7 
	0,167.7 "/>
<rect x="213.5" y="79.4" fill="#FFFFFF" width="74.5" height="64.4"/>
<path d="M294.5,87.7h12.3c1.6,0,3,1.8,3,4c0,2.2-1.3,4-3,4h-12.3"/>
<path d="M294.5,108.2h12.3c1.6,0,3,1.8,3,4s-1.3,4-3,4h-12.3"/>
<path d="M294.5,128.7h12.3c1.6,0,3,1.8,3,4c0,2.2-1.3,4-3,4h-12.3"/>
<path d="M225.8,67.9V55.3c0-1.7,1.8-3,4-3c2.2,0,4,1.4,4,3v12.5"/>
<path d="M245.9,67.9V55.3c0-1.7,1.8-3,4-3c2.2,0,4,1.4,4,3v12.5"/>
<path d="M266,67.9V55.3c0-1.7,1.8-3,4-3s4,1.4,4,3v12.5"/>
<path d="M233.8,154.1v12.5c0,1.7-1.8,3-4,3c-2.2,0-4-1.4-4-3v-12.5"/>
<path d="M253.9,154.1v12.5c0,1.7-1.8,3-4,3c-2.2,0-4-1.4-4-3v-12.5"/>
<path d="M274,154.1v12.5c0,1.7-1.8,3-4,3c-2.2,0-4-1.4-4-3v-12.5"/>
<path d="M205.3,95.8H193c-1.6,0-3-1.8-3-4s1.3-4,3-4h12.3"/>
<path d="M205.3,116.3H193c-1.6,0-3-1.8-3-4c0-2.2,1.3-4,3-4h12.3"/>
<path d="M205.3,136.7H193c-1.6,0-3-1.8-3-4c0-2.2,1.3-4,3-4h12.3"/>
<path d="M278.5,87c0-1.9-1.3-3.4-2.8-3.4h-51.6c-1.5,0-2.8,1.5-2.8,3.4v48.4c0,1.9,1.3,3.4,2.8,3.4h51.6c1.5,0,2.8-1.5,2.8-3.4V87z
	 M292.6,147.4c0,2.8-1.9,5.1-4.2,5.1h-77c-2.3,0-4.2-2.3-4.2-5.1V75.1c0-2.8,1.9-5.1,4.2-5.1h77c2.3,0,4.2,2.3,4.2,5.1V147.4z"/>
<polygon points="265.3,128.9 242.1,105.8 233.2,114.7 213.5,95.1 217,91.5 233.2,107.7 242.1,98.7 268.8,125.4 "/>
<polygon points="271.7,131.9 271.2,117.1 257,131.3 "/>
<polygon points="224.2,112 224.2,139.7 233.2,139.7 233.2,120.9 230.1,117.9 "/>
<polygon points="235.6,118.9 235.6,139.7 244.6,139.7 244.6,115.9 241.6,112.9 "/>
<polygon points="247.1,117.9 247.1,144.7 256,144.7 256,126.9 251,121.9 "/>
<path d="M305.3,273c0,0-6.3-5.3-9.8-8.8c-3.5-3.5-4.4-7.9-4.4-7.9l-2.7-29.5H212l-2.8,29.6c0,0-0.9,4.6-4.4,8
	c-3.5,3.5-9.8,8.7-9.8,8.7s-5.7,4,2.8,5.3c4.9,0.7,26.6,1.3,44.1,1.3h16.5c17.8,0,39.2-0.6,44-1.3C311,277.1,305.3,273,305.3,273"/>
<path d="M416.9,205.6H82.1V16h334.8V205.6z M422.9-0.2H77.2c-5,0-9.2,4.4-9.2,9.4v203c0,5,4.2,9.7,9.2,9.7h127.9h7.4H288h7.7h127.3
	c5,0,8.8-4.7,8.8-9.7V9.1C431.7,4.1,427.9-0.2,422.9-0.2"/>
</svg>
