<?xml version="1.0" encoding="utf-8"?>
<!-- Generator: Adobe Illustrator 18.1.0, SVG Export Plug-In . SVG Version: 6.00 Build 0)  -->
<svg version="1.1" id="Layer_1" xmlns="http://www.w3.org/2000/svg" xmlns:xlink="http://www.w3.org/1999/xlink" x="0px" y="0px"
	 viewBox="-119 -84 638 368" enable-background="new -119 -84 638 368" xml:space="preserve">
<polyline fill="none" stroke="#CCCCCC" stroke-miterlimit="10" points="97.6,-62.3 104.8,-55.3 195.9,-55.3 195.9,-15.2 "/>
<polyline fill="none" stroke="#CCCCCC" stroke-miterlimit="10" points="276.8,-62.5 276.8,-57.7 228.1,-10.7 "/>
<polyline fill="none" stroke="#CCCCCC" stroke-miterlimit="10" points="50,-62.3 98.5,-16.5 98.5,38 141.7,38 "/>
<polyline fill="none" stroke="#CCCCCC" stroke-miterlimit="10" points="256.7,-10.9 285.6,-38.2 387.3,-38.2 453.4,25.1 "/>
<polyline fill="none" stroke="#CCCCCC" stroke-miterlimit="10" points="302.2,31.5 333.1,1.9 333.1,-62.5 "/>
<polyline fill="none" stroke="#CCCCCC" stroke-miterlimit="10" points="306.3,64.3 366.7,64.3 407.5,103.8 519,103.8 "/>
<polyline fill="none" stroke="#CCCCCC" stroke-miterlimit="10" points="306.3,90.6 359.8,90.6 408.6,137.3 408.6,187.3 "/>
<polyline fill="none" stroke="#CCCCCC" stroke-miterlimit="10" points="256.8,136.2 280.8,159 345.4,159 345.4,187.3 "/>
<polyline fill="none" stroke="#CCCCCC" stroke-miterlimit="10" points="224,139.4 198.6,163.5 198.6,187.3 "/>
<polyline fill="none" stroke="#CCCCCC" stroke-miterlimit="10" points="141.7,90.6 64.9,90.6 -9.4,161.6 -46.3,161.6 -72.2,136.6 
	-119,136.6 "/>
<rect x="173.9" y="20.5" fill="#FFFFFF" width="102.2" height="84.7"/>
<path d="M285.1,31.5h16.9c2.2,0,4.1,2.4,4.1,5.3s-1.8,5.3-4.1,5.3h-16.9"/>
<path d="M285.1,58.4h16.9c2.2,0,4.1,2.4,4.1,5.3c0,2.9-1.8,5.3-4.1,5.3h-16.9"/>
<path d="M285.1,85.4h16.9c2.2,0,4.1,2.4,4.1,5.3c0,2.9-1.8,5.3-4.1,5.3h-16.9"/>
<path d="M190.8,5.4v-16.6c0-2.2,2.5-3.9,5.5-3.9s5.5,1.8,5.5,3.9V5.3"/>
<path d="M218.4,5.4v-16.6c0-2.2,2.5-3.9,5.5-3.9c3,0,5.5,1.8,5.5,3.9V5.3"/>
<path d="M246,5.4v-16.6c0-2.2,2.5-3.9,5.5-3.9s5.5,1.8,5.5,3.9V5.3"/>
<path d="M201.8,118.8v16.4c0,2.2-2.5,3.9-5.5,3.9s-5.5-1.8-5.5-3.9v-16.4"/>
<path d="M229.4,118.8v16.4c0,2.2-2.5,3.9-5.5,3.9c-3,0-5.5-1.8-5.5-3.9v-16.4"/>
<path d="M256.9,118.8v16.4c0,2.2-2.5,3.9-5.5,3.9s-5.5-1.8-5.5-3.9v-16.4"/>
<path d="M162.7,42.1h-16.9c-2.2,0-4.1-2.4-4.1-5.3c0-2.9,1.8-5.3,4.1-5.3h16.9"/>
<path d="M162.7,69.1h-16.9c-2.2,0-4.1-2.4-4.1-5.3c0-2.9,1.8-5.3,4.1-5.3h16.9"/>
<path d="M162.7,95.9h-16.9c-2.2,0-4.1-2.4-4.1-5.3c0-2.9,1.8-5.3,4.1-5.3h16.9"/>
<path d="M263.1,30.5c0-2.5-1.8-4.5-3.8-4.5h-70.8c-2.1,0-3.8,2-3.8,4.5v63.6c0,2.5,1.8,4.5,3.8,4.5h70.8c2.1,0,3.8-2,3.8-4.5V30.5z
	 M282.5,110c0,3.7-2.6,6.7-5.8,6.7H171c-3.2,0-5.8-3-5.8-6.7V14.9c0-3.7,2.6-6.7,5.8-6.7h105.6c3.2,0,5.8,3,5.8,6.7V110z"/>
<polygon points="245,85.6 213.2,55.3 201,67 173.9,41.2 178.7,36.5 201,57.8 213.2,45.9 249.8,81 "/>
<polygon points="253.8,89.6 253.1,70.1 233.6,88.8 "/>
<polygon points="188.6,63.4 188.6,99.8 201,99.8 201,75.1 196.7,71.2 "/>
<polygon points="204.3,72.5 204.3,99.8 216.6,99.8 216.6,68.5 212.5,64.6 "/>
<polygon points="220,71.2 220,106.4 232.2,106.4 232.2,83 225.4,76.4 "/>
<path d="M299.9,275.1c0,0-8.6-7-13.4-11.6c-4.8-4.6-6-10.4-6-10.4l-3.7-38.8H171.9l-3.8,38.9c0,0-1.2,6-6,10.5
	c-4.8,4.6-13.4,11.4-13.4,11.4s-7.8,5.3,3.8,7c6.7,0.9,36.5,1.7,60.5,1.7h22.6c24.4,0,53.8-0.8,60.4-1.7
	C307.7,280.5,299.9,275.1,299.9,275.1"/>
<path d="M453,186.5H-6.4V-62.8H453V186.5z M461.2-84.1H-13.1c-6.9,0-12.6,5.8-12.6,12.4v266.9c0,6.6,5.8,12.8,12.6,12.8h175.5h10.2
	h103.6h10.6h174.7c6.9,0,12.1-6.2,12.1-12.8v-267C473.3-78.5,468.1-84.1,461.2-84.1"/>
</svg>
