<svg version="1.1" xmlns="http://www.w3.org/2000/svg"baseProfile="basic"  xmlns:xlink="http://www.w3.org/1999/xlink" x="0px"
	 y="0px" width="808.9px" height="368.4px" viewBox="0.5 424.1 808.9 368.4" xml:space="preserve">
<style type="text/css">
<![CDATA[
	.st0{fill:none;stroke:#CCCCCC;stroke-miterlimit:10;}
]]>
</style>
<g id="lines_1_">
	<polyline id="line-6" class="st0" points="526.4,648.1 502,672.3 502,695.9 	"/>
	<polyline id="line-5" class="st0" points="557.8,644.9 580.9,667.6 642.9,667.6 642.9,695.9 	"/>
	<polyline id="line-4" class="st0" points="605.4,599.1 656.7,599.1 703.4,646 703.4,700.2 	"/>
	<polyline id="line-8" class="st0" points="447.4,599.1 373.7,599.1 302.6,670.2 267.1,670.2 242.3,645.2 107.4,645.2 0.9,759.2 	
		"/>
	<polyline id="line-3" class="st0" points="605.4,572.8 663.3,572.8 702.3,612.3 809.4,612.3 	"/>
	<polyline id="line-10" class="st0" points="447.4,546.5 406,546.5 406,492.6 358.9,444.8 	"/>
	<polyline id="line-2" class="st0" points="600.4,540 631,510.5 631,445.8 	"/>
	<polyline id="line-1" class="st0" points="553.7,501.9 585.5,470.2 683,470.2 746.5,533.6 	"/>
	<polyline id="line-12" class="st0" points="530.3,497.7 577.1,450.9 577.1,441.2 	"/>
	<polyline id="line-11" class="st0" points="499.4,493.2 499.4,453.1 412,453.1 405.1,446.1 	"/>
</g>
<g id="monitor">
	<path d="M598.3,783.7c0,0-8.3-7-12.9-11.6s-5.8-10.4-5.8-10.4l-3.6-38.8H475.5l-3.7,39c0,0-1.2,6.1-5.8,10.5
		c-4.6,4.6-12.9,11.5-12.9,11.5s-7.5,5.3,3.7,7c6.4,0.9,35,1.7,58,1.7h21.7c23.4,0,51.6-0.8,57.9-1.7
		C605.8,789.1,598.3,783.7,598.3,783.7"/>
	<path d="M745.2,695H304.5V445.4h440.6V695z M753.1,424.1h-455c-6.6,0-12.1,5.8-12.1,12.4v267.2c0,6.6,5.5,12.8,12.1,12.8h168.3h9.7
		h99.4h10.1h167.5c6.6,0,11.6-6.2,11.6-12.8V436.4C764.6,429.8,759.6,424.1,753.1,424.1"/>
</g>
<g id="chip">
	<g id="chip-edges">
		<path id="r-1" d="M585.1,539.7h16.2c2.1,0,3.9,2.4,3.9,5.3c0,2.9-1.7,5.3-3.9,5.3h-16.2"/>
		<path id="r-2" d="M585.1,566.7h16.2c2.1,0,3.9,2.4,3.9,5.3c0,2.9-1.7,5.3-3.9,5.3h-16.2"/>
		<path id="r-3" d="M585.1,593.6h16.2c2.1,0,3.9,2.4,3.9,5.3s-1.7,5.3-3.9,5.3h-16.2"/>
		<path id="t-1" d="M494.7,513.6V497c0-2.2,2.4-3.9,5.3-3.9s5.3,1.8,5.3,3.9v16.5"/>
		<path id="t-2" d="M521.1,513.6V497c0-2.2,2.4-3.9,5.3-3.9s5.3,1.8,5.3,3.9v16.5"/>
		<path id="t-3" d="M547.6,513.6V497c0-2.2,2.4-3.9,5.3-3.9s5.3,1.8,5.3,3.9v16.5"/>
		<path id="b-1" d="M505.2,627.1v16.5c0,2.2-2.4,3.9-5.3,3.9s-5.3-1.8-5.3-3.9v-16.5"/>
		<path id="b-2" d="M531.6,627.1v16.5c0,2.2-2.4,3.9-5.3,3.9s-5.3-1.8-5.3-3.9v-16.5"/>
		<path id="b-3" d="M558.1,627.1v16.5c0,2.2-2.4,3.9-5.3,3.9s-5.3-1.8-5.3-3.9v-16.5"/>
		<path id="l-1" d="M467.7,550.3h-16.2c-2.1,0-3.9-2.4-3.9-5.3c0-2.9,1.7-5.3,3.9-5.3h16.2"/>
		<path id="l-2" d="M467.7,577.3h-16.2c-2.1,0-3.9-2.4-3.9-5.3c0-2.9,1.7-5.3,3.9-5.3h16.2"/>
		<path id="l-3" d="M467.7,604.2h-16.2c-2.1,0-3.9-2.4-3.9-5.3s1.7-5.3,3.9-5.3h16.2"/>
	</g>
	<path id="chip-border" d="M577,516.4H475.7c-3,0-5.5,3-5.5,6.7v95.2c0,3.7,2.5,6.7,5.5,6.7H577c3,0,5.5-3,5.5-6.7v-95.2
		C582.6,519.4,580.1,516.4,577,516.4z M564,602.5c0,2.5-1.7,4.5-3.7,4.5h-67.9c-2,0-3.7-2-3.7-4.5v-63.7c0-2.5,1.7-4.5,3.7-4.5h67.9
		c2,0,3.7,2,3.7,4.5V602.5z"/>
	<polygon id="arrow" points="555.1,597.8 554.4,578.4 547.4,585.4 516.1,554.1 504.4,566 483.1,544.7 478.5,549.4 504.4,575.2 
		516.1,563.5 542.8,590 535.7,597.1 	"/>
	<g id="chip-graph">
		<polygon id="bar-1" points="492.5,571.7 492.5,608.1 504.4,608.1 504.4,583.4 500.3,579.4 		"/>
		<polygon id="bar-2" points="507.6,580.7 507.6,608.1 519.4,608.1 519.4,576.8 515.5,572.8 		"/>
		<polygon id="bar-3" points="522.7,579.4 522.7,614.7 534.4,614.7 534.4,591.3 527.8,584.7 		"/>
	</g>
</g>
</svg>
