<svg class="timer-svg" version="1.1" id="Layer_1"  xmlns:xlink="http://www.w3.org/1999/xlink" x="0px" y="0px" viewBox="0 0 260.5 350" enable-background="new 0 0 260.5 350" xml:space="preserve">
  <!-- timer top -->
  <circle cx="130.1" cy="3.7" r="4.1"/>
  <!-- whitebackground behind top of clock -->
  <ellipse fill="#FFFFFF" cx="130.6" cy="36.2" rx="34.9" ry="28.3"/>

  <!-- Timer Loop -->
  <path d="M167.5,37.4h-12.3c0-11.7-11.4-21.3-25.2-21.3s-25.2,9.5-25.2,21.3H92.7c0-18.5,16.8-33.5,37.5-33.5
    C150.6,3.8,167.5,18.9,167.5,37.4"/>

    <!-- Clock stem -->
    <!-- background -->
    <rect x="97.7" y="59" fill="#FFFFFF" width="64.8" height="44"/>
    <!-- middle stem -->
    <path d="M97.7,74h64.8v13.7c0,0-37.8-6.5-64.8,0.9C97.7,88.6,97.7,74,97.7,74z"/>
    <!-- bottom stem -->
    <path d="M94,40.3c0,0-13.4,0-13.4,13.4v2.3c0,0,0,13.4,13.4,13.4h72.3c0,0,13.4,0,13.4-13.4v-2.3c0,0,0-13.4-13.4-13.4
      C166.2,40.3,94,40.3,94,40.3z"/>

      <!-- Black timer outline -->
      <circle fill="#FFFFFF" stroke="#000000" stroke-width="30" stroke-miterlimit="10" cx="130.1" cy="220.4" r="114.5"/>
      <!-- Ticker -->
      <!-- Trying to replicate wihtout breaking the path of the line -->


                <path fill="#FFFFFF" stroke="#009245" stroke-width="30" stroke-miterlimit="1" stroke-dasharray="15,5,10,500" id="timer"  stroke-miterlimit="1" stroke-dashoffset="500"  data-bottom="stroke-dashoffset:500; stroke-miterlimit:1;" data-top="stroke-dashoffset:0;stroke-miterlimit:38;"
                  d="M208.2,220 c0,43-34.9,77.9-77.9,77.9S52.3,263,52.3,220c0-42,33.3-76.3,74.9-77.9c1,0,4.5,0,5.3,0C174.5,143.3,208.2,177.7,208.2,220z"/>

                  <circle cx="130.1" cy="220.4" r="48.4" />
                  <!-- timer middle where text will go -->
                  <circle cx="130.1" cy="220.4" r="48.4"/>
                  <text id="text" fill="white" x="124" y="225" font="sans-serif;" font-weight="bold">1</text>

                </svg>
