<svg version="1.1" xmlns="http://www.w3.org/2000/svg" id="Layer_1"  xmlns:xlink="http://www.w3.org/1999/xlink" x="0px" y="0px"
	 width="612px" height="792px" viewBox="0 0 612 792" enable-background="new 0 0 612 792" xml:space="preserve">
<circle cx="305.661" cy="8.373" r="9.278"/>
<ellipse fill="#FFFFFF" cx="306.792" cy="81.915" rx="78.974" ry="64.039"/>
<path d="M390.291,84.631h-27.833c0-26.476-25.796-48.199-57.024-48.199c-31.227,0-57.024,21.497-57.024,48.199h-27.38
	c0-41.863,38.016-75.806,84.857-75.806C352.049,8.599,390.291,42.768,390.291,84.631"/>
<rect x="232.344" y="133.509" fill="#FFFFFF" width="146.634" height="99.565"/>
<path d="M232.344,167.451h146.634v31.001c0,0-85.537-14.708-146.634,2.037V167.451z"/>
<path d="M223.971,91.193c0,0-30.322,0-30.322,30.322v5.204c0,0,0,30.323,30.322,30.323h163.605c0,0,30.322,0,30.322-30.323v-5.204
	c0,0,0-30.322-30.322-30.322C387.35,91.193,223.971,91.193,223.971,91.193z"/>
<g>
	<path fill="#FFFFFF" d="M305.661,772.831c-73.214,0-142.046-28.511-193.816-80.281S31.564,571.948,31.564,498.734
		s28.511-142.046,80.281-193.816c51.77-51.771,120.602-80.281,193.816-80.281s142.045,28.511,193.815,80.281
		c51.771,51.77,80.281,120.602,80.281,193.816s-28.511,142.045-80.281,193.815S378.875,772.831,305.661,772.831z"/>
	<path d="M305.661,239.637c143.095,0,259.097,116.001,259.097,259.097c0,143.095-116.002,259.097-259.097,259.097
		c-143.095,0-259.097-116.002-259.097-259.097C46.564,355.639,162.566,239.637,305.661,239.637 M305.661,209.637
		c-39.015,0-76.878,7.648-112.539,22.731c-34.429,14.562-65.343,35.403-91.883,61.943c-26.541,26.541-47.381,57.455-61.944,91.884
		c-15.083,35.661-22.731,73.524-22.731,112.539s7.648,76.878,22.731,112.539c14.562,34.429,35.403,65.343,61.944,91.883
		c26.541,26.541,57.455,47.382,91.883,61.943c35.661,15.084,73.524,22.731,112.539,22.731s76.878-7.647,112.539-22.731
		c34.429-14.562,65.343-35.402,91.883-61.943c26.541-26.54,47.382-57.454,61.943-91.883c15.083-35.661,22.731-73.524,22.731-112.539
		s-7.648-76.878-22.731-112.539c-14.562-34.429-35.402-65.343-61.943-91.884c-26.54-26.54-57.454-47.381-91.884-61.943
		C382.539,217.285,344.676,209.637,305.661,209.637L305.661,209.637z"/>
</g>
<circle cx="305.661" cy="498.734" r="109.522"/>
<circle cx="305.661" cy="498.734" r="109.522"/>
<text id="text" transform="matrix(1 0 0 1 291.8574 509.1426)" fill="#FFFFFF" font-family="'Arial-BoldMT'" font-size="27.1543">23</text>
<path fill="none" stroke="#009245" stroke-width="30" stroke-miterlimit="29.7863" d="M307.383,311.822
	c102.729,0,186.007,83.278,186.007,186.006c0,102.729-83.278,186.008-186.007,186.008s-186.007-83.278-186.007-186.008
	c0-99.733,78.494-181.134,177.074-185.796"/>
</svg>
