<svg version="1.1" xmlns="http://www.w3.org/2000/svg" id="Layer_1"  xmlns:xlink="http://www.w3.org/1999/xlink" x="0px" y="0px"
	 viewBox="46.5 0 253.5 300" enable-background="new 46.5 0 253.5 300" xml:space="preserve">
<g id="servers">
	<g>
		<g>
			<defs>
				<rect id="SVGID_1_" x="46.5" width="284.2" height="300"/>
			</defs>
			<clipPath id="SVGID_2_">
				<use xlink:href="#SVGID_1_"  overflow="visible"/>
			</clipPath>
			<path clip-path="url(#SVGID_2_)" d="M46.5,290.2c0,5.4,4.4,9.8,9.8,9.8h264.6c5.4,0,9.8-4.4,9.8-9.8v-48.4c0-5.4-4.4-9.8-9.8-9.8
				H56.3c-5.4,0-9.8,4.4-9.8,9.8V290.2z"/>
		</g>
		<g>
			<defs>
				<rect id="SVGID_3_" x="46.5" width="284.2" height="300"/>
			</defs>
			<clipPath id="SVGID_4_">
				<use xlink:href="#SVGID_3_"  overflow="visible"/>
			</clipPath>
			<path clip-path="url(#SVGID_4_)" d="M46.5,212.9c0,5.4,4.4,9.8,9.8,9.8h264.6c5.4,0,9.8-4.4,9.8-9.8v-48.4c0-5.4-4.4-9.8-9.8-9.8
				H56.3c-5.4,0-9.8,4.4-9.8,9.8V212.9z"/>
		</g>
		<g>
			<defs>
				<rect id="SVGID_5_" x="46.5" width="284.2" height="300"/>
			</defs>
			<clipPath id="SVGID_6_">
				<use xlink:href="#SVGID_5_"  overflow="visible"/>
			</clipPath>
			<path clip-path="url(#SVGID_6_)" d="M46.5,135.5c0,5.4,4.4,9.8,9.8,9.8h264.6c5.4,0,9.8-4.4,9.8-9.8V87.1c0-5.4-4.4-9.8-9.8-9.8
				H56.3c-5.4,0-9.8,4.4-9.8,9.8V135.5z"/>
		</g>
		<g>
			<defs>
				<rect id="SVGID_7_" x="46.5" width="284.2" height="300"/>
			</defs>
			<clipPath id="SVGID_8_">
				<use xlink:href="#SVGID_7_"  overflow="visible"/>
			</clipPath>
			<path clip-path="url(#SVGID_8_)" d="M46.5,58.2c0,5.4,4.4,9.8,9.8,9.8h264.6c5.4,0,9.8-4.4,9.8-9.8V9.8c0-5.4-4.4-9.8-9.8-9.8
				H56.3c-5.4,0-9.8,4.4-9.8,9.8V58.2z"/>
		</g>
		<g>
			<defs>
				<rect id="SVGID_9_" x="46.5" width="284.2" height="300"/>
			</defs>
			<clipPath id="SVGID_10_">
				<use xlink:href="#SVGID_9_"  overflow="visible"/>
			</clipPath>
			<path clip-path="url(#SVGID_10_)" fill="#F1F1F1" d="M264.2,255.2c0,3.2-2.6,5.7-5.7,5.7c-3.2,0-5.7-2.6-5.7-5.7
				c0-3.2,2.6-5.7,5.7-5.7C261.6,249.4,264.2,252,264.2,255.2"/>
		</g>
		<g>
			<defs>
				<rect id="SVGID_11_" x="46.5" width="284.2" height="300"/>
			</defs>
			<clipPath id="SVGID_12_">
				<use xlink:href="#SVGID_11_"  overflow="visible"/>
			</clipPath>
			<path clip-path="url(#SVGID_12_)" fill="#F1F1F1" d="M92.3,274.6c0,1.2-0.9,2.1-2.1,2.1H73.1c-1.2,0-2.1-0.9-2.1-2.1v-17.1
				c0-1.2,0.9-2.1,2.1-2.1h17.1c1.2,0,2.1,0.9,2.1,2.1V274.6z"/>
		</g>
		<g>
			<defs>
				<rect id="SVGID_13_" x="46.5" width="284.2" height="300"/>
			</defs>
			<clipPath id="SVGID_14_">
				<use xlink:href="#SVGID_13_"  overflow="visible"/>
			</clipPath>
			<path clip-path="url(#SVGID_14_)" fill="#F1F1F1" d="M264.2,177.8c0,3.2-2.6,5.7-5.7,5.7c-3.2,0-5.7-2.6-5.7-5.7s2.6-5.7,5.7-5.7
				C261.6,172.1,264.2,174.7,264.2,177.8"/>
		</g>
		<g>
			<defs>
				<rect id="SVGID_15_" x="46.5" width="284.2" height="300"/>
			</defs>
			<clipPath id="SVGID_16_">
				<use xlink:href="#SVGID_15_"  overflow="visible"/>
			</clipPath>
			<path clip-path="url(#SVGID_16_)" fill="#F1F1F1" d="M92.3,197.2c0,1.2-0.9,2.1-2.1,2.1H73.1c-1.2,0-2.1-0.9-2.1-2.1v-17.1
				c0-1.2,0.9-2.1,2.1-2.1h17.1c1.2,0,2.1,0.9,2.1,2.1V197.2z"/>
		</g>
		<g>
			<defs>
				<rect id="SVGID_17_" x="46.5" width="284.2" height="300"/>
			</defs>
			<clipPath id="SVGID_18_">
				<use xlink:href="#SVGID_17_"  overflow="visible"/>
			</clipPath>
			<path clip-path="url(#SVGID_18_)" fill="#F1F1F1" d="M264.2,100.5c0,3.2-2.6,5.7-5.7,5.7c-3.2,0-5.7-2.6-5.7-5.7
				c0-3.2,2.6-5.7,5.7-5.7C261.6,94.7,264.2,97.3,264.2,100.5"/>
		</g>
		<g>
			<defs>
				<rect id="SVGID_19_" x="46.5" width="284.2" height="300"/>
			</defs>
			<clipPath id="SVGID_20_">
				<use xlink:href="#SVGID_19_"  overflow="visible"/>
			</clipPath>
			<path clip-path="url(#SVGID_20_)" fill="#F1F1F1" d="M92.3,119.9c0,1.2-0.9,2.1-2.1,2.1H73.1c-1.2,0-2.1-0.9-2.1-2.1v-17.1
				c0-1.2,0.9-2.1,2.1-2.1h17.1c1.2,0,2.1,0.9,2.1,2.1V119.9z"/>
		</g>
		<g>
			<defs>
				<rect id="SVGID_21_" x="46.5" width="284.2" height="300"/>
			</defs>
			<clipPath id="SVGID_22_">
				<use xlink:href="#SVGID_21_"  overflow="visible"/>
			</clipPath>
			<path clip-path="url(#SVGID_22_)" fill="#F1F1F1" d="M264.2,23.1c0,3.2-2.6,5.7-5.7,5.7c-3.2,0-5.7-2.6-5.7-5.7s2.6-5.7,5.7-5.7
				C261.6,17.4,264.2,20,264.2,23.1"/>
		</g>
		<g>
			<defs>
				<rect id="SVGID_23_" x="46.5" width="284.2" height="300"/>
			</defs>
			<clipPath id="SVGID_24_">
				<use xlink:href="#SVGID_23_"  overflow="visible"/>
			</clipPath>
			<path clip-path="url(#SVGID_24_)" fill="#F1F1F1" d="M92.3,42.5c0,1.2-0.9,2.1-2.1,2.1H73.1c-1.2,0-2.1-0.9-2.1-2.1V25.5
				c0-1.2,0.9-2.1,2.1-2.1h17.1c1.2,0,2.1,0.9,2.1,2.1V42.5z"/>
		</g>
	</g>
</g>
<g id="Layer_1_1_">
</g>
</svg>
