<?xml version="1.0" encoding="utf-8"?>
<!-- Generator: Adobe Illustrator 18.1.0, SVG Export Plug-In . SVG Version: 6.00 Build 0)  -->
<svg version="1.1" id="Layer_1" xmlns="http://www.w3.org/2000/svg" xmlns:xlink="http://www.w3.org/1999/xlink" x="0px" y="0px"
	 width="189.1px" height="200px" viewBox="-40 77 189.1 200" enable-background="new -40 77 189.1 200" xml:space="preserve">
<g id="servers">
	<path fill="#CCCCCC" d="M148.9,238.1c0-1.8-0.7-3.4-1.8-4.6c-1.2-1.2-2.8-2-4.6-2h-176c-1.8,0-3.4,0.7-4.6,2c-1.2,1.2-2,2.8-2,4.6
		v32.1c0,1.8,0.7,3.4,2,4.6c0.5,0.5,1.1,1.1,1.8,1.4l0.2,0.2c0.7,0.4,1.4,0.5,2.3,0.5c0.2,0,0.2,0,0.4,0h176.1c1.8,0,3.4-0.7,4.6-2
		c1.2-1.2,1.8-2.8,1.8-4.6v-32.2 M98.3,249.6c-0.7-0.7-1.1-1.6-1.1-2.7s0.4-2,1.1-2.7s1.6-1.2,2.7-1.2s2,0.4,2.7,1.2
		c0.7,0.7,1.2,1.6,1.2,2.7c0,1.1-0.4,2-1.2,2.7c-0.7,0.7-1.6,1.1-2.7,1.1C99.9,250.7,99.1,250.4,98.3,249.6 M112.8,247
		c0-1.1,0.4-2,1.1-2.7s1.6-1.2,2.7-1.2s2,0.4,2.7,1.2c0.7,0.7,1.2,1.6,1.2,2.7s-0.4,2-1.2,2.7c-0.7,0.7-1.6,1.1-2.7,1.1
		s-2-0.4-2.7-1.1C113.2,248.9,112.8,247.9,112.8,247 M131.1,243.1c1.1,0,2,0.4,2.7,1.2c0.7,0.7,1.1,1.6,1.1,2.7c0,1.1-0.4,2-1.1,2.7
		s-1.8,1.1-2.7,1.1c-1.1,0-2-0.4-2.7-1.1c-0.7-0.7-1.1-1.6-1.1-2.7c0-1.1,0.4-2,1.1-2.7C129.1,243.4,129.8,243.1,131.1,243.1
		 M-10.9,247c0.4,0,0.7,0.2,1.1,0.4s0.4,0.5,0.4,0.9v11.4c0,0.9-0.5,1.4-1.4,1.4h-11.4c-0.9,0-1.4-0.5-1.4-1.4v-11.4
		c0-0.9,0.5-1.4,1.4-1.4h11.4 M147.2,182c-1.2-1.2-2.8-2-4.6-2h-176c-1.8,0-3.4,0.7-4.6,2c-1.2,1.2-2,2.8-2,4.6v32.1
		c0,1.8,0.7,3.4,2,4.6c1.2,1.2,2.8,1.8,4.6,1.8h176.1c1.8,0,3.4-0.5,4.6-1.8c1.2-1.2,1.8-2.8,1.8-4.6v-32.1
		C148.9,184.8,148.4,183.2,147.2,182 M127.1,195.5c0-1.1,0.4-2,1.1-2.7s1.6-1.1,2.7-1.1s2,0.4,2.7,1.1s1.1,1.6,1.1,2.7
		c0,1.1-0.4,2-1.1,2.7c-0.7,0.7-1.8,1.2-2.7,1.2c-1.1,0-2-0.4-2.7-1.2C127.4,197.4,127.1,196.5,127.1,195.5 M116.6,191.6
		c1.1,0,2,0.4,2.7,1.1s1.2,1.6,1.2,2.7c0,1.1-0.4,2-1.2,2.7c-0.7,0.7-1.6,1.2-2.7,1.2s-2-0.4-2.7-1.2c-0.7-0.7-1.1-1.6-1.1-2.7
		c0-1.1,0.4-2,1.1-2.7C114.8,192.1,115.6,191.6,116.6,191.6 M101.1,191.6c1.1,0,2,0.4,2.7,1.1s1.2,1.6,1.2,2.7c0,1.1-0.4,2-1.2,2.7
		c-0.7,0.7-1.6,1.2-2.7,1.2s-2-0.4-2.7-1.2c-0.7-0.7-1.1-1.6-1.1-2.7c0-1.1,0.4-2,1.1-2.7C99.1,192.1,99.9,191.6,101.1,191.6
		 M-9.5,208.3c0,0.9-0.5,1.4-1.4,1.4h-11.4c-0.9,0-1.4-0.5-1.4-1.4v-11.4c0-0.9,0.5-1.4,1.4-1.4h11.4c0.9,0,1.4,0.5,1.4,1.4
		L-9.5,208.3 M-33.5,128.6c-1.8,0-3.4,0.7-4.6,2c-1.2,1.2-2,2.7-2,4.3v32.5c0,1.8,0.7,3.2,2,4.4c1.2,1.2,2.7,1.8,4.3,2h176.3
		c1.8,0,3.4-0.7,4.6-2c1.2-1.2,1.8-2.8,1.8-4.6v-32.4c0-1.8-0.7-3.2-1.8-4.4c-1.2-1.2-2.8-2-4.6-2h-176 M-10.9,144
		c0.9,0,1.4,0.5,1.4,1.4v11.4c0,0.4-0.2,0.7-0.4,1.1c-0.2,0.4-0.5,0.4-1.1,0.4h-11.4c-0.4,0-0.7-0.2-0.9-0.4
		c-0.4-0.4-0.4-0.5-0.4-1.1v-11.3c0-0.9,0.5-1.4,1.4-1.4h11.4 M103.6,141.2c0.7,0.7,1.2,1.6,1.2,2.7c0,1.1-0.4,2-1.2,2.7
		c-0.7,0.7-1.6,1.1-2.7,1.1c-1.1,0-2-0.4-2.7-1.1s-1.1-1.6-1.1-2.7c0-1.1,0.4-2,1.1-2.7c0.7-0.7,1.6-1.1,2.7-1.1
		C102.1,140.1,102.9,140.5,103.6,141.2 M113.9,146.5c-0.7-0.7-1.1-1.6-1.1-2.7c0-1.1,0.4-2,1.1-2.7s1.6-1.1,2.7-1.1s2,0.4,2.7,1.1
		s1.2,1.6,1.2,2.7c0,1.1-0.4,2-1.2,2.7c-0.7,0.7-1.6,1.1-2.7,1.1C115.6,147.8,114.8,147.2,113.9,146.5 M128.3,141.2
		c0.7-0.7,1.6-1.1,2.7-1.1s2,0.4,2.7,1.1s1.1,1.6,1.1,2.7c0,1.1-0.4,2-1.1,2.7s-1.8,1.1-2.7,1.1c-1.1,0-2-0.4-2.7-1.1
		s-1.1-1.6-1.1-2.7C127.1,142.8,127.4,141.9,128.3,141.2 M-33.5,77.1c-1.8,0-3.4,0.7-4.6,2c-1.2,1.2-2,2.7-2,4.4V116
		c0,1.8,0.7,3.2,2,4.4c1.2,1.2,2.8,2,4.6,2h176.1c1.8,0,3.4-0.5,4.6-2c1.2-1.2,1.8-2.8,1.8-4.6V83.5c0-1.8-0.7-3.4-1.8-4.6
		c-0.7-0.7-1.4-1.1-2.1-1.4c-0.7-0.4-1.6-0.5-2.5-0.5L-33.5,77.1 M-9.5,94.1v11.4c0,0.9-0.5,1.4-1.4,1.4h-11.4
		c-0.9,0-1.4-0.4-1.4-1.4V94.1c0-0.9,0.5-1.4,1.4-1.4h11.4C-10,92.7-9.5,93.1-9.5,94.1 M131.1,96.3c-1.1,0-2-0.4-2.7-1.1
		c-0.7-0.7-1.1-1.6-1.1-2.8c0-1.1,0.4-2,1.1-2.7c0.7-0.7,1.6-1.1,2.7-1.1s2,0.4,2.7,1.1c0.7,0.7,1.1,1.6,1.1,2.7
		c0,1.1-0.4,2-1.1,2.8C132.9,95.9,131.9,96.3,131.1,96.3 M119.3,89.7c0.7,0.7,1.2,1.6,1.2,2.7s-0.4,2-1.2,2.8
		c-0.7,0.7-1.6,1.1-2.7,1.1s-2-0.4-2.7-1.1c-0.7-0.7-1.1-1.6-1.1-2.8c0-1.1,0.4-2,1.1-2.7c0.7-0.7,1.6-1.1,2.7-1.1
		C117.8,88.6,118.6,89,119.3,89.7 M101.1,88.6c1.1,0,2,0.4,2.7,1.1c0.7,0.7,1.2,1.6,1.2,2.7s-0.4,2-1.2,2.8
		c-0.7,0.7-1.6,1.1-2.7,1.1s-2-0.4-2.7-1.1c-0.7-0.7-1.1-1.6-1.1-2.8c0-1.1,0.4-2,1.1-2.7C99.1,89,99.9,88.6,101.1,88.6z"/>
</g>
<g id="Layer_1_1_">
</g>
</svg>
