<svg version="1.1" id="Layer_1" xmlns="http://www.w3.org/2000/svg" xmlns:xlink="http://www.w3.org/1999/xlink" x="0px" y="0px"
	 viewBox="-373.5 -18.5 805 92" enable-background="new -373.5 -18.5 805 92" xml:space="preserve">
<g transform="matrix( 1, 0, 0, 1, -114.85,-581.95) ">
	<g>
		<g id="Layer0_0_FILL">
			<path d="M276.6,649.5c0-0.7-0.2-1.1-0.7-1.5c-0.4-0.4-1-0.7-1.5-0.7h-58.7c-0.6,0-1.1,0.2-1.5,0.7c-0.4,0.4-0.7,1-0.7,1.5v5.8
				h5.5V653c0-0.3,0.1-0.6,0.4-0.6h3.9c0.3,0,0.6,0.2,0.6,0.6v2.3h52.8L276.6,649.5 M260.4,653.8c-0.3,0-0.7-0.1-0.9-0.4
				c-0.2-0.2-0.3-0.6-0.3-0.9s0.1-0.7,0.3-0.9c0.2-0.2,0.6-0.3,0.9-0.3s0.7,0.1,0.9,0.3c0.2,0.2,0.4,0.6,0.4,0.9
				c0,0.3-0.1,0.7-0.4,0.9C261.1,653.7,260.8,653.8,260.4,653.8 M266.6,653.4c-0.2,0.2-0.6,0.4-0.9,0.4s-0.7-0.1-0.9-0.4
				c-0.2-0.2-0.4-0.6-0.4-0.9s0.1-0.7,0.4-0.9c0.2-0.2,0.6-0.3,0.9-0.3s0.7,0.1,0.9,0.3c0.2,0.2,0.4,0.6,0.4,0.9
				C267,652.9,266.8,653.1,266.6,653.4 M270.5,651.3c0.3,0,0.7,0.1,0.9,0.3c0.2,0.2,0.3,0.6,0.3,0.9c0,0.3-0.1,0.7-0.3,0.9
				c-0.2,0.2-0.6,0.4-0.9,0.4s-0.7-0.1-1-0.4c-0.2-0.2-0.3-0.6-0.3-0.9s0.1-0.7,0.3-0.9C269.7,651.4,270.1,651.3,270.5,651.3
				 M275.9,630.9c-0.4-0.4-1-0.7-1.5-0.7h-58.7c-0.6,0-1.1,0.2-1.5,0.7c-0.4,0.4-0.7,1-0.7,1.5v10.7c0,0.6,0.2,1.1,0.7,1.5
				c0.4,0.4,0.9,0.6,1.5,0.6h58.7c0.7,0,1.1-0.2,1.5-0.6c0.4-0.4,0.7-0.9,0.7-1.5v-10.7C276.6,631.8,276.4,631.3,275.9,630.9
				 M269.5,634.5c0.2-0.2,0.6-0.3,1-0.3s0.7,0.1,0.9,0.3c0.2,0.2,0.3,0.6,0.3,0.9s-0.1,0.7-0.3,0.9s-0.6,0.3-0.9,0.3s-0.7-0.1-1-0.3
				c-0.2-0.2-0.3-0.6-0.3-0.9S269.3,634.7,269.5,634.5 M260.4,636.5c-0.3,0-0.7-0.1-0.9-0.3s-0.3-0.6-0.3-0.9s0.1-0.7,0.3-0.9
				c0.2-0.2,0.6-0.3,0.9-0.3s0.7,0.1,0.9,0.3c0.2,0.2,0.4,0.6,0.4,0.9s-0.1,0.7-0.4,0.9C261.1,636.4,260.8,636.5,260.4,636.5
				 M266.6,636.2c-0.2,0.2-0.6,0.3-0.9,0.3s-0.7-0.1-0.9-0.3s-0.4-0.6-0.4-0.9s0.1-0.7,0.4-0.9c0.2-0.2,0.6-0.3,0.9-0.3
				s0.7,0.1,0.9,0.3c0.2,0.2,0.4,0.6,0.4,0.9S266.8,636,266.6,636.2 M223.6,639.6c0,0.3-0.2,0.6-0.6,0.6h-3.7
				c-0.3,0-0.4-0.1-0.4-0.6v-3.9c0-0.3,0.1-0.4,0.4-0.4h3.9c0.3,0,0.6,0.1,0.6,0.4v3.9 M276.6,615.2c0-0.7-0.2-1.1-0.7-1.5
				c-0.4-0.4-1-0.7-1.5-0.7h-58.7c-0.6,0-1.1,0.2-1.5,0.7c-0.4,0.4-0.7,1-0.7,1.5V626c0,0.6,0.2,1.1,0.7,1.5c0.4,0.4,1,0.7,1.5,0.7
				h58.7c0.6,0,1.1-0.2,1.5-0.7c0.4-0.4,0.7-0.9,0.7-1.5V615.2 M261.3,617.2c0.2,0.2,0.4,0.6,0.4,0.9s-0.1,0.7-0.4,0.9
				c-0.2,0.2-0.6,0.4-0.9,0.4s-0.7-0.1-0.9-0.4c-0.2-0.2-0.3-0.6-0.3-0.9c0-0.3,0.1-0.7,0.3-0.9c0.2-0.2,0.6-0.4,0.9-0.4
				C260.8,616.8,261.1,617,261.3,617.2 M266.6,619c-0.2,0.2-0.6,0.4-0.9,0.4s-0.7-0.1-0.9-0.4c-0.2-0.2-0.4-0.6-0.4-0.9
				c0-0.3,0.1-0.7,0.4-0.9c0.2-0.2,0.6-0.4,0.9-0.4s0.7,0.1,0.9,0.4c0.2,0.3,0.4,0.6,0.4,0.9C267,618.5,266.8,618.8,266.6,619
				 M271.4,617.2c0.2,0.2,0.3,0.6,0.3,0.9s-0.1,0.7-0.3,0.9c-0.2,0.2-0.6,0.4-0.9,0.4s-0.7-0.1-1-0.4c-0.2-0.2-0.3-0.6-0.3-0.9
				c0-0.3,0.1-0.7,0.3-0.9c0.2-0.2,0.6-0.4,1-0.4S271.1,617,271.4,617.2 M219.3,623c-0.3,0-0.4-0.1-0.4-0.4v-3.9
				c0-0.3,0.1-0.4,0.4-0.4h3.9c0.3,0,0.6,0.1,0.6,0.4v3.9c0,0.3-0.2,0.4-0.6,0.4H219.3 M275.9,596.4c-0.4-0.4-0.9-0.6-1.5-0.6h-58.7
				c-0.7,0-1.1,0.2-1.5,0.6c-0.4,0.4-0.7,1-0.7,1.5v10.7c0,0.7,0.2,1.1,0.7,1.5c0.4,0.4,1,0.7,1.5,0.7h58.7c0.6,0,1.1-0.2,1.5-0.7
				c0.4-0.4,0.7-0.9,0.7-1.5v-10.7C276.6,597.4,276.4,597,275.9,596.4 M269.2,600.9c0-0.3,0.1-0.7,0.3-0.9s0.6-0.3,1-0.3
				s0.7,0.1,0.9,0.3c0.2,0.2,0.3,0.6,0.3,0.9s-0.1,0.7-0.3,1c-0.2,0.2-0.6,0.3-0.9,0.3s-0.7-0.1-1-0.3
				C269.3,601.7,269.2,601.4,269.2,600.9 M261.3,600.1c0.2,0.2,0.4,0.6,0.4,0.9s-0.1,0.7-0.4,1c-0.2,0.2-0.6,0.3-0.9,0.3
				s-0.7-0.1-0.9-0.3s-0.3-0.6-0.3-1c0-0.3,0.1-0.7,0.3-0.9c0.2-0.2,0.6-0.3,0.9-0.3C260.8,599.7,261.1,599.8,261.3,600.1
				 M266.6,601.9c-0.2,0.2-0.6,0.3-0.9,0.3s-0.7-0.1-0.9-0.3s-0.4-0.6-0.4-1c0-0.3,0.1-0.7,0.4-0.9c0.2-0.2,0.6-0.3,0.9-0.3
				s0.7,0.1,0.9,0.3c0.2,0.2,0.4,0.6,0.4,0.9C267,601.4,266.8,601.7,266.6,601.9 M223.6,601.5v3.9c0,0.3-0.2,0.4-0.6,0.4h-3.7
				c-0.3,0-0.4-0.1-0.4-0.4v-3.9c0-0.3,0.1-0.6,0.4-0.6h3.9C223.5,601.1,223.6,601.2,223.6,601.5 M74.7,649.5c0-0.6-0.2-1.1-0.7-1.5
				c-0.4-0.4-0.9-0.7-1.5-0.7H13.8c-0.6,0-1.1,0.2-1.5,0.7c-0.4,0.5-0.6,0.9-0.6,1.5v5.8h5.5V653c0-0.3,0.1-0.6,0.4-0.6h3.9
				c0.3,0,0.4,0.2,0.4,0.6v2.3h52.8V649.5 M60,652.5c0,0.3-0.1,0.7-0.3,0.9c-0.2,0.2-0.6,0.4-0.9,0.4c-0.3,0-0.7-0.1-0.9-0.4
				c-0.2-0.2-0.4-0.6-0.4-0.9s0.1-0.7,0.4-0.9c0.2-0.2,0.6-0.3,0.9-0.3c0.3,0,0.7,0.1,0.9,0.3C59.8,651.9,60,652.1,60,652.5
				 M65.2,652.5c0,0.3-0.1,0.7-0.3,0.9c-0.2,0.2-0.6,0.4-0.9,0.4s-0.7-0.1-0.9-0.4c-0.2-0.2-0.4-0.6-0.4-0.9s0.1-0.7,0.4-0.9
				c0.2-0.2,0.6-0.3,0.9-0.3s0.7,0.1,0.9,0.3C65.1,651.9,65.2,652.1,65.2,652.5 M69.6,651.6c0.2,0.2,0.4,0.6,0.4,0.9
				c0,0.3-0.1,0.7-0.4,0.9c-0.2,0.2-0.6,0.4-0.9,0.4s-0.7-0.1-0.9-0.4c-0.2-0.2-0.4-0.6-0.4-0.9s0.1-0.7,0.4-0.9
				c0.2-0.2,0.6-0.3,0.9-0.3C69.1,651.3,69.4,651.4,69.6,651.6 M74.7,632.4c0-0.6-0.2-1.1-0.7-1.5c-0.4-0.4-0.9-0.7-1.5-0.7H13.8
				c-0.6,0-1.1,0.2-1.5,0.7c-0.4,0.4-0.6,0.9-0.6,1.5v10.7c0,0.7,0.2,1.1,0.6,1.5c0.4,0.4,1,0.6,1.5,0.6h58.7c0.7,0,1.1-0.2,1.5-0.6
				c0.4-0.4,0.7-1,0.7-1.5V632.4 M67.9,634.5c0.2-0.2,0.6-0.3,0.9-0.3s0.7,0.1,0.9,0.3c0.2,0.2,0.4,0.6,0.4,0.9s-0.1,0.7-0.4,0.9
				c-0.2,0.2-0.6,0.3-0.9,0.3s-0.7-0.1-0.9-0.3c-0.2-0.2-0.4-0.6-0.4-0.9S67.7,634.7,67.9,634.5 M60,635.3c0,0.3-0.1,0.7-0.3,0.9
				s-0.6,0.3-0.9,0.3c-0.3,0-0.7-0.1-0.9-0.3c-0.2-0.2-0.4-0.6-0.4-0.9s0.1-0.7,0.4-0.9c0.2-0.2,0.6-0.3,0.9-0.3
				c0.3,0,0.7,0.1,0.9,0.3C59.8,634.7,60,635,60,635.3 M65.2,635.3c0,0.3-0.1,0.7-0.3,0.9s-0.6,0.3-0.9,0.3s-0.7-0.1-0.9-0.3
				c-0.2-0.2-0.4-0.6-0.4-0.9s0.1-0.7,0.4-0.9c0.2-0.2,0.6-0.3,0.9-0.3s0.7,0.1,0.9,0.3C65.1,634.7,65.2,635,65.2,635.3 M17.2,639.6
				v-3.9c0-0.3,0.1-0.4,0.4-0.4h3.9c0.3,0,0.4,0.1,0.4,0.4v3.9c0,0.3-0.1,0.6-0.4,0.6h-3.8C17.3,640,17.2,639.9,17.2,639.6
				 M83.4,632.4c-0.9,0.9-1.2,1.9-1.2,3.1v19.9h124v-19.9c0-1.2-0.4-2.2-1.3-3.1c-0.9-0.9-1.9-1.3-3.1-1.3H86.4
				C85.3,631.2,84.3,631.7,83.4,632.4 M93.1,641.7c0.2-0.2,0.4-0.2,0.7-0.2h7.5c0.6,0,0.9,0.3,0.9,0.9v7.5c0,0.7-0.3,1-0.9,1h-7.5
				c-0.7,0-1-0.3-1-1v-7.6C92.8,642,92.9,641.8,93.1,641.7 M184.8,638.7c0.7,0,1.3,0.2,1.8,0.8c0.4,0.4,0.8,1.1,0.8,1.8
				s-0.2,1.3-0.8,1.8c-0.4,0.6-1.1,0.8-1.8,0.8s-1.3-0.2-1.9-0.8c-0.4-0.4-0.7-1.1-0.7-1.8s0.2-1.3,0.7-1.8
				C183.5,639,184.2,638.7,184.8,638.7 M172.8,639.5c0.4-0.6,1.1-0.8,1.8-0.8s1.3,0.2,1.8,0.8c0.4,0.4,0.8,1.1,0.8,1.8
				s-0.2,1.3-0.8,1.8c-0.6,0.6-1.1,0.8-1.8,0.8s-1.3-0.2-1.8-0.8c-0.4-0.4-0.7-1.1-0.7-1.8C172.2,640.6,172.4,640,172.8,639.5
				 M192.5,639.5c0.4-0.6,1.1-0.8,1.8-0.8s1.3,0.2,1.8,0.8c0.6,0.4,0.8,1.1,0.8,1.8s-0.2,1.3-0.8,1.8c-0.4,0.6-1.1,0.8-1.8,0.8
				s-1.3-0.2-1.8-0.8c-0.6-0.4-0.8-1.1-0.8-1.8C191.8,640.6,192,640,192.5,639.5 M74.7,615.2c0-0.6-0.2-1.1-0.7-1.5
				c-0.4-0.4-0.9-0.7-1.5-0.7H13.8c-0.6,0-1.1,0.2-1.5,0.7c-0.4,0.4-0.6,0.9-0.6,1.5V626c0,0.6,0.2,1.1,0.6,1.5
				c0.4,0.4,1,0.7,1.5,0.7h58.7c0.6,0,1.1-0.2,1.5-0.7c0.4-0.4,0.7-0.9,0.7-1.5V615.2 M65.2,618.1c0,0.3-0.1,0.7-0.3,0.9
				c-0.2,0.2-0.6,0.4-0.9,0.4s-0.7-0.1-0.9-0.4c-0.2-0.2-0.4-0.6-0.4-0.9c0-0.3,0.1-0.7,0.4-0.9c0.2-0.2,0.6-0.4,0.9-0.4
				s0.7,0.1,0.9,0.4C65.1,617.5,65.2,617.8,65.2,618.1 M60,618.1c0,0.3-0.1,0.7-0.3,0.9c-0.2,0.2-0.6,0.4-0.9,0.4
				c-0.3,0-0.7-0.1-0.9-0.4c-0.2-0.2-0.4-0.6-0.4-0.9c0-0.3,0.1-0.7,0.4-0.9c0.2-0.2,0.6-0.4,0.9-0.4c0.3,0,0.7,0.1,0.9,0.4
				C59.8,617.5,60,617.8,60,618.1 M69.6,617.2c0.2,0.2,0.4,0.6,0.4,0.9s-0.1,0.7-0.4,0.9c-0.2,0.2-0.6,0.4-0.9,0.4s-0.7-0.1-0.9-0.4
				c-0.2-0.2-0.4-0.6-0.4-0.9c0-0.3,0.1-0.7,0.4-0.9c0.2-0.2,0.6-0.4,0.9-0.4C69.1,616.8,69.4,617,69.6,617.2 M17.7,618.2h3.9
				c0.3,0,0.4,0.1,0.4,0.4v3.9c0,0.3-0.1,0.4-0.4,0.4h-3.9c-0.3,0-0.4-0.1-0.4-0.4v-3.9C17.2,618.3,17.3,618.2,17.7,618.2 M74.7,598
				c0-0.6-0.2-1.1-0.7-1.5c-0.4-0.4-0.9-0.6-1.5-0.6H13.8c-0.6,0-1.1,0.2-1.5,0.6s-0.6,1-0.6,1.5v10.7c0,0.7,0.2,1.1,0.6,1.5
				c0.4,0.4,1,0.7,1.5,0.7h58.7c0.7,0,1.1-0.2,1.5-0.7c0.4-0.4,0.7-0.9,0.7-1.5V598 M70,600.9c0,0.3-0.1,0.7-0.4,1
				c-0.2,0.2-0.6,0.3-0.9,0.3s-0.7-0.1-0.9-0.3c-0.2-0.2-0.4-0.6-0.4-1c0-0.3,0.1-0.7,0.4-0.9c0.2-0.2,0.6-0.3,0.9-0.3
				s0.7,0.1,0.9,0.3C69.9,600.4,70,600.6,70,600.9 M65.2,600.9c0,0.3-0.1,0.7-0.3,1c-0.2,0.2-0.6,0.3-0.9,0.3s-0.7-0.1-0.9-0.3
				c-0.2-0.2-0.4-0.6-0.4-1c0-0.3,0.1-0.7,0.4-0.9c0.2-0.2,0.6-0.3,0.9-0.3s0.7,0.1,0.9,0.3C65.1,600.4,65.2,600.6,65.2,600.9
				 M58.7,602.3c-0.3,0-0.7-0.1-0.9-0.3c-0.2-0.2-0.4-0.6-0.4-1c0-0.3,0.1-0.7,0.4-0.9c0.2-0.2,0.6-0.3,0.9-0.3
				c0.3,0,0.7,0.1,0.9,0.3c0.2,0.2,0.3,0.6,0.3,0.9s-0.1,0.7-0.3,1C59.4,602.2,59.1,602.3,58.7,602.3 M22,601.5v3.9
				c0,0.3-0.1,0.4-0.4,0.4h-3.9c-0.3,0-0.4-0.1-0.4-0.4v-3.9c0-0.3,0.1-0.6,0.4-0.6h3.9C21.7,601.1,22,601.2,22,601.5 M86.4,597.4
				c-1.2,0-2.2,0.4-3.1,1.3c-0.9,0.9-1.2,1.9-1.2,3.1v21.1c0,1.2,0.4,2.2,1.2,3.1c0.8,0.9,1.9,1.3,3.1,1.3h115.4
				c1.2,0,2.2-0.4,3.1-1.3c0.9-0.9,1.3-1.9,1.3-3.1v-21.3c0-1.2-0.4-2.2-1.3-3.1c-0.9-0.9-1.9-1.3-3.1-1.3H86.4 M102.1,615.9
				c0,0.7-0.3,0.9-0.9,0.9h-7.5c-0.7,0-1-0.3-1-0.9v-7.5c0-0.2,0.1-0.4,0.2-0.6c0.2-0.2,0.4-0.2,0.7-0.2h7.5c0.6,0,0.9,0.3,0.9,0.9
				L102.1,615.9 M196,605.8c0.6,0.6,0.8,1.1,0.8,1.8c0,0.7-0.2,1.3-0.8,1.8c-0.4,0.4-1.1,0.7-1.8,0.7s-1.3-0.2-1.8-0.7
				c-0.6-0.4-0.8-1.1-0.8-1.8c0-0.7,0.2-1.3,0.8-1.8c0.4-0.4,1.1-0.8,1.8-0.8S195.4,605.3,196,605.8 M187.4,607.5
				c0,0.7-0.2,1.3-0.8,1.8c-0.4,0.4-1.1,0.7-1.8,0.7s-1.3-0.2-1.9-0.7c-0.4-0.4-0.7-1.1-0.7-1.8c0-0.7,0.2-1.3,0.7-1.8
				c0.6-0.4,1.1-0.8,1.9-0.8c0.8,0,1.3,0.2,1.8,0.8C187,606.3,187.4,606.9,187.4,607.5 M177.1,607.5c0,0.7-0.2,1.3-0.8,1.8
				c-0.6,0.4-1.1,0.7-1.8,0.7s-1.3-0.2-1.8-0.7c-0.4-0.4-0.7-1.1-0.7-1.8c0-0.7,0.2-1.3,0.7-1.8c0.4-0.4,1.1-0.8,1.8-0.8
				c0.8,0,1.3,0.2,1.8,0.8C176.8,606.3,177.1,606.9,177.1,607.5 M206.1,568c0-1.2-0.4-2.2-1.3-3.1c-0.9-0.9-1.9-1.3-3.1-1.3H86.4
				c-1.2,0-2.2,0.4-3.1,1.3c-0.9,0.9-1.2,1.9-1.2,3.1v21.1c0,1.2,0.4,2.2,1.2,3.1c0.9,0.9,1.9,1.2,3.1,1.2h115.4
				c1.2,0,2.2-0.4,3.1-1.2c0.9-0.9,1.3-1.9,1.3-3.1L206.1,568 M183,572.1c0.6-0.4,1.1-0.7,1.9-0.7c0.8,0,1.3,0.2,1.8,0.7
				c0.4,0.6,0.8,1.1,0.8,1.9c0,0.8-0.2,1.3-0.8,1.8c-0.4,0.4-1.1,0.8-1.8,0.8s-1.3-0.2-1.9-0.8c-0.4-0.4-0.7-1.1-0.7-1.8
				C182.3,573.2,182.5,572.6,183,572.1 M172.8,572.1c0.4-0.4,1.1-0.7,1.8-0.7c0.8,0,1.3,0.2,1.8,0.7c0.4,0.6,0.8,1.1,0.8,1.9
				c0,0.8-0.2,1.3-0.8,1.8c-0.6,0.4-1.1,0.8-1.8,0.8s-1.3-0.2-1.8-0.8c-0.4-0.4-0.7-1.1-0.7-1.8
				C172.2,573.2,172.4,572.6,172.8,572.1 M192.5,572.1c0.4-0.4,1.1-0.7,1.8-0.7s1.3,0.2,1.8,0.7c0.6,0.6,0.8,1.1,0.8,1.9
				c0,0.8-0.2,1.3-0.8,1.8c-0.4,0.4-1.1,0.8-1.8,0.8s-1.3-0.2-1.8-0.8c-0.6-0.4-0.8-1.1-0.8-1.8C191.8,573.2,192,572.6,192.5,572.1
				 M102.1,582.2c0,0.2-0.1,0.4-0.2,0.7c-0.1,0.2-0.3,0.2-0.7,0.2h-7.5c-0.2,0-0.4-0.1-0.7-0.2c-0.2-0.2-0.2-0.4-0.2-0.7v-7.5
				c0-0.2,0.1-0.4,0.2-0.7c0.2-0.2,0.4-0.2,0.7-0.2h7.5c0.2,0,0.4,0.1,0.7,0.2c0.2,0.2,0.3,0.4,0.2,0.7V582.2 M-64.4,635.4
				c0-1.2-0.4-2.2-1.2-3.1c-0.8-0.9-1.9-1.3-3.1-1.3H-184c-1.2,0-2.2,0.4-3.1,1.3c-0.8,0.9-1.2,1.9-1.2,3.1v19.9h123.9V635.4
				 M-85.6,638.7c0.7,0,1.3,0.2,1.8,0.8c0.4,0.4,0.7,1.1,0.7,1.8s-0.2,1.3-0.7,1.8c-0.6,0.6-1.1,0.8-1.8,0.8c-0.7,0-1.3-0.2-1.8-0.8
				c-0.4-0.4-0.7-1.1-0.7-1.8s0.2-1.3,0.7-1.8C-87,639-86.3,638.7-85.6,638.7 M-97.5,639.5c0.4-0.6,1.1-0.8,1.8-0.8
				c0.7,0,1.3,0.2,1.8,0.8c0.6,0.4,0.8,1.1,0.8,1.8s-0.2,1.3-0.8,1.8c-0.4,0.6-1.1,0.8-1.8,0.8c-0.7,0-1.3-0.2-1.8-0.8
				c-0.6-0.4-0.8-1.1-0.8-1.8C-98.3,640.6-98.1,640-97.5,639.5 M-77.9,643.1c-0.6-0.4-0.8-1.1-0.8-1.8s0.2-1.3,0.8-1.8
				c0.4-0.6,1.1-0.8,1.8-0.8c0.7,0,1.3,0.2,1.8,0.8c0.6,0.4,0.8,1.1,0.8,1.8s-0.2,1.3-0.8,1.8c-0.4,0.6-1.1,0.8-1.8,0.8
				C-76.8,643.9-77.5,643.6-77.9,643.1 M-177.6,649.7v-7.5c0-0.6,0.3-0.9,1-0.9h7.5c0.6,0,0.9,0.3,0.9,0.9v7.5c0,0.7-0.3,1-0.9,1
				h-7.5C-177.3,650.7-177.6,650.4-177.6,649.7 M-56.2,630.9c-0.4,0.4-0.7,1-0.7,1.5v10.7c0,0.6,0.2,1.1,0.7,1.5
				c0.4,0.4,0.9,0.6,1.5,0.6H4c0.6,0,1.1-0.2,1.5-0.6c0.4-0.4,0.7-1,0.7-1.5v-10.7c0-0.6-0.2-1.1-0.7-1.5c-0.4-0.4-0.9-0.7-1.5-0.7
				h-58.7C-55.4,630.2-55.8,630.5-56.2,630.9 M-46.9,635.7v3.9c0,0.3-0.1,0.6-0.4,0.6h-3.9c-0.3,0-0.4-0.1-0.4-0.6v-3.9
				c0-0.3,0.1-0.4,0.4-0.4h3.9C-47,635.4-46.9,635.5-46.9,635.7 M1.4,635.3c0,0.3-0.1,0.7-0.4,0.9c-0.2,0.2-0.6,0.3-0.9,0.3
				s-0.7-0.1-0.9-0.3s-0.4-0.6-0.4-0.9s0.1-0.7,0.4-0.9c0.2-0.2,0.6-0.3,0.9-0.3s0.7,0.1,0.9,0.3C1.1,634.7,1.4,635,1.4,635.3
				 M-9.1,634.5c0.2,0.2,0.4,0.6,0.4,0.9s-0.1,0.7-0.4,0.9c-0.2,0.2-0.6,0.3-0.9,0.3c-0.3,0-0.7-0.1-0.9-0.3
				c-0.2-0.2-0.4-0.6-0.4-0.9s0.1-0.7,0.4-0.9c0.2-0.2,0.6-0.3,0.9-0.3C-9.6,634.1-9.3,634.3-9.1,634.5 M-5.7,636.2
				c-0.2-0.2-0.4-0.6-0.4-0.9s0.1-0.7,0.4-0.9c0.2-0.2,0.6-0.3,0.9-0.3c0.3,0,0.7,0.1,1,0.3c0.2,0.2,0.4,0.6,0.4,0.9
				s-0.1,0.7-0.4,0.9c-0.2,0.2-0.6,0.3-1,0.3C-5.1,636.5-5.5,636.4-5.7,636.2 M-51.5,653c0-0.3,0.1-0.6,0.4-0.6h3.9
				c0.3,0,0.4,0.2,0.4,0.6v2.3H6.1v-5.8c0-0.6-0.2-1.1-0.7-1.5c-0.4-0.4-0.9-0.7-1.5-0.7h-58.7c-0.6,0-1.1,0.2-1.5,0.7
				c-0.4,0.4-0.7,1-0.7,1.5v5.8h5.5L-51.5,653 M-8.7,652.5c0,0.3-0.1,0.7-0.4,0.9c-0.2,0.2-0.6,0.4-0.9,0.4c-0.3,0-0.7-0.1-0.9-0.4
				c-0.2-0.2-0.4-0.6-0.4-0.9s0.1-0.7,0.4-0.9c0.2-0.2,0.6-0.3,0.9-0.3c0.3,0,0.7,0.1,0.9,0.3C-8.9,651.9-8.7,652.1-8.7,652.5
				 M-5.7,653.4c-0.2-0.2-0.4-0.6-0.4-0.9s0.1-0.7,0.4-0.9c0.2-0.2,0.6-0.3,0.9-0.3c0.3,0,0.7,0.1,1,0.3c0.2,0.2,0.4,0.6,0.4,0.9
				c0,0.3-0.1,0.7-0.4,0.9c-0.2,0.2-0.6,0.4-1,0.4C-5.1,653.8-5.5,653.7-5.7,653.4 M0,653.8c-0.3,0-0.7-0.1-0.9-0.4
				c-0.2-0.2-0.4-0.6-0.4-0.9s0.1-0.7,0.4-0.9c0.2-0.2,0.6-0.3,0.9-0.3s0.7,0.1,0.9,0.3c0.2,0.2,0.4,0.6,0.4,0.9
				c0,0.3-0.1,0.7-0.4,0.9C0.7,653.7,0.4,653.8,0,653.8 M-56.9,615.2V626c0,0.6,0.2,1.1,0.7,1.5c0.4,0.4,1,0.7,1.5,0.7H4
				c0.6,0,1.1-0.2,1.5-0.7c0.4-0.4,0.7-0.9,0.7-1.5v-10.7c0-0.6-0.2-1.1-0.7-1.5c-0.4-0.4-0.9-0.7-1.5-0.7h-58.7
				c-0.6,0-1.1,0.2-1.5,0.7C-56.8,614.1-56.9,614.6-56.9,615.2 M-46.9,622.5c0,0.3-0.1,0.4-0.4,0.4h-3.9c-0.3,0-0.4-0.1-0.4-0.4
				v-3.9c0-0.3,0.1-0.4,0.4-0.4h3.9c0.3,0,0.4,0.1,0.4,0.4V622.5 M-11.3,618.1c0-0.3,0.1-0.7,0.4-0.9c0.2-0.2,0.6-0.4,0.9-0.4
				c0.3,0,0.7,0.1,0.9,0.4c0.2,0.2,0.4,0.6,0.4,0.9s-0.1,0.7-0.4,0.9c-0.2,0.2-0.6,0.4-0.9,0.4c-0.3,0-0.7-0.1-0.9-0.4
				C-11.1,618.8-11.3,618.5-11.3,618.1 M-3.9,617.2c0.2,0.2,0.4,0.6,0.4,0.9s-0.1,0.7-0.4,0.9c-0.2,0.2-0.6,0.4-1,0.4
				c-0.3,0-0.7-0.1-0.9-0.4c-0.2-0.2-0.4-0.6-0.4-0.9c0-0.3,0.1-0.7,0.4-0.9c0.3-0.2,0.6-0.4,0.9-0.4C-4.5,616.8-4.1,617-3.9,617.2
				 M0,619.4c-0.3,0-0.7-0.1-0.9-0.4c-0.2-0.2-0.4-0.6-0.4-0.9c0-0.3,0.1-0.7,0.4-0.9c0.3-0.2,0.6-0.4,0.9-0.4s0.7,0.1,0.9,0.4
				c0.2,0.3,0.4,0.6,0.4,0.9s-0.1,0.7-0.4,0.9C0.7,619.3,0.4,619.4,0,619.4 M-65.6,598.6c-0.9-0.9-1.9-1.3-3.1-1.3H-184
				c-1.2,0-2.2,0.4-3.1,1.3c-0.8,0.9-1.2,1.9-1.2,3.1v21.1c0,1.2,0.4,2.2,1.2,3.1c0.9,0.9,1.9,1.3,3.1,1.3h115.4
				c1.2,0,2.2-0.4,3.1-1.3c0.9-0.9,1.2-1.9,1.2-3.1v-21.1C-64.4,600.5-64.7,599.5-65.6,598.6 M-74.4,609.4c-0.4,0.4-1.1,0.7-1.8,0.7
				s-1.3-0.2-1.8-0.7c-0.6-0.4-0.8-1.1-0.8-1.8c0-0.7,0.2-1.3,0.8-1.8c0.4-0.4,1.1-0.8,1.8-0.8c0.7,0,1.3,0.2,1.8,0.8
				c0.6,0.6,0.8,1.1,0.8,1.8C-73.6,608.3-73.9,608.9-74.4,609.4 M-83.9,605.8c0.4,0.6,0.7,1.1,0.7,1.8c0,0.7-0.2,1.3-0.7,1.8
				c-0.6,0.4-1.1,0.7-1.8,0.7s-1.3-0.2-1.8-0.7c-0.4-0.4-0.7-1.1-0.7-1.8c0-0.7,0.2-1.3,0.7-1.8c0.5-0.5,1.1-0.8,1.8-0.8
				C-84.9,605-84.3,605.3-83.9,605.8 M-93.3,607.5c0,0.7-0.2,1.3-0.8,1.8c-0.4,0.4-1.1,0.7-1.8,0.7c-0.7,0-1.3-0.2-1.8-0.7
				c-0.6-0.4-0.8-1.1-0.8-1.8c0-0.7,0.2-1.3,0.8-1.8c0.4-0.4,1.1-0.8,1.8-0.8c0.7,0,1.3,0.2,1.8,0.8
				C-93.6,606.3-93.3,606.9-93.3,607.5 M-176.7,607.8h7.5c0.6,0,0.9,0.3,0.9,0.9v7.5c0,0.7-0.3,0.9-0.9,0.9h-7.5c-0.7,0-1-0.3-1-0.9
				v-7.5C-177.6,608-177.3,607.8-176.7,607.8 M-56.2,596.4c-0.4,0.4-0.7,1-0.7,1.5v10.7c0,0.7,0.2,1.1,0.7,1.5
				c0.4,0.4,1,0.7,1.5,0.7H4c0.6,0,1.1-0.2,1.5-0.7c0.4-0.4,0.7-1,0.7-1.5v-10.7c0-0.6-0.2-1.1-0.7-1.5c-0.4-0.4-0.9-0.6-1.5-0.6
				h-58.7C-55.4,595.9-55.9,596.1-56.2,596.4 M-46.9,605.3c0,0.3-0.1,0.4-0.4,0.4h-3.9c-0.3,0-0.4-0.1-0.4-0.4v-3.9
				c0-0.3,0.1-0.6,0.4-0.6h3.9c0.3,0,0.4,0.2,0.4,0.6V605.3 M-11.3,600.9c0-0.3,0.1-0.7,0.4-0.9c0.2-0.2,0.6-0.3,0.9-0.3
				c0.3,0,0.7,0.1,0.9,0.3s0.4,0.6,0.4,0.9s-0.1,0.7-0.4,1c-0.2,0.2-0.6,0.3-0.9,0.3c-0.3,0-0.7-0.1-0.9-0.3
				C-11.1,601.7-11.3,601.4-11.3,600.9 M1.4,600.9c0,0.3-0.1,0.7-0.4,1s-0.6,0.3-0.9,0.3s-0.7-0.1-0.9-0.3s-0.4-0.6-0.4-1
				c0-0.3,0.1-0.7,0.4-0.9s0.6-0.3,0.9-0.3s0.7,0.1,0.9,0.3C1.1,600.3,1.4,600.6,1.4,600.9 M-3.5,600.9c0,0.3-0.1,0.7-0.4,1
				s-0.6,0.3-1,0.3c-0.3,0-0.7-0.1-0.9-0.3s-0.4-0.6-0.4-1c0-0.3,0.1-0.7,0.4-0.9c0.3-0.2,0.6-0.3,0.9-0.3c0.3,0,0.7,0.1,1,0.3
				C-3.6,600.3-3.5,600.6-3.5,600.9 M-258.1,648c-0.4,0.4-0.6,0.9-0.6,1.5v5.8h5.4V653c0-0.3,0.1-0.6,0.4-0.6h3.9
				c0.3,0,0.4,0.2,0.4,0.6v2.3h52.8v-5.8c0-0.7-0.2-1.1-0.6-1.5c-0.4-0.4-1-0.7-1.5-0.7h-58.7C-257.1,647.3-257.7,647.5-258.1,648
				 M-210.4,652.5c0,0.3-0.1,0.7-0.3,0.9c-0.2,0.2-0.6,0.4-0.9,0.4c-0.3,0-0.7-0.1-0.9-0.4c-0.2-0.2-0.4-0.6-0.4-0.9
				s0.1-0.7,0.4-0.9c0.2-0.2,0.6-0.3,0.9-0.3c0.3,0,0.7,0.1,0.9,0.3C-210.5,651.9-210.4,652.1-210.4,652.5 M-205.2,652.5
				c0,0.3-0.1,0.7-0.3,0.9c-0.2,0.2-0.6,0.4-0.9,0.4c-0.3,0-0.7-0.1-0.9-0.4c-0.2-0.2-0.4-0.6-0.4-0.9s0.1-0.7,0.4-0.9
				c0.2-0.2,0.6-0.3,0.9-0.3c0.3,0,0.7,0.1,0.9,0.3C-205.4,651.9-205.2,652.1-205.2,652.5 M-200.4,652.5c0,0.3-0.1,0.7-0.4,0.9
				c-0.2,0.2-0.6,0.4-0.9,0.4c-0.3,0-0.7-0.1-0.9-0.4c-0.2-0.2-0.4-0.6-0.4-0.9s0.1-0.7,0.4-0.9c0.2-0.2,0.6-0.3,0.9-0.3
				c0.3,0,0.7,0.1,0.9,0.3C-200.5,651.9-200.4,652.1-200.4,652.5 M-258.6,632.4v10.7c0,0.7,0.2,1.1,0.6,1.5c0.4,0.4,1,0.6,1.5,0.6
				h58.7c0.7,0,1.1-0.2,1.5-0.6c0.4-0.4,0.6-0.9,0.6-1.5v-10.7c0-0.7-0.2-1.1-0.6-1.5s-1-0.7-1.5-0.7h-58.7c-0.6,0-1.1,0.2-1.5,0.7
				C-258.5,631.3-258.6,631.8-258.6,632.4 M-210.7,634.5c0.2,0.2,0.3,0.6,0.3,0.9s-0.1,0.7-0.3,0.9s-0.6,0.3-0.9,0.3
				c-0.3,0-0.7-0.1-0.9-0.3s-0.4-0.6-0.4-0.9s0.1-0.7,0.4-0.9c0.2-0.2,0.6-0.3,0.9-0.3C-211.3,634.1-211,634.3-210.7,634.5
				 M-248.5,635.7v3.9c0,0.3-0.1,0.6-0.4,0.6h-3.9c-0.3,0-0.4-0.1-0.4-0.6v-3.9c0-0.3,0.1-0.4,0.4-0.4h3.9
				C-248.6,635.4-248.5,635.5-248.5,635.7 M-207.3,634.5c0.2-0.2,0.6-0.3,0.9-0.3c0.3,0,0.7,0.1,0.9,0.3s0.3,0.6,0.3,0.9
				s-0.1,0.7-0.3,0.9s-0.6,0.3-0.9,0.3c-0.3,0-0.7-0.1-0.9-0.3s-0.4-0.6-0.4-0.9S-207.6,634.7-207.3,634.5 M-200.4,635.3
				c0,0.3-0.1,0.7-0.4,0.9c-0.2,0.2-0.6,0.3-0.9,0.3c-0.3,0-0.7-0.1-0.9-0.3c-0.2-0.2-0.4-0.6-0.4-0.9s0.1-0.7,0.4-0.9
				c0.2-0.2,0.6-0.3,0.9-0.3c0.3,0,0.7,0.1,0.9,0.3C-200.5,634.7-200.4,635-200.4,635.3 M-256.6,613.1c-0.6,0-1.1,0.2-1.5,0.7
				c-0.4,0.4-0.6,0.9-0.6,1.5V626c0,0.6,0.2,1.1,0.6,1.5c0.4,0.4,1,0.7,1.5,0.7h58.7c0.6,0,1.1-0.2,1.5-0.7c0.4-0.4,0.6-0.9,0.6-1.5
				v-10.7c0-0.7-0.2-1.1-0.6-1.5c-0.4-0.4-1-0.7-1.5-0.7H-256.6 M-248.5,622.5c0,0.3-0.1,0.4-0.4,0.4h-3.9c-0.3,0-0.4-0.1-0.4-0.4
				v-3.9c0-0.3,0.1-0.4,0.4-0.4h3.9c0.3,0,0.4,0.1,0.4,0.4V622.5 M-211.6,619.4c-0.3,0-0.7-0.1-0.9-0.4c-0.2-0.2-0.4-0.6-0.4-0.9
				c0-0.3,0.1-0.7,0.4-0.9c0.2-0.2,0.6-0.4,0.9-0.4s0.7,0.1,0.9,0.4c0.2,0.2,0.3,0.6,0.3,0.9s-0.1,0.7-0.3,0.9
				C-211,619.3-211.3,619.4-211.6,619.4 M-200.4,618.1c0,0.3-0.1,0.7-0.4,0.9c-0.2,0.2-0.6,0.4-0.9,0.4c-0.3,0-0.7-0.1-0.9-0.4
				c-0.2-0.2-0.4-0.6-0.4-0.9c0-0.3,0.1-0.7,0.4-0.9c0.2-0.2,0.6-0.4,0.9-0.4c0.3,0,0.7,0.1,0.9,0.4
				C-200.5,617.5-200.4,617.8-200.4,618.1 M-205.2,618.1c0,0.3-0.1,0.7-0.3,0.9c-0.2,0.2-0.6,0.4-0.9,0.4c-0.3,0-0.7-0.1-0.9-0.4
				c-0.2-0.2-0.4-0.6-0.4-0.9c0-0.3,0.1-0.7,0.4-0.9c0.2-0.2,0.6-0.4,0.9-0.4c0.3,0,0.7,0.1,0.9,0.4
				C-205.4,617.5-205.2,617.8-205.2,618.1 M-258.6,598v10.7c0,0.7,0.2,1.1,0.6,1.5c0.4,0.4,1,0.7,1.5,0.7h58.7
				c0.6,0,1.1-0.2,1.5-0.7c0.4-0.4,0.6-0.9,0.6-1.5V598c0-0.6-0.2-1.1-0.6-1.5c-0.4-0.4-0.9-0.6-1.5-0.6h-58.7
				c-0.6,0-1.1,0.2-1.5,0.6C-258.5,597-258.6,597.4-258.6,598 M-248.5,601.5v3.9c0,0.3-0.1,0.4-0.4,0.4h-3.9c-0.3,0-0.4-0.1-0.4-0.4
				v-3.9c0-0.3,0.1-0.6,0.4-0.6h3.9C-248.6,601.1-248.5,601.2-248.5,601.5 M-210.4,600.9c0,0.3-0.1,0.7-0.3,1
				c-0.2,0.2-0.6,0.3-0.9,0.3c-0.3,0-0.7-0.1-0.9-0.3s-0.4-0.6-0.4-1c0-0.3,0.1-0.7,0.4-0.9c0.2-0.2,0.6-0.3,0.9-0.3
				c0.3,0,0.7,0.1,0.9,0.3C-210.5,600.4-210.4,600.6-210.4,600.9 M-200.8,600.1c0.2,0.2,0.4,0.6,0.4,0.9s-0.1,0.7-0.4,1
				c-0.2,0.2-0.6,0.3-0.9,0.3c-0.3,0-0.7-0.1-0.9-0.3c-0.2-0.2-0.4-0.6-0.4-1c0-0.3,0.1-0.7,0.4-0.9c0.2-0.2,0.6-0.3,0.9-0.3
				C-201.4,599.8-201.1,599.8-200.8,600.1 M-206.5,602.3c-0.3,0-0.7-0.1-0.9-0.3s-0.4-0.6-0.4-1c0-0.3,0.1-0.7,0.4-0.9
				c0.2-0.2,0.6-0.3,0.9-0.3c0.3,0,0.7,0.1,0.9,0.3s0.3,0.6,0.3,0.9s-0.1,0.7-0.3,1C-205.8,602.2-206.1,602.3-206.5,602.3
				 M-187.1,565c-0.8,0.9-1.2,1.9-1.2,3.1v21.1c0,1.2,0.4,2.2,1.2,3.1c0.9,0.9,1.9,1.2,3.1,1.2h115.4c1.2,0,2.2-0.4,3.1-1.2
				c0.9-0.9,1.2-1.9,1.2-3.1v-21.1c0-1.2-0.4-2.2-1.2-3.1c-0.8-0.9-1.9-1.3-3.1-1.3H-184C-185.2,563.7-186.2,564.2-187.1,565
				 M-87.4,572.1c0.4-0.4,1.1-0.7,1.8-0.7c0.8,0,1.3,0.2,1.8,0.7c0.4,0.6,0.7,1.1,0.7,1.9c0,0.8-0.2,1.3-0.7,1.8
				c-0.6,0.4-1.1,0.8-1.8,0.8c-0.7,0-1.3-0.2-1.8-0.8c-0.4-0.4-0.7-1.1-0.7-1.8C-88.1,573.2-87.8,572.6-87.4,572.1 M-97.5,572.1
				c0.4-0.4,1.1-0.7,1.8-0.7c0.7,0,1.3,0.2,1.8,0.7c0.6,0.6,0.8,1.1,0.8,1.9c0,0.8-0.2,1.3-0.8,1.8c-0.4,0.4-1.1,0.8-1.8,0.8
				c-0.7,0-1.3-0.2-1.8-0.8c-0.6-0.4-0.8-1.1-0.8-1.8C-98.3,573.2-98.1,572.6-97.5,572.1 M-76.2,571.3c0.7,0,1.3,0.2,1.8,0.7
				c0.6,0.6,0.8,1.1,0.8,1.9c0,0.8-0.2,1.3-0.8,1.8c-0.4,0.4-1.1,0.8-1.8,0.8s-1.3-0.2-1.8-0.8c-0.6-0.4-0.8-1.1-0.8-1.8
				s0.2-1.3,0.8-1.9C-77.5,571.6-76.8,571.3-76.2,571.3 M-169.2,583.2h-7.5c-0.7,0-1-0.3-1-0.9v-7.5c0-0.2,0.1-0.4,0.2-0.7
				c0.2-0.2,0.4-0.2,0.7-0.2h7.5c0.2,0,0.4,0.1,0.7,0.2c0.2,0.2,0.3,0.4,0.2,0.7v7.5c0,0.2-0.1,0.4-0.2,0.7
				C-168.8,583.1-169,583.2-169.2,583.2 M345.2,649.5c0-0.6-0.2-1.1-0.7-1.5c-0.4-0.4-0.9-0.7-1.5-0.7h-58.7c-0.6,0-1.1,0.2-1.4,0.7
				c-0.4,0.4-0.7,1-0.7,1.5v5.8h5.5V653c0-0.3,0.2-0.6,0.6-0.6h3.9c0.3,0,0.4,0.2,0.4,0.6v2.3h52.9v-5.8 M330.5,652.5
				c0,0.3-0.1,0.7-0.4,0.9c-0.2,0.2-0.6,0.4-0.9,0.4c-0.3,0-0.7-0.1-0.9-0.4c-0.2-0.2-0.4-0.6-0.4-0.9s0.1-0.7,0.4-0.9
				c0.2-0.2,0.6-0.3,0.9-0.3c0.3,0,0.7,0.1,0.9,0.3C330.3,651.9,330.5,652.1,330.5,652.5 M335.3,651.6c0.2,0.2,0.4,0.6,0.4,0.9
				c0,0.3-0.1,0.7-0.4,0.9c-0.2,0.2-0.6,0.4-0.9,0.4c-0.3,0-0.7-0.1-0.9-0.4c-0.2-0.2-0.4-0.6-0.4-0.9s0.1-0.7,0.4-0.9
				c0.2-0.2,0.6-0.3,0.9-0.3C334.7,651.3,335.1,651.4,335.3,651.6 M338.2,653.4c-0.2-0.2-0.3-0.6-0.3-0.9s0.1-0.7,0.3-0.9
				c0.2-0.2,0.6-0.3,0.9-0.3c0.3,0,0.7,0.1,0.9,0.3c0.2,0.2,0.3,0.6,0.3,0.9c0,0.3-0.1,0.7-0.3,0.9c-0.2,0.2-0.6,0.4-0.9,0.4
				C338.8,653.8,338.6,653.7,338.2,653.4 M345.2,632.4c0-0.6-0.2-1.1-0.7-1.5c-0.4-0.4-0.9-0.7-1.5-0.7h-58.7
				c-0.6,0-1.1,0.2-1.4,0.7c-0.4,0.4-0.7,1-0.7,1.5v10.7c0,0.6,0.2,1.1,0.7,1.5c0.4,0.4,0.9,0.6,1.4,0.6H343c0.7,0,1.1-0.2,1.5-0.6
				c0.4-0.4,0.7-1,0.7-1.5V632.4 M335.7,635.3c0,0.3-0.1,0.7-0.4,0.9c-0.2,0.2-0.6,0.3-0.9,0.3c-0.3,0-0.7-0.1-0.9-0.3
				c-0.2-0.2-0.4-0.6-0.4-0.9s0.1-0.7,0.4-0.9c0.2-0.2,0.6-0.3,0.9-0.3c0.3,0,0.7,0.1,0.9,0.3C335.5,634.7,335.7,635,335.7,635.3
				 M338.2,636.2c-0.2-0.2-0.3-0.6-0.3-0.9s0.1-0.7,0.3-0.9c0.2-0.2,0.6-0.3,0.9-0.3c0.3,0,0.7,0.1,0.9,0.3c0.2,0.2,0.3,0.6,0.3,0.9
				s-0.1,0.7-0.3,0.9c-0.2,0.2-0.6,0.3-0.9,0.3C338.8,636.5,338.6,636.4,338.2,636.2 M330.5,635.3c0,0.3-0.1,0.7-0.4,0.9
				c-0.2,0.2-0.6,0.3-0.9,0.3c-0.3,0-0.7-0.1-0.9-0.3c-0.2-0.2-0.4-0.6-0.4-0.9s0.1-0.7,0.4-0.9c0.2-0.2,0.6-0.3,0.9-0.3
				c0.3,0,0.7,0.1,0.9,0.3C330.3,634.7,330.5,635,330.5,635.3 M292.3,639.6c0,0.3-0.1,0.6-0.4,0.6H288c-0.3,0-0.6-0.1-0.6-0.6v-3.9
				c0-0.3,0.2-0.4,0.6-0.4h3.9c0.3,0,0.4,0.1,0.4,0.4V639.6 M345.2,615.2c0-0.6-0.2-1.1-0.7-1.5c-0.4-0.4-0.9-0.7-1.5-0.7h-58.7
				c-0.6,0-1.1,0.2-1.4,0.7c-0.4,0.4-0.7,1-0.7,1.5V626c0,0.6,0.2,1.1,0.7,1.5c0.4,0.4,0.9,0.7,1.4,0.7H343c0.6,0,1.1-0.2,1.5-0.7
				c0.4-0.4,0.7-0.9,0.7-1.5V615.2 M330.5,618.1c0,0.3-0.1,0.7-0.4,0.9c-0.2,0.2-0.6,0.4-0.9,0.4c-0.3,0-0.7-0.1-0.9-0.4
				c-0.2-0.2-0.4-0.6-0.4-0.9c0-0.3,0.1-0.7,0.4-0.9c0.2-0.2,0.6-0.4,0.9-0.4c0.3,0,0.7,0.1,0.9,0.4
				C330.3,617.6,330.5,617.8,330.5,618.1 M340.3,618.1c0,0.3-0.1,0.7-0.3,0.9c-0.2,0.2-0.6,0.4-0.9,0.4c-0.3,0-0.7-0.1-0.9-0.4
				c-0.2-0.2-0.3-0.6-0.3-0.9c0-0.3,0.1-0.7,0.3-0.9c0.2-0.2,0.6-0.4,0.9-0.4c0.3,0,0.7,0.1,0.9,0.4
				C340.2,617.5,340.3,617.8,340.3,618.1 M335.7,618.1c0,0.3-0.1,0.7-0.4,0.9c-0.2,0.2-0.6,0.4-0.9,0.4c-0.3,0-0.7-0.1-0.9-0.4
				c-0.2-0.2-0.4-0.6-0.4-0.9c0-0.3,0.1-0.7,0.4-0.9c0.2-0.2,0.6-0.4,0.9-0.4c0.3,0,0.7,0.1,0.9,0.4
				C335.5,617.5,335.7,617.8,335.7,618.1 M288.1,623c-0.3,0-0.6-0.1-0.6-0.4v-3.9c0-0.3,0.2-0.4,0.6-0.4h3.9c0.3,0,0.4,0.1,0.4,0.4
				v3.9c0,0.3-0.1,0.4-0.4,0.4H288.1 M345.2,598c0-0.6-0.2-1.1-0.7-1.5c-0.4-0.4-0.9-0.6-1.5-0.6h-58.7c-0.6,0-1.1,0.2-1.4,0.6
				c-0.4,0.4-0.7,1-0.7,1.5v10.7c0,0.6,0.2,1.1,0.7,1.5c0.4,0.4,0.9,0.7,1.4,0.7H343c0.7,0,1.1-0.2,1.5-0.7c0.4-0.4,0.7-0.9,0.7-1.5
				V598 M340.3,600.9c0,0.3-0.1,0.7-0.3,1c-0.2,0.2-0.6,0.3-0.9,0.3c-0.3,0-0.7-0.1-0.9-0.3s-0.3-0.6-0.3-1c0-0.3,0.1-0.7,0.3-0.9
				c0.2-0.2,0.6-0.3,0.9-0.3c0.3,0,0.7,0.1,0.9,0.3C340.2,600.4,340.3,600.6,340.3,600.9 M335.7,600.9c0,0.3-0.1,0.7-0.4,1
				c-0.2,0.2-0.6,0.3-0.9,0.3c-0.3,0-0.7-0.1-0.9-0.3c-0.2-0.2-0.4-0.6-0.4-1c0-0.3,0.1-0.7,0.4-0.9c0.2-0.2,0.6-0.3,0.9-0.3
				c0.3,0,0.7,0.1,0.9,0.3C335.5,600.4,335.7,600.6,335.7,600.9 M330.5,600.9c0,0.3-0.1,0.7-0.4,1s-0.6,0.3-0.9,0.3
				c-0.3,0-0.7-0.1-0.9-0.3c-0.2-0.2-0.4-0.6-0.4-1c0-0.3,0.1-0.7,0.4-0.9c0.2-0.2,0.6-0.3,0.9-0.3c0.3,0,0.7,0.1,0.9,0.3
				C330.3,600.3,330.5,600.6,330.5,600.9 M292.3,605.3c0,0.3-0.1,0.4-0.4,0.4H288c-0.3,0-0.6-0.1-0.6-0.4v-3.9
				c0-0.3,0.2-0.6,0.6-0.6h3.9c0.3,0,0.4,0.2,0.4,0.6V605.3 M476.6,635.4c0-1.2-0.4-2.2-1.2-3.1c-0.9-0.9-1.9-1.3-3.1-1.3H356.9
				c-1.2,0-2.2,0.4-3.1,1.3c-0.9,0.9-1.3,1.9-1.3,3.1v19.9h124L476.6,635.4 M453.4,639.5c0.6-0.6,1.1-0.8,1.8-0.8
				c0.7,0,1.3,0.2,1.8,0.8c0.4,0.4,0.7,1.1,0.7,1.8s-0.2,1.3-0.7,1.8c-0.4,0.6-1.1,0.8-1.8,0.8c-0.7,0-1.3-0.2-1.8-0.8
				c-0.4-0.4-0.8-1.1-0.8-1.8C452.7,640.6,453,640,453.4,639.5 M445,638.7c0.7,0,1.3,0.2,1.9,0.8c0.4,0.4,0.7,1.1,0.7,1.8
				s-0.2,1.3-0.7,1.8c-0.6,0.6-1.1,0.8-1.9,0.8s-1.3-0.2-1.8-0.8c-0.4-0.4-0.8-1.1-0.8-1.8s0.2-1.3,0.8-1.8
				C443.7,639,444.3,638.7,445,638.7 M464.6,638.7c0.7,0,1.3,0.2,1.8,0.8c0.6,0.4,0.8,1.1,0.8,1.8s-0.2,1.3-0.8,1.8
				c-0.4,0.6-1.1,0.8-1.8,0.8c-0.7,0-1.3-0.2-1.8-0.8c-0.6-0.4-0.8-1.1-0.8-1.8s0.2-1.3,0.8-1.8C463.4,639,464,638.7,464.6,638.7
				 M363.1,642.2c0-0.2,0.1-0.4,0.2-0.6c0.2-0.2,0.4-0.2,0.7-0.2h7.5c0.2,0,0.4,0.1,0.7,0.2c0.2,0.1,0.2,0.3,0.2,0.6v7.5
				c0,0.7-0.3,1-0.9,1H364c-0.7,0-1-0.3-1-1L363.1,642.2 M486,647.3c-0.6,0-1.1,0.2-1.5,0.7c-0.4,0.4-0.6,0.9-0.6,1.5v5.8h5.5V653
				c0-0.3,0.1-0.6,0.4-0.6h3.9c0.3,0,0.4,0.2,0.4,0.6v2.3h52.6v-5.8c0-0.7-0.2-1.1-0.6-1.5c-0.4-0.4-1-0.7-1.5-0.7H486 M532.1,652.5
				c0,0.3-0.1,0.7-0.3,0.9c-0.2,0.2-0.6,0.4-0.9,0.4c-0.3,0-0.7-0.1-0.9-0.4c-0.2-0.2-0.3-0.6-0.3-0.9s0.1-0.7,0.3-0.9
				c0.2-0.2,0.6-0.3,0.9-0.3c0.3,0,0.7,0.1,0.9,0.3C532,651.9,532.1,652.1,532.1,652.5 M537.4,652.5c0,0.3-0.1,0.7-0.3,0.9
				c-0.2,0.2-0.6,0.4-0.9,0.4s-0.7-0.1-1-0.4c-0.2-0.2-0.3-0.6-0.3-0.9s0.1-0.7,0.3-0.9c0.2-0.2,0.6-0.3,1-0.3
				c0.3,0,0.7,0.1,0.9,0.3C537.3,651.9,537.4,652.1,537.4,652.5 M542.2,652.5c0,0.3-0.1,0.7-0.4,0.9c-0.2,0.2-0.6,0.4-0.9,0.4
				c-0.3,0-0.7-0.1-0.9-0.4c-0.2-0.2-0.4-0.6-0.4-0.9s0.1-0.7,0.4-0.9c0.2-0.2,0.6-0.3,0.9-0.3c0.3,0,0.7,0.1,0.9,0.3
				C542,651.9,542.2,652.1,542.2,652.5 M486,630.2c-0.6,0-1.1,0.2-1.5,0.7c-0.4,0.4-0.6,0.9-0.6,1.5v10.7c0,0.7,0.2,1.1,0.6,1.5
				c0.4,0.4,1,0.6,1.5,0.6h58.6c0.7,0,1.1-0.2,1.5-0.6c0.4-0.4,0.6-0.9,0.6-1.5v-10.7c0-0.7-0.2-1.1-0.6-1.5c-0.4-0.4-1-0.7-1.5-0.7
				H486 M494.1,635.7v3.9c0,0.3-0.1,0.6-0.4,0.6h-3.9c-0.3,0-0.4-0.1-0.4-0.6v-3.9c0-0.3,0.1-0.4,0.4-0.4h3.9
				C493.9,635.4,494.1,635.5,494.1,635.7 M537,634.5c0.2,0.2,0.3,0.6,0.3,0.9s-0.1,0.7-0.3,0.9c-0.2,0.2-0.6,0.3-0.9,0.3
				s-0.7-0.1-1-0.3c-0.2-0.2-0.3-0.6-0.3-0.9s0.1-0.7,0.3-0.9c0.2-0.2,0.6-0.3,1-0.3C536.5,634.1,536.8,634.3,537,634.5
				 M542.2,635.3c0,0.3-0.1,0.7-0.4,0.9c-0.2,0.2-0.6,0.3-0.9,0.3c-0.3,0-0.7-0.1-0.9-0.3s-0.4-0.6-0.4-0.9s0.1-0.7,0.4-0.9
				c0.2-0.2,0.6-0.3,0.9-0.3c0.3,0,0.7,0.1,0.9,0.3C542,634.7,542.2,635,542.2,635.3 M532.1,635.3c0,0.3-0.1,0.7-0.3,0.9
				c-0.2,0.2-0.6,0.3-0.9,0.3c-0.3,0-0.7-0.1-0.9-0.3c-0.2-0.2-0.3-0.6-0.3-0.9s0.1-0.7,0.3-0.9c0.2-0.2,0.6-0.3,0.9-0.3
				c0.3,0,0.7,0.1,0.9,0.3C532,634.7,532.1,635,532.1,635.3 M484.5,613.8c-0.4,0.4-0.6,0.9-0.6,1.5V626c0,0.6,0.2,1.1,0.6,1.5
				c0.4,0.4,1,0.7,1.5,0.7h58.7c0.6,0,1.1-0.2,1.5-0.7c0.4-0.4,0.6-0.9,0.6-1.5v-10.7c0-0.7-0.2-1.1-0.6-1.5c-0.4-0.4-1-0.7-1.5-0.7
				h-58.7C485.4,613.1,484.9,613.3,484.5,613.8 M494.1,622.5c0,0.3-0.1,0.4-0.4,0.4h-3.9c-0.3,0-0.4-0.1-0.4-0.4v-3.9
				c0-0.3,0.1-0.4,0.4-0.4h3.9c0.3,0,0.4,0.1,0.4,0.4V622.5 M532.1,618.1c0,0.3-0.1,0.7-0.3,0.9c-0.2,0.2-0.6,0.4-0.9,0.4
				c-0.3,0-0.7-0.1-0.9-0.4c-0.2-0.2-0.3-0.6-0.3-0.9c0-0.3,0.1-0.7,0.3-0.9c0.2-0.2,0.6-0.4,0.9-0.4c0.3,0,0.7,0.1,0.9,0.4
				C532,617.5,532.1,617.8,532.1,618.1 M542.2,618.1c0,0.3-0.1,0.7-0.4,0.9c-0.2,0.2-0.6,0.4-0.9,0.4c-0.3,0-0.7-0.1-0.9-0.4
				c-0.2-0.2-0.4-0.6-0.4-0.9c0-0.3,0.1-0.7,0.4-0.9c0.2-0.2,0.6-0.4,0.9-0.4c0.3,0,0.7,0.1,0.9,0.4
				C542,617.5,542.2,617.8,542.2,618.1 M537.4,618.1c0,0.3-0.1,0.7-0.3,0.9c-0.2,0.2-0.6,0.4-0.9,0.4s-0.7-0.1-1-0.4
				c-0.2-0.2-0.3-0.6-0.3-0.9c0-0.3,0.1-0.7,0.3-0.9c0.2-0.2,0.6-0.4,1-0.4c0.3,0,0.7,0.1,0.9,0.4
				C537.3,617.5,537.4,617.8,537.4,618.1 M475.4,598.6c-0.9-0.9-1.9-1.3-3.1-1.3H356.9c-1.2,0-2.2,0.4-3.1,1.3
				c-0.9,0.9-1.3,1.9-1.3,3.1v21.1c0,1.2,0.4,2.2,1.3,3.1c0.9,0.9,1.9,1.3,3.1,1.3h115.4c1.2,0,2.2-0.4,3.1-1.3
				c0.8-0.9,1.2-1.9,1.2-3.1v-21.1C476.6,600.5,476.1,599.5,475.4,598.6 M464.6,605c0.7,0,1.3,0.2,1.8,0.8c0.6,0.6,0.8,1.1,0.8,1.8
				c0,0.7-0.2,1.3-0.8,1.8c-0.4,0.4-1.1,0.7-1.8,0.7c-0.7,0-1.3-0.2-1.8-0.7c-0.6-0.4-0.8-1.1-0.8-1.8c0-0.7,0.2-1.3,0.8-1.8
				C463.4,605.3,464,605,464.6,605 M457.7,607.5c0,0.7-0.2,1.3-0.7,1.8c-0.4,0.4-1.1,0.7-1.8,0.7c-0.7,0-1.3-0.2-1.8-0.7
				c-0.4-0.4-0.8-1.1-0.8-1.8c0-0.7,0.2-1.3,0.8-1.8c0.6-0.5,1.1-0.8,1.8-0.8c0.7,0,1.3,0.2,1.8,0.8
				C457.5,606.3,457.7,606.9,457.7,607.5 M445,605c0.8,0,1.3,0.2,1.9,0.8c0.4,0.6,0.7,1.1,0.7,1.8c0,0.7-0.2,1.3-0.7,1.8
				c-0.6,0.4-1.1,0.7-1.9,0.7s-1.3-0.2-1.8-0.7c-0.4-0.4-0.8-1.1-0.8-1.8c0-0.7,0.2-1.3,0.8-1.8C443.7,605.3,444.3,605,445,605
				 M372.5,608.5v7.5c0,0.7-0.3,0.9-0.9,0.9h-7.5c-0.7,0-1-0.3-1-0.9v-7.5c0-0.2,0.1-0.4,0.2-0.6c0.2-0.2,0.4-0.2,0.7-0.2h7.5
				c0.2,0,0.4,0.1,0.7,0.2C372.5,608.1,372.5,608.3,372.5,608.5 M484.5,596.4c-0.4,0.4-0.6,1-0.6,1.5v10.7c0,0.7,0.2,1.1,0.6,1.5
				c0.4,0.4,1,0.7,1.5,0.7h58.7c0.6,0,1.1-0.2,1.5-0.7c0.4-0.4,0.6-0.9,0.6-1.5v-10.7c0-0.6-0.2-1.1-0.6-1.5
				c-0.4-0.4-0.9-0.6-1.5-0.6h-58.7C485.4,595.9,484.9,596.1,484.5,596.4 M494.1,601.5v3.9c0,0.3-0.1,0.4-0.4,0.4h-3.9
				c-0.3,0-0.4-0.1-0.4-0.4v-3.9c0-0.3,0.1-0.6,0.4-0.6h3.9C493.9,601.1,494.1,601.2,494.1,601.5 M541.8,600.1
				c0.2,0.2,0.4,0.6,0.4,0.9s-0.1,0.7-0.4,1c-0.2,0.2-0.6,0.3-0.9,0.3c-0.3,0-0.7-0.1-0.9-0.3s-0.4-0.6-0.4-1c0-0.3,0.1-0.7,0.4-0.9
				c0.2-0.2,0.6-0.3,0.9-0.3C541.2,599.7,541.5,599.8,541.8,600.1 M537.4,600.9c0,0.3-0.1,0.7-0.3,1c-0.2,0.2-0.6,0.3-0.9,0.3
				s-0.7-0.1-1-0.3c-0.2-0.2-0.3-0.6-0.3-1c0-0.3,0.1-0.7,0.3-0.9c0.2-0.2,0.6-0.3,1-0.3c0.3,0,0.7,0.1,0.9,0.3
				C537.3,600.4,537.4,600.6,537.4,600.9 M532.1,600.9c0,0.3-0.1,0.7-0.3,1c-0.2,0.2-0.6,0.3-0.9,0.3c-0.3,0-0.7-0.1-0.9-0.3
				c-0.2-0.2-0.3-0.6-0.3-1c0-0.3,0.1-0.7,0.3-0.9c0.2-0.2,0.6-0.3,0.9-0.3c0.3,0,0.7,0.1,0.9,0.3
				C532,600.4,532.1,600.6,532.1,600.9 M356.9,563.7c-1.2,0-2.2,0.4-3.1,1.3c-0.9,0.9-1.3,1.9-1.3,3.1v21.1c0,1.2,0.4,2.2,1.3,3.1
				c0.9,0.9,1.9,1.2,3.1,1.2h115.4c1.2,0,2.2-0.4,3.1-1.2c0.8-0.9,1.2-1.9,1.2-3.1v-21.1c0-1.2-0.4-2.2-1.2-3.1
				c-0.9-0.9-1.9-1.3-3.1-1.3L356.9,563.7 M453.4,572.1c0.6-0.4,1.1-0.7,1.8-0.7c0.7,0,1.3,0.2,1.8,0.7c0.4,0.6,0.7,1.1,0.7,1.9
				c0,0.7-0.2,1.3-0.7,1.8c-0.4,0.4-1.1,0.8-1.8,0.8c-0.7,0-1.3-0.2-1.8-0.8c-0.4-0.4-0.8-1.1-0.8-1.8
				C452.7,573.2,453,572.6,453.4,572.1 M443.3,572.1c0.4-0.4,1.1-0.7,1.8-0.7c0.8,0,1.3,0.2,1.9,0.7c0.4,0.6,0.7,1.1,0.7,1.9
				c0,0.8-0.2,1.3-0.7,1.8c-0.6,0.4-1.1,0.8-1.9,0.8s-1.3-0.2-1.8-0.8c-0.4-0.4-0.8-1.1-0.8-1.8
				C442.5,573.2,442.9,572.6,443.3,572.1 M462.9,572.1c0.4-0.4,1.1-0.7,1.8-0.7c0.7,0,1.3,0.2,1.8,0.7c0.6,0.6,0.8,1.1,0.8,1.9
				c0,0.8-0.2,1.3-0.8,1.8c-0.4,0.4-1.1,0.8-1.8,0.8c-0.7,0-1.3-0.2-1.8-0.8c-0.6-0.4-0.8-1.1-0.8-1.8
				C462.1,573.1,462.4,572.6,462.9,572.1 M372.5,574.8v7.5c0,0.2-0.1,0.4-0.2,0.7c-0.2,0.2-0.4,0.2-0.7,0.2h-7.5
				c-0.2,0-0.4-0.1-0.7-0.2c-0.2-0.2-0.3-0.4-0.2-0.7v-7.5c0-0.2,0.1-0.4,0.2-0.7c0.2-0.2,0.4-0.2,0.7-0.2h7.5
				c0.2,0,0.4,0.1,0.7,0.2C372.5,574.3,372.5,574.5,372.5,574.8z"/>
		</g>
	</g>
</g>
<g transform="matrix( 1, 0, 0, 1, 0,-7) ">
	<g>
		<g id="Layer0_1_FILL">
			<path fill="#666666" d="M-368.1,78.1v2.3h4.7v-2.3c0-0.3-0.1-0.4-0.4-0.4h-4C-367.9,77.6-368.1,77.8-368.1,78.1 M-363.9,48
				c0.3,0,0.4-0.2,0.4-0.6v-3.7c0-0.3-0.1-0.4-0.4-0.4h-3.9c-0.3,0-0.4,0.1-0.4,0.4v3.9c0,0.3,0.1,0.6,0.4,0.6h3.9 M-284.1,75.7
				c0.6,0,0.9-0.3,0.9-0.9v-7.5c0-0.6-0.3-0.9-0.9-0.9h-7.5c-0.7,0-0.9,0.3-0.9,0.9v7.5c0,0.7,0.3,0.9,0.9,0.9H-284.1 M-283.5,8
				c0.2-0.2,0.2-0.4,0.2-0.7v-7.5c0-0.2-0.1-0.4-0.2-0.7c-0.1-0.3-0.3-0.2-0.7-0.2h-7.5c-0.2,0-0.4,0.1-0.7,0.2
				c-0.2,0.2-0.2,0.4-0.2,0.7v7.5c0,0.7,0.3,1,0.9,1h7.5C-283.8,8.2-283.6,8.2-283.5,8 M-162.1,65.1c0.3,0,0.4-0.2,0.4-0.6v-3.7
				c0-0.3-0.1-0.4-0.4-0.4h-3.7c-0.3,0-0.4,0.1-0.4,0.4v3.7c0,0.3,0.1,0.6,0.4,0.6H-162.1 M-162.1,30.8c0.3,0,0.4-0.1,0.4-0.4v-3.9
				c0-0.3-0.1-0.4-0.4-0.4h-3.7c-0.3,0-0.4,0.1-0.4,0.4v3.9c0,0.3,0.1,0.4,0.4,0.4H-162.1 M-97.7,78.1v2.3h4.7v-2.3
				c0-0.3-0.1-0.4-0.4-0.4h-3.7C-97.5,77.6-97.7,77.8-97.7,78.1 M-93.4,48c0.3,0,0.4-0.2,0.4-0.6v-3.7c0-0.3-0.1-0.4-0.4-0.4h-3.7
				c-0.3,0-0.4,0.1-0.4,0.4v3.9c0,0.3,0.1,0.6,0.4,0.6h3.7 M-13.7,75.7c0.6,0,0.9-0.3,0.9-0.9v-7.5c0-0.6-0.3-0.9-0.9-0.9h-7.5
				c-0.2,0-0.4,0.1-0.7,0.2c-0.2,0.1-0.2,0.3-0.2,0.7v7.5c0,0.7,0.3,0.9,1,0.9L-13.7,75.7 M-13,8c0.2-0.2,0.2-0.4,0.2-0.7v-7.5
				c0-0.2-0.1-0.4-0.2-0.7C-13.1-1.2-13.3-1-13.7-1h-7.5c-0.2,0-0.4,0.1-0.7,0.2c-0.2,0.2-0.2,0.4-0.2,0.7v7.5
				c0,0.2,0.1,0.4,0.2,0.7c0.2,0.2,0.4,0.2,0.7,0.2h7.5C-13.4,8.2-13.2,8.2-13,8 M108.3,65.1c0.3,0,0.4-0.2,0.4-0.6v-3.7
				c0-0.3-0.1-0.4-0.4-0.4h-3.9c-0.3,0-0.4,0.1-0.4,0.4v3.7c0,0.3,0.1,0.6,0.4,0.6H108.3 M108.3,30.8c0.3,0,0.4-0.1,0.4-0.4v-3.9
				c0-0.3-0.1-0.4-0.4-0.4h-3.9c-0.3,0-0.4,0.1-0.4,0.4v3.9c0,0.3,0.1,0.4,0.4,0.4H108.3 M172.8,78.1v2.3h4.7v-2.3
				c0-0.3-0.1-0.4-0.4-0.4h-3.9C172.9,77.6,172.8,77.8,172.8,78.1 M177.1,48c0.3,0,0.4-0.2,0.4-0.6v-3.7c0-0.3-0.1-0.4-0.4-0.4h-3.9
				c-0.3,0-0.4,0.1-0.4,0.4v3.9c0,0.3,0.1,0.6,0.4,0.6h3.9 M256.8,41.9c0.7,0,0.9-0.3,0.9-1v-7.5c0-0.2-0.1-0.4-0.2-0.6
				c-0.2-0.2-0.4-0.2-0.7-0.2h-7.5c-0.2,0-0.4,0.1-0.7,0.2c-0.2,0.1-0.2,0.3-0.2,0.6v7.5c0,0.7,0.3,1,0.9,1H256.8 M374.4,64.6
				c0,0.3,0.1,0.6,0.4,0.6h3.9c0.3,0,0.4-0.2,0.4-0.6v-3.7c0-0.3-0.1-0.4-0.4-0.4h-3.9c-0.3,0-0.4,0.1-0.4,0.4V64.6 M378.7,30.8
				c0.3,0,0.4-0.1,0.4-0.4v-3.9c0-0.3-0.1-0.4-0.4-0.4h-3.9c-0.3,0-0.4,0.1-0.4,0.4v3.9c0,0.3,0.1,0.4,0.4,0.4H378.7z"/>
		</g>
	</g>
</g>
<g transform="matrix( 1, 0, 0, 1, -114.85,-581.95) ">
	<g>
		<g id="Layer0_2_FILL">
			<path fill="#999999" d="M176.4,609.4c0.4-0.4,0.8-1.1,0.8-1.8c0-0.7-0.2-1.3-0.8-1.8c-0.4-0.4-1.1-0.8-1.8-0.8
				c-0.7,0-1.3,0.2-1.8,0.8c-0.4,0.6-0.7,1.1-0.7,1.8c0,0.7,0.2,1.3,0.7,1.8c0.4,0.4,1.1,0.7,1.8,0.7
				C175.3,610.1,175.8,609.9,176.4,609.4 M186.6,609.4c0.4-0.4,0.8-1.1,0.8-1.8c0-0.7-0.2-1.3-0.8-1.8c-0.4-0.4-1.1-0.8-1.8-0.8
				s-1.3,0.2-1.9,0.8c-0.4,0.6-0.7,1.1-0.7,1.8c0,0.7,0.2,1.3,0.7,1.8c0.6,0.4,1.1,0.7,1.9,0.7C185.6,610.1,186.2,609.9,186.6,609.4
				 M196,609.4c0.6-0.4,0.8-1.1,0.8-1.8c0-0.7-0.2-1.3-0.8-1.8c-0.4-0.4-1.1-0.8-1.8-0.8s-1.3,0.2-1.8,0.8c-0.6,0.6-0.8,1.1-0.8,1.8
				c0,0.7,0.2,1.3,0.8,1.8c0.4,0.4,1.1,0.7,1.8,0.7S195.4,609.9,196,609.4 M265.7,636.5c0.3,0,0.7-0.1,0.9-0.3
				c0.2-0.2,0.4-0.6,0.4-0.9s-0.1-0.7-0.4-0.9c-0.2-0.2-0.6-0.3-0.9-0.3s-0.7,0.1-0.9,0.3s-0.4,0.6-0.4,0.9s0.1,0.7,0.4,0.9
				C265,636.4,265.3,636.5,265.7,636.5 M259.6,636.2c0.2,0.2,0.6,0.3,0.9,0.3c0.3,0,0.7-0.1,0.9-0.3c0.2-0.2,0.4-0.6,0.4-0.9
				s-0.1-0.7-0.4-0.9c-0.2-0.2-0.6-0.3-0.9-0.3c-0.3,0-0.7,0.1-0.9,0.3s-0.3,0.6-0.3,0.9S259.3,636,259.6,636.2 M271.4,636.2
				c0.2-0.2,0.3-0.6,0.3-0.9s-0.1-0.7-0.3-0.9s-0.6-0.3-0.9-0.3s-0.7,0.1-1,0.3c-0.2,0.2-0.3,0.6-0.3,0.9s0.1,0.7,0.3,0.9
				c0.2,0.2,0.6,0.3,1,0.3S271.1,636.4,271.4,636.2 M264.8,601.9c0.2,0.2,0.6,0.3,0.9,0.3s0.7-0.1,0.9-0.3c0.2-0.2,0.4-0.6,0.4-1
				c0-0.3-0.1-0.7-0.4-0.9c-0.3-0.2-0.6-0.3-0.9-0.3s-0.7,0.1-0.9,0.3s-0.4,0.6-0.4,0.9C264.4,601.4,264.5,601.7,264.8,601.9
				 M261.7,600.9c0-0.3-0.1-0.7-0.4-0.9c-0.2-0.2-0.6-0.3-0.9-0.3s-0.7,0.1-0.9,0.3s-0.3,0.6-0.3,0.9s0.1,0.7,0.3,1
				c0.2,0.2,0.6,0.3,0.9,0.3s0.7-0.1,0.9-0.3C261.6,601.7,261.7,601.4,261.7,600.9 M271.4,601.9c0.2-0.2,0.3-0.6,0.3-1
				c0-0.3-0.1-0.7-0.3-0.9s-0.6-0.3-0.9-0.3s-0.7,0.1-1,0.3c-0.2,0.2-0.3,0.6-0.3,0.9s0.1,0.7,0.3,1c0.2,0.2,0.6,0.3,1,0.3
				S271.1,602.2,271.4,601.9 M-6.1,635.3c0,0.3,0.1,0.7,0.4,0.9c0.2,0.2,0.6,0.3,0.9,0.3c0.3,0,0.7-0.1,1-0.3
				c0.2-0.2,0.4-0.6,0.4-0.9s-0.1-0.7-0.4-0.9c-0.2-0.2-0.6-0.3-1-0.3c-0.3,0-0.7,0.1-0.9,0.3C-5.9,634.7-6.1,635-6.1,635.3
				 M-8.7,635.3c0-0.3-0.1-0.7-0.4-0.9c-0.2-0.2-0.6-0.3-0.9-0.3c-0.3,0-0.7,0.1-0.9,0.3c-0.2,0.2-0.4,0.6-0.4,0.9s0.1,0.7,0.4,0.9
				c0.2,0.2,0.6,0.3,0.9,0.3c0.3,0,0.7-0.1,0.9-0.3S-8.7,635.6-8.7,635.3 M0.9,636.2c0.2-0.2,0.4-0.6,0.4-0.9s-0.1-0.7-0.4-0.9
				c-0.2-0.2-0.6-0.3-0.9-0.3s-0.7,0.1-0.9,0.3s-0.4,0.6-0.4,0.9s0.1,0.7,0.4,0.9c0.2,0.2,0.6,0.3,0.9,0.3S0.7,636.4,0.9,636.2
				 M-4.8,602.3c0.3,0,0.7-0.1,1-0.3s0.4-0.6,0.4-1c0-0.3-0.1-0.7-0.4-0.9s-0.6-0.3-1-0.3c-0.3,0-0.7,0.1-0.9,0.3
				c-0.2,0.2-0.4,0.6-0.4,0.9s0.1,0.7,0.4,1C-5.4,602.3-5.1,602.3-4.8,602.3 M1.4,600.9c0-0.3-0.1-0.7-0.4-0.9s-0.6-0.3-0.9-0.3
				s-0.7,0.1-0.9,0.3s-0.4,0.6-0.4,0.9s0.1,0.7,0.4,1s0.6,0.3,0.9,0.3s0.7-0.1,0.9-0.3S1.4,601.4,1.4,600.9 M-11.3,600.9
				c0,0.3,0.1,0.7,0.4,1c0.2,0.2,0.6,0.3,0.9,0.3c0.3,0,0.7-0.1,0.9-0.3s0.4-0.6,0.4-1c0-0.3-0.1-0.7-0.4-0.9
				c-0.2-0.2-0.6-0.3-0.9-0.3c-0.3,0-0.7,0.1-0.9,0.3C-11.1,600.4-11.3,600.6-11.3,600.9 M69.6,653.4c0.2-0.2,0.4-0.6,0.4-0.9
				s-0.1-0.7-0.4-0.9c-0.2-0.2-0.6-0.3-0.9-0.3s-0.7,0.1-0.9,0.3c-0.2,0.2-0.4,0.6-0.4,0.9c0,0.3,0.1,0.7,0.4,0.9
				c0.2,0.2,0.6,0.4,0.9,0.4C69.1,653.8,69.4,653.7,69.6,653.4 M64.9,653.4c0.2-0.2,0.3-0.6,0.3-0.9s-0.1-0.7-0.3-0.9
				c-0.2-0.2-0.6-0.3-0.9-0.3c-0.3,0-0.7,0.1-0.9,0.3c-0.2,0.2-0.4,0.6-0.4,0.9c0,0.3,0.1,0.7,0.4,0.9c0.2,0.2,0.6,0.4,0.9,0.4
				C64.3,653.8,64.7,653.7,64.9,653.4 M59.6,653.4c0.2-0.2,0.3-0.6,0.3-0.9s-0.1-0.7-0.3-0.9c-0.2-0.2-0.6-0.3-0.9-0.3
				c-0.3,0-0.7,0.1-0.9,0.3c-0.2,0.2-0.4,0.6-0.4,0.9c0,0.3,0.1,0.7,0.4,0.9c0.2,0.2,0.6,0.4,0.9,0.4
				C59,653.8,59.4,653.7,59.6,653.4 M69.6,619c0.2-0.2,0.4-0.6,0.4-0.9c0-0.3-0.1-0.7-0.4-0.9c-0.2-0.2-0.6-0.4-0.9-0.4
				s-0.7,0.1-0.9,0.4c-0.2,0.2-0.4,0.6-0.4,0.9s0.1,0.7,0.4,0.9c0.2,0.2,0.6,0.4,0.9,0.4C69.1,619.4,69.4,619.3,69.6,619 M59.6,619
				c0.2-0.2,0.3-0.6,0.3-0.9c0-0.3-0.1-0.7-0.3-0.9c-0.2-0.2-0.6-0.4-0.9-0.4c-0.3,0-0.7,0.1-0.9,0.4c-0.2,0.2-0.4,0.6-0.4,0.9
				s0.1,0.7,0.4,0.9c0.2,0.2,0.6,0.4,0.9,0.4C59,619.4,59.4,619.3,59.6,619 M64.9,619c0.2-0.2,0.3-0.6,0.3-0.9
				c0-0.3-0.1-0.7-0.3-0.9c-0.2-0.2-0.6-0.4-0.9-0.4c-0.3,0-0.7,0.1-0.9,0.4c-0.2,0.2-0.4,0.6-0.4,0.9s0.1,0.7,0.4,0.9
				c0.2,0.2,0.6,0.4,0.9,0.4C64.3,619.4,64.7,619.3,64.9,619 M-200.8,653.4c0.2-0.2,0.4-0.6,0.4-0.9s-0.1-0.7-0.4-0.9
				c-0.2-0.2-0.6-0.3-0.9-0.3c-0.3,0-0.7,0.1-0.9,0.3c-0.2,0.2-0.4,0.6-0.4,0.9c0,0.3,0.1,0.7,0.4,0.9c0.2,0.2,0.6,0.4,0.9,0.4
				C-201.4,653.8-201.1,653.7-200.8,653.4 M-205.6,653.4c0.2-0.2,0.3-0.6,0.3-0.9s-0.1-0.7-0.3-0.9c-0.2-0.2-0.6-0.3-0.9-0.3
				c-0.3,0-0.7,0.1-0.9,0.3c-0.2,0.2-0.4,0.6-0.4,0.9c0,0.3,0.1,0.7,0.4,0.9c0.2,0.2,0.6,0.4,0.9,0.4
				C-206.2,653.8-205.8,653.7-205.6,653.4 M-205.6,619c0.2-0.2,0.3-0.6,0.3-0.9c0-0.3-0.1-0.7-0.3-0.9c-0.2-0.2-0.6-0.4-0.9-0.4
				c-0.3,0-0.7,0.1-0.9,0.4c-0.2,0.2-0.4,0.6-0.4,0.9s0.1,0.7,0.4,0.9c0.2,0.2,0.6,0.4,0.9,0.4C-206.2,619.4-205.8,619.3-205.6,619
				 M-200.8,619c0.2-0.2,0.4-0.6,0.4-0.9c0-0.3-0.1-0.7-0.4-0.9c-0.2-0.2-0.6-0.4-0.9-0.4c-0.3,0-0.7,0.1-0.9,0.4
				c-0.2,0.2-0.4,0.6-0.4,0.9s0.1,0.7,0.4,0.9c0.2,0.2,0.6,0.4,0.9,0.4C-201.4,619.4-201.1,619.3-200.8,619 M-78.7,641.3
				c0,0.7,0.2,1.3,0.8,1.8c0.4,0.6,1.1,0.8,1.8,0.8c0.7,0,1.3-0.2,1.8-0.8c0.6-0.4,0.8-1.1,0.8-1.8s-0.2-1.3-0.8-1.8
				c-0.4-0.6-1.1-0.8-1.8-0.8s-1.3,0.2-1.8,0.8C-78.5,640-78.7,640.6-78.7,641.3 M-95.8,638.7c-0.7,0-1.3,0.2-1.8,0.8
				c-0.6,0.4-0.8,1.1-0.8,1.8s0.2,1.3,0.8,1.8c0.4,0.6,1.1,0.8,1.8,0.8c0.7,0,1.3-0.2,1.8-0.8c0.6-0.4,0.8-1.1,0.8-1.8
				s-0.2-1.3-0.8-1.8C-94.5,639-95.1,638.7-95.8,638.7 M-85.6,638.7c-0.7,0-1.3,0.2-1.8,0.8c-0.4,0.4-0.7,1.1-0.7,1.8
				s0.2,1.3,0.7,1.8c0.4,0.6,1.1,0.8,1.8,0.8s1.3-0.2,1.8-0.8c0.4-0.4,0.7-1.1,0.7-1.8s-0.2-1.3-0.7-1.8
				C-84.3,639-85,638.7-85.6,638.7 M-210.7,653.4c0.2-0.2,0.3-0.6,0.3-0.9s-0.1-0.7-0.3-0.9c-0.2-0.2-0.6-0.3-0.9-0.3
				c-0.3,0-0.7,0.1-0.9,0.3c-0.2,0.2-0.4,0.6-0.4,0.9c0,0.3,0.1,0.7,0.4,0.9c0.2,0.2,0.6,0.4,0.9,0.4
				C-211.3,653.8-211,653.7-210.7,653.4 M-210.7,619c0.2-0.2,0.3-0.6,0.3-0.9c0-0.3-0.1-0.7-0.3-0.9c-0.2-0.2-0.6-0.4-0.9-0.4
				c-0.3,0-0.7,0.1-0.9,0.4c-0.2,0.2-0.4,0.6-0.4,0.9s0.1,0.7,0.4,0.9c0.2,0.2,0.6,0.4,0.9,0.4C-211.3,619.4-211,619.3-210.7,619
				 M-74.4,572.1c-0.4-0.4-1.1-0.7-1.8-0.7s-1.3,0.2-1.8,0.7c-0.6,0.6-0.8,1.1-0.8,1.9c0,0.8,0.2,1.3,0.8,1.8
				c0.4,0.4,1.1,0.8,1.8,0.8c0.7,0,1.3-0.2,1.8-0.8c0.6-0.4,0.8-1.1,0.8-1.8C-73.6,573.2-73.9,572.6-74.4,572.1 M-85.6,571.3
				c-0.7,0-1.3,0.2-1.8,0.7c-0.4,0.6-0.7,1.1-0.7,1.9c0,0.8,0.2,1.3,0.7,1.8c0.5,0.5,1.1,0.8,1.8,0.8s1.3-0.2,1.8-0.8
				c0.4-0.4,0.7-1.1,0.7-1.8s-0.2-1.3-0.7-1.9C-84.3,571.6-84.9,571.3-85.6,571.3 M-95.8,571.3c-0.7,0-1.3,0.2-1.8,0.7
				c-0.6,0.6-0.8,1.1-0.8,1.9c0,0.8,0.2,1.3,0.8,1.8c0.4,0.4,1.1,0.8,1.8,0.8c0.7,0,1.3-0.2,1.8-0.8c0.6-0.4,0.8-1.1,0.8-1.8
				s-0.2-1.3-0.8-1.9C-94.5,571.6-95.1,571.3-95.8,571.3 M531.8,636.2c0.2-0.2,0.3-0.6,0.3-0.9s-0.1-0.7-0.3-0.9
				c-0.2-0.2-0.6-0.3-0.9-0.3c-0.3,0-0.7,0.1-0.9,0.3c-0.2,0.2-0.3,0.6-0.3,0.9s0.1,0.7,0.3,0.9c0.2,0.2,0.6,0.3,0.9,0.3
				C531.2,636.5,531.5,636.4,531.8,636.2 M541.8,636.2c0.2-0.2,0.4-0.6,0.4-0.9s-0.1-0.7-0.4-0.9c-0.2-0.2-0.6-0.3-0.9-0.3
				c-0.3,0-0.7,0.1-0.9,0.3s-0.4,0.6-0.4,0.9s0.1,0.7,0.4,0.9c0.2,0.2,0.6,0.3,0.9,0.3S541.5,636.4,541.8,636.2 M537,636.2
				c0.2-0.2,0.3-0.6,0.3-0.9s-0.1-0.7-0.3-0.9c-0.2-0.2-0.6-0.3-0.9-0.3s-0.7,0.1-1,0.3c-0.2,0.2-0.3,0.6-0.3,0.9s0.1,0.7,0.3,0.9
				c0.2,0.2,0.6,0.3,1,0.3C536.5,636.5,536.8,636.4,537,636.2 M531.8,601.9c0.2-0.2,0.3-0.6,0.3-1c0-0.3-0.1-0.7-0.3-0.9
				c-0.2-0.2-0.6-0.3-0.9-0.3c-0.3,0-0.7,0.1-0.9,0.3c-0.2,0.2-0.3,0.6-0.3,0.9s0.1,0.7,0.3,1c0.2,0.2,0.6,0.3,0.9,0.3
				C531.2,602.2,531.5,602.2,531.8,601.9 M537,601.9c0.2-0.2,0.3-0.6,0.3-1c0-0.3-0.1-0.7-0.3-0.9c-0.2-0.2-0.6-0.3-0.9-0.3
				s-0.7,0.1-1,0.3c-0.2,0.2-0.3,0.6-0.3,0.9s0.1,0.7,0.3,1c0.2,0.2,0.6,0.3,1,0.3C536.5,602.3,536.8,602.2,537,601.9 M541.8,601.9
				c0.2-0.2,0.4-0.6,0.4-1c0-0.3-0.1-0.7-0.4-0.9c-0.2-0.2-0.6-0.3-0.9-0.3c-0.3,0-0.7,0.1-0.9,0.3s-0.4,0.6-0.4,0.9s0.1,0.7,0.4,1
				c0.2,0.2,0.6,0.3,0.9,0.3C541.2,602.3,541.5,602.2,541.8,601.9 M337.9,652.5c0,0.3,0.1,0.7,0.3,0.9c0.2,0.2,0.6,0.4,0.9,0.4
				c0.3,0,0.7-0.1,0.9-0.4c0.2-0.2,0.3-0.6,0.3-0.9s-0.1-0.7-0.3-0.9c-0.2-0.2-0.6-0.3-0.9-0.3c-0.3,0-0.7,0.1-0.9,0.3
				C338,651.9,337.9,652.1,337.9,652.5 M335.7,652.5c0-0.3-0.1-0.7-0.4-0.9c-0.2-0.2-0.6-0.3-0.9-0.3c-0.3,0-0.7,0.1-0.9,0.3
				c-0.2,0.2-0.4,0.6-0.4,0.9c0,0.3,0.1,0.7,0.4,0.9c0.2,0.2,0.6,0.4,0.9,0.4c0.3,0,0.7-0.1,0.9-0.4
				C335.5,653.1,335.7,652.9,335.7,652.5 M330.1,653.4c0.2-0.2,0.4-0.6,0.4-0.9s-0.1-0.7-0.4-0.9c-0.2-0.2-0.6-0.3-0.9-0.3
				c-0.3,0-0.7,0.1-0.9,0.3c-0.2,0.2-0.4,0.6-0.4,0.9c0,0.3,0.1,0.7,0.4,0.9c0.2,0.2,0.6,0.4,0.9,0.4
				C329.6,653.8,329.9,653.7,330.1,653.4 M335.3,619c0.2-0.2,0.4-0.6,0.4-0.9c0-0.3-0.1-0.7-0.4-0.9c-0.2-0.2-0.6-0.4-0.9-0.4
				c-0.3,0-0.7,0.1-0.9,0.4c-0.2,0.2-0.4,0.6-0.4,0.9s0.1,0.7,0.4,0.9c0.2,0.2,0.6,0.4,0.9,0.4C334.7,619.4,335.1,619.3,335.3,619
				 M340.1,619c0.2-0.2,0.3-0.6,0.3-0.9c0-0.3-0.1-0.7-0.3-0.9c-0.2-0.2-0.6-0.4-0.9-0.4c-0.3,0-0.7,0.1-0.9,0.4
				c-0.2,0.2-0.3,0.6-0.3,0.9s0.1,0.7,0.3,0.9c0.2,0.2,0.6,0.4,0.9,0.4C339.6,619.4,339.9,619.3,340.1,619 M330.1,619
				c0.2-0.2,0.4-0.6,0.4-0.9c0-0.3-0.1-0.7-0.4-0.9c-0.3-0.2-0.6-0.4-0.9-0.4c-0.3,0-0.7,0.1-0.9,0.4c-0.2,0.2-0.4,0.6-0.4,0.9
				s0.1,0.7,0.4,0.9c0.2,0.2,0.6,0.4,0.9,0.4C329.6,619.4,329.9,619.3,330.1,619 M464.6,638.7c-0.7,0-1.3,0.2-1.8,0.8
				c-0.6,0.4-0.8,1.1-0.8,1.8s0.2,1.3,0.8,1.8c0.4,0.6,1.1,0.8,1.8,0.8c0.7,0,1.3-0.2,1.8-0.8c0.6-0.4,0.8-1.1,0.8-1.8
				s-0.2-1.3-0.8-1.8C465.9,639,465.2,638.7,464.6,638.7 M455.2,638.7c-0.7,0-1.3,0.2-1.8,0.8c-0.4,0.4-0.8,1.1-0.8,1.8
				s0.2,1.3,0.8,1.8c0.6,0.6,1.1,0.8,1.8,0.8c0.7,0,1.3-0.2,1.8-0.8c0.4-0.4,0.7-1.1,0.7-1.8s-0.2-1.3-0.7-1.8
				C456.5,639,456,638.7,455.2,638.7 M446.8,639.5c-0.6-0.6-1.1-0.8-1.9-0.8c-0.8,0-1.3,0.2-1.8,0.8c-0.4,0.4-0.8,1.1-0.8,1.8
				s0.2,1.3,0.8,1.8c0.4,0.6,1.1,0.8,1.8,0.8c0.7,0,1.3-0.2,1.9-0.8c0.4-0.4,0.7-1.1,0.7-1.8C447.5,640.6,447.3,640,446.8,639.5
				 M464.6,571.3c-0.7,0-1.3,0.2-1.8,0.7c-0.6,0.6-0.8,1.1-0.8,1.9c0,0.7,0.2,1.3,0.8,1.8c0.4,0.4,1.1,0.8,1.8,0.8
				c0.7,0,1.3-0.2,1.8-0.8c0.6-0.4,0.8-1.1,0.8-1.8s-0.2-1.3-0.8-1.9C465.9,571.6,465.2,571.3,464.6,571.3 M455.2,571.3
				c-0.7,0-1.3,0.2-1.8,0.7c-0.4,0.6-0.8,1.1-0.8,1.9c0,0.8,0.2,1.3,0.8,1.8c0.6,0.5,1.1,0.8,1.8,0.8c0.7,0,1.3-0.2,1.8-0.8
				c0.4-0.4,0.7-1.1,0.7-1.8s-0.2-1.3-0.7-1.9C456.5,571.6,456,571.3,455.2,571.3 M445,571.3c-0.7,0-1.3,0.2-1.8,0.7
				c-0.4,0.6-0.8,1.1-0.8,1.9c0,0.8,0.2,1.3,0.8,1.8c0.4,0.4,1.1,0.8,1.8,0.8c0.7,0,1.3-0.2,1.9-0.8c0.4-0.4,0.7-1.1,0.7-1.8
				s-0.2-1.3-0.7-1.9C446.3,571.6,445.7,571.3,445,571.3z"/>
		</g>
	</g>
</g>
<g transform="matrix( 1, 0, 0, 1, -114.85,-581.95) ">
	<g>
		<g id="Layer0_3_FILL">
			<path fill="#F1F1F1" d="M196,643.1c0.6-0.4,0.8-1.1,0.8-1.8s-0.2-1.3-0.8-1.8c-0.4-0.6-1.1-0.8-1.8-0.8s-1.3,0.2-1.8,0.8
				c-0.6,0.4-0.8,1.1-0.8,1.8s0.2,1.3,0.8,1.8c0.4,0.6,1.1,0.8,1.8,0.8S195.4,643.6,196,643.1 M174.7,638.7c-0.7,0-1.3,0.2-1.8,0.8
				c-0.4,0.4-0.7,1.1-0.7,1.8s0.2,1.3,0.7,1.8c0.4,0.6,1.1,0.8,1.8,0.8c0.7,0,1.3-0.2,1.8-0.8c0.4-0.4,0.8-1.1,0.8-1.8
				s-0.2-1.3-0.8-1.8C175.8,639,175.3,638.7,174.7,638.7 M184.8,638.7c-0.7,0-1.3,0.2-1.9,0.8c-0.4,0.4-0.7,1.1-0.7,1.8
				s0.2,1.3,0.7,1.8c0.6,0.6,1.1,0.8,1.9,0.8c0.8,0,1.3-0.2,1.8-0.8c0.4-0.4,0.8-1.1,0.8-1.8s-0.2-1.3-0.8-1.8
				C186.2,639,185.5,638.7,184.8,638.7 M271.4,653.4c0.2-0.2,0.3-0.6,0.3-0.9s-0.1-0.7-0.3-0.9c-0.2-0.2-0.6-0.3-0.9-0.3
				s-0.7,0.1-1,0.3c-0.2,0.2-0.3,0.6-0.3,0.9c0,0.3,0.1,0.7,0.3,0.9c0.2,0.2,0.6,0.4,1,0.4S271.1,653.7,271.4,653.4 M265.7,653.8
				c0.3,0,0.7-0.1,0.9-0.4c0.2-0.2,0.4-0.6,0.4-0.9s-0.1-0.7-0.4-0.9c-0.2-0.2-0.6-0.3-0.9-0.3s-0.7,0.1-0.9,0.3
				c-0.2,0.2-0.4,0.6-0.4,0.9c0,0.3,0.1,0.7,0.4,0.9C265,653.7,265.3,653.8,265.7,653.8 M259.6,653.4c0.2,0.2,0.6,0.4,0.9,0.4
				c0.3,0,0.7-0.1,0.9-0.4c0.2-0.2,0.4-0.6,0.4-0.9s-0.1-0.7-0.4-0.9c-0.2-0.2-0.6-0.3-0.9-0.3c-0.3,0-0.7,0.1-0.9,0.3
				c-0.2,0.2-0.3,0.6-0.3,0.9C259.2,652.9,259.3,653.1,259.6,653.4 M271.4,619c0.2-0.2,0.3-0.6,0.3-0.9c0-0.3-0.1-0.7-0.3-0.9
				c-0.2-0.2-0.6-0.4-0.9-0.4s-0.7,0.1-1,0.4c-0.2,0.2-0.3,0.6-0.3,0.9s0.1,0.7,0.3,0.9c0.2,0.2,0.6,0.4,1,0.4
				S271.1,619.3,271.4,619 M265.7,619.4c0.3,0,0.7-0.1,0.9-0.4c0.2-0.2,0.4-0.6,0.4-0.9c0-0.3-0.1-0.7-0.4-0.9
				c-0.3-0.2-0.6-0.4-0.9-0.4s-0.7,0.1-0.9,0.4c-0.2,0.2-0.4,0.6-0.4,0.9s0.1,0.7,0.4,0.9C265,619.3,265.3,619.4,265.7,619.4
				 M261.7,618.1c0-0.3-0.1-0.7-0.4-0.9c-0.2-0.2-0.6-0.4-0.9-0.4s-0.7,0.1-0.9,0.4c-0.2,0.2-0.3,0.6-0.3,0.9s0.1,0.7,0.3,0.9
				c0.2,0.2,0.6,0.4,0.9,0.4s0.7-0.1,0.9-0.4C261.6,618.8,261.7,618.5,261.7,618.1 M-0.8,653.4c0.2,0.2,0.6,0.4,0.9,0.4
				s0.7-0.1,0.9-0.4c0.2-0.2,0.4-0.6,0.4-0.9s-0.1-0.7-0.4-0.9c-0.2-0.2-0.6-0.3-0.9-0.3s-0.7,0.1-0.9,0.3c-0.2,0.2-0.4,0.6-0.4,0.9
				C-1.3,652.9-1.2,653.1-0.8,653.4 M-6.1,652.5c0,0.3,0.1,0.7,0.4,0.9c0.2,0.2,0.6,0.4,0.9,0.4c0.3,0,0.7-0.1,1-0.4
				c0.2-0.2,0.4-0.6,0.4-0.9s-0.1-0.7-0.4-0.9c-0.2-0.2-0.6-0.3-1-0.3c-0.3,0-0.7,0.1-0.9,0.3C-5.9,651.9-6.1,652.1-6.1,652.5
				 M-8.7,652.5c0-0.3-0.1-0.7-0.4-0.9c-0.2-0.2-0.6-0.3-0.9-0.3c-0.3,0-0.7,0.1-0.9,0.3c-0.2,0.2-0.4,0.6-0.4,0.9
				c0,0.3,0.1,0.7,0.4,0.9c0.2,0.2,0.6,0.4,0.9,0.4c0.3,0,0.7-0.1,0.9-0.4S-8.7,652.9-8.7,652.5 M0,616.8c-0.3,0-0.7,0.1-0.9,0.4
				c-0.2,0.3-0.4,0.6-0.4,0.9s0.1,0.7,0.4,0.9c0.2,0.2,0.6,0.4,0.9,0.4s0.7-0.1,0.9-0.4c0.2-0.2,0.4-0.6,0.4-0.9
				c0-0.3-0.1-0.7-0.4-0.9C0.6,617,0.4,616.8,0,616.8 M-3.9,619c0.2-0.2,0.4-0.6,0.4-0.9c0-0.3-0.1-0.7-0.4-0.9
				c-0.3-0.2-0.6-0.4-1-0.4c-0.3,0-0.7,0.1-0.9,0.4c-0.2,0.3-0.4,0.6-0.4,0.9c0,0.3,0.1,0.7,0.4,0.9c0.2,0.2,0.6,0.4,0.9,0.4
				C-4.5,619.4-4.1,619.3-3.9,619 M-11.3,618.1c0,0.3,0.1,0.7,0.4,0.9c0.2,0.2,0.6,0.4,0.9,0.4c0.3,0,0.7-0.1,0.9-0.4
				c0.2-0.2,0.4-0.6,0.4-0.9c0-0.3-0.1-0.7-0.4-0.9c-0.2-0.2-0.6-0.4-0.9-0.4c-0.3,0-0.7,0.1-0.9,0.4
				C-11.1,617.5-11.3,617.8-11.3,618.1 M64.9,636.2c0.2-0.2,0.3-0.6,0.3-0.9s-0.1-0.7-0.3-0.9s-0.6-0.3-0.9-0.3
				c-0.3,0-0.7,0.1-0.9,0.3c-0.2,0.2-0.4,0.6-0.4,0.9s0.1,0.7,0.4,0.9c0.2,0.2,0.6,0.3,0.9,0.3C64.3,636.5,64.7,636.4,64.9,636.2
				 M59.6,636.2c0.2-0.2,0.3-0.6,0.3-0.9s-0.1-0.7-0.3-0.9c-0.2-0.2-0.6-0.3-0.9-0.3c-0.3,0-0.7,0.1-0.9,0.3
				c-0.2,0.2-0.4,0.6-0.4,0.9s0.1,0.7,0.4,0.9c0.2,0.2,0.6,0.3,0.9,0.3C59,636.5,59.4,636.4,59.6,636.2 M69.6,636.2
				c0.2-0.2,0.4-0.6,0.4-0.9s-0.1-0.7-0.4-0.9c-0.2-0.2-0.6-0.3-0.9-0.3s-0.7,0.1-0.9,0.3c-0.2,0.2-0.4,0.6-0.4,0.9s0.1,0.7,0.4,0.9
				c0.2,0.2,0.6,0.3,0.9,0.3C69.1,636.5,69.4,636.4,69.6,636.2 M57.9,601.9c0.2,0.2,0.6,0.3,0.9,0.3c0.3,0,0.7-0.1,0.9-0.3
				s0.3-0.6,0.3-1c0-0.3-0.1-0.7-0.3-0.9s-0.6-0.3-0.9-0.3c-0.3,0-0.7,0.1-0.9,0.3c-0.2,0.2-0.4,0.6-0.4,0.9
				C57.4,601.4,57.6,601.7,57.9,601.9 M63.1,601.9c0.2,0.2,0.6,0.3,0.9,0.3c0.3,0,0.7-0.1,0.9-0.3c0.2-0.2,0.3-0.6,0.3-1
				c0-0.3-0.1-0.7-0.3-0.9s-0.6-0.3-0.9-0.3c-0.3,0-0.7,0.1-0.9,0.3c-0.2,0.2-0.4,0.6-0.4,0.9C62.7,601.4,62.8,601.7,63.1,601.9
				 M69.6,601.9c0.2-0.2,0.4-0.6,0.4-1c0-0.3-0.1-0.7-0.4-0.9c-0.2-0.2-0.6-0.3-0.9-0.3s-0.7,0.1-0.9,0.3c-0.2,0.2-0.4,0.6-0.4,0.9
				s0.1,0.7,0.4,1c0.2,0.2,0.6,0.3,0.9,0.3C69.1,602.3,69.4,602.2,69.6,601.9 M194.2,571.3c-0.7,0-1.3,0.2-1.8,0.7
				c-0.6,0.6-0.8,1.1-0.8,1.9c0,0.8,0.2,1.3,0.8,1.8c0.4,0.4,1.1,0.8,1.8,0.8s1.3-0.2,1.8-0.8c0.6-0.4,0.8-1.1,0.8-1.8
				s-0.2-1.3-0.8-1.9C195.4,571.6,195,571.3,194.2,571.3 M184.8,571.3c-0.7,0-1.3,0.2-1.9,0.7c-0.4,0.6-0.7,1.1-0.7,1.9
				c0,0.8,0.2,1.3,0.7,1.8c0.6,0.4,1.1,0.8,1.9,0.8c0.8,0,1.3-0.2,1.8-0.8c0.4-0.4,0.8-1.1,0.8-1.8s-0.2-1.3-0.8-1.9
				C186.2,571.6,185.5,571.3,184.8,571.3 M174.7,571.3c-0.7,0-1.3,0.2-1.8,0.7c-0.4,0.6-0.7,1.1-0.7,1.9c0,0.8,0.2,1.3,0.7,1.8
				c0.4,0.4,1.1,0.8,1.8,0.8c0.7,0,1.3-0.2,1.8-0.8c0.4-0.4,0.8-1.1,0.8-1.8s-0.2-1.3-0.8-1.9C175.9,571.6,175.3,571.3,174.7,571.3
				 M-200.8,636.2c0.2-0.2,0.4-0.6,0.4-0.9s-0.1-0.7-0.4-0.9c-0.2-0.2-0.6-0.3-0.9-0.3c-0.3,0-0.7,0.1-0.9,0.3
				c-0.2,0.2-0.4,0.6-0.4,0.9s0.1,0.7,0.4,0.9c0.2,0.2,0.6,0.3,0.9,0.3C-201.4,636.5-201.1,636.4-200.8,636.2 M-205.6,636.2
				c0.2-0.2,0.3-0.6,0.3-0.9s-0.1-0.7-0.3-0.9s-0.6-0.3-0.9-0.3c-0.3,0-0.7,0.1-0.9,0.3s-0.4,0.6-0.4,0.9s0.1,0.7,0.4,0.9
				c0.2,0.2,0.6,0.3,0.9,0.3C-206.2,636.5-205.8,636.4-205.6,636.2 M-205.6,601.9c0.2-0.2,0.3-0.6,0.3-1c0-0.3-0.1-0.7-0.3-0.9
				s-0.6-0.3-0.9-0.3c-0.3,0-0.7,0.1-0.9,0.3s-0.4,0.6-0.4,0.9s0.1,0.7,0.4,1c0.2,0.2,0.6,0.3,0.9,0.3
				C-206.2,602.2-205.8,602.2-205.6,601.9 M-200.8,601.9c0.2-0.2,0.4-0.6,0.4-1c0-0.3-0.1-0.7-0.4-0.9c-0.2-0.2-0.6-0.3-0.9-0.3
				c-0.3,0-0.7,0.1-0.9,0.3c-0.2,0.2-0.4,0.6-0.4,0.9s0.1,0.7,0.4,1c0.2,0.2,0.6,0.3,0.9,0.3C-201.4,602.2-201.1,602.2-200.8,601.9
				 M-94,609.4c0.6-0.4,0.8-1.1,0.8-1.8c0-0.7-0.2-1.3-0.8-1.8c-0.4-0.4-1.1-0.8-1.8-0.8c-0.7,0-1.3,0.2-1.8,0.8
				c-0.6,0.6-0.8,1.1-0.8,1.8c0,0.7,0.2,1.3,0.8,1.8c0.4,0.4,1.1,0.7,1.8,0.7S-94.5,609.9-94,609.4 M-83.9,609.4
				c0.4-0.4,0.7-1.1,0.7-1.8c0-0.7-0.2-1.3-0.7-1.8c-0.5-0.5-1.1-0.8-1.8-0.8s-1.3,0.2-1.8,0.8c-0.4,0.6-0.7,1.1-0.7,1.8
				c0,0.7,0.2,1.3,0.7,1.8c0.4,0.4,1.1,0.7,1.8,0.7C-85,610.1-84.3,609.9-83.9,609.4 M-74.4,609.4c0.6-0.4,0.8-1.1,0.8-1.8
				c0-0.7-0.2-1.3-0.8-1.8c-0.4-0.4-1.1-0.8-1.8-0.8s-1.3,0.2-1.8,0.8c-0.6,0.6-0.8,1.1-0.8,1.8c0,0.7,0.2,1.3,0.8,1.8
				c0.4,0.4,1.1,0.7,1.8,0.7C-75.5,610.1-74.9,609.9-74.4,609.4 M-210.7,636.2c0.2-0.2,0.3-0.6,0.3-0.9s-0.1-0.7-0.3-0.9
				s-0.6-0.3-0.9-0.3c-0.3,0-0.7,0.1-0.9,0.3s-0.4,0.6-0.4,0.9s0.1,0.7,0.4,0.9c0.2,0.2,0.6,0.3,0.9,0.3
				C-211.3,636.5-211,636.4-210.7,636.2 M-210.7,601.9c0.2-0.2,0.3-0.6,0.3-1c0-0.3-0.1-0.7-0.3-0.9s-0.6-0.3-0.9-0.3
				c-0.3,0-0.7,0.1-0.9,0.3s-0.4,0.6-0.4,0.9s0.1,0.7,0.4,1c0.2,0.2,0.6,0.3,0.9,0.3C-211.3,602.2-211,602.2-210.7,601.9
				 M541.8,653.4c0.2-0.2,0.4-0.6,0.4-0.9s-0.1-0.7-0.4-0.9c-0.2-0.2-0.6-0.3-0.9-0.3c-0.3,0-0.7,0.1-0.9,0.3
				c-0.2,0.2-0.4,0.6-0.4,0.9c0,0.3,0.1,0.7,0.4,0.9c0.2,0.2,0.6,0.4,0.9,0.4C541.2,653.8,541.5,653.7,541.8,653.4 M537,653.4
				c0.2-0.2,0.3-0.6,0.3-0.9s-0.1-0.7-0.3-0.9c-0.2-0.2-0.6-0.3-0.9-0.3s-0.7,0.1-1,0.3c-0.2,0.2-0.3,0.6-0.3,0.9
				c0,0.3,0.1,0.7,0.3,0.9c0.2,0.2,0.6,0.4,1,0.4C536.5,653.8,536.8,653.7,537,653.4 M531.8,653.4c0.2-0.2,0.3-0.6,0.3-0.9
				s-0.1-0.7-0.3-0.9c-0.2-0.2-0.6-0.3-0.9-0.3c-0.3,0-0.7,0.1-0.9,0.3c-0.2,0.2-0.3,0.6-0.3,0.9c0,0.3,0.1,0.7,0.3,0.9
				c0.2,0.2,0.6,0.4,0.9,0.4C531.2,653.8,531.5,653.7,531.8,653.4 M537,619c0.2-0.2,0.3-0.6,0.3-0.9c0-0.3-0.1-0.7-0.3-0.9
				c-0.2-0.2-0.6-0.4-0.9-0.4s-0.7,0.1-1,0.4c-0.2,0.2-0.3,0.6-0.3,0.9s0.1,0.7,0.3,0.9c0.2,0.2,0.6,0.4,1,0.4
				C536.5,619.4,536.8,619.3,537,619 M541.8,619c0.2-0.2,0.4-0.6,0.4-0.9c0-0.3-0.1-0.7-0.4-0.9c-0.2-0.2-0.6-0.4-0.9-0.4
				c-0.3,0-0.7,0.1-0.9,0.4c-0.2,0.2-0.4,0.6-0.4,0.9s0.1,0.7,0.4,0.9c0.2,0.2,0.6,0.4,0.9,0.4C541.2,619.4,541.5,619.3,541.8,619
				 M531.8,619c0.2-0.2,0.3-0.6,0.3-0.9c0-0.3-0.1-0.7-0.3-0.9c-0.2-0.2-0.6-0.4-0.9-0.4c-0.3,0-0.7,0.1-0.9,0.4
				c-0.2,0.2-0.3,0.6-0.3,0.9s0.1,0.7,0.3,0.9c0.2,0.2,0.6,0.4,0.9,0.4C531.2,619.4,531.5,619.3,531.8,619 M330.1,636.2
				c0.2-0.2,0.4-0.6,0.4-0.9s-0.1-0.7-0.4-0.9c-0.2-0.2-0.6-0.3-0.9-0.3c-0.3,0-0.7,0.1-0.9,0.3c-0.2,0.2-0.4,0.6-0.4,0.9
				s0.1,0.7,0.4,0.9c0.2,0.2,0.6,0.3,0.9,0.3C329.6,636.5,329.9,636.4,330.1,636.2 M335.3,636.2c0.2-0.2,0.4-0.6,0.4-0.9
				s-0.1-0.7-0.4-0.9c-0.2-0.2-0.6-0.3-0.9-0.3c-0.3,0-0.7,0.1-0.9,0.3c-0.2,0.2-0.4,0.6-0.4,0.9s0.1,0.7,0.4,0.9
				c0.2,0.2,0.6,0.3,0.9,0.3C334.7,636.5,335.1,636.4,335.3,636.2 M338.2,634.5c-0.2,0.2-0.3,0.6-0.3,0.9s0.1,0.7,0.3,0.9
				c0.2,0.2,0.6,0.3,0.9,0.3c0.3,0,0.7-0.1,0.9-0.3c0.2-0.2,0.3-0.6,0.3-0.9s-0.1-0.7-0.3-0.9s-0.6-0.3-0.9-0.3
				C338.8,634.2,338.6,634.3,338.2,634.5 M330.1,601.9c0.2-0.2,0.4-0.6,0.4-1c0-0.3-0.1-0.7-0.4-0.9s-0.6-0.3-0.9-0.3
				c-0.3,0-0.7,0.1-0.9,0.3c-0.2,0.2-0.4,0.6-0.4,0.9s0.1,0.7,0.4,1c0.2,0.2,0.6,0.3,0.9,0.3C329.6,602.3,329.9,602.2,330.1,601.9
				 M335.7,600.9c0-0.3-0.1-0.7-0.4-0.9c-0.2-0.2-0.6-0.3-0.9-0.3c-0.3,0-0.7,0.1-0.9,0.3c-0.2,0.2-0.4,0.6-0.4,0.9s0.1,0.7,0.4,1
				c0.2,0.2,0.6,0.3,0.9,0.3c0.3,0,0.7-0.1,0.9-0.3C335.5,601.7,335.7,601.4,335.7,600.9 M340.1,601.9c0.2-0.2,0.3-0.6,0.3-1
				c0-0.3-0.1-0.7-0.3-0.9c-0.2-0.2-0.6-0.3-0.9-0.3c-0.3,0-0.7,0.1-0.9,0.3s-0.3,0.6-0.3,0.9s0.1,0.7,0.3,1
				c0.2,0.2,0.6,0.3,0.9,0.3C339.6,602.3,339.9,602.2,340.1,601.9 M446.8,609.4c0.4-0.4,0.7-1.1,0.7-1.8c0-0.7-0.2-1.3-0.7-1.8
				c-0.4-0.4-1.1-0.8-1.9-0.8c-0.7,0-1.3,0.2-1.8,0.8c-0.4,0.6-0.8,1.1-0.8,1.8c0,0.7,0.2,1.3,0.8,1.8c0.4,0.4,1.1,0.7,1.8,0.7
				C445.6,610.1,446.3,609.9,446.8,609.4 M464.6,610.1c0.7,0,1.3-0.2,1.8-0.7c0.6-0.4,0.8-1.1,0.8-1.8c0-0.7-0.2-1.3-0.8-1.8
				c-0.4-0.4-1.1-0.8-1.8-0.8c-0.7,0-1.3,0.2-1.8,0.8c-0.6,0.6-0.8,1.1-0.8,1.8c0,0.7,0.2,1.3,0.8,1.8
				C463.4,609.9,464,610.1,464.6,610.1 M457.1,609.4c0.4-0.4,0.7-1.1,0.7-1.8c0-0.7-0.2-1.3-0.7-1.8c-0.4-0.4-1.1-0.8-1.8-0.8
				s-1.3,0.2-1.8,0.8c-0.4,0.6-0.8,1.1-0.8,1.8c0,0.7,0.2,1.3,0.8,1.8c0.6,0.4,1.1,0.7,1.8,0.7S456.5,609.9,457.1,609.4z"/>
		</g>
	</g>
</g>
<g transform="matrix( 1, 0, 0, 1, -114.85,-581.95) ">
	<g>
		<g id="Layer0_4_FILL">
			<path fill="#CCCCCC" d="M219.3,652.6c-0.3,0-0.4,0.2-0.4,0.6v2.3h4.7v-2.3c0-0.3-0.2-0.6-0.6-0.6H219.3 M223.2,623
				c0.3,0,0.6-0.1,0.6-0.4v-3.9c0-0.3-0.2-0.4-0.6-0.4h-3.9c-0.3,0-0.4,0.1-0.4,0.4v3.9c0,0.3,0.1,0.4,0.4,0.4H223.2 M291.9,640
				c0.3,0,0.4-0.1,0.4-0.6v-3.9c0-0.3-0.1-0.4-0.4-0.4H288c-0.3,0-0.6,0.1-0.6,0.4v3.9c0,0.3,0.2,0.6,0.6,0.6H291.9 M291.9,605.8
				c0.3,0,0.4-0.1,0.4-0.4v-3.9c0-0.3-0.1-0.6-0.4-0.6H288c-0.3,0-0.6,0.2-0.6,0.6v3.9c0,0.3,0.2,0.4,0.6,0.4H291.9 M21.5,640
				c0.3,0,0.4-0.1,0.4-0.6v-3.9c0-0.3-0.1-0.4-0.4-0.4h-3.8c-0.3,0-0.4,0.1-0.4,0.4v3.9c0,0.3,0.1,0.6,0.4,0.6H21.5 M21.5,605.8
				c0.3,0,0.4-0.1,0.4-0.4v-3.9c0-0.3-0.1-0.6-0.4-0.6h-3.8c-0.3,0-0.4,0.2-0.4,0.6v3.9c0,0.3,0.1,0.4,0.4,0.4H21.5 M101.1,616.9
				c0.6,0,0.9-0.3,0.9-0.9v-7.5c0-0.6-0.3-0.9-0.9-0.9h-7.5c-0.2,0-0.4,0.1-0.7,0.2c-0.2,0.1-0.2,0.3-0.2,0.6v7.5
				c0,0.7,0.3,0.9,1,0.9L101.1,616.9 M-169.2,616.9c0.6,0,0.9-0.3,0.9-0.9v-7.5c0-0.6-0.3-0.9-0.9-0.9h-7.5c-0.7,0-1,0.3-1,0.9v7.5
				c0,0.7,0.3,0.9,1,0.9H-169.2 M-51.2,652.6c-0.3,0-0.4,0.2-0.4,0.6v2.3h4.7v-2.3c0-0.3-0.1-0.6-0.4-0.6H-51.2 M-47.3,623
				c0.3,0,0.4-0.1,0.4-0.4v-3.9c0-0.3-0.1-0.4-0.4-0.4h-3.9c-0.3,0-0.4,0.1-0.4,0.4v3.9c0,0.3,0.1,0.4,0.4,0.4H-47.3 M-249,640
				c0.3,0,0.4-0.1,0.4-0.6v-3.9c0-0.3-0.1-0.4-0.4-0.4h-3.9c-0.3,0-0.4,0.1-0.4,0.4v3.9c0,0.3,0.1,0.6,0.4,0.6H-249 M-249,605.8
				c0.3,0,0.4-0.1,0.4-0.4v-3.9c0-0.3-0.1-0.6-0.4-0.6h-3.9c-0.3,0-0.4,0.2-0.4,0.6v3.9c0,0.3,0.1,0.4,0.4,0.4H-249 M363.1,649.7
				c0,0.7,0.3,1,1,1h7.5c0.7,0,0.9-0.3,0.9-1v-7.5c0-0.2-0.1-0.4-0.2-0.6c-0.2-0.2-0.4-0.2-0.7-0.2h-7.5c-0.2,0-0.4,0.1-0.7,0.2
				c-0.2,0.1-0.3,0.3-0.2,0.6L363.1,649.7 M372.3,582.9c0.2-0.2,0.2-0.4,0.2-0.7v-7.5c0-0.2-0.1-0.4-0.2-0.7
				c-0.2-0.2-0.4-0.2-0.7-0.2h-7.5c-0.2,0-0.4,0.1-0.7,0.2c-0.2,0.2-0.3,0.4-0.2,0.7v7.5c0,0.2,0.1,0.4,0.2,0.7
				c0.2,0.2,0.4,0.2,0.7,0.2h7.5C371.8,583.2,372.1,583.1,372.3,582.9 M489.7,652.6c-0.3,0-0.4,0.2-0.4,0.6v2.3h4.7v-2.3
				c0-0.3-0.1-0.6-0.4-0.6H489.7 M493.5,623c0.3,0,0.4-0.1,0.4-0.4v-3.9c0-0.3-0.1-0.4-0.4-0.4h-3.9c-0.3,0-0.4,0.1-0.4,0.4v3.9
				c0,0.3,0.1,0.4,0.4,0.4H493.5z"/>
		</g>
	</g>
</g>
</svg>
