<svg version="1.1" xmlns="http://www.w3.org/2000/svg" id="Layer_1"  xmlns:xlink="http://www.w3.org/1999/xlink" x="0px" y="0px"
	 viewBox="0 0 150 158.7" enable-background="new 0 0 150 158.7" xml:space="preserve">
<g transform="matrix( 1, 0, 0, 1, 0,0) ">
	<g>
		<g id="Layer0_4_FILL">
			<path d="M150,127.9c0-1.4-0.6-2.7-1.4-3.7c-1-1-2.3-1.6-3.7-1.6H5.2c-1.4,0-2.7,0.6-3.7,1.6c-1,1-1.6,2.3-1.6,3.7v25.5
				c0,1.4,0.6,2.7,1.6,3.7c0.4,0.4,0.8,0.8,1.4,1.1l0.1,0.1c0.6,0.3,1.1,0.4,1.8,0.4c0.1,0,0.1,0,0.3,0h139.7c1.4,0,2.7-0.6,3.7-1.6
				c1-1,1.4-2.3,1.4-3.7V127.9 M109.8,137c-0.6-0.6-0.8-1.3-0.8-2.1s0.3-1.6,0.8-2.1c0.6-0.6,1.3-1,2.1-1c0.8,0,1.6,0.3,2.1,1
				c0.6,0.6,1,1.3,1,2.1s-0.3,1.6-1,2.1c-0.6,0.6-1.3,0.8-2.1,0.8C111.1,137.9,110.4,137.6,109.8,137 M121.2,134.9
				c0-0.8,0.3-1.6,0.8-2.1c0.6-0.6,1.3-1,2.1-1c0.8,0,1.6,0.3,2.1,1c0.6,0.6,1,1.3,1,2.1s-0.3,1.6-1,2.1c-0.6,0.6-1.3,0.8-2.1,0.8
				c-0.8,0-1.6-0.3-2.1-0.8C121.7,136.5,121.2,135.6,121.2,134.9 M135.8,131.8c0.8,0,1.6,0.3,2.1,1c0.6,0.6,0.8,1.3,0.8,2.1
				s-0.3,1.6-0.8,2.1c-0.6,0.6-1.4,0.8-2.1,0.8c-0.8,0-1.6-0.3-2.1-0.8c-0.6-0.6-0.8-1.3-0.8-2.1s0.3-1.6,0.8-2.1
				C134.2,132.1,134.8,131.8,135.8,131.8 M23.1,134.9c0.3,0,0.6,0.1,0.8,0.3c0.3,0.1,0.3,0.4,0.3,0.7v9c0,0.7-0.4,1.1-1.1,1.1h-9
				c-0.7,0-1.1-0.4-1.1-1.1v-9c0-0.7,0.4-1.1,1.1-1.1h9 M148.6,83.3c-1-1-2.3-1.6-3.7-1.6H5.2c-1.4,0-2.7,0.6-3.7,1.6
				c-1,1-1.6,2.3-1.6,3.7v25.5c0,1.4,0.6,2.7,1.6,3.7c1,1,2.3,1.4,3.7,1.4h139.7c1.4,0,2.7-0.4,3.7-1.4s1.4-2.3,1.4-3.7V87
				C150,85.6,149.6,84.3,148.6,83.3 M132.7,94c0-0.8,0.3-1.6,0.8-2.1c0.6-0.6,1.3-0.8,2.1-0.8s1.6,0.3,2.1,0.8
				c0.6,0.6,0.8,1.3,0.8,2.1s-0.3,1.6-0.8,2.1c-0.6,0.6-1.4,1-2.1,1c-0.8,0-1.6-0.3-2.1-1C132.9,95.6,132.7,94.9,132.7,94
				 M124.3,90.9c0.8,0,1.6,0.3,2.1,0.8c0.6,0.6,1,1.3,1,2.1c0,0.8-0.3,1.6-1,2.1c-0.6,0.6-1.3,1-2.1,1s-1.6-0.3-2.1-1
				c-0.6-0.6-0.8-1.3-0.8-2.1c0-0.8,0.3-1.6,0.8-2.1C122.8,91.4,123.5,90.9,124.3,90.9 M111.9,90.9c0.8,0,1.6,0.3,2.1,0.8
				c0.6,0.6,1,1.3,1,2.1c0,0.8-0.3,1.6-1,2.1c-0.6,0.6-1.3,1-2.1,1c-0.8,0-1.6-0.3-2.1-1c-0.6-0.6-0.8-1.3-0.8-2.1
				c0-0.8,0.3-1.6,0.8-2.1C110.4,91.4,111.1,90.9,111.9,90.9 M24.2,104.2c0,0.7-0.4,1.1-1.1,1.1h-9c-0.7,0-1.1-0.4-1.1-1.1v-9
				c0-0.7,0.4-1.1,1.1-1.1h9c0.7,0,1.1,0.4,1.1,1.1V104.2 M5.2,41c-1.4,0-2.7,0.6-3.7,1.6c-1,1-1.6,2.1-1.6,3.4v25.8
				c0,1.4,0.6,2.5,1.6,3.5c1,1,2.1,1.4,3.4,1.6h139.8c1.4,0,2.7-0.6,3.7-1.6c1-1,1.4-2.3,1.4-3.7V46c0-1.4-0.6-2.5-1.4-3.5
				c-1-1-2.3-1.6-3.7-1.6H5.2 M23.1,53.3c0.7,0,1.1,0.4,1.1,1.1v9c0,0.3-0.1,0.6-0.3,0.8c-0.1,0.3-0.4,0.3-0.8,0.3h-9
				c-0.3,0-0.6-0.1-0.7-0.3c-0.3-0.3-0.3-0.4-0.3-0.8v-9c0-0.7,0.4-1.1,1.1-1.1H23.1 M114.1,51c0.6,0.6,1,1.3,1,2.1
				c0,0.8-0.3,1.6-1,2.1c-0.6,0.6-1.3,0.8-2.1,0.8c-0.8,0-1.6-0.3-2.1-0.8c-0.6-0.6-0.8-1.3-0.8-2.1c0-0.8,0.3-1.6,0.8-2.1
				c0.6-0.6,1.3-0.8,2.1-0.8C112.8,50.2,113.5,50.5,114.1,51 M122.2,55.3c-0.6-0.6-0.8-1.3-0.8-2.1c0-0.8,0.3-1.6,0.8-2.1
				c0.6-0.6,1.3-0.8,2.1-0.8s1.6,0.3,2.1,0.8c0.6,0.6,1,1.3,1,2.1c0,0.8-0.3,1.6-1,2.1c-0.6,0.6-1.3,0.8-2.1,0.8
				C123.5,56.2,122.8,55.8,122.2,55.3 M133.6,51c0.6-0.6,1.3-0.8,2.1-0.8s1.6,0.3,2.1,0.8c0.6,0.6,0.8,1.3,0.8,2.1
				c0,0.8-0.3,1.6-0.8,2.1c-0.6,0.6-1.4,0.8-2.1,0.8c-0.8,0-1.6-0.3-2.1-0.8c-0.6-0.6-0.8-1.3-0.8-2.1
				C132.7,52.3,132.9,51.6,133.6,51 M5.2,0.1c-1.4,0-2.7,0.6-3.7,1.6C0.6,2.7,0,3.8,0,5.2V31c0,1.4,0.6,2.5,1.6,3.5
				c1,1,2.3,1.6,3.7,1.6h139.7c1.4,0,2.7-0.4,3.7-1.6c1-1,1.4-2.3,1.4-3.7V5.2c0-1.4-0.6-2.7-1.4-3.7c-0.6-0.6-1.1-0.8-1.7-1.1
				c-0.6-0.3-1.3-0.4-2-0.4H5.2 M24.2,13.7v9c0,0.7-0.4,1.1-1.1,1.1h-9c-0.7,0-1.1-0.3-1.1-1.1v-9c0-0.7,0.4-1.1,1.1-1.1h9
				C23.8,12.5,24.2,12.8,24.2,13.7 M135.8,15.4c-0.8,0-1.6-0.3-2.1-0.8c-0.6-0.6-0.8-1.3-0.8-2.3c0-0.8,0.3-1.6,0.8-2.1
				c0.6-0.6,1.3-0.8,2.1-0.8s1.6,0.3,2.1,0.8c0.6,0.6,0.8,1.3,0.8,2.1s-0.3,1.6-0.8,2.3C137.3,15.1,136.5,15.4,135.8,15.4
				 M126.5,10.2c0.6,0.6,1,1.3,1,2.1s-0.3,1.6-1,2.3c-0.6,0.6-1.3,0.8-2.1,0.8s-1.6-0.3-2.1-0.8c-0.6-0.6-0.8-1.3-0.8-2.3
				c0-0.8,0.3-1.6,0.8-2.1c0.6-0.6,1.3-0.8,2.1-0.8C125.2,9.3,125.9,9.6,126.5,10.2 M111.9,9.3c0.8,0,1.6,0.3,2.1,0.8
				c0.6,0.6,1,1.3,1,2.1c0,0.8-0.3,1.6-1,2.3c-0.6,0.6-1.3,0.8-2.1,0.8c-0.8,0-1.6-0.3-2.1-0.8c-0.6-0.6-0.8-1.3-0.8-2.3
				c0-0.8,0.3-1.6,0.8-2.1C110.4,9.6,111.1,9.3,111.9,9.3z"/>
		</g>
	</g>
</g>
</svg>
