<?xml version="1.0" encoding="iso-8859-1"?>
<!-- Generator: Adobe Illustrator 18.1.0, SVG Export Plug-In . SVG Version: 6.00 Build 0)  -->
<!DOCTYPE svg PUBLIC "-//W3C//DTD SVG 1.1//EN" "http://www.w3.org/Graphics/SVG/1.1/DTD/svg11.dtd">
<svg version="1.1" xmlns="http://www.w3.org/2000/svg" xmlns:xlink="http://www.w3.org/1999/xlink" x="0px" y="0px"
	 viewBox="0 0 735.35 83.65" style="enable-background:new 0 0 735.35 83.65;" xml:space="preserve">
<g id="servers_x5F_supercomputing">
	<path d="M488.5,78.35c0-0.567-0.183-1.033-0.55-1.4c-0.4-0.4-0.867-0.6-1.4-0.6h-53.6c-0.533,0-1,0.2-1.4,0.6s-0.6,0.867-0.6,1.4
		v5.3h5v-2.1c0-0.3,0.133-0.45,0.4-0.45h3.45c0.3,0,0.45,0.15,0.45,0.45v2.1h48.25V78.35 M473.9,82.2c-0.333,0-0.6-0.117-0.8-0.35
		c-0.233-0.2-0.35-0.467-0.35-0.8c0-0.333,0.117-0.6,0.35-0.8c0.2-0.233,0.467-0.35,0.8-0.35c0.333,0,0.6,0.117,0.8,0.35
		c0.233,0.2,0.35,0.467,0.35,0.8c0,0.333-0.117,0.6-0.35,0.8C474.5,82.083,474.233,82.2,473.9,82.2 M479.45,81.85
		c-0.233,0.233-0.5,0.35-0.8,0.35c-0.333,0-0.617-0.117-0.85-0.35c-0.233-0.2-0.35-0.467-0.35-0.8c0-0.333,0.117-0.6,0.35-0.8
		c0.233-0.233,0.517-0.35,0.85-0.35c0.3,0,0.567,0.117,0.8,0.35c0.233,0.2,0.35,0.467,0.35,0.8
		C479.8,81.383,479.683,81.65,479.45,81.85 M483,79.9c0.333,0,0.6,0.117,0.8,0.35c0.233,0.2,0.35,0.467,0.35,0.8
		c0,0.333-0.117,0.6-0.35,0.8c-0.2,0.233-0.467,0.35-0.8,0.35s-0.617-0.117-0.85-0.35c-0.233-0.2-0.35-0.467-0.35-0.8
		c0-0.333,0.117-0.6,0.35-0.8C482.383,80.017,482.667,79.9,483,79.9 M487.95,61.3c-0.4-0.4-0.867-0.6-1.4-0.6h-53.6
		c-0.533,0-1,0.2-1.4,0.6s-0.6,0.867-0.6,1.4v9.8c0,0.533,0.2,1,0.6,1.4c0.367,0.367,0.833,0.55,1.4,0.55h53.6
		c0.567,0,1.033-0.183,1.4-0.55c0.367-0.367,0.55-0.833,0.55-1.4v-9.8C488.5,62.133,488.317,61.667,487.95,61.3 M482.15,64.6
		c0.233-0.233,0.517-0.35,0.85-0.35s0.6,0.117,0.8,0.35c0.233,0.2,0.35,0.467,0.35,0.8s-0.117,0.6-0.35,0.8
		c-0.2,0.233-0.467,0.35-0.8,0.35s-0.617-0.117-0.85-0.35c-0.233-0.2-0.35-0.467-0.35-0.8S481.917,64.8,482.15,64.6 M473.9,66.55
		c-0.333,0-0.6-0.117-0.8-0.35c-0.233-0.2-0.35-0.467-0.35-0.8s0.117-0.6,0.35-0.8c0.2-0.233,0.467-0.35,0.8-0.35
		c0.333,0,0.6,0.117,0.8,0.35c0.233,0.2,0.35,0.467,0.35,0.8s-0.117,0.6-0.35,0.8C474.5,66.433,474.233,66.55,473.9,66.55
		 M479.45,66.2c-0.233,0.233-0.5,0.35-0.8,0.35c-0.333,0-0.617-0.117-0.85-0.35c-0.233-0.2-0.35-0.467-0.35-0.8s0.117-0.6,0.35-0.8
		c0.233-0.233,0.517-0.35,0.85-0.35c0.3,0,0.567,0.117,0.8,0.35c0.233,0.2,0.35,0.467,0.35,0.8S479.683,66,479.45,66.2 M440.25,69.3
		c0,0.3-0.15,0.45-0.45,0.45h-3.45c-0.267,0-0.4-0.15-0.4-0.45v-3.45c0-0.267,0.133-0.4,0.4-0.4h3.45c0.3,0,0.45,0.133,0.45,0.4
		V69.3 M488.5,47.05c0-0.567-0.183-1.033-0.55-1.4c-0.4-0.4-0.867-0.6-1.4-0.6h-53.6c-0.533,0-1,0.2-1.4,0.6
		c-0.4,0.4-0.6,0.867-0.6,1.4v9.8c0,0.533,0.2,0.983,0.6,1.35c0.4,0.4,0.867,0.6,1.4,0.6h53.6c0.533,0,1-0.2,1.4-0.6
		c0.367-0.367,0.55-0.817,0.55-1.35V47.05 M474.7,48.9c0.233,0.233,0.35,0.517,0.35,0.85c0,0.3-0.117,0.567-0.35,0.8
		c-0.2,0.233-0.467,0.35-0.8,0.35c-0.333,0-0.6-0.117-0.8-0.35c-0.233-0.233-0.35-0.5-0.35-0.8c0-0.333,0.117-0.617,0.35-0.85
		c0.2-0.233,0.467-0.35,0.8-0.35C474.233,48.55,474.5,48.667,474.7,48.9 M479.45,50.55c-0.233,0.233-0.5,0.35-0.8,0.35
		c-0.333,0-0.617-0.117-0.85-0.35c-0.233-0.233-0.35-0.5-0.35-0.8c0-0.333,0.117-0.617,0.35-0.85c0.233-0.233,0.517-0.35,0.85-0.35
		c0.3,0,0.567,0.117,0.8,0.35s0.35,0.517,0.35,0.85C479.8,50.05,479.683,50.317,479.45,50.55 M483.8,48.9
		c0.233,0.233,0.35,0.517,0.35,0.85c0,0.3-0.117,0.567-0.35,0.8c-0.2,0.233-0.467,0.35-0.8,0.35s-0.617-0.117-0.85-0.35
		c-0.233-0.233-0.35-0.5-0.35-0.8c0-0.333,0.117-0.617,0.35-0.85c0.233-0.233,0.517-0.35,0.85-0.35S483.6,48.667,483.8,48.9
		 M436.35,54.1c-0.267,0-0.4-0.15-0.4-0.45V50.2c0-0.267,0.133-0.4,0.4-0.4h3.45c0.3,0,0.45,0.133,0.45,0.4v3.45
		c0,0.3-0.15,0.45-0.45,0.45H436.35 M487.95,29.95c-0.367-0.367-0.833-0.55-1.4-0.55h-53.6c-0.567,0-1.033,0.183-1.4,0.55
		c-0.4,0.4-0.6,0.867-0.6,1.4v9.8c0,0.567,0.2,1.033,0.6,1.4c0.4,0.4,0.867,0.6,1.4,0.6h53.6c0.533,0,1-0.2,1.4-0.6
		c0.367-0.367,0.55-0.833,0.55-1.4v-9.8C488.5,30.817,488.317,30.35,487.95,29.95 M481.8,34.05c0-0.3,0.117-0.567,0.35-0.8
		c0.233-0.233,0.517-0.35,0.85-0.35s0.6,0.117,0.8,0.35c0.233,0.233,0.35,0.5,0.35,0.8c0,0.333-0.117,0.617-0.35,0.85
		c-0.2,0.233-0.467,0.35-0.8,0.35s-0.617-0.117-0.85-0.35C481.917,34.667,481.8,34.383,481.8,34.05 M474.7,33.25
		c0.233,0.233,0.35,0.5,0.35,0.8c0,0.333-0.117,0.617-0.35,0.85c-0.2,0.233-0.467,0.35-0.8,0.35c-0.333,0-0.6-0.117-0.8-0.35
		c-0.233-0.233-0.35-0.517-0.35-0.85c0-0.3,0.117-0.567,0.35-0.8c0.2-0.233,0.467-0.35,0.8-0.35
		C474.233,32.9,474.5,33.017,474.7,33.25 M479.45,34.9c-0.233,0.233-0.5,0.35-0.8,0.35c-0.333,0-0.617-0.117-0.85-0.35
		c-0.233-0.233-0.35-0.517-0.35-0.85c0-0.3,0.117-0.567,0.35-0.8c0.233-0.233,0.517-0.35,0.85-0.35c0.3,0,0.567,0.117,0.8,0.35
		s0.35,0.5,0.35,0.8C479.8,34.383,479.683,34.667,479.45,34.9 M440.25,34.55V38c0,0.267-0.15,0.4-0.45,0.4h-3.45
		c-0.267,0-0.4-0.133-0.4-0.4v-3.45c0-0.3,0.133-0.45,0.4-0.45h3.45C440.1,34.1,440.25,34.25,440.25,34.55 M304.4,78.35
		c0-0.533-0.2-1-0.6-1.4c-0.367-0.4-0.833-0.6-1.4-0.6h-53.6c-0.533,0-1,0.2-1.4,0.6c-0.367,0.367-0.55,0.833-0.55,1.4v5.3h4.95
		v-2.1c0-0.3,0.15-0.45,0.45-0.45h3.45c0.267,0,0.4,0.15,0.4,0.45v2.1h48.3V78.35 M290.9,81.05c0,0.333-0.117,0.6-0.35,0.8
		c-0.2,0.233-0.467,0.35-0.8,0.35c-0.333,0-0.6-0.117-0.8-0.35c-0.233-0.2-0.35-0.467-0.35-0.8c0-0.333,0.117-0.6,0.35-0.8
		c0.2-0.233,0.467-0.35,0.8-0.35c0.333,0,0.6,0.117,0.8,0.35C290.783,80.45,290.9,80.717,290.9,81.05 M295.65,81.05
		c0,0.333-0.117,0.6-0.35,0.8c-0.2,0.233-0.467,0.35-0.8,0.35c-0.333,0-0.6-0.117-0.8-0.35c-0.233-0.2-0.35-0.467-0.35-0.8
		c0-0.333,0.117-0.6,0.35-0.8c0.2-0.233,0.467-0.35,0.8-0.35c0.333,0,0.6,0.117,0.8,0.35C295.533,80.45,295.65,80.717,295.65,81.05
		 M299.65,80.25c0.233,0.2,0.35,0.467,0.35,0.8c0,0.333-0.117,0.6-0.35,0.8c-0.2,0.233-0.467,0.35-0.8,0.35s-0.6-0.117-0.8-0.35
		c-0.233-0.2-0.35-0.467-0.35-0.8c0-0.333,0.117-0.6,0.35-0.8c0.2-0.233,0.467-0.35,0.8-0.35S299.45,80.017,299.65,80.25
		 M304.4,62.7c0-0.533-0.2-1-0.6-1.4c-0.367-0.4-0.833-0.6-1.4-0.6h-53.6c-0.533,0-1,0.2-1.4,0.6c-0.367,0.367-0.55,0.833-0.55,1.4
		v9.8c0,0.567,0.183,1.033,0.55,1.4c0.4,0.367,0.867,0.55,1.4,0.55h53.6c0.567,0,1.033-0.183,1.4-0.55c0.4-0.4,0.6-0.867,0.6-1.4
		V62.7 M298.05,64.6c0.2-0.233,0.467-0.35,0.8-0.35s0.6,0.117,0.8,0.35c0.233,0.2,0.35,0.467,0.35,0.8s-0.117,0.6-0.35,0.8
		c-0.2,0.233-0.467,0.35-0.8,0.35s-0.6-0.117-0.8-0.35c-0.233-0.2-0.35-0.467-0.35-0.8S297.817,64.8,298.05,64.6 M290.9,65.4
		c0,0.333-0.117,0.6-0.35,0.8c-0.2,0.233-0.467,0.35-0.8,0.35c-0.333,0-0.6-0.117-0.8-0.35c-0.233-0.2-0.35-0.467-0.35-0.8
		s0.117-0.6,0.35-0.8c0.2-0.233,0.467-0.35,0.8-0.35c0.333,0,0.6,0.117,0.8,0.35C290.783,64.8,290.9,65.067,290.9,65.4 M295.65,65.4
		c0,0.333-0.117,0.6-0.35,0.8c-0.2,0.233-0.467,0.35-0.8,0.35c-0.333,0-0.6-0.117-0.8-0.35c-0.233-0.2-0.35-0.467-0.35-0.8
		s0.117-0.6,0.35-0.8c0.2-0.233,0.467-0.35,0.8-0.35c0.333,0,0.6,0.117,0.8,0.35C295.533,64.8,295.65,65.067,295.65,65.4
		 M251.8,69.3v-3.45c0-0.267,0.15-0.4,0.45-0.4h3.45c0.267,0,0.4,0.133,0.4,0.4v3.45c0,0.3-0.133,0.45-0.4,0.45h-3.45
		C251.95,69.75,251.8,69.6,251.8,69.3 M312.25,62.75c-0.767,0.767-1.15,1.683-1.15,2.75v18.15h113.15V65.5
		c0-1.067-0.383-1.983-1.15-2.75s-1.683-1.15-2.75-1.15H315C313.933,61.6,313.017,61.983,312.25,62.75 M321.1,71.2
		c0.167-0.167,0.367-0.25,0.6-0.25h6.8c0.533,0,0.8,0.267,0.8,0.8v6.8c0,0.567-0.267,0.85-0.8,0.85h-6.8
		c-0.567,0-0.85-0.283-0.85-0.85v-6.8C320.85,71.517,320.933,71.333,321.1,71.2 M404.85,68.55c0.633,0,1.167,0.233,1.6,0.7
		c0.433,0.433,0.65,0.967,0.65,1.6c0,0.633-0.217,1.167-0.65,1.6c-0.433,0.467-0.967,0.7-1.6,0.7s-1.183-0.233-1.65-0.7
		c-0.433-0.433-0.65-0.967-0.65-1.6c0-0.633,0.217-1.167,0.65-1.6C403.667,68.783,404.217,68.55,404.85,68.55 M393.9,69.25
		c0.433-0.467,0.967-0.7,1.6-0.7c0.633,0,1.183,0.233,1.65,0.7c0.433,0.433,0.65,0.967,0.65,1.6c0,0.633-0.217,1.167-0.65,1.6
		c-0.467,0.467-1.017,0.7-1.65,0.7c-0.633,0-1.167-0.233-1.6-0.7c-0.433-0.433-0.65-0.967-0.65-1.6
		C393.25,70.217,393.467,69.683,393.9,69.25 M411.8,69.25c0.433-0.467,0.967-0.7,1.6-0.7c0.633,0,1.167,0.233,1.6,0.7
		c0.467,0.433,0.7,0.967,0.7,1.6c0,0.633-0.233,1.167-0.7,1.6c-0.433,0.467-0.967,0.7-1.6,0.7c-0.633,0-1.167-0.233-1.6-0.7
		c-0.467-0.433-0.7-0.967-0.7-1.6C411.1,70.217,411.333,69.683,411.8,69.25 M304.4,47.05c0-0.533-0.2-1-0.6-1.4
		c-0.367-0.4-0.833-0.6-1.4-0.6h-53.6c-0.533,0-1,0.2-1.4,0.6c-0.367,0.367-0.55,0.833-0.55,1.4v9.8c0,0.533,0.183,0.983,0.55,1.35
		c0.4,0.4,0.867,0.6,1.4,0.6h53.6c0.533,0,1-0.2,1.4-0.6c0.4-0.367,0.6-0.817,0.6-1.35V47.05 M295.65,49.75
		c0,0.3-0.117,0.567-0.35,0.8c-0.2,0.233-0.467,0.35-0.8,0.35c-0.333,0-0.6-0.117-0.8-0.35c-0.233-0.233-0.35-0.5-0.35-0.8
		c0-0.333,0.117-0.617,0.35-0.85c0.2-0.233,0.467-0.35,0.8-0.35c0.333,0,0.6,0.117,0.8,0.35
		C295.533,49.133,295.65,49.417,295.65,49.75 M290.9,49.75c0,0.3-0.117,0.567-0.35,0.8c-0.2,0.233-0.467,0.35-0.8,0.35
		c-0.333,0-0.6-0.117-0.8-0.35c-0.233-0.233-0.35-0.5-0.35-0.8c0-0.333,0.117-0.617,0.35-0.85c0.2-0.233,0.467-0.35,0.8-0.35
		c0.333,0,0.6,0.117,0.8,0.35C290.783,49.133,290.9,49.417,290.9,49.75 M299.65,48.9c0.233,0.233,0.35,0.517,0.35,0.85
		c0,0.3-0.117,0.567-0.35,0.8c-0.2,0.233-0.467,0.35-0.8,0.35s-0.6-0.117-0.8-0.35c-0.233-0.233-0.35-0.5-0.35-0.8
		c0-0.333,0.117-0.617,0.35-0.85c0.2-0.233,0.467-0.35,0.8-0.35S299.45,48.667,299.65,48.9 M252.25,49.8h3.45
		c0.267,0,0.4,0.133,0.4,0.4v3.45c0,0.3-0.133,0.45-0.4,0.45h-3.45c-0.3,0-0.45-0.15-0.45-0.45V50.2
		C251.8,49.933,251.95,49.8,252.25,49.8 M304.4,31.35c0-0.533-0.2-1-0.6-1.4c-0.367-0.367-0.833-0.55-1.4-0.55h-53.6
		c-0.533,0-1,0.183-1.4,0.55c-0.367,0.4-0.55,0.867-0.55,1.4v9.8c0,0.567,0.183,1.033,0.55,1.4c0.4,0.4,0.867,0.6,1.4,0.6h53.6
		c0.567,0,1.033-0.2,1.4-0.6c0.4-0.367,0.6-0.833,0.6-1.4V31.35 M300,34.05c0,0.333-0.117,0.617-0.35,0.85
		c-0.2,0.233-0.467,0.35-0.8,0.35s-0.6-0.117-0.8-0.35c-0.233-0.233-0.35-0.517-0.35-0.85c0-0.3,0.117-0.567,0.35-0.8
		c0.2-0.233,0.467-0.35,0.8-0.35s0.6,0.117,0.8,0.35C299.883,33.483,300,33.75,300,34.05 M295.65,34.05
		c0,0.333-0.117,0.617-0.35,0.85c-0.2,0.233-0.467,0.35-0.8,0.35c-0.333,0-0.6-0.117-0.8-0.35c-0.233-0.233-0.35-0.517-0.35-0.85
		c0-0.3,0.117-0.567,0.35-0.8c0.2-0.233,0.467-0.35,0.8-0.35c0.333,0,0.6,0.117,0.8,0.35C295.533,33.483,295.65,33.75,295.65,34.05
		 M289.75,35.25c-0.333,0-0.6-0.117-0.8-0.35c-0.233-0.233-0.35-0.517-0.35-0.85c0-0.3,0.117-0.567,0.35-0.8
		c0.2-0.233,0.467-0.35,0.8-0.35c0.333,0,0.6,0.117,0.8,0.35c0.233,0.233,0.35,0.5,0.35,0.8c0,0.333-0.117,0.617-0.35,0.85
		C290.35,35.133,290.083,35.25,289.75,35.25 M256.1,34.55V38c0,0.267-0.133,0.4-0.4,0.4h-3.45c-0.3,0-0.45-0.133-0.45-0.4v-3.45
		c0-0.3,0.15-0.45,0.45-0.45h3.45C255.967,34.1,256.1,34.25,256.1,34.55 M315,30.8c-1.067,0-1.983,0.383-2.75,1.15
		c-0.767,0.767-1.15,1.683-1.15,2.75V54c0,1.067,0.383,1.983,1.15,2.75s1.683,1.15,2.75,1.15h105.35c1.067,0,1.983-0.383,2.75-1.15
		s1.15-1.683,1.15-2.75V34.7c0-1.067-0.383-1.983-1.15-2.75c-0.767-0.767-1.683-1.15-2.75-1.15H315 M329.3,47.75
		c0,0.567-0.267,0.85-0.8,0.85h-6.8c-0.567,0-0.85-0.283-0.85-0.85v-6.8c0-0.233,0.083-0.417,0.25-0.55
		c0.167-0.167,0.367-0.25,0.6-0.25h6.8c0.533,0,0.8,0.267,0.8,0.8V47.75 M415,38.4c0.467,0.467,0.7,1.017,0.7,1.65
		c0,0.633-0.233,1.167-0.7,1.6c-0.433,0.433-0.967,0.65-1.6,0.65c-0.633,0-1.167-0.217-1.6-0.65c-0.467-0.433-0.7-0.967-0.7-1.6
		c0-0.633,0.233-1.183,0.7-1.65c0.433-0.433,0.967-0.65,1.6-0.65C414.033,37.75,414.567,37.967,415,38.4 M407.1,40.05
		c0,0.633-0.217,1.167-0.65,1.6c-0.433,0.433-0.967,0.65-1.6,0.65s-1.183-0.217-1.65-0.65c-0.433-0.433-0.65-0.967-0.65-1.6
		c0-0.633,0.217-1.183,0.65-1.65c0.467-0.433,1.017-0.65,1.65-0.65s1.167,0.217,1.6,0.65C406.883,38.867,407.1,39.417,407.1,40.05
		 M397.8,40.05c0,0.633-0.217,1.167-0.65,1.6c-0.467,0.433-1.017,0.65-1.65,0.65c-0.633,0-1.167-0.217-1.6-0.65
		c-0.433-0.433-0.65-0.967-0.65-1.6c0-0.633,0.217-1.183,0.65-1.65c0.433-0.433,0.967-0.65,1.6-0.65c0.667,0,1.217,0.217,1.65,0.65
		C397.583,38.867,397.8,39.417,397.8,40.05 M424.25,3.9c0-1.067-0.383-1.983-1.15-2.75S421.417,0,420.35,0H315
		c-1.067,0-1.983,0.383-2.75,1.15s-1.15,1.683-1.15,2.75v19.3c0,1.067,0.383,1.983,1.15,2.75c0.767,0.767,1.683,1.15,2.75,1.15
		h105.35c1.067,0,1.983-0.383,2.75-1.15c0.767-0.767,1.15-1.683,1.15-2.75V3.9 M403.2,7.6c0.467-0.433,1.017-0.65,1.65-0.65
		s1.167,0.217,1.6,0.65c0.433,0.467,0.65,1.017,0.65,1.65s-0.217,1.167-0.65,1.6c-0.433,0.433-0.967,0.65-1.6,0.65
		s-1.183-0.217-1.65-0.65c-0.433-0.433-0.65-0.967-0.65-1.6S402.767,8.067,403.2,7.6 M393.9,7.6c0.433-0.433,0.967-0.65,1.6-0.65
		c0.667,0,1.217,0.217,1.65,0.65c0.433,0.467,0.65,1.017,0.65,1.65s-0.217,1.167-0.65,1.6c-0.467,0.433-1.017,0.65-1.65,0.65
		c-0.633,0-1.167-0.217-1.6-0.65c-0.433-0.433-0.65-0.967-0.65-1.6S393.467,8.067,393.9,7.6 M411.8,7.6
		c0.433-0.433,0.967-0.65,1.6-0.65c0.633,0,1.167,0.217,1.6,0.65c0.467,0.467,0.7,1.017,0.7,1.65s-0.233,1.167-0.7,1.6
		c-0.433,0.433-0.967,0.65-1.6,0.65c-0.633,0-1.167-0.217-1.6-0.65c-0.467-0.433-0.7-0.967-0.7-1.6S411.333,8.067,411.8,7.6
		 M329.3,16.95c0,0.233-0.083,0.433-0.25,0.6c-0.133,0.167-0.317,0.25-0.55,0.25h-6.8c-0.233,0-0.433-0.083-0.6-0.25
		c-0.167-0.167-0.25-0.367-0.25-0.6v-6.8c0-0.233,0.083-0.433,0.25-0.6c0.167-0.167,0.367-0.25,0.6-0.25h6.8
		c0.233,0,0.417,0.083,0.55,0.25c0.167,0.167,0.25,0.367,0.25,0.6V16.95 M177.4,65.5c0-1.067-0.383-1.983-1.15-2.75
		s-1.683-1.15-2.75-1.15H68.1c-1.067,0-1.983,0.383-2.75,1.15c-0.733,0.767-1.1,1.683-1.1,2.75v18.15H177.4V65.5 M157.95,68.55
		c0.633,0,1.183,0.233,1.65,0.7c0.433,0.433,0.65,0.967,0.65,1.6c0,0.633-0.217,1.167-0.65,1.6c-0.467,0.467-1.017,0.7-1.65,0.7
		c-0.633,0-1.167-0.233-1.6-0.7c-0.433-0.433-0.65-0.967-0.65-1.6c0-0.633,0.217-1.167,0.65-1.6
		C156.783,68.783,157.317,68.55,157.95,68.55 M147.05,69.25c0.433-0.467,0.967-0.7,1.6-0.7s1.167,0.233,1.6,0.7
		c0.467,0.433,0.7,0.967,0.7,1.6c0,0.633-0.233,1.167-0.7,1.6c-0.433,0.467-0.967,0.7-1.6,0.7s-1.167-0.233-1.6-0.7
		c-0.467-0.433-0.7-0.967-0.7-1.6C146.35,70.217,146.583,69.683,147.05,69.25 M164.95,72.45c-0.467-0.433-0.7-0.967-0.7-1.6
		c0-0.633,0.233-1.167,0.7-1.6c0.433-0.467,0.967-0.7,1.6-0.7s1.167,0.233,1.6,0.7c0.467,0.433,0.7,0.967,0.7,1.6
		c0,0.633-0.233,1.167-0.7,1.6c-0.433,0.467-0.967,0.7-1.6,0.7S165.383,72.917,164.95,72.45 M74,78.55v-6.8
		c0-0.533,0.283-0.8,0.85-0.8h6.8c0.533,0,0.8,0.267,0.8,0.8v6.8c0,0.567-0.267,0.85-0.8,0.85h-6.8C74.283,79.4,74,79.117,74,78.55
		 M184.7,61.3c-0.4,0.4-0.6,0.867-0.6,1.4v9.8c0,0.533,0.2,1,0.6,1.4c0.367,0.367,0.833,0.55,1.4,0.55h53.6
		c0.533,0,0.983-0.183,1.35-0.55c0.4-0.4,0.6-0.867,0.6-1.4v-9.8c0-0.533-0.2-1-0.6-1.4c-0.367-0.4-0.817-0.6-1.35-0.6h-53.6
		C185.567,60.7,185.1,60.9,184.7,61.3 M193.4,65.85v3.45c0,0.3-0.15,0.45-0.45,0.45h-3.45c-0.267,0-0.4-0.15-0.4-0.45v-3.45
		c0-0.267,0.133-0.4,0.4-0.4h3.45C193.25,65.45,193.4,65.583,193.4,65.85 M237.3,65.4c0,0.333-0.117,0.6-0.35,0.8
		c-0.233,0.233-0.5,0.35-0.8,0.35c-0.333,0-0.617-0.117-0.85-0.35c-0.233-0.2-0.35-0.467-0.35-0.8s0.117-0.6,0.35-0.8
		c0.233-0.233,0.517-0.35,0.85-0.35c0.3,0,0.567,0.117,0.8,0.35C237.183,64.8,237.3,65.067,237.3,65.4 M227.85,64.6
		c0.233,0.2,0.35,0.467,0.35,0.8s-0.117,0.6-0.35,0.8c-0.2,0.233-0.467,0.35-0.8,0.35c-0.333,0-0.6-0.117-0.8-0.35
		c-0.233-0.2-0.35-0.467-0.35-0.8c0-0.333,0.117-0.6,0.35-0.8c0.2-0.233,0.467-0.35,0.8-0.35
		C227.383,64.25,227.65,64.367,227.85,64.6 M230.95,66.2c-0.233-0.2-0.35-0.467-0.35-0.8s0.117-0.6,0.35-0.8
		c0.233-0.233,0.5-0.35,0.8-0.35c0.333,0,0.617,0.117,0.85,0.35c0.233,0.2,0.35,0.467,0.35,0.8s-0.117,0.6-0.35,0.8
		c-0.233,0.233-0.517,0.35-0.85,0.35C231.45,66.55,231.183,66.433,230.95,66.2 M189.1,81.55c0-0.3,0.133-0.45,0.4-0.45h3.45
		c0.3,0,0.45,0.15,0.45,0.45v2.1h48.25v-5.3c0-0.533-0.2-1-0.6-1.4c-0.367-0.4-0.817-0.6-1.35-0.6h-53.6c-0.533,0-1,0.2-1.4,0.6
		c-0.4,0.4-0.6,0.867-0.6,1.4v5.3h5V81.55 M228.2,81.05c0,0.333-0.117,0.6-0.35,0.8c-0.2,0.233-0.467,0.35-0.8,0.35
		c-0.333,0-0.6-0.117-0.8-0.35c-0.233-0.2-0.35-0.467-0.35-0.8c0-0.333,0.117-0.6,0.35-0.8c0.2-0.233,0.467-0.35,0.8-0.35
		c0.333,0,0.6,0.117,0.8,0.35C228.083,80.45,228.2,80.717,228.2,81.05 M230.95,81.85c-0.233-0.2-0.35-0.467-0.35-0.8
		c0-0.333,0.117-0.6,0.35-0.8c0.233-0.233,0.5-0.35,0.8-0.35c0.333,0,0.617,0.117,0.85,0.35c0.233,0.2,0.35,0.467,0.35,0.8
		c0,0.333-0.117,0.6-0.35,0.8c-0.233,0.233-0.517,0.35-0.85,0.35C231.45,82.2,231.183,82.083,230.95,81.85 M236.15,82.2
		c-0.333,0-0.617-0.117-0.85-0.35c-0.233-0.2-0.35-0.467-0.35-0.8c0-0.333,0.117-0.6,0.35-0.8c0.233-0.233,0.517-0.35,0.85-0.35
		c0.3,0,0.567,0.117,0.8,0.35c0.233,0.2,0.35,0.467,0.35,0.8c0,0.333-0.117,0.6-0.35,0.8C236.717,82.083,236.45,82.2,236.15,82.2
		 M184.1,47.05v9.8c0,0.533,0.2,0.983,0.6,1.35c0.4,0.4,0.867,0.6,1.4,0.6h53.6c0.533,0,0.983-0.2,1.35-0.6
		c0.4-0.367,0.6-0.817,0.6-1.35v-9.8c0-0.533-0.2-1-0.6-1.4c-0.367-0.4-0.817-0.6-1.35-0.6h-53.6c-0.533,0-1,0.2-1.4,0.6
		C184.3,46.05,184.1,46.517,184.1,47.05 M193.4,53.65c0,0.3-0.15,0.45-0.45,0.45h-3.45c-0.267,0-0.4-0.15-0.4-0.45V50.2
		c0-0.267,0.133-0.4,0.4-0.4h3.45c0.3,0,0.45,0.133,0.45,0.4V53.65 M225.9,49.75c0-0.333,0.117-0.617,0.35-0.85
		c0.2-0.233,0.467-0.35,0.8-0.35c0.333,0,0.6,0.117,0.8,0.35c0.233,0.233,0.35,0.517,0.35,0.85c0,0.3-0.117,0.567-0.35,0.8
		c-0.2,0.233-0.467,0.35-0.8,0.35c-0.333,0-0.6-0.117-0.8-0.35C226.017,50.317,225.9,50.05,225.9,49.75 M232.6,48.9
		c0.233,0.233,0.35,0.517,0.35,0.85c0,0.3-0.117,0.567-0.35,0.8c-0.233,0.233-0.517,0.35-0.85,0.35c-0.3,0-0.567-0.117-0.8-0.35
		c-0.233-0.233-0.35-0.5-0.35-0.8c0-0.333,0.117-0.617,0.35-0.85s0.5-0.35,0.8-0.35C232.083,48.55,232.367,48.667,232.6,48.9
		 M236.15,50.9c-0.333,0-0.617-0.117-0.85-0.35c-0.233-0.233-0.35-0.5-0.35-0.8c0-0.333,0.117-0.617,0.35-0.85s0.517-0.35,0.85-0.35
		c0.3,0,0.567,0.117,0.8,0.35s0.35,0.517,0.35,0.85c0,0.3-0.117,0.567-0.35,0.8C236.717,50.783,236.45,50.9,236.15,50.9
		 M176.25,31.95c-0.767-0.767-1.683-1.15-2.75-1.15H68.1c-1.067,0-1.983,0.383-2.75,1.15c-0.733,0.767-1.1,1.683-1.1,2.75V54
		c0,1.067,0.367,1.983,1.1,2.75c0.767,0.767,1.683,1.15,2.75,1.15h105.4c1.067,0,1.983-0.383,2.75-1.15s1.15-1.683,1.15-2.75V34.7
		C177.4,33.633,177.017,32.717,176.25,31.95 M168.15,41.65c-0.433,0.433-0.967,0.65-1.6,0.65s-1.167-0.217-1.6-0.65
		c-0.467-0.433-0.7-0.967-0.7-1.6c0-0.633,0.233-1.183,0.7-1.65c0.433-0.433,0.967-0.65,1.6-0.65s1.167,0.217,1.6,0.65
		c0.467,0.467,0.7,1.017,0.7,1.65C168.85,40.683,168.617,41.217,168.15,41.65 M159.6,38.4c0.433,0.467,0.65,1.017,0.65,1.65
		c0,0.633-0.217,1.167-0.65,1.6c-0.467,0.433-1.017,0.65-1.65,0.65c-0.633,0-1.167-0.217-1.6-0.65c-0.433-0.433-0.65-0.967-0.65-1.6
		c0-0.633,0.217-1.183,0.65-1.65c0.433-0.433,0.967-0.65,1.6-0.65C158.617,37.75,159.167,37.967,159.6,38.4 M150.95,40.05
		c0,0.633-0.233,1.167-0.7,1.6c-0.433,0.433-0.967,0.65-1.6,0.65s-1.167-0.217-1.6-0.65c-0.467-0.433-0.7-0.967-0.7-1.6
		c0-0.633,0.233-1.183,0.7-1.65c0.433-0.433,0.967-0.65,1.6-0.65s1.167,0.217,1.6,0.65C150.717,38.867,150.95,39.417,150.95,40.05
		 M74.85,40.15h6.8c0.533,0,0.8,0.267,0.8,0.8v6.8c0,0.567-0.267,0.85-0.8,0.85h-6.8c-0.567,0-0.85-0.283-0.85-0.85v-6.8
		C74,40.417,74.283,40.15,74.85,40.15 M184.7,29.95c-0.4,0.4-0.6,0.867-0.6,1.4v9.8c0,0.567,0.2,1.033,0.6,1.4
		c0.4,0.4,0.867,0.6,1.4,0.6h53.6c0.533,0,0.983-0.2,1.35-0.6c0.4-0.4,0.6-0.867,0.6-1.4v-9.8c0-0.533-0.2-1-0.6-1.4
		c-0.367-0.367-0.817-0.55-1.35-0.55h-53.6C185.533,29.4,185.067,29.583,184.7,29.95 M193.4,38c0,0.267-0.15,0.4-0.45,0.4h-3.45
		c-0.267,0-0.4-0.133-0.4-0.4v-3.45c0-0.3,0.133-0.45,0.4-0.45h3.45c0.3,0,0.45,0.15,0.45,0.45V38 M225.9,34.05
		c0-0.3,0.117-0.567,0.35-0.8c0.2-0.233,0.467-0.35,0.8-0.35c0.333,0,0.6,0.117,0.8,0.35c0.233,0.233,0.35,0.5,0.35,0.8
		c0,0.333-0.117,0.617-0.35,0.85c-0.2,0.233-0.467,0.35-0.8,0.35c-0.333,0-0.6-0.117-0.8-0.35
		C226.017,34.667,225.9,34.383,225.9,34.05 M237.3,34.05c0,0.333-0.117,0.617-0.35,0.85s-0.5,0.35-0.8,0.35
		c-0.333,0-0.617-0.117-0.85-0.35s-0.35-0.517-0.35-0.85c0-0.3,0.117-0.567,0.35-0.8s0.517-0.35,0.85-0.35
		c0.3,0,0.567,0.117,0.8,0.35S237.3,33.75,237.3,34.05 M232.95,34.05c0,0.333-0.117,0.617-0.35,0.85s-0.517,0.35-0.85,0.35
		c-0.3,0-0.567-0.117-0.8-0.35s-0.35-0.517-0.35-0.85c0-0.3,0.117-0.567,0.35-0.8s0.5-0.35,0.8-0.35c0.333,0,0.617,0.117,0.85,0.35
		S232.95,33.75,232.95,34.05 M0.55,76.95C0.183,77.317,0,77.783,0,78.35v5.3h4.95v-2.1c0-0.3,0.133-0.45,0.4-0.45h3.5
		c0.267,0,0.4,0.15,0.4,0.45v2.1H57.5v-5.3c0-0.567-0.183-1.033-0.55-1.4c-0.4-0.4-0.867-0.6-1.4-0.6H1.95
		C1.417,76.35,0.95,76.55,0.55,76.95 M44.05,81.05c0,0.333-0.117,0.6-0.35,0.8c-0.2,0.233-0.467,0.35-0.8,0.35
		c-0.333,0-0.6-0.117-0.8-0.35c-0.233-0.2-0.35-0.467-0.35-0.8c0-0.333,0.117-0.6,0.35-0.8c0.2-0.233,0.467-0.35,0.8-0.35
		c0.333,0,0.6,0.117,0.8,0.35C43.933,80.45,44.05,80.717,44.05,81.05 M48.8,81.05c0,0.333-0.117,0.6-0.35,0.8
		c-0.2,0.233-0.467,0.35-0.8,0.35c-0.333,0-0.6-0.117-0.8-0.35c-0.233-0.2-0.35-0.467-0.35-0.8c0-0.333,0.117-0.6,0.35-0.8
		c0.2-0.233,0.467-0.35,0.8-0.35c0.333,0,0.6,0.117,0.8,0.35C48.683,80.45,48.8,80.717,48.8,81.05 M53.15,81.05
		c0,0.333-0.117,0.6-0.35,0.8c-0.2,0.233-0.467,0.35-0.8,0.35s-0.6-0.117-0.8-0.35c-0.233-0.2-0.35-0.467-0.35-0.8
		c0-0.333,0.117-0.6,0.35-0.8c0.2-0.233,0.467-0.35,0.8-0.35s0.6,0.117,0.8,0.35C53.033,80.45,53.15,80.717,53.15,81.05 M0,62.7v9.8
		c0,0.567,0.183,1.033,0.55,1.4c0.4,0.367,0.867,0.55,1.4,0.55h53.6c0.567,0,1.033-0.183,1.4-0.55c0.367-0.367,0.55-0.833,0.55-1.4
		v-9.8c0-0.567-0.183-1.033-0.55-1.4c-0.4-0.4-0.867-0.6-1.4-0.6H1.95c-0.533,0-1,0.2-1.4,0.6C0.183,61.667,0,62.133,0,62.7
		 M43.7,64.6c0.233,0.2,0.35,0.467,0.35,0.8s-0.117,0.6-0.35,0.8c-0.2,0.233-0.467,0.35-0.8,0.35c-0.333,0-0.6-0.117-0.8-0.35
		c-0.233-0.2-0.35-0.467-0.35-0.8s0.117-0.6,0.35-0.8c0.2-0.233,0.467-0.35,0.8-0.35C43.233,64.25,43.5,64.367,43.7,64.6
		 M9.25,65.85v3.45c0,0.3-0.133,0.45-0.4,0.45h-3.5c-0.267,0-0.4-0.15-0.4-0.45v-3.45c0-0.267,0.133-0.4,0.4-0.4h3.5
		C9.117,65.45,9.25,65.583,9.25,65.85 M46.85,64.6c0.2-0.233,0.467-0.35,0.8-0.35c0.333,0,0.6,0.117,0.8,0.35
		c0.233,0.2,0.35,0.467,0.35,0.8s-0.117,0.6-0.35,0.8c-0.2,0.233-0.467,0.35-0.8,0.35c-0.333,0-0.6-0.117-0.8-0.35
		c-0.233-0.2-0.35-0.467-0.35-0.8S46.617,64.8,46.85,64.6 M53.15,65.4c0,0.333-0.117,0.6-0.35,0.8c-0.2,0.233-0.467,0.35-0.8,0.35
		s-0.6-0.117-0.8-0.35c-0.233-0.2-0.35-0.467-0.35-0.8s0.117-0.6,0.35-0.8c0.2-0.233,0.467-0.35,0.8-0.35s0.6,0.117,0.8,0.35
		C53.033,64.8,53.15,65.067,53.15,65.4 M1.95,45.05c-0.533,0-1,0.2-1.4,0.6C0.183,46.017,0,46.483,0,47.05v9.8
		c0,0.533,0.183,0.983,0.55,1.35c0.4,0.4,0.867,0.6,1.4,0.6h53.6c0.533,0,1-0.2,1.4-0.6c0.367-0.367,0.55-0.817,0.55-1.35v-9.8
		c0-0.567-0.183-1.033-0.55-1.4c-0.4-0.4-0.867-0.6-1.4-0.6H1.95 M9.25,53.65c0,0.3-0.133,0.45-0.4,0.45h-3.5
		c-0.267,0-0.4-0.15-0.4-0.45V50.2c0-0.267,0.133-0.4,0.4-0.4h3.5c0.267,0,0.4,0.133,0.4,0.4V53.65 M42.9,50.9
		c-0.333,0-0.6-0.117-0.8-0.35c-0.233-0.233-0.35-0.5-0.35-0.8c0-0.333,0.117-0.617,0.35-0.85c0.2-0.233,0.467-0.35,0.8-0.35
		c0.333,0,0.6,0.117,0.8,0.35c0.233,0.233,0.35,0.517,0.35,0.85c0,0.3-0.117,0.567-0.35,0.8C43.5,50.783,43.233,50.9,42.9,50.9
		 M53.15,49.75c0,0.3-0.117,0.567-0.35,0.8c-0.2,0.233-0.467,0.35-0.8,0.35s-0.6-0.117-0.8-0.35c-0.233-0.233-0.35-0.5-0.35-0.8
		c0-0.333,0.117-0.617,0.35-0.85c0.2-0.233,0.467-0.35,0.8-0.35s0.6,0.117,0.8,0.35C53.033,49.133,53.15,49.417,53.15,49.75
		 M48.8,49.75c0,0.3-0.117,0.567-0.35,0.8c-0.2,0.233-0.467,0.35-0.8,0.35c-0.333,0-0.6-0.117-0.8-0.35
		c-0.233-0.233-0.35-0.5-0.35-0.8c0-0.333,0.117-0.617,0.35-0.85c0.2-0.233,0.467-0.35,0.8-0.35c0.333,0,0.6,0.117,0.8,0.35
		C48.683,49.133,48.8,49.417,48.8,49.75 M0,31.35v9.8c0,0.567,0.183,1.033,0.55,1.4c0.4,0.4,0.867,0.6,1.4,0.6h53.6
		c0.533,0,1-0.2,1.4-0.6c0.367-0.367,0.55-0.833,0.55-1.4v-9.8c0-0.533-0.183-1-0.55-1.4c-0.367-0.367-0.833-0.55-1.4-0.55H1.95
		c-0.533,0-1,0.183-1.4,0.55C0.183,30.35,0,30.817,0,31.35 M9.25,34.55V38c0,0.267-0.133,0.4-0.4,0.4h-3.5
		c-0.267,0-0.4-0.133-0.4-0.4v-3.45c0-0.3,0.133-0.45,0.4-0.45h3.5C9.117,34.1,9.25,34.25,9.25,34.55 M44.05,34.05
		c0,0.333-0.117,0.617-0.35,0.85c-0.2,0.233-0.467,0.35-0.8,0.35c-0.333,0-0.6-0.117-0.8-0.35c-0.233-0.233-0.35-0.517-0.35-0.85
		c0-0.3,0.117-0.567,0.35-0.8c0.2-0.233,0.467-0.35,0.8-0.35c0.333,0,0.6,0.117,0.8,0.35C43.933,33.483,44.05,33.75,44.05,34.05
		 M52.8,33.25c0.233,0.233,0.35,0.5,0.35,0.8c0,0.333-0.117,0.617-0.35,0.85c-0.2,0.233-0.467,0.35-0.8,0.35s-0.6-0.117-0.8-0.35
		c-0.233-0.233-0.35-0.517-0.35-0.85c0-0.3,0.117-0.567,0.35-0.8c0.2-0.233,0.467-0.35,0.8-0.35S52.6,33.017,52.8,33.25
		 M47.65,35.25c-0.333,0-0.6-0.117-0.8-0.35c-0.233-0.233-0.35-0.517-0.35-0.85c0-0.3,0.117-0.567,0.35-0.8
		c0.2-0.233,0.467-0.35,0.8-0.35c0.333,0,0.6,0.117,0.8,0.35c0.233,0.233,0.35,0.5,0.35,0.8c0,0.333-0.117,0.617-0.35,0.85
		C48.25,35.133,47.983,35.25,47.65,35.25 M65.35,1.15c-0.733,0.767-1.1,1.683-1.1,2.75v19.3c0,1.067,0.367,1.983,1.1,2.75
		c0.767,0.767,1.683,1.15,2.75,1.15h105.4c1.067,0,1.983-0.383,2.75-1.15c0.767-0.767,1.15-1.683,1.15-2.75V3.9
		c0-1.067-0.383-1.983-1.15-2.75S174.567,0,173.5,0H68.1C67.033,0,66.117,0.383,65.35,1.15 M156.35,7.6
		c0.433-0.433,0.967-0.65,1.6-0.65c0.667,0,1.217,0.217,1.65,0.65c0.433,0.467,0.65,1.017,0.65,1.65s-0.217,1.167-0.65,1.6
		c-0.467,0.433-1.017,0.65-1.65,0.65c-0.633,0-1.167-0.217-1.6-0.65c-0.433-0.433-0.65-0.967-0.65-1.6S155.917,8.067,156.35,7.6
		 M147.05,7.6c0.433-0.433,0.967-0.65,1.6-0.65s1.167,0.217,1.6,0.65c0.467,0.467,0.7,1.017,0.7,1.65s-0.233,1.167-0.7,1.6
		c-0.433,0.433-0.967,0.65-1.6,0.65s-1.167-0.217-1.6-0.65c-0.467-0.433-0.7-0.967-0.7-1.6S146.583,8.067,147.05,7.6 M166.55,6.95
		c0.633,0,1.167,0.217,1.6,0.65c0.467,0.467,0.7,1.017,0.7,1.65s-0.233,1.167-0.7,1.6c-0.433,0.433-0.967,0.65-1.6,0.65
		s-1.167-0.217-1.6-0.65c-0.467-0.433-0.7-0.967-0.7-1.6s0.233-1.183,0.7-1.65C165.383,7.167,165.917,6.95,166.55,6.95 M81.65,17.8
		h-6.8c-0.567,0-0.85-0.283-0.85-0.85v-6.8c0-0.233,0.083-0.433,0.25-0.6c0.167-0.167,0.367-0.25,0.6-0.25h6.8
		c0.233,0,0.417,0.083,0.55,0.25c0.167,0.167,0.25,0.367,0.25,0.6v6.8c0,0.233-0.083,0.433-0.25,0.6
		C82.067,17.717,81.883,17.8,81.65,17.8 M551.25,78.35c0-0.533-0.2-1-0.6-1.4c-0.367-0.4-0.833-0.6-1.4-0.6h-53.6
		c-0.533,0-0.983,0.2-1.35,0.6c-0.4,0.4-0.6,0.867-0.6,1.4v5.3h4.95v-2.1c0-0.3,0.15-0.45,0.45-0.45h3.45c0.267,0,0.4,0.15,0.4,0.45
		v2.1h48.3V78.35 M537.8,81.05c0,0.333-0.117,0.6-0.35,0.8c-0.233,0.233-0.517,0.35-0.85,0.35c-0.3,0-0.567-0.117-0.8-0.35
		c-0.233-0.2-0.35-0.467-0.35-0.8c0-0.333,0.117-0.6,0.35-0.8c0.233-0.233,0.5-0.35,0.8-0.35c0.333,0,0.617,0.117,0.85,0.35
		C537.683,80.45,537.8,80.717,537.8,81.05 M542.15,80.25c0.233,0.2,0.35,0.467,0.35,0.8c0,0.333-0.117,0.6-0.35,0.8
		c-0.2,0.233-0.467,0.35-0.8,0.35s-0.6-0.117-0.8-0.35c-0.233-0.2-0.35-0.467-0.35-0.8c0-0.333,0.117-0.6,0.35-0.8
		c0.2-0.233,0.467-0.35,0.8-0.35S541.95,80.017,542.15,80.25 M544.9,81.85c-0.233-0.2-0.35-0.467-0.35-0.8
		c0-0.333,0.117-0.6,0.35-0.8c0.2-0.233,0.467-0.35,0.8-0.35s0.6,0.117,0.8,0.35c0.233,0.2,0.35,0.467,0.35,0.8
		c0,0.333-0.117,0.6-0.35,0.8c-0.2,0.233-0.467,0.35-0.8,0.35S545.1,82.083,544.9,81.85 M551.25,62.7c0-0.533-0.2-1-0.6-1.4
		c-0.367-0.4-0.833-0.6-1.4-0.6h-53.6c-0.533,0-0.983,0.2-1.35,0.6c-0.4,0.4-0.6,0.867-0.6,1.4v9.8c0,0.533,0.2,1,0.6,1.4
		c0.367,0.367,0.817,0.55,1.35,0.55h53.6c0.567,0,1.033-0.183,1.4-0.55c0.4-0.4,0.6-0.867,0.6-1.4V62.7 M542.5,65.4
		c0,0.333-0.117,0.6-0.35,0.8c-0.2,0.233-0.467,0.35-0.8,0.35s-0.6-0.117-0.8-0.35c-0.233-0.2-0.35-0.467-0.35-0.8
		s0.117-0.6,0.35-0.8c0.2-0.233,0.467-0.35,0.8-0.35s0.6,0.117,0.8,0.35C542.383,64.8,542.5,65.067,542.5,65.4 M544.9,66.2
		c-0.233-0.2-0.35-0.467-0.35-0.8s0.117-0.6,0.35-0.8c0.2-0.233,0.467-0.35,0.8-0.35s0.6,0.117,0.8,0.35
		c0.233,0.2,0.35,0.467,0.35,0.8s-0.117,0.6-0.35,0.8c-0.2,0.233-0.467,0.35-0.8,0.35S545.1,66.433,544.9,66.2 M537.8,65.4
		c0,0.333-0.117,0.6-0.35,0.8c-0.233,0.233-0.517,0.35-0.85,0.35c-0.3,0-0.567-0.117-0.8-0.35c-0.233-0.2-0.35-0.467-0.35-0.8
		s0.117-0.6,0.35-0.8c0.233-0.233,0.5-0.35,0.8-0.35c0.333,0,0.617,0.117,0.85,0.35C537.683,64.8,537.8,65.067,537.8,65.4
		 M502.95,69.3c0,0.3-0.133,0.45-0.4,0.45h-3.45c-0.3,0-0.45-0.15-0.45-0.45v-3.45c0-0.267,0.15-0.4,0.45-0.4h3.45
		c0.267,0,0.4,0.133,0.4,0.4V69.3 M551.25,47.05c0-0.533-0.2-1-0.6-1.4c-0.367-0.4-0.833-0.6-1.4-0.6h-53.6
		c-0.533,0-0.983,0.2-1.35,0.6c-0.4,0.4-0.6,0.867-0.6,1.4v9.8c0,0.533,0.2,0.983,0.6,1.35c0.367,0.4,0.817,0.6,1.35,0.6h53.6
		c0.533,0,1-0.2,1.4-0.6c0.4-0.367,0.6-0.817,0.6-1.35V47.05 M537.8,49.75c0,0.3-0.117,0.567-0.35,0.8
		c-0.233,0.233-0.517,0.35-0.85,0.35c-0.3,0-0.567-0.117-0.8-0.35c-0.233-0.233-0.35-0.5-0.35-0.8c0-0.333,0.117-0.617,0.35-0.85
		c0.233-0.233,0.5-0.35,0.8-0.35c0.333,0,0.617,0.117,0.85,0.35S537.8,49.417,537.8,49.75 M546.85,49.75c0,0.3-0.117,0.567-0.35,0.8
		c-0.2,0.233-0.467,0.35-0.8,0.35s-0.6-0.117-0.8-0.35c-0.233-0.233-0.35-0.5-0.35-0.8c0-0.333,0.117-0.617,0.35-0.85
		c0.2-0.233,0.467-0.35,0.8-0.35s0.6,0.117,0.8,0.35C546.733,49.133,546.85,49.417,546.85,49.75 M542.5,49.75
		c0,0.3-0.117,0.567-0.35,0.8c-0.2,0.233-0.467,0.35-0.8,0.35s-0.6-0.117-0.8-0.35c-0.233-0.233-0.35-0.5-0.35-0.8
		c0-0.333,0.117-0.617,0.35-0.85c0.2-0.233,0.467-0.35,0.8-0.35s0.6,0.117,0.8,0.35C542.383,49.133,542.5,49.417,542.5,49.75
		 M499.1,54.1c-0.3,0-0.45-0.15-0.45-0.45V50.2c0-0.267,0.15-0.4,0.45-0.4h3.45c0.267,0,0.4,0.133,0.4,0.4v3.45
		c0,0.3-0.133,0.45-0.4,0.45H499.1 M551.25,31.35c0-0.533-0.2-1-0.6-1.4c-0.367-0.367-0.833-0.55-1.4-0.55h-53.6
		c-0.533,0-0.983,0.183-1.35,0.55c-0.4,0.4-0.6,0.867-0.6,1.4v9.8c0,0.533,0.2,1,0.6,1.4c0.367,0.4,0.817,0.6,1.35,0.6h53.6
		c0.567,0,1.033-0.2,1.4-0.6c0.4-0.367,0.6-0.833,0.6-1.4V31.35 M546.85,34.05c0,0.333-0.117,0.617-0.35,0.85
		c-0.2,0.233-0.467,0.35-0.8,0.35s-0.6-0.117-0.8-0.35c-0.233-0.233-0.35-0.517-0.35-0.85c0-0.3,0.117-0.567,0.35-0.8
		c0.2-0.233,0.467-0.35,0.8-0.35s0.6,0.117,0.8,0.35C546.733,33.483,546.85,33.75,546.85,34.05 M542.5,34.05
		c0,0.333-0.117,0.617-0.35,0.85c-0.2,0.233-0.467,0.35-0.8,0.35s-0.6-0.117-0.8-0.35c-0.233-0.233-0.35-0.517-0.35-0.85
		c0-0.3,0.117-0.567,0.35-0.8c0.2-0.233,0.467-0.35,0.8-0.35s0.6,0.117,0.8,0.35C542.383,33.483,542.5,33.75,542.5,34.05
		 M537.8,34.05c0,0.333-0.117,0.617-0.35,0.85s-0.517,0.35-0.85,0.35c-0.3,0-0.567-0.117-0.8-0.35
		c-0.233-0.233-0.35-0.517-0.35-0.85c0-0.3,0.117-0.567,0.35-0.8c0.233-0.233,0.5-0.35,0.8-0.35c0.333,0,0.617,0.117,0.85,0.35
		S537.8,33.75,537.8,34.05 M502.95,38c0,0.267-0.133,0.4-0.4,0.4h-3.45c-0.3,0-0.45-0.133-0.45-0.4v-3.45c0-0.3,0.15-0.45,0.45-0.45
		h3.45c0.267,0,0.4,0.15,0.4,0.45V38 M671.1,65.5c0-1.067-0.367-1.983-1.1-2.75c-0.767-0.767-1.683-1.15-2.75-1.15h-105.4
		c-1.067,0-1.983,0.383-2.75,1.15s-1.15,1.683-1.15,2.75v18.15H671.1V65.5 M650.05,69.25c0.467-0.467,1.017-0.7,1.65-0.7
		s1.167,0.233,1.6,0.7c0.433,0.433,0.65,0.967,0.65,1.6c0,0.633-0.217,1.167-0.65,1.6c-0.433,0.467-0.967,0.7-1.6,0.7
		s-1.183-0.233-1.65-0.7c-0.433-0.433-0.65-0.967-0.65-1.6C649.4,70.217,649.617,69.683,650.05,69.25 M642.35,68.55
		c0.633,0,1.183,0.233,1.65,0.7c0.433,0.433,0.65,0.967,0.65,1.6c0,0.633-0.217,1.167-0.65,1.6c-0.467,0.467-1.017,0.7-1.65,0.7
		s-1.167-0.233-1.6-0.7c-0.433-0.433-0.65-0.967-0.65-1.6c0-0.633,0.217-1.167,0.65-1.6C641.183,68.783,641.717,68.55,642.35,68.55
		 M660.25,68.55c0.633,0,1.167,0.233,1.6,0.7c0.467,0.433,0.7,0.967,0.7,1.6c0,0.633-0.233,1.167-0.7,1.6
		c-0.433,0.467-0.967,0.7-1.6,0.7s-1.167-0.233-1.6-0.7c-0.467-0.433-0.7-0.967-0.7-1.6c0-0.633,0.233-1.167,0.7-1.6
		C659.083,68.783,659.617,68.55,660.25,68.55 M567.7,71.75c0-0.233,0.083-0.417,0.25-0.55c0.167-0.167,0.367-0.25,0.6-0.25h6.8
		c0.233,0,0.433,0.083,0.6,0.25c0.167,0.133,0.25,0.317,0.25,0.55v6.8c0,0.567-0.283,0.85-0.85,0.85h-6.8
		c-0.567,0-0.85-0.283-0.85-0.85V71.75 M679.8,76.35c-0.533,0-1,0.2-1.4,0.6c-0.367,0.367-0.55,0.833-0.55,1.4v5.3h4.95v-2.1
		c0-0.3,0.133-0.45,0.4-0.45h3.5c0.267,0,0.4,0.15,0.4,0.45v2.1h48.25v-5.3c0-0.567-0.183-1.033-0.55-1.4
		c-0.4-0.4-0.867-0.6-1.4-0.6H679.8 M721.9,81.05c0,0.333-0.117,0.6-0.35,0.8c-0.2,0.233-0.467,0.35-0.8,0.35
		c-0.333,0-0.6-0.117-0.8-0.35c-0.233-0.2-0.35-0.467-0.35-0.8c0-0.333,0.117-0.6,0.35-0.8c0.2-0.233,0.467-0.35,0.8-0.35
		c0.333,0,0.6,0.117,0.8,0.35C721.783,80.45,721.9,80.717,721.9,81.05 M726.65,81.05c0,0.333-0.117,0.6-0.35,0.8
		c-0.2,0.233-0.467,0.35-0.8,0.35c-0.333,0-0.617-0.117-0.85-0.35c-0.233-0.2-0.35-0.467-0.35-0.8c0-0.333,0.117-0.6,0.35-0.8
		c0.233-0.233,0.517-0.35,0.85-0.35c0.333,0,0.6,0.117,0.8,0.35C726.533,80.45,726.65,80.717,726.65,81.05 M731,81.05
		c0,0.333-0.117,0.6-0.35,0.8c-0.2,0.233-0.467,0.35-0.8,0.35s-0.6-0.117-0.8-0.35c-0.233-0.2-0.35-0.467-0.35-0.8
		c0-0.333,0.117-0.6,0.35-0.8c0.2-0.233,0.467-0.35,0.8-0.35s0.6,0.117,0.8,0.35C730.883,80.45,731,80.717,731,81.05 M679.8,60.7
		c-0.533,0-1,0.2-1.4,0.6c-0.367,0.367-0.55,0.833-0.55,1.4v9.8c0,0.567,0.183,1.033,0.55,1.4c0.4,0.367,0.867,0.55,1.4,0.55h53.6
		c0.567,0,1.033-0.183,1.4-0.55c0.367-0.367,0.55-0.833,0.55-1.4v-9.8c0-0.567-0.183-1.033-0.55-1.4c-0.4-0.4-0.867-0.6-1.4-0.6
		H679.8 M687.1,65.85v3.45c0,0.3-0.133,0.45-0.4,0.45h-3.5c-0.267,0-0.4-0.15-0.4-0.45v-3.45c0-0.267,0.133-0.4,0.4-0.4h3.5
		C686.967,65.45,687.1,65.583,687.1,65.85 M726.3,64.6c0.233,0.2,0.35,0.467,0.35,0.8s-0.117,0.6-0.35,0.8
		c-0.2,0.233-0.467,0.35-0.8,0.35c-0.333,0-0.617-0.117-0.85-0.35c-0.233-0.2-0.35-0.467-0.35-0.8s0.117-0.6,0.35-0.8
		c0.233-0.233,0.517-0.35,0.85-0.35C725.833,64.25,726.1,64.367,726.3,64.6 M731,65.4c0,0.333-0.117,0.6-0.35,0.8
		c-0.2,0.233-0.467,0.35-0.8,0.35s-0.6-0.117-0.8-0.35c-0.233-0.2-0.35-0.467-0.35-0.8c0-0.333,0.117-0.6,0.35-0.8
		c0.2-0.233,0.467-0.35,0.8-0.35s0.6,0.117,0.8,0.35C730.883,64.8,731,65.067,731,65.4 M721.9,65.4c0,0.333-0.117,0.6-0.35,0.8
		c-0.2,0.233-0.467,0.35-0.8,0.35c-0.333,0-0.6-0.117-0.8-0.35c-0.233-0.2-0.35-0.467-0.35-0.8s0.117-0.6,0.35-0.8
		c0.2-0.233,0.467-0.35,0.8-0.35c0.333,0,0.6,0.117,0.8,0.35C721.783,64.8,721.9,65.067,721.9,65.4 M678.4,45.65
		c-0.367,0.367-0.55,0.833-0.55,1.4v9.8c0,0.533,0.183,0.983,0.55,1.35c0.4,0.4,0.867,0.6,1.4,0.6h53.6c0.533,0,1-0.2,1.4-0.6
		c0.367-0.367,0.55-0.817,0.55-1.35v-9.8c0-0.567-0.183-1.033-0.55-1.4c-0.4-0.4-0.867-0.6-1.4-0.6h-53.6
		C679.267,45.05,678.8,45.25,678.4,45.65 M687.1,53.65c0,0.3-0.133,0.45-0.4,0.45h-3.5c-0.267,0-0.4-0.15-0.4-0.45V50.2
		c0-0.267,0.133-0.4,0.4-0.4h3.5c0.267,0,0.4,0.133,0.4,0.4V53.65 M721.9,49.75c0,0.3-0.117,0.567-0.35,0.8
		c-0.2,0.233-0.467,0.35-0.8,0.35c-0.333,0-0.6-0.117-0.8-0.35c-0.233-0.233-0.35-0.5-0.35-0.8c0-0.333,0.117-0.617,0.35-0.85
		c0.2-0.233,0.467-0.35,0.8-0.35c0.333,0,0.6,0.117,0.8,0.35C721.783,49.133,721.9,49.417,721.9,49.75 M731,49.75
		c0,0.3-0.117,0.567-0.35,0.8c-0.2,0.233-0.467,0.35-0.8,0.35s-0.6-0.117-0.8-0.35c-0.233-0.233-0.35-0.5-0.35-0.8
		c0-0.333,0.117-0.617,0.35-0.85c0.2-0.233,0.467-0.35,0.8-0.35s0.6,0.117,0.8,0.35C730.883,49.133,731,49.417,731,49.75
		 M726.65,49.75c0,0.3-0.117,0.567-0.35,0.8c-0.2,0.233-0.467,0.35-0.8,0.35c-0.333,0-0.617-0.117-0.85-0.35
		c-0.233-0.233-0.35-0.5-0.35-0.8c0-0.333,0.117-0.617,0.35-0.85c0.233-0.233,0.517-0.35,0.85-0.35c0.333,0,0.6,0.117,0.8,0.35
		C726.533,49.133,726.65,49.417,726.65,49.75 M670,31.95c-0.767-0.767-1.683-1.15-2.75-1.15h-105.4c-1.067,0-1.983,0.383-2.75,1.15
		c-0.767,0.767-1.15,1.683-1.15,2.75V54c0,1.067,0.383,1.983,1.15,2.75s1.683,1.15,2.75,1.15h105.4c1.067,0,1.983-0.383,2.75-1.15
		c0.733-0.767,1.1-1.683,1.1-2.75V34.7C671.1,33.633,670.733,32.717,670,31.95 M660.25,37.75c0.633,0,1.167,0.217,1.6,0.65
		c0.467,0.467,0.7,1.017,0.7,1.65c0,0.633-0.233,1.167-0.7,1.6c-0.433,0.433-0.967,0.65-1.6,0.65s-1.167-0.217-1.6-0.65
		c-0.467-0.433-0.7-0.967-0.7-1.6c0-0.633,0.233-1.183,0.7-1.65C659.083,37.967,659.617,37.75,660.25,37.75 M653.95,40.05
		c0,0.633-0.217,1.167-0.65,1.6c-0.433,0.433-0.967,0.65-1.6,0.65s-1.183-0.217-1.65-0.65c-0.433-0.433-0.65-0.967-0.65-1.6
		c0-0.633,0.217-1.183,0.65-1.65c0.467-0.433,1.017-0.65,1.65-0.65s1.167,0.217,1.6,0.65C653.733,38.867,653.95,39.417,653.95,40.05
		 M642.35,37.75c0.667,0,1.217,0.217,1.65,0.65c0.433,0.467,0.65,1.017,0.65,1.65c0,0.633-0.217,1.167-0.65,1.6
		c-0.467,0.433-1.017,0.65-1.65,0.65s-1.167-0.217-1.6-0.65c-0.433-0.433-0.65-0.967-0.65-1.6c0-0.633,0.217-1.183,0.65-1.65
		C641.183,37.967,641.717,37.75,642.35,37.75 M576.2,40.95v6.8c0,0.567-0.283,0.85-0.85,0.85h-6.8c-0.567,0-0.85-0.283-0.85-0.85
		v-6.8c0-0.233,0.083-0.417,0.25-0.55c0.167-0.167,0.367-0.25,0.6-0.25h6.8c0.233,0,0.433,0.083,0.6,0.25
		C576.117,40.533,576.2,40.717,576.2,40.95 M678.4,29.95c-0.367,0.4-0.55,0.867-0.55,1.4v9.8c0,0.567,0.183,1.033,0.55,1.4
		c0.4,0.4,0.867,0.6,1.4,0.6h53.6c0.533,0,1-0.2,1.4-0.6c0.367-0.367,0.55-0.833,0.55-1.4v-9.8c0-0.533-0.183-1-0.55-1.4
		c-0.367-0.367-0.833-0.55-1.4-0.55h-53.6C679.267,29.4,678.8,29.583,678.4,29.95 M687.1,34.55V38c0,0.267-0.133,0.4-0.4,0.4h-3.5
		c-0.267,0-0.4-0.133-0.4-0.4v-3.45c0-0.3,0.133-0.45,0.4-0.45h3.5C686.967,34.1,687.1,34.25,687.1,34.55 M730.65,33.25
		c0.233,0.233,0.35,0.5,0.35,0.8c0,0.333-0.117,0.617-0.35,0.85c-0.2,0.233-0.467,0.35-0.8,0.35s-0.6-0.117-0.8-0.35
		c-0.233-0.233-0.35-0.517-0.35-0.85c0-0.3,0.117-0.567,0.35-0.8c0.2-0.233,0.467-0.35,0.8-0.35S730.45,33.017,730.65,33.25
		 M726.65,34.05c0,0.333-0.117,0.617-0.35,0.85c-0.2,0.233-0.467,0.35-0.8,0.35c-0.333,0-0.617-0.117-0.85-0.35
		c-0.233-0.233-0.35-0.517-0.35-0.85c0-0.3,0.117-0.567,0.35-0.8c0.233-0.233,0.517-0.35,0.85-0.35c0.333,0,0.6,0.117,0.8,0.35
		C726.533,33.483,726.65,33.75,726.65,34.05 M721.9,34.05c0,0.333-0.117,0.617-0.35,0.85c-0.2,0.233-0.467,0.35-0.8,0.35
		c-0.333,0-0.6-0.117-0.8-0.35c-0.233-0.233-0.35-0.517-0.35-0.85c0-0.3,0.117-0.567,0.35-0.8c0.2-0.233,0.467-0.35,0.8-0.35
		c0.333,0,0.6,0.117,0.8,0.35C721.783,33.483,721.9,33.75,721.9,34.05 M561.85,0c-1.067,0-1.983,0.383-2.75,1.15
		s-1.15,1.683-1.15,2.75v19.3c0,1.067,0.383,1.983,1.15,2.75c0.767,0.767,1.683,1.15,2.75,1.15h105.4c1.067,0,1.983-0.383,2.75-1.15
		c0.733-0.767,1.1-1.683,1.1-2.75V3.9c0-1.067-0.367-1.983-1.1-2.75C669.233,0.383,668.317,0,667.25,0H561.85 M650.05,7.6
		c0.467-0.433,1.017-0.65,1.65-0.65s1.167,0.217,1.6,0.65c0.433,0.467,0.65,1.017,0.65,1.65c0,0.633-0.217,1.167-0.65,1.6
		c-0.433,0.433-0.967,0.65-1.6,0.65s-1.183-0.217-1.65-0.65c-0.433-0.433-0.65-0.967-0.65-1.6S649.617,8.067,650.05,7.6 M640.75,7.6
		c0.433-0.433,0.967-0.65,1.6-0.65c0.667,0,1.217,0.217,1.65,0.65c0.433,0.467,0.65,1.017,0.65,1.65s-0.217,1.167-0.65,1.6
		c-0.467,0.433-1.017,0.65-1.65,0.65s-1.167-0.217-1.6-0.65c-0.433-0.433-0.65-0.967-0.65-1.6S640.317,8.067,640.75,7.6 M658.65,7.6
		c0.433-0.433,0.967-0.65,1.6-0.65s1.167,0.217,1.6,0.65c0.467,0.467,0.7,1.017,0.7,1.65s-0.233,1.167-0.7,1.6
		c-0.433,0.433-0.967,0.65-1.6,0.65s-1.167-0.217-1.6-0.65c-0.467-0.433-0.7-0.967-0.7-1.6C657.95,8.617,658.183,8.067,658.65,7.6
		 M576.2,10.15v6.8c0,0.233-0.083,0.433-0.25,0.6c-0.167,0.167-0.367,0.25-0.6,0.25h-6.8c-0.233,0-0.433-0.083-0.6-0.25
		c-0.167-0.167-0.25-0.367-0.25-0.6v-6.8c0-0.233,0.083-0.433,0.25-0.6c0.167-0.167,0.367-0.25,0.6-0.25h6.8
		c0.233,0,0.433,0.083,0.6,0.25C576.117,9.717,576.2,9.917,576.2,10.15z"/>
	<path style="fill:#23B0E6;" d="M4.95,81.55v2.1h4.3v-2.1c0-0.3-0.133-0.45-0.4-0.45h-3.5C5.083,81.1,4.95,81.25,4.95,81.55
		 M8.85,54.1c0.267,0,0.4-0.15,0.4-0.45V50.2c0-0.267-0.133-0.4-0.4-0.4h-3.5c-0.267,0-0.4,0.133-0.4,0.4v3.45
		c0,0.3,0.133,0.45,0.4,0.45H8.85 M81.65,79.4c0.533,0,0.8-0.283,0.8-0.85v-6.8c0-0.533-0.267-0.8-0.8-0.8h-6.8
		c-0.567,0-0.85,0.267-0.85,0.8v6.8c0,0.567,0.283,0.85,0.85,0.85H81.65 M82.2,17.55c0.167-0.167,0.25-0.367,0.25-0.6v-6.8
		c0-0.233-0.083-0.433-0.25-0.6c-0.133-0.167-0.317-0.25-0.55-0.25h-6.8c-0.233,0-0.433,0.083-0.6,0.25
		C74.083,9.717,74,9.917,74,10.15v6.8c0,0.567,0.283,0.85,0.85,0.85h6.8C81.883,17.8,82.067,17.717,82.2,17.55 M192.95,69.75
		c0.3,0,0.45-0.15,0.45-0.45v-3.45c0-0.267-0.15-0.4-0.45-0.4h-3.45c-0.267,0-0.4,0.133-0.4,0.4v3.45c0,0.3,0.133,0.45,0.4,0.45
		H192.95 M192.95,38.4c0.3,0,0.45-0.133,0.45-0.4v-3.45c0-0.3-0.15-0.45-0.45-0.45h-3.45c-0.267,0-0.4,0.15-0.4,0.45V38
		c0,0.267,0.133,0.4,0.4,0.4H192.95 M251.8,81.55v2.1h4.3v-2.1c0-0.3-0.133-0.45-0.4-0.45h-3.45
		C251.95,81.1,251.8,81.25,251.8,81.55 M255.7,54.1c0.267,0,0.4-0.15,0.4-0.45V50.2c0-0.267-0.133-0.4-0.4-0.4h-3.45
		c-0.3,0-0.45,0.133-0.45,0.4v3.45c0,0.3,0.15,0.45,0.45,0.45H255.7 M328.5,79.4c0.533,0,0.8-0.283,0.8-0.85v-6.8
		c0-0.533-0.267-0.8-0.8-0.8h-6.8c-0.233,0-0.433,0.083-0.6,0.25c-0.167,0.133-0.25,0.317-0.25,0.55v6.8
		c0,0.567,0.283,0.85,0.85,0.85H328.5 M329.05,17.55c0.167-0.167,0.25-0.367,0.25-0.6v-6.8c0-0.233-0.083-0.433-0.25-0.6
		c-0.133-0.167-0.317-0.25-0.55-0.25h-6.8c-0.233,0-0.433,0.083-0.6,0.25c-0.167,0.167-0.25,0.367-0.25,0.6v6.8
		c0,0.233,0.083,0.433,0.25,0.6c0.167,0.167,0.367,0.25,0.6,0.25h6.8C328.733,17.8,328.917,17.717,329.05,17.55 M439.8,69.75
		c0.3,0,0.45-0.15,0.45-0.45v-3.45c0-0.267-0.15-0.4-0.45-0.4h-3.45c-0.267,0-0.4,0.133-0.4,0.4v3.45c0,0.3,0.133,0.45,0.4,0.45
		H439.8 M439.8,38.4c0.3,0,0.45-0.133,0.45-0.4v-3.45c0-0.3-0.15-0.45-0.45-0.45h-3.45c-0.267,0-0.4,0.15-0.4,0.45V38
		c0,0.267,0.133,0.4,0.4,0.4H439.8 M498.65,81.55v2.1h4.3v-2.1c0-0.3-0.133-0.45-0.4-0.45h-3.45
		C498.8,81.1,498.65,81.25,498.65,81.55 M502.55,54.1c0.267,0,0.4-0.15,0.4-0.45V50.2c0-0.267-0.133-0.4-0.4-0.4h-3.45
		c-0.3,0-0.45,0.133-0.45,0.4v3.45c0,0.3,0.15,0.45,0.45,0.45H502.55 M575.35,48.6c0.567,0,0.85-0.283,0.85-0.85v-6.8
		c0-0.233-0.083-0.417-0.25-0.55c-0.167-0.167-0.367-0.25-0.6-0.25h-6.8c-0.233,0-0.433,0.083-0.6,0.25
		c-0.167,0.133-0.25,0.317-0.25,0.55v6.8c0,0.567,0.283,0.85,0.85,0.85H575.35 M682.8,69.3c0,0.3,0.133,0.45,0.4,0.45h3.5
		c0.267,0,0.4-0.15,0.4-0.45v-3.45c0-0.267-0.133-0.4-0.4-0.4h-3.5c-0.267,0-0.4,0.133-0.4,0.4V69.3 M686.7,38.4
		c0.267,0,0.4-0.133,0.4-0.4v-3.45c0-0.3-0.133-0.45-0.4-0.45h-3.5c-0.267,0-0.4,0.15-0.4,0.45V38c0,0.267,0.133,0.4,0.4,0.4H686.7z
		"/>
	<path style="fill:#DE7226;" d="M397.15,41.65c0.433-0.433,0.65-0.967,0.65-1.6c0-0.633-0.217-1.183-0.65-1.65
		c-0.433-0.433-0.983-0.65-1.65-0.65c-0.633,0-1.167,0.217-1.6,0.65c-0.433,0.467-0.65,1.017-0.65,1.65
		c0,0.633,0.217,1.167,0.65,1.6c0.433,0.433,0.967,0.65,1.6,0.65C396.133,42.3,396.683,42.083,397.15,41.65 M406.45,41.65
		c0.433-0.433,0.65-0.967,0.65-1.6c0-0.633-0.217-1.183-0.65-1.65c-0.433-0.433-0.967-0.65-1.6-0.65s-1.183,0.217-1.65,0.65
		c-0.433,0.467-0.65,1.017-0.65,1.65c0,0.633,0.217,1.167,0.65,1.6c0.467,0.433,1.017,0.65,1.65,0.65S406.017,42.083,406.45,41.65
		 M415,41.65c0.467-0.433,0.7-0.967,0.7-1.6c0-0.633-0.233-1.183-0.7-1.65c-0.433-0.433-0.967-0.65-1.6-0.65
		c-0.633,0-1.167,0.217-1.6,0.65c-0.467,0.467-0.7,1.017-0.7,1.65c0,0.633,0.233,1.167,0.7,1.6c0.433,0.433,0.967,0.65,1.6,0.65
		C414.033,42.3,414.567,42.083,415,41.65 M478.65,66.55c0.3,0,0.567-0.117,0.8-0.35c0.233-0.2,0.35-0.467,0.35-0.8
		s-0.117-0.6-0.35-0.8c-0.233-0.233-0.5-0.35-0.8-0.35c-0.333,0-0.617,0.117-0.85,0.35c-0.233,0.2-0.35,0.467-0.35,0.8
		s0.117,0.6,0.35,0.8C478.033,66.433,478.317,66.55,478.65,66.55 M473.1,66.2c0.2,0.233,0.467,0.35,0.8,0.35
		c0.333,0,0.6-0.117,0.8-0.35c0.233-0.2,0.35-0.467,0.35-0.8s-0.117-0.6-0.35-0.8c-0.2-0.233-0.467-0.35-0.8-0.35
		c-0.333,0-0.6,0.117-0.8,0.35c-0.233,0.2-0.35,0.467-0.35,0.8S472.867,66,473.1,66.2 M483.8,66.2c0.233-0.2,0.35-0.467,0.35-0.8
		s-0.117-0.6-0.35-0.8c-0.2-0.233-0.467-0.35-0.8-0.35s-0.617,0.117-0.85,0.35c-0.233,0.2-0.35,0.467-0.35,0.8s0.117,0.6,0.35,0.8
		c0.233,0.233,0.517,0.35,0.85,0.35S483.6,66.433,483.8,66.2 M477.8,34.9c0.233,0.233,0.517,0.35,0.85,0.35
		c0.3,0,0.567-0.117,0.8-0.35s0.35-0.517,0.35-0.85c0-0.3-0.117-0.567-0.35-0.8s-0.5-0.35-0.8-0.35c-0.333,0-0.617,0.117-0.85,0.35
		c-0.233,0.233-0.35,0.5-0.35,0.8C477.45,34.383,477.567,34.667,477.8,34.9 M475.05,34.05c0-0.3-0.117-0.567-0.35-0.8
		c-0.2-0.233-0.467-0.35-0.8-0.35c-0.333,0-0.6,0.117-0.8,0.35c-0.233,0.233-0.35,0.5-0.35,0.8c0,0.333,0.117,0.617,0.35,0.85
		c0.2,0.233,0.467,0.35,0.8,0.35c0.333,0,0.6-0.117,0.8-0.35C474.933,34.667,475.05,34.383,475.05,34.05 M483.8,34.9
		c0.233-0.233,0.35-0.517,0.35-0.85c0-0.3-0.117-0.567-0.35-0.8c-0.2-0.233-0.467-0.35-0.8-0.35s-0.617,0.117-0.85,0.35
		c-0.233,0.233-0.35,0.5-0.35,0.8c0,0.333,0.117,0.617,0.35,0.85c0.233,0.233,0.517,0.35,0.85,0.35S483.6,35.133,483.8,34.9
		 M230.6,65.4c0,0.333,0.117,0.6,0.35,0.8c0.233,0.233,0.5,0.35,0.8,0.35c0.333,0,0.617-0.117,0.85-0.35
		c0.233-0.2,0.35-0.467,0.35-0.8s-0.117-0.6-0.35-0.8c-0.233-0.233-0.517-0.35-0.85-0.35c-0.3,0-0.567,0.117-0.8,0.35
		C230.717,64.8,230.6,65.067,230.6,65.4 M228.2,65.4c0-0.333-0.117-0.6-0.35-0.8c-0.2-0.233-0.467-0.35-0.8-0.35
		c-0.333,0-0.6,0.117-0.8,0.35c-0.233,0.2-0.35,0.467-0.35,0.8c0,0.333,0.117,0.6,0.35,0.8c0.2,0.233,0.467,0.35,0.8,0.35
		c0.333,0,0.6-0.117,0.8-0.35C228.083,66,228.2,65.733,228.2,65.4 M236.95,66.2c0.233-0.2,0.35-0.467,0.35-0.8
		c0-0.333-0.117-0.6-0.35-0.8c-0.233-0.233-0.5-0.35-0.8-0.35c-0.333,0-0.617,0.117-0.85,0.35c-0.233,0.2-0.35,0.467-0.35,0.8
		s0.117,0.6,0.35,0.8c0.233,0.233,0.517,0.35,0.85,0.35C236.45,66.55,236.717,66.433,236.95,66.2 M231.75,35.25
		c0.333,0,0.617-0.117,0.85-0.35s0.35-0.517,0.35-0.85c0-0.3-0.117-0.567-0.35-0.8s-0.517-0.35-0.85-0.35
		c-0.3,0-0.567,0.117-0.8,0.35s-0.35,0.5-0.35,0.8c0,0.333,0.117,0.617,0.35,0.85S231.45,35.25,231.75,35.25 M237.3,34.05
		c0-0.3-0.117-0.567-0.35-0.8s-0.5-0.35-0.8-0.35c-0.333,0-0.617,0.117-0.85,0.35s-0.35,0.5-0.35,0.8c0,0.333,0.117,0.617,0.35,0.85
		s0.517,0.35,0.85,0.35c0.3,0,0.567-0.117,0.8-0.35S237.3,34.383,237.3,34.05 M225.9,34.05c0,0.333,0.117,0.617,0.35,0.85
		c0.2,0.233,0.467,0.35,0.8,0.35c0.333,0,0.6-0.117,0.8-0.35c0.233-0.233,0.35-0.517,0.35-0.85c0-0.3-0.117-0.567-0.35-0.8
		c-0.2-0.233-0.467-0.35-0.8-0.35c-0.333,0-0.6,0.117-0.8,0.35C226.017,33.483,225.9,33.75,225.9,34.05 M299.65,81.85
		c0.233-0.2,0.35-0.467,0.35-0.8c0-0.333-0.117-0.6-0.35-0.8c-0.2-0.233-0.467-0.35-0.8-0.35s-0.6,0.117-0.8,0.35
		c-0.233,0.2-0.35,0.467-0.35,0.8c0,0.333,0.117,0.6,0.35,0.8c0.2,0.233,0.467,0.35,0.8,0.35S299.45,82.083,299.65,81.85
		 M295.3,81.85c0.233-0.2,0.35-0.467,0.35-0.8c0-0.333-0.117-0.6-0.35-0.8c-0.2-0.233-0.467-0.35-0.8-0.35
		c-0.333,0-0.6,0.117-0.8,0.35c-0.233,0.2-0.35,0.467-0.35,0.8c0,0.333,0.117,0.6,0.35,0.8c0.2,0.233,0.467,0.35,0.8,0.35
		C294.833,82.2,295.1,82.083,295.3,81.85 M290.55,81.85c0.233-0.2,0.35-0.467,0.35-0.8c0-0.333-0.117-0.6-0.35-0.8
		c-0.2-0.233-0.467-0.35-0.8-0.35c-0.333,0-0.6,0.117-0.8,0.35c-0.233,0.2-0.35,0.467-0.35,0.8c0,0.333,0.117,0.6,0.35,0.8
		c0.2,0.233,0.467,0.35,0.8,0.35C290.083,82.2,290.35,82.083,290.55,81.85 M299.65,50.55c0.233-0.233,0.35-0.5,0.35-0.8
		c0-0.333-0.117-0.617-0.35-0.85c-0.2-0.233-0.467-0.35-0.8-0.35s-0.6,0.117-0.8,0.35c-0.233,0.233-0.35,0.517-0.35,0.85
		c0,0.3,0.117,0.567,0.35,0.8c0.2,0.233,0.467,0.35,0.8,0.35S299.45,50.783,299.65,50.55 M290.55,50.55
		c0.233-0.233,0.35-0.5,0.35-0.8c0-0.333-0.117-0.617-0.35-0.85c-0.2-0.233-0.467-0.35-0.8-0.35c-0.333,0-0.6,0.117-0.8,0.35
		c-0.233,0.233-0.35,0.517-0.35,0.85c0,0.3,0.117,0.567,0.35,0.8c0.2,0.233,0.467,0.35,0.8,0.35
		C290.083,50.9,290.35,50.783,290.55,50.55 M295.3,50.55c0.233-0.233,0.35-0.5,0.35-0.8c0-0.333-0.117-0.617-0.35-0.85
		c-0.2-0.233-0.467-0.35-0.8-0.35c-0.333,0-0.6,0.117-0.8,0.35c-0.233,0.233-0.35,0.517-0.35,0.85c0,0.3,0.117,0.567,0.35,0.8
		c0.2,0.233,0.467,0.35,0.8,0.35C294.833,50.9,295.1,50.783,295.3,50.55 M52.8,81.85c0.233-0.2,0.35-0.467,0.35-0.8
		c0-0.333-0.117-0.6-0.35-0.8c-0.2-0.233-0.467-0.35-0.8-0.35s-0.6,0.117-0.8,0.35c-0.233,0.2-0.35,0.467-0.35,0.8
		c0,0.333,0.117,0.6,0.35,0.8c0.2,0.233,0.467,0.35,0.8,0.35S52.6,82.083,52.8,81.85 M48.45,81.85c0.233-0.2,0.35-0.467,0.35-0.8
		c0-0.333-0.117-0.6-0.35-0.8c-0.2-0.233-0.467-0.35-0.8-0.35c-0.333,0-0.6,0.117-0.8,0.35c-0.233,0.2-0.35,0.467-0.35,0.8
		c0,0.333,0.117,0.6,0.35,0.8c0.2,0.233,0.467,0.35,0.8,0.35C47.983,82.2,48.25,82.083,48.45,81.85 M48.45,50.55
		c0.233-0.233,0.35-0.5,0.35-0.8c0-0.333-0.117-0.617-0.35-0.85c-0.2-0.233-0.467-0.35-0.8-0.35c-0.333,0-0.6,0.117-0.8,0.35
		c-0.233,0.233-0.35,0.517-0.35,0.85c0,0.3,0.117,0.567,0.35,0.8c0.2,0.233,0.467,0.35,0.8,0.35
		C47.983,50.9,48.25,50.783,48.45,50.55 M52.8,50.55c0.233-0.233,0.35-0.5,0.35-0.8c0-0.333-0.117-0.617-0.35-0.85
		c-0.2-0.233-0.467-0.35-0.8-0.35s-0.6,0.117-0.8,0.35c-0.233,0.233-0.35,0.517-0.35,0.85c0,0.3,0.117,0.567,0.35,0.8
		c0.2,0.233,0.467,0.35,0.8,0.35S52.6,50.783,52.8,50.55 M164.25,70.85c0,0.633,0.233,1.167,0.7,1.6c0.433,0.467,0.967,0.7,1.6,0.7
		s1.167-0.233,1.6-0.7c0.467-0.433,0.7-0.967,0.7-1.6c0-0.633-0.233-1.167-0.7-1.6c-0.433-0.467-0.967-0.7-1.6-0.7
		s-1.167,0.233-1.6,0.7C164.483,69.683,164.25,70.217,164.25,70.85 M148.65,68.55c-0.633,0-1.167,0.233-1.6,0.7
		c-0.467,0.433-0.7,0.967-0.7,1.6c0,0.633,0.233,1.167,0.7,1.6c0.433,0.467,0.967,0.7,1.6,0.7s1.167-0.233,1.6-0.7
		c0.467-0.433,0.7-0.967,0.7-1.6c0-0.633-0.233-1.167-0.7-1.6C149.817,68.783,149.283,68.55,148.65,68.55 M157.95,68.55
		c-0.633,0-1.167,0.233-1.6,0.7c-0.433,0.433-0.65,0.967-0.65,1.6c0,0.633,0.217,1.167,0.65,1.6c0.433,0.467,0.967,0.7,1.6,0.7
		c0.633,0,1.183-0.233,1.65-0.7c0.433-0.433,0.65-0.967,0.65-1.6c0-0.633-0.217-1.167-0.65-1.6
		C159.133,68.783,158.583,68.55,157.95,68.55 M43.7,81.85c0.233-0.2,0.35-0.467,0.35-0.8c0-0.333-0.117-0.6-0.35-0.8
		c-0.2-0.233-0.467-0.35-0.8-0.35c-0.333,0-0.6,0.117-0.8,0.35c-0.233,0.2-0.35,0.467-0.35,0.8c0,0.333,0.117,0.6,0.35,0.8
		c0.2,0.233,0.467,0.35,0.8,0.35C43.233,82.2,43.5,82.083,43.7,81.85 M43.7,50.55c0.233-0.233,0.35-0.5,0.35-0.8
		c0-0.333-0.117-0.617-0.35-0.85c-0.2-0.233-0.467-0.35-0.8-0.35c-0.333,0-0.6,0.117-0.8,0.35c-0.233,0.233-0.35,0.517-0.35,0.85
		c0,0.3,0.117,0.567,0.35,0.8c0.2,0.233,0.467,0.35,0.8,0.35C43.233,50.9,43.5,50.783,43.7,50.55 M168.15,7.6
		c-0.433-0.433-0.967-0.65-1.6-0.65s-1.167,0.217-1.6,0.65c-0.467,0.467-0.7,1.017-0.7,1.65s0.233,1.167,0.7,1.6
		c0.433,0.433,0.967,0.65,1.6,0.65s1.167-0.217,1.6-0.65c0.467-0.433,0.7-0.967,0.7-1.6S168.617,8.067,168.15,7.6 M157.95,6.95
		c-0.633,0-1.167,0.217-1.6,0.65c-0.433,0.467-0.65,1.017-0.65,1.65s0.217,1.167,0.65,1.6c0.433,0.433,0.967,0.65,1.6,0.65
		c0.633,0,1.183-0.217,1.65-0.65c0.433-0.433,0.65-0.967,0.65-1.6s-0.217-1.183-0.65-1.65C159.167,7.167,158.617,6.95,157.95,6.95
		 M148.65,6.95c-0.633,0-1.167,0.217-1.6,0.65c-0.467,0.467-0.7,1.017-0.7,1.65s0.233,1.167,0.7,1.6
		c0.433,0.433,0.967,0.65,1.6,0.65s1.167-0.217,1.6-0.65c0.467-0.433,0.7-0.967,0.7-1.6s-0.233-1.183-0.7-1.65
		C149.817,7.167,149.283,6.95,148.65,6.95 M721.55,66.2c0.233-0.2,0.35-0.467,0.35-0.8s-0.117-0.6-0.35-0.8
		c-0.2-0.233-0.467-0.35-0.8-0.35c-0.333,0-0.6,0.117-0.8,0.35c-0.233,0.2-0.35,0.467-0.35,0.8s0.117,0.6,0.35,0.8
		c0.2,0.233,0.467,0.35,0.8,0.35C721.083,66.55,721.35,66.433,721.55,66.2 M730.65,66.2c0.233-0.2,0.35-0.467,0.35-0.8
		c0-0.333-0.117-0.6-0.35-0.8c-0.2-0.233-0.467-0.35-0.8-0.35s-0.6,0.117-0.8,0.35c-0.233,0.2-0.35,0.467-0.35,0.8
		c0,0.333,0.117,0.6,0.35,0.8c0.2,0.233,0.467,0.35,0.8,0.35S730.45,66.433,730.65,66.2 M726.3,66.2c0.233-0.2,0.35-0.467,0.35-0.8
		s-0.117-0.6-0.35-0.8c-0.2-0.233-0.467-0.35-0.8-0.35c-0.333,0-0.617,0.117-0.85,0.35c-0.233,0.2-0.35,0.467-0.35,0.8
		s0.117,0.6,0.35,0.8c0.233,0.233,0.517,0.35,0.85,0.35C725.833,66.55,726.1,66.433,726.3,66.2 M721.55,34.9
		c0.233-0.233,0.35-0.517,0.35-0.85c0-0.3-0.117-0.567-0.35-0.8c-0.2-0.233-0.467-0.35-0.8-0.35c-0.333,0-0.6,0.117-0.8,0.35
		c-0.233,0.233-0.35,0.5-0.35,0.8c0,0.333,0.117,0.617,0.35,0.85c0.2,0.233,0.467,0.35,0.8,0.35
		C721.083,35.25,721.35,35.133,721.55,34.9 M726.3,34.9c0.233-0.233,0.35-0.517,0.35-0.85c0-0.3-0.117-0.567-0.35-0.8
		c-0.2-0.233-0.467-0.35-0.8-0.35c-0.333,0-0.617,0.117-0.85,0.35c-0.233,0.233-0.35,0.5-0.35,0.8c0,0.333,0.117,0.617,0.35,0.85
		c0.233,0.233,0.517,0.35,0.85,0.35C725.833,35.25,726.1,35.133,726.3,34.9 M730.65,34.9c0.233-0.233,0.35-0.517,0.35-0.85
		c0-0.3-0.117-0.567-0.35-0.8c-0.2-0.233-0.467-0.35-0.8-0.35s-0.6,0.117-0.8,0.35c-0.233,0.233-0.35,0.5-0.35,0.8
		c0,0.333,0.117,0.617,0.35,0.85c0.2,0.233,0.467,0.35,0.8,0.35S730.45,35.133,730.65,34.9 M544.55,81.05
		c0,0.333,0.117,0.6,0.35,0.8c0.2,0.233,0.467,0.35,0.8,0.35s0.6-0.117,0.8-0.35c0.233-0.2,0.35-0.467,0.35-0.8
		c0-0.333-0.117-0.6-0.35-0.8c-0.2-0.233-0.467-0.35-0.8-0.35s-0.6,0.117-0.8,0.35C544.667,80.45,544.55,80.717,544.55,81.05
		 M542.5,81.05c0-0.333-0.117-0.6-0.35-0.8c-0.2-0.233-0.467-0.35-0.8-0.35s-0.6,0.117-0.8,0.35c-0.233,0.2-0.35,0.467-0.35,0.8
		c0,0.333,0.117,0.6,0.35,0.8c0.2,0.233,0.467,0.35,0.8,0.35s0.6-0.117,0.8-0.35C542.383,81.65,542.5,81.383,542.5,81.05
		 M537.45,81.85c0.233-0.2,0.35-0.467,0.35-0.8c0-0.333-0.117-0.6-0.35-0.8c-0.233-0.233-0.517-0.35-0.85-0.35
		c-0.3,0-0.567,0.117-0.8,0.35c-0.233,0.2-0.35,0.467-0.35,0.8c0,0.333,0.117,0.6,0.35,0.8c0.233,0.233,0.5,0.35,0.8,0.35
		C536.933,82.2,537.217,82.083,537.45,81.85 M542.15,50.55c0.233-0.233,0.35-0.5,0.35-0.8c0-0.333-0.117-0.617-0.35-0.85
		c-0.2-0.233-0.467-0.35-0.8-0.35s-0.6,0.117-0.8,0.35c-0.233,0.233-0.35,0.517-0.35,0.85c0,0.3,0.117,0.567,0.35,0.8
		c0.2,0.233,0.467,0.35,0.8,0.35S541.95,50.783,542.15,50.55 M546.5,50.55c0.233-0.233,0.35-0.5,0.35-0.8
		c0-0.333-0.117-0.617-0.35-0.85c-0.2-0.233-0.467-0.35-0.8-0.35s-0.6,0.117-0.8,0.35c-0.233,0.233-0.35,0.517-0.35,0.85
		c0,0.3,0.117,0.567,0.35,0.8c0.2,0.233,0.467,0.35,0.8,0.35S546.3,50.783,546.5,50.55 M537.45,50.55c0.233-0.233,0.35-0.5,0.35-0.8
		c0-0.333-0.117-0.617-0.35-0.85s-0.517-0.35-0.85-0.35c-0.3,0-0.567,0.117-0.8,0.35c-0.233,0.233-0.35,0.517-0.35,0.85
		c0,0.3,0.117,0.567,0.35,0.8c0.233,0.233,0.5,0.35,0.8,0.35C536.933,50.9,537.217,50.783,537.45,50.55 M660.25,68.55
		c-0.633,0-1.167,0.233-1.6,0.7c-0.467,0.433-0.7,0.967-0.7,1.6c0,0.633,0.233,1.167,0.7,1.6c0.433,0.467,0.967,0.7,1.6,0.7
		s1.167-0.233,1.6-0.7c0.467-0.433,0.7-0.967,0.7-1.6c0-0.633-0.233-1.167-0.7-1.6C661.417,68.783,660.883,68.55,660.25,68.55
		 M651.7,68.55c-0.633,0-1.183,0.233-1.65,0.7c-0.433,0.433-0.65,0.967-0.65,1.6c0,0.633,0.217,1.167,0.65,1.6
		c0.467,0.467,1.017,0.7,1.65,0.7s1.167-0.233,1.6-0.7c0.433-0.433,0.65-0.967,0.65-1.6c0-0.633-0.217-1.167-0.65-1.6
		C652.867,68.783,652.333,68.55,651.7,68.55 M644,69.25c-0.467-0.467-1.017-0.7-1.65-0.7s-1.167,0.233-1.6,0.7
		c-0.433,0.433-0.65,0.967-0.65,1.6c0,0.633,0.217,1.167,0.65,1.6c0.433,0.467,0.967,0.7,1.6,0.7s1.183-0.233,1.65-0.7
		c0.433-0.433,0.65-0.967,0.65-1.6C644.65,70.217,644.433,69.683,644,69.25 M660.25,6.95c-0.633,0-1.167,0.217-1.6,0.65
		c-0.467,0.467-0.7,1.017-0.7,1.65c0,0.633,0.233,1.167,0.7,1.6c0.433,0.433,0.967,0.65,1.6,0.65s1.167-0.217,1.6-0.65
		c0.467-0.433,0.7-0.967,0.7-1.6s-0.233-1.183-0.7-1.65C661.417,7.167,660.883,6.95,660.25,6.95 M651.7,6.95
		c-0.633,0-1.183,0.217-1.65,0.65c-0.433,0.467-0.65,1.017-0.65,1.65s0.217,1.167,0.65,1.6c0.467,0.433,1.017,0.65,1.65,0.65
		s1.167-0.217,1.6-0.65c0.433-0.433,0.65-0.967,0.65-1.6c0-0.633-0.217-1.183-0.65-1.65C652.867,7.167,652.333,6.95,651.7,6.95
		 M642.35,6.95c-0.633,0-1.167,0.217-1.6,0.65c-0.433,0.467-0.65,1.017-0.65,1.65s0.217,1.167,0.65,1.6
		c0.433,0.433,0.967,0.65,1.6,0.65s1.183-0.217,1.65-0.65c0.433-0.433,0.65-0.967,0.65-1.6S644.433,8.067,644,7.6
		C643.567,7.167,643.017,6.95,642.35,6.95z"/>
	<path style="fill:#F1F1F1;" d="M415,72.45c0.467-0.433,0.7-0.967,0.7-1.6c0-0.633-0.233-1.167-0.7-1.6
		c-0.433-0.467-0.967-0.7-1.6-0.7c-0.633,0-1.167,0.233-1.6,0.7c-0.467,0.433-0.7,0.967-0.7,1.6c0,0.633,0.233,1.167,0.7,1.6
		c0.433,0.467,0.967,0.7,1.6,0.7C414.033,73.15,414.567,72.917,415,72.45 M395.5,68.55c-0.633,0-1.167,0.233-1.6,0.7
		c-0.433,0.433-0.65,0.967-0.65,1.6c0,0.633,0.217,1.167,0.65,1.6c0.433,0.467,0.967,0.7,1.6,0.7c0.633,0,1.183-0.233,1.65-0.7
		c0.433-0.433,0.65-0.967,0.65-1.6c0-0.633-0.217-1.167-0.65-1.6C396.683,68.783,396.133,68.55,395.5,68.55 M404.85,68.55
		c-0.633,0-1.183,0.233-1.65,0.7c-0.433,0.433-0.65,0.967-0.65,1.6c0,0.633,0.217,1.167,0.65,1.6c0.467,0.467,1.017,0.7,1.65,0.7
		s1.167-0.233,1.6-0.7c0.433-0.433,0.65-0.967,0.65-1.6c0-0.633-0.217-1.167-0.65-1.6C406.017,68.783,405.483,68.55,404.85,68.55
		 M483.8,81.85c0.233-0.2,0.35-0.467,0.35-0.8c0-0.333-0.117-0.6-0.35-0.8c-0.2-0.233-0.467-0.35-0.8-0.35s-0.617,0.117-0.85,0.35
		c-0.233,0.2-0.35,0.467-0.35,0.8c0,0.333,0.117,0.6,0.35,0.8c0.233,0.233,0.517,0.35,0.85,0.35S483.6,82.083,483.8,81.85
		 M478.65,82.2c0.3,0,0.567-0.117,0.8-0.35c0.233-0.2,0.35-0.467,0.35-0.8c0-0.333-0.117-0.6-0.35-0.8
		c-0.233-0.233-0.5-0.35-0.8-0.35c-0.333,0-0.617,0.117-0.85,0.35c-0.233,0.2-0.35,0.467-0.35,0.8c0,0.333,0.117,0.6,0.35,0.8
		C478.033,82.083,478.317,82.2,478.65,82.2 M473.1,81.85c0.2,0.233,0.467,0.35,0.8,0.35c0.333,0,0.6-0.117,0.8-0.35
		c0.233-0.2,0.35-0.467,0.35-0.8c0-0.333-0.117-0.6-0.35-0.8c-0.2-0.233-0.467-0.35-0.8-0.35c-0.333,0-0.6,0.117-0.8,0.35
		c-0.233,0.2-0.35,0.467-0.35,0.8C472.75,81.383,472.867,81.65,473.1,81.85 M483.8,50.55c0.233-0.233,0.35-0.5,0.35-0.8
		c0-0.333-0.117-0.617-0.35-0.85c-0.2-0.233-0.467-0.35-0.8-0.35s-0.617,0.117-0.85,0.35c-0.233,0.233-0.35,0.517-0.35,0.85
		c0,0.3,0.117,0.567,0.35,0.8c0.233,0.233,0.517,0.35,0.85,0.35S483.6,50.783,483.8,50.55 M478.65,50.9c0.3,0,0.567-0.117,0.8-0.35
		c0.233-0.233,0.35-0.5,0.35-0.8c0-0.333-0.117-0.617-0.35-0.85s-0.5-0.35-0.8-0.35c-0.333,0-0.617,0.117-0.85,0.35
		c-0.233,0.233-0.35,0.517-0.35,0.85c0,0.3,0.117,0.567,0.35,0.8C478.033,50.783,478.317,50.9,478.65,50.9 M475.05,49.75
		c0-0.333-0.117-0.617-0.35-0.85c-0.2-0.233-0.467-0.35-0.8-0.35c-0.333,0-0.6,0.117-0.8,0.35c-0.233,0.233-0.35,0.517-0.35,0.85
		c0,0.3,0.117,0.567,0.35,0.8c0.2,0.233,0.467,0.35,0.8,0.35c0.333,0,0.6-0.117,0.8-0.35C474.933,50.317,475.05,50.05,475.05,49.75
		 M235.3,81.85c0.233,0.233,0.517,0.35,0.85,0.35c0.3,0,0.567-0.117,0.8-0.35c0.233-0.2,0.35-0.467,0.35-0.8
		c0-0.333-0.117-0.6-0.35-0.8c-0.233-0.233-0.5-0.35-0.8-0.35c-0.333,0-0.617,0.117-0.85,0.35c-0.233,0.2-0.35,0.467-0.35,0.8
		C234.95,81.383,235.067,81.65,235.3,81.85 M230.6,81.05c0,0.333,0.117,0.6,0.35,0.8c0.233,0.233,0.5,0.35,0.8,0.35
		c0.333,0,0.617-0.117,0.85-0.35c0.233-0.2,0.35-0.467,0.35-0.8c0-0.333-0.117-0.6-0.35-0.8c-0.233-0.233-0.517-0.35-0.85-0.35
		c-0.3,0-0.567,0.117-0.8,0.35C230.717,80.45,230.6,80.717,230.6,81.05 M228.2,81.05c0-0.333-0.117-0.6-0.35-0.8
		c-0.2-0.233-0.467-0.35-0.8-0.35c-0.333,0-0.6,0.117-0.8,0.35c-0.233,0.2-0.35,0.467-0.35,0.8c0,0.333,0.117,0.6,0.35,0.8
		c0.2,0.233,0.467,0.35,0.8,0.35c0.333,0,0.6-0.117,0.8-0.35C228.083,81.65,228.2,81.383,228.2,81.05 M236.15,48.55
		c-0.333,0-0.617,0.117-0.85,0.35s-0.35,0.517-0.35,0.85c0,0.3,0.117,0.567,0.35,0.8c0.233,0.233,0.517,0.35,0.85,0.35
		c0.3,0,0.567-0.117,0.8-0.35c0.233-0.233,0.35-0.5,0.35-0.8c0-0.333-0.117-0.617-0.35-0.85S236.45,48.55,236.15,48.55 M232.6,50.55
		c0.233-0.233,0.35-0.5,0.35-0.8c0-0.333-0.117-0.617-0.35-0.85s-0.517-0.35-0.85-0.35c-0.3,0-0.567,0.117-0.8,0.35
		s-0.35,0.517-0.35,0.85c0,0.3,0.117,0.567,0.35,0.8c0.233,0.233,0.5,0.35,0.8,0.35C232.083,50.9,232.367,50.783,232.6,50.55
		 M225.9,49.75c0,0.3,0.117,0.567,0.35,0.8c0.2,0.233,0.467,0.35,0.8,0.35c0.333,0,0.6-0.117,0.8-0.35
		c0.233-0.233,0.35-0.5,0.35-0.8c0-0.333-0.117-0.617-0.35-0.85c-0.2-0.233-0.467-0.35-0.8-0.35c-0.333,0-0.6,0.117-0.8,0.35
		C226.017,49.133,225.9,49.417,225.9,49.75 M295.3,66.2c0.233-0.2,0.35-0.467,0.35-0.8c0-0.333-0.117-0.6-0.35-0.8
		c-0.2-0.233-0.467-0.35-0.8-0.35c-0.333,0-0.6,0.117-0.8,0.35c-0.233,0.2-0.35,0.467-0.35,0.8s0.117,0.6,0.35,0.8
		c0.2,0.233,0.467,0.35,0.8,0.35C294.833,66.55,295.1,66.433,295.3,66.2 M290.55,66.2c0.233-0.2,0.35-0.467,0.35-0.8
		c0-0.333-0.117-0.6-0.35-0.8c-0.2-0.233-0.467-0.35-0.8-0.35c-0.333,0-0.6,0.117-0.8,0.35c-0.233,0.2-0.35,0.467-0.35,0.8
		s0.117,0.6,0.35,0.8c0.2,0.233,0.467,0.35,0.8,0.35C290.083,66.55,290.35,66.433,290.55,66.2 M299.65,66.2
		c0.233-0.2,0.35-0.467,0.35-0.8s-0.117-0.6-0.35-0.8c-0.2-0.233-0.467-0.35-0.8-0.35s-0.6,0.117-0.8,0.35
		c-0.233,0.2-0.35,0.467-0.35,0.8s0.117,0.6,0.35,0.8c0.2,0.233,0.467,0.35,0.8,0.35S299.45,66.433,299.65,66.2 M288.95,34.9
		c0.2,0.233,0.467,0.35,0.8,0.35c0.333,0,0.6-0.117,0.8-0.35c0.233-0.233,0.35-0.517,0.35-0.85c0-0.3-0.117-0.567-0.35-0.8
		c-0.2-0.233-0.467-0.35-0.8-0.35c-0.333,0-0.6,0.117-0.8,0.35c-0.233,0.233-0.35,0.5-0.35,0.8
		C288.6,34.383,288.717,34.667,288.95,34.9 M293.7,34.9c0.2,0.233,0.467,0.35,0.8,0.35c0.333,0,0.6-0.117,0.8-0.35
		c0.233-0.233,0.35-0.517,0.35-0.85c0-0.3-0.117-0.567-0.35-0.8c-0.2-0.233-0.467-0.35-0.8-0.35c-0.333,0-0.6,0.117-0.8,0.35
		c-0.233,0.233-0.35,0.5-0.35,0.8C293.35,34.383,293.467,34.667,293.7,34.9 M299.65,34.9c0.233-0.233,0.35-0.517,0.35-0.85
		c0-0.3-0.117-0.567-0.35-0.8c-0.2-0.233-0.467-0.35-0.8-0.35s-0.6,0.117-0.8,0.35c-0.233,0.233-0.35,0.5-0.35,0.8
		c0,0.333,0.117,0.617,0.35,0.85c0.2,0.233,0.467,0.35,0.8,0.35S299.45,35.133,299.65,34.9 M413.4,6.95
		c-0.633,0-1.167,0.217-1.6,0.65c-0.467,0.467-0.7,1.017-0.7,1.65s0.233,1.167,0.7,1.6c0.433,0.433,0.967,0.65,1.6,0.65
		c0.633,0,1.167-0.217,1.6-0.65c0.467-0.433,0.7-0.967,0.7-1.6s-0.233-1.183-0.7-1.65C414.567,7.167,414.033,6.95,413.4,6.95
		 M404.85,6.95c-0.633,0-1.183,0.217-1.65,0.65c-0.433,0.467-0.65,1.017-0.65,1.65s0.217,1.167,0.65,1.6
		c0.467,0.433,1.017,0.65,1.65,0.65s1.167-0.217,1.6-0.65c0.433-0.433,0.65-0.967,0.65-1.6s-0.217-1.183-0.65-1.65
		C406.017,7.167,405.483,6.95,404.85,6.95 M395.5,6.95c-0.633,0-1.167,0.217-1.6,0.65c-0.433,0.467-0.65,1.017-0.65,1.65
		s0.217,1.167,0.65,1.6c0.433,0.433,0.967,0.65,1.6,0.65c0.633,0,1.183-0.217,1.65-0.65c0.433-0.433,0.65-0.967,0.65-1.6
		s-0.217-1.183-0.65-1.65C396.717,7.167,396.167,6.95,395.5,6.95 M52.8,66.2c0.233-0.2,0.35-0.467,0.35-0.8s-0.117-0.6-0.35-0.8
		c-0.2-0.233-0.467-0.35-0.8-0.35s-0.6,0.117-0.8,0.35c-0.233,0.2-0.35,0.467-0.35,0.8s0.117,0.6,0.35,0.8
		c0.2,0.233,0.467,0.35,0.8,0.35S52.6,66.433,52.8,66.2 M48.45,66.2c0.233-0.2,0.35-0.467,0.35-0.8s-0.117-0.6-0.35-0.8
		c-0.2-0.233-0.467-0.35-0.8-0.35c-0.333,0-0.6,0.117-0.8,0.35c-0.233,0.2-0.35,0.467-0.35,0.8s0.117,0.6,0.35,0.8
		c0.2,0.233,0.467,0.35,0.8,0.35C47.983,66.55,48.25,66.433,48.45,66.2 M48.45,34.9c0.233-0.233,0.35-0.517,0.35-0.85
		c0-0.3-0.117-0.567-0.35-0.8c-0.2-0.233-0.467-0.35-0.8-0.35c-0.333,0-0.6,0.117-0.8,0.35c-0.233,0.233-0.35,0.5-0.35,0.8
		c0,0.333,0.117,0.617,0.35,0.85c0.2,0.233,0.467,0.35,0.8,0.35C47.983,35.25,48.25,35.133,48.45,34.9 M52.8,34.9
		c0.233-0.233,0.35-0.517,0.35-0.85c0-0.3-0.117-0.567-0.35-0.8c-0.2-0.233-0.467-0.35-0.8-0.35s-0.6,0.117-0.8,0.35
		c-0.233,0.233-0.35,0.5-0.35,0.8c0,0.333,0.117,0.617,0.35,0.85c0.2,0.233,0.467,0.35,0.8,0.35S52.6,35.133,52.8,34.9
		 M150.25,41.65c0.467-0.433,0.7-0.967,0.7-1.6c0-0.633-0.233-1.183-0.7-1.65c-0.433-0.433-0.967-0.65-1.6-0.65
		s-1.167,0.217-1.6,0.65c-0.467,0.467-0.7,1.017-0.7,1.65c0,0.633,0.233,1.167,0.7,1.6c0.433,0.433,0.967,0.65,1.6,0.65
		S149.817,42.083,150.25,41.65 M159.6,41.65c0.433-0.433,0.65-0.967,0.65-1.6c0-0.633-0.217-1.183-0.65-1.65
		c-0.433-0.433-0.983-0.65-1.65-0.65c-0.633,0-1.167,0.217-1.6,0.65c-0.433,0.467-0.65,1.017-0.65,1.65
		c0,0.633,0.217,1.167,0.65,1.6c0.433,0.433,0.967,0.65,1.6,0.65C158.583,42.3,159.133,42.083,159.6,41.65 M168.15,41.65
		c0.467-0.433,0.7-0.967,0.7-1.6c0-0.633-0.233-1.183-0.7-1.65c-0.433-0.433-0.967-0.65-1.6-0.65s-1.167,0.217-1.6,0.65
		c-0.467,0.467-0.7,1.017-0.7,1.65c0,0.633,0.233,1.167,0.7,1.6c0.433,0.433,0.967,0.65,1.6,0.65S167.717,42.083,168.15,41.65
		 M43.7,66.2c0.233-0.2,0.35-0.467,0.35-0.8s-0.117-0.6-0.35-0.8c-0.2-0.233-0.467-0.35-0.8-0.35c-0.333,0-0.6,0.117-0.8,0.35
		c-0.233,0.2-0.35,0.467-0.35,0.8s0.117,0.6,0.35,0.8c0.2,0.233,0.467,0.35,0.8,0.35C43.233,66.55,43.5,66.433,43.7,66.2 M43.7,34.9
		c0.233-0.233,0.35-0.517,0.35-0.85c0-0.3-0.117-0.567-0.35-0.8c-0.2-0.233-0.467-0.35-0.8-0.35c-0.333,0-0.6,0.117-0.8,0.35
		c-0.233,0.233-0.35,0.5-0.35,0.8c0,0.333,0.117,0.617,0.35,0.85c0.2,0.233,0.467,0.35,0.8,0.35C43.233,35.25,43.5,35.133,43.7,34.9
		 M730.65,81.85c0.233-0.2,0.35-0.467,0.35-0.8c0-0.333-0.117-0.6-0.35-0.8c-0.2-0.233-0.467-0.35-0.8-0.35s-0.6,0.117-0.8,0.35
		c-0.233,0.2-0.35,0.467-0.35,0.8c0,0.333,0.117,0.6,0.35,0.8c0.2,0.233,0.467,0.35,0.8,0.35S730.45,82.083,730.65,81.85
		 M726.3,81.85c0.233-0.2,0.35-0.467,0.35-0.8c0-0.333-0.117-0.6-0.35-0.8c-0.2-0.233-0.467-0.35-0.8-0.35
		c-0.333,0-0.617,0.117-0.85,0.35c-0.233,0.2-0.35,0.467-0.35,0.8c0,0.333,0.117,0.6,0.35,0.8c0.233,0.233,0.517,0.35,0.85,0.35
		C725.833,82.2,726.1,82.083,726.3,81.85 M721.55,81.85c0.233-0.2,0.35-0.467,0.35-0.8c0-0.333-0.117-0.6-0.35-0.8
		c-0.2-0.233-0.467-0.35-0.8-0.35c-0.333,0-0.6,0.117-0.8,0.35c-0.233,0.2-0.35,0.467-0.35,0.8c0,0.333,0.117,0.6,0.35,0.8
		c0.2,0.233,0.467,0.35,0.8,0.35C721.083,82.2,721.35,82.083,721.55,81.85 M726.3,50.55c0.233-0.233,0.35-0.5,0.35-0.8
		c0-0.333-0.117-0.617-0.35-0.85c-0.2-0.233-0.467-0.35-0.8-0.35c-0.333,0-0.617,0.117-0.85,0.35c-0.233,0.233-0.35,0.517-0.35,0.85
		c0,0.3,0.117,0.567,0.35,0.8c0.233,0.233,0.517,0.35,0.85,0.35C725.833,50.9,726.1,50.783,726.3,50.55 M730.65,50.55
		c0.233-0.233,0.35-0.5,0.35-0.8c0-0.333-0.117-0.617-0.35-0.85c-0.2-0.233-0.467-0.35-0.8-0.35s-0.6,0.117-0.8,0.35
		c-0.233,0.233-0.35,0.517-0.35,0.85c0,0.3,0.117,0.567,0.35,0.8c0.2,0.233,0.467,0.35,0.8,0.35S730.45,50.783,730.65,50.55
		 M721.55,50.55c0.233-0.233,0.35-0.5,0.35-0.8c0-0.333-0.117-0.617-0.35-0.85c-0.2-0.233-0.467-0.35-0.8-0.35
		c-0.333,0-0.6,0.117-0.8,0.35c-0.233,0.233-0.35,0.517-0.35,0.85c0,0.3,0.117,0.567,0.35,0.8c0.2,0.233,0.467,0.35,0.8,0.35
		C721.083,50.9,721.35,50.783,721.55,50.55 M537.45,66.2c0.233-0.2,0.35-0.467,0.35-0.8s-0.117-0.6-0.35-0.8
		c-0.233-0.233-0.517-0.35-0.85-0.35c-0.3,0-0.567,0.117-0.8,0.35c-0.233,0.2-0.35,0.467-0.35,0.8s0.117,0.6,0.35,0.8
		c0.233,0.233,0.5,0.35,0.8,0.35C536.933,66.55,537.217,66.433,537.45,66.2 M542.15,66.2c0.233-0.2,0.35-0.467,0.35-0.8
		s-0.117-0.6-0.35-0.8c-0.2-0.233-0.467-0.35-0.8-0.35s-0.6,0.117-0.8,0.35c-0.233,0.2-0.35,0.467-0.35,0.8s0.117,0.6,0.35,0.8
		c0.2,0.233,0.467,0.35,0.8,0.35S541.95,66.433,542.15,66.2 M544.9,64.6c-0.233,0.2-0.35,0.467-0.35,0.8s0.117,0.6,0.35,0.8
		c0.2,0.233,0.467,0.35,0.8,0.35s0.6-0.117,0.8-0.35c0.233-0.2,0.35-0.467,0.35-0.8s-0.117-0.6-0.35-0.8
		c-0.2-0.233-0.467-0.35-0.8-0.35S545.1,64.367,544.9,64.6 M537.45,34.9c0.233-0.233,0.35-0.517,0.35-0.85
		c0-0.3-0.117-0.567-0.35-0.8s-0.517-0.35-0.85-0.35c-0.3,0-0.567,0.117-0.8,0.35c-0.233,0.233-0.35,0.5-0.35,0.8
		c0,0.333,0.117,0.617,0.35,0.85c0.233,0.233,0.5,0.35,0.8,0.35C536.933,35.25,537.217,35.133,537.45,34.9 M542.5,34.05
		c0-0.3-0.117-0.567-0.35-0.8c-0.2-0.233-0.467-0.35-0.8-0.35s-0.6,0.117-0.8,0.35c-0.233,0.233-0.35,0.5-0.35,0.8
		c0,0.333,0.117,0.617,0.35,0.85c0.2,0.233,0.467,0.35,0.8,0.35s0.6-0.117,0.8-0.35C542.383,34.667,542.5,34.383,542.5,34.05
		 M546.5,34.9c0.233-0.233,0.35-0.517,0.35-0.85c0-0.3-0.117-0.567-0.35-0.8c-0.2-0.233-0.467-0.35-0.8-0.35s-0.6,0.117-0.8,0.35
		c-0.233,0.233-0.35,0.5-0.35,0.8c0,0.333,0.117,0.617,0.35,0.85c0.2,0.233,0.467,0.35,0.8,0.35S546.3,35.133,546.5,34.9 M644,41.65
		c0.433-0.433,0.65-0.967,0.65-1.6c0-0.633-0.217-1.183-0.65-1.65c-0.433-0.433-0.983-0.65-1.65-0.65c-0.633,0-1.167,0.217-1.6,0.65
		c-0.433,0.467-0.65,1.017-0.65,1.65c0,0.633,0.217,1.167,0.65,1.6c0.433,0.433,0.967,0.65,1.6,0.65S643.533,42.083,644,41.65
		 M660.25,42.3c0.633,0,1.167-0.217,1.6-0.65c0.467-0.433,0.7-0.967,0.7-1.6c0-0.633-0.233-1.183-0.7-1.65
		c-0.433-0.433-0.967-0.65-1.6-0.65s-1.167,0.217-1.6,0.65c-0.467,0.467-0.7,1.017-0.7,1.65c0,0.633,0.233,1.167,0.7,1.6
		C659.083,42.083,659.617,42.3,660.25,42.3 M653.3,41.65c0.433-0.433,0.65-0.967,0.65-1.6c0-0.633-0.217-1.183-0.65-1.65
		c-0.433-0.433-0.967-0.65-1.6-0.65s-1.183,0.217-1.65,0.65c-0.433,0.467-0.65,1.017-0.65,1.65c0,0.633,0.217,1.167,0.65,1.6
		c0.467,0.433,1.017,0.65,1.65,0.65S652.867,42.083,653.3,41.65z"/>
	<path style="fill:#D1E2ED;" d="M436.35,81.1c-0.267,0-0.4,0.15-0.4,0.45v2.1h4.3v-2.1c0-0.3-0.15-0.45-0.45-0.45H436.35
		 M439.8,54.1c0.3,0,0.45-0.15,0.45-0.45V50.2c0-0.267-0.15-0.4-0.45-0.4h-3.45c-0.267,0-0.4,0.133-0.4,0.4v3.45
		c0,0.3,0.133,0.45,0.4,0.45H439.8 M502.55,69.75c0.267,0,0.4-0.15,0.4-0.45v-3.45c0-0.267-0.133-0.4-0.4-0.4h-3.45
		c-0.3,0-0.45,0.133-0.45,0.4v3.45c0,0.3,0.15,0.45,0.45,0.45H502.55 M502.55,38.4c0.267,0,0.4-0.133,0.4-0.4v-3.45
		c0-0.3-0.133-0.45-0.4-0.45h-3.45c-0.3,0-0.45,0.15-0.45,0.45V38c0,0.267,0.15,0.4,0.45,0.4H502.55 M255.7,69.75
		c0.267,0,0.4-0.15,0.4-0.45v-3.45c0-0.267-0.133-0.4-0.4-0.4h-3.45c-0.3,0-0.45,0.133-0.45,0.4v3.45c0,0.3,0.15,0.45,0.45,0.45
		H255.7 M255.7,38.4c0.267,0,0.4-0.133,0.4-0.4v-3.45c0-0.3-0.133-0.45-0.4-0.45h-3.45c-0.3,0-0.45,0.15-0.45,0.45V38
		c0,0.267,0.15,0.4,0.45,0.4H255.7 M328.5,48.6c0.533,0,0.8-0.283,0.8-0.85v-6.8c0-0.533-0.267-0.8-0.8-0.8h-6.8
		c-0.233,0-0.433,0.083-0.6,0.25c-0.167,0.133-0.25,0.317-0.25,0.55v6.8c0,0.567,0.283,0.85,0.85,0.85H328.5 M81.65,48.6
		c0.533,0,0.8-0.283,0.8-0.85v-6.8c0-0.533-0.267-0.8-0.8-0.8h-6.8c-0.567,0-0.85,0.267-0.85,0.8v6.8c0,0.567,0.283,0.85,0.85,0.85
		H81.65 M189.5,81.1c-0.267,0-0.4,0.15-0.4,0.45v2.1h4.3v-2.1c0-0.3-0.15-0.45-0.45-0.45H189.5 M192.95,54.1
		c0.3,0,0.45-0.15,0.45-0.45V50.2c0-0.267-0.15-0.4-0.45-0.4h-3.45c-0.267,0-0.4,0.133-0.4,0.4v3.45c0,0.3,0.133,0.45,0.4,0.45
		H192.95 M8.85,69.75c0.267,0,0.4-0.15,0.4-0.45v-3.45c0-0.267-0.133-0.4-0.4-0.4h-3.5c-0.267,0-0.4,0.133-0.4,0.4v3.45
		c0,0.3,0.133,0.45,0.4,0.45H8.85 M8.85,38.4c0.267,0,0.4-0.133,0.4-0.4v-3.45c0-0.3-0.133-0.45-0.4-0.45h-3.5
		c-0.267,0-0.4,0.15-0.4,0.45V38c0,0.267,0.133,0.4,0.4,0.4H8.85 M567.7,78.55c0,0.567,0.283,0.85,0.85,0.85h6.8
		c0.567,0,0.85-0.283,0.85-0.85v-6.8c0-0.233-0.083-0.417-0.25-0.55c-0.167-0.167-0.367-0.25-0.6-0.25h-6.8
		c-0.233,0-0.433,0.083-0.6,0.25c-0.167,0.133-0.25,0.317-0.25,0.55V78.55 M575.95,17.55c0.167-0.167,0.25-0.367,0.25-0.6v-6.8
		c0-0.233-0.083-0.433-0.25-0.6c-0.167-0.167-0.367-0.25-0.6-0.25h-6.8c-0.233,0-0.433,0.083-0.6,0.25
		c-0.167,0.167-0.25,0.367-0.25,0.6v6.8c0,0.233,0.083,0.433,0.25,0.6c0.167,0.167,0.367,0.25,0.6,0.25h6.8
		C575.583,17.8,575.783,17.717,575.95,17.55 M683.2,81.1c-0.267,0-0.4,0.15-0.4,0.45v2.1h4.3v-2.1c0-0.3-0.133-0.45-0.4-0.45H683.2
		 M686.7,54.1c0.267,0,0.4-0.15,0.4-0.45V50.2c0-0.267-0.133-0.4-0.4-0.4h-3.5c-0.267,0-0.4,0.133-0.4,0.4v3.45
		c0,0.3,0.133,0.45,0.4,0.45H686.7z"/>
</g>
<g id="Layer_1">
</g>
</svg>
