<?xml version="1.0" encoding="utf-8"?>
<!-- Generator: Adobe Illustrator 18.1.0, SVG Export Plug-In . SVG Version: 6.00 Build 0)  -->
<svg version="1.1" id="Layer_1" xmlns="http://www.w3.org/2000/svg" xmlns:xlink="http://www.w3.org/1999/xlink" x="0px" y="0px"
	 viewBox="105.4 0 189.3 200" enable-background="new 105.4 0 189.3 200" xml:space="preserve">
<g transform="matrix( 1, 0, 0, 1, 0,0) ">
	<g>
		<g id="Layer0_4_FILL">
			<path d="M294.5,161.2c0-1.8-0.8-3.4-1.8-4.7c-1.3-1.3-2.9-2-4.7-2H112c-1.8,0-3.4,0.8-4.7,2s-2,2.9-2,4.7v32.1
				c0,1.8,0.8,3.4,2,4.7c0.5,0.5,1,1,1.8,1.4l0.1,0.1c0.8,0.4,1.4,0.5,2.3,0.5c0.1,0,0.1,0,0.4,0H288c1.8,0,3.4-0.8,4.7-2
				c1.3-1.3,1.8-2.9,1.8-4.7v-32.1 M243.9,172.7c-0.8-0.8-1-1.6-1-2.6s0.4-2,1-2.6c0.8-0.8,1.6-1.3,2.6-1.3c1,0,2,0.4,2.6,1.3
				c0.8,0.8,1.3,1.6,1.3,2.6s-0.4,2-1.3,2.6c-0.8,0.8-1.6,1-2.6,1C245.5,173.8,244.6,173.4,243.9,172.7 M258.2,170c0-1,0.4-2,1-2.6
				c0.8-0.8,1.6-1.3,2.6-1.3c1,0,2,0.4,2.6,1.3c0.8,0.8,1.3,1.6,1.3,2.6s-0.4,2-1.3,2.6c-0.8,0.8-1.6,1-2.6,1c-1,0-2-0.4-2.6-1
				C258.9,172,258.2,170.9,258.2,170 M276.6,166.1c1,0,2,0.4,2.6,1.3c0.8,0.8,1,1.6,1,2.6s-0.4,2-1,2.6c-0.8,0.8-1.8,1-2.6,1
				c-1,0-2-0.4-2.6-1c-0.8-0.8-1-1.6-1-2.6s0.4-2,1-2.6C274.6,166.5,275.4,166.1,276.6,166.1 M134.6,170c0.4,0,0.8,0.1,1,0.4
				c0.4,0.1,0.4,0.5,0.4,0.9v11.3c0,0.9-0.5,1.4-1.4,1.4h-11.3c-0.9,0-1.4-0.5-1.4-1.4v-11.3c0-0.9,0.5-1.4,1.4-1.4h11.3 M292.8,105
				c-1.3-1.3-2.9-2-4.7-2H112c-1.8,0-3.4,0.8-4.7,2s-2,2.9-2,4.7v32.1c0,1.8,0.8,3.4,2,4.7s2.9,1.8,4.7,1.8h176.1
				c1.8,0,3.4-0.5,4.7-1.8c1.3-1.3,1.8-2.9,1.8-4.7v-32.1C294.5,107.9,294,106.2,292.8,105 M272.7,118.5c0-1,0.4-2,1-2.6
				c0.8-0.8,1.6-1,2.6-1c1,0,2,0.4,2.6,1c0.8,0.8,1,1.6,1,2.6s-0.4,2-1,2.6c-0.8,0.8-1.8,1.3-2.6,1.3c-1,0-2-0.4-2.6-1.3
				C273,120.5,272.7,119.6,272.7,118.5 M262.1,114.6c1,0,2,0.4,2.6,1c0.8,0.8,1.3,1.6,1.3,2.6c0,1-0.4,2-1.3,2.6
				c-0.8,0.8-1.6,1.3-2.6,1.3s-2-0.4-2.6-1.3c-0.8-0.8-1-1.6-1-2.6c0-1,0.4-2,1-2.6C260.2,115.2,261.1,114.6,262.1,114.6
				 M246.5,114.6c1,0,2,0.4,2.6,1c0.8,0.8,1.3,1.6,1.3,2.6c0,1-0.4,2-1.3,2.6c-0.8,0.8-1.6,1.3-2.6,1.3s-2-0.4-2.6-1.3
				c-0.8-0.8-1-1.6-1-2.6c0-1,0.4-2,1-2.6C244.6,115.2,245.5,114.6,246.5,114.6 M136,131.3c0,0.9-0.5,1.4-1.4,1.4h-11.3
				c-0.9,0-1.4-0.5-1.4-1.4V120c0-0.9,0.5-1.4,1.4-1.4h11.3c0.9,0,1.4,0.5,1.4,1.4V131.3 M112,51.7c-1.8,0-3.4,0.8-4.7,2
				s-2,2.6-2,4.3v32.5c0,1.8,0.8,3.2,2,4.4s2.6,1.8,4.3,2h176.2c1.8,0,3.4-0.8,4.7-2c1.3-1.3,1.8-2.9,1.8-4.7V58
				c0-1.8-0.8-3.2-1.8-4.4c-1.3-1.3-2.9-2-4.7-2H112 M134.6,67.2c0.9,0,1.4,0.5,1.4,1.4v11.3c0,0.4-0.1,0.8-0.4,1
				c-0.1,0.4-0.5,0.4-1,0.4h-11.3c-0.4,0-0.8-0.1-0.9-0.4c-0.4-0.4-0.4-0.5-0.4-1V68.6c0-0.9,0.5-1.4,1.4-1.4H134.6 M249.3,64.3
				c0.8,0.8,1.3,1.6,1.3,2.6c0,1-0.4,2-1.3,2.6c-0.8,0.8-1.6,1-2.6,1s-2-0.4-2.6-1c-0.8-0.8-1-1.6-1-2.6c0-1,0.4-2,1-2.6
				c0.8-0.8,1.6-1,2.6-1C247.6,63.3,248.5,63.6,249.3,64.3 M259.5,69.7c-0.8-0.8-1-1.6-1-2.6c0-1,0.4-2,1-2.6c0.8-0.8,1.6-1,2.6-1
				c1,0,2,0.4,2.6,1c0.8,0.8,1.3,1.6,1.3,2.6c0,1-0.4,2-1.3,2.6c-0.8,0.8-1.6,1-2.6,1C261.1,70.8,260.2,70.3,259.5,69.7 M273.9,64.3
				c0.8-0.8,1.6-1,2.6-1c1,0,2,0.4,2.6,1c0.8,0.8,1,1.6,1,2.6c0,1-0.4,2-1,2.6c-0.8,0.8-1.8,1-2.6,1c-1,0-2-0.4-2.6-1
				c-0.8-0.8-1-1.6-1-2.6C272.7,65.9,273,65,273.9,64.3 M112,0.1c-1.8,0-3.4,0.8-4.7,2c-1.1,1.3-1.9,2.6-1.9,4.4v32.5
				c0,1.8,0.8,3.2,2,4.4c1.3,1.3,2.9,2,4.7,2h176.1c1.8,0,3.4-0.5,4.7-2c1.3-1.3,1.8-2.9,1.8-4.7V6.6c0-1.8-0.8-3.4-1.8-4.7
				c-0.8-0.8-1.4-1-2.1-1.4S289.1,0,288.2,0H112 M136,17.3v11.3c0,0.9-0.5,1.4-1.4,1.4h-11.3c-0.9,0-1.4-0.4-1.4-1.4V17.3
				c0-0.9,0.5-1.4,1.4-1.4h11.3C135.5,15.8,136,16.1,136,17.3 M276.6,19.4c-1,0-2-0.4-2.6-1c-0.8-0.8-1-1.6-1-2.9c0-1,0.4-2,1-2.6
				c0.8-0.8,1.6-1,2.6-1c1,0,2,0.4,2.6,1c0.8,0.8,1,1.6,1,2.6s-0.4,2-1,2.9C278.5,19,277.5,19.4,276.6,19.4 M264.9,12.9
				c0.8,0.8,1.3,1.6,1.3,2.6s-0.4,2-1.3,2.9c-0.8,0.8-1.6,1-2.6,1s-2-0.4-2.6-1c-0.8-0.8-1-1.6-1-2.9c0-1,0.4-2,1-2.6
				c0.8-0.8,1.6-1,2.6-1C263.3,11.7,264.1,12.1,264.9,12.9 M246.5,11.7c1,0,2,0.4,2.6,1c0.8,0.8,1.3,1.6,1.3,2.6s-0.4,2-1.3,2.9
				c-0.8,0.8-1.6,1-2.6,1s-2-0.4-2.6-1c-0.8-0.8-1-1.6-1-2.9c0-1,0.4-2,1-2.6C244.6,12.1,245.5,11.7,246.5,11.7z"/>
		</g>
	</g>
</g>
</svg>
