<?xml version="1.0" encoding="utf-8"?>
<!-- Generator: Adobe Illustrator 18.1.0, SVG Export Plug-In . SVG Version: 6.00 Build 0)  -->
<svg version="1.1" id="Layer_1" xmlns="http://www.w3.org/2000/svg" xmlns:xlink="http://www.w3.org/1999/xlink" x="0px" y="0px"
	 viewBox="-202.5 54 805 92" enable-background="new -202.5 54 805 92" xml:space="preserve">
<g transform="matrix( 1, 0, 0, 1, -114.85,-581.95) ">
	<g>
		<g id="Layer0_0_FILL">
			<path d="M447.3,721.9c0-0.7-0.2-1.1-0.7-1.5c-0.4-0.4-1-0.7-1.5-0.7h-58.7c-0.6,0-1.1,0.2-1.5,0.7c-0.4,0.4-0.7,1-0.7,1.5v5.8
				h5.5v-2.3c0-0.3,0.1-0.6,0.4-0.6h3.9c0.3,0,0.6,0.2,0.6,0.6v2.3h52.8L447.3,721.9 M431.1,726.2c-0.3,0-0.7-0.1-0.9-0.4
				c-0.2-0.2-0.3-0.6-0.3-0.9c0-0.3,0.1-0.7,0.3-0.9c0.2-0.2,0.6-0.3,0.9-0.3s0.7,0.1,0.9,0.3c0.2,0.2,0.4,0.6,0.4,0.9
				s-0.1,0.7-0.4,0.9C431.8,726.1,431.5,726.2,431.1,726.2 M437.3,725.8c-0.2,0.2-0.6,0.4-0.9,0.4s-0.7-0.1-0.9-0.4
				c-0.2-0.2-0.4-0.6-0.4-0.9c0-0.3,0.1-0.7,0.4-0.9c0.2-0.2,0.6-0.3,0.9-0.3s0.7,0.1,0.9,0.3c0.2,0.2,0.4,0.6,0.4,0.9
				C437.7,725.3,437.5,725.5,437.3,725.8 M441.2,723.7c0.3,0,0.7,0.1,0.9,0.3c0.2,0.2,0.3,0.6,0.3,0.9s-0.1,0.7-0.3,0.9
				c-0.2,0.2-0.6,0.4-0.9,0.4s-0.7-0.1-1-0.4c-0.2-0.2-0.3-0.6-0.3-0.9c0-0.3,0.1-0.7,0.3-0.9C440.4,723.8,440.8,723.7,441.2,723.7
				 M446.6,703.3c-0.4-0.4-1-0.7-1.5-0.7h-58.7c-0.6,0-1.1,0.2-1.5,0.7c-0.4,0.4-0.7,1-0.7,1.5v10.7c0,0.6,0.2,1.1,0.7,1.5
				c0.4,0.4,0.9,0.6,1.5,0.6h58.7c0.7,0,1.1-0.2,1.5-0.6c0.4-0.4,0.7-0.9,0.7-1.5v-10.7C447.3,704.2,447.1,703.7,446.6,703.3
				 M440.2,706.9c0.2-0.2,0.6-0.3,1-0.3s0.7,0.1,0.9,0.3c0.2,0.2,0.3,0.6,0.3,0.9c0,0.3-0.1,0.7-0.3,0.9c-0.2,0.2-0.6,0.3-0.9,0.3
				s-0.7-0.1-1-0.3c-0.2-0.2-0.3-0.6-0.3-0.9C439.9,707.5,440,707.1,440.2,706.9 M431.1,708.9c-0.3,0-0.7-0.1-0.9-0.3
				c-0.2-0.2-0.3-0.6-0.3-0.9c0-0.3,0.1-0.7,0.3-0.9c0.2-0.2,0.6-0.3,0.9-0.3s0.7,0.1,0.9,0.3c0.2,0.2,0.4,0.6,0.4,0.9
				c0,0.3-0.1,0.7-0.4,0.9C431.8,708.8,431.5,708.9,431.1,708.9 M437.3,708.6c-0.2,0.2-0.6,0.3-0.9,0.3s-0.7-0.1-0.9-0.3
				c-0.2-0.2-0.4-0.6-0.4-0.9c0-0.3,0.1-0.7,0.4-0.9c0.2-0.2,0.6-0.3,0.9-0.3s0.7,0.1,0.9,0.3c0.2,0.2,0.4,0.6,0.4,0.9
				C437.7,708,437.5,708.4,437.3,708.6 M394.4,712c0,0.3-0.2,0.6-0.6,0.6h-3.7c-0.3,0-0.4-0.1-0.4-0.6v-3.9c0-0.3,0.1-0.4,0.4-0.4
				h3.9c0.3,0,0.6,0.1,0.6,0.4v3.9 M447.3,687.6c0-0.7-0.2-1.1-0.7-1.5c-0.4-0.4-1-0.7-1.5-0.7h-58.7c-0.6,0-1.1,0.2-1.5,0.7
				c-0.4,0.4-0.7,1-0.7,1.5v10.8c0,0.6,0.2,1.1,0.7,1.5c0.4,0.4,1,0.7,1.5,0.7h58.7c0.6,0,1.1-0.2,1.5-0.7c0.4-0.4,0.7-0.9,0.7-1.5
				V687.6 M432,689.6c0.2,0.2,0.4,0.6,0.4,0.9c0,0.3-0.1,0.7-0.4,0.9c-0.2,0.2-0.6,0.4-0.9,0.4s-0.7-0.1-0.9-0.4
				c-0.2-0.2-0.3-0.6-0.3-0.9s0.1-0.7,0.3-0.9c0.2-0.2,0.6-0.4,0.9-0.4C431.5,689.2,431.8,689.4,432,689.6 M437.3,691.4
				c-0.2,0.2-0.6,0.4-0.9,0.4s-0.7-0.1-0.9-0.4c-0.2-0.2-0.4-0.6-0.4-0.9s0.1-0.7,0.4-0.9c0.2-0.2,0.6-0.4,0.9-0.4s0.7,0.1,0.9,0.4
				c0.2,0.3,0.4,0.6,0.4,0.9C437.7,690.9,437.5,691.2,437.3,691.4 M442.1,689.6c0.2,0.2,0.3,0.6,0.3,0.9c0,0.3-0.1,0.7-0.3,0.9
				c-0.2,0.2-0.6,0.4-0.9,0.4s-0.7-0.1-1-0.4c-0.2-0.2-0.3-0.6-0.3-0.9s0.1-0.7,0.3-0.9c0.2-0.2,0.6-0.4,1-0.4
				S441.8,689.4,442.1,689.6 M390.1,695.4c-0.3,0-0.4-0.1-0.4-0.4v-3.9c0-0.3,0.1-0.4,0.4-0.4h3.9c0.3,0,0.6,0.1,0.6,0.4v3.9
				c0,0.3-0.2,0.4-0.6,0.4H390.1 M446.6,668.8c-0.4-0.4-0.9-0.6-1.5-0.6h-58.7c-0.7,0-1.1,0.2-1.5,0.6c-0.4,0.4-0.7,1-0.7,1.5V681
				c0,0.7,0.2,1.1,0.7,1.5c0.4,0.4,1,0.7,1.5,0.7h58.7c0.6,0,1.1-0.2,1.5-0.7c0.4-0.4,0.7-0.9,0.7-1.5v-10.7
				C447.3,669.8,447.1,669.4,446.6,668.8 M439.9,673.3c0-0.3,0.1-0.7,0.3-0.9c0.2-0.2,0.6-0.3,1-0.3s0.7,0.1,0.9,0.3
				c0.2,0.2,0.3,0.6,0.3,0.9c0,0.3-0.1,0.7-0.3,1c-0.2,0.2-0.6,0.3-0.9,0.3s-0.7-0.1-1-0.3C440,674.1,439.9,673.8,439.9,673.3
				 M432,672.5c0.2,0.2,0.4,0.6,0.4,0.9c0,0.3-0.1,0.7-0.4,1c-0.2,0.2-0.6,0.3-0.9,0.3s-0.7-0.1-0.9-0.3c-0.2-0.2-0.3-0.6-0.3-1
				c0-0.3,0.1-0.7,0.3-0.9c0.2-0.2,0.6-0.3,0.9-0.3C431.5,672.1,431.8,672.2,432,672.5 M437.3,674.3c-0.2,0.2-0.6,0.3-0.9,0.3
				s-0.7-0.1-0.9-0.3c-0.2-0.2-0.4-0.6-0.4-1c0-0.3,0.1-0.7,0.4-0.9c0.2-0.2,0.6-0.3,0.9-0.3s0.7,0.1,0.9,0.3
				c0.2,0.2,0.4,0.6,0.4,0.9C437.7,673.8,437.5,674.1,437.3,674.3 M394.4,673.9v3.9c0,0.3-0.2,0.4-0.6,0.4h-3.7
				c-0.3,0-0.4-0.1-0.4-0.4v-3.9c0-0.3,0.1-0.6,0.4-0.6h3.9C394.3,673.5,394.4,673.6,394.4,673.9 M245.5,721.9
				c0-0.6-0.2-1.1-0.7-1.5c-0.4-0.4-0.9-0.7-1.5-0.7h-58.7c-0.6,0-1.1,0.2-1.5,0.7s-0.6,0.9-0.6,1.5v5.8h5.5v-2.3
				c0-0.3,0.1-0.6,0.4-0.6h3.9c0.3,0,0.4,0.2,0.4,0.6v2.3h52.8V721.9 M230.9,724.9c0,0.3-0.1,0.7-0.3,0.9c-0.2,0.2-0.6,0.4-0.9,0.4
				c-0.3,0-0.7-0.1-0.9-0.4c-0.2-0.2-0.4-0.6-0.4-0.9c0-0.3,0.1-0.7,0.4-0.9c0.2-0.2,0.6-0.3,0.9-0.3c0.3,0,0.7,0.1,0.9,0.3
				C230.7,724.3,230.9,724.5,230.9,724.9 M236,724.9c0,0.3-0.1,0.7-0.3,0.9c-0.2,0.2-0.6,0.4-0.9,0.4c-0.3,0-0.7-0.1-0.9-0.4
				c-0.2-0.2-0.4-0.6-0.4-0.9c0-0.3,0.1-0.7,0.4-0.9c0.2-0.2,0.6-0.3,0.9-0.3c0.3,0,0.7,0.1,0.9,0.3
				C235.9,724.3,236,724.5,236,724.9 M240.4,724c0.2,0.2,0.4,0.6,0.4,0.9s-0.1,0.7-0.4,0.9c-0.2,0.2-0.6,0.4-0.9,0.4
				s-0.7-0.1-0.9-0.4c-0.2-0.2-0.4-0.6-0.4-0.9c0-0.3,0.1-0.7,0.4-0.9c0.2-0.2,0.6-0.3,0.9-0.3C239.9,723.7,240.2,723.8,240.4,724
				 M245.5,704.8c0-0.6-0.2-1.1-0.7-1.5c-0.4-0.4-0.9-0.7-1.5-0.7h-58.7c-0.6,0-1.1,0.2-1.5,0.7c-0.4,0.4-0.6,0.9-0.6,1.5v10.7
				c0,0.7,0.2,1.1,0.6,1.5c0.4,0.4,1,0.6,1.5,0.6h58.7c0.7,0,1.1-0.2,1.5-0.6c0.4-0.4,0.7-1,0.7-1.5V704.8 M238.7,706.9
				c0.2-0.2,0.6-0.3,0.9-0.3s0.7,0.1,0.9,0.3c0.2,0.2,0.4,0.6,0.4,0.9c0,0.3-0.1,0.7-0.4,0.9c-0.2,0.2-0.6,0.3-0.9,0.3
				s-0.7-0.1-0.9-0.3c-0.2-0.2-0.4-0.6-0.4-0.9C238.3,707.5,238.5,707.1,238.7,706.9 M230.9,707.7c0,0.3-0.1,0.7-0.3,0.9
				c-0.2,0.2-0.6,0.3-0.9,0.3c-0.3,0-0.7-0.1-0.9-0.3c-0.2-0.2-0.4-0.6-0.4-0.9c0-0.3,0.1-0.7,0.4-0.9c0.2-0.2,0.6-0.3,0.9-0.3
				c0.3,0,0.7,0.1,0.9,0.3C230.7,707.1,230.9,707.4,230.9,707.7 M236,707.7c0,0.3-0.1,0.7-0.3,0.9c-0.2,0.2-0.6,0.3-0.9,0.3
				c-0.3,0-0.7-0.1-0.9-0.3c-0.2-0.2-0.4-0.6-0.4-0.9c0-0.3,0.1-0.7,0.4-0.9c0.2-0.2,0.6-0.3,0.9-0.3c0.3,0,0.7,0.1,0.9,0.3
				C235.9,707.1,236,707.4,236,707.7 M188.1,712v-3.9c0-0.3,0.1-0.4,0.4-0.4h3.9c0.3,0,0.4,0.1,0.4,0.4v3.9c0,0.3-0.1,0.6-0.4,0.6
				h-3.8C188.2,712.4,188.1,712.3,188.1,712 M254.2,704.8c-0.9,0.9-1.2,1.9-1.2,3.1v19.9H377v-19.9c0-1.2-0.4-2.2-1.3-3.1
				c-0.9-0.9-1.9-1.3-3.1-1.3H257.2C256.1,703.6,255.1,704.1,254.2,704.8 M263.9,714.1c0.2-0.2,0.4-0.2,0.7-0.2h7.5
				c0.6,0,0.9,0.3,0.9,0.9v7.5c0,0.7-0.3,1-0.9,1h-7.5c-0.7,0-1-0.3-1-1v-7.6C263.6,714.4,263.7,714.2,263.9,714.1 M355.6,711.1
				c0.7,0,1.3,0.2,1.8,0.8c0.4,0.4,0.8,1.1,0.8,1.8c0,0.7-0.2,1.3-0.8,1.8c-0.4,0.6-1.1,0.8-1.8,0.8s-1.3-0.2-1.9-0.8
				c-0.4-0.4-0.7-1.1-0.7-1.8c0-0.7,0.2-1.3,0.7-1.8C354.3,711.4,355,711.1,355.6,711.1 M343.6,711.9c0.4-0.6,1.1-0.8,1.8-0.8
				s1.3,0.2,1.8,0.8c0.4,0.4,0.8,1.1,0.8,1.8c0,0.7-0.2,1.3-0.8,1.8c-0.6,0.6-1.1,0.8-1.8,0.8s-1.3-0.2-1.8-0.8
				c-0.4-0.4-0.7-1.1-0.7-1.8C343,713,343.2,712.4,343.6,711.9 M363.3,711.9c0.4-0.6,1.1-0.8,1.8-0.8s1.3,0.2,1.8,0.8
				c0.6,0.4,0.8,1.1,0.8,1.8c0,0.7-0.2,1.3-0.8,1.8c-0.4,0.6-1.1,0.8-1.8,0.8s-1.3-0.2-1.8-0.8c-0.6-0.4-0.8-1.1-0.8-1.8
				C362.6,713,362.8,712.4,363.3,711.9 M245.5,687.6c0-0.6-0.2-1.1-0.7-1.5c-0.4-0.4-0.9-0.7-1.5-0.7h-58.7c-0.6,0-1.1,0.2-1.5,0.7
				c-0.4,0.4-0.6,0.9-0.6,1.5v10.8c0,0.6,0.2,1.1,0.6,1.5s1,0.7,1.5,0.7h58.7c0.6,0,1.1-0.2,1.5-0.7c0.4-0.4,0.7-0.9,0.7-1.5V687.6
				 M236,690.5c0,0.3-0.1,0.7-0.3,0.9c-0.2,0.2-0.6,0.4-0.9,0.4c-0.3,0-0.7-0.1-0.9-0.4c-0.2-0.2-0.4-0.6-0.4-0.9s0.1-0.7,0.4-0.9
				c0.2-0.2,0.6-0.4,0.9-0.4c0.3,0,0.7,0.1,0.9,0.4C235.9,689.9,236,690.2,236,690.5 M230.9,690.5c0,0.3-0.1,0.7-0.3,0.9
				c-0.2,0.2-0.6,0.4-0.9,0.4c-0.3,0-0.7-0.1-0.9-0.4c-0.2-0.2-0.4-0.6-0.4-0.9s0.1-0.7,0.4-0.9c0.2-0.2,0.6-0.4,0.9-0.4
				c0.3,0,0.7,0.1,0.9,0.4C230.7,689.9,230.9,690.2,230.9,690.5 M240.4,689.6c0.2,0.2,0.4,0.6,0.4,0.9c0,0.3-0.1,0.7-0.4,0.9
				c-0.2,0.2-0.6,0.4-0.9,0.4s-0.7-0.1-0.9-0.4c-0.2-0.2-0.4-0.6-0.4-0.9s0.1-0.7,0.4-0.9c0.2-0.2,0.6-0.4,0.9-0.4
				C239.9,689.2,240.2,689.4,240.4,689.6 M188.6,690.6h3.9c0.3,0,0.4,0.1,0.4,0.4v3.9c0,0.3-0.1,0.4-0.4,0.4h-3.9
				c-0.3,0-0.4-0.1-0.4-0.4V691C188.1,690.7,188.2,690.6,188.6,690.6 M245.5,670.4c0-0.6-0.2-1.1-0.7-1.5c-0.4-0.4-0.9-0.6-1.5-0.6
				h-58.7c-0.6,0-1.1,0.2-1.5,0.6s-0.6,1-0.6,1.5v10.7c0,0.7,0.2,1.1,0.6,1.5c0.4,0.4,1,0.7,1.5,0.7h58.7c0.7,0,1.1-0.2,1.5-0.7
				c0.4-0.4,0.7-0.9,0.7-1.5V670.4 M240.8,673.3c0,0.3-0.1,0.7-0.4,1c-0.2,0.2-0.6,0.3-0.9,0.3s-0.7-0.1-0.9-0.3
				c-0.2-0.2-0.4-0.6-0.4-1c0-0.3,0.1-0.7,0.4-0.9c0.2-0.2,0.6-0.3,0.9-0.3s0.7,0.1,0.9,0.3C240.7,672.8,240.8,673,240.8,673.3
				 M236,673.3c0,0.3-0.1,0.7-0.3,1c-0.2,0.2-0.6,0.3-0.9,0.3c-0.3,0-0.7-0.1-0.9-0.3c-0.2-0.2-0.4-0.6-0.4-1c0-0.3,0.1-0.7,0.4-0.9
				c0.2-0.2,0.6-0.3,0.9-0.3c0.3,0,0.7,0.1,0.9,0.3C235.9,672.8,236,673,236,673.3 M229.6,674.7c-0.3,0-0.7-0.1-0.9-0.3
				c-0.2-0.2-0.4-0.6-0.4-1c0-0.3,0.1-0.7,0.4-0.9c0.2-0.2,0.6-0.3,0.9-0.3s0.7,0.1,0.9,0.3c0.2,0.2,0.3,0.6,0.3,0.9
				c0,0.3-0.1,0.7-0.3,1C230.3,674.6,230,674.7,229.6,674.7 M192.9,673.9v3.9c0,0.3-0.1,0.4-0.4,0.4h-3.9c-0.3,0-0.4-0.1-0.4-0.4
				v-3.9c0-0.3,0.1-0.6,0.4-0.6h3.9C192.6,673.5,192.9,673.6,192.9,673.9 M257.2,669.8c-1.2,0-2.2,0.4-3.1,1.3
				c-0.9,0.9-1.2,1.9-1.2,3.1v21.1c0,1.2,0.4,2.2,1.2,3.1c0.8,0.9,1.9,1.3,3.1,1.3h115.3c1.2,0,2.2-0.4,3.1-1.3
				c0.9-0.9,1.3-1.9,1.3-3.1V674c0-1.2-0.4-2.2-1.3-3.1c-0.9-0.9-1.9-1.3-3.1-1.3H257.2 M272.9,688.3c0,0.7-0.3,0.9-0.9,0.9h-7.5
				c-0.7,0-1-0.3-1-0.9v-7.5c0-0.2,0.1-0.4,0.2-0.6c0.2-0.2,0.4-0.2,0.7-0.2h7.5c0.6,0,0.9,0.3,0.9,0.9L272.9,688.3 M366.8,678.2
				c0.6,0.6,0.8,1.1,0.8,1.8c0,0.7-0.2,1.3-0.8,1.8c-0.4,0.4-1.1,0.7-1.8,0.7s-1.3-0.2-1.8-0.7c-0.6-0.4-0.8-1.1-0.8-1.8
				c0-0.7,0.2-1.3,0.8-1.8c0.4-0.4,1.1-0.8,1.8-0.8S366.2,677.7,366.8,678.2 M358.2,679.9c0,0.7-0.2,1.3-0.8,1.8
				c-0.4,0.4-1.1,0.7-1.8,0.7c-0.7,0-1.3-0.2-1.9-0.7c-0.4-0.4-0.7-1.1-0.7-1.8c0-0.7,0.2-1.3,0.7-1.8c0.6-0.4,1.1-0.8,1.9-0.8
				s1.3,0.2,1.8,0.8C357.8,678.7,358.2,679.3,358.2,679.9 M347.9,679.9c0,0.7-0.2,1.3-0.8,1.8c-0.6,0.4-1.1,0.7-1.8,0.7
				s-1.3-0.2-1.8-0.7c-0.4-0.4-0.7-1.1-0.7-1.8c0-0.7,0.2-1.3,0.7-1.8c0.4-0.4,1.1-0.8,1.8-0.8c0.8,0,1.3,0.2,1.8,0.8
				C347.6,678.7,347.9,679.3,347.9,679.9 M376.9,640.4c0-1.2-0.4-2.2-1.3-3.1c-0.9-0.9-1.9-1.3-3.1-1.3H257.2
				c-1.2,0-2.2,0.4-3.1,1.3c-0.9,0.9-1.2,1.9-1.2,3.1v21.1c0,1.2,0.4,2.2,1.2,3.1c0.9,0.9,1.9,1.2,3.1,1.2h115.3
				c1.2,0,2.2-0.4,3.1-1.2c0.9-0.9,1.3-1.9,1.3-3.1L376.9,640.4 M353.8,644.5c0.6-0.4,1.1-0.7,1.9-0.7c0.8,0,1.3,0.2,1.8,0.7
				c0.4,0.6,0.8,1.1,0.8,1.9c0,0.8-0.2,1.3-0.8,1.8c-0.4,0.4-1.1,0.8-1.8,0.8c-0.7,0-1.3-0.2-1.9-0.8c-0.4-0.4-0.7-1.1-0.7-1.8
				C353.1,645.6,353.3,645,353.8,644.5 M343.6,644.5c0.4-0.4,1.1-0.7,1.8-0.7c0.8,0,1.3,0.2,1.8,0.7c0.4,0.6,0.8,1.1,0.8,1.9
				c0,0.8-0.2,1.3-0.8,1.8c-0.6,0.4-1.1,0.8-1.8,0.8s-1.3-0.2-1.8-0.8c-0.4-0.4-0.7-1.1-0.7-1.8C343,645.6,343.2,645,343.6,644.5
				 M363.3,644.5c0.4-0.4,1.1-0.7,1.8-0.7s1.3,0.2,1.8,0.7c0.6,0.6,0.8,1.1,0.8,1.9c0,0.8-0.2,1.3-0.8,1.8c-0.4,0.4-1.1,0.8-1.8,0.8
				s-1.3-0.2-1.8-0.8c-0.6-0.4-0.8-1.1-0.8-1.8C362.6,645.6,362.8,645,363.3,644.5 M272.9,654.6c0,0.2-0.1,0.4-0.2,0.7
				c-0.1,0.2-0.3,0.2-0.7,0.2h-7.5c-0.2,0-0.4-0.1-0.7-0.2c-0.2-0.2-0.2-0.4-0.2-0.7v-7.5c0-0.2,0.1-0.4,0.2-0.7
				c0.2-0.2,0.4-0.2,0.7-0.2h7.5c0.2,0,0.4,0.1,0.7,0.2c0.2,0.2,0.3,0.4,0.2,0.7V654.6 M106.5,707.8c0-1.2-0.4-2.2-1.2-3.1
				c-0.8-0.9-1.9-1.3-3.1-1.3H-13c-1.2,0-2.2,0.4-3.1,1.3c-0.8,0.9-1.2,1.9-1.2,3.1v19.9h123.8V707.8 M85.3,711.1
				c0.7,0,1.3,0.2,1.8,0.8c0.4,0.4,0.7,1.1,0.7,1.8c0,0.7-0.2,1.3-0.7,1.8c-0.6,0.6-1.1,0.8-1.8,0.8c-0.7,0-1.3-0.2-1.8-0.8
				c-0.4-0.4-0.7-1.1-0.7-1.8c0-0.7,0.2-1.3,0.7-1.8C83.9,711.4,84.6,711.1,85.3,711.1 M73.4,711.9c0.4-0.6,1.1-0.8,1.8-0.8
				c0.7,0,1.3,0.2,1.8,0.8c0.6,0.4,0.8,1.1,0.8,1.8c0,0.7-0.2,1.3-0.8,1.8c-0.4,0.6-1.1,0.8-1.8,0.8c-0.7,0-1.3-0.2-1.8-0.8
				c-0.6-0.4-0.8-1.1-0.8-1.8C72.7,713,72.9,712.4,73.4,711.9 M93,715.5c-0.6-0.4-0.8-1.1-0.8-1.8c0-0.7,0.2-1.3,0.8-1.8
				c0.4-0.6,1.1-0.8,1.8-0.8c0.7,0,1.3,0.2,1.8,0.8c0.6,0.4,0.8,1.1,0.8,1.8c0,0.7-0.2,1.3-0.8,1.8c-0.4,0.6-1.1,0.8-1.8,0.8
				C94.1,716.3,93.4,716,93,715.5 M-6.6,722.1v-7.5c0-0.6,0.3-0.9,1-0.9h7.5c0.6,0,0.9,0.3,0.9,0.9v7.5c0,0.7-0.3,1-0.9,1h-7.5
				C-6.3,723.1-6.6,722.8-6.6,722.1 M114.7,703.3c-0.4,0.4-0.7,1-0.7,1.5v10.7c0,0.6,0.2,1.1,0.7,1.5c0.4,0.4,0.9,0.6,1.5,0.6h58.7
				c0.6,0,1.1-0.2,1.5-0.6s0.7-1,0.7-1.5v-10.7c0-0.6-0.2-1.1-0.7-1.5c-0.4-0.4-0.9-0.7-1.5-0.7h-58.7
				C115.5,702.6,115.1,702.9,114.7,703.3 M124,708.1v3.9c0,0.3-0.1,0.6-0.4,0.6h-3.9c-0.3,0-0.4-0.1-0.4-0.6v-3.9
				c0-0.3,0.1-0.4,0.4-0.4h3.9C123.9,707.8,124,707.9,124,708.1 M172.3,707.7c0,0.3-0.1,0.7-0.4,0.9c-0.2,0.2-0.6,0.3-0.9,0.3
				c-0.3,0-0.7-0.1-0.9-0.3c-0.2-0.2-0.4-0.6-0.4-0.9c0-0.3,0.1-0.7,0.4-0.9c0.2-0.2,0.6-0.3,0.9-0.3c0.3,0,0.7,0.1,0.9,0.3
				C172,707.1,172.3,707.4,172.3,707.7 M161.8,706.9c0.2,0.2,0.4,0.6,0.4,0.9c0,0.3-0.1,0.7-0.4,0.9c-0.2,0.2-0.6,0.3-0.9,0.3
				c-0.3,0-0.7-0.1-0.9-0.3c-0.2-0.2-0.4-0.6-0.4-0.9c0-0.3,0.1-0.7,0.4-0.9c0.2-0.2,0.6-0.3,0.9-0.3
				C161.3,706.5,161.6,706.7,161.8,706.9 M165.2,708.6c-0.2-0.2-0.4-0.6-0.4-0.9c0-0.3,0.1-0.7,0.4-0.9c0.2-0.2,0.6-0.3,0.9-0.3
				c0.3,0,0.7,0.1,1,0.3c0.2,0.2,0.4,0.6,0.4,0.9c0,0.3-0.1,0.7-0.4,0.9c-0.2,0.2-0.6,0.3-1,0.3
				C165.8,708.9,165.4,708.8,165.2,708.6 M119.4,725.4c0-0.3,0.1-0.6,0.4-0.6h3.9c0.3,0,0.4,0.2,0.4,0.6v2.3H177v-5.8
				c0-0.6-0.2-1.1-0.7-1.5c-0.4-0.4-0.9-0.7-1.5-0.7h-58.7c-0.6,0-1.1,0.2-1.5,0.7c-0.4,0.4-0.7,1-0.7,1.5v5.8h5.5V725.4
				 M162.2,724.9c0,0.3-0.1,0.7-0.4,0.9c-0.2,0.2-0.6,0.4-0.9,0.4c-0.3,0-0.7-0.1-0.9-0.4c-0.2-0.2-0.4-0.6-0.4-0.9
				c0-0.3,0.1-0.7,0.4-0.9c0.2-0.2,0.6-0.3,0.9-0.3c0.3,0,0.7,0.1,0.9,0.3C162,724.3,162.2,724.5,162.2,724.9 M165.2,725.8
				c-0.2-0.2-0.4-0.6-0.4-0.9c0-0.3,0.1-0.7,0.4-0.9c0.2-0.2,0.6-0.3,0.9-0.3c0.3,0,0.7,0.1,1,0.3c0.2,0.2,0.4,0.6,0.4,0.9
				s-0.1,0.7-0.4,0.9c-0.2,0.2-0.6,0.4-1,0.4C165.8,726.2,165.4,726.1,165.2,725.8 M170.9,726.2c-0.3,0-0.7-0.1-0.9-0.4
				c-0.2-0.2-0.4-0.6-0.4-0.9c0-0.3,0.1-0.7,0.4-0.9c0.2-0.2,0.6-0.3,0.9-0.3c0.3,0,0.7,0.1,0.9,0.3c0.2,0.2,0.4,0.6,0.4,0.9
				s-0.1,0.7-0.4,0.9C171.6,726.1,171.3,726.2,170.9,726.2 M114,687.6v10.8c0,0.6,0.2,1.1,0.7,1.5c0.4,0.4,1,0.7,1.5,0.7h58.7
				c0.6,0,1.1-0.2,1.5-0.7c0.4-0.4,0.7-0.9,0.7-1.5v-10.7c0-0.6-0.2-1.1-0.7-1.5c-0.4-0.4-0.9-0.7-1.5-0.7h-58.7
				c-0.6,0-1.1,0.2-1.5,0.7C114.1,686.5,114,687,114,687.6 M124,694.9c0,0.3-0.1,0.4-0.4,0.4h-3.9c-0.3,0-0.4-0.1-0.4-0.4V691
				c0-0.3,0.1-0.4,0.4-0.4h3.9c0.3,0,0.4,0.1,0.4,0.4V694.9 M159.6,690.5c0-0.3,0.1-0.7,0.4-0.9c0.2-0.2,0.6-0.4,0.9-0.4
				c0.3,0,0.7,0.1,0.9,0.4c0.2,0.2,0.4,0.6,0.4,0.9c0,0.3-0.1,0.7-0.4,0.9c-0.2,0.2-0.6,0.4-0.9,0.4c-0.3,0-0.7-0.1-0.9-0.4
				C159.8,691.2,159.6,690.9,159.6,690.5 M167,689.6c0.2,0.2,0.4,0.6,0.4,0.9c0,0.3-0.1,0.7-0.4,0.9c-0.2,0.2-0.6,0.4-1,0.4
				c-0.3,0-0.7-0.1-0.9-0.4c-0.2-0.2-0.4-0.6-0.4-0.9s0.1-0.7,0.4-0.9c0.3-0.2,0.6-0.4,0.9-0.4C166.4,689.2,166.8,689.4,167,689.6
				 M170.9,691.8c-0.3,0-0.7-0.1-0.9-0.4c-0.2-0.2-0.4-0.6-0.4-0.9s0.1-0.7,0.4-0.9c0.3-0.2,0.6-0.4,0.9-0.4c0.3,0,0.7,0.1,0.9,0.4
				c0.2,0.3,0.4,0.6,0.4,0.9c0,0.3-0.1,0.7-0.4,0.9C171.6,691.7,171.3,691.8,170.9,691.8 M105.3,671c-0.9-0.9-1.9-1.3-3.1-1.3H-13
				c-1.2,0-2.2,0.4-3.1,1.3c-0.8,0.9-1.2,1.9-1.2,3.1v21.1c0,1.2,0.4,2.2,1.2,3.1c0.9,0.9,1.9,1.3,3.1,1.3h115.3
				c1.2,0,2.2-0.4,3.1-1.3c0.9-0.9,1.2-1.9,1.2-3.1v-21.1C106.5,672.9,106.2,671.9,105.3,671 M96.5,681.8c-0.4,0.4-1.1,0.7-1.8,0.7
				s-1.3-0.2-1.8-0.7c-0.6-0.4-0.8-1.1-0.8-1.8c0-0.7,0.2-1.3,0.8-1.8c0.4-0.4,1.1-0.8,1.8-0.8c0.7,0,1.3,0.2,1.8,0.8
				c0.6,0.6,0.8,1.1,0.8,1.8S97,681.3,96.5,681.8 M87,678.2c0.4,0.6,0.7,1.1,0.7,1.8c0,0.7-0.2,1.3-0.7,1.8
				c-0.6,0.4-1.1,0.7-1.8,0.7s-1.3-0.2-1.8-0.7c-0.4-0.4-0.7-1.1-0.7-1.8c0-0.7,0.2-1.3,0.7-1.8c0.5-0.5,1.1-0.8,1.8-0.8
				C86,677.4,86.6,677.7,87,678.2 M77.6,679.9c0,0.7-0.2,1.3-0.8,1.8c-0.4,0.4-1.1,0.7-1.8,0.7c-0.7,0-1.3-0.2-1.8-0.7
				c-0.6-0.4-0.8-1.1-0.8-1.8c0-0.7,0.2-1.3,0.8-1.8c0.4-0.4,1.1-0.8,1.8-0.8c0.7,0,1.3,0.2,1.8,0.8
				C77.3,678.7,77.6,679.3,77.6,679.9 M-5.7,680.2h7.5c0.6,0,0.9,0.3,0.9,0.9v7.5c0,0.7-0.3,0.9-0.9,0.9h-7.5c-0.7,0-1-0.3-1-0.9
				v-7.5C-6.6,680.4-6.3,680.2-5.7,680.2 M114.7,668.8c-0.4,0.4-0.7,1-0.7,1.5V681c0,0.7,0.2,1.1,0.7,1.5c0.4,0.4,1,0.7,1.5,0.7
				h58.7c0.6,0,1.1-0.2,1.5-0.7c0.4-0.4,0.7-1,0.7-1.5v-10.7c0-0.6-0.2-1.1-0.7-1.5c-0.4-0.4-0.9-0.6-1.5-0.6h-58.7
				C115.5,668.3,115,668.5,114.7,668.8 M124,677.7c0,0.3-0.1,0.4-0.4,0.4h-3.9c-0.3,0-0.4-0.1-0.4-0.4v-3.9c0-0.3,0.1-0.6,0.4-0.6
				h3.9c0.3,0,0.4,0.2,0.4,0.6V677.7 M159.6,673.3c0-0.3,0.1-0.7,0.4-0.9c0.2-0.2,0.6-0.3,0.9-0.3c0.3,0,0.7,0.1,0.9,0.3
				c0.2,0.2,0.4,0.6,0.4,0.9c0,0.3-0.1,0.7-0.4,1c-0.2,0.2-0.6,0.3-0.9,0.3c-0.3,0-0.7-0.1-0.9-0.3
				C159.8,674.1,159.6,673.8,159.6,673.3 M172.3,673.3c0,0.3-0.1,0.7-0.4,1c-0.3,0.3-0.6,0.3-0.9,0.3c-0.3,0-0.7-0.1-0.9-0.3
				c-0.2-0.2-0.4-0.6-0.4-1c0-0.3,0.1-0.7,0.4-0.9c0.3-0.2,0.6-0.3,0.9-0.3c0.3,0,0.7,0.1,0.9,0.3C172,672.7,172.3,673,172.3,673.3
				 M167.4,673.3c0,0.3-0.1,0.7-0.4,1c-0.3,0.3-0.6,0.3-1,0.3c-0.3,0-0.7-0.1-0.9-0.3c-0.2-0.2-0.4-0.6-0.4-1c0-0.3,0.1-0.7,0.4-0.9
				c0.3-0.2,0.6-0.3,0.9-0.3c0.3,0,0.7,0.1,1,0.3C167.3,672.7,167.4,673,167.4,673.3 M-87.1,720.4c-0.4,0.4-0.6,0.9-0.6,1.5v5.8h5.4
				v-2.3c0-0.3,0.1-0.6,0.4-0.6h3.9c0.3,0,0.4,0.2,0.4,0.6v2.3h52.8v-5.8c0-0.7-0.2-1.1-0.6-1.5c-0.4-0.4-1-0.7-1.5-0.7h-58.7
				C-86.1,719.7-86.7,719.9-87.1,720.4 M-39.4,724.9c0,0.3-0.1,0.7-0.3,0.9c-0.2,0.2-0.6,0.4-0.9,0.4c-0.3,0-0.7-0.1-0.9-0.4
				c-0.2-0.2-0.4-0.6-0.4-0.9c0-0.3,0.1-0.7,0.4-0.9c0.2-0.2,0.6-0.3,0.9-0.3c0.3,0,0.7,0.1,0.9,0.3
				C-39.5,724.3-39.4,724.5-39.4,724.9 M-34.2,724.9c0,0.3-0.1,0.7-0.3,0.9c-0.2,0.2-0.6,0.4-0.9,0.4c-0.3,0-0.7-0.1-0.9-0.4
				c-0.2-0.2-0.4-0.6-0.4-0.9c0-0.3,0.1-0.7,0.4-0.9c0.2-0.2,0.6-0.3,0.9-0.3c0.3,0,0.7,0.1,0.9,0.3
				C-34.4,724.3-34.2,724.5-34.2,724.9 M-29.4,724.9c0,0.3-0.1,0.7-0.4,0.9c-0.2,0.2-0.6,0.4-0.9,0.4c-0.3,0-0.7-0.1-0.9-0.4
				c-0.2-0.2-0.4-0.6-0.4-0.9c0-0.3,0.1-0.7,0.4-0.9c0.2-0.2,0.6-0.3,0.9-0.3c0.3,0,0.7,0.1,0.9,0.3
				C-29.5,724.3-29.4,724.5-29.4,724.9 M-87.6,704.8v10.7c0,0.7,0.2,1.1,0.6,1.5c0.4,0.4,1,0.6,1.5,0.6h58.7c0.7,0,1.1-0.2,1.5-0.6
				s0.6-0.9,0.6-1.5v-10.7c0-0.7-0.2-1.1-0.6-1.5s-1-0.7-1.5-0.7h-58.7c-0.6,0-1.1,0.2-1.5,0.7C-87.5,703.7-87.6,704.2-87.6,704.8
				 M-39.7,706.9c0.2,0.2,0.3,0.6,0.3,0.9c0,0.3-0.1,0.7-0.3,0.9c-0.2,0.2-0.6,0.3-0.9,0.3c-0.3,0-0.7-0.1-0.9-0.3
				c-0.2-0.2-0.4-0.6-0.4-0.9c0-0.3,0.1-0.7,0.4-0.9c0.2-0.2,0.6-0.3,0.9-0.3C-40.3,706.5-40,706.7-39.7,706.9 M-77.5,708.1v3.9
				c0,0.3-0.1,0.6-0.4,0.6h-3.9c-0.3,0-0.4-0.1-0.4-0.6v-3.9c0-0.3,0.1-0.4,0.4-0.4h3.9C-77.6,707.8-77.5,707.9-77.5,708.1
				 M-36.3,706.9c0.2-0.2,0.6-0.3,0.9-0.3c0.3,0,0.7,0.1,0.9,0.3c0.2,0.2,0.3,0.6,0.3,0.9c0,0.3-0.1,0.7-0.3,0.9
				c-0.2,0.2-0.6,0.3-0.9,0.3c-0.3,0-0.7-0.1-0.9-0.3c-0.2-0.2-0.4-0.6-0.4-0.9C-36.7,707.5-36.6,707.1-36.3,706.9 M-29.4,707.7
				c0,0.3-0.1,0.7-0.4,0.9c-0.2,0.2-0.6,0.3-0.9,0.3c-0.3,0-0.7-0.1-0.9-0.3c-0.2-0.2-0.4-0.6-0.4-0.9c0-0.3,0.1-0.7,0.4-0.9
				c0.2-0.2,0.6-0.3,0.9-0.3c0.3,0,0.7,0.1,0.9,0.3C-29.5,707.1-29.4,707.4-29.4,707.7 M-85.6,685.5c-0.6,0-1.1,0.2-1.5,0.7
				c-0.4,0.4-0.6,0.9-0.6,1.5v10.7c0,0.6,0.2,1.1,0.6,1.5c0.4,0.4,1,0.7,1.5,0.7h58.7c0.6,0,1.1-0.2,1.5-0.7
				c0.4-0.4,0.6-0.9,0.6-1.5v-10.7c0-0.7-0.2-1.1-0.6-1.5c-0.4-0.4-1-0.7-1.5-0.7H-85.6 M-77.5,694.9c0,0.3-0.1,0.4-0.4,0.4h-3.9
				c-0.3,0-0.4-0.1-0.4-0.4V691c0-0.3,0.1-0.4,0.4-0.4h3.9c0.3,0,0.4,0.1,0.4,0.4V694.9 M-40.6,691.8c-0.3,0-0.7-0.1-0.9-0.4
				c-0.2-0.2-0.4-0.6-0.4-0.9s0.1-0.7,0.4-0.9c0.2-0.2,0.6-0.4,0.9-0.4s0.7,0.1,0.9,0.4c0.2,0.2,0.3,0.6,0.3,0.9
				c0,0.3-0.1,0.7-0.3,0.9C-40,691.7-40.3,691.8-40.6,691.8 M-29.4,690.5c0,0.3-0.1,0.7-0.4,0.9c-0.2,0.2-0.6,0.4-0.9,0.4
				c-0.3,0-0.7-0.1-0.9-0.4c-0.2-0.2-0.4-0.6-0.4-0.9s0.1-0.7,0.4-0.9c0.2-0.2,0.6-0.4,0.9-0.4c0.3,0,0.7,0.1,0.9,0.4
				C-29.5,689.9-29.4,690.2-29.4,690.5 M-34.2,690.5c0,0.3-0.1,0.7-0.3,0.9c-0.2,0.2-0.6,0.4-0.9,0.4c-0.3,0-0.7-0.1-0.9-0.4
				c-0.2-0.2-0.4-0.6-0.4-0.9s0.1-0.7,0.4-0.9c0.2-0.2,0.6-0.4,0.9-0.4c0.3,0,0.7,0.1,0.9,0.4C-34.4,689.9-34.2,690.2-34.2,690.5
				 M-87.6,670.4v10.7c0,0.7,0.2,1.1,0.6,1.5c0.4,0.4,1,0.7,1.5,0.7h58.7c0.6,0,1.1-0.2,1.5-0.7c0.4-0.4,0.6-0.9,0.6-1.5v-10.7
				c0-0.6-0.2-1.1-0.6-1.5c-0.4-0.4-0.9-0.6-1.5-0.6h-58.7c-0.6,0-1.1,0.2-1.5,0.6C-87.5,669.4-87.6,669.8-87.6,670.4 M-77.5,673.9
				v3.9c0,0.3-0.1,0.4-0.4,0.4h-3.9c-0.3,0-0.4-0.1-0.4-0.4v-3.9c0-0.3,0.1-0.6,0.4-0.6h3.9C-77.6,673.5-77.5,673.6-77.5,673.9
				 M-39.4,673.3c0,0.3-0.1,0.7-0.3,1c-0.2,0.2-0.6,0.3-0.9,0.3c-0.3,0-0.7-0.1-0.9-0.3c-0.2-0.2-0.4-0.6-0.4-1
				c0-0.3,0.1-0.7,0.4-0.9c0.2-0.2,0.6-0.3,0.9-0.3c0.3,0,0.7,0.1,0.9,0.3C-39.5,672.8-39.4,673-39.4,673.3 M-29.8,672.5
				c0.2,0.2,0.4,0.6,0.4,0.9c0,0.3-0.1,0.7-0.4,1c-0.2,0.2-0.6,0.3-0.9,0.3c-0.3,0-0.7-0.1-0.9-0.3c-0.2-0.2-0.4-0.6-0.4-1
				c0-0.3,0.1-0.7,0.4-0.9c0.2-0.2,0.6-0.3,0.9-0.3C-30.4,672.2-30.1,672.2-29.8,672.5 M-35.5,674.7c-0.3,0-0.7-0.1-0.9-0.3
				c-0.2-0.2-0.4-0.6-0.4-1c0-0.3,0.1-0.7,0.4-0.9c0.2-0.2,0.6-0.3,0.9-0.3c0.3,0,0.7,0.1,0.9,0.3c0.2,0.2,0.3,0.6,0.3,0.9
				c0,0.3-0.1,0.7-0.3,1C-34.8,674.6-35.1,674.7-35.5,674.7 M-16.1,637.4c-0.8,0.9-1.2,1.9-1.2,3.1v21.1c0,1.2,0.4,2.2,1.2,3.1
				c0.9,0.9,1.9,1.2,3.1,1.2h115.3c1.2,0,2.2-0.4,3.1-1.2c0.9-0.9,1.2-1.9,1.2-3.1v-21.1c0-1.2-0.4-2.2-1.2-3.1
				c-0.8-0.9-1.9-1.3-3.1-1.3H-13C-14.2,636.1-15.2,636.6-16.1,637.4 M83.5,644.5c0.4-0.4,1.1-0.7,1.8-0.7c0.8,0,1.3,0.2,1.8,0.7
				c0.4,0.6,0.7,1.1,0.7,1.9c0,0.8-0.2,1.3-0.7,1.8c-0.6,0.4-1.1,0.8-1.8,0.8c-0.7,0-1.3-0.2-1.8-0.8c-0.4-0.4-0.7-1.1-0.7-1.8
				C82.8,645.6,83.1,645,83.5,644.5 M73.4,644.5c0.4-0.4,1.1-0.7,1.8-0.7c0.7,0,1.3,0.2,1.8,0.7c0.6,0.6,0.8,1.1,0.8,1.9
				c0,0.8-0.2,1.3-0.8,1.8c-0.4,0.4-1.1,0.8-1.8,0.8c-0.7,0-1.3-0.2-1.8-0.8c-0.6-0.4-0.8-1.1-0.8-1.8
				C72.7,645.6,72.9,645,73.4,644.5 M94.7,643.7c0.7,0,1.3,0.2,1.8,0.7c0.6,0.6,0.8,1.1,0.8,1.9c0,0.8-0.2,1.3-0.8,1.8
				c-0.4,0.4-1.1,0.8-1.8,0.8s-1.3-0.2-1.8-0.8c-0.6-0.4-0.8-1.1-0.8-1.8c0-0.7,0.2-1.3,0.8-1.9C93.4,644,94.1,643.7,94.7,643.7
				 M1.8,655.6h-7.5c-0.7,0-1-0.3-1-0.9v-7.5c0-0.2,0.1-0.4,0.2-0.7c0.2-0.2,0.4-0.2,0.7-0.2h7.5c0.2,0,0.4,0.1,0.7,0.2
				c0.2,0.2,0.3,0.4,0.2,0.7v7.5c0,0.2-0.1,0.4-0.2,0.7C2.2,655.5,2,655.6,1.8,655.6 M515.9,721.9c0-0.6-0.2-1.1-0.7-1.5
				c-0.4-0.4-0.9-0.7-1.5-0.7H455c-0.6,0-1.1,0.2-1.4,0.7c-0.4,0.4-0.7,1-0.7,1.5v5.8h5.5v-2.3c0-0.3,0.2-0.6,0.6-0.6h3.9
				c0.3,0,0.4,0.2,0.4,0.6v2.3h52.9v-5.8 M501.2,724.9c0,0.3-0.1,0.7-0.4,0.9c-0.2,0.2-0.6,0.4-0.9,0.4s-0.7-0.1-0.9-0.4
				c-0.2-0.2-0.4-0.6-0.4-0.9c0-0.3,0.1-0.7,0.4-0.9c0.2-0.2,0.6-0.3,0.9-0.3s0.7,0.1,0.9,0.3C501,724.3,501.2,724.5,501.2,724.9
				 M506,724c0.2,0.2,0.4,0.6,0.4,0.9s-0.1,0.7-0.4,0.9c-0.2,0.2-0.6,0.4-0.9,0.4s-0.7-0.1-0.9-0.4c-0.2-0.2-0.4-0.6-0.4-0.9
				c0-0.3,0.1-0.7,0.4-0.9c0.2-0.2,0.6-0.3,0.9-0.3C505.4,723.7,505.8,723.8,506,724 M508.9,725.8c-0.2-0.2-0.3-0.6-0.3-0.9
				c0-0.3,0.1-0.7,0.3-0.9c0.2-0.2,0.6-0.3,0.9-0.3s0.7,0.1,0.9,0.3c0.2,0.2,0.3,0.6,0.3,0.9s-0.1,0.7-0.3,0.9
				c-0.2,0.2-0.6,0.4-0.9,0.4C509.5,726.2,509.3,726.1,508.9,725.8 M515.9,704.8c0-0.6-0.2-1.1-0.7-1.5c-0.4-0.4-0.9-0.7-1.5-0.7
				H455c-0.6,0-1.1,0.2-1.4,0.7c-0.4,0.4-0.7,1-0.7,1.5v10.7c0,0.6,0.2,1.1,0.7,1.5c0.4,0.4,0.9,0.6,1.4,0.6h58.7
				c0.7,0,1.1-0.2,1.5-0.6c0.4-0.4,0.7-1,0.7-1.5V704.8 M506.4,707.7c0,0.3-0.1,0.7-0.4,0.9c-0.2,0.2-0.6,0.3-0.9,0.3
				s-0.7-0.1-0.9-0.3c-0.2-0.2-0.4-0.6-0.4-0.9c0-0.3,0.1-0.7,0.4-0.9c0.2-0.2,0.6-0.3,0.9-0.3s0.7,0.1,0.9,0.3
				C506.2,707.1,506.4,707.4,506.4,707.7 M508.9,708.6c-0.2-0.2-0.3-0.6-0.3-0.9c0-0.3,0.1-0.7,0.3-0.9c0.2-0.2,0.6-0.3,0.9-0.3
				s0.7,0.1,0.9,0.3c0.2,0.2,0.3,0.6,0.3,0.9c0,0.3-0.1,0.7-0.3,0.9c-0.2,0.2-0.6,0.3-0.9,0.3C509.5,708.9,509.3,708.8,508.9,708.6
				 M501.2,707.7c0,0.3-0.1,0.7-0.4,0.9c-0.2,0.2-0.6,0.3-0.9,0.3s-0.7-0.1-0.9-0.3c-0.2-0.2-0.4-0.6-0.4-0.9c0-0.3,0.1-0.7,0.4-0.9
				c0.2-0.2,0.6-0.3,0.9-0.3s0.7,0.1,0.9,0.3C501,707.1,501.2,707.4,501.2,707.7 M463,712c0,0.3-0.1,0.6-0.4,0.6h-3.9
				c-0.3,0-0.6-0.1-0.6-0.6v-3.9c0-0.3,0.2-0.4,0.6-0.4h3.9c0.3,0,0.4,0.1,0.4,0.4V712 M515.9,687.6c0-0.6-0.2-1.1-0.7-1.5
				c-0.4-0.4-0.9-0.7-1.5-0.7H455c-0.6,0-1.1,0.2-1.4,0.7c-0.4,0.4-0.7,1-0.7,1.5v10.8c0,0.6,0.2,1.1,0.7,1.5
				c0.4,0.4,0.9,0.7,1.4,0.7h58.7c0.6,0,1.1-0.2,1.5-0.7c0.4-0.4,0.7-0.9,0.7-1.5V687.6 M501.2,690.5c0,0.3-0.1,0.7-0.4,0.9
				c-0.2,0.2-0.6,0.4-0.9,0.4s-0.7-0.1-0.9-0.4c-0.2-0.2-0.4-0.6-0.4-0.9s0.1-0.7,0.4-0.9c0.2-0.2,0.6-0.4,0.9-0.4s0.7,0.1,0.9,0.4
				C501,690,501.2,690.2,501.2,690.5 M511,690.5c0,0.3-0.1,0.7-0.3,0.9c-0.2,0.2-0.6,0.4-0.9,0.4s-0.7-0.1-0.9-0.4
				c-0.2-0.2-0.3-0.6-0.3-0.9s0.1-0.7,0.3-0.9c0.2-0.2,0.6-0.4,0.9-0.4s0.7,0.1,0.9,0.4C510.9,689.9,511,690.2,511,690.5
				 M506.4,690.5c0,0.3-0.1,0.7-0.4,0.9c-0.2,0.2-0.6,0.4-0.9,0.4s-0.7-0.1-0.9-0.4c-0.2-0.2-0.4-0.6-0.4-0.9s0.1-0.7,0.4-0.9
				c0.2-0.2,0.6-0.4,0.9-0.4s0.7,0.1,0.9,0.4C506.2,689.9,506.4,690.2,506.4,690.5 M458.8,695.4c-0.3,0-0.6-0.1-0.6-0.4v-3.9
				c0-0.3,0.2-0.4,0.6-0.4h3.9c0.3,0,0.4,0.1,0.4,0.4v3.9c0,0.3-0.1,0.4-0.4,0.4H458.8 M515.9,670.4c0-0.6-0.2-1.1-0.7-1.5
				c-0.4-0.4-0.9-0.6-1.5-0.6H455c-0.6,0-1.1,0.2-1.4,0.6c-0.4,0.4-0.7,1-0.7,1.5v10.7c0,0.6,0.2,1.1,0.7,1.5
				c0.4,0.4,0.9,0.7,1.4,0.7h58.7c0.7,0,1.1-0.2,1.5-0.7c0.4-0.4,0.7-0.9,0.7-1.5V670.4 M511,673.3c0,0.3-0.1,0.7-0.3,1
				c-0.2,0.2-0.6,0.3-0.9,0.3s-0.7-0.1-0.9-0.3c-0.2-0.2-0.3-0.6-0.3-1c0-0.3,0.1-0.7,0.3-0.9c0.2-0.2,0.6-0.3,0.9-0.3
				s0.7,0.1,0.9,0.3C510.9,672.8,511,673,511,673.3 M506.4,673.3c0,0.3-0.1,0.7-0.4,1c-0.2,0.2-0.6,0.3-0.9,0.3s-0.7-0.1-0.9-0.3
				c-0.2-0.2-0.4-0.6-0.4-1c0-0.3,0.1-0.7,0.4-0.9c0.2-0.2,0.6-0.3,0.9-0.3s0.7,0.1,0.9,0.3C506.2,672.8,506.4,673,506.4,673.3
				 M501.2,673.3c0,0.3-0.1,0.7-0.4,1c-0.3,0.3-0.6,0.3-0.9,0.3s-0.7-0.1-0.9-0.3c-0.2-0.2-0.4-0.6-0.4-1c0-0.3,0.1-0.7,0.4-0.9
				c0.2-0.2,0.6-0.3,0.9-0.3s0.7,0.1,0.9,0.3C501,672.7,501.2,673,501.2,673.3 M463,677.7c0,0.3-0.1,0.4-0.4,0.4h-3.9
				c-0.3,0-0.6-0.1-0.6-0.4v-3.9c0-0.3,0.2-0.6,0.6-0.6h3.9c0.3,0,0.4,0.2,0.4,0.6V677.7 M647.2,707.8c0-1.2-0.4-2.2-1.2-3.1
				c-0.9-0.9-1.9-1.3-3.1-1.3H527.6c-1.2,0-2.2,0.4-3.1,1.3c-0.9,0.9-1.3,1.9-1.3,3.1v19.9h123.9L647.2,707.8 M624,711.9
				c0.6-0.6,1.1-0.8,1.8-0.8c0.7,0,1.3,0.2,1.8,0.8c0.4,0.4,0.7,1.1,0.7,1.8c0,0.7-0.2,1.3-0.7,1.8c-0.4,0.6-1.1,0.8-1.8,0.8
				s-1.3-0.2-1.8-0.8c-0.4-0.4-0.8-1.1-0.8-1.8C623.3,713,623.6,712.4,624,711.9 M615.6,711.1c0.7,0,1.3,0.2,1.9,0.8
				c0.4,0.4,0.7,1.1,0.7,1.8c0,0.7-0.2,1.3-0.7,1.8c-0.6,0.6-1.1,0.8-1.9,0.8c-0.8,0-1.3-0.2-1.8-0.8c-0.4-0.4-0.8-1.1-0.8-1.8
				c0-0.7,0.2-1.3,0.8-1.8C614.3,711.4,614.9,711.1,615.6,711.1 M635.2,711.1c0.7,0,1.3,0.2,1.8,0.8c0.6,0.4,0.8,1.1,0.8,1.8
				c0,0.7-0.2,1.3-0.8,1.8c-0.4,0.6-1.1,0.8-1.8,0.8c-0.7,0-1.3-0.2-1.8-0.8c-0.6-0.4-0.8-1.1-0.8-1.8c0-0.7,0.2-1.3,0.8-1.8
				C634,711.4,634.6,711.1,635.2,711.1 M533.8,714.6c0-0.2,0.1-0.4,0.2-0.6c0.2-0.2,0.4-0.2,0.7-0.2h7.5c0.2,0,0.4,0.1,0.7,0.2
				c0.2,0.1,0.2,0.3,0.2,0.6v7.5c0,0.7-0.3,1-0.9,1h-7.5c-0.7,0-1-0.3-1-1L533.8,714.6 M656.6,719.7c-0.6,0-1.1,0.2-1.5,0.7
				c-0.4,0.4-0.6,0.9-0.6,1.5v5.8h5.5v-2.3c0-0.3,0.1-0.6,0.4-0.6h3.9c0.3,0,0.4,0.2,0.4,0.6v2.3h52.6v-5.8c0-0.7-0.2-1.1-0.6-1.5
				c-0.4-0.4-1-0.7-1.5-0.7H656.6 M702.7,724.9c0,0.3-0.1,0.7-0.3,0.9c-0.2,0.2-0.6,0.4-0.9,0.4c-0.3,0-0.7-0.1-0.9-0.4
				c-0.2-0.2-0.3-0.6-0.3-0.9c0-0.3,0.1-0.7,0.3-0.9c0.2-0.2,0.6-0.3,0.9-0.3c0.3,0,0.7,0.1,0.9,0.3
				C702.6,724.3,702.7,724.5,702.7,724.9 M708,724.9c0,0.3-0.1,0.7-0.3,0.9c-0.2,0.2-0.6,0.4-0.9,0.4s-0.7-0.1-1-0.4
				c-0.2-0.2-0.3-0.6-0.3-0.9c0-0.3,0.1-0.7,0.3-0.9c0.2-0.2,0.6-0.3,1-0.3c0.3,0,0.7,0.1,0.9,0.3C707.9,724.3,708,724.5,708,724.9
				 M712.8,724.9c0,0.3-0.1,0.7-0.4,0.9c-0.2,0.2-0.6,0.4-0.9,0.4c-0.3,0-0.7-0.1-0.9-0.4c-0.2-0.2-0.4-0.6-0.4-0.9
				c0-0.3,0.1-0.7,0.4-0.9c0.2-0.2,0.6-0.3,0.9-0.3c0.3,0,0.7,0.1,0.9,0.3C712.6,724.3,712.8,724.5,712.8,724.9 M656.6,702.6
				c-0.6,0-1.1,0.2-1.5,0.7c-0.4,0.4-0.6,0.9-0.6,1.5v10.7c0,0.7,0.2,1.1,0.6,1.5c0.4,0.4,1,0.6,1.5,0.6h58.6c0.7,0,1.1-0.2,1.5-0.6
				s0.6-0.9,0.6-1.5v-10.7c0-0.7-0.2-1.1-0.6-1.5c-0.4-0.4-1-0.7-1.5-0.7H656.6 M664.7,708.1v3.9c0,0.3-0.1,0.6-0.4,0.6h-3.9
				c-0.3,0-0.4-0.1-0.4-0.6v-3.9c0-0.3,0.1-0.4,0.4-0.4h3.9C664.5,707.8,664.7,707.9,664.7,708.1 M707.6,706.9
				c0.2,0.2,0.3,0.6,0.3,0.9c0,0.3-0.1,0.7-0.3,0.9c-0.2,0.2-0.6,0.3-0.9,0.3s-0.7-0.1-1-0.3c-0.2-0.2-0.3-0.6-0.3-0.9
				c0-0.3,0.1-0.7,0.3-0.9c0.2-0.2,0.6-0.3,1-0.3C707.1,706.5,707.4,706.7,707.6,706.9 M712.8,707.7c0,0.3-0.1,0.7-0.4,0.9
				c-0.2,0.2-0.6,0.3-0.9,0.3c-0.3,0-0.7-0.1-0.9-0.3c-0.2-0.2-0.4-0.6-0.4-0.9c0-0.3,0.1-0.7,0.4-0.9c0.2-0.2,0.6-0.3,0.9-0.3
				c0.3,0,0.7,0.1,0.9,0.3C712.6,707.1,712.8,707.4,712.8,707.7 M702.7,707.7c0,0.3-0.1,0.7-0.3,0.9c-0.2,0.2-0.6,0.3-0.9,0.3
				c-0.3,0-0.7-0.1-0.9-0.3c-0.2-0.2-0.3-0.6-0.3-0.9c0-0.3,0.1-0.7,0.3-0.9c0.2-0.2,0.6-0.3,0.9-0.3c0.3,0,0.7,0.1,0.9,0.3
				C702.6,707.1,702.7,707.4,702.7,707.7 M655.1,686.2c-0.4,0.4-0.6,0.9-0.6,1.5v10.7c0,0.6,0.2,1.1,0.6,1.5c0.4,0.4,1,0.7,1.5,0.7
				h58.7c0.6,0,1.1-0.2,1.5-0.7c0.4-0.4,0.6-0.9,0.6-1.5v-10.7c0-0.7-0.2-1.1-0.6-1.5c-0.4-0.4-1-0.7-1.5-0.7h-58.7
				C656,685.5,655.5,685.7,655.1,686.2 M664.7,694.9c0,0.3-0.1,0.4-0.4,0.4h-3.9c-0.3,0-0.4-0.1-0.4-0.4V691c0-0.3,0.1-0.4,0.4-0.4
				h3.9c0.3,0,0.4,0.1,0.4,0.4V694.9 M702.7,690.5c0,0.3-0.1,0.7-0.3,0.9c-0.2,0.2-0.6,0.4-0.9,0.4c-0.3,0-0.7-0.1-0.9-0.4
				c-0.2-0.2-0.3-0.6-0.3-0.9s0.1-0.7,0.3-0.9c0.2-0.2,0.6-0.4,0.9-0.4c0.3,0,0.7,0.1,0.9,0.4C702.6,689.9,702.7,690.2,702.7,690.5
				 M712.8,690.5c0,0.3-0.1,0.7-0.4,0.9c-0.2,0.2-0.6,0.4-0.9,0.4c-0.3,0-0.7-0.1-0.9-0.4c-0.2-0.2-0.4-0.6-0.4-0.9s0.1-0.7,0.4-0.9
				c0.2-0.2,0.6-0.4,0.9-0.4c0.3,0,0.7,0.1,0.9,0.4C712.6,689.9,712.8,690.2,712.8,690.5 M708,690.5c0,0.3-0.1,0.7-0.3,0.9
				c-0.2,0.2-0.6,0.4-0.9,0.4s-0.7-0.1-1-0.4c-0.2-0.2-0.3-0.6-0.3-0.9s0.1-0.7,0.3-0.9c0.2-0.2,0.6-0.4,1-0.4
				c0.3,0,0.7,0.1,0.9,0.4C707.9,689.9,708,690.2,708,690.5 M646,671c-0.9-0.9-1.9-1.3-3.1-1.3H527.6c-1.2,0-2.2,0.4-3.1,1.3
				c-0.9,0.9-1.3,1.9-1.3,3.1v21.1c0,1.2,0.4,2.2,1.3,3.1c0.9,0.9,1.9,1.3,3.1,1.3h115.3c1.2,0,2.2-0.4,3.1-1.3
				c0.8-0.9,1.2-1.9,1.2-3.1v-21.1C647.2,672.9,646.7,671.9,646,671 M635.2,677.4c0.7,0,1.3,0.2,1.8,0.8c0.6,0.6,0.8,1.1,0.8,1.8
				c0,0.7-0.2,1.3-0.8,1.8c-0.4,0.4-1.1,0.7-1.8,0.7c-0.7,0-1.3-0.2-1.8-0.7c-0.6-0.4-0.8-1.1-0.8-1.8c0-0.7,0.2-1.3,0.8-1.8
				S634.6,677.4,635.2,677.4 M628.3,679.9c0,0.7-0.2,1.3-0.7,1.8c-0.4,0.4-1.1,0.7-1.8,0.7c-0.7,0-1.3-0.2-1.8-0.7
				c-0.4-0.4-0.8-1.1-0.8-1.8c0-0.7,0.2-1.3,0.8-1.8s1.1-0.8,1.8-0.8s1.3,0.2,1.8,0.8C628.1,678.7,628.3,679.3,628.3,679.9
				 M615.6,677.4c0.8,0,1.3,0.2,1.9,0.8c0.4,0.6,0.7,1.1,0.7,1.8c0,0.7-0.2,1.3-0.7,1.8c-0.6,0.4-1.1,0.7-1.9,0.7
				c-0.8,0-1.3-0.2-1.8-0.7c-0.4-0.4-0.8-1.1-0.8-1.8c0-0.7,0.2-1.3,0.8-1.8C614.3,677.7,614.9,677.4,615.6,677.4 M543.2,680.9v7.5
				c0,0.7-0.3,0.9-0.9,0.9h-7.5c-0.7,0-1-0.3-1-0.9v-7.5c0-0.2,0.1-0.4,0.2-0.6c0.2-0.2,0.4-0.2,0.7-0.2h7.5c0.2,0,0.4,0.1,0.7,0.2
				C543.2,680.5,543.2,680.7,543.2,680.9 M655.1,668.8c-0.4,0.4-0.6,1-0.6,1.5V681c0,0.7,0.2,1.1,0.6,1.5c0.4,0.4,1,0.7,1.5,0.7
				h58.7c0.6,0,1.1-0.2,1.5-0.7c0.4-0.4,0.6-0.9,0.6-1.5v-10.7c0-0.6-0.2-1.1-0.6-1.5c-0.4-0.4-0.9-0.6-1.5-0.6h-58.7
				C656,668.3,655.5,668.5,655.1,668.8 M664.7,673.9v3.9c0,0.3-0.1,0.4-0.4,0.4h-3.9c-0.3,0-0.4-0.1-0.4-0.4v-3.9
				c0-0.3,0.1-0.6,0.4-0.6h3.9C664.5,673.5,664.7,673.6,664.7,673.9 M712.4,672.5c0.2,0.2,0.4,0.6,0.4,0.9c0,0.3-0.1,0.7-0.4,1
				c-0.2,0.2-0.6,0.3-0.9,0.3c-0.3,0-0.7-0.1-0.9-0.3c-0.2-0.2-0.4-0.6-0.4-1c0-0.3,0.1-0.7,0.4-0.9c0.2-0.2,0.6-0.3,0.9-0.3
				C711.8,672.1,712.1,672.2,712.4,672.5 M708,673.3c0,0.3-0.1,0.7-0.3,1c-0.2,0.2-0.6,0.3-0.9,0.3s-0.7-0.1-1-0.3
				c-0.2-0.2-0.3-0.6-0.3-1c0-0.3,0.1-0.7,0.3-0.9c0.2-0.2,0.6-0.3,1-0.3c0.3,0,0.7,0.1,0.9,0.3C707.9,672.8,708,673,708,673.3
				 M702.7,673.3c0,0.3-0.1,0.7-0.3,1c-0.2,0.2-0.6,0.3-0.9,0.3c-0.3,0-0.7-0.1-0.9-0.3c-0.2-0.2-0.3-0.6-0.3-1
				c0-0.3,0.1-0.7,0.3-0.9c0.2-0.2,0.6-0.3,0.9-0.3c0.3,0,0.7,0.1,0.9,0.3C702.6,672.8,702.7,673,702.7,673.3 M527.6,636.1
				c-1.2,0-2.2,0.4-3.1,1.3c-0.9,0.9-1.3,1.9-1.3,3.1v21.1c0,1.2,0.4,2.2,1.3,3.1c0.9,0.9,1.9,1.2,3.1,1.2h115.3
				c1.2,0,2.2-0.4,3.1-1.2c0.8-0.9,1.2-1.9,1.2-3.1v-21.1c0-1.2-0.4-2.2-1.2-3.1c-0.9-0.9-1.9-1.3-3.1-1.3H527.6 M624,644.5
				c0.6-0.4,1.1-0.7,1.8-0.7c0.7,0,1.3,0.2,1.8,0.7c0.4,0.6,0.7,1.1,0.7,1.9c0,0.7-0.2,1.3-0.7,1.8c-0.4,0.4-1.1,0.8-1.8,0.8
				s-1.3-0.2-1.8-0.8c-0.4-0.4-0.8-1.1-0.8-1.8C623.3,645.6,623.6,645,624,644.5 M613.9,644.5c0.4-0.4,1.1-0.7,1.8-0.7
				c0.8,0,1.3,0.2,1.9,0.7c0.4,0.6,0.7,1.1,0.7,1.9c0,0.8-0.2,1.3-0.7,1.8c-0.6,0.4-1.1,0.8-1.9,0.8c-0.8,0-1.3-0.2-1.8-0.8
				c-0.4-0.4-0.8-1.1-0.8-1.8C613.1,645.6,613.5,645,613.9,644.5 M633.5,644.5c0.4-0.4,1.1-0.7,1.8-0.7s1.3,0.2,1.8,0.7
				c0.6,0.6,0.8,1.1,0.8,1.9c0,0.8-0.2,1.3-0.8,1.8c-0.4,0.4-1.1,0.8-1.8,0.8c-0.7,0-1.3-0.2-1.8-0.8c-0.6-0.4-0.8-1.1-0.8-1.8
				C632.7,645.5,633,645,633.5,644.5 M543.2,647.2v7.5c0,0.2-0.1,0.4-0.2,0.7c-0.2,0.2-0.4,0.2-0.7,0.2h-7.5c-0.2,0-0.4-0.1-0.7-0.2
				c-0.2-0.2-0.3-0.4-0.2-0.7v-7.5c0-0.2,0.1-0.4,0.2-0.7c0.2-0.2,0.4-0.2,0.7-0.2h7.5c0.2,0,0.4,0.1,0.7,0.2
				C543.2,646.7,543.2,646.9,543.2,647.2z"/>
		</g>
	</g>
</g>
<g transform="matrix( 1, 0, 0, 1, 0,-7) ">
	<g>
		<g id="Layer0_1_FILL">
			<path fill="#666666" d="M-197.1,150.5v2.3h4.7v-2.3c0-0.3-0.1-0.4-0.4-0.4h-4C-196.9,150-197.1,150.2-197.1,150.5 M-192.9,120.4
				c0.3,0,0.4-0.2,0.4-0.6v-3.7c0-0.3-0.1-0.4-0.4-0.4h-3.9c-0.3,0-0.4,0.1-0.4,0.4v3.9c0,0.3,0.1,0.6,0.4,0.6h3.9 M-113.1,148.1
				c0.6,0,0.9-0.3,0.9-0.9v-7.5c0-0.6-0.3-0.9-0.9-0.9h-7.5c-0.7,0-0.9,0.3-0.9,0.9v7.5c0,0.7,0.3,0.9,0.9,0.9H-113.1 M-112.5,80.4
				c0.2-0.2,0.2-0.4,0.2-0.7v-7.5c0-0.2-0.1-0.4-0.2-0.7c-0.1-0.3-0.3-0.2-0.7-0.2h-7.5c-0.2,0-0.4,0.1-0.7,0.2
				c-0.2,0.2-0.2,0.4-0.2,0.7v7.5c0,0.7,0.3,1,0.9,1h7.5C-112.8,80.6-112.6,80.6-112.5,80.4 M8.8,137.5c0.3,0,0.4-0.2,0.4-0.6v-3.7
				c0-0.3-0.1-0.4-0.4-0.4H5.1c-0.3,0-0.4,0.1-0.4,0.4v3.7c0,0.3,0.1,0.6,0.4,0.6H8.8 M8.8,103.2c0.3,0,0.4-0.1,0.4-0.4v-3.9
				c0-0.3-0.1-0.4-0.4-0.4H5.1c-0.3,0-0.4,0.1-0.4,0.4v3.9c0,0.3,0.1,0.4,0.4,0.4H8.8 M73.2,150.5v2.3h4.7v-2.3
				c0-0.3-0.1-0.4-0.4-0.4h-3.7C73.4,150,73.2,150.2,73.2,150.5 M77.5,120.4c0.3,0,0.4-0.2,0.4-0.6v-3.7c0-0.3-0.1-0.4-0.4-0.4h-3.7
				c-0.3,0-0.4,0.1-0.4,0.4v3.9c0,0.3,0.1,0.6,0.4,0.6h3.7 M157.1,148.1c0.6,0,0.9-0.3,0.9-0.9v-7.5c0-0.6-0.3-0.9-0.9-0.9h-7.5
				c-0.2,0-0.4,0.1-0.7,0.2c-0.2,0.1-0.2,0.3-0.2,0.7v7.5c0,0.7,0.3,0.9,1,0.9L157.1,148.1 M157.8,80.4c0.2-0.2,0.2-0.4,0.2-0.7
				v-7.5c0-0.2-0.1-0.4-0.2-0.7c-0.1-0.3-0.3-0.1-0.7-0.1h-7.5c-0.2,0-0.4,0.1-0.7,0.2c-0.2,0.2-0.2,0.4-0.2,0.7v7.5
				c0,0.2,0.1,0.4,0.2,0.7c0.2,0.2,0.4,0.2,0.7,0.2h7.5C157.4,80.6,157.6,80.6,157.8,80.4 M279.1,137.5c0.3,0,0.4-0.2,0.4-0.6v-3.7
				c0-0.3-0.1-0.4-0.4-0.4h-3.9c-0.3,0-0.4,0.1-0.4,0.4v3.7c0,0.3,0.1,0.6,0.4,0.6H279.1 M279.1,103.2c0.3,0,0.4-0.1,0.4-0.4v-3.9
				c0-0.3-0.1-0.4-0.4-0.4h-3.9c-0.3,0-0.4,0.1-0.4,0.4v3.9c0,0.3,0.1,0.4,0.4,0.4H279.1 M343.5,150.5v2.3h4.7v-2.3
				c0-0.3-0.1-0.4-0.4-0.4h-3.9C343.6,150,343.5,150.2,343.5,150.5 M347.8,120.4c0.3,0,0.4-0.2,0.4-0.6v-3.7c0-0.3-0.1-0.4-0.4-0.4
				h-3.9c-0.3,0-0.4,0.1-0.4,0.4v3.9c0,0.3,0.1,0.6,0.4,0.6h3.9 M427.5,114.3c0.7,0,0.9-0.3,0.9-1v-7.5c0-0.2-0.1-0.4-0.2-0.6
				c-0.2-0.2-0.4-0.2-0.7-0.2H420c-0.2,0-0.4,0.1-0.7,0.2c-0.2,0.1-0.2,0.3-0.2,0.6v7.5c0,0.7,0.3,1,0.9,1H427.5 M545,137
				c0,0.3,0.1,0.6,0.4,0.6h3.9c0.3,0,0.4-0.2,0.4-0.6v-3.7c0-0.3-0.1-0.4-0.4-0.4h-3.9c-0.3,0-0.4,0.1-0.4,0.4V137 M549.3,103.2
				c0.3,0,0.4-0.1,0.4-0.4v-3.9c0-0.3-0.1-0.4-0.4-0.4h-3.9c-0.3,0-0.4,0.1-0.4,0.4v3.9c0,0.3,0.1,0.4,0.4,0.4H549.3z"/>
		</g>
	</g>
</g>
<g transform="matrix( 1, 0, 0, 1, -114.85,-581.95) ">
	<g>
		<g id="Layer0_2_FILL">
			<path fill="#999999" d="M347.2,681.8c0.4-0.4,0.8-1.1,0.8-1.8c0-0.7-0.2-1.3-0.8-1.8c-0.4-0.4-1.1-0.8-1.8-0.8
				c-0.7,0-1.3,0.2-1.8,0.8c-0.4,0.6-0.7,1.1-0.7,1.8c0,0.7,0.2,1.3,0.7,1.8c0.4,0.4,1.1,0.7,1.8,0.7
				C346.1,682.5,346.6,682.3,347.2,681.8 M357.4,681.8c0.4-0.4,0.8-1.1,0.8-1.8c0-0.7-0.2-1.3-0.8-1.8c-0.4-0.4-1.1-0.8-1.8-0.8
				s-1.3,0.2-1.9,0.8c-0.4,0.6-0.7,1.1-0.7,1.8c0,0.7,0.2,1.3,0.7,1.8c0.6,0.4,1.1,0.7,1.9,0.7C356.4,682.5,357,682.3,357.4,681.8
				 M366.8,681.8c0.6-0.4,0.8-1.1,0.8-1.8c0-0.7-0.2-1.3-0.8-1.8c-0.4-0.4-1.1-0.8-1.8-0.8s-1.3,0.2-1.8,0.8
				c-0.6,0.6-0.8,1.1-0.8,1.8c0,0.7,0.2,1.3,0.8,1.8c0.4,0.4,1.1,0.7,1.8,0.7S366.2,682.3,366.8,681.8 M436.4,708.9
				c0.3,0,0.7-0.1,0.9-0.3c0.2-0.2,0.4-0.6,0.4-0.9c0-0.3-0.1-0.7-0.4-0.9c-0.2-0.2-0.6-0.3-0.9-0.3s-0.7,0.1-0.9,0.3
				c-0.2,0.2-0.4,0.6-0.4,0.9c0,0.3,0.1,0.7,0.4,0.9C435.7,708.8,436,708.9,436.4,708.9 M430.3,708.6c0.2,0.2,0.6,0.3,0.9,0.3
				s0.7-0.1,0.9-0.3c0.2-0.2,0.4-0.6,0.4-0.9c0-0.3-0.1-0.7-0.4-0.9c-0.2-0.2-0.6-0.3-0.9-0.3s-0.7,0.1-0.9,0.3
				c-0.2,0.2-0.3,0.6-0.3,0.9C430,708,430,708.4,430.3,708.6 M442.1,708.6c0.2-0.2,0.3-0.6,0.3-0.9c0-0.3-0.1-0.7-0.3-0.9
				c-0.2-0.2-0.6-0.3-0.9-0.3s-0.7,0.1-1,0.3c-0.2,0.2-0.3,0.6-0.3,0.9c0,0.3,0.1,0.7,0.3,0.9c0.2,0.2,0.6,0.3,1,0.3
				S441.8,708.8,442.1,708.6 M435.5,674.3c0.2,0.2,0.6,0.3,0.9,0.3s0.7-0.1,0.9-0.3c0.2-0.2,0.4-0.6,0.4-1c0-0.3-0.1-0.7-0.4-0.9
				c-0.3-0.2-0.6-0.3-0.9-0.3s-0.7,0.1-0.9,0.3c-0.2,0.2-0.4,0.6-0.4,0.9C435.1,673.8,435.2,674.1,435.5,674.3 M432.4,673.3
				c0-0.3-0.1-0.7-0.4-0.9c-0.2-0.2-0.6-0.3-0.9-0.3s-0.7,0.1-0.9,0.3c-0.2,0.2-0.3,0.6-0.3,0.9c0,0.3,0.1,0.7,0.3,1
				c0.2,0.2,0.6,0.3,0.9,0.3s0.7-0.1,0.9-0.3C432.3,674.1,432.4,673.8,432.4,673.3 M442.1,674.3c0.2-0.2,0.3-0.6,0.3-1
				c0-0.3-0.1-0.7-0.3-0.9c-0.2-0.2-0.6-0.3-0.9-0.3s-0.7,0.1-1,0.3c-0.2,0.2-0.3,0.6-0.3,0.9c0,0.3,0.1,0.7,0.3,1
				c0.2,0.2,0.6,0.3,1,0.3S441.8,674.6,442.1,674.3 M164.8,707.7c0,0.3,0.1,0.7,0.4,0.9c0.2,0.2,0.6,0.3,0.9,0.3
				c0.3,0,0.7-0.1,1-0.3c0.2-0.2,0.4-0.6,0.4-0.9c0-0.3-0.1-0.7-0.4-0.9c-0.2-0.2-0.6-0.3-1-0.3c-0.3,0-0.7,0.1-0.9,0.3
				C165,707.1,164.8,707.4,164.8,707.7 M162.2,707.7c0-0.3-0.1-0.7-0.4-0.9c-0.2-0.2-0.6-0.3-0.9-0.3c-0.3,0-0.7,0.1-0.9,0.3
				c-0.2,0.2-0.4,0.6-0.4,0.9c0,0.3,0.1,0.7,0.4,0.9c0.2,0.2,0.6,0.3,0.9,0.3c0.3,0,0.7-0.1,0.9-0.3
				C162,708.4,162.2,708,162.2,707.7 M171.8,708.6c0.2-0.2,0.4-0.6,0.4-0.9c0-0.3-0.1-0.7-0.4-0.9c-0.2-0.2-0.6-0.3-0.9-0.3
				c-0.3,0-0.7,0.1-0.9,0.3c-0.2,0.2-0.4,0.6-0.4,0.9c0,0.3,0.1,0.7,0.4,0.9c0.2,0.2,0.6,0.3,0.9,0.3
				C171.2,708.9,171.6,708.8,171.8,708.6 M166.1,674.7c0.3,0,0.7-0.1,1-0.3c0.3-0.2,0.4-0.6,0.4-1c0-0.3-0.1-0.7-0.4-0.9
				c-0.3-0.2-0.6-0.3-1-0.3c-0.3,0-0.7,0.1-0.9,0.3c-0.2,0.2-0.4,0.6-0.4,0.9c0,0.3,0.1,0.7,0.4,1
				C165.5,674.7,165.8,674.7,166.1,674.7 M172.3,673.3c0-0.3-0.1-0.7-0.4-0.9c-0.3-0.2-0.6-0.3-0.9-0.3c-0.3,0-0.7,0.1-0.9,0.3
				c-0.2,0.2-0.4,0.6-0.4,0.9c0,0.3,0.1,0.7,0.4,1c0.3,0.3,0.6,0.3,0.9,0.3c0.3,0,0.7-0.1,0.9-0.3
				C172.1,674.1,172.3,673.8,172.3,673.3 M159.6,673.3c0,0.3,0.1,0.7,0.4,1c0.2,0.2,0.6,0.3,0.9,0.3c0.3,0,0.7-0.1,0.9-0.3
				c0.2-0.2,0.4-0.6,0.4-1c0-0.3-0.1-0.7-0.4-0.9c-0.2-0.2-0.6-0.3-0.9-0.3c-0.3,0-0.7,0.1-0.9,0.3
				C159.8,672.8,159.6,673,159.6,673.3 M240.4,725.8c0.2-0.2,0.4-0.6,0.4-0.9c0-0.3-0.1-0.7-0.4-0.9c-0.2-0.2-0.6-0.3-0.9-0.3
				s-0.7,0.1-0.9,0.3c-0.2,0.2-0.4,0.6-0.4,0.9s0.1,0.7,0.4,0.9c0.2,0.2,0.6,0.4,0.9,0.4C239.9,726.2,240.2,726.1,240.4,725.8
				 M235.7,725.8c0.2-0.2,0.3-0.6,0.3-0.9c0-0.3-0.1-0.7-0.3-0.9c-0.2-0.2-0.6-0.3-0.9-0.3c-0.3,0-0.7,0.1-0.9,0.3
				c-0.2,0.2-0.4,0.6-0.4,0.9s0.1,0.7,0.4,0.9c0.2,0.2,0.6,0.4,0.9,0.4C235.1,726.2,235.5,726.1,235.7,725.8 M230.5,725.8
				c0.2-0.2,0.3-0.6,0.3-0.9c0-0.3-0.1-0.7-0.3-0.9c-0.2-0.2-0.6-0.3-0.9-0.3s-0.7,0.1-0.9,0.3c-0.2,0.2-0.4,0.6-0.4,0.9
				s0.1,0.7,0.4,0.9c0.2,0.2,0.6,0.4,0.9,0.4C229.9,726.2,230.3,726.1,230.5,725.8 M240.4,691.4c0.2-0.2,0.4-0.6,0.4-0.9
				s-0.1-0.7-0.4-0.9c-0.2-0.2-0.6-0.4-0.9-0.4s-0.7,0.1-0.9,0.4c-0.2,0.2-0.4,0.6-0.4,0.9c0,0.3,0.1,0.7,0.4,0.9
				c0.2,0.2,0.6,0.4,0.9,0.4C239.9,691.8,240.2,691.7,240.4,691.4 M230.5,691.4c0.2-0.2,0.3-0.6,0.3-0.9s-0.1-0.7-0.3-0.9
				c-0.2-0.2-0.6-0.4-0.9-0.4s-0.7,0.1-0.9,0.4c-0.2,0.2-0.4,0.6-0.4,0.9c0,0.3,0.1,0.7,0.4,0.9c0.2,0.2,0.6,0.4,0.9,0.4
				S230.3,691.7,230.5,691.4 M235.7,691.4c0.2-0.2,0.3-0.6,0.3-0.9s-0.1-0.7-0.3-0.9c-0.2-0.2-0.6-0.4-0.9-0.4
				c-0.3,0-0.7,0.1-0.9,0.4c-0.2,0.2-0.4,0.6-0.4,0.9c0,0.3,0.1,0.7,0.4,0.9c0.2,0.2,0.6,0.4,0.9,0.4S235.5,691.7,235.7,691.4
				 M-29.8,725.8c0.2-0.2,0.4-0.6,0.4-0.9c0-0.3-0.1-0.7-0.4-0.9c-0.2-0.2-0.6-0.3-0.9-0.3c-0.3,0-0.7,0.1-0.9,0.3
				c-0.2,0.2-0.4,0.6-0.4,0.9s0.1,0.7,0.4,0.9c0.2,0.2,0.6,0.4,0.9,0.4C-30.4,726.2-30.1,726.1-29.8,725.8 M-34.6,725.8
				c0.2-0.2,0.3-0.6,0.3-0.9c0-0.3-0.1-0.7-0.3-0.9c-0.2-0.2-0.6-0.3-0.9-0.3c-0.3,0-0.7,0.1-0.9,0.3c-0.2,0.2-0.4,0.6-0.4,0.9
				s0.1,0.7,0.4,0.9c0.2,0.2,0.6,0.4,0.9,0.4C-35.2,726.2-34.8,726.1-34.6,725.8 M-34.6,691.4c0.2-0.2,0.3-0.6,0.3-0.9
				s-0.1-0.7-0.3-0.9c-0.2-0.2-0.6-0.4-0.9-0.4c-0.3,0-0.7,0.1-0.9,0.4c-0.2,0.2-0.4,0.6-0.4,0.9c0,0.3,0.1,0.7,0.4,0.9
				c0.2,0.2,0.6,0.4,0.9,0.4C-35.2,691.8-34.8,691.7-34.6,691.4 M-29.8,691.4c0.2-0.2,0.4-0.6,0.4-0.9s-0.1-0.7-0.4-0.9
				c-0.2-0.2-0.6-0.4-0.9-0.4c-0.3,0-0.7,0.1-0.9,0.4c-0.2,0.2-0.4,0.6-0.4,0.9c0,0.3,0.1,0.7,0.4,0.9c0.2,0.2,0.6,0.4,0.9,0.4
				C-30.4,691.8-30.1,691.7-29.8,691.4 M92.2,713.7c0,0.7,0.2,1.3,0.8,1.8c0.4,0.6,1.1,0.8,1.8,0.8c0.7,0,1.3-0.2,1.8-0.8
				c0.6-0.4,0.8-1.1,0.8-1.8c0-0.7-0.2-1.3-0.8-1.8c-0.4-0.6-1.1-0.8-1.8-0.8s-1.3,0.2-1.8,0.8C92.4,712.4,92.2,713,92.2,713.7
				 M75.1,711.1c-0.7,0-1.3,0.2-1.8,0.8c-0.6,0.4-0.8,1.1-0.8,1.8c0,0.7,0.2,1.3,0.8,1.8c0.4,0.6,1.1,0.8,1.8,0.8
				c0.7,0,1.3-0.2,1.8-0.8c0.6-0.4,0.8-1.1,0.8-1.8c0-0.7-0.2-1.3-0.8-1.8C76.4,711.4,75.8,711.1,75.1,711.1 M85.3,711.1
				c-0.7,0-1.3,0.2-1.8,0.8c-0.4,0.4-0.7,1.1-0.7,1.8c0,0.7,0.2,1.3,0.7,1.8c0.4,0.6,1.1,0.8,1.8,0.8s1.3-0.2,1.8-0.8
				c0.4-0.4,0.7-1.1,0.7-1.8c0-0.7-0.2-1.3-0.7-1.8C86.6,711.4,85.9,711.1,85.3,711.1 M-39.7,725.8c0.2-0.2,0.3-0.6,0.3-0.9
				c0-0.3-0.1-0.7-0.3-0.9c-0.2-0.2-0.6-0.3-0.9-0.3c-0.3,0-0.7,0.1-0.9,0.3c-0.2,0.2-0.4,0.6-0.4,0.9s0.1,0.7,0.4,0.9
				c0.2,0.2,0.6,0.4,0.9,0.4C-40.3,726.2-40,726.1-39.7,725.8 M-39.7,691.4c0.2-0.2,0.3-0.6,0.3-0.9s-0.1-0.7-0.3-0.9
				c-0.2-0.2-0.6-0.4-0.9-0.4c-0.3,0-0.7,0.1-0.9,0.4c-0.2,0.2-0.4,0.6-0.4,0.9c0,0.3,0.1,0.7,0.4,0.9c0.2,0.2,0.6,0.4,0.9,0.4
				S-40,691.7-39.7,691.4 M96.5,644.5c-0.4-0.4-1.1-0.7-1.8-0.7s-1.3,0.2-1.8,0.7c-0.6,0.6-0.8,1.1-0.8,1.9c0,0.8,0.2,1.3,0.8,1.8
				c0.4,0.4,1.1,0.8,1.8,0.8c0.7,0,1.3-0.2,1.8-0.8c0.6-0.4,0.8-1.1,0.8-1.8C97.3,645.6,97,645,96.5,644.5 M85.3,643.7
				c-0.7,0-1.3,0.2-1.8,0.7c-0.4,0.6-0.7,1.1-0.7,1.9c0,0.8,0.2,1.3,0.7,1.8c0.5,0.5,1.1,0.8,1.8,0.8s1.3-0.2,1.8-0.8
				c0.4-0.4,0.7-1.1,0.7-1.8c0-0.7-0.2-1.3-0.7-1.9C86.6,644,86,643.7,85.3,643.7 M75.1,643.7c-0.7,0-1.3,0.2-1.8,0.7
				c-0.6,0.6-0.8,1.1-0.8,1.9c0,0.8,0.2,1.3,0.8,1.8c0.4,0.4,1.1,0.8,1.8,0.8c0.7,0,1.3-0.2,1.8-0.8c0.6-0.4,0.8-1.1,0.8-1.8
				c0-0.7-0.2-1.3-0.8-1.9C76.4,644,75.8,643.7,75.1,643.7 M702.4,708.6c0.2-0.2,0.3-0.6,0.3-0.9c0-0.3-0.1-0.7-0.3-0.9
				c-0.2-0.2-0.6-0.3-0.9-0.3c-0.3,0-0.7,0.1-0.9,0.3c-0.2,0.2-0.3,0.6-0.3,0.9c0,0.3,0.1,0.7,0.3,0.9c0.2,0.2,0.6,0.3,0.9,0.3
				S702.1,708.8,702.4,708.6 M712.4,708.6c0.2-0.2,0.4-0.6,0.4-0.9c0-0.3-0.1-0.7-0.4-0.9c-0.2-0.2-0.6-0.3-0.9-0.3
				c-0.3,0-0.7,0.1-0.9,0.3c-0.2,0.2-0.4,0.6-0.4,0.9c0,0.3,0.1,0.7,0.4,0.9c0.2,0.2,0.6,0.3,0.9,0.3S712.1,708.8,712.4,708.6
				 M707.6,708.6c0.2-0.2,0.3-0.6,0.3-0.9c0-0.3-0.1-0.7-0.3-0.9c-0.2-0.2-0.6-0.3-0.9-0.3s-0.7,0.1-1,0.3c-0.2,0.2-0.3,0.6-0.3,0.9
				c0,0.3,0.1,0.7,0.3,0.9c0.2,0.2,0.6,0.3,1,0.3S707.4,708.8,707.6,708.6 M702.4,674.3c0.2-0.2,0.3-0.6,0.3-1
				c0-0.3-0.1-0.7-0.3-0.9c-0.2-0.2-0.6-0.3-0.9-0.3c-0.3,0-0.7,0.1-0.9,0.3c-0.2,0.2-0.3,0.6-0.3,0.9c0,0.3,0.1,0.7,0.3,1
				c0.2,0.2,0.6,0.3,0.9,0.3S702.1,674.6,702.4,674.3 M707.6,674.3c0.2-0.2,0.3-0.6,0.3-1c0-0.3-0.1-0.7-0.3-0.9
				c-0.2-0.2-0.6-0.3-0.9-0.3s-0.7,0.1-1,0.3c-0.2,0.2-0.3,0.6-0.3,0.9c0,0.3,0.1,0.7,0.3,1c0.2,0.2,0.6,0.3,1,0.3
				C707.1,674.7,707.4,674.6,707.6,674.3 M712.4,674.3c0.2-0.2,0.4-0.6,0.4-1c0-0.3-0.1-0.7-0.4-0.9c-0.2-0.2-0.6-0.3-0.9-0.3
				c-0.3,0-0.7,0.1-0.9,0.3c-0.2,0.2-0.4,0.6-0.4,0.9c0,0.3,0.1,0.7,0.4,1c0.2,0.2,0.6,0.3,0.9,0.3
				C711.8,674.7,712.1,674.6,712.4,674.3 M508.6,724.9c0,0.3,0.1,0.7,0.3,0.9c0.2,0.2,0.6,0.4,0.9,0.4s0.7-0.1,0.9-0.4
				c0.2-0.2,0.3-0.6,0.3-0.9c0-0.3-0.1-0.7-0.3-0.9c-0.2-0.2-0.6-0.3-0.9-0.3s-0.7,0.1-0.9,0.3C508.7,724.3,508.6,724.5,508.6,724.9
				 M506.4,724.9c0-0.3-0.1-0.7-0.4-0.9c-0.2-0.2-0.6-0.3-0.9-0.3s-0.7,0.1-0.9,0.3c-0.2,0.2-0.4,0.6-0.4,0.9s0.1,0.7,0.4,0.9
				c0.2,0.2,0.6,0.4,0.9,0.4s0.7-0.1,0.9-0.4C506.2,725.5,506.4,725.3,506.4,724.9 M500.8,725.8c0.2-0.2,0.4-0.6,0.4-0.9
				c0-0.3-0.1-0.7-0.4-0.9c-0.2-0.2-0.6-0.3-0.9-0.3s-0.7,0.1-0.9,0.3c-0.2,0.2-0.4,0.6-0.4,0.9s0.1,0.7,0.4,0.9
				c0.2,0.2,0.6,0.4,0.9,0.4C500.3,726.2,500.6,726.1,500.8,725.8 M506,691.4c0.2-0.2,0.4-0.6,0.4-0.9s-0.1-0.7-0.4-0.9
				c-0.2-0.2-0.6-0.4-0.9-0.4s-0.7,0.1-0.9,0.4c-0.2,0.2-0.4,0.6-0.4,0.9c0,0.3,0.1,0.7,0.4,0.9c0.2,0.2,0.6,0.4,0.9,0.4
				C505.4,691.8,505.8,691.7,506,691.4 M510.8,691.4c0.2-0.2,0.3-0.6,0.3-0.9s-0.1-0.7-0.3-0.9c-0.2-0.2-0.6-0.4-0.9-0.4
				s-0.7,0.1-0.9,0.4c-0.2,0.2-0.3,0.6-0.3,0.9c0,0.3,0.1,0.7,0.3,0.9c0.2,0.2,0.6,0.4,0.9,0.4C510.3,691.8,510.6,691.7,510.8,691.4
				 M500.8,691.4c0.2-0.2,0.4-0.6,0.4-0.9s-0.1-0.7-0.4-0.9c-0.3-0.2-0.6-0.4-0.9-0.4s-0.7,0.1-0.9,0.4c-0.2,0.2-0.4,0.6-0.4,0.9
				c0,0.3,0.1,0.7,0.4,0.9c0.2,0.2,0.6,0.4,0.9,0.4C500.3,691.8,500.6,691.7,500.8,691.4 M635.2,711.1c-0.7,0-1.3,0.2-1.8,0.8
				c-0.6,0.4-0.8,1.1-0.8,1.8c0,0.7,0.2,1.3,0.8,1.8c0.4,0.6,1.1,0.8,1.8,0.8s1.3-0.2,1.8-0.8c0.6-0.4,0.8-1.1,0.8-1.8
				c0-0.7-0.2-1.3-0.8-1.8C636.5,711.4,635.8,711.1,635.2,711.1 M625.8,711.1c-0.7,0-1.3,0.2-1.8,0.8c-0.4,0.4-0.8,1.1-0.8,1.8
				c0,0.7,0.2,1.3,0.8,1.8c0.6,0.6,1.1,0.8,1.8,0.8s1.3-0.2,1.8-0.8c0.4-0.4,0.7-1.1,0.7-1.8c0-0.7-0.2-1.3-0.7-1.8
				C627.1,711.4,626.6,711.1,625.8,711.1 M617.4,711.9c-0.6-0.6-1.1-0.8-1.9-0.8s-1.3,0.2-1.8,0.8c-0.4,0.4-0.8,1.1-0.8,1.8
				c0,0.7,0.2,1.3,0.8,1.8c0.4,0.6,1.1,0.8,1.8,0.8c0.7,0,1.3-0.2,1.9-0.8c0.4-0.4,0.7-1.1,0.7-1.8
				C618.1,713,617.9,712.4,617.4,711.9 M635.2,643.7c-0.7,0-1.3,0.2-1.8,0.7c-0.6,0.6-0.8,1.1-0.8,1.9c0,0.7,0.2,1.3,0.8,1.8
				c0.4,0.4,1.1,0.8,1.8,0.8s1.3-0.2,1.8-0.8c0.6-0.4,0.8-1.1,0.8-1.8c0-0.7-0.2-1.3-0.8-1.9C636.5,644,635.8,643.7,635.2,643.7
				 M625.8,643.7c-0.7,0-1.3,0.2-1.8,0.7c-0.4,0.6-0.8,1.1-0.8,1.9c0,0.8,0.2,1.3,0.8,1.8s1.1,0.8,1.8,0.8s1.3-0.2,1.8-0.8
				c0.4-0.4,0.7-1.1,0.7-1.8c0-0.7-0.2-1.3-0.7-1.9C627.1,644,626.6,643.7,625.8,643.7 M615.6,643.7c-0.7,0-1.3,0.2-1.8,0.7
				c-0.4,0.6-0.8,1.1-0.8,1.9c0,0.8,0.2,1.3,0.8,1.8c0.4,0.4,1.1,0.8,1.8,0.8c0.7,0,1.3-0.2,1.9-0.8c0.4-0.4,0.7-1.1,0.7-1.8
				c0-0.7-0.2-1.3-0.7-1.9C616.9,644,616.3,643.7,615.6,643.7z"/>
		</g>
	</g>
</g>
<g transform="matrix( 1, 0, 0, 1, -114.85,-581.95) ">
	<g>
		<g id="Layer0_3_FILL">
			<path fill="#F1F1F1" d="M366.8,715.5c0.6-0.4,0.8-1.1,0.8-1.8c0-0.7-0.2-1.3-0.8-1.8c-0.4-0.6-1.1-0.8-1.8-0.8s-1.3,0.2-1.8,0.8
				c-0.6,0.4-0.8,1.1-0.8,1.8c0,0.7,0.2,1.3,0.8,1.8c0.4,0.6,1.1,0.8,1.8,0.8S366.2,716,366.8,715.5 M345.5,711.1
				c-0.7,0-1.3,0.2-1.8,0.8c-0.4,0.4-0.7,1.1-0.7,1.8c0,0.7,0.2,1.3,0.7,1.8c0.4,0.6,1.1,0.8,1.8,0.8c0.7,0,1.3-0.2,1.8-0.8
				c0.4-0.4,0.8-1.1,0.8-1.8c0-0.7-0.2-1.3-0.8-1.8C346.6,711.4,346.1,711.1,345.5,711.1 M355.6,711.1c-0.7,0-1.3,0.2-1.9,0.8
				c-0.4,0.4-0.7,1.1-0.7,1.8c0,0.7,0.2,1.3,0.7,1.8c0.6,0.6,1.1,0.8,1.9,0.8s1.3-0.2,1.8-0.8c0.4-0.4,0.8-1.1,0.8-1.8
				c0-0.7-0.2-1.3-0.8-1.8C357,711.4,356.3,711.1,355.6,711.1 M442.1,725.8c0.2-0.2,0.3-0.6,0.3-0.9c0-0.3-0.1-0.7-0.3-0.9
				c-0.2-0.2-0.6-0.3-0.9-0.3s-0.7,0.1-1,0.3c-0.2,0.2-0.3,0.6-0.3,0.9s0.1,0.7,0.3,0.9c0.2,0.2,0.6,0.4,1,0.4
				S441.8,726.1,442.1,725.8 M436.4,726.2c0.3,0,0.7-0.1,0.9-0.4c0.2-0.2,0.4-0.6,0.4-0.9c0-0.3-0.1-0.7-0.4-0.9
				c-0.2-0.2-0.6-0.3-0.9-0.3s-0.7,0.1-0.9,0.3c-0.2,0.2-0.4,0.6-0.4,0.9s0.1,0.7,0.4,0.9C435.7,726.1,436,726.2,436.4,726.2
				 M430.3,725.8c0.2,0.2,0.6,0.4,0.9,0.4s0.7-0.1,0.9-0.4c0.2-0.2,0.4-0.6,0.4-0.9c0-0.3-0.1-0.7-0.4-0.9c-0.2-0.2-0.6-0.3-0.9-0.3
				s-0.7,0.1-0.9,0.3c-0.2,0.2-0.3,0.6-0.3,0.9C429.9,725.3,430,725.5,430.3,725.8 M442.1,691.4c0.2-0.2,0.3-0.6,0.3-0.9
				s-0.1-0.7-0.3-0.9c-0.2-0.2-0.6-0.4-0.9-0.4s-0.7,0.1-1,0.4c-0.2,0.2-0.3,0.6-0.3,0.9c0,0.3,0.1,0.7,0.3,0.9
				c0.2,0.2,0.6,0.4,1,0.4S441.8,691.7,442.1,691.4 M436.4,691.8c0.3,0,0.7-0.1,0.9-0.4c0.2-0.2,0.4-0.6,0.4-0.9s-0.1-0.7-0.4-0.9
				c-0.3-0.2-0.6-0.4-0.9-0.4s-0.7,0.1-0.9,0.4c-0.2,0.2-0.4,0.6-0.4,0.9c0,0.3,0.1,0.7,0.4,0.9C435.7,691.7,436,691.8,436.4,691.8
				 M432.4,690.5c0-0.3-0.1-0.7-0.4-0.9c-0.2-0.2-0.6-0.4-0.9-0.4s-0.7,0.1-0.9,0.4c-0.2,0.2-0.3,0.6-0.3,0.9c0,0.3,0.1,0.7,0.3,0.9
				c0.2,0.2,0.6,0.4,0.9,0.4s0.7-0.1,0.9-0.4C432.3,691.2,432.4,690.9,432.4,690.5 M170.1,725.8c0.2,0.2,0.6,0.4,0.9,0.4
				c0.3,0,0.7-0.1,0.9-0.4c0.2-0.2,0.4-0.6,0.4-0.9c0-0.3-0.1-0.7-0.4-0.9c-0.2-0.2-0.6-0.3-0.9-0.3c-0.3,0-0.7,0.1-0.9,0.3
				c-0.2,0.2-0.4,0.6-0.4,0.9C169.6,725.3,169.7,725.5,170.1,725.8 M164.8,724.9c0,0.3,0.1,0.7,0.4,0.9c0.2,0.2,0.6,0.4,0.9,0.4
				c0.3,0,0.7-0.1,1-0.4c0.2-0.2,0.4-0.6,0.4-0.9c0-0.3-0.1-0.7-0.4-0.9c-0.2-0.2-0.6-0.3-1-0.3c-0.3,0-0.7,0.1-0.9,0.3
				C165,724.3,164.8,724.5,164.8,724.9 M162.2,724.9c0-0.3-0.1-0.7-0.4-0.9c-0.2-0.2-0.6-0.3-0.9-0.3c-0.3,0-0.7,0.1-0.9,0.3
				c-0.2,0.2-0.4,0.6-0.4,0.9s0.1,0.7,0.4,0.9c0.2,0.2,0.6,0.4,0.9,0.4c0.3,0,0.7-0.1,0.9-0.4C162,725.5,162.2,725.3,162.2,724.9
				 M170.9,689.2c-0.3,0-0.7,0.1-0.9,0.4c-0.2,0.3-0.4,0.6-0.4,0.9c0,0.3,0.1,0.7,0.4,0.9c0.2,0.2,0.6,0.4,0.9,0.4
				c0.3,0,0.7-0.1,0.9-0.4c0.2-0.2,0.4-0.6,0.4-0.9s-0.1-0.7-0.4-0.9C171.5,689.4,171.3,689.2,170.9,689.2 M167,691.4
				c0.2-0.2,0.4-0.6,0.4-0.9s-0.1-0.7-0.4-0.9c-0.3-0.2-0.6-0.4-1-0.4c-0.3,0-0.7,0.1-0.9,0.4c-0.2,0.3-0.4,0.6-0.4,0.9
				c0,0.3,0.1,0.7,0.4,0.9c0.2,0.2,0.6,0.4,0.9,0.4C166.4,691.8,166.8,691.7,167,691.4 M159.6,690.5c0,0.3,0.1,0.7,0.4,0.9
				c0.2,0.2,0.6,0.4,0.9,0.4c0.3,0,0.7-0.1,0.9-0.4c0.2-0.2,0.4-0.6,0.4-0.9s-0.1-0.7-0.4-0.9c-0.2-0.2-0.6-0.4-0.9-0.4
				c-0.3,0-0.7,0.1-0.9,0.4C159.8,689.9,159.6,690.2,159.6,690.5 M235.7,708.6c0.2-0.2,0.3-0.6,0.3-0.9c0-0.3-0.1-0.7-0.3-0.9
				c-0.2-0.2-0.6-0.3-0.9-0.3c-0.3,0-0.7,0.1-0.9,0.3c-0.2,0.2-0.4,0.6-0.4,0.9c0,0.3,0.1,0.7,0.4,0.9c0.2,0.2,0.6,0.3,0.9,0.3
				S235.5,708.8,235.7,708.6 M230.5,708.6c0.2-0.2,0.3-0.6,0.3-0.9c0-0.3-0.1-0.7-0.3-0.9c-0.2-0.2-0.6-0.3-0.9-0.3
				s-0.7,0.1-0.9,0.3c-0.2,0.2-0.4,0.6-0.4,0.9c0,0.3,0.1,0.7,0.4,0.9c0.2,0.2,0.6,0.3,0.9,0.3S230.3,708.8,230.5,708.6
				 M240.4,708.6c0.2-0.2,0.4-0.6,0.4-0.9c0-0.3-0.1-0.7-0.4-0.9c-0.2-0.2-0.6-0.3-0.9-0.3s-0.7,0.1-0.9,0.3
				c-0.2,0.2-0.4,0.6-0.4,0.9c0,0.3,0.1,0.7,0.4,0.9c0.2,0.2,0.6,0.3,0.9,0.3C239.9,708.9,240.2,708.8,240.4,708.6 M228.8,674.3
				c0.2,0.2,0.6,0.3,0.9,0.3c0.3,0,0.7-0.1,0.9-0.3c0.2-0.2,0.3-0.6,0.3-1c0-0.3-0.1-0.7-0.3-0.9c-0.2-0.2-0.6-0.3-0.9-0.3
				s-0.7,0.1-0.9,0.3c-0.2,0.2-0.4,0.6-0.4,0.9C228.3,673.8,228.5,674.1,228.8,674.3 M234,674.3c0.2,0.2,0.6,0.3,0.9,0.3
				s0.7-0.1,0.9-0.3c0.2-0.2,0.3-0.6,0.3-1c0-0.3-0.1-0.7-0.3-0.9c-0.2-0.2-0.6-0.3-0.9-0.3c-0.3,0-0.7,0.1-0.9,0.3
				c-0.2,0.2-0.4,0.6-0.4,0.9C233.6,673.8,233.7,674.1,234,674.3 M240.4,674.3c0.2-0.2,0.4-0.6,0.4-1c0-0.3-0.1-0.7-0.4-0.9
				c-0.2-0.2-0.6-0.3-0.9-0.3s-0.7,0.1-0.9,0.3c-0.2,0.2-0.4,0.6-0.4,0.9c0,0.3,0.1,0.7,0.4,1c0.2,0.2,0.6,0.3,0.9,0.3
				C239.9,674.7,240.2,674.6,240.4,674.3 M365,643.7c-0.7,0-1.3,0.2-1.8,0.7c-0.6,0.6-0.8,1.1-0.8,1.9c0,0.8,0.2,1.3,0.8,1.8
				c0.4,0.4,1.1,0.8,1.8,0.8s1.3-0.2,1.8-0.8c0.6-0.4,0.8-1.1,0.8-1.8c0-0.7-0.2-1.3-0.8-1.9C366.2,644,365.8,643.7,365,643.7
				 M355.6,643.7c-0.7,0-1.3,0.2-1.9,0.7c-0.4,0.6-0.7,1.1-0.7,1.9c0,0.8,0.2,1.3,0.7,1.8c0.6,0.4,1.1,0.8,1.9,0.8s1.3-0.2,1.8-0.8
				c0.4-0.4,0.8-1.1,0.8-1.8c0-0.7-0.2-1.3-0.8-1.9C357,644,356.3,643.7,355.6,643.7 M345.5,643.7c-0.7,0-1.3,0.2-1.8,0.7
				c-0.4,0.6-0.7,1.1-0.7,1.9c0,0.8,0.2,1.3,0.7,1.8c0.4,0.4,1.1,0.8,1.8,0.8c0.7,0,1.3-0.2,1.8-0.8c0.4-0.4,0.8-1.1,0.8-1.8
				c0-0.7-0.2-1.3-0.8-1.9C346.7,644,346.1,643.7,345.5,643.7 M-29.8,708.6c0.2-0.2,0.4-0.6,0.4-0.9c0-0.3-0.1-0.7-0.4-0.9
				c-0.2-0.2-0.6-0.3-0.9-0.3c-0.3,0-0.7,0.1-0.9,0.3c-0.2,0.2-0.4,0.6-0.4,0.9c0,0.3,0.1,0.7,0.4,0.9c0.2,0.2,0.6,0.3,0.9,0.3
				C-30.4,708.9-30.1,708.8-29.8,708.6 M-34.6,708.6c0.2-0.2,0.3-0.6,0.3-0.9c0-0.3-0.1-0.7-0.3-0.9c-0.2-0.2-0.6-0.3-0.9-0.3
				c-0.3,0-0.7,0.1-0.9,0.3c-0.2,0.2-0.4,0.6-0.4,0.9c0,0.3,0.1,0.7,0.4,0.9c0.2,0.2,0.6,0.3,0.9,0.3
				C-35.2,708.9-34.8,708.8-34.6,708.6 M-34.6,674.3c0.2-0.2,0.3-0.6,0.3-1c0-0.3-0.1-0.7-0.3-0.9c-0.2-0.2-0.6-0.3-0.9-0.3
				c-0.3,0-0.7,0.1-0.9,0.3c-0.2,0.2-0.4,0.6-0.4,0.9c0,0.3,0.1,0.7,0.4,1c0.2,0.2,0.6,0.3,0.9,0.3
				C-35.2,674.6-34.8,674.6-34.6,674.3 M-29.8,674.3c0.2-0.2,0.4-0.6,0.4-1c0-0.3-0.1-0.7-0.4-0.9c-0.2-0.2-0.6-0.3-0.9-0.3
				c-0.3,0-0.7,0.1-0.9,0.3c-0.2,0.2-0.4,0.6-0.4,0.9c0,0.3,0.1,0.7,0.4,1c0.2,0.2,0.6,0.3,0.9,0.3
				C-30.4,674.6-30.1,674.6-29.8,674.3 M76.9,681.8c0.6-0.4,0.8-1.1,0.8-1.8c0-0.7-0.2-1.3-0.8-1.8c-0.4-0.4-1.1-0.8-1.8-0.8
				c-0.7,0-1.3,0.2-1.8,0.8c-0.6,0.6-0.8,1.1-0.8,1.8c0,0.7,0.2,1.3,0.8,1.8c0.4,0.4,1.1,0.7,1.8,0.7S76.4,682.3,76.9,681.8
				 M87,681.8c0.4-0.4,0.7-1.1,0.7-1.8c0-0.7-0.2-1.3-0.7-1.8c-0.5-0.5-1.1-0.8-1.8-0.8s-1.3,0.2-1.8,0.8c-0.4,0.6-0.7,1.1-0.7,1.8
				c0,0.7,0.2,1.3,0.7,1.8c0.4,0.4,1.1,0.7,1.8,0.7C85.9,682.5,86.6,682.3,87,681.8 M96.5,681.8c0.6-0.4,0.8-1.1,0.8-1.8
				c0-0.7-0.2-1.3-0.8-1.8c-0.4-0.4-1.1-0.8-1.8-0.8s-1.3,0.2-1.8,0.8c-0.6,0.6-0.8,1.1-0.8,1.8c0,0.7,0.2,1.3,0.8,1.8
				c0.4,0.4,1.1,0.7,1.8,0.7C95.4,682.5,96,682.3,96.5,681.8 M-39.7,708.6c0.2-0.2,0.3-0.6,0.3-0.9c0-0.3-0.1-0.7-0.3-0.9
				c-0.2-0.2-0.6-0.3-0.9-0.3c-0.3,0-0.7,0.1-0.9,0.3c-0.2,0.2-0.4,0.6-0.4,0.9c0,0.3,0.1,0.7,0.4,0.9c0.2,0.2,0.6,0.3,0.9,0.3
				S-40,708.8-39.7,708.6 M-39.7,674.3c0.2-0.2,0.3-0.6,0.3-1c0-0.3-0.1-0.7-0.3-0.9c-0.2-0.2-0.6-0.3-0.9-0.3
				c-0.3,0-0.7,0.1-0.9,0.3c-0.2,0.2-0.4,0.6-0.4,0.9c0,0.3,0.1,0.7,0.4,1c0.2,0.2,0.6,0.3,0.9,0.3S-40,674.6-39.7,674.3
				 M712.4,725.8c0.2-0.2,0.4-0.6,0.4-0.9c0-0.3-0.1-0.7-0.4-0.9c-0.2-0.2-0.6-0.3-0.9-0.3c-0.3,0-0.7,0.1-0.9,0.3
				c-0.2,0.2-0.4,0.6-0.4,0.9s0.1,0.7,0.4,0.9c0.2,0.2,0.6,0.4,0.9,0.4C711.8,726.2,712.1,726.1,712.4,725.8 M707.6,725.8
				c0.2-0.2,0.3-0.6,0.3-0.9c0-0.3-0.1-0.7-0.3-0.9c-0.2-0.2-0.6-0.3-0.9-0.3s-0.7,0.1-1,0.3c-0.2,0.2-0.3,0.6-0.3,0.9
				s0.1,0.7,0.3,0.9c0.2,0.2,0.6,0.4,1,0.4C707.1,726.2,707.4,726.1,707.6,725.8 M702.4,725.8c0.2-0.2,0.3-0.6,0.3-0.9
				c0-0.3-0.1-0.7-0.3-0.9c-0.2-0.2-0.6-0.3-0.9-0.3c-0.3,0-0.7,0.1-0.9,0.3c-0.2,0.2-0.3,0.6-0.3,0.9s0.1,0.7,0.3,0.9
				c0.2,0.2,0.6,0.4,0.9,0.4C701.8,726.2,702.1,726.1,702.4,725.8 M707.6,691.4c0.2-0.2,0.3-0.6,0.3-0.9s-0.1-0.7-0.3-0.9
				c-0.2-0.2-0.6-0.4-0.9-0.4s-0.7,0.1-1,0.4c-0.2,0.2-0.3,0.6-0.3,0.9c0,0.3,0.1,0.7,0.3,0.9c0.2,0.2,0.6,0.4,1,0.4
				S707.4,691.7,707.6,691.4 M712.4,691.4c0.2-0.2,0.4-0.6,0.4-0.9s-0.1-0.7-0.4-0.9c-0.2-0.2-0.6-0.4-0.9-0.4
				c-0.3,0-0.7,0.1-0.9,0.4c-0.2,0.2-0.4,0.6-0.4,0.9c0,0.3,0.1,0.7,0.4,0.9c0.2,0.2,0.6,0.4,0.9,0.4S712.1,691.7,712.4,691.4
				 M702.4,691.4c0.2-0.2,0.3-0.6,0.3-0.9s-0.1-0.7-0.3-0.9c-0.2-0.2-0.6-0.4-0.9-0.4c-0.3,0-0.7,0.1-0.9,0.4
				c-0.2,0.2-0.3,0.6-0.3,0.9c0,0.3,0.1,0.7,0.3,0.9c0.2,0.2,0.6,0.4,0.9,0.4S702.1,691.7,702.4,691.4 M500.8,708.6
				c0.2-0.2,0.4-0.6,0.4-0.9c0-0.3-0.1-0.7-0.4-0.9c-0.2-0.2-0.6-0.3-0.9-0.3s-0.7,0.1-0.9,0.3c-0.2,0.2-0.4,0.6-0.4,0.9
				c0,0.3,0.1,0.7,0.4,0.9c0.2,0.2,0.6,0.3,0.9,0.3C500.3,708.9,500.6,708.8,500.8,708.6 M506,708.6c0.2-0.2,0.4-0.6,0.4-0.9
				c0-0.3-0.1-0.7-0.4-0.9c-0.2-0.2-0.6-0.3-0.9-0.3s-0.7,0.1-0.9,0.3c-0.2,0.2-0.4,0.6-0.4,0.9c0,0.3,0.1,0.7,0.4,0.9
				c0.2,0.2,0.6,0.3,0.9,0.3C505.4,708.9,505.8,708.8,506,708.6 M508.9,706.9c-0.2,0.2-0.3,0.6-0.3,0.9c0,0.3,0.1,0.7,0.3,0.9
				c0.2,0.2,0.6,0.3,0.9,0.3s0.7-0.1,0.9-0.3c0.2-0.2,0.3-0.6,0.3-0.9c0-0.3-0.1-0.7-0.3-0.9c-0.2-0.2-0.6-0.3-0.9-0.3
				C509.5,706.6,509.3,706.7,508.9,706.9 M500.8,674.3c0.2-0.2,0.4-0.6,0.4-1c0-0.3-0.1-0.7-0.4-0.9c-0.3-0.2-0.6-0.3-0.9-0.3
				s-0.7,0.1-0.9,0.3c-0.2,0.2-0.4,0.6-0.4,0.9c0,0.3,0.1,0.7,0.4,1c0.2,0.2,0.6,0.3,0.9,0.3C500.3,674.7,500.6,674.6,500.8,674.3
				 M506.4,673.3c0-0.3-0.1-0.7-0.4-0.9c-0.2-0.2-0.6-0.3-0.9-0.3s-0.7,0.1-0.9,0.3c-0.2,0.2-0.4,0.6-0.4,0.9c0,0.3,0.1,0.7,0.4,1
				c0.2,0.2,0.6,0.3,0.9,0.3s0.7-0.1,0.9-0.3C506.2,674.1,506.4,673.8,506.4,673.3 M510.8,674.3c0.2-0.2,0.3-0.6,0.3-1
				c0-0.3-0.1-0.7-0.3-0.9c-0.2-0.2-0.6-0.3-0.9-0.3s-0.7,0.1-0.9,0.3c-0.2,0.2-0.3,0.6-0.3,0.9c0,0.3,0.1,0.7,0.3,1
				c0.2,0.2,0.6,0.3,0.9,0.3C510.3,674.7,510.6,674.6,510.8,674.3 M617.4,681.8c0.4-0.4,0.7-1.1,0.7-1.8c0-0.7-0.2-1.3-0.7-1.8
				c-0.4-0.4-1.1-0.8-1.9-0.8c-0.7,0-1.3,0.2-1.8,0.8c-0.4,0.6-0.8,1.1-0.8,1.8c0,0.7,0.2,1.3,0.8,1.8c0.4,0.4,1.1,0.7,1.8,0.7
				C616.2,682.5,616.9,682.3,617.4,681.8 M635.2,682.5c0.7,0,1.3-0.2,1.8-0.7c0.6-0.4,0.8-1.1,0.8-1.8c0-0.7-0.2-1.3-0.8-1.8
				c-0.4-0.4-1.1-0.8-1.8-0.8c-0.7,0-1.3,0.2-1.8,0.8c-0.6,0.6-0.8,1.1-0.8,1.8c0,0.7,0.2,1.3,0.8,1.8
				C634,682.3,634.6,682.5,635.2,682.5 M627.7,681.8c0.4-0.4,0.7-1.1,0.7-1.8c0-0.7-0.2-1.3-0.7-1.8c-0.4-0.4-1.1-0.8-1.8-0.8
				c-0.7,0-1.3,0.2-1.8,0.8c-0.4,0.6-0.8,1.1-0.8,1.8c0,0.7,0.2,1.3,0.8,1.8c0.6,0.4,1.1,0.7,1.8,0.7
				C626.6,682.5,627.1,682.3,627.7,681.8z"/>
		</g>
	</g>
</g>
<g transform="matrix( 1, 0, 0, 1, -114.85,-581.95) ">
	<g>
		<g id="Layer0_4_FILL">
			<path fill="#CCCCCC" d="M390.1,725c-0.3,0-0.4,0.2-0.4,0.6v2.3h4.7v-2.3c0-0.3-0.2-0.6-0.6-0.6H390.1 M394,695.4
				c0.3,0,0.6-0.1,0.6-0.4v-3.9c0-0.3-0.2-0.4-0.6-0.4h-3.9c-0.3,0-0.4,0.1-0.4,0.4v3.9c0,0.3,0.1,0.4,0.4,0.4H394 M462.6,712.4
				c0.3,0,0.4-0.1,0.4-0.6v-3.9c0-0.3-0.1-0.4-0.4-0.4h-3.9c-0.3,0-0.6,0.1-0.6,0.4v3.9c0,0.3,0.2,0.6,0.6,0.6H462.6 M462.6,678.2
				c0.3,0,0.4-0.1,0.4-0.4v-3.9c0-0.3-0.1-0.6-0.4-0.6h-3.9c-0.3,0-0.6,0.2-0.6,0.6v3.9c0,0.3,0.2,0.4,0.6,0.4H462.6 M192.4,712.4
				c0.3,0,0.4-0.1,0.4-0.6v-3.9c0-0.3-0.1-0.4-0.4-0.4h-3.8c-0.3,0-0.4,0.1-0.4,0.4v3.9c0,0.3,0.1,0.6,0.4,0.6H192.4 M192.4,678.2
				c0.3,0,0.4-0.1,0.4-0.4v-3.9c0-0.3-0.1-0.6-0.4-0.6h-3.8c-0.3,0-0.4,0.2-0.4,0.6v3.9c0,0.3,0.1,0.4,0.4,0.4H192.4 M271.9,689.3
				c0.6,0,0.9-0.3,0.9-0.9v-7.5c0-0.6-0.3-0.9-0.9-0.9h-7.5c-0.2,0-0.4,0.1-0.7,0.2c-0.2,0.1-0.2,0.3-0.2,0.6v7.5
				c0,0.7,0.3,0.9,1,0.9L271.9,689.3 M1.8,689.3c0.6,0,0.9-0.3,0.9-0.9v-7.5c0-0.6-0.3-0.9-0.9-0.9h-7.5c-0.7,0-1,0.3-1,0.9v7.5
				c0,0.7,0.3,0.9,1,0.9H1.8 M119.7,725c-0.3,0-0.4,0.2-0.4,0.6v2.3h4.7v-2.3c0-0.3-0.1-0.6-0.4-0.6H119.7 M123.6,695.4
				c0.3,0,0.4-0.1,0.4-0.4v-3.9c0-0.3-0.1-0.4-0.4-0.4h-3.9c-0.3,0-0.4,0.1-0.4,0.4v3.9c0,0.3,0.1,0.4,0.4,0.4H123.6 M-78,712.4
				c0.3,0,0.4-0.1,0.4-0.6v-3.9c0-0.3-0.1-0.4-0.4-0.4h-3.9c-0.3,0-0.4,0.1-0.4,0.4v3.9c0,0.3,0.1,0.6,0.4,0.6H-78 M-78,678.2
				c0.3,0,0.4-0.1,0.4-0.4v-3.9c0-0.3-0.1-0.6-0.4-0.6h-3.9c-0.3,0-0.4,0.2-0.4,0.6v3.9c0,0.3,0.1,0.4,0.4,0.4H-78 M533.8,722.1
				c0,0.7,0.3,1,1,1h7.5c0.7,0,0.9-0.3,0.9-1v-7.5c0-0.2-0.1-0.4-0.2-0.6c-0.2-0.2-0.4-0.2-0.7-0.2h-7.5c-0.2,0-0.4,0.1-0.7,0.2
				c-0.2,0.1-0.3,0.3-0.2,0.6L533.8,722.1 M543,655.3c0.2-0.2,0.2-0.4,0.2-0.7v-7.5c0-0.2-0.1-0.4-0.2-0.7c-0.2-0.2-0.4-0.2-0.7-0.2
				h-7.5c-0.2,0-0.4,0.1-0.7,0.2c-0.2,0.2-0.3,0.4-0.2,0.7v7.5c0,0.2,0.1,0.4,0.2,0.7c0.2,0.2,0.4,0.2,0.7,0.2h7.5
				C542.5,655.6,542.8,655.5,543,655.3 M660.3,725c-0.3,0-0.4,0.2-0.4,0.6v2.3h4.7v-2.3c0-0.3-0.1-0.6-0.4-0.6H660.3 M664.1,695.4
				c0.3,0,0.4-0.1,0.4-0.4v-3.9c0-0.3-0.1-0.4-0.4-0.4h-3.9c-0.3,0-0.4,0.1-0.4,0.4v3.9c0,0.3,0.1,0.4,0.4,0.4H664.1z"/>
		</g>
	</g>
</g>
</svg>
