<svg version="1.1" xmlns="http://www.w3.org/2000/svg" id="Layer_1"  xmlns:xlink="http://www.w3.org/1999/xlink" x="0px" y="0px"
	 viewBox="2.8 6.3 735.3 83.7" enable-background="new 2.8 6.3 735.3 83.7" xml:space="preserve">
<g transform="matrix( 1, 0, 0, 1, -114.85,-581.95) ">
	<g>
		<g id="Layer0_0_FILL">
			<path d="M606.2,666.6c0-0.6-0.2-1-0.6-1.4c-0.4-0.4-0.9-0.6-1.4-0.6h-53.6c-0.5,0-1,0.2-1.4,0.6s-0.6,0.9-0.6,1.4v5.3h5v-2.1
				c0-0.3,0.1-0.5,0.4-0.5h3.5c0.3,0,0.5,0.2,0.5,0.5v2.1h48.2V666.6 M591.5,670.5c-0.3,0-0.6-0.1-0.8-0.4c-0.2-0.2-0.3-0.5-0.3-0.8
				c0-0.3,0.1-0.6,0.3-0.8c0.2-0.2,0.5-0.3,0.8-0.3c0.3,0,0.6,0.1,0.8,0.3c0.2,0.2,0.4,0.5,0.4,0.8c0,0.3-0.1,0.6-0.4,0.8
				C592.1,670.4,591.9,670.5,591.5,670.5 M597.1,670.1c-0.2,0.2-0.5,0.4-0.8,0.4c-0.3,0-0.6-0.1-0.8-0.4c-0.2-0.2-0.4-0.5-0.4-0.8
				c0-0.3,0.1-0.6,0.4-0.8c0.2-0.2,0.5-0.3,0.8-0.3c0.3,0,0.6,0.1,0.8,0.3c0.2,0.2,0.4,0.5,0.4,0.8
				C597.5,669.7,597.3,669.9,597.1,670.1 M600.7,668.2c0.3,0,0.6,0.1,0.8,0.3c0.2,0.2,0.3,0.5,0.3,0.8c0,0.3-0.1,0.6-0.3,0.8
				c-0.2,0.2-0.5,0.4-0.8,0.4s-0.6-0.1-0.9-0.4c-0.2-0.2-0.3-0.5-0.3-0.8c0-0.3,0.1-0.6,0.3-0.8C600,668.3,600.3,668.2,600.7,668.2
				 M605.6,649.6c-0.4-0.4-0.9-0.6-1.4-0.6h-53.6c-0.5,0-1,0.2-1.4,0.6s-0.6,0.9-0.6,1.4v9.8c0,0.5,0.2,1,0.6,1.4
				c0.4,0.4,0.8,0.5,1.4,0.5h53.6c0.6,0,1-0.2,1.4-0.5c0.4-0.4,0.6-0.8,0.6-1.4V651C606.2,650.4,606,650,605.6,649.6 M599.8,652.9
				c0.2-0.2,0.5-0.3,0.9-0.3s0.6,0.1,0.8,0.3c0.2,0.2,0.3,0.5,0.3,0.8s-0.1,0.6-0.3,0.8c-0.2,0.2-0.5,0.3-0.8,0.3s-0.6-0.1-0.9-0.3
				c-0.2-0.2-0.3-0.5-0.3-0.8S599.6,653.1,599.8,652.9 M591.5,654.8c-0.3,0-0.6-0.1-0.8-0.3c-0.2-0.2-0.3-0.5-0.3-0.8
				s0.1-0.6,0.3-0.8c0.2-0.2,0.5-0.3,0.8-0.3c0.3,0,0.6,0.1,0.8,0.3c0.2,0.2,0.4,0.5,0.4,0.8s-0.1,0.6-0.4,0.8
				C592.1,654.7,591.9,654.8,591.5,654.8 M597.1,654.5c-0.2,0.2-0.5,0.3-0.8,0.3c-0.3,0-0.6-0.1-0.8-0.3c-0.2-0.2-0.4-0.5-0.4-0.8
				s0.1-0.6,0.4-0.8c0.2-0.2,0.5-0.3,0.8-0.3c0.3,0,0.6,0.1,0.8,0.3c0.2,0.2,0.4,0.5,0.4,0.8S597.3,654.3,597.1,654.5 M557.9,657.6
				c0,0.3-0.2,0.5-0.5,0.5H554c-0.3,0-0.4-0.1-0.4-0.5v-3.5c0-0.3,0.1-0.4,0.4-0.4h3.5c0.3,0,0.5,0.1,0.5,0.4V657.6 M606.2,635.3
				c0-0.6-0.2-1-0.6-1.4c-0.4-0.4-0.9-0.6-1.4-0.6h-53.6c-0.5,0-1,0.2-1.4,0.6c-0.4,0.4-0.6,0.9-0.6,1.4v9.8c0,0.5,0.2,1,0.6,1.4
				c0.4,0.4,0.9,0.6,1.4,0.6h53.6c0.5,0,1-0.2,1.4-0.6c0.4-0.4,0.6-0.8,0.6-1.4V635.3 M592.3,637.2c0.2,0.2,0.4,0.5,0.4,0.8
				c0,0.3-0.1,0.6-0.4,0.8c-0.2,0.2-0.5,0.4-0.8,0.4c-0.3,0-0.6-0.1-0.8-0.4c-0.2-0.2-0.3-0.5-0.3-0.8c0-0.3,0.1-0.6,0.3-0.8
				c0.2-0.2,0.5-0.4,0.8-0.4C591.9,636.8,592.1,637,592.3,637.2 M597.1,638.8c-0.2,0.2-0.5,0.4-0.8,0.4c-0.3,0-0.6-0.1-0.8-0.4
				c-0.2-0.2-0.4-0.5-0.4-0.8c0-0.3,0.1-0.6,0.4-0.8c0.2-0.2,0.5-0.4,0.8-0.4c0.3,0,0.6,0.1,0.8,0.4s0.4,0.5,0.4,0.8
				C597.5,638.3,597.3,638.6,597.1,638.8 M601.5,637.2c0.2,0.2,0.3,0.5,0.3,0.8c0,0.3-0.1,0.6-0.3,0.8c-0.2,0.2-0.5,0.4-0.8,0.4
				s-0.6-0.1-0.9-0.4c-0.2-0.2-0.3-0.5-0.3-0.8c0-0.3,0.1-0.6,0.3-0.8c0.2-0.2,0.5-0.4,0.9-0.4S601.2,637,601.5,637.2 M554,642.4
				c-0.3,0-0.4-0.1-0.4-0.4v-3.5c0-0.3,0.1-0.4,0.4-0.4h3.5c0.3,0,0.5,0.1,0.5,0.4v3.5c0,0.3-0.2,0.4-0.5,0.4H554 M605.6,618.2
				c-0.4-0.4-0.8-0.5-1.4-0.5h-53.6c-0.6,0-1,0.2-1.4,0.5c-0.4,0.4-0.6,0.9-0.6,1.4v9.8c0,0.6,0.2,1,0.6,1.4
				c0.4,0.4,0.9,0.6,1.4,0.6h53.6c0.5,0,1-0.2,1.4-0.6c0.4-0.4,0.6-0.8,0.6-1.4v-9.8C606.2,619.1,606,618.7,605.6,618.2
				 M599.5,622.3c0-0.3,0.1-0.6,0.3-0.8c0.2-0.2,0.5-0.3,0.9-0.3s0.6,0.1,0.8,0.3c0.2,0.2,0.3,0.5,0.3,0.8c0,0.3-0.1,0.6-0.3,0.9
				c-0.2,0.2-0.5,0.3-0.8,0.3s-0.6-0.1-0.9-0.3C599.6,623,599.5,622.7,599.5,622.3 M592.3,621.5c0.2,0.2,0.4,0.5,0.4,0.8
				c0,0.3-0.1,0.6-0.4,0.9c-0.2,0.2-0.5,0.3-0.8,0.3c-0.3,0-0.6-0.1-0.8-0.3c-0.2-0.2-0.3-0.5-0.3-0.9c0-0.3,0.1-0.6,0.3-0.8
				c0.2-0.2,0.5-0.3,0.8-0.3C591.9,621.2,592.1,621.3,592.3,621.5 M597.1,623.2c-0.2,0.2-0.5,0.3-0.8,0.3c-0.3,0-0.6-0.1-0.8-0.3
				c-0.2-0.2-0.4-0.5-0.4-0.9c0-0.3,0.1-0.6,0.4-0.8c0.2-0.2,0.5-0.3,0.8-0.3c0.3,0,0.6,0.1,0.8,0.3s0.4,0.5,0.4,0.8
				C597.5,622.7,597.3,623,597.1,623.2 M557.9,622.8v3.5c0,0.3-0.2,0.4-0.5,0.4H554c-0.3,0-0.4-0.1-0.4-0.4v-3.5
				c0-0.3,0.1-0.5,0.4-0.5h3.5C557.8,622.4,557.9,622.5,557.9,622.8 M422,666.6c0-0.5-0.2-1-0.6-1.4c-0.4-0.4-0.8-0.6-1.4-0.6h-53.6
				c-0.5,0-1,0.2-1.4,0.6c-0.4,0.4-0.5,0.8-0.5,1.4v5.3h5v-2.1c0-0.3,0.1-0.5,0.4-0.5h3.5c0.3,0,0.4,0.2,0.4,0.5v2.1H422V666.6
				 M408.5,669.3c0,0.3-0.1,0.6-0.3,0.8c-0.2,0.2-0.5,0.4-0.8,0.4c-0.3,0-0.6-0.1-0.8-0.4c-0.2-0.2-0.4-0.5-0.4-0.8
				c0-0.3,0.1-0.6,0.4-0.8c0.2-0.2,0.5-0.3,0.8-0.3c0.3,0,0.6,0.1,0.8,0.3C408.4,668.8,408.5,669,408.5,669.3 M413.3,669.3
				c0,0.3-0.1,0.6-0.3,0.8c-0.2,0.2-0.5,0.4-0.8,0.4c-0.3,0-0.6-0.1-0.8-0.4c-0.2-0.2-0.4-0.5-0.4-0.8c0-0.3,0.1-0.6,0.4-0.8
				c0.2-0.2,0.5-0.3,0.8-0.3c0.3,0,0.6,0.1,0.8,0.3C413.2,668.8,413.3,669,413.3,669.3 M417.3,668.5c0.2,0.2,0.4,0.5,0.4,0.8
				c0,0.3-0.1,0.6-0.4,0.8c-0.2,0.2-0.5,0.4-0.8,0.4s-0.6-0.1-0.8-0.4c-0.2-0.2-0.4-0.5-0.4-0.8c0-0.3,0.1-0.6,0.4-0.8
				c0.2-0.2,0.5-0.3,0.8-0.3S417.1,668.3,417.3,668.5 M422,651c0-0.5-0.2-1-0.6-1.4c-0.4-0.4-0.8-0.6-1.4-0.6h-53.6
				c-0.5,0-1,0.2-1.4,0.6c-0.4,0.4-0.5,0.8-0.5,1.4v9.8c0,0.6,0.2,1,0.5,1.4c0.4,0.4,0.9,0.5,1.4,0.5H420c0.6,0,1-0.2,1.4-0.5
				c0.4-0.4,0.6-0.9,0.6-1.4V651 M415.7,652.9c0.2-0.2,0.5-0.3,0.8-0.3s0.6,0.1,0.8,0.3c0.2,0.2,0.4,0.5,0.4,0.8s-0.1,0.6-0.4,0.8
				c-0.2,0.2-0.5,0.3-0.8,0.3s-0.6-0.1-0.8-0.3c-0.2-0.2-0.4-0.5-0.4-0.8S415.5,653.1,415.7,652.9 M408.5,653.7
				c0,0.3-0.1,0.6-0.3,0.8c-0.2,0.2-0.5,0.3-0.8,0.3c-0.3,0-0.6-0.1-0.8-0.3c-0.2-0.2-0.4-0.5-0.4-0.8s0.1-0.6,0.4-0.8
				c0.2-0.2,0.5-0.3,0.8-0.3c0.3,0,0.6,0.1,0.8,0.3C408.4,653.1,408.5,653.4,408.5,653.7 M413.3,653.7c0,0.3-0.1,0.6-0.3,0.8
				c-0.2,0.2-0.5,0.3-0.8,0.3c-0.3,0-0.6-0.1-0.8-0.3c-0.2-0.2-0.4-0.5-0.4-0.8s0.1-0.6,0.4-0.8c0.2-0.2,0.5-0.3,0.8-0.3
				c0.3,0,0.6,0.1,0.8,0.3C413.2,653.1,413.3,653.4,413.3,653.7 M369.5,657.6v-3.5c0-0.3,0.1-0.4,0.4-0.4h3.5c0.3,0,0.4,0.1,0.4,0.4
				v3.5c0,0.3-0.1,0.5-0.4,0.5h-3.5C369.6,658,369.5,657.9,369.5,657.6 M429.9,651c-0.8,0.8-1.1,1.7-1.1,2.8V672h113.2v-18.2
				c0-1.1-0.4-2-1.2-2.8s-1.7-1.2-2.8-1.2H432.6C431.6,649.9,430.7,650.3,429.9,651 M438.8,659.5c0.2-0.2,0.4-0.2,0.6-0.2h6.8
				c0.5,0,0.8,0.3,0.8,0.8v6.8c0,0.6-0.3,0.9-0.8,0.9h-6.8c-0.6,0-0.9-0.3-0.9-0.9V660C438.5,659.8,438.6,659.6,438.8,659.5
				 M522.5,656.8c0.6,0,1.2,0.2,1.6,0.7c0.4,0.4,0.7,1,0.7,1.6c0,0.6-0.2,1.2-0.7,1.6c-0.4,0.5-1,0.7-1.6,0.7s-1.2-0.2-1.7-0.7
				c-0.4-0.4-0.6-1-0.6-1.6c0-0.6,0.2-1.2,0.6-1.6C521.3,657.1,521.9,656.8,522.5,656.8 M511.5,657.5c0.4-0.5,1-0.7,1.6-0.7
				c0.6,0,1.2,0.2,1.6,0.7c0.4,0.4,0.7,1,0.7,1.6c0,0.6-0.2,1.2-0.7,1.6c-0.5,0.5-1,0.7-1.6,0.7c-0.6,0-1.2-0.2-1.6-0.7
				c-0.4-0.4-0.6-1-0.6-1.6C510.9,658.5,511.1,658,511.5,657.5 M529.5,657.5c0.4-0.5,1-0.7,1.6-0.7c0.6,0,1.2,0.2,1.6,0.7
				c0.5,0.4,0.7,1,0.7,1.6c0,0.6-0.2,1.2-0.7,1.6c-0.4,0.5-1,0.7-1.6,0.7c-0.6,0-1.2-0.2-1.6-0.7c-0.5-0.4-0.7-1-0.7-1.6
				C528.8,658.5,529,658,529.5,657.5 M422,635.3c0-0.5-0.2-1-0.6-1.4c-0.4-0.4-0.8-0.6-1.4-0.6h-53.6c-0.5,0-1,0.2-1.4,0.6
				c-0.4,0.4-0.5,0.8-0.5,1.4v9.8c0,0.5,0.2,1,0.5,1.4c0.4,0.4,0.9,0.6,1.4,0.6H420c0.5,0,1-0.2,1.4-0.6c0.4-0.4,0.6-0.8,0.6-1.4
				V635.3 M413.3,638c0,0.3-0.1,0.6-0.3,0.8c-0.2,0.2-0.5,0.4-0.8,0.4c-0.3,0-0.6-0.1-0.8-0.4c-0.2-0.2-0.4-0.5-0.4-0.8
				c0-0.3,0.1-0.6,0.4-0.8c0.2-0.2,0.5-0.4,0.8-0.4c0.3,0,0.6,0.1,0.8,0.4C413.2,637.4,413.3,637.7,413.3,638 M408.5,638
				c0,0.3-0.1,0.6-0.3,0.8c-0.2,0.2-0.5,0.4-0.8,0.4c-0.3,0-0.6-0.1-0.8-0.4c-0.2-0.2-0.4-0.5-0.4-0.8c0-0.3,0.1-0.6,0.4-0.8
				c0.2-0.2,0.5-0.4,0.8-0.4c0.3,0,0.6,0.1,0.8,0.4C408.4,637.4,408.5,637.7,408.5,638 M417.3,637.2c0.2,0.2,0.4,0.5,0.4,0.8
				c0,0.3-0.1,0.6-0.4,0.8c-0.2,0.2-0.5,0.4-0.8,0.4s-0.6-0.1-0.8-0.4c-0.2-0.2-0.4-0.5-0.4-0.8c0-0.3,0.1-0.6,0.4-0.8
				c0.2-0.2,0.5-0.4,0.8-0.4S417.1,637,417.3,637.2 M369.9,638.1h3.5c0.3,0,0.4,0.1,0.4,0.4v3.5c0,0.3-0.1,0.4-0.4,0.4h-3.5
				c-0.3,0-0.4-0.1-0.4-0.4v-3.5C369.5,638.2,369.6,638.1,369.9,638.1 M422,619.6c0-0.5-0.2-1-0.6-1.4c-0.4-0.4-0.8-0.5-1.4-0.5
				h-53.6c-0.5,0-1,0.2-1.4,0.5c-0.4,0.4-0.5,0.9-0.5,1.4v9.8c0,0.6,0.2,1,0.5,1.4c0.4,0.4,0.9,0.6,1.4,0.6H420c0.6,0,1-0.2,1.4-0.6
				c0.4-0.4,0.6-0.8,0.6-1.4V619.6 M417.6,622.3c0,0.3-0.1,0.6-0.4,0.9c-0.2,0.2-0.5,0.3-0.8,0.3s-0.6-0.1-0.8-0.3
				c-0.2-0.2-0.4-0.5-0.4-0.9c0-0.3,0.1-0.6,0.4-0.8c0.2-0.2,0.5-0.3,0.8-0.3s0.6,0.1,0.8,0.3C417.5,621.8,417.6,622,417.6,622.3
				 M413.3,622.3c0,0.3-0.1,0.6-0.3,0.9c-0.2,0.2-0.5,0.3-0.8,0.3c-0.3,0-0.6-0.1-0.8-0.3c-0.2-0.2-0.4-0.5-0.4-0.9
				c0-0.3,0.1-0.6,0.4-0.8c0.2-0.2,0.5-0.3,0.8-0.3c0.3,0,0.6,0.1,0.8,0.3C413.2,621.8,413.3,622,413.3,622.3 M407.4,623.5
				c-0.3,0-0.6-0.1-0.8-0.3c-0.2-0.2-0.4-0.5-0.4-0.9c0-0.3,0.1-0.6,0.4-0.8c0.2-0.2,0.5-0.3,0.8-0.3c0.3,0,0.6,0.1,0.8,0.3
				c0.2,0.2,0.3,0.5,0.3,0.8c0,0.3-0.1,0.6-0.3,0.9C408,623.4,407.7,623.5,407.4,623.5 M373.8,622.8v3.5c0,0.3-0.1,0.4-0.4,0.4h-3.5
				c-0.3,0-0.4-0.1-0.4-0.4v-3.5c0-0.3,0.1-0.5,0.4-0.5h3.5C373.6,622.4,373.8,622.5,373.8,622.8 M432.6,619.1c-1.1,0-2,0.4-2.8,1.2
				c-0.8,0.8-1.1,1.7-1.1,2.8v19.3c0,1.1,0.4,2,1.1,2.8s1.7,1.2,2.8,1.2H538c1.1,0,2-0.4,2.8-1.2s1.2-1.7,1.2-2.8V623
				c0-1.1-0.4-2-1.2-2.8c-0.8-0.8-1.7-1.2-2.8-1.2H432.6 M447,636c0,0.6-0.3,0.8-0.8,0.8h-6.8c-0.6,0-0.9-0.3-0.9-0.8v-6.8
				c0-0.2,0.1-0.4,0.2-0.5c0.2-0.2,0.4-0.2,0.6-0.2h6.8c0.5,0,0.8,0.3,0.8,0.8V636 M532.7,626.7c0.5,0.5,0.7,1,0.7,1.6
				c0,0.6-0.2,1.2-0.7,1.6c-0.4,0.4-1,0.6-1.6,0.6c-0.6,0-1.2-0.2-1.6-0.6c-0.5-0.4-0.7-1-0.7-1.6c0-0.6,0.2-1.2,0.7-1.6
				c0.4-0.4,1-0.7,1.6-0.7C531.7,626,532.2,626.3,532.7,626.7 M524.8,628.3c0,0.6-0.2,1.2-0.7,1.6c-0.4,0.4-1,0.6-1.6,0.6
				s-1.2-0.2-1.7-0.6c-0.4-0.4-0.6-1-0.6-1.6c0-0.6,0.2-1.2,0.6-1.6c0.5-0.4,1-0.7,1.7-0.7s1.2,0.2,1.6,0.7
				C524.5,627.2,524.8,627.7,524.8,628.3 M515.5,628.3c0,0.6-0.2,1.2-0.7,1.6c-0.5,0.4-1,0.6-1.6,0.6c-0.6,0-1.2-0.2-1.6-0.6
				c-0.4-0.4-0.6-1-0.6-1.6c0-0.6,0.2-1.2,0.6-1.6c0.4-0.4,1-0.7,1.6-0.7c0.7,0,1.2,0.2,1.6,0.7
				C515.2,627.2,515.5,627.7,515.5,628.3 M541.9,592.2c0-1.1-0.4-2-1.2-2.8s-1.7-1.2-2.8-1.2H432.6c-1.1,0-2,0.4-2.8,1.2
				s-1.1,1.7-1.1,2.8v19.3c0,1.1,0.4,2,1.1,2.8c0.8,0.8,1.7,1.1,2.8,1.1H538c1.1,0,2-0.4,2.8-1.1c0.8-0.8,1.2-1.7,1.2-2.8V592.2
				 M520.8,595.9c0.5-0.4,1-0.6,1.7-0.6s1.2,0.2,1.6,0.6c0.4,0.5,0.7,1,0.7,1.7s-0.2,1.2-0.7,1.6c-0.4,0.4-1,0.7-1.6,0.7
				s-1.2-0.2-1.7-0.7c-0.4-0.4-0.6-1-0.6-1.6S520.4,596.4,520.8,595.9 M511.5,595.9c0.4-0.4,1-0.6,1.6-0.6c0.7,0,1.2,0.2,1.6,0.6
				c0.4,0.5,0.7,1,0.7,1.7s-0.2,1.2-0.7,1.6c-0.5,0.4-1,0.7-1.6,0.7c-0.6,0-1.2-0.2-1.6-0.7c-0.4-0.4-0.6-1-0.6-1.6
				S511.1,596.4,511.5,595.9 M529.5,595.9c0.4-0.4,1-0.6,1.6-0.6c0.6,0,1.2,0.2,1.6,0.6c0.5,0.5,0.7,1,0.7,1.7s-0.2,1.2-0.7,1.6
				c-0.4,0.4-1,0.7-1.6,0.7c-0.6,0-1.2-0.2-1.6-0.7c-0.5-0.4-0.7-1-0.7-1.6S529,596.4,529.5,595.9 M447,605.2c0,0.2-0.1,0.4-0.2,0.6
				c-0.1,0.2-0.3,0.2-0.6,0.2h-6.8c-0.2,0-0.4-0.1-0.6-0.2c-0.2-0.2-0.2-0.4-0.2-0.6v-6.8c0-0.2,0.1-0.4,0.2-0.6
				c0.2-0.2,0.4-0.2,0.6-0.2h6.8c0.2,0,0.4,0.1,0.6,0.2c0.2,0.2,0.3,0.4,0.2,0.6V605.2 M295,653.8c0-1.1-0.4-2-1.1-2.8
				s-1.7-1.2-2.8-1.2H185.8c-1.1,0-2,0.4-2.8,1.2c-0.7,0.8-1.1,1.7-1.1,2.8V672H295V653.8 M275.6,656.8c0.6,0,1.2,0.2,1.6,0.7
				c0.4,0.4,0.6,1,0.6,1.6c0,0.6-0.2,1.2-0.6,1.6c-0.5,0.5-1,0.7-1.6,0.7c-0.6,0-1.2-0.2-1.6-0.7c-0.4-0.4-0.6-1-0.6-1.6
				c0-0.6,0.2-1.2,0.6-1.6C274.4,657.1,275,656.8,275.6,656.8 M264.7,657.5c0.4-0.5,1-0.7,1.6-0.7s1.2,0.2,1.6,0.7
				c0.5,0.4,0.7,1,0.7,1.6c0,0.6-0.2,1.2-0.7,1.6c-0.4,0.5-1,0.7-1.6,0.7s-1.2-0.2-1.6-0.7c-0.5-0.4-0.7-1-0.7-1.6
				C264,658.5,264.2,658,264.7,657.5 M282.6,660.8c-0.5-0.4-0.7-1-0.7-1.6c0-0.6,0.2-1.2,0.7-1.6c0.4-0.5,1-0.7,1.6-0.7
				s1.2,0.2,1.6,0.7c0.5,0.4,0.7,1,0.7,1.6c0,0.6-0.2,1.2-0.7,1.6c-0.4,0.5-1,0.7-1.6,0.7S283,661.2,282.6,660.8 M191.6,666.8V660
				c0-0.5,0.3-0.8,0.9-0.8h6.8c0.5,0,0.8,0.3,0.8,0.8v6.8c0,0.6-0.3,0.9-0.8,0.9h-6.8C191.9,667.7,191.6,667.4,191.6,666.8
				 M302.4,649.6c-0.4,0.4-0.6,0.9-0.6,1.4v9.8c0,0.5,0.2,1,0.6,1.4c0.4,0.4,0.8,0.5,1.4,0.5h53.6c0.5,0,1-0.2,1.4-0.5
				c0.4-0.4,0.6-0.9,0.6-1.4V651c0-0.5-0.2-1-0.6-1.4c-0.4-0.4-0.8-0.6-1.4-0.6h-53.6C303.2,649,302.8,649.2,302.4,649.6 M311,654.1
				v3.5c0,0.3-0.1,0.5-0.4,0.5h-3.5c-0.3,0-0.4-0.1-0.4-0.5v-3.5c0-0.3,0.1-0.4,0.4-0.4h3.5C310.9,653.8,311,653.9,311,654.1
				 M355,653.7c0,0.3-0.1,0.6-0.4,0.8c-0.2,0.2-0.5,0.3-0.8,0.3c-0.3,0-0.6-0.1-0.8-0.3c-0.2-0.2-0.4-0.5-0.4-0.8s0.1-0.6,0.4-0.8
				c0.2-0.2,0.5-0.3,0.8-0.3c0.3,0,0.6,0.1,0.8,0.3C354.8,653.1,355,653.4,355,653.7 M345.5,652.9c0.2,0.2,0.4,0.5,0.4,0.8
				s-0.1,0.6-0.4,0.8c-0.2,0.2-0.5,0.3-0.8,0.3c-0.3,0-0.6-0.1-0.8-0.3c-0.2-0.2-0.4-0.5-0.4-0.8c0-0.3,0.1-0.6,0.4-0.8
				c0.2-0.2,0.5-0.3,0.8-0.3C345,652.5,345.3,652.7,345.5,652.9 M348.6,654.5c-0.2-0.2-0.4-0.5-0.4-0.8s0.1-0.6,0.4-0.8
				c0.2-0.2,0.5-0.3,0.8-0.3c0.3,0,0.6,0.1,0.9,0.3c0.2,0.2,0.4,0.5,0.4,0.8s-0.1,0.6-0.4,0.8c-0.2,0.2-0.5,0.3-0.9,0.3
				C349.1,654.8,348.8,654.7,348.6,654.5 M306.8,669.8c0-0.3,0.1-0.5,0.4-0.5h3.5c0.3,0,0.4,0.2,0.4,0.5v2.1h48.2v-5.3
				c0-0.5-0.2-1-0.6-1.4c-0.4-0.4-0.8-0.6-1.4-0.6h-53.6c-0.5,0-1,0.2-1.4,0.6c-0.4,0.4-0.6,0.9-0.6,1.4v5.3h5V669.8 M345.9,669.3
				c0,0.3-0.1,0.6-0.4,0.8c-0.2,0.2-0.5,0.4-0.8,0.4c-0.3,0-0.6-0.1-0.8-0.4c-0.2-0.2-0.4-0.5-0.4-0.8c0-0.3,0.1-0.6,0.4-0.8
				c0.2-0.2,0.5-0.3,0.8-0.3c0.3,0,0.6,0.1,0.8,0.3C345.7,668.8,345.9,669,345.9,669.3 M348.6,670.1c-0.2-0.2-0.4-0.5-0.4-0.8
				c0-0.3,0.1-0.6,0.4-0.8c0.2-0.2,0.5-0.3,0.8-0.3c0.3,0,0.6,0.1,0.9,0.3c0.2,0.2,0.4,0.5,0.4,0.8c0,0.3-0.1,0.6-0.4,0.8
				c-0.2,0.2-0.5,0.4-0.9,0.4C349.1,670.5,348.8,670.4,348.6,670.1 M353.8,670.5c-0.3,0-0.6-0.1-0.8-0.4c-0.2-0.2-0.4-0.5-0.4-0.8
				c0-0.3,0.1-0.6,0.4-0.8c0.2-0.2,0.5-0.3,0.8-0.3c0.3,0,0.6,0.1,0.8,0.3c0.2,0.2,0.4,0.5,0.4,0.8c0,0.3-0.1,0.6-0.4,0.8
				C354.4,670.4,354.1,670.5,353.8,670.5 M301.8,635.3v9.8c0,0.5,0.2,1,0.6,1.4c0.4,0.4,0.9,0.6,1.4,0.6h53.6c0.5,0,1-0.2,1.4-0.6
				c0.4-0.4,0.6-0.8,0.6-1.4v-9.8c0-0.5-0.2-1-0.6-1.4c-0.4-0.4-0.8-0.6-1.4-0.6h-53.6c-0.5,0-1,0.2-1.4,0.6
				C301.9,634.3,301.8,634.8,301.8,635.3 M311,642c0,0.3-0.1,0.4-0.4,0.4h-3.5c-0.3,0-0.4-0.1-0.4-0.4v-3.5c0-0.3,0.1-0.4,0.4-0.4
				h3.5c0.3,0,0.4,0.1,0.4,0.4V642 M343.5,638c0-0.3,0.1-0.6,0.4-0.8c0.2-0.2,0.5-0.4,0.8-0.4c0.3,0,0.6,0.1,0.8,0.4
				c0.2,0.2,0.4,0.5,0.4,0.8c0,0.3-0.1,0.6-0.4,0.8c-0.2,0.2-0.5,0.4-0.8,0.4c-0.3,0-0.6-0.1-0.8-0.4
				C343.7,638.6,343.5,638.3,343.5,638 M350.2,637.2c0.2,0.2,0.4,0.5,0.4,0.8c0,0.3-0.1,0.6-0.4,0.8c-0.2,0.2-0.5,0.4-0.9,0.4
				c-0.3,0-0.6-0.1-0.8-0.4c-0.2-0.2-0.4-0.5-0.4-0.8c0-0.3,0.1-0.6,0.4-0.8s0.5-0.4,0.8-0.4C349.7,636.8,350,637,350.2,637.2
				 M353.8,639.2c-0.3,0-0.6-0.1-0.8-0.4c-0.2-0.2-0.4-0.5-0.4-0.8c0-0.3,0.1-0.6,0.4-0.8s0.5-0.4,0.8-0.4c0.3,0,0.6,0.1,0.8,0.4
				s0.4,0.5,0.4,0.8c0,0.3-0.1,0.6-0.4,0.8C354.4,639.1,354.1,639.2,353.8,639.2 M293.9,620.2c-0.8-0.8-1.7-1.2-2.8-1.2H185.8
				c-1.1,0-2,0.4-2.8,1.2c-0.7,0.8-1.1,1.7-1.1,2.8v19.3c0,1.1,0.4,2,1.1,2.8c0.8,0.8,1.7,1.2,2.8,1.2h105.4c1.1,0,2-0.4,2.8-1.2
				s1.1-1.7,1.1-2.8V623C295,621.9,294.7,621,293.9,620.2 M285.8,630c-0.4,0.4-1,0.6-1.6,0.6s-1.2-0.2-1.6-0.6
				c-0.5-0.4-0.7-1-0.7-1.6c0-0.6,0.2-1.2,0.7-1.6c0.4-0.4,1-0.7,1.6-0.7s1.2,0.2,1.6,0.7c0.5,0.5,0.7,1,0.7,1.6
				C286.5,629,286.3,629.5,285.8,630 M277.2,626.7c0.4,0.5,0.6,1,0.6,1.6c0,0.6-0.2,1.2-0.6,1.6c-0.5,0.4-1,0.6-1.6,0.6
				c-0.6,0-1.2-0.2-1.6-0.6c-0.4-0.4-0.6-1-0.6-1.6c0-0.6,0.2-1.2,0.6-1.6c0.4-0.4,1-0.7,1.6-0.7C276.3,626,276.8,626.3,277.2,626.7
				 M268.6,628.3c0,0.6-0.2,1.2-0.7,1.6c-0.4,0.4-1,0.6-1.6,0.6s-1.2-0.2-1.6-0.6c-0.5-0.4-0.7-1-0.7-1.6c0-0.6,0.2-1.2,0.7-1.6
				c0.4-0.4,1-0.7,1.6-0.7s1.2,0.2,1.6,0.7C268.4,627.2,268.6,627.7,268.6,628.3 M192.5,628.5h6.8c0.5,0,0.8,0.3,0.8,0.8v6.8
				c0,0.6-0.3,0.8-0.8,0.8h-6.8c-0.6,0-0.9-0.3-0.9-0.8v-6.8C191.6,628.7,191.9,628.5,192.5,628.5 M302.4,618.2
				c-0.4,0.4-0.6,0.9-0.6,1.4v9.8c0,0.6,0.2,1,0.6,1.4c0.4,0.4,0.9,0.6,1.4,0.6h53.6c0.5,0,1-0.2,1.4-0.6c0.4-0.4,0.6-0.9,0.6-1.4
				v-9.8c0-0.5-0.2-1-0.6-1.4c-0.4-0.4-0.8-0.5-1.4-0.5h-53.6C303.2,617.7,302.7,617.9,302.4,618.2 M311,626.3
				c0,0.3-0.1,0.4-0.4,0.4h-3.5c-0.3,0-0.4-0.1-0.4-0.4v-3.5c0-0.3,0.1-0.5,0.4-0.5h3.5c0.3,0,0.4,0.2,0.4,0.5V626.3 M343.5,622.3
				c0-0.3,0.1-0.6,0.4-0.8c0.2-0.2,0.5-0.3,0.8-0.3c0.3,0,0.6,0.1,0.8,0.3c0.2,0.2,0.4,0.5,0.4,0.8c0,0.3-0.1,0.6-0.4,0.9
				c-0.2,0.2-0.5,0.3-0.8,0.3c-0.3,0-0.6-0.1-0.8-0.3C343.7,623,343.5,622.7,343.5,622.3 M355,622.3c0,0.3-0.1,0.6-0.4,0.9
				s-0.5,0.3-0.8,0.3c-0.3,0-0.6-0.1-0.8-0.3s-0.4-0.5-0.4-0.9c0-0.3,0.1-0.6,0.4-0.8s0.5-0.3,0.8-0.3c0.3,0,0.6,0.1,0.8,0.3
				S355,622,355,622.3 M350.6,622.3c0,0.3-0.1,0.6-0.4,0.9s-0.5,0.3-0.9,0.3c-0.3,0-0.6-0.1-0.8-0.3s-0.4-0.5-0.4-0.9
				c0-0.3,0.1-0.6,0.4-0.8s0.5-0.3,0.8-0.3c0.3,0,0.6,0.1,0.9,0.3S350.6,622,350.6,622.3 M118.2,665.2c-0.4,0.4-0.5,0.8-0.5,1.4v5.3
				h4.9v-2.1c0-0.3,0.1-0.5,0.4-0.5h3.5c0.3,0,0.4,0.2,0.4,0.5v2.1h48.2v-5.3c0-0.6-0.2-1-0.5-1.4c-0.4-0.4-0.9-0.6-1.4-0.6h-53.6
				C119.1,664.6,118.6,664.8,118.2,665.2 M161.7,669.3c0,0.3-0.1,0.6-0.3,0.8c-0.2,0.2-0.5,0.4-0.8,0.4c-0.3,0-0.6-0.1-0.8-0.4
				c-0.2-0.2-0.4-0.5-0.4-0.8c0-0.3,0.1-0.6,0.4-0.8c0.2-0.2,0.5-0.3,0.8-0.3c0.3,0,0.6,0.1,0.8,0.3
				C161.6,668.8,161.7,669,161.7,669.3 M166.4,669.3c0,0.3-0.1,0.6-0.3,0.8c-0.2,0.2-0.5,0.4-0.8,0.4c-0.3,0-0.6-0.1-0.8-0.4
				c-0.2-0.2-0.4-0.5-0.4-0.8c0-0.3,0.1-0.6,0.4-0.8c0.2-0.2,0.5-0.3,0.8-0.3c0.3,0,0.6,0.1,0.8,0.3
				C166.3,668.8,166.4,669,166.4,669.3 M170.8,669.3c0,0.3-0.1,0.6-0.4,0.8c-0.2,0.2-0.5,0.4-0.8,0.4s-0.6-0.1-0.8-0.4
				c-0.2-0.2-0.4-0.5-0.4-0.8c0-0.3,0.1-0.6,0.4-0.8c0.2-0.2,0.5-0.3,0.8-0.3s0.6,0.1,0.8,0.3C170.7,668.8,170.8,669,170.8,669.3
				 M117.7,651v9.8c0,0.6,0.2,1,0.5,1.4c0.4,0.4,0.9,0.5,1.4,0.5h53.6c0.6,0,1-0.2,1.4-0.5c0.4-0.4,0.5-0.8,0.5-1.4V651
				c0-0.6-0.2-1-0.5-1.4c-0.4-0.4-0.9-0.6-1.4-0.6h-53.6c-0.5,0-1,0.2-1.4,0.6C117.8,650,117.7,650.4,117.7,651 M161.4,652.9
				c0.2,0.2,0.3,0.5,0.3,0.8s-0.1,0.6-0.3,0.8c-0.2,0.2-0.5,0.3-0.8,0.3c-0.3,0-0.6-0.1-0.8-0.3c-0.2-0.2-0.4-0.5-0.4-0.8
				s0.1-0.6,0.4-0.8c0.2-0.2,0.5-0.3,0.8-0.3C160.9,652.5,161.2,652.7,161.4,652.9 M126.9,654.1v3.5c0,0.3-0.1,0.5-0.4,0.5H123
				c-0.3,0-0.4-0.1-0.4-0.5v-3.5c0-0.3,0.1-0.4,0.4-0.4h3.5C126.8,653.8,126.9,653.9,126.9,654.1 M164.5,652.9
				c0.2-0.2,0.5-0.3,0.8-0.3c0.3,0,0.6,0.1,0.8,0.3c0.2,0.2,0.3,0.5,0.3,0.8s-0.1,0.6-0.3,0.8c-0.2,0.2-0.5,0.3-0.8,0.3
				c-0.3,0-0.6-0.1-0.8-0.3c-0.2-0.2-0.4-0.5-0.4-0.8S164.3,653.1,164.5,652.9 M170.8,653.7c0,0.3-0.1,0.6-0.4,0.8
				c-0.2,0.2-0.5,0.3-0.8,0.3s-0.6-0.1-0.8-0.3c-0.2-0.2-0.4-0.5-0.4-0.8s0.1-0.6,0.4-0.8c0.2-0.2,0.5-0.3,0.8-0.3s0.6,0.1,0.8,0.3
				C170.7,653.1,170.8,653.4,170.8,653.7 M119.6,633.3c-0.5,0-1,0.2-1.4,0.6c-0.4,0.4-0.5,0.8-0.5,1.4v9.8c0,0.5,0.2,1,0.5,1.4
				c0.4,0.4,0.9,0.6,1.4,0.6h53.6c0.5,0,1-0.2,1.4-0.6c0.4-0.4,0.5-0.8,0.5-1.4v-9.8c0-0.6-0.2-1-0.5-1.4c-0.4-0.4-0.9-0.6-1.4-0.6
				H119.6 M126.9,642c0,0.3-0.1,0.4-0.4,0.4H123c-0.3,0-0.4-0.1-0.4-0.4v-3.5c0-0.3,0.1-0.4,0.4-0.4h3.5c0.3,0,0.4,0.1,0.4,0.4V642
				 M160.6,639.2c-0.3,0-0.6-0.1-0.8-0.4c-0.2-0.2-0.4-0.5-0.4-0.8c0-0.3,0.1-0.6,0.4-0.8c0.2-0.2,0.5-0.4,0.8-0.4
				c0.3,0,0.6,0.1,0.8,0.4c0.2,0.2,0.3,0.5,0.3,0.8c0,0.3-0.1,0.6-0.3,0.8C161.2,639.1,160.9,639.2,160.6,639.2 M170.8,638
				c0,0.3-0.1,0.6-0.4,0.8c-0.2,0.2-0.5,0.4-0.8,0.4s-0.6-0.1-0.8-0.4c-0.2-0.2-0.4-0.5-0.4-0.8c0-0.3,0.1-0.6,0.4-0.8
				c0.2-0.2,0.5-0.4,0.8-0.4s0.6,0.1,0.8,0.4C170.7,637.4,170.8,637.7,170.8,638 M166.4,638c0,0.3-0.1,0.6-0.3,0.8
				c-0.2,0.2-0.5,0.4-0.8,0.4c-0.3,0-0.6-0.1-0.8-0.4c-0.2-0.2-0.4-0.5-0.4-0.8c0-0.3,0.1-0.6,0.4-0.8c0.2-0.2,0.5-0.4,0.8-0.4
				c0.3,0,0.6,0.1,0.8,0.4C166.3,637.4,166.4,637.7,166.4,638 M117.7,619.6v9.8c0,0.6,0.2,1,0.5,1.4c0.4,0.4,0.9,0.6,1.4,0.6h53.6
				c0.5,0,1-0.2,1.4-0.6c0.4-0.4,0.5-0.8,0.5-1.4v-9.8c0-0.5-0.2-1-0.5-1.4c-0.4-0.4-0.8-0.5-1.4-0.5h-53.6c-0.5,0-1,0.2-1.4,0.5
				C117.8,618.7,117.7,619.1,117.7,619.6 M126.9,622.8v3.5c0,0.3-0.1,0.4-0.4,0.4H123c-0.3,0-0.4-0.1-0.4-0.4v-3.5
				c0-0.3,0.1-0.5,0.4-0.5h3.5C126.8,622.4,126.9,622.5,126.9,622.8 M161.7,622.3c0,0.3-0.1,0.6-0.3,0.9c-0.2,0.2-0.5,0.3-0.8,0.3
				c-0.3,0-0.6-0.1-0.8-0.3c-0.2-0.2-0.4-0.5-0.4-0.9c0-0.3,0.1-0.6,0.4-0.8c0.2-0.2,0.5-0.3,0.8-0.3c0.3,0,0.6,0.1,0.8,0.3
				C161.6,621.8,161.7,622,161.7,622.3 M170.4,621.5c0.2,0.2,0.4,0.5,0.4,0.8c0,0.3-0.1,0.6-0.4,0.9c-0.2,0.2-0.5,0.3-0.8,0.3
				s-0.6-0.1-0.8-0.3c-0.2-0.2-0.4-0.5-0.4-0.9c0-0.3,0.1-0.6,0.4-0.8c0.2-0.2,0.5-0.3,0.8-0.3S170.2,621.3,170.4,621.5
				 M165.3,623.5c-0.3,0-0.6-0.1-0.8-0.3c-0.2-0.2-0.4-0.5-0.4-0.9c0-0.3,0.1-0.6,0.4-0.8c0.2-0.2,0.5-0.3,0.8-0.3
				c0.3,0,0.6,0.1,0.8,0.3c0.2,0.2,0.3,0.5,0.3,0.8c0,0.3-0.1,0.6-0.3,0.9C165.9,623.4,165.6,623.5,165.3,623.5 M183,589.5
				c-0.7,0.8-1.1,1.7-1.1,2.8v19.3c0,1.1,0.4,2,1.1,2.8c0.8,0.8,1.7,1.1,2.8,1.1h105.4c1.1,0,2-0.4,2.8-1.1c0.8-0.8,1.1-1.7,1.1-2.8
				v-19.3c0-1.1-0.4-2-1.1-2.8s-1.7-1.2-2.8-1.2H185.8C184.7,588.3,183.8,588.7,183,589.5 M274,595.9c0.4-0.4,1-0.6,1.6-0.6
				c0.7,0,1.2,0.2,1.6,0.6c0.4,0.5,0.6,1,0.6,1.7s-0.2,1.2-0.6,1.6c-0.5,0.4-1,0.7-1.6,0.7c-0.6,0-1.2-0.2-1.6-0.7
				c-0.4-0.4-0.6-1-0.6-1.6S273.6,596.4,274,595.9 M264.7,595.9c0.4-0.4,1-0.6,1.6-0.6s1.2,0.2,1.6,0.6c0.5,0.5,0.7,1,0.7,1.7
				s-0.2,1.2-0.7,1.6c-0.4,0.4-1,0.7-1.6,0.7s-1.2-0.2-1.6-0.7c-0.5-0.4-0.7-1-0.7-1.6S264.2,596.4,264.7,595.9 M284.2,595.2
				c0.6,0,1.2,0.2,1.6,0.6c0.5,0.5,0.7,1,0.7,1.7s-0.2,1.2-0.7,1.6c-0.4,0.4-1,0.7-1.6,0.7s-1.2-0.2-1.6-0.7c-0.5-0.4-0.7-1-0.7-1.6
				s0.2-1.2,0.7-1.7C283,595.5,283.6,595.2,284.2,595.2 M199.3,606.1h-6.8c-0.6,0-0.9-0.3-0.9-0.8v-6.8c0-0.2,0.1-0.4,0.2-0.6
				c0.2-0.2,0.4-0.2,0.6-0.2h6.8c0.2,0,0.4,0.1,0.6,0.2c0.2,0.2,0.3,0.4,0.2,0.6v6.8c0,0.2-0.1,0.4-0.2,0.6
				C199.7,606,199.5,606.1,199.3,606.1 M668.9,666.6c0-0.5-0.2-1-0.6-1.4c-0.4-0.4-0.8-0.6-1.4-0.6h-53.6c-0.5,0-1,0.2-1.3,0.6
				c-0.4,0.4-0.6,0.9-0.6,1.4v5.3h5v-2.1c0-0.3,0.2-0.5,0.5-0.5h3.5c0.3,0,0.4,0.2,0.4,0.5v2.1h48.3V666.6 M655.5,669.3
				c0,0.3-0.1,0.6-0.4,0.8c-0.2,0.2-0.5,0.4-0.8,0.4c-0.3,0-0.6-0.1-0.8-0.4c-0.2-0.2-0.4-0.5-0.4-0.8c0-0.3,0.1-0.6,0.4-0.8
				c0.2-0.2,0.5-0.3,0.8-0.3c0.3,0,0.6,0.1,0.8,0.3C655.3,668.8,655.5,669,655.5,669.3 M659.8,668.5c0.2,0.2,0.4,0.5,0.4,0.8
				c0,0.3-0.1,0.6-0.4,0.8c-0.2,0.2-0.5,0.4-0.8,0.4s-0.6-0.1-0.8-0.4c-0.2-0.2-0.4-0.5-0.4-0.8c0-0.3,0.1-0.6,0.4-0.8
				c0.2-0.2,0.5-0.3,0.8-0.3S659.6,668.3,659.8,668.5 M662.5,670.1c-0.2-0.2-0.3-0.5-0.3-0.8c0-0.3,0.1-0.6,0.3-0.8
				c0.2-0.2,0.5-0.3,0.8-0.3s0.6,0.1,0.8,0.3c0.2,0.2,0.3,0.5,0.3,0.8c0,0.3-0.1,0.6-0.3,0.8c-0.2,0.2-0.5,0.4-0.8,0.4
				S662.8,670.4,662.5,670.1 M668.9,651c0-0.5-0.2-1-0.6-1.4c-0.4-0.4-0.8-0.6-1.4-0.6h-53.6c-0.5,0-1,0.2-1.3,0.6
				c-0.4,0.4-0.6,0.9-0.6,1.4v9.8c0,0.5,0.2,1,0.6,1.4c0.4,0.4,0.8,0.5,1.3,0.5h53.6c0.6,0,1-0.2,1.4-0.5c0.4-0.4,0.6-0.9,0.6-1.4
				V651 M660.2,653.7c0,0.3-0.1,0.6-0.4,0.8c-0.2,0.2-0.5,0.3-0.8,0.3s-0.6-0.1-0.8-0.3c-0.2-0.2-0.4-0.5-0.4-0.8s0.1-0.6,0.4-0.8
				c0.2-0.2,0.5-0.3,0.8-0.3s0.6,0.1,0.8,0.3C660,653.1,660.2,653.4,660.2,653.7 M662.5,654.5c-0.2-0.2-0.3-0.5-0.3-0.8
				s0.1-0.6,0.3-0.8c0.2-0.2,0.5-0.3,0.8-0.3s0.6,0.1,0.8,0.3c0.2,0.2,0.3,0.5,0.3,0.8s-0.1,0.6-0.3,0.8c-0.2,0.2-0.5,0.3-0.8,0.3
				S662.8,654.7,662.5,654.5 M655.5,653.7c0,0.3-0.1,0.6-0.4,0.8c-0.2,0.2-0.5,0.3-0.8,0.3c-0.3,0-0.6-0.1-0.8-0.3
				c-0.2-0.2-0.4-0.5-0.4-0.8s0.1-0.6,0.4-0.8c0.2-0.2,0.5-0.3,0.8-0.3c0.3,0,0.6,0.1,0.8,0.3C655.3,653.1,655.5,653.4,655.5,653.7
				 M620.6,657.6c0,0.3-0.1,0.5-0.4,0.5h-3.5c-0.3,0-0.5-0.1-0.5-0.5v-3.5c0-0.3,0.2-0.4,0.5-0.4h3.5c0.3,0,0.4,0.1,0.4,0.4V657.6
				 M668.9,635.3c0-0.5-0.2-1-0.6-1.4c-0.4-0.4-0.8-0.6-1.4-0.6h-53.6c-0.5,0-1,0.2-1.3,0.6c-0.4,0.4-0.6,0.9-0.6,1.4v9.8
				c0,0.5,0.2,1,0.6,1.4c0.4,0.4,0.8,0.6,1.3,0.6h53.6c0.5,0,1-0.2,1.4-0.6c0.4-0.4,0.6-0.8,0.6-1.4V635.3 M655.5,638
				c0,0.3-0.1,0.6-0.4,0.8c-0.2,0.2-0.5,0.4-0.8,0.4c-0.3,0-0.6-0.1-0.8-0.4c-0.2-0.2-0.4-0.5-0.4-0.8c0-0.3,0.1-0.6,0.4-0.8
				c0.2-0.2,0.5-0.4,0.8-0.4c0.3,0,0.6,0.1,0.8,0.4S655.5,637.7,655.5,638 M664.5,638c0,0.3-0.1,0.6-0.3,0.8
				c-0.2,0.2-0.5,0.4-0.8,0.4s-0.6-0.1-0.8-0.4c-0.2-0.2-0.3-0.5-0.3-0.8c0-0.3,0.1-0.6,0.3-0.8c0.2-0.2,0.5-0.4,0.8-0.4
				s0.6,0.1,0.8,0.4C664.4,637.4,664.5,637.7,664.5,638 M660.2,638c0,0.3-0.1,0.6-0.4,0.8c-0.2,0.2-0.5,0.4-0.8,0.4
				s-0.6-0.1-0.8-0.4c-0.2-0.2-0.4-0.5-0.4-0.8c0-0.3,0.1-0.6,0.4-0.8c0.2-0.2,0.5-0.4,0.8-0.4s0.6,0.1,0.8,0.4
				C660,637.4,660.2,637.7,660.2,638 M616.8,642.4c-0.3,0-0.5-0.1-0.5-0.4v-3.5c0-0.3,0.2-0.4,0.5-0.4h3.5c0.3,0,0.4,0.1,0.4,0.4
				v3.5c0,0.3-0.1,0.4-0.4,0.4H616.8 M668.9,619.6c0-0.5-0.2-1-0.6-1.4c-0.4-0.4-0.8-0.5-1.4-0.5h-53.6c-0.5,0-1,0.2-1.3,0.5
				c-0.4,0.4-0.6,0.9-0.6,1.4v9.8c0,0.5,0.2,1,0.6,1.4c0.4,0.4,0.8,0.6,1.3,0.6h53.6c0.6,0,1-0.2,1.4-0.6c0.4-0.4,0.6-0.8,0.6-1.4
				V619.6 M664.5,622.3c0,0.3-0.1,0.6-0.3,0.9c-0.2,0.2-0.5,0.3-0.8,0.3s-0.6-0.1-0.8-0.3c-0.2-0.2-0.3-0.5-0.3-0.9
				c0-0.3,0.1-0.6,0.3-0.8c0.2-0.2,0.5-0.3,0.8-0.3s0.6,0.1,0.8,0.3C664.4,621.8,664.5,622,664.5,622.3 M660.2,622.3
				c0,0.3-0.1,0.6-0.4,0.9c-0.2,0.2-0.5,0.3-0.8,0.3s-0.6-0.1-0.8-0.3c-0.2-0.2-0.4-0.5-0.4-0.9c0-0.3,0.1-0.6,0.4-0.8
				c0.2-0.2,0.5-0.3,0.8-0.3s0.6,0.1,0.8,0.3C660,621.8,660.2,622,660.2,622.3 M655.5,622.3c0,0.3-0.1,0.6-0.4,0.9s-0.5,0.3-0.8,0.3
				c-0.3,0-0.6-0.1-0.8-0.3c-0.2-0.2-0.4-0.5-0.4-0.9c0-0.3,0.1-0.6,0.4-0.8c0.2-0.2,0.5-0.3,0.8-0.3c0.3,0,0.6,0.1,0.8,0.3
				S655.5,622,655.5,622.3 M620.6,626.3c0,0.3-0.1,0.4-0.4,0.4h-3.5c-0.3,0-0.5-0.1-0.5-0.4v-3.5c0-0.3,0.2-0.5,0.5-0.5h3.5
				c0.3,0,0.4,0.2,0.4,0.5V626.3 M788.8,653.8c0-1.1-0.4-2-1.1-2.8c-0.8-0.8-1.7-1.2-2.8-1.2H679.5c-1.1,0-2,0.4-2.8,1.2
				s-1.2,1.7-1.2,2.8V672h113.2V653.8 M767.7,657.5c0.5-0.5,1-0.7,1.6-0.7s1.2,0.2,1.6,0.7c0.4,0.4,0.6,1,0.6,1.6
				c0,0.6-0.2,1.2-0.6,1.6c-0.4,0.5-1,0.7-1.6,0.7s-1.2-0.2-1.6-0.7c-0.4-0.4-0.7-1-0.7-1.6C767,658.5,767.3,658,767.7,657.5
				 M760,656.8c0.6,0,1.2,0.2,1.7,0.7c0.4,0.4,0.6,1,0.6,1.6c0,0.6-0.2,1.2-0.6,1.6c-0.5,0.5-1,0.7-1.7,0.7s-1.2-0.2-1.6-0.7
				c-0.4-0.4-0.7-1-0.7-1.6c0-0.6,0.2-1.2,0.7-1.6C758.8,657.1,759.4,656.8,760,656.8 M777.9,656.8c0.6,0,1.2,0.2,1.6,0.7
				c0.5,0.4,0.7,1,0.7,1.6c0,0.6-0.2,1.2-0.7,1.6c-0.4,0.5-1,0.7-1.6,0.7s-1.2-0.2-1.6-0.7c-0.5-0.4-0.7-1-0.7-1.6
				c0-0.6,0.2-1.2,0.7-1.6C776.7,657.1,777.3,656.8,777.9,656.8 M685.3,660c0-0.2,0.1-0.4,0.2-0.5c0.2-0.2,0.4-0.2,0.6-0.2h6.8
				c0.2,0,0.4,0.1,0.6,0.2c0.2,0.1,0.2,0.3,0.2,0.5v6.8c0,0.6-0.3,0.9-0.8,0.9h-6.8c-0.6,0-0.9-0.3-0.9-0.9V660 M797.5,664.6
				c-0.5,0-1,0.2-1.4,0.6c-0.4,0.4-0.5,0.8-0.5,1.4v5.3h5v-2.1c0-0.3,0.1-0.5,0.4-0.5h3.5c0.3,0,0.4,0.2,0.4,0.5v2.1H853v-5.3
				c0-0.6-0.2-1-0.5-1.4c-0.4-0.4-0.9-0.6-1.4-0.6H797.5 M839.5,669.3c0,0.3-0.1,0.6-0.3,0.8c-0.2,0.2-0.5,0.4-0.8,0.4
				c-0.3,0-0.6-0.1-0.8-0.4c-0.2-0.2-0.3-0.5-0.3-0.8c0-0.3,0.1-0.6,0.3-0.8c0.2-0.2,0.5-0.3,0.8-0.3c0.3,0,0.6,0.1,0.8,0.3
				C839.4,668.8,839.5,669,839.5,669.3 M844.3,669.3c0,0.3-0.1,0.6-0.3,0.8c-0.2,0.2-0.5,0.4-0.8,0.4c-0.3,0-0.6-0.1-0.9-0.4
				c-0.2-0.2-0.3-0.5-0.3-0.8c0-0.3,0.1-0.6,0.3-0.8c0.2-0.2,0.5-0.3,0.9-0.3c0.3,0,0.6,0.1,0.8,0.3
				C844.2,668.8,844.3,669,844.3,669.3 M848.7,669.3c0,0.3-0.1,0.6-0.4,0.8c-0.2,0.2-0.5,0.4-0.8,0.4s-0.6-0.1-0.8-0.4
				c-0.2-0.2-0.4-0.5-0.4-0.8c0-0.3,0.1-0.6,0.4-0.8c0.2-0.2,0.5-0.3,0.8-0.3s0.6,0.1,0.8,0.3C848.5,668.8,848.7,669,848.7,669.3
				 M797.5,649c-0.5,0-1,0.2-1.4,0.6c-0.4,0.4-0.5,0.8-0.5,1.4v9.8c0,0.6,0.2,1,0.5,1.4c0.4,0.4,0.9,0.5,1.4,0.5H851
				c0.6,0,1-0.2,1.4-0.5c0.4-0.4,0.5-0.8,0.5-1.4V651c0-0.6-0.2-1-0.5-1.4c-0.4-0.4-0.9-0.6-1.4-0.6H797.5 M804.8,654.1v3.5
				c0,0.3-0.1,0.5-0.4,0.5h-3.5c-0.3,0-0.4-0.1-0.4-0.5v-3.5c0-0.3,0.1-0.4,0.4-0.4h3.5C804.6,653.8,804.8,653.9,804.8,654.1
				 M844,652.9c0.2,0.2,0.3,0.5,0.3,0.8s-0.1,0.6-0.3,0.8c-0.2,0.2-0.5,0.3-0.8,0.3c-0.3,0-0.6-0.1-0.9-0.3
				c-0.2-0.2-0.3-0.5-0.3-0.8s0.1-0.6,0.3-0.8c0.2-0.2,0.5-0.3,0.9-0.3C843.5,652.5,843.8,652.7,844,652.9 M848.7,653.7
				c0,0.3-0.1,0.6-0.4,0.8c-0.2,0.2-0.5,0.3-0.8,0.3s-0.6-0.1-0.8-0.3c-0.2-0.2-0.4-0.5-0.4-0.8c0-0.3,0.1-0.6,0.4-0.8
				c0.2-0.2,0.5-0.3,0.8-0.3s0.6,0.1,0.8,0.3C848.5,653.1,848.7,653.4,848.7,653.7 M839.5,653.7c0,0.3-0.1,0.6-0.3,0.8
				c-0.2,0.2-0.5,0.3-0.8,0.3c-0.3,0-0.6-0.1-0.8-0.3c-0.2-0.2-0.3-0.5-0.3-0.8s0.1-0.6,0.3-0.8c0.2-0.2,0.5-0.3,0.8-0.3
				c0.3,0,0.6,0.1,0.8,0.3C839.4,653.1,839.5,653.4,839.5,653.7 M796,634c-0.4,0.4-0.5,0.8-0.5,1.4v9.8c0,0.5,0.2,1,0.5,1.4
				c0.4,0.4,0.9,0.6,1.4,0.6H851c0.5,0,1-0.2,1.4-0.6c0.4-0.4,0.5-0.8,0.5-1.4v-9.8c0-0.6-0.2-1-0.5-1.4c-0.4-0.4-0.9-0.6-1.4-0.6
				h-53.6C796.9,633.3,796.5,633.5,796,634 M804.8,642c0,0.3-0.1,0.4-0.4,0.4h-3.5c-0.3,0-0.4-0.1-0.4-0.4v-3.5
				c0-0.3,0.1-0.4,0.4-0.4h3.5c0.3,0,0.4,0.1,0.4,0.4V642 M839.5,638c0,0.3-0.1,0.6-0.3,0.8c-0.2,0.2-0.5,0.4-0.8,0.4
				c-0.3,0-0.6-0.1-0.8-0.4c-0.2-0.2-0.3-0.5-0.3-0.8c0-0.3,0.1-0.6,0.3-0.8c0.2-0.2,0.5-0.4,0.8-0.4c0.3,0,0.6,0.1,0.8,0.4
				C839.4,637.4,839.5,637.7,839.5,638 M848.7,638c0,0.3-0.1,0.6-0.4,0.8c-0.2,0.2-0.5,0.4-0.8,0.4s-0.6-0.1-0.8-0.4
				c-0.2-0.2-0.4-0.5-0.4-0.8c0-0.3,0.1-0.6,0.4-0.8c0.2-0.2,0.5-0.4,0.8-0.4s0.6,0.1,0.8,0.4C848.5,637.4,848.7,637.7,848.7,638
				 M844.3,638c0,0.3-0.1,0.6-0.3,0.8c-0.2,0.2-0.5,0.4-0.8,0.4c-0.3,0-0.6-0.1-0.9-0.4c-0.2-0.2-0.3-0.5-0.3-0.8
				c0-0.3,0.1-0.6,0.3-0.8c0.2-0.2,0.5-0.4,0.9-0.4c0.3,0,0.6,0.1,0.8,0.4C844.2,637.4,844.3,637.7,844.3,638 M787.7,620.2
				c-0.8-0.8-1.7-1.2-2.8-1.2H679.5c-1.1,0-2,0.4-2.8,1.2c-0.8,0.8-1.2,1.7-1.2,2.8v19.3c0,1.1,0.4,2,1.2,2.8s1.7,1.2,2.8,1.2h105.4
				c1.1,0,2-0.4,2.8-1.2c0.7-0.8,1.1-1.7,1.1-2.8V623C788.8,621.9,788.4,621,787.7,620.2 M777.9,626c0.6,0,1.2,0.2,1.6,0.7
				c0.5,0.5,0.7,1,0.7,1.6c0,0.6-0.2,1.2-0.7,1.6c-0.4,0.4-1,0.6-1.6,0.6s-1.2-0.2-1.6-0.6c-0.5-0.4-0.7-1-0.7-1.6
				c0-0.6,0.2-1.2,0.7-1.6C776.7,626.3,777.3,626,777.9,626 M771.6,628.3c0,0.6-0.2,1.2-0.6,1.6c-0.4,0.4-1,0.6-1.6,0.6
				s-1.2-0.2-1.6-0.6c-0.4-0.4-0.7-1-0.7-1.6c0-0.6,0.2-1.2,0.7-1.6c0.5-0.4,1-0.7,1.6-0.7s1.2,0.2,1.6,0.7
				C771.4,627.2,771.6,627.7,771.6,628.3 M760,626c0.7,0,1.2,0.2,1.7,0.7c0.4,0.5,0.6,1,0.6,1.6c0,0.6-0.2,1.2-0.6,1.6
				c-0.5,0.4-1,0.6-1.7,0.6s-1.2-0.2-1.6-0.6c-0.4-0.4-0.7-1-0.7-1.6c0-0.6,0.2-1.2,0.7-1.6C758.8,626.3,759.4,626,760,626
				 M693.8,629.2v6.8c0,0.6-0.3,0.8-0.8,0.8h-6.8c-0.6,0-0.9-0.3-0.9-0.8v-6.8c0-0.2,0.1-0.4,0.2-0.5c0.2-0.2,0.4-0.2,0.6-0.2h6.8
				c0.2,0,0.4,0.1,0.6,0.2C693.8,628.8,693.8,629,693.8,629.2 M796,618.2c-0.4,0.4-0.5,0.9-0.5,1.4v9.8c0,0.6,0.2,1,0.5,1.4
				c0.4,0.4,0.9,0.6,1.4,0.6H851c0.5,0,1-0.2,1.4-0.6c0.4-0.4,0.5-0.8,0.5-1.4v-9.8c0-0.5-0.2-1-0.5-1.4c-0.4-0.4-0.8-0.5-1.4-0.5
				h-53.6C796.9,617.7,796.5,617.9,796,618.2 M804.8,622.8v3.5c0,0.3-0.1,0.4-0.4,0.4h-3.5c-0.3,0-0.4-0.1-0.4-0.4v-3.5
				c0-0.3,0.1-0.5,0.4-0.5h3.5C804.6,622.4,804.8,622.5,804.8,622.8 M848.3,621.5c0.2,0.2,0.4,0.5,0.4,0.8c0,0.3-0.1,0.6-0.4,0.9
				c-0.2,0.2-0.5,0.3-0.8,0.3s-0.6-0.1-0.8-0.3c-0.2-0.2-0.4-0.5-0.4-0.9c0-0.3,0.1-0.6,0.4-0.8c0.2-0.2,0.5-0.3,0.8-0.3
				S848.1,621.3,848.3,621.5 M844.3,622.3c0,0.3-0.1,0.6-0.3,0.9c-0.2,0.2-0.5,0.3-0.8,0.3c-0.3,0-0.6-0.1-0.9-0.3
				c-0.2-0.2-0.3-0.5-0.3-0.9c0-0.3,0.1-0.6,0.3-0.8c0.2-0.2,0.5-0.3,0.9-0.3c0.3,0,0.6,0.1,0.8,0.3
				C844.2,621.8,844.3,622,844.3,622.3 M839.5,622.3c0,0.3-0.1,0.6-0.3,0.9c-0.2,0.2-0.5,0.3-0.8,0.3c-0.3,0-0.6-0.1-0.8-0.3
				c-0.2-0.2-0.3-0.5-0.3-0.9c0-0.3,0.1-0.6,0.3-0.8c0.2-0.2,0.5-0.3,0.8-0.3c0.3,0,0.6,0.1,0.8,0.3
				C839.4,621.8,839.5,622,839.5,622.3 M679.5,588.3c-1.1,0-2,0.4-2.8,1.2s-1.2,1.7-1.2,2.8v19.3c0,1.1,0.4,2,1.2,2.8
				c0.8,0.8,1.7,1.1,2.8,1.1h105.4c1.1,0,2-0.4,2.8-1.1c0.7-0.8,1.1-1.7,1.1-2.8v-19.3c0-1.1-0.4-2-1.1-2.8
				c-0.8-0.8-1.7-1.2-2.8-1.2H679.5 M767.7,595.9c0.5-0.4,1-0.6,1.6-0.6s1.2,0.2,1.6,0.6c0.4,0.5,0.6,1,0.6,1.7
				c0,0.6-0.2,1.2-0.6,1.6c-0.4,0.4-1,0.7-1.6,0.7s-1.2-0.2-1.6-0.7c-0.4-0.4-0.7-1-0.7-1.6S767.3,596.4,767.7,595.9 M758.4,595.9
				c0.4-0.4,1-0.6,1.6-0.6c0.7,0,1.2,0.2,1.7,0.6c0.4,0.5,0.6,1,0.6,1.7s-0.2,1.2-0.6,1.6c-0.5,0.4-1,0.7-1.7,0.7s-1.2-0.2-1.6-0.7
				c-0.4-0.4-0.7-1-0.7-1.6S758,596.4,758.4,595.9 M776.3,595.9c0.4-0.4,1-0.6,1.6-0.6s1.2,0.2,1.6,0.6c0.5,0.5,0.7,1,0.7,1.7
				s-0.2,1.2-0.7,1.6c-0.4,0.4-1,0.7-1.6,0.7s-1.2-0.2-1.6-0.7c-0.5-0.4-0.7-1-0.7-1.6C775.6,596.9,775.8,596.4,776.3,595.9
				 M693.8,598.5v6.8c0,0.2-0.1,0.4-0.2,0.6c-0.2,0.2-0.4,0.2-0.6,0.2h-6.8c-0.2,0-0.4-0.1-0.6-0.2c-0.2-0.2-0.3-0.4-0.2-0.6v-6.8
				c0-0.2,0.1-0.4,0.2-0.6c0.2-0.2,0.4-0.2,0.6-0.2h6.8c0.2,0,0.4,0.1,0.6,0.2C693.8,598,693.8,598.2,693.8,598.5z"/>
		</g>
	</g>
</g>
<g transform="matrix( 1, 0, 0, 1, 0,-7) ">
	<g>
		<g id="Layer0_1_FILL">
			<path fill="#666666" d="M7.8,94.9V97h4.3v-2.1c0-0.3-0.1-0.4-0.4-0.4H8.1C7.9,94.4,7.8,94.6,7.8,94.9 M11.6,67.4
				c0.3,0,0.4-0.2,0.4-0.5v-3.4c0-0.3-0.1-0.4-0.4-0.4H8.1c-0.3,0-0.4,0.1-0.4,0.4V67c0,0.3,0.1,0.5,0.4,0.5H11.6 M84.4,92.7
				c0.5,0,0.8-0.3,0.8-0.8v-6.8c0-0.5-0.3-0.8-0.8-0.8h-6.8c-0.6,0-0.8,0.3-0.8,0.8v6.8c0,0.6,0.3,0.8,0.8,0.8H84.4 M85,30.9
				c0.2-0.2,0.2-0.4,0.2-0.6v-6.8c0-0.2-0.1-0.4-0.2-0.6c-0.1-0.2-0.3-0.2-0.6-0.2h-6.8c-0.2,0-0.4,0.1-0.6,0.2
				c-0.2,0.2-0.2,0.4-0.2,0.6v6.8c0,0.6,0.3,0.9,0.8,0.9h6.8C84.7,31.1,84.9,31.1,85,30.9 M195.8,83.1c0.3,0,0.4-0.2,0.4-0.5v-3.4
				c0-0.3-0.1-0.4-0.4-0.4h-3.4c-0.3,0-0.4,0.1-0.4,0.4v3.4c0,0.3,0.1,0.5,0.4,0.5H195.8 M195.8,51.7c0.3,0,0.4-0.1,0.4-0.4v-3.5
				c0-0.3-0.1-0.4-0.4-0.4h-3.4c-0.3,0-0.4,0.1-0.4,0.4v3.5c0,0.3,0.1,0.4,0.4,0.4H195.8 M254.6,94.9V97h4.3v-2.1
				c0-0.3-0.1-0.4-0.4-0.4h-3.4C254.8,94.4,254.6,94.6,254.6,94.9 M258.5,67.4c0.3,0,0.4-0.2,0.4-0.5v-3.4c0-0.3-0.1-0.4-0.4-0.4
				h-3.4c-0.3,0-0.4,0.1-0.4,0.4V67c0,0.3,0.1,0.5,0.4,0.5H258.5 M331.3,92.7c0.5,0,0.8-0.3,0.8-0.8v-6.8c0-0.5-0.3-0.8-0.8-0.8
				h-6.8c-0.2,0-0.4,0.1-0.6,0.2c-0.2,0.1-0.2,0.3-0.2,0.6v6.8c0,0.6,0.3,0.8,0.9,0.8H331.3 M331.9,30.9c0.2-0.2,0.2-0.4,0.2-0.6
				v-6.8c0-0.2-0.1-0.4-0.2-0.6c-0.1-0.2-0.3-0.2-0.6-0.2h-6.8c-0.2,0-0.4,0.1-0.6,0.2c-0.2,0.2-0.2,0.4-0.2,0.6v6.8
				c0,0.2,0.1,0.4,0.2,0.6c0.2,0.2,0.4,0.2,0.6,0.2h6.8C331.5,31.1,331.7,31.1,331.9,30.9 M442.6,83.1c0.3,0,0.4-0.2,0.4-0.5v-3.4
				c0-0.3-0.1-0.4-0.4-0.4h-3.5c-0.3,0-0.4,0.1-0.4,0.4v3.4c0,0.3,0.1,0.5,0.4,0.5H442.6 M442.6,51.7c0.3,0,0.4-0.1,0.4-0.4v-3.5
				c0-0.3-0.1-0.4-0.4-0.4h-3.5c-0.3,0-0.4,0.1-0.4,0.4v3.5c0,0.3,0.1,0.4,0.4,0.4H442.6 M501.5,94.9V97h4.3v-2.1
				c0-0.3-0.1-0.4-0.4-0.4h-3.5C501.6,94.4,501.5,94.6,501.5,94.9 M505.4,67.4c0.3,0,0.4-0.2,0.4-0.5v-3.4c0-0.3-0.1-0.4-0.4-0.4
				h-3.5c-0.3,0-0.4,0.1-0.4,0.4V67c0,0.3,0.1,0.5,0.4,0.5H505.4 M578.2,61.9c0.6,0,0.8-0.3,0.8-0.9v-6.8c0-0.2-0.1-0.4-0.2-0.5
				c-0.2-0.2-0.4-0.2-0.6-0.2h-6.8c-0.2,0-0.4,0.1-0.6,0.2c-0.2,0.1-0.2,0.3-0.2,0.5v6.8c0,0.6,0.3,0.9,0.8,0.9H578.2 M685.6,82.6
				c0,0.3,0.1,0.5,0.4,0.5h3.5c0.3,0,0.4-0.2,0.4-0.5v-3.4c0-0.3-0.1-0.4-0.4-0.4H686c-0.3,0-0.4,0.1-0.4,0.4V82.6 M689.5,51.7
				c0.3,0,0.4-0.1,0.4-0.4v-3.5c0-0.3-0.1-0.4-0.4-0.4H686c-0.3,0-0.4,0.1-0.4,0.4v3.5c0,0.3,0.1,0.4,0.4,0.4H689.5z"/>
		</g>
	</g>
</g>
<g transform="matrix( 1, 0, 0, 1, -114.85,-581.95) ">
	<g>
		<g id="Layer0_2_FILL">
			<path fill="#999999" d="M514.8,630c0.4-0.4,0.7-1,0.7-1.6c0-0.6-0.2-1.2-0.7-1.6c-0.4-0.4-1-0.7-1.6-0.7c-0.6,0-1.2,0.2-1.6,0.7
				c-0.4,0.5-0.6,1-0.6,1.6c0,0.6,0.2,1.2,0.6,1.6c0.4,0.4,1,0.6,1.6,0.6C513.8,630.6,514.3,630.4,514.8,630 M524.1,630
				c0.4-0.4,0.7-1,0.7-1.6c0-0.6-0.2-1.2-0.7-1.6c-0.4-0.4-1-0.7-1.6-0.7s-1.2,0.2-1.7,0.7c-0.4,0.5-0.6,1-0.6,1.6
				c0,0.6,0.2,1.2,0.6,1.6c0.5,0.4,1,0.6,1.7,0.6S523.7,630.4,524.1,630 M532.7,630c0.5-0.4,0.7-1,0.7-1.6c0-0.6-0.2-1.2-0.7-1.6
				c-0.4-0.4-1-0.7-1.6-0.7c-0.6,0-1.2,0.2-1.6,0.7c-0.5,0.5-0.7,1-0.7,1.6c0,0.6,0.2,1.2,0.7,1.6c0.4,0.4,1,0.6,1.6,0.6
				C531.7,630.6,532.2,630.4,532.7,630 M596.3,654.8c0.3,0,0.6-0.1,0.8-0.3c0.2-0.2,0.4-0.5,0.4-0.8s-0.1-0.6-0.4-0.8
				c-0.2-0.2-0.5-0.3-0.8-0.3c-0.3,0-0.6,0.1-0.8,0.3c-0.2,0.2-0.4,0.5-0.4,0.8s0.1,0.6,0.4,0.8C595.7,654.7,596,654.8,596.3,654.8
				 M590.8,654.5c0.2,0.2,0.5,0.3,0.8,0.3c0.3,0,0.6-0.1,0.8-0.3c0.2-0.2,0.4-0.5,0.4-0.8s-0.1-0.6-0.4-0.8
				c-0.2-0.2-0.5-0.3-0.8-0.3c-0.3,0-0.6,0.1-0.8,0.3c-0.2,0.2-0.3,0.5-0.3,0.8S590.5,654.3,590.8,654.5 M601.5,654.5
				c0.2-0.2,0.3-0.5,0.3-0.8s-0.1-0.6-0.3-0.8c-0.2-0.2-0.5-0.3-0.8-0.3s-0.6,0.1-0.9,0.3c-0.2,0.2-0.3,0.5-0.3,0.8s0.1,0.6,0.3,0.8
				c0.2,0.2,0.5,0.3,0.9,0.3S601.2,654.7,601.5,654.5 M595.5,623.2c0.2,0.2,0.5,0.3,0.8,0.3c0.3,0,0.6-0.1,0.8-0.3s0.4-0.5,0.4-0.9
				c0-0.3-0.1-0.6-0.4-0.8s-0.5-0.3-0.8-0.3c-0.3,0-0.6,0.1-0.8,0.3c-0.2,0.2-0.4,0.5-0.4,0.8C595.1,622.7,595.2,623,595.5,623.2
				 M592.7,622.3c0-0.3-0.1-0.6-0.4-0.8c-0.2-0.2-0.5-0.3-0.8-0.3c-0.3,0-0.6,0.1-0.8,0.3c-0.2,0.2-0.3,0.5-0.3,0.8
				c0,0.3,0.1,0.6,0.3,0.9c0.2,0.2,0.5,0.3,0.8,0.3c0.3,0,0.6-0.1,0.8-0.3C592.6,623,592.7,622.7,592.7,622.3 M601.5,623.2
				c0.2-0.2,0.3-0.5,0.3-0.9c0-0.3-0.1-0.6-0.3-0.8c-0.2-0.2-0.5-0.3-0.8-0.3s-0.6,0.1-0.9,0.3c-0.2,0.2-0.3,0.5-0.3,0.8
				c0,0.3,0.1,0.6,0.3,0.9c0.2,0.2,0.5,0.3,0.9,0.3S601.2,623.4,601.5,623.2 M348.2,653.7c0,0.3,0.1,0.6,0.4,0.8
				c0.2,0.2,0.5,0.3,0.8,0.3c0.3,0,0.6-0.1,0.9-0.3c0.2-0.2,0.4-0.5,0.4-0.8s-0.1-0.6-0.4-0.8c-0.2-0.2-0.5-0.3-0.9-0.3
				c-0.3,0-0.6,0.1-0.8,0.3C348.4,653.1,348.2,653.4,348.2,653.7 M345.9,653.7c0-0.3-0.1-0.6-0.4-0.8c-0.2-0.2-0.5-0.3-0.8-0.3
				c-0.3,0-0.6,0.1-0.8,0.3c-0.2,0.2-0.4,0.5-0.4,0.8c0,0.3,0.1,0.6,0.4,0.8c0.2,0.2,0.5,0.3,0.8,0.3c0.3,0,0.6-0.1,0.8-0.3
				C345.7,654.3,345.9,654,345.9,653.7 M354.6,654.5c0.2-0.2,0.4-0.5,0.4-0.8c0-0.3-0.1-0.6-0.4-0.8c-0.2-0.2-0.5-0.3-0.8-0.3
				c-0.3,0-0.6,0.1-0.8,0.3c-0.2,0.2-0.4,0.5-0.4,0.8s0.1,0.6,0.4,0.8c0.2,0.2,0.5,0.3,0.8,0.3C354.1,654.8,354.4,654.7,354.6,654.5
				 M349.4,623.5c0.3,0,0.6-0.1,0.9-0.3s0.4-0.5,0.4-0.9c0-0.3-0.1-0.6-0.4-0.8s-0.5-0.3-0.9-0.3c-0.3,0-0.6,0.1-0.8,0.3
				s-0.4,0.5-0.4,0.8c0,0.3,0.1,0.6,0.4,0.9S349.1,623.5,349.4,623.5 M355,622.3c0-0.3-0.1-0.6-0.4-0.8s-0.5-0.3-0.8-0.3
				c-0.3,0-0.6,0.1-0.8,0.3s-0.4,0.5-0.4,0.8c0,0.3,0.1,0.6,0.4,0.9s0.5,0.3,0.8,0.3c0.3,0,0.6-0.1,0.8-0.3S355,622.7,355,622.3
				 M343.5,622.3c0,0.3,0.1,0.6,0.4,0.9c0.2,0.2,0.5,0.3,0.8,0.3c0.3,0,0.6-0.1,0.8-0.3c0.2-0.2,0.4-0.5,0.4-0.9
				c0-0.3-0.1-0.6-0.4-0.8c-0.2-0.2-0.5-0.3-0.8-0.3c-0.3,0-0.6,0.1-0.8,0.3C343.7,621.8,343.5,622,343.5,622.3 M417.3,670.1
				c0.2-0.2,0.4-0.5,0.4-0.8c0-0.3-0.1-0.6-0.4-0.8c-0.2-0.2-0.5-0.3-0.8-0.3s-0.6,0.1-0.8,0.3c-0.2,0.2-0.4,0.5-0.4,0.8
				c0,0.3,0.1,0.6,0.4,0.8c0.2,0.2,0.5,0.4,0.8,0.4S417.1,670.4,417.3,670.1 M413,670.1c0.2-0.2,0.3-0.5,0.3-0.8
				c0-0.3-0.1-0.6-0.3-0.8c-0.2-0.2-0.5-0.3-0.8-0.3c-0.3,0-0.6,0.1-0.8,0.3c-0.2,0.2-0.4,0.5-0.4,0.8c0,0.3,0.1,0.6,0.4,0.8
				c0.2,0.2,0.5,0.4,0.8,0.4C412.5,670.5,412.8,670.4,413,670.1 M408.2,670.1c0.2-0.2,0.3-0.5,0.3-0.8c0-0.3-0.1-0.6-0.3-0.8
				c-0.2-0.2-0.5-0.3-0.8-0.3c-0.3,0-0.6,0.1-0.8,0.3c-0.2,0.2-0.4,0.5-0.4,0.8c0,0.3,0.1,0.6,0.4,0.8c0.2,0.2,0.5,0.4,0.8,0.4
				C407.7,670.5,408,670.4,408.2,670.1 M417.3,638.8c0.2-0.2,0.4-0.5,0.4-0.8c0-0.3-0.1-0.6-0.4-0.8c-0.2-0.2-0.5-0.4-0.8-0.4
				s-0.6,0.1-0.8,0.4c-0.2,0.2-0.4,0.5-0.4,0.8c0,0.3,0.1,0.6,0.4,0.8c0.2,0.2,0.5,0.4,0.8,0.4S417.1,639.1,417.3,638.8
				 M408.2,638.8c0.2-0.2,0.3-0.5,0.3-0.8c0-0.3-0.1-0.6-0.3-0.8c-0.2-0.2-0.5-0.4-0.8-0.4c-0.3,0-0.6,0.1-0.8,0.4
				c-0.2,0.2-0.4,0.5-0.4,0.8c0,0.3,0.1,0.6,0.4,0.8c0.2,0.2,0.5,0.4,0.8,0.4C407.7,639.2,408,639.1,408.2,638.8 M413,638.8
				c0.2-0.2,0.3-0.5,0.3-0.8c0-0.3-0.1-0.6-0.3-0.8c-0.2-0.2-0.5-0.4-0.8-0.4c-0.3,0-0.6,0.1-0.8,0.4c-0.2,0.2-0.4,0.5-0.4,0.8
				c0,0.3,0.1,0.6,0.4,0.8c0.2,0.2,0.5,0.4,0.8,0.4C412.5,639.2,412.8,639.1,413,638.8 M170.4,670.1c0.2-0.2,0.4-0.5,0.4-0.8
				c0-0.3-0.1-0.6-0.4-0.8c-0.2-0.2-0.5-0.3-0.8-0.3s-0.6,0.1-0.8,0.3c-0.2,0.2-0.4,0.5-0.4,0.8c0,0.3,0.1,0.6,0.4,0.8
				c0.2,0.2,0.5,0.4,0.8,0.4S170.2,670.4,170.4,670.1 M166.1,670.1c0.2-0.2,0.3-0.5,0.3-0.8c0-0.3-0.1-0.6-0.3-0.8
				c-0.2-0.2-0.5-0.3-0.8-0.3c-0.3,0-0.6,0.1-0.8,0.3c-0.2,0.2-0.4,0.5-0.4,0.8c0,0.3,0.1,0.6,0.4,0.8c0.2,0.2,0.5,0.4,0.8,0.4
				C165.6,670.5,165.9,670.4,166.1,670.1 M166.1,638.8c0.2-0.2,0.3-0.5,0.3-0.8c0-0.3-0.1-0.6-0.3-0.8c-0.2-0.2-0.5-0.4-0.8-0.4
				c-0.3,0-0.6,0.1-0.8,0.4c-0.2,0.2-0.4,0.5-0.4,0.8c0,0.3,0.1,0.6,0.4,0.8c0.2,0.2,0.5,0.4,0.8,0.4
				C165.6,639.2,165.9,639.1,166.1,638.8 M170.4,638.8c0.2-0.2,0.4-0.5,0.4-0.8c0-0.3-0.1-0.6-0.4-0.8c-0.2-0.2-0.5-0.4-0.8-0.4
				s-0.6,0.1-0.8,0.4c-0.2,0.2-0.4,0.5-0.4,0.8c0,0.3,0.1,0.6,0.4,0.8c0.2,0.2,0.5,0.4,0.8,0.4S170.2,639.1,170.4,638.8
				 M281.9,659.1c0,0.6,0.2,1.2,0.7,1.6c0.4,0.5,1,0.7,1.6,0.7s1.2-0.2,1.6-0.7c0.5-0.4,0.7-1,0.7-1.6c0-0.6-0.2-1.2-0.7-1.6
				c-0.4-0.5-1-0.7-1.6-0.7s-1.2,0.2-1.6,0.7C282.1,658,281.9,658.5,281.9,659.1 M266.3,656.8c-0.6,0-1.2,0.2-1.6,0.7
				c-0.5,0.4-0.7,1-0.7,1.6c0,0.6,0.2,1.2,0.7,1.6c0.4,0.5,1,0.7,1.6,0.7s1.2-0.2,1.6-0.7c0.5-0.4,0.7-1,0.7-1.6
				c0-0.6-0.2-1.2-0.7-1.6C267.5,657.1,266.9,656.8,266.3,656.8 M275.6,656.8c-0.6,0-1.2,0.2-1.6,0.7c-0.4,0.4-0.6,1-0.6,1.6
				c0,0.6,0.2,1.2,0.6,1.6c0.4,0.5,1,0.7,1.6,0.7c0.6,0,1.2-0.2,1.6-0.7c0.4-0.4,0.6-1,0.6-1.6c0-0.6-0.2-1.2-0.6-1.6
				C276.8,657.1,276.2,656.8,275.6,656.8 M161.4,670.1c0.2-0.2,0.3-0.5,0.3-0.8c0-0.3-0.1-0.6-0.3-0.8c-0.2-0.2-0.5-0.3-0.8-0.3
				c-0.3,0-0.6,0.1-0.8,0.3c-0.2,0.2-0.4,0.5-0.4,0.8c0,0.3,0.1,0.6,0.4,0.8c0.2,0.2,0.5,0.4,0.8,0.4
				C160.9,670.5,161.2,670.4,161.4,670.1 M161.4,638.8c0.2-0.2,0.3-0.5,0.3-0.8c0-0.3-0.1-0.6-0.3-0.8c-0.2-0.2-0.5-0.4-0.8-0.4
				c-0.3,0-0.6,0.1-0.8,0.4c-0.2,0.2-0.4,0.5-0.4,0.8c0,0.3,0.1,0.6,0.4,0.8c0.2,0.2,0.5,0.4,0.8,0.4
				C160.9,639.2,161.2,639.1,161.4,638.8 M285.8,595.9c-0.4-0.4-1-0.6-1.6-0.6s-1.2,0.2-1.6,0.6c-0.5,0.5-0.7,1-0.7,1.7
				s0.2,1.2,0.7,1.6c0.4,0.4,1,0.7,1.6,0.7s1.2-0.2,1.6-0.7c0.5-0.4,0.7-1,0.7-1.6S286.3,596.4,285.8,595.9 M275.6,595.2
				c-0.6,0-1.2,0.2-1.6,0.6c-0.4,0.5-0.6,1-0.6,1.7s0.2,1.2,0.6,1.6c0.4,0.4,1,0.7,1.6,0.7c0.6,0,1.2-0.2,1.6-0.7
				c0.4-0.4,0.6-1,0.6-1.6s-0.2-1.2-0.6-1.7C276.8,595.5,276.3,595.2,275.6,595.2 M266.3,595.2c-0.6,0-1.2,0.2-1.6,0.6
				c-0.5,0.5-0.7,1-0.7,1.7s0.2,1.2,0.7,1.6c0.4,0.4,1,0.7,1.6,0.7s1.2-0.2,1.6-0.7c0.5-0.4,0.7-1,0.7-1.6s-0.2-1.2-0.7-1.7
				C267.5,595.5,266.9,595.2,266.3,595.2 M839.2,654.5c0.2-0.2,0.3-0.5,0.3-0.8s-0.1-0.6-0.3-0.8c-0.2-0.2-0.5-0.3-0.8-0.3
				c-0.3,0-0.6,0.1-0.8,0.3c-0.2,0.2-0.3,0.5-0.3,0.8s0.1,0.6,0.3,0.8c0.2,0.2,0.5,0.3,0.8,0.3C838.7,654.8,839,654.7,839.2,654.5
				 M848.3,654.5c0.2-0.2,0.4-0.5,0.4-0.8c0-0.3-0.1-0.6-0.4-0.8c-0.2-0.2-0.5-0.3-0.8-0.3s-0.6,0.1-0.8,0.3
				c-0.2,0.2-0.4,0.5-0.4,0.8c0,0.3,0.1,0.6,0.4,0.8c0.2,0.2,0.5,0.3,0.8,0.3S848.1,654.7,848.3,654.5 M844,654.5
				c0.2-0.2,0.3-0.5,0.3-0.8s-0.1-0.6-0.3-0.8c-0.2-0.2-0.5-0.3-0.8-0.3c-0.3,0-0.6,0.1-0.9,0.3c-0.2,0.2-0.3,0.5-0.3,0.8
				s0.1,0.6,0.3,0.8c0.2,0.2,0.5,0.3,0.9,0.3C843.5,654.8,843.8,654.7,844,654.5 M839.2,623.2c0.2-0.2,0.3-0.5,0.3-0.9
				c0-0.3-0.1-0.6-0.3-0.8c-0.2-0.2-0.5-0.3-0.8-0.3c-0.3,0-0.6,0.1-0.8,0.3c-0.2,0.2-0.3,0.5-0.3,0.8c0,0.3,0.1,0.6,0.3,0.9
				c0.2,0.2,0.5,0.3,0.8,0.3C838.7,623.5,839,623.4,839.2,623.2 M844,623.2c0.2-0.2,0.3-0.5,0.3-0.9c0-0.3-0.1-0.6-0.3-0.8
				c-0.2-0.2-0.5-0.3-0.8-0.3c-0.3,0-0.6,0.1-0.9,0.3c-0.2,0.2-0.3,0.5-0.3,0.8c0,0.3,0.1,0.6,0.3,0.9c0.2,0.2,0.5,0.3,0.9,0.3
				C843.5,623.5,843.8,623.4,844,623.2 M848.3,623.2c0.2-0.2,0.4-0.5,0.4-0.9c0-0.3-0.1-0.6-0.4-0.8c-0.2-0.2-0.5-0.3-0.8-0.3
				s-0.6,0.1-0.8,0.3c-0.2,0.2-0.4,0.5-0.4,0.8c0,0.3,0.1,0.6,0.4,0.9c0.2,0.2,0.5,0.3,0.8,0.3S848.1,623.4,848.3,623.2
				 M662.2,669.3c0,0.3,0.1,0.6,0.3,0.8c0.2,0.2,0.5,0.4,0.8,0.4s0.6-0.1,0.8-0.4c0.2-0.2,0.3-0.5,0.3-0.8c0-0.3-0.1-0.6-0.3-0.8
				c-0.2-0.2-0.5-0.3-0.8-0.3s-0.6,0.1-0.8,0.3C662.3,668.8,662.2,669,662.2,669.3 M660.2,669.3c0-0.3-0.1-0.6-0.4-0.8
				c-0.2-0.2-0.5-0.3-0.8-0.3s-0.6,0.1-0.8,0.3c-0.2,0.2-0.4,0.5-0.4,0.8c0,0.3,0.1,0.6,0.4,0.8c0.2,0.2,0.5,0.4,0.8,0.4
				s0.6-0.1,0.8-0.4C660,669.9,660.2,669.7,660.2,669.3 M655.1,670.1c0.2-0.2,0.4-0.5,0.4-0.8c0-0.3-0.1-0.6-0.4-0.8
				c-0.2-0.2-0.5-0.3-0.8-0.3c-0.3,0-0.6,0.1-0.8,0.3c-0.2,0.2-0.4,0.5-0.4,0.8c0,0.3,0.1,0.6,0.4,0.8c0.2,0.2,0.5,0.4,0.8,0.4
				C654.6,670.5,654.9,670.4,655.1,670.1 M659.8,638.8c0.2-0.2,0.4-0.5,0.4-0.8c0-0.3-0.1-0.6-0.4-0.8c-0.2-0.2-0.5-0.4-0.8-0.4
				s-0.6,0.1-0.8,0.4c-0.2,0.2-0.4,0.5-0.4,0.8c0,0.3,0.1,0.6,0.4,0.8c0.2,0.2,0.5,0.4,0.8,0.4S659.6,639.1,659.8,638.8
				 M664.2,638.8c0.2-0.2,0.3-0.5,0.3-0.8c0-0.3-0.1-0.6-0.3-0.8c-0.2-0.2-0.5-0.4-0.8-0.4s-0.6,0.1-0.8,0.4
				c-0.2,0.2-0.3,0.5-0.3,0.8c0,0.3,0.1,0.6,0.3,0.8c0.2,0.2,0.5,0.4,0.8,0.4S664,639.1,664.2,638.8 M655.1,638.8
				c0.2-0.2,0.4-0.5,0.4-0.8c0-0.3-0.1-0.6-0.4-0.8s-0.5-0.4-0.8-0.4c-0.3,0-0.6,0.1-0.8,0.4c-0.2,0.2-0.4,0.5-0.4,0.8
				c0,0.3,0.1,0.6,0.4,0.8c0.2,0.2,0.5,0.4,0.8,0.4C654.6,639.2,654.9,639.1,655.1,638.8 M777.9,656.8c-0.6,0-1.2,0.2-1.6,0.7
				c-0.5,0.4-0.7,1-0.7,1.6c0,0.6,0.2,1.2,0.7,1.6c0.4,0.5,1,0.7,1.6,0.7s1.2-0.2,1.6-0.7c0.5-0.4,0.7-1,0.7-1.6
				c0-0.6-0.2-1.2-0.7-1.6C779.1,657.1,778.5,656.8,777.9,656.8 M769.3,656.8c-0.6,0-1.2,0.2-1.6,0.7c-0.4,0.4-0.7,1-0.7,1.6
				c0,0.6,0.2,1.2,0.7,1.6c0.5,0.5,1,0.7,1.6,0.7s1.2-0.2,1.6-0.7c0.4-0.4,0.6-1,0.6-1.6c0-0.6-0.2-1.2-0.6-1.6
				C770.5,657.1,770,656.8,769.3,656.8 M761.7,657.5c-0.5-0.5-1-0.7-1.7-0.7s-1.2,0.2-1.6,0.7c-0.4,0.4-0.7,1-0.7,1.6
				c0,0.6,0.2,1.2,0.7,1.6c0.4,0.5,1,0.7,1.6,0.7s1.2-0.2,1.7-0.7c0.4-0.4,0.6-1,0.6-1.6C762.3,658.5,762.1,658,761.7,657.5
				 M777.9,595.2c-0.6,0-1.2,0.2-1.6,0.6c-0.5,0.5-0.7,1-0.7,1.7c0,0.6,0.2,1.2,0.7,1.6c0.4,0.4,1,0.7,1.6,0.7s1.2-0.2,1.6-0.7
				c0.5-0.4,0.7-1,0.7-1.6s-0.2-1.2-0.7-1.7C779.1,595.5,778.5,595.2,777.9,595.2 M769.3,595.2c-0.6,0-1.2,0.2-1.6,0.6
				c-0.4,0.5-0.7,1-0.7,1.7s0.2,1.2,0.7,1.6c0.5,0.4,1,0.7,1.6,0.7s1.2-0.2,1.6-0.7c0.4-0.4,0.6-1,0.6-1.6c0-0.6-0.2-1.2-0.6-1.7
				C770.5,595.5,770,595.2,769.3,595.2 M760,595.2c-0.6,0-1.2,0.2-1.6,0.6c-0.4,0.5-0.7,1-0.7,1.7s0.2,1.2,0.7,1.6
				c0.4,0.4,1,0.7,1.6,0.7s1.2-0.2,1.7-0.7c0.4-0.4,0.6-1,0.6-1.6s-0.2-1.2-0.6-1.7C761.2,595.5,760.7,595.2,760,595.2z"/>
		</g>
	</g>
</g>
<g transform="matrix( 1, 0, 0, 1, -114.85,-581.95) ">
	<g>
		<g id="Layer0_3_FILL">
			<path fill="#F1F1F1" d="M532.7,660.8c0.5-0.4,0.7-1,0.7-1.6c0-0.6-0.2-1.2-0.7-1.6c-0.4-0.5-1-0.7-1.6-0.7
				c-0.6,0-1.2,0.2-1.6,0.7c-0.5,0.4-0.7,1-0.7,1.6c0,0.6,0.2,1.2,0.7,1.6c0.4,0.5,1,0.7,1.6,0.7
				C531.7,661.5,532.2,661.2,532.7,660.8 M513.2,656.8c-0.6,0-1.2,0.2-1.6,0.7c-0.4,0.4-0.6,1-0.6,1.6c0,0.6,0.2,1.2,0.6,1.6
				c0.4,0.5,1,0.7,1.6,0.7c0.6,0,1.2-0.2,1.6-0.7c0.4-0.4,0.7-1,0.7-1.6c0-0.6-0.2-1.2-0.7-1.6C514.3,657.1,513.8,656.8,513.2,656.8
				 M522.5,656.8c-0.6,0-1.2,0.2-1.7,0.7c-0.4,0.4-0.6,1-0.6,1.6c0,0.6,0.2,1.2,0.6,1.6c0.5,0.5,1,0.7,1.7,0.7s1.2-0.2,1.6-0.7
				c0.4-0.4,0.7-1,0.7-1.6c0-0.6-0.2-1.2-0.7-1.6C523.7,657.1,523.1,656.8,522.5,656.8 M601.5,670.1c0.2-0.2,0.3-0.5,0.3-0.8
				c0-0.3-0.1-0.6-0.3-0.8c-0.2-0.2-0.5-0.3-0.8-0.3s-0.6,0.1-0.9,0.3c-0.2,0.2-0.3,0.5-0.3,0.8c0,0.3,0.1,0.6,0.3,0.8
				c0.2,0.2,0.5,0.4,0.9,0.4S601.2,670.4,601.5,670.1 M596.3,670.5c0.3,0,0.6-0.1,0.8-0.4c0.2-0.2,0.4-0.5,0.4-0.8
				c0-0.3-0.1-0.6-0.4-0.8c-0.2-0.2-0.5-0.3-0.8-0.3c-0.3,0-0.6,0.1-0.8,0.3c-0.2,0.2-0.4,0.5-0.4,0.8c0,0.3,0.1,0.6,0.4,0.8
				C595.7,670.4,596,670.5,596.3,670.5 M590.8,670.1c0.2,0.2,0.5,0.4,0.8,0.4c0.3,0,0.6-0.1,0.8-0.4c0.2-0.2,0.4-0.5,0.4-0.8
				c0-0.3-0.1-0.6-0.4-0.8c-0.2-0.2-0.5-0.3-0.8-0.3c-0.3,0-0.6,0.1-0.8,0.3c-0.2,0.2-0.3,0.5-0.3,0.8
				C590.4,669.7,590.5,669.9,590.8,670.1 M601.5,638.8c0.2-0.2,0.3-0.5,0.3-0.8c0-0.3-0.1-0.6-0.3-0.8c-0.2-0.2-0.5-0.4-0.8-0.4
				s-0.6,0.1-0.9,0.4c-0.2,0.2-0.3,0.5-0.3,0.8c0,0.3,0.1,0.6,0.3,0.8c0.2,0.2,0.5,0.4,0.9,0.4S601.2,639.1,601.5,638.8
				 M596.3,639.2c0.3,0,0.6-0.1,0.8-0.4c0.2-0.2,0.4-0.5,0.4-0.8c0-0.3-0.1-0.6-0.4-0.8s-0.5-0.4-0.8-0.4c-0.3,0-0.6,0.1-0.8,0.4
				c-0.2,0.2-0.4,0.5-0.4,0.8c0,0.3,0.1,0.6,0.4,0.8C595.7,639.1,596,639.2,596.3,639.2 M592.7,638c0-0.3-0.1-0.6-0.4-0.8
				c-0.2-0.2-0.5-0.4-0.8-0.4c-0.3,0-0.6,0.1-0.8,0.4c-0.2,0.2-0.3,0.5-0.3,0.8c0,0.3,0.1,0.6,0.3,0.8c0.2,0.2,0.5,0.4,0.8,0.4
				c0.3,0,0.6-0.1,0.8-0.4C592.6,638.6,592.7,638.3,592.7,638 M353,670.1c0.2,0.2,0.5,0.4,0.8,0.4c0.3,0,0.6-0.1,0.8-0.4
				c0.2-0.2,0.4-0.5,0.4-0.8c0-0.3-0.1-0.6-0.4-0.8c-0.2-0.2-0.5-0.3-0.8-0.3c-0.3,0-0.6,0.1-0.8,0.3c-0.2,0.2-0.4,0.5-0.4,0.8
				C352.6,669.7,352.7,669.9,353,670.1 M348.2,669.3c0,0.3,0.1,0.6,0.4,0.8c0.2,0.2,0.5,0.4,0.8,0.4c0.3,0,0.6-0.1,0.9-0.4
				c0.2-0.2,0.4-0.5,0.4-0.8c0-0.3-0.1-0.6-0.4-0.8c-0.2-0.2-0.5-0.3-0.9-0.3c-0.3,0-0.6,0.1-0.8,0.3
				C348.4,668.8,348.2,669,348.2,669.3 M345.9,669.3c0-0.3-0.1-0.6-0.4-0.8c-0.2-0.2-0.5-0.3-0.8-0.3c-0.3,0-0.6,0.1-0.8,0.3
				c-0.2,0.2-0.4,0.5-0.4,0.8c0,0.3,0.1,0.6,0.4,0.8c0.2,0.2,0.5,0.4,0.8,0.4c0.3,0,0.6-0.1,0.8-0.4
				C345.7,669.9,345.9,669.7,345.9,669.3 M353.8,636.8c-0.3,0-0.6,0.1-0.8,0.4s-0.4,0.5-0.4,0.8c0,0.3,0.1,0.6,0.4,0.8
				c0.2,0.2,0.5,0.4,0.8,0.4c0.3,0,0.6-0.1,0.8-0.4c0.2-0.2,0.4-0.5,0.4-0.8c0-0.3-0.1-0.6-0.4-0.8S354.1,636.8,353.8,636.8
				 M350.2,638.8c0.2-0.2,0.4-0.5,0.4-0.8c0-0.3-0.1-0.6-0.4-0.8s-0.5-0.4-0.9-0.4c-0.3,0-0.6,0.1-0.8,0.4s-0.4,0.5-0.4,0.8
				c0,0.3,0.1,0.6,0.4,0.8c0.2,0.2,0.5,0.4,0.8,0.4C349.7,639.2,350,639.1,350.2,638.8 M343.5,638c0,0.3,0.1,0.6,0.4,0.8
				c0.2,0.2,0.5,0.4,0.8,0.4c0.3,0,0.6-0.1,0.8-0.4c0.2-0.2,0.4-0.5,0.4-0.8c0-0.3-0.1-0.6-0.4-0.8c-0.2-0.2-0.5-0.4-0.8-0.4
				c-0.3,0-0.6,0.1-0.8,0.4C343.7,637.4,343.5,637.7,343.5,638 M413,654.5c0.2-0.2,0.3-0.5,0.3-0.8c0-0.3-0.1-0.6-0.3-0.8
				c-0.2-0.2-0.5-0.3-0.8-0.3c-0.3,0-0.6,0.1-0.8,0.3c-0.2,0.2-0.4,0.5-0.4,0.8s0.1,0.6,0.4,0.8c0.2,0.2,0.5,0.3,0.8,0.3
				C412.5,654.8,412.8,654.7,413,654.5 M408.2,654.5c0.2-0.2,0.3-0.5,0.3-0.8c0-0.3-0.1-0.6-0.3-0.8c-0.2-0.2-0.5-0.3-0.8-0.3
				c-0.3,0-0.6,0.1-0.8,0.3c-0.2,0.2-0.4,0.5-0.4,0.8s0.1,0.6,0.4,0.8c0.2,0.2,0.5,0.3,0.8,0.3C407.7,654.8,408,654.7,408.2,654.5
				 M417.3,654.5c0.2-0.2,0.4-0.5,0.4-0.8s-0.1-0.6-0.4-0.8c-0.2-0.2-0.5-0.3-0.8-0.3s-0.6,0.1-0.8,0.3c-0.2,0.2-0.4,0.5-0.4,0.8
				s0.1,0.6,0.4,0.8c0.2,0.2,0.5,0.3,0.8,0.3S417.1,654.7,417.3,654.5 M406.6,623.2c0.2,0.2,0.5,0.3,0.8,0.3c0.3,0,0.6-0.1,0.8-0.3
				c0.2-0.2,0.3-0.5,0.3-0.9c0-0.3-0.1-0.6-0.3-0.8c-0.2-0.2-0.5-0.3-0.8-0.3c-0.3,0-0.6,0.1-0.8,0.3c-0.2,0.2-0.4,0.5-0.4,0.8
				C406.2,622.7,406.4,623,406.6,623.2 M411.4,623.2c0.2,0.2,0.5,0.3,0.8,0.3c0.3,0,0.6-0.1,0.8-0.3c0.2-0.2,0.3-0.5,0.3-0.9
				c0-0.3-0.1-0.6-0.3-0.8c-0.2-0.2-0.5-0.3-0.8-0.3c-0.3,0-0.6,0.1-0.8,0.3c-0.2,0.2-0.4,0.5-0.4,0.8
				C411,622.7,411.1,623,411.4,623.2 M417.3,623.2c0.2-0.2,0.4-0.5,0.4-0.9c0-0.3-0.1-0.6-0.4-0.8c-0.2-0.2-0.5-0.3-0.8-0.3
				s-0.6,0.1-0.8,0.3c-0.2,0.2-0.4,0.5-0.4,0.8c0,0.3,0.1,0.6,0.4,0.9c0.2,0.2,0.5,0.3,0.8,0.3S417.1,623.4,417.3,623.2 M531,595.2
				c-0.6,0-1.2,0.2-1.6,0.6c-0.5,0.5-0.7,1-0.7,1.7s0.2,1.2,0.7,1.6c0.4,0.4,1,0.7,1.6,0.7c0.6,0,1.2-0.2,1.6-0.7
				c0.5-0.4,0.7-1,0.7-1.6s-0.2-1.2-0.7-1.7C532.2,595.5,531.7,595.2,531,595.2 M522.5,595.2c-0.6,0-1.2,0.2-1.7,0.6
				c-0.4,0.5-0.6,1-0.6,1.7s0.2,1.2,0.6,1.6c0.5,0.4,1,0.7,1.7,0.7s1.2-0.2,1.6-0.7c0.4-0.4,0.7-1,0.7-1.6s-0.2-1.2-0.7-1.7
				C523.7,595.5,523.1,595.2,522.5,595.2 M513.2,595.2c-0.6,0-1.2,0.2-1.6,0.6c-0.4,0.5-0.6,1-0.6,1.7s0.2,1.2,0.6,1.6
				c0.4,0.4,1,0.7,1.6,0.7c0.6,0,1.2-0.2,1.6-0.7c0.4-0.4,0.7-1,0.7-1.6s-0.2-1.2-0.7-1.7C514.4,595.5,513.8,595.2,513.2,595.2
				 M170.4,654.5c0.2-0.2,0.4-0.5,0.4-0.8s-0.1-0.6-0.4-0.8c-0.2-0.2-0.5-0.3-0.8-0.3s-0.6,0.1-0.8,0.3c-0.2,0.2-0.4,0.5-0.4,0.8
				s0.1,0.6,0.4,0.8c0.2,0.2,0.5,0.3,0.8,0.3S170.2,654.7,170.4,654.5 M166.1,654.5c0.2-0.2,0.3-0.5,0.3-0.8s-0.1-0.6-0.3-0.8
				c-0.2-0.2-0.5-0.3-0.8-0.3c-0.3,0-0.6,0.1-0.8,0.3c-0.2,0.2-0.4,0.5-0.4,0.8s0.1,0.6,0.4,0.8c0.2,0.2,0.5,0.3,0.8,0.3
				C165.6,654.8,165.9,654.7,166.1,654.5 M166.1,623.2c0.2-0.2,0.3-0.5,0.3-0.9c0-0.3-0.1-0.6-0.3-0.8c-0.2-0.2-0.5-0.3-0.8-0.3
				c-0.3,0-0.6,0.1-0.8,0.3c-0.2,0.2-0.4,0.5-0.4,0.8c0,0.3,0.1,0.6,0.4,0.9c0.2,0.2,0.5,0.3,0.8,0.3
				C165.6,623.5,165.9,623.4,166.1,623.2 M170.4,623.2c0.2-0.2,0.4-0.5,0.4-0.9c0-0.3-0.1-0.6-0.4-0.8c-0.2-0.2-0.5-0.3-0.8-0.3
				s-0.6,0.1-0.8,0.3c-0.2,0.2-0.4,0.5-0.4,0.8c0,0.3,0.1,0.6,0.4,0.9c0.2,0.2,0.5,0.3,0.8,0.3S170.2,623.4,170.4,623.2 M267.9,630
				c0.5-0.4,0.7-1,0.7-1.6c0-0.6-0.2-1.2-0.7-1.6c-0.4-0.4-1-0.7-1.6-0.7s-1.2,0.2-1.6,0.7c-0.5,0.5-0.7,1-0.7,1.6
				c0,0.6,0.2,1.2,0.7,1.6c0.4,0.4,1,0.6,1.6,0.6S267.5,630.4,267.9,630 M277.2,630c0.4-0.4,0.6-1,0.6-1.6c0-0.6-0.2-1.2-0.6-1.6
				c-0.4-0.4-1-0.7-1.6-0.7c-0.6,0-1.2,0.2-1.6,0.7c-0.4,0.5-0.6,1-0.6,1.6c0,0.6,0.2,1.2,0.6,1.6c0.4,0.4,1,0.6,1.6,0.6
				C276.2,630.6,276.8,630.4,277.2,630 M285.8,630c0.5-0.4,0.7-1,0.7-1.6c0-0.6-0.2-1.2-0.7-1.6c-0.4-0.4-1-0.7-1.6-0.7
				s-1.2,0.2-1.6,0.7c-0.5,0.5-0.7,1-0.7,1.6c0,0.6,0.2,1.2,0.7,1.6c0.4,0.4,1,0.6,1.6,0.6S285.4,630.4,285.8,630 M161.4,654.5
				c0.2-0.2,0.3-0.5,0.3-0.8s-0.1-0.6-0.3-0.8c-0.2-0.2-0.5-0.3-0.8-0.3c-0.3,0-0.6,0.1-0.8,0.3c-0.2,0.2-0.4,0.5-0.4,0.8
				s0.1,0.6,0.4,0.8c0.2,0.2,0.5,0.3,0.8,0.3C160.9,654.8,161.2,654.7,161.4,654.5 M161.4,623.2c0.2-0.2,0.3-0.5,0.3-0.9
				c0-0.3-0.1-0.6-0.3-0.8c-0.2-0.2-0.5-0.3-0.8-0.3c-0.3,0-0.6,0.1-0.8,0.3c-0.2,0.2-0.4,0.5-0.4,0.8c0,0.3,0.1,0.6,0.4,0.9
				c0.2,0.2,0.5,0.3,0.8,0.3C160.9,623.5,161.2,623.4,161.4,623.2 M848.3,670.1c0.2-0.2,0.4-0.5,0.4-0.8c0-0.3-0.1-0.6-0.4-0.8
				c-0.2-0.2-0.5-0.3-0.8-0.3s-0.6,0.1-0.8,0.3c-0.2,0.2-0.4,0.5-0.4,0.8c0,0.3,0.1,0.6,0.4,0.8c0.2,0.2,0.5,0.4,0.8,0.4
				S848.1,670.4,848.3,670.1 M844,670.1c0.2-0.2,0.3-0.5,0.3-0.8c0-0.3-0.1-0.6-0.3-0.8c-0.2-0.2-0.5-0.3-0.8-0.3
				c-0.3,0-0.6,0.1-0.9,0.3c-0.2,0.2-0.3,0.5-0.3,0.8c0,0.3,0.1,0.6,0.3,0.8c0.2,0.2,0.5,0.4,0.9,0.4
				C843.5,670.5,843.8,670.4,844,670.1 M839.2,670.1c0.2-0.2,0.3-0.5,0.3-0.8c0-0.3-0.1-0.6-0.3-0.8c-0.2-0.2-0.5-0.3-0.8-0.3
				c-0.3,0-0.6,0.1-0.8,0.3c-0.2,0.2-0.3,0.5-0.3,0.8c0,0.3,0.1,0.6,0.3,0.8c0.2,0.2,0.5,0.4,0.8,0.4
				C838.7,670.5,839,670.4,839.2,670.1 M844,638.8c0.2-0.2,0.3-0.5,0.3-0.8c0-0.3-0.1-0.6-0.3-0.8c-0.2-0.2-0.5-0.4-0.8-0.4
				c-0.3,0-0.6,0.1-0.9,0.4c-0.2,0.2-0.3,0.5-0.3,0.8c0,0.3,0.1,0.6,0.3,0.8c0.2,0.2,0.5,0.4,0.9,0.4
				C843.5,639.2,843.8,639.1,844,638.8 M848.3,638.8c0.2-0.2,0.4-0.5,0.4-0.8c0-0.3-0.1-0.6-0.4-0.8c-0.2-0.2-0.5-0.4-0.8-0.4
				s-0.6,0.1-0.8,0.4c-0.2,0.2-0.4,0.5-0.4,0.8c0,0.3,0.1,0.6,0.4,0.8c0.2,0.2,0.5,0.4,0.8,0.4S848.1,639.1,848.3,638.8
				 M839.2,638.8c0.2-0.2,0.3-0.5,0.3-0.8c0-0.3-0.1-0.6-0.3-0.8c-0.2-0.2-0.5-0.4-0.8-0.4c-0.3,0-0.6,0.1-0.8,0.4
				c-0.2,0.2-0.3,0.5-0.3,0.8c0,0.3,0.1,0.6,0.3,0.8c0.2,0.2,0.5,0.4,0.8,0.4C838.7,639.2,839,639.1,839.2,638.8 M655.1,654.5
				c0.2-0.2,0.4-0.5,0.4-0.8s-0.1-0.6-0.4-0.8c-0.2-0.2-0.5-0.3-0.8-0.3c-0.3,0-0.6,0.1-0.8,0.3c-0.2,0.2-0.4,0.5-0.4,0.8
				s0.1,0.6,0.4,0.8c0.2,0.2,0.5,0.3,0.8,0.3C654.6,654.8,654.9,654.7,655.1,654.5 M659.8,654.5c0.2-0.2,0.4-0.5,0.4-0.8
				s-0.1-0.6-0.4-0.8c-0.2-0.2-0.5-0.3-0.8-0.3s-0.6,0.1-0.8,0.3c-0.2,0.2-0.4,0.5-0.4,0.8s0.1,0.6,0.4,0.8c0.2,0.2,0.5,0.3,0.8,0.3
				S659.6,654.7,659.8,654.5 M662.5,652.9c-0.2,0.2-0.3,0.5-0.3,0.8s0.1,0.6,0.3,0.8c0.2,0.2,0.5,0.3,0.8,0.3s0.6-0.1,0.8-0.3
				c0.2-0.2,0.3-0.5,0.3-0.8s-0.1-0.6-0.3-0.8c-0.2-0.2-0.5-0.3-0.8-0.3S662.8,652.7,662.5,652.9 M655.1,623.2
				c0.2-0.2,0.4-0.5,0.4-0.9c0-0.3-0.1-0.6-0.4-0.8s-0.5-0.3-0.8-0.3c-0.3,0-0.6,0.1-0.8,0.3c-0.2,0.2-0.4,0.5-0.4,0.8
				c0,0.3,0.1,0.6,0.4,0.9c0.2,0.2,0.5,0.3,0.8,0.3C654.6,623.5,654.9,623.4,655.1,623.2 M660.2,622.3c0-0.3-0.1-0.6-0.4-0.8
				c-0.2-0.2-0.5-0.3-0.8-0.3s-0.6,0.1-0.8,0.3c-0.2,0.2-0.4,0.5-0.4,0.8c0,0.3,0.1,0.6,0.4,0.9c0.2,0.2,0.5,0.3,0.8,0.3
				s0.6-0.1,0.8-0.3C660,623,660.2,622.7,660.2,622.3 M664.2,623.2c0.2-0.2,0.3-0.5,0.3-0.9c0-0.3-0.1-0.6-0.3-0.8
				c-0.2-0.2-0.5-0.3-0.8-0.3s-0.6,0.1-0.8,0.3c-0.2,0.2-0.3,0.5-0.3,0.8c0,0.3,0.1,0.6,0.3,0.9c0.2,0.2,0.5,0.3,0.8,0.3
				S664,623.4,664.2,623.2 M761.7,630c0.4-0.4,0.6-1,0.6-1.6c0-0.6-0.2-1.2-0.6-1.6c-0.4-0.4-1-0.7-1.7-0.7c-0.6,0-1.2,0.2-1.6,0.7
				c-0.4,0.5-0.7,1-0.7,1.6c0,0.6,0.2,1.2,0.7,1.6c0.4,0.4,1,0.6,1.6,0.6S761.2,630.4,761.7,630 M777.9,630.6c0.6,0,1.2-0.2,1.6-0.6
				c0.5-0.4,0.7-1,0.7-1.6c0-0.6-0.2-1.2-0.7-1.6c-0.4-0.4-1-0.7-1.6-0.7s-1.2,0.2-1.6,0.7c-0.5,0.5-0.7,1-0.7,1.6
				c0,0.6,0.2,1.2,0.7,1.6C776.7,630.4,777.3,630.6,777.9,630.6 M771,630c0.4-0.4,0.6-1,0.6-1.6c0-0.6-0.2-1.2-0.6-1.6
				c-0.4-0.4-1-0.7-1.6-0.7s-1.2,0.2-1.6,0.7c-0.4,0.5-0.7,1-0.7,1.6c0,0.6,0.2,1.2,0.7,1.6c0.5,0.4,1,0.6,1.6,0.6
				S770.5,630.4,771,630z"/>
		</g>
	</g>
</g>
<g transform="matrix( 1, 0, 0, 1, -114.85,-581.95) ">
	<g>
		<g id="Layer0_4_FILL">
			<path fill="#CCCCCC" d="M554,669.4c-0.3,0-0.4,0.2-0.4,0.5v2.1h4.3v-2.1c0-0.3-0.2-0.5-0.5-0.5H554 M557.5,642.4
				c0.3,0,0.5-0.1,0.5-0.4v-3.5c0-0.3-0.2-0.4-0.5-0.4H554c-0.3,0-0.4,0.1-0.4,0.4v3.5c0,0.3,0.1,0.4,0.4,0.4H557.5 M620.2,658
				c0.3,0,0.4-0.1,0.4-0.5v-3.5c0-0.3-0.1-0.4-0.4-0.4h-3.5c-0.3,0-0.5,0.1-0.5,0.4v3.5c0,0.3,0.2,0.5,0.5,0.5H620.2 M620.2,626.7
				c0.3,0,0.4-0.1,0.4-0.4v-3.5c0-0.3-0.1-0.5-0.4-0.5h-3.5c-0.3,0-0.5,0.2-0.5,0.5v3.5c0,0.3,0.2,0.4,0.5,0.4H620.2 M373.4,658
				c0.3,0,0.4-0.1,0.4-0.5v-3.5c0-0.3-0.1-0.4-0.4-0.4h-3.5c-0.3,0-0.4,0.1-0.4,0.4v3.5c0,0.3,0.1,0.5,0.4,0.5H373.4 M373.4,626.7
				c0.3,0,0.4-0.1,0.4-0.4v-3.5c0-0.3-0.1-0.5-0.4-0.5h-3.5c-0.3,0-0.4,0.2-0.4,0.5v3.5c0,0.3,0.1,0.4,0.4,0.4H373.4 M446.1,636.9
				c0.5,0,0.8-0.3,0.8-0.8v-6.8c0-0.5-0.3-0.8-0.8-0.8h-6.8c-0.2,0-0.4,0.1-0.6,0.2c-0.2,0.1-0.2,0.3-0.2,0.5v6.8
				c0,0.6,0.3,0.8,0.9,0.8H446.1 M199.3,636.9c0.5,0,0.8-0.3,0.8-0.8v-6.8c0-0.5-0.3-0.8-0.8-0.8h-6.8c-0.6,0-0.9,0.3-0.9,0.8v6.8
				c0,0.6,0.3,0.8,0.9,0.8H199.3 M307.1,669.4c-0.3,0-0.4,0.2-0.4,0.5v2.1h4.3v-2.1c0-0.3-0.1-0.5-0.4-0.5H307.1 M310.6,642.4
				c0.3,0,0.4-0.1,0.4-0.4v-3.5c0-0.3-0.1-0.4-0.4-0.4h-3.5c-0.3,0-0.4,0.1-0.4,0.4v3.5c0,0.3,0.1,0.4,0.4,0.4H310.6 M126.5,658
				c0.3,0,0.4-0.1,0.4-0.5v-3.5c0-0.3-0.1-0.4-0.4-0.4H123c-0.3,0-0.4,0.1-0.4,0.4v3.5c0,0.3,0.1,0.5,0.4,0.5H126.5 M126.5,626.7
				c0.3,0,0.4-0.1,0.4-0.4v-3.5c0-0.3-0.1-0.5-0.4-0.5H123c-0.3,0-0.4,0.2-0.4,0.5v3.5c0,0.3,0.1,0.4,0.4,0.4H126.5 M685.3,666.8
				c0,0.6,0.3,0.9,0.9,0.9h6.8c0.6,0,0.8-0.3,0.8-0.9V660c0-0.2-0.1-0.4-0.2-0.5c-0.2-0.2-0.4-0.2-0.6-0.2h-6.8
				c-0.2,0-0.4,0.1-0.6,0.2c-0.2,0.1-0.3,0.3-0.2,0.5V666.8 M693.6,605.8c0.2-0.2,0.2-0.4,0.2-0.6v-6.8c0-0.2-0.1-0.4-0.2-0.6
				c-0.2-0.2-0.4-0.2-0.6-0.2h-6.8c-0.2,0-0.4,0.1-0.6,0.2c-0.2,0.2-0.3,0.4-0.2,0.6v6.8c0,0.2,0.1,0.4,0.2,0.6
				c0.2,0.2,0.4,0.2,0.6,0.2h6.8C693.2,606.1,693.4,606,693.6,605.8 M800.8,669.4c-0.3,0-0.4,0.2-0.4,0.5v2.1h4.3v-2.1
				c0-0.3-0.1-0.5-0.4-0.5H800.8 M804.3,642.4c0.3,0,0.4-0.1,0.4-0.4v-3.5c0-0.3-0.1-0.4-0.4-0.4h-3.5c-0.3,0-0.4,0.1-0.4,0.4v3.5
				c0,0.3,0.1,0.4,0.4,0.4H804.3z"/>
		</g>
	</g>
</g>
</svg>
