<?xml version="1.0" encoding="utf-8"?>
<!-- Generator: Adobe Illustrator 18.1.0, SVG Export Plug-In . SVG Version: 6.00 Build 0)  -->
<svg version="1.1" id="Layer_1" xmlns="http://www.w3.org/2000/svg" xmlns:xlink="http://www.w3.org/1999/xlink" x="0px" y="0px"
	 width="189.1px" height="200px" viewBox="0 0 189.1 200" enable-background="new 0 0 189.1 200" xml:space="preserve">
<g id="servers">
	<path fill="#CCCCCC" d="M189,161.1c0-1.8-0.7-3.4-1.8-4.6c-1.2-1.2-2.8-2-4.6-2H6.6c-1.8,0-3.4,0.7-4.6,2c-1.2,1.2-2,2.8-2,4.6
		v32.1c0,1.8,0.7,3.4,2,4.6c0.5,0.5,1.1,1.1,1.8,1.4l0.2,0.2c0.7,0.4,1.4,0.5,2.3,0.5c0.2,0,0.2,0,0.4,0h176.1c1.8,0,3.4-0.7,4.6-2
		c1.2-1.2,1.8-2.8,1.8-4.6v-32.2 M138.4,172.6c-0.7-0.7-1.1-1.6-1.1-2.7s0.4-2,1.1-2.7s1.6-1.2,2.7-1.2s2,0.4,2.7,1.2
		c0.7,0.7,1.2,1.6,1.2,2.7c0,1.1-0.4,2-1.2,2.7c-0.7,0.7-1.6,1.1-2.7,1.1C140,173.7,139.1,173.4,138.4,172.6 M152.8,170
		c0-1.1,0.4-2,1.1-2.7s1.6-1.2,2.7-1.2s2,0.4,2.7,1.2c0.7,0.7,1.2,1.6,1.2,2.7s-0.4,2-1.2,2.7c-0.7,0.7-1.6,1.1-2.7,1.1
		s-2-0.4-2.7-1.1C153.3,171.9,152.8,170.9,152.8,170 M171.1,166.1c1.1,0,2,0.4,2.7,1.2c0.7,0.7,1.1,1.6,1.1,2.7c0,1.1-0.4,2-1.1,2.7
		s-1.8,1.1-2.7,1.1c-1.1,0-2-0.4-2.7-1.1c-0.7-0.7-1.1-1.6-1.1-2.7c0-1.1,0.4-2,1.1-2.7C169.1,166.4,169.8,166.1,171.1,166.1
		 M29.2,170c0.4,0,0.7,0.2,1.1,0.4c0.4,0.2,0.4,0.5,0.4,0.9v11.4c0,0.9-0.5,1.4-1.4,1.4H17.9c-0.9,0-1.4-0.5-1.4-1.4v-11.4
		c0-0.9,0.5-1.4,1.4-1.4h11.4 M187.3,105c-1.2-1.2-2.8-2-4.6-2H6.7c-1.8,0-3.4,0.7-4.6,2c-1.2,1.2-2,2.8-2,4.6v32.1
		c0,1.8,0.7,3.4,2,4.6c1.2,1.2,2.8,1.8,4.6,1.8h176.1c1.8,0,3.4-0.5,4.6-1.8c1.2-1.2,1.8-2.8,1.8-4.6v-32.1
		C189,107.8,188.5,106.2,187.3,105 M167.2,118.5c0-1.1,0.4-2,1.1-2.7s1.6-1.1,2.7-1.1s2,0.4,2.7,1.1s1.1,1.6,1.1,2.7s-0.4,2-1.1,2.7
		c-0.7,0.7-1.8,1.2-2.7,1.2c-1.1,0-2-0.4-2.7-1.2C167.5,120.4,167.2,119.5,167.2,118.5 M156.7,114.6c1.1,0,2,0.4,2.7,1.1
		s1.2,1.6,1.2,2.7s-0.4,2-1.2,2.7c-0.7,0.7-1.6,1.2-2.7,1.2s-2-0.4-2.7-1.2c-0.7-0.7-1.1-1.6-1.1-2.7s0.4-2,1.1-2.7
		C154.8,115.1,155.6,114.6,156.7,114.6 M141.1,114.6c1.1,0,2,0.4,2.7,1.1s1.2,1.6,1.2,2.7s-0.4,2-1.2,2.7c-0.7,0.7-1.6,1.2-2.7,1.2
		s-2-0.4-2.7-1.2c-0.7-0.7-1.1-1.6-1.1-2.7s0.4-2,1.1-2.7C139.1,115.1,140,114.6,141.1,114.6 M30.6,131.3c0,0.9-0.5,1.4-1.4,1.4
		H17.8c-0.9,0-1.4-0.5-1.4-1.4v-11.4c0-0.9,0.5-1.4,1.4-1.4h11.4c0.9,0,1.4,0.5,1.4,1.4V131.3 M6.6,51.6c-1.8,0-3.4,0.7-4.6,2
		c-1.2,1.2-2,2.7-2,4.3v32.5c0,1.8,0.7,3.2,2,4.4c1.2,1.2,2.7,1.8,4.3,2h176.3c1.8,0,3.4-0.7,4.6-2c1.2-1.2,1.8-2.8,1.8-4.6V57.8
		c0-1.8-0.7-3.2-1.8-4.4c-1.2-1.2-2.8-2-4.6-2H6.6 M29.2,67c0.9,0,1.4,0.5,1.4,1.4v11.4c0,0.4-0.2,0.7-0.4,1.1
		c-0.2,0.4-0.5,0.4-1.1,0.4H17.7c-0.4,0-0.7-0.2-0.9-0.4c-0.4-0.4-0.4-0.5-0.4-1.1V68.5c0-0.9,0.5-1.4,1.4-1.4h11.4 M143.7,64.2
		c0.7,0.7,1.2,1.6,1.2,2.7s-0.4,2-1.2,2.7c-0.7,0.7-1.6,1.1-2.7,1.1c-1.1,0-2-0.4-2.7-1.1s-1.1-1.6-1.1-2.7s0.4-2,1.1-2.7
		c0.7-0.7,1.6-1.1,2.7-1.1C142.1,63.1,143,63.5,143.7,64.2 M154,69.5c-0.7-0.7-1.1-1.6-1.1-2.7c0-1.1,0.4-2,1.1-2.7s1.6-1.1,2.7-1.1
		s2,0.4,2.7,1.1c0.7,0.7,1.2,1.6,1.2,2.7c0,1.1-0.4,2-1.2,2.7c-0.7,0.7-1.6,1.1-2.7,1.1C155.6,70.8,154.8,70.2,154,69.5 M168.4,64.2
		c0.7-0.7,1.6-1.1,2.7-1.1s2,0.4,2.7,1.1s1.1,1.6,1.1,2.7s-0.4,2-1.1,2.7s-1.8,1.1-2.7,1.1c-1.1,0-2-0.4-2.7-1.1s-1.1-1.6-1.1-2.7
		C167.2,65.8,167.5,64.9,168.4,64.2 M6.6,0.1c-1.8,0-3.4,0.7-4.6,2C0.8,3.3,0,4.8,0,6.5V39c0,1.8,0.7,3.2,2,4.4c1.2,1.2,2.8,2,4.6,2
		h176.1c1.8,0,3.4-0.5,4.6-2c1.2-1.2,1.8-2.8,1.8-4.6V6.5c0-1.8-0.7-3.4-1.8-4.6c-0.7-0.7-1.4-1.1-2.1-1.4c-0.7-0.4-1.6-0.5-2.5-0.5
		H6.6 M30.6,17.1v11.4c0,0.9-0.5,1.4-1.4,1.4H17.8c-0.9,0-1.4-0.4-1.4-1.4V17.1c0-0.9,0.5-1.4,1.4-1.4h11.4
		C30.1,15.7,30.6,16.1,30.6,17.1 M171.1,19.3c-1.1,0-2-0.4-2.7-1.1c-0.7-0.7-1.1-1.6-1.1-2.8c0-1.1,0.4-2,1.1-2.7s1.6-1.1,2.7-1.1
		s2,0.4,2.7,1.1c0.7,0.7,1.1,1.6,1.1,2.7s-0.4,2-1.1,2.8C173,18.9,172,19.3,171.1,19.3 M159.4,12.7c0.7,0.7,1.2,1.6,1.2,2.7
		c0,1.1-0.4,2-1.2,2.8c-0.7,0.7-1.6,1.1-2.7,1.1s-2-0.4-2.7-1.1c-0.7-0.7-1.1-1.6-1.1-2.8c0-1.1,0.4-2,1.1-2.7s1.6-1.1,2.7-1.1
		C157.8,11.6,158.7,12,159.4,12.7 M141.1,11.6c1.1,0,2,0.4,2.7,1.1c0.7,0.7,1.2,1.6,1.2,2.7c0,1.1-0.4,2-1.2,2.8
		c-0.7,0.7-1.6,1.1-2.7,1.1s-2-0.4-2.7-1.1c-0.7-0.7-1.1-1.6-1.1-2.8c0-1.1,0.4-2,1.1-2.7C139.1,12,140,11.6,141.1,11.6z"/>
</g>
<g id="Layer_1_1_">
</g>
</svg>
