<svg version="1.1" xmlns="http://www.w3.org/2000/svg" xmlns:xlink="http://www.w3.org/1999/xlink" x="0px" y="0px"
	 viewBox="0 0 30.748 31" style="enable-background:new 0 0 30.748 31;" xml:space="preserve">
<g id="sharing_x5F_icon">
	<g>
		<defs>
			<rect id="SVGID_1_" x="-10.908" width="41.656" height="31"/>
		</defs>
		<clipPath id="SVGID_2_">
			<use xlink:href="#SVGID_1_"  style="overflow:visible;"/>
		</clipPath>
		<path style="clip-path:url(#SVGID_2_);fill:#231F20;" d="M1.092,0c0,0-12,0-12,12v7c0,0,0,12,12,12h17.656c0,0,12,0,12-12v-7
			c0,0,0-12-12-12H1.092z"/>
		<path style="clip-path:url(#SVGID_2_);fill:#FFFFFF;" d="M22.17,10.921c0,1.135-0.881,2.055-1.967,2.055s-1.967-0.92-1.967-2.055
			c0-1.135,0.881-2.055,1.967-2.055S22.17,9.786,22.17,10.921"/>
		<path style="clip-path:url(#SVGID_2_);fill:#FFFFFF;" d="M22.17,18.656c0,1.135-0.881,2.055-1.967,2.055s-1.967-0.92-1.967-2.055
			c0-1.135,0.881-2.055,1.967-2.055S22.17,17.521,22.17,18.656"/>
		<path style="clip-path:url(#SVGID_2_);fill:#FFFFFF;" d="M14.744,14.777c0,1.135-0.881,2.055-1.967,2.055
			c-1.087,0-1.967-0.92-1.967-2.055c0-1.135,0.88-2.055,1.967-2.055C13.863,12.722,14.744,13.642,14.744,14.777"/>
	</g>
	<polygon style="fill:#FFFFFF;" points="18.899,12.514 13.948,15.146 13.948,13.391 18.899,10.759 	"/>
	<polygon style="fill:#FFFFFF;" points="18.899,19.025 13.948,16.347 13.948,14.592 18.899,17.27 	"/>
</g>
<g id="Layer_1">
</g>
</svg>
