<svg version="1.1" xmlns="http://www.w3.org/2000/svg" id="Layer_1"  xmlns:xlink="http://www.w3.org/1999/xlink" x="0px" y="0px"
	 viewBox="0 0 285 285" enable-background="new 0 0 285 285" xml:space="preserve">
<path fill="#FF0000" d="M191.7,74l55.4-26.6l-31.5,53.2l61.4-1.4l-50.2,35.6l56.8,23.9l-60.3,11.8l42.3,45.2l-59.9-14l20.6,58.6
	l-49.2-37.4l-4.8,61.9l-29.9-54.4l-29.3,54.5l-5.5-61.9L59,260.7l19.8-58.7l-59.7,14.3l41.8-45.4L0.4,159.4l56.5-24.2L6.2,99.8
	l61.4,1.1L35.5,47.9l55.8,26.3l-8.1-61.6l40.4,46.9L141,0l18.1,59.4L199,12.3L191.7,74z"/>
</svg>
