<svg version="1.1" xmlns="http://www.w3.org/2000/svg" xmlns:xlink="http://www.w3.org/1999/xlink" x="0px" y="0px"
	 viewBox="0 0 287.601 285.73" style="enable-background:new 0 0 287.601 285.73;" xml:space="preserve">
<g id="star_x5F_on_x5F_computer">
	<path style="fill:#FFFFFF;" d="M178.074,96.665c-27.184-19.569-65.021-13.487-84.511,13.586
		c-19.489,27.073-13.252,64.884,13.932,84.454c27.185,19.57,65.021,13.488,84.511-13.585S205.258,116.235,178.074,96.665
		 M194.256,74.187l56.292-26.667l-31.984,53.383l62.375-1.452l-51.011,35.691l57.673,24.012l-61.217,11.828l42.998,45.326
		l-60.839-14.081l20.889,58.802l-49.94-37.554l-4.832,62.11l-30.407-54.535l-29.718,54.68l-5.616-62.085l-49.465,37.794
		L79.6,202.538l-60.659,14.374l42.424-45.532L0,159.848l57.368-24.29l-51.46-35.444l62.391,1.152L35.642,48.039l56.627,26.394
		l-8.208-61.806L125.132,59.7L142.793,0l18.414,59.613l40.476-47.27L194.256,74.187z"/>
	<path style="fill:#FFFFFF;" d="M94.119,213.287c37.335,26.877,89.39,18.4,116.267-18.935c26.878-37.336,18.4-89.39-18.935-116.267
		c-37.335-26.878-89.39-18.4-116.267,18.935C48.306,134.355,56.784,186.41,94.119,213.287"/>
</g>
<g id="Layer_1">
</g>
</svg>
