<svg version="1.1" xmlns="http://www.w3.org/2000/svg" xmlns:xlink="http://www.w3.org/1999/xlink" x="0px" y="0px"
	 viewBox="0 0 189.028 187.222" style="enable-background:new 0 0 189.028 187.222;" xml:space="preserve">
<g id="sun">
	<path d="M94.514,53.969c-21.984,0-39.806,17.748-39.806,39.642s17.822,39.643,39.806,39.643s39.806-17.749,39.806-39.643
		S116.498,53.969,94.514,53.969 M94.514,35.79L114.273,0l3.433,40.7l32.668-24.692l-13.485,38.571l39.927-9.324l-28.072,29.774
		l40.284,7.655l-37.806,15.829l33.675,23.311l-41.002-0.853l21.243,34.936l-37.108-17.388l5.138,40.521l-26.799-30.917
		l-11.855,39.099l-11.855-39.099L55.86,179.04l5.138-40.521L23.89,155.907l21.243-34.936l-41.002,0.853l33.675-23.311L0,82.684
		l40.284-7.655L12.212,45.255l39.928,9.324L38.654,16.008L71.322,40.7L74.755,0L94.514,35.79z"/>
</g>
<g id="Layer_1">
</g>
</svg>
