<?xml version="1.0" encoding="utf-8"?>
<!-- Generator: Adobe Illustrator 18.1.0, SVG Export Plug-In . SVG Version: 6.00 Build 0)  -->
<svg version="1.1" id="Layer_1" xmlns="http://www.w3.org/2000/svg" xmlns:xlink="http://www.w3.org/1999/xlink" x="0px" y="0px"
	 width="200px" height="200px" viewBox="-33.1 77 200 200" enable-background="new -33.1 77 200 200" xml:space="preserve">
<g id="sun">
	<path fill="#2DACD8" d="M67,134.7c-23.3,0-42.1,19-42.1,42.3s18.8,42.3,42.1,42.3s42.1-19,42.1-42.3S90.3,134.7,67,134.7 M67,115.2
		L87.9,77l3.7,43.5l34.6-26.4l-14.3,41.2l42.3-10l-29.7,31.8l42.6,8.2l-40,16.9l35.6,24.9l-43.4-0.9l22.5,37.3L102.4,225l5.4,43.3
		l-28.3-33L67,277l-12.6-41.8l-28.3,33l5.4-43.3l-39.2,18.6l22.5-37.3l-43.4,0.9l35.6-24.9L-33,165.3l42.6-8.2l-29.7-31.8l42.3,10
		L7.9,94.1l34.6,26.4L46.1,77L67,115.2z"/>
</g>
<g id="Layer_1_1_">
</g>
</svg>
