<?xml version="1.0" encoding="utf-8"?>
<!-- Generator: Adobe Illustrator 18.1.0, SVG Export Plug-In . SVG Version: 6.00 Build 0)  -->
<svg version="1.1" id="Layer_1" xmlns="http://www.w3.org/2000/svg" xmlns:xlink="http://www.w3.org/1999/xlink" x="0px" y="0px"
	 width="201.9px" height="200px" viewBox="411 0 201.9 200" enable-background="new 411 0 201.9 200" xml:space="preserve">
<g id="sun">
	<path fill="#2DACD8" d="M512,57.7c-23.5,0-42.5,19-42.5,42.3s19,42.3,42.5,42.3c23.5,0,42.5-19,42.5-42.3S535.5,57.7,512,57.7
		 M512,38.2L533.1,0l3.7,43.5l34.9-26.4l-14.4,41.2l42.7-10l-30,31.8l43,8.2l-40.4,16.9l36,24.9l-43.8-0.9l22.7,37.3L547.8,148
		l5.5,43.3l-28.6-33L512,200l-12.7-41.8l-28.6,33l5.5-43.3l-39.6,18.6l22.7-37.3l-43.8,0.9l36-24.9L411,88.3l43-8.2l-30-31.8
		l42.7,10l-14.4-41.2l34.9,26.4L490.9,0L512,38.2z"/>
</g>
<g id="Layer_1_1_">
</g>
</svg>
