<?xml version="1.0" encoding="utf-8"?>
<!-- Generator: Adobe Illustrator 18.1.0, SVG Export Plug-In . SVG Version: 6.00 Build 0)  -->
<svg version="1.1" id="Layer_1" xmlns="http://www.w3.org/2000/svg" xmlns:xlink="http://www.w3.org/1999/xlink" x="0px" y="0px"
	 viewBox="105 5 190 190" enable-background="new 105 5 190 190" xml:space="preserve">
<g id="sun">
	<path d="M200,59.8c-22.1,0-40,18-40,40.2s17.9,40.2,40,40.2s40-18,40-40.2S222.1,59.8,200,59.8 M200,41.3L219.9,5l3.5,41.3
		l32.8-25.1l-13.6,39.1l40.1-9.5l-28.2,30.2l40.5,7.8L257,105l33.8,23.7l-41.2-0.9l21.4,35.5l-37.3-17.6l5.2,41.1l-26.9-31.4
		L200,195l-11.9-39.7l-26.9,31.4l5.2-41.1L129,163.2l21.4-35.5l-41.2,0.9L143,105l-38-16.1l40.5-7.8l-28.2-30.2l40.1,9.5l-13.6-39.1
		l32.8,25.1L180.1,5L200,41.3z"/>
</g>
<g id="Layer_1_1_">
</g>
</svg>
