<svg version="1.1" xmlns="http://www.w3.org/2000/svg" xmlns:xlink="http://www.w3.org/1999/xlink" x="0px" y="0px"
	 viewBox="0 0 271.41 352.447" style="enable-background:new 0 0 271.41 352.447;" xml:space="preserve">
<g id="clock">
	<path style="fill:#FFFFFF;" d="M151.123,97h-30.836c-7.764,0-14.058-6.294-14.058-14.058V27.061
		c0-7.764,6.294-14.058,14.058-14.058h30.836c7.764,0,14.058,6.294,14.058,14.058v55.881C165.181,90.706,158.887,97,151.123,97z"/>
	<circle style="fill:#FFFFFF;" cx="135.705" cy="216.742" r="107.742"/>
	<rect x="167.064" y="266.357" transform="matrix(0.7557 0.6549 -0.6549 0.7557 222.8823 -57.64)" width="43.272" height="7.132"/>
	<path style="fill:#231F20;" d="M164.743,34.503h-1.019c0-13.483-12.57-24.453-28.019-24.453c-15.45,0-28.019,10.97-28.019,24.453
		h-1.019c0-14.045,13.027-25.471,29.038-25.471C151.717,9.032,164.743,20.458,164.743,34.503"/>
	<rect x="29.547" y="212.058" width="22.415" height="9.366"/>
	<rect x="131.022" y="300.485" width="9.366" height="22.415"/>
	<path style="fill:#231F20;" d="M135.705,262.081c25.041,0,45.339-20.299,45.339-45.339c0-25.041-20.298-45.34-45.339-45.34
		s-45.339,20.299-45.339,45.34C90.366,241.782,110.664,262.081,135.705,262.081"/>
	<path style="fill:#FFFFFF;" d="M109.282,205.098c0.513-1.686,1.311-3.145,2.393-4.374c1.081-1.229,2.43-2.192,4.044-2.888
		c1.613-0.697,3.447-1.046,5.502-1.046c1.686,0,3.273,0.248,4.759,0.743c1.485,0.495,2.778,1.21,3.879,2.145
		c1.1,0.936,1.971,2.101,2.613,3.494c0.641,1.395,0.963,3.009,0.963,4.842c0,1.725-0.267,3.246-0.798,4.566
		c-0.532,1.321-1.238,2.504-2.118,3.549c-0.88,1.045-1.89,1.99-3.026,2.833c-1.138,0.845-2.311,1.651-3.521,2.421
		c-1.211,0.734-2.421,1.458-3.631,2.174c-1.211,0.714-2.321,1.476-3.329,2.282c-1.009,0.808-1.871,1.679-2.586,2.614
		c-0.715,0.935-1.183,2.008-1.403,3.219h20.027v4.126h-25.474c0.183-2.31,0.596-4.282,1.238-5.914s1.458-3.054,2.448-4.264
		c0.991-1.21,2.109-2.274,3.357-3.191c1.246-0.917,2.549-1.779,3.906-2.586c1.651-1.026,3.099-1.971,4.346-2.834
		c1.247-0.861,2.283-1.732,3.109-2.613c0.825-0.88,1.448-1.834,1.87-2.861c0.422-1.026,0.633-2.219,0.633-3.576
		c0-1.064-0.202-2.026-0.605-2.889c-0.404-0.861-0.945-1.604-1.623-2.228c-0.679-0.623-1.477-1.1-2.394-1.43
		c-0.916-0.331-1.889-0.496-2.915-0.496c-1.358,0-2.523,0.285-3.494,0.853c-0.972,0.569-1.77,1.312-2.393,2.229
		c-0.625,0.917-1.073,1.953-1.348,3.108c-0.276,1.155-0.395,2.32-0.358,3.493h-4.676
		C108.567,208.619,108.768,206.785,109.282,205.098"/>
	<path style="fill:#FFFFFF;" d="M152.196,203.447h-0.11l-12.984,19.092h13.094V203.447z M161.88,222.539v4.126h-5.281v9.133h-4.402
		v-9.133h-17.11v-4.511l17.77-25.364h3.742v25.749H161.88z"/>
	<g>
		<g>
			<path d="M135.705,111.602c-57.974,0-105.139,47.165-105.139,105.139c0,57.975,47.165,105.14,105.139,105.14
				s105.139-47.165,105.139-105.14C240.844,158.767,193.679,111.602,135.705,111.602 M135.705,352.447
				C60.877,352.447,0,291.57,0,216.741C0,141.913,60.877,81.036,135.705,81.036S271.41,141.913,271.41,216.741
				C271.41,291.57,210.533,352.447,135.705,352.447"/>
			<path d="M106.229,67.792h58.952v12.466c0,0-34.374-5.843-58.952,0.779V67.792z"/>
			<path d="M102.756,37.226c0,0-12.226,0-12.226,12.226v2.094c0,0,0,12.226,12.226,12.226h65.899c0,0,12.226,0,12.226-12.226v-2.094
				c0,0,0-12.226-12.226-12.226H102.756z"/>
		</g>
		<path d="M169.837,34.503H158.63c0-10.674-10.285-19.358-22.925-19.358c-12.641,0-22.925,8.684-22.925,19.358h-11.207
			c0-16.854,15.311-30.566,34.132-30.566C154.525,3.937,169.837,17.649,169.837,34.503"/>
	</g>
	<path style="fill:#231F20;" d="M209.635,278.465L176.438,250.2c8.087-9.498,12.54-21.612,12.54-34.112
		c0-29.039-23.625-52.663-52.664-52.663v-43.6c53.08,0,96.264,43.183,96.264,96.263C232.577,238.936,224.43,261.089,209.635,278.465
		z"/>
	<circle cx="136.135" cy="4.699" r="4.699"/>
</g>
<g id="Layer_1">
</g>
</svg>
