<svg class="timer-svg" id="timer-svg" version="1.1" id="Layer_1" xmlns="http://www.w3.org/2000/svg" xmlns:xlink="http://www.w3.org/1999/xlink" x="0px" y="0px" viewBox="0 0 260.5 350" enable-background="new 0 0 260.5 350" xml:space="preserve">
            <circle cx="130.1" cy="3.7" r="4.1"/>
            <rect x="97.7" y="59" fill="#FFFFFF" width="64.8" height="44"/>
            <ellipse fill="#FFFFFF" cx="130.6" cy="36.2" rx="34.9" ry="28.3"/>
            <path d="M97.7,74h64.8v13.7c0,0-37.8-6.5-64.8,0.9C97.7,88.6,97.7,74,97.7,74z"/>
             <path d="M94,40.3c0,0-13.4,0-13.4,13.4v2.3c0,0,0,13.4,13.4,13.4h72.3c0,0,13.4,0,13.4-13.4v-2.3c0,0,0-13.4-13.4-13.4
              C166.2,40.3,94,40.3,94,40.3z"/>
            <path d="M167.5,37.4h-12.3c0-11.7-11.4-21.3-25.2-21.3s-25.2,9.5-25.2,21.3H92.7c0-18.5,16.8-33.5,37.5-33.5
              C150.6,3.8,167.5,18.9,167.5,37.4"/>

            <!-- Base black circle -->
            <circle fill="#FFFFFF" stroke="#000000" stroke-width="30" stroke-miterlimit="10" cx="130.1" cy="220.4" r="114.5"/>

            <!-- Animated path -->
            <path fill="#FFFFFF" stroke="#009245" stroke-width="35" stroke-miterlimit="1" stroke-dasharray="5 10 700"
            id="timer"  stroke-miterlimit="1"
            data-top="stroke-dashoffset:0;stroke-miterlimit:38;"
            data-bottom="stroke-dashoffset:700; stroke-miterlimit:1;"  d="M132.1,146.6
              c40,1.1,72,33.9,72,74.2c0,41-33.2,74.2-74.2,74.2s-74.2-33.2-74.2-74.2c0-40,31.7-72.6,71.3-74.1"/>

            <!-- Middle black circle -->
            <circle cx="130.1" cy="220.4" r="48.4"/>
            <text id="text" text-anchor="middle" font-family="'helvetica-neue-light'" font-weight="bold" font-size="56" x="130.1" y="238.4" fill="#ffffff">24</text>
        </svg>