<?xml version="1.0" encoding="utf-8"?>
<!-- Generator: Adobe Illustrator 18.1.0, SVG Export Plug-In . SVG Version: 6.00 Build 0)  -->
<svg version="1.1" id="Layer_1" xmlns="http://www.w3.org/2000/svg" xmlns:xlink="http://www.w3.org/1999/xlink" x="0px" y="0px"
	 viewBox="65 -82.5 270 365" enable-background="new 65 -82.5 270 365" xml:space="preserve">
<g id="clock">
	<path fill="#FFFFFF" d="M215.3,18h-30.7c-7.7,0-14-6.5-14-14.6v-57.9c0-8,6.3-14.6,14-14.6h30.7c7.7,0,14,6.5,14,14.6V3.4
		C229.3,11.4,223.1,18,215.3,18z"/>
	<ellipse fill="#FFFFFF" cx="200" cy="142" rx="107.2" ry="111.6"/>
	<polygon points="238.8,179.6 271.3,208.9 266.7,214.5 234.1,185.2 	"/>
	<path fill="#231F20" d="M228.9-46.8h-1c0-14-12.5-25.3-27.9-25.3c-15.4,0-27.9,11.4-27.9,25.3h-1c0-14.5,13-26.4,28.9-26.4
		C215.9-73.1,228.9-61.3,228.9-46.8"/>
	<rect x="94.4" y="137.1" width="22.3" height="9.7"/>
	<rect x="195.3" y="228.7" width="9.3" height="23.2"/>
	<path fill="#231F20" d="M200,188.9c24.9,0,45.1-21,45.1-47c0-25.9-20.2-47-45.1-47s-45.1,21-45.1,47
		C154.9,167.9,175.1,188.9,200,188.9"/>
	<path fill="#FFFFFF" d="M173.7,129.9c0.5-1.7,1.3-3.3,2.4-4.5c1.1-1.3,2.4-2.3,4-3c1.6-0.7,3.4-1.1,5.5-1.1c1.7,0,3.3,0.3,4.7,0.8
		c1.5,0.5,2.8,1.3,3.9,2.2c1.1,1,2,2.2,2.6,3.6c0.6,1.4,1,3.1,1,5c0,1.8-0.3,3.4-0.8,4.7c-0.5,1.4-1.2,2.6-2.1,3.7
		c-0.9,1.1-1.9,2.1-3,2.9c-1.1,0.9-2.3,1.7-3.5,2.5c-1.2,0.8-2.4,1.5-3.6,2.3c-1.2,0.7-2.3,1.5-3.3,2.4c-1,0.8-1.9,1.7-2.6,2.7
		c-0.7,1-1.2,2.1-1.4,3.3h19.9v4.3H172c0.2-2.4,0.6-4.4,1.2-6.1c0.6-1.7,1.5-3.2,2.4-4.4c1-1.3,2.1-2.4,3.3-3.3
		c1.2-0.9,2.5-1.8,3.9-2.7c1.6-1.1,3.1-2,4.3-2.9c1.2-0.9,2.3-1.8,3.1-2.7c0.8-0.9,1.4-1.9,1.9-3c0.4-1.1,0.6-2.3,0.6-3.7
		c0-1.1-0.2-2.1-0.6-3c-0.4-0.9-0.9-1.7-1.6-2.3c-0.7-0.6-1.5-1.1-2.4-1.5c-0.9-0.3-1.9-0.5-2.9-0.5c-1.4,0-2.5,0.3-3.5,0.9
		c-1,0.6-1.8,1.4-2.4,2.3c-0.6,0.9-1.1,2-1.3,3.2c-0.3,1.2-0.4,2.4-0.4,3.6h-4.7C173,133.5,173.2,131.7,173.7,129.9"/>
	<path fill="#FFFFFF" d="M216.4,128.2h-0.1L203.4,148h13V128.2z M226,148v4.3h-5.3v9.5h-4.4v-9.5h-17v-4.7l17.7-26.3h3.7V148H226z"
		/>
	<g>
		<g>
			<path d="M200,33.1C142.3,33.1,95.4,81.9,95.4,142c0,60,46.9,108.9,104.6,108.9S304.6,202,304.6,142
				C304.6,81.9,257.7,33.1,200,33.1 M200,282.5c-74.4,0-135-63-135-140.5C65,64.5,125.6,1.4,200,1.4s135,63,135,140.5
				C335,219.5,274.4,282.5,200,282.5"/>
			<path d="M170.7-12.3h58.6V0.6c0,0-34.2-6.1-58.6,0.8C170.7,1.4,170.7-12.3,170.7-12.3z"/>
			<path d="M167.2-43.9c0,0-12.2,0-12.2,12.7v2.2c0,0,0,12.7,12.2,12.7h65.6c0,0,12.2,0,12.2-12.7v-2.2c0,0,0-12.7-12.2-12.7
				C232.8-43.9,167.2-43.9,167.2-43.9z"/>
		</g>
		<path d="M234-46.8h-11.1c0-11.1-10.2-20-22.8-20c-12.6,0-22.8,9-22.8,20H166c0-17.5,15.2-31.7,34-31.7
			C218.7-78.4,234-64.2,234-46.8"/>
	</g>
	<path fill="#231F20" d="M273.5,205.9l-33-29.3c8-9.8,12.5-22.4,12.5-35.3c0-30.1-23.5-54.5-52.4-54.5V41.6
		c52.8,0,95.8,44.7,95.8,99.7C296.4,164.9,288.3,187.9,273.5,205.9z"/>
	<ellipse cx="200.4" cy="-77.6" rx="4.7" ry="4.9"/>
</g>
<g id="Layer_1_1_">
</g>
</svg>
