<svg  version="1.1" xmlns="http://www.w3.org/2000/svg" xmlns:xlink="http://www.w3.org/1999/xlink" preserveAspectRatio="none" x="0px" y="0px" width="200px" height="200px" viewBox="0 0 200 200">
<defs>
<g id="Layer0_0_FILL">
<path fill="#CCCCCC" stroke="none" d="
M 604.1 508.3
L 590.95 508.3 590.95 534.95 604.1 534.95 604.1 508.3
M 608.2 534.95
L 621.4 534.95 621.4 508.3 608.2 508.3 608.2 534.95
M 550.7 514.4
L 541.25 514.4
Q 545.7716796875 518.59375 550.7 522.1
L 550.7 514.4
M 550.7 508.45
L 550.7 496.3 539.55 496.3 539.55 508.45 550.7 508.45
M 566.9 514.4
L 555.75 514.4 555.75 525.5
Q 556.6548828125 526.0619140625 557.55 526.6
L 566.9 526.6 566.9 514.4
M 555.75 496.3
L 555.75 508.45 566.9 508.45 566.9 496.3 555.75 496.3
M 606.15 475.6
Q 601.75 475.6 598.65 478.7 595.55 481.8 595.55 486.2 595.55 490.6 598.65 493.75 601.75 496.85 606.15 496.85 610.6 496.85 613.7 493.75 616.8 490.65 616.8 486.2 616.8 481.8 613.7 478.7 610.55 475.6 606.15 475.6
M 604.75 479.65
Q 604.75 479.15 605.2 478.75 605.65 478.4 606.2 478.4 606.75 478.4 607.2 478.75 607.65 479.15 607.65 479.65
L 607.65 485.6 614.95 485.6
Q 615.9 485.6 615.9 486.55 615.9 487.45 614.95 487.45
L 606.2 487.45 605.65 487.4
Q 604.75 487.15 604.75 486.2
L 604.75 479.65
M 619.7 432.25
L 619.7 409.15 592.65 409.15 592.65 432.25 619.7 432.25
M 609.2 411
Q 612.65 412.15 612.9 415.55 613.3 420.75 613.85 421.85 614.6 423.25 615.55 424.05 616.3 424.6 616.3 424.9
L 616.3 426.7
Q 616.3 427.1 616.05 427.35 615.8 427.6 615.4 427.6
L 596.95 427.6
Q 596.6 427.6 596.3 427.35 596.05 427.1 596.05 426.7
L 596.05 424.9
Q 596.05 424.6 596.75 424.05 597.75 423.25 598.5 421.85 599.05 420.75 599.45 415.55 599.7 412.15 603.15 411 606.2 410 609.2 411
M 599.7 430.45
Q 598.85 429.8 598.6 428.75
L 604.75 428.75
Q 604.5 429.75 603.65 430.45 602.8 431.1 601.7 431.1 600.6 431.1 599.7 430.45
M 634.35 355.75
Q 633.818359375 355.6134765625 633.25 355.45 634.325390625 355.7880859375 635.35 356.15
L 634.35 355.75
M 687.55 399.15
Q 681.2783203125 388.04296875 672.05 378.85 659.05 365.8 642.15 358.65 642.012890625 358.5921875 641.85 358.5
L 638.6 357.3
Q 643.0306640625 359.0630859375 647.35 361.25
L 647.35 361.3
Q 632.95 356.45 617.6 356.45 598.5 356.45 581.05 363.85 564.15 370.95 551.15 383.95 538.15 396.95 531.05 413.85 523.65 431.3 523.65 450.4 523.65 467.4748046875 529.35 482.85
L 529.35 442.35 585.2 442.35 585.2 454.2 588.45 454.2 588.45 409.15 585.25 409.15 585.25 402.5 604.8 393.45 604.8 369.6 607.55 369.6 607.55 371.9
Q 612.8 370.5 616.65 371.15 619.2 371.6 622.85 373.55 627.05 375.8 629.35 376.5 633.438671875 377.7544921875 638.65 377.5 639.0466796875 377.4783203125 639.45 377.45 639.283984375 377.58046875 639.1 377.7
L 687.55 399.15
M 661.65 514.4
L 661.65 521.05
Q 665.015625 518.56640625 668.15 515.7 668.9021484375 515.0767578125 669.6 514.4
L 661.65 514.4
M 653.35 526.6
Q 655.0083984375 525.6314453125 656.6 524.6
L 656.6 514.4 645.45 514.4 645.45 526.6 653.35 526.6
M 656.6 508.45
L 656.6 496.3 645.45 496.3 645.45 508.45 656.6 508.45
M 672.8 508.45
L 672.8 496.3 661.65 496.3 661.65 508.45 672.8 508.45
M 678.75 490.8
L 678.75 486.5 643.05 486.5 643.05 479.1 606.15 451 569.3 479.1 569.3 486.5 530.75 486.5
Q 532.0501953125 489.525390625 533.55 492.45
L 533.55 490.8 572.85 490.8 572.85 533
Q 573.84140625 533.534765625 574.85 534.05
L 574.6 534
Q 573.719921875 533.6966796875 572.85 533.35
L 572.85 533.85
Q 574.40546875 534.4310546875 575.95 534.95
L 577.15 534.95 577.15 486.5 573.6 486.5 573.6 481.15 606.15 456.5 638.75 481.15 638.75 486.5 635.2 486.5 635.2 534.85
Q 637.3361328125 534.160546875 639.45 533.35
L 639.45 490.8 678.75 490.8 Z"/>

<path fill="#999999" stroke="none" d="
M 572.85 533.35
Q 573.719921875 533.6966796875 574.6 534
L 574.85 534.05
Q 573.84140625 533.534765625 572.85 533
L 572.85 533.35 Z"/>
</g>

<g id="Layer0_1_FILL">
<path fill="#000000" stroke="none" d="
M 555.75 514.4
L 566.9 514.4 566.9 526.6 557.55 526.6
Q 562.957421875 529.778125 568.8 532.25 570.8134765625 533.1013671875 572.85 533.85
L 572.85 490.8 533.55 490.8 533.55 506.3
Q 536.0640625 509.2640625 538.85 512.05 540.0482421875 513.2482421875 541.25 514.4
L 550.7 514.4 550.7 522.1
Q 553.1708984375 523.8958984375 555.75 525.5
L 555.75 514.4
M 566.9 508.45
L 555.75 508.45 555.75 496.3 566.9 496.3 566.9 508.45
M 550.7 496.3
L 550.7 508.45 539.55 508.45 539.55 496.3 550.7 496.3
M 573.6 481.15
L 573.6 486.5 577.15 486.5 577.15 534.95 575.95 534.95
Q 590.188671875 539.65 605.45 539.65 620.8408203125 539.65 635.2 534.85
L 635.2 486.5 638.75 486.5 638.75 481.15 606.15 456.5 573.6 481.15
M 598.65 478.7
Q 601.75 475.6 606.15 475.6 610.55 475.6 613.7 478.7 616.8 481.8 616.8 486.2 616.8 490.65 613.7 493.75 610.6 496.85 606.15 496.85 601.75 496.85 598.65 493.75 595.55 490.6 595.55 486.2 595.55 481.8 598.65 478.7
M 621.4 534.95
L 608.2 534.95 608.2 508.3 621.4 508.3 621.4 534.95
M 604.1 534.95
L 590.95 534.95 590.95 508.3 604.1 508.3 604.1 534.95
M 605.2 478.75
Q 604.75 479.15 604.75 479.65
L 604.75 486.2
Q 604.75 487.15 605.65 487.4
L 606.2 487.45 614.95 487.45
Q 615.9 487.45 615.9 486.55 615.9 485.6 614.95 485.6
L 607.65 485.6 607.65 479.65
Q 607.65 479.15 607.2 478.75 606.75 478.4 606.2 478.4 605.65 478.4 605.2 478.75
M 669.6 514.4
Q 670.854296875 513.250390625 672.05 512.05 675.61953125 508.48046875 678.75 504.6
L 678.75 490.8 639.45 490.8 639.45 533.35
Q 640.8046875 532.8173828125 642.15 532.25 647.9955078125 529.776953125 653.35 526.6
L 645.45 526.6 645.45 514.4 656.6 514.4 656.6 524.6
Q 659.18125 522.9224609375 661.65 521.05
L 661.65 514.4 669.6 514.4
M 672.8 496.3
L 672.8 508.45 661.65 508.45 661.65 496.3 672.8 496.3
M 656.6 496.3
L 656.6 508.45 645.45 508.45 645.45 496.3 656.6 496.3
M 683 486.5
L 683 442.35 627.15 442.35 627.15 454.2 623.85 454.2 623.85 409.15 627.1 409.15 627.1 402.5 607.55 393.45 607.55 386
Q 609.65 384.5 612.9 384.4 616.1 384.35 618.65 385.75 623.7 388.5 629.75 385 630.1 384.8 639.45 377.45 633.75 377.85 629.35 376.5 627.05 375.8 622.85 373.55 619.2 371.6 616.65 371.15 612.8 370.5 607.55 371.9
L 607.55 369.6 604.8 369.6 604.8 393.45 585.25 402.5 585.25 409.15 588.45 409.15 588.45 454.2 585.2 454.2 585.2 442.35 529.35 442.35 529.35 486.5 569.3 486.5 569.3 479.1 606.15 451 643.05 479.1 643.05 486.5 683 486.5
M 619.7 409.15
L 619.7 432.25 592.65 432.25 592.65 409.15 619.7 409.15
M 598.6 428.75
Q 598.85 429.8 599.7 430.45 600.6 431.1 601.7 431.1 602.8 431.1 603.65 430.45 604.5 429.75 604.75 428.75
L 598.6 428.75
M 612.9 415.55
Q 612.65 412.15 609.2 411 606.2 410 603.15 411 599.7 412.15 599.45 415.55 599.05 420.75 598.5 421.85 597.75 423.25 596.75 424.05 596.05 424.6 596.05 424.9
L 596.05 426.7
Q 596.05 427.1 596.3 427.35 596.6 427.6 596.95 427.6
L 615.4 427.6
Q 615.8 427.6 616.05 427.35 616.3 427.1 616.3 426.7
L 616.3 424.9
Q 616.3 424.6 615.55 424.05 614.6 423.25 613.85 421.85 613.3 420.75 612.9 415.55 Z"/>
</g>

<g id="Layer0_2_FILL">
<path fill="#999999" stroke="none" d="
M 605.45 351.25
Q 605.325 351.25 605.2 351.25 588.6478515625 351.2919921875 573.3 356.85
L 573.15 356.9
Q 570.887890625 357.7009765625 568.65 358.65 551.75 365.75 538.75 378.75 525.75 391.75 518.65 408.6 517.7 410.8400390625 516.9 413.1
L 516.85 413.25
Q 511.3005859375 428.6189453125 511.25 445.15 511.25 445.3001953125 511.25 445.45 511.25 457.246875 514.05 468.4 514.512109375 470.2525390625 515.05 472.05
L 517.65 479.6
Q 517.749609375 479.8501953125 517.85 480.1 522.11640625 490.6255859375 529.1 500.25 531.24609375 503.20546875 533.55 505.95
L 533.55 492.45
Q 532.0501953125 489.525390625 530.75 486.5
L 529.35 486.5 529.35 482.85
Q 523.65 467.4748046875 523.65 450.4 523.65 431.3 531.05 413.85 538.15 396.95 551.15 383.95 564.15 370.95 581.05 363.85 598.5 356.45 617.6 356.45 632.95 356.45 647.35 361.3
L 647.35 361.25
Q 643.0306640625 359.0630859375 638.6 357.3
L 637.5 356.9
Q 636.824609375 356.6703125 636.15 356.4
L 635.35 356.15
Q 634.325390625 355.7880859375 633.25 355.45 633.818359375 355.6134765625 634.35 355.75 620.3978515625 351.25 605.45 351.25 Z"/>
</g>

<g id="Layer0_3_FILL">
<path fill="#B3B3B3" stroke="none" d="
M 699.65 445.45
Q 699.65 426.3 692.25 408.75 690.1560546875 403.8009765625 687.55 399.15
L 639.1 377.7
Q 630.09375 384.803515625 629.75 385 623.7 388.5 618.65 385.75 616.1 384.35 612.9 384.4 609.65 384.5 607.55 386
L 607.55 393.45 627.1 402.5 627.1 409.15 623.85 409.15 623.85 454.2 627.15 454.2 627.15 442.35 683 442.35 683 486.5 678.75 486.5 678.75 504.6
Q 687.0556640625 494.37734375 692.25 482.1 699.65 464.6 699.65 445.45 Z"/>
</g>
</defs>

<g transform="matrix( 1, 0, 0, 1, -504.95,-345.5) ">
<use xlink:href="#Layer0_0_FILL"/>
</g>

<g transform="matrix( 1, 0, 0, 1, -504.95,-345.5) ">
<use xlink:href="#Layer0_1_FILL"/>
</g>

<g transform="matrix( 1, 0, 0, 1, -504.95,-345.5) ">
<use xlink:href="#Layer0_2_FILL"/>
</g>

<g transform="matrix( 1, 0, 0, 1, -504.95,-345.5) ">
<use xlink:href="#Layer0_3_FILL"/>
</g>
</svg>
