<?xml version="1.0" encoding="iso-8859-1"?>
<!-- Generator: Adobe Illustrator 18.1.0, SVG Export Plug-In . SVG Version: 6.00 Build 0)  -->
<!DOCTYPE svg PUBLIC "-//W3C//DTD SVG 1.1//EN" "http://www.w3.org/Graphics/SVG/1.1/DTD/svg11.dtd">
<svg version="1.1" xmlns="http://www.w3.org/2000/svg" xmlns:xlink="http://www.w3.org/1999/xlink" x="0px" y="0px"
	 viewBox="0 0 1024 1053.325" style="enable-background:new 0 0 1024 1053.325;" xml:space="preserve">
<g id="world">
	<g>
		<defs>
			<circle id="SVGID_1_" cx="515.221" cy="618.173" r="435.153"/>
		</defs>
		<use xlink:href="#SVGID_1_"  style="overflow:visible;fill:#83CFF4;"/>
		<clipPath id="SVGID_2_">
			<use xlink:href="#SVGID_1_"  style="overflow:visible;"/>
		</clipPath>
		<path style="clip-path:url(#SVGID_2_);fill:#114069;" d="M486.554,684.469l0.416,4.996l5.412-0.416l3.331-3.331l-0.416-2.498
			l-6.662-0.416L486.554,684.469 M435.76,465.056l1.665,1.665l2.498-3.331l-7.494-0.416l-1.249-1.249l0.416-1.665l-1.665,2.082
			l3.747,3.331L435.76,465.056 M446.168,468.803l2.498-2.498l-3.331-0.833l0.833-3.331l-0.416-1.665l-3.331,8.327H446.168
			 M464.904,444.655l1.665-2.498l-2.498-1.665l-2.498,3.747l4.58-13.323l-3.747,0.833l-12.074,24.564l18.319,0.416l-4.163,4.58
			l5.412-3.331l1.665-3.331l0.833,7.494l3.747,0.833l0.416-9.16l-3.331,2.914l-0.833-2.498l3.747-4.163l-4.58,1.249l2.082-4.996
			L464.904,444.655 M437.009,443.406l-7.494-1.249l4.163,3.331l7.078,1.249L437.009,443.406 M708.465,502.527l-2.498,0.833
			l3.331,1.665L708.465,502.527 M757.593,514.601l2.082-4.163l-11.658,0.416l-0.833,2.914l9.992,4.996l1.249-2.914L757.593,514.601
			 M673.076,410.515l-2.082-0.416l0.833-1.665l-1.665-2.082l-3.331,0.833l-0.833-1.665l-0.833,2.082l-4.996,2.498l2.498,0.833
			l-1.665,2.498l-4.58-0.416l-1.665,3.331l2.082,0.416l-1.665,2.498l4.58,2.082l-2.498,0.833l-1.249,2.914l1.665,0.416l-2.498,2.498
			h-2.082l2.082,1.665l14.156-1.249l0.416-12.074l3.747-2.498L673.076,410.515 M732.196,492.118l1.665,1.249l0.416-7.91
			l-2.914,1.249L732.196,492.118 M730.531,495.865c-0.833,1.249-0.833,2.914-0.833,4.58c0,1.665,0.416,3.331,0.833,4.58
			c0.833,1.249,1.665,1.665,2.498,1.665s1.665-0.416,2.498-1.665c0.833-1.249,0.833-2.914,0.833-4.58
			c0-1.665-0.416-3.331-0.833-4.58c-0.833-1.249-1.665-1.665-2.498-1.665C731.78,494.2,730.947,494.616,730.531,495.865
			 M739.691,406.768c0.416-0.416,0.833-0.833,0.833-1.665s-0.416-0.833-0.833-1.249c-0.416-0.416-0.833-0.833-1.249-0.833
			c-0.416,0-0.833,0.416-1.665,0.833c-0.416,0.416-0.416,0.833-0.416,1.249s0,0.833,0.416,1.665s0.833,0.416,1.665,0.416
			C739.274,407.184,739.691,407.184,739.691,406.768 M751.348,410.098l-1.665,2.498l2.082-0.416L751.348,410.098 M742.605,405.935
			l2.082,1.249l2.914-6.662l-2.082-0.833l-0.416,2.498l-1.249-1.665l-2.082,2.498L742.605,405.935 M1025.302,641.586l0.833,1.665
			l-2.082,4.996l1.249,7.494l2.498,2.082l4.996-4.163v-3.747L1025.302,641.586 M900.816,737.761l-3.747-4.996l-7.911,12.907
			l-10.825,4.996l-2.498,5.412l3.331,9.992l-7.078,8.743l2.082,11.241l7.078,6.245l7.91-3.747L900.816,737.761 M780.492,510.021
			L780.492,510.021C781.325,512.103,781.325,512.103,780.492,510.021 M793.815,523.76l-0.833,2.082h3.331l2.498,1.665l5.412-1.665
			L793.815,523.76 M795.064,508.772l-4.58-1.665l5.829,4.58L795.064,508.772 M835.45,527.507l3.331-4.163l-5.412,3.331l-2.082-0.416
			l-2.498,0.833l0.833,1.665l2.082,0.833L835.45,527.507 M805.889,506.69l-1.249-2.498l-2.498,0.833l1.665,1.665L805.889,506.69
			 M414.943,958.423l2.082,0.416l-0.416-2.498l-3.331,0.416L414.943,958.423 M408.698,960.088h4.58l-0.833-3.331l-6.662,0.833
			L408.698,960.088 M401.62,952.178l-2.082,1.665l9.16,2.498l4.996-2.082l6.662,2.498l2.498-1.249l2.498,0.833l0.833-2.082h-4.163
			l-11.241-15.405l-3.747,0.416l-3.331,2.914l1.249,3.331l2.914-0.416l-2.914,2.082l0.833,3.331l2.914,1.665H401.62
			 M389.129,943.435l-2.914-2.914l0.416,2.082L389.129,943.435 M394.542,949.68l1.249-2.082l-5.412-2.498l1.665,4.163
			L394.542,949.68 M396.624,948.847l1.249,2.498l3.331,0.416L396.624,948.847 M394.958,937.189v-1.665l-4.163,1.665l1.665,5.412
			h1.665l0.833,2.498l0.416-2.082l3.747-2.498l-2.082-0.416l-2.082,0.833l-2.082-2.082L394.958,937.189 M387.048,927.197
			l-1.665-0.833l1.249,4.163L387.048,927.197 M384.55,924.699l0.416-1.665l-2.082,0.416L384.55,924.699 M385.799,922.201
			l1.249-1.665l-1.665-6.662l-1.665,2.498L385.799,922.201 M393.709,890.143c0-0.416,0-0.833-0.416-0.833
			c-0.416-0.416-0.416-0.416-0.833-0.416c-0.416,0-0.833,0-0.833,0.416c-0.416,0.416-0.416,0.416-0.416,0.833
			c0,0.416,0,0.833,0.416,0.833c0.416,0.416,0.833,0.416,0.833,0.416c0.416,0,0.833,0,0.833-0.416
			C393.709,890.975,393.709,890.559,393.709,890.143 M387.464,880.983l2.498,1.249l0.833-2.498l-0.416-2.498l1.665-1.665
			l-1.665-3.331L387.464,880.983 M378.721,606.196h2.498l-4.996-2.914l-3.747,0.833l4.996,2.914L378.721,606.196 M151.813,404.686
			l1.665-1.665l-0.833-1.665L151.813,404.686 M150.981,418.425l0.833-5.412l-2.498,2.498l-2.082-2.914l1.665,5.412L150.981,418.425
			 M151.397,422.589l0.833-2.498l-3.331,0.416l4.996,6.245L151.397,422.589 M173.88,444.655l12.49,6.245
			c-4.163-5.829-9.16-9.992-14.572-12.907c-1.665-0.833-3.331-1.665-4.996-2.498l2.082,1.249l-0.833,2.914h2.498l4.996,3.331
			L173.88,444.655 M420.355,603.698c-0.833,0-1.665,0-2.082,0.416c-0.833,0.416-0.833,0.416-0.833,0.833
			c0,0.416,0.416,0.833,0.833,0.833c0.416,0.416,1.249,0.416,2.082,0.416s1.665,0,2.498-0.416c0.416-0.416,0.833-0.416,0.833-0.833
			c0-0.416-0.416-0.833-0.833-0.833C422.02,603.698,421.188,603.698,420.355,603.698 M394.958,599.535l0.833,3.747l-7.494,0.833
			c0.416,0.416,1.249,0.833,2.082,1.249c3.331,0,6.245,0.416,9.576,0.416l4.163-2.498l1.665,1.665l1.665-1.665l5.829,1.249
			l-1.665-3.331l-3.331-0.416l-1.665-2.914l-7.078-0.833l-1.665,1.249l-3.747-0.833l-1.665,0.833L394.958,599.535 M345.413,589.126
			l12.074-3.747l-0.833,1.665l14.156,3.747l0.833,3.331l5.829,0.833l-4.163,3.331l15.821-1.665l-3.331-2.498l-3.331,0.416
			l-20.401-11.241l-15.821,2.082L345.413,589.126 M394.958,495.449l-4.163,2.498l7.911-2.498H394.958 M367.063,398.441l0.416,3.331
			l2.082-4.58L367.063,398.441 M358.736,420.507l-1.665,1.249l2.498,0.416l1.665,1.665l0.416-3.331H358.736 M413.694,366.382
			l2.082-3.331l-1.665,0.833L413.694,366.382 M365.814,355.974l2.082-7.494l-3.331,0.416l-0.416,4.58L365.814,355.974
			 M374.557,341.818l0.833-2.498l-1.665-1.249l-2.498,0.833L374.557,341.818 M379.553,338.904l-3.331-2.498l0.416,1.665
			L379.553,338.904 M355.822,343.067l-4.163,1.665l-2.082,6.661l4.58-2.082l0.416-1.665l3.331-3.331L355.822,343.067
			 M352.491,317.254l-5.412-4.996l3.331,4.996H352.491 M340.001,330.993l-3.747,3.331l-0.416,3.331l5.829-2.498l0.833,6.245
			l3.747-0.833l4.58-5.412l-0.833-2.498l3.331-0.416l-0.833,2.082l8.743,4.58l3.331-3.331l-2.498-2.914l-3.331,0.833l-1.665-6.245
			l-4.996-2.498l-0.833-2.498l-3.331-0.833l-1.249-2.498l-1.665,1.665l-2.498-6.245L340.001,330.993 M285.043,280.616l1.249,2.914
			l1.665-0.833l9.576,5.412l4.996-4.163l-2.498-0.833l-0.416-3.747l-8.743-7.91l-2.082,7.494L285.043,280.616 M297.534,229.822
			l-1.665-2.498l-1.665,1.665l1.249,2.498L297.534,229.822 M273.802,229.822l-1.665,3.331l4.996,8.327l3.331-0.416l7.494,13.323
			l8.743-6.662l-0.416-12.49l-3.747-4.58l-2.498,0.833l4.996-12.907l-9.16,1.249l-3.331-3.331l-5.412,7.91l4.58,2.498l0.833,6.245
			l-3.747,2.498L273.802,229.822 M256.732,223.993l4.58,6.662l2.914-3.747l0.416-5.412l-2.914-2.498l-4.996,0.416l-2.914,3.747
			L256.732,223.993 M267.973,195.681c0-0.833-0.416-1.665-0.833-2.082c-0.416-0.833-1.249-0.833-2.082-0.833
			s-1.249,0.416-1.665,0.833c-0.416,0.416-0.833,1.249-0.833,2.082s0.416,1.665,0.833,2.498c0.416,0.416,1.249,0.833,1.665,0.833
			c0.833,0,1.249-0.416,2.082-0.833C267.973,197.347,267.973,196.514,267.973,195.681 M292.121,214.833l-4.163,0.416l-2.498,2.082
			l2.498,1.665L292.121,214.833 M298.366,200.678l6.662,4.996l4.163-0.833v-9.576l-6.245-6.662l-5.412,7.911L298.366,200.678
			 M309.191,211.919l-7.494,4.58l2.914,4.163l-3.747-1.665l2.914,24.564l3.747-0.416l2.498-6.245l-3.331-3.331l8.743,0.416
			l7.494-17.07L309.191,211.919 M390.795,291.857l-3.747,0.833l5.413,1.665L390.795,291.857 M370.394,281.032l2.498-4.58
			l-5.412,5.829L370.394,281.032 M377.472,290.608c-0.833,1.249-1.249,2.498-1.249,4.163s0.416,3.331,1.249,4.58
			s2.082,1.665,3.331,1.665c1.249,0,2.498-0.416,3.747-1.665c0.833-1.249,1.249-2.914,1.249-4.58s-0.416-2.914-1.249-4.163
			c-0.833-1.249-2.082-1.665-3.747-1.665C379.553,288.942,378.304,289.359,377.472,290.608 M363.732,271.456l2.082,3.747
			l2.498-3.747H363.732 M368.728,221.495l-5.829-1.665l-0.833,6.662l3.331,1.665l0.833,4.996l2.498,1.249l4.58-2.914l8.743,1.665
			l-4.996-9.992l-4.996-2.914L368.728,221.495 M364.149,202.759c0.416,0.416,0.833,0.833,1.665,0.833
			c0.833,0,1.249-0.416,1.665-0.833c0.416-0.416,0.416-0.833,0.416-1.665c0-0.833-0.416-1.249-0.416-1.665
			c-0.416-0.416-0.833-0.833-1.665-0.833c-0.833,0-1.249,0.416-1.665,0.833c-0.416,0.416-0.416,0.833-0.416,1.665
			C363.732,201.927,363.732,202.759,364.149,202.759 M145.985,397.608l-2.082-0.416l-0.416,2.498l3.331,2.498l-0.416,1.665
			l2.498,1.665l0.833,2.914C150.564,404.686,149.315,400.939,145.985,397.608 M140.156,391.363h2.082v-7.91h-2.082V391.363
			 M144.319,393.445v3.331l1.665-0.416l-0.833-2.914l1.249,0.833l-0.833-2.498l-3.331-0.833L144.319,393.445 M142.238,395.526
			l0.833-2.082h-2.082L142.238,395.526 M139.323,393.861l-0.833,1.665l1.249,2.082L139.323,393.861 M138.49,390.114
			c-0.833-0.416-1.665-1.249-2.498-1.665c0,0.416,0,0.833,0,1.249l1.249,2.498v2.082l1.665-2.082L138.49,390.114 M134.743,382.203
			l-2.498,2.082l2.082,4.58l0.833-2.498l2.914,1.665l0.416-3.747L134.743,382.203 M210.102,210.254l-8.743,1.249l-7.078-5.412
			l-12.907,2.082l3.747,9.992l-9.576,25.397l7.911,2.498l4.163,9.16l3.747-4.996l7.494,1.665l0.416-11.241l19.985-19.152
			L210.102,210.254 M228.004,229.405l-3.331,1.249l1.665,3.331l-4.58,0.833l2.498-10.825l-15.821,9.992l-4.163,11.658l6.661,4.996
			l5.412-0.833l1.665,1.249l-10.825,5.412l4.996,4.58l13.323-0.833l7.911,4.163l-0.833,1.665l-9.16-2.082l-12.074,4.996l6.661,8.743
			l6.661-0.833l3.747,8.743l28.311-10.409l0.416,2.914l10.409,5.829l9.16-4.163l-3.331-3.747l-4.58,1.665l3.331-7.494l7.078,2.498
			v-4.163l-15.821-13.323l-3.331-23.315l-11.241-6.245l4.58,19.984l-4.58,2.498l-2.914-13.323l-7.494-4.58l2.082,5.829L233,238.565
			l3.331-3.331L228.004,229.405 M226.339,169.452c0.416-0.416,0.833-0.833,0.833-1.249s-0.416-0.833-0.833-0.833
			c-0.416-0.416-1.249-0.833-2.082-0.833c-0.833,0-1.249,0.416-1.665,0.833c-0.416,0.416-0.833,0.416-0.833,0.833
			c0,0.416,0.416,0.833,0.833,1.249s1.249,0.416,1.665,0.416C225.09,169.868,225.923,169.868,226.339,169.452 M225.923,150.716
			v-2.082l-2.498-2.082l-2.914,0.833l3.331,4.58L225.923,150.716 M240.078,155.713l0.833-4.996l-3.747,0.833l-1.665-1.665
			l7.078-2.498l0.416-2.498l-3.331-0.833l-11.658,4.163l0.416,7.911l2.914,0.833l0.833,2.082L240.078,155.713 M206.771,191.518
			l4.163-10.825l-7.494,7.91L206.771,191.518 M213.849,155.296l-2.498,1.665l2.498,1.665l-3.331,0.833l-1.665-0.833l-4.996,0.833
			l-9.992,15.821l-2.082-0.416l-3.331,4.58l0.833,3.331l4.996,0.833l2.082-4.163l1.665,6.245l2.914-1.665l1.249-6.662l0.833,3.331
			l2.498-3.331l-0.833-3.331l1.249-4.163l2.498-0.833l-1.665,6.245l3.331,3.331l0.833-4.58l3.747-2.082l-0.833-3.747l2.498-0.416
			l-2.914-4.996l4.58-2.914L213.849,155.296 M231.751,135.312l-4.58,4.58l4.163-1.665l3.331,2.498l0.833-3.331l3.331,3.331
			l4.996-1.249v-3.747l-5.412-4.996l-2.498,3.747L231.751,135.312 M366.23,186.522l3.747-0.416l-1.665-1.665v-3.331L366.23,186.522
			 M310.44,177.779l4.58,12.49l-2.082,3.747l3.331,12.074l4.58-1.249l2.498,3.747l2.498-2.498l-1.665-4.163l2.498,2.082l2.498-2.914
			l0.416,6.662l19.985-0.833l1.665-5.412l4.58,4.996l8.327-1.665l-1.665-4.996l4.58-6.662l-9.992-7.494l-14.156,4.163l-1.249,2.498
			h-6.245l-12.074-7.494l-4.58,1.665v-6.662l9.16-2.082l-8.743-7.911l-10.409,4.163l1.665-7.494l-10.825-4.58l-4.58,3.331
			l8.743,12.49L310.44,177.779 M300.032,156.129l9.992,1.665l-0.416-3.331l1.249-1.249l-1.665-2.082l-7.91-0.833l-2.914,2.498
			L300.032,156.129 M296.701,189.02l-2.498,2.082l0.833,2.498L296.701,189.02 M271.304,184.024l-2.082,2.498h3.331l1.249-3.331
			L271.304,184.024 M260.896,189.853l-2.082-7.078l-3.747,0.416v4.58l-1.665-3.747l-2.914,1.665l1.665-3.747l-3.747-0.833
			l1.249-4.58l-2.914-4.996l1.249-2.082l-1.249-1.665l-2.498,0.416l-1.249,5.412l-3.747,1.249l5.829,7.078l-3.331,2.082l4.58,3.747
			l-0.833,2.082l-8.743,0.416l-2.082-4.996l-2.914,0.416l1.665-2.498l-4.58-5.829l-5.412,1.665v-4.58l-6.245,0.416l-0.833,2.914
			l4.58,2.082l-6.661-0.416l-1.665,4.996l7.494,0.416l-8.743,2.082l-0.416,3.331l8.743-2.914l-4.163,4.163l-4.58-0.833l-2.498,4.163
			l6.245,1.665l2.498,3.331l1.665-2.914l1.249,2.498l2.082-2.498l-0.416-2.498l2.498-2.082h2.498l-3.331,6.662l5.412-0.416
			l0.416-2.914l2.082,1.665l4.996-2.082l-4.163,4.58l-5.829,0.416l-4.163,3.747l2.498,3.331l5.412,0.833l7.078-4.58
			c0-0.416,0-0.416,0-0.833c0-0.416-0.416-0.416-0.416-0.833c0,0,0-0.416,0.416-0.416c0.416,0,0.416,0,0.833,0l7.911-4.58
			l0.833,2.914l2.914-2.498l3.331,3.331l2.914-2.498L260.896,189.853 M275.884,172.366
			C275.884,172.366,276.3,172.783,275.884,172.366c0.833,0.416,1.249,0.416,2.082,0.416l2.498-3.331L275.884,172.366
			 M275.884,174.032l-2.498,2.498l1.665,6.245h1.665l0.416,3.747l-2.914-1.665l-0.416,2.498l-2.082,2.498l15.405-3.331l-3.747,1.665
			l-3.747,7.494l1.665,3.747l7.91-0.833l0.416-2.082l1.665,0.833l-2.082-3.331l1.665-4.58l1.665,3.747l0.416-4.996l-2.498-1.665
			l1.665-1.249v-5.412l-1.249-2.082l0.833-2.498l-3.747-3.747l-2.082,3.331l-5.413-3.747l-3.331,2.498l4.163,3.331l1.665,6.245
			l-3.331-1.665L275.884,174.032 M268.806,176.946l1.665-1.665l-4.163-4.58l-2.914,1.665l1.249,1.249l0.416,2.914L268.806,176.946
			l-2.914,0.833v3.331l3.747,0.833l2.914-2.498L268.806,176.946 M258.814,151.549l3.331,9.992l3.331,0.416l-3.331-9.16
			L258.814,151.549 M277.549,149.884l2.082,0.416l-3.747-3.747l-3.331,1.665l3.331,3.331L277.549,149.884 M269.639,119.491
			l-2.498,0.416l-0.833-2.498l-5.412,1.665l-1.249,2.498l0.833,3.747l3.331-0.416l-0.833,4.58l3.331-3.747l0.833,1.665l-0.833,2.498
			l3.747,0.833l-2.498,2.498l2.914,0.833l-1.249,2.082l-5.412-1.665l-0.833,3.331l4.163,3.747l4.996-3.331l0.833,2.082l3.747-0.416
			l2.914,1.249l1.665,6.245l2.914,2.498l3.331-1.249c0-2.082,0-4.163,0-6.245c0-6.245-2.498-11.658-7.494-15.821l-1.665,0.833
			l-0.833-3.747l-1.665,0.833l-2.498-4.163l-2.498,1.665l-0.416,3.331L269.639,119.491 M298.783,134.895v-2.498l-7.911-4.163
			l-0.833,7.494l2.914,6.245l3.747,1.665l-4.163,1.249l3.747,7.078l1.665-2.914l6.245-0.416v-7.494l1.249-1.665l-2.498-4.163
			L298.783,134.895 M303.779,83.685l-2.498,2.082l4.996,4.996l-1.665,2.082l-4.163-0.416l6.245,11.658l-7.91,2.498l0.416,3.331
			l5.829,1.665l1.665,3.747l10.409,4.996l1.665,4.996l-8.327-3.331l-4.163,2.914l1.665,6.662l4.996,4.58l-4.996,2.498l8.743,6.245
			l1.665-3.747h3.331l0.416-5.829l4.58,3.331l3.331-4.996l-0.416-6.245l6.662-1.249l3.747-4.163l-3.331-5.412l-4.58-1.665
			l-2.498-9.576l-6.662-0.416l-2.914-11.658l-4.996-2.082l-3.331-14.572l-3.747,7.494h-4.163 M67.712,382.62l-1.249-1.665
			l-3.331,2.082L67.712,382.62 M65.63,385.118l-3.747,0.833l-1.249,3.331l-1.665-2.082l0.416,6.245l1.249-1.249v1.665l2.082-2.914
			l3.331-1.249l-1.249-1.665L65.63,385.118 M11.922,365.55l-3.331-0.416l-2.082,1.249H3.595l2.082,2.498l4.163,0.833l2.914-1.665
			L11.922,365.55 M-8.062,335.989l-2.498,1.249l-2.914-1.665l-0.833,2.914l2.082,1.249l2.914-0.833l4.163,3.331l4.163-0.833
			l-0.833-1.665l-2.082,0.416L-8.062,335.989 M936.621,266.46l7.911,6.662l1.249-2.498l-5.412-7.494L936.621,266.46
			 M985.333,229.822l6.245-2.914l-2.498-0.833l-0.416-3.331l-2.082,0.416L985.333,229.822 M1003.652,231.903l1.249-3.331h-2.498
			L1003.652,231.903 M1019.473,237.316l-2.914-1.665l-3.331,4.58l4.58-0.416L1019.473,237.316 M1020.306,232.736l3.747,1.665v-2.498
			l-1.665-3.331L1020.306,232.736 M1035.711,194.849c0-0.416,0-0.833-0.416-0.833c-0.416-0.416-0.416-0.416-0.833-0.416
			c-0.416,0-0.416,0-0.833,0.416s-0.416,0.416-0.416,0.833s0,0.833,0.416,1.249s0.416,0.416,0.833,0.416
			c0.416,0,0.416,0,0.833-0.416S1035.711,195.265,1035.711,194.849 M786.737,383.036l-0.416,2.082l1.249-2.498l3.747-1.665
			l-1.665-1.665l-3.747,0.833L786.737,383.036 M790.485,377.624l-1.249-1.665l-2.914,1.249l2.082,1.665L790.485,377.624
			 M769.667,390.114l0.416,2.498l3.331-2.498l-0.416-3.747L769.667,390.114 M765.92,276.868l-0.416,3.747l2.082-1.249h1.665
			l-0.416-4.996L765.92,276.868 M773.414,273.538l0.833-2.082l-3.747,2.498L773.414,273.538 M777.162,268.542h-3.331l1.665,2.498
			L777.162,268.542 M790.485,263.129l1.249,2.082l1.249-1.249v-2.498L790.485,263.129 M895.82,275.62l-1.249,7.91l2.914,2.082
			l6.245-5.829l-4.996-4.163H895.82 M916.22,254.386l-4.163-1.665l1.665,1.249l1.665,4.163L916.22,254.386 M1091.085,177.779
			l-1.665,1.249l4.163,2.498l-0.416-3.331L1091.085,177.779 M1091.085,168.203l2.082-1.665v-3.331l-4.58,3.747L1091.085,168.203
			 M1066.104,163.623l-0.416-2.498l-1.665,1.249L1066.104,163.623 M974.925,186.938c4.996-4.58,6.661-10.409,4.996-17.07
			l-4.58-3.747l-8.327,4.163l0.833,3.747l-20.817,5.829l0.416,2.498l-2.082,1.665l0.416-2.498l-14.572,14.156l-6.661,1.249
			l3.747,5.829l-3.331,2.082l2.498,2.914l-10.409,10.409l6.245,0.416l-4.163,5.412l3.747,0.833l-10.409,6.245l2.082,4.58
			l-6.245,7.078l1.665,7.494l4.163-0.833l4.163,9.992l13.323,1.665l1.665-0.833l-4.58-2.498l-4.996-12.49l4.58-17.07l-4.58-2.914
			l5.412,1.249l2.498-2.914l-1.249-2.082h2.082l-2.082-3.331l3.747,0.833l-0.833-6.662l2.498,2.498l2.082-3.747l-1.249-2.914
			l2.498,0.416l0.833-4.163l3.331,0.416l0.833-5.412c2.498-0.416,5.412-0.416,8.327-0.833
			C961.602,196.931,968.68,193.183,974.925,186.938 M690.562,363.052l-0.416,6.662l1.665-3.331L690.562,363.052 M672.659,397.608
			l-2.082-1.249v2.498L672.659,397.608 M667.247,385.951l2.498-0.833l0.416-3.747l-3.331,2.082L667.247,385.951 M670.161,388.032
			l-2.082,1.665l3.747,2.498L670.161,388.032 M674.325,383.036l0.416,1.665l-2.498,1.665l0.833,4.996l-2.498,2.914l1.665,1.665
			l1.665-1.249l-1.665,9.992l2.914-4.996v9.16l7.494-2.082l-1.665,4.163l1.665,2.082l1.665-0.416l-0.416,6.245l-3.747,0.416
			l-3.331,3.331l2.082-0.416l0.416,3.747l-5.412,3.331l1.249,1.665l2.498-0.833l0.833,1.665l2.082-0.833l1.665,1.249l4.163-1.665
			l-2.914,3.747h-4.996l-5.412,6.662l2.082,0.416l0.833-1.665l4.58,0.416l1.665-2.914c0.833,0,1.665-0.416,2.498-0.416
			c0.416,0.416,0.833,0.416,1.249,0.833l4.58-2.498l2.498,1.249l7.494-0.833l2.082-2.498l-3.331-0.833l0.416-2.082l3.331-1.665
			l0.833-3.331l-0.833-2.082l-3.331-0.833l-2.914,1.665l1.665-3.331l-4.58-9.16h-2.498l-1.665-7.078l-4.58-3.747l-3.331,0.416
			l6.662-10.825l-0.416-1.665c-2.914,0-5.829,0.416-8.743,0.833c0-0.416,0-1.249,0-1.665l4.163-6.662l-7.494,0.416L674.325,383.036
			 M640.601,322.25l-1.665-4.58l-4.163-1.249l-0.833-3.747l2.082-2.498l-4.58,1.665l-2.914-3.331l-0.416,3.747l-4.58,1.249
			l-2.498-1.665v4.996l-2.082-4.996l-3.331,1.665l-0.416,3.331l-3.331-4.58l-0.833,6.245l-2.914,2.498l-0.833-3.331l-2.082-1.249
			h2.082l-0.416-3.331l-7.494-4.58l2.498,2.498l0.833,4.58l-4.163-3.747l-1.665,2.498l1.249,2.914l-1.665-0.833l-2.082,2.498
			l7.91-1.665l2.914,2.082l-2.914,2.082l2.914,0.833l-8.743,3.747l6.245-0.833l0.833,2.498l1.665-0.416l-0.416,3.747l-3.747,1.249
			l0.416,1.665l17.07,4.163l5.829-4.996l3.331,0.416L640.601,322.25 M595.219,231.071l6.662,1.249l0.833,1.665h2.498l0.833-1.665
			l-4.996-2.914L595.219,231.071 M594.387,231.903l0.416,3.747l9.16,6.662l-1.665-4.163l2.498-0.833l-4.58-4.58L594.387,231.903
			 M600.632,227.74l-6.661-3.747l-3.331,3.331l4.996,2.082L600.632,227.74 M606.877,209.005l-2.498,3.331l2.914,2.082l5.412-0.416
			l-0.833-4.58L606.877,209.005 M621.033,197.763l0.416-4.163l-3.331,0.833l0.416,5.829l2.498-0.833l3.331,2.082l-0.416-3.747
			H621.033 M755.512,286.028l3.331-1.665l-0.833-2.914L755.512,286.028 M759.675,279.783l0.833,1.665l1.665-1.249l-0.416-2.914
			L759.675,279.783 M761.341,285.195l-0.833-3.331l-5.829,8.743l9.576-5.829l-1.665-2.914L761.341,285.195 M425.351,354.725
			l2.498,2.498l0.833-2.498l-1.665-0.833L425.351,354.725 M476.561,266.044l-4.996,0.416l0.833,4.58l4.163,3.747l-1.249,2.082
			l6.662-0.833l0.833-4.163L476.561,266.044 M427.433,294.355l0.416-2.082l-4.996,1.249v-3.331l-2.498-0.416l0.416-1.665
			l-7.494-2.498l2.498-1.249v-3.331l-3.331-2.498l3.331-0.416l2.498,1.665l3.331-0.416l-3.331-3.331l-4.996-0.416l-1.249-2.082
			l6.245-1.249l0.833-1.665l-4.58-4.996l-0.416,1.665l-2.914,2.082l1.665-2.082h-4.996l5.829-3.331l0.416-2.082l-6.245-2.082
			l-2.498,2.498l2.498-3.747l-3.747,2.498l0.833-4.996l-4.163,1.665l-2.082-1.665l3.747-1.249l-4.996-7.078l-3.747,4.58
			l-2.082-5.829l-2.914,1.249l0.416-3.331l-2.914-1.665l-0.833-4.996l-9.576-3.747l-4.58,6.245l-4.58-2.498l-3.747,7.911
			l1.249-12.49l-3.331-6.245l0.833-2.082l-1.665-4.996l-9.16,2.498l-4.996,4.996l3.331,2.914l-4.58-0.416l-0.833,7.91l1.665,1.249
			l-3.747,4.58l6.662,5.829l-2.914,7.494c-0.416-0.416-0.416-1.249-0.833-1.665c-1.665,0.416-3.747,0.416-5.412,0.833l5.829-4.163
			l-5.412-7.911l7.494-25.813l-8.327-0.416l-9.576,8.743l-3.747,18.735l0.833,2.498l-0.416,4.163l7.911,1.249l2.914,3.331
			l-4.163,1.665l-3.747-1.665l3.331,8.743l8.327,0.416l4.58,4.163l9.16-0.416l4.996,2.498l0.833-1.665l3.747,1.665l-1.249-2.498
			l4.58,0.416l0.833,1.665l4.996-0.416l-3.331-6.245l15.821,14.988l-4.58,1.665l-0.416,4.58l7.91-5.412l2.498,0.833l-2.498,2.498
			l2.498,3.331l0.833-1.665l1.249,4.58l1.665,0.416l3.747,11.658l-8.743,11.241l4.163,7.494l-2.498-1.249l-4.58,2.914l-8.743-1.665
			v2.914l-2.498,3.331l1.249,3.747l5.412,2.082l2.498-3.331l4.996,0.833l-0.833-3.331l5.829,1.665l3.747,7.494h2.914l2.082,2.082
			l-2.082,0.833l6.662,6.661l2.914-1.249l4.996,5.829l9.576,3.331l-0.416-3.747l-12.074-12.907l15.821,7.91l1.665,2.498
			l1.249-13.323l-3.747-1.665l2.498-3.331l-4.163-3.331l-3.331-0.416l-2.498-7.078l-2.082-0.416l2.498-3.331l-4.163-4.996
			l3.747,0.416v-2.082l1.665,0.833l0.416,2.082l3.331,3.747l2.498,0.416l3.331,7.494l4.58,2.498v-7.91l2.914,2.082l2.498-4.58
			l-1.665-2.082l0.416-1.665l2.914,1.665v-2.082l1.665-2.082l-4.58-4.163l-4.163,1.665l0.833-4.163l-4.163-0.833L427.433,294.355
			 M399.954,327.662l-2.082-3.747l2.498,0.833l-1.249-5.413l4.58,3.331v4.58l-0.416-1.665L399.954,327.662 M589.807,254.802
			l-1.249,1.249l-6.245,1.665l-1.665,4.58c1.249-0.833,2.914-1.249,4.58-1.665c1.665,0,2.914,0.416,4.58,0.416l2.498-2.498
			L589.807,254.802 M427.849,37.055l-2.082-7.078l-10.825-2.914l-7.078,4.996l-4.58-1.249l7.494-8.327l-27.062-4.163l3.747,13.739
			l-10.409-10.825l-7.91-0.416l-3.747,3.747l12.074,10.409l-6.245,4.58l-7.078-13.323l-7.494-0.833l-0.833,3.331l3.331,1.665
			l-0.833,4.996h-4.58l-0.416,2.914l-4.58-1.665l-4.58,7.494l12.907,11.658l-8.327-5.412h-5.829l-5.829-9.16l-2.082,2.914h-2.914
			l-1.665,3.747l4.58,0.416l5.412,4.996l-9.576,0.416l-6.245-3.747l-9.16,8.743h-3.747l-1.665,2.498l9.576,1.665l2.498,3.331
			l5.829-1.249l-7.494,7.494l0.833,5.829l17.486-2.914l2.498,3.747l6.662,1.249l-11.241,6.661v5.829l25.813-11.241l-0.416-7.494
			l4.996-5.412l1.665,5.412l-2.082,3.747l0.833,2.914l7.494,1.665l1.665,2.914l-9.992,2.498l1.665,4.163l-17.486,6.661l0.416,3.331
			l3.747,3.331l0.833,5.829l6.245,1.665l-2.498,2.914h-4.58l-13.739-17.07l-5.829-0.833v4.996l3.747,4.58l-1.665,3.331
			l11.658,17.486h4.996l2.914,4.163l-5.412,4.58l-4.996-4.163l-9.16,0.833l-1.665,7.078l8.743,2.498l-2.498,9.992l4.996,3.331
			l7.91-5.829l-3.747,7.911l-5.829,2.498L334.588,150.3l-4.58,3.747l6.661,7.911l-1.665,4.163l-2.498-1.249l-9.16,4.58l4.58,6.245
			l10.825,0.416l4.163,4.163l1.249-4.58l4.58-1.665l5.412,2.914l2.914-4.996l7.911,7.078l5.412-1.249l2.914-4.58l-1.249-4.996
			l-9.992-5.412l-4.996,1.665l0.416-7.494l1.665,2.498l14.988-0.833l-3.331-1.665l0.833-7.494l5.412-1.665l-1.249-4.58l8.743-5.829
			l-0.416-7.494l-14.156-2.082l2.498-10.409l15.821-2.082l-3.747-6.245l10.409,3.747l1.665-6.245l-3.747-5.829l4.996-0.833
			l0.416-3.747l4.58,2.082l12.074-18.735l-0.416-4.58l8.743-5.829l0.416-4.163l-22.899,12.49l-1.665-2.498l9.992-7.494l-4.58-0.416
			l34.14-23.732l-2.914-6.661h-7.911 M621.033,153.214l2.082-1.665l-0.416-4.163L621.033,153.214 M601.465,34.973l-5.829-7.494
			l-2.914,0.833v-2.498l-8.743,1.665l-0.416-3.331l2.498-1.665l-0.833-4.163h-7.078l-3.747,3.331l-34.973,2.914l10.409-4.163v-2.914
			l31.226-5.412l1.249-3.747l-14.988-1.665l-3.331-4.996l-6.245,0.416l-0.833-1.665c-0.833,0-2.082-0.416-2.914-0.416
			c-6.662,1.249-13.323,2.498-19.984,3.747l2.498,2.914l-0.416,4.58l-5.829-2.914l-3.747,0.833l-0.833,2.914l6.662,4.163
			l-1.249,2.498l0.416,3.331l-3.747,2.498l0.416,6.245l-3.747-0.833l-0.833-4.996l-13.739-8.327l-0.833,3.331l-7.494-0.416
			l2.498,3.747l12.907,1.665l6.662,9.16l-2.082,4.163l-13.323-9.576l-7.91,1.665l11.241,16.237l-2.498-1.249l-5.829,1.249
			l3.331,8.327l-1.665,4.996L486.138,38.72l-8.743-0.833l2.914,9.992l4.996,4.163l2.498,7.494l-4.996,3.331l-9.992-7.494
			l-2.914,7.494l-3.331,2.914l-2.498-24.564l-20.817,10.409l12.074,17.486L444.503,55.79l-6.662-0.833l-4.163,4.58l5.412,5.412
			l-1.665,1.249l0.416,8.327l-2.498,2.914l-7.91-2.082l-9.992,17.07l-6.662,2.082l0.416,5.829l6.245,3.331l8.327-4.996l2.082,1.249
			L426.184,107l-2.914,2.082l0.833,7.494l-7.911,8.327l-9.16,1.249l-2.498,4.996l-14.572,7.078l-0.416,5.412l3.331,4.58l9.992,0.833
			l1.249,4.58l4.163,1.249l6.245-3.747l6.662,3.747l-0.416,4.58l-5.829,2.498l-3.747-1.665l0.416,3.747l-5.412-1.665l-6.662,1.665
			l4.163,7.494l8.327,0.416l-0.833,3.331l-4.996,2.498l6.245,5.829l3.747-3.747l5.412-1.249l2.914,2.498l4.58-3.747l23.315,12.907
			l0.833,6.245l9.16,8.743l0.416,9.576l2.082,2.498l-0.416,2.498l3.331,2.914v5.829l4.58,2.498l-4.163,12.074l2.498,1.249
			l-2.498,6.245l6.245,1.249l0.833-7.078l13.739,20.401l-10.825-5.829l-5.412,1.665l16.237,7.911l-2.498,4.996l1.249,3.331
			l-3.331,4.58v6.661l-5.829-1.665l-4.996,12.49l3.747,1.665l-1.665,4.58l1.665,9.992l4.996,1.665v7.494l7.494-2.498l-4.58,5.829
			l-0.416,5.829l14.156,23.732h8.327l7.91,8.327l14.156-30.809l-3.331-4.58l4.996-1.249l-2.498-5.829l3.331-0.833l1.249-2.498
			l-1.665-2.498l8.743-1.665l-1.249-2.498l2.082-0.833v-3.747l2.498,0.416l-1.249,3.747l3.331,1.249l5.412-2.914l-0.833-3.331
			l4.58,1.665l1.665-4.996l4.163-3.331v-3.747l5.829-7.494l-2.082-6.245l4.996,5.829l4.996-1.665l0.833-2.082l33.307-19.984
			l-27.895-0.833l-3.747-5.412l2.498-6.662l9.16-0.416l-8.743-8.327l-0.416-5.412l2.082,3.331l11.241,5.829l6.661,12.074l4.58-2.498
			l0.833-4.996l-2.082-1.665l-0.416-6.662l-17.07-19.152h4.163l1.665-6.662l6.661-1.665l4.58,5.829l7.91,0.833l2.498-3.331
			l-7.911-6.662l-2.082-6.662h10.825l-7.911-19.985l8.743,5.829l0.416-5.829l-5.412-2.914l1.249-3.747l-2.914,0.416l-4.996-11.241
			l1.665-3.331c2.914,0,6.245,0.416,9.16,0.416c2.082,0.833,4.58,1.249,6.661,2.082l0.416-7.91l-7.911-3.331l-0.416-3.331
			l4.996-1.665l-6.662-5.829l-6.245,4.996v-5.412l2.082-2.914l0.416-10.825l7.911-11.241l-1.249-9.992l-3.331-1.249l3.331-15.405
			l14.988-2.914l-1.665-3.331l-9.576,1.665l-5.829-2.914l-5.412,3.331l3.747-6.245l5.412,1.249l4.58-3.331l6.245,2.082l7.078-4.996
			l-2.498-3.331l4.163-0.833l7.494-12.907l-5.412-6.245l-12.074-2.498l-3.331,10.409l-11.241,3.331l-0.416-4.163l-1.665-1.665
			l-15.821,28.311l7.078-37.887l-2.498-2.498l-3.747,1.249l-1.249,7.078l-15.821,8.743l10.409-12.074l-1.249-3.331l-7.078-2.498
			l-20.401,6.661l-4.58,5.412l-1.249-5.412l10.825-9.16l25.397-1.249l2.914-3.331h5.829L601.465,34.973 M1262.202,839.765
			l-4.163,2.082l7.494-0.416L1262.202,839.765 M1306.334,867.66l-6.662,2.498l-7.494-2.498l4.996,14.572l4.163,2.082l4.163-5.412
			L1306.334,867.66 M1305.502,862.664l0.416,2.498l1.665-1.249L1305.502,862.664 M1381.276,898.47l8.743,4.58l8.327-3.747
			l14.156-27.895l-3.331-0.416l-3.747-3.331L1381.276,898.47 M1385.023,903.049l-1.665,3.747l3.331-0.833L1385.023,903.049
			 M1424.992,858.917l3.331-0.416l2.082-8.327l-4.996,2.914l-5.412-3.747l-1.665-4.163l-3.331,3.331l0.833,4.996l-4.996,6.245
			l6.661,4.58l-1.665,5.829l2.082,1.665l7.078-9.992L1424.992,858.917 M1413.751,844.345l0.833,2.914l0.833-3.331l-3.747-7.078
			l-3.331-0.416l-2.082-2.082l4.58,8.743L1413.751,844.345 M1190.174,721.107l-3.747,0.416l5.829,3.747l2.082-1.665
			L1190.174,721.107 M1201.832,717.776v-2.498l-2.082,2.082l-7.494-1.665l-3.331,1.665h12.906 M1211.408,718.193l-1.249,1.665
			l-4.996,2.498v3.331l14.572-8.327L1211.408,718.193 M1258.038,739.426v2.498h2.082L1258.038,739.426 M1233.058,731.099
			l-1.249-1.665l-0.833,1.665H1233.058 M1234.307,730.267l-1.665-0.833l2.498,2.498l2.082-1.665H1234.307 M1238.47,711.948
			l-1.249,3.747l1.249-1.665V711.948 M1248.879,707.784l1.665,0.833l-0.416-4.163L1248.879,707.784 M1160.614,711.115l1.249,0.833
			l4.58-0.833H1160.614 M1167.275,719.442l-0.416-4.996l-7.078-0.833l-0.833-2.498l-6.662-1.665l-2.082,2.498l-17.486-4.58
			l-2.082,3.331L1167.275,719.442 M1181.015,715.695l1.665,2.498l-3.747-1.249l-2.082,1.665l9.992,0.416l-0.833-2.082
			L1181.015,715.695 M1169.774,719.025l2.082-3.747h-4.163L1169.774,719.025 M1181.847,658.239l-0.833-0.416l-3.331-4.58
			l-6.662,9.16l-4.996,1.249l-4.996,7.078l-5.412,0.416l-1.665,4.996l-7.494-2.082l-1.665,9.992l4.163,3.331l1.665,7.91l5.829-0.833
			v2.498h11.658l1.249,2.498l7.494-7.494l-1.665-2.498l4.163-2.914l2.498-8.743v-7.494l-2.082-3.331l2.082-3.747L1181.847,658.239
			 M1139.38,693.212v2.082l2.498-0.416L1139.38,693.212 M1133.968,692.379l-1.249-4.163l-3.747,1.665l2.498,0.416l0.833,2.914
			l2.498,1.665l0.833-2.082L1133.968,692.379 M1105.24,689.881l-0.833-4.163l-1.665,0.833L1105.24,689.881 M1103.575,674.477v6.661
			l22.483,24.981l5.412,0.416l0.833-10.825l-10.825-10.409l0.833-5.412l-34.557-21.234l9.992,14.572L1103.575,674.477
			 M1253.875,684.885l2.498,2.498l1.665-0.833L1253.875,684.885 M1244.299,692.796v7.494l3.331-4.996l3.331,4.996l14.988,4.996
			l3.331,7.078l-4.996,4.58l9.992-0.833l5.412,4.58l8.743-0.833l-1.249-2.082l5.412-4.163l24.148,13.323l2.498-1.665l-5.829-2.914
			l-0.416-2.082h-2.498l-6.661-9.16l3.747-0.416l-1.249-2.498l-7.494-2.498v-2.082l-19.984-9.992l-12.907-4.58l-3.331,3.331
			l-2.498,0.416l-4.163,4.163h-1.665l-4.58-5.412l0.833-1.665l-1.249-3.747l-2.498,0.416l-1.665-0.833v6.245h3.747L1244.299,692.796
			 M1188.093,706.119l3.747-0.416v-0.416h-3.747V706.119 M1201.416,705.702l0.833-0.416h-0.833V705.702 M1190.174,581.632
			l3.747,7.078l4.58-13.323l-1.665-1.249L1190.174,581.632 M1224.731,566.227l-2.498,3.331l2.082-0.833L1224.731,566.227
			 M1218.902,534.585l-2.914,1.249l2.082,0.833L1218.902,534.585 M1230.976,539.165l2.914-2.914l-0.416,10.409h3.747l4.163-8.743
			l-4.996-4.996l-5.829,3.331L1230.976,539.165 M1244.715,538.332l1.665-2.914l3.331,0.416l1.249-4.58l-9.16,3.331L1244.715,538.332
			 M1153.12,597.453c-2.082,0-4.163,0-6.245,0.416l-3.747,2.498l0.833,3.747l3.747,1.665l5.829-6.661
			C1153.12,598.702,1153.12,598.286,1153.12,597.453 M1315.077,466.305l-1.665,3.331l4.163-3.747L1315.077,466.305
			 M1306.334,470.885l-3.747,4.58l8.743-5.412L1306.334,470.885 M1278.439,494.2l-4.58,3.747l0.416,6.662l-9.16,13.323l-3.747-2.498
			l-5.829,9.992l-2.082-2.082l-9.992,1.249l-6.245,7.494l17.903-3.331l1.665,6.662l4.58-7.911l8.327,0.833l4.163-4.163l1.665,3.331
			l3.747-16.654l2.082-0.833l2.082-6.245L1278.439,494.2 M1276.358,487.122l11.241,3.747l2.914-5.829l7.911-2.498l-3.331-1.665
			l0.833-3.747l-4.58,2.082l-10.409-8.743l-1.665,12.907l-4.163-0.416l-2.498,5.829l1.665,1.665l-0.416,2.914l4.163-1.665
			L1276.358,487.122 M1284.684,413.013v5.412l-2.914-0.416l-1.665,12.074l3.331,3.747l-2.914,32.475l2.082,0.416l2.082-3.747
			l3.747,4.163l-4.58-10.409l4.163-10.825l4.58,3.747L1284.684,413.013 M1336.727,440.492h3.331l0.416-3.331l-1.665,2.914
			L1336.727,440.492 M1276.358,237.316l-4.58-0.416l-0.833,4.58l4.58-1.665L1276.358,237.316 M1372.117,377.207l-2.082,4.58
			l5.412-3.747v-2.082L1372.117,377.207 M1158.532,210.254l-1.665,1.249l4.58,2.914l2.082-4.996l-5.829-1.665L1158.532,210.254z"/>
		<path style="clip-path:url(#SVGID_2_);fill:#114069;" d="M429.515,369.297v-3.331l-4.996,4.58l2.082,2.082l-3.331,6.245
			l-2.498-0.833l-5.412,5.829l-2.914-6.662l-6.245,1.665l3.747-4.163l-2.498-5.829l1.249-1.249l-0.833-3.747l1.249-3.331
			l-2.082-1.249l-7.494-0.833l-2.498-7.494l-6.245-3.331l-4.996,2.082l-10.409-3.331l-2.914,3.331l3.747,4.996l-2.914,7.91
			l4.163,9.576l-3.747-0.416l1.249,2.498l-4.58,2.082l0.416,2.498l4.58,3.747l3.331,15.821l1.665-1.665v3.331l-11.658,10.825
			l-2.082,0.416l5.829,16.237l-3.331,2.498l2.082,2.082l-1.249,2.082l-1.665-2.914l-1.665,2.082v2.082l-3.331-2.082l-0.833-3.331
			l-2.914-2.082h-3.331l2.914-1.249l-3.747-4.58l0.416-15.821l-22.066-6.245l-1.665-3.747l-12.074-6.245l-6.662,2.914l0.833-3.331
			l-3.331-11.241l-5.829-0.833l-1.665-2.498l3.331-17.486l-1.249-2.082l8.327-12.074l7.494-0.833l-0.833-4.996l-11.658-6.661
			l6.662,3.331l3.331-0.416l3.331,2.914l3.747-5.829l5.412,1.249l6.662-11.658l-9.16-1.249l-4.58-5.829l3.331,0.416l6.662,4.996
			l4.163-0.416l3.747-8.327l-3.331-2.082l4.996-1.249l2.082,3.747l4.996-0.416l-1.249-4.996l3.747,3.331l7.494-7.494l-4.163-14.988
			l2.082,0.416l3.747-4.163l-3.331-0.833l2.498-2.498l-5.829-1.665v-4.996l-10.825-1.665l-0.833,6.662l3.331,3.331l-0.833,2.498
			l-3.331,1.665l-3.331,7.91l-0.416-4.58l-2.498,12.074l-4.996-7.91l0.416-4.996l2.914,0.833l-6.662-10.825l-4.163,10.409
			l-3.747-10.825l1.665-0.416l-2.498-3.331l-2.498,0.833l-2.498-2.082l2.082-3.331l-0.833-2.082l2.498-0.833l-5.412-8.743
			l0.416-3.747l-3.747-7.078l-2.914,1.665l-0.416-3.331l-2.914-0.416l-2.498,4.996l0.833,4.163l-1.665-0.833l-1.249,5.829
			l2.082,4.58l-3.331,3.331l1.249,3.331l10.825,4.58l-0.416,3.747l-0.833-2.082l-2.914,7.494l2.498-0.833l0.833-1.665l0.833,4.58
			l-4.163,5.829l-2.914-0.416l0.416,8.327l-4.58-2.082l2.082-8.743l-2.498,2.914l-3.331-4.58l-4.996,1.249l3.331,5.829l2.498-0.833
			l-0.416,3.747l-2.498-0.416l-3.331-4.996l0.833,3.331l-16.237,0.833l-4.996-5.412l-4.163,0.833l-6.245-10.825l-6.245,4.163h-2.914
			l-1.665,4.58l4.996,0.416l3.747-1.665l0.833-2.498l2.914-0.416l-2.498,5.412l-4.996,1.665l-1.665,3.331l2.082,1.665l-0.416,2.498
			l1.665,4.996l-2.914,1.665l-2.082-3.331l2.082-0.833l-3.747-3.331l-0.833-3.331h-2.498l-2.498-2.498l-2.914,2.914
			c-2.914,0.416-5.412,0.416-7.911,0.833c-3.331-0.416-6.661-1.665-10.409-3.747l0.416-1.665l3.747-0.416l0.833-2.082
			c-12.074-2.498-22.066-7.494-30.393-15.821l-6.661-0.416l-0.833,3.747l-2.082,2.082l-3.331-0.416l1.665-3.747l-1.665,0.416
			l-0.833-3.747l-3.331,4.58v2.498l-4.163-1.665l-2.914-8.743l-3.747-3.331l0.416,3.331l1.665,1.249l-3.331,1.249l-2.914,4.996
			l0.416-3.331l-8.743,8.743l-0.416-2.914l-7.494,4.996l4.163-5.829l4.163-0.416l5.412-8.327l-19.984,14.156l1.665,5.412
			l-2.498-3.331l-2.914-0.416l0.833,2.914l-5.412-3.747h-3.747l-7.494-7.494l-7.911-0.833l-7.911-5.412l-9.16,1.665l-3.331-2.498
			l-3.747,0.833l-9.16-4.58l-4.163,0.833l-8.743-5.829l-7.494,0.833l-3.331-3.331l-1.249,2.914l0.833,1.665l-4.996-1.665
			l3.747-2.498l-4.996-3.331l-4.58,6.662l-5.829,0.833l-0.833-1.665l-2.082,2.914v3.747l-1.665-2.914l-7.911,4.58l1.665,3.331
			l-2.498-0.416l-3.747,9.576l-12.074,3.331v4.58l-2.082,1.249c2.914,2.082,6.245,4.163,9.16,6.245
			c2.914,2.082,4.163,4.58,3.747,7.494l2.914,0.833l1.665-0.833l4.163,2.082l-1.249,1.665l2.498,2.082l1.665-0.833l4.996,1.665
			l-3.747,1.249l-3.331-1.249l-0.833,1.249l1.249,1.665l-1.665,1.665h-7.911l-1.665-1.665v-4.58l-3.331,0.416l-4.163,3.747
			l1.249,1.249l-2.914-0.416l-8.327,4.996l7.494,3.331l-2.498,1.249l2.082,3.331l-0.416,1.665l7.494,2.498l1.665-1.249l4.996,1.665
			l-0.833-1.665l2.082,2.914l7.078-5.829l1.665,1.249l-3.331,3.331l2.914,5.829l-2.082,3.331h-4.163l-3.331,3.747L19,344.316
			l0.416,2.082l-2.082-0.416L9.84,357.222l3.331-0.416l-1.249,2.082l4.163,3.747l4.58,0.833l-3.747,4.163l1.665,1.249v1.665
			l4.58,2.082l2.082-4.163l-0.833-1.665l3.747-4.163l2.498-0.833l-2.498,1.249l-2.498,3.747l3.331,6.662l-2.082,2.082l1.249,3.331
			l-1.665,1.249l1.665,0.833l5.829-5.829v2.914h2.498l2.914,4.58v-3.331l2.082-1.665l-0.416,1.665l1.249,0.833l5.829-3.747
			c-1.249,2.914-2.914,5.829-4.58,8.743c-3.747,7.911-9.16,14.156-16.237,19.152h0.833l0.833-0.833
			c3.331-1.249,6.661-2.498,9.992-3.747c9.992-4.163,17.486-10.825,22.899-19.984l-2.914-2.914l16.237-28.727l-0.833,9.16
			l4.58-1.665l-2.914,2.914l3.331,2.498l-4.996-0.833l-4.58,2.498l-0.833,8.743l2.914-0.833l-0.833,2.498l-2.914,1.665l4.163,0.416
			l5.829-6.662l2.498,0.416l2.914-4.58l-2.082,0.416l1.665-1.665l-0.416-2.082l2.498-2.914l-0.416,2.914l5.829-1.665l-0.833,2.082
			l25.813,9.576l3.331-2.498l2.082,1.665l-0.833,2.914l-0.833-3.331l-1.665,3.331l4.996,2.498l3.331-2.498l-1.665,3.747l6.661,5.829
			l2.082-0.833l-1.665-3.331l-1.665-0.416h3.747l0.833,4.163l2.498,1.249l-0.833-9.16l2.082,7.078l5.829,3.747l2.082,4.58
			l-0.833,1.665l0.833,3.331l5.829,4.58l-2.082,1.665v3.747l1.249-3.331l3.331-0.416v7.911l3.331-0.833v2.498l-1.665,2.914
			l2.498,0.833l4.163,5.412l-0.416,3.331l1.665,2.914l3.331,0.416l0.416,4.58c0,0.416,0,0.833,0.416,1.249v0.416
			c0.416,0,0.833,0,1.249,0l-0.833,2.498l2.498,2.082l3.331-0.833l0.416,2.914l7.078,0.833l-0.416,2.914l2.914-0.416l1.665,3.747
			l1.665-1.665l4.163,10.825l-3.331,2.498l1.249-4.58l-7.911-0.833c2.914,14.988,2.914,30.393,0.833,46.214l3.331,4.58l-0.416,2.498
			l5.829,5.829h2.498l-2.914,2.082l1.249,3.747l2.082,0.833l-0.833,1.665l5.412,7.494l0.416,2.498
			c1.249,0.416,2.498,0.833,3.747,1.665c10.825,4.163,16.237,11.658,16.654,22.066l7.078,6.661l-0.833,2.498l-2.914,0.416
			l20.401,22.483l1.665-1.249l0.416-1.665l-21.65-38.304l6.661,2.498l10.825,16.237v2.498l5.829,4.996l0.833,2.498
			c1.665,1.249,2.914,2.498,4.58,3.747c5.829,4.996,9.16,11.658,10.825,19.152l-1.249,1.665l0.833,2.498l6.661,3.331l0.833,2.914
			l30.809,11.241l3.747-2.498l14.988,9.992h4.58l1.249,1.665h2.498l3.747,2.082h3.747l7.078,8.327l-0.416,4.163h3.331l5.413,4.163
			l0.833,2.498l7.494,1.665l4.163,4.163l2.498-0.833l-1.665-2.498l4.58-3.747l6.245,2.082l-1.249,1.665l3.331,16.654l1.665,0.416
			l-2.498,5.412l-3.331,0.833l-1.665,3.747l-4.996,3.331l-3.331,12.907l1.665,1.665l1.249-1.665l0.833,2.082l-6.245,6.661
			l0.416,5.829l6.662,4.58c2.914,10.409,7.494,19.984,13.323,28.728l-1.665,1.249c24.564,18.735,31.642,42.883,21.65,72.444
			l-1.665,0.416l-8.327,57.872l6.245,0.833l-4.163,14.988l2.082,2.914l-2.498,2.498l-0.833,7.078l-2.082-0.833l-2.082-3.331
			l-2.914,6.245l4.58-0.833l0.833,2.498l-1.665,2.082l3.331,3.747h-3.747l1.249,7.91l1.665-1.665l-3.331,7.078l3.331,3.747
			l-2.082,0.833l4.996,7.494l2.498-0.833l-0.416,4.58h3.747l1.665,2.498l-4.58,4.163l4.58,2.082l1.249-7.494l7.078-3.747
			l2.914,0.833l-2.498-4.163l-1.665-0.416l1.665-0.833l-2.082-3.331l7.078-7.494l0.833-4.163l7.91-7.078l-0.833-6.245h-3.331
			l-3.747-6.245l4.996-6.245h3.331l-0.416-1.665l1.665-2.082l0.416-4.58l3.747-3.331l-3.331-2.082l2.082-0.833l2.498,2.082
			l1.249-2.082l-5.829-3.331l0.416-6.662l7.91,2.082l3.747-2.082v-10.825l19.152-2.498v-1.665l3.747-4.58v-3.747l-3.331-2.498
			l1.249-2.498l-5.829-4.58l0.416-3.331l2.498,3.331l13.739,2.914c1.665-1.665,2.914-2.914,4.58-4.163
			c12.074-9.992,18.319-22.899,19.152-38.304l17.486-14.988h9.992l0.833-2.498l3.747-1.665l0.416-3.747l5.412-6.661l3.331-28.311
			l2.498-0.416c0.833-0.833,2.082-2.082,2.914-2.914c6.662-6.245,10.825-14.156,12.074-23.315l-3.331-7.078
			c-11.658-1.249-22.482-4.996-32.891-11.658l-3.331,2.082l-3.331-4.996l-10.825-4.163l-5.829,8.327l-0.416-3.331l-7.911,0.833
			l2.498-2.082l-2.082-2.082l-0.416-2.498l6.662-8.327l-2.498-0.416l-3.331-10.409l-24.564-6.662l-3.331-4.163h-2.498v-2.082
			l-6.661-4.996l-2.914-0.416l-0.833-3.331l-7.911-4.163l3.747-0.833h-8.743l1.665,0.833l-8.743,0.833l-1.249-1.665l-8.327,0.416
			l-0.833-2.914l-4.58-0.833l-1.665-3.331l-1.665,2.082l2.082,0.833l-6.662,3.331l1.249,4.58l-1.249,2.914l-3.331-3.331l0.416-2.498
			l1.665-0.833l0.416-2.082l-0.833-1.665l2.914-2.498l-2.082-1.665l-10.409,4.58l-1.249,2.082l-1.665-0.833l-3.331,1.665
			l-0.416,4.996l-4.58,3.331l0.416,3.331l-5.829-6.245l-5.829-0.833l-6.662,3.747l-3.747-1.249l-0.833-2.082l-4.163-2.914
			l-2.498-4.996l2.498-15.821l-4.163-3.331l-19.152-0.833l2.498-2.082l1.249-9.992l0.416,2.914l2.082-4.58l-0.416-2.498l2.914-4.996
			l-0.416-2.914l-12.907,0.833l-2.914,9.576l-4.163,3.331l-0.833-1.249l-9.992,2.498l-5.412-2.498l-7.494-26.646l2.082-0.833
			l0.833-2.914l-1.665-5.829l4.163-8.327l1.665,0.833l3.331-1.665l1.249-4.58l0.416,1.665l5.412-1.665l4.163,1.249l0.833-1.665
			l2.082,0.416l1.249,2.082l4.996-0.833l2.914,1.249l-0.833-1.665l1.249-2.914h-2.914l7.494-0.833l1.249-1.665l-0.416,2.082
			l6.245-0.833l4.996,3.747l4.996-2.082l5.412,4.996l-0.416,5.829l1.249-0.833l-0.416,2.914l5.412,10.409l3.747-0.416
			c-4.996-19.152,0.416-34.14,16.237-45.798l0.416-2.914l2.498-0.833l-3.331-1.249l0.416-1.665l2.498-1.249l-2.498-3.331
			l0.833-4.163l-3.747-4.163l2.914,2.082v-4.58l2.082-1.665l0.833,12.907l3.331-7.91l-2.082-4.58l2.914,3.331l3.747-6.245
			l-1.249-2.498l2.082-2.914l15.821-4.163l-3.747-3.331l0.833-1.665l-0.833-2.082l9.16-8.743l1.665,1.665l5.829-2.914l-0.416-2.498
			l5.829-0.416l4.996-3.747l-1.665,2.914h5.829l-4.58,0.416l-7.078,6.662l2.082,4.163l17.903-11.658l-2.914-2.498l-1.665,1.249
			l-8.743-3.331l-1.249-4.996l-2.082-0.416l2.082-1.249l0.416-2.498l-2.082-0.833l-1.665,0.833l-3.331-2.498l4.996,0.416
			l3.747-3.331l-0.416-2.914c-9.992,0.416-18.319,3.747-25.397,9.992l10.409-12.074h2.498l3.331-4.996l26.646-2.498l0.416,1.665
			l18.319-13.323l-1.665-9.992l-4.58,0.833l-0.416-4.58l-12.907,6.662l12.074-9.576l-12.49-4.58l0.833-3.331l-7.078-3.331
			l0.833-2.914l-4.163-0.833h4.163l1.665-3.331l-3.747-2.082l2.498-2.498l-5.413-3.331l1.665-2.914l-4.163-0.416l3.331-0.833
			l-1.665-3.331h-4.163l3.331-1.665L429.515,369.297 M481.558,821.03l-2.914,0.833l0.833-3.747l2.082-0.416l1.665-4.58l2.498,0.416
			L481.558,821.03z"/>
		<path style="clip-path:url(#SVGID_2_);fill:#114069;" d="M1132.719,159.043l-7.911-6.245l-5.412,2.498l-7.494,14.572l1.249,2.914
			l-9.992,3.747l2.914,7.494l-3.331-3.747l-11.241,4.996l-1.249-3.747l-11.241,1.665l2.498,2.498
			c-0.833,2.498-2.498,4.58-4.58,6.662c-6.661,4.996-13.739,7.078-22.066,6.662l2.498,3.331l-3.331,3.331l-3.747-1.249l2.915,4.163
			l-2.498,2.498l4.996,5.829l-27.479,5.412l3.331,16.237l5.829,3.331l-1.665,1.665l5.829,2.498l0.833,6.245l-2.082,3.331
			l2.498,9.576l-3.331,1.665l0.416,2.082l-4.163-2.498v-12.907l4.58-5.412l-2.082-1.665l-4.996,1.665l-10.409-9.576l-6.662,3.331
			l2.914,2.082l-4.58,3.331l-2.914-2.914l0.416,4.163l8.743,8.327l-3.331-2.498l-7.078-0.833l-2.498-2.914v-7.911l2.082-2.914
			l-2.914-8.743l-1.665,1.665l1.665,4.996l-2.498,4.996l-4.58,2.914l-0.416,3.747l5.412,12.074l-2.498,18.319l5.829,0.416
			l2.498-2.082l8.327,4.996l1.665,6.662l-2.082,1.249l-0.416,4.996l5.829,1.665l-4.996,0.416l-2.498-2.498l0.416-9.16l-2.082-4.58
			l-9.576,3.331l2.082,10.825l-4.163,4.163v4.163l-5.829,3.747l-1.249,3.747l-8.743-1.665l-0.416-4.163l2.498,0.416l6.661-3.331
			l5.829-17.486l-4.163-4.996V266.46l1.665-1.665l-0.416-9.992l-4.163-4.996l2.082-1.665l2.082-14.156l-13.323-2.082l-10.825,22.483
			l0.833,2.082l-1.665,4.163h2.914l-1.665,14.572h4.163l4.58,8.327l-3.331,7.078l-0.416-3.331l-29.56-15.821l-2.498,2.498
			l2.498,7.494l-5.829,7.494l-0.416-4.58l-2.914-4.163l-7.911,6.662l-3.331-0.833l-4.58,5.412l-2.082-1.665l-2.082-7.911
			l-4.58,3.747l-0.833,3.331l-2.082-1.665l-16.654,11.241l-0.833,6.245l-7.078,1.665l-4.58-8.327l6.661-3.331l-3.331-7.494
			l-11.658-1.665l4.58,3.331l-1.665,12.907l2.082,1.249l-0.833,12.907l-7.911-7.494l-9.992,10.825l5.412,10.825l-9.992-4.163
			l-2.082,2.082l-1.665-4.163l-3.331-1.665l-2.082,3.331l3.747,4.996l2.082-0.833l1.665,4.996l-3.331,0.833l-7.494-5.412
			l-2.082,0.416l-2.082-1.665l-1.665-8.743l1.665-0.833l-0.833-6.662l-7.911-5.412l-2.082-5.829l3.331,0.833l3.747,4.163
			l19.984,6.662l8.327-3.331l3.747-7.91c-8.327-11.658-19.152-20.401-32.891-25.397c-2.082-0.833-4.163-1.249-6.245-2.082
			l0.833-1.665l-10.409,0.833l1.249-2.498l-4.58-3.331l5.412,0.833l3.331-3.331l-7.91-6.245l-2.914,4.996l-2.082-1.665l2.498-4.58
			l-4.58,0.833l-2.082,4.996l-1.665,0.833v-6.245l-6.245,10.409l2.914-9.992h-4.996l0.416,2.082l-5.412,8.743l-6.662-3.331
			l1.665,3.331l-0.416,3.331l-2.498-3.331l-4.58,6.662v-4.996l-2.498,4.163l-0.833-2.498l-0.416,4.996l-3.331-2.498l0.416,2.498
			l-1.665-0.833l0.416,2.082l-2.914,4.996l-3.747,2.082l4.163,0.833l-5.829,0.833l-0.416,5.829l-1.249-2.498l-1.665,4.996h2.082
			l-2.082,1.665l-2.498-1.665l-6.662,12.074l1.665,2.498l-4.163,3.331l2.498,0.833l-2.914,2.082l0.833,2.498l-2.082-0.416
			l0.416,2.498l-3.747,3.747l0.416,2.498l-2.082-0.416l-4.996,7.494l1.665,1.665l4.58-1.665l-4.58,3.747l-1.665-2.082l-10.825,7.078
			l2.498,2.498l-5.829,0.416l1.249,3.747l-5.829,0.416l4.996,2.082l-4.996,0.833v5.829l4.58-0.416l1.665-2.082l-0.416,2.082
			l3.747-2.914l-1.249,2.914v2.498l-2.498-1.249l-5.829,0.833l2.914,7.494l3.331-4.163h2.082l-2.082,0.833l-3.331,4.996l1.665,0.416
			l-4.163,4.996l3.747-1.665l-2.498,3.331l-0.416,3.331l7.911,4.996l7.078-4.996l1.665-3.331h2.498l0.833-5.413l1.249,3.747
			l2.914,1.665l-0.833,1.665l4.58,15.821l2.914,2.498l-2.082,2.498l2.498,3.747l-0.416,2.498l5.829-0.833l-0.416-4.163l7.078-0.833
			l3.747-16.237l-1.665-3.331l9.576-5.412l-9.576-0.833l8.327-0.416l2.082-3.331l-6.245-6.245l17.486-34.14l-0.416-2.082
			l-1.665-0.833l6.245-10.825l8.743,0.416l3.747,9.576h-3.331l-14.988,19.568l0.833,17.486l7.911,6.661l22.899-6.245l-0.833,3.747
			l7.078,3.331l-9.16,1.249l-0.416,2.082l-10.825-1.665l-8.743,4.58l2.082,7.494l3.331-1.665l-1.249,9.576l-3.331,2.498l-4.58-6.662
			l-3.331,1.665l-8.743,23.732h-4.58l-1.249-2.914l1.249-0.833l-17.903,7.078l1.249,2.082l-8.743-5.829l-7.911,3.747l1.665-3.331
			l-4.58-0.416l-0.416-2.498l-1.665-1.249l3.331-9.576l2.498-1.249l-3.331-1.249l0.833-8.327l-7.911,4.996l-1.249,10.825
			l2.498,1.665l1.665,11.241l-2.082,3.331l-3.331-3.331l-2.498,3.747l-1.665-1.665l-6.245,2.498l-4.163,8.327l2.498,0.833
			l-11.658,4.996l-0.833,6.245l-4.58,1.665l-1.665,2.498h-4.58l-0.833-2.498h-2.498l1.249,6.662l-4.163,0.833l-1.665-1.249
			l-7.494,2.498l2.082,4.163l10.409,3.331l-1.665,2.498l4.58,3.747l-1.665,17.07l-27.479-1.665l-0.833,2.082l-2.914,0.416
			l-0.833,1.665l1.665,2.498l-2.498,20.401l1.249,2.498l1.665-0.416l-0.833,7.078h10.409l1.249,4.58l2.914,0.833l13.323-3.331
			l2.498-4.163h2.914l4.163-6.662l-2.914-3.331l15.405-13.739l-0.833-5.829l4.58-3.747l9.992,2.498l3.331-3.747l2.082,0.416
			l3.747-3.331l17.07,17.486h2.914l10.409,12.907l-2.498,4.58l5.412-4.996v-2.498l-2.082-1.665l0.416-2.498l2.082-2.082l4.996,3.747
			l-9.576-9.16l-0.416-2.082l-3.331,0.416l-10.825-13.323l-0.416-7.494l5.829-0.833l1.249,4.163l2.082-2.914l5.829,10.825
			l4.163,0.416l9.992,8.743v8.743l7.494,10.825h6.661l1.249,1.249l-5.412-0.416l-2.914,2.498l3.331,5.413l0.833-1.665l1.249,3.747
			l0.833-2.498l1.665,1.665l-1.665-5.412l2.082,1.249l-0.416-3.331h2.082l2.082,1.249l-0.416-3.331l-5.829-3.331l1.249-2.498
			l-1.249-4.58l1.665-2.914l2.498,3.331h1.665l-0.416-1.665l1.665,0.833l-3.331-2.498h4.163l17.486-1.665l-5.412-8.743l1.665-1.249
			l0.416-2.914l2.498-0.833l0.416-6.245l3.747-2.914v-3.331l4.58-5.829l4.996-1.249l-0.833,3.331l7.91,0.833l-4.163,4.163
			l3.747,2.082v3.747l12.49-3.747v-2.914l-5.829,0.833l-4.996-4.996l4.58,0.833l16.654-7.078l1.665,0.833l-7.494,2.498l3.331,2.914
			l-4.58,4.996h-2.498l19.152,14.988l0.833,6.245l-5.829,4.163h-11.658l-10.409-6.245l-8.327,0.416l-7.494,5.829l-8.743-0.833
			l1.665,2.498l-7.494,2.498l-2.498-0.833l-3.747,3.331l-0.416,2.082h3.331v5.412h-2.498l4.996,7.494l6.245,2.082l1.665,3.331
			l4.58-0.833l0.416-3.331l8.743,4.58l7.911-4.163l3.331,1.665l2.914-1.249l-8.327,26.646l-4.58,2.498l-12.907-2.082l-3.747,2.914
			l-14.572-4.163l-2.082,0.833l-0.833-2.498l-7.494-1.249l-0.416-2.082l-6.661-1.665l-6.662,4.996l1.249,4.163l-4.163,4.163
			l-13.323-4.996l-2.498-4.996l-8.327-3.331l-3.747,0.833l-9.576-5.829l5.829-5.412l-0.416-2.914l-2.498-2.498l2.498-2.498v-2.498
			l-3.747,1.665v-2.082l-60.786,9.992l-3.747-3.747l-2.082,0.833l-16.237,25.813l1.249,1.665l-30.393,40.802l2.914,4.996
			l-0.833,3.747l1.665,2.914l-5.412,17.07l2.914,4.996l-0.833,1.665l0.416,3.331l5.412,2.914l0.833,2.914l2.914,1.665l0.416,2.498
			l3.331,1.249c2.498,7.078,7.494,12.074,14.156,15.821c3.747,2.082,7.911,4.58,11.658,6.662l48.296-8.327l3.747,3.747l0.416,2.498
			l2.498,1.665l8.743-0.416l0.416-1.665l6.661,7.078l-2.498,7.911l1.249,1.665l-1.249,5.412l-2.082,2.082l18.319,32.058
			c-3.747,40.802,3.331,79.522,21.234,116.16l6.662,2.498l7.494-1.665l1.665-1.665l3.747,0.833l1.665-0.833
			c16.237-1.249,27.895-9.992,34.973-26.646c1.665-3.747,2.498-7.494,3.747-11.241l10.409-9.992l-1.665-13.739l-1.665-1.249v-2.914
			l14.988-12.074h2.082l8.327-10.825l-1.249-2.082l-0.416-10.825l1.665-2.498v-2.082l-3.331-2.498l-2.498-7.494l0.833-4.996
			l-2.914-2.914c24.148-19.984,41.218-45.381,51.627-74.942l-2.914-0.833l-15.821,5.829l-4.58-1.665l-3.331,2.498h-2.498
			l-3.747-4.163l-2.498-0.833l2.914-2.498c-13.739-11.241-22.483-25.813-26.646-43.3l-4.996-3.747
			c0-8.743-2.914-16.654-8.327-23.315c-1.665-2.498-3.747-4.58-4.996-7.078l1.665-2.914v2.498l5.829,8.327l3.331-7.494l-0.833,6.245
			l2.082-0.416l9.576,17.486l4.58,2.498c3.747,12.907,9.576,24.564,17.486,34.973l-0.833,2.082l3.747,11.658l5.829-0.833
			l3.331-2.498h4.996l3.747-2.498l2.498,0.416l15.821-7.494v-2.082l8.743-3.747l3.331,0.416l0.833-3.747l4.163-0.416l1.665-3.747
			l4.163-1.249l-0.416-3.747l8.743-10.825l-2.082-0.833l-2.498-4.58l-6.245-1.665l-3.747-4.163l0.416-6.661l-8.327,9.576h-7.494
			l-1.249,0.833l-3.747-1.665l0.833-7.494l-2.082-0.833l-0.833,6.661l-11.241-20.401l0.416-2.498l-0.833-1.665l1.665,0.416
			l2.498-3.331l1.665,2.914l2.082-0.833l6.245,11.241l4.163,0.833l1.249,2.082l8.327,3.331l6.662-3.331l2.498,1.665l1.665,5.412
			l36.222,0.833l5.829,7.91l2.498,0.416l3.331,3.747l6.245-1.249l-1.665,2.914l-3.747,0.416l5.829,7.494l5.829-1.665l1.249-5.412
			l3.331,0.416c2.498,21.65,8.743,42.051,18.735,60.786l2.498-1.665v-2.082l6.661-5.829l0.833-20.817l29.144-23.732l-0.833-2.498
			l4.163-1.665l1.249-1.665l0.833,2.914l8.327-1.665l1.665-4.996l3.331,1.249l8.743,12.907v3.331l3.747,5.829l-1.249,6.661
			l4.163,0.833l5.412-3.331l0.416-2.914c5.829,7.911,8.743,17.07,8.327,27.479c0,4.163-0.833,7.494-2.498,11.241h2.498
			l18.735,28.728l3.747-0.416v-2.082l-3.331-4.163l0.416-7.911l-12.074-8.743l-6.244-14.573h-2.915l2.915-17.903h4.163v3.747
			l3.331-0.416l6.245,7.911l2.082-0.833l-0.416,2.082h2.915l2.914,2.082v6.662l6.245-4.58l0.833-3.331l2.498,0.416l7.078-4.996
			l-14.156-30.393l1.249-4.996l11.241-8.327l2.082,1.249l2.498-0.833l-0.833,2.914l2.082,3.331v-3.331l0.833-1.665l11.241-3.331
			v-2.082l1.665,1.249l0.416-2.498l2.498,1.665l22.483-14.572l0.833-4.996l6.662-6.662l0.416-4.996l1.665-0.833v-2.082l-2.498-2.082
			h-3.331l5.829-3.331l-5.412-5.412l5.412,1.665l-6.245-12.074l-4.58-2.498l4.163-6.662l2.082-0.416l0.833-2.914l5.829-0.833
			l1.249-2.914h-4.163l-3.331-1.665l-4.58,3.747l-3.331-1.665l-0.833-2.498l-4.58-3.331l1.665-3.331l2.082,0.416l3.331-1.665
			l0.416-2.498l7.911-5.829h2.082l2.082,2.914l-4.163,4.163l1.665,2.082l-2.082,2.498l3.747-1.665l1.249-2.082l8.327-2.914
			l0.833,1.665h3.747l-3.747,7.91l2.914,2.498l1.249-2.082l3.331,0.833l1.249,4.996l-3.331,0.416l3.331,4.996l-2.498,7.078
			l6.661-2.914l2.498,0.416l3.331-1.665l0.416-11.241l-8.327-9.992l0.416-2.498l9.16-6.245v-3.331l3.747-4.996l2.914-0.833
			l2.498-3.331l2.082,0.416l0.416,1.665l5.829,0.833c20.401-13.739,30.809-33.307,30.393-58.288c0-1.665,0-3.747,0-4.996
			l-3.747-2.498l3.747,0.833l0.833-1.665l-7.078-6.662h-3.747l-0.416,4.58l-0.833-1.665l-4.996,2.498l1.665-2.498v-2.498
			l-3.747,3.331v-6.245l-3.747,0.833l-2.498-2.082l32.891-34.557l11.658-0.416l1.249,1.665l1.249-2.082l4.996,1.665l2.498-0.833
			l2.082,0.833l2.082-4.58l9.16,1.665l2.915,3.331l-4.163,0.416l1.249,2.498l5.829-0.833l3.331-2.498l2.082,1.249l4.58-1.249
			l-4.58-3.331l10.409-13.323v-2.498l9.992-4.58l2.914,2.498l2.498-2.498l-2.082,8.327l2.082-0.416l-0.833,3.747l12.074-7.91
			l2.082-8.743l4.58-1.665l1.249,1.665l-3.747,2.082l-2.082,10.825l-25.397,26.646l-2.082-0.416l0.416,2.498l-0.833,2.914
			l-3.331,2.082l3.331,41.634l7.078-7.91v-5.829l5.829-1.665l-0.416-5.412l9.992-4.996l-2.498-4.996l2.498-7.078l3.331-1.249
			l-1.665,2.082l2.082,2.082l0.833-3.331l-2.082-1.665l-0.416-4.58l2.498-3.747l-3.331-1.665l-0.833,1.665l4.996-16.654l4.996-2.082
			l2.082,2.082l0.416-3.331l4.163-2.082l-0.416,5.829l8.327-7.078l4.163,0.416l4.996,5.412l0.833-4.58l27.479-17.903l7.494,1.665
			l2.498-4.163l-4.996-14.988l-1.665,0.833l-2.082-1.249l0.416-3.331l4.996,1.665l4.996-2.914l3.747-7.911l-2.082-2.498v-2.498
			l5.412-1.249l-1.665,2.498l2.498,4.58l10.409,0.833l0.416,4.163l11.658,7.91l4.163-12.49l5.829-1.665l3.331-4.996l-17.486-10.825
			v7.91l-3.747-11.658c-17.903-14.156-37.887-23.315-60.37-28.311l1.665,10.825l-4.996,3.747l-7.911-11.658l-5.412,3.331
			l-15.821-3.331l-4.996,4.163l-7.078-5.829l2.082-5.829l-5.412-7.91l-26.646,2.914l-3.331-3.331l2.498-1.665l-3.331-4.58
			l-3.747,1.249l-3.331-3.747l-4.58-0.833l4.996-2.498c-12.074-6.245-24.981-10.825-39.136-12.907l2.082,3.331l-6.245,8.743
			l1.665,6.662l-6.245,1.665l-2.082,2.082l-12.49-6.245l-1.249,3.747l-4.996-0.416l-3.747-7.911l-4.996,17.07l-10.409-16.237
			l2.915-2.914l-0.416-12.074l-7.911-5.412l-11.658-2.082l-0.833-1.665l-6.245-1.665l-2.082,5.412l1.665,4.996l-8.327,2.498
			l-11.657-3.331v-3.331l1.665-2.082l-13.739-2.498l-7.911,2.914l-0.833,4.58l-2.498-10.825l-1.249,4.163l-8.743-4.58l2.498,4.58
			l-27.062,16.654l39.136-42.467l-2.498-14.988l-8.743-8.327l-12.907,0.416l-2.914,3.747l-5.829-0.416l6.661-8.743l-7.494-2.498
			l-4.58,1.665L1132.719,159.043 M765.92,365.133l0.833-2.082l-1.249,3.747l-3.331,0.416L765.92,365.133 M938.703,467.138h2.082
			l1.665-2.498l2.082,0.416l2.498-2.914l0.833,1.665l2.914-1.665l-2.498,3.747l0.416,2.914l2.082,1.665l0.416,2.498l-2.498,1.665
			l-0.416,2.498l-2.498,3.331l-2.082,0.416l-2.082-1.249l-3.747,0.416l-1.249-7.078L938.703,467.138 M922.049,471.301l-4.996-1.249
			l-2.082,0.833l-3.331-0.833l-2.498,1.665l-0.833,3.331l-5.829-0.416l4.996,5.412v3.747l5.829,2.498l-0.833,2.498l0.833,5.412
			l0.416-2.498l3.331-1.665l4.58,4.996l-1.665,2.914l-4.996-0.833l-0.833-1.665l0.416,2.914l-0.833,1.665l1.249,2.498l3.747-0.416
			l-2.498,2.914l2.498,2.498l-0.833,1.665l1.249,9.16l-9.16,1.665l-5.829-2.498l-0.833-1.665l-4.996-0.833l-0.416-9.16l1.249,0.833
			l2.498-6.245l2.082-0.416c-7.078-4.996-10.825-12.074-11.241-20.401l-0.833,1.665l-1.665-4.58l2.082-10.825l3.331,2.498
			l11.241-8.743l7.911,0.833L922.049,471.301z"/>
	</g>
</g>
<g id="Layer_1">
</g>
</svg>
